<?xml version="1.0" encoding="UTF-8" standalone="no"?><svg xmlns="http://www.w3.org/2000/svg" xmlns:xlink="http://www.w3.org/1999/xlink" contentScriptType="application/ecmascript" contentStyleType="text/css" height="291px" preserveAspectRatio="none" style="width:665px;height:291px;" version="1.1" viewBox="0 0 665 291" width="665px" zoomAndPan="magnify"><defs><filter height="300%" id="f138v0gkuh50tk" width="300%" x="-1" y="-1"><feGaussianBlur result="blurOut" stdDeviation="2.0"/><feColorMatrix in="blurOut" result="blurOut2" type="matrix" values="0 0 0 0 0 0 0 0 0 0 0 0 0 0 0 0 0 0 .4 0"/><feOffset dx="4.0" dy="4.0" in="blurOut2" result="blurOut3"/><feBlend in="SourceGraphic" in2="blurOut3" mode="normal"/></filter></defs><g><ellipse cx="328.8153" cy="170.5631" fill="#FEFECE" filter="url(#f138v0gkuh50tk)" rx="75.8153" ry="17.5631" style="stroke: #A80036; stroke-width: 1.5;"/><text fill="#000000" font-family="sans-serif" font-size="14" lengthAdjust="spacingAndGlyphs" textLength="116" x="270.8153" y="175.8677">Manage AI Models</text><!--entity DataScientist--><ellipse cx="114" cy="18" fill="#FEFECE" filter="url(#f138v0gkuh50tk)" rx="8" ry="8" style="stroke: #A80036; stroke-width: 2.0;"/><path d="M114,26 L114,53 M101,34 L127,34 M114,53 L101,68 M114,53 L127,68 " fill="none" filter="url(#f138v0gkuh50tk)" style="stroke: #A80036; stroke-width: 2.0;"/><text fill="#000000" font-family="sans-serif" font-size="14" lengthAdjust="spacingAndGlyphs" textLength="87" x="70.5" y="89.5332">Data Scientist</text><!--entity DevOpsEngineer--><ellipse cx="249" cy="18" fill="#FEFECE" filter="url(#f138v0gkuh50tk)" rx="8" ry="8" style="stroke: #A80036; stroke-width: 2.0;"/><path d="M249,26 L249,53 M236,34 L262,34 M249,53 L236,68 M249,53 L262,68 " fill="none" filter="url(#f138v0gkuh50tk)" style="stroke: #A80036; stroke-width: 2.0;"/><text fill="#000000" font-family="sans-serif" font-size="14" lengthAdjust="spacingAndGlyphs" textLength="112" x="193" y="89.5332">DevOps Engineer</text><!--entity ApplicationDeveloper--><ellipse cx="409" cy="18" fill="#FEFECE" filter="url(#f138v0gkuh50tk)" rx="8" ry="8" style="stroke: #A80036; stroke-width: 2.0;"/><path d="M409,26 L409,53 M396,34 L422,34 M409,53 L396,68 M409,53 L422,68 " fill="none" filter="url(#f138v0gkuh50tk)" style="stroke: #A80036; stroke-width: 2.0;"/><text fill="#000000" font-family="sans-serif" font-size="14" lengthAdjust="spacingAndGlyphs" textLength="138" x="340" y="89.5332">Application Developer</text><!--entity DataEngineer--><ellipse cx="557" cy="18" fill="#FEFECE" filter="url(#f138v0gkuh50tk)" rx="8" ry="8" style="stroke: #A80036; stroke-width: 2.0;"/><path d="M557,26 L557,53 M544,34 L570,34 M557,53 L544,68 M557,53 L570,68 " fill="none" filter="url(#f138v0gkuh50tk)" style="stroke: #A80036; stroke-width: 2.0;"/><text fill="#000000" font-family="sans-serif" font-size="14" lengthAdjust="spacingAndGlyphs" textLength="87" x="513.5" y="89.5332">DataEngineer</text><ellipse cx="73.0337" cy="263.8067" fill="#D3D3D3" filter="url(#f138v0gkuh50tk)" rx="67.0337" ry="15.8067" style="stroke: #A80036; stroke-width: 1.5;"/><text fill="#000000" font-family="sans-serif" font-size="14" lengthAdjust="spacingAndGlyphs" textLength="93" x="26.5337" y="269.1114">CreateAIModel</text><ellipse cx="242.8977" cy="263.8795" fill="#D3D3D3" filter="url(#f138v0gkuh50tk)" rx="67.3977" ry="15.8795" style="stroke: #A80036; stroke-width: 1.5;"/><text fill="#000000" font-family="sans-serif" font-size="14" lengthAdjust="spacingAndGlyphs" textLength="94" x="195.8977" y="269.1842">DeployAIModel</text><ellipse cx="415.2443" cy="264.2489" fill="#D3D3D3" filter="url(#f138v0gkuh50tk)" rx="69.2443" ry="16.2489" style="stroke: #A80036; stroke-width: 1.5;"/><text fill="#000000" font-family="sans-serif" font-size="14" lengthAdjust="spacingAndGlyphs" textLength="99" x="365.7443" y="269.5536">DestroyAIModel</text><ellipse cx="586.7635" cy="263.9527" fill="#D3D3D3" filter="url(#f138v0gkuh50tk)" rx="67.7635" ry="15.9527" style="stroke: #A80036; stroke-width: 1.5;"/><text fill="#000000" font-family="sans-serif" font-size="14" lengthAdjust="spacingAndGlyphs" textLength="95" x="539.2635" y="269.2574">UpdateAIModel</text><!--link DataScientist to ManageAIModels--><path d="M157.519,82.153 C163.32,85.928 169.251,89.637 175,93 C213.561,115.553 259.66,137.879 291.31,152.537 " fill="none" id="DataScientist-ManageAIModels" style="stroke: #A80036; stroke-width: 1.0;"/><polygon fill="#A80036" points="295.872,154.643,289.377,147.2393,291.3323,152.5474,286.0241,154.5027,295.872,154.643" style="stroke: #A80036; stroke-width: 1.0;"/><!--link DevOpsEngineer to ManageAIModels--><path d="M277.205,93.102 C290.034,112.026 304.641,133.571 315.065,148.946 " fill="none" id="DevOpsEngineer-ManageAIModels" style="stroke: #A80036; stroke-width: 1.0;"/><polygon fill="#A80036" points="317.889,153.112,316.1496,143.418,315.0833,148.9734,309.5278,147.9071,317.889,153.112" style="stroke: #A80036; stroke-width: 1.0;"/><!--link ApplicationDeveloper to ManageAIModels--><path d="M380.795,93.102 C367.966,112.026 353.359,133.571 342.935,148.946 " fill="none" id="ApplicationDeveloper-ManageAIModels" style="stroke: #A80036; stroke-width: 1.0;"/><polygon fill="#A80036" points="340.111,153.112,348.4722,147.9071,342.9167,148.9734,341.8504,143.418,340.111,153.112" style="stroke: #A80036; stroke-width: 1.0;"/><!--link DataEngineer to ManageAIModels--><path d="M513.245,82.542 C507.534,86.214 501.69,89.791 496,93 C454.433,116.441 404.4,138.616 370.001,152.996 " fill="none" id="DataEngineer-ManageAIModels" style="stroke: #A80036; stroke-width: 1.0;"/><polygon fill="#A80036" points="365.042,155.061,374.8881,155.2961,369.6582,153.14,371.8144,147.9101,365.042,155.061" style="stroke: #A80036; stroke-width: 1.0;"/><!--link ManageAIModels to CreateAIModel--><path d="M289.561,185.5964 C241.695,202.7046 161.422,231.3962 113.211,248.6279 " fill="none" id="ManageAIModels-CreateAIModel" style="stroke: #A80036; stroke-width: 1.0;"/><polygon fill="#A80036" points="108.359,250.3618,118.1802,251.0994,113.0673,248.679,115.4877,243.5661,108.359,250.3618" style="stroke: #A80036; stroke-width: 1.0;"/><!--link ManageAIModels to DeployAIModel--><path d="M313.625,187.8584 C298.749,203.6859 276.223,227.6522 260.628,244.2442 " fill="none" id="ManageAIModels-DeployAIModel" style="stroke: #A80036; stroke-width: 1.0;"/><polygon fill="#A80036" points="256.822,248.2942,265.9007,244.4762,260.2466,244.6511,260.0717,238.9969,256.822,248.2942" style="stroke: #A80036; stroke-width: 1.0;"/><!--link ManageAIModels to DestroyAIModel--><path d="M344.375,187.8584 C359.251,203.6859 381.777,227.6522 397.372,244.2442 " fill="none" id="ManageAIModels-DestroyAIModel" style="stroke: #A80036; stroke-width: 1.0;"/><polygon fill="#A80036" points="401.178,248.2942,397.9283,238.9969,397.7534,244.6511,392.0993,244.4762,401.178,248.2942" style="stroke: #A80036; stroke-width: 1.0;"/><!--link ManageAIModels to UpdateAIModel--><path d="M368.465,185.4965 C416.64,202.5817 497.688,231.3253 546.381,248.5943 " fill="none" id="ManageAIModels-UpdateAIModel" style="stroke: #A80036; stroke-width: 1.0;"/><polygon fill="#A80036" points="551.28,250.332,544.1349,243.5536,546.5676,248.6606,541.4606,251.0934,551.28,250.332" style="stroke: #A80036; stroke-width: 1.0;"/><!--
@startuml


usecase "Manage AI Models" as ManageAIModels

Actor "Data Scientist" as DataScientist

DataScientist - -> ManageAIModels

Actor "DevOps Engineer" as DevOpsEngineer

DevOpsEngineer - -> ManageAIModels

Actor "Application Developer" as ApplicationDeveloper

ApplicationDeveloper - -> ManageAIModels

Actor "DataEngineer" as DataEngineer

DataEngineer - -> ManageAIModels



usecase "CreateAIModel" as CreateAIModel #lightgrey

ManageAIModels - -> CreateAIModel

usecase "DeployAIModel" as DeployAIModel #lightgrey

ManageAIModels - -> DeployAIModel

usecase "DestroyAIModel" as DestroyAIModel #lightgrey

ManageAIModels - -> DestroyAIModel

usecase "UpdateAIModel" as UpdateAIModel #lightgrey

ManageAIModels - -> UpdateAIModel

@enduml

PlantUML version 1.2019.05(Sat Apr 20 09:45:36 PDT 2019)
(GPL source distribution)
Java Runtime: OpenJDK Runtime Environment
JVM: OpenJDK 64-Bit Server VM
Java Version: 12.0.1+12
Operating System: Windows 10
OS Version: 10.0
Default Encoding: Cp1252
Language: en
Country: US
--></g></svg>