<?xml version="1.0" encoding="UTF-8" standalone="no"?><svg xmlns="http://www.w3.org/2000/svg" xmlns:xlink="http://www.w3.org/1999/xlink" contentScriptType="application/ecmascript" contentStyleType="text/css" height="600px" preserveAspectRatio="none" style="width:1528px;height:600px;" version="1.1" viewBox="0 0 1528 600" width="1528px" zoomAndPan="magnify"><defs><filter height="300%" id="f7ml61drfghrp" width="300%" x="-1" y="-1"><feGaussianBlur result="blurOut" stdDeviation="2.0"/><feColorMatrix in="blurOut" result="blurOut2" type="matrix" values="0 0 0 0 0 0 0 0 0 0 0 0 0 0 0 0 0 0 .4 0"/><feOffset dx="4.0" dy="4.0" in="blurOut2" result="blurOut3"/><feBlend in="SourceGraphic" in2="blurOut3" mode="normal"/></filter></defs><g><rect fill="#ADD8E6" height="585.7891" style="stroke: #A80036; stroke-width: 1.0;" width="209" x="351.5" y="4"/><text fill="#000000" font-family="sans-serif" font-size="13" font-weight="bold" lengthAdjust="spacingAndGlyphs" textLength="199" x="354.5" y="17.4951">Application Management Layer</text><rect fill="#FFFFE0" height="585.7891" style="stroke: #A80036; stroke-width: 1.0;" width="208" x="562.5" y="4"/><text fill="#000000" font-family="sans-serif" font-size="13" font-weight="bold" lengthAdjust="spacingAndGlyphs" textLength="198" x="565.5" y="17.4951">Software Defined Infrastructure</text><rect fill="#FFCC88" height="585.7891" style="stroke: #A80036; stroke-width: 1.0;" width="278" x="849.5" y="4"/><text fill="#000000" font-family="sans-serif" font-size="13" font-weight="bold" lengthAdjust="spacingAndGlyphs" textLength="272" x="852.5" y="17.4951">Distributed Information Management Layer</text><rect fill="#90EE90" height="585.7891" style="stroke: #A80036; stroke-width: 1.0;" width="181" x="1129.5" y="4"/><text fill="#000000" font-family="sans-serif" font-size="13" font-weight="bold" lengthAdjust="spacingAndGlyphs" textLength="175" x="1132.5" y="17.4951">Service Management Layer</text><rect fill="#FFC0CB" height="585.7891" style="stroke: #A80036; stroke-width: 1.0;" width="104" x="1312.5" y="4"/><text fill="#000000" font-family="sans-serif" font-size="13" font-weight="bold" lengthAdjust="spacingAndGlyphs" textLength="98" x="1315.5" y="17.4951">Security Aspect</text><rect fill="#FFC0CB" height="585.7891" style="stroke: #A80036; stroke-width: 1.0;" width="99" x="1418.5" y="4"/><text fill="#000000" font-family="sans-serif" font-size="13" font-weight="bold" lengthAdjust="spacingAndGlyphs" textLength="93" x="1421.5" y="17.4951">Identity Aspect</text><line style="stroke: #A80036; stroke-width: 1.0; stroke-dasharray: 5.0,5.0;" x1="80" x2="80" y1="87.6094" y2="502.1797"/><line style="stroke: #A80036; stroke-width: 1.0; stroke-dasharray: 5.0,5.0;" x1="208" x2="208" y1="87.6094" y2="502.1797"/><line style="stroke: #A80036; stroke-width: 1.0; stroke-dasharray: 5.0,5.0;" x1="298" x2="298" y1="87.6094" y2="502.1797"/><line style="stroke: #A80036; stroke-width: 1.0; stroke-dasharray: 5.0,5.0;" x1="455.5" x2="455.5" y1="87.6094" y2="502.1797"/><line style="stroke: #A80036; stroke-width: 1.0; stroke-dasharray: 5.0,5.0;" x1="666.5" x2="666.5" y1="87.6094" y2="502.1797"/><line style="stroke: #A80036; stroke-width: 1.0; stroke-dasharray: 5.0,5.0;" x1="809.5" x2="809.5" y1="87.6094" y2="502.1797"/><line style="stroke: #A80036; stroke-width: 1.0; stroke-dasharray: 5.0,5.0;" x1="988" x2="988" y1="87.6094" y2="502.1797"/><line style="stroke: #A80036; stroke-width: 1.0; stroke-dasharray: 5.0,5.0;" x1="1219.5" x2="1219.5" y1="87.6094" y2="502.1797"/><line style="stroke: #A80036; stroke-width: 1.0; stroke-dasharray: 5.0,5.0;" x1="1364" x2="1364" y1="87.6094" y2="502.1797"/><line style="stroke: #A80036; stroke-width: 1.0; stroke-dasharray: 5.0,5.0;" x1="1467.5" x2="1467.5" y1="87.6094" y2="502.1797"/><text fill="#000000" font-family="sans-serif" font-size="14" lengthAdjust="spacingAndGlyphs" textLength="138" x="8" y="84.5332">Application Developer</text><ellipse cx="80" cy="13" fill="#FEFECE" filter="url(#f7ml61drfghrp)" rx="8" ry="8" style="stroke: #A80036; stroke-width: 2.0;"/><path d="M80,21 L80,48 M67,29 L93,29 M80,48 L67,63 M80,48 L93,63 " fill="none" filter="url(#f7ml61drfghrp)" style="stroke: #A80036; stroke-width: 2.0;"/><text fill="#000000" font-family="sans-serif" font-size="14" lengthAdjust="spacingAndGlyphs" textLength="138" x="8" y="515.7129">Application Developer</text><ellipse cx="80" cy="528.7891" fill="#FEFECE" filter="url(#f7ml61drfghrp)" rx="8" ry="8" style="stroke: #A80036; stroke-width: 2.0;"/><path d="M80,536.7891 L80,563.7891 M67,544.7891 L93,544.7891 M80,563.7891 L67,578.7891 M80,563.7891 L93,578.7891 " fill="none" filter="url(#f7ml61drfghrp)" style="stroke: #A80036; stroke-width: 2.0;"/><text fill="#000000" font-family="sans-serif" font-size="14" lengthAdjust="spacingAndGlyphs" textLength="87" x="162" y="84.5332">Data Scientist</text><ellipse cx="208.5" cy="13" fill="#FEFECE" filter="url(#f7ml61drfghrp)" rx="8" ry="8" style="stroke: #A80036; stroke-width: 2.0;"/><path d="M208.5,21 L208.5,48 M195.5,29 L221.5,29 M208.5,48 L195.5,63 M208.5,48 L221.5,63 " fill="none" filter="url(#f7ml61drfghrp)" style="stroke: #A80036; stroke-width: 2.0;"/><text fill="#000000" font-family="sans-serif" font-size="14" lengthAdjust="spacingAndGlyphs" textLength="87" x="162" y="515.7129">Data Scientist</text><ellipse cx="208.5" cy="528.7891" fill="#FEFECE" filter="url(#f7ml61drfghrp)" rx="8" ry="8" style="stroke: #A80036; stroke-width: 2.0;"/><path d="M208.5,536.7891 L208.5,563.7891 M195.5,544.7891 L221.5,544.7891 M208.5,563.7891 L195.5,578.7891 M208.5,563.7891 L221.5,578.7891 " fill="none" filter="url(#f7ml61drfghrp)" style="stroke: #A80036; stroke-width: 2.0;"/><text fill="#000000" font-family="sans-serif" font-size="14" lengthAdjust="spacingAndGlyphs" textLength="60" x="265" y="84.5332">EventBus</text><ellipse cx="298" cy="54" fill="#FEFECE" filter="url(#f7ml61drfghrp)" rx="12" ry="12" style="stroke: #A80036; stroke-width: 2.0;"/><line style="stroke: #A80036; stroke-width: 2.0;" x1="286" x2="310" y1="68" y2="68"/><text fill="#000000" font-family="sans-serif" font-size="14" lengthAdjust="spacingAndGlyphs" textLength="60" x="265" y="515.7129">EventBus</text><ellipse cx="298" cy="534.7891" fill="#FEFECE" filter="url(#f7ml61drfghrp)" rx="12" ry="12" style="stroke: #A80036; stroke-width: 2.0;"/><line style="stroke: #A80036; stroke-width: 2.0;" x1="286" x2="310" y1="548.7891" y2="548.7891"/><text fill="#000000" font-family="sans-serif" font-size="14" lengthAdjust="spacingAndGlyphs" textLength="22" x="442" y="84.5332">aml</text><path d="M435.5,42 L435.5,66 M435.5,54 L452.5,54 " fill="none" filter="url(#f7ml61drfghrp)" style="stroke: #A80036; stroke-width: 2.0;"/><ellipse cx="464.5" cy="54" fill="#FFFFFF" filter="url(#f7ml61drfghrp)" rx="12" ry="12" style="stroke: #A80036; stroke-width: 2.0;"/><text fill="#000000" font-family="sans-serif" font-size="14" lengthAdjust="spacingAndGlyphs" textLength="22" x="442" y="515.7129">aml</text><path d="M435.5,522.7891 L435.5,546.7891 M435.5,534.7891 L452.5,534.7891 " fill="none" filter="url(#f7ml61drfghrp)" style="stroke: #A80036; stroke-width: 2.0;"/><ellipse cx="464.5" cy="534.7891" fill="#FFFFFF" filter="url(#f7ml61drfghrp)" rx="12" ry="12" style="stroke: #A80036; stroke-width: 2.0;"/><rect fill="#FEFECE" filter="url(#f7ml61drfghrp)" height="31.6094" style="stroke: #A80036; stroke-width: 1.5;" width="118" x="605.5" y="51"/><text fill="#000000" font-family="sans-serif" font-size="14" lengthAdjust="spacingAndGlyphs" textLength="104" x="612.5" y="72.5332">storageresource</text><rect fill="#FEFECE" filter="url(#f7ml61drfghrp)" height="31.6094" style="stroke: #A80036; stroke-width: 1.5;" width="118" x="605.5" y="501.1797"/><text fill="#000000" font-family="sans-serif" font-size="14" lengthAdjust="spacingAndGlyphs" textLength="104" x="612.5" y="522.7129">storageresource</text><rect fill="#FEFECE" filter="url(#f7ml61drfghrp)" height="31.6094" style="stroke: #A80036; stroke-width: 1.5;" width="63" x="776.5" y="51"/><text fill="#000000" font-family="sans-serif" font-size="14" lengthAdjust="spacingAndGlyphs" textLength="49" x="783.5" y="72.5332">aimodel</text><rect fill="#FEFECE" filter="url(#f7ml61drfghrp)" height="31.6094" style="stroke: #A80036; stroke-width: 1.5;" width="63" x="776.5" y="501.1797"/><text fill="#000000" font-family="sans-serif" font-size="14" lengthAdjust="spacingAndGlyphs" textLength="49" x="783.5" y="522.7129">aimodel</text><text fill="#000000" font-family="sans-serif" font-size="14" lengthAdjust="spacingAndGlyphs" textLength="25" x="973" y="84.5332">diml</text><path d="M968,42 L968,66 M968,54 L985,54 " fill="none" filter="url(#f7ml61drfghrp)" style="stroke: #A80036; stroke-width: 2.0;"/><ellipse cx="997" cy="54" fill="#FFFFFF" filter="url(#f7ml61drfghrp)" rx="12" ry="12" style="stroke: #A80036; stroke-width: 2.0;"/><text fill="#000000" font-family="sans-serif" font-size="14" lengthAdjust="spacingAndGlyphs" textLength="25" x="973" y="515.7129">diml</text><path d="M968,522.7891 L968,546.7891 M968,534.7891 L985,534.7891 " fill="none" filter="url(#f7ml61drfghrp)" style="stroke: #A80036; stroke-width: 2.0;"/><ellipse cx="997" cy="534.7891" fill="#FFFFFF" filter="url(#f7ml61drfghrp)" rx="12" ry="12" style="stroke: #A80036; stroke-width: 2.0;"/><text fill="#000000" font-family="sans-serif" font-size="14" lengthAdjust="spacingAndGlyphs" textLength="21" x="1206.5" y="84.5332">sml</text><path d="M1199.5,42 L1199.5,66 M1199.5,54 L1216.5,54 " fill="none" filter="url(#f7ml61drfghrp)" style="stroke: #A80036; stroke-width: 2.0;"/><ellipse cx="1228.5" cy="54" fill="#FFFFFF" filter="url(#f7ml61drfghrp)" rx="12" ry="12" style="stroke: #A80036; stroke-width: 2.0;"/><text fill="#000000" font-family="sans-serif" font-size="14" lengthAdjust="spacingAndGlyphs" textLength="21" x="1206.5" y="515.7129">sml</text><path d="M1199.5,522.7891 L1199.5,546.7891 M1199.5,534.7891 L1216.5,534.7891 " fill="none" filter="url(#f7ml61drfghrp)" style="stroke: #A80036; stroke-width: 2.0;"/><ellipse cx="1228.5" cy="534.7891" fill="#FFFFFF" filter="url(#f7ml61drfghrp)" rx="12" ry="12" style="stroke: #A80036; stroke-width: 2.0;"/><text fill="#000000" font-family="sans-serif" font-size="14" lengthAdjust="spacingAndGlyphs" textLength="15" x="1354" y="84.5332">sa</text><path d="M1344,42 L1344,66 M1344,54 L1361,54 " fill="none" filter="url(#f7ml61drfghrp)" style="stroke: #A80036; stroke-width: 2.0;"/><ellipse cx="1373" cy="54" fill="#FFFFFF" filter="url(#f7ml61drfghrp)" rx="12" ry="12" style="stroke: #A80036; stroke-width: 2.0;"/><text fill="#000000" font-family="sans-serif" font-size="14" lengthAdjust="spacingAndGlyphs" textLength="15" x="1354" y="515.7129">sa</text><path d="M1344,522.7891 L1344,546.7891 M1344,534.7891 L1361,534.7891 " fill="none" filter="url(#f7ml61drfghrp)" style="stroke: #A80036; stroke-width: 2.0;"/><ellipse cx="1373" cy="534.7891" fill="#FFFFFF" filter="url(#f7ml61drfghrp)" rx="12" ry="12" style="stroke: #A80036; stroke-width: 2.0;"/><text fill="#000000" font-family="sans-serif" font-size="14" lengthAdjust="spacingAndGlyphs" textLength="11" x="1459.5" y="84.5332">ia</text><path d="M1447.5,42 L1447.5,66 M1447.5,54 L1464.5,54 " fill="none" filter="url(#f7ml61drfghrp)" style="stroke: #A80036; stroke-width: 2.0;"/><ellipse cx="1476.5" cy="54" fill="#FFFFFF" filter="url(#f7ml61drfghrp)" rx="12" ry="12" style="stroke: #A80036; stroke-width: 2.0;"/><text fill="#000000" font-family="sans-serif" font-size="14" lengthAdjust="spacingAndGlyphs" textLength="11" x="1459.5" y="515.7129">ia</text><path d="M1447.5,522.7891 L1447.5,546.7891 M1447.5,534.7891 L1464.5,534.7891 " fill="none" filter="url(#f7ml61drfghrp)" style="stroke: #A80036; stroke-width: 2.0;"/><ellipse cx="1476.5" cy="534.7891" fill="#FFFFFF" filter="url(#f7ml61drfghrp)" rx="12" ry="12" style="stroke: #A80036; stroke-width: 2.0;"/><polygon fill="#A80036" points="444,115.9609,454,119.9609,444,123.9609,448,119.9609" style="stroke: #A80036; stroke-width: 1.0;"/><line style="stroke: #A80036; stroke-width: 1.0;" x1="80" x2="450" y1="119.9609" y2="119.9609"/><text fill="#000000" font-family="sans-serif" font-size="13" lengthAdjust="spacingAndGlyphs" textLength="93" x="87" y="115.1045">Create AI Model</text><polygon fill="#A80036" points="798,146.3125,808,150.3125,798,154.3125,802,150.3125" style="stroke: #A80036; stroke-width: 1.0;"/><line style="stroke: #A80036; stroke-width: 1.0;" x1="456" x2="804" y1="150.3125" y2="150.3125"/><text fill="#000000" font-family="sans-serif" font-size="13" lengthAdjust="spacingAndGlyphs" textLength="127" x="463" y="145.4561">create (name: name1)</text><polygon fill="#A80036" points="444,176.6641,454,180.6641,444,184.6641,448,180.6641" style="stroke: #A80036; stroke-width: 1.0;"/><line style="stroke: #A80036; stroke-width: 1.0;" x1="208.5" x2="450" y1="180.6641" y2="180.6641"/><text fill="#000000" font-family="sans-serif" font-size="13" lengthAdjust="spacingAndGlyphs" textLength="93" x="215.5" y="175.8076">Create AI Model</text><polygon fill="#A80036" points="798,207.0156,808,211.0156,798,215.0156,802,211.0156" style="stroke: #A80036; stroke-width: 1.0;"/><line style="stroke: #A80036; stroke-width: 1.0;" x1="456" x2="804" y1="211.0156" y2="211.0156"/><text fill="#000000" font-family="sans-serif" font-size="13" lengthAdjust="spacingAndGlyphs" textLength="127" x="463" y="206.1592">create (name: name1)</text><polygon fill="#A80036" points="976.5,237.3672,986.5,241.3672,976.5,241.3672" style="stroke: #A80036; stroke-width: 1.0;"/><line style="stroke: #A80036; stroke-width: 1.0;" x1="298" x2="987.5" y1="241.3672" y2="241.3672"/><text fill="#000000" font-family="sans-serif" font-size="13" lengthAdjust="spacingAndGlyphs" textLength="51" x="305" y="236.5107">method()</text><polygon fill="#A80036" points="309,272.7188,299,272.7188,309,276.7188" style="stroke: #A80036; stroke-width: 1.0;"/><line style="stroke: #A80036; stroke-width: 1.0; stroke-dasharray: 2.0,2.0;" x1="298" x2="987.5" y1="271.7188" y2="271.7188"/><text fill="#000000" font-family="sans-serif" font-size="13" lengthAdjust="spacingAndGlyphs" textLength="78" x="315" y="266.8623">Model.Event2</text><polygon fill="#A80036" points="1208,298.0703,1218,302.0703,1208,302.0703" style="stroke: #A80036; stroke-width: 1.0;"/><line style="stroke: #A80036; stroke-width: 1.0;" x1="298" x2="1219" y1="302.0703" y2="302.0703"/><text fill="#000000" font-family="sans-serif" font-size="13" lengthAdjust="spacingAndGlyphs" textLength="51" x="305" y="297.2139">method()</text><polygon fill="#A80036" points="309,333.4219,299,333.4219,309,337.4219" style="stroke: #A80036; stroke-width: 1.0;"/><line style="stroke: #A80036; stroke-width: 1.0; stroke-dasharray: 2.0,2.0;" x1="298" x2="1219" y1="332.4219" y2="332.4219"/><text fill="#000000" font-family="sans-serif" font-size="13" lengthAdjust="spacingAndGlyphs" textLength="78" x="315" y="327.5654">Model.Event2</text><polygon fill="#A80036" points="1352.5,358.7734,1362.5,362.7734,1352.5,362.7734" style="stroke: #A80036; stroke-width: 1.0;"/><line style="stroke: #A80036; stroke-width: 1.0;" x1="298" x2="1363.5" y1="362.7734" y2="362.7734"/><text fill="#000000" font-family="sans-serif" font-size="13" lengthAdjust="spacingAndGlyphs" textLength="51" x="305" y="357.917">method()</text><polygon fill="#A80036" points="309,394.125,299,394.125,309,398.125" style="stroke: #A80036; stroke-width: 1.0;"/><line style="stroke: #A80036; stroke-width: 1.0; stroke-dasharray: 2.0,2.0;" x1="298" x2="1363.5" y1="393.125" y2="393.125"/><text fill="#000000" font-family="sans-serif" font-size="13" lengthAdjust="spacingAndGlyphs" textLength="78" x="315" y="388.2686">Model.Event2</text><polygon fill="#A80036" points="1456,419.4766,1466,423.4766,1456,423.4766" style="stroke: #A80036; stroke-width: 1.0;"/><line style="stroke: #A80036; stroke-width: 1.0;" x1="298" x2="1467" y1="423.4766" y2="423.4766"/><text fill="#000000" font-family="sans-serif" font-size="13" lengthAdjust="spacingAndGlyphs" textLength="51" x="305" y="418.6201">method()</text><polygon fill="#A80036" points="309,454.8281,299,454.8281,309,458.8281" style="stroke: #A80036; stroke-width: 1.0;"/><line style="stroke: #A80036; stroke-width: 1.0; stroke-dasharray: 2.0,2.0;" x1="298" x2="1467" y1="453.8281" y2="453.8281"/><text fill="#000000" font-family="sans-serif" font-size="13" lengthAdjust="spacingAndGlyphs" textLength="78" x="315" y="448.9717">Model.Event2</text><polygon fill="#A80036" points="444,485.1797,454,485.1797,444,489.1797" style="stroke: #A80036; stroke-width: 1.0;"/><line style="stroke: #A80036; stroke-width: 1.0; stroke-dasharray: 2.0,2.0;" x1="298" x2="455" y1="484.1797" y2="484.1797"/><text fill="#000000" font-family="sans-serif" font-size="13" lengthAdjust="spacingAndGlyphs" textLength="58" x="305" y="479.3232">method2()</text><!--
@startuml

actor "Application Developer"

actor "Data Scientist"


entity EventBus

box Application Management Layer #lightblue
    boundary aml #white
end box


box Software Defined Infrastructure #lightyellow
            participant storageresource
    end box


"Application Developer" -> aml: Create AI Model

    aml -> "aimodel": create (name: name1)



"Data Scientist" -> aml: Create AI Model

    aml -> "aimodel": create (name: name1)




box "Distributed Information Management Layer" #ffcc88
    boundary diml #white
end box
EventBus -\ diml: method()
diml - -/ EventBus: Model.Event2
box "Service Management Layer" #lightgreen
    boundary sml #white
end box
EventBus -\ sml: method()
sml - -/ EventBus: Model.Event2
box "Security Aspect" #pink
    boundary sa #white
end box
EventBus -\ sa: method()
sa - -/ EventBus: Model.Event2
box "Identity Aspect" #pink
    boundary ia #white
end box
EventBus -\ ia: method()
ia - -/ EventBus: Model.Event2

EventBus - -/ aml : method2()
@enduml

PlantUML version 1.2019.05(Sat Apr 20 09:45:36 PDT 2019)
(GPL source distribution)
Java Runtime: OpenJDK Runtime Environment
JVM: OpenJDK 64-Bit Server VM
Java Version: 12.0.1+12
Operating System: Windows 10
OS Version: 10.0
Default Encoding: Cp1252
Language: en
Country: US
--></g></svg>