<?xml version="1.0" encoding="UTF-8" standalone="no"?><svg xmlns="http://www.w3.org/2000/svg" xmlns:xlink="http://www.w3.org/1999/xlink" contentScriptType="application/ecmascript" contentStyleType="text/css" height="570px" preserveAspectRatio="none" style="width:1361px;height:570px;" version="1.1" viewBox="0 0 1361 570" width="1361px" zoomAndPan="magnify"><defs><filter height="300%" id="f1faz8qj5bf1y5" width="300%" x="-1" y="-1"><feGaussianBlur result="blurOut" stdDeviation="2.0"/><feColorMatrix in="blurOut" result="blurOut2" type="matrix" values="0 0 0 0 0 0 0 0 0 0 0 0 0 0 0 0 0 0 .4 0"/><feOffset dx="4.0" dy="4.0" in="blurOut2" result="blurOut3"/><feBlend in="SourceGraphic" in2="blurOut3" mode="normal"/></filter></defs><g><rect fill="#ADD8E6" height="555.4375" style="stroke: #A80036; stroke-width: 1.0;" width="209" x="471.5" y="4"/><text fill="#000000" font-family="sans-serif" font-size="13" font-weight="bold" lengthAdjust="spacingAndGlyphs" textLength="199" x="474.5" y="17.4951">Application Management Layer</text><rect fill="#FFCC88" height="555.4375" style="stroke: #A80036; stroke-width: 1.0;" width="278" x="682.5" y="4"/><text fill="#000000" font-family="sans-serif" font-size="13" font-weight="bold" lengthAdjust="spacingAndGlyphs" textLength="272" x="685.5" y="17.4951">Distributed Information Management Layer</text><rect fill="#90EE90" height="555.4375" style="stroke: #A80036; stroke-width: 1.0;" width="181" x="962.5" y="4"/><text fill="#000000" font-family="sans-serif" font-size="13" font-weight="bold" lengthAdjust="spacingAndGlyphs" textLength="175" x="965.5" y="17.4951">Service Management Layer</text><rect fill="#FFC0CB" height="555.4375" style="stroke: #A80036; stroke-width: 1.0;" width="104" x="1145.5" y="4"/><text fill="#000000" font-family="sans-serif" font-size="13" font-weight="bold" lengthAdjust="spacingAndGlyphs" textLength="98" x="1148.5" y="17.4951">Security Aspect</text><rect fill="#FFC0CB" height="555.4375" style="stroke: #A80036; stroke-width: 1.0;" width="99" x="1251.5" y="4"/><text fill="#000000" font-family="sans-serif" font-size="13" font-weight="bold" lengthAdjust="spacingAndGlyphs" textLength="93" x="1254.5" y="17.4951">Identity Aspect</text><line style="stroke: #A80036; stroke-width: 1.0; stroke-dasharray: 5.0,5.0;" x1="65" x2="65" y1="87.6094" y2="471.8281"/><line style="stroke: #A80036; stroke-width: 1.0; stroke-dasharray: 5.0,5.0;" x1="202" x2="202" y1="87.6094" y2="471.8281"/><line style="stroke: #A80036; stroke-width: 1.0; stroke-dasharray: 5.0,5.0;" x1="328" x2="328" y1="87.6094" y2="471.8281"/><line style="stroke: #A80036; stroke-width: 1.0; stroke-dasharray: 5.0,5.0;" x1="418" x2="418" y1="87.6094" y2="471.8281"/><line style="stroke: #A80036; stroke-width: 1.0; stroke-dasharray: 5.0,5.0;" x1="575.5" x2="575.5" y1="87.6094" y2="471.8281"/><line style="stroke: #A80036; stroke-width: 1.0; stroke-dasharray: 5.0,5.0;" x1="821" x2="821" y1="87.6094" y2="471.8281"/><line style="stroke: #A80036; stroke-width: 1.0; stroke-dasharray: 5.0,5.0;" x1="1052.5" x2="1052.5" y1="87.6094" y2="471.8281"/><line style="stroke: #A80036; stroke-width: 1.0; stroke-dasharray: 5.0,5.0;" x1="1197" x2="1197" y1="87.6094" y2="471.8281"/><line style="stroke: #A80036; stroke-width: 1.0; stroke-dasharray: 5.0,5.0;" x1="1300.5" x2="1300.5" y1="87.6094" y2="471.8281"/><text fill="#000000" font-family="sans-serif" font-size="14" lengthAdjust="spacingAndGlyphs" textLength="108" x="8" y="84.5332">DevOpsEngineer</text><ellipse cx="65" cy="13" fill="#FEFECE" filter="url(#f1faz8qj5bf1y5)" rx="8" ry="8" style="stroke: #A80036; stroke-width: 2.0;"/><path d="M65,21 L65,48 M52,29 L78,29 M65,48 L52,63 M65,48 L78,63 " fill="none" filter="url(#f1faz8qj5bf1y5)" style="stroke: #A80036; stroke-width: 2.0;"/><text fill="#000000" font-family="sans-serif" font-size="14" lengthAdjust="spacingAndGlyphs" textLength="108" x="8" y="485.3613">DevOpsEngineer</text><ellipse cx="65" cy="498.4375" fill="#FEFECE" filter="url(#f1faz8qj5bf1y5)" rx="8" ry="8" style="stroke: #A80036; stroke-width: 2.0;"/><path d="M65,506.4375 L65,533.4375 M52,514.4375 L78,514.4375 M65,533.4375 L52,548.4375 M65,533.4375 L78,548.4375 " fill="none" filter="url(#f1faz8qj5bf1y5)" style="stroke: #A80036; stroke-width: 2.0;"/><text fill="#000000" font-family="sans-serif" font-size="14" lengthAdjust="spacingAndGlyphs" textLength="134" x="132" y="84.5332">ApplicationDeveloper</text><ellipse cx="202" cy="13" fill="#FEFECE" filter="url(#f1faz8qj5bf1y5)" rx="8" ry="8" style="stroke: #A80036; stroke-width: 2.0;"/><path d="M202,21 L202,48 M189,29 L215,29 M202,48 L189,63 M202,48 L215,63 " fill="none" filter="url(#f1faz8qj5bf1y5)" style="stroke: #A80036; stroke-width: 2.0;"/><text fill="#000000" font-family="sans-serif" font-size="14" lengthAdjust="spacingAndGlyphs" textLength="134" x="132" y="485.3613">ApplicationDeveloper</text><ellipse cx="202" cy="498.4375" fill="#FEFECE" filter="url(#f1faz8qj5bf1y5)" rx="8" ry="8" style="stroke: #A80036; stroke-width: 2.0;"/><path d="M202,506.4375 L202,533.4375 M189,514.4375 L215,514.4375 M202,533.4375 L189,548.4375 M202,533.4375 L215,548.4375 " fill="none" filter="url(#f1faz8qj5bf1y5)" style="stroke: #A80036; stroke-width: 2.0;"/><text fill="#000000" font-family="sans-serif" font-size="14" lengthAdjust="spacingAndGlyphs" textLength="87" x="282" y="84.5332">DataEngineer</text><ellipse cx="328.5" cy="13" fill="#FEFECE" filter="url(#f1faz8qj5bf1y5)" rx="8" ry="8" style="stroke: #A80036; stroke-width: 2.0;"/><path d="M328.5,21 L328.5,48 M315.5,29 L341.5,29 M328.5,48 L315.5,63 M328.5,48 L341.5,63 " fill="none" filter="url(#f1faz8qj5bf1y5)" style="stroke: #A80036; stroke-width: 2.0;"/><text fill="#000000" font-family="sans-serif" font-size="14" lengthAdjust="spacingAndGlyphs" textLength="87" x="282" y="485.3613">DataEngineer</text><ellipse cx="328.5" cy="498.4375" fill="#FEFECE" filter="url(#f1faz8qj5bf1y5)" rx="8" ry="8" style="stroke: #A80036; stroke-width: 2.0;"/><path d="M328.5,506.4375 L328.5,533.4375 M315.5,514.4375 L341.5,514.4375 M328.5,533.4375 L315.5,548.4375 M328.5,533.4375 L341.5,548.4375 " fill="none" filter="url(#f1faz8qj5bf1y5)" style="stroke: #A80036; stroke-width: 2.0;"/><text fill="#000000" font-family="sans-serif" font-size="14" lengthAdjust="spacingAndGlyphs" textLength="60" x="385" y="84.5332">EventBus</text><ellipse cx="418" cy="54" fill="#FEFECE" filter="url(#f1faz8qj5bf1y5)" rx="12" ry="12" style="stroke: #A80036; stroke-width: 2.0;"/><line style="stroke: #A80036; stroke-width: 2.0;" x1="406" x2="430" y1="68" y2="68"/><text fill="#000000" font-family="sans-serif" font-size="14" lengthAdjust="spacingAndGlyphs" textLength="60" x="385" y="485.3613">EventBus</text><ellipse cx="418" cy="504.4375" fill="#FEFECE" filter="url(#f1faz8qj5bf1y5)" rx="12" ry="12" style="stroke: #A80036; stroke-width: 2.0;"/><line style="stroke: #A80036; stroke-width: 2.0;" x1="406" x2="430" y1="518.4375" y2="518.4375"/><text fill="#000000" font-family="sans-serif" font-size="14" lengthAdjust="spacingAndGlyphs" textLength="22" x="562" y="84.5332">aml</text><path d="M555.5,42 L555.5,66 M555.5,54 L572.5,54 " fill="none" filter="url(#f1faz8qj5bf1y5)" style="stroke: #A80036; stroke-width: 2.0;"/><ellipse cx="584.5" cy="54" fill="#FFFFFF" filter="url(#f1faz8qj5bf1y5)" rx="12" ry="12" style="stroke: #A80036; stroke-width: 2.0;"/><text fill="#000000" font-family="sans-serif" font-size="14" lengthAdjust="spacingAndGlyphs" textLength="22" x="562" y="485.3613">aml</text><path d="M555.5,492.4375 L555.5,516.4375 M555.5,504.4375 L572.5,504.4375 " fill="none" filter="url(#f1faz8qj5bf1y5)" style="stroke: #A80036; stroke-width: 2.0;"/><ellipse cx="584.5" cy="504.4375" fill="#FFFFFF" filter="url(#f1faz8qj5bf1y5)" rx="12" ry="12" style="stroke: #A80036; stroke-width: 2.0;"/><text fill="#000000" font-family="sans-serif" font-size="14" lengthAdjust="spacingAndGlyphs" textLength="25" x="806" y="84.5332">diml</text><path d="M801,42 L801,66 M801,54 L818,54 " fill="none" filter="url(#f1faz8qj5bf1y5)" style="stroke: #A80036; stroke-width: 2.0;"/><ellipse cx="830" cy="54" fill="#FFFFFF" filter="url(#f1faz8qj5bf1y5)" rx="12" ry="12" style="stroke: #A80036; stroke-width: 2.0;"/><text fill="#000000" font-family="sans-serif" font-size="14" lengthAdjust="spacingAndGlyphs" textLength="25" x="806" y="485.3613">diml</text><path d="M801,492.4375 L801,516.4375 M801,504.4375 L818,504.4375 " fill="none" filter="url(#f1faz8qj5bf1y5)" style="stroke: #A80036; stroke-width: 2.0;"/><ellipse cx="830" cy="504.4375" fill="#FFFFFF" filter="url(#f1faz8qj5bf1y5)" rx="12" ry="12" style="stroke: #A80036; stroke-width: 2.0;"/><text fill="#000000" font-family="sans-serif" font-size="14" lengthAdjust="spacingAndGlyphs" textLength="21" x="1039.5" y="84.5332">sml</text><path d="M1032.5,42 L1032.5,66 M1032.5,54 L1049.5,54 " fill="none" filter="url(#f1faz8qj5bf1y5)" style="stroke: #A80036; stroke-width: 2.0;"/><ellipse cx="1061.5" cy="54" fill="#FFFFFF" filter="url(#f1faz8qj5bf1y5)" rx="12" ry="12" style="stroke: #A80036; stroke-width: 2.0;"/><text fill="#000000" font-family="sans-serif" font-size="14" lengthAdjust="spacingAndGlyphs" textLength="21" x="1039.5" y="485.3613">sml</text><path d="M1032.5,492.4375 L1032.5,516.4375 M1032.5,504.4375 L1049.5,504.4375 " fill="none" filter="url(#f1faz8qj5bf1y5)" style="stroke: #A80036; stroke-width: 2.0;"/><ellipse cx="1061.5" cy="504.4375" fill="#FFFFFF" filter="url(#f1faz8qj5bf1y5)" rx="12" ry="12" style="stroke: #A80036; stroke-width: 2.0;"/><text fill="#000000" font-family="sans-serif" font-size="14" lengthAdjust="spacingAndGlyphs" textLength="15" x="1187" y="84.5332">sa</text><path d="M1177,42 L1177,66 M1177,54 L1194,54 " fill="none" filter="url(#f1faz8qj5bf1y5)" style="stroke: #A80036; stroke-width: 2.0;"/><ellipse cx="1206" cy="54" fill="#FFFFFF" filter="url(#f1faz8qj5bf1y5)" rx="12" ry="12" style="stroke: #A80036; stroke-width: 2.0;"/><text fill="#000000" font-family="sans-serif" font-size="14" lengthAdjust="spacingAndGlyphs" textLength="15" x="1187" y="485.3613">sa</text><path d="M1177,492.4375 L1177,516.4375 M1177,504.4375 L1194,504.4375 " fill="none" filter="url(#f1faz8qj5bf1y5)" style="stroke: #A80036; stroke-width: 2.0;"/><ellipse cx="1206" cy="504.4375" fill="#FFFFFF" filter="url(#f1faz8qj5bf1y5)" rx="12" ry="12" style="stroke: #A80036; stroke-width: 2.0;"/><text fill="#000000" font-family="sans-serif" font-size="14" lengthAdjust="spacingAndGlyphs" textLength="11" x="1292.5" y="84.5332">ia</text><path d="M1280.5,42 L1280.5,66 M1280.5,54 L1297.5,54 " fill="none" filter="url(#f1faz8qj5bf1y5)" style="stroke: #A80036; stroke-width: 2.0;"/><ellipse cx="1309.5" cy="54" fill="#FFFFFF" filter="url(#f1faz8qj5bf1y5)" rx="12" ry="12" style="stroke: #A80036; stroke-width: 2.0;"/><text fill="#000000" font-family="sans-serif" font-size="14" lengthAdjust="spacingAndGlyphs" textLength="11" x="1292.5" y="485.3613">ia</text><path d="M1280.5,492.4375 L1280.5,516.4375 M1280.5,504.4375 L1297.5,504.4375 " fill="none" filter="url(#f1faz8qj5bf1y5)" style="stroke: #A80036; stroke-width: 2.0;"/><ellipse cx="1309.5" cy="504.4375" fill="#FFFFFF" filter="url(#f1faz8qj5bf1y5)" rx="12" ry="12" style="stroke: #A80036; stroke-width: 2.0;"/><polygon fill="#A80036" points="564,115.9609,574,119.9609,564,123.9609,568,119.9609" style="stroke: #A80036; stroke-width: 1.0;"/><line style="stroke: #A80036; stroke-width: 1.0;" x1="65" x2="570" y1="119.9609" y2="119.9609"/><text fill="#000000" font-family="sans-serif" font-size="13" lengthAdjust="spacingAndGlyphs" textLength="95" x="72" y="115.1045">Deploy AI Model</text><polygon fill="#A80036" points="564,146.3125,574,150.3125,564,154.3125,568,150.3125" style="stroke: #A80036; stroke-width: 1.0;"/><line style="stroke: #A80036; stroke-width: 1.0;" x1="202" x2="570" y1="150.3125" y2="150.3125"/><text fill="#000000" font-family="sans-serif" font-size="13" lengthAdjust="spacingAndGlyphs" textLength="95" x="209" y="145.4561">Deploy AI Model</text><polygon fill="#A80036" points="564,176.6641,574,180.6641,564,184.6641,568,180.6641" style="stroke: #A80036; stroke-width: 1.0;"/><line style="stroke: #A80036; stroke-width: 1.0;" x1="328.5" x2="570" y1="180.6641" y2="180.6641"/><text fill="#000000" font-family="sans-serif" font-size="13" lengthAdjust="spacingAndGlyphs" textLength="95" x="335.5" y="175.8076">Deploy AI Model</text><polygon fill="#A80036" points="809.5,207.0156,819.5,211.0156,809.5,211.0156" style="stroke: #A80036; stroke-width: 1.0;"/><line style="stroke: #A80036; stroke-width: 1.0;" x1="418" x2="820.5" y1="211.0156" y2="211.0156"/><text fill="#000000" font-family="sans-serif" font-size="13" lengthAdjust="spacingAndGlyphs" textLength="51" x="425" y="206.1592">method()</text><polygon fill="#A80036" points="429,242.3672,419,242.3672,429,246.3672" style="stroke: #A80036; stroke-width: 1.0;"/><line style="stroke: #A80036; stroke-width: 1.0; stroke-dasharray: 2.0,2.0;" x1="418" x2="820.5" y1="241.3672" y2="241.3672"/><text fill="#000000" font-family="sans-serif" font-size="13" lengthAdjust="spacingAndGlyphs" textLength="78" x="435" y="236.5107">Model.Event2</text><polygon fill="#A80036" points="1041,267.7188,1051,271.7188,1041,271.7188" style="stroke: #A80036; stroke-width: 1.0;"/><line style="stroke: #A80036; stroke-width: 1.0;" x1="418" x2="1052" y1="271.7188" y2="271.7188"/><text fill="#000000" font-family="sans-serif" font-size="13" lengthAdjust="spacingAndGlyphs" textLength="51" x="425" y="266.8623">method()</text><polygon fill="#A80036" points="429,303.0703,419,303.0703,429,307.0703" style="stroke: #A80036; stroke-width: 1.0;"/><line style="stroke: #A80036; stroke-width: 1.0; stroke-dasharray: 2.0,2.0;" x1="418" x2="1052" y1="302.0703" y2="302.0703"/><text fill="#000000" font-family="sans-serif" font-size="13" lengthAdjust="spacingAndGlyphs" textLength="78" x="435" y="297.2139">Model.Event2</text><polygon fill="#A80036" points="1185.5,328.4219,1195.5,332.4219,1185.5,332.4219" style="stroke: #A80036; stroke-width: 1.0;"/><line style="stroke: #A80036; stroke-width: 1.0;" x1="418" x2="1196.5" y1="332.4219" y2="332.4219"/><text fill="#000000" font-family="sans-serif" font-size="13" lengthAdjust="spacingAndGlyphs" textLength="51" x="425" y="327.5654">method()</text><polygon fill="#A80036" points="429,363.7734,419,363.7734,429,367.7734" style="stroke: #A80036; stroke-width: 1.0;"/><line style="stroke: #A80036; stroke-width: 1.0; stroke-dasharray: 2.0,2.0;" x1="418" x2="1196.5" y1="362.7734" y2="362.7734"/><text fill="#000000" font-family="sans-serif" font-size="13" lengthAdjust="spacingAndGlyphs" textLength="78" x="435" y="357.917">Model.Event2</text><polygon fill="#A80036" points="1289,389.125,1299,393.125,1289,393.125" style="stroke: #A80036; stroke-width: 1.0;"/><line style="stroke: #A80036; stroke-width: 1.0;" x1="418" x2="1300" y1="393.125" y2="393.125"/><text fill="#000000" font-family="sans-serif" font-size="13" lengthAdjust="spacingAndGlyphs" textLength="51" x="425" y="388.2686">method()</text><polygon fill="#A80036" points="429,424.4766,419,424.4766,429,428.4766" style="stroke: #A80036; stroke-width: 1.0;"/><line style="stroke: #A80036; stroke-width: 1.0; stroke-dasharray: 2.0,2.0;" x1="418" x2="1300" y1="423.4766" y2="423.4766"/><text fill="#000000" font-family="sans-serif" font-size="13" lengthAdjust="spacingAndGlyphs" textLength="78" x="435" y="418.6201">Model.Event2</text><polygon fill="#A80036" points="564,454.8281,574,454.8281,564,458.8281" style="stroke: #A80036; stroke-width: 1.0;"/><line style="stroke: #A80036; stroke-width: 1.0; stroke-dasharray: 2.0,2.0;" x1="418" x2="575" y1="453.8281" y2="453.8281"/><text fill="#000000" font-family="sans-serif" font-size="13" lengthAdjust="spacingAndGlyphs" textLength="58" x="425" y="448.9717">method2()</text><!--
@startuml

actor "DevOpsEngineer"

actor "ApplicationDeveloper"

actor "DataEngineer"


entity EventBus

box Application Management Layer #lightblue
    boundary aml #white
end box



"DevOpsEngineer" -> aml: Deploy AI Model


"ApplicationDeveloper" -> aml: Deploy AI Model


"DataEngineer" -> aml: Deploy AI Model



box "Distributed Information Management Layer" #ffcc88
    boundary diml #white
end box
EventBus -\ diml: method()
diml - -/ EventBus: Model.Event2
box "Service Management Layer" #lightgreen
    boundary sml #white
end box
EventBus -\ sml: method()
sml - -/ EventBus: Model.Event2
box "Security Aspect" #pink
    boundary sa #white
end box
EventBus -\ sa: method()
sa - -/ EventBus: Model.Event2
box "Identity Aspect" #pink
    boundary ia #white
end box
EventBus -\ ia: method()
ia - -/ EventBus: Model.Event2

EventBus - -/ aml : method2()
@enduml

PlantUML version 1.2019.05(Sat Apr 20 09:45:36 PDT 2019)
(GPL source distribution)
Java Runtime: OpenJDK Runtime Environment
JVM: OpenJDK 64-Bit Server VM
Java Version: 12.0.1+12
Operating System: Windows 10
OS Version: 10.0
Default Encoding: Cp1252
Language: en
Country: US
--></g></svg>