<?xml version="1.0" encoding="UTF-8" standalone="no"?><svg xmlns="http://www.w3.org/2000/svg" xmlns:xlink="http://www.w3.org/1999/xlink" contentScriptType="application/ecmascript" contentStyleType="text/css" height="540px" preserveAspectRatio="none" style="width:1237px;height:540px;" version="1.1" viewBox="0 0 1237 540" width="1237px" zoomAndPan="magnify"><defs><filter height="300%" id="fvtu3obo4pghg" width="300%" x="-1" y="-1"><feGaussianBlur result="blurOut" stdDeviation="2.0"/><feColorMatrix in="blurOut" result="blurOut2" type="matrix" values="0 0 0 0 0 0 0 0 0 0 0 0 0 0 0 0 0 0 .4 0"/><feOffset dx="4.0" dy="4.0" in="blurOut2" result="blurOut3"/><feBlend in="SourceGraphic" in2="blurOut3" mode="normal"/></filter></defs><g><rect fill="#ADD8E6" height="525.0859" style="stroke: #A80036; stroke-width: 1.0;" width="209" x="347.5" y="4"/><text fill="#000000" font-family="sans-serif" font-size="13" font-weight="bold" lengthAdjust="spacingAndGlyphs" textLength="199" x="350.5" y="17.4951">Application Management Layer</text><rect fill="#FFCC88" height="525.0859" style="stroke: #A80036; stroke-width: 1.0;" width="278" x="558.5" y="4"/><text fill="#000000" font-family="sans-serif" font-size="13" font-weight="bold" lengthAdjust="spacingAndGlyphs" textLength="272" x="561.5" y="17.4951">Distributed Information Management Layer</text><rect fill="#90EE90" height="525.0859" style="stroke: #A80036; stroke-width: 1.0;" width="181" x="838.5" y="4"/><text fill="#000000" font-family="sans-serif" font-size="13" font-weight="bold" lengthAdjust="spacingAndGlyphs" textLength="175" x="841.5" y="17.4951">Service Management Layer</text><rect fill="#FFC0CB" height="525.0859" style="stroke: #A80036; stroke-width: 1.0;" width="104" x="1021.5" y="4"/><text fill="#000000" font-family="sans-serif" font-size="13" font-weight="bold" lengthAdjust="spacingAndGlyphs" textLength="98" x="1024.5" y="17.4951">Security Aspect</text><rect fill="#FFC0CB" height="525.0859" style="stroke: #A80036; stroke-width: 1.0;" width="99" x="1127.5" y="4"/><text fill="#000000" font-family="sans-serif" font-size="13" font-weight="bold" lengthAdjust="spacingAndGlyphs" textLength="93" x="1130.5" y="17.4951">Identity Aspect</text><line style="stroke: #A80036; stroke-width: 1.0; stroke-dasharray: 5.0,5.0;" x1="54" x2="54" y1="87.6094" y2="441.4766"/><line style="stroke: #A80036; stroke-width: 1.0; stroke-dasharray: 5.0,5.0;" x1="181" x2="181" y1="87.6094" y2="441.4766"/><line style="stroke: #A80036; stroke-width: 1.0; stroke-dasharray: 5.0,5.0;" x1="294" x2="294" y1="87.6094" y2="441.4766"/><line style="stroke: #A80036; stroke-width: 1.0; stroke-dasharray: 5.0,5.0;" x1="451.5" x2="451.5" y1="87.6094" y2="441.4766"/><line style="stroke: #A80036; stroke-width: 1.0; stroke-dasharray: 5.0,5.0;" x1="697" x2="697" y1="87.6094" y2="441.4766"/><line style="stroke: #A80036; stroke-width: 1.0; stroke-dasharray: 5.0,5.0;" x1="928.5" x2="928.5" y1="87.6094" y2="441.4766"/><line style="stroke: #A80036; stroke-width: 1.0; stroke-dasharray: 5.0,5.0;" x1="1073" x2="1073" y1="87.6094" y2="441.4766"/><line style="stroke: #A80036; stroke-width: 1.0; stroke-dasharray: 5.0,5.0;" x1="1176.5" x2="1176.5" y1="87.6094" y2="441.4766"/><text fill="#000000" font-family="sans-serif" font-size="14" lengthAdjust="spacingAndGlyphs" textLength="87" x="8" y="84.5332">DataEngineer</text><ellipse cx="54.5" cy="13" fill="#FEFECE" filter="url(#fvtu3obo4pghg)" rx="8" ry="8" style="stroke: #A80036; stroke-width: 2.0;"/><path d="M54.5,21 L54.5,48 M41.5,29 L67.5,29 M54.5,48 L41.5,63 M54.5,48 L67.5,63 " fill="none" filter="url(#fvtu3obo4pghg)" style="stroke: #A80036; stroke-width: 2.0;"/><text fill="#000000" font-family="sans-serif" font-size="14" lengthAdjust="spacingAndGlyphs" textLength="87" x="8" y="455.0098">DataEngineer</text><ellipse cx="54.5" cy="468.0859" fill="#FEFECE" filter="url(#fvtu3obo4pghg)" rx="8" ry="8" style="stroke: #A80036; stroke-width: 2.0;"/><path d="M54.5,476.0859 L54.5,503.0859 M41.5,484.0859 L67.5,484.0859 M54.5,503.0859 L41.5,518.0859 M54.5,503.0859 L67.5,518.0859 " fill="none" filter="url(#fvtu3obo4pghg)" style="stroke: #A80036; stroke-width: 2.0;"/><text fill="#000000" font-family="sans-serif" font-size="14" lengthAdjust="spacingAndGlyphs" textLength="134" x="111" y="84.5332">ApplicationDeveloper</text><ellipse cx="181" cy="13" fill="#FEFECE" filter="url(#fvtu3obo4pghg)" rx="8" ry="8" style="stroke: #A80036; stroke-width: 2.0;"/><path d="M181,21 L181,48 M168,29 L194,29 M181,48 L168,63 M181,48 L194,63 " fill="none" filter="url(#fvtu3obo4pghg)" style="stroke: #A80036; stroke-width: 2.0;"/><text fill="#000000" font-family="sans-serif" font-size="14" lengthAdjust="spacingAndGlyphs" textLength="134" x="111" y="455.0098">ApplicationDeveloper</text><ellipse cx="181" cy="468.0859" fill="#FEFECE" filter="url(#fvtu3obo4pghg)" rx="8" ry="8" style="stroke: #A80036; stroke-width: 2.0;"/><path d="M181,476.0859 L181,503.0859 M168,484.0859 L194,484.0859 M181,503.0859 L168,518.0859 M181,503.0859 L194,518.0859 " fill="none" filter="url(#fvtu3obo4pghg)" style="stroke: #A80036; stroke-width: 2.0;"/><text fill="#000000" font-family="sans-serif" font-size="14" lengthAdjust="spacingAndGlyphs" textLength="60" x="261" y="84.5332">EventBus</text><ellipse cx="294" cy="54" fill="#FEFECE" filter="url(#fvtu3obo4pghg)" rx="12" ry="12" style="stroke: #A80036; stroke-width: 2.0;"/><line style="stroke: #A80036; stroke-width: 2.0;" x1="282" x2="306" y1="68" y2="68"/><text fill="#000000" font-family="sans-serif" font-size="14" lengthAdjust="spacingAndGlyphs" textLength="60" x="261" y="455.0098">EventBus</text><ellipse cx="294" cy="474.0859" fill="#FEFECE" filter="url(#fvtu3obo4pghg)" rx="12" ry="12" style="stroke: #A80036; stroke-width: 2.0;"/><line style="stroke: #A80036; stroke-width: 2.0;" x1="282" x2="306" y1="488.0859" y2="488.0859"/><text fill="#000000" font-family="sans-serif" font-size="14" lengthAdjust="spacingAndGlyphs" textLength="22" x="438" y="84.5332">aml</text><path d="M431.5,42 L431.5,66 M431.5,54 L448.5,54 " fill="none" filter="url(#fvtu3obo4pghg)" style="stroke: #A80036; stroke-width: 2.0;"/><ellipse cx="460.5" cy="54" fill="#FFFFFF" filter="url(#fvtu3obo4pghg)" rx="12" ry="12" style="stroke: #A80036; stroke-width: 2.0;"/><text fill="#000000" font-family="sans-serif" font-size="14" lengthAdjust="spacingAndGlyphs" textLength="22" x="438" y="455.0098">aml</text><path d="M431.5,462.0859 L431.5,486.0859 M431.5,474.0859 L448.5,474.0859 " fill="none" filter="url(#fvtu3obo4pghg)" style="stroke: #A80036; stroke-width: 2.0;"/><ellipse cx="460.5" cy="474.0859" fill="#FFFFFF" filter="url(#fvtu3obo4pghg)" rx="12" ry="12" style="stroke: #A80036; stroke-width: 2.0;"/><text fill="#000000" font-family="sans-serif" font-size="14" lengthAdjust="spacingAndGlyphs" textLength="25" x="682" y="84.5332">diml</text><path d="M677,42 L677,66 M677,54 L694,54 " fill="none" filter="url(#fvtu3obo4pghg)" style="stroke: #A80036; stroke-width: 2.0;"/><ellipse cx="706" cy="54" fill="#FFFFFF" filter="url(#fvtu3obo4pghg)" rx="12" ry="12" style="stroke: #A80036; stroke-width: 2.0;"/><text fill="#000000" font-family="sans-serif" font-size="14" lengthAdjust="spacingAndGlyphs" textLength="25" x="682" y="455.0098">diml</text><path d="M677,462.0859 L677,486.0859 M677,474.0859 L694,474.0859 " fill="none" filter="url(#fvtu3obo4pghg)" style="stroke: #A80036; stroke-width: 2.0;"/><ellipse cx="706" cy="474.0859" fill="#FFFFFF" filter="url(#fvtu3obo4pghg)" rx="12" ry="12" style="stroke: #A80036; stroke-width: 2.0;"/><text fill="#000000" font-family="sans-serif" font-size="14" lengthAdjust="spacingAndGlyphs" textLength="21" x="915.5" y="84.5332">sml</text><path d="M908.5,42 L908.5,66 M908.5,54 L925.5,54 " fill="none" filter="url(#fvtu3obo4pghg)" style="stroke: #A80036; stroke-width: 2.0;"/><ellipse cx="937.5" cy="54" fill="#FFFFFF" filter="url(#fvtu3obo4pghg)" rx="12" ry="12" style="stroke: #A80036; stroke-width: 2.0;"/><text fill="#000000" font-family="sans-serif" font-size="14" lengthAdjust="spacingAndGlyphs" textLength="21" x="915.5" y="455.0098">sml</text><path d="M908.5,462.0859 L908.5,486.0859 M908.5,474.0859 L925.5,474.0859 " fill="none" filter="url(#fvtu3obo4pghg)" style="stroke: #A80036; stroke-width: 2.0;"/><ellipse cx="937.5" cy="474.0859" fill="#FFFFFF" filter="url(#fvtu3obo4pghg)" rx="12" ry="12" style="stroke: #A80036; stroke-width: 2.0;"/><text fill="#000000" font-family="sans-serif" font-size="14" lengthAdjust="spacingAndGlyphs" textLength="15" x="1063" y="84.5332">sa</text><path d="M1053,42 L1053,66 M1053,54 L1070,54 " fill="none" filter="url(#fvtu3obo4pghg)" style="stroke: #A80036; stroke-width: 2.0;"/><ellipse cx="1082" cy="54" fill="#FFFFFF" filter="url(#fvtu3obo4pghg)" rx="12" ry="12" style="stroke: #A80036; stroke-width: 2.0;"/><text fill="#000000" font-family="sans-serif" font-size="14" lengthAdjust="spacingAndGlyphs" textLength="15" x="1063" y="455.0098">sa</text><path d="M1053,462.0859 L1053,486.0859 M1053,474.0859 L1070,474.0859 " fill="none" filter="url(#fvtu3obo4pghg)" style="stroke: #A80036; stroke-width: 2.0;"/><ellipse cx="1082" cy="474.0859" fill="#FFFFFF" filter="url(#fvtu3obo4pghg)" rx="12" ry="12" style="stroke: #A80036; stroke-width: 2.0;"/><text fill="#000000" font-family="sans-serif" font-size="14" lengthAdjust="spacingAndGlyphs" textLength="11" x="1168.5" y="84.5332">ia</text><path d="M1156.5,42 L1156.5,66 M1156.5,54 L1173.5,54 " fill="none" filter="url(#fvtu3obo4pghg)" style="stroke: #A80036; stroke-width: 2.0;"/><ellipse cx="1185.5" cy="54" fill="#FFFFFF" filter="url(#fvtu3obo4pghg)" rx="12" ry="12" style="stroke: #A80036; stroke-width: 2.0;"/><text fill="#000000" font-family="sans-serif" font-size="14" lengthAdjust="spacingAndGlyphs" textLength="11" x="1168.5" y="455.0098">ia</text><path d="M1156.5,462.0859 L1156.5,486.0859 M1156.5,474.0859 L1173.5,474.0859 " fill="none" filter="url(#fvtu3obo4pghg)" style="stroke: #A80036; stroke-width: 2.0;"/><ellipse cx="1185.5" cy="474.0859" fill="#FFFFFF" filter="url(#fvtu3obo4pghg)" rx="12" ry="12" style="stroke: #A80036; stroke-width: 2.0;"/><polygon fill="#A80036" points="440,115.9609,450,119.9609,440,123.9609,444,119.9609" style="stroke: #A80036; stroke-width: 1.0;"/><line style="stroke: #A80036; stroke-width: 1.0;" x1="54.5" x2="446" y1="119.9609" y2="119.9609"/><text fill="#000000" font-family="sans-serif" font-size="13" lengthAdjust="spacingAndGlyphs" textLength="100" x="61.5" y="115.1045">Destroy AI Model</text><polygon fill="#A80036" points="440,146.3125,450,150.3125,440,154.3125,444,150.3125" style="stroke: #A80036; stroke-width: 1.0;"/><line style="stroke: #A80036; stroke-width: 1.0;" x1="181" x2="446" y1="150.3125" y2="150.3125"/><text fill="#000000" font-family="sans-serif" font-size="13" lengthAdjust="spacingAndGlyphs" textLength="100" x="188" y="145.4561">Destroy AI Model</text><polygon fill="#A80036" points="685.5,176.6641,695.5,180.6641,685.5,180.6641" style="stroke: #A80036; stroke-width: 1.0;"/><line style="stroke: #A80036; stroke-width: 1.0;" x1="294" x2="696.5" y1="180.6641" y2="180.6641"/><text fill="#000000" font-family="sans-serif" font-size="13" lengthAdjust="spacingAndGlyphs" textLength="51" x="301" y="175.8076">method()</text><polygon fill="#A80036" points="305,212.0156,295,212.0156,305,216.0156" style="stroke: #A80036; stroke-width: 1.0;"/><line style="stroke: #A80036; stroke-width: 1.0; stroke-dasharray: 2.0,2.0;" x1="294" x2="696.5" y1="211.0156" y2="211.0156"/><text fill="#000000" font-family="sans-serif" font-size="13" lengthAdjust="spacingAndGlyphs" textLength="78" x="311" y="206.1592">Model.Event2</text><polygon fill="#A80036" points="917,237.3672,927,241.3672,917,241.3672" style="stroke: #A80036; stroke-width: 1.0;"/><line style="stroke: #A80036; stroke-width: 1.0;" x1="294" x2="928" y1="241.3672" y2="241.3672"/><text fill="#000000" font-family="sans-serif" font-size="13" lengthAdjust="spacingAndGlyphs" textLength="51" x="301" y="236.5107">method()</text><polygon fill="#A80036" points="305,272.7188,295,272.7188,305,276.7188" style="stroke: #A80036; stroke-width: 1.0;"/><line style="stroke: #A80036; stroke-width: 1.0; stroke-dasharray: 2.0,2.0;" x1="294" x2="928" y1="271.7188" y2="271.7188"/><text fill="#000000" font-family="sans-serif" font-size="13" lengthAdjust="spacingAndGlyphs" textLength="78" x="311" y="266.8623">Model.Event2</text><polygon fill="#A80036" points="1061.5,298.0703,1071.5,302.0703,1061.5,302.0703" style="stroke: #A80036; stroke-width: 1.0;"/><line style="stroke: #A80036; stroke-width: 1.0;" x1="294" x2="1072.5" y1="302.0703" y2="302.0703"/><text fill="#000000" font-family="sans-serif" font-size="13" lengthAdjust="spacingAndGlyphs" textLength="51" x="301" y="297.2139">method()</text><polygon fill="#A80036" points="305,333.4219,295,333.4219,305,337.4219" style="stroke: #A80036; stroke-width: 1.0;"/><line style="stroke: #A80036; stroke-width: 1.0; stroke-dasharray: 2.0,2.0;" x1="294" x2="1072.5" y1="332.4219" y2="332.4219"/><text fill="#000000" font-family="sans-serif" font-size="13" lengthAdjust="spacingAndGlyphs" textLength="78" x="311" y="327.5654">Model.Event2</text><polygon fill="#A80036" points="1165,358.7734,1175,362.7734,1165,362.7734" style="stroke: #A80036; stroke-width: 1.0;"/><line style="stroke: #A80036; stroke-width: 1.0;" x1="294" x2="1176" y1="362.7734" y2="362.7734"/><text fill="#000000" font-family="sans-serif" font-size="13" lengthAdjust="spacingAndGlyphs" textLength="51" x="301" y="357.917">method()</text><polygon fill="#A80036" points="305,394.125,295,394.125,305,398.125" style="stroke: #A80036; stroke-width: 1.0;"/><line style="stroke: #A80036; stroke-width: 1.0; stroke-dasharray: 2.0,2.0;" x1="294" x2="1176" y1="393.125" y2="393.125"/><text fill="#000000" font-family="sans-serif" font-size="13" lengthAdjust="spacingAndGlyphs" textLength="78" x="311" y="388.2686">Model.Event2</text><polygon fill="#A80036" points="440,424.4766,450,424.4766,440,428.4766" style="stroke: #A80036; stroke-width: 1.0;"/><line style="stroke: #A80036; stroke-width: 1.0; stroke-dasharray: 2.0,2.0;" x1="294" x2="451" y1="423.4766" y2="423.4766"/><text fill="#000000" font-family="sans-serif" font-size="13" lengthAdjust="spacingAndGlyphs" textLength="58" x="301" y="418.6201">method2()</text><!--
@startuml

actor "DataEngineer"

actor "ApplicationDeveloper"


entity EventBus

box Application Management Layer #lightblue
    boundary aml #white
end box



"DataEngineer" -> aml: Destroy AI Model


"ApplicationDeveloper" -> aml: Destroy AI Model



box "Distributed Information Management Layer" #ffcc88
    boundary diml #white
end box
EventBus -\ diml: method()
diml - -/ EventBus: Model.Event2
box "Service Management Layer" #lightgreen
    boundary sml #white
end box
EventBus -\ sml: method()
sml - -/ EventBus: Model.Event2
box "Security Aspect" #pink
    boundary sa #white
end box
EventBus -\ sa: method()
sa - -/ EventBus: Model.Event2
box "Identity Aspect" #pink
    boundary ia #white
end box
EventBus -\ ia: method()
ia - -/ EventBus: Model.Event2

EventBus - -/ aml : method2()
@enduml

PlantUML version 1.2019.05(Sat Apr 20 09:45:36 PDT 2019)
(GPL source distribution)
Java Runtime: OpenJDK Runtime Environment
JVM: OpenJDK 64-Bit Server VM
Java Version: 12.0.1+12
Operating System: Windows 10
OS Version: 10.0
Default Encoding: Cp1252
Language: en
Country: US
--></g></svg>