<?xml version="1.0" encoding="UTF-8" standalone="no"?><svg xmlns="http://www.w3.org/2000/svg" xmlns:xlink="http://www.w3.org/1999/xlink" contentScriptType="application/ecmascript" contentStyleType="text/css" height="326px" preserveAspectRatio="none" style="width:290px;height:326px;" version="1.1" viewBox="0 0 290 326" width="290px" zoomAndPan="magnify"><defs><filter height="300%" id="fzmc2k1voor3l" width="300%" x="-1" y="-1"><feGaussianBlur result="blurOut" stdDeviation="2.0"/><feColorMatrix in="blurOut" result="blurOut2" type="matrix" values="0 0 0 0 0 0 0 0 0 0 0 0 0 0 0 0 0 0 .4 0"/><feOffset dx="4.0" dy="4.0" in="blurOut2" result="blurOut3"/><feBlend in="SourceGraphic" in2="blurOut3" mode="normal"/></filter></defs><g><!--entity DataFlow--><rect fill="#ADD8E6" filter="url(#fzmc2k1voor3l)" height="37.6094" style="stroke: #000000; stroke-width: 1.5;" width="79" x="6" y="278"/><text fill="#000000" font-family="sans-serif" font-size="14" lengthAdjust="spacingAndGlyphs" textLength="59" x="16" y="302.5332">DataFlow</text><!--entity DataAdaptorTemplate--><rect fill="#ADD8E6" filter="url(#fzmc2k1voor3l)" height="37.6094" style="stroke: #000000; stroke-width: 1.5;" width="159" x="120" y="278"/><text fill="#000000" font-family="sans-serif" font-size="14" lengthAdjust="spacingAndGlyphs" textLength="139" x="130" y="302.5332">DataAdaptorTemplate</text><!--entity DataBluePrint--><rect fill="#90EE90" filter="url(#fzmc2k1voor3l)" height="37.6094" style="stroke: #000000; stroke-width: 1.5;" width="107" x="58" y="8"/><text fill="#000000" font-family="sans-serif" font-size="14" lengthAdjust="spacingAndGlyphs" textLength="87" x="68" y="32.5332">DataBluePrint</text><!--class Model--><rect fill="#FEFECE" filter="url(#fzmc2k1voor3l)" height="75.6719" id="Model" style="stroke: #A80036; stroke-width: 1.5;" width="136" x="43.5" y="124"/><ellipse cx="58.5" cy="140" fill="#ADD1B2" rx="11" ry="11" style="stroke: #A80036; stroke-width: 1.0;"/><path d="M61.2656,135.875 Q61.4219,135.6563 61.6094,135.5469 Q61.7969,135.4375 62.0156,135.4375 Q62.3906,135.4375 62.625,135.7031 Q62.8594,135.9531 62.8594,136.5625 L62.8594,138.0156 Q62.8594,138.625 62.625,138.8906 Q62.3906,139.1563 62.0156,139.1563 Q61.6719,139.1563 61.4688,138.9531 Q61.2656,138.7656 61.1563,138.25 Q61.1094,137.8906 60.9219,137.7031 Q60.5938,137.3281 59.9844,137.1094 Q59.375,136.8906 58.75,136.8906 Q57.9844,136.8906 57.3438,137.2188 Q56.7188,137.5469 56.2188,138.2969 Q55.7344,139.0469 55.7344,140.0781 L55.7344,141.1719 Q55.7344,142.4063 56.625,143.2344 Q57.5156,144.0469 59.1094,144.0469 Q60.0469,144.0469 60.7031,143.7969 Q61.0938,143.6406 61.5156,143.2031 Q61.7813,142.9375 61.9219,142.8594 Q62.0781,142.7813 62.2813,142.7813 Q62.6094,142.7813 62.8594,143.0469 Q63.125,143.2969 63.125,143.6406 Q63.125,143.9844 62.7813,144.3906 Q62.2813,144.9688 61.4844,145.2969 Q60.4063,145.75 59.1094,145.75 Q57.5938,145.75 56.3906,145.125 Q55.4063,144.625 54.7188,143.5625 Q54.0313,142.4844 54.0313,141.2031 L54.0313,140.0469 Q54.0313,138.7188 54.6406,137.5781 Q55.2656,136.4219 56.3594,135.8125 Q57.4531,135.1875 58.6875,135.1875 Q59.4219,135.1875 60.0625,135.3594 Q60.7188,135.5156 61.2656,135.875 Z "/><text fill="#000000" font-family="sans-serif" font-size="12" lengthAdjust="spacingAndGlyphs" textLength="104" x="72.5" y="144.9102">DataFlowTemplate</text><line style="stroke: #A80036; stroke-width: 1.5;" x1="44.5" x2="178.5" y1="156" y2="156"/><text fill="#000000" font-family="sans-serif" font-size="11" lengthAdjust="spacingAndGlyphs" textLength="56" x="49.5" y="171.4189">string name</text><line style="stroke: #A80036; stroke-width: 1.5;" x1="44.5" x2="178.5" y1="177.8359" y2="177.8359"/><text fill="#000000" font-family="sans-serif" font-size="11" lengthAdjust="spacingAndGlyphs" textLength="39" x="49.5" y="193.2549">create()</text><!--link Model to DataFlow--><path d="M56.0961,210.124 C51.436,216.331 47.4036,222.99 44.5,230 C40.0104,240.8388 39.2716,253.5635 40.0015,264.9324 " fill="none" id="Model-DataFlow" style="stroke: #A80036; stroke-width: 1.0;"/><polygon fill="#A80036" points="41.4671,277.9097,44.4319,268.5177,40.906,272.9413,36.4824,269.4154,41.4671,277.9097" style="stroke: #A80036; stroke-width: 1.0;"/><line style="stroke: #A80036; stroke-width: 1.0;" x1="40.906" x2="40.0082" y1="272.9413" y2="264.9918"/><polygon fill="#FFFFFF" points="64.4428,200.123,57.5273,202.1664,56.7537,209.3359,63.6692,207.2925,64.4428,200.123" style="stroke: #A80036; stroke-width: 1.0;"/><text fill="#000000" font-family="sans-serif" font-size="13" lengthAdjust="spacingAndGlyphs" textLength="22" x="45.5" y="244.4951">flow</text><text fill="#000000" font-family="sans-serif" font-size="13" lengthAdjust="spacingAndGlyphs" textLength="7" x="32.1601" y="267.2221">1</text><!--link Model to DataAdaptorTemplate--><path d="M100.5488,213.654 C100.3722,225.5941 102.3497,237.8025 108.5,248 C114.075,257.2429 122.088,264.7967 131.078,270.9439 " fill="none" id="Model-DataAdaptorTemplate" style="stroke: #A80036; stroke-width: 1.0;"/><polygon fill="#A80036" points="142.43,277.7636,136.7755,269.6997,138.1441,275.1885,132.6553,276.557,142.43,277.7636" style="stroke: #A80036; stroke-width: 1.0;"/><line style="stroke: #A80036; stroke-width: 1.0;" x1="138.1441" x2="131.2865" y1="275.1885" y2="271.0692"/><polygon fill="#FFFFFF" points="101.5559,200.409,97.1125,206.0884,100.646,212.3745,105.0894,206.695,101.5559,200.409" style="stroke: #A80036; stroke-width: 1.0;"/><text fill="#000000" font-family="sans-serif" font-size="13" lengthAdjust="spacingAndGlyphs" textLength="46" x="109.5" y="244.4951">sources</text><text fill="#000000" font-family="sans-serif" font-size="13" lengthAdjust="spacingAndGlyphs" textLength="7" x="116.8804" y="267.0312">n</text><!--link Model to DataAdaptorTemplate--><path d="M147.264,210.714 C151.816,217.1303 156.335,223.6786 160.5,230 C168.136,241.5897 176.022,254.6889 182.688,266.1446 " fill="none" id="Model-DataAdaptorTemplate-1" style="stroke: #A80036; stroke-width: 1.0;"/><polygon fill="#A80036" points="189.372,277.7812,188.3572,267.9848,186.8813,273.4457,181.4204,271.9699,189.372,277.7812" style="stroke: #A80036; stroke-width: 1.0;"/><line style="stroke: #A80036; stroke-width: 1.0;" x1="186.8813" x2="182.897" y1="273.4457" y2="266.5086"/><polygon fill="#FFFFFF" points="139.628,200.105,139.8865,207.3115,146.638,209.8446,146.3795,202.6381,139.628,200.105" style="stroke: #A80036; stroke-width: 1.0;"/><text fill="#000000" font-family="sans-serif" font-size="13" lengthAdjust="spacingAndGlyphs" textLength="31" x="172.5" y="244.4951">sinks</text><text fill="#000000" font-family="sans-serif" font-size="13" lengthAdjust="spacingAndGlyphs" textLength="7" x="178.1984" y="267.0542">n</text><!--link DataBluePrint to Model--><path d="M111.5,59.457 C111.5,74.784 111.5,93.587 111.5,110.829 " fill="none" id="DataBluePrint-Model" style="stroke: #A80036; stroke-width: 1.0;"/><polygon fill="#A80036" points="111.5,123.924,115.5,114.924,111.5,118.924,107.5,114.924,111.5,123.924" style="stroke: #A80036; stroke-width: 1.0;"/><line style="stroke: #A80036; stroke-width: 1.0;" x1="111.5" x2="111.5" y1="118.924" y2="110.9245"/><polygon fill="#A80036" points="111.5,46.214,107.5,52.214,111.5,58.214,115.5,52.214,111.5,46.214" style="stroke: #A80036; stroke-width: 1.0;"/><text fill="#000000" font-family="sans-serif" font-size="13" lengthAdjust="spacingAndGlyphs" textLength="29" x="112.5" y="90.4951">flows</text><text fill="#000000" font-family="sans-serif" font-size="13" lengthAdjust="spacingAndGlyphs" textLength="7" x="103.8766" y="113.2724">n</text><!--
@startuml

class "DataFlowTemplate" as Model {
 string name

 create()
 
}

rectangle "DataFlow" as DataFlow #lightblue {
}

Model o- -> "1" DataFlow : flow


rectangle "DataAdaptorTemplate" as DataAdaptorTemplate #lightblue {
}

Model o- -> "n" DataAdaptorTemplate : sources


rectangle "DataAdaptorTemplate" as DataAdaptorTemplate #lightblue {
}

Model o- -> "n" DataAdaptorTemplate : sinks




    rectangle "DataBluePrint" as DataBluePrint #lightgreen {
    }
    
        DataBluePrint   *- -> "n" Model : "flows"
    

@enduml

PlantUML version 1.2019.05(Sat Apr 20 09:45:36 PDT 2019)
(GPL source distribution)
Java Runtime: OpenJDK Runtime Environment
JVM: OpenJDK 64-Bit Server VM
Java Version: 12.0.1+12
Operating System: Windows 10
OS Version: 10.0
Default Encoding: Cp1252
Language: en
Country: US
--></g></svg>