<?xml version="1.0" encoding="UTF-8" standalone="no"?><svg xmlns="http://www.w3.org/2000/svg" xmlns:xlink="http://www.w3.org/1999/xlink" contentScriptType="application/ecmascript" contentStyleType="text/css" height="340px" preserveAspectRatio="none" style="width:515px;height:340px;" version="1.1" viewBox="0 0 515 340" width="515px" zoomAndPan="magnify"><defs><filter height="300%" id="fm2qj9skq71dr" width="300%" x="-1" y="-1"><feGaussianBlur result="blurOut" stdDeviation="2.0"/><feColorMatrix in="blurOut" result="blurOut2" type="matrix" values="0 0 0 0 0 0 0 0 0 0 0 0 0 0 0 0 0 0 .4 0"/><feOffset dx="4.0" dy="4.0" in="blurOut2" result="blurOut3"/><feBlend in="SourceGraphic" in2="blurOut3" mode="normal"/></filter></defs><g><!--entity DataBluePrintInstance--><rect fill="#90EE90" filter="url(#fm2qj9skq71dr)" height="37.6094" style="stroke: #000000; stroke-width: 1.5;" width="160" x="16.4844" y="8"/><text fill="#000000" font-family="sans-serif" font-size="14" lengthAdjust="spacingAndGlyphs" textLength="140" x="26.4844" y="32.5332">DataBluePrintInstance</text><!--entity DataAdaptor--><rect fill="#90EE90" filter="url(#fm2qj9skq71dr)" height="37.6094" style="stroke: #000000; stroke-width: 1.5;" width="100" x="102.4844" y="292"/><text fill="#000000" font-family="sans-serif" font-size="14" lengthAdjust="spacingAndGlyphs" textLength="80" x="112.4844" y="316.5332">DataAdaptor</text><!--entity Data--><rect fill="#90EE90" filter="url(#fm2qj9skq71dr)" height="37.6094" style="stroke: #000000; stroke-width: 1.5;" width="50" x="268.484" y="292"/><text fill="#000000" font-family="sans-serif" font-size="14" lengthAdjust="spacingAndGlyphs" textLength="30" x="278.484" y="316.5332">Data</text><!--entity DataFlowInstance--><rect fill="#90EE90" filter="url(#fm2qj9skq71dr)" height="37.6094" style="stroke: #000000; stroke-width: 1.5;" width="132" x="211.484" y="8"/><text fill="#000000" font-family="sans-serif" font-size="14" lengthAdjust="spacingAndGlyphs" textLength="112" x="221.484" y="32.5332">DataFlowInstance</text><!--entity DataReservation--><rect fill="#90EE90" filter="url(#fm2qj9skq71dr)" height="37.6094" style="stroke: #000000; stroke-width: 1.5;" width="126" x="378.484" y="8"/><text fill="#000000" font-family="sans-serif" font-size="14" lengthAdjust="spacingAndGlyphs" textLength="106" x="388.484" y="32.5332">DataReservation</text><!--class Model--><rect fill="#FEFECE" filter="url(#fm2qj9skq71dr)" height="89.5078" id="Model" style="stroke: #A80036; stroke-width: 1.5;" width="97" x="174.984" y="124"/><ellipse cx="189.984" cy="140" fill="#ADD1B2" rx="11" ry="11" style="stroke: #A80036; stroke-width: 1.0;"/><path d="M192.7496,135.875 Q192.9059,135.6563 193.0934,135.5469 Q193.2809,135.4375 193.4996,135.4375 Q193.8746,135.4375 194.109,135.7031 Q194.3434,135.9531 194.3434,136.5625 L194.3434,138.0156 Q194.3434,138.625 194.109,138.8906 Q193.8746,139.1563 193.4996,139.1563 Q193.1559,139.1563 192.9528,138.9531 Q192.7496,138.7656 192.6403,138.25 Q192.5934,137.8906 192.4059,137.7031 Q192.0778,137.3281 191.4684,137.1094 Q190.859,136.8906 190.234,136.8906 Q189.4684,136.8906 188.8278,137.2188 Q188.2028,137.5469 187.7028,138.2969 Q187.2184,139.0469 187.2184,140.0781 L187.2184,141.1719 Q187.2184,142.4063 188.109,143.2344 Q188.9996,144.0469 190.5934,144.0469 Q191.5309,144.0469 192.1871,143.7969 Q192.5778,143.6406 192.9996,143.2031 Q193.2653,142.9375 193.4059,142.8594 Q193.5621,142.7813 193.7653,142.7813 Q194.0934,142.7813 194.3434,143.0469 Q194.609,143.2969 194.609,143.6406 Q194.609,143.9844 194.2653,144.3906 Q193.7653,144.9688 192.9684,145.2969 Q191.8903,145.75 190.5934,145.75 Q189.0778,145.75 187.8746,145.125 Q186.8903,144.625 186.2028,143.5625 Q185.5153,142.4844 185.5153,141.2031 L185.5153,140.0469 Q185.5153,138.7188 186.1246,137.5781 Q186.7496,136.4219 187.8434,135.8125 Q188.9371,135.1875 190.1715,135.1875 Q190.9059,135.1875 191.5465,135.3594 Q192.2028,135.5156 192.7496,135.875 Z "/><text fill="#000000" font-family="sans-serif" font-size="12" lengthAdjust="spacingAndGlyphs" textLength="65" x="203.984" y="144.9102">DataSource</text><line style="stroke: #A80036; stroke-width: 1.5;" x1="175.984" x2="270.984" y1="156" y2="156"/><text fill="#000000" font-family="sans-serif" font-size="11" lengthAdjust="spacingAndGlyphs" textLength="56" x="180.984" y="171.4189">string name</text><text fill="#000000" font-family="sans-serif" font-size="11" lengthAdjust="spacingAndGlyphs" textLength="78" x="180.984" y="185.2549">json parameters</text><line style="stroke: #A80036; stroke-width: 1.5;" x1="175.984" x2="270.984" y1="191.6719" y2="191.6719"/><text fill="#000000" font-family="sans-serif" font-size="11" lengthAdjust="spacingAndGlyphs" textLength="39" x="180.984" y="207.0908">create()</text><!--link Model to DataBluePrintInstance--><path d="M174.494,113.994 C156.45,94.103 136.754,72.392 121.668,55.761 " fill="none" id="Model-DataBluePrintInstance" style="stroke: #A80036; stroke-width: 1.0;"/><polygon fill="#A80036" points="112.827,46.016,115.912,55.3692,116.1867,49.7191,121.8369,49.9938,112.827,46.016" style="stroke: #A80036; stroke-width: 1.0;"/><line style="stroke: #A80036; stroke-width: 1.0;" x1="116.1867" x2="121.562" y1="49.7191" y2="55.6445"/><polygon fill="#FFFFFF" points="183.468,123.887,182.3988,116.7556,175.4048,114.9997,176.474,122.1311,183.468,123.887" style="stroke: #A80036; stroke-width: 1.0;"/><text fill="#000000" font-family="sans-serif" font-size="13" lengthAdjust="spacingAndGlyphs" textLength="56" x="157.484" y="90.4951">blueprints</text><text fill="#000000" font-family="sans-serif" font-size="13" lengthAdjust="spacingAndGlyphs" textLength="7" x="109.4396" y="67.2137">n</text><!--link DataBluePrintInstance to Model--><path d="M31.8603,51.959 C12.2542,63.011 -1.3333,77.384 10.4844,94 C44.4653,141.779 111.589,158.981 161.445,165.03 " fill="none" id="DataBluePrintInstance-Model" style="stroke: #A80036; stroke-width: 1.0;"/><polygon fill="#A80036" points="174.684,166.427,166.1535,161.5045,169.7116,165.9022,165.3139,169.4603,174.684,166.427" style="stroke: #A80036; stroke-width: 1.0;"/><line style="stroke: #A80036; stroke-width: 1.0;" x1="169.7116" x2="161.7555" y1="165.9022" y2="165.0625"/><polygon fill="#FFFFFF" points="43.5991,46.005,36.4387,45.1514,32.8967,51.4327,40.0571,52.2863,43.5991,46.005" style="stroke: #A80036; stroke-width: 1.0;"/><text fill="#000000" font-family="sans-serif" font-size="13" lengthAdjust="spacingAndGlyphs" textLength="46" x="11.4844" y="90.4951">sources</text><text fill="#000000" font-family="sans-serif" font-size="13" lengthAdjust="spacingAndGlyphs" textLength="7" x="160.0024" y="162.4312">n</text><!--link DataBluePrintInstance to Model--><path d="M92.496,59.442 C92.4835,71.033 94.3088,83.81 100.4844,94 C114.683,117.428 139.368,134.381 162.915,146.099 " fill="none" id="DataBluePrintInstance-Model-1" style="stroke: #A80036; stroke-width: 1.0;"/><polygon fill="#A80036" points="174.696,151.596,168.2314,144.1657,170.165,149.4818,164.8488,151.4154,174.696,151.596" style="stroke: #A80036; stroke-width: 1.0;"/><line style="stroke: #A80036; stroke-width: 1.0;" x1="170.165" x2="162.915" y1="149.4818" y2="146.0995"/><polygon fill="#FFFFFF" points="93.2539,46.146,88.9188,51.9086,92.5708,58.1265,96.9059,52.364,93.2539,46.146" style="stroke: #A80036; stroke-width: 1.0;"/><text fill="#000000" font-family="sans-serif" font-size="13" lengthAdjust="spacingAndGlyphs" textLength="31" x="101.4844" y="90.4951">sinks</text><text fill="#000000" font-family="sans-serif" font-size="13" lengthAdjust="spacingAndGlyphs" textLength="7" x="160.0162" y="145.4219">n</text><!--link Model to DataAdaptor--><path d="M162.788,188.279 C135.963,199.72 107.031,217.462 91.4844,244 C82.9169,258.625 92.6048,272.7225 106.598,284.1067 " fill="none" id="Model-DataAdaptor" style="stroke: #A80036; stroke-width: 1.0;"/><polygon fill="#A80036" points="117.348,291.8853,112.4012,283.3689,113.2971,288.9543,107.7117,289.8503,117.348,291.8853" style="stroke: #A80036; stroke-width: 1.0;"/><line style="stroke: #A80036; stroke-width: 1.0;" x1="113.2971" x2="106.8159" y1="288.9543" y2="284.2646"/><polygon fill="#FFFFFF" points="174.908,183.457,167.8544,181.9582,163.7579,187.8928,170.8116,189.3916,174.908,183.457" style="stroke: #A80036; stroke-width: 1.0;"/><text fill="#000000" font-family="sans-serif" font-size="13" lengthAdjust="spacingAndGlyphs" textLength="43" x="92.4844" y="258.4951">adaptor</text><text fill="#000000" font-family="sans-serif" font-size="13" lengthAdjust="spacingAndGlyphs" textLength="7" x="98.5156" y="281.1902">1</text><!--link DataAdaptor to Model--><path d="M167.54,280.3122 C175.551,264.5161 185.669,244.5651 195.091,225.987 " fill="none" id="DataAdaptor-Model" style="stroke: #A80036; stroke-width: 1.0;"/><polygon fill="#A80036" points="201.02,214.297,193.3818,220.5145,198.7585,218.7563,200.5167,224.133,201.02,214.297" style="stroke: #A80036; stroke-width: 1.0;"/><line style="stroke: #A80036; stroke-width: 1.0;" x1="198.7585" x2="195.14" y1="218.7563" y2="225.891"/><polygon fill="#A80036" points="161.621,291.9841,167.9023,288.4421,167.0487,281.2817,160.7674,284.8237,161.621,291.9841" style="stroke: #A80036; stroke-width: 1.0;"/><text fill="#000000" font-family="sans-serif" font-size="13" lengthAdjust="spacingAndGlyphs" textLength="46" x="186.484" y="258.4951">sources</text><text fill="#000000" font-family="sans-serif" font-size="13" lengthAdjust="spacingAndGlyphs" textLength="7" x="190.5311" y="235.0106">n</text><!--link Model to Data--><path d="M247.219,226.246 C252.624,238.1815 258.536,250.6115 264.484,262 C267.589,267.9438 271.122,274.1638 274.629,280.081 " fill="none" id="Model-Data" style="stroke: #A80036; stroke-width: 1.0;"/><polygon fill="#A80036" points="281.643,291.6166,280.3852,281.8484,279.0454,287.3443,273.5495,286.0045,281.643,291.6166" style="stroke: #A80036; stroke-width: 1.0;"/><line style="stroke: #A80036; stroke-width: 1.0;" x1="279.0454" x2="274.889" y1="287.3443" y2="280.5087"/><polygon fill="#A80036" points="241.788,214.051,240.5748,221.1593,246.6697,225.0131,247.8829,217.9048,241.788,214.051" style="stroke: #A80036; stroke-width: 1.0;"/><text fill="#000000" font-family="sans-serif" font-size="13" lengthAdjust="spacingAndGlyphs" textLength="25" x="265.484" y="258.4951">data</text><text fill="#000000" font-family="sans-serif" font-size="13" lengthAdjust="spacingAndGlyphs" textLength="7" x="270.1366" y="281.1769">n</text><!--link Data to Model--><path d="M299.552,278.9694 C300.466,267.6046 299.901,254.873 295.484,244 C291.913,235.2087 286.74,226.889 280.781,219.222 " fill="none" id="Data-Model" style="stroke: #A80036; stroke-width: 1.0;"/><polygon fill="#A80036" points="272.243,209.188,275.0285,218.6347,275.483,212.9962,281.1216,213.4507,272.243,209.188" style="stroke: #A80036; stroke-width: 1.0;"/><line style="stroke: #A80036; stroke-width: 1.0;" x1="275.483" x2="280.6675" y1="212.9962" y2="219.0885"/><polygon fill="#FFFFFF" points="297.865,291.9373,302.6058,286.5036,299.4134,280.0376,294.6727,285.4713,297.865,291.9373" style="stroke: #A80036; stroke-width: 1.0;"/><text fill="#000000" font-family="sans-serif" font-size="13" lengthAdjust="spacingAndGlyphs" textLength="39" x="300.484" y="258.4951">source</text><text fill="#000000" font-family="sans-serif" font-size="13" lengthAdjust="spacingAndGlyphs" textLength="7" x="279.9185" y="211.4727">1</text><!--link DataFlowInstance to Model--><path d="M265.83,58.215 C259.823,73.789 252.299,93.297 245.265,111.531 " fill="none" id="DataFlowInstance-Model" style="stroke: #A80036; stroke-width: 1.0;"/><polygon fill="#A80036" points="240.499,123.887,247.4693,116.929,242.298,119.2219,240.0051,114.0505,240.499,123.887" style="stroke: #A80036; stroke-width: 1.0;"/><line style="stroke: #A80036; stroke-width: 1.0;" x1="242.298" x2="245.178" y1="119.2219" y2="111.758"/><polygon fill="#FFFFFF" points="270.535,46.016,264.6441,50.175,266.2174,57.2123,272.1083,53.0534,270.535,46.016" style="stroke: #A80036; stroke-width: 1.0;"/><text fill="#000000" font-family="sans-serif" font-size="13" lengthAdjust="spacingAndGlyphs" textLength="31" x="258.484" y="90.4951">sinks</text><text fill="#000000" font-family="sans-serif" font-size="13" lengthAdjust="spacingAndGlyphs" textLength="7" x="235.653" y="112.9845">n</text><!--link DataFlowInstance to Model--><path d="M296.118,58.244 C300.788,69.615 303.27,82.555 298.484,94 C294.371,103.838 288.241,113.033 281.227,121.367 " fill="none" id="DataFlowInstance-Model-1" style="stroke: #A80036; stroke-width: 1.0;"/><polygon fill="#A80036" points="272.309,131.092,281.3397,127.1619,275.6882,127.4068,275.4434,121.7552,272.309,131.092" style="stroke: #A80036; stroke-width: 1.0;"/><line style="stroke: #A80036; stroke-width: 1.0;" x1="275.6882" x2="281.0955" y1="127.4068" y2="121.511"/><polygon fill="#FFFFFF" points="290.187,46.236,289.2578,53.387,295.5013,56.9951,296.4305,49.8441,290.187,46.236" style="stroke: #A80036; stroke-width: 1.0;"/><text fill="#000000" font-family="sans-serif" font-size="13" lengthAdjust="spacingAndGlyphs" textLength="46" x="301.484" y="90.4951">sources</text><text fill="#000000" font-family="sans-serif" font-size="13" lengthAdjust="spacingAndGlyphs" textLength="7" x="279.9942" y="121.9063">n</text><!--link DataReservation to Model--><path d="M409.973,54.323 C394.311,66.92 374.848,81.864 356.484,94 C333.383,109.267 306.908,124.435 283.692,137.027 " fill="none" id="DataReservation-Model" style="stroke: #A80036; stroke-width: 1.0;"/><polygon fill="#A80036" points="272.237,143.177,282.0585,142.4438,276.6422,140.8118,278.2742,135.3954,272.237,143.177" style="stroke: #A80036; stroke-width: 1.0;"/><line style="stroke: #A80036; stroke-width: 1.0;" x1="276.6422" x2="283.6905" y1="140.8118" y2="137.028"/><polygon fill="#FFFFFF" points="420.149,46.04,412.9705,46.7255,410.8423,53.6153,418.0208,52.9299,420.149,46.04" style="stroke: #A80036; stroke-width: 1.0;"/><text fill="#000000" font-family="sans-serif" font-size="13" lengthAdjust="spacingAndGlyphs" textLength="39" x="381.484" y="90.4951">source</text><text fill="#000000" font-family="sans-serif" font-size="13" lengthAdjust="spacingAndGlyphs" textLength="7" x="279.9117" y="154.1163">1</text><!--
@startuml

class "DataSource" as Model {
 string name
 json parameters

 create()
 
}

rectangle "DataBluePrintInstance" as DataBluePrintInstance #lightblue {
}

Model o- -> "n" DataBluePrintInstance : blueprints


rectangle "DataAdaptor" as DataAdaptor #lightblue {
}

Model o- -> "1" DataAdaptor : adaptor


rectangle "Data" as Data #lightblue {
}

Model *- -> "n" Data : data




    rectangle "DataAdaptor" as DataAdaptor #lightgreen {
    }
    
        DataAdaptor   *- -> "n" Model : "sources"
    
    rectangle "DataBluePrintInstance" as DataBluePrintInstance #lightgreen {
    }
    
        DataBluePrintInstance   o- -> "n" Model : "sources"
    
    rectangle "DataBluePrintInstance" as DataBluePrintInstance #lightgreen {
    }
    
        DataBluePrintInstance   o- -> "n" Model : "sinks"
    
    rectangle "DataFlowInstance" as DataFlowInstance #lightgreen {
    }
    
        DataFlowInstance   o- -> "n" Model : "sinks"
    
    rectangle "DataFlowInstance" as DataFlowInstance #lightgreen {
    }
    
        DataFlowInstance   o- -> "n" Model : "sources"
    
    rectangle "DataReservation" as DataReservation #lightgreen {
    }
    
        DataReservation   o- -> "1" Model : "source"
    
    rectangle "Data" as Data #lightgreen {
    }
    
        Data   o- -> "1" Model : "source"
    

@enduml

PlantUML version 1.2019.05(Sat Apr 20 09:45:36 PDT 2019)
(GPL source distribution)
Java Runtime: OpenJDK Runtime Environment
JVM: OpenJDK 64-Bit Server VM
Java Version: 12.0.1+12
Operating System: Windows 10
OS Version: 10.0
Default Encoding: Cp1252
Language: en
Country: US
--></g></svg>