<?xml version="1.0" encoding="UTF-8" standalone="no"?><svg xmlns="http://www.w3.org/2000/svg" xmlns:xlink="http://www.w3.org/1999/xlink" contentScriptType="application/ecmascript" contentStyleType="text/css" height="326px" preserveAspectRatio="none" style="width:457px;height:326px;" version="1.1" viewBox="0 0 457 326" width="457px" zoomAndPan="magnify"><defs><filter height="300%" id="f2l8xwaxuzyjh" width="300%" x="-1" y="-1"><feGaussianBlur result="blurOut" stdDeviation="2.0"/><feColorMatrix in="blurOut" result="blurOut2" type="matrix" values="0 0 0 0 0 0 0 0 0 0 0 0 0 0 0 0 0 0 .4 0"/><feOffset dx="4.0" dy="4.0" in="blurOut2" result="blurOut3"/><feBlend in="SourceGraphic" in2="blurOut3" mode="normal"/></filter></defs><g><!--entity DataBluePrint--><rect fill="#ADD8E6" filter="url(#f2l8xwaxuzyjh)" height="37.6094" style="stroke: #000000; stroke-width: 1.5;" width="107" x="188.5" y="278"/><text fill="#000000" font-family="sans-serif" font-size="14" lengthAdjust="spacingAndGlyphs" textLength="87" x="198.5" y="302.5332">DataBluePrint</text><!--entity DataFlowInstance--><rect fill="#90EE90" filter="url(#f2l8xwaxuzyjh)" height="37.6094" style="stroke: #000000; stroke-width: 1.5;" width="132" x="6" y="8"/><text fill="#000000" font-family="sans-serif" font-size="14" lengthAdjust="spacingAndGlyphs" textLength="112" x="16" y="32.5332">DataFlowInstance</text><!--entity DataFlowTemplate--><rect fill="#90EE90" filter="url(#f2l8xwaxuzyjh)" height="37.6094" style="stroke: #000000; stroke-width: 1.5;" width="138" x="173" y="8"/><text fill="#000000" font-family="sans-serif" font-size="14" lengthAdjust="spacingAndGlyphs" textLength="118" x="183" y="32.5332">DataFlowTemplate</text><!--entity DataPipeline--><rect fill="#90EE90" filter="url(#f2l8xwaxuzyjh)" height="37.6094" style="stroke: #000000; stroke-width: 1.5;" width="100" x="346" y="8"/><text fill="#000000" font-family="sans-serif" font-size="14" lengthAdjust="spacingAndGlyphs" textLength="80" x="356" y="32.5332">DataPipeline</text><!--class Model--><rect fill="#FEFECE" filter="url(#f2l8xwaxuzyjh)" height="75.6719" id="Model" style="stroke: #A80036; stroke-width: 1.5;" width="84" x="200" y="124"/><ellipse cx="215" cy="140" fill="#ADD1B2" rx="11" ry="11" style="stroke: #A80036; stroke-width: 1.0;"/><path d="M217.7656,135.875 Q217.9219,135.6563 218.1094,135.5469 Q218.2969,135.4375 218.5156,135.4375 Q218.8906,135.4375 219.125,135.7031 Q219.3594,135.9531 219.3594,136.5625 L219.3594,138.0156 Q219.3594,138.625 219.125,138.8906 Q218.8906,139.1563 218.5156,139.1563 Q218.1719,139.1563 217.9688,138.9531 Q217.7656,138.7656 217.6563,138.25 Q217.6094,137.8906 217.4219,137.7031 Q217.0938,137.3281 216.4844,137.1094 Q215.875,136.8906 215.25,136.8906 Q214.4844,136.8906 213.8438,137.2188 Q213.2188,137.5469 212.7188,138.2969 Q212.2344,139.0469 212.2344,140.0781 L212.2344,141.1719 Q212.2344,142.4063 213.125,143.2344 Q214.0156,144.0469 215.6094,144.0469 Q216.5469,144.0469 217.2031,143.7969 Q217.5938,143.6406 218.0156,143.2031 Q218.2813,142.9375 218.4219,142.8594 Q218.5781,142.7813 218.7813,142.7813 Q219.1094,142.7813 219.3594,143.0469 Q219.625,143.2969 219.625,143.6406 Q219.625,143.9844 219.2813,144.3906 Q218.7813,144.9688 217.9844,145.2969 Q216.9063,145.75 215.6094,145.75 Q214.0938,145.75 212.8906,145.125 Q211.9063,144.625 211.2188,143.5625 Q210.5313,142.4844 210.5313,141.2031 L210.5313,140.0469 Q210.5313,138.7188 211.1406,137.5781 Q211.7656,136.4219 212.8594,135.8125 Q213.9531,135.1875 215.1875,135.1875 Q215.9219,135.1875 216.5625,135.3594 Q217.2188,135.5156 217.7656,135.875 Z "/><text fill="#000000" font-family="sans-serif" font-size="12" lengthAdjust="spacingAndGlyphs" textLength="52" x="229" y="144.9102">DataFlow</text><line style="stroke: #A80036; stroke-width: 1.5;" x1="201" x2="283" y1="156" y2="156"/><text fill="#000000" font-family="sans-serif" font-size="11" lengthAdjust="spacingAndGlyphs" textLength="52" x="206" y="171.4189">string attr1</text><line style="stroke: #A80036; stroke-width: 1.5;" x1="201" x2="283" y1="177.8359" y2="177.8359"/><text fill="#000000" font-family="sans-serif" font-size="11" lengthAdjust="spacingAndGlyphs" textLength="39" x="206" y="193.2549">create()</text><!--link Model to DataBluePrint--><path d="M242,213.342 C242,230.5007 242,249.1871 242,264.4452 " fill="none" id="Model-DataBluePrint" style="stroke: #A80036; stroke-width: 1.0;"/><polygon fill="#A80036" points="242,277.8618,246,268.8618,242,272.8618,238,268.8618,242,277.8618" style="stroke: #A80036; stroke-width: 1.0;"/><line style="stroke: #A80036; stroke-width: 1.0;" x1="242" x2="242" y1="272.8618" y2="264.8618"/><polygon fill="#FFFFFF" points="242,200.048,238,206.048,242,212.048,246,206.048,242,200.048" style="stroke: #A80036; stroke-width: 1.0;"/><text fill="#000000" font-family="sans-serif" font-size="13" lengthAdjust="spacingAndGlyphs" textLength="49" x="243" y="244.4951">blueprint</text><text fill="#000000" font-family="sans-serif" font-size="13" lengthAdjust="spacingAndGlyphs" textLength="7" x="233.9281" y="267.1595">1</text><!--link DataFlowInstance to Model--><path d="M105.7572,54.41 C129.581,73.049 161.973,98.391 189.196,119.688 " fill="none" id="DataFlowInstance-Model" style="stroke: #A80036; stroke-width: 1.0;"/><polygon fill="#A80036" points="199.731,127.931,195.108,119.2346,195.7932,124.8498,190.178,125.535,199.731,127.931" style="stroke: #A80036; stroke-width: 1.0;"/><line style="stroke: #A80036; stroke-width: 1.0;" x1="195.7932" x2="189.492" y1="124.8498" y2="119.9205"/><polygon fill="#FFFFFF" points="95.2813,46.214,97.542,53.0616,104.7323,53.6085,102.4716,46.7609,95.2813,46.214" style="stroke: #A80036; stroke-width: 1.0;"/><text fill="#000000" font-family="sans-serif" font-size="13" lengthAdjust="spacingAndGlyphs" textLength="47" x="153" y="90.4951">dataflow</text><text fill="#000000" font-family="sans-serif" font-size="13" lengthAdjust="spacingAndGlyphs" textLength="7" x="184.8645" y="118.2539">1</text><!--link DataFlowTemplate to Model--><path d="M242,59.457 C242,74.784 242,93.587 242,110.829 " fill="none" id="DataFlowTemplate-Model" style="stroke: #A80036; stroke-width: 1.0;"/><polygon fill="#A80036" points="242,123.924,246,114.924,242,118.924,238,114.924,242,123.924" style="stroke: #A80036; stroke-width: 1.0;"/><line style="stroke: #A80036; stroke-width: 1.0;" x1="242" x2="242" y1="118.924" y2="110.9245"/><polygon fill="#FFFFFF" points="242,46.214,238,52.214,242,58.214,246,52.214,242,46.214" style="stroke: #A80036; stroke-width: 1.0;"/><text fill="#000000" font-family="sans-serif" font-size="13" lengthAdjust="spacingAndGlyphs" textLength="22" x="243" y="90.4951">flow</text><text fill="#000000" font-family="sans-serif" font-size="13" lengthAdjust="spacingAndGlyphs" textLength="7" x="234.3766" y="113.2724">1</text><!--link DataPipeline to Model--><path d="M364.929,54.834 C344.736,72.274 317.9,95.45 294.455,115.698 " fill="none" id="DataPipeline-Model" style="stroke: #A80036; stroke-width: 1.0;"/><polygon fill="#A80036" points="284.302,124.466,293.7281,121.6113,288.0863,121.1981,288.4995,115.5564,284.302,124.466" style="stroke: #A80036; stroke-width: 1.0;"/><line style="stroke: #A80036; stroke-width: 1.0;" x1="288.0863" x2="294.141" y1="121.1981" y2="115.969"/><polygon fill="#FFFFFF" points="374.91,46.214,367.7546,47.1085,365.8282,54.0575,372.9836,53.163,374.91,46.214" style="stroke: #A80036; stroke-width: 1.0;"/><text fill="#000000" font-family="sans-serif" font-size="13" lengthAdjust="spacingAndGlyphs" textLength="29" x="338" y="90.4951">flows</text><text fill="#000000" font-family="sans-serif" font-size="13" lengthAdjust="spacingAndGlyphs" textLength="7" x="291.888" y="114.4758">n</text><!--
@startuml

class "DataFlow" as Model {
 string attr1

 create()
 
}

rectangle "DataBluePrint" as DataBluePrint #lightblue {
}

Model o- -> "1" DataBluePrint : blueprint




    rectangle "DataFlowInstance" as DataFlowInstance #lightgreen {
    }
    
        DataFlowInstance   o- -> "1" Model : "dataflow"
    
    rectangle "DataFlowTemplate" as DataFlowTemplate #lightgreen {
    }
    
        DataFlowTemplate   o- -> "1" Model : "flow"
    
    rectangle "DataPipeline" as DataPipeline #lightgreen {
    }
    
        DataPipeline   o- -> "n" Model : "flows"
    

@enduml

PlantUML version 1.2019.05(Sat Apr 20 09:45:36 PDT 2019)
(GPL source distribution)
Java Runtime: OpenJDK Runtime Environment
JVM: OpenJDK 64-Bit Server VM
Java Version: 12.0.1+12
Operating System: Windows 10
OS Version: 10.0
Default Encoding: Cp1252
Language: en
Country: US
--></g></svg>