<?xml version="1.0" encoding="UTF-8" standalone="no"?><svg xmlns="http://www.w3.org/2000/svg" xmlns:xlink="http://www.w3.org/1999/xlink" contentScriptType="application/ecmascript" contentStyleType="text/css" height="353px" preserveAspectRatio="none" style="width:457px;height:353px;" version="1.1" viewBox="0 0 457 353" width="457px" zoomAndPan="magnify"><defs><filter height="300%" id="f120coe1r0r030" width="300%" x="-1" y="-1"><feGaussianBlur result="blurOut" stdDeviation="2.0"/><feColorMatrix in="blurOut" result="blurOut2" type="matrix" values="0 0 0 0 0 0 0 0 0 0 0 0 0 0 0 0 0 0 .4 0"/><feOffset dx="4.0" dy="4.0" in="blurOut2" result="blurOut3"/><feBlend in="SourceGraphic" in2="blurOut3" mode="normal"/></filter></defs><g><!--entity DataBluePrint--><rect fill="#ADD8E6" filter="url(#f120coe1r0r030)" height="37.6094" style="stroke: #000000; stroke-width: 1.5;" width="107" x="188.5" y="305"/><text fill="#000000" font-family="sans-serif" font-size="14" lengthAdjust="spacingAndGlyphs" textLength="87" x="198.5" y="329.5332">DataBluePrint</text><!--entity DataFlowInstance--><rect fill="#90EE90" filter="url(#f120coe1r0r030)" height="37.6094" style="stroke: #000000; stroke-width: 1.5;" width="132" x="6" y="8"/><text fill="#000000" font-family="sans-serif" font-size="14" lengthAdjust="spacingAndGlyphs" textLength="112" x="16" y="32.5332">DataFlowInstance</text><!--entity DataFlowTemplate--><rect fill="#90EE90" filter="url(#f120coe1r0r030)" height="37.6094" style="stroke: #000000; stroke-width: 1.5;" width="138" x="173" y="8"/><text fill="#000000" font-family="sans-serif" font-size="14" lengthAdjust="spacingAndGlyphs" textLength="118" x="183" y="32.5332">DataFlowTemplate</text><!--entity DataPipeline--><rect fill="#90EE90" filter="url(#f120coe1r0r030)" height="37.6094" style="stroke: #000000; stroke-width: 1.5;" width="100" x="346" y="8"/><text fill="#000000" font-family="sans-serif" font-size="14" lengthAdjust="spacingAndGlyphs" textLength="80" x="356" y="32.5332">DataPipeline</text><!--class Model--><rect fill="#FEFECE" filter="url(#f120coe1r0r030)" height="103.3438" id="Model" style="stroke: #A80036; stroke-width: 1.5;" width="97" x="193.5" y="124"/><ellipse cx="214.35" cy="140" fill="#ADD1B2" rx="11" ry="11" style="stroke: #A80036; stroke-width: 1.0;"/><path d="M217.1156,135.875 Q217.2719,135.6563 217.4594,135.5469 Q217.6469,135.4375 217.8656,135.4375 Q218.2406,135.4375 218.475,135.7031 Q218.7094,135.9531 218.7094,136.5625 L218.7094,138.0156 Q218.7094,138.625 218.475,138.8906 Q218.2406,139.1563 217.8656,139.1563 Q217.5219,139.1563 217.3188,138.9531 Q217.1156,138.7656 217.0063,138.25 Q216.9594,137.8906 216.7719,137.7031 Q216.4438,137.3281 215.8344,137.1094 Q215.225,136.8906 214.6,136.8906 Q213.8344,136.8906 213.1938,137.2188 Q212.5688,137.5469 212.0688,138.2969 Q211.5844,139.0469 211.5844,140.0781 L211.5844,141.1719 Q211.5844,142.4063 212.475,143.2344 Q213.3656,144.0469 214.9594,144.0469 Q215.8969,144.0469 216.5531,143.7969 Q216.9438,143.6406 217.3656,143.2031 Q217.6313,142.9375 217.7719,142.8594 Q217.9281,142.7813 218.1313,142.7813 Q218.4594,142.7813 218.7094,143.0469 Q218.975,143.2969 218.975,143.6406 Q218.975,143.9844 218.6313,144.3906 Q218.1313,144.9688 217.3344,145.2969 Q216.2563,145.75 214.9594,145.75 Q213.4438,145.75 212.2406,145.125 Q211.2563,144.625 210.5688,143.5625 Q209.8813,142.4844 209.8813,141.2031 L209.8813,140.0469 Q209.8813,138.7188 210.4906,137.5781 Q211.1156,136.4219 212.2094,135.8125 Q213.3031,135.1875 214.5375,135.1875 Q215.2719,135.1875 215.9125,135.3594 Q216.5688,135.5156 217.1156,135.875 Z "/><text fill="#000000" font-family="sans-serif" font-size="12" lengthAdjust="spacingAndGlyphs" textLength="52" x="229.65" y="144.9102">DataFlow</text><line style="stroke: #A80036; stroke-width: 1.5;" x1="194.5" x2="289.5" y1="156" y2="156"/><text fill="#000000" font-family="sans-serif" font-size="11" lengthAdjust="spacingAndGlyphs" textLength="56" x="199.5" y="171.4189">string name</text><text fill="#000000" font-family="sans-serif" font-size="11" lengthAdjust="spacingAndGlyphs" textLength="66" x="199.5" y="185.2549">string version</text><text fill="#000000" font-family="sans-serif" font-size="11" lengthAdjust="spacingAndGlyphs" textLength="85" x="199.5" y="199.0908">string parameters</text><line style="stroke: #A80036; stroke-width: 1.5;" x1="194.5" x2="289.5" y1="205.5078" y2="205.5078"/><text fill="#000000" font-family="sans-serif" font-size="11" lengthAdjust="spacingAndGlyphs" textLength="39" x="199.5" y="220.9268">create()</text><!--link Model to DataBluePrint--><path d="M242,240.548 C242,258.3365 242,276.8603 242,291.8336 " fill="none" id="Model-DataBluePrint" style="stroke: #A80036; stroke-width: 1.0;"/><polygon fill="#A80036" points="242,304.9617,246,295.9617,242,299.9617,238,295.9617,242,304.9617" style="stroke: #A80036; stroke-width: 1.0;"/><line style="stroke: #A80036; stroke-width: 1.0;" x1="242" x2="242" y1="299.9617" y2="291.9616"/><polygon fill="#FFFFFF" points="242,227.327,238,233.327,242,239.327,246,233.327,242,227.327" style="stroke: #A80036; stroke-width: 1.0;"/><text fill="#000000" font-family="sans-serif" font-size="13" lengthAdjust="spacingAndGlyphs" textLength="49" x="243" y="271.4951">blueprint</text><text fill="#000000" font-family="sans-serif" font-size="13" lengthAdjust="spacingAndGlyphs" textLength="7" x="233.9281" y="294.29">1</text><!--link DataFlowInstance to Model--><path d="M103.2897,54.964 C125.653,74.236 156.418,100.748 183.293,123.908 " fill="none" id="DataFlowInstance-Model" style="stroke: #A80036; stroke-width: 1.0;"/><polygon fill="#A80036" points="193.377,132.599,189.1705,123.6936,189.5894,129.335,183.9481,129.7538,193.377,132.599" style="stroke: #A80036; stroke-width: 1.0;"/><line style="stroke: #A80036; stroke-width: 1.0;" x1="189.5894" x2="183.5295" y1="129.335" y2="124.112"/><polygon fill="#FFFFFF" points="93.1869,46.258,95.1206,53.205,102.2769,54.092,100.3432,47.145,93.1869,46.258" style="stroke: #A80036; stroke-width: 1.0;"/><text fill="#000000" font-family="sans-serif" font-size="13" lengthAdjust="spacingAndGlyphs" textLength="47" x="148" y="90.4951">dataflow</text><text fill="#000000" font-family="sans-serif" font-size="13" lengthAdjust="spacingAndGlyphs" textLength="7" x="178.3957" y="122.3005">1</text><!--link DataFlowTemplate to Model--><path d="M242,59.388 C242,74.409 242,92.963 242,110.757 " fill="none" id="DataFlowTemplate-Model" style="stroke: #A80036; stroke-width: 1.0;"/><polygon fill="#A80036" points="242,123.83,246,114.83,242,118.83,238,114.83,242,123.83" style="stroke: #A80036; stroke-width: 1.0;"/><line style="stroke: #A80036; stroke-width: 1.0;" x1="242" x2="242" y1="118.83" y2="110.83"/><polygon fill="#FFFFFF" points="242,46.258,238,52.258,242,58.258,246,52.258,242,46.258" style="stroke: #A80036; stroke-width: 1.0;"/><text fill="#000000" font-family="sans-serif" font-size="13" lengthAdjust="spacingAndGlyphs" textLength="22" x="243" y="90.4951">flow</text><text fill="#000000" font-family="sans-serif" font-size="13" lengthAdjust="spacingAndGlyphs" textLength="7" x="234.5297" y="113.3075">1</text><!--link DataPipeline to Model--><path d="M367.272,55.329 C348.447,73.237 323.171,97.282 300.254,119.083 " fill="none" id="DataPipeline-Model" style="stroke: #A80036; stroke-width: 1.0;"/><polygon fill="#A80036" points="290.603,128.264,299.8807,124.9589,294.2256,124.8178,294.3667,119.1627,290.603,128.264" style="stroke: #A80036; stroke-width: 1.0;"/><line style="stroke: #A80036; stroke-width: 1.0;" x1="294.2256" x2="300.022" y1="124.8178" y2="119.3045"/><polygon fill="#FFFFFF" points="376.807,46.258,369.7029,47.4954,368.1127,54.529,375.2168,53.2916,376.807,46.258" style="stroke: #A80036; stroke-width: 1.0;"/><text fill="#000000" font-family="sans-serif" font-size="13" lengthAdjust="spacingAndGlyphs" textLength="29" x="342" y="90.4951">flows</text><text fill="#000000" font-family="sans-serif" font-size="13" lengthAdjust="spacingAndGlyphs" textLength="7" x="298.5813" y="117.3017">n</text><!--
@startuml

class "DataFlow" as Model {
 string name
 string version
 string parameters

 create()
 
}

rectangle "DataBluePrint" as DataBluePrint #lightblue {
}

Model o- -> "1" DataBluePrint : blueprint




    rectangle "DataFlowInstance" as DataFlowInstance #lightgreen {
    }
    
        DataFlowInstance   o- -> "1" Model : "dataflow"
    
    rectangle "DataFlowTemplate" as DataFlowTemplate #lightgreen {
    }
    
        DataFlowTemplate   o- -> "1" Model : "flow"
    
    rectangle "DataPipeline" as DataPipeline #lightgreen {
    }
    
        DataPipeline   o- -> "n" Model : "flows"
    

@enduml

PlantUML version 1.2019.05(Sat Apr 20 09:45:36 PDT 2019)
(GPL source distribution)
Java Runtime: OpenJDK Runtime Environment
JVM: OpenJDK 64-Bit Server VM
Java Version: 12.0.1+12
Operating System: Windows 10
OS Version: 10.0
Default Encoding: Cp1252
Language: en
Country: US
--></g></svg>