<?xml version="1.0" encoding="UTF-8" standalone="no"?><svg xmlns="http://www.w3.org/2000/svg" xmlns:xlink="http://www.w3.org/1999/xlink" contentScriptType="application/ecmascript" contentStyleType="text/css" height="332px" preserveAspectRatio="none" style="width:256px;height:332px;" version="1.1" viewBox="0 0 256 332" width="256px" zoomAndPan="magnify"><defs><filter height="300%" id="ft7waj6kbkwv0" width="300%" x="-1" y="-1"><feGaussianBlur result="blurOut" stdDeviation="2.0"/><feColorMatrix in="blurOut" result="blurOut2" type="matrix" values="0 0 0 0 0 0 0 0 0 0 0 0 0 0 0 0 0 0 .4 0"/><feOffset dx="4.0" dy="4.0" in="blurOut2" result="blurOut3"/><feBlend in="SourceGraphic" in2="blurOut3" mode="normal"/></filter></defs><g><rect fill="#FFCC88" filter="url(#ft7waj6kbkwv0)" height="313.6094" rx="12.5" ry="12.5" style="stroke: #A80036; stroke-width: 1.5;" width="238" x="6" y="8"/><rect fill="#FFFFFF" height="280" rx="12.5" ry="12.5" style="stroke: #FFFFFF; stroke-width: 1.0;" width="232" x="9" y="38.6094"/><line style="stroke: #A80036; stroke-width: 1.5;" x1="6" x2="244" y1="35.6094" y2="35.6094"/><text fill="#000000" font-family="sans-serif" font-size="14" lengthAdjust="spacingAndGlyphs" textLength="75" x="87.5" y="27.5332">DataSource</text><rect fill="#FFCC88" filter="url(#ft7waj6kbkwv0)" height="50" rx="12.5" ry="12.5" style="stroke: #A80036; stroke-width: 1.5;" width="50" x="90" y="48.6094"/><line style="stroke: #A80036; stroke-width: 1.5;" x1="90" x2="140" y1="76.2188" y2="76.2188"/><text fill="#000000" font-family="sans-serif" font-size="14" lengthAdjust="spacingAndGlyphs" textLength="18" x="106" y="68.1426">Init</text><rect fill="#FFCC88" filter="url(#ft7waj6kbkwv0)" height="50" rx="12.5" ry="12.5" style="stroke: #A80036; stroke-width: 1.5;" width="61" x="84.5" y="152.6094"/><line style="stroke: #A80036; stroke-width: 1.5;" x1="84.5" x2="145.5" y1="180.2188" y2="180.2188"/><text fill="#000000" font-family="sans-serif" font-size="14" lengthAdjust="spacingAndGlyphs" textLength="41" x="94.5" y="172.1426">Ready</text><rect fill="#FFCC88" filter="url(#ft7waj6kbkwv0)" height="50" rx="12.5" ry="12.5" style="stroke: #A80036; stroke-width: 1.5;" width="92" x="17" y="256.6094"/><line style="stroke: #A80036; stroke-width: 1.5;" x1="17" x2="109" y1="284.2188" y2="284.2188"/><text fill="#000000" font-family="sans-serif" font-size="14" lengthAdjust="spacingAndGlyphs" textLength="72" x="27" y="276.1426">Suspended</text><rect fill="#FFCC88" filter="url(#ft7waj6kbkwv0)" height="50" rx="12.5" ry="12.5" style="stroke: #A80036; stroke-width: 1.5;" width="82" x="127" y="256.6094"/><line style="stroke: #A80036; stroke-width: 1.5;" x1="127" x2="209" y1="284.2188" y2="284.2188"/><text fill="#000000" font-family="sans-serif" font-size="14" lengthAdjust="spacingAndGlyphs" textLength="62" x="137" y="276.1426">Shutdown</text><!--link Init to Ready--><path d="M115,98.7824 C115,113.2844 115,131.8324 115,147.1834 " fill="none" id="Init-Ready" style="stroke: #A80036; stroke-width: 1.0;"/><polygon fill="#A80036" points="115,152.2564,119,143.2564,115,147.2564,111,143.2564,115,152.2564" style="stroke: #A80036; stroke-width: 1.0;"/><text fill="#000000" font-family="sans-serif" font-size="13" lengthAdjust="spacingAndGlyphs" textLength="36" x="116" y="131.1045">create</text><!--link Ready to Suspended--><path d="M102.6767,202.7824 C95.2191,217.4105 85.6627,236.1556 77.7975,251.5836 " fill="none" id="Ready-Suspended" style="stroke: #A80036; stroke-width: 1.0;"/><polygon fill="#A80036" points="75.415,256.2569,83.0664,250.0555,77.686,251.8024,75.9391,246.422,75.415,256.2569" style="stroke: #A80036; stroke-width: 1.0;"/><text fill="#000000" font-family="sans-serif" font-size="13" lengthAdjust="spacingAndGlyphs" textLength="49" x="94" y="235.1045">suspend</text><!--link Ready to Shutdown--><path d="M134.585,202.7064 C138.678,208.3783 142.736,214.544 146,220.6094 C151.241,230.3491 155.736,241.6016 159.271,251.7118 " fill="none" id="Ready-Shutdown" style="stroke: #A80036; stroke-width: 1.0;"/><polygon fill="#A80036" points="160.929,256.5716,161.8086,246.7621,159.3145,251.8394,154.2371,249.3453,160.929,256.5716" style="stroke: #A80036; stroke-width: 1.0;"/><text fill="#000000" font-family="sans-serif" font-size="13" lengthAdjust="spacingAndGlyphs" textLength="55" x="155" y="235.1045">shutdown</text><!--
@startuml



state DataSource #ffcc88 {

    state Init #ffcc88 {
    }

    state Ready #ffcc88 {
    }

    state Suspended #ffcc88 {
    }

    state Shutdown #ffcc88 {
    }

}


Init - -> Ready : create

Ready - -> Suspended : suspend

Ready - -> Shutdown : shutdown




@enduml

PlantUML version 1.2019.05(Sat Apr 20 09:45:36 PDT 2019)
(GPL source distribution)
Java Runtime: OpenJDK Runtime Environment
JVM: OpenJDK 64-Bit Server VM
Java Version: 12.0.1+12
Operating System: Windows 10
OS Version: 10.0
Default Encoding: Cp1252
Language: en
Country: US
--></g></svg>