<?xml version="1.0" encoding="UTF-8" standalone="no"?><svg xmlns="http://www.w3.org/2000/svg" xmlns:xlink="http://www.w3.org/1999/xlink" contentScriptType="application/ecmascript" contentStyleType="text/css" height="782px" preserveAspectRatio="none" style="width:1406px;height:782px;" version="1.1" viewBox="0 0 1406 782" width="1406px" zoomAndPan="magnify"><defs><filter height="300%" id="fe994h6tpfjy" width="300%" x="-1" y="-1"><feGaussianBlur result="blurOut" stdDeviation="2.0"/><feColorMatrix in="blurOut" result="blurOut2" type="matrix" values="0 0 0 0 0 0 0 0 0 0 0 0 0 0 0 0 0 0 .4 0"/><feOffset dx="4.0" dy="4.0" in="blurOut2" result="blurOut3"/><feBlend in="SourceGraphic" in2="blurOut3" mode="normal"/></filter></defs><g><rect fill="#FFFFE0" height="767.8984" style="stroke: #A80036; stroke-width: 1.0;" width="208" x="196.5" y="4"/><text fill="#000000" font-family="sans-serif" font-size="13" font-weight="bold" lengthAdjust="spacingAndGlyphs" textLength="198" x="199.5" y="17.4951">Software Defined Infrastructure</text><rect fill="#D3D3D3" height="767.8984" style="stroke: #A80036; stroke-width: 1.0;" width="254.5" x="662.5" y="4"/><text fill="#000000" font-family="sans-serif" font-size="13" font-weight="bold" lengthAdjust="spacingAndGlyphs" textLength="154" x="710.75" y="17.4951">Common Physical Layer</text><rect fill="#FFFFE0" height="767.8984" style="stroke: #A80036; stroke-width: 1.0;" width="208" x="919" y="4"/><text fill="#000000" font-family="sans-serif" font-size="13" font-weight="bold" lengthAdjust="spacingAndGlyphs" textLength="198" x="922" y="17.4951">Software Defined Infrastructure</text><rect fill="#D3D3D3" height="767.8984" style="stroke: #A80036; stroke-width: 1.0;" width="160" x="1235" y="4"/><text fill="#000000" font-family="sans-serif" font-size="13" font-weight="bold" lengthAdjust="spacingAndGlyphs" textLength="154" x="1238" y="17.4951">Common Physical Layer</text><line style="stroke: #A80036; stroke-width: 1.0; stroke-dasharray: 5.0,5.0;" x1="54" x2="54" y1="87.6094" y2="684.2891"/><line style="stroke: #A80036; stroke-width: 1.0; stroke-dasharray: 5.0,5.0;" x1="143" x2="143" y1="87.6094" y2="684.2891"/><line style="stroke: #A80036; stroke-width: 1.0; stroke-dasharray: 5.0,5.0;" x1="300" x2="300" y1="87.6094" y2="684.2891"/><line style="stroke: #A80036; stroke-width: 1.0; stroke-dasharray: 5.0,5.0;" x1="695.5" x2="695.5" y1="87.6094" y2="684.2891"/><line style="stroke: #A80036; stroke-width: 1.0; stroke-dasharray: 5.0,5.0;" x1="870" x2="870" y1="87.6094" y2="684.2891"/><line style="stroke: #A80036; stroke-width: 1.0; stroke-dasharray: 5.0,5.0;" x1="1023" x2="1023" y1="87.6094" y2="684.2891"/><line style="stroke: #A80036; stroke-width: 1.0; stroke-dasharray: 5.0,5.0;" x1="1181" x2="1181" y1="87.6094" y2="684.2891"/><line style="stroke: #A80036; stroke-width: 1.0; stroke-dasharray: 5.0,5.0;" x1="1314.5" x2="1314.5" y1="87.6094" y2="684.2891"/><text fill="#000000" font-family="sans-serif" font-size="14" lengthAdjust="spacingAndGlyphs" textLength="86" x="8" y="84.5332">IT Operations</text><ellipse cx="54" cy="13" fill="#FEFECE" filter="url(#fe994h6tpfjy)" rx="8" ry="8" style="stroke: #A80036; stroke-width: 2.0;"/><path d="M54,21 L54,48 M41,29 L67,29 M54,48 L41,63 M54,48 L67,63 " fill="none" filter="url(#fe994h6tpfjy)" style="stroke: #A80036; stroke-width: 2.0;"/><text fill="#000000" font-family="sans-serif" font-size="14" lengthAdjust="spacingAndGlyphs" textLength="86" x="8" y="697.8223">IT Operations</text><ellipse cx="54" cy="710.8984" fill="#FEFECE" filter="url(#fe994h6tpfjy)" rx="8" ry="8" style="stroke: #A80036; stroke-width: 2.0;"/><path d="M54,718.8984 L54,745.8984 M41,726.8984 L67,726.8984 M54,745.8984 L41,760.8984 M54,745.8984 L67,760.8984 " fill="none" filter="url(#fe994h6tpfjy)" style="stroke: #A80036; stroke-width: 2.0;"/><text fill="#000000" font-family="sans-serif" font-size="14" lengthAdjust="spacingAndGlyphs" textLength="60" x="110" y="84.5332">EventBus</text><ellipse cx="143" cy="54" fill="#FEFECE" filter="url(#fe994h6tpfjy)" rx="12" ry="12" style="stroke: #A80036; stroke-width: 2.0;"/><line style="stroke: #A80036; stroke-width: 2.0;" x1="131" x2="155" y1="68" y2="68"/><text fill="#000000" font-family="sans-serif" font-size="14" lengthAdjust="spacingAndGlyphs" textLength="60" x="110" y="697.8223">EventBus</text><ellipse cx="143" cy="716.8984" fill="#FEFECE" filter="url(#fe994h6tpfjy)" rx="12" ry="12" style="stroke: #A80036; stroke-width: 2.0;"/><line style="stroke: #A80036; stroke-width: 2.0;" x1="131" x2="155" y1="730.8984" y2="730.8984"/><text fill="#000000" font-family="sans-serif" font-size="14" lengthAdjust="spacingAndGlyphs" textLength="18" x="288.5" y="84.5332">sdi</text><path d="M280,42 L280,66 M280,54 L297,54 " fill="none" filter="url(#fe994h6tpfjy)" style="stroke: #A80036; stroke-width: 2.0;"/><ellipse cx="309" cy="54" fill="#FFFFFF" filter="url(#fe994h6tpfjy)" rx="12" ry="12" style="stroke: #A80036; stroke-width: 2.0;"/><text fill="#000000" font-family="sans-serif" font-size="14" lengthAdjust="spacingAndGlyphs" textLength="18" x="288.5" y="697.8223">sdi</text><path d="M280,704.8984 L280,728.8984 M280,716.8984 L297,716.8984 " fill="none" filter="url(#fe994h6tpfjy)" style="stroke: #A80036; stroke-width: 2.0;"/><ellipse cx="309" cy="716.8984" fill="#FFFFFF" filter="url(#fe994h6tpfjy)" rx="12" ry="12" style="stroke: #A80036; stroke-width: 2.0;"/><rect fill="#FEFECE" filter="url(#fe994h6tpfjy)" height="31.6094" style="stroke: #A80036; stroke-width: 1.5;" width="55" x="666.5" y="51"/><text fill="#000000" font-family="sans-serif" font-size="14" lengthAdjust="spacingAndGlyphs" textLength="41" x="673.5" y="72.5332">device</text><rect fill="#FEFECE" filter="url(#fe994h6tpfjy)" height="31.6094" style="stroke: #A80036; stroke-width: 1.5;" width="55" x="666.5" y="683.2891"/><text fill="#000000" font-family="sans-serif" font-size="14" lengthAdjust="spacingAndGlyphs" textLength="41" x="673.5" y="704.8223">device</text><rect fill="#FEFECE" filter="url(#fe994h6tpfjy)" height="31.6094" style="stroke: #A80036; stroke-width: 1.5;" width="82" x="827" y="51"/><text fill="#000000" font-family="sans-serif" font-size="14" lengthAdjust="spacingAndGlyphs" textLength="68" x="834" y="72.5332">datacenter</text><rect fill="#FEFECE" filter="url(#fe994h6tpfjy)" height="31.6094" style="stroke: #A80036; stroke-width: 1.5;" width="82" x="827" y="683.2891"/><text fill="#000000" font-family="sans-serif" font-size="14" lengthAdjust="spacingAndGlyphs" textLength="68" x="834" y="704.8223">datacenter</text><rect fill="#FEFECE" filter="url(#fe994h6tpfjy)" height="31.6094" style="stroke: #A80036; stroke-width: 1.5;" width="48" x="997" y="51"/><text fill="#000000" font-family="sans-serif" font-size="14" lengthAdjust="spacingAndGlyphs" textLength="34" x="1004" y="72.5332">cloud</text><rect fill="#FEFECE" filter="url(#fe994h6tpfjy)" height="31.6094" style="stroke: #A80036; stroke-width: 1.5;" width="48" x="997" y="683.2891"/><text fill="#000000" font-family="sans-serif" font-size="14" lengthAdjust="spacingAndGlyphs" textLength="34" x="1004" y="704.8223">cloud</text><rect fill="#FEFECE" filter="url(#fe994h6tpfjy)" height="31.6094" style="stroke: #A80036; stroke-width: 1.5;" width="92" x="1133" y="51"/><text fill="#000000" font-family="sans-serif" font-size="14" lengthAdjust="spacingAndGlyphs" textLength="78" x="1140" y="72.5332">sdi/resource</text><rect fill="#FEFECE" filter="url(#fe994h6tpfjy)" height="31.6094" style="stroke: #A80036; stroke-width: 1.5;" width="92" x="1133" y="683.2891"/><text fill="#000000" font-family="sans-serif" font-size="14" lengthAdjust="spacingAndGlyphs" textLength="78" x="1140" y="704.8223">sdi/resource</text><text fill="#000000" font-family="sans-serif" font-size="14" lengthAdjust="spacingAndGlyphs" textLength="18" x="1303" y="84.5332">cpl</text><path d="M1294.5,42 L1294.5,66 M1294.5,54 L1311.5,54 " fill="none" filter="url(#fe994h6tpfjy)" style="stroke: #A80036; stroke-width: 2.0;"/><ellipse cx="1323.5" cy="54" fill="#FFFFFF" filter="url(#fe994h6tpfjy)" rx="12" ry="12" style="stroke: #A80036; stroke-width: 2.0;"/><text fill="#000000" font-family="sans-serif" font-size="14" lengthAdjust="spacingAndGlyphs" textLength="18" x="1303" y="697.8223">cpl</text><path d="M1294.5,704.8984 L1294.5,728.8984 M1294.5,716.8984 L1311.5,716.8984 " fill="none" filter="url(#fe994h6tpfjy)" style="stroke: #A80036; stroke-width: 2.0;"/><ellipse cx="1323.5" cy="716.8984" fill="#FFFFFF" filter="url(#fe994h6tpfjy)" rx="12" ry="12" style="stroke: #A80036; stroke-width: 2.0;"/><polygon fill="#A80036" points="288.5,115.9609,298.5,119.9609,288.5,123.9609,292.5,119.9609" style="stroke: #A80036; stroke-width: 1.0;"/><line style="stroke: #A80036; stroke-width: 1.0;" x1="54" x2="294.5" y1="119.9609" y2="119.9609"/><text fill="#000000" font-family="sans-serif" font-size="13" lengthAdjust="spacingAndGlyphs" textLength="87" x="61" y="115.1045">Get Resources</text><polygon fill="#A80036" points="684,146.3125,694,150.3125,684,154.3125,688,150.3125" style="stroke: #A80036; stroke-width: 1.0;"/><line style="stroke: #A80036; stroke-width: 1.0;" x1="300.5" x2="690" y1="150.3125" y2="150.3125"/><text fill="#000000" font-family="sans-serif" font-size="13" lengthAdjust="spacingAndGlyphs" textLength="296" x="307.5" y="145.4561">create (name: hostgr1,file: ./templates/device.yaml)</text><polygon fill="#A80036" points="684,176.6641,694,180.6641,684,184.6641,688,180.6641" style="stroke: #A80036; stroke-width: 1.0;"/><line style="stroke: #A80036; stroke-width: 1.0;" x1="300.5" x2="690" y1="180.6641" y2="180.6641"/><text fill="#000000" font-family="sans-serif" font-size="13" lengthAdjust="spacingAndGlyphs" textLength="296" x="307.5" y="175.8076">create (name: hostgr2,file: ./templates/device.yaml)</text><polygon fill="#A80036" points="684,207.0156,694,211.0156,684,215.0156,688,211.0156" style="stroke: #A80036; stroke-width: 1.0;"/><line style="stroke: #A80036; stroke-width: 1.0;" x1="300.5" x2="690" y1="211.0156" y2="211.0156"/><text fill="#000000" font-family="sans-serif" font-size="13" lengthAdjust="spacingAndGlyphs" textLength="296" x="307.5" y="206.1592">create (name: hostgr3,file: ./templates/device.yaml)</text><polygon fill="#A80036" points="684,237.3672,694,241.3672,684,245.3672,688,241.3672" style="stroke: #A80036; stroke-width: 1.0;"/><line style="stroke: #A80036; stroke-width: 1.0;" x1="300.5" x2="690" y1="241.3672" y2="241.3672"/><text fill="#000000" font-family="sans-serif" font-size="13" lengthAdjust="spacingAndGlyphs" textLength="296" x="307.5" y="236.5107">create (name: hostgr4,file: ./templates/device.yaml)</text><polygon fill="#A80036" points="684,267.7188,694,271.7188,684,275.7188,688,271.7188" style="stroke: #A80036; stroke-width: 1.0;"/><line style="stroke: #A80036; stroke-width: 1.0;" x1="300.5" x2="690" y1="271.7188" y2="271.7188"/><text fill="#000000" font-family="sans-serif" font-size="13" lengthAdjust="spacingAndGlyphs" textLength="296" x="307.5" y="266.8623">create (name: hostgr5,file: ./templates/device.yaml)</text><polygon fill="#A80036" points="684,298.0703,694,302.0703,684,306.0703,688,302.0703" style="stroke: #A80036; stroke-width: 1.0;"/><line style="stroke: #A80036; stroke-width: 1.0;" x1="300.5" x2="690" y1="302.0703" y2="302.0703"/><text fill="#000000" font-family="sans-serif" font-size="13" lengthAdjust="spacingAndGlyphs" textLength="296" x="307.5" y="297.2139">create (name: hostgr6,file: ./templates/device.yaml)</text><polygon fill="#A80036" points="858,328.4219,868,332.4219,858,336.4219,862,332.4219" style="stroke: #A80036; stroke-width: 1.0;"/><line style="stroke: #A80036; stroke-width: 1.0;" x1="300.5" x2="864" y1="332.4219" y2="332.4219"/><text fill="#000000" font-family="sans-serif" font-size="13" lengthAdjust="spacingAndGlyphs" textLength="120" x="307.5" y="327.5654">create (name: dcgr1)</text><polygon fill="#A80036" points="858,358.7734,868,362.7734,858,366.7734,862,362.7734" style="stroke: #A80036; stroke-width: 1.0;"/><line style="stroke: #A80036; stroke-width: 1.0;" x1="300.5" x2="864" y1="362.7734" y2="362.7734"/><text fill="#000000" font-family="sans-serif" font-size="13" lengthAdjust="spacingAndGlyphs" textLength="470" x="307.5" y="357.917">adddevices (name: dcgr1,items: hostgr1,hostgr2,hostgr3,hostgr4,hostgr5,hostgr6)</text><polygon fill="#A80036" points="1011,389.125,1021,393.125,1011,397.125,1015,393.125" style="stroke: #A80036; stroke-width: 1.0;"/><line style="stroke: #A80036; stroke-width: 1.0;" x1="300.5" x2="1017" y1="393.125" y2="393.125"/><text fill="#000000" font-family="sans-serif" font-size="13" lengthAdjust="spacingAndGlyphs" textLength="137" x="307.5" y="388.2686">create (name: cloudgr1)</text><polygon fill="#A80036" points="1011,419.4766,1021,423.4766,1011,427.4766,1015,423.4766" style="stroke: #A80036; stroke-width: 1.0;"/><line style="stroke: #A80036; stroke-width: 1.0;" x1="300.5" x2="1017" y1="423.4766" y2="423.4766"/><text fill="#000000" font-family="sans-serif" font-size="13" lengthAdjust="spacingAndGlyphs" textLength="266" x="307.5" y="418.6201">adddatacenters (name: cloudgr1,items: dcgr1)</text><polygon fill="#A80036" points="858,449.8281,868,453.8281,858,457.8281,862,453.8281" style="stroke: #A80036; stroke-width: 1.0;"/><line style="stroke: #A80036; stroke-width: 1.0;" x1="300.5" x2="864" y1="453.8281" y2="453.8281"/><text fill="#000000" font-family="sans-serif" font-size="13" lengthAdjust="spacingAndGlyphs" textLength="125" x="307.5" y="448.9717">disable (name: dcgr1)</text><polygon fill="#A80036" points="1169,480.1797,1179,484.1797,1169,488.1797,1173,484.1797" style="stroke: #A80036; stroke-width: 1.0;"/><line style="stroke: #A80036; stroke-width: 1.0;" x1="300.5" x2="1175" y1="484.1797" y2="484.1797"/><text fill="#000000" font-family="sans-serif" font-size="13" lengthAdjust="spacingAndGlyphs" textLength="466" x="307.5" y="479.3232">get (name: myRes,cloud: cloudgr1,requirements: ./templates/requirements.yaml)</text><polygon fill="#A80036" points="1169,510.5313,1179,514.5313,1169,518.5313,1173,514.5313" style="stroke: #A80036; stroke-width: 1.0;"/><line style="stroke: #A80036; stroke-width: 1.0;" x1="300.5" x2="1175" y1="514.5313" y2="514.5313"/><text fill="#000000" font-family="sans-serif" font-size="13" lengthAdjust="spacingAndGlyphs" textLength="480" x="307.5" y="509.6748">get (name: myRes2,cloud: cloudgr1,requirements: ./templates/requirements2.yaml)</text><polygon fill="#A80036" points="1169,540.8828,1179,544.8828,1169,548.8828,1173,544.8828" style="stroke: #A80036; stroke-width: 1.0;"/><line style="stroke: #A80036; stroke-width: 1.0;" x1="300.5" x2="1175" y1="544.8828" y2="544.8828"/><text fill="#000000" font-family="sans-serif" font-size="13" lengthAdjust="spacingAndGlyphs" textLength="480" x="307.5" y="540.0264">get (name: myRes3,cloud: cloudgr1,requirements: ./templates/requirements3.yaml)</text><polygon fill="#A80036" points="1169,571.2344,1179,575.2344,1169,579.2344,1173,575.2344" style="stroke: #A80036; stroke-width: 1.0;"/><line style="stroke: #A80036; stroke-width: 1.0;" x1="300.5" x2="1175" y1="575.2344" y2="575.2344"/><text fill="#000000" font-family="sans-serif" font-size="13" lengthAdjust="spacingAndGlyphs" textLength="473" x="307.5" y="570.3779">get (name: myRes4,cloud: cloudgr1,requirements: ./templates/requirements.yaml)</text><polygon fill="#A80036" points="1303,601.5859,1313,605.5859,1303,605.5859" style="stroke: #A80036; stroke-width: 1.0;"/><line style="stroke: #A80036; stroke-width: 1.0;" x1="143" x2="1314" y1="605.5859" y2="605.5859"/><text fill="#000000" font-family="sans-serif" font-size="13" lengthAdjust="spacingAndGlyphs" textLength="51" x="150" y="600.7295">method()</text><polygon fill="#A80036" points="154,636.9375,144,636.9375,154,640.9375" style="stroke: #A80036; stroke-width: 1.0;"/><line style="stroke: #A80036; stroke-width: 1.0; stroke-dasharray: 2.0,2.0;" x1="143" x2="1314" y1="635.9375" y2="635.9375"/><text fill="#000000" font-family="sans-serif" font-size="13" lengthAdjust="spacingAndGlyphs" textLength="78" x="160" y="631.0811">Model.Event2</text><polygon fill="#A80036" points="288.5,667.2891,298.5,667.2891,288.5,671.2891" style="stroke: #A80036; stroke-width: 1.0;"/><line style="stroke: #A80036; stroke-width: 1.0; stroke-dasharray: 2.0,2.0;" x1="143" x2="299.5" y1="666.2891" y2="666.2891"/><text fill="#000000" font-family="sans-serif" font-size="13" lengthAdjust="spacingAndGlyphs" textLength="58" x="150" y="661.4326">method2()</text><!--
@startuml

actor "IT Operations"


entity EventBus

box Software Defined Infrastructure #lightyellow
    boundary sdi #white
end box


box Common Physical Layer #lightgray
            participant device
            participant datacenter
    end box

box Software Defined Infrastructure #lightyellow
            participant cloud
    end box


"IT Operations" -> sdi: Get Resources

    sdi -> "device": create (name: hostgr1,file: ./templates/device.yaml)


    sdi -> "device": create (name: hostgr2,file: ./templates/device.yaml)


    sdi -> "device": create (name: hostgr3,file: ./templates/device.yaml)


    sdi -> "device": create (name: hostgr4,file: ./templates/device.yaml)


    sdi -> "device": create (name: hostgr5,file: ./templates/device.yaml)


    sdi -> "device": create (name: hostgr6,file: ./templates/device.yaml)


    sdi -> "datacenter": create (name: dcgr1)


    sdi -> "datacenter": adddevices (name: dcgr1,items: hostgr1,hostgr2,hostgr3,hostgr4,hostgr5,hostgr6)


    sdi -> "cloud": create (name: cloudgr1)


    sdi -> "cloud": adddatacenters (name: cloudgr1,items: dcgr1)


    sdi -> "datacenter": disable (name: dcgr1)


    sdi -> "sdi/resource": get (name: myRes,cloud: cloudgr1,requirements: ./templates/requirements.yaml)


    sdi -> "sdi/resource": get (name: myRes2,cloud: cloudgr1,requirements: ./templates/requirements2.yaml)


    sdi -> "sdi/resource": get (name: myRes3,cloud: cloudgr1,requirements: ./templates/requirements3.yaml)


    sdi -> "sdi/resource": get (name: myRes4,cloud: cloudgr1,requirements: ./templates/requirements.yaml)




box "Common Physical Layer" #lightgray
    boundary cpl #white
end box
EventBus -\ cpl: method()
cpl - -/ EventBus: Model.Event2

EventBus - -/ sdi : method2()
@enduml

PlantUML version 1.2019.05(Sat Apr 20 09:45:36 PDT 2019)
(GPL source distribution)
Java Runtime: OpenJDK Runtime Environment
JVM: OpenJDK 64-Bit Server VM
Java Version: 12.0.1+12
Operating System: Windows 10
OS Version: 10.0
Default Encoding: Cp1252
Language: en
Country: US
--></g></svg>