<?xml version="1.0" encoding="UTF-8" standalone="no"?><svg xmlns="http://www.w3.org/2000/svg" xmlns:xlink="http://www.w3.org/1999/xlink" contentScriptType="application/ecmascript" contentStyleType="text/css" height="182px" preserveAspectRatio="none" style="width:256px;height:182px;" version="1.1" viewBox="0 0 256 182" width="256px" zoomAndPan="magnify"><defs><filter height="300%" id="f1bsymkpu5dn1p" width="300%" x="-1" y="-1"><feGaussianBlur result="blurOut" stdDeviation="2.0"/><feColorMatrix in="blurOut" result="blurOut2" type="matrix" values="0 0 0 0 0 0 0 0 0 0 0 0 0 0 0 0 0 0 .4 0"/><feOffset dx="4.0" dy="4.0" in="blurOut2" result="blurOut3"/><feBlend in="SourceGraphic" in2="blurOut3" mode="normal"/></filter></defs><g><!--cluster Infrastructure Orchestrator--><polygon fill="#FFFFE0" filter="url(#f1bsymkpu5dn1p)" points="22,42,219,42,226,65.6094,234,65.6094,234,170,22,170,22,42" style="stroke: #000000; stroke-width: 1.5;"/><line style="stroke: #000000; stroke-width: 1.5;" x1="22" x2="226" y1="65.6094" y2="65.6094"/><text fill="#000000" font-family="sans-serif" font-size="14" font-weight="bold" lengthAdjust="spacingAndGlyphs" textLength="191" x="26" y="58.5332">Infrastructure Orchestrator</text><!--class i--><rect fill="#FEFECE" filter="url(#f1bsymkpu5dn1p)" height="75.6719" id="i" style="stroke: #A80036; stroke-width: 1.5;" width="180" x="38" y="78"/><ellipse cx="55.7" cy="94" fill="#B4A7E5" rx="11" ry="11" style="stroke: #A80036; stroke-width: 1.0;"/><path d="M56.6531,90.6406 L56.6531,97.2969 L58.3719,97.2969 Q58.9813,97.2969 59.2469,97.5313 Q59.5125,97.7656 59.5125,98.1563 Q59.5125,98.5313 59.2469,98.7656 Q58.9813,99 58.3719,99 L53.2313,99 Q52.6219,99 52.3563,98.7656 Q52.0906,98.5313 52.0906,98.1406 Q52.0906,97.7656 52.3563,97.5313 Q52.6219,97.2969 53.2313,97.2969 L54.95,97.2969 L54.95,90.6406 L53.2313,90.6406 Q52.6219,90.6406 52.3563,90.4063 Q52.0906,90.1719 52.0906,89.7813 Q52.0906,89.4063 52.3563,89.1719 Q52.6219,88.9375 53.2313,88.9375 L58.3719,88.9375 Q58.9813,88.9375 59.2469,89.1719 Q59.5125,89.4063 59.5125,89.7813 Q59.5125,90.1719 59.2469,90.4063 Q58.9813,90.6406 58.3719,90.6406 L56.6531,90.6406 Z "/><text fill="#000000" font-family="sans-serif" font-size="12" font-style="italic" lengthAdjust="spacingAndGlyphs" textLength="142" x="70.3" y="98.9102">Infrastructure Orchestrator</text><line style="stroke: #A80036; stroke-width: 1.5;" x1="39" x2="217" y1="110" y2="110"/><line style="stroke: #A80036; stroke-width: 1.5;" x1="39" x2="217" y1="118" y2="118"/><text fill="#000000" font-family="sans-serif" font-size="11" lengthAdjust="spacingAndGlyphs" textLength="168" x="44" y="133.4189">/edgemere/sdi/io/evaluaterequest()</text><text fill="#000000" font-family="sans-serif" font-size="11" lengthAdjust="spacingAndGlyphs" textLength="134" x="44" y="147.2549">/edgemere/sdi/io/provision()</text><ellipse cx="83" cy="13" fill="#FEFECE" filter="url(#f1bsymkpu5dn1p)" rx="5" ry="5" style="stroke: #A80036; stroke-width: 1.5;"/><text fill="#000000" font-family="sans-serif" font-size="12" lengthAdjust="spacingAndGlyphs" textLength="19" x="73.5" y="30.457">CLI</text><ellipse cx="128" cy="13" fill="#FEFECE" filter="url(#f1bsymkpu5dn1p)" rx="5" ry="5" style="stroke: #A80036; stroke-width: 1.5;"/><text fill="#000000" font-family="sans-serif" font-size="12" lengthAdjust="spacingAndGlyphs" textLength="32" x="112" y="30.457">REST</text><ellipse cx="173" cy="13" fill="#FEFECE" filter="url(#f1bsymkpu5dn1p)" rx="5" ry="5" style="stroke: #A80036; stroke-width: 1.5;"/><text fill="#000000" font-family="sans-serif" font-size="12" lengthAdjust="spacingAndGlyphs" textLength="25" x="160.5" y="30.457">Web</text><!--link ilol8524 to i--><path d="M84.7091,17.836 C89.108,27.709 101.1969,54.842 111.485,77.934 " fill="none" id="ilol8524-i" style="stroke: #A80036; stroke-width: 1.0;"/><!--link ilol8527 to i--><path d="M128,18.34 C128,28.61 128,55.248 128,77.965 " fill="none" id="ilol8527-i" style="stroke: #A80036; stroke-width: 1.0;"/><!--link ilol8530 to i--><path d="M171.291,17.836 C166.892,27.709 154.803,54.842 144.515,77.934 " fill="none" id="ilol8530-i" style="stroke: #A80036; stroke-width: 1.0;"/><!--
@startuml



package "Infrastructure Orchestrator" #lightyellow {

    interface "Infrastructure Orchestrator" as i {
            /edgemere/sdi/io/evaluaterequest()
            /edgemere/sdi/io/provision()
    
    }
}

CLI ()- - i
REST ()- - i
Web ()- - i

package "Infrastructure Orchestrator" #lightyellow {


}



@enduml

PlantUML version 1.2019.05(Sat Apr 20 09:45:36 PDT 2019)
(GPL source distribution)
Java Runtime: OpenJDK Runtime Environment
JVM: OpenJDK 64-Bit Server VM
Java Version: 12.0.1+12
Operating System: Windows 10
OS Version: 10.0
Default Encoding: Cp1252
Language: en
Country: US
--></g></svg>