<?xml version="1.0" encoding="UTF-8" standalone="no"?><svg xmlns="http://www.w3.org/2000/svg" xmlns:xlink="http://www.w3.org/1999/xlink" contentScriptType="application/ecmascript" contentStyleType="text/css" height="358px" preserveAspectRatio="none" style="width:515px;height:358px;" version="1.1" viewBox="0 0 515 358" width="515px" zoomAndPan="magnify"><defs><filter height="300%" id="f1g0hsh6p2y5dm" width="300%" x="-1" y="-1"><feGaussianBlur result="blurOut" stdDeviation="2.0"/><feColorMatrix in="blurOut" result="blurOut2" type="matrix" values="0 0 0 0 0 0 0 0 0 0 0 0 0 0 0 0 0 0 .4 0"/><feOffset dx="4.0" dy="4.0" in="blurOut2" result="blurOut3"/><feBlend in="SourceGraphic" in2="blurOut3" mode="normal"/></filter></defs><g><!--cluster Identity Aspect--><polygon fill="#FFC0CB" filter="url(#f1g0hsh6p2y5dm)" points="22,65,132,65,139,88.6094,493,88.6094,493,346,22,346,22,65" style="stroke: #000000; stroke-width: 1.5;"/><line style="stroke: #000000; stroke-width: 1.5;" x1="22" x2="139" y1="88.6094" y2="88.6094"/><text fill="#000000" font-family="sans-serif" font-size="14" font-weight="bold" lengthAdjust="spacingAndGlyphs" textLength="104" x="26" y="81.5332">Identity Aspect</text><!--class i--><rect fill="#FEFECE" filter="url(#f1g0hsh6p2y5dm)" height="48" id="i" style="stroke: #A80036; stroke-width: 1.5;" width="112" x="365" y="128.5"/><ellipse cx="380" cy="144.5" fill="#B4A7E5" rx="11" ry="11" style="stroke: #A80036; stroke-width: 1.0;"/><path d="M380.9531,141.1406 L380.9531,147.7969 L382.6719,147.7969 Q383.2813,147.7969 383.5469,148.0313 Q383.8125,148.2656 383.8125,148.6563 Q383.8125,149.0313 383.5469,149.2656 Q383.2813,149.5 382.6719,149.5 L377.5313,149.5 Q376.9219,149.5 376.6563,149.2656 Q376.3906,149.0313 376.3906,148.6406 Q376.3906,148.2656 376.6563,148.0313 Q376.9219,147.7969 377.5313,147.7969 L379.25,147.7969 L379.25,141.1406 L377.5313,141.1406 Q376.9219,141.1406 376.6563,140.9063 Q376.3906,140.6719 376.3906,140.2813 Q376.3906,139.9063 376.6563,139.6719 Q376.9219,139.4375 377.5313,139.4375 L382.6719,139.4375 Q383.2813,139.4375 383.5469,139.6719 Q383.8125,139.9063 383.8125,140.2813 Q383.8125,140.6719 383.5469,140.9063 Q383.2813,141.1406 382.6719,141.1406 L380.9531,141.1406 Z "/><text fill="#000000" font-family="sans-serif" font-size="12" font-style="italic" lengthAdjust="spacingAndGlyphs" textLength="80" x="394" y="149.4102">Identity Aspect</text><line style="stroke: #A80036; stroke-width: 1.5;" x1="366" x2="476" y1="160.5" y2="160.5"/><line style="stroke: #A80036; stroke-width: 1.5;" x1="366" x2="476" y1="168.5" y2="168.5"/><!--class Group--><rect fill="#FEFECE" filter="url(#f1g0hsh6p2y5dm)" height="61.8359" id="Group" style="stroke: #A80036; stroke-width: 1.5;" width="66" x="264" y="121.5"/><ellipse cx="279" cy="137.5" fill="#ADD1B2" rx="11" ry="11" style="stroke: #A80036; stroke-width: 1.0;"/><path d="M281.7656,133.375 Q281.9219,133.1563 282.1094,133.0469 Q282.2969,132.9375 282.5156,132.9375 Q282.8906,132.9375 283.125,133.2031 Q283.3594,133.4531 283.3594,134.0625 L283.3594,135.5156 Q283.3594,136.125 283.125,136.3906 Q282.8906,136.6563 282.5156,136.6563 Q282.1719,136.6563 281.9688,136.4531 Q281.7656,136.2656 281.6563,135.75 Q281.6094,135.3906 281.4219,135.2031 Q281.0938,134.8281 280.4844,134.6094 Q279.875,134.3906 279.25,134.3906 Q278.4844,134.3906 277.8438,134.7188 Q277.2188,135.0469 276.7188,135.7969 Q276.2344,136.5469 276.2344,137.5781 L276.2344,138.6719 Q276.2344,139.9063 277.125,140.7344 Q278.0156,141.5469 279.6094,141.5469 Q280.5469,141.5469 281.2031,141.2969 Q281.5938,141.1406 282.0156,140.7031 Q282.2813,140.4375 282.4219,140.3594 Q282.5781,140.2813 282.7813,140.2813 Q283.1094,140.2813 283.3594,140.5469 Q283.625,140.7969 283.625,141.1406 Q283.625,141.4844 283.2813,141.8906 Q282.7813,142.4688 281.9844,142.7969 Q280.9063,143.25 279.6094,143.25 Q278.0938,143.25 276.8906,142.625 Q275.9063,142.125 275.2188,141.0625 Q274.5313,139.9844 274.5313,138.7031 L274.5313,137.5469 Q274.5313,136.2188 275.1406,135.0781 Q275.7656,133.9219 276.8594,133.3125 Q277.9531,132.6875 279.1875,132.6875 Q279.9219,132.6875 280.5625,132.8594 Q281.2188,133.0156 281.7656,133.375 Z "/><text fill="#000000" font-family="sans-serif" font-size="12" lengthAdjust="spacingAndGlyphs" textLength="34" x="293" y="142.4102">Group</text><line style="stroke: #A80036; stroke-width: 1.5;" x1="265" x2="329" y1="153.5" y2="153.5"/><text fill="#000000" font-family="sans-serif" font-size="11" lengthAdjust="spacingAndGlyphs" textLength="52" x="270" y="168.9189">string attr1</text><line style="stroke: #A80036; stroke-width: 1.5;" x1="265" x2="329" y1="175.3359" y2="175.3359"/><!--class ModelName--><rect fill="#FEFECE" filter="url(#f1g0hsh6p2y5dm)" height="48" id="ModelName" style="stroke: #A80036; stroke-width: 1.5;" width="99" x="109.5" y="282"/><ellipse cx="124.5" cy="298" fill="#ADD1B2" rx="11" ry="11" style="stroke: #A80036; stroke-width: 1.0;"/><path d="M127.2656,293.875 Q127.4219,293.6563 127.6094,293.5469 Q127.7969,293.4375 128.0156,293.4375 Q128.3906,293.4375 128.625,293.7031 Q128.8594,293.9531 128.8594,294.5625 L128.8594,296.0156 Q128.8594,296.625 128.625,296.8906 Q128.3906,297.1563 128.0156,297.1563 Q127.6719,297.1563 127.4688,296.9531 Q127.2656,296.7656 127.1563,296.25 Q127.1094,295.8906 126.9219,295.7031 Q126.5938,295.3281 125.9844,295.1094 Q125.375,294.8906 124.75,294.8906 Q123.9844,294.8906 123.3438,295.2188 Q122.7188,295.5469 122.2188,296.2969 Q121.7344,297.0469 121.7344,298.0781 L121.7344,299.1719 Q121.7344,300.4063 122.625,301.2344 Q123.5156,302.0469 125.1094,302.0469 Q126.0469,302.0469 126.7031,301.7969 Q127.0938,301.6406 127.5156,301.2031 Q127.7813,300.9375 127.9219,300.8594 Q128.0781,300.7813 128.2813,300.7813 Q128.6094,300.7813 128.8594,301.0469 Q129.125,301.2969 129.125,301.6406 Q129.125,301.9844 128.7813,302.3906 Q128.2813,302.9688 127.4844,303.2969 Q126.4063,303.75 125.1094,303.75 Q123.5938,303.75 122.3906,303.125 Q121.4063,302.625 120.7188,301.5625 Q120.0313,300.4844 120.0313,299.2031 L120.0313,298.0469 Q120.0313,296.7188 120.6406,295.5781 Q121.2656,294.4219 122.3594,293.8125 Q123.4531,293.1875 124.6875,293.1875 Q125.4219,293.1875 126.0625,293.3594 Q126.7188,293.5156 127.2656,293.875 Z "/><text fill="#000000" font-family="sans-serif" font-size="12" lengthAdjust="spacingAndGlyphs" textLength="67" x="138.5" y="302.9102">ModelName</text><line style="stroke: #A80036; stroke-width: 1.5;" x1="110.5" x2="207.5" y1="314" y2="314"/><line style="stroke: #A80036; stroke-width: 1.5;" x1="110.5" x2="207.5" y1="322" y2="322"/><!--class Identity--><rect fill="#FEFECE" filter="url(#f1g0hsh6p2y5dm)" height="103.3438" id="Identity" style="stroke: #A80036; stroke-width: 1.5;" width="92" x="137" y="101"/><ellipse cx="161.9" cy="117" fill="#ADD1B2" rx="11" ry="11" style="stroke: #A80036; stroke-width: 1.0;"/><path d="M164.6656,112.875 Q164.8219,112.6563 165.0094,112.5469 Q165.1969,112.4375 165.4156,112.4375 Q165.7906,112.4375 166.025,112.7031 Q166.2594,112.9531 166.2594,113.5625 L166.2594,115.0156 Q166.2594,115.625 166.025,115.8906 Q165.7906,116.1563 165.4156,116.1563 Q165.0719,116.1563 164.8688,115.9531 Q164.6656,115.7656 164.5563,115.25 Q164.5094,114.8906 164.3219,114.7031 Q163.9938,114.3281 163.3844,114.1094 Q162.775,113.8906 162.15,113.8906 Q161.3844,113.8906 160.7438,114.2188 Q160.1188,114.5469 159.6188,115.2969 Q159.1344,116.0469 159.1344,117.0781 L159.1344,118.1719 Q159.1344,119.4063 160.025,120.2344 Q160.9156,121.0469 162.5094,121.0469 Q163.4469,121.0469 164.1031,120.7969 Q164.4938,120.6406 164.9156,120.2031 Q165.1813,119.9375 165.3219,119.8594 Q165.4781,119.7813 165.6813,119.7813 Q166.0094,119.7813 166.2594,120.0469 Q166.525,120.2969 166.525,120.6406 Q166.525,120.9844 166.1813,121.3906 Q165.6813,121.9688 164.8844,122.2969 Q163.8063,122.75 162.5094,122.75 Q160.9938,122.75 159.7906,122.125 Q158.8063,121.625 158.1188,120.5625 Q157.4313,119.4844 157.4313,118.2031 L157.4313,117.0469 Q157.4313,115.7188 158.0406,114.5781 Q158.6656,113.4219 159.7594,112.8125 Q160.8531,112.1875 162.0875,112.1875 Q162.8219,112.1875 163.4625,112.3594 Q164.1188,112.5156 164.6656,112.875 Z "/><text fill="#000000" font-family="sans-serif" font-size="12" lengthAdjust="spacingAndGlyphs" textLength="38" x="178.1" y="121.9102">Identity</text><line style="stroke: #A80036; stroke-width: 1.5;" x1="138" x2="228" y1="133" y2="133"/><text fill="#000000" font-family="sans-serif" font-size="11" lengthAdjust="spacingAndGlyphs" textLength="56" x="143" y="148.4189">string name</text><text fill="#000000" font-family="sans-serif" font-size="11" lengthAdjust="spacingAndGlyphs" textLength="78" x="143" y="162.2549">string username</text><text fill="#000000" font-family="sans-serif" font-size="11" lengthAdjust="spacingAndGlyphs" textLength="80" x="143" y="176.0908">string password</text><text fill="#000000" font-family="sans-serif" font-size="11" lengthAdjust="spacingAndGlyphs" textLength="49" x="143" y="189.9268">string cert</text><line style="stroke: #A80036; stroke-width: 1.5;" x1="138" x2="228" y1="196.3438" y2="196.3438"/><!--class User--><rect fill="#FEFECE" filter="url(#f1g0hsh6p2y5dm)" height="61.8359" id="User" style="stroke: #A80036; stroke-width: 1.5;" width="64" x="38" y="121.5"/><ellipse cx="55.25" cy="137.5" fill="#ADD1B2" rx="11" ry="11" style="stroke: #A80036; stroke-width: 1.0;"/><path d="M58.0156,133.375 Q58.1719,133.1563 58.3594,133.0469 Q58.5469,132.9375 58.7656,132.9375 Q59.1406,132.9375 59.375,133.2031 Q59.6094,133.4531 59.6094,134.0625 L59.6094,135.5156 Q59.6094,136.125 59.375,136.3906 Q59.1406,136.6563 58.7656,136.6563 Q58.4219,136.6563 58.2188,136.4531 Q58.0156,136.2656 57.9063,135.75 Q57.8594,135.3906 57.6719,135.2031 Q57.3438,134.8281 56.7344,134.6094 Q56.125,134.3906 55.5,134.3906 Q54.7344,134.3906 54.0938,134.7188 Q53.4688,135.0469 52.9688,135.7969 Q52.4844,136.5469 52.4844,137.5781 L52.4844,138.6719 Q52.4844,139.9063 53.375,140.7344 Q54.2656,141.5469 55.8594,141.5469 Q56.7969,141.5469 57.4531,141.2969 Q57.8438,141.1406 58.2656,140.7031 Q58.5313,140.4375 58.6719,140.3594 Q58.8281,140.2813 59.0313,140.2813 Q59.3594,140.2813 59.6094,140.5469 Q59.875,140.7969 59.875,141.1406 Q59.875,141.4844 59.5313,141.8906 Q59.0313,142.4688 58.2344,142.7969 Q57.1563,143.25 55.8594,143.25 Q54.3438,143.25 53.1406,142.625 Q52.1563,142.125 51.4688,141.0625 Q50.7813,139.9844 50.7813,138.7031 L50.7813,137.5469 Q50.7813,136.2188 51.3906,135.0781 Q52.0156,133.9219 53.1094,133.3125 Q54.2031,132.6875 55.4375,132.6875 Q56.1719,132.6875 56.8125,132.8594 Q57.4688,133.0156 58.0156,133.375 Z "/><text fill="#000000" font-family="sans-serif" font-size="12" lengthAdjust="spacingAndGlyphs" textLength="27" x="69.75" y="142.4102">User</text><line style="stroke: #A80036; stroke-width: 1.5;" x1="39" x2="101" y1="153.5" y2="153.5"/><text fill="#000000" font-family="sans-serif" font-size="11" lengthAdjust="spacingAndGlyphs" textLength="52" x="44" y="168.9189">string attr1</text><line style="stroke: #A80036; stroke-width: 1.5;" x1="39" x2="101" y1="175.3359" y2="175.3359"/><ellipse cx="376" cy="13" fill="#FEFECE" filter="url(#f1g0hsh6p2y5dm)" rx="5" ry="5" style="stroke: #A80036; stroke-width: 1.5;"/><text fill="#000000" font-family="sans-serif" font-size="12" lengthAdjust="spacingAndGlyphs" textLength="19" x="366.5" y="30.457">CLI</text><ellipse cx="421" cy="13" fill="#FEFECE" filter="url(#f1g0hsh6p2y5dm)" rx="5" ry="5" style="stroke: #A80036; stroke-width: 1.5;"/><text fill="#000000" font-family="sans-serif" font-size="12" lengthAdjust="spacingAndGlyphs" textLength="32" x="405" y="30.457">REST</text><ellipse cx="466" cy="13" fill="#FEFECE" filter="url(#f1g0hsh6p2y5dm)" rx="5" ry="5" style="stroke: #A80036; stroke-width: 1.5;"/><text fill="#000000" font-family="sans-serif" font-size="12" lengthAdjust="spacingAndGlyphs" textLength="25" x="453.5" y="30.457">Web</text><!--link ilol7726 to i--><path d="M377.298,17.967 C382.544,33.995 402.419,94.725 413.471,128.495 " fill="none" id="ilol7726-i" style="stroke: #A80036; stroke-width: 1.0;"/><!--link ilol7729 to i--><path d="M421,18.266 C421,34.72 421,94.814 421,128.397 " fill="none" id="ilol7729-i" style="stroke: #A80036; stroke-width: 1.0;"/><!--link ilol7732 to i--><path d="M464.702,17.967 C459.456,33.995 439.581,94.725 428.529,128.495 " fill="none" id="ilol7732-i" style="stroke: #A80036; stroke-width: 1.0;"/><!--link Group to ModelName--><path d="M260.365,193.718 C238.085,218.179 209.983,249.03 189.022,272.0406 " fill="none" id="Group-ModelName" style="stroke: #A80036; stroke-width: 1.0;"/><polygon fill="#A80036" points="180.228,281.6951,189.2459,277.7355,183.5951,277.9988,183.3318,272.3481,180.228,281.6951" style="stroke: #A80036; stroke-width: 1.0;"/><line style="stroke: #A80036; stroke-width: 1.0;" x1="183.5951" x2="188.9825" y1="277.9988" y2="272.0844"/><polygon fill="#FFFFFF" points="269.405,183.794,262.4076,185.5363,261.3245,192.6656,268.322,190.9233,269.405,183.794" style="stroke: #A80036; stroke-width: 1.0;"/><text fill="#000000" font-family="sans-serif" font-size="13" lengthAdjust="spacingAndGlyphs" textLength="42" x="221" y="248.4951">assoc1</text><text fill="#000000" font-family="sans-serif" font-size="13" lengthAdjust="spacingAndGlyphs" textLength="7" x="177.7708" y="270.9571">1</text><!--link User to ModelName--><path d="M94.4994,195.204 C108.378,218.829 125.534,248.033 138.663,270.3818 " fill="none" id="User-ModelName" style="stroke: #A80036; stroke-width: 1.0;"/><polygon fill="#A80036" points="145.309,281.6951,144.1996,271.9089,142.7765,277.3839,137.3016,275.9609,145.309,281.6951" style="stroke: #A80036; stroke-width: 1.0;"/><line style="stroke: #A80036; stroke-width: 1.0;" x1="142.7765" x2="138.7245" y1="277.3839" y2="270.4861"/><polygon fill="#FFFFFF" points="87.7966,183.794,87.3873,190.9935,93.8755,194.1404,94.2848,186.9409,87.7966,183.794" style="stroke: #A80036; stroke-width: 1.0;"/><text fill="#000000" font-family="sans-serif" font-size="13" lengthAdjust="spacingAndGlyphs" textLength="42" x="129" y="248.4951">assoc1</text><text fill="#000000" font-family="sans-serif" font-size="13" lengthAdjust="spacingAndGlyphs" textLength="7" x="133.9038" y="270.9571">1</text><!--
@startuml



package "Identity Aspect" #pink {

    interface "Identity Aspect" as i {
    
    }
}

CLI ()- - i
REST ()- - i
Web ()- - i

package "Identity Aspect" #pink {
        class "Group" {
                 string attr1
                    }
                Group o- -> "1" ModelName : assoc1
            
    
    class "Identity" {
                 string name
                 string username
                 string password
                 string cert
                    }
    
    
    class "User" {
                 string attr1
                    }
                User o- -> "1" ModelName : assoc1
            
    

}



@enduml

PlantUML version 1.2019.05(Sat Apr 20 09:45:36 PDT 2019)
(GPL source distribution)
Java Runtime: OpenJDK Runtime Environment
JVM: OpenJDK 64-Bit Server VM
Java Version: 12.0.1+12
Operating System: Windows 10
OS Version: 10.0
Default Encoding: Cp1252
Language: en
Country: US
--></g></svg>