<?xml version="1.0" encoding="UTF-8" standalone="no"?><svg xmlns="http://www.w3.org/2000/svg" xmlns:xlink="http://www.w3.org/1999/xlink" contentScriptType="application/ecmascript" contentStyleType="text/css" height="379px" preserveAspectRatio="none" style="width:1117px;height:379px;" version="1.1" viewBox="0 0 1117 379" width="1117px" zoomAndPan="magnify"><defs><filter height="300%" id="f1skwk2ee18jbd" width="300%" x="-1" y="-1"><feGaussianBlur result="blurOut" stdDeviation="2.0"/><feColorMatrix in="blurOut" result="blurOut2" type="matrix" values="0 0 0 0 0 0 0 0 0 0 0 0 0 0 0 0 0 0 .4 0"/><feOffset dx="4.0" dy="4.0" in="blurOut2" result="blurOut3"/><feBlend in="SourceGraphic" in2="blurOut3" mode="normal"/></filter></defs><g><!--cluster Common Physical Layer--><polygon fill="#D3D3D3" filter="url(#f1skwk2ee18jbd)" points="22,87,192,87,199,110.6094,1095,110.6094,1095,367,22,367,22,87" style="stroke: #000000; stroke-width: 1.5;"/><line style="stroke: #000000; stroke-width: 1.5;" x1="22" x2="199" y1="110.6094" y2="110.6094"/><text fill="#000000" font-family="sans-serif" font-size="14" font-weight="bold" lengthAdjust="spacingAndGlyphs" textLength="164" x="26" y="103.5332">Common Physical Layer</text><!--class i--><rect fill="#FEFECE" filter="url(#f1skwk2ee18jbd)" height="227.8672" id="i" style="stroke: #A80036; stroke-width: 1.5;" width="182" x="897" y="123"/><ellipse cx="918.75" cy="139" fill="#B4A7E5" rx="11" ry="11" style="stroke: #A80036; stroke-width: 1.0;"/><path d="M919.7031,135.6406 L919.7031,142.2969 L921.4219,142.2969 Q922.0313,142.2969 922.2969,142.5313 Q922.5625,142.7656 922.5625,143.1563 Q922.5625,143.5313 922.2969,143.7656 Q922.0313,144 921.4219,144 L916.2813,144 Q915.6719,144 915.4063,143.7656 Q915.1406,143.5313 915.1406,143.1406 Q915.1406,142.7656 915.4063,142.5313 Q915.6719,142.2969 916.2813,142.2969 L918,142.2969 L918,135.6406 L916.2813,135.6406 Q915.6719,135.6406 915.4063,135.4063 Q915.1406,135.1719 915.1406,134.7813 Q915.1406,134.4063 915.4063,134.1719 Q915.6719,133.9375 916.2813,133.9375 L921.4219,133.9375 Q922.0313,133.9375 922.2969,134.1719 Q922.5625,134.4063 922.5625,134.7813 Q922.5625,135.1719 922.2969,135.4063 Q922.0313,135.6406 921.4219,135.6406 L919.7031,135.6406 Z "/><text fill="#000000" font-family="sans-serif" font-size="12" font-style="italic" lengthAdjust="spacingAndGlyphs" textLength="135" x="934.25" y="143.9102">Common Physical Layer</text><line style="stroke: #A80036; stroke-width: 1.5;" x1="898" x2="1078" y1="155" y2="155"/><line style="stroke: #A80036; stroke-width: 1.5;" x1="898" x2="1078" y1="163" y2="163"/><text fill="#000000" font-family="sans-serif" font-size="11" lengthAdjust="spacingAndGlyphs" textLength="135" x="903" y="178.4189">/edgemere/cpl/adddevices()</text><text fill="#000000" font-family="sans-serif" font-size="11" lengthAdjust="spacingAndGlyphs" textLength="123" x="903" y="192.2549">/edgemere/cpl/provision()</text><text fill="#000000" font-family="sans-serif" font-size="11" lengthAdjust="spacingAndGlyphs" textLength="117" x="903" y="206.0908">/edgemere/cpl/reserve()</text><text fill="#000000" font-family="sans-serif" font-size="11" lengthAdjust="spacingAndGlyphs" textLength="137" x="903" y="219.9268">/edgemere/cpl/data/govern()</text><text fill="#000000" font-family="sans-serif" font-size="11" lengthAdjust="spacingAndGlyphs" textLength="137" x="903" y="233.7627">/edgemere/cpl/data/source()</text><text fill="#000000" font-family="sans-serif" font-size="11" lengthAdjust="spacingAndGlyphs" textLength="165" x="903" y="247.5986">/edgemere/cpl/datacenter/create()</text><text fill="#000000" font-family="sans-serif" font-size="11" lengthAdjust="spacingAndGlyphs" textLength="168" x="903" y="261.4346">/edgemere/cpl/datacenter/disable()</text><text fill="#000000" font-family="sans-serif" font-size="11" lengthAdjust="spacingAndGlyphs" textLength="166" x="903" y="275.2705">/edgemere/cpl/datacenter/enable()</text><text fill="#000000" font-family="sans-serif" font-size="11" lengthAdjust="spacingAndGlyphs" textLength="147" x="903" y="289.1064">/edgemere/cpl/datacenter/list()</text><text fill="#000000" font-family="sans-serif" font-size="11" lengthAdjust="spacingAndGlyphs" textLength="170" x="903" y="302.9424">/edgemere/cpl/datacenter/remove()</text><text fill="#000000" font-family="sans-serif" font-size="11" lengthAdjust="spacingAndGlyphs" textLength="167" x="903" y="316.7783">/edgemere/cpl/datacenter/update()</text><text fill="#000000" font-family="sans-serif" font-size="11" lengthAdjust="spacingAndGlyphs" textLength="148" x="903" y="330.6143">/edgemere/cpl/device/disable()</text><text fill="#000000" font-family="sans-serif" font-size="11" lengthAdjust="spacingAndGlyphs" textLength="146" x="903" y="344.4502">/edgemere/cpl/device/enable()</text><!--entity Device Agent--><rect fill="#FFFFFF" filter="url(#f1skwk2ee18jbd)" height="37.6094" style="stroke: #000000; stroke-width: 1.5;" width="104" x="758" y="218"/><text fill="#000000" font-family="sans-serif" font-size="14" lengthAdjust="spacingAndGlyphs" textLength="84" x="768" y="242.5332">Device Agent</text><!--entity Device Manager--><rect fill="#FFFFFF" filter="url(#f1skwk2ee18jbd)" height="37.6094" style="stroke: #000000; stroke-width: 1.5;" width="123" x="599.5" y="218"/><text fill="#000000" font-family="sans-serif" font-size="14" lengthAdjust="spacingAndGlyphs" textLength="103" x="609.5" y="242.5332">Device Manager</text><!--entity Telemetry Aggregator--><rect fill="#FFFFFF" filter="url(#f1skwk2ee18jbd)" height="37.6094" style="stroke: #000000; stroke-width: 1.5;" width="158" x="406" y="218"/><text fill="#000000" font-family="sans-serif" font-size="14" lengthAdjust="spacingAndGlyphs" textLength="138" x="416" y="242.5332">Telemetry Aggregator</text><!--entity Telemetry Consumer--><rect fill="#FFFFFF" filter="url(#f1skwk2ee18jbd)" height="37.6094" style="stroke: #000000; stroke-width: 1.5;" width="152" x="219" y="218"/><text fill="#000000" font-family="sans-serif" font-size="14" lengthAdjust="spacingAndGlyphs" textLength="132" x="229" y="242.5332">Telemetry Consumer</text><!--entity Telemetry Producer--><rect fill="#FFFFFF" filter="url(#f1skwk2ee18jbd)" height="37.6094" style="stroke: #000000; stroke-width: 1.5;" width="145" x="38.5" y="218"/><text fill="#000000" font-family="sans-serif" font-size="14" lengthAdjust="spacingAndGlyphs" textLength="125" x="48.5" y="242.5332">Telemetry Producer</text><polygon fill="#FFFFE0" filter="url(#f1skwk2ee18jbd)" points="661,8,889,8,896,31.6094,903,31.6094,903,63.2188,661,63.2188,661,8" style="stroke: #000000; stroke-width: 1.5;"/><line style="stroke: #000000; stroke-width: 1.5;" x1="661" x2="896" y1="31.6094" y2="31.6094"/><text fill="#000000" font-family="sans-serif" font-size="14" font-weight="bold" lengthAdjust="spacingAndGlyphs" textLength="222" x="665" y="24.5332">Software Defined Infrastructure</text><ellipse cx="943" cy="35.5" fill="#FEFECE" filter="url(#f1skwk2ee18jbd)" rx="5" ry="5" style="stroke: #A80036; stroke-width: 1.5;"/><text fill="#000000" font-family="sans-serif" font-size="12" lengthAdjust="spacingAndGlyphs" textLength="19" x="933.5" y="52.957">CLI</text><ellipse cx="988" cy="35.5" fill="#FEFECE" filter="url(#f1skwk2ee18jbd)" rx="5" ry="5" style="stroke: #A80036; stroke-width: 1.5;"/><text fill="#000000" font-family="sans-serif" font-size="12" lengthAdjust="spacingAndGlyphs" textLength="32" x="972" y="52.957">REST</text><ellipse cx="1033" cy="35.5" fill="#FEFECE" filter="url(#f1skwk2ee18jbd)" rx="5" ry="5" style="stroke: #A80036; stroke-width: 1.5;"/><text fill="#000000" font-family="sans-serif" font-size="12" lengthAdjust="spacingAndGlyphs" textLength="25" x="1020.5" y="52.957">Web</text><!--link ilol2309 to i--><path d="M943.94,40.667 C946.553,52.249 954.254,86.395 962.504,122.966 " fill="none" id="ilol2309-i" style="stroke: #A80036; stroke-width: 1.0;"/><!--link ilol2312 to i--><path d="M988,40.667 C988,52.249 988,86.395 988,122.966 " fill="none" id="ilol2312-i" style="stroke: #A80036; stroke-width: 1.0;"/><!--link ilol2315 to i--><path d="M1032.06,40.667 C1029.45,52.249 1021.75,86.395 1013.5,122.966 " fill="none" id="ilol2315-i" style="stroke: #A80036; stroke-width: 1.0;"/><!--
@startuml


package "Common Physical Layer" #lightgray {

}

package "Software Defined Infrastructure" #lightyellow {

}


package "Common Physical Layer" #lightgray {

    interface "Common Physical Layer" as i {
            /edgemere/cpl/adddevices()
            /edgemere/cpl/provision()
            /edgemere/cpl/reserve()
            /edgemere/cpl/data/govern()
            /edgemere/cpl/data/source()
            /edgemere/cpl/datacenter/create()
            /edgemere/cpl/datacenter/disable()
            /edgemere/cpl/datacenter/enable()
            /edgemere/cpl/datacenter/list()
            /edgemere/cpl/datacenter/remove()
            /edgemere/cpl/datacenter/update()
            /edgemere/cpl/device/disable()
            /edgemere/cpl/device/enable()
    
    }
}

CLI ()- - i
REST ()- - i
Web ()- - i

package "Common Physical Layer" #lightgray {


rectangle "Device Agent" #white {
}

rectangle "Device Manager" #white {
}

rectangle "Telemetry Aggregator" #white {
}

rectangle "Telemetry Consumer" #white {
}

rectangle "Telemetry Producer" #white {
}

}



@enduml

PlantUML version 1.2019.05(Sat Apr 20 09:45:36 PDT 2019)
(GPL source distribution)
Java Runtime: OpenJDK Runtime Environment
JVM: OpenJDK 64-Bit Server VM
Java Version: 12.0.1+12
Operating System: Windows 10
OS Version: 10.0
Default Encoding: Cp1252
Language: en
Country: US
--></g></svg>