<?xml version="1.0" encoding="UTF-8" standalone="no"?><svg xmlns="http://www.w3.org/2000/svg" xmlns:xlink="http://www.w3.org/1999/xlink" contentScriptType="application/ecmascript" contentStyleType="text/css" height="423px" preserveAspectRatio="none" style="width:1003px;height:423px;" version="1.1" viewBox="0 0 1003 423" width="1003px" zoomAndPan="magnify"><defs><filter height="300%" id="fftehpj71dr3t" width="300%" x="-1" y="-1"><feGaussianBlur result="blurOut" stdDeviation="2.0"/><feColorMatrix in="blurOut" result="blurOut2" type="matrix" values="0 0 0 0 0 0 0 0 0 0 0 0 0 0 0 0 0 0 .4 0"/><feOffset dx="4.0" dy="4.0" in="blurOut2" result="blurOut3"/><feBlend in="SourceGraphic" in2="blurOut3" mode="normal"/></filter></defs><g><!--entity MetricComposite--><rect fill="#ADD8E6" filter="url(#fftehpj71dr3t)" height="37.6094" style="stroke: #000000; stroke-width: 1.5;" width="125" x="469.196" y="375"/><text fill="#000000" font-family="sans-serif" font-size="14" lengthAdjust="spacingAndGlyphs" textLength="105" x="479.196" y="399.5332">MetricComposite</text><!--entity Reservation--><rect fill="#90EE90" filter="url(#fftehpj71dr3t)" height="37.6094" style="stroke: #000000; stroke-width: 1.5;" width="96" x="38.6962" y="375"/><text fill="#000000" font-family="sans-serif" font-size="14" lengthAdjust="spacingAndGlyphs" textLength="76" x="48.6962" y="399.5332">Reservation</text><!--entity Resource--><rect fill="#90EE90" filter="url(#fftehpj71dr3t)" height="37.6094" style="stroke: #000000; stroke-width: 1.5;" width="81" x="206.196" y="375"/><text fill="#000000" font-family="sans-serif" font-size="14" lengthAdjust="spacingAndGlyphs" textLength="61" x="216.196" y="399.5332">Resource</text><!--entity Cloud--><rect fill="#90EE90" filter="url(#fftehpj71dr3t)" height="37.6094" style="stroke: #000000; stroke-width: 1.5;" width="57" x="371.196" y="375"/><text fill="#000000" font-family="sans-serif" font-size="14" lengthAdjust="spacingAndGlyphs" textLength="37" x="381.196" y="399.5332">Cloud</text><!--entity DataCenter--><rect fill="#ADD8E6" filter="url(#fftehpj71dr3t)" height="37.6094" style="stroke: #000000; stroke-width: 1.5;" width="93" x="629.196" y="375"/><text fill="#000000" font-family="sans-serif" font-size="14" lengthAdjust="spacingAndGlyphs" textLength="73" x="639.196" y="399.5332">DataCenter</text><!--entity Device--><rect fill="#ADD8E6" filter="url(#fftehpj71dr3t)" height="37.6094" style="stroke: #000000; stroke-width: 1.5;" width="63" x="757.196" y="375"/><text fill="#000000" font-family="sans-serif" font-size="14" lengthAdjust="spacingAndGlyphs" textLength="43" x="767.196" y="399.5332">Device</text><!--entity AggregatedDevice--><rect fill="#ADD8E6" filter="url(#fftehpj71dr3t)" height="37.6094" style="stroke: #000000; stroke-width: 1.5;" width="137" x="855.196" y="375"/><text fill="#000000" font-family="sans-serif" font-size="14" lengthAdjust="spacingAndGlyphs" textLength="117" x="865.196" y="399.5332">AggregatedDevice</text><!--entity AcceleratorResource--><rect fill="#90EE90" filter="url(#fftehpj71dr3t)" height="37.6094" style="stroke: #000000; stroke-width: 1.5;" width="153" x="87.1962" y="8"/><text fill="#000000" font-family="sans-serif" font-size="14" lengthAdjust="spacingAndGlyphs" textLength="133" x="97.1962" y="32.5332">AcceleratorResource</text><!--entity ComputeResource--><rect fill="#90EE90" filter="url(#fftehpj71dr3t)" height="37.6094" style="stroke: #000000; stroke-width: 1.5;" width="138" x="275.696" y="8"/><text fill="#000000" font-family="sans-serif" font-size="14" lengthAdjust="spacingAndGlyphs" textLength="118" x="285.696" y="32.5332">ComputeResource</text><!--entity NetworkResource--><rect fill="#90EE90" filter="url(#fftehpj71dr3t)" height="37.6094" style="stroke: #000000; stroke-width: 1.5;" width="131" x="449.196" y="8"/><text fill="#000000" font-family="sans-serif" font-size="14" lengthAdjust="spacingAndGlyphs" textLength="111" x="459.196" y="32.5332">NetworkResource</text><!--entity StorageResource--><rect fill="#90EE90" filter="url(#fftehpj71dr3t)" height="37.6094" style="stroke: #000000; stroke-width: 1.5;" width="131" x="615.196" y="8"/><text fill="#000000" font-family="sans-serif" font-size="14" lengthAdjust="spacingAndGlyphs" textLength="111" x="625.196" y="32.5332">StorageResource</text><!--class Model--><rect fill="#FEFECE" filter="url(#fftehpj71dr3t)" height="172.5234" id="Model" style="stroke: #A80036; stroke-width: 1.5;" width="86" x="386.696" y="124"/><ellipse cx="404.846" cy="140" fill="#ADD1B2" rx="11" ry="11" style="stroke: #A80036; stroke-width: 1.0;"/><path d="M407.6116,135.875 Q407.7679,135.6563 407.9554,135.5469 Q408.1429,135.4375 408.3616,135.4375 Q408.7366,135.4375 408.971,135.7031 Q409.2054,135.9531 409.2054,136.5625 L409.2054,138.0156 Q409.2054,138.625 408.971,138.8906 Q408.7366,139.1563 408.3616,139.1563 Q408.0179,139.1563 407.8148,138.9531 Q407.6116,138.7656 407.5023,138.25 Q407.4554,137.8906 407.2679,137.7031 Q406.9398,137.3281 406.3304,137.1094 Q405.721,136.8906 405.096,136.8906 Q404.3304,136.8906 403.6898,137.2188 Q403.0648,137.5469 402.5648,138.2969 Q402.0804,139.0469 402.0804,140.0781 L402.0804,141.1719 Q402.0804,142.4063 402.971,143.2344 Q403.8616,144.0469 405.4554,144.0469 Q406.3929,144.0469 407.0491,143.7969 Q407.4398,143.6406 407.8616,143.2031 Q408.1273,142.9375 408.2679,142.8594 Q408.4241,142.7813 408.6273,142.7813 Q408.9554,142.7813 409.2054,143.0469 Q409.471,143.2969 409.471,143.6406 Q409.471,143.9844 409.1273,144.3906 Q408.6273,144.9688 407.8304,145.2969 Q406.7523,145.75 405.4554,145.75 Q403.9398,145.75 402.7366,145.125 Q401.7523,144.625 401.0648,143.5625 Q400.3773,142.4844 400.3773,141.2031 L400.3773,140.0469 Q400.3773,138.7188 400.9866,137.5781 Q401.6116,136.4219 402.7054,135.8125 Q403.7991,135.1875 405.0335,135.1875 Q405.7679,135.1875 406.4085,135.3594 Q407.0648,135.5156 407.6116,135.875 Z "/><text fill="#000000" font-family="sans-serif" font-size="12" lengthAdjust="spacingAndGlyphs" textLength="47" x="419.546" y="144.9102">Request</text><line style="stroke: #A80036; stroke-width: 1.5;" x1="387.696" x2="471.696" y1="156" y2="156"/><text fill="#000000" font-family="sans-serif" font-size="11" lengthAdjust="spacingAndGlyphs" textLength="56" x="392.696" y="171.4189">string name</text><text fill="#000000" font-family="sans-serif" font-size="11" lengthAdjust="spacingAndGlyphs" textLength="62" x="392.696" y="185.2549">string ename</text><text fill="#000000" font-family="sans-serif" font-size="11" lengthAdjust="spacingAndGlyphs" textLength="51" x="392.696" y="199.0908">string type</text><text fill="#000000" font-family="sans-serif" font-size="11" lengthAdjust="spacingAndGlyphs" textLength="74" x="392.696" y="212.9268">string message</text><line style="stroke: #A80036; stroke-width: 1.5;" x1="387.696" x2="471.696" y1="219.3438" y2="219.3438"/><text fill="#000000" font-family="sans-serif" font-size="11" lengthAdjust="spacingAndGlyphs" textLength="44" x="392.696" y="234.7627">confirm()</text><text fill="#000000" font-family="sans-serif" font-size="11" lengthAdjust="spacingAndGlyphs" textLength="55" x="392.696" y="248.5986">evaluated()</text><text fill="#000000" font-family="sans-serif" font-size="11" lengthAdjust="spacingAndGlyphs" textLength="34" x="392.696" y="262.4346">failed()</text><text fill="#000000" font-family="sans-serif" font-size="11" lengthAdjust="spacingAndGlyphs" textLength="30" x="392.696" y="276.2705">fulfill()</text><text fill="#000000" font-family="sans-serif" font-size="11" lengthAdjust="spacingAndGlyphs" textLength="49" x="392.696" y="290.1064">satisfied()</text><!--link Model to MetricComposite--><path d="M479.366,299.883 C492.252,322.8121 505.251,345.9425 515.07,363.4143 " fill="none" id="Model-MetricComposite" style="stroke: #A80036; stroke-width: 1.0;"/><polygon fill="#A80036" points="521.464,374.7929,520.5417,364.9873,519.0144,370.4341,513.5676,368.9067,521.464,374.7929" style="stroke: #A80036; stroke-width: 1.0;"/><line style="stroke: #A80036; stroke-width: 1.0;" x1="519.0144" x2="515.0955" y1="370.4341" y2="363.46"/><polygon fill="#A80036" points="472.806,288.209,472.2583,295.3993,478.6848,298.6703,479.2325,291.4801,472.806,288.209" style="stroke: #A80036; stroke-width: 1.0;"/><text fill="#000000" font-family="sans-serif" font-size="13" lengthAdjust="spacingAndGlyphs" textLength="75" x="505.696" y="341.4951">requirements</text><text fill="#000000" font-family="sans-serif" font-size="13" lengthAdjust="spacingAndGlyphs" textLength="7" x="510.2586" y="364.0695">1</text><!--link Model to Reservation--><path d="M373.365,218.616 C269.576,233.007 54.715,269.205 10.6962,327 C-1.0651,342.442 11.6878,356.909 29.896,368.3399 " fill="none" id="Model-Reservation" style="stroke: #A80036; stroke-width: 1.0;"/><polygon fill="#A80036" points="41.4337,374.8747,35.5738,366.9588,37.0831,372.4106,31.6312,373.9198,41.4337,374.8747" style="stroke: #A80036; stroke-width: 1.0;"/><line style="stroke: #A80036; stroke-width: 1.0;" x1="37.0831" x2="30.1221" y1="372.4106" y2="368.4679"/><polygon fill="#A80036" points="386.349,216.849,379.8645,213.6945,374.4586,218.467,380.9431,221.6215,386.349,216.849" style="stroke: #A80036; stroke-width: 1.0;"/><text fill="#000000" font-family="sans-serif" font-size="13" lengthAdjust="spacingAndGlyphs" textLength="69" x="11.6962" y="341.4951">reservations</text><text fill="#000000" font-family="sans-serif" font-size="13" lengthAdjust="spacingAndGlyphs" textLength="7" x="23.7669" y="366.5173">n</text><!--link Reservation to Model--><path d="M109.552,364.5825 C120.898,351.8354 135.43,337.3691 150.696,327 C221.252,279.078 314.814,245.417 373.643,227.247 " fill="none" id="Reservation-Model" style="stroke: #A80036; stroke-width: 1.0;"/><polygon fill="#A80036" points="386.37,223.39,376.5968,222.1719,381.5849,224.84,378.9167,229.8281,386.37,223.39" style="stroke: #A80036; stroke-width: 1.0;"/><line style="stroke: #A80036; stroke-width: 1.0;" x1="381.5849" x2="373.9285" y1="224.84" y2="227.1605"/><polygon fill="#FFFFFF" points="100.8237,374.7581,107.7662,372.8082,108.6364,365.6498,101.694,367.5997,100.8237,374.7581" style="stroke: #A80036; stroke-width: 1.0;"/><text fill="#000000" font-family="sans-serif" font-size="13" lengthAdjust="spacingAndGlyphs" textLength="43" x="151.696" y="341.4951">request</text><text fill="#000000" font-family="sans-serif" font-size="13" lengthAdjust="spacingAndGlyphs" textLength="7" x="371.6144" y="221.7636">1</text><!--link Model to Resource--><path d="M373.789,223.073 C320.371,237.424 242.803,267.637 206.696,327 C199.103,339.4838 205.238,353.3087 214.783,365.0666 " fill="none" id="Model-Resource" style="stroke: #A80036; stroke-width: 1.0;"/><polygon fill="#A80036" points="223.789,374.7815,220.6041,365.4618,220.3899,371.1146,214.7371,370.9004,223.789,374.7815" style="stroke: #A80036; stroke-width: 1.0;"/><line style="stroke: #A80036; stroke-width: 1.0;" x1="220.3899" x2="214.951" y1="371.1146" y2="365.248"/><polygon fill="#A80036" points="386.473,219.839,379.6708,217.4452,374.8449,222.8034,381.6471,225.1972,386.473,219.839" style="stroke: #A80036; stroke-width: 1.0;"/><text fill="#000000" font-family="sans-serif" font-size="13" lengthAdjust="spacingAndGlyphs" textLength="57" x="207.696" y="341.4951">resources</text><text fill="#000000" font-family="sans-serif" font-size="13" lengthAdjust="spacingAndGlyphs" textLength="7" x="208.7019" y="364.0546">n</text><!--link Resource to Model--><path d="M274.106,365.8151 C301.209,338.9345 343.382,297.107 376.988,263.776 " fill="none" id="Resource-Model" style="stroke: #A80036; stroke-width: 1.0;"/><polygon fill="#A80036" points="386.328,254.513,377.1211,258.0106,382.7779,258.0339,382.7546,263.6907,386.328,254.513" style="stroke: #A80036; stroke-width: 1.0;"/><line style="stroke: #A80036; stroke-width: 1.0;" x1="382.7779" x2="377.098" y1="258.0339" y2="263.6675"/><polygon fill="#FFFFFF" points="264.846,374.9988,271.9228,373.6138,273.3662,366.5486,266.2894,367.9336,264.846,374.9988" style="stroke: #A80036; stroke-width: 1.0;"/><text fill="#000000" font-family="sans-serif" font-size="13" lengthAdjust="spacingAndGlyphs" textLength="43" x="312.696" y="341.4951">request</text><text fill="#000000" font-family="sans-serif" font-size="13" lengthAdjust="spacingAndGlyphs" textLength="7" x="371.5655" y="258.0413">1</text><!--link Model to Cloud--><path d="M392.124,310.126 C390.313,321.7572 389.633,333.5583 390.696,345 C391.203,350.4478 392.025,356.1992 392.973,361.7548 " fill="none" id="Model-Cloud" style="stroke: #A80036; stroke-width: 1.0;"/><polygon fill="#A80036" points="395.477,374.8775,397.7193,365.2873,394.5399,369.9661,389.8611,366.7867,395.477,374.8775" style="stroke: #A80036; stroke-width: 1.0;"/><line style="stroke: #A80036; stroke-width: 1.0;" x1="394.5399" x2="393.0405" y1="369.9661" y2="362.1079"/><polygon fill="#FFFFFF" points="394.618,297.093,389.5611,302.2338,392.3616,308.8789,397.4184,303.7381,394.618,297.093" style="stroke: #A80036; stroke-width: 1.0;"/><text fill="#000000" font-family="sans-serif" font-size="13" lengthAdjust="spacingAndGlyphs" textLength="31" x="391.696" y="341.4951">cloud</text><text fill="#000000" font-family="sans-serif" font-size="13" lengthAdjust="spacingAndGlyphs" textLength="7" x="386.1131" y="364.18">1</text><!--link Cloud to Model--><path d="M420.016,363.5046 C423.162,357.6108 425.945,351.2909 427.696,345 C430.768,333.9674 432.728,322.2208 433.892,310.447 " fill="none" id="Cloud-Model" style="stroke: #A80036; stroke-width: 1.0;"/><polygon fill="#A80036" points="434.884,297.178,430.2236,305.8545,434.5109,302.1641,438.2013,306.4514,434.884,297.178" style="stroke: #A80036; stroke-width: 1.0;"/><line style="stroke: #A80036; stroke-width: 1.0;" x1="434.5109" x2="433.9145" y1="302.1641" y2="310.1425"/><polygon fill="#A80036" points="413.261,374.858,419.7665,371.747,419.3969,364.5453,412.8914,367.6564,413.261,374.858" style="stroke: #A80036; stroke-width: 1.0;"/><text fill="#000000" font-family="sans-serif" font-size="13" lengthAdjust="spacingAndGlyphs" textLength="50" x="432.696" y="341.4951">requests</text><text fill="#000000" font-family="sans-serif" font-size="13" lengthAdjust="spacingAndGlyphs" textLength="7" x="428.0132" y="317.9536">n</text><!--link Model to DataCenter--><path d="M483.375,249.654 C514.572,271.977 554.543,300.832 589.696,327 C607.114,339.9662 626.3,354.6507 642.123,366.8711 " fill="none" id="Model-DataCenter" style="stroke: #A80036; stroke-width: 1.0;"/><polygon fill="#A80036" points="652.476,374.8862,647.8083,366.2137,648.5224,371.8253,642.9108,372.5394,652.476,374.8862" style="stroke: #A80036; stroke-width: 1.0;"/><line style="stroke: #A80036; stroke-width: 1.0;" x1="648.5224" x2="642.1965" y1="371.8253" y2="366.9283"/><polygon fill="#FFFFFF" points="472.728,242.046,475.284,248.7889,482.4913,249.023,479.9353,242.2801,472.728,242.046" style="stroke: #A80036; stroke-width: 1.0;"/><text fill="#000000" font-family="sans-serif" font-size="13" lengthAdjust="spacingAndGlyphs" textLength="68" x="614.696" y="341.4951">datacenters</text><text fill="#000000" font-family="sans-serif" font-size="13" lengthAdjust="spacingAndGlyphs" textLength="7" x="637.293" y="364.1914">n</text><!--link Model to Device--><path d="M485.446,232.635 C539.47,253.909 623.076,288.946 691.696,327 C713.233,338.9436 736.064,354.3273 754.161,367.2376 " fill="none" id="Model-Device" style="stroke: #A80036; stroke-width: 1.0;"/><polygon fill="#A80036" points="764.764,374.9035,759.8136,366.3892,760.7119,371.9743,755.1268,372.8725,764.764,374.9035" style="stroke: #A80036; stroke-width: 1.0;"/><line style="stroke: #A80036; stroke-width: 1.0;" x1="760.7119" x2="754.2295" y1="371.9743" y2="367.2868"/><polygon fill="#FFFFFF" points="473.046,227.79,477.1779,233.7,484.2224,232.159,480.0905,226.249,473.046,227.79" style="stroke: #A80036; stroke-width: 1.0;"/><text fill="#000000" font-family="sans-serif" font-size="13" lengthAdjust="spacingAndGlyphs" textLength="43" x="720.696" y="341.4951">devices</text><text fill="#000000" font-family="sans-serif" font-size="13" lengthAdjust="spacingAndGlyphs" textLength="7" x="749.363" y="364.214">n</text><!--link Model to AggregatedDevice--><path d="M485.463,228.629 C553.776,249.989 672.747,288.413 772.696,327 C806.559,340.0733 843.946,356.3995 873.047,369.5431 " fill="none" id="Model-AggregatedDevice" style="stroke: #A80036; stroke-width: 1.0;"/><polygon fill="#A80036" points="884.976,374.9624,878.4364,367.598,880.4238,372.8943,875.1275,374.8816,884.976,374.9624" style="stroke: #A80036; stroke-width: 1.0;"/><line style="stroke: #A80036; stroke-width: 1.0;" x1="880.4238" x2="873.14" y1="372.8943" y2="369.5856"/><polygon fill="#FFFFFF" points="472.904,224.716,477.4425,230.3198,484.3608,228.2857,479.8223,222.6819,472.904,224.716" style="stroke: #A80036; stroke-width: 1.0;"/><text fill="#000000" font-family="sans-serif" font-size="13" lengthAdjust="spacingAndGlyphs" textLength="64" x="815.696" y="341.4951">aggregates</text><text fill="#000000" font-family="sans-serif" font-size="13" lengthAdjust="spacingAndGlyphs" textLength="7" x="865.0461" y="364.2909">n</text><!--link AcceleratorResource to Model--><path d="M201.155,53.559 C246.537,84.525 323.35,136.937 375.266,172.36 " fill="none" id="AcceleratorResource-Model" style="stroke: #A80036; stroke-width: 1.0;"/><polygon fill="#A80036" points="386.269,179.868,381.0892,171.4913,382.1388,177.0499,376.5802,178.0996,386.269,179.868" style="stroke: #A80036; stroke-width: 1.0;"/><line style="stroke: #A80036; stroke-width: 1.0;" x1="382.1388" x2="375.5305" y1="177.0499" y2="172.5415"/><polygon fill="#FFFFFF" points="190.174,46.066,192.8757,52.7519,200.0864,52.8294,197.3847,46.1436,190.174,46.066" style="stroke: #A80036; stroke-width: 1.0;"/><text fill="#000000" font-family="sans-serif" font-size="13" lengthAdjust="spacingAndGlyphs" textLength="43" x="258.696" y="90.4951">request</text><text fill="#000000" font-family="sans-serif" font-size="13" lengthAdjust="spacingAndGlyphs" textLength="7" x="371.79" y="171.2721">1</text><!--link ComputeResource to Model--><path d="M358.681,57.861 C365.756,72.97 374.79,92.259 384.024,111.977 " fill="none" id="ComputeResource-Model" style="stroke: #A80036; stroke-width: 1.0;"/><polygon fill="#A80036" points="389.627,123.94,389.4328,114.0931,387.5066,119.4119,382.1878,117.4857,389.627,123.94" style="stroke: #A80036; stroke-width: 1.0;"/><line style="stroke: #A80036; stroke-width: 1.0;" x1="387.5066" x2="384.1135" y1="119.4119" y2="112.1675"/><polygon fill="#FFFFFF" points="353.157,46.066,352.079,53.1961,358.2459,56.9335,359.324,49.8035,353.157,46.066" style="stroke: #A80036; stroke-width: 1.0;"/><text fill="#000000" font-family="sans-serif" font-size="13" lengthAdjust="spacingAndGlyphs" textLength="43" x="375.696" y="90.4951">request</text><text fill="#000000" font-family="sans-serif" font-size="13" lengthAdjust="spacingAndGlyphs" textLength="7" x="378.7466" y="113.0502">1</text><!--link NetworkResource to Model--><path d="M500.712,57.861 C493.636,72.97 484.603,92.259 475.368,111.977 " fill="none" id="NetworkResource-Model" style="stroke: #A80036; stroke-width: 1.0;"/><polygon fill="#A80036" points="469.766,123.94,477.2052,117.4857,471.8864,119.4119,469.9602,114.0931,469.766,123.94" style="stroke: #A80036; stroke-width: 1.0;"/><line style="stroke: #A80036; stroke-width: 1.0;" x1="471.8864" x2="475.2795" y1="119.4119" y2="112.1675"/><polygon fill="#FFFFFF" points="506.235,46.066,500.068,49.8035,501.1461,56.9335,507.313,53.1961,506.235,46.066" style="stroke: #A80036; stroke-width: 1.0;"/><text fill="#000000" font-family="sans-serif" font-size="13" lengthAdjust="spacingAndGlyphs" textLength="43" x="493.696" y="90.4951">request</text><text fill="#000000" font-family="sans-serif" font-size="13" lengthAdjust="spacingAndGlyphs" textLength="7" x="466.023" y="113.0502">1</text><!--link StorageResource to Model--><path d="M644.933,53.86 C602.803,84.325 532.385,135.245 483.622,170.506 " fill="none" id="StorageResource-Model" style="stroke: #A80036; stroke-width: 1.0;"/><polygon fill="#A80036" points="472.952,178.222,482.5889,176.1899,477.0037,175.2923,477.9013,169.7071,472.952,178.222" style="stroke: #A80036; stroke-width: 1.0;"/><line style="stroke: #A80036; stroke-width: 1.0;" x1="477.0037" x2="483.486" y1="175.2923" y2="170.604"/><polygon fill="#FFFFFF" points="655.712,46.066,648.5061,46.3403,645.9878,53.0974,653.1937,52.8231,655.712,46.066" style="stroke: #A80036; stroke-width: 1.0;"/><text fill="#000000" font-family="sans-serif" font-size="13" lengthAdjust="spacingAndGlyphs" textLength="43" x="614.696" y="90.4951">request</text><text fill="#000000" font-family="sans-serif" font-size="13" lengthAdjust="spacingAndGlyphs" textLength="7" x="480.696" y="169.1147">1</text><!--
@startuml

class "Request" as Model {
 string name
 string ename
 string type
 string message

 confirm()
 evaluated()
 failed()
 fulfill()
 satisfied()
 
}

rectangle "MetricComposite" as MetricComposite #lightblue {
}

Model *- -> "1" MetricComposite : requirements


rectangle "Reservation" as Reservation #lightblue {
}

Model *- -> "n" Reservation : reservations


rectangle "Resource" as Resource #lightblue {
}

Model *- -> "n" Resource : resources


rectangle "Cloud" as Cloud #lightblue {
}

Model o- -> "1" Cloud : cloud


rectangle "DataCenter" as DataCenter #lightblue {
}

Model o- -> "n" DataCenter : datacenters


rectangle "Device" as Device #lightblue {
}

Model o- -> "n" Device : devices


rectangle "AggregatedDevice" as AggregatedDevice #lightblue {
}

Model o- -> "n" AggregatedDevice : aggregates




    rectangle "AcceleratorResource" as AcceleratorResource #lightgreen {
    }
    
        AcceleratorResource   o- -> "1" Model : "request"
    
    rectangle "Cloud" as Cloud #lightgreen {
    }
    
        Cloud   *- -> "n" Model : "requests"
    
    rectangle "ComputeResource" as ComputeResource #lightgreen {
    }
    
        ComputeResource   o- -> "1" Model : "request"
    
    rectangle "NetworkResource" as NetworkResource #lightgreen {
    }
    
        NetworkResource   o- -> "1" Model : "request"
    
    rectangle "Reservation" as Reservation #lightgreen {
    }
    
        Reservation   o- -> "1" Model : "request"
    
    rectangle "Resource" as Resource #lightgreen {
    }
    
        Resource   o- -> "1" Model : "request"
    
    rectangle "StorageResource" as StorageResource #lightgreen {
    }
    
        StorageResource   o- -> "1" Model : "request"
    

@enduml

PlantUML version 1.2019.05(Sat Apr 20 09:45:36 PDT 2019)
(GPL source distribution)
Java Runtime: OpenJDK Runtime Environment
JVM: OpenJDK 64-Bit Server VM
Java Version: 12.0.1+12
Operating System: Windows 10
OS Version: 10.0
Default Encoding: Cp1252
Language: en
Country: US
--></g></svg>