<?xml version="1.0" encoding="UTF-8" standalone="no"?><svg xmlns="http://www.w3.org/2000/svg" xmlns:xlink="http://www.w3.org/1999/xlink" contentScriptType="application/ecmascript" contentStyleType="text/css" height="183px" preserveAspectRatio="none" style="width:525px;height:183px;" version="1.1" viewBox="0 0 525 183" width="525px" zoomAndPan="magnify"><defs><filter height="300%" id="fhvt3dbm8ypug" width="300%" x="-1" y="-1"><feGaussianBlur result="blurOut" stdDeviation="2.0"/><feColorMatrix in="blurOut" result="blurOut2" type="matrix" values="0 0 0 0 0 0 0 0 0 0 0 0 0 0 0 0 0 0 .4 0"/><feOffset dx="4.0" dy="4.0" in="blurOut2" result="blurOut3"/><feBlend in="SourceGraphic" in2="blurOut3" mode="normal"/></filter></defs><g><!--entity Policy--><rect fill="#90EE90" filter="url(#fhvt3dbm8ypug)" height="37.6094" style="stroke: #000000; stroke-width: 1.5;" width="57" x="6" y="8"/><text fill="#000000" font-family="sans-serif" font-size="14" lengthAdjust="spacingAndGlyphs" textLength="37" x="16" y="32.5332">Policy</text><!--entity Environment--><rect fill="#90EE90" filter="url(#fhvt3dbm8ypug)" height="37.6094" style="stroke: #000000; stroke-width: 1.5;" width="99" x="101" y="8"/><text fill="#000000" font-family="sans-serif" font-size="14" lengthAdjust="spacingAndGlyphs" textLength="79" x="111" y="32.5332">Environment</text><!--entity MultiCloud--><rect fill="#90EE90" filter="url(#fhvt3dbm8ypug)" height="37.6094" style="stroke: #000000; stroke-width: 1.5;" width="86" x="235.5" y="8"/><text fill="#000000" font-family="sans-serif" font-size="14" lengthAdjust="spacingAndGlyphs" textLength="66" x="245.5" y="32.5332">MultiCloud</text><!--entity Service--><rect fill="#90EE90" filter="url(#fhvt3dbm8ypug)" height="37.6094" style="stroke: #000000; stroke-width: 1.5;" width="67" x="357" y="8"/><text fill="#000000" font-family="sans-serif" font-size="14" lengthAdjust="spacingAndGlyphs" textLength="47" x="367" y="32.5332">Service</text><!--entity Stack--><rect fill="#90EE90" filter="url(#fhvt3dbm8ypug)" height="37.6094" style="stroke: #000000; stroke-width: 1.5;" width="55" x="459" y="8"/><text fill="#000000" font-family="sans-serif" font-size="14" lengthAdjust="spacingAndGlyphs" textLength="35" x="469" y="32.5332">Stack</text><!--class Model--><rect fill="#FEFECE" filter="url(#fhvt3dbm8ypug)" height="48" id="Model" style="stroke: #A80036; stroke-width: 1.5;" width="119" x="176" y="124"/><ellipse cx="191" cy="140" fill="#ADD1B2" rx="11" ry="11" style="stroke: #A80036; stroke-width: 1.0;"/><path d="M193.7656,135.875 Q193.9219,135.6563 194.1094,135.5469 Q194.2969,135.4375 194.5156,135.4375 Q194.8906,135.4375 195.125,135.7031 Q195.3594,135.9531 195.3594,136.5625 L195.3594,138.0156 Q195.3594,138.625 195.125,138.8906 Q194.8906,139.1563 194.5156,139.1563 Q194.1719,139.1563 193.9688,138.9531 Q193.7656,138.7656 193.6563,138.25 Q193.6094,137.8906 193.4219,137.7031 Q193.0938,137.3281 192.4844,137.1094 Q191.875,136.8906 191.25,136.8906 Q190.4844,136.8906 189.8438,137.2188 Q189.2188,137.5469 188.7188,138.2969 Q188.2344,139.0469 188.2344,140.0781 L188.2344,141.1719 Q188.2344,142.4063 189.125,143.2344 Q190.0156,144.0469 191.6094,144.0469 Q192.5469,144.0469 193.2031,143.7969 Q193.5938,143.6406 194.0156,143.2031 Q194.2813,142.9375 194.4219,142.8594 Q194.5781,142.7813 194.7813,142.7813 Q195.1094,142.7813 195.3594,143.0469 Q195.625,143.2969 195.625,143.6406 Q195.625,143.9844 195.2813,144.3906 Q194.7813,144.9688 193.9844,145.2969 Q192.9063,145.75 191.6094,145.75 Q190.0938,145.75 188.8906,145.125 Q187.9063,144.625 187.2188,143.5625 Q186.5313,142.4844 186.5313,141.2031 L186.5313,140.0469 Q186.5313,138.7188 187.1406,137.5781 Q187.7656,136.4219 188.8594,135.8125 Q189.9531,135.1875 191.1875,135.1875 Q191.9219,135.1875 192.5625,135.3594 Q193.2188,135.5156 193.7656,135.875 Z "/><text fill="#000000" font-family="sans-serif" font-size="12" lengthAdjust="spacingAndGlyphs" textLength="87" x="205" y="144.9102">PolicyCollection</text><line style="stroke: #A80036; stroke-width: 1.5;" x1="177" x2="294" y1="156" y2="156"/><line style="stroke: #A80036; stroke-width: 1.5;" x1="177" x2="294" y1="164" y2="164"/><!--link Model to Policy--><path d="M175.234,117.913 C160.72,110.4644 145.397,102.2247 131.5,94 C110.597,81.6289 88.1198,66.462 70.0712,53.788 " fill="none" id="Model-Policy" style="stroke: #A80036; stroke-width: 1.0;"/><polygon fill="#A80036" points="59.4593,46.267,64.4887,54.7349,63.5385,49.1584,69.115,48.2082,59.4593,46.267" style="stroke: #A80036; stroke-width: 1.0;"/><line style="stroke: #A80036; stroke-width: 1.0;" x1="63.5385" x2="70.0654" y1="49.1584" y2="53.784"/><polygon fill="#A80036" points="187.186,123.9659,183.6402,117.6868,176.4804,118.5447,180.0261,124.8238,187.186,123.9659" style="stroke: #A80036; stroke-width: 1.0;"/><text fill="#000000" font-family="sans-serif" font-size="13" lengthAdjust="spacingAndGlyphs" textLength="44" x="132.5" y="90.4951">policies</text><text fill="#000000" font-family="sans-serif" font-size="13" lengthAdjust="spacingAndGlyphs" textLength="7" x="58.2265" y="67.1899">n</text><!--link Policy to Model--><path d="M40.4891,58.902 C44.3213,71.302 50.5258,84.8045 60.5,94 C88.3355,119.6624 128.217,132.917 162.879,139.7549 " fill="none" id="Policy-Model" style="stroke: #A80036; stroke-width: 1.0;"/><polygon fill="#A80036" points="175.873,142.074,167.7159,136.5548,170.9508,141.1954,166.3102,144.4303,175.873,142.074" style="stroke: #A80036; stroke-width: 1.0;"/><line style="stroke: #A80036; stroke-width: 1.0;" x1="170.9508" x2="163.0745" y1="141.1954" y2="139.7897"/><polygon fill="#FFFFFF" points="37.1957,46.136,34.8212,52.9449,40.1931,57.7556,42.5676,50.9467,37.1957,46.136" style="stroke: #A80036; stroke-width: 1.0;"/><text fill="#000000" font-family="sans-serif" font-size="13" lengthAdjust="spacingAndGlyphs" textLength="34" x="61.5" y="90.4951">owner</text><text fill="#000000" font-family="sans-serif" font-size="13" lengthAdjust="spacingAndGlyphs" textLength="7" x="161.1794" y="137.8933">1</text><!--link Environment to Model--><path d="M171.01,56.714 C183.126,73.6765 198.533,95.246 211.249,113.0487 " fill="none" id="Environment-Model" style="stroke: #A80036; stroke-width: 1.0;"/><polygon fill="#A80036" points="218.96,123.8438,216.9838,114.1952,216.0538,119.7751,210.4739,118.8452,218.96,123.8438" style="stroke: #A80036; stroke-width: 1.0;"/><line style="stroke: #A80036; stroke-width: 1.0;" x1="216.0538" x2="211.4035" y1="119.7751" y2="113.2653"/><polygon fill="#FFFFFF" points="163.41,46.074,163.643,53.2813,170.3855,55.8384,170.1525,48.631,163.41,46.074" style="stroke: #A80036; stroke-width: 1.0;"/><text fill="#000000" font-family="sans-serif" font-size="13" lengthAdjust="spacingAndGlyphs" textLength="44" x="197.5" y="90.4951">policies</text><text fill="#000000" font-family="sans-serif" font-size="13" lengthAdjust="spacingAndGlyphs" textLength="7" x="206.8248" y="113.1439">1</text><!--link MultiCloud to Model--><path d="M267.499,58.444 C261.693,74.5124 254.533,94.3271 248.459,111.1364 " fill="none" id="MultiCloud-Model" style="stroke: #A80036; stroke-width: 1.0;"/><polygon fill="#A80036" points="243.867,123.8438,250.6873,116.7386,245.5661,119.1413,243.1634,114.0201,243.867,123.8438" style="stroke: #A80036; stroke-width: 1.0;"/><line style="stroke: #A80036; stroke-width: 1.0;" x1="245.5661" x2="248.2855" y1="119.1413" y2="111.6176"/><polygon fill="#FFFFFF" points="271.969,46.074,266.1682,50.3578,267.8914,57.36,273.6922,53.0762,271.969,46.074" style="stroke: #A80036; stroke-width: 1.0;"/><text fill="#000000" font-family="sans-serif" font-size="13" lengthAdjust="spacingAndGlyphs" textLength="41" x="262.5" y="90.4951">polices</text><text fill="#000000" font-family="sans-serif" font-size="13" lengthAdjust="spacingAndGlyphs" textLength="7" x="238.1142" y="113.1439">1</text><!--link Service to Model--><path d="M359.94,55.073 C345.778,67.302 328.561,81.7258 312.5,94 C302.652,101.5262 291.827,109.279 281.483,116.4534 " fill="none" id="Service-Model" style="stroke: #A80036; stroke-width: 1.0;"/><polygon fill="#A80036" points="270.518,123.9731,280.2025,122.1815,274.6414,121.1451,275.6778,115.584,270.518,123.9731" style="stroke: #A80036; stroke-width: 1.0;"/><line style="stroke: #A80036; stroke-width: 1.0;" x1="274.6414" x2="281.2395" y1="121.1451" y2="116.6206"/><polygon fill="#FFFFFF" points="370.105,46.222,362.9533,47.1455,361.0551,54.1023,368.2068,53.1788,370.105,46.222" style="stroke: #A80036; stroke-width: 1.0;"/><text fill="#000000" font-family="sans-serif" font-size="13" lengthAdjust="spacingAndGlyphs" textLength="44" x="335.5" y="90.4951">policies</text><text fill="#000000" font-family="sans-serif" font-size="13" lengthAdjust="spacingAndGlyphs" textLength="7" x="271.5945" y="113.3064">1</text><!--link Stack to Model--><path d="M452.713,53.948 C434.411,67.164 410.993,82.7694 388.5,94 C362.996,106.734 333.69,117.6959 307.596,126.2915 " fill="none" id="Stack-Model" style="stroke: #A80036; stroke-width: 1.0;"/><polygon fill="#A80036" points="295.075,130.3185,304.8676,131.37,299.8347,128.7872,302.4175,123.7544,295.075,130.3185" style="stroke: #A80036; stroke-width: 1.0;"/><line style="stroke: #A80036; stroke-width: 1.0;" x1="299.8347" x2="307.4505" y1="128.7872" y2="126.3382"/><polygon fill="#FFFFFF" points="463.393,46.088,456.1897,46.4229,453.7284,53.201,460.9317,52.866,463.393,46.088" style="stroke: #A80036; stroke-width: 1.0;"/><text fill="#000000" font-family="sans-serif" font-size="13" lengthAdjust="spacingAndGlyphs" textLength="44" x="421.5" y="90.4951">policies</text><text fill="#000000" font-family="sans-serif" font-size="13" lengthAdjust="spacingAndGlyphs" textLength="7" x="303.1565" y="124.5457">1</text><!--
@startuml

class "PolicyCollection" as Model {

 
}

rectangle "Policy" as Policy #lightblue {
}

Model *- -> "n" Policy : policies




    rectangle "Policy" as Policy #lightgreen {
    }
    
        Policy   o- -> "1" Model : "owner"
    
    rectangle "Environment" as Environment #lightgreen {
    }
    
        Environment   o- -> "1" Model : "policies"
    
    rectangle "MultiCloud" as MultiCloud #lightgreen {
    }
    
        MultiCloud   o- -> "1" Model : "polices"
    
    rectangle "Service" as Service #lightgreen {
    }
    
        Service   o- -> "1" Model : "policies"
    
    rectangle "Stack" as Stack #lightgreen {
    }
    
        Stack   o- -> "1" Model : "policies"
    

@enduml

PlantUML version 1.2019.05(Sat Apr 20 09:45:36 PDT 2019)
(GPL source distribution)
Java Runtime: OpenJDK Runtime Environment
JVM: OpenJDK 64-Bit Server VM
Java Version: 12.0.1+12
Operating System: Windows 10
OS Version: 10.0
Default Encoding: Cp1252
Language: en
Country: US
--></g></svg>