<?xml version="1.0" encoding="UTF-8" standalone="no"?><svg xmlns="http://www.w3.org/2000/svg" xmlns:xlink="http://www.w3.org/1999/xlink" contentScriptType="application/ecmascript" contentStyleType="text/css" height="196px" preserveAspectRatio="none" style="width:378px;height:196px;" version="1.1" viewBox="0 0 378 196" width="378px" zoomAndPan="magnify"><defs><filter height="300%" id="fbz34ofews8yj" width="300%" x="-1" y="-1"><feGaussianBlur result="blurOut" stdDeviation="2.0"/><feColorMatrix in="blurOut" result="blurOut2" type="matrix" values="0 0 0 0 0 0 0 0 0 0 0 0 0 0 0 0 0 0 .4 0"/><feOffset dx="4.0" dy="4.0" in="blurOut2" result="blurOut3"/><feBlend in="SourceGraphic" in2="blurOut3" mode="normal"/></filter></defs><g><!--entity Data--><rect fill="#ADD8E6" filter="url(#fbz34ofews8yj)" height="37.6094" style="stroke: #000000; stroke-width: 1.5;" width="50" x="186.5" y="148"/><text fill="#000000" font-family="sans-serif" font-size="14" lengthAdjust="spacingAndGlyphs" textLength="30" x="196.5" y="172.5332">Data</text><!--entity DataSource--><rect fill="#ADD8E6" filter="url(#fbz34ofews8yj)" height="37.6094" style="stroke: #000000; stroke-width: 1.5;" width="95" x="272" y="148"/><text fill="#000000" font-family="sans-serif" font-size="14" lengthAdjust="spacingAndGlyphs" textLength="75" x="282" y="172.5332">DataSource</text><!--entity DataRequest--><rect fill="#90EE90" filter="url(#fbz34ofews8yj)" height="37.6094" style="stroke: #000000; stroke-width: 1.5;" width="103" x="6" y="148"/><text fill="#000000" font-family="sans-serif" font-size="14" lengthAdjust="spacingAndGlyphs" textLength="83" x="16" y="172.5332">DataRequest</text><!--class Model--><rect fill="#FEFECE" filter="url(#fbz34ofews8yj)" height="61.8359" id="Model" style="stroke: #A80036; stroke-width: 1.5;" width="124" x="93.5" y="8"/><ellipse cx="108.5" cy="24" fill="#ADD1B2" rx="11" ry="11" style="stroke: #A80036; stroke-width: 1.0;"/><path d="M111.2656,19.875 Q111.4219,19.6563 111.6094,19.5469 Q111.7969,19.4375 112.0156,19.4375 Q112.3906,19.4375 112.625,19.7031 Q112.8594,19.9531 112.8594,20.5625 L112.8594,22.0156 Q112.8594,22.625 112.625,22.8906 Q112.3906,23.1563 112.0156,23.1563 Q111.6719,23.1563 111.4688,22.9531 Q111.2656,22.7656 111.1563,22.25 Q111.1094,21.8906 110.9219,21.7031 Q110.5938,21.3281 109.9844,21.1094 Q109.375,20.8906 108.75,20.8906 Q107.9844,20.8906 107.3438,21.2188 Q106.7188,21.5469 106.2188,22.2969 Q105.7344,23.0469 105.7344,24.0781 L105.7344,25.1719 Q105.7344,26.4063 106.625,27.2344 Q107.5156,28.0469 109.1094,28.0469 Q110.0469,28.0469 110.7031,27.7969 Q111.0938,27.6406 111.5156,27.2031 Q111.7813,26.9375 111.9219,26.8594 Q112.0781,26.7813 112.2813,26.7813 Q112.6094,26.7813 112.8594,27.0469 Q113.125,27.2969 113.125,27.6406 Q113.125,27.9844 112.7813,28.3906 Q112.2813,28.9688 111.4844,29.2969 Q110.4063,29.75 109.1094,29.75 Q107.5938,29.75 106.3906,29.125 Q105.4063,28.625 104.7188,27.5625 Q104.0313,26.4844 104.0313,25.2031 L104.0313,24.0469 Q104.0313,22.7188 104.6406,21.5781 Q105.2656,20.4219 106.3594,19.8125 Q107.4531,19.1875 108.6875,19.1875 Q109.4219,19.1875 110.0625,19.3594 Q110.7188,19.5156 111.2656,19.875 Z "/><text fill="#000000" font-family="sans-serif" font-size="12" lengthAdjust="spacingAndGlyphs" textLength="92" x="122.5" y="28.9102">DataReservation</text><line style="stroke: #A80036; stroke-width: 1.5;" x1="94.5" x2="216.5" y1="40" y2="40"/><text fill="#000000" font-family="sans-serif" font-size="11" lengthAdjust="spacingAndGlyphs" textLength="60" x="99.5" y="55.4189">number cost</text><line style="stroke: #A80036; stroke-width: 1.5;" x1="94.5" x2="216.5" y1="61.8359" y2="61.8359"/><!--link Model to Data--><path d="M174.203,82.082 C182.025,99.6816 190.939,119.7376 198.09,135.8286 " fill="none" id="Model-Data" style="stroke: #A80036; stroke-width: 1.0;"/><polygon fill="#A80036" points="203.394,147.7606,203.3941,137.9117,201.3634,143.1915,196.0836,141.1608,203.394,147.7606" style="stroke: #A80036; stroke-width: 1.0;"/><line style="stroke: #A80036; stroke-width: 1.0;" x1="201.3634" x2="198.114" y1="143.1915" y2="135.8811"/><polygon fill="#FFFFFF" points="168.913,70.18,167.6946,77.2874,173.7867,81.1457,175.0051,74.0383,168.913,70.18" style="stroke: #A80036; stroke-width: 1.0;"/><text fill="#000000" font-family="sans-serif" font-size="13" lengthAdjust="spacingAndGlyphs" textLength="25" x="191.5" y="114.4951">data</text><text fill="#000000" font-family="sans-serif" font-size="13" lengthAdjust="spacingAndGlyphs" textLength="7" x="192.8397" y="137.0273">1</text><!--link Model to DataSource--><path d="M205.092,78.101 C231.039,98.0364 262.147,121.9361 285.371,139.7788 " fill="none" id="Model-DataSource" style="stroke: #A80036; stroke-width: 1.0;"/><polygon fill="#A80036" points="295.76,147.7606,291.0601,139.1055,291.7951,144.7144,286.1862,145.4494,295.76,147.7606" style="stroke: #A80036; stroke-width: 1.0;"/><line style="stroke: #A80036; stroke-width: 1.0;" x1="291.7951" x2="285.451" y1="144.7144" y2="139.8404"/><polygon fill="#FFFFFF" points="194.782,70.18,197.1029,77.0074,204.2978,77.4909,201.9769,70.6635,194.782,70.18" style="stroke: #A80036; stroke-width: 1.0;"/><text fill="#000000" font-family="sans-serif" font-size="13" lengthAdjust="spacingAndGlyphs" textLength="39" x="258.5" y="114.4951">source</text><text fill="#000000" font-family="sans-serif" font-size="13" lengthAdjust="spacingAndGlyphs" textLength="7" x="280.4178" y="137.0273">1</text><!--link Model to DataRequest--><path d="M80.5105,53.682 C54.5021,62.413 28.0004,76.687 12.5,100 C3.9572,112.8487 11.3393,126.9953 22.4179,138.8847 " fill="none" id="Model-DataRequest" style="stroke: #A80036; stroke-width: 1.0;"/><polygon fill="#A80036" points="31.8616,147.868,28.0975,138.7668,28.2388,144.4219,22.5838,144.5632,31.8616,147.868" style="stroke: #A80036; stroke-width: 1.0;"/><line style="stroke: #A80036; stroke-width: 1.0;" x1="28.2388" x2="22.4425" y1="144.4219" y2="138.9081"/><polygon fill="#FFFFFF" points="93.1883,49.826,86.2839,47.7452,81.7077,53.3182,88.6121,55.399,93.1883,49.826" style="stroke: #A80036; stroke-width: 1.0;"/><text fill="#000000" font-family="sans-serif" font-size="13" lengthAdjust="spacingAndGlyphs" textLength="43" x="13.5" y="114.4951">request</text><text fill="#000000" font-family="sans-serif" font-size="13" lengthAdjust="spacingAndGlyphs" textLength="7" x="15.938" y="137.1676">1</text><!--link DataRequest to Model--><path d="M77.4477,136.8567 C85.6149,125.2277 95.2953,111.8198 104.5,100 C109.571,93.4878 115.087,86.71 120.556,80.154 " fill="none" id="DataRequest-Model" style="stroke: #A80036; stroke-width: 1.0;"/><polygon fill="#A80036" points="129.04,70.105,120.1778,74.4016,125.8146,73.9255,126.2906,79.5623,129.04,70.105" style="stroke: #A80036; stroke-width: 1.0;"/><line style="stroke: #A80036; stroke-width: 1.0;" x1="125.8146" x2="120.6545" y1="73.9255" y2="80.038"/><polygon fill="#A80036" points="69.8586,147.7681,76.5684,145.1264,76.7106,137.9167,70.0008,140.5584,69.8586,147.7681" style="stroke: #A80036; stroke-width: 1.0;"/><text fill="#000000" font-family="sans-serif" font-size="13" lengthAdjust="spacingAndGlyphs" textLength="69" x="105.5" y="114.4951">reservations</text><text fill="#000000" font-family="sans-serif" font-size="13" lengthAdjust="spacingAndGlyphs" textLength="7" x="116.1416" y="91.3497">n</text><!--
@startuml

class "DataReservation" as Model {
 number cost

 
}

rectangle "Data" as Data #lightblue {
}

Model o- -> "1" Data : data


rectangle "DataSource" as DataSource #lightblue {
}

Model o- -> "1" DataSource : source


rectangle "DataRequest" as DataRequest #lightblue {
}

Model o- -> "1" DataRequest : request




    rectangle "DataRequest" as DataRequest #lightgreen {
    }
    
        DataRequest   *- -> "n" Model : "reservations"
    

@enduml

PlantUML version 1.2019.05(Sat Apr 20 09:45:36 PDT 2019)
(GPL source distribution)
Java Runtime: OpenJDK Runtime Environment
JVM: OpenJDK 64-Bit Server VM
Java Version: 12.0.1+12
Operating System: Windows 10
OS Version: 10.0
Default Encoding: Cp1252
Language: en
Country: US
--></g></svg>