<?xml version="1.0" encoding="UTF-8" standalone="no"?><svg xmlns="http://www.w3.org/2000/svg" xmlns:xlink="http://www.w3.org/1999/xlink" contentScriptType="application/ecmascript" contentStyleType="text/css" height="326px" preserveAspectRatio="none" style="width:246px;height:326px;" version="1.1" viewBox="0 0 246 326" width="246px" zoomAndPan="magnify"><defs><filter height="300%" id="f341nkr8qqahe" width="300%" x="-1" y="-1"><feGaussianBlur result="blurOut" stdDeviation="2.0"/><feColorMatrix in="blurOut" result="blurOut2" type="matrix" values="0 0 0 0 0 0 0 0 0 0 0 0 0 0 0 0 0 0 .4 0"/><feOffset dx="4.0" dy="4.0" in="blurOut2" result="blurOut3"/><feBlend in="SourceGraphic" in2="blurOut3" mode="normal"/></filter></defs><g><!--entity DataBluePrintInstance--><rect fill="#90EE90" filter="url(#f341nkr8qqahe)" height="37.6094" style="stroke: #000000; stroke-width: 1.5;" width="160" x="54.5" y="8"/><text fill="#000000" font-family="sans-serif" font-size="14" lengthAdjust="spacingAndGlyphs" textLength="140" x="64.5" y="32.5332">DataBluePrintInstance</text><!--entity DataFlow--><rect fill="#ADD8E6" filter="url(#f341nkr8qqahe)" height="37.6094" style="stroke: #000000; stroke-width: 1.5;" width="79" x="6" y="278"/><text fill="#000000" font-family="sans-serif" font-size="14" lengthAdjust="spacingAndGlyphs" textLength="59" x="16" y="302.5332">DataFlow</text><!--entity DataSource--><rect fill="#ADD8E6" filter="url(#f341nkr8qqahe)" height="37.6094" style="stroke: #000000; stroke-width: 1.5;" width="95" x="140" y="278"/><text fill="#000000" font-family="sans-serif" font-size="14" lengthAdjust="spacingAndGlyphs" textLength="75" x="150" y="302.5332">DataSource</text><!--class Model--><rect fill="#FEFECE" filter="url(#f341nkr8qqahe)" height="75.6719" id="Model" style="stroke: #A80036; stroke-width: 1.5;" width="131" x="69" y="124"/><ellipse cx="84" cy="140" fill="#ADD1B2" rx="11" ry="11" style="stroke: #A80036; stroke-width: 1.0;"/><path d="M86.7656,135.875 Q86.9219,135.6563 87.1094,135.5469 Q87.2969,135.4375 87.5156,135.4375 Q87.8906,135.4375 88.125,135.7031 Q88.3594,135.9531 88.3594,136.5625 L88.3594,138.0156 Q88.3594,138.625 88.125,138.8906 Q87.8906,139.1563 87.5156,139.1563 Q87.1719,139.1563 86.9688,138.9531 Q86.7656,138.7656 86.6563,138.25 Q86.6094,137.8906 86.4219,137.7031 Q86.0938,137.3281 85.4844,137.1094 Q84.875,136.8906 84.25,136.8906 Q83.4844,136.8906 82.8438,137.2188 Q82.2188,137.5469 81.7188,138.2969 Q81.2344,139.0469 81.2344,140.0781 L81.2344,141.1719 Q81.2344,142.4063 82.125,143.2344 Q83.0156,144.0469 84.6094,144.0469 Q85.5469,144.0469 86.2031,143.7969 Q86.5938,143.6406 87.0156,143.2031 Q87.2813,142.9375 87.4219,142.8594 Q87.5781,142.7813 87.7813,142.7813 Q88.1094,142.7813 88.3594,143.0469 Q88.625,143.2969 88.625,143.6406 Q88.625,143.9844 88.2813,144.3906 Q87.7813,144.9688 86.9844,145.2969 Q85.9063,145.75 84.6094,145.75 Q83.0938,145.75 81.8906,145.125 Q80.9063,144.625 80.2188,143.5625 Q79.5313,142.4844 79.5313,141.2031 L79.5313,140.0469 Q79.5313,138.7188 80.1406,137.5781 Q80.7656,136.4219 81.8594,135.8125 Q82.9531,135.1875 84.1875,135.1875 Q84.9219,135.1875 85.5625,135.3594 Q86.2188,135.5156 86.7656,135.875 Z "/><text fill="#000000" font-family="sans-serif" font-size="12" lengthAdjust="spacingAndGlyphs" textLength="99" x="98" y="144.9102">DataFlowInstance</text><line style="stroke: #A80036; stroke-width: 1.5;" x1="70" x2="199" y1="156" y2="156"/><text fill="#000000" font-family="sans-serif" font-size="11" lengthAdjust="spacingAndGlyphs" textLength="56" x="75" y="171.4189">string name</text><line style="stroke: #A80036; stroke-width: 1.5;" x1="70" x2="199" y1="177.8359" y2="177.8359"/><text fill="#000000" font-family="sans-serif" font-size="11" lengthAdjust="spacingAndGlyphs" textLength="39" x="75" y="193.2549">create()</text><!--link Model to DataBluePrintInstance--><path d="M134.5,110.829 C134.5,93.587 134.5,74.784 134.5,59.457 " fill="none" id="Model-DataBluePrintInstance" style="stroke: #A80036; stroke-width: 1.0;"/><polygon fill="#A80036" points="134.5,46.214,130.5,55.214,134.5,51.214,138.5,55.214,134.5,46.214" style="stroke: #A80036; stroke-width: 1.0;"/><line style="stroke: #A80036; stroke-width: 1.0;" x1="134.5" x2="134.5" y1="51.214" y2="59.214"/><polygon fill="#FFFFFF" points="134.5,123.924,138.5,117.924,134.5,111.924,130.5,117.924,134.5,123.924" style="stroke: #A80036; stroke-width: 1.0;"/><text fill="#000000" font-family="sans-serif" font-size="13" lengthAdjust="spacingAndGlyphs" textLength="49" x="135.5" y="90.4951">blueprint</text><text fill="#000000" font-family="sans-serif" font-size="13" lengthAdjust="spacingAndGlyphs" textLength="7" x="126.5594" y="67.1226">1</text><!--link DataBluePrintInstance to Model--><path d="M106.392,56.309 C101.9258,62.362 97.9698,69.044 95.5,76 C91.2667,87.924 93.2247,100.464 97.9969,112.142 " fill="none" id="DataBluePrintInstance-Model" style="stroke: #A80036; stroke-width: 1.0;"/><polygon fill="#A80036" points="103.8473,123.936,103.4321,114.0959,101.6258,119.4566,96.2651,117.6503,103.8473,123.936" style="stroke: #A80036; stroke-width: 1.0;"/><line style="stroke: #A80036; stroke-width: 1.0;" x1="101.6258" x2="98.0706" y1="119.4566" y2="112.2905"/><polygon fill="#FFFFFF" points="114.77,46.169,107.8647,48.2468,107.1268,55.4201,114.0321,53.3422,114.77,46.169" style="stroke: #A80036; stroke-width: 1.0;"/><text fill="#000000" font-family="sans-serif" font-size="13" lengthAdjust="spacingAndGlyphs" textLength="29" x="96.5" y="90.4951">flows</text><text fill="#000000" font-family="sans-serif" font-size="13" lengthAdjust="spacingAndGlyphs" textLength="7" x="90.5504" y="113.0007">n</text><!--link Model to DataFlow--><path d="M84.2843,210.038 C78.8759,216.4253 73.7902,223.1496 69.5,230 C62.7556,240.7692 57.525,253.7084 53.6933,265.2661 " fill="none" id="Model-DataFlow" style="stroke: #A80036; stroke-width: 1.0;"/><polygon fill="#A80036" points="49.8311,277.9863,56.2734,270.5367,51.2838,273.202,48.6185,268.2124,49.8311,277.9863" style="stroke: #A80036; stroke-width: 1.0;"/><line style="stroke: #A80036; stroke-width: 1.0;" x1="51.2838" x2="53.6081" y1="273.202" y2="265.5471"/><polygon fill="#FFFFFF" points="92.9808,200.309,86,202.117,84.984,209.2562,91.9648,207.4482,92.9808,200.309" style="stroke: #A80036; stroke-width: 1.0;"/><text fill="#000000" font-family="sans-serif" font-size="13" lengthAdjust="spacingAndGlyphs" textLength="47" x="70.5" y="244.4951">dataflow</text><text fill="#000000" font-family="sans-serif" font-size="13" lengthAdjust="spacingAndGlyphs" textLength="7" x="43.096" y="266.9891">1</text><!--link Model to DataSource--><path d="M125.196,213.103 C125.009,224.9665 126.569,237.2783 131.5,248 C135.117,255.8635 140.728,262.9208 147.027,269.0495 " fill="none" id="Model-DataSource" style="stroke: #A80036; stroke-width: 1.0;"/><polygon fill="#A80036" points="157.307,277.8983,153.0958,268.9952,153.5177,274.6363,147.8766,275.0581,157.307,277.8983" style="stroke: #A80036; stroke-width: 1.0;"/><line style="stroke: #A80036; stroke-width: 1.0;" x1="153.5177" x2="147.4545" y1="274.6363" y2="269.4171"/><polygon fill="#FFFFFF" points="126.063,200.007,121.6755,205.7297,125.2705,211.9808,129.658,206.2581,126.063,200.007" style="stroke: #A80036; stroke-width: 1.0;"/><text fill="#000000" font-family="sans-serif" font-size="13" lengthAdjust="spacingAndGlyphs" textLength="31" x="132.5" y="244.4951">sinks</text><text fill="#000000" font-family="sans-serif" font-size="13" lengthAdjust="spacingAndGlyphs" textLength="7" x="139.9885" y="267.2072">n</text><!--link Model to DataSource--><path d="M160.805,212.244 C163.568,218.1537 166.203,224.1625 168.5,230 C172.908,241.2011 176.795,253.8316 179.885,265.0222 " fill="none" id="Model-DataSource-1" style="stroke: #A80036; stroke-width: 1.0;"/><polygon fill="#A80036" points="183.241,277.7655,184.8168,268.0435,181.9675,272.9304,177.0806,270.0811,183.241,277.7655" style="stroke: #A80036; stroke-width: 1.0;"/><line style="stroke: #A80036; stroke-width: 1.0;" x1="181.9675" x2="179.93" y1="272.9304" y2="265.1942"/><polygon fill="#FFFFFF" points="155.018,200.339,154.0431,207.4839,160.2634,211.1318,161.2383,203.9869,155.018,200.339" style="stroke: #A80036; stroke-width: 1.0;"/><text fill="#000000" font-family="sans-serif" font-size="13" lengthAdjust="spacingAndGlyphs" textLength="46" x="175.5" y="244.4951">sources</text><text fill="#000000" font-family="sans-serif" font-size="13" lengthAdjust="spacingAndGlyphs" textLength="7" x="173.8648" y="267.0337">n</text><!--
@startuml

class "DataFlowInstance" as Model {
 string name

 create()
 
}

rectangle "DataBluePrintInstance" as DataBluePrintInstance #lightblue {
}

Model o- -> "1" DataBluePrintInstance : blueprint


rectangle "DataFlow" as DataFlow #lightblue {
}

Model o- -> "1" DataFlow : dataflow


rectangle "DataSource" as DataSource #lightblue {
}

Model o- -> "n" DataSource : sinks


rectangle "DataSource" as DataSource #lightblue {
}

Model o- -> "n" DataSource : sources




    rectangle "DataBluePrintInstance" as DataBluePrintInstance #lightgreen {
    }
    
        DataBluePrintInstance   o- -> "n" Model : "flows"
    

@enduml

PlantUML version 1.2019.05(Sat Apr 20 09:45:36 PDT 2019)
(GPL source distribution)
Java Runtime: OpenJDK Runtime Environment
JVM: OpenJDK 64-Bit Server VM
Java Version: 12.0.1+12
Operating System: Windows 10
OS Version: 10.0
Default Encoding: Cp1252
Language: en
Country: US
--></g></svg>