<?xml version="1.0" encoding="UTF-8" standalone="no"?><svg xmlns="http://www.w3.org/2000/svg" xmlns:xlink="http://www.w3.org/1999/xlink" contentScriptType="application/ecmascript" contentStyleType="text/css" height="456px" preserveAspectRatio="none" style="width:631px;height:456px;" version="1.1" viewBox="0 0 631 456" width="631px" zoomAndPan="magnify"><defs><filter height="300%" id="f1iag6z9t06xw3" width="300%" x="-1" y="-1"><feGaussianBlur result="blurOut" stdDeviation="2.0"/><feColorMatrix in="blurOut" result="blurOut2" type="matrix" values="0 0 0 0 0 0 0 0 0 0 0 0 0 0 0 0 0 0 .4 0"/><feOffset dx="4.0" dy="4.0" in="blurOut2" result="blurOut3"/><feBlend in="SourceGraphic" in2="blurOut3" mode="normal"/></filter></defs><g><!--cluster Service Management Layer--><polygon fill="#90EE90" filter="url(#f1iag6z9t06xw3)" points="190,344,387,344,394,367.6094,397,367.6094,397,444,190,444,190,344" style="stroke: #000000; stroke-width: 1.5;"/><line style="stroke: #000000; stroke-width: 1.5;" x1="190" x2="394" y1="367.6094" y2="367.6094"/><text fill="#000000" font-family="sans-serif" font-size="14" font-weight="bold" lengthAdjust="spacingAndGlyphs" textLength="191" x="194" y="360.5332">Service Management Layer</text><!--cluster Security Aspect--><polygon fill="#FFC0CB" filter="url(#f1iag6z9t06xw3)" points="421,344,536,344,543,367.6094,573,367.6094,573,444,421,444,421,344" style="stroke: #000000; stroke-width: 1.5;"/><line style="stroke: #000000; stroke-width: 1.5;" x1="421" x2="543" y1="367.6094" y2="367.6094"/><text fill="#000000" font-family="sans-serif" font-size="14" font-weight="bold" lengthAdjust="spacingAndGlyphs" textLength="109" x="425" y="360.5332">Security Aspect</text><!--cluster Environment Management--><polygon fill="#90EE90" filter="url(#f1iag6z9t06xw3)" points="179,73,370,73,377,96.6094,609,96.6094,609,286,179,286,179,73" style="stroke: #000000; stroke-width: 1.5;"/><line style="stroke: #000000; stroke-width: 1.5;" x1="179" x2="377" y1="96.6094" y2="96.6094"/><text fill="#000000" font-family="sans-serif" font-size="14" font-weight="bold" lengthAdjust="spacingAndGlyphs" textLength="185" x="183" y="89.5332">Environment Management</text><polygon fill="#90EE90" filter="url(#f1iag6z9t06xw3)" points="6,376.5,160,376.5,167,400.1094,174,400.1094,174,431.7188,6,431.7188,6,376.5" style="stroke: #000000; stroke-width: 1.5;"/><line style="stroke: #000000; stroke-width: 1.5;" x1="6" x2="167" y1="400.1094" y2="400.1094"/><text fill="#000000" font-family="sans-serif" font-size="14" font-weight="bold" lengthAdjust="spacingAndGlyphs" textLength="148" x="10" y="393.0332">Service Orchestrator</text><!--class MultiCloud--><rect fill="#FEFECE" filter="url(#f1iag6z9t06xw3)" height="48" id="MultiCloud" style="stroke: #A80036; stroke-width: 1.5;" width="90" x="228" y="380"/><ellipse cx="243" cy="396" fill="#ADD1B2" rx="11" ry="11" style="stroke: #A80036; stroke-width: 1.0;"/><path d="M245.7656,391.875 Q245.9219,391.6563 246.1094,391.5469 Q246.2969,391.4375 246.5156,391.4375 Q246.8906,391.4375 247.125,391.7031 Q247.3594,391.9531 247.3594,392.5625 L247.3594,394.0156 Q247.3594,394.625 247.125,394.8906 Q246.8906,395.1563 246.5156,395.1563 Q246.1719,395.1563 245.9688,394.9531 Q245.7656,394.7656 245.6563,394.25 Q245.6094,393.8906 245.4219,393.7031 Q245.0938,393.3281 244.4844,393.1094 Q243.875,392.8906 243.25,392.8906 Q242.4844,392.8906 241.8438,393.2188 Q241.2188,393.5469 240.7188,394.2969 Q240.2344,395.0469 240.2344,396.0781 L240.2344,397.1719 Q240.2344,398.4063 241.125,399.2344 Q242.0156,400.0469 243.6094,400.0469 Q244.5469,400.0469 245.2031,399.7969 Q245.5938,399.6406 246.0156,399.2031 Q246.2813,398.9375 246.4219,398.8594 Q246.5781,398.7813 246.7813,398.7813 Q247.1094,398.7813 247.3594,399.0469 Q247.625,399.2969 247.625,399.6406 Q247.625,399.9844 247.2813,400.3906 Q246.7813,400.9688 245.9844,401.2969 Q244.9063,401.75 243.6094,401.75 Q242.0938,401.75 240.8906,401.125 Q239.9063,400.625 239.2188,399.5625 Q238.5313,398.4844 238.5313,397.2031 L238.5313,396.0469 Q238.5313,394.7188 239.1406,393.5781 Q239.7656,392.4219 240.8594,391.8125 Q241.9531,391.1875 243.1875,391.1875 Q243.9219,391.1875 244.5625,391.3594 Q245.2188,391.5156 245.7656,391.875 Z "/><text fill="#000000" font-family="sans-serif" font-size="12" lengthAdjust="spacingAndGlyphs" textLength="58" x="257" y="400.9102">MultiCloud</text><line style="stroke: #A80036; stroke-width: 1.5;" x1="229" x2="317" y1="412" y2="412"/><line style="stroke: #A80036; stroke-width: 1.5;" x1="229" x2="317" y1="420" y2="420"/><!--class PolicyCollection--><rect fill="#FEFECE" filter="url(#f1iag6z9t06xw3)" height="48" id="PolicyCollection" style="stroke: #A80036; stroke-width: 1.5;" width="119" x="437.5" y="380"/><ellipse cx="452.5" cy="396" fill="#ADD1B2" rx="11" ry="11" style="stroke: #A80036; stroke-width: 1.0;"/><path d="M455.2656,391.875 Q455.4219,391.6563 455.6094,391.5469 Q455.7969,391.4375 456.0156,391.4375 Q456.3906,391.4375 456.625,391.7031 Q456.8594,391.9531 456.8594,392.5625 L456.8594,394.0156 Q456.8594,394.625 456.625,394.8906 Q456.3906,395.1563 456.0156,395.1563 Q455.6719,395.1563 455.4688,394.9531 Q455.2656,394.7656 455.1563,394.25 Q455.1094,393.8906 454.9219,393.7031 Q454.5938,393.3281 453.9844,393.1094 Q453.375,392.8906 452.75,392.8906 Q451.9844,392.8906 451.3438,393.2188 Q450.7188,393.5469 450.2188,394.2969 Q449.7344,395.0469 449.7344,396.0781 L449.7344,397.1719 Q449.7344,398.4063 450.625,399.2344 Q451.5156,400.0469 453.1094,400.0469 Q454.0469,400.0469 454.7031,399.7969 Q455.0938,399.6406 455.5156,399.2031 Q455.7813,398.9375 455.9219,398.8594 Q456.0781,398.7813 456.2813,398.7813 Q456.6094,398.7813 456.8594,399.0469 Q457.125,399.2969 457.125,399.6406 Q457.125,399.9844 456.7813,400.3906 Q456.2813,400.9688 455.4844,401.2969 Q454.4063,401.75 453.1094,401.75 Q451.5938,401.75 450.3906,401.125 Q449.4063,400.625 448.7188,399.5625 Q448.0313,398.4844 448.0313,397.2031 L448.0313,396.0469 Q448.0313,394.7188 448.6406,393.5781 Q449.2656,392.4219 450.3594,391.8125 Q451.4531,391.1875 452.6875,391.1875 Q453.4219,391.1875 454.0625,391.3594 Q454.7188,391.5156 455.2656,391.875 Z "/><text fill="#000000" font-family="sans-serif" font-size="12" lengthAdjust="spacingAndGlyphs" textLength="87" x="466.5" y="400.9102">PolicyCollection</text><line style="stroke: #A80036; stroke-width: 1.5;" x1="438.5" x2="555.5" y1="412" y2="412"/><line style="stroke: #A80036; stroke-width: 1.5;" x1="438.5" x2="555.5" y1="420" y2="420"/><!--class i--><rect fill="#FEFECE" filter="url(#f1iag6z9t06xw3)" height="144.8516" id="i" style="stroke: #A80036; stroke-width: 1.5;" width="226" x="359" y="117"/><ellipse cx="396.05" cy="133" fill="#B4A7E5" rx="11" ry="11" style="stroke: #A80036; stroke-width: 1.0;"/><path d="M397.0031,129.6406 L397.0031,136.2969 L398.7219,136.2969 Q399.3313,136.2969 399.5969,136.5313 Q399.8625,136.7656 399.8625,137.1563 Q399.8625,137.5313 399.5969,137.7656 Q399.3313,138 398.7219,138 L393.5813,138 Q392.9719,138 392.7063,137.7656 Q392.4406,137.5313 392.4406,137.1406 Q392.4406,136.7656 392.7063,136.5313 Q392.9719,136.2969 393.5813,136.2969 L395.3,136.2969 L395.3,129.6406 L393.5813,129.6406 Q392.9719,129.6406 392.7063,129.4063 Q392.4406,129.1719 392.4406,128.7813 Q392.4406,128.4063 392.7063,128.1719 Q392.9719,127.9375 393.5813,127.9375 L398.7219,127.9375 Q399.3313,127.9375 399.5969,128.1719 Q399.8625,128.4063 399.8625,128.7813 Q399.8625,129.1719 399.5969,129.4063 Q399.3313,129.6406 398.7219,129.6406 L397.0031,129.6406 Z "/><text fill="#000000" font-family="sans-serif" font-size="12" font-style="italic" lengthAdjust="spacingAndGlyphs" textLength="145" x="414.95" y="137.9102">Environment Management</text><line style="stroke: #A80036; stroke-width: 1.5;" x1="360" x2="584" y1="149" y2="149"/><line style="stroke: #A80036; stroke-width: 1.5;" x1="360" x2="584" y1="157" y2="157"/><text fill="#000000" font-family="sans-serif" font-size="11" lengthAdjust="spacingAndGlyphs" textLength="214" x="365" y="172.4189">/edgemere/sml/em/environment/addpolicies()</text><text fill="#000000" font-family="sans-serif" font-size="11" lengthAdjust="spacingAndGlyphs" textLength="191" x="365" y="186.2549">/edgemere/sml/em/environment/create()</text><text fill="#000000" font-family="sans-serif" font-size="11" lengthAdjust="spacingAndGlyphs" textLength="197" x="365" y="200.0908">/edgemere/sml/em/environment/destroy()</text><text fill="#000000" font-family="sans-serif" font-size="11" lengthAdjust="spacingAndGlyphs" textLength="194" x="365" y="213.9268">/edgemere/sml/em/environment/disable()</text><text fill="#000000" font-family="sans-serif" font-size="11" lengthAdjust="spacingAndGlyphs" textLength="192" x="365" y="227.7627">/edgemere/sml/em/environment/enable()</text><text fill="#000000" font-family="sans-serif" font-size="11" lengthAdjust="spacingAndGlyphs" textLength="173" x="365" y="241.5986">/edgemere/sml/em/environment/list()</text><text fill="#000000" font-family="sans-serif" font-size="11" lengthAdjust="spacingAndGlyphs" textLength="193" x="365" y="255.4346">/edgemere/sml/em/environment/update()</text><!--class Environment--><rect fill="#FEFECE" filter="url(#f1iag6z9t06xw3)" height="61.8359" id="Environment" style="stroke: #A80036; stroke-width: 1.5;" width="101" x="222.5" y="158.5"/><ellipse cx="237.5" cy="174.5" fill="#ADD1B2" rx="11" ry="11" style="stroke: #A80036; stroke-width: 1.0;"/><path d="M240.2656,170.375 Q240.4219,170.1563 240.6094,170.0469 Q240.7969,169.9375 241.0156,169.9375 Q241.3906,169.9375 241.625,170.2031 Q241.8594,170.4531 241.8594,171.0625 L241.8594,172.5156 Q241.8594,173.125 241.625,173.3906 Q241.3906,173.6563 241.0156,173.6563 Q240.6719,173.6563 240.4688,173.4531 Q240.2656,173.2656 240.1563,172.75 Q240.1094,172.3906 239.9219,172.2031 Q239.5938,171.8281 238.9844,171.6094 Q238.375,171.3906 237.75,171.3906 Q236.9844,171.3906 236.3438,171.7188 Q235.7188,172.0469 235.2188,172.7969 Q234.7344,173.5469 234.7344,174.5781 L234.7344,175.6719 Q234.7344,176.9063 235.625,177.7344 Q236.5156,178.5469 238.1094,178.5469 Q239.0469,178.5469 239.7031,178.2969 Q240.0938,178.1406 240.5156,177.7031 Q240.7813,177.4375 240.9219,177.3594 Q241.0781,177.2813 241.2813,177.2813 Q241.6094,177.2813 241.8594,177.5469 Q242.125,177.7969 242.125,178.1406 Q242.125,178.4844 241.7813,178.8906 Q241.2813,179.4688 240.4844,179.7969 Q239.4063,180.25 238.1094,180.25 Q236.5938,180.25 235.3906,179.625 Q234.4063,179.125 233.7188,178.0625 Q233.0313,176.9844 233.0313,175.7031 L233.0313,174.5469 Q233.0313,173.2188 233.6406,172.0781 Q234.2656,170.9219 235.3594,170.3125 Q236.4531,169.6875 237.6875,169.6875 Q238.4219,169.6875 239.0625,169.8594 Q239.7188,170.0156 240.2656,170.375 Z "/><text fill="#000000" font-family="sans-serif" font-size="12" lengthAdjust="spacingAndGlyphs" textLength="69" x="251.5" y="179.4102">Environment</text><line style="stroke: #A80036; stroke-width: 1.5;" x1="223.5" x2="322.5" y1="190.5" y2="190.5"/><text fill="#000000" font-family="sans-serif" font-size="11" lengthAdjust="spacingAndGlyphs" textLength="56" x="228.5" y="205.9189">string name</text><line style="stroke: #A80036; stroke-width: 1.5;" x1="223.5" x2="322.5" y1="212.3359" y2="212.3359"/><ellipse cx="427" cy="13" fill="#FEFECE" filter="url(#f1iag6z9t06xw3)" rx="5" ry="5" style="stroke: #A80036; stroke-width: 1.5;"/><text fill="#000000" font-family="sans-serif" font-size="12" lengthAdjust="spacingAndGlyphs" textLength="19" x="417.5" y="30.457">CLI</text><ellipse cx="472" cy="13" fill="#FEFECE" filter="url(#f1iag6z9t06xw3)" rx="5" ry="5" style="stroke: #A80036; stroke-width: 1.5;"/><text fill="#000000" font-family="sans-serif" font-size="12" lengthAdjust="spacingAndGlyphs" textLength="32" x="456" y="30.457">REST</text><ellipse cx="517" cy="13" fill="#FEFECE" filter="url(#f1iag6z9t06xw3)" rx="5" ry="5" style="stroke: #A80036; stroke-width: 1.5;"/><text fill="#000000" font-family="sans-serif" font-size="12" lengthAdjust="spacingAndGlyphs" textLength="25" x="504.5" y="30.457">Web</text><!--link ilol8546 to i--><path d="M428.024,17.973 C431.478,31.366 443.062,76.285 453.474,116.658 " fill="none" id="ilol8546-i" style="stroke: #A80036; stroke-width: 1.0;"/><!--link ilol8549 to i--><path d="M472,18.314 C472,32.117 472,76.644 472,116.69 " fill="none" id="ilol8549-i" style="stroke: #A80036; stroke-width: 1.0;"/><!--link ilol8552 to i--><path d="M515.976,17.973 C512.522,31.366 500.938,76.285 490.526,116.658 " fill="none" id="ilol8552-i" style="stroke: #A80036; stroke-width: 1.0;"/><!--link Environment to MultiCloud--><path d="M273,234.151 C273,273.143 273,329.616 273,366.3215 " fill="none" id="Environment-MultiCloud" style="stroke: #A80036; stroke-width: 1.0;"/><polygon fill="#A80036" points="273,379.8067,277,370.8067,273,374.8067,269,370.8067,273,379.8067" style="stroke: #A80036; stroke-width: 1.0;"/><line style="stroke: #A80036; stroke-width: 1.0;" x1="273" x2="273" y1="374.8067" y2="366.8067"/><polygon fill="#FFFFFF" points="273,220.946,269,226.946,273,232.946,277,226.946,273,220.946" style="stroke: #A80036; stroke-width: 1.0;"/><text fill="#000000" font-family="sans-serif" font-size="13" lengthAdjust="spacingAndGlyphs" textLength="38" x="274" y="324.4951">clouds</text><text fill="#000000" font-family="sans-serif" font-size="13" lengthAdjust="spacingAndGlyphs" textLength="7" x="265.1031" y="369.0973">n</text><!--link Environment to PolicyCollection--><path d="M292.942,232.777 C304.814,255.051 321.384,281.849 341,302 C369.137,330.905 407,355.668 438.378,373.4388 " fill="none" id="Environment-PolicyCollection" style="stroke: #A80036; stroke-width: 1.0;"/><polygon fill="#A80036" points="450.052,379.9016,444.1151,372.0433,445.6775,377.4801,440.2407,379.0425,450.052,379.9016" style="stroke: #A80036; stroke-width: 1.0;"/><line style="stroke: #A80036; stroke-width: 1.0;" x1="445.6775" x2="438.6785" y1="377.4801" y2="373.6053"/><polygon fill="#FFFFFF" points="286.841,220.939,286.0342,228.1048,292.3385,231.6057,293.1453,224.4398,286.841,220.939" style="stroke: #A80036; stroke-width: 1.0;"/><text fill="#000000" font-family="sans-serif" font-size="13" lengthAdjust="spacingAndGlyphs" textLength="44" x="369" y="324.4951">policies</text><text fill="#000000" font-family="sans-serif" font-size="13" lengthAdjust="spacingAndGlyphs" textLength="7" x="430.1247" y="369.2165">1</text><!--link Environment Management to Service Orchestrator--><path d="M178.8718,208.3064 C178.2132,209.7493 177.521,211.2658 176.7975,212.8506 C171.01,225.5294 163.2258,242.5823 154.6853,261.2921 C137.6044,298.7117 117.4983,342.7588 104.2895,371.6956 " fill="none" id="Environment Management-Service Orchestrator" style="stroke: #A80036; stroke-width: 1.0;"/><polygon fill="#A80036" points="102.1287,376.4293,109.5049,369.903,104.205,371.8808,102.2273,366.5809,102.1287,376.4293" style="stroke: #A80036; stroke-width: 1.0;"/><!--
@startuml


package "Service Orchestrator" #lightgreen {
    }

package "Service Management Layer" #lightgreen {
    
        class MultiCloud {
        }
    }

package "Security Aspect" #pink {
    
        class PolicyCollection {
        }
    }


package "Environment Management" #lightgreen {

    interface "Environment Management" as i {
            /edgemere/sml/em/environment/addpolicies()
            /edgemere/sml/em/environment/create()
            /edgemere/sml/em/environment/destroy()
            /edgemere/sml/em/environment/disable()
            /edgemere/sml/em/environment/enable()
            /edgemere/sml/em/environment/list()
            /edgemere/sml/em/environment/update()
    
    }
}

CLI ()- - i
REST ()- - i
Web ()- - i

package "Environment Management" #lightgreen {
        class "Environment" {
                 string name
                    }
                Environment o- -> "n" MultiCloud : clouds
                        Environment o- -> "1" PolicyCollection : policies
            
    

}


    "Environment Management" - -> "Service Orchestrator"


@enduml

PlantUML version 1.2019.05(Sat Apr 20 09:45:36 PDT 2019)
(GPL source distribution)
Java Runtime: OpenJDK Runtime Environment
JVM: OpenJDK 64-Bit Server VM
Java Version: 12.0.1+12
Operating System: Windows 10
OS Version: 10.0
Default Encoding: Cp1252
Language: en
Country: US
--></g></svg>