<?xml version="1.0" encoding="UTF-8" standalone="no"?><svg xmlns="http://www.w3.org/2000/svg" xmlns:xlink="http://www.w3.org/1999/xlink" contentScriptType="application/ecmascript" contentStyleType="text/css" height="403px" preserveAspectRatio="none" style="width:720px;height:403px;" version="1.1" viewBox="0 0 720 403" width="720px" zoomAndPan="magnify"><defs><filter height="300%" id="f1e86fl9s63d38" width="300%" x="-1" y="-1"><feGaussianBlur result="blurOut" stdDeviation="2.0"/><feColorMatrix in="blurOut" result="blurOut2" type="matrix" values="0 0 0 0 0 0 0 0 0 0 0 0 0 0 0 0 0 0 .4 0"/><feOffset dx="4.0" dy="4.0" in="blurOut2" result="blurOut3"/><feBlend in="SourceGraphic" in2="blurOut3" mode="normal"/></filter></defs><g><!--cluster Environment Management--><polygon fill="#90EE90" filter="url(#f1e86fl9s63d38)" points="82,87,273,87,280,110.6094,375,110.6094,375,300,82,300,82,87" style="stroke: #000000; stroke-width: 1.5;"/><line style="stroke: #000000; stroke-width: 1.5;" x1="82" x2="280" y1="110.6094" y2="110.6094"/><text fill="#000000" font-family="sans-serif" font-size="14" font-weight="bold" lengthAdjust="spacingAndGlyphs" textLength="185" x="86" y="103.5332">Environment Management</text><polygon fill="#90EE90" filter="url(#f1e86fl9s63d38)" points="6,336,160,336,167,359.6094,174,359.6094,174,391.2188,6,391.2188,6,336" style="stroke: #000000; stroke-width: 1.5;"/><line style="stroke: #000000; stroke-width: 1.5;" x1="6" x2="167" y1="359.6094" y2="359.6094"/><text fill="#000000" font-family="sans-serif" font-size="14" font-weight="bold" lengthAdjust="spacingAndGlyphs" textLength="148" x="10" y="352.5332">Service Orchestrator</text><polygon fill="#90EE90" filter="url(#f1e86fl9s63d38)" points="323.5,8,520.5,8,527.5,31.6094,534.5,31.6094,534.5,63.2188,323.5,63.2188,323.5,8" style="stroke: #000000; stroke-width: 1.5;"/><line style="stroke: #000000; stroke-width: 1.5;" x1="323.5" x2="527.5" y1="31.6094" y2="31.6094"/><text fill="#000000" font-family="sans-serif" font-size="14" font-weight="bold" lengthAdjust="spacingAndGlyphs" textLength="191" x="327.5" y="24.5332">Service Management Layer</text><polygon fill="#FFC0CB" filter="url(#f1e86fl9s63d38)" points="569.5,8,684.5,8,691.5,31.6094,698.5,31.6094,698.5,63.2188,569.5,63.2188,569.5,8" style="stroke: #000000; stroke-width: 1.5;"/><line style="stroke: #000000; stroke-width: 1.5;" x1="569.5" x2="691.5" y1="31.6094" y2="31.6094"/><text fill="#000000" font-family="sans-serif" font-size="14" font-weight="bold" lengthAdjust="spacingAndGlyphs" textLength="109" x="573.5" y="24.5332">Security Aspect</text><!--class i--><rect fill="#FEFECE" filter="url(#f1e86fl9s63d38)" height="144.8516" id="i" style="stroke: #A80036; stroke-width: 1.5;" width="226" x="125" y="131"/><ellipse cx="162.05" cy="147" fill="#B4A7E5" rx="11" ry="11" style="stroke: #A80036; stroke-width: 1.0;"/><path d="M163.0031,143.6406 L163.0031,150.2969 L164.7219,150.2969 Q165.3313,150.2969 165.5969,150.5313 Q165.8625,150.7656 165.8625,151.1563 Q165.8625,151.5313 165.5969,151.7656 Q165.3313,152 164.7219,152 L159.5813,152 Q158.9719,152 158.7063,151.7656 Q158.4406,151.5313 158.4406,151.1406 Q158.4406,150.7656 158.7063,150.5313 Q158.9719,150.2969 159.5813,150.2969 L161.3,150.2969 L161.3,143.6406 L159.5813,143.6406 Q158.9719,143.6406 158.7063,143.4063 Q158.4406,143.1719 158.4406,142.7813 Q158.4406,142.4063 158.7063,142.1719 Q158.9719,141.9375 159.5813,141.9375 L164.7219,141.9375 Q165.3313,141.9375 165.5969,142.1719 Q165.8625,142.4063 165.8625,142.7813 Q165.8625,143.1719 165.5969,143.4063 Q165.3313,143.6406 164.7219,143.6406 L163.0031,143.6406 Z "/><text fill="#000000" font-family="sans-serif" font-size="12" font-style="italic" lengthAdjust="spacingAndGlyphs" textLength="145" x="180.95" y="151.9102">Environment Management</text><line style="stroke: #A80036; stroke-width: 1.5;" x1="126" x2="350" y1="163" y2="163"/><line style="stroke: #A80036; stroke-width: 1.5;" x1="126" x2="350" y1="171" y2="171"/><text fill="#000000" font-family="sans-serif" font-size="11" lengthAdjust="spacingAndGlyphs" textLength="214" x="131" y="186.4189">/edgemere/sml/em/environment/addpolicies()</text><text fill="#000000" font-family="sans-serif" font-size="11" lengthAdjust="spacingAndGlyphs" textLength="191" x="131" y="200.2549">/edgemere/sml/em/environment/create()</text><text fill="#000000" font-family="sans-serif" font-size="11" lengthAdjust="spacingAndGlyphs" textLength="197" x="131" y="214.0908">/edgemere/sml/em/environment/destroy()</text><text fill="#000000" font-family="sans-serif" font-size="11" lengthAdjust="spacingAndGlyphs" textLength="194" x="131" y="227.9268">/edgemere/sml/em/environment/disable()</text><text fill="#000000" font-family="sans-serif" font-size="11" lengthAdjust="spacingAndGlyphs" textLength="192" x="131" y="241.7627">/edgemere/sml/em/environment/enable()</text><text fill="#000000" font-family="sans-serif" font-size="11" lengthAdjust="spacingAndGlyphs" textLength="173" x="131" y="255.5986">/edgemere/sml/em/environment/list()</text><text fill="#000000" font-family="sans-serif" font-size="11" lengthAdjust="spacingAndGlyphs" textLength="193" x="131" y="269.4346">/edgemere/sml/em/environment/update()</text><ellipse cx="193" cy="35.5" fill="#FEFECE" filter="url(#f1e86fl9s63d38)" rx="5" ry="5" style="stroke: #A80036; stroke-width: 1.5;"/><text fill="#000000" font-family="sans-serif" font-size="12" lengthAdjust="spacingAndGlyphs" textLength="19" x="183.5" y="52.957">CLI</text><ellipse cx="238" cy="35.5" fill="#FEFECE" filter="url(#f1e86fl9s63d38)" rx="5" ry="5" style="stroke: #A80036; stroke-width: 1.5;"/><text fill="#000000" font-family="sans-serif" font-size="12" lengthAdjust="spacingAndGlyphs" textLength="32" x="222" y="52.957">REST</text><ellipse cx="283" cy="35.5" fill="#FEFECE" filter="url(#f1e86fl9s63d38)" rx="5" ry="5" style="stroke: #A80036; stroke-width: 1.5;"/><text fill="#000000" font-family="sans-serif" font-size="12" lengthAdjust="spacingAndGlyphs" textLength="25" x="270.5" y="52.957">Web</text><!--link ilol9519 to i--><path d="M194.112,40.603 C197.564,53.335 208.463,93.543 218.536,130.701 " fill="none" id="ilol9519-i" style="stroke: #A80036; stroke-width: 1.0;"/><!--link ilol9522 to i--><path d="M238,40.603 C238,53.335 238,93.543 238,130.701 " fill="none" id="ilol9522-i" style="stroke: #A80036; stroke-width: 1.0;"/><!--link ilol9525 to i--><path d="M281.888,40.603 C278.436,53.335 267.537,93.543 257.464,130.701 " fill="none" id="ilol9525-i" style="stroke: #A80036; stroke-width: 1.0;"/><!--link Environment Management to Service Orchestrator--><path d="M90,300.0536 C90,300.8958 90,301.7354 90,302.572 C90,305.9182 90,309.2159 90,312.439 C90,318.8852 90,325.0332 90,330.6746 " fill="none" id="Environment Management-Service Orchestrator" style="stroke: #A80036; stroke-width: 1.0;"/><polygon fill="#A80036" points="90,335.7422,94,326.7422,90,330.7422,86,326.7422,90,335.7422" style="stroke: #A80036; stroke-width: 1.0;"/><!--
@startuml


package "Service Orchestrator" #lightgreen {

}

package "Service Management Layer" #lightgreen {

}

package "Security Aspect" #pink {

}


package "Environment Management" #lightgreen {

    interface "Environment Management" as i {
            /edgemere/sml/em/environment/addpolicies()
            /edgemere/sml/em/environment/create()
            /edgemere/sml/em/environment/destroy()
            /edgemere/sml/em/environment/disable()
            /edgemere/sml/em/environment/enable()
            /edgemere/sml/em/environment/list()
            /edgemere/sml/em/environment/update()
    
    }
}

CLI ()- - i
REST ()- - i
Web ()- - i

package "Environment Management" #lightgreen {


}


    "Environment Management" - -> "Service Orchestrator"


@enduml

PlantUML version 1.2019.05(Sat Apr 20 09:45:36 PDT 2019)
(GPL source distribution)
Java Runtime: OpenJDK Runtime Environment
JVM: OpenJDK 64-Bit Server VM
Java Version: 12.0.1+12
Operating System: Windows 10
OS Version: 10.0
Default Encoding: Cp1252
Language: en
Country: US
--></g></svg>