<?xml version="1.0" encoding="UTF-8" standalone="no"?><svg xmlns="http://www.w3.org/2000/svg" xmlns:xlink="http://www.w3.org/1999/xlink" contentScriptType="application/ecmascript" contentStyleType="text/css" height="223px" preserveAspectRatio="none" style="width:366px;height:223px;" version="1.1" viewBox="0 0 366 223" width="366px" zoomAndPan="magnify"><defs><filter height="300%" id="fvh8bob6jqy3j" width="300%" x="-1" y="-1"><feGaussianBlur result="blurOut" stdDeviation="2.0"/><feColorMatrix in="blurOut" result="blurOut2" type="matrix" values="0 0 0 0 0 0 0 0 0 0 0 0 0 0 0 0 0 0 .4 0"/><feOffset dx="4.0" dy="4.0" in="blurOut2" result="blurOut3"/><feBlend in="SourceGraphic" in2="blurOut3" mode="normal"/></filter></defs><g><!--cluster Environment Management--><rect fill="#90EE90" filter="url(#fvh8bob6jqy3j)" height="90" style="stroke: #000000; stroke-width: 1.5;" width="201" x="154" y="55.5"/><text fill="#000000" font-family="sans-serif" font-size="14" font-weight="bold" lengthAdjust="spacingAndGlyphs" textLength="185" x="162" y="72.0332">Environment Management</text><ellipse cx="254.5052" cy="110.701" fill="#FEFECE" filter="url(#fvh8bob6jqy3j)" rx="81.5052" ry="18.701" style="stroke: #A80036; stroke-width: 1.5;"/><text fill="#000000" font-family="sans-serif" font-size="14" lengthAdjust="spacingAndGlyphs" textLength="130" x="189.5052" y="116.0057">ManageEnvironment</text><!--entity ITOperations--><ellipse cx="58" cy="18" fill="#FEFECE" filter="url(#fvh8bob6jqy3j)" rx="8" ry="8" style="stroke: #A80036; stroke-width: 2.0;"/><path d="M58,26 L58,53 M45,34 L71,34 M58,53 L45,68 M58,53 L71,68 " fill="none" filter="url(#fvh8bob6jqy3j)" style="stroke: #A80036; stroke-width: 2.0;"/><text fill="#000000" font-family="sans-serif" font-size="14" lengthAdjust="spacingAndGlyphs" textLength="86" x="15" y="89.5332">IT Operations</text><!--entity StackDeveloper--><ellipse cx="58" cy="138" fill="#FEFECE" filter="url(#fvh8bob6jqy3j)" rx="8" ry="8" style="stroke: #A80036; stroke-width: 2.0;"/><path d="M58,146 L58,173 M45,154 L71,154 M58,173 L45,188 M58,173 L71,188 " fill="none" filter="url(#fvh8bob6jqy3j)" style="stroke: #A80036; stroke-width: 2.0;"/><text fill="#000000" font-family="sans-serif" font-size="14" lengthAdjust="spacingAndGlyphs" textLength="104" x="6" y="209.5332">Stack Developer</text><!--link ITOperations to ManageEnvironment--><path d="M101.2036,63.519 C130.262,72.483 169.097,84.463 200.278,94.082 " fill="none" id="ITOperations-ManageEnvironment" style="stroke: #A80036; stroke-width: 1.0;"/><polygon fill="#A80036" points="205.214,95.605,197.792,89.1309,200.4359,94.1319,195.435,96.7758,205.214,95.605" style="stroke: #A80036; stroke-width: 1.0;"/><!--link StackDeveloper to ManageEnvironment--><path d="M110.103,154.7357 C137.979,146.1364 172.44,135.5055 200.593,126.8208 " fill="none" id="StackDeveloper-ManageEnvironment" style="stroke: #A80036; stroke-width: 1.0;"/><polygon fill="#A80036" points="205.414,125.3339,195.6347,124.1654,200.6363,126.8081,197.9935,131.8097,205.414,125.3339" style="stroke: #A80036; stroke-width: 1.0;"/><!--
@startuml

left to right direction
Actor "IT Operations" as ITOperations
Actor "Stack Developer" as StackDeveloper


rectangle "Environment Management" #lightgreen {
usecase "ManageEnvironment" as ManageEnvironment
    ITOperations - -> ManageEnvironment
    StackDeveloper - -> ManageEnvironment
    }


@enduml

PlantUML version 1.2019.05(Sat Apr 20 09:45:36 PDT 2019)
(GPL source distribution)
Java Runtime: OpenJDK Runtime Environment
JVM: OpenJDK 64-Bit Server VM
Java Version: 12.0.1+12
Operating System: Windows 10
OS Version: 10.0
Default Encoding: Cp1252
Language: en
Country: US
--></g></svg>