<?xml version="1.0" encoding="UTF-8" standalone="no"?><svg xmlns="http://www.w3.org/2000/svg" xmlns:xlink="http://www.w3.org/1999/xlink" contentScriptType="application/ecmascript" contentStyleType="text/css" height="224px" preserveAspectRatio="none" style="width:143px;height:224px;" version="1.1" viewBox="0 0 143 224" width="143px" zoomAndPan="magnify"><defs><filter height="300%" id="f1n5clrntqgzvs" width="300%" x="-1" y="-1"><feGaussianBlur result="blurOut" stdDeviation="2.0"/><feColorMatrix in="blurOut" result="blurOut2" type="matrix" values="0 0 0 0 0 0 0 0 0 0 0 0 0 0 0 0 0 0 .4 0"/><feOffset dx="4.0" dy="4.0" in="blurOut2" result="blurOut3"/><feBlend in="SourceGraphic" in2="blurOut3" mode="normal"/></filter></defs><g><!--entity Data--><rect fill="#90EE90" filter="url(#f1n5clrntqgzvs)" height="37.6094" style="stroke: #000000; stroke-width: 1.5;" width="50" x="45.7535" y="8"/><text fill="#000000" font-family="sans-serif" font-size="14" lengthAdjust="spacingAndGlyphs" textLength="30" x="55.7535" y="32.5332">Data</text><!--class Model--><rect fill="#FEFECE" filter="url(#f1n5clrntqgzvs)" height="89.5078" id="Model" style="stroke: #A80036; stroke-width: 1.5;" width="123" x="9.2535" y="124"/><ellipse cx="24.2535" cy="140" fill="#ADD1B2" rx="11" ry="11" style="stroke: #A80036; stroke-width: 1.0;"/><path d="M27.0191,135.875 Q27.1754,135.6563 27.3629,135.5469 Q27.5504,135.4375 27.7691,135.4375 Q28.1441,135.4375 28.3785,135.7031 Q28.6129,135.9531 28.6129,136.5625 L28.6129,138.0156 Q28.6129,138.625 28.3785,138.8906 Q28.1441,139.1563 27.7691,139.1563 Q27.4254,139.1563 27.2223,138.9531 Q27.0191,138.7656 26.9098,138.25 Q26.8629,137.8906 26.6754,137.7031 Q26.3473,137.3281 25.7379,137.1094 Q25.1285,136.8906 24.5035,136.8906 Q23.7379,136.8906 23.0973,137.2188 Q22.4723,137.5469 21.9723,138.2969 Q21.4879,139.0469 21.4879,140.0781 L21.4879,141.1719 Q21.4879,142.4063 22.3785,143.2344 Q23.2691,144.0469 24.8629,144.0469 Q25.8004,144.0469 26.4566,143.7969 Q26.8473,143.6406 27.2691,143.2031 Q27.5348,142.9375 27.6754,142.8594 Q27.8316,142.7813 28.0348,142.7813 Q28.3629,142.7813 28.6129,143.0469 Q28.8785,143.2969 28.8785,143.6406 Q28.8785,143.9844 28.5348,144.3906 Q28.0348,144.9688 27.2379,145.2969 Q26.1598,145.75 24.8629,145.75 Q23.3473,145.75 22.1441,145.125 Q21.1598,144.625 20.4723,143.5625 Q19.7848,142.4844 19.7848,141.2031 L19.7848,140.0469 Q19.7848,138.7188 20.3941,137.5781 Q21.0191,136.4219 22.1129,135.8125 Q23.2066,135.1875 24.441,135.1875 Q25.1754,135.1875 25.816,135.3594 Q26.4723,135.5156 27.0191,135.875 Z "/><text fill="#000000" font-family="sans-serif" font-size="12" lengthAdjust="spacingAndGlyphs" textLength="91" x="38.2535" y="144.9102">SourceMetaData</text><line style="stroke: #A80036; stroke-width: 1.5;" x1="10.2535" x2="131.2535" y1="156" y2="156"/><text fill="#000000" font-family="sans-serif" font-size="11" lengthAdjust="spacingAndGlyphs" textLength="83" x="15.2535" y="171.4189">string connection</text><text fill="#000000" font-family="sans-serif" font-size="11" lengthAdjust="spacingAndGlyphs" textLength="56" x="15.2535" y="185.2549">string name</text><text fill="#000000" font-family="sans-serif" font-size="11" lengthAdjust="spacingAndGlyphs" textLength="56" x="15.2535" y="199.0908">string value</text><line style="stroke: #A80036; stroke-width: 1.5;" x1="10.2535" x2="131.2535" y1="205.5078" y2="205.5078"/><!--link Model to Data--><path d="M84.7343,110.466 C86.0334,99.051 86.3464,87.151 84.7535,76 C83.9525,70.393 82.6503,64.526 81.1544,58.895 " fill="none" id="Model-Data" style="stroke: #A80036; stroke-width: 1.0;"/><polygon fill="#A80036" points="77.4573,46.421,76.1798,56.1867,78.8782,51.2149,83.85,53.9133,77.4573,46.421" style="stroke: #A80036; stroke-width: 1.0;"/><line style="stroke: #A80036; stroke-width: 1.0;" x1="78.8782" x2="81.1516" y1="51.2149" y2="58.886"/><polygon fill="#FFFFFF" points="82.8116,123.5696,87.6402,118.2138,84.5536,111.6967,79.725,117.0525,82.8116,123.5696" style="stroke: #A80036; stroke-width: 1.0;"/><text fill="#000000" font-family="sans-serif" font-size="13" lengthAdjust="spacingAndGlyphs" textLength="25" x="86.7535" y="90.4951">data</text><text fill="#000000" font-family="sans-serif" font-size="13" lengthAdjust="spacingAndGlyphs" textLength="7" x="71.2783" y="67.0378">1</text><!--link Data to Model--><path d="M34.6611,48.341 C18.9962,60.094 5.4854,76.084 11.7535,94 C14.0019,100.427 17.0682,106.711 20.6288,112.732 " fill="none" id="Data-Model" style="stroke: #A80036; stroke-width: 1.0;"/><polygon fill="#A80036" points="28,123.9527,26.4012,114.2345,25.2546,119.7739,19.7151,118.6272,28,123.9527" style="stroke: #A80036; stroke-width: 1.0;"/><line style="stroke: #A80036; stroke-width: 1.0;" x1="25.2546" x2="20.8621" y1="119.7739" y2="113.0874"/><polygon fill="#A80036" points="45.6335,40.91,38.4226,40.9625,35.6976,47.6389,42.9085,47.5864,45.6335,40.91" style="stroke: #A80036; stroke-width: 1.0;"/><text fill="#000000" font-family="sans-serif" font-size="13" lengthAdjust="spacingAndGlyphs" textLength="63" x="12.7535" y="90.4951">connection</text><text fill="#000000" font-family="sans-serif" font-size="13" lengthAdjust="spacingAndGlyphs" textLength="7" x="13.6283" y="113.061">n</text><!--
@startuml

class "SourceMetaData" as Model {
 string connection
 string name
 string value

 
}

rectangle "Data" as Data #lightblue {
}

Model o- -> "1" Data : data




    rectangle "Data" as Data #lightgreen {
    }
    
        Data   *- -> "n" Model : "connection"
    

@enduml

PlantUML version 1.2019.05(Sat Apr 20 09:45:36 PDT 2019)
(GPL source distribution)
Java Runtime: OpenJDK Runtime Environment
JVM: OpenJDK 64-Bit Server VM
Java Version: 12.0.1+12
Operating System: Windows 10
OS Version: 10.0
Default Encoding: Cp1252
Language: en
Country: US
--></g></svg>