<?xml version="1.0" encoding="UTF-8" standalone="no"?><svg xmlns="http://www.w3.org/2000/svg" xmlns:xlink="http://www.w3.org/1999/xlink" contentScriptType="application/ecmascript" contentStyleType="text/css" height="286px" preserveAspectRatio="none" style="width:454px;height:286px;" version="1.1" viewBox="0 0 454 286" width="454px" zoomAndPan="magnify"><defs><filter height="300%" id="f3m28u6rjiqmc" width="300%" x="-1" y="-1"><feGaussianBlur result="blurOut" stdDeviation="2.0"/><feColorMatrix in="blurOut" result="blurOut2" type="matrix" values="0 0 0 0 0 0 0 0 0 0 0 0 0 0 0 0 0 0 .4 0"/><feOffset dx="4.0" dy="4.0" in="blurOut2" result="blurOut3"/><feBlend in="SourceGraphic" in2="blurOut3" mode="normal"/></filter></defs><g><ellipse cx="224.0005" cy="169.1001" fill="#FEFECE" filter="url(#f3m28u6rjiqmc)" rx="68.5005" ry="16.1001" style="stroke: #A80036; stroke-width: 1.5;"/><text fill="#000000" font-family="sans-serif" font-size="14" lengthAdjust="spacingAndGlyphs" textLength="97" x="175.5005" y="174.4048">Manage Stacks</text><!--entity StackDeveloper--><ellipse cx="146" cy="18" fill="#FEFECE" filter="url(#f3m28u6rjiqmc)" rx="8" ry="8" style="stroke: #A80036; stroke-width: 2.0;"/><path d="M146,26 L146,53 M133,34 L159,34 M146,53 L133,68 M146,53 L159,68 " fill="none" filter="url(#f3m28u6rjiqmc)" style="stroke: #A80036; stroke-width: 2.0;"/><text fill="#000000" font-family="sans-serif" font-size="14" lengthAdjust="spacingAndGlyphs" textLength="104" x="94" y="89.5332">Stack Developer</text><!--entity ApplicationDeveloper--><ellipse cx="302" cy="18" fill="#FEFECE" filter="url(#f3m28u6rjiqmc)" rx="8" ry="8" style="stroke: #A80036; stroke-width: 2.0;"/><path d="M302,26 L302,53 M289,34 L315,34 M302,53 L289,68 M302,53 L315,68 " fill="none" filter="url(#f3m28u6rjiqmc)" style="stroke: #A80036; stroke-width: 2.0;"/><text fill="#000000" font-family="sans-serif" font-size="14" lengthAdjust="spacingAndGlyphs" textLength="138" x="233" y="89.5332">Application Developer</text><ellipse cx="64.8614" cy="260.4517" fill="#D3D3D3" filter="url(#f3m28u6rjiqmc)" rx="58.8614" ry="15.4517" style="stroke: #A80036; stroke-width: 1.5;"/><text fill="#000000" font-family="sans-serif" font-size="14" lengthAdjust="spacingAndGlyphs" textLength="79" x="25.3614" y="265.7564">DeployStack</text><ellipse cx="224.2254" cy="260.4517" fill="#D3D3D3" filter="url(#f3m28u6rjiqmc)" rx="65.2254" ry="15.4517" style="stroke: #A80036; stroke-width: 1.5;"/><text fill="#000000" font-family="sans-serif" font-size="14" lengthAdjust="spacingAndGlyphs" textLength="88" x="180.2254" y="265.7564">UninstallStack</text><ellipse cx="384.0685" cy="260.4517" fill="#D3D3D3" filter="url(#f3m28u6rjiqmc)" rx="59.5685" ry="15.4517" style="stroke: #A80036; stroke-width: 1.5;"/><text fill="#000000" font-family="sans-serif" font-size="14" lengthAdjust="spacingAndGlyphs" textLength="80" x="344.0685" y="265.7564">UpdateStack</text><!--link StackDeveloper to ManageStacks--><path d="M173.939,93.23 C186.616,112.164 200.993,133.637 211.077,148.698 " fill="none" id="StackDeveloper-ManageStacks" style="stroke: #A80036; stroke-width: 1.0;"/><polygon fill="#A80036" points="214.062,153.156,212.3787,143.4521,211.2803,149.0013,205.7311,147.9028,214.062,153.156" style="stroke: #A80036; stroke-width: 1.0;"/><!--link ApplicationDeveloper to ManageStacks--><path d="M274.061,93.23 C261.384,112.164 247.007,133.637 236.923,148.698 " fill="none" id="ApplicationDeveloper-ManageStacks" style="stroke: #A80036; stroke-width: 1.0;"/><polygon fill="#A80036" points="233.938,153.156,242.2689,147.9028,236.7197,149.0013,235.6213,143.4521,233.938,153.156" style="stroke: #A80036; stroke-width: 1.0;"/><!--link ManageStacks to DeployStack--><path d="M199.156,183.9844 C170.471,200.1312 123.385,226.6357 93.3079,243.5657 " fill="none" id="ManageStacks-DeployStack" style="stroke: #A80036; stroke-width: 1.0;"/><polygon fill="#A80036" points="88.6322,246.1976,98.4371,245.2684,92.9893,243.7449,94.5128,238.2971,88.6322,246.1976" style="stroke: #A80036; stroke-width: 1.0;"/><!--link ManageStacks to UninstallStack--><path d="M224,185.1825 C224,200.1481 224,223.0995 224,239.5352 " fill="none" id="ManageStacks-UninstallStack" style="stroke: #A80036; stroke-width: 1.0;"/><polygon fill="#A80036" points="224,244.8383,228,235.8383,224,239.8383,220,235.8383,224,244.8383" style="stroke: #A80036; stroke-width: 1.0;"/><!--link ManageStacks to UpdateStack--><path d="M249,183.9844 C277.866,200.1312 325.248,226.6357 355.514,243.5657 " fill="none" id="ManageStacks-UpdateStack" style="stroke: #A80036; stroke-width: 1.0;"/><polygon fill="#A80036" points="360.219,246.1976,354.3178,238.3125,355.8555,243.7563,350.4117,245.294,360.219,246.1976" style="stroke: #A80036; stroke-width: 1.0;"/><!--
@startuml


usecase "Manage Stacks" as ManageStacks

Actor "Stack Developer" as StackDeveloper

StackDeveloper - -> ManageStacks

Actor "Application Developer" as ApplicationDeveloper

ApplicationDeveloper - -> ManageStacks



usecase "DeployStack" as DeployStack #lightgrey

ManageStacks - -> DeployStack

usecase "UninstallStack" as UninstallStack #lightgrey

ManageStacks - -> UninstallStack

usecase "UpdateStack" as UpdateStack #lightgrey

ManageStacks - -> UpdateStack

@enduml

PlantUML version 1.2019.05(Sat Apr 20 09:45:36 PDT 2019)
(GPL source distribution)
Java Runtime: OpenJDK Runtime Environment
JVM: OpenJDK 64-Bit Server VM
Java Version: 12.0.1+12
Operating System: Windows 10
OS Version: 10.0
Default Encoding: Cp1252
Language: en
Country: US
--></g></svg>