<?xml version="1.0" encoding="UTF-8" standalone="no"?><svg xmlns="http://www.w3.org/2000/svg" xmlns:xlink="http://www.w3.org/1999/xlink" contentScriptType="application/ecmascript" contentStyleType="text/css" height="509px" preserveAspectRatio="none" style="width:916px;height:509px;" version="1.1" viewBox="0 0 916 509" width="916px" zoomAndPan="magnify"><defs><filter height="300%" id="fsf4aibksxrgd" width="300%" x="-1" y="-1"><feGaussianBlur result="blurOut" stdDeviation="2.0"/><feColorMatrix in="blurOut" result="blurOut2" type="matrix" values="0 0 0 0 0 0 0 0 0 0 0 0 0 0 0 0 0 0 .4 0"/><feOffset dx="4.0" dy="4.0" in="blurOut2" result="blurOut3"/><feBlend in="SourceGraphic" in2="blurOut3" mode="normal"/></filter></defs><g><rect fill="#90EE90" height="494.7344" style="stroke: #A80036; stroke-width: 1.0;" width="140" x="222.5" y="4"/><text fill="#000000" font-family="sans-serif" font-size="13" font-weight="bold" lengthAdjust="spacingAndGlyphs" textLength="130" x="225.5" y="17.4951">Service Orchestrator</text><rect fill="#90EE90" height="494.7344" style="stroke: #A80036; stroke-width: 1.0;" width="121" x="364.5" y="4"/><text fill="#000000" font-family="sans-serif" font-size="13" font-weight="bold" lengthAdjust="spacingAndGlyphs" textLength="115" x="367.5" y="17.4951">Service Controller</text><rect fill="#90EE90" height="494.7344" style="stroke: #A80036; stroke-width: 1.0;" width="125" x="487.5" y="4"/><text fill="#000000" font-family="sans-serif" font-size="13" font-weight="bold" lengthAdjust="spacingAndGlyphs" textLength="119" x="490.5" y="17.4951">Service Repository</text><rect fill="#ADD8E6" height="494.7344" style="stroke: #A80036; stroke-width: 1.0;" width="117" x="614.5" y="4"/><text fill="#000000" font-family="sans-serif" font-size="13" font-weight="bold" lengthAdjust="spacingAndGlyphs" textLength="111" x="617.5" y="17.4951">Data Orchestrator</text><rect fill="#FFFFE0" height="494.7344" style="stroke: #A80036; stroke-width: 1.0;" width="172" x="733.5" y="4"/><text fill="#000000" font-family="sans-serif" font-size="13" font-weight="bold" lengthAdjust="spacingAndGlyphs" textLength="166" x="736.5" y="17.4951">Infrastructure Orchestrator</text><line style="stroke: #A80036; stroke-width: 1.0; stroke-dasharray: 5.0,5.0;" x1="67" x2="67" y1="87.6094" y2="411.125"/><line style="stroke: #A80036; stroke-width: 1.0; stroke-dasharray: 5.0,5.0;" x1="169" x2="169" y1="87.6094" y2="411.125"/><line style="stroke: #A80036; stroke-width: 1.0; stroke-dasharray: 5.0,5.0;" x1="292" x2="292" y1="87.6094" y2="411.125"/><line style="stroke: #A80036; stroke-width: 1.0; stroke-dasharray: 5.0,5.0;" x1="424.5" x2="424.5" y1="87.6094" y2="411.125"/><line style="stroke: #A80036; stroke-width: 1.0; stroke-dasharray: 5.0,5.0;" x1="549.5" x2="549.5" y1="87.6094" y2="411.125"/><line style="stroke: #A80036; stroke-width: 1.0; stroke-dasharray: 5.0,5.0;" x1="672.5" x2="672.5" y1="87.6094" y2="411.125"/><line style="stroke: #A80036; stroke-width: 1.0; stroke-dasharray: 5.0,5.0;" x1="819" x2="819" y1="87.6094" y2="411.125"/><text fill="#000000" font-family="sans-serif" font-size="14" lengthAdjust="spacingAndGlyphs" textLength="112" x="8" y="84.5332">DevOps Engineer</text><ellipse cx="67" cy="13" fill="#FEFECE" filter="url(#fsf4aibksxrgd)" rx="8" ry="8" style="stroke: #A80036; stroke-width: 2.0;"/><path d="M67,21 L67,48 M54,29 L80,29 M67,48 L54,63 M67,48 L80,63 " fill="none" filter="url(#fsf4aibksxrgd)" style="stroke: #A80036; stroke-width: 2.0;"/><text fill="#000000" font-family="sans-serif" font-size="14" lengthAdjust="spacingAndGlyphs" textLength="112" x="8" y="424.6582">DevOps Engineer</text><ellipse cx="67" cy="437.7344" fill="#FEFECE" filter="url(#fsf4aibksxrgd)" rx="8" ry="8" style="stroke: #A80036; stroke-width: 2.0;"/><path d="M67,445.7344 L67,472.7344 M54,453.7344 L80,453.7344 M67,472.7344 L54,487.7344 M67,472.7344 L80,487.7344 " fill="none" filter="url(#fsf4aibksxrgd)" style="stroke: #A80036; stroke-width: 2.0;"/><text fill="#000000" font-family="sans-serif" font-size="14" lengthAdjust="spacingAndGlyphs" textLength="60" x="136" y="84.5332">EventBus</text><ellipse cx="169" cy="54" fill="#FEFECE" filter="url(#fsf4aibksxrgd)" rx="12" ry="12" style="stroke: #A80036; stroke-width: 2.0;"/><line style="stroke: #A80036; stroke-width: 2.0;" x1="157" x2="181" y1="68" y2="68"/><text fill="#000000" font-family="sans-serif" font-size="14" lengthAdjust="spacingAndGlyphs" textLength="60" x="136" y="424.6582">EventBus</text><ellipse cx="169" cy="443.7344" fill="#FEFECE" filter="url(#fsf4aibksxrgd)" rx="12" ry="12" style="stroke: #A80036; stroke-width: 2.0;"/><line style="stroke: #A80036; stroke-width: 2.0;" x1="157" x2="181" y1="457.7344" y2="457.7344"/><text fill="#000000" font-family="sans-serif" font-size="14" lengthAdjust="spacingAndGlyphs" textLength="15" x="282" y="84.5332">so</text><path d="M272,42 L272,66 M272,54 L289,54 " fill="none" filter="url(#fsf4aibksxrgd)" style="stroke: #A80036; stroke-width: 2.0;"/><ellipse cx="301" cy="54" fill="#FFFFFF" filter="url(#fsf4aibksxrgd)" rx="12" ry="12" style="stroke: #A80036; stroke-width: 2.0;"/><text fill="#000000" font-family="sans-serif" font-size="14" lengthAdjust="spacingAndGlyphs" textLength="15" x="282" y="424.6582">so</text><path d="M272,431.7344 L272,455.7344 M272,443.7344 L289,443.7344 " fill="none" filter="url(#fsf4aibksxrgd)" style="stroke: #A80036; stroke-width: 2.0;"/><ellipse cx="301" cy="443.7344" fill="#FFFFFF" filter="url(#fsf4aibksxrgd)" rx="12" ry="12" style="stroke: #A80036; stroke-width: 2.0;"/><text fill="#000000" font-family="sans-serif" font-size="14" lengthAdjust="spacingAndGlyphs" textLength="14" x="415" y="84.5332">sc</text><path d="M404.5,42 L404.5,66 M404.5,54 L421.5,54 " fill="none" filter="url(#fsf4aibksxrgd)" style="stroke: #A80036; stroke-width: 2.0;"/><ellipse cx="433.5" cy="54" fill="#FFFFFF" filter="url(#fsf4aibksxrgd)" rx="12" ry="12" style="stroke: #A80036; stroke-width: 2.0;"/><text fill="#000000" font-family="sans-serif" font-size="14" lengthAdjust="spacingAndGlyphs" textLength="14" x="415" y="424.6582">sc</text><path d="M404.5,431.7344 L404.5,455.7344 M404.5,443.7344 L421.5,443.7344 " fill="none" filter="url(#fsf4aibksxrgd)" style="stroke: #A80036; stroke-width: 2.0;"/><ellipse cx="433.5" cy="443.7344" fill="#FFFFFF" filter="url(#fsf4aibksxrgd)" rx="12" ry="12" style="stroke: #A80036; stroke-width: 2.0;"/><text fill="#000000" font-family="sans-serif" font-size="14" lengthAdjust="spacingAndGlyphs" textLength="12" x="541" y="84.5332">sr</text><path d="M529.5,42 L529.5,66 M529.5,54 L546.5,54 " fill="none" filter="url(#fsf4aibksxrgd)" style="stroke: #A80036; stroke-width: 2.0;"/><ellipse cx="558.5" cy="54" fill="#FFFFFF" filter="url(#fsf4aibksxrgd)" rx="12" ry="12" style="stroke: #A80036; stroke-width: 2.0;"/><text fill="#000000" font-family="sans-serif" font-size="14" lengthAdjust="spacingAndGlyphs" textLength="12" x="541" y="424.6582">sr</text><path d="M529.5,431.7344 L529.5,455.7344 M529.5,443.7344 L546.5,443.7344 " fill="none" filter="url(#fsf4aibksxrgd)" style="stroke: #A80036; stroke-width: 2.0;"/><ellipse cx="558.5" cy="443.7344" fill="#FFFFFF" filter="url(#fsf4aibksxrgd)" rx="12" ry="12" style="stroke: #A80036; stroke-width: 2.0;"/><text fill="#000000" font-family="sans-serif" font-size="14" lengthAdjust="spacingAndGlyphs" textLength="16" x="662" y="84.5332">do</text><path d="M652.5,42 L652.5,66 M652.5,54 L669.5,54 " fill="none" filter="url(#fsf4aibksxrgd)" style="stroke: #A80036; stroke-width: 2.0;"/><ellipse cx="681.5" cy="54" fill="#FFFFFF" filter="url(#fsf4aibksxrgd)" rx="12" ry="12" style="stroke: #A80036; stroke-width: 2.0;"/><text fill="#000000" font-family="sans-serif" font-size="14" lengthAdjust="spacingAndGlyphs" textLength="16" x="662" y="424.6582">do</text><path d="M652.5,431.7344 L652.5,455.7344 M652.5,443.7344 L669.5,443.7344 " fill="none" filter="url(#fsf4aibksxrgd)" style="stroke: #A80036; stroke-width: 2.0;"/><ellipse cx="681.5" cy="443.7344" fill="#FFFFFF" filter="url(#fsf4aibksxrgd)" rx="12" ry="12" style="stroke: #A80036; stroke-width: 2.0;"/><text fill="#000000" font-family="sans-serif" font-size="14" lengthAdjust="spacingAndGlyphs" textLength="11" x="811" y="84.5332">io</text><path d="M799,42 L799,66 M799,54 L816,54 " fill="none" filter="url(#fsf4aibksxrgd)" style="stroke: #A80036; stroke-width: 2.0;"/><ellipse cx="828" cy="54" fill="#FFFFFF" filter="url(#fsf4aibksxrgd)" rx="12" ry="12" style="stroke: #A80036; stroke-width: 2.0;"/><text fill="#000000" font-family="sans-serif" font-size="14" lengthAdjust="spacingAndGlyphs" textLength="11" x="811" y="424.6582">io</text><path d="M799,431.7344 L799,455.7344 M799,443.7344 L816,443.7344 " fill="none" filter="url(#fsf4aibksxrgd)" style="stroke: #A80036; stroke-width: 2.0;"/><ellipse cx="828" cy="443.7344" fill="#FFFFFF" filter="url(#fsf4aibksxrgd)" rx="12" ry="12" style="stroke: #A80036; stroke-width: 2.0;"/><polygon fill="#A80036" points="280.5,115.9609,290.5,119.9609,280.5,123.9609,284.5,119.9609" style="stroke: #A80036; stroke-width: 1.0;"/><line style="stroke: #A80036; stroke-width: 1.0;" x1="67" x2="286.5" y1="119.9609" y2="119.9609"/><text fill="#000000" font-family="sans-serif" font-size="13" lengthAdjust="spacingAndGlyphs" textLength="88" x="74" y="115.1045">Uninstall Stack</text><polygon fill="#A80036" points="413,146.3125,423,150.3125,413,150.3125" style="stroke: #A80036; stroke-width: 1.0;"/><line style="stroke: #A80036; stroke-width: 1.0;" x1="169" x2="424" y1="150.3125" y2="150.3125"/><text fill="#000000" font-family="sans-serif" font-size="13" lengthAdjust="spacingAndGlyphs" textLength="51" x="176" y="145.4561">method()</text><polygon fill="#A80036" points="180,181.6641,170,181.6641,180,185.6641" style="stroke: #A80036; stroke-width: 1.0;"/><line style="stroke: #A80036; stroke-width: 1.0; stroke-dasharray: 2.0,2.0;" x1="169" x2="424" y1="180.6641" y2="180.6641"/><text fill="#000000" font-family="sans-serif" font-size="13" lengthAdjust="spacingAndGlyphs" textLength="78" x="186" y="175.8076">Model.Event2</text><polygon fill="#A80036" points="538,207.0156,548,211.0156,538,211.0156" style="stroke: #A80036; stroke-width: 1.0;"/><line style="stroke: #A80036; stroke-width: 1.0;" x1="169" x2="549" y1="211.0156" y2="211.0156"/><text fill="#000000" font-family="sans-serif" font-size="13" lengthAdjust="spacingAndGlyphs" textLength="51" x="176" y="206.1592">method()</text><polygon fill="#A80036" points="180,242.3672,170,242.3672,180,246.3672" style="stroke: #A80036; stroke-width: 1.0;"/><line style="stroke: #A80036; stroke-width: 1.0; stroke-dasharray: 2.0,2.0;" x1="169" x2="549" y1="241.3672" y2="241.3672"/><text fill="#000000" font-family="sans-serif" font-size="13" lengthAdjust="spacingAndGlyphs" textLength="78" x="186" y="236.5107">Model.Event2</text><polygon fill="#A80036" points="661,267.7188,671,271.7188,661,271.7188" style="stroke: #A80036; stroke-width: 1.0;"/><line style="stroke: #A80036; stroke-width: 1.0;" x1="169" x2="672" y1="271.7188" y2="271.7188"/><text fill="#000000" font-family="sans-serif" font-size="13" lengthAdjust="spacingAndGlyphs" textLength="51" x="176" y="266.8623">method()</text><polygon fill="#A80036" points="180,303.0703,170,303.0703,180,307.0703" style="stroke: #A80036; stroke-width: 1.0;"/><line style="stroke: #A80036; stroke-width: 1.0; stroke-dasharray: 2.0,2.0;" x1="169" x2="672" y1="302.0703" y2="302.0703"/><text fill="#000000" font-family="sans-serif" font-size="13" lengthAdjust="spacingAndGlyphs" textLength="78" x="186" y="297.2139">Model.Event2</text><polygon fill="#A80036" points="807.5,328.4219,817.5,332.4219,807.5,332.4219" style="stroke: #A80036; stroke-width: 1.0;"/><line style="stroke: #A80036; stroke-width: 1.0;" x1="169" x2="818.5" y1="332.4219" y2="332.4219"/><text fill="#000000" font-family="sans-serif" font-size="13" lengthAdjust="spacingAndGlyphs" textLength="51" x="176" y="327.5654">method()</text><polygon fill="#A80036" points="180,363.7734,170,363.7734,180,367.7734" style="stroke: #A80036; stroke-width: 1.0;"/><line style="stroke: #A80036; stroke-width: 1.0; stroke-dasharray: 2.0,2.0;" x1="169" x2="818.5" y1="362.7734" y2="362.7734"/><text fill="#000000" font-family="sans-serif" font-size="13" lengthAdjust="spacingAndGlyphs" textLength="78" x="186" y="357.917">Model.Event2</text><polygon fill="#A80036" points="280.5,394.125,290.5,394.125,280.5,398.125" style="stroke: #A80036; stroke-width: 1.0;"/><line style="stroke: #A80036; stroke-width: 1.0; stroke-dasharray: 2.0,2.0;" x1="169" x2="291.5" y1="393.125" y2="393.125"/><text fill="#000000" font-family="sans-serif" font-size="13" lengthAdjust="spacingAndGlyphs" textLength="58" x="176" y="388.2686">method2()</text><!--
@startuml

actor "DevOps Engineer"


entity EventBus

box Service Orchestrator #lightgreen
    boundary so #white
end box



"DevOps Engineer" -> so: Uninstall Stack



box "Service Controller" #lightgreen
    boundary sc #white
end box
EventBus -\ sc: method()
sc - -/ EventBus: Model.Event2
box "Service Repository" #lightgreen
    boundary sr #white
end box
EventBus -\ sr: method()
sr - -/ EventBus: Model.Event2
box "Data Orchestrator" #lightblue
    boundary do #white
end box
EventBus -\ do: method()
do - -/ EventBus: Model.Event2
box "Infrastructure Orchestrator" #lightyellow
    boundary io #white
end box
EventBus -\ io: method()
io - -/ EventBus: Model.Event2

EventBus - -/ so : method2()
@enduml

PlantUML version 1.2019.05(Sat Apr 20 09:45:36 PDT 2019)
(GPL source distribution)
Java Runtime: OpenJDK Runtime Environment
JVM: OpenJDK 64-Bit Server VM
Java Version: 12.0.1+12
Operating System: Windows 10
OS Version: 10.0
Default Encoding: Cp1252
Language: en
Country: US
--></g></svg>