<?xml version="1.0" encoding="UTF-8" standalone="no"?><svg xmlns="http://www.w3.org/2000/svg" xmlns:xlink="http://www.w3.org/1999/xlink" contentScriptType="application/ecmascript" contentStyleType="text/css" height="449px" preserveAspectRatio="none" style="width:830px;height:449px;" version="1.1" viewBox="0 0 830 449" width="830px" zoomAndPan="magnify"><defs><filter height="300%" id="f197qxq0rs6jyb" width="300%" x="-1" y="-1"><feGaussianBlur result="blurOut" stdDeviation="2.0"/><feColorMatrix in="blurOut" result="blurOut2" type="matrix" values="0 0 0 0 0 0 0 0 0 0 0 0 0 0 0 0 0 0 .4 0"/><feOffset dx="4.0" dy="4.0" in="blurOut2" result="blurOut3"/><feBlend in="SourceGraphic" in2="blurOut3" mode="normal"/></filter></defs><g><rect fill="#FFCC88" height="434.0313" style="stroke: #A80036; stroke-width: 1.0;" width="166" x="158" y="4"/><text fill="#000000" font-family="sans-serif" font-size="13" font-weight="bold" lengthAdjust="spacingAndGlyphs" textLength="156" x="161" y="17.4951">Data Management Layer</text><rect fill="#FFFFE0" height="434.0313" style="stroke: #A80036; stroke-width: 1.0;" width="204" x="326" y="4"/><text fill="#000000" font-family="sans-serif" font-size="13" font-weight="bold" lengthAdjust="spacingAndGlyphs" textLength="198" x="329" y="17.4951">Software Defined Infrastructure</text><rect fill="#FFC0CB" height="434.0313" style="stroke: #A80036; stroke-width: 1.0;" width="104" x="532" y="4"/><text fill="#000000" font-family="sans-serif" font-size="13" font-weight="bold" lengthAdjust="spacingAndGlyphs" textLength="98" x="535" y="17.4951">Security Aspect</text><rect fill="#90EE90" height="434.0313" style="stroke: #A80036; stroke-width: 1.0;" width="181" x="638" y="4"/><text fill="#000000" font-family="sans-serif" font-size="13" font-weight="bold" lengthAdjust="spacingAndGlyphs" textLength="175" x="641" y="17.4951">Service Management Layer</text><line style="stroke: #A80036; stroke-width: 1.0; stroke-dasharray: 5.0,5.0;" x1="27" x2="27" y1="87.6094" y2="350.4219"/><line style="stroke: #A80036; stroke-width: 1.0; stroke-dasharray: 5.0,5.0;" x1="90" x2="90" y1="87.6094" y2="350.4219"/><line style="stroke: #A80036; stroke-width: 1.0; stroke-dasharray: 5.0,5.0;" x1="240.5" x2="240.5" y1="87.6094" y2="350.4219"/><line style="stroke: #A80036; stroke-width: 1.0; stroke-dasharray: 5.0,5.0;" x1="427.5" x2="427.5" y1="87.6094" y2="350.4219"/><line style="stroke: #A80036; stroke-width: 1.0; stroke-dasharray: 5.0,5.0;" x1="583.5" x2="583.5" y1="87.6094" y2="350.4219"/><line style="stroke: #A80036; stroke-width: 1.0; stroke-dasharray: 5.0,5.0;" x1="728" x2="728" y1="87.6094" y2="350.4219"/><text fill="#000000" font-family="sans-serif" font-size="14" lengthAdjust="spacingAndGlyphs" textLength="33" x="8" y="84.5332">Actor</text><ellipse cx="27.5" cy="13" fill="#FEFECE" filter="url(#f197qxq0rs6jyb)" rx="8" ry="8" style="stroke: #A80036; stroke-width: 2.0;"/><path d="M27.5,21 L27.5,48 M14.5,29 L40.5,29 M27.5,48 L14.5,63 M27.5,48 L40.5,63 " fill="none" filter="url(#f197qxq0rs6jyb)" style="stroke: #A80036; stroke-width: 2.0;"/><text fill="#000000" font-family="sans-serif" font-size="14" lengthAdjust="spacingAndGlyphs" textLength="33" x="8" y="363.9551">Actor</text><ellipse cx="27.5" cy="377.0313" fill="#FEFECE" filter="url(#f197qxq0rs6jyb)" rx="8" ry="8" style="stroke: #A80036; stroke-width: 2.0;"/><path d="M27.5,385.0313 L27.5,412.0313 M14.5,393.0313 L40.5,393.0313 M27.5,412.0313 L14.5,427.0313 M27.5,412.0313 L40.5,427.0313 " fill="none" filter="url(#f197qxq0rs6jyb)" style="stroke: #A80036; stroke-width: 2.0;"/><text fill="#000000" font-family="sans-serif" font-size="14" lengthAdjust="spacingAndGlyphs" textLength="60" x="57" y="84.5332">EventBus</text><ellipse cx="90" cy="54" fill="#FEFECE" filter="url(#f197qxq0rs6jyb)" rx="12" ry="12" style="stroke: #A80036; stroke-width: 2.0;"/><line style="stroke: #A80036; stroke-width: 2.0;" x1="78" x2="102" y1="68" y2="68"/><text fill="#000000" font-family="sans-serif" font-size="14" lengthAdjust="spacingAndGlyphs" textLength="60" x="57" y="363.9551">EventBus</text><ellipse cx="90" cy="383.0313" fill="#FEFECE" filter="url(#f197qxq0rs6jyb)" rx="12" ry="12" style="stroke: #A80036; stroke-width: 2.0;"/><line style="stroke: #A80036; stroke-width: 2.0;" x1="78" x2="102" y1="397.0313" y2="397.0313"/><text fill="#000000" font-family="sans-serif" font-size="14" lengthAdjust="spacingAndGlyphs" textLength="22" x="227" y="84.5332">dml</text><path d="M220.5,42 L220.5,66 M220.5,54 L237.5,54 " fill="none" filter="url(#f197qxq0rs6jyb)" style="stroke: #A80036; stroke-width: 2.0;"/><ellipse cx="249.5" cy="54" fill="#FFFFFF" filter="url(#f197qxq0rs6jyb)" rx="12" ry="12" style="stroke: #A80036; stroke-width: 2.0;"/><text fill="#000000" font-family="sans-serif" font-size="14" lengthAdjust="spacingAndGlyphs" textLength="22" x="227" y="363.9551">dml</text><path d="M220.5,371.0313 L220.5,395.0313 M220.5,383.0313 L237.5,383.0313 " fill="none" filter="url(#f197qxq0rs6jyb)" style="stroke: #A80036; stroke-width: 2.0;"/><ellipse cx="249.5" cy="383.0313" fill="#FFFFFF" filter="url(#f197qxq0rs6jyb)" rx="12" ry="12" style="stroke: #A80036; stroke-width: 2.0;"/><text fill="#000000" font-family="sans-serif" font-size="14" lengthAdjust="spacingAndGlyphs" textLength="18" x="416" y="84.5332">sdi</text><path d="M407.5,42 L407.5,66 M407.5,54 L424.5,54 " fill="none" filter="url(#f197qxq0rs6jyb)" style="stroke: #A80036; stroke-width: 2.0;"/><ellipse cx="436.5" cy="54" fill="#FFFFFF" filter="url(#f197qxq0rs6jyb)" rx="12" ry="12" style="stroke: #A80036; stroke-width: 2.0;"/><text fill="#000000" font-family="sans-serif" font-size="14" lengthAdjust="spacingAndGlyphs" textLength="18" x="416" y="363.9551">sdi</text><path d="M407.5,371.0313 L407.5,395.0313 M407.5,383.0313 L424.5,383.0313 " fill="none" filter="url(#f197qxq0rs6jyb)" style="stroke: #A80036; stroke-width: 2.0;"/><ellipse cx="436.5" cy="383.0313" fill="#FFFFFF" filter="url(#f197qxq0rs6jyb)" rx="12" ry="12" style="stroke: #A80036; stroke-width: 2.0;"/><text fill="#000000" font-family="sans-serif" font-size="14" lengthAdjust="spacingAndGlyphs" textLength="15" x="573.5" y="84.5332">sa</text><path d="M563.5,42 L563.5,66 M563.5,54 L580.5,54 " fill="none" filter="url(#f197qxq0rs6jyb)" style="stroke: #A80036; stroke-width: 2.0;"/><ellipse cx="592.5" cy="54" fill="#FFFFFF" filter="url(#f197qxq0rs6jyb)" rx="12" ry="12" style="stroke: #A80036; stroke-width: 2.0;"/><text fill="#000000" font-family="sans-serif" font-size="14" lengthAdjust="spacingAndGlyphs" textLength="15" x="573.5" y="363.9551">sa</text><path d="M563.5,371.0313 L563.5,395.0313 M563.5,383.0313 L580.5,383.0313 " fill="none" filter="url(#f197qxq0rs6jyb)" style="stroke: #A80036; stroke-width: 2.0;"/><ellipse cx="592.5" cy="383.0313" fill="#FFFFFF" filter="url(#f197qxq0rs6jyb)" rx="12" ry="12" style="stroke: #A80036; stroke-width: 2.0;"/><text fill="#000000" font-family="sans-serif" font-size="14" lengthAdjust="spacingAndGlyphs" textLength="21" x="715" y="84.5332">sml</text><path d="M708,42 L708,66 M708,54 L725,54 " fill="none" filter="url(#f197qxq0rs6jyb)" style="stroke: #A80036; stroke-width: 2.0;"/><ellipse cx="737" cy="54" fill="#FFFFFF" filter="url(#f197qxq0rs6jyb)" rx="12" ry="12" style="stroke: #A80036; stroke-width: 2.0;"/><text fill="#000000" font-family="sans-serif" font-size="14" lengthAdjust="spacingAndGlyphs" textLength="21" x="715" y="363.9551">sml</text><path d="M708,371.0313 L708,395.0313 M708,383.0313 L725,383.0313 " fill="none" filter="url(#f197qxq0rs6jyb)" style="stroke: #A80036; stroke-width: 2.0;"/><ellipse cx="737" cy="383.0313" fill="#FFFFFF" filter="url(#f197qxq0rs6jyb)" rx="12" ry="12" style="stroke: #A80036; stroke-width: 2.0;"/><polygon fill="#A80036" points="229,115.9609,239,119.9609,229,123.9609,233,119.9609" style="stroke: #A80036; stroke-width: 1.0;"/><line style="stroke: #A80036; stroke-width: 1.0;" x1="27.5" x2="235" y1="119.9609" y2="119.9609"/><text fill="#000000" font-family="sans-serif" font-size="13" lengthAdjust="spacingAndGlyphs" textLength="135" x="34.5" y="115.1045">Deregister Data Source</text><polygon fill="#A80036" points="416,146.3125,426,150.3125,416,150.3125" style="stroke: #A80036; stroke-width: 1.0;"/><line style="stroke: #A80036; stroke-width: 1.0;" x1="90" x2="427" y1="150.3125" y2="150.3125"/><text fill="#000000" font-family="sans-serif" font-size="13" lengthAdjust="spacingAndGlyphs" textLength="51" x="97" y="145.4561">method()</text><polygon fill="#A80036" points="101,181.6641,91,181.6641,101,185.6641" style="stroke: #A80036; stroke-width: 1.0;"/><line style="stroke: #A80036; stroke-width: 1.0; stroke-dasharray: 2.0,2.0;" x1="90" x2="427" y1="180.6641" y2="180.6641"/><text fill="#000000" font-family="sans-serif" font-size="13" lengthAdjust="spacingAndGlyphs" textLength="78" x="107" y="175.8076">Model.Event2</text><polygon fill="#A80036" points="572,207.0156,582,211.0156,572,211.0156" style="stroke: #A80036; stroke-width: 1.0;"/><line style="stroke: #A80036; stroke-width: 1.0;" x1="90" x2="583" y1="211.0156" y2="211.0156"/><text fill="#000000" font-family="sans-serif" font-size="13" lengthAdjust="spacingAndGlyphs" textLength="51" x="97" y="206.1592">method()</text><polygon fill="#A80036" points="101,242.3672,91,242.3672,101,246.3672" style="stroke: #A80036; stroke-width: 1.0;"/><line style="stroke: #A80036; stroke-width: 1.0; stroke-dasharray: 2.0,2.0;" x1="90" x2="583" y1="241.3672" y2="241.3672"/><text fill="#000000" font-family="sans-serif" font-size="13" lengthAdjust="spacingAndGlyphs" textLength="78" x="107" y="236.5107">Model.Event2</text><polygon fill="#A80036" points="716.5,267.7188,726.5,271.7188,716.5,271.7188" style="stroke: #A80036; stroke-width: 1.0;"/><line style="stroke: #A80036; stroke-width: 1.0;" x1="90" x2="727.5" y1="271.7188" y2="271.7188"/><text fill="#000000" font-family="sans-serif" font-size="13" lengthAdjust="spacingAndGlyphs" textLength="51" x="97" y="266.8623">method()</text><polygon fill="#A80036" points="101,303.0703,91,303.0703,101,307.0703" style="stroke: #A80036; stroke-width: 1.0;"/><line style="stroke: #A80036; stroke-width: 1.0; stroke-dasharray: 2.0,2.0;" x1="90" x2="727.5" y1="302.0703" y2="302.0703"/><text fill="#000000" font-family="sans-serif" font-size="13" lengthAdjust="spacingAndGlyphs" textLength="78" x="107" y="297.2139">Model.Event2</text><polygon fill="#A80036" points="229,333.4219,239,333.4219,229,337.4219" style="stroke: #A80036; stroke-width: 1.0;"/><line style="stroke: #A80036; stroke-width: 1.0; stroke-dasharray: 2.0,2.0;" x1="90" x2="240" y1="332.4219" y2="332.4219"/><text fill="#000000" font-family="sans-serif" font-size="13" lengthAdjust="spacingAndGlyphs" textLength="58" x="97" y="327.5654">method2()</text><!--
@startuml

actor "Actor"


entity EventBus

box Data Management Layer #ffcc88
    boundary dml #white
end box



"Actor" -> dml: Deregister Data Source



box "Software Defined Infrastructure" #lightyellow
    boundary sdi #white
end box
EventBus -\ sdi: method()
sdi - -/ EventBus: Model.Event2
box "Security Aspect" #pink
    boundary sa #white
end box
EventBus -\ sa: method()
sa - -/ EventBus: Model.Event2
box "Service Management Layer" #lightgreen
    boundary sml #white
end box
EventBus -\ sml: method()
sml - -/ EventBus: Model.Event2

EventBus - -/ dml : method2()
@enduml

PlantUML version 1.2019.05(Sat Apr 20 09:45:36 PDT 2019)
(GPL source distribution)
Java Runtime: OpenJDK Runtime Environment
JVM: OpenJDK 64-Bit Server VM
Java Version: 12.0.1+12
Operating System: Windows 10
OS Version: 10.0
Default Encoding: Cp1252
Language: en
Country: US
--></g></svg>