<?xml version="1.0" encoding="UTF-8" standalone="no"?><svg xmlns="http://www.w3.org/2000/svg" xmlns:xlink="http://www.w3.org/1999/xlink" contentScriptType="application/ecmascript" contentStyleType="text/css" height="747px" preserveAspectRatio="none" style="width:1998px;height:747px;" version="1.1" viewBox="0 0 1998 747" width="1998px" zoomAndPan="magnify"><defs><filter height="300%" id="flb4xsvkwiaft" width="300%" x="-1" y="-1"><feGaussianBlur result="blurOut" stdDeviation="2.0"/><feColorMatrix in="blurOut" result="blurOut2" type="matrix" values="0 0 0 0 0 0 0 0 0 0 0 0 0 0 0 0 0 0 .4 0"/><feOffset dx="4.0" dy="4.0" in="blurOut2" result="blurOut3"/><feBlend in="SourceGraphic" in2="blurOut3" mode="normal"/></filter></defs><g><!--cluster Service Management Layer--><polygon fill="#90EE90" filter="url(#flb4xsvkwiaft)" points="1553,472,1750,472,1757,495.6094,1760,495.6094,1760,588,1553,588,1553,472" style="stroke: #000000; stroke-width: 1.5;"/><line style="stroke: #000000; stroke-width: 1.5;" x1="1553" x2="1757" y1="495.6094" y2="495.6094"/><text fill="#000000" font-family="sans-serif" font-size="14" font-weight="bold" lengthAdjust="spacingAndGlyphs" textLength="191" x="1557" y="488.5332">Service Management Layer</text><!--cluster Application Management Layer--><polygon fill="#ADD8E6" filter="url(#flb4xsvkwiaft)" points="30,73,251,73,258,96.6094,862,96.6094,862,735,30,735,30,73" style="stroke: #000000; stroke-width: 1.5;"/><line style="stroke: #000000; stroke-width: 1.5;" x1="30" x2="258" y1="96.6094" y2="96.6094"/><text fill="#000000" font-family="sans-serif" font-size="14" font-weight="bold" lengthAdjust="spacingAndGlyphs" textLength="215" x="34" y="89.5332">Application Management Layer</text><!--cluster Data Management Layer--><polygon fill="#FFCC88" filter="url(#flb4xsvkwiaft)" points="1792,480,1966,480,1973,503.6094,1976,503.6094,1976,580,1792,580,1792,480" style="stroke: #000000; stroke-width: 1.5;"/><line style="stroke: #000000; stroke-width: 1.5;" x1="1792" x2="1973" y1="503.6094" y2="503.6094"/><text fill="#000000" font-family="sans-serif" font-size="14" font-weight="bold" lengthAdjust="spacingAndGlyphs" textLength="168" x="1796" y="496.5332">Data Management Layer</text><polygon fill="#FFCC88" filter="url(#flb4xsvkwiaft)" points="886.5,512.5,1191.5,512.5,1198.5,536.1094,1205.5,536.1094,1205.5,567.7188,886.5,567.7188,886.5,512.5" style="stroke: #000000; stroke-width: 1.5;"/><line style="stroke: #000000; stroke-width: 1.5;" x1="886.5" x2="1198.5" y1="536.1094" y2="536.1094"/><text fill="#000000" font-family="sans-serif" font-size="14" font-weight="bold" lengthAdjust="spacingAndGlyphs" textLength="299" x="890.5" y="529.0332">Distributed Information Management Layer</text><!--class Stack--><rect fill="#FEFECE" filter="url(#flb4xsvkwiaft)" height="48" id="Stack" style="stroke: #A80036; stroke-width: 1.5;" width="62" x="1599" y="516"/><ellipse cx="1614" cy="532" fill="#ADD1B2" rx="11" ry="11" style="stroke: #A80036; stroke-width: 1.0;"/><path d="M1616.7656,527.875 Q1616.9219,527.6563 1617.1094,527.5469 Q1617.2969,527.4375 1617.5156,527.4375 Q1617.8906,527.4375 1618.125,527.7031 Q1618.3594,527.9531 1618.3594,528.5625 L1618.3594,530.0156 Q1618.3594,530.625 1618.125,530.8906 Q1617.8906,531.1563 1617.5156,531.1563 Q1617.1719,531.1563 1616.9688,530.9531 Q1616.7656,530.7656 1616.6563,530.25 Q1616.6094,529.8906 1616.4219,529.7031 Q1616.0938,529.3281 1615.4844,529.1094 Q1614.875,528.8906 1614.25,528.8906 Q1613.4844,528.8906 1612.8438,529.2188 Q1612.2188,529.5469 1611.7188,530.2969 Q1611.2344,531.0469 1611.2344,532.0781 L1611.2344,533.1719 Q1611.2344,534.4063 1612.125,535.2344 Q1613.0156,536.0469 1614.6094,536.0469 Q1615.5469,536.0469 1616.2031,535.7969 Q1616.5938,535.6406 1617.0156,535.2031 Q1617.2813,534.9375 1617.4219,534.8594 Q1617.5781,534.7813 1617.7813,534.7813 Q1618.1094,534.7813 1618.3594,535.0469 Q1618.625,535.2969 1618.625,535.6406 Q1618.625,535.9844 1618.2813,536.3906 Q1617.7813,536.9688 1616.9844,537.2969 Q1615.9063,537.75 1614.6094,537.75 Q1613.0938,537.75 1611.8906,537.125 Q1610.9063,536.625 1610.2188,535.5625 Q1609.5313,534.4844 1609.5313,533.2031 L1609.5313,532.0469 Q1609.5313,530.7188 1610.1406,529.5781 Q1610.7656,528.4219 1611.8594,527.8125 Q1612.9531,527.1875 1614.1875,527.1875 Q1614.9219,527.1875 1615.5625,527.3594 Q1616.2188,527.5156 1616.7656,527.875 Z "/><text fill="#000000" font-family="sans-serif" font-size="12" lengthAdjust="spacingAndGlyphs" textLength="30" x="1628" y="536.9102">Stack</text><line style="stroke: #A80036; stroke-width: 1.5;" x1="1600" x2="1660" y1="548" y2="548"/><line style="stroke: #A80036; stroke-width: 1.5;" x1="1600" x2="1660" y1="556" y2="556"/><polygon fill="#FFC0CB" filter="url(#flb4xsvkwiaft)" points="1240.5,512.5,1355.5,512.5,1362.5,536.1094,1369.5,536.1094,1369.5,567.7188,1240.5,567.7188,1240.5,512.5" style="stroke: #000000; stroke-width: 1.5;"/><line style="stroke: #000000; stroke-width: 1.5;" x1="1240.5" x2="1362.5" y1="536.1094" y2="536.1094"/><text fill="#000000" font-family="sans-serif" font-size="14" font-weight="bold" lengthAdjust="spacingAndGlyphs" textLength="109" x="1244.5" y="529.0332">Security Aspect</text><polygon fill="#FFC0CB" filter="url(#flb4xsvkwiaft)" points="1405,512.5,1515,512.5,1522,536.1094,1529,536.1094,1529,567.7188,1405,567.7188,1405,512.5" style="stroke: #000000; stroke-width: 1.5;"/><line style="stroke: #000000; stroke-width: 1.5;" x1="1405" x2="1522" y1="536.1094" y2="536.1094"/><text fill="#000000" font-family="sans-serif" font-size="14" font-weight="bold" lengthAdjust="spacingAndGlyphs" textLength="104" x="1409" y="529.0332">Identity Aspect</text><!--class Workload--><rect fill="#FEFECE" filter="url(#flb4xsvkwiaft)" height="61.8359" id="Workload" style="stroke: #A80036; stroke-width: 1.5;" width="84" x="571" y="509"/><ellipse cx="586" cy="525" fill="#ADD1B2" rx="11" ry="11" style="stroke: #A80036; stroke-width: 1.0;"/><path d="M588.7656,520.875 Q588.9219,520.6563 589.1094,520.5469 Q589.2969,520.4375 589.5156,520.4375 Q589.8906,520.4375 590.125,520.7031 Q590.3594,520.9531 590.3594,521.5625 L590.3594,523.0156 Q590.3594,523.625 590.125,523.8906 Q589.8906,524.1563 589.5156,524.1563 Q589.1719,524.1563 588.9688,523.9531 Q588.7656,523.7656 588.6563,523.25 Q588.6094,522.8906 588.4219,522.7031 Q588.0938,522.3281 587.4844,522.1094 Q586.875,521.8906 586.25,521.8906 Q585.4844,521.8906 584.8438,522.2188 Q584.2188,522.5469 583.7188,523.2969 Q583.2344,524.0469 583.2344,525.0781 L583.2344,526.1719 Q583.2344,527.4063 584.125,528.2344 Q585.0156,529.0469 586.6094,529.0469 Q587.5469,529.0469 588.2031,528.7969 Q588.5938,528.6406 589.0156,528.2031 Q589.2813,527.9375 589.4219,527.8594 Q589.5781,527.7813 589.7813,527.7813 Q590.1094,527.7813 590.3594,528.0469 Q590.625,528.2969 590.625,528.6406 Q590.625,528.9844 590.2813,529.3906 Q589.7813,529.9688 588.9844,530.2969 Q587.9063,530.75 586.6094,530.75 Q585.0938,530.75 583.8906,530.125 Q582.9063,529.625 582.2188,528.5625 Q581.5313,527.4844 581.5313,526.2031 L581.5313,525.0469 Q581.5313,523.7188 582.1406,522.5781 Q582.7656,521.4219 583.8594,520.8125 Q584.9531,520.1875 586.1875,520.1875 Q586.9219,520.1875 587.5625,520.3594 Q588.2188,520.5156 588.7656,520.875 Z "/><text fill="#000000" font-family="sans-serif" font-size="12" lengthAdjust="spacingAndGlyphs" textLength="52" x="600" y="529.9102">Workload</text><line style="stroke: #A80036; stroke-width: 1.5;" x1="572" x2="654" y1="541" y2="541"/><text fill="#000000" font-family="sans-serif" font-size="11" lengthAdjust="spacingAndGlyphs" textLength="52" x="577" y="556.4189">string attr1</text><line style="stroke: #A80036; stroke-width: 1.5;" x1="572" x2="654" y1="562.8359" y2="562.8359"/><!--class ApplicationInstance--><rect fill="#FEFECE" filter="url(#flb4xsvkwiaft)" height="89.5078" id="ApplicationInstance" style="stroke: #A80036; stroke-width: 1.5;" width="139" x="690.5" y="495"/><ellipse cx="705.5" cy="511" fill="#ADD1B2" rx="11" ry="11" style="stroke: #A80036; stroke-width: 1.0;"/><path d="M708.2656,506.875 Q708.4219,506.6563 708.6094,506.5469 Q708.7969,506.4375 709.0156,506.4375 Q709.3906,506.4375 709.625,506.7031 Q709.8594,506.9531 709.8594,507.5625 L709.8594,509.0156 Q709.8594,509.625 709.625,509.8906 Q709.3906,510.1563 709.0156,510.1563 Q708.6719,510.1563 708.4688,509.9531 Q708.2656,509.7656 708.1563,509.25 Q708.1094,508.8906 707.9219,508.7031 Q707.5938,508.3281 706.9844,508.1094 Q706.375,507.8906 705.75,507.8906 Q704.9844,507.8906 704.3438,508.2188 Q703.7188,508.5469 703.2188,509.2969 Q702.7344,510.0469 702.7344,511.0781 L702.7344,512.1719 Q702.7344,513.4063 703.625,514.2344 Q704.5156,515.0469 706.1094,515.0469 Q707.0469,515.0469 707.7031,514.7969 Q708.0938,514.6406 708.5156,514.2031 Q708.7813,513.9375 708.9219,513.8594 Q709.0781,513.7813 709.2813,513.7813 Q709.6094,513.7813 709.8594,514.0469 Q710.125,514.2969 710.125,514.6406 Q710.125,514.9844 709.7813,515.3906 Q709.2813,515.9688 708.4844,516.2969 Q707.4063,516.75 706.1094,516.75 Q704.5938,516.75 703.3906,516.125 Q702.4063,515.625 701.7188,514.5625 Q701.0313,513.4844 701.0313,512.2031 L701.0313,511.0469 Q701.0313,509.7188 701.6406,508.5781 Q702.2656,507.4219 703.3594,506.8125 Q704.4531,506.1875 705.6875,506.1875 Q706.4219,506.1875 707.0625,506.3594 Q707.7188,506.5156 708.2656,506.875 Z "/><text fill="#000000" font-family="sans-serif" font-size="12" lengthAdjust="spacingAndGlyphs" textLength="107" x="719.5" y="515.9102">ApplicationInstance</text><line style="stroke: #A80036; stroke-width: 1.5;" x1="691.5" x2="828.5" y1="527" y2="527"/><text fill="#000000" font-family="sans-serif" font-size="11" lengthAdjust="spacingAndGlyphs" textLength="56" x="696.5" y="542.4189">string name</text><text fill="#000000" font-family="sans-serif" font-size="11" lengthAdjust="spacingAndGlyphs" textLength="60" x="696.5" y="556.2549">string status</text><text fill="#000000" font-family="sans-serif" font-size="11" lengthAdjust="spacingAndGlyphs" textLength="74" x="696.5" y="570.0908">string message</text><line style="stroke: #A80036; stroke-width: 1.5;" x1="691.5" x2="828.5" y1="576.5078" y2="576.5078"/><!--class i--><rect fill="#FEFECE" filter="url(#flb4xsvkwiaft)" height="283.2109" id="i" style="stroke: #A80036; stroke-width: 1.5;" width="202" x="617" y="117"/><ellipse cx="632" cy="133" fill="#B4A7E5" rx="11" ry="11" style="stroke: #A80036; stroke-width: 1.0;"/><path d="M632.9531,129.6406 L632.9531,136.2969 L634.6719,136.2969 Q635.2813,136.2969 635.5469,136.5313 Q635.8125,136.7656 635.8125,137.1563 Q635.8125,137.5313 635.5469,137.7656 Q635.2813,138 634.6719,138 L629.5313,138 Q628.9219,138 628.6563,137.7656 Q628.3906,137.5313 628.3906,137.1406 Q628.3906,136.7656 628.6563,136.5313 Q628.9219,136.2969 629.5313,136.2969 L631.25,136.2969 L631.25,129.6406 L629.5313,129.6406 Q628.9219,129.6406 628.6563,129.4063 Q628.3906,129.1719 628.3906,128.7813 Q628.3906,128.4063 628.6563,128.1719 Q628.9219,127.9375 629.5313,127.9375 L634.6719,127.9375 Q635.2813,127.9375 635.5469,128.1719 Q635.8125,128.4063 635.8125,128.7813 Q635.8125,129.1719 635.5469,129.4063 Q635.2813,129.6406 634.6719,129.6406 L632.9531,129.6406 Z "/><text fill="#000000" font-family="sans-serif" font-size="12" font-style="italic" lengthAdjust="spacingAndGlyphs" textLength="170" x="646" y="137.9102">Application Management Layer</text><line style="stroke: #A80036; stroke-width: 1.5;" x1="618" x2="818" y1="149" y2="149"/><line style="stroke: #A80036; stroke-width: 1.5;" x1="618" x2="818" y1="157" y2="157"/><text fill="#000000" font-family="sans-serif" font-size="11" lengthAdjust="spacingAndGlyphs" textLength="151" x="623" y="172.4189">/edgemere/aml/aimodel/create()</text><text fill="#000000" font-family="sans-serif" font-size="11" lengthAdjust="spacingAndGlyphs" textLength="152" x="623" y="186.2549">/edgemere/aml/aimodel/deploy()</text><text fill="#000000" font-family="sans-serif" font-size="11" lengthAdjust="spacingAndGlyphs" textLength="157" x="623" y="200.0908">/edgemere/aml/aimodel/destroy()</text><text fill="#000000" font-family="sans-serif" font-size="11" lengthAdjust="spacingAndGlyphs" textLength="133" x="623" y="213.9268">/edgemere/aml/aimodel/list()</text><text fill="#000000" font-family="sans-serif" font-size="11" lengthAdjust="spacingAndGlyphs" textLength="153" x="623" y="227.7627">/edgemere/aml/aimodel/update()</text><text fill="#000000" font-family="sans-serif" font-size="11" lengthAdjust="spacingAndGlyphs" textLength="166" x="623" y="241.5986">/edgemere/aml/application/create()</text><text fill="#000000" font-family="sans-serif" font-size="11" lengthAdjust="spacingAndGlyphs" textLength="167" x="623" y="255.4346">/edgemere/aml/application/deploy()</text><text fill="#000000" font-family="sans-serif" font-size="11" lengthAdjust="spacingAndGlyphs" textLength="172" x="623" y="269.2705">/edgemere/aml/application/destroy()</text><text fill="#000000" font-family="sans-serif" font-size="11" lengthAdjust="spacingAndGlyphs" textLength="148" x="623" y="283.1064">/edgemere/aml/application/list()</text><text fill="#000000" font-family="sans-serif" font-size="11" lengthAdjust="spacingAndGlyphs" textLength="170" x="623" y="296.9424">/edgemere/aml/application/monitor()</text><text fill="#000000" font-family="sans-serif" font-size="11" lengthAdjust="spacingAndGlyphs" textLength="168" x="623" y="310.7783">/edgemere/aml/application/update()</text><text fill="#000000" font-family="sans-serif" font-size="11" lengthAdjust="spacingAndGlyphs" textLength="160" x="623" y="324.6143">/edgemere/aml/workload/create()</text><text fill="#000000" font-family="sans-serif" font-size="11" lengthAdjust="spacingAndGlyphs" textLength="161" x="623" y="338.4502">/edgemere/aml/workload/deploy()</text><text fill="#000000" font-family="sans-serif" font-size="11" lengthAdjust="spacingAndGlyphs" textLength="166" x="623" y="352.2861">/edgemere/aml/workload/destroy()</text><text fill="#000000" font-family="sans-serif" font-size="11" lengthAdjust="spacingAndGlyphs" textLength="142" x="623" y="366.1221">/edgemere/aml/workload/list()</text><text fill="#000000" font-family="sans-serif" font-size="11" lengthAdjust="spacingAndGlyphs" textLength="164" x="623" y="379.958">/edgemere/aml/workload/monitor()</text><text fill="#000000" font-family="sans-serif" font-size="11" lengthAdjust="spacingAndGlyphs" textLength="162" x="623" y="393.7939">/edgemere/aml/workload/update()</text><!--class Application--><rect fill="#FEFECE" filter="url(#flb4xsvkwiaft)" height="75.6719" id="Application" style="stroke: #A80036; stroke-width: 1.5;" width="92" x="490" y="220.5"/><ellipse cx="505" cy="236.5" fill="#ADD1B2" rx="11" ry="11" style="stroke: #A80036; stroke-width: 1.0;"/><path d="M507.7656,232.375 Q507.9219,232.1563 508.1094,232.0469 Q508.2969,231.9375 508.5156,231.9375 Q508.8906,231.9375 509.125,232.2031 Q509.3594,232.4531 509.3594,233.0625 L509.3594,234.5156 Q509.3594,235.125 509.125,235.3906 Q508.8906,235.6563 508.5156,235.6563 Q508.1719,235.6563 507.9688,235.4531 Q507.7656,235.2656 507.6563,234.75 Q507.6094,234.3906 507.4219,234.2031 Q507.0938,233.8281 506.4844,233.6094 Q505.875,233.3906 505.25,233.3906 Q504.4844,233.3906 503.8438,233.7188 Q503.2188,234.0469 502.7188,234.7969 Q502.2344,235.5469 502.2344,236.5781 L502.2344,237.6719 Q502.2344,238.9063 503.125,239.7344 Q504.0156,240.5469 505.6094,240.5469 Q506.5469,240.5469 507.2031,240.2969 Q507.5938,240.1406 508.0156,239.7031 Q508.2813,239.4375 508.4219,239.3594 Q508.5781,239.2813 508.7813,239.2813 Q509.1094,239.2813 509.3594,239.5469 Q509.625,239.7969 509.625,240.1406 Q509.625,240.4844 509.2813,240.8906 Q508.7813,241.4688 507.9844,241.7969 Q506.9063,242.25 505.6094,242.25 Q504.0938,242.25 502.8906,241.625 Q501.9063,241.125 501.2188,240.0625 Q500.5313,238.9844 500.5313,237.7031 L500.5313,236.5469 Q500.5313,235.2188 501.1406,234.0781 Q501.7656,232.9219 502.8594,232.3125 Q503.9531,231.6875 505.1875,231.6875 Q505.9219,231.6875 506.5625,231.8594 Q507.2188,232.0156 507.7656,232.375 Z "/><text fill="#000000" font-family="sans-serif" font-size="12" lengthAdjust="spacingAndGlyphs" textLength="60" x="519" y="241.4102">Application</text><line style="stroke: #A80036; stroke-width: 1.5;" x1="491" x2="581" y1="252.5" y2="252.5"/><text fill="#000000" font-family="sans-serif" font-size="11" lengthAdjust="spacingAndGlyphs" textLength="56" x="496" y="267.9189">string name</text><text fill="#000000" font-family="sans-serif" font-size="11" lengthAdjust="spacingAndGlyphs" textLength="66" x="496" y="281.7549">string version</text><line style="stroke: #A80036; stroke-width: 1.5;" x1="491" x2="581" y1="288.1719" y2="288.1719"/><!--class ModelName--><rect fill="#FEFECE" filter="url(#flb4xsvkwiaft)" height="48" id="ModelName" style="stroke: #A80036; stroke-width: 1.5;" width="99" x="414.5" y="663"/><ellipse cx="429.5" cy="679" fill="#ADD1B2" rx="11" ry="11" style="stroke: #A80036; stroke-width: 1.0;"/><path d="M432.2656,674.875 Q432.4219,674.6563 432.6094,674.5469 Q432.7969,674.4375 433.0156,674.4375 Q433.3906,674.4375 433.625,674.7031 Q433.8594,674.9531 433.8594,675.5625 L433.8594,677.0156 Q433.8594,677.625 433.625,677.8906 Q433.3906,678.1563 433.0156,678.1563 Q432.6719,678.1563 432.4688,677.9531 Q432.2656,677.7656 432.1563,677.25 Q432.1094,676.8906 431.9219,676.7031 Q431.5938,676.3281 430.9844,676.1094 Q430.375,675.8906 429.75,675.8906 Q428.9844,675.8906 428.3438,676.2188 Q427.7188,676.5469 427.2188,677.2969 Q426.7344,678.0469 426.7344,679.0781 L426.7344,680.1719 Q426.7344,681.4063 427.625,682.2344 Q428.5156,683.0469 430.1094,683.0469 Q431.0469,683.0469 431.7031,682.7969 Q432.0938,682.6406 432.5156,682.2031 Q432.7813,681.9375 432.9219,681.8594 Q433.0781,681.7813 433.2813,681.7813 Q433.6094,681.7813 433.8594,682.0469 Q434.125,682.2969 434.125,682.6406 Q434.125,682.9844 433.7813,683.3906 Q433.2813,683.9688 432.4844,684.2969 Q431.4063,684.75 430.1094,684.75 Q428.5938,684.75 427.3906,684.125 Q426.4063,683.625 425.7188,682.5625 Q425.0313,681.4844 425.0313,680.2031 L425.0313,679.0469 Q425.0313,677.7188 425.6406,676.5781 Q426.2656,675.4219 427.3594,674.8125 Q428.4531,674.1875 429.6875,674.1875 Q430.4219,674.1875 431.0625,674.3594 Q431.7188,674.5156 432.2656,674.875 Z "/><text fill="#000000" font-family="sans-serif" font-size="12" lengthAdjust="spacingAndGlyphs" textLength="67" x="443.5" y="683.9102">ModelName</text><line style="stroke: #A80036; stroke-width: 1.5;" x1="415.5" x2="512.5" y1="695" y2="695"/><line style="stroke: #A80036; stroke-width: 1.5;" x1="415.5" x2="512.5" y1="703" y2="703"/><!--class ApplicationTemplate--><rect fill="#FEFECE" filter="url(#flb4xsvkwiaft)" height="61.8359" id="ApplicationTemplate" style="stroke: #A80036; stroke-width: 1.5;" width="144" x="392" y="509"/><ellipse cx="407" cy="525" fill="#ADD1B2" rx="11" ry="11" style="stroke: #A80036; stroke-width: 1.0;"/><path d="M409.7656,520.875 Q409.9219,520.6563 410.1094,520.5469 Q410.2969,520.4375 410.5156,520.4375 Q410.8906,520.4375 411.125,520.7031 Q411.3594,520.9531 411.3594,521.5625 L411.3594,523.0156 Q411.3594,523.625 411.125,523.8906 Q410.8906,524.1563 410.5156,524.1563 Q410.1719,524.1563 409.9688,523.9531 Q409.7656,523.7656 409.6563,523.25 Q409.6094,522.8906 409.4219,522.7031 Q409.0938,522.3281 408.4844,522.1094 Q407.875,521.8906 407.25,521.8906 Q406.4844,521.8906 405.8438,522.2188 Q405.2188,522.5469 404.7188,523.2969 Q404.2344,524.0469 404.2344,525.0781 L404.2344,526.1719 Q404.2344,527.4063 405.125,528.2344 Q406.0156,529.0469 407.6094,529.0469 Q408.5469,529.0469 409.2031,528.7969 Q409.5938,528.6406 410.0156,528.2031 Q410.2813,527.9375 410.4219,527.8594 Q410.5781,527.7813 410.7813,527.7813 Q411.1094,527.7813 411.3594,528.0469 Q411.625,528.2969 411.625,528.6406 Q411.625,528.9844 411.2813,529.3906 Q410.7813,529.9688 409.9844,530.2969 Q408.9063,530.75 407.6094,530.75 Q406.0938,530.75 404.8906,530.125 Q403.9063,529.625 403.2188,528.5625 Q402.5313,527.4844 402.5313,526.2031 L402.5313,525.0469 Q402.5313,523.7188 403.1406,522.5781 Q403.7656,521.4219 404.8594,520.8125 Q405.9531,520.1875 407.1875,520.1875 Q407.9219,520.1875 408.5625,520.3594 Q409.2188,520.5156 409.7656,520.875 Z "/><text fill="#000000" font-family="sans-serif" font-size="12" lengthAdjust="spacingAndGlyphs" textLength="112" x="421" y="529.9102">ApplicationTemplate</text><line style="stroke: #A80036; stroke-width: 1.5;" x1="393" x2="535" y1="541" y2="541"/><text fill="#000000" font-family="sans-serif" font-size="11" lengthAdjust="spacingAndGlyphs" textLength="52" x="398" y="556.4189">string attr1</text><line style="stroke: #A80036; stroke-width: 1.5;" x1="393" x2="535" y1="562.8359" y2="562.8359"/><!--class WorkloadInstance--><rect fill="#FEFECE" filter="url(#flb4xsvkwiaft)" height="61.8359" id="WorkloadInstance" style="stroke: #A80036; stroke-width: 1.5;" width="131" x="225.5" y="509"/><ellipse cx="240.5" cy="525" fill="#ADD1B2" rx="11" ry="11" style="stroke: #A80036; stroke-width: 1.0;"/><path d="M243.2656,520.875 Q243.4219,520.6563 243.6094,520.5469 Q243.7969,520.4375 244.0156,520.4375 Q244.3906,520.4375 244.625,520.7031 Q244.8594,520.9531 244.8594,521.5625 L244.8594,523.0156 Q244.8594,523.625 244.625,523.8906 Q244.3906,524.1563 244.0156,524.1563 Q243.6719,524.1563 243.4688,523.9531 Q243.2656,523.7656 243.1563,523.25 Q243.1094,522.8906 242.9219,522.7031 Q242.5938,522.3281 241.9844,522.1094 Q241.375,521.8906 240.75,521.8906 Q239.9844,521.8906 239.3438,522.2188 Q238.7188,522.5469 238.2188,523.2969 Q237.7344,524.0469 237.7344,525.0781 L237.7344,526.1719 Q237.7344,527.4063 238.625,528.2344 Q239.5156,529.0469 241.1094,529.0469 Q242.0469,529.0469 242.7031,528.7969 Q243.0938,528.6406 243.5156,528.2031 Q243.7813,527.9375 243.9219,527.8594 Q244.0781,527.7813 244.2813,527.7813 Q244.6094,527.7813 244.8594,528.0469 Q245.125,528.2969 245.125,528.6406 Q245.125,528.9844 244.7813,529.3906 Q244.2813,529.9688 243.4844,530.2969 Q242.4063,530.75 241.1094,530.75 Q239.5938,530.75 238.3906,530.125 Q237.4063,529.625 236.7188,528.5625 Q236.0313,527.4844 236.0313,526.2031 L236.0313,525.0469 Q236.0313,523.7188 236.6406,522.5781 Q237.2656,521.4219 238.3594,520.8125 Q239.4531,520.1875 240.6875,520.1875 Q241.4219,520.1875 242.0625,520.3594 Q242.7188,520.5156 243.2656,520.875 Z "/><text fill="#000000" font-family="sans-serif" font-size="12" lengthAdjust="spacingAndGlyphs" textLength="99" x="254.5" y="529.9102">WorkloadInstance</text><line style="stroke: #A80036; stroke-width: 1.5;" x1="226.5" x2="355.5" y1="541" y2="541"/><text fill="#000000" font-family="sans-serif" font-size="11" lengthAdjust="spacingAndGlyphs" textLength="52" x="231.5" y="556.4189">string attr1</text><line style="stroke: #A80036; stroke-width: 1.5;" x1="226.5" x2="355.5" y1="562.8359" y2="562.8359"/><!--class WorkloadTemplate--><rect fill="#FEFECE" filter="url(#flb4xsvkwiaft)" height="61.8359" id="WorkloadTemplate" style="stroke: #A80036; stroke-width: 1.5;" width="136" x="54" y="509"/><ellipse cx="69" cy="525" fill="#ADD1B2" rx="11" ry="11" style="stroke: #A80036; stroke-width: 1.0;"/><path d="M71.7656,520.875 Q71.9219,520.6563 72.1094,520.5469 Q72.2969,520.4375 72.5156,520.4375 Q72.8906,520.4375 73.125,520.7031 Q73.3594,520.9531 73.3594,521.5625 L73.3594,523.0156 Q73.3594,523.625 73.125,523.8906 Q72.8906,524.1563 72.5156,524.1563 Q72.1719,524.1563 71.9688,523.9531 Q71.7656,523.7656 71.6563,523.25 Q71.6094,522.8906 71.4219,522.7031 Q71.0938,522.3281 70.4844,522.1094 Q69.875,521.8906 69.25,521.8906 Q68.4844,521.8906 67.8438,522.2188 Q67.2188,522.5469 66.7188,523.2969 Q66.2344,524.0469 66.2344,525.0781 L66.2344,526.1719 Q66.2344,527.4063 67.125,528.2344 Q68.0156,529.0469 69.6094,529.0469 Q70.5469,529.0469 71.2031,528.7969 Q71.5938,528.6406 72.0156,528.2031 Q72.2813,527.9375 72.4219,527.8594 Q72.5781,527.7813 72.7813,527.7813 Q73.1094,527.7813 73.3594,528.0469 Q73.625,528.2969 73.625,528.6406 Q73.625,528.9844 73.2813,529.3906 Q72.7813,529.9688 71.9844,530.2969 Q70.9063,530.75 69.6094,530.75 Q68.0938,530.75 66.8906,530.125 Q65.9063,529.625 65.2188,528.5625 Q64.5313,527.4844 64.5313,526.2031 L64.5313,525.0469 Q64.5313,523.7188 65.1406,522.5781 Q65.7656,521.4219 66.8594,520.8125 Q67.9531,520.1875 69.1875,520.1875 Q69.9219,520.1875 70.5625,520.3594 Q71.2188,520.5156 71.7656,520.875 Z "/><text fill="#000000" font-family="sans-serif" font-size="12" lengthAdjust="spacingAndGlyphs" textLength="104" x="83" y="529.9102">WorkloadTemplate</text><line style="stroke: #A80036; stroke-width: 1.5;" x1="55" x2="189" y1="541" y2="541"/><text fill="#000000" font-family="sans-serif" font-size="11" lengthAdjust="spacingAndGlyphs" textLength="52" x="60" y="556.4189">string attr1</text><line style="stroke: #A80036; stroke-width: 1.5;" x1="55" x2="189" y1="562.8359" y2="562.8359"/><!--class DataReference--><rect fill="#FEFECE" filter="url(#flb4xsvkwiaft)" height="48" id="DataReference" style="stroke: #A80036; stroke-width: 1.5;" width="115" x="1808.5" y="516"/><ellipse cx="1823.5" cy="532" fill="#ADD1B2" rx="11" ry="11" style="stroke: #A80036; stroke-width: 1.0;"/><path d="M1826.2656,527.875 Q1826.4219,527.6563 1826.6094,527.5469 Q1826.7969,527.4375 1827.0156,527.4375 Q1827.3906,527.4375 1827.625,527.7031 Q1827.8594,527.9531 1827.8594,528.5625 L1827.8594,530.0156 Q1827.8594,530.625 1827.625,530.8906 Q1827.3906,531.1563 1827.0156,531.1563 Q1826.6719,531.1563 1826.4688,530.9531 Q1826.2656,530.7656 1826.1563,530.25 Q1826.1094,529.8906 1825.9219,529.7031 Q1825.5938,529.3281 1824.9844,529.1094 Q1824.375,528.8906 1823.75,528.8906 Q1822.9844,528.8906 1822.3438,529.2188 Q1821.7188,529.5469 1821.2188,530.2969 Q1820.7344,531.0469 1820.7344,532.0781 L1820.7344,533.1719 Q1820.7344,534.4063 1821.625,535.2344 Q1822.5156,536.0469 1824.1094,536.0469 Q1825.0469,536.0469 1825.7031,535.7969 Q1826.0938,535.6406 1826.5156,535.2031 Q1826.7813,534.9375 1826.9219,534.8594 Q1827.0781,534.7813 1827.2813,534.7813 Q1827.6094,534.7813 1827.8594,535.0469 Q1828.125,535.2969 1828.125,535.6406 Q1828.125,535.9844 1827.7813,536.3906 Q1827.2813,536.9688 1826.4844,537.2969 Q1825.4063,537.75 1824.1094,537.75 Q1822.5938,537.75 1821.3906,537.125 Q1820.4063,536.625 1819.7188,535.5625 Q1819.0313,534.4844 1819.0313,533.2031 L1819.0313,532.0469 Q1819.0313,530.7188 1819.6406,529.5781 Q1820.2656,528.4219 1821.3594,527.8125 Q1822.4531,527.1875 1823.6875,527.1875 Q1824.4219,527.1875 1825.0625,527.3594 Q1825.7188,527.5156 1826.2656,527.875 Z "/><text fill="#000000" font-family="sans-serif" font-size="12" lengthAdjust="spacingAndGlyphs" textLength="83" x="1837.5" y="536.9102">DataReference</text><line style="stroke: #A80036; stroke-width: 1.5;" x1="1809.5" x2="1922.5" y1="548" y2="548"/><line style="stroke: #A80036; stroke-width: 1.5;" x1="1809.5" x2="1922.5" y1="556" y2="556"/><ellipse cx="673" cy="13" fill="#FEFECE" filter="url(#flb4xsvkwiaft)" rx="5" ry="5" style="stroke: #A80036; stroke-width: 1.5;"/><text fill="#000000" font-family="sans-serif" font-size="12" lengthAdjust="spacingAndGlyphs" textLength="19" x="663.5" y="30.457">CLI</text><ellipse cx="718" cy="13" fill="#FEFECE" filter="url(#flb4xsvkwiaft)" rx="5" ry="5" style="stroke: #A80036; stroke-width: 1.5;"/><text fill="#000000" font-family="sans-serif" font-size="12" lengthAdjust="spacingAndGlyphs" textLength="32" x="702" y="30.457">REST</text><ellipse cx="763" cy="13" fill="#FEFECE" filter="url(#flb4xsvkwiaft)" rx="5" ry="5" style="stroke: #A80036; stroke-width: 1.5;"/><text fill="#000000" font-family="sans-serif" font-size="12" lengthAdjust="spacingAndGlyphs" textLength="25" x="750.5" y="30.457">Web</text><!--link ilol1023 to i--><path d="M673.781,18.226 C676.179,31.204 683.776,72.31 692.012,116.874 " fill="none" id="ilol1023-i" style="stroke: #A80036; stroke-width: 1.0;"/><!--link ilol1026 to i--><path d="M718,18.226 C718,31.204 718,72.31 718,116.874 " fill="none" id="ilol1026-i" style="stroke: #A80036; stroke-width: 1.0;"/><!--link ilol1029 to i--><path d="M762.219,18.226 C759.821,31.204 752.224,72.31 743.988,116.874 " fill="none" id="ilol1029-i" style="stroke: #A80036; stroke-width: 1.0;"/><!--link Application to Workload--><path d="M549.759,309.445 C564.386,362.539 587.279,445.635 601.138,495.942 " fill="none" id="Application-Workload" style="stroke: #A80036; stroke-width: 1.0;"/><polygon fill="#A80036" points="604.625,508.598,606.0908,498.8588,603.297,503.7776,598.3782,500.9837,604.625,508.598" style="stroke: #A80036; stroke-width: 1.0;"/><line style="stroke: #A80036; stroke-width: 1.0;" x1="603.297" x2="601.1715" y1="503.7776" y2="496.0655"/><polygon fill="#FFFFFF" points="546.225,296.615,543.9623,303.4619,549.4123,308.184,551.675,301.3371,546.225,296.615" style="stroke: #A80036; stroke-width: 1.0;"/><text fill="#000000" font-family="sans-serif" font-size="13" lengthAdjust="spacingAndGlyphs" textLength="58" x="587" y="444.4951">workloads</text><text fill="#000000" font-family="sans-serif" font-size="13" lengthAdjust="spacingAndGlyphs" textLength="7" x="595.1758" y="498.0196">n</text><!--link Application to Stack--><path d="M544.807,309.529 C553.142,340.969 569.052,379.358 599,400 C675.15,452.488 1337.64,443.094 1430,448 C1448.33,448.974 1579.96,445.484 1595,456 C1610.45,466.8 1619.11,485.829 1623.95,502.944 " fill="none" id="Application-Stack" style="stroke: #A80036; stroke-width: 1.0;"/><polygon fill="#A80036" points="1627.01,515.778,1628.8116,506.0953,1625.8494,510.9146,1621.0301,507.9523,1627.01,515.778" style="stroke: #A80036; stroke-width: 1.0;"/><line style="stroke: #A80036; stroke-width: 1.0;" x1="1625.8494" x2="1623.995" y1="510.9146" y2="503.133"/><polygon fill="#A80036" points="541.68,296.552,539.197,303.3221,544.4913,308.218,546.9744,301.4479,541.68,296.552" style="stroke: #A80036; stroke-width: 1.0;"/><text fill="#000000" font-family="sans-serif" font-size="13" lengthAdjust="spacingAndGlyphs" textLength="39" x="1431" y="444.4951">stacks</text><text fill="#000000" font-family="sans-serif" font-size="13" lengthAdjust="spacingAndGlyphs" textLength="7" x="1618.3469" y="505.0613">n</text><!--link Application to DataReference--><path d="M544.649,309.761 C552.917,341.299 568.812,379.711 599,400 C639.415,427.163 1426.46,426.054 1475,430 C1565.22,437.335 1589.78,431.777 1677,456 C1723.84,469.01 1774.12,491.541 1811.03,509.847 " fill="none" id="Application-DataReference" style="stroke: #A80036; stroke-width: 1.0;"/><polygon fill="#A80036" points="1823.01,515.874,1816.7677,508.256,1818.5434,513.627,1813.1724,515.4026,1823.01,515.874" style="stroke: #A80036; stroke-width: 1.0;"/><line style="stroke: #A80036; stroke-width: 1.0;" x1="1818.5434" x2="1811.395" y1="513.627" y2="510.032"/><polygon fill="#FFFFFF" points="541.553,296.738,539.0493,303.5005,544.3286,308.4126,546.8323,301.6501,541.553,296.738" style="stroke: #A80036; stroke-width: 1.0;"/><text fill="#000000" font-family="sans-serif" font-size="13" lengthAdjust="spacingAndGlyphs" textLength="25" x="1644" y="444.4951">data</text><text fill="#000000" font-family="sans-serif" font-size="13" lengthAdjust="spacingAndGlyphs" textLength="7" x="1804.0969" y="505.1819">n</text><!--link Application to ApplicationInstance--><path d="M549.46,309.119 C559.362,338.29 575.281,374.359 599,400 C617.908,420.44 631.823,413.163 654,430 C675.215,446.106 696.176,466.451 713.785,485.191 " fill="none" id="Application-ApplicationInstance" style="stroke: #A80036; stroke-width: 1.0;"/><polygon fill="#A80036" points="722.672,494.813,719.5043,485.4875,719.2796,491.1399,713.6272,490.9152,722.672,494.813" style="stroke: #A80036; stroke-width: 1.0;"/><line style="stroke: #A80036; stroke-width: 1.0;" x1="719.2796" x2="713.8515" y1="491.1399" y2="485.263"/><polygon fill="#A80036" points="545.454,296.677,543.4854,303.6142,549.1318,308.0995,551.1004,301.1623,545.454,296.677" style="stroke: #A80036; stroke-width: 1.0;"/><text fill="#000000" font-family="sans-serif" font-size="13" lengthAdjust="spacingAndGlyphs" textLength="56" x="675" y="444.4951">instances</text><text fill="#000000" font-family="sans-serif" font-size="13" lengthAdjust="spacingAndGlyphs" textLength="7" x="709.4202" y="484.2285">n</text><!--link ApplicationInstance to ModelName--><path d="M691.734,592.282 C685.194,596.455 678.555,600.432 672,604 C625.09,629.531 568.519,651.306 526.224,665.9863 " fill="none" id="ApplicationInstance-ModelName" style="stroke: #A80036; stroke-width: 1.0;"/><polygon fill="#A80036" points="513.861,670.2169,523.6713,671.0878,518.5917,668.5982,521.0813,663.5186,513.861,670.2169" style="stroke: #A80036; stroke-width: 1.0;"/><line style="stroke: #A80036; stroke-width: 1.0;" x1="518.5917" x2="526.161" y1="668.5982" y2="666.0078"/><polygon fill="#FFFFFF" points="702.613,585.11,695.402,585.0729,692.5942,591.7149,699.8053,591.752,702.613,585.11" style="stroke: #A80036; stroke-width: 1.0;"/><text fill="#000000" font-family="sans-serif" font-size="13" lengthAdjust="spacingAndGlyphs" textLength="42" x="652" y="629.4951">assoc1</text><text fill="#000000" font-family="sans-serif" font-size="13" lengthAdjust="spacingAndGlyphs" textLength="7" x="521.3649" y="664.2517">1</text><!--link ApplicationTemplate to ModelName--><path d="M464,584.241 C464,605.034 464,629.684 464,649.515 " fill="none" id="ApplicationTemplate-ModelName" style="stroke: #A80036; stroke-width: 1.0;"/><polygon fill="#A80036" points="464,662.6731,468,653.6731,464,657.6731,460,653.6731,464,662.6731" style="stroke: #A80036; stroke-width: 1.0;"/><line style="stroke: #A80036; stroke-width: 1.0;" x1="464" x2="464" y1="657.6731" y2="649.673"/><polygon fill="#FFFFFF" points="464,571.044,460,577.044,464,583.044,468,577.044,464,571.044" style="stroke: #A80036; stroke-width: 1.0;"/><text fill="#000000" font-family="sans-serif" font-size="13" lengthAdjust="spacingAndGlyphs" textLength="42" x="465" y="629.4951">assoc1</text><text fill="#000000" font-family="sans-serif" font-size="13" lengthAdjust="spacingAndGlyphs" textLength="7" x="456.1469" y="652.3313">1</text><!--link Workload to ModelName--><path d="M575.817,580.834 C568.351,588.606 560.496,596.627 553,604 C535.882,620.837 516.312,638.983 499.889,653.913 " fill="none" id="Workload-ModelName" style="stroke: #A80036; stroke-width: 1.0;"/><polygon fill="#A80036" points="490.121,662.754,499.4778,659.68,493.828,659.3987,494.1093,653.7488,490.121,662.754" style="stroke: #A80036; stroke-width: 1.0;"/><line style="stroke: #A80036; stroke-width: 1.0;" x1="493.828" x2="499.7595" y1="659.3987" y2="654.0305"/><polygon fill="#FFFFFF" points="585.008,571.19,577.9729,572.7736,576.7289,579.8766,583.764,578.293,585.008,571.19" style="stroke: #A80036; stroke-width: 1.0;"/><text fill="#000000" font-family="sans-serif" font-size="13" lengthAdjust="spacingAndGlyphs" textLength="42" x="543" y="629.4951">assoc1</text><text fill="#000000" font-family="sans-serif" font-size="13" lengthAdjust="spacingAndGlyphs" textLength="7" x="488.9176" y="652.0311">1</text><!--link WorkloadInstance to ModelName--><path d="M337.19,579.714 C365.009,603.031 399.993,632.352 426.165,654.289 " fill="none" id="WorkloadInstance-ModelName" style="stroke: #A80036; stroke-width: 1.0;"/><polygon fill="#A80036" points="436.44,662.9003,432.111,654.0538,432.6077,659.6889,426.9727,660.1855,436.44,662.9003" style="stroke: #A80036; stroke-width: 1.0;"/><line style="stroke: #A80036; stroke-width: 1.0;" x1="432.6077" x2="426.4765" y1="659.6889" y2="654.5495"/><polygon fill="#FFFFFF" points="326.846,571.044,328.8745,577.9639,336.0424,578.7529,334.0138,571.833,326.846,571.044" style="stroke: #A80036; stroke-width: 1.0;"/><text fill="#000000" font-family="sans-serif" font-size="13" lengthAdjust="spacingAndGlyphs" textLength="42" x="400" y="629.4951">assoc1</text><text fill="#000000" font-family="sans-serif" font-size="13" lengthAdjust="spacingAndGlyphs" textLength="7" x="421.4809" y="652.2145">1</text><!--link WorkloadTemplate to ModelName--><path d="M168.097,578.954 C180.54,588.007 194.352,597.048 208,604 C270.62,635.897 348.148,658.641 401.379,671.9639 " fill="none" id="WorkloadTemplate-ModelName" style="stroke: #A80036; stroke-width: 1.0;"/><polygon fill="#A80036" points="414.028,675.0671,406.2401,669.0381,409.172,673.8759,404.3342,676.8078,414.028,675.0671" style="stroke: #A80036; stroke-width: 1.0;"/><line style="stroke: #A80036; stroke-width: 1.0;" x1="409.172" x2="401.403" y1="673.8759" y2="671.9697"/><polygon fill="#FFFFFF" points="157.553,571.048,159.9534,577.8478,167.1535,578.2474,164.753,571.4475,157.553,571.048" style="stroke: #A80036; stroke-width: 1.0;"/><text fill="#000000" font-family="sans-serif" font-size="13" lengthAdjust="spacingAndGlyphs" textLength="42" x="270" y="629.4951">assoc1</text><text fill="#000000" font-family="sans-serif" font-size="13" lengthAdjust="spacingAndGlyphs" textLength="7" x="399.5085" y="669.7839">1</text><!--link Application Management Layer to Distributed Information Management Layer--><path d="M862.1789,271.406 C862.4357,271.7798 862.698,272.1616 862.9655,272.5511 C864.0358,274.1091 865.1916,275.7916 866.4272,277.5903 C868.8985,281.1878 871.689,285.2501 874.7534,289.711 C887.011,307.5547 903.6502,331.7769 921.7611,358.1419 C957.983,410.8718 1000.092,472.1725 1024.81,508.158 " fill="none" id="Application Management Layer-Distributed Information Management Layer" style="stroke: #A80036; stroke-width: 1.0;"/><polygon fill="#A80036" points="1027.68,512.337,1025.8908,502.652,1024.8531,508.2129,1019.2922,507.1751,1027.68,512.337" style="stroke: #A80036; stroke-width: 1.0;"/><!--link Application Management Layer to Service Management Layer--><path d="M862.1132,260.3293 C866.8108,260.8206 873.4535,261.53 881.7911,262.4577 C898.4663,264.3131 921.9212,267.0415 950.1541,270.6436 C1006.6198,277.8479 1082.1974,288.5472 1160.8733,302.7471 C1318.225,331.147 1487.97,373.5495 1542,430 C1550.41,438.7863 1556.0131,449.8493 1559.6816,461.5365 C1560.5987,464.4582 1561.3949,467.419 1562.0838,470.393 C1562.1699,470.7647 1562.2543,471.1367 1562.3371,471.5088 " fill="none" id="Application Management Layer-Service Management Layer" style="stroke: #A80036; stroke-width: 1.0;"/><polygon fill="#A80036" points="1562.3371,471.5088,1564.2871,461.8549,1561.2512,466.6281,1556.478,463.5923,1562.3371,471.5088" style="stroke: #A80036; stroke-width: 1.0;"/><!--link Application Management Layer to Security Aspect--><path d="M862.3708,262.834 C862.732,262.9798 863.1043,263.1303 863.4875,263.2853 C864.2539,263.5955 865.0639,263.9242 865.9163,264.2711 C872.7359,267.0464 882.2755,270.9901 893.9929,275.9904 C917.4278,285.9912 949.5741,300.2188 986.0943,317.7798 C1059.1345,352.9018 1149.67,401.3575 1223,456 C1243.54,471.303 1263.79,491.736 1279.03,508.499 " fill="none" id="Application Management Layer-Security Aspect" style="stroke: #A80036; stroke-width: 1.0;"/><polygon fill="#A80036" points="1282.4,512.236,1279.3445,502.8731,1279.052,508.5224,1273.4027,508.2299,1282.4,512.236" style="stroke: #A80036; stroke-width: 1.0;"/><!--link Application Management Layer to Identity Aspect--><path d="M862.0108,261.0365 C862.4459,261.1222 862.8979,261.2116 863.3666,261.3047 C865.2413,261.6768 867.3834,262.1072 869.78,262.5965 C879.3661,264.5535 893.0236,267.4526 909.9284,271.3339 C943.7382,279.0967 990.5377,290.7887 1043.7366,306.7326 C1150.1345,338.6205 1282.13,387.516 1387,456 C1408.65,470.141 1428.83,491.155 1443.51,508.5 " fill="none" id="Application Management Layer-Identity Aspect" style="stroke: #A80036; stroke-width: 1.0;"/><polygon fill="#A80036" points="1446.74,512.368,1444.0443,502.8952,1443.5363,508.5292,1437.9023,508.0212,1446.74,512.368" style="stroke: #A80036; stroke-width: 1.0;"/><!--
@startuml


package "Distributed Information Management Layer" #ffcc88 {
    }

package "Service Management Layer" #lightgreen {
    
        class Stack {
        }
    }

package "Security Aspect" #pink {
    }

package "Identity Aspect" #pink {
    }

package "Application Management Layer" #lightblue {
    
        class Workload {
        }
    
        class ApplicationInstance {
        }
    }

package "Data Management Layer" #ffcc88 {
    
        class DataReference {
        }
    }


package "Application Management Layer" #lightblue {

    interface "Application Management Layer" as i {
            /edgemere/aml/aimodel/create()
            /edgemere/aml/aimodel/deploy()
            /edgemere/aml/aimodel/destroy()
            /edgemere/aml/aimodel/list()
            /edgemere/aml/aimodel/update()
            /edgemere/aml/application/create()
            /edgemere/aml/application/deploy()
            /edgemere/aml/application/destroy()
            /edgemere/aml/application/list()
            /edgemere/aml/application/monitor()
            /edgemere/aml/application/update()
            /edgemere/aml/workload/create()
            /edgemere/aml/workload/deploy()
            /edgemere/aml/workload/destroy()
            /edgemere/aml/workload/list()
            /edgemere/aml/workload/monitor()
            /edgemere/aml/workload/update()
    
    }
}

CLI ()- - i
REST ()- - i
Web ()- - i

package "Application Management Layer" #lightblue {
        class "Application" {
                 string name
                 string version
                    }
                Application o- -> "n" Workload : workloads
                        Application *- -> "n" Stack : stacks
                        Application o- -> "n" DataReference : data
                        Application *- -> "n" ApplicationInstance : instances
            
    
    class "ApplicationInstance" {
                 string name
                 string status
                 string message
                    }
                ApplicationInstance o- -> "1" ModelName : assoc1
            
    
    class "ApplicationTemplate" {
                 string attr1
                    }
                ApplicationTemplate o- -> "1" ModelName : assoc1
            
    
    class "Workload" {
                 string attr1
                    }
                Workload o- -> "1" ModelName : assoc1
            
    
    class "WorkloadInstance" {
                 string attr1
                    }
                WorkloadInstance o- -> "1" ModelName : assoc1
            
    
    class "WorkloadTemplate" {
                 string attr1
                    }
                WorkloadTemplate o- -> "1" ModelName : assoc1
            
    

}


    "Application Management Layer" - -> "Distributed Information Management Layer"

    "Application Management Layer" - -> "Service Management Layer"

    "Application Management Layer" - -> "Security Aspect"

    "Application Management Layer" - -> "Identity Aspect"


@enduml

PlantUML version 1.2019.05(Sat Apr 20 09:45:36 PDT 2019)
(GPL source distribution)
Java Runtime: OpenJDK Runtime Environment
JVM: OpenJDK 64-Bit Server VM
Java Version: 12.0.1+12
Operating System: Windows 10
OS Version: 10.0
Default Encoding: Cp1252
Language: en
Country: US
--></g></svg>