<?xml version="1.0" encoding="UTF-8" standalone="no"?><svg xmlns="http://www.w3.org/2000/svg" xmlns:xlink="http://www.w3.org/1999/xlink" contentScriptType="application/ecmascript" contentStyleType="text/css" height="771px" preserveAspectRatio="none" style="width:1356px;height:771px;" version="1.1" viewBox="0 0 1356 771" width="1356px" zoomAndPan="magnify"><defs><filter height="300%" id="fidrdbiga9j7q" width="300%" x="-1" y="-1"><feGaussianBlur result="blurOut" stdDeviation="2.0"/><feColorMatrix in="blurOut" result="blurOut2" type="matrix" values="0 0 0 0 0 0 0 0 0 0 0 0 0 0 0 0 0 0 .4 0"/><feOffset dx="4.0" dy="4.0" in="blurOut2" result="blurOut3"/><feBlend in="SourceGraphic" in2="blurOut3" mode="normal"/></filter></defs><g><!--cluster Application Management Layer--><polygon fill="#ADD8E6" filter="url(#fidrdbiga9j7q)" points="30,87,251,87,258,110.6094,617,110.6094,617,659.5,30,659.5,30,87" style="stroke: #000000; stroke-width: 1.5;"/><line style="stroke: #000000; stroke-width: 1.5;" x1="30" x2="258" y1="110.6094" y2="110.6094"/><text fill="#000000" font-family="sans-serif" font-size="14" font-weight="bold" lengthAdjust="spacingAndGlyphs" textLength="215" x="34" y="103.5332">Application Management Layer</text><polygon fill="#FFCC88" filter="url(#fidrdbiga9j7q)" points="641.5,474,946.5,474,953.5,497.6094,960.5,497.6094,960.5,529.2188,641.5,529.2188,641.5,474" style="stroke: #000000; stroke-width: 1.5;"/><line style="stroke: #000000; stroke-width: 1.5;" x1="641.5" x2="953.5" y1="497.6094" y2="497.6094"/><text fill="#000000" font-family="sans-serif" font-size="14" font-weight="bold" lengthAdjust="spacingAndGlyphs" textLength="299" x="645.5" y="490.5332">Distributed Information Management Layer</text><polygon fill="#90EE90" filter="url(#fidrdbiga9j7q)" points="995.5,474,1192.5,474,1199.5,497.6094,1206.5,497.6094,1206.5,529.2188,995.5,529.2188,995.5,474" style="stroke: #000000; stroke-width: 1.5;"/><line style="stroke: #000000; stroke-width: 1.5;" x1="995.5" x2="1199.5" y1="497.6094" y2="497.6094"/><text fill="#000000" font-family="sans-serif" font-size="14" font-weight="bold" lengthAdjust="spacingAndGlyphs" textLength="191" x="999.5" y="490.5332">Service Management Layer</text><polygon fill="#FFC0CB" filter="url(#fidrdbiga9j7q)" points="823.5,704,938.5,704,945.5,727.6094,952.5,727.6094,952.5,759.2188,823.5,759.2188,823.5,704" style="stroke: #000000; stroke-width: 1.5;"/><line style="stroke: #000000; stroke-width: 1.5;" x1="823.5" x2="945.5" y1="727.6094" y2="727.6094"/><text fill="#000000" font-family="sans-serif" font-size="14" font-weight="bold" lengthAdjust="spacingAndGlyphs" textLength="109" x="827.5" y="720.5332">Security Aspect</text><polygon fill="#FFC0CB" filter="url(#fidrdbiga9j7q)" points="898,589,1008,589,1015,612.6094,1022,612.6094,1022,644.2188,898,644.2188,898,589" style="stroke: #000000; stroke-width: 1.5;"/><line style="stroke: #000000; stroke-width: 1.5;" x1="898" x2="1015" y1="612.6094" y2="612.6094"/><text fill="#000000" font-family="sans-serif" font-size="14" font-weight="bold" lengthAdjust="spacingAndGlyphs" textLength="104" x="902" y="605.5332">Identity Aspect</text><!--class i--><rect fill="#FEFECE" filter="url(#fidrdbiga9j7q)" height="283.2109" id="i" style="stroke: #A80036; stroke-width: 1.5;" width="202" x="372" y="131"/><ellipse cx="387" cy="147" fill="#B4A7E5" rx="11" ry="11" style="stroke: #A80036; stroke-width: 1.0;"/><path d="M387.9531,143.6406 L387.9531,150.2969 L389.6719,150.2969 Q390.2813,150.2969 390.5469,150.5313 Q390.8125,150.7656 390.8125,151.1563 Q390.8125,151.5313 390.5469,151.7656 Q390.2813,152 389.6719,152 L384.5313,152 Q383.9219,152 383.6563,151.7656 Q383.3906,151.5313 383.3906,151.1406 Q383.3906,150.7656 383.6563,150.5313 Q383.9219,150.2969 384.5313,150.2969 L386.25,150.2969 L386.25,143.6406 L384.5313,143.6406 Q383.9219,143.6406 383.6563,143.4063 Q383.3906,143.1719 383.3906,142.7813 Q383.3906,142.4063 383.6563,142.1719 Q383.9219,141.9375 384.5313,141.9375 L389.6719,141.9375 Q390.2813,141.9375 390.5469,142.1719 Q390.8125,142.4063 390.8125,142.7813 Q390.8125,143.1719 390.5469,143.4063 Q390.2813,143.6406 389.6719,143.6406 L387.9531,143.6406 Z "/><text fill="#000000" font-family="sans-serif" font-size="12" font-style="italic" lengthAdjust="spacingAndGlyphs" textLength="170" x="401" y="151.9102">Application Management Layer</text><line style="stroke: #A80036; stroke-width: 1.5;" x1="373" x2="573" y1="163" y2="163"/><line style="stroke: #A80036; stroke-width: 1.5;" x1="373" x2="573" y1="171" y2="171"/><text fill="#000000" font-family="sans-serif" font-size="11" lengthAdjust="spacingAndGlyphs" textLength="151" x="378" y="186.4189">/edgemere/aml/aimodel/create()</text><text fill="#000000" font-family="sans-serif" font-size="11" lengthAdjust="spacingAndGlyphs" textLength="152" x="378" y="200.2549">/edgemere/aml/aimodel/deploy()</text><text fill="#000000" font-family="sans-serif" font-size="11" lengthAdjust="spacingAndGlyphs" textLength="157" x="378" y="214.0908">/edgemere/aml/aimodel/destroy()</text><text fill="#000000" font-family="sans-serif" font-size="11" lengthAdjust="spacingAndGlyphs" textLength="133" x="378" y="227.9268">/edgemere/aml/aimodel/list()</text><text fill="#000000" font-family="sans-serif" font-size="11" lengthAdjust="spacingAndGlyphs" textLength="153" x="378" y="241.7627">/edgemere/aml/aimodel/update()</text><text fill="#000000" font-family="sans-serif" font-size="11" lengthAdjust="spacingAndGlyphs" textLength="166" x="378" y="255.5986">/edgemere/aml/application/create()</text><text fill="#000000" font-family="sans-serif" font-size="11" lengthAdjust="spacingAndGlyphs" textLength="167" x="378" y="269.4346">/edgemere/aml/application/deploy()</text><text fill="#000000" font-family="sans-serif" font-size="11" lengthAdjust="spacingAndGlyphs" textLength="172" x="378" y="283.2705">/edgemere/aml/application/destroy()</text><text fill="#000000" font-family="sans-serif" font-size="11" lengthAdjust="spacingAndGlyphs" textLength="148" x="378" y="297.1064">/edgemere/aml/application/list()</text><text fill="#000000" font-family="sans-serif" font-size="11" lengthAdjust="spacingAndGlyphs" textLength="170" x="378" y="310.9424">/edgemere/aml/application/monitor()</text><text fill="#000000" font-family="sans-serif" font-size="11" lengthAdjust="spacingAndGlyphs" textLength="168" x="378" y="324.7783">/edgemere/aml/application/update()</text><text fill="#000000" font-family="sans-serif" font-size="11" lengthAdjust="spacingAndGlyphs" textLength="160" x="378" y="338.6143">/edgemere/aml/workload/create()</text><text fill="#000000" font-family="sans-serif" font-size="11" lengthAdjust="spacingAndGlyphs" textLength="161" x="378" y="352.4502">/edgemere/aml/workload/deploy()</text><text fill="#000000" font-family="sans-serif" font-size="11" lengthAdjust="spacingAndGlyphs" textLength="166" x="378" y="366.2861">/edgemere/aml/workload/destroy()</text><text fill="#000000" font-family="sans-serif" font-size="11" lengthAdjust="spacingAndGlyphs" textLength="142" x="378" y="380.1221">/edgemere/aml/workload/list()</text><text fill="#000000" font-family="sans-serif" font-size="11" lengthAdjust="spacingAndGlyphs" textLength="164" x="378" y="393.958">/edgemere/aml/workload/monitor()</text><text fill="#000000" font-family="sans-serif" font-size="11" lengthAdjust="spacingAndGlyphs" textLength="162" x="378" y="407.7939">/edgemere/aml/workload/update()</text><!--entity AI ML Services--><rect fill="#FFFFFF" filter="url(#fidrdbiga9j7q)" height="37.6094" style="stroke: #000000; stroke-width: 1.5;" width="113" x="223.5" y="253.5"/><text fill="#000000" font-family="sans-serif" font-size="14" lengthAdjust="spacingAndGlyphs" textLength="93" x="233.5" y="278.0332">AI ML Services</text><!--entity Analytics Services--><rect fill="#FFFFFF" filter="url(#fidrdbiga9j7q)" height="37.6094" style="stroke: #000000; stroke-width: 1.5;" width="134" x="54" y="253.5"/><text fill="#000000" font-family="sans-serif" font-size="14" lengthAdjust="spacingAndGlyphs" textLength="114" x="64" y="278.0332">Analytics Services</text><!--entity Developer Services--><rect fill="#FFFFFF" filter="url(#fidrdbiga9j7q)" height="37.6094" style="stroke: #000000; stroke-width: 1.5;" width="143" x="374.5" y="597.5"/><text fill="#000000" font-family="sans-serif" font-size="14" lengthAdjust="spacingAndGlyphs" textLength="123" x="384.5" y="622.0332">Developer Services</text><!--entity Workflow Services--><rect fill="#FFFFFF" filter="url(#fidrdbiga9j7q)" height="37.6094" style="stroke: #000000; stroke-width: 1.5;" width="135" x="267.5" y="482.5"/><text fill="#000000" font-family="sans-serif" font-size="14" lengthAdjust="spacingAndGlyphs" textLength="115" x="277.5" y="507.0332">Workflow Services</text><polygon fill="#FFCC88" filter="url(#fidrdbiga9j7q)" points="558,8,732,8,739,31.6094,746,31.6094,746,63.2188,558,63.2188,558,8" style="stroke: #000000; stroke-width: 1.5;"/><line style="stroke: #000000; stroke-width: 1.5;" x1="558" x2="739" y1="31.6094" y2="31.6094"/><text fill="#000000" font-family="sans-serif" font-size="14" font-weight="bold" lengthAdjust="spacingAndGlyphs" textLength="168" x="562" y="24.5332">Data Management Layer</text><ellipse cx="428" cy="35.5" fill="#FEFECE" filter="url(#fidrdbiga9j7q)" rx="5" ry="5" style="stroke: #A80036; stroke-width: 1.5;"/><text fill="#000000" font-family="sans-serif" font-size="12" lengthAdjust="spacingAndGlyphs" textLength="19" x="418.5" y="52.957">CLI</text><ellipse cx="473" cy="35.5" fill="#FEFECE" filter="url(#fidrdbiga9j7q)" rx="5" ry="5" style="stroke: #A80036; stroke-width: 1.5;"/><text fill="#000000" font-family="sans-serif" font-size="12" lengthAdjust="spacingAndGlyphs" textLength="32" x="457" y="52.957">REST</text><ellipse cx="518" cy="35.5" fill="#FEFECE" filter="url(#fidrdbiga9j7q)" rx="5" ry="5" style="stroke: #A80036; stroke-width: 1.5;"/><text fill="#000000" font-family="sans-serif" font-size="12" lengthAdjust="spacingAndGlyphs" textLength="25" x="505.5" y="52.957">Web</text><!--link ilol1235 to i--><path d="M428.781,40.579 C431.086,52.616 438.192,89.727 446.053,130.777 " fill="none" id="ilol1235-i" style="stroke: #A80036; stroke-width: 1.0;"/><!--link ilol1238 to i--><path d="M473,40.579 C473,52.616 473,89.727 473,130.777 " fill="none" id="ilol1238-i" style="stroke: #A80036; stroke-width: 1.0;"/><!--link ilol1241 to i--><path d="M517.219,40.579 C514.914,52.616 507.808,89.727 499.947,130.777 " fill="none" id="ilol1241-i" style="stroke: #A80036; stroke-width: 1.0;"/><!--link AI ML Services to Workflow Services--><path d="M284.408,291.693 C294.324,332.619 318.377,431.893 329.361,477.226 " fill="none" id="AI ML Services-Workflow Services" style="stroke: #A80036; stroke-width: 1.0;"/><polygon fill="#A80036" points="330.571,482.221,332.3393,472.5322,329.3937,477.3616,324.5643,474.4159,330.571,482.221" style="stroke: #A80036; stroke-width: 1.0;"/><!--link Analytics Services to Workflow Services--><path d="M128.794,291.585 C141.716,320.073 169.782,376.054 206,414 C231.871,441.106 267.665,464.272 294.987,479.789 " fill="none" id="Analytics Services-Workflow Services" style="stroke: #A80036; stroke-width: 1.0;"/><polygon fill="#A80036" points="299.64,482.404,293.7534,474.5079,295.2811,479.9546,289.8344,481.4822,299.64,482.404" style="stroke: #A80036; stroke-width: 1.0;"/><!--link Developer Services to Security Aspect--><path d="M516.525,635.53 C599.447,656.73 736.193,691.6897 818.617,712.7618 " fill="none" id="Developer Services-Security Aspect" style="stroke: #A80036; stroke-width: 1.0;"/><polygon fill="#A80036" points="823.477,714.0043,815.7484,707.8995,818.6328,712.7657,813.7666,715.6502,823.477,714.0043" style="stroke: #A80036; stroke-width: 1.0;"/><!--link Workflow Services to Developer Services--><path d="M352.834,520.655 C372.415,540.589 403.84,572.58 424.7,593.816 " fill="none" id="Workflow Services-Developer Services" style="stroke: #A80036; stroke-width: 1.0;"/><polygon fill="#A80036" points="428.21,597.39,424.7563,588.1665,424.706,593.8232,419.0494,593.7729,428.21,597.39" style="stroke: #A80036; stroke-width: 1.0;"/><!--link Workflow Services to Identity Aspect--><path d="M402.777,514.754 C523.128,536.513 772.737,581.643 892.726,603.337 " fill="none" id="Workflow Services-Identity Aspect" style="stroke: #A80036; stroke-width: 1.0;"/><polygon fill="#A80036" points="897.99,604.289,889.8442,598.7531,893.0696,603.4004,888.4224,606.6258,897.99,604.289" style="stroke: #A80036; stroke-width: 1.0;"/><!--link Application Management Layer to Distributed Information Management Layer--><path d="M617.2071,283.2034 C617.3306,283.3494 617.4553,283.4969 617.5813,283.6458 C617.8332,283.9437 618.0901,284.2474 618.352,284.5569 C619.3992,285.795 620.5246,287.1256 621.7232,288.5427 C624.1205,291.3769 626.8105,294.5572 629.7529,298.0361 C641.5229,311.9515 657.3328,330.6434 674.6065,351.066 C709.154,391.9113 749.557,439.6795 775.207,470.005 " fill="none" id="Application Management Layer-Distributed Information Management Layer" style="stroke: #A80036; stroke-width: 1.0;"/><polygon fill="#A80036" points="778.499,473.897,775.741,464.4422,775.2701,470.0794,769.6328,469.6085,778.499,473.897" style="stroke: #A80036; stroke-width: 1.0;"/><!--link Application Management Layer to Service Management Layer--><path d="M617.2986,277.3285 C617.5089,277.4255 617.7229,277.5243 617.9407,277.6248 C619.6829,278.4286 621.6644,279.3428 623.8713,280.3611 C632.6992,284.4342 645.1355,290.1722 660.3031,297.1703 C690.6385,311.1667 731.8993,330.2038 777.0694,351.0446 C867.4095,392.7263 973.3865,441.6225 1038.87,471.836 " fill="none" id="Application Management Layer-Service Management Layer" style="stroke: #A80036; stroke-width: 1.0;"/><polygon fill="#A80036" points="1043.46,473.953,1036.9699,466.545,1038.9217,471.8545,1033.6122,473.8062,1043.46,473.953" style="stroke: #A80036; stroke-width: 1.0;"/><!--link Application Management Layer to Security Aspect--><path d="M617.6632,274.7803 C617.9598,274.8249 618.2636,274.8706 618.5745,274.9176 C619.1964,275.0114 619.847,275.1098 620.5258,275.2128 C621.8834,275.4188 623.3538,275.6431 624.9332,275.8856 C628.0919,276.3706 631.6868,276.9283 635.687,277.5576 C651.6882,280.0749 674.177,283.7379 701.1989,288.4741 C755.2428,297.9466 827.4192,311.7121 902.0921,329.1914 C1051.438,364.15 1210.77,413.964 1255,474 C1344.45,595.419 1087.55,680.1181 957.881,714.0202 " fill="none" id="Application Management Layer-Security Aspect" style="stroke: #A80036; stroke-width: 1.0;"/><polygon fill="#A80036" points="952.943,715.3027,962.6596,716.9114,957.7824,714.0456,960.6482,709.1684,952.943,715.3027" style="stroke: #A80036; stroke-width: 1.0;"/><!--link Application Management Layer to Identity Aspect--><path d="M617.2549,274.8503 C617.5375,274.8973 617.8269,274.9455 618.1232,274.9949 C618.7157,275.0937 619.3356,275.1973 619.9823,275.3057 C621.2757,275.5225 622.6767,275.7585 624.1815,276.0134 C627.191,276.5233 630.616,277.1091 634.4273,277.7691 C649.6723,280.4094 671.0978,284.2389 696.8405,289.1583 C748.3259,298.9971 817.0801,313.1959 888.197,330.961 C1030.4308,366.4913 1182.115,416.287 1224,474 C1279.59,550.593 1122.72,589.798 1027.37,606.064 " fill="none" id="Application Management Layer-Identity Aspect" style="stroke: #A80036; stroke-width: 1.0;"/><polygon fill="#A80036" points="1022.31,606.915,1031.8484,609.3684,1027.2409,606.0865,1030.5228,601.479,1022.31,606.915" style="stroke: #A80036; stroke-width: 1.0;"/><!--
@startuml


package "Distributed Information Management Layer" #ffcc88 {

}

package "Service Management Layer" #lightgreen {

}

package "Security Aspect" #pink {

}

package "Identity Aspect" #pink {

}

package "Application Management Layer" #lightblue {

}

package "Data Management Layer" #ffcc88 {

}


package "Application Management Layer" #lightblue {

    interface "Application Management Layer" as i {
            /edgemere/aml/aimodel/create()
            /edgemere/aml/aimodel/deploy()
            /edgemere/aml/aimodel/destroy()
            /edgemere/aml/aimodel/list()
            /edgemere/aml/aimodel/update()
            /edgemere/aml/application/create()
            /edgemere/aml/application/deploy()
            /edgemere/aml/application/destroy()
            /edgemere/aml/application/list()
            /edgemere/aml/application/monitor()
            /edgemere/aml/application/update()
            /edgemere/aml/workload/create()
            /edgemere/aml/workload/deploy()
            /edgemere/aml/workload/destroy()
            /edgemere/aml/workload/list()
            /edgemere/aml/workload/monitor()
            /edgemere/aml/workload/update()
    
    }
}

CLI ()- - i
REST ()- - i
Web ()- - i

package "Application Management Layer" #lightblue {


rectangle "AI ML Services" #white {
}

rectangle "Analytics Services" #white {
}

rectangle "Developer Services" #white {
}

rectangle "Workflow Services" #white {
}

    "AI ML Services" - -> "Workflow Services"
    
    "Analytics Services" - -> "Workflow Services"
    
    "Developer Services" - -> "Security Aspect"
    
    "Workflow Services" - -> "Developer Services"
    
    "Workflow Services" - -> "Identity Aspect"
    
}


    "Application Management Layer" - -> "Distributed Information Management Layer"

    "Application Management Layer" - -> "Service Management Layer"

    "Application Management Layer" - -> "Security Aspect"

    "Application Management Layer" - -> "Identity Aspect"


@enduml

PlantUML version 1.2019.05(Sat Apr 20 09:45:36 PDT 2019)
(GPL source distribution)
Java Runtime: OpenJDK Runtime Environment
JVM: OpenJDK 64-Bit Server VM
Java Version: 12.0.1+12
Operating System: Windows 10
OS Version: 10.0
Default Encoding: Cp1252
Language: en
Country: US
--></g></svg>