<?xml version="1.0" encoding="UTF-8" standalone="no"?><svg xmlns="http://www.w3.org/2000/svg" xmlns:xlink="http://www.w3.org/1999/xlink" contentScriptType="application/ecmascript" contentStyleType="text/css" height="924px" preserveAspectRatio="none" style="width:867px;height:924px;" version="1.1" viewBox="0 0 867 924" width="867px" zoomAndPan="magnify"><defs><filter height="300%" id="f1erkqishovydi" width="300%" x="-1" y="-1"><feGaussianBlur result="blurOut" stdDeviation="2.0"/><feColorMatrix in="blurOut" result="blurOut2" type="matrix" values="0 0 0 0 0 0 0 0 0 0 0 0 0 0 0 0 0 0 .4 0"/><feOffset dx="4.0" dy="4.0" in="blurOut2" result="blurOut3"/><feBlend in="SourceGraphic" in2="blurOut3" mode="normal"/></filter></defs><g><line style="stroke: #A80036; stroke-width: 1.0; stroke-dasharray: 5.0,5.0;" x1="52" x2="52" y1="87.6094" y2="836.0469"/><line style="stroke: #A80036; stroke-width: 1.0; stroke-dasharray: 5.0,5.0;" x1="164" x2="164" y1="87.6094" y2="836.0469"/><line style="stroke: #A80036; stroke-width: 1.0; stroke-dasharray: 5.0,5.0;" x1="301" x2="301" y1="87.6094" y2="836.0469"/><line style="stroke: #A80036; stroke-width: 1.0; stroke-dasharray: 5.0,5.0;" x1="427" x2="427" y1="87.6094" y2="836.0469"/><line style="stroke: #A80036; stroke-width: 1.0; stroke-dasharray: 5.0,5.0;" x1="590" x2="590" y1="87.6094" y2="836.0469"/><line style="stroke: #A80036; stroke-width: 1.0; stroke-dasharray: 5.0,5.0;" x1="725" x2="725" y1="87.6094" y2="836.0469"/><line style="stroke: #A80036; stroke-width: 1.0; stroke-dasharray: 5.0,5.0;" x1="832" x2="832" y1="87.6094" y2="836.0469"/><text fill="#000000" font-family="sans-serif" font-size="14" lengthAdjust="spacingAndGlyphs" textLength="83" x="8" y="84.5332">DataScientist</text><ellipse cx="52.5" cy="13" fill="#FEFECE" filter="url(#f1erkqishovydi)" rx="8" ry="8" style="stroke: #A80036; stroke-width: 2.0;"/><path d="M52.5,21 L52.5,48 M39.5,29 L65.5,29 M52.5,48 L39.5,63 M52.5,48 L65.5,63 " fill="none" filter="url(#f1erkqishovydi)" style="stroke: #A80036; stroke-width: 2.0;"/><text fill="#000000" font-family="sans-serif" font-size="14" lengthAdjust="spacingAndGlyphs" textLength="83" x="8" y="849.5801">DataScientist</text><ellipse cx="52.5" cy="862.6563" fill="#FEFECE" filter="url(#f1erkqishovydi)" rx="8" ry="8" style="stroke: #A80036; stroke-width: 2.0;"/><path d="M52.5,870.6563 L52.5,897.6563 M39.5,878.6563 L65.5,878.6563 M52.5,897.6563 L39.5,912.6563 M52.5,897.6563 L65.5,912.6563 " fill="none" filter="url(#f1erkqishovydi)" style="stroke: #A80036; stroke-width: 2.0;"/><text fill="#000000" font-family="sans-serif" font-size="14" lengthAdjust="spacingAndGlyphs" textLength="108" x="107" y="84.5332">DevOpsEngineer</text><ellipse cx="164" cy="13" fill="#FEFECE" filter="url(#f1erkqishovydi)" rx="8" ry="8" style="stroke: #A80036; stroke-width: 2.0;"/><path d="M164,21 L164,48 M151,29 L177,29 M164,48 L151,63 M164,48 L177,63 " fill="none" filter="url(#f1erkqishovydi)" style="stroke: #A80036; stroke-width: 2.0;"/><text fill="#000000" font-family="sans-serif" font-size="14" lengthAdjust="spacingAndGlyphs" textLength="108" x="107" y="849.5801">DevOpsEngineer</text><ellipse cx="164" cy="862.6563" fill="#FEFECE" filter="url(#f1erkqishovydi)" rx="8" ry="8" style="stroke: #A80036; stroke-width: 2.0;"/><path d="M164,870.6563 L164,897.6563 M151,878.6563 L177,878.6563 M164,897.6563 L151,912.6563 M164,897.6563 L177,912.6563 " fill="none" filter="url(#f1erkqishovydi)" style="stroke: #A80036; stroke-width: 2.0;"/><text fill="#000000" font-family="sans-serif" font-size="14" lengthAdjust="spacingAndGlyphs" textLength="134" x="231" y="84.5332">ApplicationDeveloper</text><ellipse cx="301" cy="13" fill="#FEFECE" filter="url(#f1erkqishovydi)" rx="8" ry="8" style="stroke: #A80036; stroke-width: 2.0;"/><path d="M301,21 L301,48 M288,29 L314,29 M301,48 L288,63 M301,48 L314,63 " fill="none" filter="url(#f1erkqishovydi)" style="stroke: #A80036; stroke-width: 2.0;"/><text fill="#000000" font-family="sans-serif" font-size="14" lengthAdjust="spacingAndGlyphs" textLength="134" x="231" y="849.5801">ApplicationDeveloper</text><ellipse cx="301" cy="862.6563" fill="#FEFECE" filter="url(#f1erkqishovydi)" rx="8" ry="8" style="stroke: #A80036; stroke-width: 2.0;"/><path d="M301,870.6563 L301,897.6563 M288,878.6563 L314,878.6563 M301,897.6563 L288,912.6563 M301,897.6563 L314,912.6563 " fill="none" filter="url(#f1erkqishovydi)" style="stroke: #A80036; stroke-width: 2.0;"/><text fill="#000000" font-family="sans-serif" font-size="14" lengthAdjust="spacingAndGlyphs" textLength="87" x="381" y="84.5332">DataEngineer</text><ellipse cx="427.5" cy="13" fill="#FEFECE" filter="url(#f1erkqishovydi)" rx="8" ry="8" style="stroke: #A80036; stroke-width: 2.0;"/><path d="M427.5,21 L427.5,48 M414.5,29 L440.5,29 M427.5,48 L414.5,63 M427.5,48 L440.5,63 " fill="none" filter="url(#f1erkqishovydi)" style="stroke: #A80036; stroke-width: 2.0;"/><text fill="#000000" font-family="sans-serif" font-size="14" lengthAdjust="spacingAndGlyphs" textLength="87" x="381" y="849.5801">DataEngineer</text><ellipse cx="427.5" cy="862.6563" fill="#FEFECE" filter="url(#f1erkqishovydi)" rx="8" ry="8" style="stroke: #A80036; stroke-width: 2.0;"/><path d="M427.5,870.6563 L427.5,897.6563 M414.5,878.6563 L440.5,878.6563 M427.5,897.6563 L414.5,912.6563 M427.5,897.6563 L440.5,912.6563 " fill="none" filter="url(#f1erkqishovydi)" style="stroke: #A80036; stroke-width: 2.0;"/><rect fill="#FEFECE" filter="url(#f1erkqishovydi)" height="31.6094" style="stroke: #A80036; stroke-width: 1.5;" width="209" x="484" y="51"/><text fill="#000000" font-family="sans-serif" font-size="14" lengthAdjust="spacingAndGlyphs" textLength="195" x="491" y="72.5332">Application Management Layer</text><rect fill="#FEFECE" filter="url(#f1erkqishovydi)" height="31.6094" style="stroke: #A80036; stroke-width: 1.5;" width="209" x="484" y="835.0469"/><text fill="#000000" font-family="sans-serif" font-size="14" lengthAdjust="spacingAndGlyphs" textLength="195" x="491" y="856.5801">Application Management Layer</text><rect fill="#FEFECE" filter="url(#f1erkqishovydi)" height="31.6094" style="stroke: #A80036; stroke-width: 1.5;" width="33" x="707" y="51"/><text fill="#000000" font-family="sans-serif" font-size="14" lengthAdjust="spacingAndGlyphs" textLength="19" x="714" y="72.5332">bin</text><rect fill="#FEFECE" filter="url(#f1erkqishovydi)" height="31.6094" style="stroke: #A80036; stroke-width: 1.5;" width="33" x="707" y="835.0469"/><text fill="#000000" font-family="sans-serif" font-size="14" lengthAdjust="spacingAndGlyphs" textLength="19" x="714" y="856.5801">bin</text><rect fill="#FEFECE" filter="url(#f1erkqishovydi)" height="31.6094" style="stroke: #A80036; stroke-width: 1.5;" width="51" x="805" y="51"/><text fill="#000000" font-family="sans-serif" font-size="14" lengthAdjust="spacingAndGlyphs" textLength="37" x="812" y="72.5332">REST</text><rect fill="#FEFECE" filter="url(#f1erkqishovydi)" height="31.6094" style="stroke: #A80036; stroke-width: 1.5;" width="51" x="805" y="835.0469"/><text fill="#000000" font-family="sans-serif" font-size="14" lengthAdjust="spacingAndGlyphs" textLength="37" x="812" y="856.5801">REST</text><polygon fill="#A80036" points="578.5,115.9609,588.5,119.9609,578.5,123.9609,582.5,119.9609" style="stroke: #A80036; stroke-width: 1.0;"/><line style="stroke: #A80036; stroke-width: 1.0;" x1="52.5" x2="584.5" y1="119.9609" y2="119.9609"/><text fill="#000000" font-family="sans-serif" font-size="13" lengthAdjust="spacingAndGlyphs" textLength="108" x="59.5" y="115.1045">Manage AI Models</text><polygon fill="#A80036" points="713.5,146.3125,723.5,150.3125,713.5,154.3125,717.5,150.3125" style="stroke: #A80036; stroke-width: 1.0;"/><line style="stroke: #A80036; stroke-width: 1.0;" x1="590.5" x2="719.5" y1="150.3125" y2="150.3125"/><text fill="#000000" font-family="sans-serif" font-size="13" lengthAdjust="spacingAndGlyphs" textLength="66" x="597.5" y="145.4561">aimodel/list</text><polygon fill="#A80036" points="820.5,176.6641,830.5,180.6641,820.5,184.6641,824.5,180.6641" style="stroke: #A80036; stroke-width: 1.0;"/><line style="stroke: #A80036; stroke-width: 1.0;" x1="725.5" x2="826.5" y1="180.6641" y2="180.6641"/><text fill="#000000" font-family="sans-serif" font-size="13" lengthAdjust="spacingAndGlyphs" textLength="66" x="732.5" y="175.8076">aimodel/list</text><polygon fill="#A80036" points="578.5,207.0156,588.5,211.0156,578.5,215.0156,582.5,211.0156" style="stroke: #A80036; stroke-width: 1.0;"/><line style="stroke: #A80036; stroke-width: 1.0;" x1="164" x2="584.5" y1="211.0156" y2="211.0156"/><text fill="#000000" font-family="sans-serif" font-size="13" lengthAdjust="spacingAndGlyphs" textLength="108" x="171" y="206.1592">Manage AI Models</text><polygon fill="#A80036" points="713.5,237.3672,723.5,241.3672,713.5,245.3672,717.5,241.3672" style="stroke: #A80036; stroke-width: 1.0;"/><line style="stroke: #A80036; stroke-width: 1.0;" x1="590.5" x2="719.5" y1="241.3672" y2="241.3672"/><text fill="#000000" font-family="sans-serif" font-size="13" lengthAdjust="spacingAndGlyphs" textLength="66" x="597.5" y="236.5107">aimodel/list</text><polygon fill="#A80036" points="820.5,267.7188,830.5,271.7188,820.5,275.7188,824.5,271.7188" style="stroke: #A80036; stroke-width: 1.0;"/><line style="stroke: #A80036; stroke-width: 1.0;" x1="725.5" x2="826.5" y1="271.7188" y2="271.7188"/><text fill="#000000" font-family="sans-serif" font-size="13" lengthAdjust="spacingAndGlyphs" textLength="66" x="732.5" y="266.8623">aimodel/list</text><polygon fill="#A80036" points="578.5,298.0703,588.5,302.0703,578.5,306.0703,582.5,302.0703" style="stroke: #A80036; stroke-width: 1.0;"/><line style="stroke: #A80036; stroke-width: 1.0;" x1="164" x2="584.5" y1="302.0703" y2="302.0703"/><text fill="#000000" font-family="sans-serif" font-size="13" lengthAdjust="spacingAndGlyphs" textLength="121" x="171" y="297.2139">Manage Applications</text><polygon fill="#A80036" points="713.5,328.4219,723.5,332.4219,713.5,336.4219,717.5,332.4219" style="stroke: #A80036; stroke-width: 1.0;"/><line style="stroke: #A80036; stroke-width: 1.0;" x1="590.5" x2="719.5" y1="332.4219" y2="332.4219"/><text fill="#000000" font-family="sans-serif" font-size="13" lengthAdjust="spacingAndGlyphs" textLength="83" x="597.5" y="327.5654">application/list</text><polygon fill="#A80036" points="820.5,358.7734,830.5,362.7734,820.5,366.7734,824.5,362.7734" style="stroke: #A80036; stroke-width: 1.0;"/><line style="stroke: #A80036; stroke-width: 1.0;" x1="725.5" x2="826.5" y1="362.7734" y2="362.7734"/><text fill="#000000" font-family="sans-serif" font-size="13" lengthAdjust="spacingAndGlyphs" textLength="83" x="732.5" y="357.917">application/list</text><polygon fill="#A80036" points="578.5,389.125,588.5,393.125,578.5,397.125,582.5,393.125" style="stroke: #A80036; stroke-width: 1.0;"/><line style="stroke: #A80036; stroke-width: 1.0;" x1="164" x2="584.5" y1="393.125" y2="393.125"/><text fill="#000000" font-family="sans-serif" font-size="13" lengthAdjust="spacingAndGlyphs" textLength="112" x="171" y="388.2686">Manage Workloads</text><polygon fill="#A80036" points="713.5,419.4766,723.5,423.4766,713.5,427.4766,717.5,423.4766" style="stroke: #A80036; stroke-width: 1.0;"/><line style="stroke: #A80036; stroke-width: 1.0;" x1="590.5" x2="719.5" y1="423.4766" y2="423.4766"/><text fill="#000000" font-family="sans-serif" font-size="13" lengthAdjust="spacingAndGlyphs" textLength="72" x="597.5" y="418.6201">workload/list</text><polygon fill="#A80036" points="820.5,449.8281,830.5,453.8281,820.5,457.8281,824.5,453.8281" style="stroke: #A80036; stroke-width: 1.0;"/><line style="stroke: #A80036; stroke-width: 1.0;" x1="725.5" x2="826.5" y1="453.8281" y2="453.8281"/><text fill="#000000" font-family="sans-serif" font-size="13" lengthAdjust="spacingAndGlyphs" textLength="72" x="732.5" y="448.9717">workload/list</text><polygon fill="#A80036" points="578.5,480.1797,588.5,484.1797,578.5,488.1797,582.5,484.1797" style="stroke: #A80036; stroke-width: 1.0;"/><line style="stroke: #A80036; stroke-width: 1.0;" x1="301" x2="584.5" y1="484.1797" y2="484.1797"/><text fill="#000000" font-family="sans-serif" font-size="13" lengthAdjust="spacingAndGlyphs" textLength="108" x="308" y="479.3232">Manage AI Models</text><polygon fill="#A80036" points="713.5,510.5313,723.5,514.5313,713.5,518.5313,717.5,514.5313" style="stroke: #A80036; stroke-width: 1.0;"/><line style="stroke: #A80036; stroke-width: 1.0;" x1="590.5" x2="719.5" y1="514.5313" y2="514.5313"/><text fill="#000000" font-family="sans-serif" font-size="13" lengthAdjust="spacingAndGlyphs" textLength="66" x="597.5" y="509.6748">aimodel/list</text><polygon fill="#A80036" points="820.5,540.8828,830.5,544.8828,820.5,548.8828,824.5,544.8828" style="stroke: #A80036; stroke-width: 1.0;"/><line style="stroke: #A80036; stroke-width: 1.0;" x1="725.5" x2="826.5" y1="544.8828" y2="544.8828"/><text fill="#000000" font-family="sans-serif" font-size="13" lengthAdjust="spacingAndGlyphs" textLength="66" x="732.5" y="540.0264">aimodel/list</text><polygon fill="#A80036" points="578.5,571.2344,588.5,575.2344,578.5,579.2344,582.5,575.2344" style="stroke: #A80036; stroke-width: 1.0;"/><line style="stroke: #A80036; stroke-width: 1.0;" x1="301" x2="584.5" y1="575.2344" y2="575.2344"/><text fill="#000000" font-family="sans-serif" font-size="13" lengthAdjust="spacingAndGlyphs" textLength="121" x="308" y="570.3779">Manage Applications</text><polygon fill="#A80036" points="713.5,601.5859,723.5,605.5859,713.5,609.5859,717.5,605.5859" style="stroke: #A80036; stroke-width: 1.0;"/><line style="stroke: #A80036; stroke-width: 1.0;" x1="590.5" x2="719.5" y1="605.5859" y2="605.5859"/><text fill="#000000" font-family="sans-serif" font-size="13" lengthAdjust="spacingAndGlyphs" textLength="83" x="597.5" y="600.7295">application/list</text><polygon fill="#A80036" points="820.5,631.9375,830.5,635.9375,820.5,639.9375,824.5,635.9375" style="stroke: #A80036; stroke-width: 1.0;"/><line style="stroke: #A80036; stroke-width: 1.0;" x1="725.5" x2="826.5" y1="635.9375" y2="635.9375"/><text fill="#000000" font-family="sans-serif" font-size="13" lengthAdjust="spacingAndGlyphs" textLength="83" x="732.5" y="631.0811">application/list</text><polygon fill="#A80036" points="578.5,662.2891,588.5,666.2891,578.5,670.2891,582.5,666.2891" style="stroke: #A80036; stroke-width: 1.0;"/><line style="stroke: #A80036; stroke-width: 1.0;" x1="301" x2="584.5" y1="666.2891" y2="666.2891"/><text fill="#000000" font-family="sans-serif" font-size="13" lengthAdjust="spacingAndGlyphs" textLength="112" x="308" y="661.4326">Manage Workloads</text><polygon fill="#A80036" points="713.5,692.6406,723.5,696.6406,713.5,700.6406,717.5,696.6406" style="stroke: #A80036; stroke-width: 1.0;"/><line style="stroke: #A80036; stroke-width: 1.0;" x1="590.5" x2="719.5" y1="696.6406" y2="696.6406"/><text fill="#000000" font-family="sans-serif" font-size="13" lengthAdjust="spacingAndGlyphs" textLength="72" x="597.5" y="691.7842">workload/list</text><polygon fill="#A80036" points="820.5,722.9922,830.5,726.9922,820.5,730.9922,824.5,726.9922" style="stroke: #A80036; stroke-width: 1.0;"/><line style="stroke: #A80036; stroke-width: 1.0;" x1="725.5" x2="826.5" y1="726.9922" y2="726.9922"/><text fill="#000000" font-family="sans-serif" font-size="13" lengthAdjust="spacingAndGlyphs" textLength="72" x="732.5" y="722.1357">workload/list</text><polygon fill="#A80036" points="578.5,753.3438,588.5,757.3438,578.5,761.3438,582.5,757.3438" style="stroke: #A80036; stroke-width: 1.0;"/><line style="stroke: #A80036; stroke-width: 1.0;" x1="427.5" x2="584.5" y1="757.3438" y2="757.3438"/><text fill="#000000" font-family="sans-serif" font-size="13" lengthAdjust="spacingAndGlyphs" textLength="108" x="434.5" y="752.4873">Manage AI Models</text><polygon fill="#A80036" points="713.5,783.6953,723.5,787.6953,713.5,791.6953,717.5,787.6953" style="stroke: #A80036; stroke-width: 1.0;"/><line style="stroke: #A80036; stroke-width: 1.0;" x1="590.5" x2="719.5" y1="787.6953" y2="787.6953"/><text fill="#000000" font-family="sans-serif" font-size="13" lengthAdjust="spacingAndGlyphs" textLength="66" x="597.5" y="782.8389">aimodel/list</text><polygon fill="#A80036" points="820.5,814.0469,830.5,818.0469,820.5,822.0469,824.5,818.0469" style="stroke: #A80036; stroke-width: 1.0;"/><line style="stroke: #A80036; stroke-width: 1.0;" x1="725.5" x2="826.5" y1="818.0469" y2="818.0469"/><text fill="#000000" font-family="sans-serif" font-size="13" lengthAdjust="spacingAndGlyphs" textLength="66" x="732.5" y="813.1904">aimodel/list</text><!--
@startuml

actor "DataScientist" as datascientist

actor "DevOpsEngineer" as devops

actor "ApplicationDeveloper" as applicationdeveloper

actor "DataEngineer" as dataengineer




datascientist -> "Application Management Layer": Manage AI Models
"Application Management Layer" -> bin: aimodel/list
bin -> REST: aimodel/list

devops -> "Application Management Layer": Manage AI Models
"Application Management Layer" -> bin: aimodel/list
bin -> REST: aimodel/list

devops -> "Application Management Layer": Manage Applications
"Application Management Layer" -> bin: application/list
bin -> REST: application/list

devops -> "Application Management Layer": Manage Workloads
"Application Management Layer" -> bin: workload/list
bin -> REST: workload/list

applicationdeveloper -> "Application Management Layer": Manage AI Models
"Application Management Layer" -> bin: aimodel/list
bin -> REST: aimodel/list

applicationdeveloper -> "Application Management Layer": Manage Applications
"Application Management Layer" -> bin: application/list
bin -> REST: application/list

applicationdeveloper -> "Application Management Layer": Manage Workloads
"Application Management Layer" -> bin: workload/list
bin -> REST: workload/list

dataengineer -> "Application Management Layer": Manage AI Models
"Application Management Layer" -> bin: aimodel/list
bin -> REST: aimodel/list


@enduml

PlantUML version 1.2019.05(Sat Apr 20 09:45:36 PDT 2019)
(GPL source distribution)
Java Runtime: OpenJDK Runtime Environment
JVM: OpenJDK 64-Bit Server VM
Java Version: 12.0.1+12
Operating System: Windows 10
OS Version: 10.0
Default Encoding: Cp1252
Language: en
Country: US
--></g></svg>