<?xml version="1.0" encoding="UTF-8" standalone="no"?><svg xmlns="http://www.w3.org/2000/svg" xmlns:xlink="http://www.w3.org/1999/xlink" contentScriptType="application/ecmascript" contentStyleType="text/css" height="381px" preserveAspectRatio="none" style="width:1145px;height:381px;" version="1.1" viewBox="0 0 1145 381" width="1145px" zoomAndPan="magnify"><defs><filter height="300%" id="f1n7m2efu6554y" width="300%" x="-1" y="-1"><feGaussianBlur result="blurOut" stdDeviation="2.0"/><feColorMatrix in="blurOut" result="blurOut2" type="matrix" values="0 0 0 0 0 0 0 0 0 0 0 0 0 0 0 0 0 0 .4 0"/><feOffset dx="4.0" dy="4.0" in="blurOut2" result="blurOut3"/><feBlend in="SourceGraphic" in2="blurOut3" mode="normal"/></filter></defs><g><!--entity Request--><rect fill="#90EE90" filter="url(#f1n7m2efu6554y)" height="37.6094" style="stroke: #000000; stroke-width: 1.5;" width="73" x="6" y="8"/><text fill="#000000" font-family="sans-serif" font-size="14" lengthAdjust="spacingAndGlyphs" textLength="53" x="16" y="32.5332">Request</text><!--entity PhysicalProfile--><rect fill="#ADD8E6" filter="url(#f1n7m2efu6554y)" height="37.6094" style="stroke: #000000; stroke-width: 1.5;" width="112" x="754.5" y="333"/><text fill="#000000" font-family="sans-serif" font-size="14" lengthAdjust="spacingAndGlyphs" textLength="92" x="764.5" y="357.5332">PhysicalProfile</text><!--entity Hardware--><rect fill="#90EE90" filter="url(#f1n7m2efu6554y)" height="37.6094" style="stroke: #000000; stroke-width: 1.5;" width="80" x="269.5" y="333"/><text fill="#000000" font-family="sans-serif" font-size="14" lengthAdjust="spacingAndGlyphs" textLength="60" x="279.5" y="357.5332">Hardware</text><!--entity ServiceInstance--><rect fill="#90EE90" filter="url(#f1n7m2efu6554y)" height="37.6094" style="stroke: #000000; stroke-width: 1.5;" width="120" x="413.5" y="333"/><text fill="#000000" font-family="sans-serif" font-size="14" lengthAdjust="spacingAndGlyphs" textLength="100" x="423.5" y="357.5332">ServiceInstance</text><!--entity Cloud--><rect fill="#90EE90" filter="url(#f1n7m2efu6554y)" height="37.6094" style="stroke: #000000; stroke-width: 1.5;" width="57" x="636" y="333"/><text fill="#000000" font-family="sans-serif" font-size="14" lengthAdjust="spacingAndGlyphs" textLength="37" x="646" y="357.5332">Cloud</text><!--entity AcceleratorHardware--><rect fill="#90EE90" filter="url(#f1n7m2efu6554y)" height="37.6094" style="stroke: #000000; stroke-width: 1.5;" width="152" x="114.5" y="8"/><text fill="#000000" font-family="sans-serif" font-size="14" lengthAdjust="spacingAndGlyphs" textLength="132" x="124.5" y="32.5332">AcceleratorHardware</text><!--entity ComputeHardware--><rect fill="#90EE90" filter="url(#f1n7m2efu6554y)" height="37.6094" style="stroke: #000000; stroke-width: 1.5;" width="137" x="302" y="8"/><text fill="#000000" font-family="sans-serif" font-size="14" lengthAdjust="spacingAndGlyphs" textLength="117" x="312" y="32.5332">ComputeHardware</text><!--entity NetworkHardware--><rect fill="#90EE90" filter="url(#f1n7m2efu6554y)" height="37.6094" style="stroke: #000000; stroke-width: 1.5;" width="130" x="474.5" y="8"/><text fill="#000000" font-family="sans-serif" font-size="14" lengthAdjust="spacingAndGlyphs" textLength="110" x="484.5" y="32.5332">NetworkHardware</text><!--entity StorageHardware--><rect fill="#90EE90" filter="url(#f1n7m2efu6554y)" height="37.6094" style="stroke: #000000; stroke-width: 1.5;" width="130" x="639.5" y="8"/><text fill="#000000" font-family="sans-serif" font-size="14" lengthAdjust="spacingAndGlyphs" textLength="110" x="649.5" y="32.5332">StorageHardware</text><!--entity Servicelet--><rect fill="#90EE90" filter="url(#f1n7m2efu6554y)" height="37.6094" style="stroke: #000000; stroke-width: 1.5;" width="82" x="804.5" y="8"/><text fill="#000000" font-family="sans-serif" font-size="14" lengthAdjust="spacingAndGlyphs" textLength="62" x="814.5" y="32.5332">Servicelet</text><!--entity Stacklet--><rect fill="#90EE90" filter="url(#f1n7m2efu6554y)" height="37.6094" style="stroke: #000000; stroke-width: 1.5;" width="70" x="921.5" y="8"/><text fill="#000000" font-family="sans-serif" font-size="14" lengthAdjust="spacingAndGlyphs" textLength="50" x="931.5" y="32.5332">Stacklet</text><!--entity StackInstance--><rect fill="#90EE90" filter="url(#f1n7m2efu6554y)" height="37.6094" style="stroke: #000000; stroke-width: 1.5;" width="108" x="1026.5" y="8"/><text fill="#000000" font-family="sans-serif" font-size="14" lengthAdjust="spacingAndGlyphs" textLength="88" x="1036.5" y="32.5332">StackInstance</text><!--class Model--><rect fill="#FEFECE" filter="url(#f1n7m2efu6554y)" height="131.0156" id="Model" style="stroke: #A80036; stroke-width: 1.5;" width="93" x="493" y="124"/><ellipse cx="511.15" cy="140" fill="#ADD1B2" rx="11" ry="11" style="stroke: #A80036; stroke-width: 1.0;"/><path d="M513.9156,135.875 Q514.0719,135.6563 514.2594,135.5469 Q514.4469,135.4375 514.6656,135.4375 Q515.0406,135.4375 515.275,135.7031 Q515.5094,135.9531 515.5094,136.5625 L515.5094,138.0156 Q515.5094,138.625 515.275,138.8906 Q515.0406,139.1563 514.6656,139.1563 Q514.3219,139.1563 514.1188,138.9531 Q513.9156,138.7656 513.8063,138.25 Q513.7594,137.8906 513.5719,137.7031 Q513.2438,137.3281 512.6344,137.1094 Q512.025,136.8906 511.4,136.8906 Q510.6344,136.8906 509.9938,137.2188 Q509.3688,137.5469 508.8688,138.2969 Q508.3844,139.0469 508.3844,140.0781 L508.3844,141.1719 Q508.3844,142.4063 509.275,143.2344 Q510.1656,144.0469 511.7594,144.0469 Q512.6969,144.0469 513.3531,143.7969 Q513.7438,143.6406 514.1656,143.2031 Q514.4313,142.9375 514.5719,142.8594 Q514.7281,142.7813 514.9313,142.7813 Q515.2594,142.7813 515.5094,143.0469 Q515.775,143.2969 515.775,143.6406 Q515.775,143.9844 515.4313,144.3906 Q514.9313,144.9688 514.1344,145.2969 Q513.0563,145.75 511.7594,145.75 Q510.2438,145.75 509.0406,145.125 Q508.0563,144.625 507.3688,143.5625 Q506.6813,142.4844 506.6813,141.2031 L506.6813,140.0469 Q506.6813,138.7188 507.2906,137.5781 Q507.9156,136.4219 509.0094,135.8125 Q510.1031,135.1875 511.3375,135.1875 Q512.0719,135.1875 512.7125,135.3594 Q513.3688,135.5156 513.9156,135.875 Z "/><text fill="#000000" font-family="sans-serif" font-size="12" lengthAdjust="spacingAndGlyphs" textLength="54" x="525.85" y="144.9102">Resource</text><line style="stroke: #A80036; stroke-width: 1.5;" x1="494" x2="585" y1="156" y2="156"/><text fill="#000000" font-family="sans-serif" font-size="11" lengthAdjust="spacingAndGlyphs" textLength="56" x="499" y="171.4189">string name</text><text fill="#000000" font-family="sans-serif" font-size="11" lengthAdjust="spacingAndGlyphs" textLength="62" x="499" y="185.2549">string ename</text><text fill="#000000" font-family="sans-serif" font-size="11" lengthAdjust="spacingAndGlyphs" textLength="81" x="499" y="199.0908">boolean disabled</text><text fill="#000000" font-family="sans-serif" font-size="11" lengthAdjust="spacingAndGlyphs" textLength="51" x="499" y="212.9268">string type</text><line style="stroke: #A80036; stroke-width: 1.5;" x1="494" x2="585" y1="219.3438" y2="219.3438"/><text fill="#000000" font-family="sans-serif" font-size="11" lengthAdjust="spacingAndGlyphs" textLength="43" x="499" y="234.7627">factory()</text><text fill="#000000" font-family="sans-serif" font-size="11" lengthAdjust="spacingAndGlyphs" textLength="52" x="499" y="248.5986">provision()</text><!--link Model to Request--><path d="M480.42,169.714 C395.436,142.641 233.795,90.963 96.5,46 C94.9152,45.481 93.3047,44.952 91.6788,44.417 " fill="none" id="Model-Request" style="stroke: #A80036; stroke-width: 1.0;"/><polygon fill="#A80036" points="79.0825,40.252,86.3717,46.8752,83.8297,41.8217,88.8832,39.2797,79.0825,40.252" style="stroke: #A80036; stroke-width: 1.0;"/><line style="stroke: #A80036; stroke-width: 1.0;" x1="83.8297" x2="91.4253" y1="41.8217" y2="44.333"/><polygon fill="#FFFFFF" points="492.888,173.684,488.3845,168.0521,481.4537,170.0431,485.9572,175.675,492.888,173.684" style="stroke: #A80036; stroke-width: 1.0;"/><text fill="#000000" font-family="sans-serif" font-size="13" lengthAdjust="spacingAndGlyphs" textLength="43" x="244.5" y="90.4951">request</text><text fill="#000000" font-family="sans-serif" font-size="13" lengthAdjust="spacingAndGlyphs" textLength="7" x="86.9737" y="38.8542">1</text><!--link Request to Model--><path d="M70.4082,55.077 C85.8212,68.63 105.9664,84.196 126.5,94 C244.079,150.139 396.682,173.834 479.543,183.104 " fill="none" id="Request-Model" style="stroke: #A80036; stroke-width: 1.0;"/><polygon fill="#A80036" points="492.716,184.521,484.1958,179.5807,487.7447,183.9859,483.3396,187.5348,492.716,184.521" style="stroke: #A80036; stroke-width: 1.0;"/><line style="stroke: #A80036; stroke-width: 1.0;" x1="487.7447" x2="479.79" y1="183.9859" y2="183.131"/><polygon fill="#A80036" points="60.5471,46.111,62.2955,53.1069,69.4258,54.1837,67.6774,47.1878,60.5471,46.111" style="stroke: #A80036; stroke-width: 1.0;"/><text fill="#000000" font-family="sans-serif" font-size="13" lengthAdjust="spacingAndGlyphs" textLength="57" x="127.5" y="90.4951">resources</text><text fill="#000000" font-family="sans-serif" font-size="13" lengthAdjust="spacingAndGlyphs" textLength="7" x="478.0163" y="180.0544">n</text><!--link Model to PhysicalProfile--><path d="M598.508,213.337 C639.189,230.333 693.621,255.608 737.5,285 C754.128,296.1382 770.824,310.9022 784.043,323.6418 " fill="none" id="Model-PhysicalProfile" style="stroke: #A80036; stroke-width: 1.0;"/><polygon fill="#A80036" points="793.416,332.8955,789.8222,323.7257,789.8581,329.3825,784.2014,329.4184,793.416,332.8955" style="stroke: #A80036; stroke-width: 1.0;"/><line style="stroke: #A80036; stroke-width: 1.0;" x1="789.8581" x2="784.165" y1="329.3825" y2="323.7621"/><polygon fill="#A80036" points="586.351,208.333,590.3767,214.3158,597.4476,212.9009,593.4219,206.9181,586.351,208.333" style="stroke: #A80036; stroke-width: 1.0;"/><text fill="#000000" font-family="sans-serif" font-size="13" lengthAdjust="spacingAndGlyphs" textLength="34" x="762.5" y="299.4951">profile</text><text fill="#000000" font-family="sans-serif" font-size="13" lengthAdjust="spacingAndGlyphs" textLength="7" x="780.1122" y="322.2035">1</text><!--link Model to Hardware--><path d="M479.475,190.442 C410.192,194.005 298.942,211.687 245.5,285 C234.934,299.4949 245.979,313.9827 261.696,325.6763 " fill="none" id="Model-Hardware" style="stroke: #A80036; stroke-width: 1.0;"/><polygon fill="#A80036" points="272.52,332.9291,267.2703,324.596,268.3664,330.1456,262.8168,331.2417,272.52,332.9291" style="stroke: #A80036; stroke-width: 1.0;"/><line style="stroke: #A80036; stroke-width: 1.0;" x1="268.3664" x2="261.72" y1="330.1456" y2="325.6923"/><polygon fill="#FFFFFF" points="492.743,189.905,486.5862,186.1509,480.7528,190.3903,486.9097,194.1444,492.743,189.905" style="stroke: #A80036; stroke-width: 1.0;"/><text fill="#000000" font-family="sans-serif" font-size="13" lengthAdjust="spacingAndGlyphs" textLength="52" x="246.5" y="299.4951">hardware</text><text fill="#000000" font-family="sans-serif" font-size="13" lengthAdjust="spacingAndGlyphs" textLength="7" x="254.641" y="323.2486">n</text><!--link Hardware to Model--><path d="M331.717,322.6284 C342.325,310.1758 355.702,295.9355 369.5,285 C403.826,257.796 447.009,233.899 481.263,216.942 " fill="none" id="Hardware-Model" style="stroke: #A80036; stroke-width: 1.0;"/><polygon fill="#A80036" points="492.977,211.24,483.1341,211.5827,488.4814,213.4285,486.6357,218.7757,492.977,211.24" style="stroke: #A80036; stroke-width: 1.0;"/><line style="stroke: #A80036; stroke-width: 1.0;" x1="488.4814" x2="481.2885" y1="213.4285" y2="216.93"/><polygon fill="#FFFFFF" points="323.167,332.9834,330.0717,330.9037,330.8076,323.7302,323.9029,325.8099,323.167,332.9834" style="stroke: #A80036; stroke-width: 1.0;"/><text fill="#000000" font-family="sans-serif" font-size="13" lengthAdjust="spacingAndGlyphs" textLength="57" x="370.5" y="299.4951">resources</text><text fill="#000000" font-family="sans-serif" font-size="13" lengthAdjust="spacingAndGlyphs" textLength="7" x="478.0046" y="210.9517">n</text><!--link Model to ServiceInstance--><path d="M482.615,229.09 C465.084,244.256 447.927,263.27 438.5,285 C433.024,297.6235 438.098,311.1195 445.918,322.5967 " fill="none" id="Model-ServiceInstance" style="stroke: #A80036; stroke-width: 1.0;"/><polygon fill="#A80036" points="454.002,332.8877,451.5877,323.3393,450.9132,328.9558,445.2967,328.2814,454.002,332.8877" style="stroke: #A80036; stroke-width: 1.0;"/><line style="stroke: #A80036; stroke-width: 1.0;" x1="450.9132" x2="445.972" y1="328.9558" y2="322.6649"/><polygon fill="#FFFFFF" points="492.925,220.614,485.7501,221.3353,483.6563,228.2357,490.8312,227.5144,492.925,220.614" style="stroke: #A80036; stroke-width: 1.0;"/><text fill="#000000" font-family="sans-serif" font-size="13" lengthAdjust="spacingAndGlyphs" textLength="56" x="439.5" y="299.4951">instances</text><text fill="#000000" font-family="sans-serif" font-size="13" lengthAdjust="spacingAndGlyphs" textLength="7" x="439.9589" y="322.1933">n</text><!--link ServiceInstance to Model--><path d="M491.355,321.1788 C494.593,315.2529 497.796,309.0048 500.5,303 C505.57,291.7383 510.398,279.6056 514.821,267.622 " fill="none" id="ServiceInstance-Model" style="stroke: #A80036; stroke-width: 1.0;"/><polygon fill="#A80036" points="519.276,255.23,512.4667,262.3457,517.5842,259.9351,519.9948,265.0526,519.276,255.23" style="stroke: #A80036; stroke-width: 1.0;"/><line style="stroke: #A80036; stroke-width: 1.0;" x1="517.5842" x2="514.8775" y1="259.9351" y2="267.4635"/><polygon fill="#FFFFFF" points="484.808,332.7087,491.249,329.4662,490.7331,322.2735,484.2922,325.5161,484.808,332.7087" style="stroke: #A80036; stroke-width: 1.0;"/><text fill="#000000" font-family="sans-serif" font-size="13" lengthAdjust="spacingAndGlyphs" textLength="57" x="509.5" y="299.4951">resources</text><text fill="#000000" font-family="sans-serif" font-size="13" lengthAdjust="spacingAndGlyphs" textLength="7" x="509.8295" y="276.3458">n</text><!--link Model to Cloud--><path d="M594.153,260.674 C611.023,282.3355 628.668,304.9916 642.066,322.1949 " fill="none" id="Model-Cloud" style="stroke: #A80036; stroke-width: 1.0;"/><polygon fill="#A80036" points="650.207,332.6473,647.8324,323.089,647.1346,328.7026,641.521,328.0048,650.207,332.6473" style="stroke: #A80036; stroke-width: 1.0;"/><line style="stroke: #A80036; stroke-width: 1.0;" x1="647.1346" x2="642.2185" y1="328.7026" y2="322.3909"/><polygon fill="#FFFFFF" points="586.045,250.264,586.5758,257.4555,593.4183,259.7315,592.8875,252.54,586.045,250.264" style="stroke: #A80036; stroke-width: 1.0;"/><text fill="#000000" font-family="sans-serif" font-size="13" lengthAdjust="spacingAndGlyphs" textLength="31" x="625.5" y="299.4951">cloud</text><text fill="#000000" font-family="sans-serif" font-size="13" lengthAdjust="spacingAndGlyphs" textLength="7" x="637.9803" y="322.2166">1</text><!--link Cloud to Model--><path d="M670.799,319.7967 C671.649,308.3247 670.783,295.5661 665.5,285 C651.12,256.239 623.363,233.961 597.553,218.278 " fill="none" id="Cloud-Model" style="stroke: #A80036; stroke-width: 1.0;"/><polygon fill="#A80036" points="586.273,211.75,592.0583,219.7206,590.6003,214.2549,596.0661,212.7969,586.273,211.75" style="stroke: #A80036; stroke-width: 1.0;"/><line style="stroke: #A80036; stroke-width: 1.0;" x1="590.6003" x2="597.5245" y1="214.2549" y2="218.261"/><polygon fill="#A80036" points="669.092,332.918,673.8326,327.4841,670.64,321.0183,665.8994,326.4521,669.092,332.918" style="stroke: #A80036; stroke-width: 1.0;"/><text fill="#000000" font-family="sans-serif" font-size="13" lengthAdjust="spacingAndGlyphs" textLength="57" x="671.5" y="299.4951">resources</text><text fill="#000000" font-family="sans-serif" font-size="13" lengthAdjust="spacingAndGlyphs" textLength="7" x="593.9711" y="211.4529">n</text><!--link AcceleratorHardware to Model--><path d="M241.882,51.63 C305.588,80.927 413.922,130.748 480.828,161.518 " fill="none" id="AcceleratorHardware-Model" style="stroke: #A80036; stroke-width: 1.0;"/><polygon fill="#A80036" points="492.819,167.032,486.3136,159.6374,488.2764,164.9428,482.971,166.9056,492.819,167.032" style="stroke: #A80036; stroke-width: 1.0;"/><line style="stroke: #A80036; stroke-width: 1.0;" x1="488.2764" x2="481.008" y1="164.9428" y2="161.6005"/><polygon fill="#FFFFFF" points="229.856,46.099,233.6361,52.2399,240.7585,51.1125,236.9784,44.9716,229.856,46.099" style="stroke: #A80036; stroke-width: 1.0;"/><text fill="#000000" font-family="sans-serif" font-size="13" lengthAdjust="spacingAndGlyphs" textLength="57" x="335.5" y="90.4951">resources</text><text fill="#000000" font-family="sans-serif" font-size="13" lengthAdjust="spacingAndGlyphs" textLength="7" x="478.135" y="159.8874">n</text><!--link ComputeHardware to Model--><path d="M399.053,55.117 C421.967,76.878 454.85,108.107 483.038,134.878 " fill="none" id="ComputeHardware-Model" style="stroke: #A80036; stroke-width: 1.0;"/><polygon fill="#A80036" points="492.789,144.138,489.0175,135.0399,489.1634,140.6948,483.5085,140.8408,492.789,144.138" style="stroke: #A80036; stroke-width: 1.0;"/><line style="stroke: #A80036; stroke-width: 1.0;" x1="489.1634" x2="483.3625" y1="140.6948" y2="135.1855"/><polygon fill="#FFFFFF" points="389.558,46.099,391.1541,53.1312,398.2593,54.3626,396.6632,47.3303,389.558,46.099" style="stroke: #A80036; stroke-width: 1.0;"/><text fill="#000000" font-family="sans-serif" font-size="13" lengthAdjust="spacingAndGlyphs" textLength="57" x="441.5" y="90.4951">resources</text><text fill="#000000" font-family="sans-serif" font-size="13" lengthAdjust="spacingAndGlyphs" textLength="7" x="478.1004" y="133.4878">n</text><!--link NetworkHardware to Model--><path d="M539.5,59.2 C539.5,73.954 539.5,92.297 539.5,110.486 " fill="none" id="NetworkHardware-Model" style="stroke: #A80036; stroke-width: 1.0;"/><polygon fill="#A80036" points="539.5,123.65,543.5,114.65,539.5,118.65,535.5,114.65,539.5,123.65" style="stroke: #A80036; stroke-width: 1.0;"/><line style="stroke: #A80036; stroke-width: 1.0;" x1="539.5" x2="539.5" y1="118.65" y2="110.65"/><polygon fill="#FFFFFF" points="539.5,46.099,535.5,52.099,539.5,58.099,543.5,52.099,539.5,46.099" style="stroke: #A80036; stroke-width: 1.0;"/><text fill="#000000" font-family="sans-serif" font-size="13" lengthAdjust="spacingAndGlyphs" textLength="57" x="540.5" y="90.4951">resources</text><text fill="#000000" font-family="sans-serif" font-size="13" lengthAdjust="spacingAndGlyphs" textLength="7" x="532.1172" y="113.0861">n</text><!--link StorageHardware to Model--><path d="M676.398,55.335 C654.293,76.838 622.788,107.484 595.572,133.957 " fill="none" id="StorageHardware-Model" style="stroke: #A80036; stroke-width: 1.0;"/><polygon fill="#A80036" points="586.147,143.125,595.3871,139.7162,589.7308,139.6384,589.8086,133.9821,586.147,143.125" style="stroke: #A80036; stroke-width: 1.0;"/><line style="stroke: #A80036; stroke-width: 1.0;" x1="589.7308" x2="595.466" y1="139.6384" y2="134.0605"/><polygon fill="#FFFFFF" points="685.893,46.099,678.803,47.4153,677.2912,54.4661,684.3811,53.1498,685.893,46.099" style="stroke: #A80036; stroke-width: 1.0;"/><text fill="#000000" font-family="sans-serif" font-size="13" lengthAdjust="spacingAndGlyphs" textLength="57" x="652.5" y="90.4951">resources</text><text fill="#000000" font-family="sans-serif" font-size="13" lengthAdjust="spacingAndGlyphs" textLength="7" x="594.1392" y="131.9809">n</text><!--link Servicelet to Model--><path d="M799.347,52.208 C745.477,80.463 656.32,127.227 597.737,157.954 " fill="none" id="Servicelet-Model" style="stroke: #A80036; stroke-width: 1.0;"/><polygon fill="#A80036" points="586.086,164.065,595.9142,163.4269,590.5139,161.7425,592.1982,156.3423,586.086,164.065" style="stroke: #A80036; stroke-width: 1.0;"/><line style="stroke: #A80036; stroke-width: 1.0;" x1="590.5139" x2="597.5985" y1="161.7425" y2="158.0265"/><polygon fill="#FFFFFF" points="810.993,46.099,803.8216,45.3436,800.3661,51.6729,807.5375,52.4283,810.993,46.099" style="stroke: #A80036; stroke-width: 1.0;"/><text fill="#000000" font-family="sans-serif" font-size="13" lengthAdjust="spacingAndGlyphs" textLength="57" x="748.5" y="90.4951">resources</text><text fill="#000000" font-family="sans-serif" font-size="13" lengthAdjust="spacingAndGlyphs" textLength="7" x="594.0685" y="156.2582">n</text><!--link Stacklet to Model--><path d="M909.37,51.409 C881.986,64.63 846.644,81.048 814.5,94 C741.302,123.495 654.957,152.205 598.816,170.091 " fill="none" id="Stacklet-Model" style="stroke: #A80036; stroke-width: 1.0;"/><polygon fill="#A80036" points="586.266,174.069,596.054,175.162,591.0322,172.5579,593.6363,167.5361,586.266,174.069" style="stroke: #A80036; stroke-width: 1.0;"/><line style="stroke: #A80036; stroke-width: 1.0;" x1="591.0322" x2="598.659" y1="172.5579" y2="170.141"/><polygon fill="#FFFFFF" points="921.352,45.583,914.207,44.6092,910.5599,50.83,917.705,51.8039,921.352,45.583" style="stroke: #A80036; stroke-width: 1.0;"/><text fill="#000000" font-family="sans-serif" font-size="13" lengthAdjust="spacingAndGlyphs" textLength="57" x="855.5" y="90.4951">resources</text><text fill="#000000" font-family="sans-serif" font-size="13" lengthAdjust="spacingAndGlyphs" textLength="7" x="593.963" y="186.452">n</text><!--link StackInstance to Model--><path d="M1029.43,51.512 C998.607,65.116 958.304,81.886 921.5,94 C809.471,130.875 674.82,160.99 599.004,176.694 " fill="none" id="StackInstance-Model" style="stroke: #A80036; stroke-width: 1.0;"/><polygon fill="#A80036" points="586.001,179.365,595.6218,181.4723,590.8987,178.359,594.0121,173.6359,586.001,179.365" style="stroke: #A80036; stroke-width: 1.0;"/><line style="stroke: #A80036; stroke-width: 1.0;" x1="590.8987" x2="598.7355" y1="178.359" y2="176.749"/><polygon fill="#FFFFFF" points="1041.59,46.09,1034.4819,44.8757,1030.6271,50.97,1037.7352,52.1843,1041.59,46.09" style="stroke: #A80036; stroke-width: 1.0;"/><text fill="#000000" font-family="sans-serif" font-size="13" lengthAdjust="spacingAndGlyphs" textLength="57" x="970.5" y="90.4951">resources</text><text fill="#000000" font-family="sans-serif" font-size="13" lengthAdjust="spacingAndGlyphs" textLength="7" x="593.9699" y="173.9966">n</text><!--
@startuml

class "Resource" as Model {
 string name
 string ename
 boolean disabled
 string type

 factory()
 provision()
 
}

rectangle "Request" as Request #lightblue {
}

Model o- -> "1" Request : request


rectangle "PhysicalProfile" as PhysicalProfile #lightblue {
}

Model *- -> "1" PhysicalProfile : profile


rectangle "Hardware" as Hardware #lightblue {
}

Model o- -> "n" Hardware : hardware


rectangle "ServiceInstance" as ServiceInstance #lightblue {
}

Model o- -> "n" ServiceInstance : instances


rectangle "Cloud" as Cloud #lightblue {
}

Model o- -> "1" Cloud : cloud




    rectangle "AcceleratorHardware" as AcceleratorHardware #lightgreen {
    }
    
        AcceleratorHardware   o- -> "n" Model : "resources"
    
    rectangle "ComputeHardware" as ComputeHardware #lightgreen {
    }
    
        ComputeHardware   o- -> "n" Model : "resources"
    
    rectangle "Hardware" as Hardware #lightgreen {
    }
    
        Hardware   o- -> "n" Model : "resources"
    
    rectangle "NetworkHardware" as NetworkHardware #lightgreen {
    }
    
        NetworkHardware   o- -> "n" Model : "resources"
    
    rectangle "StorageHardware" as StorageHardware #lightgreen {
    }
    
        StorageHardware   o- -> "n" Model : "resources"
    
    rectangle "Servicelet" as Servicelet #lightgreen {
    }
    
        Servicelet   o- -> "n" Model : "resources"
    
    rectangle "Stacklet" as Stacklet #lightgreen {
    }
    
        Stacklet   o- -> "n" Model : "resources"
    
    rectangle "ServiceInstance" as ServiceInstance #lightgreen {
    }
    
        ServiceInstance   o- -> "n" Model : "resources"
    
    rectangle "StackInstance" as StackInstance #lightgreen {
    }
    
        StackInstance   o- -> "n" Model : "resources"
    
    rectangle "Cloud" as Cloud #lightgreen {
    }
    
        Cloud   *- -> "n" Model : "resources"
    
    rectangle "Request" as Request #lightgreen {
    }
    
        Request   *- -> "n" Model : "resources"
    

@enduml

PlantUML version 1.2019.05(Sat Apr 20 09:45:36 PDT 2019)
(GPL source distribution)
Java Runtime: OpenJDK Runtime Environment
JVM: OpenJDK 64-Bit Server VM
Java Version: 12.0.1+12
Operating System: Windows 10
OS Version: 10.0
Default Encoding: Cp1252
Language: en
Country: US
--></g></svg>