<?xml version="1.0" encoding="UTF-8" standalone="no"?><svg xmlns="http://www.w3.org/2000/svg" xmlns:xlink="http://www.w3.org/1999/xlink" contentScriptType="application/ecmascript" contentStyleType="text/css" height="746px" preserveAspectRatio="none" style="width:540px;height:746px;" version="1.1" viewBox="0 0 540 746" width="540px" zoomAndPan="magnify"><defs><filter height="300%" id="fq3kvm91ymydu" width="300%" x="-1" y="-1"><feGaussianBlur result="blurOut" stdDeviation="2.0"/><feColorMatrix in="blurOut" result="blurOut2" type="matrix" values="0 0 0 0 0 0 0 0 0 0 0 0 0 0 0 0 0 0 .4 0"/><feOffset dx="4.0" dy="4.0" in="blurOut2" result="blurOut3"/><feBlend in="SourceGraphic" in2="blurOut3" mode="normal"/></filter></defs><g><!--cluster Resource--><rect fill="#FFFFE0" filter="url(#fq3kvm91ymydu)" height="508" rx="12.5" ry="12.5" style="stroke: #A80036; stroke-width: 1.5;" width="372" x="22" y="24"/><rect fill="#FFFFFF" height="474.3906" rx="12.5" ry="12.5" style="stroke: #FFFFFF; stroke-width: 1.0;" width="366" x="25" y="54.6094"/><line style="stroke: #A80036; stroke-width: 1.5;" x1="22" x2="394" y1="51.6094" y2="51.6094"/><text fill="#000000" font-family="sans-serif" font-size="14" lengthAdjust="spacingAndGlyphs" textLength="61" x="177.5" y="42.5332">Resource</text><!--cluster cpl--><rect fill="#D3D3D3" filter="url(#fq3kvm91ymydu)" height="102" rx="12.5" ry="12.5" style="stroke: #A80036; stroke-width: 1.5;" width="110" x="418" y="430"/><rect fill="#FFFFFF" height="68.3906" rx="12.5" ry="12.5" style="stroke: #FFFFFF; stroke-width: 1.0;" width="104" x="421" y="460.6094"/><line style="stroke: #A80036; stroke-width: 1.5;" x1="418" x2="528" y1="457.6094" y2="457.6094"/><text fill="#000000" font-family="sans-serif" font-size="14" lengthAdjust="spacingAndGlyphs" textLength="18" x="464" y="448.5332">cpl</text><!--cluster sdi--><rect fill="#FFFFE0" filter="url(#fq3kvm91ymydu)" height="170" rx="12.5" ry="12.5" style="stroke: #A80036; stroke-width: 1.5;" width="148" x="191" y="565"/><rect fill="#FFFFFF" height="136.3906" rx="12.5" ry="12.5" style="stroke: #FFFFFF; stroke-width: 1.0;" width="142" x="194" y="595.6094"/><line style="stroke: #A80036; stroke-width: 1.5;" x1="191" x2="339" y1="592.6094" y2="592.6094"/><text fill="#000000" font-family="sans-serif" font-size="14" lengthAdjust="spacingAndGlyphs" textLength="18" x="256" y="583.5332">sdi</text><!--cluster sdirequest--><rect fill="#FFFFE0" filter="url(#fq3kvm91ymydu)" height="102" rx="12.5" ry="12.5" style="stroke: #A80036; stroke-width: 1.5;" width="100" x="215" y="609"/><rect fill="#FFFFFF" height="68.3906" rx="12.5" ry="12.5" style="stroke: #FFFFFF; stroke-width: 1.0;" width="94" x="218" y="639.6094"/><line style="stroke: #A80036; stroke-width: 1.5;" x1="215" x2="315" y1="636.6094" y2="636.6094"/><text fill="#000000" font-family="sans-serif" font-size="14" lengthAdjust="spacingAndGlyphs" textLength="48" x="241" y="627.5332">request</text><rect fill="#FFFFE0" filter="url(#fq3kvm91ymydu)" height="50" rx="12.5" ry="12.5" style="stroke: #A80036; stroke-width: 1.5;" width="50" x="68" y="60"/><line style="stroke: #A80036; stroke-width: 1.5;" x1="68" x2="118" y1="87.6094" y2="87.6094"/><text fill="#000000" font-family="sans-serif" font-size="14" lengthAdjust="spacingAndGlyphs" textLength="18" x="84" y="79.5332">Init</text><rect fill="#FFFFE0" filter="url(#fq3kvm91ymydu)" height="50" rx="12.5" ry="12.5" style="stroke: #A80036; stroke-width: 1.5;" width="97" x="170.5" y="188"/><line style="stroke: #A80036; stroke-width: 1.5;" x1="170.5" x2="267.5" y1="215.6094" y2="215.6094"/><text fill="#000000" font-family="sans-serif" font-size="14" lengthAdjust="spacingAndGlyphs" textLength="77" x="180.5" y="207.5332">Provisioning</text><rect fill="#FFFFE0" filter="url(#fq3kvm91ymydu)" height="50" rx="12.5" ry="12.5" style="stroke: #A80036; stroke-width: 1.5;" width="59" x="126.5" y="316"/><line style="stroke: #A80036; stroke-width: 1.5;" x1="126.5" x2="185.5" y1="343.6094" y2="343.6094"/><text fill="#000000" font-family="sans-serif" font-size="14" lengthAdjust="spacingAndGlyphs" textLength="39" x="136.5" y="335.5332">Failed</text><rect fill="#FFFFE0" filter="url(#fq3kvm91ymydu)" height="50" rx="12.5" ry="12.5" style="stroke: #A80036; stroke-width: 1.5;" width="61" x="234.5" y="316"/><line style="stroke: #A80036; stroke-width: 1.5;" x1="234.5" x2="295.5" y1="343.6094" y2="343.6094"/><text fill="#000000" font-family="sans-serif" font-size="14" lengthAdjust="spacingAndGlyphs" textLength="41" x="244.5" y="335.5332">Ready</text><rect fill="#FFFFE0" filter="url(#fq3kvm91ymydu)" height="50" rx="12.5" ry="12.5" style="stroke: #A80036; stroke-width: 1.5;" width="75" x="87.5" y="466"/><line style="stroke: #A80036; stroke-width: 1.5;" x1="87.5" x2="162.5" y1="493.6094" y2="493.6094"/><text fill="#000000" font-family="sans-serif" font-size="14" lengthAdjust="spacingAndGlyphs" textLength="55" x="97.5" y="485.5332">Disabled</text><rect fill="#D3D3D3" filter="url(#fq3kvm91ymydu)" height="50" rx="12.5" ry="12.5" style="stroke: #A80036; stroke-width: 1.5;" width="77" x="434.5" y="466"/><line style="stroke: #A80036; stroke-width: 1.5;" x1="434.5" x2="511.5" y1="493.6094" y2="493.6094"/><text fill="#000000" font-family="sans-serif" font-size="14" lengthAdjust="spacingAndGlyphs" textLength="57" x="444.5" y="485.5332">provision</text><rect fill="#FFFFE0" filter="url(#fq3kvm91ymydu)" height="50" rx="12.5" ry="12.5" style="stroke: #A80036; stroke-width: 1.5;" width="68" x="231" y="645"/><line style="stroke: #A80036; stroke-width: 1.5;" x1="231" x2="299" y1="672.6094" y2="672.6094"/><text fill="#000000" font-family="sans-serif" font-size="14" lengthAdjust="spacingAndGlyphs" textLength="48" x="241" y="664.5332">reserve</text><!--link Init to Provisioning--><path d="M117.294,110.294 C138.386,131.386 168.927,161.927 191.032,184.032 " fill="none" id="Init-Provisioning" style="stroke: #A80036; stroke-width: 1.0;"/><polygon fill="#A80036" points="194.781,187.781,191.2455,178.5886,191.2455,184.2455,185.5886,184.2455,194.781,187.781" style="stroke: #A80036; stroke-width: 1.0;"/><text fill="#000000" font-family="sans-serif" font-size="13" lengthAdjust="spacingAndGlyphs" textLength="50" x="165" y="154.4951">provision</text><!--link Init to Disabled--><path d="M91.9912,110.06 C90.6687,147.671 89.0548,222.65 94,286 C98.896,348.72 111.663,421.389 119.198,460.842 " fill="none" id="Init-Disabled" style="stroke: #A80036; stroke-width: 1.0;"/><polygon fill="#A80036" points="120.18,465.951,122.4083,456.3575,119.2357,461.041,114.5523,457.8684,120.18,465.951" style="stroke: #A80036; stroke-width: 1.0;"/><text fill="#000000" font-family="sans-serif" font-size="13" lengthAdjust="spacingAndGlyphs" textLength="41" x="95" y="282.4951">disable</text><!--link Provisioning to Ready--><path d="M229.194,238.062 C233.032,247.362 237.347,258.126 241,268 C246.166,281.964 251.447,297.629 255.736,310.772 " fill="none" id="Provisioning-Ready" style="stroke: #A80036; stroke-width: 1.0;"/><polygon fill="#A80036" points="257.389,315.863,258.4138,306.0676,255.8448,311.1074,250.8049,308.5384,257.389,315.863" style="stroke: #A80036; stroke-width: 1.0;"/><text fill="#000000" font-family="sans-serif" font-size="13" lengthAdjust="spacingAndGlyphs" textLength="96" x="249" y="282.4951">finishedProvision</text><!--link Provisioning to Failed--><path d="M175.095,238.141 C164.633,246.173 154.823,256.154 149,268 C142.536,281.15 143.418,297.269 146.293,310.919 " fill="none" id="Provisioning-Failed" style="stroke: #A80036; stroke-width: 1.0;"/><polygon fill="#A80036" points="147.432,315.826,149.2949,306.1549,146.3022,310.9553,141.5018,307.9626,147.432,315.826" style="stroke: #A80036; stroke-width: 1.0;"/><text fill="#000000" font-family="sans-serif" font-size="13" lengthAdjust="spacingAndGlyphs" textLength="82" x="150" y="282.4951">failedProvision</text><!--link Ready to Disabled--><path d="M234.372,363.271 C221.858,372.631 207.623,384.176 196,396 C176.14,416.203 156.984,442.065 143.585,461.547 " fill="none" id="Ready-Disabled" style="stroke: #A80036; stroke-width: 1.0;"/><polygon fill="#A80036" points="140.646,465.852,149.0232,460.673,143.4645,461.7221,142.4154,456.1634,140.646,465.852" style="stroke: #A80036; stroke-width: 1.0;"/><text fill="#000000" font-family="sans-serif" font-size="13" lengthAdjust="spacingAndGlyphs" textLength="41" x="197" y="410.4951">disable</text><!--link Provisioning to cplprovision--><path d="M267.787,224.657 C295.637,232.751 329.726,246.294 354,268 C414.386,322 449.691,414.097 464.593,460.877 " fill="none" id="Provisioning-cplprovision" style="stroke: #000000; stroke-width: 1.0;"/><polygon fill="#000000" points="466.141,465.806,467.2623,456.0212,464.6437,461.0355,459.6294,458.4169,466.141,465.806" style="stroke: #000000; stroke-width: 1.0;"/><!--link Ready to sdirequestreserve--><path d="M265,366.045 C265,424.864 265,575.848 265,639.741 " fill="none" id="Ready-sdirequestreserve" style="stroke: #000000; stroke-width: 1.0;"/><polygon fill="#000000" points="265,644.92,269,635.92,265,639.92,261,635.92,265,644.92" style="stroke: #000000; stroke-width: 1.0;"/><!--
@startuml



state Resource #lightyellow {

    state Init #lightyellow {
    }

    state Provisioning #lightyellow {
    }

    state Failed #lightyellow {
    }

    state Ready #lightyellow {
    }

    state Disabled #lightyellow {
    }

}


Init - -> Provisioning : provision

Init - -> Disabled : disable

Provisioning - -> Ready : finishedProvision

Provisioning - -> Failed : failedProvision

Ready - -> Disabled : disable



 state "cpl" as cpl #lightgray {
state "provision" as cplprovision #lightgray {
}
}

 Provisioning -[#black]- -> cplprovision
 
 state "sdi" as sdi #lightyellow {
state "request" as sdirequest #lightyellow {
state "reserve" as sdirequestreserve #lightyellow {
}
}
}

 Ready -[#black]- -> sdirequestreserve
 

@enduml

PlantUML version 1.2019.05(Sat Apr 20 09:45:36 PDT 2019)
(GPL source distribution)
Java Runtime: OpenJDK Runtime Environment
JVM: OpenJDK 64-Bit Server VM
Java Version: 12.0.1+12
Operating System: Windows 10
OS Version: 10.0
Default Encoding: Cp1252
Language: en
Country: US
--></g></svg>