<?xml version="1.0" encoding="UTF-8" standalone="no"?><svg xmlns="http://www.w3.org/2000/svg" xmlns:xlink="http://www.w3.org/1999/xlink" contentScriptType="application/ecmascript" contentStyleType="text/css" height="353px" preserveAspectRatio="none" style="width:891px;height:353px;" version="1.1" viewBox="0 0 891 353" width="891px" zoomAndPan="magnify"><defs><filter height="300%" id="fsdrchzmtbrac" width="300%" x="-1" y="-1"><feGaussianBlur result="blurOut" stdDeviation="2.0"/><feColorMatrix in="blurOut" result="blurOut2" type="matrix" values="0 0 0 0 0 0 0 0 0 0 0 0 0 0 0 0 0 0 .4 0"/><feOffset dx="4.0" dy="4.0" in="blurOut2" result="blurOut3"/><feBlend in="SourceGraphic" in2="blurOut3" mode="normal"/></filter></defs><g><!--entity DataInstance--><rect fill="#90EE90" filter="url(#fsdrchzmtbrac)" height="37.6094" style="stroke: #000000; stroke-width: 1.5;" width="103" x="6" y="8"/><text fill="#000000" font-family="sans-serif" font-size="14" lengthAdjust="spacingAndGlyphs" textLength="83" x="16" y="32.5332">DataInstance</text><!--entity Servicelet--><rect fill="#90EE90" filter="url(#fsdrchzmtbrac)" height="37.6094" style="stroke: #000000; stroke-width: 1.5;" width="82" x="339.5" y="305"/><text fill="#000000" font-family="sans-serif" font-size="14" lengthAdjust="spacingAndGlyphs" textLength="62" x="349.5" y="329.5332">Servicelet</text><!--entity Application--><rect fill="#90EE90" filter="url(#fsdrchzmtbrac)" height="37.6094" style="stroke: #000000; stroke-width: 1.5;" width="89" x="144" y="8"/><text fill="#000000" font-family="sans-serif" font-size="14" lengthAdjust="spacingAndGlyphs" textLength="69" x="154" y="32.5332">Application</text><!--entity DataRequest--><rect fill="#90EE90" filter="url(#fsdrchzmtbrac)" height="37.6094" style="stroke: #000000; stroke-width: 1.5;" width="103" x="268" y="8"/><text fill="#000000" font-family="sans-serif" font-size="14" lengthAdjust="spacingAndGlyphs" textLength="83" x="278" y="32.5332">DataRequest</text><!--entity Stack--><rect fill="#90EE90" filter="url(#fsdrchzmtbrac)" height="37.6094" style="stroke: #000000; stroke-width: 1.5;" width="55" x="406" y="8"/><text fill="#000000" font-family="sans-serif" font-size="14" lengthAdjust="spacingAndGlyphs" textLength="35" x="416" y="32.5332">Stack</text><!--entity StackTemplate--><rect fill="#90EE90" filter="url(#fsdrchzmtbrac)" height="37.6094" style="stroke: #000000; stroke-width: 1.5;" width="114" x="496.5" y="8"/><text fill="#000000" font-family="sans-serif" font-size="14" lengthAdjust="spacingAndGlyphs" textLength="94" x="506.5" y="32.5332">StackTemplate</text><!--entity Stacklet--><rect fill="#90EE90" filter="url(#fsdrchzmtbrac)" height="37.6094" style="stroke: #000000; stroke-width: 1.5;" width="70" x="645.5" y="8"/><text fill="#000000" font-family="sans-serif" font-size="14" lengthAdjust="spacingAndGlyphs" textLength="50" x="655.5" y="32.5332">Stacklet</text><!--entity StackletDefinition--><rect fill="#90EE90" filter="url(#fsdrchzmtbrac)" height="37.6094" style="stroke: #000000; stroke-width: 1.5;" width="129" x="751" y="8"/><text fill="#000000" font-family="sans-serif" font-size="14" lengthAdjust="spacingAndGlyphs" textLength="109" x="761" y="32.5332">StackletDefinition</text><!--class Model--><rect fill="#FEFECE" filter="url(#fsdrchzmtbrac)" height="103.3438" id="Model" style="stroke: #A80036; stroke-width: 1.5;" width="115" x="323" y="124"/><ellipse cx="338" cy="140" fill="#ADD1B2" rx="11" ry="11" style="stroke: #A80036; stroke-width: 1.0;"/><path d="M340.7656,135.875 Q340.9219,135.6563 341.1094,135.5469 Q341.2969,135.4375 341.5156,135.4375 Q341.8906,135.4375 342.125,135.7031 Q342.3594,135.9531 342.3594,136.5625 L342.3594,138.0156 Q342.3594,138.625 342.125,138.8906 Q341.8906,139.1563 341.5156,139.1563 Q341.1719,139.1563 340.9688,138.9531 Q340.7656,138.7656 340.6563,138.25 Q340.6094,137.8906 340.4219,137.7031 Q340.0938,137.3281 339.4844,137.1094 Q338.875,136.8906 338.25,136.8906 Q337.4844,136.8906 336.8438,137.2188 Q336.2188,137.5469 335.7188,138.2969 Q335.2344,139.0469 335.2344,140.0781 L335.2344,141.1719 Q335.2344,142.4063 336.125,143.2344 Q337.0156,144.0469 338.6094,144.0469 Q339.5469,144.0469 340.2031,143.7969 Q340.5938,143.6406 341.0156,143.2031 Q341.2813,142.9375 341.4219,142.8594 Q341.5781,142.7813 341.7813,142.7813 Q342.1094,142.7813 342.3594,143.0469 Q342.625,143.2969 342.625,143.6406 Q342.625,143.9844 342.2813,144.3906 Q341.7813,144.9688 340.9844,145.2969 Q339.9063,145.75 338.6094,145.75 Q337.0938,145.75 335.8906,145.125 Q334.9063,144.625 334.2188,143.5625 Q333.5313,142.4844 333.5313,141.2031 L333.5313,140.0469 Q333.5313,138.7188 334.1406,137.5781 Q334.7656,136.4219 335.8594,135.8125 Q336.9531,135.1875 338.1875,135.1875 Q338.9219,135.1875 339.5625,135.3594 Q340.2188,135.5156 340.7656,135.875 Z "/><text fill="#000000" font-family="sans-serif" font-size="12" lengthAdjust="spacingAndGlyphs" textLength="83" x="352" y="144.9102">DataReference</text><line style="stroke: #A80036; stroke-width: 1.5;" x1="324" x2="437" y1="156" y2="156"/><text fill="#000000" font-family="sans-serif" font-size="11" lengthAdjust="spacingAndGlyphs" textLength="56" x="329" y="171.4189">string name</text><text fill="#000000" font-family="sans-serif" font-size="11" lengthAdjust="spacingAndGlyphs" textLength="82" x="329" y="185.2549">string shortName</text><text fill="#000000" font-family="sans-serif" font-size="11" lengthAdjust="spacingAndGlyphs" textLength="51" x="329" y="199.0908">json query</text><text fill="#000000" font-family="sans-serif" font-size="11" lengthAdjust="spacingAndGlyphs" textLength="83" x="329" y="212.9268">string connection</text><line style="stroke: #A80036; stroke-width: 1.5;" x1="324" x2="437" y1="219.3438" y2="219.3438"/><!--link Model to DataInstance--><path d="M310.363,145.962 C274.314,130.997 229.812,112.062 190.5,94 C161.615,80.728 129.696,64.928 104.3683,52.114 " fill="none" id="Model-DataInstance" style="stroke: #A80036; stroke-width: 1.0;"/><polygon fill="#A80036" points="92.5066,46.088,98.7184,53.7309,96.9642,48.3529,102.3422,46.5987,92.5066,46.088" style="stroke: #A80036; stroke-width: 1.0;"/><line style="stroke: #A80036; stroke-width: 1.0;" x1="96.9642" x2="104.0969" y1="48.3529" y2="51.9765"/><polygon fill="#A80036" points="322.739,151.081,318.7233,145.0915,311.6501,146.4946,315.6657,152.4841,322.739,151.081" style="stroke: #A80036; stroke-width: 1.0;"/><text fill="#000000" font-family="sans-serif" font-size="13" lengthAdjust="spacingAndGlyphs" textLength="56" x="191.5" y="90.4951">instances</text><text fill="#000000" font-family="sans-serif" font-size="13" lengthAdjust="spacingAndGlyphs" textLength="7" x="93.974" y="66.9627">n</text><!--link DataInstance to Model--><path d="M67.1416,58.73 C72.4935,71.278 80.3728,84.939 91.5,94 C153.903,144.813 246.255,163.614 309.672,170.534 " fill="none" id="DataInstance-Model" style="stroke: #A80036; stroke-width: 1.0;"/><polygon fill="#A80036" points="322.745,171.838,314.1863,166.9647,317.7697,171.3418,313.3925,174.9252,322.745,171.838" style="stroke: #A80036; stroke-width: 1.0;"/><line style="stroke: #A80036; stroke-width: 1.0;" x1="317.7697" x2="309.8085" y1="171.3418" y2="170.5475"/><polygon fill="#FFFFFF" points="62.4491,46.297,60.8252,53.3229,66.6861,57.5241,68.31,50.4982,62.4491,46.297" style="stroke: #A80036; stroke-width: 1.0;"/><text fill="#000000" font-family="sans-serif" font-size="13" lengthAdjust="spacingAndGlyphs" textLength="53" x="92.5" y="90.4951">reference</text><text fill="#000000" font-family="sans-serif" font-size="13" lengthAdjust="spacingAndGlyphs" textLength="7" x="307.8967" y="167.8394">1</text><!--link Model to Servicelet--><path d="M338.376,239.51 C334.896,251.2348 334.154,263.4341 338.5,275 C341.129,281.9967 345.291,288.6409 349.996,294.6319 " fill="none" id="Model-Servicelet" style="stroke: #A80036; stroke-width: 1.0;"/><polygon fill="#A80036" points="358.836,304.6456,355.8785,295.2513,355.527,300.8972,349.8811,300.5457,358.836,304.6456" style="stroke: #A80036; stroke-width: 1.0;"/><line style="stroke: #A80036; stroke-width: 1.0;" x1="355.527" x2="350.232" y1="300.8972" y2="294.8997"/><polygon fill="#FFFFFF" points="343.116,227.027,337.2464,231.2161,338.8557,238.2453,344.7253,234.0562,343.116,227.027" style="stroke: #A80036; stroke-width: 1.0;"/><text fill="#000000" font-family="sans-serif" font-size="13" lengthAdjust="spacingAndGlyphs" textLength="36" x="339.5" y="271.4951">parent</text><text fill="#000000" font-family="sans-serif" font-size="13" lengthAdjust="spacingAndGlyphs" textLength="7" x="344.4441" y="294.2144">1</text><!--link Servicelet to Model--><path d="M380.5,291.8336 C380.5,276.8603 380.5,258.3365 380.5,240.548 " fill="none" id="Servicelet-Model" style="stroke: #A80036; stroke-width: 1.0;"/><polygon fill="#A80036" points="380.5,227.327,376.5,236.327,380.5,232.327,384.5,236.327,380.5,227.327" style="stroke: #A80036; stroke-width: 1.0;"/><line style="stroke: #A80036; stroke-width: 1.0;" x1="380.5" x2="380.5" y1="232.327" y2="240.327"/><polygon fill="#A80036" points="380.5,304.9617,384.5,298.9617,380.5,292.9617,376.5,298.9617,380.5,304.9617" style="stroke: #A80036; stroke-width: 1.0;"/><text fill="#000000" font-family="sans-serif" font-size="13" lengthAdjust="spacingAndGlyphs" textLength="25" x="381.5" y="271.4951">data</text><text fill="#000000" font-family="sans-serif" font-size="13" lengthAdjust="spacingAndGlyphs" textLength="7" x="373.0297" y="248.8619">n</text><!--link Application to Model--><path d="M222.795,54.168 C247.596,73.092 281.932,99.29 312.235,122.412 " fill="none" id="Application-Model" style="stroke: #A80036; stroke-width: 1.0;"/><polygon fill="#A80036" points="322.763,130.445,318.0346,121.8054,318.7881,127.4119,313.1816,128.1653,322.763,130.445" style="stroke: #A80036; stroke-width: 1.0;"/><line style="stroke: #A80036; stroke-width: 1.0;" x1="318.7881" x2="312.427" y1="127.4119" y2="122.559"/><polygon fill="#FFFFFF" points="212.429,46.258,214.7724,53.0777,221.9689,53.5375,219.6254,46.7178,212.429,46.258" style="stroke: #A80036; stroke-width: 1.0;"/><text fill="#000000" font-family="sans-serif" font-size="13" lengthAdjust="spacingAndGlyphs" textLength="25" x="274.5" y="90.4951">data</text><text fill="#000000" font-family="sans-serif" font-size="13" lengthAdjust="spacingAndGlyphs" textLength="7" x="307.917" y="121.1429">n</text><!--link DataRequest to Model--><path d="M314.027,59.4 C313.246,70.585 313.743,83.103 317.5,94 C319.686,100.339 322.598,106.56 325.976,112.56 " fill="none" id="DataRequest-Model" style="stroke: #A80036; stroke-width: 1.0;"/><polygon fill="#A80036" points="332.975,123.799,331.6135,114.0447,330.3322,119.5545,324.8223,118.2732,332.975,123.799" style="stroke: #A80036; stroke-width: 1.0;"/><line style="stroke: #A80036; stroke-width: 1.0;" x1="330.3322" x2="326.1025" y1="119.5545" y2="112.764"/><polygon fill="#FFFFFF" points="315.552,46.167,310.8919,51.67,314.1792,58.0882,318.8393,52.5852,315.552,46.167" style="stroke: #A80036; stroke-width: 1.0;"/><text fill="#000000" font-family="sans-serif" font-size="13" lengthAdjust="spacingAndGlyphs" textLength="83" x="318.5" y="90.4951">dataReference</text><text fill="#000000" font-family="sans-serif" font-size="13" lengthAdjust="spacingAndGlyphs" textLength="7" x="319.1185" y="113.2723">1</text><!--link Stack to Model--><path d="M422.443,58.565 C416.897,73.893 409.966,93.053 403.345,111.354 " fill="none" id="Stack-Model" style="stroke: #A80036; stroke-width: 1.0;"/><polygon fill="#A80036" points="398.831,123.83,405.6544,116.7278,400.5321,119.1283,398.1316,114.006,398.831,123.83" style="stroke: #A80036; stroke-width: 1.0;"/><line style="stroke: #A80036; stroke-width: 1.0;" x1="400.5321" x2="403.2535" y1="119.1283" y2="111.605"/><polygon fill="#A80036" points="426.895,46.258,421.0924,50.5394,422.8127,57.5423,428.6153,53.2609,426.895,46.258" style="stroke: #A80036; stroke-width: 1.0;"/><text fill="#000000" font-family="sans-serif" font-size="13" lengthAdjust="spacingAndGlyphs" textLength="25" x="416.5" y="90.4951">data</text><text fill="#000000" font-family="sans-serif" font-size="13" lengthAdjust="spacingAndGlyphs" textLength="7" x="393.8239" y="113.3075">n</text><!--link StackTemplate to Model--><path d="M521.889,54.769 C501.251,72.246 473.51,95.737 448.067,117.283 " fill="none" id="StackTemplate-Model" style="stroke: #A80036; stroke-width: 1.0;"/><polygon fill="#A80036" points="438.078,125.741,447.5312,122.9775,441.8937,122.5099,442.3614,116.8724,438.078,125.741" style="stroke: #A80036; stroke-width: 1.0;"/><line style="stroke: #A80036; stroke-width: 1.0;" x1="441.8937" x2="447.9995" y1="122.5099" y2="117.3405"/><polygon fill="#A80036" points="531.939,46.258,524.7752,47.0828,522.7813,54.0127,529.945,53.1879,531.939,46.258" style="stroke: #A80036; stroke-width: 1.0;"/><text fill="#000000" font-family="sans-serif" font-size="13" lengthAdjust="spacingAndGlyphs" textLength="25" x="494.5" y="90.4951">data</text><text fill="#000000" font-family="sans-serif" font-size="13" lengthAdjust="spacingAndGlyphs" textLength="7" x="445.9036" y="115.8362">n</text><!--link Stacklet to Model--><path d="M633.795,50.808 C584.503,74.878 506.281,113.077 449.797,140.66 " fill="none" id="Stacklet-Model" style="stroke: #A80036; stroke-width: 1.0;"/><polygon fill="#A80036" points="438.093,146.376,447.9355,146.0216,442.586,144.1822,444.4254,138.8328,438.093,146.376" style="stroke: #A80036; stroke-width: 1.0;"/><line style="stroke: #A80036; stroke-width: 1.0;" x1="442.586" x2="449.7745" y1="144.1822" y2="140.671"/><polygon fill="#A80036" points="645.499,45.092,638.3523,44.1304,634.716,50.3576,641.8627,51.3191,645.499,45.092" style="stroke: #A80036; stroke-width: 1.0;"/><text fill="#000000" font-family="sans-serif" font-size="13" lengthAdjust="spacingAndGlyphs" textLength="25" x="576.5" y="90.4951">data</text><text fill="#000000" font-family="sans-serif" font-size="13" lengthAdjust="spacingAndGlyphs" textLength="7" x="445.9205" y="139.1151">n</text><!--link StackletDefinition to Model--><path d="M749.157,50.343 C668.55,77.49 533.149,123.09 450.798,150.825 " fill="none" id="StackletDefinition-Model" style="stroke: #A80036; stroke-width: 1.0;"/><polygon fill="#A80036" points="438.302,155.034,448.108,155.9517,443.0404,153.4379,445.5542,148.3703,438.302,155.034" style="stroke: #A80036; stroke-width: 1.0;"/><line style="stroke: #A80036; stroke-width: 1.0;" x1="443.0404" x2="450.6215" y1="153.4379" y2="150.884"/><polygon fill="#FFFFFF" points="761.724,46.111,754.7612,44.2349,750.3515,49.9405,757.3142,51.8166,761.724,46.111" style="stroke: #A80036; stroke-width: 1.0;"/><text fill="#000000" font-family="sans-serif" font-size="13" lengthAdjust="spacingAndGlyphs" textLength="25" x="663.5" y="90.4951">data</text><text fill="#000000" font-family="sans-serif" font-size="13" lengthAdjust="spacingAndGlyphs" textLength="7" x="446.1563" y="166.9324">n</text><!--
@startuml

class "DataReference" as Model {
 string name
 string shortName
 json query
 string connection

 
}

rectangle "DataInstance" as DataInstance #lightblue {
}

Model *- -> "n" DataInstance : instances


rectangle "Servicelet" as Servicelet #lightblue {
}

Model o- -> "1" Servicelet : parent




    rectangle "Application" as Application #lightgreen {
    }
    
        Application   o- -> "n" Model : "data"
    
    rectangle "DataInstance" as DataInstance #lightgreen {
    }
    
        DataInstance   o- -> "1" Model : "reference"
    
    rectangle "DataRequest" as DataRequest #lightgreen {
    }
    
        DataRequest   o- -> "1" Model : "dataReference"
    
    rectangle "Servicelet" as Servicelet #lightgreen {
    }
    
        Servicelet   *- -> "n" Model : "data"
    
    rectangle "Stack" as Stack #lightgreen {
    }
    
        Stack   *- -> "n" Model : "data"
    
    rectangle "StackTemplate" as StackTemplate #lightgreen {
    }
    
        StackTemplate   *- -> "n" Model : "data"
    
    rectangle "Stacklet" as Stacklet #lightgreen {
    }
    
        Stacklet   *- -> "n" Model : "data"
    
    rectangle "StackletDefinition" as StackletDefinition #lightgreen {
    }
    
        StackletDefinition   o- -> "n" Model : "data"
    

@enduml

PlantUML version 1.2019.05(Sat Apr 20 09:45:36 PDT 2019)
(GPL source distribution)
Java Runtime: OpenJDK Runtime Environment
JVM: OpenJDK 64-Bit Server VM
Java Version: 12.0.1+12
Operating System: Windows 10
OS Version: 10.0
Default Encoding: Cp1252
Language: en
Country: US
--></g></svg>