<?xml version="1.0" encoding="UTF-8" standalone="no"?><svg xmlns="http://www.w3.org/2000/svg" xmlns:xlink="http://www.w3.org/1999/xlink" contentScriptType="application/ecmascript" contentStyleType="text/css" height="613px" preserveAspectRatio="none" style="width:379px;height:613px;" version="1.1" viewBox="0 0 379 613" width="379px" zoomAndPan="magnify"><defs><filter height="300%" id="f1ts6cdvgjk7jz" width="300%" x="-1" y="-1"><feGaussianBlur result="blurOut" stdDeviation="2.0"/><feColorMatrix in="blurOut" result="blurOut2" type="matrix" values="0 0 0 0 0 0 0 0 0 0 0 0 0 0 0 0 0 0 .4 0"/><feOffset dx="4.0" dy="4.0" in="blurOut2" result="blurOut3"/><feBlend in="SourceGraphic" in2="blurOut3" mode="normal"/></filter></defs><g><!--cluster aml--><rect fill="#ADD8E6" filter="url(#f1ts6cdvgjk7jz)" height="88" style="stroke: #000000; stroke-width: 1.5;" width="231" x="137" y="24"/><text fill="#000000" font-family="sans-serif" font-size="14" font-weight="bold" lengthAdjust="spacingAndGlyphs" textLength="215" x="145" y="40.5332">Application Management Layer</text><!--cluster cds--><rect fill="#FFCC88" filter="url(#f1ts6cdvgjk7jz)" height="84" style="stroke: #000000; stroke-width: 1.5;" width="170" x="167" y="136"/><text fill="#000000" font-family="sans-serif" font-size="14" font-weight="bold" lengthAdjust="spacingAndGlyphs" textLength="154" x="175" y="152.5332">Common Data Service</text><!--cluster ddf--><rect fill="#FFCC88" filter="url(#f1ts6cdvgjk7jz)" height="240" style="stroke: #000000; stroke-width: 1.5;" width="218" x="143" y="244"/><text fill="#000000" font-family="sans-serif" font-size="14" font-weight="bold" lengthAdjust="spacingAndGlyphs" textLength="185" x="159.5" y="260.5332">Data Definition Framework</text><!--cluster do--><rect fill="#ADD8E6" filter="url(#f1ts6cdvgjk7jz)" height="94" style="stroke: #000000; stroke-width: 1.5;" width="211" x="146.5" y="508"/><text fill="#000000" font-family="sans-serif" font-size="14" font-weight="bold" lengthAdjust="spacingAndGlyphs" textLength="125" x="189.5" y="524.5332">Data Orchestrator</text><ellipse cx="251.8153" cy="78.0631" fill="#FEFECE" filter="url(#f1ts6cdvgjk7jz)" rx="75.8153" ry="17.5631" style="stroke: #A80036; stroke-width: 1.5;"/><text fill="#000000" font-family="sans-serif" font-size="14" lengthAdjust="spacingAndGlyphs" textLength="116" x="193.8153" y="83.3677">Manage AI Models</text><ellipse cx="252.1041" cy="187.9517" fill="#FEFECE" filter="url(#f1ts6cdvgjk7jz)" rx="63.1041" ry="15.4517" style="stroke: #A80036; stroke-width: 1.5;"/><text fill="#000000" font-family="sans-serif" font-size="14" lengthAdjust="spacingAndGlyphs" textLength="85" x="209.6041" y="193.2564">Manage Data</text><ellipse cx="252.2471" cy="300.0494" fill="#FEFECE" filter="url(#f1ts6cdvgjk7jz)" rx="88.2471" ry="20.0494" style="stroke: #A80036; stroke-width: 1.5;"/><text fill="#000000" font-family="sans-serif" font-size="14" lengthAdjust="spacingAndGlyphs" textLength="146" x="179.2471" y="305.3541">Manage Data Adaptors</text><ellipse cx="252.0017" cy="376.0003" fill="#FEFECE" filter="url(#f1ts6cdvgjk7jz)" rx="93.0017" ry="21.0003" style="stroke: #A80036; stroke-width: 1.5;"/><text fill="#000000" font-family="sans-serif" font-size="14" lengthAdjust="spacingAndGlyphs" textLength="157" x="173.5017" y="381.305">Manage Data Blue Prints</text><ellipse cx="251.9182" cy="449.8836" fill="#FEFECE" filter="url(#f1ts6cdvgjk7jz)" rx="77.4182" ry="17.8836" style="stroke: #A80036; stroke-width: 1.5;"/><text fill="#000000" font-family="sans-serif" font-size="14" lengthAdjust="spacingAndGlyphs" textLength="120" x="191.9182" y="455.1883">Manage Meta Data</text><ellipse cx="252.035" cy="564.807" fill="#FEFECE" filter="url(#f1ts6cdvgjk7jz)" rx="89.535" ry="20.307" style="stroke: #A80036; stroke-width: 1.5;"/><text fill="#000000" font-family="sans-serif" font-size="14" lengthAdjust="spacingAndGlyphs" textLength="149" x="177.535" y="570.1117">Manage Data Instances</text><!--entity DataScientist--><ellipse cx="49.5" cy="305.5" fill="#FEFECE" filter="url(#f1ts6cdvgjk7jz)" rx="8" ry="8" style="stroke: #A80036; stroke-width: 2.0;"/><path d="M49.5,313.5 L49.5,340.5 M36.5,321.5 L62.5,321.5 M49.5,340.5 L36.5,355.5 M49.5,340.5 L62.5,355.5 " fill="none" filter="url(#f1ts6cdvgjk7jz)" style="stroke: #A80036; stroke-width: 2.0;"/><text fill="#000000" font-family="sans-serif" font-size="14" lengthAdjust="spacingAndGlyphs" textLength="87" x="6" y="377.0332">Data Scientist</text><!--link DataScientist to ManageAIModels--><path d="M61.0495,295.485 C72.5479,255.912 94.1185,197.03 129,156 C151.396,129.656 184.944,109.104 211.195,95.725 " fill="none" id="DataScientist-ManageAIModels" style="stroke: #A80036; stroke-width: 1.0;"/><polygon fill="#A80036" points="215.674,93.475,205.8362,93.9411,211.2062,95.7196,209.4276,101.0896,215.674,93.475" style="stroke: #A80036; stroke-width: 1.0;"/><!--link DataScientist to ManageData--><path d="M92.725,295.291 C104.1053,284.603 116.686,273.488 129,264 C158.402,241.345 194.823,219.36 220.181,204.914 " fill="none" id="DataScientist-ManageData" style="stroke: #A80036; stroke-width: 1.0;"/><polygon fill="#A80036" points="224.783,202.305,214.9809,203.2632,220.4332,204.7706,218.9258,210.2229,224.783,202.305" style="stroke: #A80036; stroke-width: 1.0;"/><!--link DataScientist to ManageDataAdaptors--><path d="M93.0209,329.941 C117.905,325.225 149.988,319.144 178.734,313.696 " fill="none" id="DataScientist-ManageDataAdaptors" style="stroke: #A80036; stroke-width: 1.0;"/><polygon fill="#A80036" points="183.687,312.758,174.0994,310.5045,178.7745,313.6894,175.5896,318.3644,183.687,312.758" style="stroke: #A80036; stroke-width: 1.0;"/><!--link DataScientist to ManageDataBluePrints--><path d="M93.0209,346.059 C116.828,350.571 147.225,356.332 174.984,361.593 " fill="none" id="DataScientist-ManageDataBluePrints" style="stroke: #A80036; stroke-width: 1.0;"/><polygon fill="#A80036" points="180.135,362.569,172.0379,356.9621,175.2226,361.6374,170.5473,364.822,180.135,362.569" style="stroke: #A80036; stroke-width: 1.0;"/><!--link DataScientist to ManageMetaData--><path d="M87.3125,380.782 C99.5477,392.918 113.926,405.207 129,414 C146.585,424.258 167.326,431.796 186.669,437.244 " fill="none" id="DataScientist-ManageMetaData" style="stroke: #A80036; stroke-width: 1.0;"/><polygon fill="#A80036" points="191.554,438.584,183.9327,432.3458,186.7321,437.2614,181.8165,440.0609,191.554,438.584" style="stroke: #A80036; stroke-width: 1.0;"/><!--link DataScientist to ManageDataInstances--><path d="M66.8201,380.774 C80.1836,411.884 101.3777,453.688 129,484 C151.569,508.767 183.236,529.5014 208.651,543.791 " fill="none" id="DataScientist-ManageDataInstances" style="stroke: #A80036; stroke-width: 1.0;"/><polygon fill="#A80036" points="213.32,546.3837,207.3933,538.5177,208.9486,543.9565,203.5098,545.5119,213.32,546.3837" style="stroke: #A80036; stroke-width: 1.0;"/><!--
@startuml

left to right direction


Actor "Data Scientist" as DataScientist


rectangle "Application Management Layer" as aml #lightblue {
        usecase "Manage AI Models" as ManageAIModels
    DataScientist - -> ManageAIModels

}

rectangle "Common Data Service" as cds #ffcc88 {
        usecase "Manage Data" as ManageData
    DataScientist - -> ManageData

}

rectangle "Data Definition Framework" as ddf #ffcc88 {
        usecase "Manage Data Adaptors" as ManageDataAdaptors
    DataScientist - -> ManageDataAdaptors
    usecase "Manage Data Blue Prints" as ManageDataBluePrints
    DataScientist - -> ManageDataBluePrints
    usecase "Manage Meta Data" as ManageMetaData
    DataScientist - -> ManageMetaData

}

rectangle "Data Orchestrator" as do #lightblue {
        usecase "Manage Data Instances" as ManageDataInstances
    DataScientist - -> ManageDataInstances

}


@enduml

PlantUML version 1.2019.05(Sat Apr 20 09:45:36 PDT 2019)
(GPL source distribution)
Java Runtime: OpenJDK Runtime Environment
JVM: OpenJDK 64-Bit Server VM
Java Version: 12.0.1+12
Operating System: Windows 10
OS Version: 10.0
Default Encoding: Cp1252
Language: en
Country: US
--></g></svg>