<?xml version="1.0" encoding="UTF-8" standalone="no"?><svg xmlns="http://www.w3.org/2000/svg" xmlns:xlink="http://www.w3.org/1999/xlink" contentScriptType="application/ecmascript" contentStyleType="text/css" height="1381px" preserveAspectRatio="none" style="width:613px;height:1381px;" version="1.1" viewBox="0 0 613 1381" width="613px" zoomAndPan="magnify"><defs><filter height="300%" id="fi95b26h0jw0a" width="300%" x="-1" y="-1"><feGaussianBlur result="blurOut" stdDeviation="2.0"/><feColorMatrix in="blurOut" result="blurOut2" type="matrix" values="0 0 0 0 0 0 0 0 0 0 0 0 0 0 0 0 0 0 .4 0"/><feOffset dx="4.0" dy="4.0" in="blurOut2" result="blurOut3"/><feBlend in="SourceGraphic" in2="blurOut3" mode="normal"/></filter></defs><g><!--cluster cpl--><rect fill="#D3D3D3" filter="url(#fi95b26h0jw0a)" height="1346" rx="12.5" ry="12.5" style="stroke: #A80036; stroke-width: 1.5;" width="159" x="263" y="24"/><rect fill="#FFFFFF" height="1312.3906" rx="12.5" ry="12.5" style="stroke: #FFFFFF; stroke-width: 1.0;" width="153" x="266" y="54.6094"/><line style="stroke: #A80036; stroke-width: 1.5;" x1="263" x2="422" y1="51.6094" y2="51.6094"/><text fill="#000000" font-family="sans-serif" font-size="14" lengthAdjust="spacingAndGlyphs" textLength="18" x="333.5" y="42.5332">cpl</text><!--cluster cpldevice--><rect fill="#D3D3D3" filter="url(#fi95b26h0jw0a)" height="272" rx="12.5" ry="12.5" style="stroke: #A80036; stroke-width: 1.5;" width="97" x="294" y="68"/><rect fill="#FFFFFF" height="238.3906" rx="12.5" ry="12.5" style="stroke: #FFFFFF; stroke-width: 1.0;" width="91" x="297" y="98.6094"/><line style="stroke: #A80036; stroke-width: 1.5;" x1="294" x2="391" y1="95.6094" y2="95.6094"/><text fill="#000000" font-family="sans-serif" font-size="14" lengthAdjust="spacingAndGlyphs" textLength="41" x="322" y="86.5332">device</text><!--cluster sdi--><rect fill="#FFFFE0" filter="url(#fi95b26h0jw0a)" height="422" rx="12.5" ry="12.5" style="stroke: #A80036; stroke-width: 1.5;" width="176" x="22" y="301"/><rect fill="#FFFFFF" height="388.3906" rx="12.5" ry="12.5" style="stroke: #FFFFFF; stroke-width: 1.0;" width="170" x="25" y="331.6094"/><line style="stroke: #A80036; stroke-width: 1.5;" x1="22" x2="198" y1="328.6094" y2="328.6094"/><text fill="#000000" font-family="sans-serif" font-size="14" lengthAdjust="spacingAndGlyphs" textLength="18" x="101" y="319.5332">sdi</text><!--cluster sdirequest--><rect fill="#FFFFE0" filter="url(#fi95b26h0jw0a)" height="102" rx="12.5" ry="12.5" style="stroke: #A80036; stroke-width: 1.5;" width="100" x="60" y="345"/><rect fill="#FFFFFF" height="68.3906" rx="12.5" ry="12.5" style="stroke: #FFFFFF; stroke-width: 1.0;" width="94" x="63" y="375.6094"/><line style="stroke: #A80036; stroke-width: 1.5;" x1="60" x2="160" y1="372.6094" y2="372.6094"/><text fill="#000000" font-family="sans-serif" font-size="14" lengthAdjust="spacingAndGlyphs" textLength="53" x="83.5" y="363.5332">Request</text><!--cluster sdireservation--><rect fill="#FFFFE0" filter="url(#fi95b26h0jw0a)" height="102" rx="12.5" ry="12.5" style="stroke: #A80036; stroke-width: 1.5;" width="103" x="58.5" y="471"/><rect fill="#FFFFFF" height="68.3906" rx="12.5" ry="12.5" style="stroke: #FFFFFF; stroke-width: 1.0;" width="97" x="61.5" y="501.6094"/><line style="stroke: #A80036; stroke-width: 1.5;" x1="58.5" x2="161.5" y1="498.6094" y2="498.6094"/><text fill="#000000" font-family="sans-serif" font-size="14" lengthAdjust="spacingAndGlyphs" textLength="76" x="72" y="489.5332">Reservation</text><!--cluster sdiresource--><rect fill="#FFFFE0" filter="url(#fi95b26h0jw0a)" height="102" rx="12.5" ry="12.5" style="stroke: #A80036; stroke-width: 1.5;" width="128" x="46" y="597"/><rect fill="#FFFFFF" height="68.3906" rx="12.5" ry="12.5" style="stroke: #FFFFFF; stroke-width: 1.0;" width="122" x="49" y="627.6094"/><line style="stroke: #A80036; stroke-width: 1.5;" x1="46" x2="174" y1="624.6094" y2="624.6094"/><text fill="#000000" font-family="sans-serif" font-size="14" lengthAdjust="spacingAndGlyphs" textLength="61" x="79.5" y="615.5332">Resource</text><!--cluster ta--><rect fill="#E6E6FA" filter="url(#fi95b26h0jw0a)" height="102" rx="12.5" ry="12.5" style="stroke: #A80036; stroke-width: 1.5;" width="90" x="511" y="182"/><rect fill="#FFFFFF" height="68.3906" rx="12.5" ry="12.5" style="stroke: #FFFFFF; stroke-width: 1.0;" width="84" x="514" y="212.6094"/><line style="stroke: #A80036; stroke-width: 1.5;" x1="511" x2="601" y1="209.6094" y2="209.6094"/><text fill="#000000" font-family="sans-serif" font-size="14" lengthAdjust="spacingAndGlyphs" textLength="12" x="550" y="200.5332">ta</text><!--cluster tc--><rect fill="#E6E6FA" filter="url(#fi95b26h0jw0a)" height="102" rx="12.5" ry="12.5" style="stroke: #A80036; stroke-width: 1.5;" width="90" x="511" y="308"/><rect fill="#FFFFFF" height="68.3906" rx="12.5" ry="12.5" style="stroke: #FFFFFF; stroke-width: 1.0;" width="84" x="514" y="338.6094"/><line style="stroke: #A80036; stroke-width: 1.5;" x1="511" x2="601" y1="335.6094" y2="335.6094"/><text fill="#000000" font-family="sans-serif" font-size="14" lengthAdjust="spacingAndGlyphs" textLength="11" x="550.5" y="326.5332">tc</text><rect fill="#D3D3D3" filter="url(#fi95b26h0jw0a)" height="50" rx="12.5" ry="12.5" style="stroke: #A80036; stroke-width: 1.5;" width="127" x="279" y="529"/><line style="stroke: #A80036; stroke-width: 1.5;" x1="279" x2="406" y1="556.6094" y2="556.6094"/><text fill="#000000" font-family="sans-serif" font-size="14" lengthAdjust="spacingAndGlyphs" textLength="107" x="289" y="548.5332">Custom Function</text><rect fill="#D3D3D3" filter="url(#fi95b26h0jw0a)" height="50" rx="12.5" ry="12.5" style="stroke: #A80036; stroke-width: 1.5;" width="92" x="296.5" y="444"/><line style="stroke: #A80036; stroke-width: 1.5;" x1="296.5" x2="388.5" y1="471.6094" y2="471.6094"/><text fill="#000000" font-family="sans-serif" font-size="14" lengthAdjust="spacingAndGlyphs" textLength="72" x="306.5" y="463.5332">adddevices</text><rect fill="#D3D3D3" filter="url(#fi95b26h0jw0a)" height="50" rx="12.5" ry="12.5" style="stroke: #A80036; stroke-width: 1.5;" width="77" x="304" y="614"/><line style="stroke: #A80036; stroke-width: 1.5;" x1="304" x2="381" y1="641.6094" y2="641.6094"/><text fill="#000000" font-family="sans-serif" font-size="14" lengthAdjust="spacingAndGlyphs" textLength="57" x="314" y="633.5332">provision</text><rect fill="#D3D3D3" filter="url(#fi95b26h0jw0a)" height="50" rx="12.5" ry="12.5" style="stroke: #A80036; stroke-width: 1.5;" width="68" x="308.5" y="359"/><line style="stroke: #A80036; stroke-width: 1.5;" x1="308.5" x2="376.5" y1="386.6094" y2="386.6094"/><text fill="#000000" font-family="sans-serif" font-size="14" lengthAdjust="spacingAndGlyphs" textLength="48" x="318.5" y="378.5332">reserve</text><rect fill="#D3D3D3" filter="url(#fi95b26h0jw0a)" height="173.6094" rx="12.5" ry="12.5" style="stroke: #A80036; stroke-width: 1.5;" width="108" x="288.5" y="699"/><rect fill="#FFFFFF" height="140" rx="12.5" ry="12.5" style="stroke: #FFFFFF; stroke-width: 1.0;" width="102" x="291.5" y="729.6094"/><line style="stroke: #A80036; stroke-width: 1.5;" x1="288.5" x2="396.5" y1="726.6094" y2="726.6094"/><text fill="#000000" font-family="sans-serif" font-size="14" lengthAdjust="spacingAndGlyphs" textLength="28" x="328.5" y="718.5332">data</text><rect fill="#D3D3D3" filter="url(#fi95b26h0jw0a)" height="50" rx="12.5" ry="12.5" style="stroke: #A80036; stroke-width: 1.5;" width="64" x="299.5" y="807.6094"/><line style="stroke: #A80036; stroke-width: 1.5;" x1="299.5" x2="363.5" y1="835.2188" y2="835.2188"/><text fill="#000000" font-family="sans-serif" font-size="14" lengthAdjust="spacingAndGlyphs" textLength="44" x="309.5" y="827.1426">govern</text><rect fill="#D3D3D3" filter="url(#fi95b26h0jw0a)" height="50" rx="12.5" ry="12.5" style="stroke: #A80036; stroke-width: 1.5;" width="63" x="300" y="739.6094"/><line style="stroke: #A80036; stroke-width: 1.5;" x1="300" x2="363" y1="767.2188" y2="767.2188"/><text fill="#000000" font-family="sans-serif" font-size="14" lengthAdjust="spacingAndGlyphs" textLength="43" x="310" y="759.1426">source</text><rect fill="#D3D3D3" filter="url(#fi95b26h0jw0a)" height="445.6094" rx="12.5" ry="12.5" style="stroke: #A80036; stroke-width: 1.5;" width="111" x="287" y="908"/><rect fill="#FFFFFF" height="412" rx="12.5" ry="12.5" style="stroke: #FFFFFF; stroke-width: 1.0;" width="105" x="290" y="938.6094"/><line style="stroke: #A80036; stroke-width: 1.5;" x1="287" x2="398" y1="935.6094" y2="935.6094"/><text fill="#000000" font-family="sans-serif" font-size="14" lengthAdjust="spacingAndGlyphs" textLength="68" x="308.5" y="927.5332">datacenter</text><rect fill="#D3D3D3" filter="url(#fi95b26h0jw0a)" height="50" rx="12.5" ry="12.5" style="stroke: #A80036; stroke-width: 1.5;" width="60" x="301.5" y="1288.6094"/><line style="stroke: #A80036; stroke-width: 1.5;" x1="301.5" x2="361.5" y1="1316.2188" y2="1316.2188"/><text fill="#000000" font-family="sans-serif" font-size="14" lengthAdjust="spacingAndGlyphs" textLength="40" x="311.5" y="1308.1426">create</text><rect fill="#D3D3D3" filter="url(#fi95b26h0jw0a)" height="50" rx="12.5" ry="12.5" style="stroke: #A80036; stroke-width: 1.5;" width="65" x="299" y="1220.6094"/><line style="stroke: #A80036; stroke-width: 1.5;" x1="299" x2="364" y1="1248.2188" y2="1248.2188"/><text fill="#000000" font-family="sans-serif" font-size="14" lengthAdjust="spacingAndGlyphs" textLength="45" x="309" y="1240.1426">disable</text><rect fill="#D3D3D3" filter="url(#fi95b26h0jw0a)" height="50" rx="12.5" ry="12.5" style="stroke: #A80036; stroke-width: 1.5;" width="63" x="300" y="1152.6094"/><line style="stroke: #A80036; stroke-width: 1.5;" x1="300" x2="363" y1="1180.2188" y2="1180.2188"/><text fill="#000000" font-family="sans-serif" font-size="14" lengthAdjust="spacingAndGlyphs" textLength="43" x="310" y="1172.1426">enable</text><rect fill="#D3D3D3" filter="url(#fi95b26h0jw0a)" height="50" rx="12.5" ry="12.5" style="stroke: #A80036; stroke-width: 1.5;" width="50" x="306.5" y="1084.6094"/><line style="stroke: #A80036; stroke-width: 1.5;" x1="306.5" x2="356.5" y1="1112.2188" y2="1112.2188"/><text fill="#000000" font-family="sans-serif" font-size="14" lengthAdjust="spacingAndGlyphs" textLength="17" x="323" y="1104.1426">list</text><rect fill="#D3D3D3" filter="url(#fi95b26h0jw0a)" height="50" rx="12.5" ry="12.5" style="stroke: #A80036; stroke-width: 1.5;" width="67" x="298" y="1016.6094"/><line style="stroke: #A80036; stroke-width: 1.5;" x1="298" x2="365" y1="1044.2188" y2="1044.2188"/><text fill="#000000" font-family="sans-serif" font-size="14" lengthAdjust="spacingAndGlyphs" textLength="47" x="308" y="1036.1426">remove</text><rect fill="#D3D3D3" filter="url(#fi95b26h0jw0a)" height="50" rx="12.5" ry="12.5" style="stroke: #A80036; stroke-width: 1.5;" width="64" x="299.5" y="948.6094"/><line style="stroke: #A80036; stroke-width: 1.5;" x1="299.5" x2="363.5" y1="976.2188" y2="976.2188"/><text fill="#000000" font-family="sans-serif" font-size="14" lengthAdjust="spacingAndGlyphs" textLength="44" x="309.5" y="968.1426">update</text><rect fill="#D3D3D3" filter="url(#fi95b26h0jw0a)" height="50" rx="12.5" ry="12.5" style="stroke: #A80036; stroke-width: 1.5;" width="65" x="310" y="104"/><line style="stroke: #A80036; stroke-width: 1.5;" x1="310" x2="375" y1="131.6094" y2="131.6094"/><text fill="#000000" font-family="sans-serif" font-size="14" lengthAdjust="spacingAndGlyphs" textLength="45" x="320" y="123.5332">disable</text><rect fill="#D3D3D3" filter="url(#fi95b26h0jw0a)" height="50" rx="12.5" ry="12.5" style="stroke: #A80036; stroke-width: 1.5;" width="63" x="311" y="189"/><line style="stroke: #A80036; stroke-width: 1.5;" x1="311" x2="374" y1="216.6094" y2="216.6094"/><text fill="#000000" font-family="sans-serif" font-size="14" lengthAdjust="spacingAndGlyphs" textLength="43" x="321" y="208.5332">enable</text><rect fill="#D3D3D3" filter="url(#fi95b26h0jw0a)" height="50" rx="12.5" ry="12.5" style="stroke: #A80036; stroke-width: 1.5;" width="50" x="317.5" y="274"/><line style="stroke: #A80036; stroke-width: 1.5;" x1="317.5" x2="367.5" y1="301.6094" y2="301.6094"/><text fill="#000000" font-family="sans-serif" font-size="14" lengthAdjust="spacingAndGlyphs" textLength="30" x="327.5" y="293.5332">stats</text><rect fill="#FFFFE0" filter="url(#fi95b26h0jw0a)" height="50" rx="12.5" ry="12.5" style="stroke: #A80036; stroke-width: 1.5;" width="68" x="76" y="381"/><line style="stroke: #A80036; stroke-width: 1.5;" x1="76" x2="144" y1="408.6094" y2="408.6094"/><text fill="#000000" font-family="sans-serif" font-size="14" lengthAdjust="spacingAndGlyphs" textLength="48" x="86" y="400.5332">needed</text><rect fill="#FFFFE0" filter="url(#fi95b26h0jw0a)" height="50" rx="12.5" ry="12.5" style="stroke: #A80036; stroke-width: 1.5;" width="71" x="74.5" y="507"/><line style="stroke: #A80036; stroke-width: 1.5;" x1="74.5" x2="145.5" y1="534.6094" y2="534.6094"/><text fill="#000000" font-family="sans-serif" font-size="14" lengthAdjust="spacingAndGlyphs" textLength="51" x="84.5" y="526.5332">rejected</text><rect fill="#FFFFE0" filter="url(#fi95b26h0jw0a)" height="50" rx="12.5" ry="12.5" style="stroke: #A80036; stroke-width: 1.5;" width="96" x="62" y="633"/><line style="stroke: #A80036; stroke-width: 1.5;" x1="62" x2="158" y1="660.6094" y2="660.6094"/><text fill="#000000" font-family="sans-serif" font-size="14" lengthAdjust="spacingAndGlyphs" textLength="76" x="72" y="652.5332">provisioning</text><rect fill="#E6E6FA" filter="url(#fi95b26h0jw0a)" height="50" rx="12.5" ry="12.5" style="stroke: #A80036; stroke-width: 1.5;" width="58" x="527" y="218"/><line style="stroke: #A80036; stroke-width: 1.5;" x1="527" x2="585" y1="245.6094" y2="245.6094"/><text fill="#000000" font-family="sans-serif" font-size="14" lengthAdjust="spacingAndGlyphs" textLength="38" x="537" y="237.5332">report</text><rect fill="#E6E6FA" filter="url(#fi95b26h0jw0a)" height="50" rx="12.5" ry="12.5" style="stroke: #A80036; stroke-width: 1.5;" width="58" x="527" y="344"/><line style="stroke: #A80036; stroke-width: 1.5;" x1="527" x2="585" y1="371.6094" y2="371.6094"/><text fill="#000000" font-family="sans-serif" font-size="14" lengthAdjust="spacingAndGlyphs" textLength="38" x="537" y="363.5332">report</text><!--link sdirequestneeded to cplfunction--><path d="M142.245,431.164 C170.719,453.511 214.404,486.351 255,511 C263.747,516.311 273.238,521.533 282.621,526.406 " fill="none" id="sdirequestneeded-cplfunction" style="stroke: #A80036; stroke-width: 1.0;"/><polygon fill="#A80036" points="287.216,528.77,281.0419,521.0967,282.7696,526.4832,277.383,528.2109,287.216,528.77" style="stroke: #A80036; stroke-width: 1.0;"/><!--link sdirequestneeded to cplreserve--><path d="M144.025,402.848 C186.097,398.832 258.673,391.905 303.149,387.66 " fill="none" id="sdirequestneeded-cplreserve" style="stroke: #A80036; stroke-width: 1.0;"/><polygon fill="#A80036" points="308.162,387.182,298.8236,384.0525,303.1845,387.6556,299.5814,392.0166,308.162,387.182" style="stroke: #A80036; stroke-width: 1.0;"/><!--link sdireservationrejected to cplfunction--><path d="M145.508,535.294 C179.3,538.519 231.701,543.52 273.821,547.54 " fill="none" id="sdireservationrejected-cplfunction" style="stroke: #A80036; stroke-width: 1.0;"/><polygon fill="#A80036" points="278.905,548.026,270.3263,543.1881,273.9277,547.5504,269.5653,551.1518,278.905,548.026" style="stroke: #A80036; stroke-width: 1.0;"/><!--link sdiresourceprovisioning to cplprovision--><path d="M158.201,654.109 C199.42,650.712 258.731,645.823 298.618,642.535 " fill="none" id="sdiresourceprovisioning-cplprovision" style="stroke: #A80036; stroke-width: 1.0;"/><polygon fill="#A80036" points="303.87,642.102,294.5723,638.8535,298.8868,642.512,295.2283,646.8266,303.87,642.102" style="stroke: #A80036; stroke-width: 1.0;"/><!--link cpldevicestats to tareport--><path d="M367.762,292.58 C405.61,282.55 478.795,263.18 521.6,251.84 " fill="none" id="cpldevicestats-tareport" style="stroke: #A80036; stroke-width: 1.0;"/><polygon fill="#A80036" points="526.665,250.5,516.9405,248.9397,521.8319,251.7812,518.9904,256.6726,526.665,250.5" style="stroke: #A80036; stroke-width: 1.0;"/><!--link cpldevicestats to tcreport--><path d="M367.762,307.03 C405.687,319.58 479.092,343.88 521.86,358.03 " fill="none" id="cpldevicestats-tcreport" style="stroke: #A80036; stroke-width: 1.0;"/><polygon fill="#A80036" points="526.665,359.62,519.3798,352.9924,521.9187,358.0474,516.8637,360.5864,526.665,359.62" style="stroke: #A80036; stroke-width: 1.0;"/><!--
@startuml
left to right direction


state "cpl" as cpl #lightgray {
}


state cpl #lightgray {
    state "Custom Function" as cplfunction {
    }
}

        state "cpl" as cpl #lightgray {
state "adddevices" as cpladddevices #lightgray {
}
}


        state "cpl" as cpl #lightgray {
state "provision" as cplprovision #lightgray {
}
}


        state "cpl" as cpl #lightgray {
state "reserve" as cplreserve #lightgray {
}
}


        state "cpl" as cpl #lightgray {
state "data" as cpldata #lightgray {
state "govern" as cpldatagovern #lightgray {
}
}
}


        state "cpl" as cpl #lightgray {
state "data" as cpldata #lightgray {
state "source" as cpldatasource #lightgray {
}
}
}


        state "cpl" as cpl #lightgray {
state "datacenter" as cpldatacenter #lightgray {
state "create" as cpldatacentercreate #lightgray {
}
}
}


        state "cpl" as cpl #lightgray {
state "datacenter" as cpldatacenter #lightgray {
state "disable" as cpldatacenterdisable #lightgray {
}
}
}


        state "cpl" as cpl #lightgray {
state "datacenter" as cpldatacenter #lightgray {
state "enable" as cpldatacenterenable #lightgray {
}
}
}


        state "cpl" as cpl #lightgray {
state "datacenter" as cpldatacenter #lightgray {
state "list" as cpldatacenterlist #lightgray {
}
}
}


        state "cpl" as cpl #lightgray {
state "datacenter" as cpldatacenter #lightgray {
state "remove" as cpldatacenterremove #lightgray {
}
}
}


        state "cpl" as cpl #lightgray {
state "datacenter" as cpldatacenter #lightgray {
state "update" as cpldatacenterupdate #lightgray {
}
}
}


        state "cpl" as cpl #lightgray {
state "device" as cpldevice #lightgray {
state "disable" as cpldevicedisable #lightgray {
}
}
}


        state "cpl" as cpl #lightgray {
state "device" as cpldevice #lightgray {
state "enable" as cpldeviceenable #lightgray {
}
}
}




        state "sdi" as sdi #lightyellow {
state "Request" as sdirequest #lightyellow {
state "needed" as sdirequestneeded #lightyellow {
}
}
}

        
    state "cpl" as cpl #lightgray {
state "Function" as cplfunction #lightgray {
}
}

    sdirequestneeded - - -> cplfunction
  
    state "cpl" as cpl #lightgray {
state "reserve" as cplreserve #lightgray {
}
}

    sdirequestneeded - - -> cplreserve
  

        state "sdi" as sdi #lightyellow {
state "Reservation" as sdireservation #lightyellow {
state "rejected" as sdireservationrejected #lightyellow {
}
}
}

        
    
    sdireservationrejected - - -> cplfunction
  

        state "sdi" as sdi #lightyellow {
state "Resource" as sdiresource #lightyellow {
state "provisioning" as sdiresourceprovisioning #lightyellow {
}
}
}

        
    state "cpl" as cpl #lightgray {
state "provision" as cplprovision #lightgray {
}
}

    sdiresourceprovisioning - - -> cplprovision
  


    state "cpl" as cpl #lightgray {
state "Device" as cpldevice #lightgray {
state "stats" as cpldevicestats #lightgray {
}
}
}

    state "ta" as ta #lavender {
state "report" as tareport #lavender {
}
}

        cpldevicestats - - -> tareport
       
    
    state "tc" as tc #lavender {
state "report" as tcreport #lavender {
}
}

        cpldevicestats - - -> tcreport
       
    
    
        
       
    
    
        
       

@enduml

PlantUML version 1.2019.05(Sat Apr 20 09:45:36 PDT 2019)
(GPL source distribution)
Java Runtime: OpenJDK Runtime Environment
JVM: OpenJDK 64-Bit Server VM
Java Version: 12.0.1+12
Operating System: Windows 10
OS Version: 10.0
Default Encoding: Cp1252
Language: en
Country: US
--></g></svg>