<?xml version="1.0" encoding="UTF-8" standalone="no"?><svg xmlns="http://www.w3.org/2000/svg" xmlns:xlink="http://www.w3.org/1999/xlink" contentScriptType="application/ecmascript" contentStyleType="text/css" height="378px" preserveAspectRatio="none" style="width:455px;height:378px;" version="1.1" viewBox="0 0 455 378" width="455px" zoomAndPan="magnify"><defs><filter height="300%" id="f1irjikihvevus" width="300%" x="-1" y="-1"><feGaussianBlur result="blurOut" stdDeviation="2.0"/><feColorMatrix in="blurOut" result="blurOut2" type="matrix" values="0 0 0 0 0 0 0 0 0 0 0 0 0 0 0 0 0 0 .4 0"/><feOffset dx="4.0" dy="4.0" in="blurOut2" result="blurOut3"/><feBlend in="SourceGraphic" in2="blurOut3" mode="normal"/></filter></defs><g><line style="stroke: #A80036; stroke-width: 1.0; stroke-dasharray: 5.0,5.0;" x1="52" x2="52" y1="87.6094" y2="289.7188"/><line style="stroke: #A80036; stroke-width: 1.0; stroke-dasharray: 5.0,5.0;" x1="201" x2="201" y1="87.6094" y2="289.7188"/><line style="stroke: #A80036; stroke-width: 1.0; stroke-dasharray: 5.0,5.0;" x1="314" x2="314" y1="87.6094" y2="289.7188"/><line style="stroke: #A80036; stroke-width: 1.0; stroke-dasharray: 5.0,5.0;" x1="420" x2="420" y1="87.6094" y2="289.7188"/><text fill="#000000" font-family="sans-serif" font-size="14" lengthAdjust="spacingAndGlyphs" textLength="82" x="8" y="84.5332">ITOperations</text><ellipse cx="52" cy="13" fill="#FEFECE" filter="url(#f1irjikihvevus)" rx="8" ry="8" style="stroke: #A80036; stroke-width: 2.0;"/><path d="M52,21 L52,48 M39,29 L65,29 M52,48 L39,63 M52,48 L65,63 " fill="none" filter="url(#f1irjikihvevus)" style="stroke: #A80036; stroke-width: 2.0;"/><text fill="#000000" font-family="sans-serif" font-size="14" lengthAdjust="spacingAndGlyphs" textLength="82" x="8" y="303.252">ITOperations</text><ellipse cx="52" cy="316.3281" fill="#FEFECE" filter="url(#f1irjikihvevus)" rx="8" ry="8" style="stroke: #A80036; stroke-width: 2.0;"/><path d="M52,324.3281 L52,351.3281 M39,332.3281 L65,332.3281 M52,351.3281 L39,366.3281 M52,351.3281 L65,366.3281 " fill="none" filter="url(#f1irjikihvevus)" style="stroke: #A80036; stroke-width: 2.0;"/><rect fill="#FEFECE" filter="url(#f1irjikihvevus)" height="31.6094" style="stroke: #A80036; stroke-width: 1.5;" width="166" x="116" y="51"/><text fill="#000000" font-family="sans-serif" font-size="14" lengthAdjust="spacingAndGlyphs" textLength="152" x="123" y="72.5332">Common Physical Layer</text><rect fill="#FEFECE" filter="url(#f1irjikihvevus)" height="31.6094" style="stroke: #A80036; stroke-width: 1.5;" width="166" x="116" y="288.7188"/><text fill="#000000" font-family="sans-serif" font-size="14" lengthAdjust="spacingAndGlyphs" textLength="152" x="123" y="310.252">Common Physical Layer</text><rect fill="#FEFECE" filter="url(#f1irjikihvevus)" height="31.6094" style="stroke: #A80036; stroke-width: 1.5;" width="33" x="296" y="51"/><text fill="#000000" font-family="sans-serif" font-size="14" lengthAdjust="spacingAndGlyphs" textLength="19" x="303" y="72.5332">bin</text><rect fill="#FEFECE" filter="url(#f1irjikihvevus)" height="31.6094" style="stroke: #A80036; stroke-width: 1.5;" width="33" x="296" y="288.7188"/><text fill="#000000" font-family="sans-serif" font-size="14" lengthAdjust="spacingAndGlyphs" textLength="19" x="303" y="310.252">bin</text><rect fill="#FEFECE" filter="url(#f1irjikihvevus)" height="31.6094" style="stroke: #A80036; stroke-width: 1.5;" width="51" x="393" y="51"/><text fill="#000000" font-family="sans-serif" font-size="14" lengthAdjust="spacingAndGlyphs" textLength="37" x="400" y="72.5332">REST</text><rect fill="#FEFECE" filter="url(#f1irjikihvevus)" height="31.6094" style="stroke: #A80036; stroke-width: 1.5;" width="51" x="393" y="288.7188"/><text fill="#000000" font-family="sans-serif" font-size="14" lengthAdjust="spacingAndGlyphs" textLength="37" x="400" y="310.252">REST</text><polygon fill="#A80036" points="189,115.9609,199,119.9609,189,123.9609,193,119.9609" style="stroke: #A80036; stroke-width: 1.0;"/><line style="stroke: #A80036; stroke-width: 1.0;" x1="52" x2="195" y1="119.9609" y2="119.9609"/><text fill="#000000" font-family="sans-serif" font-size="13" lengthAdjust="spacingAndGlyphs" textLength="119" x="59" y="115.1045">Manage Data Center</text><polygon fill="#A80036" points="302.5,146.3125,312.5,150.3125,302.5,154.3125,306.5,150.3125" style="stroke: #A80036; stroke-width: 1.0;"/><line style="stroke: #A80036; stroke-width: 1.0;" x1="201" x2="308.5" y1="150.3125" y2="150.3125"/><text fill="#000000" font-family="sans-serif" font-size="13" lengthAdjust="spacingAndGlyphs" textLength="82" x="208" y="145.4561">datacenter/list</text><polygon fill="#A80036" points="408.5,176.6641,418.5,180.6641,408.5,184.6641,412.5,180.6641" style="stroke: #A80036; stroke-width: 1.0;"/><line style="stroke: #A80036; stroke-width: 1.0;" x1="314.5" x2="414.5" y1="180.6641" y2="180.6641"/><text fill="#000000" font-family="sans-serif" font-size="13" lengthAdjust="spacingAndGlyphs" textLength="82" x="321.5" y="175.8076">datacenter/list</text><polygon fill="#A80036" points="189,207.0156,199,211.0156,189,215.0156,193,211.0156" style="stroke: #A80036; stroke-width: 1.0;"/><line style="stroke: #A80036; stroke-width: 1.0;" x1="52" x2="195" y1="211.0156" y2="211.0156"/><text fill="#000000" font-family="sans-serif" font-size="13" lengthAdjust="spacingAndGlyphs" textLength="125" x="59" y="206.1592">Manage Infrastructure</text><polygon fill="#A80036" points="302.5,237.3672,312.5,241.3672,302.5,245.3672,306.5,241.3672" style="stroke: #A80036; stroke-width: 1.0;"/><line style="stroke: #A80036; stroke-width: 1.0;" x1="201" x2="308.5" y1="241.3672" y2="241.3672"/><text fill="#000000" font-family="sans-serif" font-size="13" lengthAdjust="spacingAndGlyphs" textLength="66" x="208" y="236.5107">data/govern</text><polygon fill="#A80036" points="408.5,267.7188,418.5,271.7188,408.5,275.7188,412.5,271.7188" style="stroke: #A80036; stroke-width: 1.0;"/><line style="stroke: #A80036; stroke-width: 1.0;" x1="314.5" x2="414.5" y1="271.7188" y2="271.7188"/><text fill="#000000" font-family="sans-serif" font-size="13" lengthAdjust="spacingAndGlyphs" textLength="66" x="321.5" y="266.8623">data/govern</text><!--
@startuml

actor "ITOperations" as itops




itops -> "Common Physical Layer": Manage Data Center
"Common Physical Layer" -> bin: datacenter/list
bin -> REST: datacenter/list

itops -> "Common Physical Layer": Manage Infrastructure
"Common Physical Layer" -> bin: data/govern
bin -> REST: data/govern


@enduml

PlantUML version 1.2019.05(Sat Apr 20 09:45:36 PDT 2019)
(GPL source distribution)
Java Runtime: OpenJDK Runtime Environment
JVM: OpenJDK 64-Bit Server VM
Java Version: 12.0.1+12
Operating System: Windows 10
OS Version: 10.0
Default Encoding: Cp1252
Language: en
Country: US
--></g></svg>