<?xml version="1.0" encoding="UTF-8" standalone="no"?><svg xmlns="http://www.w3.org/2000/svg" xmlns:xlink="http://www.w3.org/1999/xlink" contentScriptType="application/ecmascript" contentStyleType="text/css" height="237px" preserveAspectRatio="none" style="width:548px;height:237px;" version="1.1" viewBox="0 0 548 237" width="548px" zoomAndPan="magnify"><defs><filter height="300%" id="fw84bhky7m8ry" width="300%" x="-1" y="-1"><feGaussianBlur result="blurOut" stdDeviation="2.0"/><feColorMatrix in="blurOut" result="blurOut2" type="matrix" values="0 0 0 0 0 0 0 0 0 0 0 0 0 0 0 0 0 0 .4 0"/><feOffset dx="4.0" dy="4.0" in="blurOut2" result="blurOut3"/><feBlend in="SourceGraphic" in2="blurOut3" mode="normal"/></filter></defs><g><!--entity Stacklet--><rect fill="#ADD8E6" filter="url(#fw84bhky7m8ry)" height="37.6094" style="stroke: #000000; stroke-width: 1.5;" width="70" x="6" y="189"/><text fill="#000000" font-family="sans-serif" font-size="14" lengthAdjust="spacingAndGlyphs" textLength="50" x="16" y="213.5332">Stacklet</text><!--entity StackDefinition--><rect fill="#ADD8E6" filter="url(#fw84bhky7m8ry)" height="37.6094" style="stroke: #000000; stroke-width: 1.5;" width="114" x="111" y="189"/><text fill="#000000" font-family="sans-serif" font-size="14" lengthAdjust="spacingAndGlyphs" textLength="94" x="121" y="213.5332">StackDefinition</text><!--entity ServiceDefinition--><rect fill="#ADD8E6" filter="url(#fw84bhky7m8ry)" height="37.6094" style="stroke: #000000; stroke-width: 1.5;" width="126" x="260" y="189"/><text fill="#000000" font-family="sans-serif" font-size="14" lengthAdjust="spacingAndGlyphs" textLength="106" x="270" y="213.5332">ServiceDefinition</text><!--entity DataReference--><rect fill="#ADD8E6" filter="url(#fw84bhky7m8ry)" height="37.6094" style="stroke: #000000; stroke-width: 1.5;" width="116" x="421" y="189"/><text fill="#000000" font-family="sans-serif" font-size="14" lengthAdjust="spacingAndGlyphs" textLength="96" x="431" y="213.5332">DataReference</text><!--class Model--><rect fill="#FEFECE" filter="url(#fw84bhky7m8ry)" height="103.3438" id="Model" style="stroke: #A80036; stroke-width: 1.5;" width="114" x="188" y="8"/><ellipse cx="203" cy="24" fill="#ADD1B2" rx="11" ry="11" style="stroke: #A80036; stroke-width: 1.0;"/><path d="M205.7656,19.875 Q205.9219,19.6563 206.1094,19.5469 Q206.2969,19.4375 206.5156,19.4375 Q206.8906,19.4375 207.125,19.7031 Q207.3594,19.9531 207.3594,20.5625 L207.3594,22.0156 Q207.3594,22.625 207.125,22.8906 Q206.8906,23.1563 206.5156,23.1563 Q206.1719,23.1563 205.9688,22.9531 Q205.7656,22.7656 205.6563,22.25 Q205.6094,21.8906 205.4219,21.7031 Q205.0938,21.3281 204.4844,21.1094 Q203.875,20.8906 203.25,20.8906 Q202.4844,20.8906 201.8438,21.2188 Q201.2188,21.5469 200.7188,22.2969 Q200.2344,23.0469 200.2344,24.0781 L200.2344,25.1719 Q200.2344,26.4063 201.125,27.2344 Q202.0156,28.0469 203.6094,28.0469 Q204.5469,28.0469 205.2031,27.7969 Q205.5938,27.6406 206.0156,27.2031 Q206.2813,26.9375 206.4219,26.8594 Q206.5781,26.7813 206.7813,26.7813 Q207.1094,26.7813 207.3594,27.0469 Q207.625,27.2969 207.625,27.6406 Q207.625,27.9844 207.2813,28.3906 Q206.7813,28.9688 205.9844,29.2969 Q204.9063,29.75 203.6094,29.75 Q202.0938,29.75 200.8906,29.125 Q199.9063,28.625 199.2188,27.5625 Q198.5313,26.4844 198.5313,25.2031 L198.5313,24.0469 Q198.5313,22.7188 199.1406,21.5781 Q199.7656,20.4219 200.8594,19.8125 Q201.9531,19.1875 203.1875,19.1875 Q203.9219,19.1875 204.5625,19.3594 Q205.2188,19.5156 205.7656,19.875 Z "/><text fill="#000000" font-family="sans-serif" font-size="12" lengthAdjust="spacingAndGlyphs" textLength="82" x="217" y="28.9102">StackTemplate</text><line style="stroke: #A80036; stroke-width: 1.5;" x1="189" x2="301" y1="40" y2="40"/><text fill="#000000" font-family="sans-serif" font-size="11" lengthAdjust="spacingAndGlyphs" textLength="56" x="194" y="55.4189">string name</text><text fill="#000000" font-family="sans-serif" font-size="11" lengthAdjust="spacingAndGlyphs" textLength="66" x="194" y="69.2549">string version</text><text fill="#000000" font-family="sans-serif" font-size="11" lengthAdjust="spacingAndGlyphs" textLength="78" x="194" y="83.0908">json parameters</text><line style="stroke: #A80036; stroke-width: 1.5;" x1="189" x2="301" y1="89.5078" y2="89.5078"/><text fill="#000000" font-family="sans-serif" font-size="11" lengthAdjust="spacingAndGlyphs" textLength="39" x="194" y="104.9268">create()</text><!--link Model to Stacklet--><path d="M176.07,89.899 C148.953,103.279 118.509,120.69 94,141 C81.2651,151.5534 69.4838,165.584 60.2791,177.9946 " fill="none" id="Model-Stacklet" style="stroke: #A80036; stroke-width: 1.0;"/><polygon fill="#A80036" points="52.5966,188.7904,61.0738,183.7767,55.4956,184.7166,54.5557,179.1384,52.5966,188.7904" style="stroke: #A80036; stroke-width: 1.0;"/><line style="stroke: #A80036; stroke-width: 1.0;" x1="55.4956" x2="60.134" y1="184.7166" y2="178.1985"/><polygon fill="#A80036" points="187.861,84.228,180.72,83.2247,177.0474,89.4304,184.1883,90.4338,187.861,84.228" style="stroke: #A80036; stroke-width: 1.0;"/><text fill="#000000" font-family="sans-serif" font-size="13" lengthAdjust="spacingAndGlyphs" textLength="53" x="95" y="155.4951">stacklets</text><text fill="#000000" font-family="sans-serif" font-size="13" lengthAdjust="spacingAndGlyphs" textLength="7" x="48.0762" y="178.0662">n</text><!--link Model to StackDefinition--><path d="M178.88,112.73 C171.638,121.369 165.331,130.8517 161,141 C156.37,151.8497 156.563,164.5766 158.461,175.9442 " fill="none" id="Model-StackDefinition" style="stroke: #A80036; stroke-width: 1.0;"/><polygon fill="#A80036" points="161.413,188.9185,163.3164,179.2553,160.3036,184.0431,155.5158,181.0303,161.413,188.9185" style="stroke: #A80036; stroke-width: 1.0;"/><line style="stroke: #A80036; stroke-width: 1.0;" x1="160.3036" x2="158.5285" y1="184.0431" y2="176.2425"/><polygon fill="#A80036" points="187.75,102.987,180.7531,104.7315,179.6723,111.8611,186.6692,110.1166,187.75,102.987" style="stroke: #A80036; stroke-width: 1.0;"/><text fill="#000000" font-family="sans-serif" font-size="13" lengthAdjust="spacingAndGlyphs" textLength="39" x="162" y="155.4951">stacks</text><text fill="#000000" font-family="sans-serif" font-size="13" lengthAdjust="spacingAndGlyphs" textLength="7" x="151.3239" y="178.2336">n</text><!--link Model to StackDefinition--><path d="M223.211,123.589 C218.165,135.6455 212.379,147.9449 206,159 C202.215,165.5594 197.594,172.1857 192.894,178.3337 " fill="none" id="Model-StackDefinition-1" style="stroke: #A80036; stroke-width: 1.0;"/><polygon fill="#A80036" points="184.515,188.7655,193.2695,184.2534,187.646,184.8672,187.0323,179.2438,184.515,188.7655" style="stroke: #A80036; stroke-width: 1.0;"/><line style="stroke: #A80036; stroke-width: 1.0;" x1="187.646" x2="192.6565" y1="184.8672" y2="178.6301"/><polygon fill="#FFFFFF" points="228.196,111.174,222.2483,115.2514,223.7245,122.3098,229.6722,118.2324,228.196,111.174" style="stroke: #A80036; stroke-width: 1.0;"/><text fill="#000000" font-family="sans-serif" font-size="13" lengthAdjust="spacingAndGlyphs" textLength="36" x="216" y="155.4951">parent</text><text fill="#000000" font-family="sans-serif" font-size="13" lengthAdjust="spacingAndGlyphs" textLength="7" x="181.5008" y="178.0337">1</text><!--link Model to ServiceDefinition--><path d="M278.23,122.913 C288.293,141.8129 298.88,161.6973 307.231,177.3821 " fill="none" id="Model-ServiceDefinition" style="stroke: #A80036; stroke-width: 1.0;"/><polygon fill="#A80036" points="313.396,188.9617,312.6973,179.1377,311.0463,184.5482,305.6357,182.8972,313.396,188.9617" style="stroke: #A80036; stroke-width: 1.0;"/><line style="stroke: #A80036; stroke-width: 1.0;" x1="311.0463" x2="307.2865" y1="184.5482" y2="177.4868"/><polygon fill="#A80036" points="272.062,111.327,271.3511,118.503,277.7016,121.9192,278.4125,114.7432,272.062,111.327" style="stroke: #A80036; stroke-width: 1.0;"/><text fill="#000000" font-family="sans-serif" font-size="13" lengthAdjust="spacingAndGlyphs" textLength="47" x="296" y="155.4951">services</text><text fill="#000000" font-family="sans-serif" font-size="13" lengthAdjust="spacingAndGlyphs" textLength="7" x="302.3829" y="178.29">n</text><!--link Model to DataReference--><path d="M313.513,103.394 C354.141,128.8296 404.245,160.1984 438.612,181.7144 " fill="none" id="Model-DataReference" style="stroke: #A80036; stroke-width: 1.0;"/><polygon fill="#A80036" points="450.07,188.8881,444.5643,180.7218,445.8321,186.2348,440.3191,187.5025,450.07,188.8881" style="stroke: #A80036; stroke-width: 1.0;"/><line style="stroke: #A80036; stroke-width: 1.0;" x1="445.8321" x2="439.0515" y1="186.2348" y2="181.9897"/><polygon fill="#A80036" points="302.243,96.338,305.2059,102.9123,312.414,102.7059,309.4511,96.1316,302.243,96.338" style="stroke: #A80036; stroke-width: 1.0;"/><text fill="#000000" font-family="sans-serif" font-size="13" lengthAdjust="spacingAndGlyphs" textLength="25" x="397" y="155.4951">data</text><text fill="#000000" font-family="sans-serif" font-size="13" lengthAdjust="spacingAndGlyphs" textLength="7" x="433.1383" y="178.1938">n</text><!--
@startuml

class "StackTemplate" as Model {
 string name
 string version
 json parameters

 create()
 
}

rectangle "Stacklet" as Stacklet #lightblue {
}

Model *- -> "n" Stacklet : stacklets


rectangle "StackDefinition" as StackDefinition #lightblue {
}

Model *- -> "n" StackDefinition : stacks


rectangle "StackDefinition" as StackDefinition #lightblue {
}

Model o- -> "1" StackDefinition : parent


rectangle "ServiceDefinition" as ServiceDefinition #lightblue {
}

Model *- -> "n" ServiceDefinition : services


rectangle "DataReference" as DataReference #lightblue {
}

Model *- -> "n" DataReference : data





@enduml

PlantUML version 1.2019.05(Sat Apr 20 09:45:36 PDT 2019)
(GPL source distribution)
Java Runtime: OpenJDK Runtime Environment
JVM: OpenJDK 64-Bit Server VM
Java Version: 12.0.1+12
Operating System: Windows 10
OS Version: 10.0
Default Encoding: Cp1252
Language: en
Country: US
--></g></svg>