<?xml version="1.0" encoding="UTF-8" standalone="no"?><svg xmlns="http://www.w3.org/2000/svg" xmlns:xlink="http://www.w3.org/1999/xlink" contentScriptType="application/ecmascript" contentStyleType="text/css" height="297px" preserveAspectRatio="none" style="width:363px;height:297px;" version="1.1" viewBox="0 0 363 297" width="363px" zoomAndPan="magnify"><defs><filter height="300%" id="f7chuue6tqq71" width="300%" x="-1" y="-1"><feGaussianBlur result="blurOut" stdDeviation="2.0"/><feColorMatrix in="blurOut" result="blurOut2" type="matrix" values="0 0 0 0 0 0 0 0 0 0 0 0 0 0 0 0 0 0 .4 0"/><feOffset dx="4.0" dy="4.0" in="blurOut2" result="blurOut3"/><feBlend in="SourceGraphic" in2="blurOut3" mode="normal"/></filter></defs><g><ellipse cx="174.9182" cy="170.8836" fill="#FEFECE" filter="url(#f7chuue6tqq71)" rx="77.4182" ry="17.8836" style="stroke: #A80036; stroke-width: 1.5;"/><text fill="#000000" font-family="sans-serif" font-size="14" lengthAdjust="spacingAndGlyphs" textLength="120" x="114.9182" y="176.1883">Manage Meta Data</text><!--entity DataScientist--><ellipse cx="175" cy="18" fill="#FEFECE" filter="url(#f7chuue6tqq71)" rx="8" ry="8" style="stroke: #A80036; stroke-width: 2.0;"/><path d="M175,26 L175,53 M162,34 L188,34 M175,53 L162,68 M175,53 L188,68 " fill="none" filter="url(#f7chuue6tqq71)" style="stroke: #A80036; stroke-width: 2.0;"/><text fill="#000000" font-family="sans-serif" font-size="14" lengthAdjust="spacingAndGlyphs" textLength="87" x="131.5" y="89.5332">Data Scientist</text><ellipse cx="80.2325" cy="267.7465" fill="#D3D3D3" filter="url(#f7chuue6tqq71)" rx="74.2325" ry="17.2465" style="stroke: #A80036; stroke-width: 1.5;"/><text fill="#000000" font-family="sans-serif" font-size="14" lengthAdjust="spacingAndGlyphs" textLength="112" x="24.2325" y="273.0512">CaptureMetaData</text><ellipse cx="271.0052" cy="267.701" fill="#D3D3D3" filter="url(#f7chuue6tqq71)" rx="81.5052" ry="18.701" style="stroke: #A80036; stroke-width: 1.5;"/><text fill="#000000" font-family="sans-serif" font-size="14" lengthAdjust="spacingAndGlyphs" textLength="130" x="206.0052" y="273.0057">ManageDataCatalog</text><!--link DataScientist to ManageMetaData--><path d="M175,93.279 C175,111.557 175,132.272 175,147.566 " fill="none" id="DataScientist-ManageMetaData" style="stroke: #A80036; stroke-width: 1.0;"/><polygon fill="#A80036" points="175,152.941,179,143.941,175,147.941,171,143.941,175,152.941" style="stroke: #A80036; stroke-width: 1.0;"/><!--link ManageMetaData to CaptureMetaData--><path d="M158.016,188.8947 C141.642,205.1822 116.879,229.815 99.6597,246.9437 " fill="none" id="ManageMetaData-CaptureMetaData" style="stroke: #A80036; stroke-width: 1.0;"/><polygon fill="#A80036" points="95.8892,250.6945,105.091,247.1835,99.4341,247.1684,99.4492,241.5116,95.8892,250.6945" style="stroke: #A80036; stroke-width: 1.0;"/><!--link ManageMetaData to ManageDataCatalog--><path d="M192.163,188.8947 C208.208,204.6887 232.224,228.3298 249.531,245.3664 " fill="none" id="ManageMetaData-ManageDataCatalog" style="stroke: #A80036; stroke-width: 1.0;"/><polygon fill="#A80036" points="253.336,249.1122,249.7295,239.9474,249.7732,245.6041,244.1165,245.6479,253.336,249.1122" style="stroke: #A80036; stroke-width: 1.0;"/><!--
@startuml


usecase "Manage Meta Data" as ManageMetaData

Actor "Data Scientist" as DataScientist

DataScientist - -> ManageMetaData



usecase "CaptureMetaData" as CaptureMetaData #lightgrey

ManageMetaData - -> CaptureMetaData

usecase "ManageDataCatalog" as ManageDataCatalog #lightgrey

ManageMetaData - -> ManageDataCatalog

@enduml

PlantUML version 1.2019.05(Sat Apr 20 09:45:36 PDT 2019)
(GPL source distribution)
Java Runtime: OpenJDK Runtime Environment
JVM: OpenJDK 64-Bit Server VM
Java Version: 12.0.1+12
Operating System: Windows 10
OS Version: 10.0
Default Encoding: Cp1252
Language: en
Country: US
--></g></svg>