<?xml version="1.0" encoding="UTF-8" standalone="no"?><svg xmlns="http://www.w3.org/2000/svg" xmlns:xlink="http://www.w3.org/1999/xlink" contentScriptType="application/ecmascript" contentStyleType="text/css" height="570px" preserveAspectRatio="none" style="width:1611px;height:570px;" version="1.1" viewBox="0 0 1611 570" width="1611px" zoomAndPan="magnify"><defs><filter height="300%" id="fwrm6opqcx3oo" width="300%" x="-1" y="-1"><feGaussianBlur result="blurOut" stdDeviation="2.0"/><feColorMatrix in="blurOut" result="blurOut2" type="matrix" values="0 0 0 0 0 0 0 0 0 0 0 0 0 0 0 0 0 0 .4 0"/><feOffset dx="4.0" dy="4.0" in="blurOut2" result="blurOut3"/><feBlend in="SourceGraphic" in2="blurOut3" mode="normal"/></filter></defs><g><rect fill="#FFCC88" height="555.4375" style="stroke: #A80036; stroke-width: 1.0;" width="180" x="143.5" y="4"/><text fill="#000000" font-family="sans-serif" font-size="13" font-weight="bold" lengthAdjust="spacingAndGlyphs" textLength="170" x="146.5" y="17.4951">Data Definition Framework</text><rect fill="#FFCC88" height="555.4375" style="stroke: #A80036; stroke-width: 1.0;" width="393" x="674.5" y="4"/><text fill="#000000" font-family="sans-serif" font-size="13" font-weight="bold" lengthAdjust="spacingAndGlyphs" textLength="170" x="784" y="17.4951">Data Definition Framework</text><rect fill="#FFCC88" height="555.4375" style="stroke: #A80036; stroke-width: 1.0;" width="162" x="1438.5" y="4"/><text fill="#000000" font-family="sans-serif" font-size="13" font-weight="bold" lengthAdjust="spacingAndGlyphs" textLength="156" x="1441.5" y="17.4951">Data Management Layer</text><line style="stroke: #A80036; stroke-width: 1.0; stroke-dasharray: 5.0,5.0;" x1="27" x2="27" y1="87.6094" y2="471.8281"/><line style="stroke: #A80036; stroke-width: 1.0; stroke-dasharray: 5.0,5.0;" x1="90" x2="90" y1="87.6094" y2="471.8281"/><line style="stroke: #A80036; stroke-width: 1.0; stroke-dasharray: 5.0,5.0;" x1="233" x2="233" y1="87.6094" y2="471.8281"/><line style="stroke: #A80036; stroke-width: 1.0; stroke-dasharray: 5.0,5.0;" x1="725.5" x2="725.5" y1="87.6094" y2="471.8281"/><line style="stroke: #A80036; stroke-width: 1.0; stroke-dasharray: 5.0,5.0;" x1="818.5" x2="818.5" y1="87.6094" y2="471.8281"/><line style="stroke: #A80036; stroke-width: 1.0; stroke-dasharray: 5.0,5.0;" x1="913.5" x2="913.5" y1="87.6094" y2="471.8281"/><line style="stroke: #A80036; stroke-width: 1.0; stroke-dasharray: 5.0,5.0;" x1="1018.5" x2="1018.5" y1="87.6094" y2="471.8281"/><line style="stroke: #A80036; stroke-width: 1.0; stroke-dasharray: 5.0,5.0;" x1="1150.5" x2="1150.5" y1="87.6094" y2="471.8281"/><line style="stroke: #A80036; stroke-width: 1.0; stroke-dasharray: 5.0,5.0;" x1="1308.5" x2="1308.5" y1="87.6094" y2="471.8281"/><line style="stroke: #A80036; stroke-width: 1.0; stroke-dasharray: 5.0,5.0;" x1="1410.5" x2="1410.5" y1="87.6094" y2="471.8281"/><line style="stroke: #A80036; stroke-width: 1.0; stroke-dasharray: 5.0,5.0;" x1="1519" x2="1519" y1="87.6094" y2="471.8281"/><text fill="#000000" font-family="sans-serif" font-size="14" lengthAdjust="spacingAndGlyphs" textLength="33" x="8" y="84.5332">Actor</text><ellipse cx="27.5" cy="13" fill="#FEFECE" filter="url(#fwrm6opqcx3oo)" rx="8" ry="8" style="stroke: #A80036; stroke-width: 2.0;"/><path d="M27.5,21 L27.5,48 M14.5,29 L40.5,29 M27.5,48 L14.5,63 M27.5,48 L40.5,63 " fill="none" filter="url(#fwrm6opqcx3oo)" style="stroke: #A80036; stroke-width: 2.0;"/><text fill="#000000" font-family="sans-serif" font-size="14" lengthAdjust="spacingAndGlyphs" textLength="33" x="8" y="485.3613">Actor</text><ellipse cx="27.5" cy="498.4375" fill="#FEFECE" filter="url(#fwrm6opqcx3oo)" rx="8" ry="8" style="stroke: #A80036; stroke-width: 2.0;"/><path d="M27.5,506.4375 L27.5,533.4375 M14.5,514.4375 L40.5,514.4375 M27.5,533.4375 L14.5,548.4375 M27.5,533.4375 L40.5,548.4375 " fill="none" filter="url(#fwrm6opqcx3oo)" style="stroke: #A80036; stroke-width: 2.0;"/><text fill="#000000" font-family="sans-serif" font-size="14" lengthAdjust="spacingAndGlyphs" textLength="60" x="57" y="84.5332">EventBus</text><ellipse cx="90" cy="54" fill="#FEFECE" filter="url(#fwrm6opqcx3oo)" rx="12" ry="12" style="stroke: #A80036; stroke-width: 2.0;"/><line style="stroke: #A80036; stroke-width: 2.0;" x1="78" x2="102" y1="68" y2="68"/><text fill="#000000" font-family="sans-serif" font-size="14" lengthAdjust="spacingAndGlyphs" textLength="60" x="57" y="485.3613">EventBus</text><ellipse cx="90" cy="504.4375" fill="#FEFECE" filter="url(#fwrm6opqcx3oo)" rx="12" ry="12" style="stroke: #A80036; stroke-width: 2.0;"/><line style="stroke: #A80036; stroke-width: 2.0;" x1="78" x2="102" y1="518.4375" y2="518.4375"/><text fill="#000000" font-family="sans-serif" font-size="14" lengthAdjust="spacingAndGlyphs" textLength="20" x="220.5" y="84.5332">ddf</text><path d="M213,42 L213,66 M213,54 L230,54 " fill="none" filter="url(#fwrm6opqcx3oo)" style="stroke: #A80036; stroke-width: 2.0;"/><ellipse cx="242" cy="54" fill="#FFFFFF" filter="url(#fwrm6opqcx3oo)" rx="12" ry="12" style="stroke: #A80036; stroke-width: 2.0;"/><text fill="#000000" font-family="sans-serif" font-size="14" lengthAdjust="spacingAndGlyphs" textLength="20" x="220.5" y="485.3613">ddf</text><path d="M213,492.4375 L213,516.4375 M213,504.4375 L230,504.4375 " fill="none" filter="url(#fwrm6opqcx3oo)" style="stroke: #A80036; stroke-width: 2.0;"/><ellipse cx="242" cy="504.4375" fill="#FFFFFF" filter="url(#fwrm6opqcx3oo)" rx="12" ry="12" style="stroke: #A80036; stroke-width: 2.0;"/><rect fill="#FEFECE" filter="url(#fwrm6opqcx3oo)" height="31.6094" style="stroke: #A80036; stroke-width: 1.5;" width="91" x="678.5" y="51"/><text fill="#000000" font-family="sans-serif" font-size="14" lengthAdjust="spacingAndGlyphs" textLength="77" x="685.5" y="72.5332">dataadaptor</text><rect fill="#FEFECE" filter="url(#fwrm6opqcx3oo)" height="31.6094" style="stroke: #A80036; stroke-width: 1.5;" width="91" x="678.5" y="470.8281"/><text fill="#000000" font-family="sans-serif" font-size="14" lengthAdjust="spacingAndGlyphs" textLength="77" x="685.5" y="492.3613">dataadaptor</text><rect fill="#FEFECE" filter="url(#fwrm6opqcx3oo)" height="31.6094" style="stroke: #A80036; stroke-width: 1.5;" width="66" x="783.5" y="51"/><text fill="#000000" font-family="sans-serif" font-size="14" lengthAdjust="spacingAndGlyphs" textLength="52" x="790.5" y="72.5332">dataflow</text><rect fill="#FEFECE" filter="url(#fwrm6opqcx3oo)" height="31.6094" style="stroke: #A80036; stroke-width: 1.5;" width="66" x="783.5" y="470.8281"/><text fill="#000000" font-family="sans-serif" font-size="14" lengthAdjust="spacingAndGlyphs" textLength="52" x="790.5" y="492.3613">dataflow</text><rect fill="#FEFECE" filter="url(#fwrm6opqcx3oo)" height="31.6094" style="stroke: #A80036; stroke-width: 1.5;" width="97" x="863.5" y="51"/><text fill="#000000" font-family="sans-serif" font-size="14" lengthAdjust="spacingAndGlyphs" textLength="83" x="870.5" y="72.5332">datablueprint</text><rect fill="#FEFECE" filter="url(#fwrm6opqcx3oo)" height="31.6094" style="stroke: #A80036; stroke-width: 1.5;" width="97" x="863.5" y="470.8281"/><text fill="#000000" font-family="sans-serif" font-size="14" lengthAdjust="spacingAndGlyphs" textLength="83" x="870.5" y="492.3613">datablueprint</text><rect fill="#FEFECE" filter="url(#fwrm6opqcx3oo)" height="31.6094" style="stroke: #A80036; stroke-width: 1.5;" width="85" x="974.5" y="51"/><text fill="#000000" font-family="sans-serif" font-size="14" lengthAdjust="spacingAndGlyphs" textLength="71" x="981.5" y="72.5332">datasource</text><rect fill="#FEFECE" filter="url(#fwrm6opqcx3oo)" height="31.6094" style="stroke: #A80036; stroke-width: 1.5;" width="85" x="974.5" y="470.8281"/><text fill="#000000" font-family="sans-serif" font-size="14" lengthAdjust="spacingAndGlyphs" textLength="71" x="981.5" y="492.3613">datasource</text><rect fill="#FEFECE" filter="url(#fwrm6opqcx3oo)" height="31.6094" style="stroke: #A80036; stroke-width: 1.5;" width="150" x="1073.5" y="51"/><text fill="#000000" font-family="sans-serif" font-size="14" lengthAdjust="spacingAndGlyphs" textLength="136" x="1080.5" y="72.5332">diml/ddf/datablueprint</text><rect fill="#FEFECE" filter="url(#fwrm6opqcx3oo)" height="31.6094" style="stroke: #A80036; stroke-width: 1.5;" width="150" x="1073.5" y="470.8281"/><text fill="#000000" font-family="sans-serif" font-size="14" lengthAdjust="spacingAndGlyphs" textLength="136" x="1080.5" y="492.3613">diml/ddf/datablueprint</text><rect fill="#FEFECE" filter="url(#fwrm6opqcx3oo)" height="31.6094" style="stroke: #A80036; stroke-width: 1.5;" width="138" x="1237.5" y="51"/><text fill="#000000" font-family="sans-serif" font-size="14" lengthAdjust="spacingAndGlyphs" textLength="124" x="1244.5" y="72.5332">diml/ddf/datasource</text><rect fill="#FEFECE" filter="url(#fwrm6opqcx3oo)" height="31.6094" style="stroke: #A80036; stroke-width: 1.5;" width="138" x="1237.5" y="470.8281"/><text fill="#000000" font-family="sans-serif" font-size="14" lengthAdjust="spacingAndGlyphs" textLength="124" x="1244.5" y="492.3613">diml/ddf/datasource</text><rect fill="#FEFECE" filter="url(#fwrm6opqcx3oo)" height="31.6094" style="stroke: #A80036; stroke-width: 1.5;" width="39" x="1389.5" y="51"/><text fill="#000000" font-family="sans-serif" font-size="14" lengthAdjust="spacingAndGlyphs" textLength="25" x="1396.5" y="72.5332">diml</text><rect fill="#FEFECE" filter="url(#fwrm6opqcx3oo)" height="31.6094" style="stroke: #A80036; stroke-width: 1.5;" width="39" x="1389.5" y="470.8281"/><text fill="#000000" font-family="sans-serif" font-size="14" lengthAdjust="spacingAndGlyphs" textLength="25" x="1396.5" y="492.3613">diml</text><text fill="#000000" font-family="sans-serif" font-size="14" lengthAdjust="spacingAndGlyphs" textLength="22" x="1505.5" y="84.5332">dml</text><path d="M1499,42 L1499,66 M1499,54 L1516,54 " fill="none" filter="url(#fwrm6opqcx3oo)" style="stroke: #A80036; stroke-width: 2.0;"/><ellipse cx="1528" cy="54" fill="#FFFFFF" filter="url(#fwrm6opqcx3oo)" rx="12" ry="12" style="stroke: #A80036; stroke-width: 2.0;"/><text fill="#000000" font-family="sans-serif" font-size="14" lengthAdjust="spacingAndGlyphs" textLength="22" x="1505.5" y="485.3613">dml</text><path d="M1499,492.4375 L1499,516.4375 M1499,504.4375 L1516,504.4375 " fill="none" filter="url(#fwrm6opqcx3oo)" style="stroke: #A80036; stroke-width: 2.0;"/><ellipse cx="1528" cy="504.4375" fill="#FFFFFF" filter="url(#fwrm6opqcx3oo)" rx="12" ry="12" style="stroke: #A80036; stroke-width: 2.0;"/><polygon fill="#A80036" points="221.5,115.9609,231.5,119.9609,221.5,123.9609,225.5,119.9609" style="stroke: #A80036; stroke-width: 1.0;"/><line style="stroke: #A80036; stroke-width: 1.0;" x1="27.5" x2="227.5" y1="119.9609" y2="119.9609"/><text fill="#000000" font-family="sans-serif" font-size="13" lengthAdjust="spacingAndGlyphs" textLength="109" x="34.5" y="115.1045">Capture Meta Data</text><polygon fill="#A80036" points="714,146.3125,724,150.3125,714,154.3125,718,150.3125" style="stroke: #A80036; stroke-width: 1.0;"/><line style="stroke: #A80036; stroke-width: 1.0;" x1="233.5" x2="720" y1="150.3125" y2="150.3125"/><text fill="#000000" font-family="sans-serif" font-size="13" lengthAdjust="spacingAndGlyphs" textLength="407" x="240.5" y="145.4561">create (name: filesystem,file: ./templates/dataadaptor-filesystem.yaml)</text><polygon fill="#A80036" points="806.5,176.6641,816.5,180.6641,806.5,184.6641,810.5,180.6641" style="stroke: #A80036; stroke-width: 1.0;"/><line style="stroke: #A80036; stroke-width: 1.0;" x1="233.5" x2="812.5" y1="180.6641" y2="180.6641"/><text fill="#000000" font-family="sans-serif" font-size="13" lengthAdjust="spacingAndGlyphs" textLength="448" x="240.5" y="175.8076">create (name: filesystembasic,file: ./templates/dataflow-filesystembasic.yaml)</text><polygon fill="#A80036" points="902,207.0156,912,211.0156,902,215.0156,906,211.0156" style="stroke: #A80036; stroke-width: 1.0;"/><line style="stroke: #A80036; stroke-width: 1.0;" x1="233.5" x2="908" y1="211.0156" y2="211.0156"/><text fill="#000000" font-family="sans-serif" font-size="13" lengthAdjust="spacingAndGlyphs" textLength="473" x="240.5" y="206.1592">create (name: filesystemBluePrint1,file: ./templates/datablueprint-filesystem.yaml)</text><polygon fill="#A80036" points="1007,237.3672,1017,241.3672,1007,245.3672,1011,241.3672" style="stroke: #A80036; stroke-width: 1.0;"/><line style="stroke: #A80036; stroke-width: 1.0;" x1="233.5" x2="1013" y1="241.3672" y2="241.3672"/><text fill="#000000" font-family="sans-serif" font-size="13" lengthAdjust="spacingAndGlyphs" textLength="372" x="240.5" y="236.5107">create (name: myFileSystem1,file: ./templates/datasource.yaml)</text><polygon fill="#A80036" points="1007,267.7188,1017,271.7188,1007,275.7188,1011,271.7188" style="stroke: #A80036; stroke-width: 1.0;"/><line style="stroke: #A80036; stroke-width: 1.0;" x1="233.5" x2="1013" y1="271.7188" y2="271.7188"/><text fill="#000000" font-family="sans-serif" font-size="13" lengthAdjust="spacingAndGlyphs" textLength="372" x="240.5" y="266.8623">create (name: myFileSystem2,file: ./templates/datasource.yaml)</text><polygon fill="#A80036" points="1138.5,298.0703,1148.5,302.0703,1138.5,306.0703,1142.5,302.0703" style="stroke: #A80036; stroke-width: 1.0;"/><line style="stroke: #A80036; stroke-width: 1.0;" x1="233.5" x2="1144.5" y1="302.0703" y2="302.0703"/><text fill="#000000" font-family="sans-serif" font-size="13" lengthAdjust="spacingAndGlyphs" textLength="529" x="240.5" y="297.2139">deploy (name: myBP1,blueprint: filesystemBluePrint1,sources: mySource=myFileSystem1)</text><polygon fill="#A80036" points="1296.5,328.4219,1306.5,332.4219,1296.5,336.4219,1300.5,332.4219" style="stroke: #A80036; stroke-width: 1.0;"/><line style="stroke: #A80036; stroke-width: 1.0;" x1="233.5" x2="1302.5" y1="332.4219" y2="332.4219"/><text fill="#000000" font-family="sans-serif" font-size="13" lengthAdjust="spacingAndGlyphs" textLength="448" x="240.5" y="327.5654">simulate (name: myFileSystem1,file: ./templates/datasource-simulation.yaml)</text><polygon fill="#A80036" points="1399,358.7734,1409,362.7734,1399,366.7734,1403,362.7734" style="stroke: #A80036; stroke-width: 1.0;"/><line style="stroke: #A80036; stroke-width: 1.0;" x1="233.5" x2="1405" y1="362.7734" y2="362.7734"/><text fill="#000000" font-family="sans-serif" font-size="13" lengthAdjust="spacingAndGlyphs" textLength="146" x="240.5" y="357.917">find (query: owner:darren)</text><polygon fill="#A80036" points="1507.5,389.125,1517.5,393.125,1507.5,393.125" style="stroke: #A80036; stroke-width: 1.0;"/><line style="stroke: #A80036; stroke-width: 1.0;" x1="90" x2="1518.5" y1="393.125" y2="393.125"/><text fill="#000000" font-family="sans-serif" font-size="13" lengthAdjust="spacingAndGlyphs" textLength="51" x="97" y="388.2686">method()</text><polygon fill="#A80036" points="101,424.4766,91,424.4766,101,428.4766" style="stroke: #A80036; stroke-width: 1.0;"/><line style="stroke: #A80036; stroke-width: 1.0; stroke-dasharray: 2.0,2.0;" x1="90" x2="1518.5" y1="423.4766" y2="423.4766"/><text fill="#000000" font-family="sans-serif" font-size="13" lengthAdjust="spacingAndGlyphs" textLength="78" x="107" y="418.6201">Model.Event2</text><polygon fill="#A80036" points="221.5,454.8281,231.5,454.8281,221.5,458.8281" style="stroke: #A80036; stroke-width: 1.0;"/><line style="stroke: #A80036; stroke-width: 1.0; stroke-dasharray: 2.0,2.0;" x1="90" x2="232.5" y1="453.8281" y2="453.8281"/><text fill="#000000" font-family="sans-serif" font-size="13" lengthAdjust="spacingAndGlyphs" textLength="58" x="97" y="448.9717">method2()</text><!--
@startuml

actor "Actor"


entity EventBus

box Data Definition Framework #ffcc88
    boundary ddf #white
end box


box Data Definition Framework #ffcc88
            participant dataadaptor
            participant dataflow
            participant datablueprint
            participant datasource
    end box

box Distributed Information Management Layer #ffcc88
    end box


"Actor" -> ddf: Capture Meta Data

    ddf -> "dataadaptor": create (name: filesystem,file: ./templates/dataadaptor-filesystem.yaml)


    ddf -> "dataflow": create (name: filesystembasic,file: ./templates/dataflow-filesystembasic.yaml)


    ddf -> "datablueprint": create (name: filesystemBluePrint1,file: ./templates/datablueprint-filesystem.yaml)


    ddf -> "datasource": create (name: myFileSystem1,file: ./templates/datasource.yaml)


    ddf -> "datasource": create (name: myFileSystem2,file: ./templates/datasource.yaml)


    ddf -> "diml/ddf/datablueprint": deploy (name: myBP1,blueprint: filesystemBluePrint1,sources: mySource=myFileSystem1)


    ddf -> "diml/ddf/datasource": simulate (name: myFileSystem1,file: ./templates/datasource-simulation.yaml)


    ddf -> "diml": find (query: owner:darren)




box "Data Management Layer" #ffcc88
    boundary dml #white
end box
EventBus -\ dml: method()
dml - -/ EventBus: Model.Event2

EventBus - -/ ddf : method2()
@enduml

PlantUML version 1.2019.05(Sat Apr 20 09:45:36 PDT 2019)
(GPL source distribution)
Java Runtime: OpenJDK Runtime Environment
JVM: OpenJDK 64-Bit Server VM
Java Version: 12.0.1+12
Operating System: Windows 10
OS Version: 10.0
Default Encoding: Cp1252
Language: en
Country: US
--></g></svg>