<?xml version="1.0" encoding="UTF-8" standalone="no"?><svg xmlns="http://www.w3.org/2000/svg" xmlns:xlink="http://www.w3.org/1999/xlink" contentScriptType="application/ecmascript" contentStyleType="text/css" height="685px" preserveAspectRatio="none" style="width:673px;height:685px;" version="1.1" viewBox="0 0 673 685" width="673px" zoomAndPan="magnify"><defs><filter height="300%" id="f1ximqnoptbfd4" width="300%" x="-1" y="-1"><feGaussianBlur result="blurOut" stdDeviation="2.0"/><feColorMatrix in="blurOut" result="blurOut2" type="matrix" values="0 0 0 0 0 0 0 0 0 0 0 0 0 0 0 0 0 0 .4 0"/><feOffset dx="4.0" dy="4.0" in="blurOut2" result="blurOut3"/><feBlend in="SourceGraphic" in2="blurOut3" mode="normal"/></filter></defs><g><!--cluster Governance Engine--><polygon fill="#ADD8E6" filter="url(#f1ximqnoptbfd4)" points="45.5,84,191.5,84,198.5,107.6094,651.5,107.6094,651.5,673,45.5,673,45.5,84" style="stroke: #000000; stroke-width: 1.5;"/><line style="stroke: #000000; stroke-width: 1.5;" x1="45.5" x2="198.5" y1="107.6094" y2="107.6094"/><text fill="#000000" font-family="sans-serif" font-size="14" font-weight="bold" lengthAdjust="spacingAndGlyphs" textLength="140" x="49.5" y="100.5332">Governance Engine</text><!--cluster bin--><polygon fill="#FFFFFF" filter="url(#f1ximqnoptbfd4)" points="162.5,128,190.5,128,197.5,151.6094,354.5,151.6094,354.5,218,162.5,218,162.5,128" style="stroke: #000000; stroke-width: 1.5;"/><line style="stroke: #000000; stroke-width: 1.5;" x1="162.5" x2="197.5" y1="151.6094" y2="151.6094"/><text fill="#000000" font-family="sans-serif" font-size="14" font-weight="bold" lengthAdjust="spacingAndGlyphs" textLength="22" x="166.5" y="144.5332">bin</text><!--cluster deploy--><polygon fill="#FFFFFF" filter="url(#f1ximqnoptbfd4)" points="69.5,324,122.5,324,129.5,347.6094,627.5,347.6094,627.5,431,69.5,431,69.5,324" style="stroke: #000000; stroke-width: 1.5;"/><line style="stroke: #000000; stroke-width: 1.5;" x1="69.5" x2="129.5" y1="347.6094" y2="347.6094"/><text fill="#000000" font-family="sans-serif" font-size="14" font-weight="bold" lengthAdjust="spacingAndGlyphs" textLength="47" x="73.5" y="340.5332">deploy</text><!--cluster images--><polygon fill="#FFFFFF" filter="url(#f1ximqnoptbfd4)" points="135.5,455,191.5,455,198.5,478.6094,613.5,478.6094,613.5,649,135.5,649,135.5,455" style="stroke: #000000; stroke-width: 1.5;"/><line style="stroke: #000000; stroke-width: 1.5;" x1="135.5" x2="198.5" y1="478.6094" y2="478.6094"/><text fill="#000000" font-family="sans-serif" font-size="14" font-weight="bold" lengthAdjust="spacingAndGlyphs" textLength="50" x="139.5" y="471.5332">images</text><!--entity REST--><rect fill="#FEFECE" filter="url(#f1ximqnoptbfd4)" height="37.6094" style="stroke: #A80036; stroke-width: 1.5;" width="69" x="224" y="262"/><rect fill="#FEFECE" height="5" style="stroke: #A80036; stroke-width: 1.5;" width="10" x="219" y="267"/><rect fill="#FEFECE" height="5" style="stroke: #A80036; stroke-width: 1.5;" width="10" x="219" y="289.6094"/><text fill="#000000" font-family="sans-serif" font-size="14" lengthAdjust="spacingAndGlyphs" textLength="49" x="234" y="286.5332">express</text><!--entity socket--><rect fill="#FEFECE" filter="url(#f1ximqnoptbfd4)" height="37.6094" style="stroke: #A80036; stroke-width: 1.5;" width="76" x="409.5" y="164"/><rect fill="#FEFECE" height="5" style="stroke: #A80036; stroke-width: 1.5;" width="10" x="404.5" y="169"/><rect fill="#FEFECE" height="5" style="stroke: #A80036; stroke-width: 1.5;" width="10" x="404.5" y="191.6094"/><text fill="#000000" font-family="sans-serif" font-size="14" lengthAdjust="spacingAndGlyphs" textLength="56" x="419.5" y="188.5332">socket.io</text><!--entity binName--><rect fill="#FEFECE" filter="url(#f1ximqnoptbfd4)" height="37.6094" style="stroke: #A80036; stroke-width: 1.5;" width="159" x="179" y="164"/><rect fill="#FEFECE" height="5" style="stroke: #A80036; stroke-width: 1.5;" width="10" x="174" y="169"/><rect fill="#FEFECE" height="5" style="stroke: #A80036; stroke-width: 1.5;" width="10" x="174" y="191.6094"/><text fill="#000000" font-family="sans-serif" font-size="14" lengthAdjust="spacingAndGlyphs" textLength="139" x="189" y="188.5332">edgemere diml dml ge</text><!--entity diml_dml_ge_container--><polygon fill="#FEFECE" filter="url(#f1ximqnoptbfd4)" points="85.5,360,85.5,415.2188,235.5,415.2188,235.5,370,225.5,360,85.5,360" style="stroke: #000000; stroke-width: 1.5;"/><path d="M225.5,360 L225.5,370 L235.5,370 " fill="#FEFECE" style="stroke: #000000; stroke-width: 1.5;"/><text fill="#000000" font-family="sans-serif" font-size="14" lengthAdjust="spacingAndGlyphs" textLength="90" x="95.5" y="384.5332">node server.js</text><text fill="#000000" font-family="sans-serif" font-size="14" lengthAdjust="spacingAndGlyphs" textLength="130" x="95.5" y="402.1426">docker-compose.yml</text><!--entity web_container--><polygon fill="#FEFECE" filter="url(#f1ximqnoptbfd4)" points="472,368.5,472,406.1094,611,406.1094,611,378.5,601,368.5,472,368.5" style="stroke: #000000; stroke-width: 1.5;"/><path d="M601,368.5 L601,378.5 L611,378.5 " fill="#FEFECE" style="stroke: #000000; stroke-width: 1.5;"/><text fill="#000000" font-family="sans-serif" font-size="14" lengthAdjust="spacingAndGlyphs" textLength="119" x="482" y="393.0332">node web/server.js</text><!--entity gateway_container--><polygon fill="#FEFECE" filter="url(#f1ximqnoptbfd4)" points="270.5,368.5,270.5,406.1094,436.5,406.1094,436.5,378.5,426.5,368.5,270.5,368.5" style="stroke: #000000; stroke-width: 1.5;"/><path d="M426.5,368.5 L426.5,378.5 L436.5,378.5 " fill="#FEFECE" style="stroke: #000000; stroke-width: 1.5;"/><text fill="#000000" font-family="sans-serif" font-size="14" lengthAdjust="spacingAndGlyphs" textLength="146" x="280.5" y="393.0332">node gateway/server.js</text><!--entity diml_dml_geimage--><rect fill="#FEFECE" filter="url(#f1ximqnoptbfd4)" height="33.6094" style="stroke: #000000; stroke-width: 1.5;" width="95" x="156" y="496.5"/><rect fill="#FEFECE" height="33.6094" style="stroke: #000000; stroke-width: 1.5;" width="95" x="152" y="492.5"/><text fill="#000000" font-family="sans-serif" font-size="14" lengthAdjust="spacingAndGlyphs" textLength="79" x="160" y="515.0332">diml_dml_ge</text><!--entity ailtireswarm--><rect fill="#FEFECE" filter="url(#f1ximqnoptbfd4)" height="40.6094" style="stroke: #000000; stroke-width: 1.5;" width="108" x="151.5" y="592"/><polygon fill="#FEFECE" points="242.5,597,242.5,611,254.5,611,254.5,603,248.5,597,242.5,597" style="stroke: #000000; stroke-width: 1.5;"/><line style="stroke: #000000; stroke-width: 1.5;" x1="248.5" x2="248.5" y1="597" y2="603"/><line style="stroke: #000000; stroke-width: 1.5;" x1="254.5" x2="248.5" y1="603" y2="603"/><text fill="#000000" font-family="sans-serif" font-size="14" lengthAdjust="spacingAndGlyphs" textLength="78" x="161.5" y="619.5332">ailtire:swarm</text><!--entity diml_dml_ge_web--><rect fill="#FEFECE" filter="url(#f1ximqnoptbfd4)" height="40.6094" style="stroke: #000000; stroke-width: 1.5;" width="142" x="455.5" y="491"/><polygon fill="#FEFECE" points="580.5,496,580.5,510,592.5,510,592.5,502,586.5,496,580.5,496" style="stroke: #000000; stroke-width: 1.5;"/><line style="stroke: #000000; stroke-width: 1.5;" x1="586.5" x2="586.5" y1="496" y2="502"/><line style="stroke: #000000; stroke-width: 1.5;" x1="592.5" x2="586.5" y1="502" y2="502"/><text fill="#000000" font-family="sans-serif" font-size="14" lengthAdjust="spacingAndGlyphs" textLength="112" x="465.5" y="518.5332">diml_dml_ge_web</text><!--entity diml_dml_ge_gw--><rect fill="#FEFECE" filter="url(#f1ximqnoptbfd4)" height="40.6094" style="stroke: #000000; stroke-width: 1.5;" width="134" x="286.5" y="491"/><polygon fill="#FEFECE" points="403.5,496,403.5,510,415.5,510,415.5,502,409.5,496,403.5,496" style="stroke: #000000; stroke-width: 1.5;"/><line style="stroke: #000000; stroke-width: 1.5;" x1="409.5" x2="409.5" y1="496" y2="502"/><line style="stroke: #000000; stroke-width: 1.5;" x1="415.5" x2="409.5" y1="502" y2="502"/><text fill="#000000" font-family="sans-serif" font-size="14" lengthAdjust="spacingAndGlyphs" textLength="104" x="296.5" y="518.5332">diml_dml_ge_gw</text><!--entity CLI--><ellipse cx="258.5" cy="38" fill="#FEFECE" filter="url(#f1ximqnoptbfd4)" rx="8" ry="8" style="stroke: #A80036; stroke-width: 2.0;"/><text fill="#000000" font-family="sans-serif" font-size="14" lengthAdjust="spacingAndGlyphs" textLength="21" x="248" y="69.5332">CLI</text><!--entity Web--><ellipse cx="20.5" cy="281" fill="#FEFECE" filter="url(#f1ximqnoptbfd4)" rx="8" ry="8" style="stroke: #A80036; stroke-width: 2.0;"/><text fill="#000000" font-family="sans-serif" font-size="14" lengthAdjust="spacingAndGlyphs" textLength="29" x="6" y="312.5332">Web</text><!--entity WebSocket--><ellipse cx="447.5" cy="38" fill="#FEFECE" filter="url(#f1ximqnoptbfd4)" rx="8" ry="8" style="stroke: #A80036; stroke-width: 2.0;"/><text fill="#000000" font-family="sans-serif" font-size="14" lengthAdjust="spacingAndGlyphs" textLength="72" x="411.5" y="69.5332">WebSocket</text><!--link binName to REST--><path d="M258.5,202.057 C258.5,217.513 258.5,239.865 258.5,256.673 " fill="none" id="binName-REST" style="stroke: #A80036; stroke-width: 1.0;"/><polygon fill="#A80036" points="258.5,261.698,262.5,252.698,258.5,256.698,254.5,252.698,258.5,261.698" style="stroke: #A80036; stroke-width: 1.0;"/><!--link REST to diml_dml_ge_container--><path d="M241.43,300.203 C227.052,315.533 206.179,337.791 189.232,355.862 " fill="none" id="REST-diml_dml_ge_container" style="stroke: #A80036; stroke-width: 1.0;"/><polygon fill="#A80036" points="185.459,359.885,194.5331,356.056,188.8791,356.2377,188.6974,350.5838,185.459,359.885" style="stroke: #A80036; stroke-width: 1.0;"/><!--link REST to web_container--><path d="M293.131,282.87 C333.344,285.027 400.88,292.247 453.5,316 C479.377,327.681 504.178,348.754 520.817,364.828 " fill="none" id="REST-web_container" style="stroke: #A80036; stroke-width: 1.0;"/><polygon fill="#A80036" points="524.449,368.384,520.8153,359.23,520.8758,364.8865,515.2193,364.9471,524.449,368.384" style="stroke: #A80036; stroke-width: 1.0;"/><!--link socket to web_container--><path d="M456.008,202.328 C473.205,239.375 512.064,323.087 530.886,363.635 " fill="none" id="socket-web_container" style="stroke: #A80036; stroke-width: 1.0;"/><polygon fill="#A80036" points="533.079,368.36,532.9187,358.5124,530.9742,363.8246,525.662,361.8801,533.079,368.36" style="stroke: #A80036; stroke-width: 1.0;"/><!--link REST to gateway_container--><path d="M275.048,300.203 C291.295,318.074 316.099,345.359 333.456,364.451 " fill="none" id="REST-gateway_container" style="stroke: #A80036; stroke-width: 1.0;"/><polygon fill="#A80036" points="336.823,368.155,333.7298,358.8045,333.4601,364.4549,327.8096,364.1852,336.823,368.155" style="stroke: #A80036; stroke-width: 1.0;"/><!--link socket to gateway_container--><path d="M438.992,202.328 C421.795,239.375 382.936,323.087 364.114,363.635 " fill="none" id="socket-gateway_container" style="stroke: #A80036; stroke-width: 1.0;"/><polygon fill="#A80036" points="361.921,368.36,369.338,361.8801,364.0258,363.8246,362.0813,358.5124,361.921,368.36" style="stroke: #A80036; stroke-width: 1.0;"/><!--link diml_dml_geimage to ailtireswarm--><path d="M203.051,550.896 C203.616,564.862 204.23,580.071 204.702,591.7594 " fill="none" id="diml_dml_geimage-ailtireswarm" style="stroke: #A80036; stroke-width: 1.0;"/><polygon fill="none" points="196.047,550.924,202.234,530.658,210.035,550.359,196.047,550.924" style="stroke: #A80036; stroke-width: 1.0;"/><!--link diml_dml_ge_container to diml_dml_geimage--><path d="M169.498,415.273 C176.786,436.962 186.944,467.186 193.846,487.725 " fill="none" id="diml_dml_ge_container-diml_dml_geimage" style="stroke: #A80036; stroke-width: 1.0;"/><polygon fill="#A80036" points="195.44,492.469,196.3639,482.6636,193.8469,487.7296,188.7808,485.2126,195.44,492.469" style="stroke: #A80036; stroke-width: 1.0;"/><!--link web_container to diml_dml_ge_web--><path d="M539.287,406.502 C536.711,427.453 532.442,462.173 529.552,485.676 " fill="none" id="web_container-diml_dml_ge_web" style="stroke: #A80036; stroke-width: 1.0;"/><polygon fill="#A80036" points="528.921,490.805,533.9891,482.3602,529.531,485.8423,526.0488,481.3842,528.921,490.805" style="stroke: #A80036; stroke-width: 1.0;"/><!--link gateway_container to diml_dml_ge_gw--><path d="M353.5,406.502 C353.5,427.453 353.5,462.173 353.5,485.676 " fill="none" id="gateway_container-diml_dml_ge_gw" style="stroke: #A80036; stroke-width: 1.0;"/><polygon fill="#A80036" points="353.5,490.805,357.5,481.805,353.5,485.805,349.5,481.805,353.5,490.805" style="stroke: #A80036; stroke-width: 1.0;"/><!--link CLI to binName--><path d="M258.5,47.098 C258.5,69.432 258.5,132.318 258.5,163.705 " fill="none" id="CLI-binName" style="stroke: #A80036; stroke-width: 1.0;"/><text fill="#000000" font-family="sans-serif" font-size="13" lengthAdjust="spacingAndGlyphs" textLength="128" x="113.5875" y="44.9195">edgemere diml dml ge</text><!--link Web to REST--><path d="M29.7969,281 C94.4174,281 159.038,281 223.659,281 " fill="none" id="Web-REST" style="stroke: #A80036; stroke-width: 1.0;"/><text fill="#000000" font-family="sans-serif" font-size="13" lengthAdjust="spacingAndGlyphs" textLength="132" x="37.5619" y="277.6882">/edgemere/diml/dml/ge</text><!--link WebSocket to socket--><path d="M447.5,47.098 C447.5,69.432 447.5,132.318 447.5,163.705 " fill="none" id="WebSocket-socket" style="stroke: #A80036; stroke-width: 1.0;"/><text fill="#000000" font-family="sans-serif" font-size="13" lengthAdjust="spacingAndGlyphs" textLength="132" x="298.5875" y="44.9195">.edgemere.diml.dml.ge</text><!--
@startuml
  interface CLI
  interface Web
  interface WebSocket
package "Governance Engine" #lightblue {
  component express as REST
  component socket.io as socket
  folder bin #ffffff {
    component " edgemere diml dml ge" as binName
  }
  binName - -> REST

  folder deploy #ffffff {
      file "node server.js\ndocker-compose.yml" as diml_dml_ge_container
      REST - -> diml_dml_ge_container

  
    file "node web/server.js" as web_container
    REST - -> web_container
    socket - - -> web_container
  
    file "node gateway/server.js" as gateway_container
    REST - -> gateway_container
    socket - - -> gateway_container
  
  }
  folder images #ffffff {
    collections "diml_dml_ge" as diml_dml_geimage
    artifact "ailtire:swarm" as ailtireswarm
    diml_dml_geimage <|- - ailtireswarm
    diml_dml_ge_container - -> diml_dml_geimage

  
      artifact diml_dml_ge_web
      web_container - -> diml_dml_ge_web
    
      artifact diml_dml_ge_gw
      gateway_container - -> diml_dml_ge_gw
    
  }
}
CLI " edgemere diml dml ge" - - binName
Web "/edgemere/diml/dml/ge" - REST
WebSocket ".edgemere.diml.dml.ge" - - socket

@enduml

PlantUML version 1.2019.05(Sat Apr 20 09:45:36 PDT 2019)
(GPL source distribution)
Java Runtime: OpenJDK Runtime Environment
JVM: OpenJDK 64-Bit Server VM
Java Version: 12.0.1+12
Operating System: Windows 10
OS Version: 10.0
Default Encoding: Cp1252
Language: en
Country: US
--></g></svg>