<?xml version="1.0" encoding="UTF-8" standalone="no"?><svg xmlns="http://www.w3.org/2000/svg" xmlns:xlink="http://www.w3.org/1999/xlink" contentScriptType="application/ecmascript" contentStyleType="text/css" height="340px" preserveAspectRatio="none" style="width:249px;height:340px;" version="1.1" viewBox="0 0 249 340" width="249px" zoomAndPan="magnify"><defs><filter height="300%" id="fxa8u4bvwr0lq" width="300%" x="-1" y="-1"><feGaussianBlur result="blurOut" stdDeviation="2.0"/><feColorMatrix in="blurOut" result="blurOut2" type="matrix" values="0 0 0 0 0 0 0 0 0 0 0 0 0 0 0 0 0 0 .4 0"/><feOffset dx="4.0" dy="4.0" in="blurOut2" result="blurOut3"/><feBlend in="SourceGraphic" in2="blurOut3" mode="normal"/></filter></defs><g><!--entity ModelName--><rect fill="#ADD8E6" filter="url(#fxa8u4bvwr0lq)" height="37.6094" style="stroke: #000000; stroke-width: 1.5;" width="94" x="70.5" y="292"/><text fill="#000000" font-family="sans-serif" font-size="14" lengthAdjust="spacingAndGlyphs" textLength="74" x="80.5" y="316.5332">ModelName</text><!--entity Application--><rect fill="#90EE90" filter="url(#fxa8u4bvwr0lq)" height="37.6094" style="stroke: #000000; stroke-width: 1.5;" width="89" x="6" y="8"/><text fill="#000000" font-family="sans-serif" font-size="14" lengthAdjust="spacingAndGlyphs" textLength="69" x="16" y="32.5332">Application</text><!--entity StackInstance--><rect fill="#90EE90" filter="url(#fxa8u4bvwr0lq)" height="37.6094" style="stroke: #000000; stroke-width: 1.5;" width="108" x="130.5" y="8"/><text fill="#000000" font-family="sans-serif" font-size="14" lengthAdjust="spacingAndGlyphs" textLength="88" x="140.5" y="32.5332">StackInstance</text><!--class Model--><rect fill="#FEFECE" filter="url(#fxa8u4bvwr0lq)" height="89.5078" id="Model" style="stroke: #A80036; stroke-width: 1.5;" width="139" x="48" y="124"/><ellipse cx="63" cy="140" fill="#ADD1B2" rx="11" ry="11" style="stroke: #A80036; stroke-width: 1.0;"/><path d="M65.7656,135.875 Q65.9219,135.6563 66.1094,135.5469 Q66.2969,135.4375 66.5156,135.4375 Q66.8906,135.4375 67.125,135.7031 Q67.3594,135.9531 67.3594,136.5625 L67.3594,138.0156 Q67.3594,138.625 67.125,138.8906 Q66.8906,139.1563 66.5156,139.1563 Q66.1719,139.1563 65.9688,138.9531 Q65.7656,138.7656 65.6563,138.25 Q65.6094,137.8906 65.4219,137.7031 Q65.0938,137.3281 64.4844,137.1094 Q63.875,136.8906 63.25,136.8906 Q62.4844,136.8906 61.8438,137.2188 Q61.2188,137.5469 60.7188,138.2969 Q60.2344,139.0469 60.2344,140.0781 L60.2344,141.1719 Q60.2344,142.4063 61.125,143.2344 Q62.0156,144.0469 63.6094,144.0469 Q64.5469,144.0469 65.2031,143.7969 Q65.5938,143.6406 66.0156,143.2031 Q66.2813,142.9375 66.4219,142.8594 Q66.5781,142.7813 66.7813,142.7813 Q67.1094,142.7813 67.3594,143.0469 Q67.625,143.2969 67.625,143.6406 Q67.625,143.9844 67.2813,144.3906 Q66.7813,144.9688 65.9844,145.2969 Q64.9063,145.75 63.6094,145.75 Q62.0938,145.75 60.8906,145.125 Q59.9063,144.625 59.2188,143.5625 Q58.5313,142.4844 58.5313,141.2031 L58.5313,140.0469 Q58.5313,138.7188 59.1406,137.5781 Q59.7656,136.4219 60.8594,135.8125 Q61.9531,135.1875 63.1875,135.1875 Q63.9219,135.1875 64.5625,135.3594 Q65.2188,135.5156 65.7656,135.875 Z "/><text fill="#000000" font-family="sans-serif" font-size="12" lengthAdjust="spacingAndGlyphs" textLength="107" x="77" y="144.9102">ApplicationInstance</text><line style="stroke: #A80036; stroke-width: 1.5;" x1="49" x2="186" y1="156" y2="156"/><text fill="#000000" font-family="sans-serif" font-size="11" lengthAdjust="spacingAndGlyphs" textLength="56" x="54" y="171.4189">string name</text><text fill="#000000" font-family="sans-serif" font-size="11" lengthAdjust="spacingAndGlyphs" textLength="60" x="54" y="185.2549">string status</text><text fill="#000000" font-family="sans-serif" font-size="11" lengthAdjust="spacingAndGlyphs" textLength="74" x="54" y="199.0908">string message</text><line style="stroke: #A80036; stroke-width: 1.5;" x1="49" x2="186" y1="205.5078" y2="205.5078"/><!--link Model to ModelName--><path d="M117.5,227.603 C117.5,245.1082 117.5,263.6816 117.5,278.7545 " fill="none" id="Model-ModelName" style="stroke: #A80036; stroke-width: 1.0;"/><polygon fill="#A80036" points="117.5,291.9841,121.5,282.9841,117.5,286.9841,113.5,282.9841,117.5,291.9841" style="stroke: #A80036; stroke-width: 1.0;"/><line style="stroke: #A80036; stroke-width: 1.0;" x1="117.5" x2="117.5" y1="286.9841" y2="278.9841"/><polygon fill="#FFFFFF" points="117.5,214.297,113.5,220.297,117.5,226.297,121.5,220.297,117.5,214.297" style="stroke: #A80036; stroke-width: 1.0;"/><text fill="#000000" font-family="sans-serif" font-size="13" lengthAdjust="spacingAndGlyphs" textLength="42" x="118.5" y="258.4951">assoc1</text><text fill="#000000" font-family="sans-serif" font-size="13" lengthAdjust="spacingAndGlyphs" textLength="7" x="109.3844" y="280.9862">1</text><!--link Application to Model--><path d="M64.8279,57.939 C72.3664,73.691 81.8574,93.523 90.6992,111.998 " fill="none" id="Application-Model" style="stroke: #A80036; stroke-width: 1.0;"/><polygon fill="#A80036" points="96.3888,123.887,96.1121,114.042,94.2305,119.3768,88.8958,117.4952,96.3888,123.887" style="stroke: #A80036; stroke-width: 1.0;"/><line style="stroke: #A80036; stroke-width: 1.0;" x1="94.2305" x2="90.7769" y1="119.3768" y2="112.161"/><polygon fill="#A80036" points="59.1219,46.016,58.1036,53.1548,64.3017,56.8405,65.32,49.7016,59.1219,46.016" style="stroke: #A80036; stroke-width: 1.0;"/><text fill="#000000" font-family="sans-serif" font-size="13" lengthAdjust="spacingAndGlyphs" textLength="56" x="83.5" y="90.4951">instances</text><text fill="#000000" font-family="sans-serif" font-size="13" lengthAdjust="spacingAndGlyphs" textLength="7" x="85.4664" y="112.9845">n</text><!--link StackInstance to Model--><path d="M170.172,57.939 C162.634,73.691 153.143,93.523 144.301,111.998 " fill="none" id="StackInstance-Model" style="stroke: #A80036; stroke-width: 1.0;"/><polygon fill="#A80036" points="138.611,123.887,146.1042,117.4954,140.7694,119.3768,138.8879,114.042,138.611,123.887" style="stroke: #A80036; stroke-width: 1.0;"/><line style="stroke: #A80036; stroke-width: 1.0;" x1="140.7694" x2="144.223" y1="119.3768" y2="112.161"/><polygon fill="#FFFFFF" points="175.878,46.016,169.6798,49.7015,170.6979,56.8404,176.8961,53.1549,175.878,46.016" style="stroke: #A80036; stroke-width: 1.0;"/><text fill="#000000" font-family="sans-serif" font-size="13" lengthAdjust="spacingAndGlyphs" textLength="21" x="162.5" y="90.4951">app</text><text fill="#000000" font-family="sans-serif" font-size="13" lengthAdjust="spacingAndGlyphs" textLength="7" x="134.4178" y="112.9845">1</text><!--
@startuml

class "ApplicationInstance" as Model {
 string name
 string status
 string message

 
}

rectangle "ModelName" as ModelName #lightblue {
}

Model o- -> "1" ModelName : assoc1




    rectangle "Application" as Application #lightgreen {
    }
    
        Application   *- -> "n" Model : "instances"
    
    rectangle "StackInstance" as StackInstance #lightgreen {
    }
    
        StackInstance   o- -> "1" Model : "app"
    

@enduml

PlantUML version 1.2019.05(Sat Apr 20 09:45:36 PDT 2019)
(GPL source distribution)
Java Runtime: OpenJDK Runtime Environment
JVM: OpenJDK 64-Bit Server VM
Java Version: 12.0.1+12
Operating System: Windows 10
OS Version: 10.0
Default Encoding: Cp1252
Language: en
Country: US
--></g></svg>