<?xml version="1.0" encoding="UTF-8" standalone="no"?><svg xmlns="http://www.w3.org/2000/svg" xmlns:xlink="http://www.w3.org/1999/xlink" contentScriptType="application/ecmascript" contentStyleType="text/css" height="196px" preserveAspectRatio="none" style="width:139px;height:196px;" version="1.1" viewBox="0 0 139 196" width="139px" zoomAndPan="magnify"><defs><filter height="300%" id="fz1eob7docbyc" width="300%" x="-1" y="-1"><feGaussianBlur result="blurOut" stdDeviation="2.0"/><feColorMatrix in="blurOut" result="blurOut2" type="matrix" values="0 0 0 0 0 0 0 0 0 0 0 0 0 0 0 0 0 0 .4 0"/><feOffset dx="4.0" dy="4.0" in="blurOut2" result="blurOut3"/><feBlend in="SourceGraphic" in2="blurOut3" mode="normal"/></filter></defs><g><!--entity DataPipeline--><rect fill="#90EE90" filter="url(#fz1eob7docbyc)" height="37.6094" style="stroke: #000000; stroke-width: 1.5;" width="100" x="18.1635" y="8"/><text fill="#000000" font-family="sans-serif" font-size="14" lengthAdjust="spacingAndGlyphs" textLength="80" x="28.1635" y="32.5332">DataPipeline</text><!--class Model--><rect fill="#FEFECE" filter="url(#fz1eob7docbyc)" height="61.8359" id="Model" style="stroke: #A80036; stroke-width: 1.5;" width="115" x="10.6635" y="124"/><ellipse cx="25.6635" cy="140" fill="#ADD1B2" rx="11" ry="11" style="stroke: #A80036; stroke-width: 1.0;"/><path d="M28.4291,135.875 Q28.5853,135.6563 28.7728,135.5469 Q28.9603,135.4375 29.1791,135.4375 Q29.5541,135.4375 29.7885,135.7031 Q30.0228,135.9531 30.0228,136.5625 L30.0228,138.0156 Q30.0228,138.625 29.7885,138.8906 Q29.5541,139.1563 29.1791,139.1563 Q28.8353,139.1563 28.6322,138.9531 Q28.4291,138.7656 28.3197,138.25 Q28.2728,137.8906 28.0853,137.7031 Q27.7572,137.3281 27.1478,137.1094 Q26.5385,136.8906 25.9135,136.8906 Q25.1478,136.8906 24.5072,137.2188 Q23.8822,137.5469 23.3822,138.2969 Q22.8978,139.0469 22.8978,140.0781 L22.8978,141.1719 Q22.8978,142.4063 23.7885,143.2344 Q24.6791,144.0469 26.2728,144.0469 Q27.2103,144.0469 27.8666,143.7969 Q28.2572,143.6406 28.6791,143.2031 Q28.9447,142.9375 29.0853,142.8594 Q29.2416,142.7813 29.4447,142.7813 Q29.7728,142.7813 30.0228,143.0469 Q30.2885,143.2969 30.2885,143.6406 Q30.2885,143.9844 29.9447,144.3906 Q29.4447,144.9688 28.6478,145.2969 Q27.5697,145.75 26.2728,145.75 Q24.7572,145.75 23.5541,145.125 Q22.5697,144.625 21.8822,143.5625 Q21.1947,142.4844 21.1947,141.2031 L21.1947,140.0469 Q21.1947,138.7188 21.8041,137.5781 Q22.4291,136.4219 23.5228,135.8125 Q24.6166,135.1875 25.851,135.1875 Q26.5853,135.1875 27.226,135.3594 Q27.8822,135.5156 28.4291,135.875 Z "/><text fill="#000000" font-family="sans-serif" font-size="12" lengthAdjust="spacingAndGlyphs" textLength="83" x="39.6635" y="144.9102">DataProcedure</text><line style="stroke: #A80036; stroke-width: 1.5;" x1="11.6635" x2="124.6635" y1="156" y2="156"/><text fill="#000000" font-family="sans-serif" font-size="11" lengthAdjust="spacingAndGlyphs" textLength="56" x="16.6635" y="171.4189">string name</text><line style="stroke: #A80036; stroke-width: 1.5;" x1="11.6635" x2="124.6635" y1="177.8359" y2="177.8359"/><!--link Model to DataPipeline--><path d="M80.8887,110.9214 C82.8663,99.5878 83.7857,87.3555 82.1635,76 C81.3624,70.393 80.0602,64.526 78.5644,58.895 " fill="none" id="Model-DataPipeline" style="stroke: #A80036; stroke-width: 1.0;"/><polygon fill="#A80036" points="74.8673,46.421,73.5898,56.1867,76.2882,51.2149,81.26,53.9133,74.8673,46.421" style="stroke: #A80036; stroke-width: 1.0;"/><line style="stroke: #A80036; stroke-width: 1.0;" x1="76.2882" x2="78.5616" y1="51.2149" y2="58.886"/><polygon fill="#FFFFFF" points="78.17,123.7068,83.3305,118.67,80.666,111.9693,75.5055,117.006,78.17,123.7068" style="stroke: #A80036; stroke-width: 1.0;"/><text fill="#000000" font-family="sans-serif" font-size="13" lengthAdjust="spacingAndGlyphs" textLength="44" x="83.1635" y="90.4951">pipeline</text><text fill="#000000" font-family="sans-serif" font-size="13" lengthAdjust="spacingAndGlyphs" textLength="7" x="68.6883" y="67.0378">1</text><!--link DataPipeline to Model--><path d="M23.7384,54.06 C10.9488,65.126 1.93,78.951 8.1635,94 C11.1249,101.1495 15.3974,107.8913 20.3182,114.0916 " fill="none" id="DataPipeline-Model" style="stroke: #A80036; stroke-width: 1.0;"/><polygon fill="#A80036" points="29.0945,123.9916,26.1173,114.6035,25.7777,120.2501,20.131,119.9104,29.0945,123.9916" style="stroke: #A80036; stroke-width: 1.0;"/><line style="stroke: #A80036; stroke-width: 1.0;" x1="25.7777" x2="20.4708" y1="120.2501" y2="114.2638"/><polygon fill="#A80036" points="34.0634,46.161,26.8676,46.63,24.5329,53.4527,31.7287,52.9837,34.0634,46.161" style="stroke: #A80036; stroke-width: 1.0;"/><text fill="#000000" font-family="sans-serif" font-size="13" lengthAdjust="spacingAndGlyphs" textLength="64" x="9.1635" y="90.4951">procedures</text><text fill="#000000" font-family="sans-serif" font-size="13" lengthAdjust="spacingAndGlyphs" textLength="7" x="12.7825" y="113.01">n</text><!--
@startuml

class "DataProcedure" as Model {
 string name

 
}

rectangle "DataPipeline" as DataPipeline #lightblue {
}

Model o- -> "1" DataPipeline : pipeline




    rectangle "DataPipeline" as DataPipeline #lightgreen {
    }
    
        DataPipeline   *- -> "n" Model : "procedures"
    

@enduml

PlantUML version 1.2019.05(Sat Apr 20 09:45:36 PDT 2019)
(GPL source distribution)
Java Runtime: OpenJDK Runtime Environment
JVM: OpenJDK 64-Bit Server VM
Java Version: 12.0.1+12
Operating System: Windows 10
OS Version: 10.0
Default Encoding: Cp1252
Language: en
Country: US
--></g></svg>