<?xml version="1.0" encoding="UTF-8" standalone="no"?><svg xmlns="http://www.w3.org/2000/svg" xmlns:xlink="http://www.w3.org/1999/xlink" contentScriptType="application/ecmascript" contentStyleType="text/css" height="327px" preserveAspectRatio="none" style="width:522px;height:327px;" version="1.1" viewBox="0 0 522 327" width="522px" zoomAndPan="magnify"><defs><filter height="300%" id="flne1y5y47vua" width="300%" x="-1" y="-1"><feGaussianBlur result="blurOut" stdDeviation="2.0"/><feColorMatrix in="blurOut" result="blurOut2" type="matrix" values="0 0 0 0 0 0 0 0 0 0 0 0 0 0 0 0 0 0 .4 0"/><feOffset dx="4.0" dy="4.0" in="blurOut2" result="blurOut3"/><feBlend in="SourceGraphic" in2="blurOut3" mode="normal"/></filter></defs><g><rect fill="#90EE90" height="312.625" style="stroke: #A80036; stroke-width: 1.0;" width="177" x="196.5" y="4"/><text fill="#000000" font-family="sans-serif" font-size="13" font-weight="bold" lengthAdjust="spacingAndGlyphs" textLength="167" x="199.5" y="17.4951">Environment Management</text><rect fill="#90EE90" height="312.625" style="stroke: #A80036; stroke-width: 1.0;" width="136" x="375.5" y="4"/><text fill="#000000" font-family="sans-serif" font-size="13" font-weight="bold" lengthAdjust="spacingAndGlyphs" textLength="130" x="378.5" y="17.4951">Service Orchestrator</text><line style="stroke: #A80036; stroke-width: 1.0; stroke-dasharray: 5.0,5.0;" x1="54" x2="54" y1="87.6094" y2="229.0156"/><line style="stroke: #A80036; stroke-width: 1.0; stroke-dasharray: 5.0,5.0;" x1="143" x2="143" y1="87.6094" y2="229.0156"/><line style="stroke: #A80036; stroke-width: 1.0; stroke-dasharray: 5.0,5.0;" x1="284.5" x2="284.5" y1="87.6094" y2="229.0156"/><line style="stroke: #A80036; stroke-width: 1.0; stroke-dasharray: 5.0,5.0;" x1="443" x2="443" y1="87.6094" y2="229.0156"/><text fill="#000000" font-family="sans-serif" font-size="14" lengthAdjust="spacingAndGlyphs" textLength="86" x="8" y="84.5332">IT Operations</text><ellipse cx="54" cy="13" fill="#FEFECE" filter="url(#flne1y5y47vua)" rx="8" ry="8" style="stroke: #A80036; stroke-width: 2.0;"/><path d="M54,21 L54,48 M41,29 L67,29 M54,48 L41,63 M54,48 L67,63 " fill="none" filter="url(#flne1y5y47vua)" style="stroke: #A80036; stroke-width: 2.0;"/><text fill="#000000" font-family="sans-serif" font-size="14" lengthAdjust="spacingAndGlyphs" textLength="86" x="8" y="242.5488">IT Operations</text><ellipse cx="54" cy="255.625" fill="#FEFECE" filter="url(#flne1y5y47vua)" rx="8" ry="8" style="stroke: #A80036; stroke-width: 2.0;"/><path d="M54,263.625 L54,290.625 M41,271.625 L67,271.625 M54,290.625 L41,305.625 M54,290.625 L67,305.625 " fill="none" filter="url(#flne1y5y47vua)" style="stroke: #A80036; stroke-width: 2.0;"/><text fill="#000000" font-family="sans-serif" font-size="14" lengthAdjust="spacingAndGlyphs" textLength="60" x="110" y="84.5332">EventBus</text><ellipse cx="143" cy="54" fill="#FEFECE" filter="url(#flne1y5y47vua)" rx="12" ry="12" style="stroke: #A80036; stroke-width: 2.0;"/><line style="stroke: #A80036; stroke-width: 2.0;" x1="131" x2="155" y1="68" y2="68"/><text fill="#000000" font-family="sans-serif" font-size="14" lengthAdjust="spacingAndGlyphs" textLength="60" x="110" y="242.5488">EventBus</text><ellipse cx="143" cy="261.625" fill="#FEFECE" filter="url(#flne1y5y47vua)" rx="12" ry="12" style="stroke: #A80036; stroke-width: 2.0;"/><line style="stroke: #A80036; stroke-width: 2.0;" x1="131" x2="155" y1="275.625" y2="275.625"/><text fill="#000000" font-family="sans-serif" font-size="14" lengthAdjust="spacingAndGlyphs" textLength="19" x="272.5" y="84.5332">em</text><path d="M264.5,42 L264.5,66 M264.5,54 L281.5,54 " fill="none" filter="url(#flne1y5y47vua)" style="stroke: #A80036; stroke-width: 2.0;"/><ellipse cx="293.5" cy="54" fill="#FFFFFF" filter="url(#flne1y5y47vua)" rx="12" ry="12" style="stroke: #A80036; stroke-width: 2.0;"/><text fill="#000000" font-family="sans-serif" font-size="14" lengthAdjust="spacingAndGlyphs" textLength="19" x="272.5" y="242.5488">em</text><path d="M264.5,249.625 L264.5,273.625 M264.5,261.625 L281.5,261.625 " fill="none" filter="url(#flne1y5y47vua)" style="stroke: #A80036; stroke-width: 2.0;"/><ellipse cx="293.5" cy="261.625" fill="#FFFFFF" filter="url(#flne1y5y47vua)" rx="12" ry="12" style="stroke: #A80036; stroke-width: 2.0;"/><text fill="#000000" font-family="sans-serif" font-size="14" lengthAdjust="spacingAndGlyphs" textLength="15" x="433" y="84.5332">so</text><path d="M423,42 L423,66 M423,54 L440,54 " fill="none" filter="url(#flne1y5y47vua)" style="stroke: #A80036; stroke-width: 2.0;"/><ellipse cx="452" cy="54" fill="#FFFFFF" filter="url(#flne1y5y47vua)" rx="12" ry="12" style="stroke: #A80036; stroke-width: 2.0;"/><text fill="#000000" font-family="sans-serif" font-size="14" lengthAdjust="spacingAndGlyphs" textLength="15" x="433" y="242.5488">so</text><path d="M423,249.625 L423,273.625 M423,261.625 L440,261.625 " fill="none" filter="url(#flne1y5y47vua)" style="stroke: #A80036; stroke-width: 2.0;"/><ellipse cx="452" cy="261.625" fill="#FFFFFF" filter="url(#flne1y5y47vua)" rx="12" ry="12" style="stroke: #A80036; stroke-width: 2.0;"/><polygon fill="#A80036" points="273,115.9609,283,119.9609,273,123.9609,277,119.9609" style="stroke: #A80036; stroke-width: 1.0;"/><line style="stroke: #A80036; stroke-width: 1.0;" x1="54" x2="279" y1="119.9609" y2="119.9609"/><text fill="#000000" font-family="sans-serif" font-size="13" lengthAdjust="spacingAndGlyphs" textLength="118" x="61" y="115.1045">Disable Environment</text><polygon fill="#A80036" points="431.5,146.3125,441.5,150.3125,431.5,150.3125" style="stroke: #A80036; stroke-width: 1.0;"/><line style="stroke: #A80036; stroke-width: 1.0;" x1="143" x2="442.5" y1="150.3125" y2="150.3125"/><text fill="#000000" font-family="sans-serif" font-size="13" lengthAdjust="spacingAndGlyphs" textLength="51" x="150" y="145.4561">method()</text><polygon fill="#A80036" points="154,181.6641,144,181.6641,154,185.6641" style="stroke: #A80036; stroke-width: 1.0;"/><line style="stroke: #A80036; stroke-width: 1.0; stroke-dasharray: 2.0,2.0;" x1="143" x2="442.5" y1="180.6641" y2="180.6641"/><text fill="#000000" font-family="sans-serif" font-size="13" lengthAdjust="spacingAndGlyphs" textLength="78" x="160" y="175.8076">Model.Event2</text><polygon fill="#A80036" points="273,212.0156,283,212.0156,273,216.0156" style="stroke: #A80036; stroke-width: 1.0;"/><line style="stroke: #A80036; stroke-width: 1.0; stroke-dasharray: 2.0,2.0;" x1="143" x2="284" y1="211.0156" y2="211.0156"/><text fill="#000000" font-family="sans-serif" font-size="13" lengthAdjust="spacingAndGlyphs" textLength="58" x="150" y="206.1592">method2()</text><!--
@startuml

actor "IT Operations"


entity EventBus

box Environment Management #lightgreen
    boundary em #white
end box



"IT Operations" -> em: Disable Environment



box "Service Orchestrator" #lightgreen
    boundary so #white
end box
EventBus -\ so: method()
so - -/ EventBus: Model.Event2

EventBus - -/ em : method2()
@enduml

PlantUML version 1.2019.05(Sat Apr 20 09:45:36 PDT 2019)
(GPL source distribution)
Java Runtime: OpenJDK Runtime Environment
JVM: OpenJDK 64-Bit Server VM
Java Version: 12.0.1+12
Operating System: Windows 10
OS Version: 10.0
Default Encoding: Cp1252
Language: en
Country: US
--></g></svg>