<?xml version="1.0" encoding="UTF-8" standalone="no"?><svg xmlns="http://www.w3.org/2000/svg" xmlns:xlink="http://www.w3.org/1999/xlink" contentScriptType="application/ecmascript" contentStyleType="text/css" height="327px" preserveAspectRatio="none" style="width:560px;height:327px;" version="1.1" viewBox="0 0 560 327" width="560px" zoomAndPan="magnify"><defs><filter height="300%" id="f1l0axmi9s3kco" width="300%" x="-1" y="-1"><feGaussianBlur result="blurOut" stdDeviation="2.0"/><feColorMatrix in="blurOut" result="blurOut2" type="matrix" values="0 0 0 0 0 0 0 0 0 0 0 0 0 0 0 0 0 0 .4 0"/><feOffset dx="4.0" dy="4.0" in="blurOut2" result="blurOut3"/><feBlend in="SourceGraphic" in2="blurOut3" mode="normal"/></filter></defs><g><rect fill="#90EE90" height="312.625" style="stroke: #A80036; stroke-width: 1.0;" width="177" x="234.5" y="4"/><text fill="#000000" font-family="sans-serif" font-size="13" font-weight="bold" lengthAdjust="spacingAndGlyphs" textLength="167" x="237.5" y="17.4951">Environment Management</text><rect fill="#90EE90" height="312.625" style="stroke: #A80036; stroke-width: 1.0;" width="136" x="413.5" y="4"/><text fill="#000000" font-family="sans-serif" font-size="13" font-weight="bold" lengthAdjust="spacingAndGlyphs" textLength="130" x="416.5" y="17.4951">Service Orchestrator</text><line style="stroke: #A80036; stroke-width: 1.0; stroke-dasharray: 5.0,5.0;" x1="54" x2="54" y1="87.6094" y2="229.0156"/><line style="stroke: #A80036; stroke-width: 1.0; stroke-dasharray: 5.0,5.0;" x1="143" x2="143" y1="87.6094" y2="229.0156"/><line style="stroke: #A80036; stroke-width: 1.0; stroke-dasharray: 5.0,5.0;" x1="322.5" x2="322.5" y1="87.6094" y2="229.0156"/><line style="stroke: #A80036; stroke-width: 1.0; stroke-dasharray: 5.0,5.0;" x1="481" x2="481" y1="87.6094" y2="229.0156"/><text fill="#000000" font-family="sans-serif" font-size="14" lengthAdjust="spacingAndGlyphs" textLength="86" x="8" y="84.5332">IT Operations</text><ellipse cx="54" cy="13" fill="#FEFECE" filter="url(#f1l0axmi9s3kco)" rx="8" ry="8" style="stroke: #A80036; stroke-width: 2.0;"/><path d="M54,21 L54,48 M41,29 L67,29 M54,48 L41,63 M54,48 L67,63 " fill="none" filter="url(#f1l0axmi9s3kco)" style="stroke: #A80036; stroke-width: 2.0;"/><text fill="#000000" font-family="sans-serif" font-size="14" lengthAdjust="spacingAndGlyphs" textLength="86" x="8" y="242.5488">IT Operations</text><ellipse cx="54" cy="255.625" fill="#FEFECE" filter="url(#f1l0axmi9s3kco)" rx="8" ry="8" style="stroke: #A80036; stroke-width: 2.0;"/><path d="M54,263.625 L54,290.625 M41,271.625 L67,271.625 M54,290.625 L41,305.625 M54,290.625 L67,305.625 " fill="none" filter="url(#f1l0axmi9s3kco)" style="stroke: #A80036; stroke-width: 2.0;"/><text fill="#000000" font-family="sans-serif" font-size="14" lengthAdjust="spacingAndGlyphs" textLength="60" x="110" y="84.5332">EventBus</text><ellipse cx="143" cy="54" fill="#FEFECE" filter="url(#f1l0axmi9s3kco)" rx="12" ry="12" style="stroke: #A80036; stroke-width: 2.0;"/><line style="stroke: #A80036; stroke-width: 2.0;" x1="131" x2="155" y1="68" y2="68"/><text fill="#000000" font-family="sans-serif" font-size="14" lengthAdjust="spacingAndGlyphs" textLength="60" x="110" y="242.5488">EventBus</text><ellipse cx="143" cy="261.625" fill="#FEFECE" filter="url(#f1l0axmi9s3kco)" rx="12" ry="12" style="stroke: #A80036; stroke-width: 2.0;"/><line style="stroke: #A80036; stroke-width: 2.0;" x1="131" x2="155" y1="275.625" y2="275.625"/><text fill="#000000" font-family="sans-serif" font-size="14" lengthAdjust="spacingAndGlyphs" textLength="19" x="310.5" y="84.5332">em</text><path d="M302.5,42 L302.5,66 M302.5,54 L319.5,54 " fill="none" filter="url(#f1l0axmi9s3kco)" style="stroke: #A80036; stroke-width: 2.0;"/><ellipse cx="331.5" cy="54" fill="#FFFFFF" filter="url(#f1l0axmi9s3kco)" rx="12" ry="12" style="stroke: #A80036; stroke-width: 2.0;"/><text fill="#000000" font-family="sans-serif" font-size="14" lengthAdjust="spacingAndGlyphs" textLength="19" x="310.5" y="242.5488">em</text><path d="M302.5,249.625 L302.5,273.625 M302.5,261.625 L319.5,261.625 " fill="none" filter="url(#f1l0axmi9s3kco)" style="stroke: #A80036; stroke-width: 2.0;"/><ellipse cx="331.5" cy="261.625" fill="#FFFFFF" filter="url(#f1l0axmi9s3kco)" rx="12" ry="12" style="stroke: #A80036; stroke-width: 2.0;"/><text fill="#000000" font-family="sans-serif" font-size="14" lengthAdjust="spacingAndGlyphs" textLength="15" x="471" y="84.5332">so</text><path d="M461,42 L461,66 M461,54 L478,54 " fill="none" filter="url(#f1l0axmi9s3kco)" style="stroke: #A80036; stroke-width: 2.0;"/><ellipse cx="490" cy="54" fill="#FFFFFF" filter="url(#f1l0axmi9s3kco)" rx="12" ry="12" style="stroke: #A80036; stroke-width: 2.0;"/><text fill="#000000" font-family="sans-serif" font-size="14" lengthAdjust="spacingAndGlyphs" textLength="15" x="471" y="242.5488">so</text><path d="M461,249.625 L461,273.625 M461,261.625 L478,261.625 " fill="none" filter="url(#f1l0axmi9s3kco)" style="stroke: #A80036; stroke-width: 2.0;"/><ellipse cx="490" cy="261.625" fill="#FFFFFF" filter="url(#f1l0axmi9s3kco)" rx="12" ry="12" style="stroke: #A80036; stroke-width: 2.0;"/><polygon fill="#A80036" points="311,115.9609,321,119.9609,311,123.9609,315,119.9609" style="stroke: #A80036; stroke-width: 1.0;"/><line style="stroke: #A80036; stroke-width: 1.0;" x1="54" x2="317" y1="119.9609" y2="119.9609"/><text fill="#000000" font-family="sans-serif" font-size="13" lengthAdjust="spacingAndGlyphs" textLength="185" x="61" y="115.1045">Manage Policies in Environment</text><polygon fill="#A80036" points="469.5,146.3125,479.5,150.3125,469.5,150.3125" style="stroke: #A80036; stroke-width: 1.0;"/><line style="stroke: #A80036; stroke-width: 1.0;" x1="143" x2="480.5" y1="150.3125" y2="150.3125"/><text fill="#000000" font-family="sans-serif" font-size="13" lengthAdjust="spacingAndGlyphs" textLength="51" x="150" y="145.4561">method()</text><polygon fill="#A80036" points="154,181.6641,144,181.6641,154,185.6641" style="stroke: #A80036; stroke-width: 1.0;"/><line style="stroke: #A80036; stroke-width: 1.0; stroke-dasharray: 2.0,2.0;" x1="143" x2="480.5" y1="180.6641" y2="180.6641"/><text fill="#000000" font-family="sans-serif" font-size="13" lengthAdjust="spacingAndGlyphs" textLength="78" x="160" y="175.8076">Model.Event2</text><polygon fill="#A80036" points="311,212.0156,321,212.0156,311,216.0156" style="stroke: #A80036; stroke-width: 1.0;"/><line style="stroke: #A80036; stroke-width: 1.0; stroke-dasharray: 2.0,2.0;" x1="143" x2="322" y1="211.0156" y2="211.0156"/><text fill="#000000" font-family="sans-serif" font-size="13" lengthAdjust="spacingAndGlyphs" textLength="58" x="150" y="206.1592">method2()</text><!--
@startuml

actor "IT Operations"


entity EventBus

box Environment Management #lightgreen
    boundary em #white
end box



"IT Operations" -> em: Manage Policies in Environment



box "Service Orchestrator" #lightgreen
    boundary so #white
end box
EventBus -\ so: method()
so - -/ EventBus: Model.Event2

EventBus - -/ em : method2()
@enduml

PlantUML version 1.2019.05(Sat Apr 20 09:45:36 PDT 2019)
(GPL source distribution)
Java Runtime: OpenJDK Runtime Environment
JVM: OpenJDK 64-Bit Server VM
Java Version: 12.0.1+12
Operating System: Windows 10
OS Version: 10.0
Default Encoding: Cp1252
Language: en
Country: US
--></g></svg>