<?xml version="1.0" encoding="UTF-8" standalone="no"?><svg xmlns="http://www.w3.org/2000/svg" xmlns:xlink="http://www.w3.org/1999/xlink" contentScriptType="application/ecmascript" contentStyleType="text/css" height="685px" preserveAspectRatio="none" style="width:673px;height:685px;" version="1.1" viewBox="0 0 673 685" width="673px" zoomAndPan="magnify"><defs><filter height="300%" id="f1rn19kdxcqnc9" width="300%" x="-1" y="-1"><feGaussianBlur result="blurOut" stdDeviation="2.0"/><feColorMatrix in="blurOut" result="blurOut2" type="matrix" values="0 0 0 0 0 0 0 0 0 0 0 0 0 0 0 0 0 0 .4 0"/><feOffset dx="4.0" dy="4.0" in="blurOut2" result="blurOut3"/><feBlend in="SourceGraphic" in2="blurOut3" mode="normal"/></filter></defs><g><!--cluster Identity Aspect--><polygon fill="#FFC0CB" filter="url(#f1rn19kdxcqnc9)" points="45.5,84,155.5,84,162.5,107.6094,651.5,107.6094,651.5,673,45.5,673,45.5,84" style="stroke: #000000; stroke-width: 1.5;"/><line style="stroke: #000000; stroke-width: 1.5;" x1="45.5" x2="162.5" y1="107.6094" y2="107.6094"/><text fill="#000000" font-family="sans-serif" font-size="14" font-weight="bold" lengthAdjust="spacingAndGlyphs" textLength="104" x="49.5" y="100.5332">Identity Aspect</text><!--cluster bin--><polygon fill="#FFFFFF" filter="url(#f1rn19kdxcqnc9)" points="210.5,128,238.5,128,245.5,151.6094,342.5,151.6094,342.5,218,210.5,218,210.5,128" style="stroke: #000000; stroke-width: 1.5;"/><line style="stroke: #000000; stroke-width: 1.5;" x1="210.5" x2="245.5" y1="151.6094" y2="151.6094"/><text fill="#000000" font-family="sans-serif" font-size="14" font-weight="bold" lengthAdjust="spacingAndGlyphs" textLength="22" x="214.5" y="144.5332">bin</text><!--cluster deploy--><polygon fill="#FFFFFF" filter="url(#f1rn19kdxcqnc9)" points="69.5,324,122.5,324,129.5,347.6094,627.5,347.6094,627.5,431,69.5,431,69.5,324" style="stroke: #000000; stroke-width: 1.5;"/><line style="stroke: #000000; stroke-width: 1.5;" x1="69.5" x2="129.5" y1="347.6094" y2="347.6094"/><text fill="#000000" font-family="sans-serif" font-size="14" font-weight="bold" lengthAdjust="spacingAndGlyphs" textLength="47" x="73.5" y="340.5332">deploy</text><!--cluster images--><polygon fill="#FFFFFF" filter="url(#f1rn19kdxcqnc9)" points="237.5,455,293.5,455,300.5,478.6094,511.5,478.6094,511.5,649,237.5,649,237.5,455" style="stroke: #000000; stroke-width: 1.5;"/><line style="stroke: #000000; stroke-width: 1.5;" x1="237.5" x2="300.5" y1="478.6094" y2="478.6094"/><text fill="#000000" font-family="sans-serif" font-size="14" font-weight="bold" lengthAdjust="spacingAndGlyphs" textLength="50" x="241.5" y="471.5332">images</text><!--entity REST--><rect fill="#FEFECE" filter="url(#f1rn19kdxcqnc9)" height="37.6094" style="stroke: #A80036; stroke-width: 1.5;" width="69" x="242" y="262"/><rect fill="#FEFECE" height="5" style="stroke: #A80036; stroke-width: 1.5;" width="10" x="237" y="267"/><rect fill="#FEFECE" height="5" style="stroke: #A80036; stroke-width: 1.5;" width="10" x="237" y="289.6094"/><text fill="#000000" font-family="sans-serif" font-size="14" lengthAdjust="spacingAndGlyphs" textLength="49" x="252" y="286.5332">express</text><!--entity socket--><rect fill="#FEFECE" filter="url(#f1rn19kdxcqnc9)" height="37.6094" style="stroke: #A80036; stroke-width: 1.5;" width="76" x="396.5" y="164"/><rect fill="#FEFECE" height="5" style="stroke: #A80036; stroke-width: 1.5;" width="10" x="391.5" y="169"/><rect fill="#FEFECE" height="5" style="stroke: #A80036; stroke-width: 1.5;" width="10" x="391.5" y="191.6094"/><text fill="#000000" font-family="sans-serif" font-size="14" lengthAdjust="spacingAndGlyphs" textLength="56" x="406.5" y="188.5332">socket.io</text><!--entity binName--><rect fill="#FEFECE" filter="url(#f1rn19kdxcqnc9)" height="37.6094" style="stroke: #A80036; stroke-width: 1.5;" width="99" x="227" y="164"/><rect fill="#FEFECE" height="5" style="stroke: #A80036; stroke-width: 1.5;" width="10" x="222" y="169"/><rect fill="#FEFECE" height="5" style="stroke: #A80036; stroke-width: 1.5;" width="10" x="222" y="191.6094"/><text fill="#000000" font-family="sans-serif" font-size="14" lengthAdjust="spacingAndGlyphs" textLength="79" x="237" y="188.5332">edgemere ia</text><!--entity ia_container--><polygon fill="#FEFECE" filter="url(#f1rn19kdxcqnc9)" points="85.5,360,85.5,415.2188,235.5,415.2188,235.5,370,225.5,360,85.5,360" style="stroke: #000000; stroke-width: 1.5;"/><path d="M225.5,360 L225.5,370 L235.5,370 " fill="#FEFECE" style="stroke: #000000; stroke-width: 1.5;"/><text fill="#000000" font-family="sans-serif" font-size="14" lengthAdjust="spacingAndGlyphs" textLength="90" x="95.5" y="384.5332">node server.js</text><text fill="#000000" font-family="sans-serif" font-size="14" lengthAdjust="spacingAndGlyphs" textLength="130" x="95.5" y="402.1426">docker-compose.yml</text><!--entity web_container--><polygon fill="#FEFECE" filter="url(#f1rn19kdxcqnc9)" points="472,368.5,472,406.1094,611,406.1094,611,378.5,601,368.5,472,368.5" style="stroke: #000000; stroke-width: 1.5;"/><path d="M601,368.5 L601,378.5 L611,378.5 " fill="#FEFECE" style="stroke: #000000; stroke-width: 1.5;"/><text fill="#000000" font-family="sans-serif" font-size="14" lengthAdjust="spacingAndGlyphs" textLength="119" x="482" y="393.0332">node web/server.js</text><!--entity gateway_container--><polygon fill="#FEFECE" filter="url(#f1rn19kdxcqnc9)" points="270.5,368.5,270.5,406.1094,436.5,406.1094,436.5,378.5,426.5,368.5,270.5,368.5" style="stroke: #000000; stroke-width: 1.5;"/><path d="M426.5,368.5 L426.5,378.5 L436.5,378.5 " fill="#FEFECE" style="stroke: #000000; stroke-width: 1.5;"/><text fill="#000000" font-family="sans-serif" font-size="14" lengthAdjust="spacingAndGlyphs" textLength="146" x="280.5" y="393.0332">node gateway/server.js</text><!--entity iaimage--><rect fill="#FEFECE" filter="url(#f1rn19kdxcqnc9)" height="33.6094" style="stroke: #000000; stroke-width: 1.5;" width="27" x="258" y="496.5"/><rect fill="#FEFECE" height="33.6094" style="stroke: #000000; stroke-width: 1.5;" width="27" x="254" y="492.5"/><text fill="#000000" font-family="sans-serif" font-size="14" lengthAdjust="spacingAndGlyphs" textLength="11" x="262" y="515.0332">ia</text><!--entity ailtireswarm--><rect fill="#FEFECE" filter="url(#f1rn19kdxcqnc9)" height="40.6094" style="stroke: #000000; stroke-width: 1.5;" width="108" x="253.5" y="592"/><polygon fill="#FEFECE" points="344.5,597,344.5,611,356.5,611,356.5,603,350.5,597,344.5,597" style="stroke: #000000; stroke-width: 1.5;"/><line style="stroke: #000000; stroke-width: 1.5;" x1="350.5" x2="350.5" y1="597" y2="603"/><line style="stroke: #000000; stroke-width: 1.5;" x1="356.5" x2="350.5" y1="603" y2="603"/><text fill="#000000" font-family="sans-serif" font-size="14" lengthAdjust="spacingAndGlyphs" textLength="78" x="263.5" y="619.5332">ailtire:swarm</text><!--entity ia_web--><rect fill="#FEFECE" filter="url(#f1rn19kdxcqnc9)" height="40.6094" style="stroke: #000000; stroke-width: 1.5;" width="74" x="421.5" y="491"/><polygon fill="#FEFECE" points="478.5,496,478.5,510,490.5,510,490.5,502,484.5,496,478.5,496" style="stroke: #000000; stroke-width: 1.5;"/><line style="stroke: #000000; stroke-width: 1.5;" x1="484.5" x2="484.5" y1="496" y2="502"/><line style="stroke: #000000; stroke-width: 1.5;" x1="490.5" x2="484.5" y1="502" y2="502"/><text fill="#000000" font-family="sans-serif" font-size="14" lengthAdjust="spacingAndGlyphs" textLength="44" x="431.5" y="518.5332">ia_web</text><!--entity ia_gw--><rect fill="#FEFECE" filter="url(#f1rn19kdxcqnc9)" height="40.6094" style="stroke: #000000; stroke-width: 1.5;" width="66" x="320.5" y="491"/><polygon fill="#FEFECE" points="369.5,496,369.5,510,381.5,510,381.5,502,375.5,496,369.5,496" style="stroke: #000000; stroke-width: 1.5;"/><line style="stroke: #000000; stroke-width: 1.5;" x1="375.5" x2="375.5" y1="496" y2="502"/><line style="stroke: #000000; stroke-width: 1.5;" x1="381.5" x2="375.5" y1="502" y2="502"/><text fill="#000000" font-family="sans-serif" font-size="14" lengthAdjust="spacingAndGlyphs" textLength="36" x="330.5" y="518.5332">ia_gw</text><!--entity CLI--><ellipse cx="276.5" cy="38" fill="#FEFECE" filter="url(#f1rn19kdxcqnc9)" rx="8" ry="8" style="stroke: #A80036; stroke-width: 2.0;"/><text fill="#000000" font-family="sans-serif" font-size="14" lengthAdjust="spacingAndGlyphs" textLength="21" x="266" y="69.5332">CLI</text><!--entity Web--><ellipse cx="20.5" cy="281" fill="#FEFECE" filter="url(#f1rn19kdxcqnc9)" rx="8" ry="8" style="stroke: #A80036; stroke-width: 2.0;"/><text fill="#000000" font-family="sans-serif" font-size="14" lengthAdjust="spacingAndGlyphs" textLength="29" x="6" y="312.5332">Web</text><!--entity WebSocket--><ellipse cx="434.5" cy="38" fill="#FEFECE" filter="url(#f1rn19kdxcqnc9)" rx="8" ry="8" style="stroke: #A80036; stroke-width: 2.0;"/><text fill="#000000" font-family="sans-serif" font-size="14" lengthAdjust="spacingAndGlyphs" textLength="72" x="398.5" y="69.5332">WebSocket</text><!--link binName to REST--><path d="M276.5,202.057 C276.5,217.513 276.5,239.865 276.5,256.673 " fill="none" id="binName-REST" style="stroke: #A80036; stroke-width: 1.0;"/><polygon fill="#A80036" points="276.5,261.698,280.5,252.698,276.5,256.698,272.5,252.698,276.5,261.698" style="stroke: #A80036; stroke-width: 1.0;"/><!--link REST to ia_container--><path d="M256.294,300.203 C239.133,315.662 214.154,338.166 194.005,356.316 " fill="none" id="REST-ia_container" style="stroke: #A80036; stroke-width: 1.0;"/><polygon fill="#A80036" points="190.044,359.885,199.4081,356.8333,193.759,356.5385,194.0538,350.8894,190.044,359.885" style="stroke: #A80036; stroke-width: 1.0;"/><!--link REST to web_container--><path d="M311.152,283.621 C348.18,286.47 407.848,294.329 454.5,316 C480.071,327.879 504.591,348.925 521.045,364.94 " fill="none" id="REST-web_container" style="stroke: #A80036; stroke-width: 1.0;"/><polygon fill="#A80036" points="524.636,368.481,521.0356,359.3138,521.0756,364.9705,515.4188,365.0105,524.636,368.481" style="stroke: #A80036; stroke-width: 1.0;"/><!--link socket to web_container--><path d="M444.184,202.328 C463.76,239.375 507.993,323.087 529.418,363.635 " fill="none" id="socket-web_container" style="stroke: #A80036; stroke-width: 1.0;"/><polygon fill="#A80036" points="531.915,368.36,531.2479,358.5338,529.5795,363.939,524.1743,362.2706,531.915,368.36" style="stroke: #A80036; stroke-width: 1.0;"/><!--link REST to gateway_container--><path d="M289.912,300.203 C302.971,317.925 322.851,344.905 336.901,363.972 " fill="none" id="REST-gateway_container" style="stroke: #A80036; stroke-width: 1.0;"/><polygon fill="#A80036" points="339.983,368.155,337.8654,358.5365,337.0174,364.1294,331.4245,363.2815,339.983,368.155" style="stroke: #A80036; stroke-width: 1.0;"/><!--link socket to gateway_container--><path d="M427.169,202.328 C412.35,239.375 378.865,323.087 362.646,363.635 " fill="none" id="socket-gateway_container" style="stroke: #A80036; stroke-width: 1.0;"/><polygon fill="#A80036" points="360.756,368.36,367.8124,361.4893,362.613,363.7176,360.3846,358.5181,360.756,368.36" style="stroke: #A80036; stroke-width: 1.0;"/><!--link iaimage to ailtireswarm--><path d="M283.666,549.405 C289.18,563.771 295.276,579.654 299.923,591.7594 " fill="none" id="iaimage-ailtireswarm" style="stroke: #A80036; stroke-width: 1.0;"/><polygon fill="none" points="277.102,551.838,276.47,530.658,290.172,546.821,277.102,551.838" style="stroke: #A80036; stroke-width: 1.0;"/><!--link ia_container to iaimage--><path d="M184.421,415.273 C204.161,437.368 231.815,468.321 250.173,488.868 " fill="none" id="ia_container-iaimage" style="stroke: #A80036; stroke-width: 1.0;"/><polygon fill="#A80036" points="253.716,492.833,250.7023,483.4566,250.3846,489.1045,244.7367,488.7868,253.716,492.833" style="stroke: #A80036; stroke-width: 1.0;"/><!--link web_container to ia_web--><path d="M529.253,406.502 C514.82,427.717 490.781,463.051 474.787,486.56 " fill="none" id="web_container-ia_web" style="stroke: #A80036; stroke-width: 1.0;"/><polygon fill="#A80036" points="471.899,490.805,480.2688,485.614,474.7116,486.6711,473.6546,481.1139,471.899,490.805" style="stroke: #A80036; stroke-width: 1.0;"/><!--link gateway_container to ia_gw--><path d="M353.5,406.502 C353.5,427.453 353.5,462.173 353.5,485.676 " fill="none" id="gateway_container-ia_gw" style="stroke: #A80036; stroke-width: 1.0;"/><polygon fill="#A80036" points="353.5,490.805,357.5,481.805,353.5,485.805,349.5,481.805,353.5,490.805" style="stroke: #A80036; stroke-width: 1.0;"/><!--link CLI to binName--><path d="M276.5,47.098 C276.5,69.432 276.5,132.318 276.5,163.705 " fill="none" id="CLI-binName" style="stroke: #A80036; stroke-width: 1.0;"/><text fill="#000000" font-family="sans-serif" font-size="13" lengthAdjust="spacingAndGlyphs" textLength="71" x="188.1563" y="45.1822">edgemere ia</text><!--link Web to REST--><path d="M29.5,281 C100.2552,281 171.01,281 241.766,281 " fill="none" id="Web-REST" style="stroke: #A80036; stroke-width: 1.0;"/><text fill="#000000" font-family="sans-serif" font-size="13" lengthAdjust="spacingAndGlyphs" textLength="75" x="37.4922" y="277.1503">/edgemere/ia</text><!--link WebSocket to socket--><path d="M434.5,47.098 C434.5,69.432 434.5,132.318 434.5,163.705 " fill="none" id="WebSocket-socket" style="stroke: #A80036; stroke-width: 1.0;"/><text fill="#000000" font-family="sans-serif" font-size="13" lengthAdjust="spacingAndGlyphs" textLength="75" x="342.1563" y="45.1822">.edgemere.ia</text><!--
@startuml
  interface CLI
  interface Web
  interface WebSocket
package "Identity Aspect" #pink {
  component express as REST
  component socket.io as socket
  folder bin #ffffff {
    component " edgemere ia" as binName
  }
  binName - -> REST

  folder deploy #ffffff {
      file "node server.js\ndocker-compose.yml" as ia_container
      REST - -> ia_container

  
    file "node web/server.js" as web_container
    REST - -> web_container
    socket - - -> web_container
  
    file "node gateway/server.js" as gateway_container
    REST - -> gateway_container
    socket - - -> gateway_container
  
  }
  folder images #ffffff {
    collections "ia" as iaimage
    artifact "ailtire:swarm" as ailtireswarm
    iaimage <|- - ailtireswarm
    ia_container - -> iaimage

  
      artifact ia_web
      web_container - -> ia_web
    
      artifact ia_gw
      gateway_container - -> ia_gw
    
  }
}
CLI " edgemere ia" - - binName
Web "/edgemere/ia" - REST
WebSocket ".edgemere.ia" - - socket

@enduml

PlantUML version 1.2019.05(Sat Apr 20 09:45:36 PDT 2019)
(GPL source distribution)
Java Runtime: OpenJDK Runtime Environment
JVM: OpenJDK 64-Bit Server VM
Java Version: 12.0.1+12
Operating System: Windows 10
OS Version: 10.0
Default Encoding: Cp1252
Language: en
Country: US
--></g></svg>