<?xml version="1.0" encoding="UTF-8" standalone="no"?><svg xmlns="http://www.w3.org/2000/svg" xmlns:xlink="http://www.w3.org/1999/xlink" contentScriptType="application/ecmascript" contentStyleType="text/css" height="1107px" preserveAspectRatio="none" style="width:1917px;height:1107px;" version="1.1" viewBox="0 0 1917 1107" width="1917px" zoomAndPan="magnify"><defs><filter height="300%" id="f15lj0z81smhqh" width="300%" x="-1" y="-1"><feGaussianBlur result="blurOut" stdDeviation="2.0"/><feColorMatrix in="blurOut" result="blurOut2" type="matrix" values="0 0 0 0 0 0 0 0 0 0 0 0 0 0 0 0 0 0 .4 0"/><feOffset dx="4.0" dy="4.0" in="blurOut2" result="blurOut3"/><feBlend in="SourceGraphic" in2="blurOut3" mode="normal"/></filter></defs><g><!--cluster Common Physical Layer--><polygon fill="#D3D3D3" filter="url(#f15lj0z81smhqh)" points="848.484,979,1018.484,979,1025.484,1002.6094,1713.48,1002.6094,1713.48,1095,848.484,1095,848.484,979" style="stroke: #000000; stroke-width: 1.5;"/><line style="stroke: #000000; stroke-width: 1.5;" x1="848.484" x2="1025.484" y1="1002.6094" y2="1002.6094"/><text fill="#000000" font-family="sans-serif" font-size="14" font-weight="bold" lengthAdjust="spacingAndGlyphs" textLength="164" x="852.484" y="995.5332">Common Physical Layer</text><!--cluster Software Defined Infrastructure--><polygon fill="#FFFFE0" filter="url(#f15lj0z81smhqh)" points="163.484,73,391.484,73,398.484,96.6094,1006.48,96.6094,1006.48,913,163.484,913,163.484,73" style="stroke: #000000; stroke-width: 1.5;"/><line style="stroke: #000000; stroke-width: 1.5;" x1="163.484" x2="398.484" y1="96.6094" y2="96.6094"/><text fill="#000000" font-family="sans-serif" font-size="14" font-weight="bold" lengthAdjust="spacingAndGlyphs" textLength="222" x="167.484" y="89.5332">Software Defined Infrastructure</text><!--cluster Service Orchestrator--><polygon fill="#90EE90" filter="url(#f15lj0z81smhqh)" points="132.484,987,286.484,987,293.484,1010.6094,296.484,1010.6094,296.484,1087,132.484,1087,132.484,987" style="stroke: #000000; stroke-width: 1.5;"/><line style="stroke: #000000; stroke-width: 1.5;" x1="132.484" x2="293.484" y1="1010.6094" y2="1010.6094"/><text fill="#000000" font-family="sans-serif" font-size="14" font-weight="bold" lengthAdjust="spacingAndGlyphs" textLength="148" x="136.484" y="1003.5332">Service Orchestrator</text><!--cluster Cloud Broker--><polygon fill="#90EE90" filter="url(#f15lj0z81smhqh)" points="1206.48,554.5,1305.48,554.5,1312.48,578.1094,1330.48,578.1094,1330.48,654.5,1206.48,654.5,1206.48,554.5" style="stroke: #000000; stroke-width: 1.5;"/><line style="stroke: #000000; stroke-width: 1.5;" x1="1206.48" x2="1312.48" y1="578.1094" y2="578.1094"/><text fill="#000000" font-family="sans-serif" font-size="14" font-weight="bold" lengthAdjust="spacingAndGlyphs" textLength="93" x="1210.48" y="571.0332">Cloud Broker</text><!--class PhysicalProfile--><rect fill="#FEFECE" filter="url(#f15lj0z81smhqh)" height="48" id="PhysicalProfile" style="stroke: #A80036; stroke-width: 1.5;" width="113" x="872.984" y="1023"/><ellipse cx="887.984" cy="1039" fill="#ADD1B2" rx="11" ry="11" style="stroke: #A80036; stroke-width: 1.0;"/><path d="M890.7496,1034.875 Q890.9059,1034.6563 891.0934,1034.5469 Q891.2809,1034.4375 891.4996,1034.4375 Q891.8746,1034.4375 892.109,1034.7031 Q892.3434,1034.9531 892.3434,1035.5625 L892.3434,1037.0156 Q892.3434,1037.625 892.109,1037.8906 Q891.8746,1038.1563 891.4996,1038.1563 Q891.1559,1038.1563 890.9528,1037.9531 Q890.7496,1037.7656 890.6403,1037.25 Q890.5934,1036.8906 890.4059,1036.7031 Q890.0778,1036.3281 889.4684,1036.1094 Q888.859,1035.8906 888.234,1035.8906 Q887.4684,1035.8906 886.8278,1036.2188 Q886.2028,1036.5469 885.7028,1037.2969 Q885.2184,1038.0469 885.2184,1039.0781 L885.2184,1040.1719 Q885.2184,1041.4063 886.109,1042.2344 Q886.9996,1043.0469 888.5934,1043.0469 Q889.5309,1043.0469 890.1871,1042.7969 Q890.5778,1042.6406 890.9996,1042.2031 Q891.2653,1041.9375 891.4059,1041.8594 Q891.5621,1041.7813 891.7653,1041.7813 Q892.0934,1041.7813 892.3434,1042.0469 Q892.609,1042.2969 892.609,1042.6406 Q892.609,1042.9844 892.2653,1043.3906 Q891.7653,1043.9688 890.9684,1044.2969 Q889.8903,1044.75 888.5934,1044.75 Q887.0778,1044.75 885.8746,1044.125 Q884.8903,1043.625 884.2028,1042.5625 Q883.5153,1041.4844 883.5153,1040.2031 L883.5153,1039.0469 Q883.5153,1037.7188 884.1246,1036.5781 Q884.7496,1035.4219 885.8434,1034.8125 Q886.9371,1034.1875 888.1715,1034.1875 Q888.9059,1034.1875 889.5465,1034.3594 Q890.2028,1034.5156 890.7496,1034.875 Z "/><text fill="#000000" font-family="sans-serif" font-size="12" lengthAdjust="spacingAndGlyphs" textLength="81" x="901.984" y="1043.9102">PhysicalProfile</text><line style="stroke: #A80036; stroke-width: 1.5;" x1="873.984" x2="984.984" y1="1055" y2="1055"/><line style="stroke: #A80036; stroke-width: 1.5;" x1="873.984" x2="984.984" y1="1063" y2="1063"/><!--class Hardware--><rect fill="#FEFECE" filter="url(#f15lj0z81smhqh)" height="48" id="Hardware" style="stroke: #A80036; stroke-width: 1.5;" width="86" x="1021.48" y="1023"/><ellipse cx="1036.48" cy="1039" fill="#ADD1B2" rx="11" ry="11" style="stroke: #A80036; stroke-width: 1.0;"/><path d="M1039.2456,1034.875 Q1039.4019,1034.6563 1039.5894,1034.5469 Q1039.7769,1034.4375 1039.9956,1034.4375 Q1040.3706,1034.4375 1040.605,1034.7031 Q1040.8394,1034.9531 1040.8394,1035.5625 L1040.8394,1037.0156 Q1040.8394,1037.625 1040.605,1037.8906 Q1040.3706,1038.1563 1039.9956,1038.1563 Q1039.6519,1038.1563 1039.4488,1037.9531 Q1039.2456,1037.7656 1039.1363,1037.25 Q1039.0894,1036.8906 1038.9019,1036.7031 Q1038.5738,1036.3281 1037.9644,1036.1094 Q1037.355,1035.8906 1036.73,1035.8906 Q1035.9644,1035.8906 1035.3238,1036.2188 Q1034.6988,1036.5469 1034.1988,1037.2969 Q1033.7144,1038.0469 1033.7144,1039.0781 L1033.7144,1040.1719 Q1033.7144,1041.4063 1034.605,1042.2344 Q1035.4956,1043.0469 1037.0894,1043.0469 Q1038.0269,1043.0469 1038.6831,1042.7969 Q1039.0738,1042.6406 1039.4956,1042.2031 Q1039.7613,1041.9375 1039.9019,1041.8594 Q1040.0581,1041.7813 1040.2613,1041.7813 Q1040.5894,1041.7813 1040.8394,1042.0469 Q1041.105,1042.2969 1041.105,1042.6406 Q1041.105,1042.9844 1040.7613,1043.3906 Q1040.2613,1043.9688 1039.4644,1044.2969 Q1038.3863,1044.75 1037.0894,1044.75 Q1035.5738,1044.75 1034.3706,1044.125 Q1033.3863,1043.625 1032.6988,1042.5625 Q1032.0113,1041.4844 1032.0113,1040.2031 L1032.0113,1039.0469 Q1032.0113,1037.7188 1032.6206,1036.5781 Q1033.2456,1035.4219 1034.3394,1034.8125 Q1035.4331,1034.1875 1036.6675,1034.1875 Q1037.4019,1034.1875 1038.0425,1034.3594 Q1038.6988,1034.5156 1039.2456,1034.875 Z "/><text fill="#000000" font-family="sans-serif" font-size="12" lengthAdjust="spacingAndGlyphs" textLength="54" x="1050.48" y="1043.9102">Hardware</text><line style="stroke: #A80036; stroke-width: 1.5;" x1="1022.48" x2="1106.48" y1="1055" y2="1055"/><line style="stroke: #A80036; stroke-width: 1.5;" x1="1022.48" x2="1106.48" y1="1063" y2="1063"/><!--class Device--><rect fill="#FEFECE" filter="url(#f15lj0z81smhqh)" height="48" id="Device" style="stroke: #A80036; stroke-width: 1.5;" width="69" x="1142.98" y="1023"/><ellipse cx="1157.98" cy="1039" fill="#ADD1B2" rx="11" ry="11" style="stroke: #A80036; stroke-width: 1.0;"/><path d="M1160.7456,1034.875 Q1160.9019,1034.6563 1161.0894,1034.5469 Q1161.2769,1034.4375 1161.4956,1034.4375 Q1161.8706,1034.4375 1162.105,1034.7031 Q1162.3394,1034.9531 1162.3394,1035.5625 L1162.3394,1037.0156 Q1162.3394,1037.625 1162.105,1037.8906 Q1161.8706,1038.1563 1161.4956,1038.1563 Q1161.1519,1038.1563 1160.9488,1037.9531 Q1160.7456,1037.7656 1160.6363,1037.25 Q1160.5894,1036.8906 1160.4019,1036.7031 Q1160.0738,1036.3281 1159.4644,1036.1094 Q1158.855,1035.8906 1158.23,1035.8906 Q1157.4644,1035.8906 1156.8238,1036.2188 Q1156.1988,1036.5469 1155.6988,1037.2969 Q1155.2144,1038.0469 1155.2144,1039.0781 L1155.2144,1040.1719 Q1155.2144,1041.4063 1156.105,1042.2344 Q1156.9956,1043.0469 1158.5894,1043.0469 Q1159.5269,1043.0469 1160.1831,1042.7969 Q1160.5738,1042.6406 1160.9956,1042.2031 Q1161.2613,1041.9375 1161.4019,1041.8594 Q1161.5581,1041.7813 1161.7613,1041.7813 Q1162.0894,1041.7813 1162.3394,1042.0469 Q1162.605,1042.2969 1162.605,1042.6406 Q1162.605,1042.9844 1162.2613,1043.3906 Q1161.7613,1043.9688 1160.9644,1044.2969 Q1159.8863,1044.75 1158.5894,1044.75 Q1157.0738,1044.75 1155.8706,1044.125 Q1154.8863,1043.625 1154.1988,1042.5625 Q1153.5113,1041.4844 1153.5113,1040.2031 L1153.5113,1039.0469 Q1153.5113,1037.7188 1154.1206,1036.5781 Q1154.7456,1035.4219 1155.8394,1034.8125 Q1156.9331,1034.1875 1158.1675,1034.1875 Q1158.9019,1034.1875 1159.5425,1034.3594 Q1160.1988,1034.5156 1160.7456,1034.875 Z "/><text fill="#000000" font-family="sans-serif" font-size="12" lengthAdjust="spacingAndGlyphs" textLength="37" x="1171.98" y="1043.9102">Device</text><line style="stroke: #A80036; stroke-width: 1.5;" x1="1143.98" x2="1210.98" y1="1055" y2="1055"/><line style="stroke: #A80036; stroke-width: 1.5;" x1="1143.98" x2="1210.98" y1="1063" y2="1063"/><!--class AggregatedDevice--><rect fill="#FEFECE" filter="url(#f15lj0z81smhqh)" height="48" id="AggregatedDevice" style="stroke: #A80036; stroke-width: 1.5;" width="132" x="1377.48" y="1023"/><ellipse cx="1392.48" cy="1039" fill="#ADD1B2" rx="11" ry="11" style="stroke: #A80036; stroke-width: 1.0;"/><path d="M1395.2456,1034.875 Q1395.4019,1034.6563 1395.5894,1034.5469 Q1395.7769,1034.4375 1395.9956,1034.4375 Q1396.3706,1034.4375 1396.605,1034.7031 Q1396.8394,1034.9531 1396.8394,1035.5625 L1396.8394,1037.0156 Q1396.8394,1037.625 1396.605,1037.8906 Q1396.3706,1038.1563 1395.9956,1038.1563 Q1395.6519,1038.1563 1395.4488,1037.9531 Q1395.2456,1037.7656 1395.1363,1037.25 Q1395.0894,1036.8906 1394.9019,1036.7031 Q1394.5738,1036.3281 1393.9644,1036.1094 Q1393.355,1035.8906 1392.73,1035.8906 Q1391.9644,1035.8906 1391.3238,1036.2188 Q1390.6988,1036.5469 1390.1988,1037.2969 Q1389.7144,1038.0469 1389.7144,1039.0781 L1389.7144,1040.1719 Q1389.7144,1041.4063 1390.605,1042.2344 Q1391.4956,1043.0469 1393.0894,1043.0469 Q1394.0269,1043.0469 1394.6831,1042.7969 Q1395.0738,1042.6406 1395.4956,1042.2031 Q1395.7613,1041.9375 1395.9019,1041.8594 Q1396.0581,1041.7813 1396.2613,1041.7813 Q1396.5894,1041.7813 1396.8394,1042.0469 Q1397.105,1042.2969 1397.105,1042.6406 Q1397.105,1042.9844 1396.7613,1043.3906 Q1396.2613,1043.9688 1395.4644,1044.2969 Q1394.3863,1044.75 1393.0894,1044.75 Q1391.5738,1044.75 1390.3706,1044.125 Q1389.3863,1043.625 1388.6988,1042.5625 Q1388.0113,1041.4844 1388.0113,1040.2031 L1388.0113,1039.0469 Q1388.0113,1037.7188 1388.6206,1036.5781 Q1389.2456,1035.4219 1390.3394,1034.8125 Q1391.4331,1034.1875 1392.6675,1034.1875 Q1393.4019,1034.1875 1394.0425,1034.3594 Q1394.6988,1034.5156 1395.2456,1034.875 Z "/><text fill="#000000" font-family="sans-serif" font-size="12" lengthAdjust="spacingAndGlyphs" textLength="100" x="1406.48" y="1043.9102">AggregatedDevice</text><line style="stroke: #A80036; stroke-width: 1.5;" x1="1378.48" x2="1508.48" y1="1055" y2="1055"/><line style="stroke: #A80036; stroke-width: 1.5;" x1="1378.48" x2="1508.48" y1="1063" y2="1063"/><!--class DataCenter--><rect fill="#FEFECE" filter="url(#f15lj0z81smhqh)" height="48" id="DataCenter" style="stroke: #A80036; stroke-width: 1.5;" width="95" x="1246.98" y="1023"/><ellipse cx="1261.98" cy="1039" fill="#ADD1B2" rx="11" ry="11" style="stroke: #A80036; stroke-width: 1.0;"/><path d="M1264.7456,1034.875 Q1264.9019,1034.6563 1265.0894,1034.5469 Q1265.2769,1034.4375 1265.4956,1034.4375 Q1265.8706,1034.4375 1266.105,1034.7031 Q1266.3394,1034.9531 1266.3394,1035.5625 L1266.3394,1037.0156 Q1266.3394,1037.625 1266.105,1037.8906 Q1265.8706,1038.1563 1265.4956,1038.1563 Q1265.1519,1038.1563 1264.9488,1037.9531 Q1264.7456,1037.7656 1264.6363,1037.25 Q1264.5894,1036.8906 1264.4019,1036.7031 Q1264.0738,1036.3281 1263.4644,1036.1094 Q1262.855,1035.8906 1262.23,1035.8906 Q1261.4644,1035.8906 1260.8238,1036.2188 Q1260.1988,1036.5469 1259.6988,1037.2969 Q1259.2144,1038.0469 1259.2144,1039.0781 L1259.2144,1040.1719 Q1259.2144,1041.4063 1260.105,1042.2344 Q1260.9956,1043.0469 1262.5894,1043.0469 Q1263.5269,1043.0469 1264.1831,1042.7969 Q1264.5738,1042.6406 1264.9956,1042.2031 Q1265.2613,1041.9375 1265.4019,1041.8594 Q1265.5581,1041.7813 1265.7613,1041.7813 Q1266.0894,1041.7813 1266.3394,1042.0469 Q1266.605,1042.2969 1266.605,1042.6406 Q1266.605,1042.9844 1266.2613,1043.3906 Q1265.7613,1043.9688 1264.9644,1044.2969 Q1263.8863,1044.75 1262.5894,1044.75 Q1261.0738,1044.75 1259.8706,1044.125 Q1258.8863,1043.625 1258.1988,1042.5625 Q1257.5113,1041.4844 1257.5113,1040.2031 L1257.5113,1039.0469 Q1257.5113,1037.7188 1258.1206,1036.5781 Q1258.7456,1035.4219 1259.8394,1034.8125 Q1260.9331,1034.1875 1262.1675,1034.1875 Q1262.9019,1034.1875 1263.5425,1034.3594 Q1264.1988,1034.5156 1264.7456,1034.875 Z "/><text fill="#000000" font-family="sans-serif" font-size="12" lengthAdjust="spacingAndGlyphs" textLength="63" x="1275.98" y="1043.9102">DataCenter</text><line style="stroke: #A80036; stroke-width: 1.5;" x1="1247.98" x2="1340.98" y1="1055" y2="1055"/><line style="stroke: #A80036; stroke-width: 1.5;" x1="1247.98" x2="1340.98" y1="1063" y2="1063"/><!--class MetricComposite--><rect fill="#FEFECE" filter="url(#f15lj0z81smhqh)" height="48" id="MetricComposite" style="stroke: #A80036; stroke-width: 1.5;" width="125" x="1544.98" y="1023"/><ellipse cx="1559.98" cy="1039" fill="#ADD1B2" rx="11" ry="11" style="stroke: #A80036; stroke-width: 1.0;"/><path d="M1562.7456,1034.875 Q1562.9019,1034.6563 1563.0894,1034.5469 Q1563.2769,1034.4375 1563.4956,1034.4375 Q1563.8706,1034.4375 1564.105,1034.7031 Q1564.3394,1034.9531 1564.3394,1035.5625 L1564.3394,1037.0156 Q1564.3394,1037.625 1564.105,1037.8906 Q1563.8706,1038.1563 1563.4956,1038.1563 Q1563.1519,1038.1563 1562.9488,1037.9531 Q1562.7456,1037.7656 1562.6363,1037.25 Q1562.5894,1036.8906 1562.4019,1036.7031 Q1562.0738,1036.3281 1561.4644,1036.1094 Q1560.855,1035.8906 1560.23,1035.8906 Q1559.4644,1035.8906 1558.8238,1036.2188 Q1558.1988,1036.5469 1557.6988,1037.2969 Q1557.2144,1038.0469 1557.2144,1039.0781 L1557.2144,1040.1719 Q1557.2144,1041.4063 1558.105,1042.2344 Q1558.9956,1043.0469 1560.5894,1043.0469 Q1561.5269,1043.0469 1562.1831,1042.7969 Q1562.5738,1042.6406 1562.9956,1042.2031 Q1563.2613,1041.9375 1563.4019,1041.8594 Q1563.5581,1041.7813 1563.7613,1041.7813 Q1564.0894,1041.7813 1564.3394,1042.0469 Q1564.605,1042.2969 1564.605,1042.6406 Q1564.605,1042.9844 1564.2613,1043.3906 Q1563.7613,1043.9688 1562.9644,1044.2969 Q1561.8863,1044.75 1560.5894,1044.75 Q1559.0738,1044.75 1557.8706,1044.125 Q1556.8863,1043.625 1556.1988,1042.5625 Q1555.5113,1041.4844 1555.5113,1040.2031 L1555.5113,1039.0469 Q1555.5113,1037.7188 1556.1206,1036.5781 Q1556.7456,1035.4219 1557.8394,1034.8125 Q1558.9331,1034.1875 1560.1675,1034.1875 Q1560.9019,1034.1875 1561.5425,1034.3594 Q1562.1988,1034.5156 1562.7456,1034.875 Z "/><text fill="#000000" font-family="sans-serif" font-size="12" lengthAdjust="spacingAndGlyphs" textLength="93" x="1573.98" y="1043.9102">MetricComposite</text><line style="stroke: #A80036; stroke-width: 1.5;" x1="1545.98" x2="1668.98" y1="1055" y2="1055"/><line style="stroke: #A80036; stroke-width: 1.5;" x1="1545.98" x2="1668.98" y1="1063" y2="1063"/><!--class Request--><rect fill="#FEFECE" filter="url(#f15lj0z81smhqh)" height="172.5234" id="Request" style="stroke: #A80036; stroke-width: 1.5;" width="86" x="656.484" y="117"/><ellipse cx="674.634" cy="133" fill="#ADD1B2" rx="11" ry="11" style="stroke: #A80036; stroke-width: 1.0;"/><path d="M677.3996,128.875 Q677.5559,128.6563 677.7434,128.5469 Q677.9309,128.4375 678.1496,128.4375 Q678.5246,128.4375 678.759,128.7031 Q678.9934,128.9531 678.9934,129.5625 L678.9934,131.0156 Q678.9934,131.625 678.759,131.8906 Q678.5246,132.1563 678.1496,132.1563 Q677.8059,132.1563 677.6028,131.9531 Q677.3996,131.7656 677.2903,131.25 Q677.2434,130.8906 677.0559,130.7031 Q676.7278,130.3281 676.1184,130.1094 Q675.509,129.8906 674.884,129.8906 Q674.1184,129.8906 673.4778,130.2188 Q672.8528,130.5469 672.3528,131.2969 Q671.8684,132.0469 671.8684,133.0781 L671.8684,134.1719 Q671.8684,135.4063 672.759,136.2344 Q673.6496,137.0469 675.2434,137.0469 Q676.1809,137.0469 676.8371,136.7969 Q677.2278,136.6406 677.6496,136.2031 Q677.9153,135.9375 678.0559,135.8594 Q678.2121,135.7813 678.4153,135.7813 Q678.7434,135.7813 678.9934,136.0469 Q679.259,136.2969 679.259,136.6406 Q679.259,136.9844 678.9153,137.3906 Q678.4153,137.9688 677.6184,138.2969 Q676.5403,138.75 675.2434,138.75 Q673.7278,138.75 672.5246,138.125 Q671.5403,137.625 670.8528,136.5625 Q670.1653,135.4844 670.1653,134.2031 L670.1653,133.0469 Q670.1653,131.7188 670.7746,130.5781 Q671.3996,129.4219 672.4934,128.8125 Q673.5871,128.1875 674.8215,128.1875 Q675.5559,128.1875 676.1965,128.3594 Q676.8528,128.5156 677.3996,128.875 Z "/><text fill="#000000" font-family="sans-serif" font-size="12" lengthAdjust="spacingAndGlyphs" textLength="47" x="689.334" y="137.9102">Request</text><line style="stroke: #A80036; stroke-width: 1.5;" x1="657.484" x2="741.484" y1="149" y2="149"/><text fill="#000000" font-family="sans-serif" font-size="11" lengthAdjust="spacingAndGlyphs" textLength="56" x="662.484" y="164.4189">string name</text><text fill="#000000" font-family="sans-serif" font-size="11" lengthAdjust="spacingAndGlyphs" textLength="62" x="662.484" y="178.2549">string ename</text><text fill="#000000" font-family="sans-serif" font-size="11" lengthAdjust="spacingAndGlyphs" textLength="51" x="662.484" y="192.0908">string type</text><text fill="#000000" font-family="sans-serif" font-size="11" lengthAdjust="spacingAndGlyphs" textLength="74" x="662.484" y="205.9268">string message</text><line style="stroke: #A80036; stroke-width: 1.5;" x1="657.484" x2="741.484" y1="212.3438" y2="212.3438"/><text fill="#000000" font-family="sans-serif" font-size="11" lengthAdjust="spacingAndGlyphs" textLength="44" x="662.484" y="227.7627">confirm()</text><text fill="#000000" font-family="sans-serif" font-size="11" lengthAdjust="spacingAndGlyphs" textLength="55" x="662.484" y="241.5986">evaluated()</text><text fill="#000000" font-family="sans-serif" font-size="11" lengthAdjust="spacingAndGlyphs" textLength="34" x="662.484" y="255.4346">failed()</text><text fill="#000000" font-family="sans-serif" font-size="11" lengthAdjust="spacingAndGlyphs" textLength="30" x="662.484" y="269.2705">fulfill()</text><text fill="#000000" font-family="sans-serif" font-size="11" lengthAdjust="spacingAndGlyphs" textLength="49" x="662.484" y="283.1064">satisfied()</text><!--class Cloud--><rect fill="#FEFECE" filter="url(#f15lj0z81smhqh)" height="103.3438" id="Cloud" style="stroke: #A80036; stroke-width: 1.5;" width="74" x="644.484" y="368"/><ellipse cx="663.534" cy="384" fill="#ADD1B2" rx="11" ry="11" style="stroke: #A80036; stroke-width: 1.0;"/><path d="M666.2996,379.875 Q666.4559,379.6563 666.6434,379.5469 Q666.8309,379.4375 667.0496,379.4375 Q667.4246,379.4375 667.659,379.7031 Q667.8934,379.9531 667.8934,380.5625 L667.8934,382.0156 Q667.8934,382.625 667.659,382.8906 Q667.4246,383.1563 667.0496,383.1563 Q666.7059,383.1563 666.5028,382.9531 Q666.2996,382.7656 666.1903,382.25 Q666.1434,381.8906 665.9559,381.7031 Q665.6278,381.3281 665.0184,381.1094 Q664.409,380.8906 663.784,380.8906 Q663.0184,380.8906 662.3778,381.2188 Q661.7528,381.5469 661.2528,382.2969 Q660.7684,383.0469 660.7684,384.0781 L660.7684,385.1719 Q660.7684,386.4063 661.659,387.2344 Q662.5496,388.0469 664.1434,388.0469 Q665.0809,388.0469 665.7371,387.7969 Q666.1278,387.6406 666.5496,387.2031 Q666.8153,386.9375 666.9559,386.8594 Q667.1121,386.7813 667.3153,386.7813 Q667.6434,386.7813 667.8934,387.0469 Q668.159,387.2969 668.159,387.6406 Q668.159,387.9844 667.8153,388.3906 Q667.3153,388.9688 666.5184,389.2969 Q665.4403,389.75 664.1434,389.75 Q662.6278,389.75 661.4246,389.125 Q660.4403,388.625 659.7528,387.5625 Q659.0653,386.4844 659.0653,385.2031 L659.0653,384.0469 Q659.0653,382.7188 659.6746,381.5781 Q660.2996,380.4219 661.3934,379.8125 Q662.4871,379.1875 663.7215,379.1875 Q664.4559,379.1875 665.0965,379.3594 Q665.7528,379.5156 666.2996,379.875 Z "/><text fill="#000000" font-family="sans-serif" font-size="12" lengthAdjust="spacingAndGlyphs" textLength="33" x="678.434" y="388.9102">Cloud</text><line style="stroke: #A80036; stroke-width: 1.5;" x1="645.484" x2="717.484" y1="400" y2="400"/><text fill="#000000" font-family="sans-serif" font-size="11" lengthAdjust="spacingAndGlyphs" textLength="56" x="650.484" y="415.4189">string name</text><text fill="#000000" font-family="sans-serif" font-size="11" lengthAdjust="spacingAndGlyphs" textLength="62" x="650.484" y="429.2549">string ename</text><line style="stroke: #A80036; stroke-width: 1.5;" x1="645.484" x2="717.484" y1="435.6719" y2="435.6719"/><text fill="#000000" font-family="sans-serif" font-size="11" lengthAdjust="spacingAndGlyphs" textLength="39" x="650.484" y="451.0908">create()</text><text fill="#000000" font-family="sans-serif" font-size="11" lengthAdjust="spacingAndGlyphs" textLength="46" x="650.484" y="464.9268">reserve()</text><!--class Resource--><rect fill="#FEFECE" filter="url(#f15lj0z81smhqh)" height="131.0156" id="Resource" style="stroke: #A80036; stroke-width: 1.5;" width="93" x="504.984" y="549"/><ellipse cx="523.134" cy="565" fill="#ADD1B2" rx="11" ry="11" style="stroke: #A80036; stroke-width: 1.0;"/><path d="M525.8996,560.875 Q526.0559,560.6563 526.2434,560.5469 Q526.4309,560.4375 526.6496,560.4375 Q527.0246,560.4375 527.259,560.7031 Q527.4934,560.9531 527.4934,561.5625 L527.4934,563.0156 Q527.4934,563.625 527.259,563.8906 Q527.0246,564.1563 526.6496,564.1563 Q526.3059,564.1563 526.1028,563.9531 Q525.8996,563.7656 525.7903,563.25 Q525.7434,562.8906 525.5559,562.7031 Q525.2278,562.3281 524.6184,562.1094 Q524.009,561.8906 523.384,561.8906 Q522.6184,561.8906 521.9778,562.2188 Q521.3528,562.5469 520.8528,563.2969 Q520.3684,564.0469 520.3684,565.0781 L520.3684,566.1719 Q520.3684,567.4063 521.259,568.2344 Q522.1496,569.0469 523.7434,569.0469 Q524.6809,569.0469 525.3371,568.7969 Q525.7278,568.6406 526.1496,568.2031 Q526.4153,567.9375 526.5559,567.8594 Q526.7121,567.7813 526.9153,567.7813 Q527.2434,567.7813 527.4934,568.0469 Q527.759,568.2969 527.759,568.6406 Q527.759,568.9844 527.4153,569.3906 Q526.9153,569.9688 526.1184,570.2969 Q525.0403,570.75 523.7434,570.75 Q522.2278,570.75 521.0246,570.125 Q520.0403,569.625 519.3528,568.5625 Q518.6653,567.4844 518.6653,566.2031 L518.6653,565.0469 Q518.6653,563.7188 519.2746,562.5781 Q519.8996,561.4219 520.9934,560.8125 Q522.0871,560.1875 523.3215,560.1875 Q524.0559,560.1875 524.6965,560.3594 Q525.3528,560.5156 525.8996,560.875 Z "/><text fill="#000000" font-family="sans-serif" font-size="12" lengthAdjust="spacingAndGlyphs" textLength="54" x="537.834" y="569.9102">Resource</text><line style="stroke: #A80036; stroke-width: 1.5;" x1="505.984" x2="596.984" y1="581" y2="581"/><text fill="#000000" font-family="sans-serif" font-size="11" lengthAdjust="spacingAndGlyphs" textLength="56" x="510.984" y="596.4189">string name</text><text fill="#000000" font-family="sans-serif" font-size="11" lengthAdjust="spacingAndGlyphs" textLength="62" x="510.984" y="610.2549">string ename</text><text fill="#000000" font-family="sans-serif" font-size="11" lengthAdjust="spacingAndGlyphs" textLength="81" x="510.984" y="624.0908">boolean disabled</text><text fill="#000000" font-family="sans-serif" font-size="11" lengthAdjust="spacingAndGlyphs" textLength="51" x="510.984" y="637.9268">string type</text><line style="stroke: #A80036; stroke-width: 1.5;" x1="505.984" x2="596.984" y1="644.3438" y2="644.3438"/><text fill="#000000" font-family="sans-serif" font-size="11" lengthAdjust="spacingAndGlyphs" textLength="43" x="510.984" y="659.7627">factory()</text><text fill="#000000" font-family="sans-serif" font-size="11" lengthAdjust="spacingAndGlyphs" textLength="52" x="510.984" y="673.5986">provision()</text><!--class Reservation--><rect fill="#FEFECE" filter="url(#f15lj0z81smhqh)" height="103.3438" id="Reservation" style="stroke: #A80036; stroke-width: 1.5;" width="98" x="876.484" y="563"/><ellipse cx="891.484" cy="579" fill="#ADD1B2" rx="11" ry="11" style="stroke: #A80036; stroke-width: 1.0;"/><path d="M894.2496,574.875 Q894.4059,574.6563 894.5934,574.5469 Q894.7809,574.4375 894.9996,574.4375 Q895.3746,574.4375 895.609,574.7031 Q895.8434,574.9531 895.8434,575.5625 L895.8434,577.0156 Q895.8434,577.625 895.609,577.8906 Q895.3746,578.1563 894.9996,578.1563 Q894.6559,578.1563 894.4528,577.9531 Q894.2496,577.7656 894.1403,577.25 Q894.0934,576.8906 893.9059,576.7031 Q893.5778,576.3281 892.9684,576.1094 Q892.359,575.8906 891.734,575.8906 Q890.9684,575.8906 890.3278,576.2188 Q889.7028,576.5469 889.2028,577.2969 Q888.7184,578.0469 888.7184,579.0781 L888.7184,580.1719 Q888.7184,581.4063 889.609,582.2344 Q890.4996,583.0469 892.0934,583.0469 Q893.0309,583.0469 893.6871,582.7969 Q894.0778,582.6406 894.4996,582.2031 Q894.7653,581.9375 894.9059,581.8594 Q895.0621,581.7813 895.2653,581.7813 Q895.5934,581.7813 895.8434,582.0469 Q896.109,582.2969 896.109,582.6406 Q896.109,582.9844 895.7653,583.3906 Q895.2653,583.9688 894.4684,584.2969 Q893.3903,584.75 892.0934,584.75 Q890.5778,584.75 889.3746,584.125 Q888.3903,583.625 887.7028,582.5625 Q887.0153,581.4844 887.0153,580.2031 L887.0153,579.0469 Q887.0153,577.7188 887.6246,576.5781 Q888.2496,575.4219 889.3434,574.8125 Q890.4371,574.1875 891.6715,574.1875 Q892.4059,574.1875 893.0465,574.3594 Q893.7028,574.5156 894.2496,574.875 Z "/><text fill="#000000" font-family="sans-serif" font-size="12" lengthAdjust="spacingAndGlyphs" textLength="66" x="905.484" y="583.9102">Reservation</text><line style="stroke: #A80036; stroke-width: 1.5;" x1="877.484" x2="973.484" y1="595" y2="595"/><text fill="#000000" font-family="sans-serif" font-size="11" lengthAdjust="spacingAndGlyphs" textLength="60" x="882.484" y="610.4189">number cost</text><line style="stroke: #A80036; stroke-width: 1.5;" x1="877.484" x2="973.484" y1="616.8359" y2="616.8359"/><text fill="#000000" font-family="sans-serif" font-size="11" lengthAdjust="spacingAndGlyphs" textLength="44" x="882.484" y="632.2549">confirm()</text><text fill="#000000" font-family="sans-serif" font-size="11" lengthAdjust="spacingAndGlyphs" textLength="39" x="882.484" y="646.0908">create()</text><text fill="#000000" font-family="sans-serif" font-size="11" lengthAdjust="spacingAndGlyphs" textLength="28" x="882.484" y="659.9268">free()</text><!--class i--><rect fill="#FEFECE" filter="url(#f15lj0z81smhqh)" height="117.1797" id="i" style="stroke: #A80036; stroke-width: 1.5;" width="200" x="279.484" y="145"/><ellipse cx="294.484" cy="161" fill="#B4A7E5" rx="11" ry="11" style="stroke: #A80036; stroke-width: 1.0;"/><path d="M295.4371,157.6406 L295.4371,164.2969 L297.1559,164.2969 Q297.7653,164.2969 298.0309,164.5313 Q298.2965,164.7656 298.2965,165.1563 Q298.2965,165.5313 298.0309,165.7656 Q297.7653,166 297.1559,166 L292.0153,166 Q291.4059,166 291.1403,165.7656 Q290.8746,165.5313 290.8746,165.1406 Q290.8746,164.7656 291.1403,164.5313 Q291.4059,164.2969 292.0153,164.2969 L293.734,164.2969 L293.734,157.6406 L292.0153,157.6406 Q291.4059,157.6406 291.1403,157.4063 Q290.8746,157.1719 290.8746,156.7813 Q290.8746,156.4063 291.1403,156.1719 Q291.4059,155.9375 292.0153,155.9375 L297.1559,155.9375 Q297.7653,155.9375 298.0309,156.1719 Q298.2965,156.4063 298.2965,156.7813 Q298.2965,157.1719 298.0309,157.4063 Q297.7653,157.6406 297.1559,157.6406 L295.4371,157.6406 Z "/><text fill="#000000" font-family="sans-serif" font-size="12" font-style="italic" lengthAdjust="spacingAndGlyphs" textLength="168" x="308.484" y="165.9102">Software Defined Infrastructure</text><line style="stroke: #A80036; stroke-width: 1.5;" x1="280.484" x2="478.484" y1="177" y2="177"/><line style="stroke: #A80036; stroke-width: 1.5;" x1="280.484" x2="478.484" y1="185" y2="185"/><text fill="#000000" font-family="sans-serif" font-size="11" lengthAdjust="spacingAndGlyphs" textLength="145" x="285.484" y="200.4189">/edgemere/sdi/checkrequest()</text><text fill="#000000" font-family="sans-serif" font-size="11" lengthAdjust="spacingAndGlyphs" textLength="117" x="285.484" y="214.2549">/edgemere/sdi/reserve()</text><text fill="#000000" font-family="sans-serif" font-size="11" lengthAdjust="spacingAndGlyphs" textLength="141" x="285.484" y="228.0908">/edgemere/sdi/resource/get()</text><text fill="#000000" font-family="sans-serif" font-size="11" lengthAdjust="spacingAndGlyphs" textLength="139" x="285.484" y="241.9268">/edgemere/sdi/resource/list()</text><text fill="#000000" font-family="sans-serif" font-size="11" lengthAdjust="spacingAndGlyphs" textLength="162" x="285.484" y="255.7627">/edgemere/sdi/resource/release()</text><!--class AcceleratorResource--><rect fill="#FEFECE" filter="url(#f15lj0z81smhqh)" height="131.0156" id="AcceleratorResource" style="stroke: #A80036; stroke-width: 1.5;" width="147" x="689.984" y="758"/><ellipse cx="704.984" cy="774" fill="#ADD1B2" rx="11" ry="11" style="stroke: #A80036; stroke-width: 1.0;"/><path d="M707.7496,769.875 Q707.9059,769.6563 708.0934,769.5469 Q708.2809,769.4375 708.4996,769.4375 Q708.8746,769.4375 709.109,769.7031 Q709.3434,769.9531 709.3434,770.5625 L709.3434,772.0156 Q709.3434,772.625 709.109,772.8906 Q708.8746,773.1563 708.4996,773.1563 Q708.1559,773.1563 707.9528,772.9531 Q707.7496,772.7656 707.6403,772.25 Q707.5934,771.8906 707.4059,771.7031 Q707.0778,771.3281 706.4684,771.1094 Q705.859,770.8906 705.234,770.8906 Q704.4684,770.8906 703.8278,771.2188 Q703.2028,771.5469 702.7028,772.2969 Q702.2184,773.0469 702.2184,774.0781 L702.2184,775.1719 Q702.2184,776.4063 703.109,777.2344 Q703.9996,778.0469 705.5934,778.0469 Q706.5309,778.0469 707.1871,777.7969 Q707.5778,777.6406 707.9996,777.2031 Q708.2653,776.9375 708.4059,776.8594 Q708.5621,776.7813 708.7653,776.7813 Q709.0934,776.7813 709.3434,777.0469 Q709.609,777.2969 709.609,777.6406 Q709.609,777.9844 709.2653,778.3906 Q708.7653,778.9688 707.9684,779.2969 Q706.8903,779.75 705.5934,779.75 Q704.0778,779.75 702.8746,779.125 Q701.8903,778.625 701.2028,777.5625 Q700.5153,776.4844 700.5153,775.2031 L700.5153,774.0469 Q700.5153,772.7188 701.1246,771.5781 Q701.7496,770.4219 702.8434,769.8125 Q703.9371,769.1875 705.1715,769.1875 Q705.9059,769.1875 706.5465,769.3594 Q707.2028,769.5156 707.7496,769.875 Z "/><text fill="#000000" font-family="sans-serif" font-size="12" lengthAdjust="spacingAndGlyphs" textLength="115" x="718.984" y="778.9102">AcceleratorResource</text><line style="stroke: #A80036; stroke-width: 1.5;" x1="690.984" x2="835.984" y1="790" y2="790"/><text fill="#000000" font-family="sans-serif" font-size="11" lengthAdjust="spacingAndGlyphs" textLength="56" x="695.984" y="805.4189">string name</text><text fill="#000000" font-family="sans-serif" font-size="11" lengthAdjust="spacingAndGlyphs" textLength="62" x="695.984" y="819.2549">string ename</text><text fill="#000000" font-family="sans-serif" font-size="11" lengthAdjust="spacingAndGlyphs" textLength="81" x="695.984" y="833.0908">boolean disabled</text><text fill="#000000" font-family="sans-serif" font-size="11" lengthAdjust="spacingAndGlyphs" textLength="51" x="695.984" y="846.9268">string type</text><line style="stroke: #A80036; stroke-width: 1.5;" x1="690.984" x2="835.984" y1="853.3438" y2="853.3438"/><text fill="#000000" font-family="sans-serif" font-size="11" lengthAdjust="spacingAndGlyphs" textLength="43" x="695.984" y="868.7627">factory()</text><text fill="#000000" font-family="sans-serif" font-size="11" lengthAdjust="spacingAndGlyphs" textLength="52" x="695.984" y="882.5986">provision()</text><!--class ComputeResource--><rect fill="#FEFECE" filter="url(#f15lj0z81smhqh)" height="131.0156" id="ComputeResource" style="stroke: #A80036; stroke-width: 1.5;" width="137" x="517.984" y="758"/><ellipse cx="532.984" cy="774" fill="#ADD1B2" rx="11" ry="11" style="stroke: #A80036; stroke-width: 1.0;"/><path d="M535.7496,769.875 Q535.9059,769.6563 536.0934,769.5469 Q536.2809,769.4375 536.4996,769.4375 Q536.8746,769.4375 537.109,769.7031 Q537.3434,769.9531 537.3434,770.5625 L537.3434,772.0156 Q537.3434,772.625 537.109,772.8906 Q536.8746,773.1563 536.4996,773.1563 Q536.1559,773.1563 535.9527,772.9531 Q535.7496,772.7656 535.6402,772.25 Q535.5934,771.8906 535.4059,771.7031 Q535.0777,771.3281 534.4684,771.1094 Q533.859,770.8906 533.234,770.8906 Q532.4684,770.8906 531.8277,771.2188 Q531.2027,771.5469 530.7027,772.2969 Q530.2184,773.0469 530.2184,774.0781 L530.2184,775.1719 Q530.2184,776.4063 531.109,777.2344 Q531.9996,778.0469 533.5934,778.0469 Q534.5309,778.0469 535.1871,777.7969 Q535.5777,777.6406 535.9996,777.2031 Q536.2652,776.9375 536.4059,776.8594 Q536.5621,776.7813 536.7652,776.7813 Q537.0934,776.7813 537.3434,777.0469 Q537.609,777.2969 537.609,777.6406 Q537.609,777.9844 537.2652,778.3906 Q536.7652,778.9688 535.9684,779.2969 Q534.8902,779.75 533.5934,779.75 Q532.0777,779.75 530.8746,779.125 Q529.8902,778.625 529.2027,777.5625 Q528.5152,776.4844 528.5152,775.2031 L528.5152,774.0469 Q528.5152,772.7188 529.1246,771.5781 Q529.7496,770.4219 530.8434,769.8125 Q531.9371,769.1875 533.1715,769.1875 Q533.9059,769.1875 534.5465,769.3594 Q535.2027,769.5156 535.7496,769.875 Z "/><text fill="#000000" font-family="sans-serif" font-size="12" lengthAdjust="spacingAndGlyphs" textLength="105" x="546.984" y="778.9102">ComputeResource</text><line style="stroke: #A80036; stroke-width: 1.5;" x1="518.984" x2="653.984" y1="790" y2="790"/><text fill="#000000" font-family="sans-serif" font-size="11" lengthAdjust="spacingAndGlyphs" textLength="56" x="523.984" y="805.4189">string name</text><text fill="#000000" font-family="sans-serif" font-size="11" lengthAdjust="spacingAndGlyphs" textLength="62" x="523.984" y="819.2549">string ename</text><text fill="#000000" font-family="sans-serif" font-size="11" lengthAdjust="spacingAndGlyphs" textLength="81" x="523.984" y="833.0908">boolean disabled</text><text fill="#000000" font-family="sans-serif" font-size="11" lengthAdjust="spacingAndGlyphs" textLength="51" x="523.984" y="846.9268">string type</text><line style="stroke: #A80036; stroke-width: 1.5;" x1="518.984" x2="653.984" y1="853.3438" y2="853.3438"/><text fill="#000000" font-family="sans-serif" font-size="11" lengthAdjust="spacingAndGlyphs" textLength="43" x="523.984" y="868.7627">factory()</text><text fill="#000000" font-family="sans-serif" font-size="11" lengthAdjust="spacingAndGlyphs" textLength="52" x="523.984" y="882.5986">provision()</text><!--class NetworkResource--><rect fill="#FEFECE" filter="url(#f15lj0z81smhqh)" height="131.0156" id="NetworkResource" style="stroke: #A80036; stroke-width: 1.5;" width="131" x="351.984" y="758"/><ellipse cx="366.984" cy="774" fill="#ADD1B2" rx="11" ry="11" style="stroke: #A80036; stroke-width: 1.0;"/><path d="M369.7496,769.875 Q369.9059,769.6563 370.0934,769.5469 Q370.2809,769.4375 370.4996,769.4375 Q370.8746,769.4375 371.109,769.7031 Q371.3434,769.9531 371.3434,770.5625 L371.3434,772.0156 Q371.3434,772.625 371.109,772.8906 Q370.8746,773.1563 370.4996,773.1563 Q370.1559,773.1563 369.9528,772.9531 Q369.7496,772.7656 369.6403,772.25 Q369.5934,771.8906 369.4059,771.7031 Q369.0778,771.3281 368.4684,771.1094 Q367.859,770.8906 367.234,770.8906 Q366.4684,770.8906 365.8278,771.2188 Q365.2028,771.5469 364.7028,772.2969 Q364.2184,773.0469 364.2184,774.0781 L364.2184,775.1719 Q364.2184,776.4063 365.109,777.2344 Q365.9996,778.0469 367.5934,778.0469 Q368.5309,778.0469 369.1871,777.7969 Q369.5778,777.6406 369.9996,777.2031 Q370.2653,776.9375 370.4059,776.8594 Q370.5621,776.7813 370.7653,776.7813 Q371.0934,776.7813 371.3434,777.0469 Q371.609,777.2969 371.609,777.6406 Q371.609,777.9844 371.2653,778.3906 Q370.7653,778.9688 369.9684,779.2969 Q368.8903,779.75 367.5934,779.75 Q366.0778,779.75 364.8746,779.125 Q363.8903,778.625 363.2028,777.5625 Q362.5153,776.4844 362.5153,775.2031 L362.5153,774.0469 Q362.5153,772.7188 363.1246,771.5781 Q363.7496,770.4219 364.8434,769.8125 Q365.9371,769.1875 367.1715,769.1875 Q367.9059,769.1875 368.5465,769.3594 Q369.2028,769.5156 369.7496,769.875 Z "/><text fill="#000000" font-family="sans-serif" font-size="12" lengthAdjust="spacingAndGlyphs" textLength="99" x="380.984" y="778.9102">NetworkResource</text><line style="stroke: #A80036; stroke-width: 1.5;" x1="352.984" x2="481.984" y1="790" y2="790"/><text fill="#000000" font-family="sans-serif" font-size="11" lengthAdjust="spacingAndGlyphs" textLength="56" x="357.984" y="805.4189">string name</text><text fill="#000000" font-family="sans-serif" font-size="11" lengthAdjust="spacingAndGlyphs" textLength="62" x="357.984" y="819.2549">string ename</text><text fill="#000000" font-family="sans-serif" font-size="11" lengthAdjust="spacingAndGlyphs" textLength="81" x="357.984" y="833.0908">boolean disabled</text><text fill="#000000" font-family="sans-serif" font-size="11" lengthAdjust="spacingAndGlyphs" textLength="51" x="357.984" y="846.9268">string type</text><line style="stroke: #A80036; stroke-width: 1.5;" x1="352.984" x2="481.984" y1="853.3438" y2="853.3438"/><text fill="#000000" font-family="sans-serif" font-size="11" lengthAdjust="spacingAndGlyphs" textLength="43" x="357.984" y="868.7627">factory()</text><text fill="#000000" font-family="sans-serif" font-size="11" lengthAdjust="spacingAndGlyphs" textLength="52" x="357.984" y="882.5986">provision()</text><!--class StorageResource--><rect fill="#FEFECE" filter="url(#f15lj0z81smhqh)" height="131.0156" id="StorageResource" style="stroke: #A80036; stroke-width: 1.5;" width="129" x="187.984" y="758"/><ellipse cx="202.984" cy="774" fill="#ADD1B2" rx="11" ry="11" style="stroke: #A80036; stroke-width: 1.0;"/><path d="M205.7496,769.875 Q205.9059,769.6563 206.0934,769.5469 Q206.2809,769.4375 206.4996,769.4375 Q206.8746,769.4375 207.109,769.7031 Q207.3434,769.9531 207.3434,770.5625 L207.3434,772.0156 Q207.3434,772.625 207.109,772.8906 Q206.8746,773.1563 206.4996,773.1563 Q206.1559,773.1563 205.9528,772.9531 Q205.7496,772.7656 205.6403,772.25 Q205.5934,771.8906 205.4059,771.7031 Q205.0778,771.3281 204.4684,771.1094 Q203.859,770.8906 203.234,770.8906 Q202.4684,770.8906 201.8278,771.2188 Q201.2028,771.5469 200.7028,772.2969 Q200.2184,773.0469 200.2184,774.0781 L200.2184,775.1719 Q200.2184,776.4063 201.109,777.2344 Q201.9996,778.0469 203.5934,778.0469 Q204.5309,778.0469 205.1871,777.7969 Q205.5778,777.6406 205.9996,777.2031 Q206.2653,776.9375 206.4059,776.8594 Q206.5621,776.7813 206.7653,776.7813 Q207.0934,776.7813 207.3434,777.0469 Q207.609,777.2969 207.609,777.6406 Q207.609,777.9844 207.2653,778.3906 Q206.7653,778.9688 205.9684,779.2969 Q204.8903,779.75 203.5934,779.75 Q202.0778,779.75 200.8746,779.125 Q199.8903,778.625 199.2028,777.5625 Q198.5153,776.4844 198.5153,775.2031 L198.5153,774.0469 Q198.5153,772.7188 199.1246,771.5781 Q199.7496,770.4219 200.8434,769.8125 Q201.9371,769.1875 203.1715,769.1875 Q203.9059,769.1875 204.5465,769.3594 Q205.2028,769.5156 205.7496,769.875 Z "/><text fill="#000000" font-family="sans-serif" font-size="12" lengthAdjust="spacingAndGlyphs" textLength="97" x="216.984" y="778.9102">StorageResource</text><line style="stroke: #A80036; stroke-width: 1.5;" x1="188.984" x2="315.984" y1="790" y2="790"/><text fill="#000000" font-family="sans-serif" font-size="11" lengthAdjust="spacingAndGlyphs" textLength="56" x="193.984" y="805.4189">string name</text><text fill="#000000" font-family="sans-serif" font-size="11" lengthAdjust="spacingAndGlyphs" textLength="62" x="193.984" y="819.2549">string ename</text><text fill="#000000" font-family="sans-serif" font-size="11" lengthAdjust="spacingAndGlyphs" textLength="81" x="193.984" y="833.0908">boolean disabled</text><text fill="#000000" font-family="sans-serif" font-size="11" lengthAdjust="spacingAndGlyphs" textLength="51" x="193.984" y="846.9268">string type</text><line style="stroke: #A80036; stroke-width: 1.5;" x1="188.984" x2="315.984" y1="853.3438" y2="853.3438"/><text fill="#000000" font-family="sans-serif" font-size="11" lengthAdjust="spacingAndGlyphs" textLength="43" x="193.984" y="868.7627">factory()</text><text fill="#000000" font-family="sans-serif" font-size="11" lengthAdjust="spacingAndGlyphs" textLength="52" x="193.984" y="882.5986">provision()</text><!--class ServiceInstance--><rect fill="#FEFECE" filter="url(#f15lj0z81smhqh)" height="48" id="ServiceInstance" style="stroke: #A80036; stroke-width: 1.5;" width="119" x="154.984" y="1023"/><ellipse cx="169.984" cy="1039" fill="#ADD1B2" rx="11" ry="11" style="stroke: #A80036; stroke-width: 1.0;"/><path d="M172.7496,1034.875 Q172.9059,1034.6563 173.0934,1034.5469 Q173.2809,1034.4375 173.4996,1034.4375 Q173.8746,1034.4375 174.109,1034.7031 Q174.3434,1034.9531 174.3434,1035.5625 L174.3434,1037.0156 Q174.3434,1037.625 174.109,1037.8906 Q173.8746,1038.1563 173.4996,1038.1563 Q173.1559,1038.1563 172.9528,1037.9531 Q172.7496,1037.7656 172.6403,1037.25 Q172.5934,1036.8906 172.4059,1036.7031 Q172.0778,1036.3281 171.4684,1036.1094 Q170.859,1035.8906 170.234,1035.8906 Q169.4684,1035.8906 168.8278,1036.2188 Q168.2028,1036.5469 167.7028,1037.2969 Q167.2184,1038.0469 167.2184,1039.0781 L167.2184,1040.1719 Q167.2184,1041.4063 168.109,1042.2344 Q168.9996,1043.0469 170.5934,1043.0469 Q171.5309,1043.0469 172.1871,1042.7969 Q172.5778,1042.6406 172.9996,1042.2031 Q173.2653,1041.9375 173.4059,1041.8594 Q173.5621,1041.7813 173.7653,1041.7813 Q174.0934,1041.7813 174.3434,1042.0469 Q174.609,1042.2969 174.609,1042.6406 Q174.609,1042.9844 174.2653,1043.3906 Q173.7653,1043.9688 172.9684,1044.2969 Q171.8903,1044.75 170.5934,1044.75 Q169.0778,1044.75 167.8746,1044.125 Q166.8903,1043.625 166.2028,1042.5625 Q165.5153,1041.4844 165.5153,1040.2031 L165.5153,1039.0469 Q165.5153,1037.7188 166.1246,1036.5781 Q166.7496,1035.4219 167.8434,1034.8125 Q168.9371,1034.1875 170.1715,1034.1875 Q170.9059,1034.1875 171.5465,1034.3594 Q172.2028,1034.5156 172.7496,1034.875 Z "/><text fill="#000000" font-family="sans-serif" font-size="12" lengthAdjust="spacingAndGlyphs" textLength="87" x="183.984" y="1043.9102">ServiceInstance</text><line style="stroke: #A80036; stroke-width: 1.5;" x1="155.984" x2="272.984" y1="1055" y2="1055"/><line style="stroke: #A80036; stroke-width: 1.5;" x1="155.984" x2="272.984" y1="1063" y2="1063"/><!--class CloudType--><rect fill="#FEFECE" filter="url(#f15lj0z81smhqh)" height="48" id="CloudType" style="stroke: #A80036; stroke-width: 1.5;" width="91" x="1222.98" y="590.5"/><ellipse cx="1237.98" cy="606.5" fill="#ADD1B2" rx="11" ry="11" style="stroke: #A80036; stroke-width: 1.0;"/><path d="M1240.7456,602.375 Q1240.9019,602.1563 1241.0894,602.0469 Q1241.2769,601.9375 1241.4956,601.9375 Q1241.8706,601.9375 1242.105,602.2031 Q1242.3394,602.4531 1242.3394,603.0625 L1242.3394,604.5156 Q1242.3394,605.125 1242.105,605.3906 Q1241.8706,605.6563 1241.4956,605.6563 Q1241.1519,605.6563 1240.9488,605.4531 Q1240.7456,605.2656 1240.6363,604.75 Q1240.5894,604.3906 1240.4019,604.2031 Q1240.0738,603.8281 1239.4644,603.6094 Q1238.855,603.3906 1238.23,603.3906 Q1237.4644,603.3906 1236.8238,603.7188 Q1236.1988,604.0469 1235.6988,604.7969 Q1235.2144,605.5469 1235.2144,606.5781 L1235.2144,607.6719 Q1235.2144,608.9063 1236.105,609.7344 Q1236.9956,610.5469 1238.5894,610.5469 Q1239.5269,610.5469 1240.1831,610.2969 Q1240.5738,610.1406 1240.9956,609.7031 Q1241.2613,609.4375 1241.4019,609.3594 Q1241.5581,609.2813 1241.7613,609.2813 Q1242.0894,609.2813 1242.3394,609.5469 Q1242.605,609.7969 1242.605,610.1406 Q1242.605,610.4844 1242.2613,610.8906 Q1241.7613,611.4688 1240.9644,611.7969 Q1239.8863,612.25 1238.5894,612.25 Q1237.0738,612.25 1235.8706,611.625 Q1234.8863,611.125 1234.1988,610.0625 Q1233.5113,608.9844 1233.5113,607.7031 L1233.5113,606.5469 Q1233.5113,605.2188 1234.1206,604.0781 Q1234.7456,602.9219 1235.8394,602.3125 Q1236.9331,601.6875 1238.1675,601.6875 Q1238.9019,601.6875 1239.5425,601.8594 Q1240.1988,602.0156 1240.7456,602.375 Z "/><text fill="#000000" font-family="sans-serif" font-size="12" lengthAdjust="spacingAndGlyphs" textLength="59" x="1251.98" y="611.4102">CloudType</text><line style="stroke: #A80036; stroke-width: 1.5;" x1="1223.98" x2="1312.98" y1="622.5" y2="622.5"/><line style="stroke: #A80036; stroke-width: 1.5;" x1="1223.98" x2="1312.98" y1="630.5" y2="630.5"/><ellipse cx="334.484" cy="13" fill="#FEFECE" filter="url(#f15lj0z81smhqh)" rx="5" ry="5" style="stroke: #A80036; stroke-width: 1.5;"/><text fill="#000000" font-family="sans-serif" font-size="12" lengthAdjust="spacingAndGlyphs" textLength="19" x="324.984" y="30.457">CLI</text><ellipse cx="379.484" cy="13" fill="#FEFECE" filter="url(#f15lj0z81smhqh)" rx="5" ry="5" style="stroke: #A80036; stroke-width: 1.5;"/><text fill="#000000" font-family="sans-serif" font-size="12" lengthAdjust="spacingAndGlyphs" textLength="32" x="363.484" y="30.457">REST</text><ellipse cx="424.484" cy="13" fill="#FEFECE" filter="url(#f15lj0z81smhqh)" rx="5" ry="5" style="stroke: #A80036; stroke-width: 1.5;"/><text fill="#000000" font-family="sans-serif" font-size="12" lengthAdjust="spacingAndGlyphs" textLength="25" x="411.984" y="30.457">Web</text><!--link ilol7652 to i--><path d="M335.423,17.94 C339.286,34.12 354.269,96.88 365.701,144.767 " fill="none" id="ilol7652-i" style="stroke: #A80036; stroke-width: 1.0;"/><!--link ilol7655 to i--><path d="M379.484,18.29 C379.484,35.01 379.484,97.18 379.484,144.713 " fill="none" id="ilol7655-i" style="stroke: #A80036; stroke-width: 1.0;"/><!--link ilol7658 to i--><path d="M423.544,17.94 C419.682,34.12 404.698,96.88 393.266,144.767 " fill="none" id="ilol7658-i" style="stroke: #A80036; stroke-width: 1.0;"/><!--link AcceleratorResource to Request--><path d="M759.56,744.556 C754.944,667.963 746.132,560.55 732.484,546.5 C671.804,484.037 595.577,584.757 538.484,519 C533.239,512.959 534.172,507.739 538.484,501 C555.632,474.199 583.501,495.759 603.484,471 C632.942,434.5 614.367,413.313 626.484,368 C632.257,346.408 633.108,340.722 641.484,320 C644.401,312.783 647.592,305.401 650.93,298.031 " fill="none" id="AcceleratorResource-Request" style="stroke: #A80036; stroke-width: 1.0;"/><polygon fill="#A80036" points="656.469,286.083,649.0546,292.5658,654.366,290.6192,656.3125,295.9306,656.469,286.083" style="stroke: #A80036; stroke-width: 1.0;"/><line style="stroke: #A80036; stroke-width: 1.0;" x1="654.366" x2="651.0015" y1="290.6192" y2="297.878"/><polygon fill="#FFFFFF" points="760.346,757.992,763.9884,751.7684,759.6444,746.0125,756.0021,752.2361,760.346,757.992" style="stroke: #A80036; stroke-width: 1.0;"/><text fill="#000000" font-family="sans-serif" font-size="13" lengthAdjust="spacingAndGlyphs" textLength="43" x="539.484" y="515.4951">request</text><text fill="#000000" font-family="sans-serif" font-size="13" lengthAdjust="spacingAndGlyphs" textLength="7" x="641.4742" y="296.4682">1</text><!--link AcceleratorResource to PhysicalProfile--><path d="M807.876,900.404 C819.482,918.725 832.421,937.931 845.484,955 C861.103,975.41 880.451,996.601 896.64,1013.394 " fill="none" id="AcceleratorResource-PhysicalProfile" style="stroke: #A80036; stroke-width: 1.0;"/><polygon fill="#A80036" points="905.755,1022.7332,902.3312,1013.4986,902.2626,1019.1551,896.6061,1019.0865,905.755,1022.7332" style="stroke: #A80036; stroke-width: 1.0;"/><line style="stroke: #A80036; stroke-width: 1.0;" x1="902.2626" x2="896.675" y1="1019.1551" y2="1013.429"/><polygon fill="#A80036" points="800.832,889.137,800.621,896.345,807.1934,899.3121,807.4044,892.1041,800.832,889.137" style="stroke: #A80036; stroke-width: 1.0;"/><text fill="#000000" font-family="sans-serif" font-size="13" lengthAdjust="spacingAndGlyphs" textLength="34" x="846.484" y="951.4951">profile</text><text fill="#000000" font-family="sans-serif" font-size="13" lengthAdjust="spacingAndGlyphs" textLength="7" x="891.7776" y="1012.0047">1</text><!--link AcceleratorResource to Hardware--><path d="M820.874,898.608 C833.855,910.775 848.561,921.758 864.484,929 C896.081,943.371 992.216,916.854 1020.48,937 C1043.9,953.689 1054.87,985.028 1060,1009.835 " fill="none" id="AcceleratorResource-Hardware" style="stroke: #A80036; stroke-width: 1.0;"/><polygon fill="#A80036" points="1062.29,1022.8092,1064.6632,1013.2505,1061.4201,1017.8855,1056.7852,1014.6424,1062.29,1022.8092" style="stroke: #A80036; stroke-width: 1.0;"/><line style="stroke: #A80036; stroke-width: 1.0;" x1="1061.4201" x2="1060.03" y1="1017.8855" y2="1010.0075"/><polygon fill="#FFFFFF" points="811.293,889.115,812.7407,896.1793,819.8184,897.56,818.3707,890.4957,811.293,889.115" style="stroke: #A80036; stroke-width: 1.0;"/><text fill="#000000" font-family="sans-serif" font-size="13" lengthAdjust="spacingAndGlyphs" textLength="52" x="1039.48" y="951.4951">hardware</text><text fill="#000000" font-family="sans-serif" font-size="13" lengthAdjust="spacingAndGlyphs" textLength="7" x="1053.8319" y="1012.1002">n</text><!--link AcceleratorResource to ServiceInstance--><path d="M712.579,899.111 C700.866,911.123 687.404,921.92 672.484,929 C647.174,941.009 447.562,929.82 420.484,937 C388.735,945.419 314.403,986.999 264.268,1016.293 " fill="none" id="AcceleratorResource-ServiceInstance" style="stroke: #A80036; stroke-width: 1.0;"/><polygon fill="#A80036" points="253.025,1022.894,262.8114,1021.787,257.3369,1020.3626,258.7612,1014.888,253.025,1022.894" style="stroke: #A80036; stroke-width: 1.0;"/><line style="stroke: #A80036; stroke-width: 1.0;" x1="257.3369" x2="264.2355" y1="1020.3626" y2="1016.3127"/><polygon fill="#FFFFFF" points="721.592,889.265,714.5901,890.9894,713.4888,898.1159,720.4907,896.3915,721.592,889.265" style="stroke: #A80036; stroke-width: 1.0;"/><text fill="#000000" font-family="sans-serif" font-size="13" lengthAdjust="spacingAndGlyphs" textLength="56" x="421.484" y="951.4951">instances</text><text fill="#000000" font-family="sans-serif" font-size="13" lengthAdjust="spacingAndGlyphs" textLength="7" x="255.0043" y="1012.207">n</text><!--link AcceleratorResource to Cloud--><path d="M773.353,744.845 C778.753,677.901 779.106,579.864 748.484,501 C743.546,488.283 735.748,476.107 727.19,465.245 " fill="none" id="AcceleratorResource-Cloud" style="stroke: #A80036; stroke-width: 1.0;"/><polygon fill="#A80036" points="718.821,455.26,721.5364,464.7271,722.0327,459.0921,727.6678,459.5884,718.821,455.26" style="stroke: #A80036; stroke-width: 1.0;"/><line style="stroke: #A80036; stroke-width: 1.0;" x1="722.0327" x2="727.172" y1="459.0921" y2="465.2235"/><polygon fill="#FFFFFF" points="772.214,757.805,776.7241,752.1784,773.265,745.8511,768.7549,751.4777,772.214,757.805" style="stroke: #A80036; stroke-width: 1.0;"/><text fill="#000000" font-family="sans-serif" font-size="13" lengthAdjust="spacingAndGlyphs" textLength="31" x="777.484" y="619.9951">cloud</text><text fill="#000000" font-family="sans-serif" font-size="13" lengthAdjust="spacingAndGlyphs" textLength="7" x="726.6056" y="458.0476">1</text><!--link Resource to AcceleratorResource--><path d="M612.626,675.2 C639.16,701.109 670.292,731.507 697.362,757.938 " fill="none" id="Resource-AcceleratorResource" style="stroke: #A80036; stroke-width: 1.0;"/><polygon fill="none" points="607.427,679.908,598.008,660.927,617.208,669.891,607.427,679.908" style="stroke: #A80036; stroke-width: 1.0;"/><!--link Cloud to CloudType--><path d="M729.607,463.109 C734.733,466.198 740.061,468.914 745.484,471 C839.021,506.99 1109.06,450.258 1195.48,501 C1224.64,518.12 1244.21,552.024 1255.69,578.157 " fill="none" id="Cloud-CloudType" style="stroke: #A80036; stroke-width: 1.0;"/><polygon fill="#A80036" points="1260.68,590.255,1260.949,580.4098,1258.7749,585.6322,1253.5525,583.458,1260.68,590.255" style="stroke: #A80036; stroke-width: 1.0;"/><line style="stroke: #A80036; stroke-width: 1.0;" x1="1258.7749" x2="1255.72" y1="585.6322" y2="578.237"/><polygon fill="#FFFFFF" points="718.752,455.848,721.5156,462.5085,728.7267,462.5193,725.9631,455.8588,718.752,455.848" style="stroke: #A80036; stroke-width: 1.0;"/><text fill="#000000" font-family="sans-serif" font-size="13" lengthAdjust="spacingAndGlyphs" textLength="25" x="1219.48" y="515.4951">type</text><text fill="#000000" font-family="sans-serif" font-size="13" lengthAdjust="spacingAndGlyphs" textLength="7" x="1250.7844" y="579.5324">1</text><!--link Cloud to Resource--><path d="M660.862,483.333 C655.675,495.596 649.537,508.038 642.484,519 C632.665,534.259 620.145,549.172 607.556,562.477 " fill="none" id="Cloud-Resource" style="stroke: #A80036; stroke-width: 1.0;"/><polygon fill="#A80036" points="598.414,571.863,607.5592,568.2071,601.9028,568.2813,601.8285,562.625,598.414,571.863" style="stroke: #A80036; stroke-width: 1.0;"/><line style="stroke: #A80036; stroke-width: 1.0;" x1="601.9028" x2="607.4845" y1="568.2813" y2="562.55"/><polygon fill="#A80036" points="665.732,471.192,659.7862,475.2721,661.2655,482.3298,667.2114,478.2497,665.732,471.192" style="stroke: #A80036; stroke-width: 1.0;"/><text fill="#000000" font-family="sans-serif" font-size="13" lengthAdjust="spacingAndGlyphs" textLength="57" x="653.484" y="515.4951">resources</text><text fill="#000000" font-family="sans-serif" font-size="13" lengthAdjust="spacingAndGlyphs" textLength="7" x="606.1361" y="561.63">n</text><!--link Resource to Cloud--><path d="M580.95,536.972 C587.009,524.527 593.89,512.093 601.484,501 C610.968,487.144 623.003,473.593 634.839,461.679 " fill="none" id="Resource-Cloud" style="stroke: #A80036; stroke-width: 1.0;"/><polygon fill="#A80036" points="644.237,452.5,635.0035,455.9267,640.66,455.9935,640.5931,461.65,644.237,452.5" style="stroke: #A80036; stroke-width: 1.0;"/><line style="stroke: #A80036; stroke-width: 1.0;" x1="640.66" x2="634.937" y1="455.9935" y2="461.583"/><polygon fill="#FFFFFF" points="575.396,548.865,581.5593,545.1215,580.4742,537.9925,574.3109,541.736,575.396,548.865" style="stroke: #A80036; stroke-width: 1.0;"/><text fill="#000000" font-family="sans-serif" font-size="13" lengthAdjust="spacingAndGlyphs" textLength="31" x="602.484" y="515.4951">cloud</text><text fill="#000000" font-family="sans-serif" font-size="13" lengthAdjust="spacingAndGlyphs" textLength="7" x="629.4696" y="454.7615">1</text><!--link Cloud to Device--><path d="M729.935,454.424 C740.609,460.716 752.128,466.663 763.484,471 C833.93,497.909 861.302,470.989 930.484,501 C1048.86,552.353 1005.741,654.052 1111.48,728 C1145,751.44 1174.74,724.697 1198.48,758 C1252.73,834.09 1216.85,952.064 1193.32,1010.587 " fill="none" id="Cloud-Device" style="stroke: #A80036; stroke-width: 1.0;"/><polygon fill="#A80036" points="1188.24,1022.8008,1195.3904,1016.0279,1190.1607,1018.1844,1188.0042,1012.9548,1188.24,1022.8008" style="stroke: #A80036; stroke-width: 1.0;"/><line style="stroke: #A80036; stroke-width: 1.0;" x1="1190.1607" x2="1193.24" y1="1018.1844" y2="1010.7975"/><polygon fill="#FFFFFF" points="718.732,447.52,721.7419,454.0729,728.9484,453.8149,725.9385,447.262,718.732,447.52" style="stroke: #A80036; stroke-width: 1.0;"/><text fill="#000000" font-family="sans-serif" font-size="13" lengthAdjust="spacingAndGlyphs" textLength="43" x="1112.48" y="724.4951">devices</text><text fill="#000000" font-family="sans-serif" font-size="13" lengthAdjust="spacingAndGlyphs" textLength="7" x="1191.8941" y="1012.0902">n</text><!--link Cloud to AggregatedDevice--><path d="M729.731,454.983 C740.42,461.237 751.996,467.027 763.484,471 C918.806,524.723 1002.6,437.363 1125.48,546.5 C1177.37,592.585 1154.86,633.621 1206.48,680 C1229.85,700.993 1247.86,688.203 1270.48,710 C1361.32,797.523 1413.29,943.09 1433.54,1010.156 " fill="none" id="Cloud-AggregatedDevice" style="stroke: #A80036; stroke-width: 1.0;"/><polygon fill="#A80036" points="1437.28,1022.855,1438.5766,1013.0919,1435.8685,1018.0584,1430.902,1015.3503,1437.28,1022.855" style="stroke: #A80036; stroke-width: 1.0;"/><line style="stroke: #A80036; stroke-width: 1.0;" x1="1435.8685" x2="1433.605" y1="1018.0584" y2="1010.3835"/><polygon fill="#FFFFFF" points="718.528,448.079,721.5369,454.6324,728.7434,454.3755,725.7345,447.8221,718.528,448.079" style="stroke: #A80036; stroke-width: 1.0;"/><text fill="#000000" font-family="sans-serif" font-size="13" lengthAdjust="spacingAndGlyphs" textLength="50" x="1288.48" y="724.4951">adevices</text><text fill="#000000" font-family="sans-serif" font-size="13" lengthAdjust="spacingAndGlyphs" textLength="7" x="1427.7944" y="1012.158">n</text><!--link Cloud to DataCenter--><path d="M729.82,454.732 C740.502,461.003 752.054,466.863 763.484,471 C889.122,516.475 956.236,455.943 1054.48,546.5 C1106.92,594.83 1096.92,625.988 1143.48,680 C1164.23,704.071 1171.62,708.202 1196.48,728 C1214.71,742.517 1226.81,738.447 1239.48,758 C1290.65,836.919 1296.61,951.942 1295.96,1009.844 " fill="none" id="Cloud-DataCenter" style="stroke: #A80036; stroke-width: 1.0;"/><polygon fill="#A80036" points="1295.69,1022.9489,1299.876,1014.0339,1295.7938,1017.95,1291.8777,1013.8678,1295.69,1022.9489" style="stroke: #A80036; stroke-width: 1.0;"/><line style="stroke: #A80036; stroke-width: 1.0;" x1="1295.7938" x2="1295.96" y1="1017.95" y2="1009.9515"/><polygon fill="#FFFFFF" points="718.617,447.828,721.6265,454.3811,728.833,454.1235,725.8235,447.5704,718.617,447.828" style="stroke: #A80036; stroke-width: 1.0;"/><text fill="#000000" font-family="sans-serif" font-size="13" lengthAdjust="spacingAndGlyphs" textLength="68" x="1197.48" y="724.4951">datacenters</text><text fill="#000000" font-family="sans-serif" font-size="13" lengthAdjust="spacingAndGlyphs" textLength="7" x="1288.1032" y="1012.2761">n</text><!--link Cloud to Reservation--><path d="M729.286,460.827 C734.594,464.506 740.048,467.978 745.484,471 C779.766,490.061 796.178,478.754 828.484,501 C848.735,514.945 867.356,534.108 882.753,552.667 " fill="none" id="Cloud-Reservation" style="stroke: #A80036; stroke-width: 1.0;"/><polygon fill="#A80036" points="890.964,562.879,888.4414,553.3587,887.8308,558.9825,882.2069,558.3719,890.964,562.879" style="stroke: #A80036; stroke-width: 1.0;"/><line style="stroke: #A80036; stroke-width: 1.0;" x1="887.8308" x2="882.8175" y1="558.9825" y2="552.748"/><polygon fill="#A80036" points="718.652,453.063,721.1394,459.8315,728.3439,460.1388,725.8566,453.3702,718.652,453.063" style="stroke: #A80036; stroke-width: 1.0;"/><text fill="#000000" font-family="sans-serif" font-size="13" lengthAdjust="spacingAndGlyphs" textLength="69" x="852.484" y="515.4951">reservations</text><text fill="#000000" font-family="sans-serif" font-size="13" lengthAdjust="spacingAndGlyphs" textLength="7" x="878.6174" y="551.9905">n</text><!--link Reservation to Cloud--><path d="M865.892,558.062 C860.497,553.945 854.988,550.028 849.484,546.5 C824.105,530.233 812.647,535.598 787.484,519 C766.428,505.111 745.583,486.965 728.022,470.037 " fill="none" id="Reservation-Cloud" style="stroke: #A80036; stroke-width: 1.0;"/><polygon fill="#A80036" points="718.624,460.793,722.2358,469.9557,722.1888,464.299,727.8455,464.252,718.624,460.793" style="stroke: #A80036; stroke-width: 1.0;"/><line style="stroke: #A80036; stroke-width: 1.0;" x1="722.1888" x2="727.8915" y1="464.299" y2="469.909"/><polygon fill="#FFFFFF" points="876.096,566.178,873.8898,559.3127,866.704,558.7087,868.9102,565.574,876.096,566.178" style="stroke: #A80036; stroke-width: 1.0;"/><text fill="#000000" font-family="sans-serif" font-size="13" lengthAdjust="spacingAndGlyphs" textLength="31" x="788.484" y="515.4951">cloud</text><text fill="#000000" font-family="sans-serif" font-size="13" lengthAdjust="spacingAndGlyphs" textLength="7" x="726.371" y="483.6853">1</text><!--link Cloud to Request--><path d="M651.633,355.103 C649.027,343.534 648.148,331.488 650.484,320 C651.65,314.262 653.113,308.455 654.795,302.658 " fill="none" id="Cloud-Request" style="stroke: #A80036; stroke-width: 1.0;"/><polygon fill="#A80036" points="658.801,290.011,652.2699,297.3829,657.2911,294.7776,659.8964,299.7988,658.801,290.011" style="stroke: #A80036; stroke-width: 1.0;"/><line style="stroke: #A80036; stroke-width: 1.0;" x1="657.2911" x2="654.8755" y1="294.7776" y2="302.404"/><polygon fill="#A80036" points="655.228,367.907,657.4571,361.0491,651.984,356.3538,649.7549,363.2117,655.228,367.907" style="stroke: #A80036; stroke-width: 1.0;"/><text fill="#000000" font-family="sans-serif" font-size="13" lengthAdjust="spacingAndGlyphs" textLength="50" x="651.484" y="334.4951">requests</text><text fill="#000000" font-family="sans-serif" font-size="13" lengthAdjust="spacingAndGlyphs" textLength="7" x="648.2802" y="311.0705">n</text><!--link Request to Cloud--><path d="M709.155,303.376 C708.975,315.08 708.178,326.83 706.484,338 C705.621,343.688 704.433,349.527 703.041,355.338 " fill="none" id="Request-Cloud" style="stroke: #A80036; stroke-width: 1.0;"/><polygon fill="#A80036" points="699.714,367.94,705.8788,360.2592,700.9903,363.1056,698.1439,358.2171,699.714,367.94" style="stroke: #A80036; stroke-width: 1.0;"/><line style="stroke: #A80036; stroke-width: 1.0;" x1="700.9903" x2="703.0325" y1="363.1056" y2="355.3705"/><polygon fill="#FFFFFF" points="709.11,290.214,705.1305,296.2276,709.1509,302.2139,713.1304,296.2003,709.11,290.214" style="stroke: #A80036; stroke-width: 1.0;"/><text fill="#000000" font-family="sans-serif" font-size="13" lengthAdjust="spacingAndGlyphs" textLength="31" x="709.484" y="334.4951">cloud</text><text fill="#000000" font-family="sans-serif" font-size="13" lengthAdjust="spacingAndGlyphs" textLength="7" x="694.7854" y="357.06">1</text><!--link ComputeResource to Request--><path d="M507.531,763.264 C456.453,724.844 399.288,681.619 398.484,680 C336.618,555.478 369.159,496.822 421.484,368 C431.519,343.294 436.854,336.898 457.484,320 C513.877,273.806 591.825,240.91 643.859,222.326 " fill="none" id="ComputeResource-Request" style="stroke: #A80036; stroke-width: 1.0;"/><polygon fill="#A80036" points="656.175,218.022,646.3592,217.2151,651.4549,219.6715,648.9985,224.7672,656.175,218.022" style="stroke: #A80036; stroke-width: 1.0;"/><line style="stroke: #A80036; stroke-width: 1.0;" x1="651.4549" x2="643.903" y1="219.6715" y2="222.311"/><polygon fill="#FFFFFF" points="517.981,771.121,515.5895,764.318,508.39,763.909,510.7815,770.712,517.981,771.121" style="stroke: #A80036; stroke-width: 1.0;"/><text fill="#000000" font-family="sans-serif" font-size="13" lengthAdjust="spacingAndGlyphs" textLength="43" x="373.484" y="515.4951">request</text><text fill="#000000" font-family="sans-serif" font-size="13" lengthAdjust="spacingAndGlyphs" textLength="7" x="641.4223" y="235.3159">1</text><!--link ComputeResource to PhysicalProfile--><path d="M635.672,899.103 C646.485,910.761 658.838,921.433 672.484,929 C696.396,942.26 707.52,928.426 733.484,937 C789.271,955.423 847.387,989.997 885.705,1015.281 " fill="none" id="ComputeResource-PhysicalProfile" style="stroke: #A80036; stroke-width: 1.0;"/><polygon fill="#A80036" points="896.937,1022.8017,891.6841,1014.4706,892.7823,1020.0198,887.2331,1021.1181,896.937,1022.8017" style="stroke: #A80036; stroke-width: 1.0;"/><line style="stroke: #A80036; stroke-width: 1.0;" x1="892.7823" x2="886.1355" y1="1020.0198" y2="1015.5688"/><polygon fill="#A80036" points="626.957,889.124,627.8917,896.2743,634.8514,898.1616,633.9167,891.0113,626.957,889.124" style="stroke: #A80036; stroke-width: 1.0;"/><text fill="#000000" font-family="sans-serif" font-size="13" lengthAdjust="spacingAndGlyphs" textLength="34" x="774.484" y="951.4951">profile</text><text fill="#000000" font-family="sans-serif" font-size="13" lengthAdjust="spacingAndGlyphs" textLength="7" x="880.7" y="1012.0914">1</text><!--link ComputeResource to Hardware--><path d="M634.019,898.992 C645.14,911.014 658.027,921.846 672.484,929 C694.108,939.701 865.613,933.49 889.484,937 C920.839,941.611 927.524,948.221 958.484,955 C978.327,959.345 986.235,952.27 1003.484,963 C1022.11,974.589 1036.9,994.133 1047.24,1011.346 " fill="none" id="ComputeResource-Hardware" style="stroke: #A80036; stroke-width: 1.0;"/><polygon fill="#A80036" points="1053.69,1022.7634,1052.7514,1012.9594,1051.2331,1018.4087,1045.7838,1016.8904,1053.69,1022.7634" style="stroke: #A80036; stroke-width: 1.0;"/><line style="stroke: #A80036; stroke-width: 1.0;" x1="1051.2331" x2="1047.295" y1="1018.4087" y2="1011.443"/><polygon fill="#FFFFFF" points="625.484,889.142,626.3908,896.2959,633.3431,898.2103,632.4363,891.0565,625.484,889.142" style="stroke: #A80036; stroke-width: 1.0;"/><text fill="#000000" font-family="sans-serif" font-size="13" lengthAdjust="spacingAndGlyphs" textLength="52" x="959.484" y="951.4951">hardware</text><text fill="#000000" font-family="sans-serif" font-size="13" lengthAdjust="spacingAndGlyphs" textLength="7" x="1043.0282" y="1012.0424">n</text><!--link ComputeResource to ServiceInstance--><path d="M538.919,898.934 C527.801,910.961 514.922,921.81 500.484,929 C462.456,947.937 347.775,918.603 309.484,937 C276.52,952.838 250.308,985.95 233.838,1011.547 " fill="none" id="ComputeResource-ServiceInstance" style="stroke: #A80036; stroke-width: 1.0;"/><polygon fill="#A80036" points="226.968,1022.6894,235.0963,1017.1279,229.5922,1018.4334,228.2867,1012.9292,226.968,1022.6894" style="stroke: #A80036; stroke-width: 1.0;"/><line style="stroke: #A80036; stroke-width: 1.0;" x1="229.5922" x2="233.791" y1="1018.4334" y2="1011.624"/><polygon fill="#FFFFFF" points="547.453,889.082,540.5011,890.9981,539.596,898.1522,546.5479,896.2361,547.453,889.082" style="stroke: #A80036; stroke-width: 1.0;"/><text fill="#000000" font-family="sans-serif" font-size="13" lengthAdjust="spacingAndGlyphs" textLength="56" x="310.484" y="951.4951">instances</text><text fill="#000000" font-family="sans-serif" font-size="13" lengthAdjust="spacingAndGlyphs" textLength="7" x="222.2701" y="1011.9495">n</text><!--link ComputeResource to Cloud--><path d="M630.424,746.369 C662.2,686.702 702.426,600.424 719.484,519 C721.94,507.275 720.665,495.116 717.404,483.51 " fill="none" id="ComputeResource-Cloud" style="stroke: #A80036; stroke-width: 1.0;"/><polygon fill="#A80036" points="713.169,471.179,712.3096,480.9903,714.7933,475.9078,719.8757,478.3915,713.169,471.179" style="stroke: #A80036; stroke-width: 1.0;"/><line style="stroke: #A80036; stroke-width: 1.0;" x1="714.7933" x2="717.392" y1="475.9078" y2="483.474"/><polygon fill="#FFFFFF" points="624.191,757.938,630.5581,754.5527,629.8821,747.3734,623.515,750.7587,624.191,757.938" style="stroke: #A80036; stroke-width: 1.0;"/><text fill="#000000" font-family="sans-serif" font-size="13" lengthAdjust="spacingAndGlyphs" textLength="31" x="714.484" y="619.9951">cloud</text><text fill="#000000" font-family="sans-serif" font-size="13" lengthAdjust="spacingAndGlyphs" textLength="7" x="709.9564" y="492.694">1</text><!--link Resource to ComputeResource--><path d="M565.753,699.895 C569.031,719.283 572.466,739.598 575.576,757.99 " fill="none" id="Resource-ComputeResource" style="stroke: #A80036; stroke-width: 1.0;"/><polygon fill="none" points="558.846,701.032,562.414,680.145,572.65,698.698,558.846,701.032" style="stroke: #A80036; stroke-width: 1.0;"/><!--link NetworkResource to Request--><path d="M342.179,755.201 C313.446,727.603 285.798,697.975 278.484,680 C256.119,625.043 264.118,604.068 278.484,546.5 C307.836,428.874 327.302,383.649 430.484,320 C440.177,314.021 568.207,259.776 644.085,227.797 " fill="none" id="NetworkResource-Request" style="stroke: #A80036; stroke-width: 1.0;"/><polygon fill="#A80036" points="656.243,222.675,646.396,222.483,651.6352,224.6162,649.502,229.8555,656.243,222.675" style="stroke: #A80036; stroke-width: 1.0;"/><line style="stroke: #A80036; stroke-width: 1.0;" x1="651.6352" x2="644.2625" y1="224.6162" y2="227.722"/><polygon fill="#FFFFFF" points="351.937,764.462,350.3392,757.4301,343.2337,756.2005,344.8315,763.2323,351.937,764.462" style="stroke: #A80036; stroke-width: 1.0;"/><text fill="#000000" font-family="sans-serif" font-size="13" lengthAdjust="spacingAndGlyphs" textLength="43" x="291.484" y="515.4951">request</text><text fill="#000000" font-family="sans-serif" font-size="13" lengthAdjust="spacingAndGlyphs" textLength="7" x="641.5015" y="240.7396">1</text><!--link NetworkResource to PhysicalProfile--><path d="M454.49,900.102 C467.921,920.693 484.951,941.119 505.484,955 C613.754,1028.1949 770.145,1043.9669 859.615,1046.5362 " fill="none" id="NetworkResource-PhysicalProfile" style="stroke: #A80036; stroke-width: 1.0;"/><polygon fill="#A80036" points="872.849,1046.8335,863.9414,1042.6318,867.8503,1046.7209,863.7612,1050.6297,872.849,1046.8335" style="stroke: #A80036; stroke-width: 1.0;"/><line style="stroke: #A80036; stroke-width: 1.0;" x1="867.8503" x2="859.8525" y1="1046.7209" y2="1046.5415"/><polygon fill="#A80036" points="447.597,889.021,447.3693,896.2285,453.9348,899.2108,454.1625,892.0033,447.597,889.021" style="stroke: #A80036; stroke-width: 1.0;"/><text fill="#000000" font-family="sans-serif" font-size="13" lengthAdjust="spacingAndGlyphs" textLength="34" x="506.484" y="951.4951">profile</text><text fill="#000000" font-family="sans-serif" font-size="13" lengthAdjust="spacingAndGlyphs" textLength="7" x="858.1442" y="1061.3548">1</text><!--link NetworkResource to Hardware--><path d="M463.599,899.282 C474.241,911.105 486.585,921.79 500.484,929 C527.948,943.247 609.791,928.303 639.484,937 C655.143,941.587 655.749,950.675 671.484,955 C707.064,964.78 970.763,945.943 1003.484,963 C1023.29,973.326 1038.29,993.335 1048.46,1011.12 " fill="none" id="NetworkResource-Hardware" style="stroke: #A80036; stroke-width: 1.0;"/><polygon fill="#A80036" points="1054.59,1022.6459,1053.8943,1012.8216,1052.2416,1018.2317,1046.8316,1016.579,1054.59,1022.6459" style="stroke: #A80036; stroke-width: 1.0;"/><line style="stroke: #A80036; stroke-width: 1.0;" x1="1052.2416" x2="1048.485" y1="1018.2317" y2="1011.167"/><polygon fill="#FFFFFF" points="455.063,889.134,455.8643,896.3004,462.7877,898.3171,461.9864,891.1507,455.063,889.134" style="stroke: #A80036; stroke-width: 1.0;"/><text fill="#000000" font-family="sans-serif" font-size="13" lengthAdjust="spacingAndGlyphs" textLength="52" x="672.484" y="951.4951">hardware</text><text fill="#000000" font-family="sans-serif" font-size="13" lengthAdjust="spacingAndGlyphs" textLength="7" x="1044.3262" y="1012.2977">n</text><!--link NetworkResource to ServiceInstance--><path d="M371.325,899.198 C360.686,911.029 348.355,921.739 334.484,929 C322.35,935.352 220.848,927.006 211.484,937 C193.655,956.026 195.879,986.132 201.739,1009.887 " fill="none" id="NetworkResource-ServiceInstance" style="stroke: #A80036; stroke-width: 1.0;"/><polygon fill="#A80036" points="205.375,1022.6634,206.7588,1012.9122,204.0064,1017.8544,199.0643,1015.102,205.375,1022.6634" style="stroke: #A80036; stroke-width: 1.0;"/><line style="stroke: #A80036; stroke-width: 1.0;" x1="204.0064" x2="201.8165" y1="1017.8544" y2="1010.1595"/><polygon fill="#FFFFFF" points="379.859,889.046,372.9361,891.0643,372.1365,898.231,379.0594,896.2126,379.859,889.046" style="stroke: #A80036; stroke-width: 1.0;"/><text fill="#000000" font-family="sans-serif" font-size="13" lengthAdjust="spacingAndGlyphs" textLength="56" x="212.484" y="951.4951">instances</text><text fill="#000000" font-family="sans-serif" font-size="13" lengthAdjust="spacingAndGlyphs" textLength="7" x="195.3016" y="1012.3188">n</text><!--link NetworkResource to Cloud--><path d="M406.727,744.626 C401.155,668.296 407.312,555.686 480.484,501 C526.941,466.28 554.418,494.406 607.484,471 C616.191,467.159 624.964,462.27 633.273,457.052 " fill="none" id="NetworkResource-Cloud" style="stroke: #A80036; stroke-width: 1.0;"/><polygon fill="#A80036" points="644.266,449.801,634.5506,451.4166,640.0919,452.5537,638.9548,458.0951,644.266,449.801" style="stroke: #A80036; stroke-width: 1.0;"/><line style="stroke: #A80036; stroke-width: 1.0;" x1="640.0919" x2="633.414" y1="452.5537" y2="456.9585"/><polygon fill="#FFFFFF" points="407.846,757.962,411.3302,751.6485,406.8425,746.004,403.3582,752.3175,407.846,757.962" style="stroke: #A80036; stroke-width: 1.0;"/><text fill="#000000" font-family="sans-serif" font-size="13" lengthAdjust="spacingAndGlyphs" textLength="31" x="441.484" y="619.9951">cloud</text><text fill="#000000" font-family="sans-serif" font-size="13" lengthAdjust="spacingAndGlyphs" textLength="7" x="629.5041" y="470.598">1</text><!--link Resource to NetworkResource--><path d="M498.631,697.146 C485.549,717.354 471.713,738.727 459.244,757.99 " fill="none" id="Resource-NetworkResource" style="stroke: #A80036; stroke-width: 1.0;"/><polygon fill="none" points="492.892,693.13,509.636,680.145,504.644,700.738,492.892,693.13" style="stroke: #A80036; stroke-width: 1.0;"/><!--link Request to MetricComposite--><path d="M754.666,292.674 C845.729,322.513 1254.96,313.045 1314.48,320 C1432.93,333.84 1461.98,342.511 1578.48,368 C1666.78,387.319 1775.48,328.113 1775.48,418.5 C1775.48,418.5 1775.48,418.5 1775.48,824.5 C1775.48,830.279 1681.4,951.453 1634.05,1012.075 " fill="none" id="Request-MetricComposite" style="stroke: #A80036; stroke-width: 1.0;"/><polygon fill="#A80036" points="1625.78,1022.6485,1634.4739,1018.0207,1628.8591,1018.709,1628.1707,1013.0942,1625.78,1022.6485" style="stroke: #A80036; stroke-width: 1.0;"/><line style="stroke: #A80036; stroke-width: 1.0;" x1="1628.8591" x2="1633.785" y1="1018.709" y2="1012.406"/><polygon fill="#A80036" points="742.707,287.427,746.5946,293.5004,753.6961,292.2478,749.8085,286.1743,742.707,287.427" style="stroke: #A80036; stroke-width: 1.0;"/><text fill="#000000" font-family="sans-serif" font-size="13" lengthAdjust="spacingAndGlyphs" textLength="75" x="1776.48" y="619.9951">requirements</text><text fill="#000000" font-family="sans-serif" font-size="13" lengthAdjust="spacingAndGlyphs" textLength="7" x="1622.3875" y="1012.3002">1</text><!--link Request to Reservation--><path d="M741.839,302.138 C774.794,378.054 815.031,470.613 815.484,471 C855.62,505.339 898.189,459.2 930.484,501 C941.104,514.746 943.75,532.502 942.677,549.829 " fill="none" id="Request-Reservation" style="stroke: #A80036; stroke-width: 1.0;"/><polygon fill="#A80036" points="941.203,562.922,946.1856,554.4265,941.7629,557.9534,938.2359,553.5307,941.203,562.922" style="stroke: #A80036; stroke-width: 1.0;"/><line style="stroke: #A80036; stroke-width: 1.0;" x1="941.7629" x2="942.6575" y1="557.9534" y2="550.0035"/><polygon fill="#A80036" points="736.62,290.114,735.3394,297.2105,741.3974,301.122,742.6781,294.0255,736.62,290.114" style="stroke: #A80036; stroke-width: 1.0;"/><text fill="#000000" font-family="sans-serif" font-size="13" lengthAdjust="spacingAndGlyphs" textLength="69" x="816.484" y="424.9951">reservations</text><text fill="#000000" font-family="sans-serif" font-size="13" lengthAdjust="spacingAndGlyphs" textLength="7" x="935.9213" y="552.0395">n</text><!--link Reservation to Request--><path d="M940.05,549.95 C941.892,539.654 943.481,529.069 944.484,519 C951.543,448.077 938.015,421.11 890.484,368 C844.788,316.941 803.263,338.361 752.24,294.844 " fill="none" id="Reservation-Request" style="stroke: #A80036; stroke-width: 1.0;"/><polygon fill="#A80036" points="742.599,285.931,746.4918,294.9779,746.2703,289.3254,751.9228,289.1038,742.599,285.931" style="stroke: #A80036; stroke-width: 1.0;"/><line style="stroke: #A80036; stroke-width: 1.0;" x1="746.2703" x2="752.145" y1="289.3254" y2="294.756"/><polygon fill="#FFFFFF" points="937.606,562.775,942.6588,557.6301,939.853,550.9873,934.8003,556.1321,937.606,562.775" style="stroke: #A80036; stroke-width: 1.0;"/><text fill="#000000" font-family="sans-serif" font-size="13" lengthAdjust="spacingAndGlyphs" textLength="43" x="947.484" y="424.9951">request</text><text fill="#000000" font-family="sans-serif" font-size="13" lengthAdjust="spacingAndGlyphs" textLength="7" x="750.611" y="296.2901">1</text><!--link Request to Resource--><path d="M646.451,249.076 C612.581,279.746 569.7,322.949 540.484,368 C505.861,421.388 499.476,438.509 487.484,501 C484.042,518.935 489.236,536.821 497.929,552.882 " fill="none" id="Request-Resource" style="stroke: #A80036; stroke-width: 1.0;"/><polygon fill="#A80036" points="504.805,564.229,503.562,554.4589,502.2139,559.9528,496.72,558.6047,504.805,564.229" style="stroke: #A80036; stroke-width: 1.0;"/><line style="stroke: #A80036; stroke-width: 1.0;" x1="502.2139" x2="498.0675" y1="559.9528" y2="553.11"/><polygon fill="#A80036" points="656.196,240.371,649.0566,241.3857,647.2474,248.3662,654.3868,247.3514,656.196,240.371" style="stroke: #A80036; stroke-width: 1.0;"/><text fill="#000000" font-family="sans-serif" font-size="13" lengthAdjust="spacingAndGlyphs" textLength="57" x="541.484" y="424.9951">resources</text><text fill="#000000" font-family="sans-serif" font-size="13" lengthAdjust="spacingAndGlyphs" textLength="7" x="490.1213" y="552.8271">n</text><!--link Resource to Request--><path d="M496.023,557.085 C453.316,506.495 406.942,430.784 441.484,368 C484.409,289.978 582.038,243.962 644.13,221.535 " fill="none" id="Resource-Request" style="stroke: #A80036; stroke-width: 1.0;"/><polygon fill="#A80036" points="656.428,217.233,646.612,216.4292,651.7085,218.884,649.2536,223.9805,656.428,217.233" style="stroke: #A80036; stroke-width: 1.0;"/><line style="stroke: #A80036; stroke-width: 1.0;" x1="651.7085" x2="644.1575" y1="218.884" y2="221.526"/><polygon fill="#FFFFFF" points="504.77,567.171,503.861,560.0174,496.9081,558.1051,497.8171,565.2587,504.77,567.171" style="stroke: #A80036; stroke-width: 1.0;"/><text fill="#000000" font-family="sans-serif" font-size="13" lengthAdjust="spacingAndGlyphs" textLength="43" x="442.484" y="424.9951">request</text><text fill="#000000" font-family="sans-serif" font-size="13" lengthAdjust="spacingAndGlyphs" textLength="7" x="641.4262" y="215.7846">1</text><!--link Request to DataCenter--><path d="M754.487,293.803 C825.728,326.691 994.823,312.178 1060.48,320 C1210.27,337.845 1285.44,265.899 1396.48,368 C1580.08,536.811 1539.87,715.774 1410.48,929 C1396.35,952.29 1379.47,944.486 1359.48,963 C1343.82,977.513 1328.93,996.039 1317.36,1011.904 " fill="none" id="Request-DataCenter" style="stroke: #A80036; stroke-width: 1.0;"/><polygon fill="#A80036" points="1309.57,1022.8913,1318.0413,1017.8676,1312.4642,1018.8141,1311.5177,1013.237,1309.57,1022.8913" style="stroke: #A80036; stroke-width: 1.0;"/><line style="stroke: #A80036; stroke-width: 1.0;" x1="1312.4642" x2="1317.09" y1="1018.8141" y2="1012.2895"/><polygon fill="#FFFFFF" points="742.756,287.351,746.0854,293.7475,753.2704,293.1343,749.941,286.7379,742.756,287.351" style="stroke: #A80036; stroke-width: 1.0;"/><text fill="#000000" font-family="sans-serif" font-size="13" lengthAdjust="spacingAndGlyphs" textLength="68" x="1522.48" y="619.9951">datacenters</text><text fill="#000000" font-family="sans-serif" font-size="13" lengthAdjust="spacingAndGlyphs" textLength="7" x="1305.5399" y="1012.2032">n</text><!--link Request to Device--><path d="M753.678,293.935 C892.165,370.045 1384.48,277.971 1384.48,418.5 C1384.48,418.5 1384.48,418.5 1384.48,824.5 C1384.48,910.542 1309.25,901.984 1241.48,955 C1236.44,958.95 1233.95,958.404 1229.48,963 C1215.79,977.088 1203.86,995.368 1194.9,1011.185 " fill="none" id="Request-Device" style="stroke: #A80036; stroke-width: 1.0;"/><polygon fill="#A80036" points="1188.64,1022.6904,1196.4554,1016.6971,1191.0299,1018.2986,1189.4284,1012.8732,1188.64,1022.6904" style="stroke: #A80036; stroke-width: 1.0;"/><line style="stroke: #A80036; stroke-width: 1.0;" x1="1191.0299" x2="1194.855" y1="1018.2986" y2="1011.27"/><polygon fill="#FFFFFF" points="742.492,286.841,745.4171,293.4322,752.6264,293.2671,749.7012,286.6759,742.492,286.841" style="stroke: #A80036; stroke-width: 1.0;"/><text fill="#000000" font-family="sans-serif" font-size="13" lengthAdjust="spacingAndGlyphs" textLength="43" x="1385.48" y="619.9951">devices</text><text fill="#000000" font-family="sans-serif" font-size="13" lengthAdjust="spacingAndGlyphs" textLength="7" x="1183.6029" y="1011.9507">n</text><!--link Request to AggregatedDevice--><path d="M754.821,292.606 C836.91,318.432 1184.69,313.179 1235.48,320 C1338.98,333.9 1364.15,342.762 1465.48,368 C1543.62,387.462 1639.48,337.975 1639.48,418.5 C1639.48,418.5 1639.48,418.5 1639.48,824.5 C1639.48,848.781 1532.49,958.096 1476.6,1013.538 " fill="none" id="Request-AggregatedDevice" style="stroke: #A80036; stroke-width: 1.0;"/><polygon fill="#A80036" points="1467.13,1022.9111,1476.3418,1019.4263,1470.685,1019.3951,1470.7162,1013.7384,1467.13,1022.9111" style="stroke: #A80036; stroke-width: 1.0;"/><line style="stroke: #A80036; stroke-width: 1.0;" x1="1470.685" x2="1476.37" y1="1019.3951" y2="1013.7705"/><polygon fill="#FFFFFF" points="742.717,287.412,746.6532,293.454,753.7444,292.1444,749.8082,286.1024,742.717,287.412" style="stroke: #A80036; stroke-width: 1.0;"/><text fill="#000000" font-family="sans-serif" font-size="13" lengthAdjust="spacingAndGlyphs" textLength="64" x="1640.48" y="619.9951">aggregates</text><text fill="#000000" font-family="sans-serif" font-size="13" lengthAdjust="spacingAndGlyphs" textLength="7" x="1465.2934" y="1012.2284">n</text><!--link Reservation to Device--><path d="M984.687,665.472 C1005.115,683.002 1025.2,700.644 1034.48,710 C1115.03,791.138 1120.64,828.113 1155.48,937 C1163.06,960.68 1168.58,988.121 1172.2,1009.546 " fill="none" id="Reservation-Device" style="stroke: #A80036; stroke-width: 1.0;"/><polygon fill="#A80036" points="1174.3,1022.6559,1176.8241,1013.136,1173.5081,1017.719,1168.9251,1014.403,1174.3,1022.6559" style="stroke: #A80036; stroke-width: 1.0;"/><line style="stroke: #A80036; stroke-width: 1.0;" x1="1173.5081" x2="1172.245" y1="1017.719" y2="1009.82"/><polygon fill="#FFFFFF" points="974.677,656.911,976.6375,663.8505,983.7972,664.7098,981.8367,657.7704,974.677,656.911" style="stroke: #A80036; stroke-width: 1.0;"/><text fill="#000000" font-family="sans-serif" font-size="13" lengthAdjust="spacingAndGlyphs" textLength="36" x="1153.48" y="828.9951">device</text><text fill="#000000" font-family="sans-serif" font-size="13" lengthAdjust="spacingAndGlyphs" textLength="7" x="1165.6718" y="1012.3101">1</text><!--link Resource to PhysicalProfile--><path d="M609.27,653.5 C624.343,662.712 640.773,672.156 656.484,680 C741.105,722.249 791.753,687.214 854.484,758 C918.409,830.134 928.995,950.066 930.034,1009.834 " fill="none" id="Resource-PhysicalProfile" style="stroke: #A80036; stroke-width: 1.0;"/><polygon fill="#A80036" points="930.122,1022.9932,934.0616,1013.9666,930.0885,1017.9933,926.0618,1014.0202,930.122,1022.9932" style="stroke: #A80036; stroke-width: 1.0;"/><line style="stroke: #A80036; stroke-width: 1.0;" x1="930.0885" x2="930.0345" y1="1017.9933" y2="1009.9935"/><polygon fill="#A80036" points="598.043,646.53,601.0311,653.0929,608.2384,652.8588,605.2503,646.2959,598.043,646.53" style="stroke: #A80036; stroke-width: 1.0;"/><text fill="#000000" font-family="sans-serif" font-size="13" lengthAdjust="spacingAndGlyphs" textLength="34" x="924.484" y="828.9951">profile</text><text fill="#000000" font-family="sans-serif" font-size="13" lengthAdjust="spacingAndGlyphs" textLength="7" x="922.3886" y="1012.3314">1</text><!--link Resource to Hardware--><path d="M609.186,656.231 C624.044,665.212 640.395,673.865 656.484,680 C789.635,730.773 868.892,655.108 967.484,758 C1022.18,815.083 955.678,878.473 1016.48,929 C1030.91,940.984 1087.87,923.127 1100.48,937 C1119.26,957.654 1106.71,988.341 1091.5,1011.896 " fill="none" id="Resource-Hardware" style="stroke: #A80036; stroke-width: 1.0;"/><polygon fill="#A80036" points="1083.94,1022.812,1092.3528,1017.691,1086.787,1018.7017,1085.7763,1013.1359,1083.94,1022.812" style="stroke: #A80036; stroke-width: 1.0;"/><line style="stroke: #A80036; stroke-width: 1.0;" x1="1086.787" x2="1091.34" y1="1018.7017" y2="1012.1245"/><polygon fill="#FFFFFF" points="598.144,649.336,601.1143,655.9069,608.3222,655.6924,605.3519,649.1215,598.144,649.336" style="stroke: #A80036; stroke-width: 1.0;"/><text fill="#000000" font-family="sans-serif" font-size="13" lengthAdjust="spacingAndGlyphs" textLength="52" x="1017.48" y="828.9951">hardware</text><text fill="#000000" font-family="sans-serif" font-size="13" lengthAdjust="spacingAndGlyphs" textLength="7" x="1081.0298" y="1012.104">n</text><!--link Resource to ServiceInstance--><path d="M494.113,672.458 C489.998,675.237 485.774,677.786 481.484,680 C332.526,756.873 244.793,655.082 112.484,758 C36.7925,816.877 -26.6217,873.859 24.4836,955 C50.1853,995.807 99.8179,1018.719 141.91,1031.3449 " fill="none" id="Resource-ServiceInstance" style="stroke: #A80036; stroke-width: 1.0;"/><polygon fill="#A80036" points="154.696,1034.9413,147.1153,1028.6538,149.8828,1033.5875,144.9491,1036.355,154.696,1034.9413" style="stroke: #A80036; stroke-width: 1.0;"/><line style="stroke: #A80036; stroke-width: 1.0;" x1="149.8828" x2="142.182" y1="1033.5875" y2="1031.4213"/><polygon fill="#FFFFFF" points="504.726,664.639,497.5228,664.9773,495.0646,671.7564,502.2678,671.4182,504.726,664.639" style="stroke: #A80036; stroke-width: 1.0;"/><text fill="#000000" font-family="sans-serif" font-size="13" lengthAdjust="spacingAndGlyphs" textLength="56" x="113.484" y="828.9951">instances</text><text fill="#000000" font-family="sans-serif" font-size="13" lengthAdjust="spacingAndGlyphs" textLength="7" x="139.9828" y="1030.0128">n</text><!--link StorageResource to Request--><path d="M232.855,744.995 C212.289,643.511 195.021,466.924 292.484,368 C328.212,331.736 348.874,338.026 396.484,320 C439.879,303.57 452.817,305.695 496.484,290 C547.361,271.714 603.955,247.549 644.435,229.575 " fill="none" id="StorageResource-Request" style="stroke: #A80036; stroke-width: 1.0;"/><polygon fill="#A80036" points="656.456,224.21,646.6072,224.2269,651.8904,226.2485,649.8688,231.5318,656.456,224.21" style="stroke: #A80036; stroke-width: 1.0;"/><line style="stroke: #A80036; stroke-width: 1.0;" x1="651.8904" x2="644.585" y1="226.2485" y2="229.5085"/><polygon fill="#FFFFFF" points="235.569,757.895,238.2477,751.1999,233.0978,746.1522,230.4191,752.8473,235.569,757.895" style="stroke: #A80036; stroke-width: 1.0;"/><text fill="#000000" font-family="sans-serif" font-size="13" lengthAdjust="spacingAndGlyphs" textLength="43" x="227.484" y="515.4951">request</text><text fill="#000000" font-family="sans-serif" font-size="13" lengthAdjust="spacingAndGlyphs" textLength="7" x="641.386" y="226.7087">1</text><!--link StorageResource to PhysicalProfile--><path d="M178.183,877.805 C152.549,902.43 135.24,931.378 157.484,955 C167.633,965.778 275.745,961.601 290.484,963 C498.254,982.719 742.557,1017.777 859.804,1035.3449 " fill="none" id="StorageResource-PhysicalProfile" style="stroke: #A80036; stroke-width: 1.0;"/><polygon fill="#A80036" points="872.785,1037.2963,864.4798,1032.0026,867.8406,1036.5529,863.2903,1039.9137,872.785,1037.2963" style="stroke: #A80036; stroke-width: 1.0;"/><line style="stroke: #A80036; stroke-width: 1.0;" x1="867.8406" x2="859.9295" y1="1036.5529" y2="1035.3636"/><polygon fill="#A80036" points="187.946,868.946,180.8147,870.0157,179.0593,877.0099,186.1906,875.9402,187.946,868.946" style="stroke: #A80036; stroke-width: 1.0;"/><text fill="#000000" font-family="sans-serif" font-size="13" lengthAdjust="spacingAndGlyphs" textLength="34" x="158.484" y="951.4951">profile</text><text fill="#000000" font-family="sans-serif" font-size="13" lengthAdjust="spacingAndGlyphs" textLength="7" x="858.072" y="1032.5457">1</text><!--link StorageResource to Hardware--><path d="M297.614,899.286 C308.192,911.171 320.521,921.878 334.484,929 C355.383,939.66 522.905,930.626 545.484,937 C561.188,941.433 561.738,950.717 577.484,955 C600.324,961.213 982.465,952.114 1003.484,963 C1023.32,973.273 1038.32,993.281 1048.48,1011.079 " fill="none" id="StorageResource-Hardware" style="stroke: #A80036; stroke-width: 1.0;"/><polygon fill="#A80036" points="1054.6,1022.6146,1053.916,1012.7895,1052.2569,1018.1976,1046.8488,1016.5385,1054.6,1022.6146" style="stroke: #A80036; stroke-width: 1.0;"/><line style="stroke: #A80036; stroke-width: 1.0;" x1="1052.2569" x2="1048.51" y1="1018.1976" y2="1011.1315"/><polygon fill="#FFFFFF" points="289.142,889.077,289.8952,896.2487,296.8049,898.3117,296.0517,891.1401,289.142,889.077" style="stroke: #A80036; stroke-width: 1.0;"/><text fill="#000000" font-family="sans-serif" font-size="13" lengthAdjust="spacingAndGlyphs" textLength="52" x="578.484" y="951.4951">hardware</text><text fill="#000000" font-family="sans-serif" font-size="13" lengthAdjust="spacingAndGlyphs" textLength="7" x="1027.8645" y="1012.2005">n</text><!--link StorageResource to ServiceInstance--><path d="M175.93,862.217 C115.832,892.193 41.6061,930.19 37.4836,937 C8.2144,985.349 80.9987,1015.335 141.926,1031.3315 " fill="none" id="StorageResource-ServiceInstance" style="stroke: #A80036; stroke-width: 1.0;"/><polygon fill="#A80036" points="154.706,1034.5341,146.9482,1028.4664,149.856,1033.3187,145.0036,1036.2264,154.706,1034.5341" style="stroke: #A80036; stroke-width: 1.0;"/><line style="stroke: #A80036; stroke-width: 1.0;" x1="149.856" x2="142.096" y1="1033.3187" y2="1031.3741"/><polygon fill="#FFFFFF" points="187.736,856.34,180.5822,855.4329,176.9934,861.6876,184.1472,862.5947,187.736,856.34" style="stroke: #A80036; stroke-width: 1.0;"/><text fill="#000000" font-family="sans-serif" font-size="13" lengthAdjust="spacingAndGlyphs" textLength="56" x="38.4836" y="951.4951">instances</text><text fill="#000000" font-family="sans-serif" font-size="13" lengthAdjust="spacingAndGlyphs" textLength="7" x="139.994" y="1047.5064">n</text><!--link StorageResource to Cloud--><path d="M265.967,745.219 C280.528,683.635 309.596,599.262 365.484,546.5 C392.822,520.69 416.664,543.146 445.484,519 C452.498,513.123 448.085,506.386 455.484,501 C511.153,460.472 543.976,497.615 607.484,471 C616.261,467.322 625.07,462.517 633.394,457.334 " fill="none" id="StorageResource-Cloud" style="stroke: #A80036; stroke-width: 1.0;"/><polygon fill="#A80036" points="644.396,450.102,634.6781,451.7027,640.2177,452.8483,639.0722,458.388,644.396,450.102" style="stroke: #A80036; stroke-width: 1.0;"/><line style="stroke: #A80036; stroke-width: 1.0;" x1="640.2177" x2="633.532" y1="452.8483" y2="457.243"/><polygon fill="#FFFFFF" points="263.076,757.994,268.3014,753.0246,265.7241,746.2898,260.4987,751.2592,263.076,757.994" style="stroke: #A80036; stroke-width: 1.0;"/><text fill="#000000" font-family="sans-serif" font-size="13" lengthAdjust="spacingAndGlyphs" textLength="31" x="366.484" y="619.9951">cloud</text><text fill="#000000" font-family="sans-serif" font-size="13" lengthAdjust="spacingAndGlyphs" textLength="7" x="629.4052" y="452.0477">1</text><!--link Resource to StorageResource--><path d="M489.2,671.417 C485.301,674.404 481.378,677.289 477.484,680 C418.067,721.362 394.923,718.149 334.484,758 C328.737,761.789 322.891,765.874 317.099,770.084 " fill="none" id="Resource-StorageResource" style="stroke: #A80036; stroke-width: 1.0;"/><polygon fill="none" points="484.99,665.819,504.958,658.729,493.769,676.724,484.99,665.819" style="stroke: #A80036; stroke-width: 1.0;"/><!--link Software Defined Infrastructure to Common Physical Layer--><path d="M1007.3419,204.608 C1007.7272,204.6136 1008.1246,204.6196 1008.5339,204.6258 C1009.3526,204.6382 1010.2189,204.6518 1011.1322,204.6665 C1018.4382,204.7848 1028.7449,204.9816 1041.6199,205.3029 C1067.3697,205.9455 1103.3922,207.0863 1146.2269,209.094 C1231.8963,213.1095 1344.8142,220.5927 1457.2961,234.4931 C1682.26,262.294 1905.48,315.764 1905.48,418.5 C1905.48,418.5 1905.48,418.5 1905.48,824.5 C1905.48,889.782 1857.03,944.4601 1807.8238,983.158 C1783.2206,1002.507 1758.4284,1017.8609 1739.4089,1028.5477 C1729.8991,1033.8912 1721.8325,1038.0678 1715.9543,1040.9937 C1715.2195,1041.3595 1714.519,1041.7057 1713.854,1042.0321 " fill="none" id="Software Defined Infrastructure-Common Physical Layer" style="stroke: #A80036; stroke-width: 1.0;"/><polygon fill="#A80036" points="1713.854,1042.0321,1723.6957,1041.656,1718.3422,1039.8284,1720.1698,1034.4749,1713.854,1042.0321" style="stroke: #A80036; stroke-width: 1.0;"/><!--
@startuml


package "Common Physical Layer" #lightgray {
    
        class PhysicalProfile {
        }
    
        class Hardware {
        }
    
        class Device {
        }
    
        class AggregatedDevice {
        }
    
        class DataCenter {
        }
    
        class MetricComposite {
        }
    }

package "Software Defined Infrastructure" #lightyellow {
    
        class Request {
        }
    
        class Cloud {
        }
    
        class Resource {
        }
    
        class Reservation {
        }
    }

package "Service Orchestrator" #lightgreen {
    
        class ServiceInstance {
        }
    }

package "Cloud Broker" #lightgreen {
    
        class CloudType {
        }
    }


package "Software Defined Infrastructure" #lightyellow {

    interface "Software Defined Infrastructure" as i {
            /edgemere/sdi/checkrequest()
            /edgemere/sdi/reserve()
            /edgemere/sdi/resource/get()
            /edgemere/sdi/resource/list()
            /edgemere/sdi/resource/release()
    
    }
}

CLI ()- - i
REST ()- - i
Web ()- - i

package "Software Defined Infrastructure" #lightyellow {
        class "AcceleratorResource" {
                 string name
                 string ename
                 boolean disabled
                 string type
                             factory()
                     provision()
            }
                AcceleratorResource o- -> "1" Request : request
                        AcceleratorResource *- -> "1" PhysicalProfile : profile
                        AcceleratorResource o- -> "n" Hardware : hardware
                        AcceleratorResource o- -> "n" ServiceInstance : instances
                        AcceleratorResource o- -> "1" Cloud : cloud
            
    
        Resource <|- - AcceleratorResource
    
    class "Cloud" {
                 string name
                 string ename
                             create()
                     reserve()
            }
                Cloud o- -> "1" CloudType : type
                        Cloud *- -> "n" Resource : resources
                        Cloud o- -> "n" Device : devices
                        Cloud o- -> "n" AggregatedDevice : adevices
                        Cloud o- -> "n" DataCenter : datacenters
                        Cloud *- -> "n" Reservation : reservations
                        Cloud *- -> "n" Request : requests
            
    
    class "ComputeResource" {
                 string name
                 string ename
                 boolean disabled
                 string type
                             factory()
                     provision()
            }
                ComputeResource o- -> "1" Request : request
                        ComputeResource *- -> "1" PhysicalProfile : profile
                        ComputeResource o- -> "n" Hardware : hardware
                        ComputeResource o- -> "n" ServiceInstance : instances
                        ComputeResource o- -> "1" Cloud : cloud
            
    
        Resource <|- - ComputeResource
    
    class "NetworkResource" {
                 string name
                 string ename
                 boolean disabled
                 string type
                             factory()
                     provision()
            }
                NetworkResource o- -> "1" Request : request
                        NetworkResource *- -> "1" PhysicalProfile : profile
                        NetworkResource o- -> "n" Hardware : hardware
                        NetworkResource o- -> "n" ServiceInstance : instances
                        NetworkResource o- -> "1" Cloud : cloud
            
    
        Resource <|- - NetworkResource
    
    class "Request" {
                 string name
                 string ename
                 string type
                 string message
                             confirm()
                     evaluated()
                     failed()
                     fulfill()
                     satisfied()
            }
                Request *- -> "1" MetricComposite : requirements
                        Request *- -> "n" Reservation : reservations
                        Request *- -> "n" Resource : resources
                        Request o- -> "1" Cloud : cloud
                        Request o- -> "n" DataCenter : datacenters
                        Request o- -> "n" Device : devices
                        Request o- -> "n" AggregatedDevice : aggregates
            
    
    class "Reservation" {
                 number cost
                             confirm()
                     create()
                     free()
            }
                Reservation o- -> "1" Device : device
                        Reservation o- -> "1" Request : request
                        Reservation o- -> "1" Cloud : cloud
            
    
    class "Resource" {
                 string name
                 string ename
                 boolean disabled
                 string type
                             factory()
                     provision()
            }
                Resource o- -> "1" Request : request
                        Resource *- -> "1" PhysicalProfile : profile
                        Resource o- -> "n" Hardware : hardware
                        Resource o- -> "n" ServiceInstance : instances
                        Resource o- -> "1" Cloud : cloud
            
    
    class "StorageResource" {
                 string name
                 string ename
                 boolean disabled
                 string type
                             factory()
                     provision()
            }
                StorageResource o- -> "1" Request : request
                        StorageResource *- -> "1" PhysicalProfile : profile
                        StorageResource o- -> "n" Hardware : hardware
                        StorageResource o- -> "n" ServiceInstance : instances
                        StorageResource o- -> "1" Cloud : cloud
            
    
        Resource <|- - StorageResource
    

}


    "Software Defined Infrastructure" - -> "Common Physical Layer"


@enduml

PlantUML version 1.2019.05(Sat Apr 20 09:45:36 PDT 2019)
(GPL source distribution)
Java Runtime: OpenJDK Runtime Environment
JVM: OpenJDK 64-Bit Server VM
Java Version: 12.0.1+12
Operating System: Windows 10
OS Version: 10.0
Default Encoding: Cp1252
Language: en
Country: US
--></g></svg>