<?xml version="1.0" encoding="UTF-8" standalone="no"?><svg xmlns="http://www.w3.org/2000/svg" xmlns:xlink="http://www.w3.org/1999/xlink" contentScriptType="application/ecmascript" contentStyleType="text/css" height="375px" preserveAspectRatio="none" style="width:879px;height:375px;" version="1.1" viewBox="0 0 879 375" width="879px" zoomAndPan="magnify"><defs><filter height="300%" id="f1u4gbk2fhlzml" width="300%" x="-1" y="-1"><feGaussianBlur result="blurOut" stdDeviation="2.0"/><feColorMatrix in="blurOut" result="blurOut2" type="matrix" values="0 0 0 0 0 0 0 0 0 0 0 0 0 0 0 0 0 0 .4 0"/><feOffset dx="4.0" dy="4.0" in="blurOut2" result="blurOut3"/><feBlend in="SourceGraphic" in2="blurOut3" mode="normal"/></filter></defs><g><!--cluster Software Defined Infrastructure--><polygon fill="#FFFFE0" filter="url(#f1u4gbk2fhlzml)" points="90,87,318,87,325,110.6094,580,110.6094,580,272,90,272,90,87" style="stroke: #000000; stroke-width: 1.5;"/><line style="stroke: #000000; stroke-width: 1.5;" x1="90" x2="325" y1="110.6094" y2="110.6094"/><text fill="#000000" font-family="sans-serif" font-size="14" font-weight="bold" lengthAdjust="spacingAndGlyphs" textLength="222" x="94" y="103.5332">Software Defined Infrastructure</text><polygon fill="#D3D3D3" filter="url(#f1u4gbk2fhlzml)" points="6,308,176,308,183,331.6094,190,331.6094,190,363.2188,6,363.2188,6,308" style="stroke: #000000; stroke-width: 1.5;"/><line style="stroke: #000000; stroke-width: 1.5;" x1="6" x2="183" y1="331.6094" y2="331.6094"/><text fill="#000000" font-family="sans-serif" font-size="14" font-weight="bold" lengthAdjust="spacingAndGlyphs" textLength="164" x="10" y="324.5332">Common Physical Layer</text><!--class i--><rect fill="#FEFECE" filter="url(#f1u4gbk2fhlzml)" height="117.1797" id="i" style="stroke: #A80036; stroke-width: 1.5;" width="200" x="356" y="131"/><ellipse cx="371" cy="147" fill="#B4A7E5" rx="11" ry="11" style="stroke: #A80036; stroke-width: 1.0;"/><path d="M371.9531,143.6406 L371.9531,150.2969 L373.6719,150.2969 Q374.2813,150.2969 374.5469,150.5313 Q374.8125,150.7656 374.8125,151.1563 Q374.8125,151.5313 374.5469,151.7656 Q374.2813,152 373.6719,152 L368.5313,152 Q367.9219,152 367.6563,151.7656 Q367.3906,151.5313 367.3906,151.1406 Q367.3906,150.7656 367.6563,150.5313 Q367.9219,150.2969 368.5313,150.2969 L370.25,150.2969 L370.25,143.6406 L368.5313,143.6406 Q367.9219,143.6406 367.6563,143.4063 Q367.3906,143.1719 367.3906,142.7813 Q367.3906,142.4063 367.6563,142.1719 Q367.9219,141.9375 368.5313,141.9375 L373.6719,141.9375 Q374.2813,141.9375 374.5469,142.1719 Q374.8125,142.4063 374.8125,142.7813 Q374.8125,143.1719 374.5469,143.4063 Q374.2813,143.6406 373.6719,143.6406 L371.9531,143.6406 Z "/><text fill="#000000" font-family="sans-serif" font-size="12" font-style="italic" lengthAdjust="spacingAndGlyphs" textLength="168" x="385" y="151.9102">Software Defined Infrastructure</text><line style="stroke: #A80036; stroke-width: 1.5;" x1="357" x2="555" y1="163" y2="163"/><line style="stroke: #A80036; stroke-width: 1.5;" x1="357" x2="555" y1="171" y2="171"/><text fill="#000000" font-family="sans-serif" font-size="11" lengthAdjust="spacingAndGlyphs" textLength="145" x="362" y="186.4189">/edgemere/sdi/checkrequest()</text><text fill="#000000" font-family="sans-serif" font-size="11" lengthAdjust="spacingAndGlyphs" textLength="117" x="362" y="200.2549">/edgemere/sdi/reserve()</text><text fill="#000000" font-family="sans-serif" font-size="11" lengthAdjust="spacingAndGlyphs" textLength="141" x="362" y="214.0908">/edgemere/sdi/resource/get()</text><text fill="#000000" font-family="sans-serif" font-size="11" lengthAdjust="spacingAndGlyphs" textLength="139" x="362" y="227.9268">/edgemere/sdi/resource/list()</text><text fill="#000000" font-family="sans-serif" font-size="11" lengthAdjust="spacingAndGlyphs" textLength="162" x="362" y="241.7627">/edgemere/sdi/resource/release()</text><!--entity Infrastructure Orchestrator--><rect fill="#FFFFFF" filter="url(#f1u4gbk2fhlzml)" height="37.6094" style="stroke: #000000; stroke-width: 1.5;" width="188" x="133" y="170.5"/><text fill="#000000" font-family="sans-serif" font-size="14" lengthAdjust="spacingAndGlyphs" textLength="168" x="143" y="195.0332">Infrastructure Orchestrator</text><polygon fill="#90EE90" filter="url(#f1u4gbk2fhlzml)" points="541,8,695,8,702,31.6094,709,31.6094,709,63.2188,541,63.2188,541,8" style="stroke: #000000; stroke-width: 1.5;"/><line style="stroke: #000000; stroke-width: 1.5;" x1="541" x2="702" y1="31.6094" y2="31.6094"/><text fill="#000000" font-family="sans-serif" font-size="14" font-weight="bold" lengthAdjust="spacingAndGlyphs" textLength="148" x="545" y="24.5332">Service Orchestrator</text><polygon fill="#90EE90" filter="url(#f1u4gbk2fhlzml)" points="744.5,8,843.5,8,850.5,31.6094,857.5,31.6094,857.5,63.2188,744.5,63.2188,744.5,8" style="stroke: #000000; stroke-width: 1.5;"/><line style="stroke: #000000; stroke-width: 1.5;" x1="744.5" x2="850.5" y1="31.6094" y2="31.6094"/><text fill="#000000" font-family="sans-serif" font-size="14" font-weight="bold" lengthAdjust="spacingAndGlyphs" textLength="93" x="748.5" y="24.5332">Cloud Broker</text><ellipse cx="411" cy="35.5" fill="#FEFECE" filter="url(#f1u4gbk2fhlzml)" rx="5" ry="5" style="stroke: #A80036; stroke-width: 1.5;"/><text fill="#000000" font-family="sans-serif" font-size="12" lengthAdjust="spacingAndGlyphs" textLength="19" x="401.5" y="52.957">CLI</text><ellipse cx="456" cy="35.5" fill="#FEFECE" filter="url(#f1u4gbk2fhlzml)" rx="5" ry="5" style="stroke: #A80036; stroke-width: 1.5;"/><text fill="#000000" font-family="sans-serif" font-size="12" lengthAdjust="spacingAndGlyphs" textLength="32" x="440" y="52.957">REST</text><ellipse cx="501" cy="35.5" fill="#FEFECE" filter="url(#f1u4gbk2fhlzml)" rx="5" ry="5" style="stroke: #A80036; stroke-width: 1.5;"/><text fill="#000000" font-family="sans-serif" font-size="12" lengthAdjust="spacingAndGlyphs" textLength="25" x="488.5" y="52.957">Web</text><!--link ilol8929 to i--><path d="M412.204,40.566 C416.033,53.502 428.307,94.959 438.89,130.707 " fill="none" id="ilol8929-i" style="stroke: #A80036; stroke-width: 1.0;"/><!--link ilol8932 to i--><path d="M456,40.566 C456,53.502 456,94.959 456,130.707 " fill="none" id="ilol8932-i" style="stroke: #A80036; stroke-width: 1.0;"/><!--link ilol8935 to i--><path d="M499.796,40.566 C495.967,53.502 483.693,94.959 473.11,130.707 " fill="none" id="ilol8935-i" style="stroke: #A80036; stroke-width: 1.0;"/><!--link Software Defined Infrastructure to Common Physical Layer--><path d="M98,272.0837 C98,272.2735 98,272.4633 98,272.6529 C98,274.1701 98,275.6811 98,277.1832 C98,280.1875 98,283.1561 98,286.0669 C98,291.8887 98,297.4793 98,302.6618 " fill="none" id="Software Defined Infrastructure-Common Physical Layer" style="stroke: #A80036; stroke-width: 1.0;"/><polygon fill="#A80036" points="98,307.8311,102,298.8311,98,302.8311,94,298.8311,98,307.8311" style="stroke: #A80036; stroke-width: 1.0;"/><!--
@startuml


package "Common Physical Layer" #lightgray {

}

package "Software Defined Infrastructure" #lightyellow {

}

package "Service Orchestrator" #lightgreen {

}

package "Cloud Broker" #lightgreen {

}


package "Software Defined Infrastructure" #lightyellow {

    interface "Software Defined Infrastructure" as i {
            /edgemere/sdi/checkrequest()
            /edgemere/sdi/reserve()
            /edgemere/sdi/resource/get()
            /edgemere/sdi/resource/list()
            /edgemere/sdi/resource/release()
    
    }
}

CLI ()- - i
REST ()- - i
Web ()- - i

package "Software Defined Infrastructure" #lightyellow {


rectangle "Infrastructure Orchestrator" #white {
}

}


    "Software Defined Infrastructure" - -> "Common Physical Layer"


@enduml

PlantUML version 1.2019.05(Sat Apr 20 09:45:36 PDT 2019)
(GPL source distribution)
Java Runtime: OpenJDK Runtime Environment
JVM: OpenJDK 64-Bit Server VM
Java Version: 12.0.1+12
Operating System: Windows 10
OS Version: 10.0
Default Encoding: Cp1252
Language: en
Country: US
--></g></svg>