<?xml version="1.0" encoding="UTF-8" standalone="no"?><svg xmlns="http://www.w3.org/2000/svg" xmlns:xlink="http://www.w3.org/1999/xlink" contentScriptType="application/ecmascript" contentStyleType="text/css" height="287px" preserveAspectRatio="none" style="width:478px;height:287px;" version="1.1" viewBox="0 0 478 287" width="478px" zoomAndPan="magnify"><defs><filter height="300%" id="fy82w3cysq248" width="300%" x="-1" y="-1"><feGaussianBlur result="blurOut" stdDeviation="2.0"/><feColorMatrix in="blurOut" result="blurOut2" type="matrix" values="0 0 0 0 0 0 0 0 0 0 0 0 0 0 0 0 0 0 .4 0"/><feOffset dx="4.0" dy="4.0" in="blurOut2" result="blurOut3"/><feBlend in="SourceGraphic" in2="blurOut3" mode="normal"/></filter></defs><g><line style="stroke: #A80036; stroke-width: 1.0; stroke-dasharray: 5.0,5.0;" x1="52" x2="52" y1="87.6094" y2="198.6641"/><line style="stroke: #A80036; stroke-width: 1.0; stroke-dasharray: 5.0,5.0;" x1="213" x2="213" y1="87.6094" y2="198.6641"/><line style="stroke: #A80036; stroke-width: 1.0; stroke-dasharray: 5.0,5.0;" x1="348" x2="348" y1="87.6094" y2="198.6641"/><line style="stroke: #A80036; stroke-width: 1.0; stroke-dasharray: 5.0,5.0;" x1="443" x2="443" y1="87.6094" y2="198.6641"/><text fill="#000000" font-family="sans-serif" font-size="14" lengthAdjust="spacingAndGlyphs" textLength="82" x="8" y="84.5332">ITOperations</text><ellipse cx="52" cy="13" fill="#FEFECE" filter="url(#fy82w3cysq248)" rx="8" ry="8" style="stroke: #A80036; stroke-width: 2.0;"/><path d="M52,21 L52,48 M39,29 L65,29 M52,48 L39,63 M52,48 L65,63 " fill="none" filter="url(#fy82w3cysq248)" style="stroke: #A80036; stroke-width: 2.0;"/><text fill="#000000" font-family="sans-serif" font-size="14" lengthAdjust="spacingAndGlyphs" textLength="82" x="8" y="212.1973">ITOperations</text><ellipse cx="52" cy="225.2734" fill="#FEFECE" filter="url(#fy82w3cysq248)" rx="8" ry="8" style="stroke: #A80036; stroke-width: 2.0;"/><path d="M52,233.2734 L52,260.2734 M39,241.2734 L65,241.2734 M52,260.2734 L39,275.2734 M52,260.2734 L65,275.2734 " fill="none" filter="url(#fy82w3cysq248)" style="stroke: #A80036; stroke-width: 2.0;"/><rect fill="#FEFECE" filter="url(#fy82w3cysq248)" height="31.6094" style="stroke: #A80036; stroke-width: 1.5;" width="210" x="106" y="51"/><text fill="#000000" font-family="sans-serif" font-size="14" lengthAdjust="spacingAndGlyphs" textLength="196" x="113" y="72.5332">Software Defined Infrastructure</text><rect fill="#FEFECE" filter="url(#fy82w3cysq248)" height="31.6094" style="stroke: #A80036; stroke-width: 1.5;" width="210" x="106" y="197.6641"/><text fill="#000000" font-family="sans-serif" font-size="14" lengthAdjust="spacingAndGlyphs" textLength="196" x="113" y="219.1973">Software Defined Infrastructure</text><rect fill="#FEFECE" filter="url(#fy82w3cysq248)" height="31.6094" style="stroke: #A80036; stroke-width: 1.5;" width="33" x="330" y="51"/><text fill="#000000" font-family="sans-serif" font-size="14" lengthAdjust="spacingAndGlyphs" textLength="19" x="337" y="72.5332">bin</text><rect fill="#FEFECE" filter="url(#fy82w3cysq248)" height="31.6094" style="stroke: #A80036; stroke-width: 1.5;" width="33" x="330" y="197.6641"/><text fill="#000000" font-family="sans-serif" font-size="14" lengthAdjust="spacingAndGlyphs" textLength="19" x="337" y="219.1973">bin</text><rect fill="#FEFECE" filter="url(#fy82w3cysq248)" height="31.6094" style="stroke: #A80036; stroke-width: 1.5;" width="51" x="416" y="51"/><text fill="#000000" font-family="sans-serif" font-size="14" lengthAdjust="spacingAndGlyphs" textLength="37" x="423" y="72.5332">REST</text><rect fill="#FEFECE" filter="url(#fy82w3cysq248)" height="31.6094" style="stroke: #A80036; stroke-width: 1.5;" width="51" x="416" y="197.6641"/><text fill="#000000" font-family="sans-serif" font-size="14" lengthAdjust="spacingAndGlyphs" textLength="37" x="423" y="219.1973">REST</text><polygon fill="#A80036" points="201,115.9609,211,119.9609,201,123.9609,205,119.9609" style="stroke: #A80036; stroke-width: 1.0;"/><line style="stroke: #A80036; stroke-width: 1.0;" x1="52" x2="207" y1="119.9609" y2="119.9609"/><text fill="#000000" font-family="sans-serif" font-size="13" lengthAdjust="spacingAndGlyphs" textLength="112" x="59" y="115.1045">Manage Resources</text><polygon fill="#A80036" points="336.5,146.3125,346.5,150.3125,336.5,154.3125,340.5,150.3125" style="stroke: #A80036; stroke-width: 1.0;"/><line style="stroke: #A80036; stroke-width: 1.0;" x1="213" x2="342.5" y1="150.3125" y2="150.3125"/><text fill="#000000" font-family="sans-serif" font-size="13" lengthAdjust="spacingAndGlyphs" textLength="71" x="220" y="145.4561">resource/list</text><polygon fill="#A80036" points="431.5,176.6641,441.5,180.6641,431.5,184.6641,435.5,180.6641" style="stroke: #A80036; stroke-width: 1.0;"/><line style="stroke: #A80036; stroke-width: 1.0;" x1="348.5" x2="437.5" y1="180.6641" y2="180.6641"/><text fill="#000000" font-family="sans-serif" font-size="13" lengthAdjust="spacingAndGlyphs" textLength="71" x="355.5" y="175.8076">resource/list</text><!--
@startuml

actor "ITOperations" as itops




itops -> "Software Defined Infrastructure": Manage Resources
"Software Defined Infrastructure" -> bin: resource/list
bin -> REST: resource/list


@enduml

PlantUML version 1.2019.05(Sat Apr 20 09:45:36 PDT 2019)
(GPL source distribution)
Java Runtime: OpenJDK Runtime Environment
JVM: OpenJDK 64-Bit Server VM
Java Version: 12.0.1+12
Operating System: Windows 10
OS Version: 10.0
Default Encoding: Cp1252
Language: en
Country: US
--></g></svg>