<?xml version="1.0" encoding="UTF-8" standalone="no"?><svg xmlns="http://www.w3.org/2000/svg" xmlns:xlink="http://www.w3.org/1999/xlink" contentScriptType="application/ecmascript" contentStyleType="text/css" height="433px" preserveAspectRatio="none" style="width:349px;height:433px;" version="1.1" viewBox="0 0 349 433" width="349px" zoomAndPan="magnify"><defs><filter height="300%" id="f103chzs1pjkkn" width="300%" x="-1" y="-1"><feGaussianBlur result="blurOut" stdDeviation="2.0"/><feColorMatrix in="blurOut" result="blurOut2" type="matrix" values="0 0 0 0 0 0 0 0 0 0 0 0 0 0 0 0 0 0 .4 0"/><feOffset dx="4.0" dy="4.0" in="blurOut2" result="blurOut3"/><feBlend in="SourceGraphic" in2="blurOut3" mode="normal"/></filter></defs><g><!--cluster ITOperations--><rect fill="#FEFECE" filter="url(#f103chzs1pjkkn)" height="102" rx="12.5" ry="12.5" style="stroke: #A80036; stroke-width: 1.5;" width="151" x="27" y="68"/><rect fill="#FFFFFF" height="68.3906" rx="12.5" ry="12.5" style="stroke: #FFFFFF; stroke-width: 1.0;" width="145" x="30" y="98.6094"/><line style="stroke: #A80036; stroke-width: 1.5;" x1="27" x2="178" y1="95.6094" y2="95.6094"/><text fill="#000000" font-family="sans-serif" font-size="14" lengthAdjust="spacingAndGlyphs" textLength="86" x="59.5" y="86.5332">IT Operations</text><!--cluster sml--><rect fill="#90EE90" filter="url(#f103chzs1pjkkn)" height="296" rx="12.5" ry="12.5" style="stroke: #A80036; stroke-width: 1.5;" width="130" x="207" y="24"/><rect fill="#FFFFFF" height="262.3906" rx="12.5" ry="12.5" style="stroke: #FFFFFF; stroke-width: 1.0;" width="124" x="210" y="54.6094"/><line style="stroke: #A80036; stroke-width: 1.5;" x1="207" x2="337" y1="51.6094" y2="51.6094"/><text fill="#000000" font-family="sans-serif" font-size="14" lengthAdjust="spacingAndGlyphs" textLength="21" x="261.5" y="42.5332">sml</text><!--cluster smlCloud--><rect fill="#90EE90" filter="url(#f103chzs1pjkkn)" height="102" rx="12.5" ry="12.5" style="stroke: #A80036; stroke-width: 1.5;" width="82" x="231" y="68"/><rect fill="#FFFFFF" height="68.3906" rx="12.5" ry="12.5" style="stroke: #FFFFFF; stroke-width: 1.0;" width="76" x="234" y="98.6094"/><line style="stroke: #A80036; stroke-width: 1.5;" x1="231" x2="313" y1="95.6094" y2="95.6094"/><text fill="#000000" font-family="sans-serif" font-size="14" lengthAdjust="spacingAndGlyphs" textLength="37" x="253.5" y="86.5332">Cloud</text><!--cluster smlservice--><rect fill="#90EE90" filter="url(#f103chzs1pjkkn)" height="102" rx="12.5" ry="12.5" style="stroke: #A80036; stroke-width: 1.5;" width="82" x="231" y="194"/><rect fill="#FFFFFF" height="68.3906" rx="12.5" ry="12.5" style="stroke: #FFFFFF; stroke-width: 1.0;" width="76" x="234" y="224.6094"/><line style="stroke: #A80036; stroke-width: 1.5;" x1="231" x2="313" y1="221.6094" y2="221.6094"/><text fill="#000000" font-family="sans-serif" font-size="14" lengthAdjust="spacingAndGlyphs" textLength="45" x="249.5" y="212.5332">service</text><!--cluster StackDeveloper--><rect fill="#FEFECE" filter="url(#f103chzs1pjkkn)" height="102" rx="12.5" ry="12.5" style="stroke: #A80036; stroke-width: 1.5;" width="161" x="22" y="194"/><rect fill="#FFFFFF" height="68.3906" rx="12.5" ry="12.5" style="stroke: #FFFFFF; stroke-width: 1.0;" width="155" x="25" y="224.6094"/><line style="stroke: #A80036; stroke-width: 1.5;" x1="22" x2="183" y1="221.6094" y2="221.6094"/><text fill="#000000" font-family="sans-serif" font-size="14" lengthAdjust="spacingAndGlyphs" textLength="104" x="50.5" y="212.5332">Stack Developer</text><!--cluster ApplicationDeveloper--><rect fill="#FEFECE" filter="url(#f103chzs1pjkkn)" height="102" rx="12.5" ry="12.5" style="stroke: #A80036; stroke-width: 1.5;" width="161" x="22" y="320"/><rect fill="#FFFFFF" height="68.3906" rx="12.5" ry="12.5" style="stroke: #FFFFFF; stroke-width: 1.0;" width="155" x="25" y="350.6094"/><line style="stroke: #A80036; stroke-width: 1.5;" x1="22" x2="183" y1="347.6094" y2="347.6094"/><text fill="#000000" font-family="sans-serif" font-size="14" lengthAdjust="spacingAndGlyphs" textLength="138" x="33.5" y="338.5332">Application Developer</text><rect fill="#FEFECE" filter="url(#f103chzs1pjkkn)" height="50" rx="12.5" ry="12.5" style="stroke: #A80036; stroke-width: 1.5;" width="119" x="43" y="104"/><line style="stroke: #A80036; stroke-width: 1.5;" x1="43" x2="162" y1="131.6094" y2="131.6094"/><text fill="#000000" font-family="sans-serif" font-size="14" lengthAdjust="spacingAndGlyphs" textLength="99" x="53" y="123.5332">Manage Clouds</text><rect fill="#90EE90" filter="url(#f103chzs1pjkkn)" height="50" rx="12.5" ry="12.5" style="stroke: #A80036; stroke-width: 1.5;" width="50" x="247" y="104"/><line style="stroke: #A80036; stroke-width: 1.5;" x1="247" x2="297" y1="131.6094" y2="131.6094"/><text fill="#000000" font-family="sans-serif" font-size="14" lengthAdjust="spacingAndGlyphs" textLength="17" x="263.5" y="123.5332">list</text><rect fill="#90EE90" filter="url(#f103chzs1pjkkn)" height="50" rx="12.5" ry="12.5" style="stroke: #A80036; stroke-width: 1.5;" width="50" x="247" y="230"/><line style="stroke: #A80036; stroke-width: 1.5;" x1="247" x2="297" y1="257.6094" y2="257.6094"/><text fill="#000000" font-family="sans-serif" font-size="14" lengthAdjust="spacingAndGlyphs" textLength="17" x="263.5" y="249.5332">list</text><rect fill="#FEFECE" filter="url(#f103chzs1pjkkn)" height="50" rx="12.5" ry="12.5" style="stroke: #A80036; stroke-width: 1.5;" width="129" x="38" y="230"/><line style="stroke: #A80036; stroke-width: 1.5;" x1="38" x2="167" y1="257.6094" y2="257.6094"/><text fill="#000000" font-family="sans-serif" font-size="14" lengthAdjust="spacingAndGlyphs" textLength="109" x="48" y="249.5332">Manage Services</text><rect fill="#FEFECE" filter="url(#f103chzs1pjkkn)" height="50" rx="12.5" ry="12.5" style="stroke: #A80036; stroke-width: 1.5;" width="129" x="38" y="356"/><line style="stroke: #A80036; stroke-width: 1.5;" x1="38" x2="167" y1="383.6094" y2="383.6094"/><text fill="#000000" font-family="sans-serif" font-size="14" lengthAdjust="spacingAndGlyphs" textLength="109" x="48" y="375.5332">Manage Services</text><!--link ITOperationsManageClouds to smlCloudlist--><path d="M162.083,129 C188.984,129 219.703,129 241.644,129 " fill="none" id="ITOperationsManageClouds-smlCloudlist" style="stroke: #A80036; stroke-width: 1.0;"/><polygon fill="#A80036" points="246.745,129,237.745,125,241.745,129,237.745,133,246.745,129" style="stroke: #A80036; stroke-width: 1.0;"/><!--link StackDeveloperManageServices to smlservicelist--><path d="M167.302,255 C192.871,255 221.074,255 241.604,255 " fill="none" id="StackDeveloperManageServices-smlservicelist" style="stroke: #A80036; stroke-width: 1.0;"/><polygon fill="#A80036" points="246.652,255,237.652,251,241.652,255,237.652,259,246.652,255" style="stroke: #A80036; stroke-width: 1.0;"/><!--link ApplicationDeveloperManageServices to smlservicelist--><path d="M136.994,355.8049 C167.932,332.532 213.39,298.336 242.594,276.368 " fill="none" id="ApplicationDeveloperManageServices-smlservicelist" style="stroke: #A80036; stroke-width: 1.0;"/><polygon fill="#A80036" points="246.781,273.218,237.1842,275.4317,242.7853,276.2237,241.9933,281.8248,246.781,273.218" style="stroke: #A80036; stroke-width: 1.0;"/><!--
@startuml
left to right direction



state "IT Operations" as ITOperations {
    state "Manage Clouds" as ITOperationsManageClouds {
    }
}
state "sml" as sml #lightgreen {
state "Cloud" as smlCloud #lightgreen {
state "list" as smlCloudlist #lightgreen {
}
}
}

ITOperationsManageClouds - -> smlCloudlist


 
state "Stack Developer" as StackDeveloper {
    state "Manage Services" as StackDeveloperManageServices {
    }
}
state "sml" as sml #lightgreen {
state "service" as smlservice #lightgreen {
state "list" as smlservicelist #lightgreen {
}
}
}

StackDeveloperManageServices - -> smlservicelist

state "Application Developer" as ApplicationDeveloper {
    state "Manage Services" as ApplicationDeveloperManageServices {
    }
}
state "sml" as sml #lightgreen {
state "service" as smlservice #lightgreen {
state "list" as smlservicelist #lightgreen {
}
}
}

ApplicationDeveloperManageServices - -> smlservicelist


 

@enduml

PlantUML version 1.2019.05(Sat Apr 20 09:45:36 PDT 2019)
(GPL source distribution)
Java Runtime: OpenJDK Runtime Environment
JVM: OpenJDK 64-Bit Server VM
Java Version: 12.0.1+12
Operating System: Windows 10
OS Version: 10.0
Default Encoding: Cp1252
Language: en
Country: US
--></g></svg>