<?xml version="1.0" encoding="UTF-8" standalone="no"?><svg xmlns="http://www.w3.org/2000/svg" xmlns:xlink="http://www.w3.org/1999/xlink" contentScriptType="application/ecmascript" contentStyleType="text/css" height="343px" preserveAspectRatio="none" style="width:406px;height:343px;" version="1.1" viewBox="0 0 406 343" width="406px" zoomAndPan="magnify"><defs><filter height="300%" id="f19oqq3ej6k938" width="300%" x="-1" y="-1"><feGaussianBlur result="blurOut" stdDeviation="2.0"/><feColorMatrix in="blurOut" result="blurOut2" type="matrix" values="0 0 0 0 0 0 0 0 0 0 0 0 0 0 0 0 0 0 .4 0"/><feOffset dx="4.0" dy="4.0" in="blurOut2" result="blurOut3"/><feBlend in="SourceGraphic" in2="blurOut3" mode="normal"/></filter></defs><g><!--cluster Service Management Layer--><rect fill="#90EE90" filter="url(#f19oqq3ej6k938)" height="153" style="stroke: #000000; stroke-width: 1.5;" width="207" x="188" y="50.5"/><text fill="#000000" font-family="sans-serif" font-size="14" font-weight="bold" lengthAdjust="spacingAndGlyphs" textLength="191" x="196" y="67.0332">Service Management Layer</text><ellipse cx="291.2635" cy="102.4527" fill="#FEFECE" filter="url(#f19oqq3ej6k938)" rx="67.7635" ry="15.9527" style="stroke: #A80036; stroke-width: 1.5;"/><text fill="#000000" font-family="sans-serif" font-size="14" lengthAdjust="spacingAndGlyphs" textLength="95" x="243.7635" y="107.7574">ManageClouds</text><ellipse cx="291.5151" cy="170.703" fill="#FEFECE" filter="url(#f19oqq3ej6k938)" rx="71.5151" ry="16.703" style="stroke: #A80036; stroke-width: 1.5;"/><text fill="#000000" font-family="sans-serif" font-size="14" lengthAdjust="spacingAndGlyphs" textLength="105" x="239.0151" y="176.0077">ManageServices</text><!--entity ITOperations--><ellipse cx="75" cy="18" fill="#FEFECE" filter="url(#f19oqq3ej6k938)" rx="8" ry="8" style="stroke: #A80036; stroke-width: 2.0;"/><path d="M75,26 L75,53 M62,34 L88,34 M75,53 L62,68 M75,53 L88,68 " fill="none" filter="url(#f19oqq3ej6k938)" style="stroke: #A80036; stroke-width: 2.0;"/><text fill="#000000" font-family="sans-serif" font-size="14" lengthAdjust="spacingAndGlyphs" textLength="86" x="32" y="89.5332">IT Operations</text><!--entity StackDeveloper--><ellipse cx="75" cy="138" fill="#FEFECE" filter="url(#f19oqq3ej6k938)" rx="8" ry="8" style="stroke: #A80036; stroke-width: 2.0;"/><path d="M75,146 L75,173 M62,154 L88,154 M75,173 L62,188 M75,173 L88,188 " fill="none" filter="url(#f19oqq3ej6k938)" style="stroke: #A80036; stroke-width: 2.0;"/><text fill="#000000" font-family="sans-serif" font-size="14" lengthAdjust="spacingAndGlyphs" textLength="104" x="23" y="209.5332">Stack Developer</text><!--entity ApplicationDeveloper--><ellipse cx="75" cy="258" fill="#FEFECE" filter="url(#f19oqq3ej6k938)" rx="8" ry="8" style="stroke: #A80036; stroke-width: 2.0;"/><path d="M75,266 L75,293 M62,274 L88,274 M75,293 L62,308 M75,293 L88,308 " fill="none" filter="url(#f19oqq3ej6k938)" style="stroke: #A80036; stroke-width: 2.0;"/><text fill="#000000" font-family="sans-serif" font-size="14" lengthAdjust="spacingAndGlyphs" textLength="138" x="6" y="329.5332">Application Developer</text><!--link ITOperations to ManageClouds--><path d="M118.122,60.711 C152.568,69.062 201.439,80.909 238.353,89.858 " fill="none" id="ITOperations-ManageClouds" style="stroke: #A80036; stroke-width: 1.0;"/><polygon fill="#A80036" points="243.25,91.046,235.4449,85.0393,238.3906,89.8687,233.5612,92.8143,243.25,91.046" style="stroke: #A80036; stroke-width: 1.0;"/><!--link StackDeveloper to ManageServices--><path d="M127.106,170.5 C153.345,170.5 185.828,170.5 214.902,170.5 " fill="none" id="StackDeveloper-ManageServices" style="stroke: #A80036; stroke-width: 1.0;"/><polygon fill="#A80036" points="219.912,170.5,210.912,166.5,214.912,170.5,210.912,174.5,219.912,170.5" style="stroke: #A80036; stroke-width: 1.0;"/><!--link ApplicationDeveloper to ManageServices--><path d="M144.164,252.3664 C182.474,230.934 228.492,205.19 258.562,188.367 " fill="none" id="ApplicationDeveloper-ManageServices" style="stroke: #A80036; stroke-width: 1.0;"/><polygon fill="#A80036" points="263.248,185.746,253.4408,186.6504,258.8847,188.1877,257.3474,193.6316,263.248,185.746" style="stroke: #A80036; stroke-width: 1.0;"/><!--
@startuml

left to right direction
Actor "IT Operations" as ITOperations
Actor "Stack Developer" as StackDeveloper
Actor "Application Developer" as ApplicationDeveloper


rectangle "Service Management Layer" #lightgreen {
usecase "ManageClouds" as ManageClouds
    ITOperations - -> ManageClouds
    usecase "ManageServices" as ManageServices
    StackDeveloper - -> ManageServices
    ApplicationDeveloper - -> ManageServices
    }


@enduml

PlantUML version 1.2019.05(Sat Apr 20 09:45:36 PDT 2019)
(GPL source distribution)
Java Runtime: OpenJDK Runtime Environment
JVM: OpenJDK 64-Bit Server VM
Java Version: 12.0.1+12
Operating System: Windows 10
OS Version: 10.0
Default Encoding: Cp1252
Language: en
Country: US
--></g></svg>