<?xml version="1.0" encoding="UTF-8" standalone="no"?><svg xmlns="http://www.w3.org/2000/svg" xmlns:xlink="http://www.w3.org/1999/xlink" contentScriptType="application/ecmascript" contentStyleType="text/css" height="469px" preserveAspectRatio="none" style="width:711px;height:469px;" version="1.1" viewBox="0 0 711 469" width="711px" zoomAndPan="magnify"><defs><filter height="300%" id="fmwtjotdjxd37" width="300%" x="-1" y="-1"><feGaussianBlur result="blurOut" stdDeviation="2.0"/><feColorMatrix in="blurOut" result="blurOut2" type="matrix" values="0 0 0 0 0 0 0 0 0 0 0 0 0 0 0 0 0 0 .4 0"/><feOffset dx="4.0" dy="4.0" in="blurOut2" result="blurOut3"/><feBlend in="SourceGraphic" in2="blurOut3" mode="normal"/></filter></defs><g><line style="stroke: #A80036; stroke-width: 1.0; stroke-dasharray: 5.0,5.0;" x1="52" x2="52" y1="87.6094" y2="380.7734"/><line style="stroke: #A80036; stroke-width: 1.0; stroke-dasharray: 5.0,5.0;" x1="159" x2="159" y1="87.6094" y2="380.7734"/><line style="stroke: #A80036; stroke-width: 1.0; stroke-dasharray: 5.0,5.0;" x1="292" x2="292" y1="87.6094" y2="380.7734"/><line style="stroke: #A80036; stroke-width: 1.0; stroke-dasharray: 5.0,5.0;" x1="467" x2="467" y1="87.6094" y2="380.7734"/><line style="stroke: #A80036; stroke-width: 1.0; stroke-dasharray: 5.0,5.0;" x1="591" x2="591" y1="87.6094" y2="380.7734"/><line style="stroke: #A80036; stroke-width: 1.0; stroke-dasharray: 5.0,5.0;" x1="676" x2="676" y1="87.6094" y2="380.7734"/><text fill="#000000" font-family="sans-serif" font-size="14" lengthAdjust="spacingAndGlyphs" textLength="82" x="8" y="84.5332">ITOperations</text><ellipse cx="52" cy="13" fill="#FEFECE" filter="url(#fmwtjotdjxd37)" rx="8" ry="8" style="stroke: #A80036; stroke-width: 2.0;"/><path d="M52,21 L52,48 M39,29 L65,29 M52,48 L39,63 M52,48 L65,63 " fill="none" filter="url(#fmwtjotdjxd37)" style="stroke: #A80036; stroke-width: 2.0;"/><text fill="#000000" font-family="sans-serif" font-size="14" lengthAdjust="spacingAndGlyphs" textLength="82" x="8" y="394.3066">ITOperations</text><ellipse cx="52" cy="407.3828" fill="#FEFECE" filter="url(#fmwtjotdjxd37)" rx="8" ry="8" style="stroke: #A80036; stroke-width: 2.0;"/><path d="M52,415.3828 L52,442.3828 M39,423.3828 L65,423.3828 M52,442.3828 L39,457.3828 M52,442.3828 L65,457.3828 " fill="none" filter="url(#fmwtjotdjxd37)" style="stroke: #A80036; stroke-width: 2.0;"/><text fill="#000000" font-family="sans-serif" font-size="14" lengthAdjust="spacingAndGlyphs" textLength="100" x="106" y="84.5332">StackDeveloper</text><ellipse cx="159" cy="13" fill="#FEFECE" filter="url(#fmwtjotdjxd37)" rx="8" ry="8" style="stroke: #A80036; stroke-width: 2.0;"/><path d="M159,21 L159,48 M146,29 L172,29 M159,48 L146,63 M159,48 L172,63 " fill="none" filter="url(#fmwtjotdjxd37)" style="stroke: #A80036; stroke-width: 2.0;"/><text fill="#000000" font-family="sans-serif" font-size="14" lengthAdjust="spacingAndGlyphs" textLength="100" x="106" y="394.3066">StackDeveloper</text><ellipse cx="159" cy="407.3828" fill="#FEFECE" filter="url(#fmwtjotdjxd37)" rx="8" ry="8" style="stroke: #A80036; stroke-width: 2.0;"/><path d="M159,415.3828 L159,442.3828 M146,423.3828 L172,423.3828 M159,442.3828 L146,457.3828 M159,442.3828 L172,457.3828 " fill="none" filter="url(#fmwtjotdjxd37)" style="stroke: #A80036; stroke-width: 2.0;"/><text fill="#000000" font-family="sans-serif" font-size="14" lengthAdjust="spacingAndGlyphs" textLength="134" x="222" y="84.5332">ApplicationDeveloper</text><ellipse cx="292" cy="13" fill="#FEFECE" filter="url(#fmwtjotdjxd37)" rx="8" ry="8" style="stroke: #A80036; stroke-width: 2.0;"/><path d="M292,21 L292,48 M279,29 L305,29 M292,48 L279,63 M292,48 L305,63 " fill="none" filter="url(#fmwtjotdjxd37)" style="stroke: #A80036; stroke-width: 2.0;"/><text fill="#000000" font-family="sans-serif" font-size="14" lengthAdjust="spacingAndGlyphs" textLength="134" x="222" y="394.3066">ApplicationDeveloper</text><ellipse cx="292" cy="407.3828" fill="#FEFECE" filter="url(#fmwtjotdjxd37)" rx="8" ry="8" style="stroke: #A80036; stroke-width: 2.0;"/><path d="M292,415.3828 L292,442.3828 M279,423.3828 L305,423.3828 M292,442.3828 L279,457.3828 M292,442.3828 L305,457.3828 " fill="none" filter="url(#fmwtjotdjxd37)" style="stroke: #A80036; stroke-width: 2.0;"/><rect fill="#FEFECE" filter="url(#fmwtjotdjxd37)" height="31.6094" style="stroke: #A80036; stroke-width: 1.5;" width="187" x="372" y="51"/><text fill="#000000" font-family="sans-serif" font-size="14" lengthAdjust="spacingAndGlyphs" textLength="173" x="379" y="72.5332">Service Management Layer</text><rect fill="#FEFECE" filter="url(#fmwtjotdjxd37)" height="31.6094" style="stroke: #A80036; stroke-width: 1.5;" width="187" x="372" y="379.7734"/><text fill="#000000" font-family="sans-serif" font-size="14" lengthAdjust="spacingAndGlyphs" textLength="173" x="379" y="401.3066">Service Management Layer</text><rect fill="#FEFECE" filter="url(#fmwtjotdjxd37)" height="31.6094" style="stroke: #A80036; stroke-width: 1.5;" width="33" x="573" y="51"/><text fill="#000000" font-family="sans-serif" font-size="14" lengthAdjust="spacingAndGlyphs" textLength="19" x="580" y="72.5332">bin</text><rect fill="#FEFECE" filter="url(#fmwtjotdjxd37)" height="31.6094" style="stroke: #A80036; stroke-width: 1.5;" width="33" x="573" y="379.7734"/><text fill="#000000" font-family="sans-serif" font-size="14" lengthAdjust="spacingAndGlyphs" textLength="19" x="580" y="401.3066">bin</text><rect fill="#FEFECE" filter="url(#fmwtjotdjxd37)" height="31.6094" style="stroke: #A80036; stroke-width: 1.5;" width="51" x="649" y="51"/><text fill="#000000" font-family="sans-serif" font-size="14" lengthAdjust="spacingAndGlyphs" textLength="37" x="656" y="72.5332">REST</text><rect fill="#FEFECE" filter="url(#fmwtjotdjxd37)" height="31.6094" style="stroke: #A80036; stroke-width: 1.5;" width="51" x="649" y="379.7734"/><text fill="#000000" font-family="sans-serif" font-size="14" lengthAdjust="spacingAndGlyphs" textLength="37" x="656" y="401.3066">REST</text><polygon fill="#A80036" points="455.5,115.9609,465.5,119.9609,455.5,123.9609,459.5,119.9609" style="stroke: #A80036; stroke-width: 1.0;"/><line style="stroke: #A80036; stroke-width: 1.0;" x1="52" x2="461.5" y1="119.9609" y2="119.9609"/><text fill="#000000" font-family="sans-serif" font-size="13" lengthAdjust="spacingAndGlyphs" textLength="90" x="59" y="115.1045">Manage Clouds</text><polygon fill="#A80036" points="579.5,146.3125,589.5,150.3125,579.5,154.3125,583.5,150.3125" style="stroke: #A80036; stroke-width: 1.0;"/><line style="stroke: #A80036; stroke-width: 1.0;" x1="467.5" x2="585.5" y1="150.3125" y2="150.3125"/><text fill="#000000" font-family="sans-serif" font-size="13" lengthAdjust="spacingAndGlyphs" textLength="54" x="474.5" y="145.4561">Cloud/list</text><polygon fill="#A80036" points="664.5,176.6641,674.5,180.6641,664.5,184.6641,668.5,180.6641" style="stroke: #A80036; stroke-width: 1.0;"/><line style="stroke: #A80036; stroke-width: 1.0;" x1="591.5" x2="670.5" y1="180.6641" y2="180.6641"/><text fill="#000000" font-family="sans-serif" font-size="13" lengthAdjust="spacingAndGlyphs" textLength="54" x="598.5" y="175.8076">Cloud/list</text><polygon fill="#A80036" points="455.5,207.0156,465.5,211.0156,455.5,215.0156,459.5,211.0156" style="stroke: #A80036; stroke-width: 1.0;"/><line style="stroke: #A80036; stroke-width: 1.0;" x1="159" x2="461.5" y1="211.0156" y2="211.0156"/><text fill="#000000" font-family="sans-serif" font-size="13" lengthAdjust="spacingAndGlyphs" textLength="99" x="166" y="206.1592">Manage Services</text><polygon fill="#A80036" points="579.5,237.3672,589.5,241.3672,579.5,245.3672,583.5,241.3672" style="stroke: #A80036; stroke-width: 1.0;"/><line style="stroke: #A80036; stroke-width: 1.0;" x1="467.5" x2="585.5" y1="241.3672" y2="241.3672"/><text fill="#000000" font-family="sans-serif" font-size="13" lengthAdjust="spacingAndGlyphs" textLength="61" x="474.5" y="236.5107">service/list</text><polygon fill="#A80036" points="664.5,267.7188,674.5,271.7188,664.5,275.7188,668.5,271.7188" style="stroke: #A80036; stroke-width: 1.0;"/><line style="stroke: #A80036; stroke-width: 1.0;" x1="591.5" x2="670.5" y1="271.7188" y2="271.7188"/><text fill="#000000" font-family="sans-serif" font-size="13" lengthAdjust="spacingAndGlyphs" textLength="61" x="598.5" y="266.8623">service/list</text><polygon fill="#A80036" points="455.5,298.0703,465.5,302.0703,455.5,306.0703,459.5,302.0703" style="stroke: #A80036; stroke-width: 1.0;"/><line style="stroke: #A80036; stroke-width: 1.0;" x1="292" x2="461.5" y1="302.0703" y2="302.0703"/><text fill="#000000" font-family="sans-serif" font-size="13" lengthAdjust="spacingAndGlyphs" textLength="99" x="299" y="297.2139">Manage Services</text><polygon fill="#A80036" points="579.5,328.4219,589.5,332.4219,579.5,336.4219,583.5,332.4219" style="stroke: #A80036; stroke-width: 1.0;"/><line style="stroke: #A80036; stroke-width: 1.0;" x1="467.5" x2="585.5" y1="332.4219" y2="332.4219"/><text fill="#000000" font-family="sans-serif" font-size="13" lengthAdjust="spacingAndGlyphs" textLength="61" x="474.5" y="327.5654">service/list</text><polygon fill="#A80036" points="664.5,358.7734,674.5,362.7734,664.5,366.7734,668.5,362.7734" style="stroke: #A80036; stroke-width: 1.0;"/><line style="stroke: #A80036; stroke-width: 1.0;" x1="591.5" x2="670.5" y1="362.7734" y2="362.7734"/><text fill="#000000" font-family="sans-serif" font-size="13" lengthAdjust="spacingAndGlyphs" textLength="61" x="598.5" y="357.917">service/list</text><!--
@startuml

actor "ITOperations" as itops

actor "StackDeveloper" as stackdev

actor "ApplicationDeveloper" as applicationdeveloper




itops -> "Service Management Layer": Manage Clouds
"Service Management Layer" -> bin: Cloud/list
bin -> REST: Cloud/list

stackdev -> "Service Management Layer": Manage Services
"Service Management Layer" -> bin: service/list
bin -> REST: service/list

applicationdeveloper -> "Service Management Layer": Manage Services
"Service Management Layer" -> bin: service/list
bin -> REST: service/list


@enduml

PlantUML version 1.2019.05(Sat Apr 20 09:45:36 PDT 2019)
(GPL source distribution)
Java Runtime: OpenJDK Runtime Environment
JVM: OpenJDK 64-Bit Server VM
Java Version: 12.0.1+12
Operating System: Windows 10
OS Version: 10.0
Default Encoding: Cp1252
Language: en
Country: US
--></g></svg>