<?xml version="1.0" encoding="UTF-8" standalone="no"?><svg xmlns="http://www.w3.org/2000/svg" xmlns:xlink="http://www.w3.org/1999/xlink" contentScriptType="application/ecmascript" contentStyleType="text/css" height="353px" preserveAspectRatio="none" style="width:1040px;height:353px;" version="1.1" viewBox="0 0 1040 353" width="1040px" zoomAndPan="magnify"><defs><filter height="300%" id="f6ax21tl7zdnd" width="300%" x="-1" y="-1"><feGaussianBlur result="blurOut" stdDeviation="2.0"/><feColorMatrix in="blurOut" result="blurOut2" type="matrix" values="0 0 0 0 0 0 0 0 0 0 0 0 0 0 0 0 0 0 .4 0"/><feOffset dx="4.0" dy="4.0" in="blurOut2" result="blurOut3"/><feBlend in="SourceGraphic" in2="blurOut3" mode="normal"/></filter></defs><g><!--entity CloudType--><rect fill="#90EE90" filter="url(#f6ax21tl7zdnd)" height="37.6094" style="stroke: #000000; stroke-width: 1.5;" width="89" x="30.3134" y="8"/><text fill="#000000" font-family="sans-serif" font-size="14" lengthAdjust="spacingAndGlyphs" textLength="69" x="40.3134" y="32.5332">CloudType</text><!--entity Resource--><rect fill="#90EE90" filter="url(#f6ax21tl7zdnd)" height="37.6094" style="stroke: #000000; stroke-width: 1.5;" width="81" x="34.3134" y="305"/><text fill="#000000" font-family="sans-serif" font-size="14" lengthAdjust="spacingAndGlyphs" textLength="61" x="44.3134" y="329.5332">Resource</text><!--entity Device--><rect fill="#ADD8E6" filter="url(#f6ax21tl7zdnd)" height="37.6094" style="stroke: #000000; stroke-width: 1.5;" width="63" x="478.313" y="305"/><text fill="#000000" font-family="sans-serif" font-size="14" lengthAdjust="spacingAndGlyphs" textLength="43" x="488.313" y="329.5332">Device</text><!--entity AggregatedDevice--><rect fill="#ADD8E6" filter="url(#f6ax21tl7zdnd)" height="37.6094" style="stroke: #000000; stroke-width: 1.5;" width="137" x="576.313" y="305"/><text fill="#000000" font-family="sans-serif" font-size="14" lengthAdjust="spacingAndGlyphs" textLength="117" x="586.313" y="329.5332">AggregatedDevice</text><!--entity DataCenter--><rect fill="#ADD8E6" filter="url(#f6ax21tl7zdnd)" height="37.6094" style="stroke: #000000; stroke-width: 1.5;" width="93" x="748.313" y="305"/><text fill="#000000" font-family="sans-serif" font-size="14" lengthAdjust="spacingAndGlyphs" textLength="73" x="758.313" y="329.5332">DataCenter</text><!--entity Reservation--><rect fill="#90EE90" filter="url(#f6ax21tl7zdnd)" height="37.6094" style="stroke: #000000; stroke-width: 1.5;" width="96" x="174.813" y="305"/><text fill="#000000" font-family="sans-serif" font-size="14" lengthAdjust="spacingAndGlyphs" textLength="76" x="184.813" y="329.5332">Reservation</text><!--entity Request--><rect fill="#90EE90" filter="url(#f6ax21tl7zdnd)" height="37.6094" style="stroke: #000000; stroke-width: 1.5;" width="73" x="351.313" y="305"/><text fill="#000000" font-family="sans-serif" font-size="14" lengthAdjust="spacingAndGlyphs" textLength="53" x="361.313" y="329.5332">Request</text><!--entity Image--><rect fill="#90EE90" filter="url(#f6ax21tl7zdnd)" height="37.6094" style="stroke: #000000; stroke-width: 1.5;" width="58" x="155.813" y="8"/><text fill="#000000" font-family="sans-serif" font-size="14" lengthAdjust="spacingAndGlyphs" textLength="38" x="165.813" y="32.5332">Image</text><!--entity MultiCloud--><rect fill="#90EE90" filter="url(#f6ax21tl7zdnd)" height="37.6094" style="stroke: #000000; stroke-width: 1.5;" width="86" x="248.813" y="8"/><text fill="#000000" font-family="sans-serif" font-size="14" lengthAdjust="spacingAndGlyphs" textLength="66" x="258.813" y="32.5332">MultiCloud</text><!--entity AcceleratorResource--><rect fill="#90EE90" filter="url(#f6ax21tl7zdnd)" height="37.6094" style="stroke: #000000; stroke-width: 1.5;" width="153" x="370.313" y="8"/><text fill="#000000" font-family="sans-serif" font-size="14" lengthAdjust="spacingAndGlyphs" textLength="133" x="380.313" y="32.5332">AcceleratorResource</text><!--entity ComputeResource--><rect fill="#90EE90" filter="url(#f6ax21tl7zdnd)" height="37.6094" style="stroke: #000000; stroke-width: 1.5;" width="138" x="558.813" y="8"/><text fill="#000000" font-family="sans-serif" font-size="14" lengthAdjust="spacingAndGlyphs" textLength="118" x="568.813" y="32.5332">ComputeResource</text><!--entity NetworkResource--><rect fill="#90EE90" filter="url(#f6ax21tl7zdnd)" height="37.6094" style="stroke: #000000; stroke-width: 1.5;" width="131" x="732.313" y="8"/><text fill="#000000" font-family="sans-serif" font-size="14" lengthAdjust="spacingAndGlyphs" textLength="111" x="742.313" y="32.5332">NetworkResource</text><!--entity StorageResource--><rect fill="#90EE90" filter="url(#f6ax21tl7zdnd)" height="37.6094" style="stroke: #000000; stroke-width: 1.5;" width="131" x="898.313" y="8"/><text fill="#000000" font-family="sans-serif" font-size="14" lengthAdjust="spacingAndGlyphs" textLength="111" x="908.313" y="32.5332">StorageResource</text><!--class Model--><rect fill="#FEFECE" filter="url(#f6ax21tl7zdnd)" height="103.3438" id="Model" style="stroke: #A80036; stroke-width: 1.5;" width="74" x="332.813" y="124"/><ellipse cx="351.863" cy="140" fill="#ADD1B2" rx="11" ry="11" style="stroke: #A80036; stroke-width: 1.0;"/><path d="M354.6286,135.875 Q354.7849,135.6563 354.9724,135.5469 Q355.1599,135.4375 355.3786,135.4375 Q355.7536,135.4375 355.988,135.7031 Q356.2224,135.9531 356.2224,136.5625 L356.2224,138.0156 Q356.2224,138.625 355.988,138.8906 Q355.7536,139.1563 355.3786,139.1563 Q355.0349,139.1563 354.8318,138.9531 Q354.6286,138.7656 354.5193,138.25 Q354.4724,137.8906 354.2849,137.7031 Q353.9568,137.3281 353.3474,137.1094 Q352.738,136.8906 352.113,136.8906 Q351.3474,136.8906 350.7068,137.2188 Q350.0818,137.5469 349.5818,138.2969 Q349.0974,139.0469 349.0974,140.0781 L349.0974,141.1719 Q349.0974,142.4063 349.988,143.2344 Q350.8786,144.0469 352.4724,144.0469 Q353.4099,144.0469 354.0661,143.7969 Q354.4568,143.6406 354.8786,143.2031 Q355.1443,142.9375 355.2849,142.8594 Q355.4411,142.7813 355.6443,142.7813 Q355.9724,142.7813 356.2224,143.0469 Q356.488,143.2969 356.488,143.6406 Q356.488,143.9844 356.1443,144.3906 Q355.6443,144.9688 354.8474,145.2969 Q353.7693,145.75 352.4724,145.75 Q350.9568,145.75 349.7536,145.125 Q348.7693,144.625 348.0818,143.5625 Q347.3943,142.4844 347.3943,141.2031 L347.3943,140.0469 Q347.3943,138.7188 348.0036,137.5781 Q348.6286,136.4219 349.7224,135.8125 Q350.8161,135.1875 352.0505,135.1875 Q352.7849,135.1875 353.4255,135.3594 Q354.0818,135.5156 354.6286,135.875 Z "/><text fill="#000000" font-family="sans-serif" font-size="12" lengthAdjust="spacingAndGlyphs" textLength="33" x="366.763" y="144.9102">Cloud</text><line style="stroke: #A80036; stroke-width: 1.5;" x1="333.813" x2="405.813" y1="156" y2="156"/><text fill="#000000" font-family="sans-serif" font-size="11" lengthAdjust="spacingAndGlyphs" textLength="56" x="338.813" y="171.4189">string name</text><text fill="#000000" font-family="sans-serif" font-size="11" lengthAdjust="spacingAndGlyphs" textLength="62" x="338.813" y="185.2549">string ename</text><line style="stroke: #A80036; stroke-width: 1.5;" x1="333.813" x2="405.813" y1="191.6719" y2="191.6719"/><text fill="#000000" font-family="sans-serif" font-size="11" lengthAdjust="spacingAndGlyphs" textLength="39" x="338.813" y="207.0908">create()</text><text fill="#000000" font-family="sans-serif" font-size="11" lengthAdjust="spacingAndGlyphs" textLength="46" x="338.813" y="220.9268">reserve()</text><!--link Model to CloudType--><path d="M320.659,150.089 C265.825,122.858 177.682,79.085 123.173,52.016 " fill="none" id="Model-CloudType" style="stroke: #A80036; stroke-width: 1.0;"/><polygon fill="#A80036" points="111.282,46.111,117.5639,53.6964,115.7603,48.3348,121.1219,46.5311,111.282,46.111" style="stroke: #A80036; stroke-width: 1.0;"/><line style="stroke: #A80036; stroke-width: 1.0;" x1="115.7603" x2="122.9255" y1="48.3348" y2="51.893"/><polygon fill="#FFFFFF" points="332.499,155.969,328.9047,149.7175,321.7517,150.6309,325.346,156.8824,332.499,155.969" style="stroke: #A80036; stroke-width: 1.0;"/><text fill="#000000" font-family="sans-serif" font-size="13" lengthAdjust="spacingAndGlyphs" textLength="25" x="205.813" y="90.4951">type</text><text fill="#000000" font-family="sans-serif" font-size="13" lengthAdjust="spacingAndGlyphs" textLength="7" x="113.1424" y="66.9919">1</text><!--link CloudType to Model--><path d="M93.7925,56.842 C103.5338,69.742 116.386,84.213 130.813,94 C189.187,133.597 268.742,155.237 319.701,165.839 " fill="none" id="CloudType-Model" style="stroke: #A80036; stroke-width: 1.0;"/><polygon fill="#A80036" points="332.642,168.422,324.599,162.7378,327.7387,167.4433,323.0331,170.583,332.642,168.422" style="stroke: #A80036; stroke-width: 1.0;"/><line style="stroke: #A80036; stroke-width: 1.0;" x1="327.7387" x2="319.8935" y1="167.4433" y2="165.8775"/><polygon fill="#FFFFFF" points="86.0712,46.068,86.315,53.275,93.0614,55.8218,92.8176,48.6149,86.0712,46.068" style="stroke: #A80036; stroke-width: 1.0;"/><text fill="#000000" font-family="sans-serif" font-size="13" lengthAdjust="spacingAndGlyphs" textLength="38" x="131.813" y="90.4951">clouds</text><text fill="#000000" font-family="sans-serif" font-size="13" lengthAdjust="spacingAndGlyphs" textLength="7" x="317.8891" y="163.0436">n</text><!--link Model to Resource--><path d="M319.768,180.201 C230.365,187.966 48.9741,209.335 10.8135,257 C-0.4788,271.1048 10.7304,285.641 26.7489,297.469 " fill="none" id="Model-Resource" style="stroke: #A80036; stroke-width: 1.0;"/><polygon fill="#A80036" points="37.7816,304.8189,32.5092,296.5001,33.6204,302.0468,28.0738,303.158,37.7816,304.8189" style="stroke: #A80036; stroke-width: 1.0;"/><line style="stroke: #A80036; stroke-width: 1.0;" x1="33.6204" x2="26.9626" y1="302.0468" y2="297.6114"/><polygon fill="#A80036" points="332.777,179.111,326.4643,175.6254,320.8188,180.1119,327.1315,183.5975,332.777,179.111" style="stroke: #A80036; stroke-width: 1.0;"/><text fill="#000000" font-family="sans-serif" font-size="13" lengthAdjust="spacingAndGlyphs" textLength="57" x="11.8135" y="271.4951">resources</text><text fill="#000000" font-family="sans-serif" font-size="13" lengthAdjust="spacingAndGlyphs" textLength="7" x="19.382" y="294.7737">n</text><!--link Resource to Model--><path d="M97.1788,294.445 C108.5,281.5473 123.152,266.9956 138.813,257 C195.709,220.688 270.992,198.436 319.903,186.782 " fill="none" id="Resource-Model" style="stroke: #A80036; stroke-width: 1.0;"/><polygon fill="#A80036" points="332.657,183.842,322.9885,181.9659,327.7848,184.9651,324.7855,189.7614,332.657,183.842" style="stroke: #A80036; stroke-width: 1.0;"/><line style="stroke: #A80036; stroke-width: 1.0;" x1="327.7848" x2="319.989" y1="184.9651" y2="186.7625"/><polygon fill="#FFFFFF" points="88.5027,304.7537,95.4266,302.7389,96.2299,295.5727,89.3059,297.5875,88.5027,304.7537" style="stroke: #A80036; stroke-width: 1.0;"/><text fill="#000000" font-family="sans-serif" font-size="13" lengthAdjust="spacingAndGlyphs" textLength="31" x="139.813" y="271.4951">cloud</text><text fill="#000000" font-family="sans-serif" font-size="13" lengthAdjust="spacingAndGlyphs" textLength="7" x="317.907" y="200.4531">1</text><!--link Model to Device--><path d="M417.508,211.994 C433.742,225.207 451.408,240.919 465.813,257 C475.806,268.1549 485.249,281.7428 492.806,293.6836 " fill="none" id="Model-Device" style="stroke: #A80036; stroke-width: 1.0;"/><polygon fill="#A80036" points="499.685,304.9242,498.399,295.1597,497.0751,300.6594,491.5753,299.3355,499.685,304.9242" style="stroke: #A80036; stroke-width: 1.0;"/><line style="stroke: #A80036; stroke-width: 1.0;" x1="497.0751" x2="492.899" y1="300.6594" y2="293.8357"/><polygon fill="#FFFFFF" points="407.097,203.694,409.2957,210.5617,416.4808,211.1736,414.2821,204.3059,407.097,203.694" style="stroke: #A80036; stroke-width: 1.0;"/><text fill="#000000" font-family="sans-serif" font-size="13" lengthAdjust="spacingAndGlyphs" textLength="43" x="480.813" y="271.4951">devices</text><text fill="#000000" font-family="sans-serif" font-size="13" lengthAdjust="spacingAndGlyphs" textLength="7" x="488.5114" y="294.241">n</text><!--link Model to AggregatedDevice--><path d="M419.032,199.64 C451.625,215.248 495.147,236.636 532.813,257 C556.657,269.8906 582.779,285.212 603.793,297.8464 " fill="none" id="Model-AggregatedDevice" style="stroke: #A80036; stroke-width: 1.0;"/><polygon fill="#A80036" points="615.207,304.7459,609.5744,296.6666,610.9281,302.1591,605.4356,303.5128,615.207,304.7459" style="stroke: #A80036; stroke-width: 1.0;"/><line style="stroke: #A80036; stroke-width: 1.0;" x1="610.9281" x2="604.082" y1="302.1591" y2="298.0208"/><polygon fill="#FFFFFF" points="407.111,193.955,410.805,200.1481,417.9425,199.1202,414.2485,192.9271,407.111,193.955" style="stroke: #A80036; stroke-width: 1.0;"/><text fill="#000000" font-family="sans-serif" font-size="13" lengthAdjust="spacingAndGlyphs" textLength="50" x="565.813" y="271.4951">adevices</text><text fill="#000000" font-family="sans-serif" font-size="13" lengthAdjust="spacingAndGlyphs" textLength="7" x="598.0683" y="294.0081">n</text><!--link Model to DataCenter--><path d="M419.981,191.292 C471.635,206.767 554.306,232.213 624.813,257 C663.084,270.4539 705.632,286.9739 738.588,300.1204 " fill="none" id="Model-DataCenter" style="stroke: #A80036; stroke-width: 1.0;"/><polygon fill="#A80036" points="750.72,304.9804,743.8529,297.9204,746.0786,303.1211,740.878,305.3467,750.72,304.9804" style="stroke: #A80036; stroke-width: 1.0;"/><line style="stroke: #A80036; stroke-width: 1.0;" x1="746.0786" x2="738.652" y1="303.1211" y2="300.1462"/><polygon fill="#FFFFFF" points="407.226,187.485,411.8312,193.0341,418.7246,190.9174,414.1195,185.3683,407.226,187.485" style="stroke: #A80036; stroke-width: 1.0;"/><text fill="#000000" font-family="sans-serif" font-size="13" lengthAdjust="spacingAndGlyphs" textLength="68" x="673.813" y="271.4951">datacenters</text><text fill="#000000" font-family="sans-serif" font-size="13" lengthAdjust="spacingAndGlyphs" textLength="7" x="733.309" y="296.6462">n</text><!--link Model to Reservation--><path d="M319.785,182.784 C275.378,191.303 212.994,211.149 182.813,257 C174.723,269.2914 180.936,283.1841 190.67,295.0417 " fill="none" id="Model-Reservation" style="stroke: #A80036; stroke-width: 1.0;"/><polygon fill="#A80036" points="199.858,304.8468,196.6225,295.5446,196.439,301.1985,190.7851,301.015,199.858,304.8468" style="stroke: #A80036; stroke-width: 1.0;"/><line style="stroke: #A80036; stroke-width: 1.0;" x1="196.439" x2="190.969" y1="301.1985" y2="295.361"/><polygon fill="#A80036" points="332.647,180.533,326.0471,177.6275,320.8267,182.6022,327.4266,185.5077,332.647,180.533" style="stroke: #A80036; stroke-width: 1.0;"/><text fill="#000000" font-family="sans-serif" font-size="13" lengthAdjust="spacingAndGlyphs" textLength="69" x="183.813" y="271.4951">reservations</text><text fill="#000000" font-family="sans-serif" font-size="13" lengthAdjust="spacingAndGlyphs" textLength="7" x="184.7562" y="294.1399">n</text><!--link Reservation to Model--><path d="M250.445,295.462 C270.889,275.088 299.219,246.8542 323.15,223.005 " fill="none" id="Reservation-Model" style="stroke: #A80036; stroke-width: 1.0;"/><polygon fill="#A80036" points="332.719,213.468,323.5206,216.9878,329.1774,216.9975,329.1678,222.6543,332.719,213.468" style="stroke: #A80036; stroke-width: 1.0;"/><line style="stroke: #A80036; stroke-width: 1.0;" x1="329.1774" x2="323.511" y1="216.9975" y2="222.645"/><polygon fill="#FFFFFF" points="241.097,304.7788,248.1704,303.3765,249.5966,296.3078,242.5231,297.7101,241.097,304.7788" style="stroke: #A80036; stroke-width: 1.0;"/><text fill="#000000" font-family="sans-serif" font-size="13" lengthAdjust="spacingAndGlyphs" textLength="31" x="288.813" y="271.4951">cloud</text><text fill="#000000" font-family="sans-serif" font-size="13" lengthAdjust="spacingAndGlyphs" textLength="7" x="317.7271" y="236.0138">1</text><!--link Model to Request--><path d="M363.485,240.026 C363.558,251.7425 364.472,263.8062 366.813,275 C368.062,280.9708 370.098,287.1073 372.423,292.9129 " fill="none" id="Model-Request" style="stroke: #A80036; stroke-width: 1.0;"/><polygon fill="#A80036" points="377.78,304.9012,377.7602,295.0524,375.7401,300.3362,370.4562,298.3162,377.78,304.9012" style="stroke: #A80036; stroke-width: 1.0;"/><line style="stroke: #A80036; stroke-width: 1.0;" x1="375.7401" x2="372.476" y1="300.3362" y2="293.0322"/><polygon fill="#A80036" points="363.73,227.011,359.618,232.9348,363.5045,239.0089,367.6166,233.0851,363.73,227.011" style="stroke: #A80036; stroke-width: 1.0;"/><text fill="#000000" font-family="sans-serif" font-size="13" lengthAdjust="spacingAndGlyphs" textLength="50" x="367.813" y="271.4951">requests</text><text fill="#000000" font-family="sans-serif" font-size="13" lengthAdjust="spacingAndGlyphs" textLength="7" x="366.6355" y="294.211">n</text><!--link Request to Model--><path d="M414.378,294.3305 C421.683,283.1083 426.666,269.8589 422.813,257 C420.54,249.4127 417.295,241.879 413.516,234.638 " fill="none" id="Request-Model" style="stroke: #A80036; stroke-width: 1.0;"/><polygon fill="#A80036" points="406.968,223.158,407.9532,232.9575,409.4456,227.501,414.902,228.9934,406.968,223.158" style="stroke: #A80036; stroke-width: 1.0;"/><line style="stroke: #A80036; stroke-width: 1.0;" x1="409.4456" x2="413.409" y1="227.501" y2="234.4505"/><polygon fill="#FFFFFF" points="406.541,304.7875,413.3402,302.3851,413.7376,295.185,406.9385,297.5874,406.541,304.7875" style="stroke: #A80036; stroke-width: 1.0;"/><text fill="#000000" font-family="sans-serif" font-size="13" lengthAdjust="spacingAndGlyphs" textLength="31" x="425.813" y="271.4951">cloud</text><text fill="#000000" font-family="sans-serif" font-size="13" lengthAdjust="spacingAndGlyphs" textLength="7" x="414.7179" y="228.2137">1</text><!--link Image to Model--><path d="M218.129,54.382 C247.238,77.433 289.828,111.16 322.473,137.012 " fill="none" id="Image-Model" style="stroke: #A80036; stroke-width: 1.0;"/><polygon fill="#A80036" points="332.693,145.105,328.1203,136.382,328.7731,142.0011,323.154,142.6538,332.693,145.105" style="stroke: #A80036; stroke-width: 1.0;"/><line style="stroke: #A80036; stroke-width: 1.0;" x1="328.7731" x2="322.5015" y1="142.0011" y2="137.034"/><polygon fill="#FFFFFF" points="207.87,46.258,210.0907,53.1186,217.2777,53.7074,215.057,46.8468,207.87,46.258" style="stroke: #A80036; stroke-width: 1.0;"/><text fill="#000000" font-family="sans-serif" font-size="13" lengthAdjust="spacingAndGlyphs" textLength="31" x="267.813" y="90.4951">cloud</text><text fill="#000000" font-family="sans-serif" font-size="13" lengthAdjust="spacingAndGlyphs" textLength="7" x="317.6959" y="135.0419">1</text><!--link MultiCloud to Model--><path d="M307.652,57.748 C316.015,73.455 326.606,93.347 336.665,112.241 " fill="none" id="MultiCloud-Model" style="stroke: #A80036; stroke-width: 1.0;"/><polygon fill="#A80036" points="342.835,123.83,342.1355,114.006,340.4849,119.4167,335.0743,117.7661,342.835,123.83" style="stroke: #A80036; stroke-width: 1.0;"/><line style="stroke: #A80036; stroke-width: 1.0;" x1="340.4849" x2="336.726" y1="119.4167" y2="112.3545"/><polygon fill="#FFFFFF" points="301.534,46.258,300.8227,53.4339,307.1731,56.8505,307.8844,49.6745,301.534,46.258" style="stroke: #A80036; stroke-width: 1.0;"/><text fill="#000000" font-family="sans-serif" font-size="13" lengthAdjust="spacingAndGlyphs" textLength="38" x="327.813" y="90.4951">clouds</text><text fill="#000000" font-family="sans-serif" font-size="13" lengthAdjust="spacingAndGlyphs" textLength="7" x="331.7395" y="113.3075">n</text><!--link AcceleratorResource to Model--><path d="M431.035,58.019 C422.794,73.699 412.389,93.495 402.507,112.297 " fill="none" id="AcceleratorResource-Model" style="stroke: #A80036; stroke-width: 1.0;"/><polygon fill="#A80036" points="396.446,123.83,404.1735,117.7239,398.7719,119.4039,397.0919,114.0023,396.446,123.83" style="stroke: #A80036; stroke-width: 1.0;"/><line style="stroke: #A80036; stroke-width: 1.0;" x1="398.7719" x2="402.4935" y1="119.4039" y2="112.3225"/><polygon fill="#FFFFFF" points="437.217,46.258,430.885,49.7085,431.6347,56.8805,437.9667,53.43,437.217,46.258" style="stroke: #A80036; stroke-width: 1.0;"/><text fill="#000000" font-family="sans-serif" font-size="13" lengthAdjust="spacingAndGlyphs" textLength="31" x="420.813" y="90.4951">cloud</text><text fill="#000000" font-family="sans-serif" font-size="13" lengthAdjust="spacingAndGlyphs" textLength="7" x="392.5545" y="113.3075">1</text><!--link ComputeResource to Model--><path d="M584.596,52.54 C538.673,78.616 466.223,119.756 418.363,146.932 " fill="none" id="ComputeResource-Model" style="stroke: #A80036; stroke-width: 1.0;"/><polygon fill="#A80036" points="407.055,153.353,416.8565,152.3881,411.4031,150.8844,412.9068,145.4311,407.055,153.353" style="stroke: #A80036; stroke-width: 1.0;"/><line style="stroke: #A80036; stroke-width: 1.0;" x1="411.4031" x2="418.3595" y1="150.8844" y2="146.934"/><polygon fill="#FFFFFF" points="595.919,46.111,588.7264,45.5954,585.4841,52.0365,592.6767,52.5521,595.919,46.111" style="stroke: #A80036; stroke-width: 1.0;"/><text fill="#000000" font-family="sans-serif" font-size="13" lengthAdjust="spacingAndGlyphs" textLength="31" x="538.813" y="90.4951">cloud</text><text fill="#000000" font-family="sans-serif" font-size="13" lengthAdjust="spacingAndGlyphs" textLength="7" x="414.8214" y="145.1021">1</text><!--link NetworkResource to Model--><path d="M732.553,50.338 C646.55,79.776 497.132,130.92 419.638,157.446 " fill="none" id="NetworkResource-Model" style="stroke: #A80036; stroke-width: 1.0;"/><polygon fill="#A80036" points="406.937,161.793,416.7474,162.663,411.6676,160.1738,414.1567,155.094,406.937,161.793" style="stroke: #A80036; stroke-width: 1.0;"/><line style="stroke: #A80036; stroke-width: 1.0;" x1="411.6676" x2="419.2365" y1="160.1738" y2="157.583"/><polygon fill="#FFFFFF" points="744.903,46.111,737.931,44.2695,733.5496,49.997,740.5216,51.8385,744.903,46.111" style="stroke: #A80036; stroke-width: 1.0;"/><text fill="#000000" font-family="sans-serif" font-size="13" lengthAdjust="spacingAndGlyphs" textLength="31" x="648.813" y="90.4951">cloud</text><text fill="#000000" font-family="sans-serif" font-size="13" lengthAdjust="spacingAndGlyphs" textLength="7" x="414.9349" y="174.1653">1</text><!--link StorageResource to Model--><path d="M885.372,47.346 C761.332,77.939 523.388,136.623 419.921,162.142 " fill="none" id="StorageResource-Model" style="stroke: #A80036; stroke-width: 1.0;"/><polygon fill="#A80036" points="407.111,165.301,416.807,167.0295,411.9655,164.1037,414.8913,159.2623,407.111,165.301" style="stroke: #A80036; stroke-width: 1.0;"/><line style="stroke: #A80036; stroke-width: 1.0;" x1="411.9655" x2="419.7325" y1="164.1037" y2="162.1885"/><polygon fill="#FFFFFF" points="898.261,44.167,891.4777,41.7201,886.6101,47.0405,893.3934,49.4874,898.261,44.167" style="stroke: #A80036; stroke-width: 1.0;"/><text fill="#000000" font-family="sans-serif" font-size="13" lengthAdjust="spacingAndGlyphs" textLength="31" x="755.813" y="90.4951">cloud</text><text fill="#000000" font-family="sans-serif" font-size="13" lengthAdjust="spacingAndGlyphs" textLength="7" x="414.8881" y="159.3277">1</text><!--
@startuml

class "Cloud" as Model {
 string name
 string ename

 create()
 reserve()
 
}

rectangle "CloudType" as CloudType #lightblue {
}

Model o- -> "1" CloudType : type


rectangle "Resource" as Resource #lightblue {
}

Model *- -> "n" Resource : resources


rectangle "Device" as Device #lightblue {
}

Model o- -> "n" Device : devices


rectangle "AggregatedDevice" as AggregatedDevice #lightblue {
}

Model o- -> "n" AggregatedDevice : adevices


rectangle "DataCenter" as DataCenter #lightblue {
}

Model o- -> "n" DataCenter : datacenters


rectangle "Reservation" as Reservation #lightblue {
}

Model *- -> "n" Reservation : reservations


rectangle "Request" as Request #lightblue {
}

Model *- -> "n" Request : requests




    rectangle "CloudType" as CloudType #lightgreen {
    }
    
        CloudType   o- -> "n" Model : "clouds"
    
    rectangle "Image" as Image #lightgreen {
    }
    
        Image   o- -> "1" Model : "cloud"
    
    rectangle "MultiCloud" as MultiCloud #lightgreen {
    }
    
        MultiCloud   o- -> "n" Model : "clouds"
    
    rectangle "AcceleratorResource" as AcceleratorResource #lightgreen {
    }
    
        AcceleratorResource   o- -> "1" Model : "cloud"
    
    rectangle "ComputeResource" as ComputeResource #lightgreen {
    }
    
        ComputeResource   o- -> "1" Model : "cloud"
    
    rectangle "NetworkResource" as NetworkResource #lightgreen {
    }
    
        NetworkResource   o- -> "1" Model : "cloud"
    
    rectangle "Request" as Request #lightgreen {
    }
    
        Request   o- -> "1" Model : "cloud"
    
    rectangle "Reservation" as Reservation #lightgreen {
    }
    
        Reservation   o- -> "1" Model : "cloud"
    
    rectangle "Resource" as Resource #lightgreen {
    }
    
        Resource   o- -> "1" Model : "cloud"
    
    rectangle "StorageResource" as StorageResource #lightgreen {
    }
    
        StorageResource   o- -> "1" Model : "cloud"
    

@enduml

PlantUML version 1.2019.05(Sat Apr 20 09:45:36 PDT 2019)
(GPL source distribution)
Java Runtime: OpenJDK Runtime Environment
JVM: OpenJDK 64-Bit Server VM
Java Version: 12.0.1+12
Operating System: Windows 10
OS Version: 10.0
Default Encoding: Cp1252
Language: en
Country: US
--></g></svg>