<?xml version="1.0" encoding="UTF-8" standalone="no"?><svg xmlns="http://www.w3.org/2000/svg" xmlns:xlink="http://www.w3.org/1999/xlink" contentScriptType="application/ecmascript" contentStyleType="text/css" height="289px" preserveAspectRatio="none" style="width:396px;height:289px;" version="1.1" viewBox="0 0 396 289" width="396px" zoomAndPan="magnify"><defs><filter height="300%" id="f1oi6q6np9iik0" width="300%" x="-1" y="-1"><feGaussianBlur result="blurOut" stdDeviation="2.0"/><feColorMatrix in="blurOut" result="blurOut2" type="matrix" values="0 0 0 0 0 0 0 0 0 0 0 0 0 0 0 0 0 0 .4 0"/><feOffset dx="4.0" dy="4.0" in="blurOut2" result="blurOut3"/><feBlend in="SourceGraphic" in2="blurOut3" mode="normal"/></filter></defs><g><!--cluster Common Data Service--><polygon fill="#FFCC88" filter="url(#f1oi6q6np9iik0)" points="103.5,42,263.5,42,270.5,65.6094,374.5,65.6094,374.5,186,103.5,186,103.5,42" style="stroke: #000000; stroke-width: 1.5;"/><line style="stroke: #000000; stroke-width: 1.5;" x1="103.5" x2="270.5" y1="65.6094" y2="65.6094"/><text fill="#000000" font-family="sans-serif" font-size="14" font-weight="bold" lengthAdjust="spacingAndGlyphs" textLength="154" x="107.5" y="58.5332">Common Data Service</text><polygon fill="#90EE90" filter="url(#f1oi6q6np9iik0)" points="6,222,203,222,210,245.6094,217,245.6094,217,277.2188,6,277.2188,6,222" style="stroke: #000000; stroke-width: 1.5;"/><line style="stroke: #000000; stroke-width: 1.5;" x1="6" x2="210" y1="245.6094" y2="245.6094"/><text fill="#000000" font-family="sans-serif" font-size="14" font-weight="bold" lengthAdjust="spacingAndGlyphs" textLength="191" x="10" y="238.5332">Service Management Layer</text><!--class i--><rect fill="#FEFECE" filter="url(#f1oi6q6np9iik0)" height="75.6719" id="i" style="stroke: #A80036; stroke-width: 1.5;" width="203" x="147" y="86"/><ellipse cx="182.7" cy="102" fill="#B4A7E5" rx="11" ry="11" style="stroke: #A80036; stroke-width: 1.0;"/><path d="M183.6531,98.6406 L183.6531,105.2969 L185.3719,105.2969 Q185.9813,105.2969 186.2469,105.5313 Q186.5125,105.7656 186.5125,106.1563 Q186.5125,106.5313 186.2469,106.7656 Q185.9813,107 185.3719,107 L180.2313,107 Q179.6219,107 179.3563,106.7656 Q179.0906,106.5313 179.0906,106.1406 Q179.0906,105.7656 179.3563,105.5313 Q179.6219,105.2969 180.2313,105.2969 L181.95,105.2969 L181.95,98.6406 L180.2313,98.6406 Q179.6219,98.6406 179.3563,98.4063 Q179.0906,98.1719 179.0906,97.7813 Q179.0906,97.4063 179.3563,97.1719 Q179.6219,96.9375 180.2313,96.9375 L185.3719,96.9375 Q185.9813,96.9375 186.2469,97.1719 Q186.5125,97.4063 186.5125,97.7813 Q186.5125,98.1719 186.2469,98.4063 Q185.9813,98.6406 185.3719,98.6406 L183.6531,98.6406 Z "/><text fill="#000000" font-family="sans-serif" font-size="12" font-style="italic" lengthAdjust="spacingAndGlyphs" textLength="125" x="201.3" y="106.9102">Common Data Service</text><line style="stroke: #A80036; stroke-width: 1.5;" x1="148" x2="349" y1="118" y2="118"/><line style="stroke: #A80036; stroke-width: 1.5;" x1="148" x2="349" y1="126" y2="126"/><text fill="#000000" font-family="sans-serif" font-size="11" lengthAdjust="spacingAndGlyphs" textLength="141" x="153" y="141.4189">/edgemere/diml/cds/data/list()</text><text fill="#000000" font-family="sans-serif" font-size="11" lengthAdjust="spacingAndGlyphs" textLength="191" x="153" y="155.2549">/edgemere/diml/cds/data/source/name()</text><ellipse cx="203.5" cy="13" fill="#FEFECE" filter="url(#f1oi6q6np9iik0)" rx="5" ry="5" style="stroke: #A80036; stroke-width: 1.5;"/><text fill="#000000" font-family="sans-serif" font-size="12" lengthAdjust="spacingAndGlyphs" textLength="19" x="194" y="30.457">CLI</text><ellipse cx="248.5" cy="13" fill="#FEFECE" filter="url(#f1oi6q6np9iik0)" rx="5" ry="5" style="stroke: #A80036; stroke-width: 1.5;"/><text fill="#000000" font-family="sans-serif" font-size="12" lengthAdjust="spacingAndGlyphs" textLength="32" x="232.5" y="30.457">REST</text><ellipse cx="293.5" cy="13" fill="#FEFECE" filter="url(#f1oi6q6np9iik0)" rx="5" ry="5" style="stroke: #A80036; stroke-width: 1.5;"/><text fill="#000000" font-family="sans-serif" font-size="12" lengthAdjust="spacingAndGlyphs" textLength="25" x="281" y="30.457">Web</text><!--link ilol3806 to i--><path d="M205.102,17.879 C209.579,28.726 222.596,60.255 233.215,85.976 " fill="none" id="ilol3806-i" style="stroke: #A80036; stroke-width: 1.0;"/><!--link ilol3809 to i--><path d="M248.5,18.14 C248.5,29.223 248.5,60.458 248.5,85.976 " fill="none" id="ilol3809-i" style="stroke: #A80036; stroke-width: 1.0;"/><!--link ilol3812 to i--><path d="M291.898,17.879 C287.421,28.726 274.404,60.255 263.785,85.976 " fill="none" id="ilol3812-i" style="stroke: #A80036; stroke-width: 1.0;"/><!--link Common Data Service to Service Management Layer--><path d="M111.5,186.2413 C111.5,186.3986 111.5,186.556 111.5,186.7133 C111.5,187.028 111.5,187.3428 111.5,187.6574 C111.5,197.7273 111.5,207.765 111.5,216.6991 " fill="none" id="Common Data Service-Service Management Layer" style="stroke: #A80036; stroke-width: 1.0;"/><polygon fill="#A80036" points="111.5,221.8354,115.5,212.8354,111.5,216.8354,107.5,212.8354,111.5,221.8354" style="stroke: #A80036; stroke-width: 1.0;"/><!--
@startuml


package "Service Management Layer" #lightgreen {
    }


package "Common Data Service" #ffcc88 {

    interface "Common Data Service" as i {
            /edgemere/diml/cds/data/list()
            /edgemere/diml/cds/data/source/name()
    
    }
}

CLI ()- - i
REST ()- - i
Web ()- - i

package "Common Data Service" #ffcc88 {
    
}


    "Common Data Service" - -> "Service Management Layer"


@enduml

PlantUML version 1.2019.05(Sat Apr 20 09:45:36 PDT 2019)
(GPL source distribution)
Java Runtime: OpenJDK Runtime Environment
JVM: OpenJDK 64-Bit Server VM
Java Version: 12.0.1+12
Operating System: Windows 10
OS Version: 10.0
Default Encoding: Cp1252
Language: en
Country: US
--></g></svg>