<?xml version="1.0" encoding="UTF-8" standalone="no"?><svg xmlns="http://www.w3.org/2000/svg" xmlns:xlink="http://www.w3.org/1999/xlink" contentScriptType="application/ecmascript" contentStyleType="text/css" height="838px" preserveAspectRatio="none" style="width:472px;height:838px;" version="1.1" viewBox="0 0 472 838" width="472px" zoomAndPan="magnify"><defs><filter height="300%" id="fi6kfo5q0if5a" width="300%" x="-1" y="-1"><feGaussianBlur result="blurOut" stdDeviation="2.0"/><feColorMatrix in="blurOut" result="blurOut2" type="matrix" values="0 0 0 0 0 0 0 0 0 0 0 0 0 0 0 0 0 0 .4 0"/><feOffset dx="4.0" dy="4.0" in="blurOut2" result="blurOut3"/><feBlend in="SourceGraphic" in2="blurOut3" mode="normal"/></filter></defs><g><!--cluster DataScientist--><rect fill="#FEFECE" filter="url(#fi6kfo5q0if5a)" height="102" rx="12.5" ry="12.5" style="stroke: #A80036; stroke-width: 1.5;" width="137" x="45" y="24"/><rect fill="#FFFFFF" height="68.3906" rx="12.5" ry="12.5" style="stroke: #FFFFFF; stroke-width: 1.0;" width="131" x="48" y="54.6094"/><line style="stroke: #A80036; stroke-width: 1.5;" x1="45" x2="182" y1="51.6094" y2="51.6094"/><text fill="#000000" font-family="sans-serif" font-size="14" lengthAdjust="spacingAndGlyphs" textLength="87" x="70" y="42.5332">Data Scientist</text><!--cluster diml--><rect fill="#FFCC88" filter="url(#fi6kfo5q0if5a)" height="364" rx="12.5" ry="12.5" style="stroke: #A80036; stroke-width: 1.5;" width="231" x="229" y="256"/><rect fill="#FFFFFF" height="330.3906" rx="12.5" ry="12.5" style="stroke: #FFFFFF; stroke-width: 1.0;" width="225" x="232" y="286.6094"/><line style="stroke: #A80036; stroke-width: 1.5;" x1="229" x2="460" y1="283.6094" y2="283.6094"/><text fill="#000000" font-family="sans-serif" font-size="14" lengthAdjust="spacingAndGlyphs" textLength="25" x="332" y="274.5332">diml</text><!--cluster dimlcds--><rect fill="#FFCC88" filter="url(#fi6kfo5q0if5a)" height="296" rx="12.5" ry="12.5" style="stroke: #A80036; stroke-width: 1.5;" width="183" x="253" y="300"/><rect fill="#FFFFFF" height="262.3906" rx="12.5" ry="12.5" style="stroke: #FFFFFF; stroke-width: 1.0;" width="177" x="256" y="330.6094"/><line style="stroke: #A80036; stroke-width: 1.5;" x1="253" x2="436" y1="327.6094" y2="327.6094"/><text fill="#000000" font-family="sans-serif" font-size="14" lengthAdjust="spacingAndGlyphs" textLength="22" x="333.5" y="318.5332">cds</text><!--cluster dimlcdsdata--><rect fill="#FFCC88" filter="url(#fi6kfo5q0if5a)" height="228" rx="12.5" ry="12.5" style="stroke: #A80036; stroke-width: 1.5;" width="135" x="277" y="344"/><rect fill="#FFFFFF" height="194.3906" rx="12.5" ry="12.5" style="stroke: #FFFFFF; stroke-width: 1.0;" width="129" x="280" y="374.6094"/><line style="stroke: #A80036; stroke-width: 1.5;" x1="277" x2="412" y1="371.6094" y2="371.6094"/><text fill="#000000" font-family="sans-serif" font-size="14" lengthAdjust="spacingAndGlyphs" textLength="28" x="330.5" y="362.5332">data</text><!--cluster dimlcdsdatasource--><rect fill="#FFCC88" filter="url(#fi6kfo5q0if5a)" height="102" rx="12.5" ry="12.5" style="stroke: #A80036; stroke-width: 1.5;" width="87" x="301" y="446"/><rect fill="#FFFFFF" height="68.3906" rx="12.5" ry="12.5" style="stroke: #FFFFFF; stroke-width: 1.0;" width="81" x="304" y="476.6094"/><line style="stroke: #A80036; stroke-width: 1.5;" x1="301" x2="388" y1="473.6094" y2="473.6094"/><text fill="#000000" font-family="sans-serif" font-size="14" lengthAdjust="spacingAndGlyphs" textLength="43" x="323" y="464.5332">source</text><!--cluster DataAnalyst--><rect fill="#FEFECE" filter="url(#fi6kfo5q0if5a)" height="102" rx="12.5" ry="12.5" style="stroke: #A80036; stroke-width: 1.5;" width="137" x="45" y="150"/><rect fill="#FFFFFF" height="68.3906" rx="12.5" ry="12.5" style="stroke: #FFFFFF; stroke-width: 1.0;" width="131" x="48" y="180.6094"/><line style="stroke: #A80036; stroke-width: 1.5;" x1="45" x2="182" y1="177.6094" y2="177.6094"/><text fill="#000000" font-family="sans-serif" font-size="14" lengthAdjust="spacingAndGlyphs" textLength="80" x="73.5" y="168.5332">Data Analyst</text><!--cluster DataEngineer--><rect fill="#FEFECE" filter="url(#fi6kfo5q0if5a)" height="102" rx="12.5" ry="12.5" style="stroke: #A80036; stroke-width: 1.5;" width="137" x="45" y="276"/><rect fill="#FFFFFF" height="68.3906" rx="12.5" ry="12.5" style="stroke: #FFFFFF; stroke-width: 1.0;" width="131" x="48" y="306.6094"/><line style="stroke: #A80036; stroke-width: 1.5;" x1="45" x2="182" y1="303.6094" y2="303.6094"/><text fill="#000000" font-family="sans-serif" font-size="14" lengthAdjust="spacingAndGlyphs" textLength="91" x="68" y="294.5332">Data Engineer</text><!--cluster Actor--><rect fill="#FEFECE" filter="url(#fi6kfo5q0if5a)" height="425" rx="12.5" ry="12.5" style="stroke: #A80036; stroke-width: 1.5;" width="183" x="22" y="402"/><rect fill="#FFFFFF" height="391.3906" rx="12.5" ry="12.5" style="stroke: #FFFFFF; stroke-width: 1.0;" width="177" x="25" y="432.6094"/><line style="stroke: #A80036; stroke-width: 1.5;" x1="22" x2="205" y1="429.6094" y2="429.6094"/><text fill="#000000" font-family="sans-serif" font-size="14" lengthAdjust="spacingAndGlyphs" textLength="33" x="97" y="420.5332">Actor</text><!--cluster ActorManageData--><rect fill="#FEFECE" filter="url(#fi6kfo5q0if5a)" height="357" rx="12.5" ry="12.5" style="stroke: #A80036; stroke-width: 1.5;" width="135" x="46" y="446"/><rect fill="#FFFFFF" height="323.3906" rx="12.5" ry="12.5" style="stroke: #FFFFFF; stroke-width: 1.0;" width="129" x="49" y="476.6094"/><line style="stroke: #A80036; stroke-width: 1.5;" x1="46" x2="181" y1="473.6094" y2="473.6094"/><text fill="#000000" font-family="sans-serif" font-size="14" lengthAdjust="spacingAndGlyphs" textLength="85" x="71" y="464.5332">Manage Data</text><rect fill="#FEFECE" filter="url(#fi6kfo5q0if5a)" height="50" rx="12.5" ry="12.5" style="stroke: #A80036; stroke-width: 1.5;" width="105" x="61" y="60"/><line style="stroke: #A80036; stroke-width: 1.5;" x1="61" x2="166" y1="87.6094" y2="87.6094"/><text fill="#000000" font-family="sans-serif" font-size="14" lengthAdjust="spacingAndGlyphs" textLength="85" x="71" y="79.5332">Manage Data</text><rect fill="#FFCC88" filter="url(#fi6kfo5q0if5a)" height="50" rx="12.5" ry="12.5" style="stroke: #A80036; stroke-width: 1.5;" width="50" x="319.5" y="380"/><line style="stroke: #A80036; stroke-width: 1.5;" x1="319.5" x2="369.5" y1="407.6094" y2="407.6094"/><text fill="#000000" font-family="sans-serif" font-size="14" lengthAdjust="spacingAndGlyphs" textLength="17" x="336" y="399.5332">list</text><rect fill="#FFCC88" filter="url(#fi6kfo5q0if5a)" height="50" rx="12.5" ry="12.5" style="stroke: #A80036; stroke-width: 1.5;" width="55" x="317" y="482"/><line style="stroke: #A80036; stroke-width: 1.5;" x1="317" x2="372" y1="509.6094" y2="509.6094"/><text fill="#000000" font-family="sans-serif" font-size="14" lengthAdjust="spacingAndGlyphs" textLength="35" x="327" y="501.5332">name</text><rect fill="#FEFECE" filter="url(#fi6kfo5q0if5a)" height="50" rx="12.5" ry="12.5" style="stroke: #A80036; stroke-width: 1.5;" width="105" x="61" y="186"/><line style="stroke: #A80036; stroke-width: 1.5;" x1="61" x2="166" y1="213.6094" y2="213.6094"/><text fill="#000000" font-family="sans-serif" font-size="14" lengthAdjust="spacingAndGlyphs" textLength="85" x="71" y="205.5332">Manage Data</text><rect fill="#FEFECE" filter="url(#fi6kfo5q0if5a)" height="50" rx="12.5" ry="12.5" style="stroke: #A80036; stroke-width: 1.5;" width="105" x="61" y="312"/><line style="stroke: #A80036; stroke-width: 1.5;" x1="61" x2="166" y1="339.6094" y2="339.6094"/><text fill="#000000" font-family="sans-serif" font-size="14" lengthAdjust="spacingAndGlyphs" textLength="85" x="71" y="331.5332">Manage Data</text><rect fill="#FEFECE" filter="url(#fi6kfo5q0if5a)" height="50" rx="12.5" ry="12.5" style="stroke: #A80036; stroke-width: 1.5;" width="103" x="62" y="482"/><line style="stroke: #A80036; stroke-width: 1.5;" x1="62" x2="165" y1="509.6094" y2="509.6094"/><text fill="#000000" font-family="sans-serif" font-size="14" lengthAdjust="spacingAndGlyphs" textLength="83" x="72" y="501.5332">Destroy Data</text><rect fill="#FEFECE" filter="url(#fi6kfo5q0if5a)" height="50" rx="12.5" ry="12.5" style="stroke: #A80036; stroke-width: 1.5;" width="98" x="64.5" y="567"/><line style="stroke: #A80036; stroke-width: 1.5;" x1="64.5" x2="162.5" y1="594.6094" y2="594.6094"/><text fill="#000000" font-family="sans-serif" font-size="14" lengthAdjust="spacingAndGlyphs" textLength="78" x="74.5" y="586.5332">Egress Data</text><rect fill="#FEFECE" filter="url(#fi6kfo5q0if5a)" height="50" rx="12.5" ry="12.5" style="stroke: #A80036; stroke-width: 1.5;" width="92" x="67.5" y="652"/><line style="stroke: #A80036; stroke-width: 1.5;" x1="67.5" x2="159.5" y1="679.6094" y2="679.6094"/><text fill="#000000" font-family="sans-serif" font-size="14" lengthAdjust="spacingAndGlyphs" textLength="72" x="77.5" y="671.5332">Ingest Data</text><rect fill="#FEFECE" filter="url(#fi6kfo5q0if5a)" height="50" rx="12.5" ry="12.5" style="stroke: #A80036; stroke-width: 1.5;" width="88" x="69.5" y="737"/><line style="stroke: #A80036; stroke-width: 1.5;" x1="69.5" x2="157.5" y1="764.6094" y2="764.6094"/><text fill="#000000" font-family="sans-serif" font-size="14" lengthAdjust="spacingAndGlyphs" textLength="68" x="79.5" y="756.5332">Move Data</text><!--link DataScientistManageData to dimlcdsdatalist--><path d="M149.597,110.313 C169.745,125.989 194.613,147.396 213,170 C267.094,236.501 310.749,328.562 331.094,375.262 " fill="none" id="DataScientistManageData-dimlcdsdatalist" style="stroke: #A80036; stroke-width: 1.0;"/><polygon fill="#A80036" points="333.107,379.91,333.201,370.0616,331.12,375.3218,325.8598,373.2408,333.107,379.91" style="stroke: #A80036; stroke-width: 1.0;"/><!--link DataAnalystManageData to dimlcdsdatalist--><path d="M144.438,236.362 C188.951,274.072 271.988,344.418 315.407,381.201 " fill="none" id="DataAnalystManageData-dimlcdsdatalist" style="stroke: #A80036; stroke-width: 1.0;"/><polygon fill="#A80036" points="319.483,384.654,315.2016,375.7844,315.668,381.422,310.0304,381.8884,319.483,384.654" style="stroke: #A80036; stroke-width: 1.0;"/><!--link DataEngineerManageData to dimlcdsdatalist--><path d="M166.178,352.345 C212.006,365.954 277.281,385.337 314.513,396.393 " fill="none" id="DataEngineerManageData-dimlcdsdatalist" style="stroke: #A80036; stroke-width: 1.0;"/><polygon fill="#A80036" points="319.355,397.83,311.8673,391.432,314.5621,396.4057,309.5884,399.1006,319.355,397.83" style="stroke: #A80036; stroke-width: 1.0;"/><!--link ActorManageDataDestroyData to dimlcdsdatasourcename--><path d="M165.039,507 C209.731,507 273.566,507 311.543,507 " fill="none" id="ActorManageDataDestroyData-dimlcdsdatasourcename" style="stroke: #A80036; stroke-width: 1.0;"/><polygon fill="#A80036" points="316.953,507,307.953,503,311.953,507,307.953,511,316.953,507" style="stroke: #A80036; stroke-width: 1.0;"/><!--link ActorManageDataEgressData to dimlcdsdatasourcename--><path d="M162.506,574.181 C207.441,557.502 273.285,533.062 311.933,518.717 " fill="none" id="ActorManageDataEgressData-dimlcdsdatasourcename" style="stroke: #A80036; stroke-width: 1.0;"/><polygon fill="#A80036" points="316.97,516.847,307.1405,516.2292,312.2826,518.5871,309.9247,523.7291,316.97,516.847" style="stroke: #A80036; stroke-width: 1.0;"/><!--link ActorManageDataIngestData to dimlcdsdatasourcename--><path d="M159.945,661.726 C177.287,654.865 196.774,645.85 213,635 C254.865,607.006 294.974,564.531 319.416,536.287 " fill="none" id="ActorManageDataIngestData-dimlcdsdatasourcename" style="stroke: #A80036; stroke-width: 1.0;"/><polygon fill="#A80036" points="322.907,532.226,314.0072,536.4443,319.648,536.0179,320.0743,541.6587,322.907,532.226" style="stroke: #A80036; stroke-width: 1.0;"/><!--link ActorManageDataMoveData to dimlcdsdatasourcename--><path d="M157.975,749.9969 C176.415,743.3445 197.238,733.605 213,720 C272.867,668.326 313.661,582.192 332.177,536.911 " fill="none" id="ActorManageDataMoveData-dimlcdsdatasourcename" style="stroke: #A80036; stroke-width: 1.0;"/><polygon fill="#A80036" points="334.113,532.127,327.0293,538.9696,332.2376,536.762,334.4452,541.9703,334.113,532.127" style="stroke: #A80036; stroke-width: 1.0;"/><!--
@startuml
left to right direction



state "Data Scientist" as DataScientist {
    state "Manage Data" as DataScientistManageData {
    }
}
state "diml" as diml #ffcc88 {
state "cds" as dimlcds #ffcc88 {
state "data" as dimlcdsdata #ffcc88 {
state "list" as dimlcdsdatalist #ffcc88 {
}
}
}
}

DataScientistManageData - -> dimlcdsdatalist

state "Data Analyst" as DataAnalyst {
    state "Manage Data" as DataAnalystManageData {
    }
}
state "diml" as diml #ffcc88 {
state "cds" as dimlcds #ffcc88 {
state "data" as dimlcdsdata #ffcc88 {
state "list" as dimlcdsdatalist #ffcc88 {
}
}
}
}

DataAnalystManageData - -> dimlcdsdatalist

state "Data Engineer" as DataEngineer {
    state "Manage Data" as DataEngineerManageData {
    }
}
state "diml" as diml #ffcc88 {
state "cds" as dimlcds #ffcc88 {
state "data" as dimlcdsdata #ffcc88 {
state "list" as dimlcdsdatalist #ffcc88 {
}
}
}
}

DataEngineerManageData - -> dimlcdsdatalist


    state "Actor" as Actor {
        state "Manage Data" as ActorManageData {
            state "Destroy Data" as ActorManageDataDestroyData {
            }
        }
    }
    state "diml" as diml #ffcc88 {
state "cdsdata" as dimlcdsdata #ffcc88 {
state "source" as dimlcdsdatasource #ffcc88 {
state "name" as dimlcdsdatasourcename #ffcc88 {
}
}
}
}

    ActorManageDataDestroyData - -> dimlcdsdatasourcename
    
 
    state "Actor" as Actor {
        state "Manage Data" as ActorManageData {
            state "Egress Data" as ActorManageDataEgressData {
            }
        }
    }
    state "diml" as diml #ffcc88 {
state "cdsdata" as dimlcdsdata #ffcc88 {
state "source" as dimlcdsdatasource #ffcc88 {
state "name" as dimlcdsdatasourcename #ffcc88 {
}
}
}
}

    ActorManageDataEgressData - -> dimlcdsdatasourcename
    
 
    state "Actor" as Actor {
        state "Manage Data" as ActorManageData {
            state "Ingest Data" as ActorManageDataIngestData {
            }
        }
    }
    state "diml" as diml #ffcc88 {
state "cdsdata" as dimlcdsdata #ffcc88 {
state "source" as dimlcdsdatasource #ffcc88 {
state "name" as dimlcdsdatasourcename #ffcc88 {
}
}
}
}

    ActorManageDataIngestData - -> dimlcdsdatasourcename
    
 
    state "Actor" as Actor {
        state "Manage Data" as ActorManageData {
            state "Move Data" as ActorManageDataMoveData {
            }
        }
    }
    state "diml" as diml #ffcc88 {
state "cdsdata" as dimlcdsdata #ffcc88 {
state "source" as dimlcdsdatasource #ffcc88 {
state "name" as dimlcdsdatasourcename #ffcc88 {
}
}
}
}

    ActorManageDataMoveData - -> dimlcdsdatasourcename
    
 
 

@enduml

PlantUML version 1.2019.05(Sat Apr 20 09:45:36 PDT 2019)
(GPL source distribution)
Java Runtime: OpenJDK Runtime Environment
JVM: OpenJDK 64-Bit Server VM
Java Version: 12.0.1+12
Operating System: Windows 10
OS Version: 10.0
Default Encoding: Cp1252
Language: en
Country: US
--></g></svg>