<?xml version="1.0" encoding="UTF-8" standalone="no"?><svg xmlns="http://www.w3.org/2000/svg" xmlns:xlink="http://www.w3.org/1999/xlink" contentScriptType="application/ecmascript" contentStyleType="text/css" height="343px" preserveAspectRatio="none" style="width:322px;height:343px;" version="1.1" viewBox="0 0 322 343" width="322px" zoomAndPan="magnify"><defs><filter height="300%" id="fad6xs20q9sus" width="300%" x="-1" y="-1"><feGaussianBlur result="blurOut" stdDeviation="2.0"/><feColorMatrix in="blurOut" result="blurOut2" type="matrix" values="0 0 0 0 0 0 0 0 0 0 0 0 0 0 0 0 0 0 .4 0"/><feOffset dx="4.0" dy="4.0" in="blurOut2" result="blurOut3"/><feBlend in="SourceGraphic" in2="blurOut3" mode="normal"/></filter></defs><g><!--cluster Common Data Service--><rect fill="#FFCC88" filter="url(#fad6xs20q9sus)" height="84" style="stroke: #000000; stroke-width: 1.5;" width="170" x="141" y="118.5"/><text fill="#000000" font-family="sans-serif" font-size="14" font-weight="bold" lengthAdjust="spacingAndGlyphs" textLength="154" x="149" y="135.0332">Common Data Service</text><ellipse cx="225.2756" cy="170.4517" fill="#FEFECE" filter="url(#fad6xs20q9sus)" rx="60.2756" ry="15.4517" style="stroke: #A80036; stroke-width: 1.5;"/><text fill="#000000" font-family="sans-serif" font-size="14" lengthAdjust="spacingAndGlyphs" textLength="81" x="184.7756" y="175.7564">ManageData</text><!--entity DataScientist--><ellipse cx="51.5" cy="18" fill="#FEFECE" filter="url(#fad6xs20q9sus)" rx="8" ry="8" style="stroke: #A80036; stroke-width: 2.0;"/><path d="M51.5,26 L51.5,53 M38.5,34 L64.5,34 M51.5,53 L38.5,68 M51.5,53 L64.5,68 " fill="none" filter="url(#fad6xs20q9sus)" style="stroke: #A80036; stroke-width: 2.0;"/><text fill="#000000" font-family="sans-serif" font-size="14" lengthAdjust="spacingAndGlyphs" textLength="87" x="8" y="89.5332">Data Scientist</text><!--entity DataAnalyst--><ellipse cx="51.5" cy="138" fill="#FEFECE" filter="url(#fad6xs20q9sus)" rx="8" ry="8" style="stroke: #A80036; stroke-width: 2.0;"/><path d="M51.5,146 L51.5,173 M38.5,154 L64.5,154 M51.5,173 L38.5,188 M51.5,173 L64.5,188 " fill="none" filter="url(#fad6xs20q9sus)" style="stroke: #A80036; stroke-width: 2.0;"/><text fill="#000000" font-family="sans-serif" font-size="14" lengthAdjust="spacingAndGlyphs" textLength="80" x="11.5" y="209.5332">Data Analyst</text><!--entity DataEngineer--><ellipse cx="51.5" cy="258" fill="#FEFECE" filter="url(#fad6xs20q9sus)" rx="8" ry="8" style="stroke: #A80036; stroke-width: 2.0;"/><path d="M51.5,266 L51.5,293 M38.5,274 L64.5,274 M51.5,293 L38.5,308 M51.5,293 L64.5,308 " fill="none" filter="url(#fad6xs20q9sus)" style="stroke: #A80036; stroke-width: 2.0;"/><text fill="#000000" font-family="sans-serif" font-size="14" lengthAdjust="spacingAndGlyphs" textLength="91" x="6" y="329.5332">Data Engineer</text><!--link DataScientist to ManageData--><path d="M95.0169,80.163 C127.689,102.958 171.725,133.68 199.101,152.78 " fill="none" id="DataScientist-ManageData" style="stroke: #A80036; stroke-width: 1.0;"/><polygon fill="#A80036" points="203.347,155.742,198.2526,147.3131,199.2457,152.8821,193.6767,153.8752,203.347,155.742" style="stroke: #A80036; stroke-width: 1.0;"/><!--link DataAnalyst to ManageData--><path d="M91.5295,170.5 C111.617,170.5 136.637,170.5 159.537,170.5 " fill="none" id="DataAnalyst-ManageData" style="stroke: #A80036; stroke-width: 1.0;"/><polygon fill="#A80036" points="164.694,170.5,155.694,166.5,159.694,170.5,155.694,174.5,164.694,170.5" style="stroke: #A80036; stroke-width: 1.0;"/><!--link DataEngineer to ManageData--><path d="M97.242,259.2847 C129.744,236.609 172.549,206.745 199.296,188.084 " fill="none" id="DataEngineer-ManageData" style="stroke: #A80036; stroke-width: 1.0;"/><polygon fill="#A80036" points="203.447,185.188,193.7774,187.0587,199.3468,188.0496,198.3559,193.6189,203.447,185.188" style="stroke: #A80036; stroke-width: 1.0;"/><!--
@startuml

left to right direction
Actor "Data Scientist" as DataScientist
Actor "Data Analyst" as DataAnalyst
Actor "Data Engineer" as DataEngineer


rectangle "Common Data Service" #ffcc88 {
usecase "ManageData" as ManageData
    DataScientist - -> ManageData
    DataAnalyst - -> ManageData
    DataEngineer - -> ManageData
    }


@enduml

PlantUML version 1.2019.05(Sat Apr 20 09:45:36 PDT 2019)
(GPL source distribution)
Java Runtime: OpenJDK Runtime Environment
JVM: OpenJDK 64-Bit Server VM
Java Version: 12.0.1+12
Operating System: Windows 10
OS Version: 10.0
Default Encoding: Cp1252
Language: en
Country: US
--></g></svg>