<?xml version="1.0" encoding="UTF-8" standalone="no"?><svg xmlns="http://www.w3.org/2000/svg" xmlns:xlink="http://www.w3.org/1999/xlink" contentScriptType="application/ecmascript" contentStyleType="text/css" height="469px" preserveAspectRatio="none" style="width:594px;height:469px;" version="1.1" viewBox="0 0 594 469" width="594px" zoomAndPan="magnify"><defs><filter height="300%" id="f1k8j4u5nx8yb1" width="300%" x="-1" y="-1"><feGaussianBlur result="blurOut" stdDeviation="2.0"/><feColorMatrix in="blurOut" result="blurOut2" type="matrix" values="0 0 0 0 0 0 0 0 0 0 0 0 0 0 0 0 0 0 .4 0"/><feOffset dx="4.0" dy="4.0" in="blurOut2" result="blurOut3"/><feBlend in="SourceGraphic" in2="blurOut3" mode="normal"/></filter></defs><g><line style="stroke: #A80036; stroke-width: 1.0; stroke-dasharray: 5.0,5.0;" x1="52" x2="52" y1="87.6094" y2="380.7734"/><line style="stroke: #A80036; stroke-width: 1.0; stroke-dasharray: 5.0,5.0;" x1="148" x2="148" y1="87.6094" y2="380.7734"/><line style="stroke: #A80036; stroke-width: 1.0; stroke-dasharray: 5.0,5.0;" x1="245" x2="245" y1="87.6094" y2="380.7734"/><line style="stroke: #A80036; stroke-width: 1.0; stroke-dasharray: 5.0,5.0;" x1="381" x2="381" y1="87.6094" y2="380.7734"/><line style="stroke: #A80036; stroke-width: 1.0; stroke-dasharray: 5.0,5.0;" x1="489" x2="489" y1="87.6094" y2="380.7734"/><line style="stroke: #A80036; stroke-width: 1.0; stroke-dasharray: 5.0,5.0;" x1="559" x2="559" y1="87.6094" y2="380.7734"/><text fill="#000000" font-family="sans-serif" font-size="14" lengthAdjust="spacingAndGlyphs" textLength="83" x="8" y="84.5332">DataScientist</text><ellipse cx="52.5" cy="13" fill="#FEFECE" filter="url(#f1k8j4u5nx8yb1)" rx="8" ry="8" style="stroke: #A80036; stroke-width: 2.0;"/><path d="M52.5,21 L52.5,48 M39.5,29 L65.5,29 M52.5,48 L39.5,63 M52.5,48 L65.5,63 " fill="none" filter="url(#f1k8j4u5nx8yb1)" style="stroke: #A80036; stroke-width: 2.0;"/><text fill="#000000" font-family="sans-serif" font-size="14" lengthAdjust="spacingAndGlyphs" textLength="83" x="8" y="394.3066">DataScientist</text><ellipse cx="52.5" cy="407.3828" fill="#FEFECE" filter="url(#f1k8j4u5nx8yb1)" rx="8" ry="8" style="stroke: #A80036; stroke-width: 2.0;"/><path d="M52.5,415.3828 L52.5,442.3828 M39.5,423.3828 L65.5,423.3828 M52.5,442.3828 L39.5,457.3828 M52.5,442.3828 L65.5,457.3828 " fill="none" filter="url(#f1k8j4u5nx8yb1)" style="stroke: #A80036; stroke-width: 2.0;"/><text fill="#000000" font-family="sans-serif" font-size="14" lengthAdjust="spacingAndGlyphs" textLength="76" x="107" y="84.5332">DataAnalyst</text><ellipse cx="148" cy="13" fill="#FEFECE" filter="url(#f1k8j4u5nx8yb1)" rx="8" ry="8" style="stroke: #A80036; stroke-width: 2.0;"/><path d="M148,21 L148,48 M135,29 L161,29 M148,48 L135,63 M148,48 L161,63 " fill="none" filter="url(#f1k8j4u5nx8yb1)" style="stroke: #A80036; stroke-width: 2.0;"/><text fill="#000000" font-family="sans-serif" font-size="14" lengthAdjust="spacingAndGlyphs" textLength="76" x="107" y="394.3066">DataAnalyst</text><ellipse cx="148" cy="407.3828" fill="#FEFECE" filter="url(#f1k8j4u5nx8yb1)" rx="8" ry="8" style="stroke: #A80036; stroke-width: 2.0;"/><path d="M148,415.3828 L148,442.3828 M135,423.3828 L161,423.3828 M148,442.3828 L135,457.3828 M148,442.3828 L161,457.3828 " fill="none" filter="url(#f1k8j4u5nx8yb1)" style="stroke: #A80036; stroke-width: 2.0;"/><text fill="#000000" font-family="sans-serif" font-size="14" lengthAdjust="spacingAndGlyphs" textLength="87" x="199" y="84.5332">DataEngineer</text><ellipse cx="245.5" cy="13" fill="#FEFECE" filter="url(#f1k8j4u5nx8yb1)" rx="8" ry="8" style="stroke: #A80036; stroke-width: 2.0;"/><path d="M245.5,21 L245.5,48 M232.5,29 L258.5,29 M245.5,48 L232.5,63 M245.5,48 L258.5,63 " fill="none" filter="url(#f1k8j4u5nx8yb1)" style="stroke: #A80036; stroke-width: 2.0;"/><text fill="#000000" font-family="sans-serif" font-size="14" lengthAdjust="spacingAndGlyphs" textLength="87" x="199" y="394.3066">DataEngineer</text><ellipse cx="245.5" cy="407.3828" fill="#FEFECE" filter="url(#f1k8j4u5nx8yb1)" rx="8" ry="8" style="stroke: #A80036; stroke-width: 2.0;"/><path d="M245.5,415.3828 L245.5,442.3828 M232.5,423.3828 L258.5,423.3828 M245.5,442.3828 L232.5,457.3828 M245.5,442.3828 L258.5,457.3828 " fill="none" filter="url(#f1k8j4u5nx8yb1)" style="stroke: #A80036; stroke-width: 2.0;"/><rect fill="#FEFECE" filter="url(#f1k8j4u5nx8yb1)" height="31.6094" style="stroke: #A80036; stroke-width: 1.5;" width="155" x="302" y="51"/><text fill="#000000" font-family="sans-serif" font-size="14" lengthAdjust="spacingAndGlyphs" textLength="141" x="309" y="72.5332">Common Data Service</text><rect fill="#FEFECE" filter="url(#f1k8j4u5nx8yb1)" height="31.6094" style="stroke: #A80036; stroke-width: 1.5;" width="155" x="302" y="379.7734"/><text fill="#000000" font-family="sans-serif" font-size="14" lengthAdjust="spacingAndGlyphs" textLength="141" x="309" y="401.3066">Common Data Service</text><rect fill="#FEFECE" filter="url(#f1k8j4u5nx8yb1)" height="31.6094" style="stroke: #A80036; stroke-width: 1.5;" width="33" x="471" y="51"/><text fill="#000000" font-family="sans-serif" font-size="14" lengthAdjust="spacingAndGlyphs" textLength="19" x="478" y="72.5332">bin</text><rect fill="#FEFECE" filter="url(#f1k8j4u5nx8yb1)" height="31.6094" style="stroke: #A80036; stroke-width: 1.5;" width="33" x="471" y="379.7734"/><text fill="#000000" font-family="sans-serif" font-size="14" lengthAdjust="spacingAndGlyphs" textLength="19" x="478" y="401.3066">bin</text><rect fill="#FEFECE" filter="url(#f1k8j4u5nx8yb1)" height="31.6094" style="stroke: #A80036; stroke-width: 1.5;" width="51" x="532" y="51"/><text fill="#000000" font-family="sans-serif" font-size="14" lengthAdjust="spacingAndGlyphs" textLength="37" x="539" y="72.5332">REST</text><rect fill="#FEFECE" filter="url(#f1k8j4u5nx8yb1)" height="31.6094" style="stroke: #A80036; stroke-width: 1.5;" width="51" x="532" y="379.7734"/><text fill="#000000" font-family="sans-serif" font-size="14" lengthAdjust="spacingAndGlyphs" textLength="37" x="539" y="401.3066">REST</text><polygon fill="#A80036" points="369.5,115.9609,379.5,119.9609,369.5,123.9609,373.5,119.9609" style="stroke: #A80036; stroke-width: 1.0;"/><line style="stroke: #A80036; stroke-width: 1.0;" x1="52.5" x2="375.5" y1="119.9609" y2="119.9609"/><text fill="#000000" font-family="sans-serif" font-size="13" lengthAdjust="spacingAndGlyphs" textLength="77" x="59.5" y="115.1045">Manage Data</text><polygon fill="#A80036" points="477.5,146.3125,487.5,150.3125,477.5,154.3125,481.5,150.3125" style="stroke: #A80036; stroke-width: 1.0;"/><line style="stroke: #A80036; stroke-width: 1.0;" x1="381.5" x2="483.5" y1="150.3125" y2="150.3125"/><text fill="#000000" font-family="sans-serif" font-size="13" lengthAdjust="spacingAndGlyphs" textLength="46" x="388.5" y="145.4561">data/list</text><polygon fill="#A80036" points="547.5,176.6641,557.5,180.6641,547.5,184.6641,551.5,180.6641" style="stroke: #A80036; stroke-width: 1.0;"/><line style="stroke: #A80036; stroke-width: 1.0;" x1="489.5" x2="553.5" y1="180.6641" y2="180.6641"/><text fill="#000000" font-family="sans-serif" font-size="13" lengthAdjust="spacingAndGlyphs" textLength="46" x="496.5" y="175.8076">data/list</text><polygon fill="#A80036" points="369.5,207.0156,379.5,211.0156,369.5,215.0156,373.5,211.0156" style="stroke: #A80036; stroke-width: 1.0;"/><line style="stroke: #A80036; stroke-width: 1.0;" x1="148" x2="375.5" y1="211.0156" y2="211.0156"/><text fill="#000000" font-family="sans-serif" font-size="13" lengthAdjust="spacingAndGlyphs" textLength="77" x="155" y="206.1592">Manage Data</text><polygon fill="#A80036" points="477.5,237.3672,487.5,241.3672,477.5,245.3672,481.5,241.3672" style="stroke: #A80036; stroke-width: 1.0;"/><line style="stroke: #A80036; stroke-width: 1.0;" x1="381.5" x2="483.5" y1="241.3672" y2="241.3672"/><text fill="#000000" font-family="sans-serif" font-size="13" lengthAdjust="spacingAndGlyphs" textLength="46" x="388.5" y="236.5107">data/list</text><polygon fill="#A80036" points="547.5,267.7188,557.5,271.7188,547.5,275.7188,551.5,271.7188" style="stroke: #A80036; stroke-width: 1.0;"/><line style="stroke: #A80036; stroke-width: 1.0;" x1="489.5" x2="553.5" y1="271.7188" y2="271.7188"/><text fill="#000000" font-family="sans-serif" font-size="13" lengthAdjust="spacingAndGlyphs" textLength="46" x="496.5" y="266.8623">data/list</text><polygon fill="#A80036" points="369.5,298.0703,379.5,302.0703,369.5,306.0703,373.5,302.0703" style="stroke: #A80036; stroke-width: 1.0;"/><line style="stroke: #A80036; stroke-width: 1.0;" x1="245.5" x2="375.5" y1="302.0703" y2="302.0703"/><text fill="#000000" font-family="sans-serif" font-size="13" lengthAdjust="spacingAndGlyphs" textLength="77" x="252.5" y="297.2139">Manage Data</text><polygon fill="#A80036" points="477.5,328.4219,487.5,332.4219,477.5,336.4219,481.5,332.4219" style="stroke: #A80036; stroke-width: 1.0;"/><line style="stroke: #A80036; stroke-width: 1.0;" x1="381.5" x2="483.5" y1="332.4219" y2="332.4219"/><text fill="#000000" font-family="sans-serif" font-size="13" lengthAdjust="spacingAndGlyphs" textLength="46" x="388.5" y="327.5654">data/list</text><polygon fill="#A80036" points="547.5,358.7734,557.5,362.7734,547.5,366.7734,551.5,362.7734" style="stroke: #A80036; stroke-width: 1.0;"/><line style="stroke: #A80036; stroke-width: 1.0;" x1="489.5" x2="553.5" y1="362.7734" y2="362.7734"/><text fill="#000000" font-family="sans-serif" font-size="13" lengthAdjust="spacingAndGlyphs" textLength="46" x="496.5" y="357.917">data/list</text><!--
@startuml

actor "DataScientist" as datascientist

actor "DataAnalyst" as analyst

actor "DataEngineer" as dataengineer




datascientist -> "Common Data Service": Manage Data
"Common Data Service" -> bin: data/list
bin -> REST: data/list

analyst -> "Common Data Service": Manage Data
"Common Data Service" -> bin: data/list
bin -> REST: data/list

dataengineer -> "Common Data Service": Manage Data
"Common Data Service" -> bin: data/list
bin -> REST: data/list


@enduml

PlantUML version 1.2019.05(Sat Apr 20 09:45:36 PDT 2019)
(GPL source distribution)
Java Runtime: OpenJDK Runtime Environment
JVM: OpenJDK 64-Bit Server VM
Java Version: 12.0.1+12
Operating System: Windows 10
OS Version: 10.0
Default Encoding: Cp1252
Language: en
Country: US
--></g></svg>