<?xml version="1.0" encoding="UTF-8" standalone="no"?><svg xmlns="http://www.w3.org/2000/svg" xmlns:xlink="http://www.w3.org/1999/xlink" contentScriptType="application/ecmascript" contentStyleType="text/css" height="326px" preserveAspectRatio="none" style="width:429px;height:326px;" version="1.1" viewBox="0 0 429 326" width="429px" zoomAndPan="magnify"><defs><filter height="300%" id="ftwtbyqurfx3s" width="300%" x="-1" y="-1"><feGaussianBlur result="blurOut" stdDeviation="2.0"/><feColorMatrix in="blurOut" result="blurOut2" type="matrix" values="0 0 0 0 0 0 0 0 0 0 0 0 0 0 0 0 0 0 .4 0"/><feOffset dx="4.0" dy="4.0" in="blurOut2" result="blurOut3"/><feBlend in="SourceGraphic" in2="blurOut3" mode="normal"/></filter></defs><g><!--entity DataSource--><rect fill="#90EE90" filter="url(#ftwtbyqurfx3s)" height="37.6094" style="stroke: #000000; stroke-width: 1.5;" width="95" x="149.5" y="8"/><text fill="#000000" font-family="sans-serif" font-size="14" lengthAdjust="spacingAndGlyphs" textLength="75" x="159.5" y="32.5332">DataSource</text><!--entity DataFlowInstance--><rect fill="#90EE90" filter="url(#ftwtbyqurfx3s)" height="37.6094" style="stroke: #000000; stroke-width: 1.5;" width="132" x="6" y="278"/><text fill="#000000" font-family="sans-serif" font-size="14" lengthAdjust="spacingAndGlyphs" textLength="112" x="16" y="302.5332">DataFlowInstance</text><!--entity Identity--><rect fill="#ADD8E6" filter="url(#ftwtbyqurfx3s)" height="37.6094" style="stroke: #000000; stroke-width: 1.5;" width="65" x="353.5" y="278"/><text fill="#000000" font-family="sans-serif" font-size="14" lengthAdjust="spacingAndGlyphs" textLength="45" x="363.5" y="302.5332">Identity</text><!--entity DataBluePrint--><rect fill="#90EE90" filter="url(#ftwtbyqurfx3s)" height="37.6094" style="stroke: #000000; stroke-width: 1.5;" width="107" x="176.5" y="278"/><text fill="#000000" font-family="sans-serif" font-size="14" lengthAdjust="spacingAndGlyphs" textLength="87" x="186.5" y="302.5332">DataBluePrint</text><!--class Model--><rect fill="#FEFECE" filter="url(#ftwtbyqurfx3s)" height="75.6719" id="Model" style="stroke: #A80036; stroke-width: 1.5;" width="155" x="119.5" y="124"/><ellipse cx="134.5" cy="140" fill="#ADD1B2" rx="11" ry="11" style="stroke: #A80036; stroke-width: 1.0;"/><path d="M137.2656,135.875 Q137.4219,135.6563 137.6094,135.5469 Q137.7969,135.4375 138.0156,135.4375 Q138.3906,135.4375 138.625,135.7031 Q138.8594,135.9531 138.8594,136.5625 L138.8594,138.0156 Q138.8594,138.625 138.625,138.8906 Q138.3906,139.1563 138.0156,139.1563 Q137.6719,139.1563 137.4688,138.9531 Q137.2656,138.7656 137.1563,138.25 Q137.1094,137.8906 136.9219,137.7031 Q136.5938,137.3281 135.9844,137.1094 Q135.375,136.8906 134.75,136.8906 Q133.9844,136.8906 133.3438,137.2188 Q132.7188,137.5469 132.2188,138.2969 Q131.7344,139.0469 131.7344,140.0781 L131.7344,141.1719 Q131.7344,142.4063 132.625,143.2344 Q133.5156,144.0469 135.1094,144.0469 Q136.0469,144.0469 136.7031,143.7969 Q137.0938,143.6406 137.5156,143.2031 Q137.7813,142.9375 137.9219,142.8594 Q138.0781,142.7813 138.2813,142.7813 Q138.6094,142.7813 138.8594,143.0469 Q139.125,143.2969 139.125,143.6406 Q139.125,143.9844 138.7813,144.3906 Q138.2813,144.9688 137.4844,145.2969 Q136.4063,145.75 135.1094,145.75 Q133.5938,145.75 132.3906,145.125 Q131.4063,144.625 130.7188,143.5625 Q130.0313,142.4844 130.0313,141.2031 L130.0313,140.0469 Q130.0313,138.7188 130.6406,137.5781 Q131.2656,136.4219 132.3594,135.8125 Q133.4531,135.1875 134.6875,135.1875 Q135.4219,135.1875 136.0625,135.3594 Q136.7188,135.5156 137.2656,135.875 Z "/><text fill="#000000" font-family="sans-serif" font-size="12" lengthAdjust="spacingAndGlyphs" textLength="123" x="148.5" y="144.9102">DataBluePrintInstance</text><line style="stroke: #A80036; stroke-width: 1.5;" x1="120.5" x2="273.5" y1="156" y2="156"/><text fill="#000000" font-family="sans-serif" font-size="11" lengthAdjust="spacingAndGlyphs" textLength="56" x="125.5" y="171.4189">string name</text><text fill="#000000" font-family="sans-serif" font-size="11" lengthAdjust="spacingAndGlyphs" textLength="78" x="125.5" y="185.2549">json parameters</text><line style="stroke: #A80036; stroke-width: 1.5;" x1="120.5" x2="273.5" y1="191.6719" y2="191.6719"/><!--link Model to DataSource--><path d="M194.119,110.747 C193.773,99.325 193.649,87.244 194,76 C194.168,70.615 194.442,64.894 194.758,59.35 " fill="none" id="Model-DataSource" style="stroke: #A80036; stroke-width: 1.0;"/><polygon fill="#A80036" points="195.593,46.222,191.0303,54.9502,195.2759,51.2119,199.0142,55.4575,195.593,46.222" style="stroke: #A80036; stroke-width: 1.0;"/><line style="stroke: #A80036; stroke-width: 1.0;" x1="195.2759" x2="194.7675" y1="51.2119" y2="59.1955"/><polygon fill="#FFFFFF" points="194.614,123.764,198.3836,117.6167,194.159,111.7726,190.3894,117.92,194.614,123.764" style="stroke: #A80036; stroke-width: 1.0;"/><text fill="#000000" font-family="sans-serif" font-size="13" lengthAdjust="spacingAndGlyphs" textLength="46" x="195" y="90.4951">sources</text><text fill="#000000" font-family="sans-serif" font-size="13" lengthAdjust="spacingAndGlyphs" textLength="7" x="187.2742" y="67.1328">n</text><!--link Model to DataSource--><path d="M237.598,112.554 C241.001,106.586 243.928,100.344 246,94 C250.627,79.836 243.328,66.246 233.062,55.119 " fill="none" id="Model-DataSource-1" style="stroke: #A80036; stroke-width: 1.0;"/><polygon fill="#A80036" points="223.502,46.022,227.2643,55.1239,227.1241,49.4688,232.7792,49.3286,223.502,46.022" style="stroke: #A80036; stroke-width: 1.0;"/><line style="stroke: #A80036; stroke-width: 1.0;" x1="227.1241" x2="232.9195" y1="49.4688" y2="54.983"/><polygon fill="#FFFFFF" points="230.565,123.65,237.1557,120.7239,236.9896,113.5147,230.3988,116.4408,230.565,123.65" style="stroke: #A80036; stroke-width: 1.0;"/><text fill="#000000" font-family="sans-serif" font-size="13" lengthAdjust="spacingAndGlyphs" textLength="31" x="249" y="90.4951">sinks</text><text fill="#000000" font-family="sans-serif" font-size="13" lengthAdjust="spacingAndGlyphs" textLength="7" x="222.9713" y="67.2214">n</text><!--link DataSource to Model--><path d="M147.001,53.775 C139.348,59.986 132.507,67.375 128,76 C121.124,89.16 124.869,102.203 133.394,113.975 " fill="none" id="DataSource-Model" style="stroke: #A80036; stroke-width: 1.0;"/><polygon fill="#A80036" points="141.969,123.964,139.1408,114.5299,138.7118,120.1705,133.0712,119.7415,141.969,123.964" style="stroke: #A80036; stroke-width: 1.0;"/><line style="stroke: #A80036; stroke-width: 1.0;" x1="138.7118" x2="133.501" y1="120.1705" y2="114.1"/><polygon fill="#FFFFFF" points="157.798,46.03,150.5911,46.2766,148.0468,53.0239,155.2537,52.7773,157.798,46.03" style="stroke: #A80036; stroke-width: 1.0;"/><text fill="#000000" font-family="sans-serif" font-size="13" lengthAdjust="spacingAndGlyphs" textLength="56" x="129" y="90.4951">blueprints</text><text fill="#000000" font-family="sans-serif" font-size="13" lengthAdjust="spacingAndGlyphs" textLength="7" x="124.1773" y="113.0339">n</text><!--link Model to DataFlowInstance--><path d="M106.494,178.951 C77.8183,188.74 49.1463,204.532 32,230 C23.699,242.33 30.1041,256.3679 40.0285,268.3179 " fill="none" id="Model-DataFlowInstance" style="stroke: #A80036; stroke-width: 1.0;"/><polygon fill="#A80036" points="48.9471,277.7816,45.6856,268.4884,45.5179,274.1428,39.8636,273.9751,48.9471,277.7816" style="stroke: #A80036; stroke-width: 1.0;"/><line style="stroke: #A80036; stroke-width: 1.0;" x1="45.5179" x2="40.0311" y1="274.1428" y2="268.3208"/><polygon fill="#FFFFFF" points="119.188,174.987,112.2684,172.9576,107.7336,178.5644,114.6533,180.5938,119.188,174.987" style="stroke: #A80036; stroke-width: 1.0;"/><text fill="#000000" font-family="sans-serif" font-size="13" lengthAdjust="spacingAndGlyphs" textLength="29" x="33" y="244.4951">flows</text><text fill="#000000" font-family="sans-serif" font-size="13" lengthAdjust="spacingAndGlyphs" textLength="7" x="33.8153" y="267.0547">n</text><!--link DataFlowInstance to Model--><path d="M96.958,268.1452 C107.661,256.3049 120.357,242.3973 132,230 C138.187,223.4122 144.763,216.5152 151.265,209.756 " fill="none" id="DataFlowInstance-Model" style="stroke: #A80036; stroke-width: 1.0;"/><polygon fill="#A80036" points="160.683,200.005,151.5535,203.7,157.2095,203.6015,157.308,209.2575,160.683,200.005" style="stroke: #A80036; stroke-width: 1.0;"/><line style="stroke: #A80036; stroke-width: 1.0;" x1="157.2095" x2="151.652" y1="203.6015" y2="209.355"/><polygon fill="#FFFFFF" points="88.1422,277.9282,95.1303,276.1487,96.1754,269.0137,89.1873,270.7932,88.1422,277.9282" style="stroke: #A80036; stroke-width: 1.0;"/><text fill="#000000" font-family="sans-serif" font-size="13" lengthAdjust="spacingAndGlyphs" textLength="49" x="133" y="244.4951">blueprint</text><text fill="#000000" font-family="sans-serif" font-size="13" lengthAdjust="spacingAndGlyphs" textLength="7" x="147.0883" y="221.176">1</text><!--link Model to Identity--><path d="M282.475,206.574 C294.73,213.887 306.925,221.7869 318,230 C333.224,241.2895 348.517,255.784 360.733,268.3125 " fill="none" id="Model-Identity" style="stroke: #A80036; stroke-width: 1.0;"/><polygon fill="#A80036" points="369.811,277.8399,366.4991,268.5646,366.3621,274.2198,360.7069,274.0828,369.811,277.8399" style="stroke: #A80036; stroke-width: 1.0;"/><line style="stroke: #A80036; stroke-width: 1.0;" x1="366.3621" x2="360.8435" y1="274.2198" y2="268.4282"/><polygon fill="#FFFFFF" points="271.235,200.03,274.4077,206.5057,281.6055,206.0677,278.4328,199.592,271.235,200.03" style="stroke: #A80036; stroke-width: 1.0;"/><text fill="#000000" font-family="sans-serif" font-size="13" lengthAdjust="spacingAndGlyphs" textLength="42" x="340" y="244.4951">identity</text><text fill="#000000" font-family="sans-serif" font-size="13" lengthAdjust="spacingAndGlyphs" textLength="7" x="356.7812" y="267.1309">1</text><!--link Model to DataBluePrint--><path d="M189.381,213.456 C189.225,225.0312 190.375,237.126 194,248 C196.208,254.6241 199.728,261.0702 203.721,266.9773 " fill="none" id="Model-DataBluePrint" style="stroke: #A80036; stroke-width: 1.0;"/><polygon fill="#A80036" points="211.764,277.5778,209.511,267.9901,208.742,273.5944,203.1376,272.8254,211.764,277.5778" style="stroke: #A80036; stroke-width: 1.0;"/><line style="stroke: #A80036; stroke-width: 1.0;" x1="208.742" x2="203.906" y1="273.5944" y2="267.2211"/><polygon fill="#FFFFFF" points="190.095,200.21,185.7777,205.9859,189.4488,212.1926,193.7661,206.4167,190.095,200.21" style="stroke: #A80036; stroke-width: 1.0;"/><text fill="#000000" font-family="sans-serif" font-size="13" lengthAdjust="spacingAndGlyphs" textLength="49" x="195" y="244.4951">blueprint</text><text fill="#000000" font-family="sans-serif" font-size="13" lengthAdjust="spacingAndGlyphs" textLength="7" x="198.3791" y="267.1267">1</text><!--link DataBluePrint to Model--><path d="M246.492,265.962 C250.674,254.6153 252.986,241.6381 249,230 C246.79,223.5488 243.678,217.239 240.063,211.231 " fill="none" id="DataBluePrint-Model" style="stroke: #A80036; stroke-width: 1.0;"/><polygon fill="#A80036" points="232.594,200.089,234.2827,209.792,235.378,204.2422,240.9278,205.3376,232.594,200.089" style="stroke: #A80036; stroke-width: 1.0;"/><line style="stroke: #A80036; stroke-width: 1.0;" x1="235.378" x2="239.8325" y1="204.2422" y2="210.8875"/><polygon fill="#A80036" points="241.212,277.9217,247.2946,274.0485,246.0588,266.9441,239.9762,270.8173,241.212,277.9217" style="stroke: #A80036; stroke-width: 1.0;"/><text fill="#000000" font-family="sans-serif" font-size="13" lengthAdjust="spacingAndGlyphs" textLength="56" x="253" y="244.4951">instances</text><text fill="#000000" font-family="sans-serif" font-size="13" lengthAdjust="spacingAndGlyphs" textLength="7" x="230.9096" y="221.2739">n</text><!--
@startuml

class "DataBluePrintInstance" as Model {
 string name
 json parameters

 
}

rectangle "DataSource" as DataSource #lightblue {
}

Model o- -> "n" DataSource : sources


rectangle "DataSource" as DataSource #lightblue {
}

Model o- -> "n" DataSource : sinks


rectangle "DataFlowInstance" as DataFlowInstance #lightblue {
}

Model o- -> "n" DataFlowInstance : flows


rectangle "Identity" as Identity #lightblue {
}

Model o- -> "1" Identity : identity


rectangle "DataBluePrint" as DataBluePrint #lightblue {
}

Model o- -> "1" DataBluePrint : blueprint




    rectangle "DataBluePrint" as DataBluePrint #lightgreen {
    }
    
        DataBluePrint   *- -> "n" Model : "instances"
    
    rectangle "DataFlowInstance" as DataFlowInstance #lightgreen {
    }
    
        DataFlowInstance   o- -> "1" Model : "blueprint"
    
    rectangle "DataSource" as DataSource #lightgreen {
    }
    
        DataSource   o- -> "n" Model : "blueprints"
    

@enduml

PlantUML version 1.2019.05(Sat Apr 20 09:45:36 PDT 2019)
(GPL source distribution)
Java Runtime: OpenJDK Runtime Environment
JVM: OpenJDK 64-Bit Server VM
Java Version: 12.0.1+12
Operating System: Windows 10
OS Version: 10.0
Default Encoding: Cp1252
Language: en
Country: US
--></g></svg>