<?xml version="1.0" encoding="UTF-8" standalone="no"?><svg xmlns="http://www.w3.org/2000/svg" xmlns:xlink="http://www.w3.org/1999/xlink" contentScriptType="application/ecmascript" contentStyleType="text/css" height="546px" preserveAspectRatio="none" style="width:607px;height:546px;" version="1.1" viewBox="0 0 607 546" width="607px" zoomAndPan="magnify"><defs><filter height="300%" id="f1huno3o8nwiab" width="300%" x="-1" y="-1"><feGaussianBlur result="blurOut" stdDeviation="2.0"/><feColorMatrix in="blurOut" result="blurOut2" type="matrix" values="0 0 0 0 0 0 0 0 0 0 0 0 0 0 0 0 0 0 .4 0"/><feOffset dx="4.0" dy="4.0" in="blurOut2" result="blurOut3"/><feBlend in="SourceGraphic" in2="blurOut3" mode="normal"/></filter></defs><g><!--cluster edgemere--><polygon fill="#E6E6FA" filter="url(#f1huno3o8nwiab)" points="22,42,100,42,107,65.6094,585,65.6094,585,534,22,534,22,42" style="stroke: #000000; stroke-width: 1.5;"/><line style="stroke: #000000; stroke-width: 1.5;" x1="22" x2="107" y1="65.6094" y2="65.6094"/><text fill="#000000" font-family="sans-serif" font-size="14" font-weight="bold" lengthAdjust="spacingAndGlyphs" textLength="72" x="26" y="58.5332">edgemere</text><!--class i--><rect fill="#FEFECE" filter="url(#f1huno3o8nwiab)" height="48" id="i" style="stroke: #A80036; stroke-width: 1.5;" width="89" x="424.5" y="78"/><ellipse cx="439.5" cy="94" fill="#B4A7E5" rx="11" ry="11" style="stroke: #A80036; stroke-width: 1.0;"/><path d="M440.4531,90.6406 L440.4531,97.2969 L442.1719,97.2969 Q442.7813,97.2969 443.0469,97.5313 Q443.3125,97.7656 443.3125,98.1563 Q443.3125,98.5313 443.0469,98.7656 Q442.7813,99 442.1719,99 L437.0313,99 Q436.4219,99 436.1563,98.7656 Q435.8906,98.5313 435.8906,98.1406 Q435.8906,97.7656 436.1563,97.5313 Q436.4219,97.2969 437.0313,97.2969 L438.75,97.2969 L438.75,90.6406 L437.0313,90.6406 Q436.4219,90.6406 436.1563,90.4063 Q435.8906,90.1719 435.8906,89.7813 Q435.8906,89.4063 436.1563,89.1719 Q436.4219,88.9375 437.0313,88.9375 L442.1719,88.9375 Q442.7813,88.9375 443.0469,89.1719 Q443.3125,89.4063 443.3125,89.7813 Q443.3125,90.1719 443.0469,90.4063 Q442.7813,90.6406 442.1719,90.6406 L440.4531,90.6406 Z "/><text fill="#000000" font-family="sans-serif" font-size="12" font-style="italic" lengthAdjust="spacingAndGlyphs" textLength="57" x="453.5" y="98.9102">edgemere</text><line style="stroke: #A80036; stroke-width: 1.5;" x1="425.5" x2="512.5" y1="110" y2="110"/><line style="stroke: #A80036; stroke-width: 1.5;" x1="425.5" x2="512.5" y1="118" y2="118"/><!--entity Application Management Layer--><rect fill="#FFFFFF" filter="url(#f1huno3o8nwiab)" height="37.6094" style="stroke: #000000; stroke-width: 1.5;" width="215" x="120.5" y="83"/><text fill="#000000" font-family="sans-serif" font-size="14" lengthAdjust="spacingAndGlyphs" textLength="195" x="130.5" y="107.5332">Application Management Layer</text><!--entity Common Physical Layer--><rect fill="#FFFFFF" filter="url(#f1huno3o8nwiab)" height="37.6094" style="stroke: #000000; stroke-width: 1.5;" width="172" x="314" y="480"/><text fill="#000000" font-family="sans-serif" font-size="14" lengthAdjust="spacingAndGlyphs" textLength="152" x="324" y="504.5332">Common Physical Layer</text><!--entity Distributed Information Management Layer--><rect fill="#FFFFFF" filter="url(#f1huno3o8nwiab)" height="37.6094" style="stroke: #000000; stroke-width: 1.5;" width="288" x="188" y="186"/><text fill="#000000" font-family="sans-serif" font-size="14" lengthAdjust="spacingAndGlyphs" textLength="268" x="198" y="210.5332">Distributed Information Management Layer</text><!--entity Identity Aspect--><rect fill="#FFFFFF" filter="url(#f1huno3o8nwiab)" height="37.6094" style="stroke: #000000; stroke-width: 1.5;" width="112" x="38" y="284"/><text fill="#000000" font-family="sans-serif" font-size="14" lengthAdjust="spacingAndGlyphs" textLength="92" x="48" y="308.5332">Identity Aspect</text><!--entity Security Aspect--><rect fill="#FFFFFF" filter="url(#f1huno3o8nwiab)" height="37.6094" style="stroke: #000000; stroke-width: 1.5;" width="118" x="185" y="284"/><text fill="#000000" font-family="sans-serif" font-size="14" lengthAdjust="spacingAndGlyphs" textLength="98" x="195" y="308.5332">Security Aspect</text><!--entity Service Management Layer--><rect fill="#FFFFFF" filter="url(#f1huno3o8nwiab)" height="37.6094" style="stroke: #000000; stroke-width: 1.5;" width="193" x="375.5" y="284"/><text fill="#000000" font-family="sans-serif" font-size="14" lengthAdjust="spacingAndGlyphs" textLength="173" x="385.5" y="308.5332">Service Management Layer</text><!--entity Software Defined Infrastructure--><rect fill="#FFFFFF" filter="url(#f1huno3o8nwiab)" height="37.6094" style="stroke: #000000; stroke-width: 1.5;" width="216" x="292" y="382"/><text fill="#000000" font-family="sans-serif" font-size="14" lengthAdjust="spacingAndGlyphs" textLength="196" x="302" y="406.5332">Software Defined Infrastructure</text><ellipse cx="424" cy="13" fill="#FEFECE" filter="url(#f1huno3o8nwiab)" rx="5" ry="5" style="stroke: #A80036; stroke-width: 1.5;"/><text fill="#000000" font-family="sans-serif" font-size="12" lengthAdjust="spacingAndGlyphs" textLength="19" x="414.5" y="30.457">CLI</text><ellipse cx="469" cy="13" fill="#FEFECE" filter="url(#f1huno3o8nwiab)" rx="5" ry="5" style="stroke: #A80036; stroke-width: 1.5;"/><text fill="#000000" font-family="sans-serif" font-size="12" lengthAdjust="spacingAndGlyphs" textLength="32" x="453" y="30.457">REST</text><ellipse cx="514" cy="13" fill="#FEFECE" filter="url(#f1huno3o8nwiab)" rx="5" ry="5" style="stroke: #A80036; stroke-width: 1.5;"/><text fill="#000000" font-family="sans-serif" font-size="12" lengthAdjust="spacingAndGlyphs" textLength="25" x="501.5" y="30.457">Web</text><!--link ilol11018 to i--><path d="M425.934,17.738 C431.216,27.951 446.217,56.953 457.029,77.857 " fill="none" id="ilol11018-i" style="stroke: #A80036; stroke-width: 1.0;"/><!--link ilol11021 to i--><path d="M469,18.196 C469,28.786 469,57.218 469,77.814 " fill="none" id="ilol11021-i" style="stroke: #A80036; stroke-width: 1.0;"/><!--link ilol11024 to i--><path d="M512.066,17.738 C506.784,27.951 491.783,56.953 480.971,77.857 " fill="none" id="ilol11024-i" style="stroke: #A80036; stroke-width: 1.0;"/><!--link Application Management Layer to Distributed Information Management Layer--><path d="M246.593,121.057 C264.23,138.185 290.76,163.949 309.564,182.211 " fill="none" id="Application Management Layer-Distributed Information Management Layer" style="stroke: #A80036; stroke-width: 1.0;"/><polygon fill="#A80036" points="313.217,185.759,309.5463,176.6198,309.6297,182.276,303.9735,182.3594,313.217,185.759" style="stroke: #A80036; stroke-width: 1.0;"/><!--link Application Management Layer to Service Management Layer--><path d="M326.101,121.028 C393.19,135.582 473.541,158.185 494,186 C514.123,213.359 498.983,253.895 485.796,279.09 " fill="none" id="Application Management Layer-Service Management Layer" style="stroke: #A80036; stroke-width: 1.0;"/><polygon fill="#A80036" points="483.365,283.61,491.1514,277.5791,485.7338,279.2067,484.1062,273.7891,483.365,283.61" style="stroke: #A80036; stroke-width: 1.0;"/><!--link Application Management Layer to Security Aspect--><path d="M208.954,121.105 C186.805,144.469 155.068,186.567 170,224 C178.989,246.536 197.928,266.296 214.395,280.289 " fill="none" id="Application Management Layer-Security Aspect" style="stroke: #A80036; stroke-width: 1.0;"/><polygon fill="#A80036" points="218.521,283.721,214.161,274.8898,214.6774,280.523,209.0442,281.0395,218.521,283.721" style="stroke: #A80036; stroke-width: 1.0;"/><!--link Application Management Layer to Identity Aspect--><path d="M211.365,121.022 C196.714,137.34 175.239,162.372 159,186 C137.793,216.856 117.367,255.175 105.2453,279.115 " fill="none" id="Application Management Layer-Identity Aspect" style="stroke: #A80036; stroke-width: 1.0;"/><polygon fill="#A80036" points="102.9338,283.705,110.5538,277.4652,105.1823,279.2391,103.4084,273.8676,102.9338,283.705" style="stroke: #A80036; stroke-width: 1.0;"/><!--link Distributed Information Management Layer to Software Defined Infrastructure--><path d="M334.49,224.125 C338.031,247.334 345.515,288.549 358,322 C365.262,341.457 376.548,362.089 385.593,377.244 " fill="none" id="Distributed Information Management Layer-Software Defined Infrastructure" style="stroke: #A80036; stroke-width: 1.0;"/><polygon fill="#A80036" points="388.321,381.764,387.097,371.9915,385.7382,377.4827,380.247,376.1239,388.321,381.764" style="stroke: #A80036; stroke-width: 1.0;"/><!--link Distributed Information Management Layer to Service Management Layer--><path d="M348.111,224.057 C368.6,240.297 403.22,264.151 430.926,281.188 " fill="none" id="Distributed Information Management Layer-Service Management Layer" style="stroke: #A80036; stroke-width: 1.0;"/><polygon fill="#A80036" points="435.31,283.861,429.7084,275.7603,431.0411,281.2579,425.5434,282.5906,435.31,283.861" style="stroke: #A80036; stroke-width: 1.0;"/><!--link Service Management Layer to Distributed Information Management Layer--><path d="M456.183,283.698 C435.804,267.433 401.311,243.675 373.55,226.718 " fill="none" id="Service Management Layer-Distributed Information Management Layer" style="stroke: #A80036; stroke-width: 1.0;"/><polygon fill="#A80036" points="369.156,224.057,374.7826,232.1404,373.433,226.6469,378.9265,225.2972,369.156,224.057" style="stroke: #A80036; stroke-width: 1.0;"/><!--link Distributed Information Management Layer to Security Aspect--><path d="M315.448,224.057 C300.914,239.912 279.727,263.025 264.198,279.966 " fill="none" id="Distributed Information Management Layer-Security Aspect" style="stroke: #A80036; stroke-width: 1.0;"/><polygon fill="#A80036" points="260.777,283.698,269.8071,279.7665,264.1556,280.0122,263.9099,274.3607,260.777,283.698" style="stroke: #A80036; stroke-width: 1.0;"/><!--link Distributed Information Management Layer to Identity Aspect--><path d="M287.234,224.057 C246.392,240.531 186.126,264.84 143.783,281.92 " fill="none" id="Distributed Information Management Layer-Identity Aspect" style="stroke: #A80036; stroke-width: 1.0;"/><polygon fill="#A80036" points="138.969,283.861,148.8119,284.2047,143.6061,281.991,145.8199,276.7853,138.969,283.861" style="stroke: #A80036; stroke-width: 1.0;"/><!--link Service Management Layer to Software Defined Infrastructure--><path d="M458.457,322.057 C446.666,337.779 429.522,360.638 416.847,377.537 " fill="none" id="Service Management Layer-Software Defined Infrastructure" style="stroke: #A80036; stroke-width: 1.0;"/><polygon fill="#A80036" points="413.727,381.698,422.327,376.898,416.727,377.698,415.927,372.098,413.727,381.698" style="stroke: #A80036; stroke-width: 1.0;"/><!--link Software Defined Infrastructure to Common Physical Layer--><path d="M400,420.057 C400,435.513 400,457.8647 400,474.6731 " fill="none" id="Software Defined Infrastructure-Common Physical Layer" style="stroke: #A80036; stroke-width: 1.0;"/><polygon fill="#A80036" points="400,479.6977,404,470.6977,400,474.6977,396,470.6977,400,479.6977" style="stroke: #A80036; stroke-width: 1.0;"/><!--
@startuml



package "edgemere" #lavender {

    interface "edgemere" as i {
    
    }
}

CLI ()- - i
REST ()- - i
Web ()- - i

package "edgemere" #lavender {


rectangle "Application Management Layer" #white {
}

rectangle "Common Physical Layer" #white {
}

rectangle "Distributed Information Management Layer" #white {
}

rectangle "Identity Aspect" #white {
}

rectangle "Security Aspect" #white {
}

rectangle "Service Management Layer" #white {
}

rectangle "Software Defined Infrastructure" #white {
}

    "Application Management Layer" - -> "Distributed Information Management Layer"
    
    "Application Management Layer" - -> "Service Management Layer"
    
    "Application Management Layer" - -> "Security Aspect"
    
    "Application Management Layer" - -> "Identity Aspect"
    
    "Distributed Information Management Layer" - -> "Software Defined Infrastructure"
    
    "Distributed Information Management Layer" - -> "Service Management Layer"
    
    "Distributed Information Management Layer" - -> "Security Aspect"
    
    "Distributed Information Management Layer" - -> "Identity Aspect"
    
    "Service Management Layer" - -> "Software Defined Infrastructure"
    
    "Service Management Layer" - -> "Distributed Information Management Layer"
    
    "Software Defined Infrastructure" - -> "Common Physical Layer"
    
}



@enduml

PlantUML version 1.2019.05(Sat Apr 20 09:45:36 PDT 2019)
(GPL source distribution)
Java Runtime: OpenJDK Runtime Environment
JVM: OpenJDK 64-Bit Server VM
Java Version: 12.0.1+12
Operating System: Windows 10
OS Version: 10.0
Default Encoding: Cp1252
Language: en
Country: US
--></g></svg>