<?xml version="1.0" encoding="UTF-8" standalone="no"?><svg xmlns="http://www.w3.org/2000/svg" xmlns:xlink="http://www.w3.org/1999/xlink" contentScriptType="application/ecmascript" contentStyleType="text/css" height="196px" preserveAspectRatio="none" style="width:136px;height:196px;" version="1.1" viewBox="0 0 136 196" width="136px" zoomAndPan="magnify"><defs><filter height="300%" id="fr9uqmxenyshw" width="300%" x="-1" y="-1"><feGaussianBlur result="blurOut" stdDeviation="2.0"/><feColorMatrix in="blurOut" result="blurOut2" type="matrix" values="0 0 0 0 0 0 0 0 0 0 0 0 0 0 0 0 0 0 .4 0"/><feOffset dx="4.0" dy="4.0" in="blurOut2" result="blurOut3"/><feBlend in="SourceGraphic" in2="blurOut3" mode="normal"/></filter></defs><g><!--entity PolicyCollection--><rect fill="#90EE90" filter="url(#fr9uqmxenyshw)" height="37.6094" style="stroke: #000000; stroke-width: 1.5;" width="119" x="6" y="8"/><text fill="#000000" font-family="sans-serif" font-size="14" lengthAdjust="spacingAndGlyphs" textLength="99" x="16" y="32.5332">PolicyCollection</text><!--class Model--><rect fill="#FEFECE" filter="url(#fr9uqmxenyshw)" height="61.8359" id="Model" style="stroke: #A80036; stroke-width: 1.5;" width="68" x="31.5" y="124"/><ellipse cx="48.3" cy="140" fill="#ADD1B2" rx="11" ry="11" style="stroke: #A80036; stroke-width: 1.0;"/><path d="M51.0656,135.875 Q51.2219,135.6563 51.4094,135.5469 Q51.5969,135.4375 51.8156,135.4375 Q52.1906,135.4375 52.425,135.7031 Q52.6594,135.9531 52.6594,136.5625 L52.6594,138.0156 Q52.6594,138.625 52.425,138.8906 Q52.1906,139.1563 51.8156,139.1563 Q51.4719,139.1563 51.2688,138.9531 Q51.0656,138.7656 50.9563,138.25 Q50.9094,137.8906 50.7219,137.7031 Q50.3938,137.3281 49.7844,137.1094 Q49.175,136.8906 48.55,136.8906 Q47.7844,136.8906 47.1438,137.2188 Q46.5188,137.5469 46.0188,138.2969 Q45.5344,139.0469 45.5344,140.0781 L45.5344,141.1719 Q45.5344,142.4063 46.425,143.2344 Q47.3156,144.0469 48.9094,144.0469 Q49.8469,144.0469 50.5031,143.7969 Q50.8938,143.6406 51.3156,143.2031 Q51.5813,142.9375 51.7219,142.8594 Q51.8781,142.7813 52.0813,142.7813 Q52.4094,142.7813 52.6594,143.0469 Q52.925,143.2969 52.925,143.6406 Q52.925,143.9844 52.5813,144.3906 Q52.0813,144.9688 51.2844,145.2969 Q50.2063,145.75 48.9094,145.75 Q47.3938,145.75 46.1906,145.125 Q45.2063,144.625 44.5188,143.5625 Q43.8313,142.4844 43.8313,141.2031 L43.8313,140.0469 Q43.8313,138.7188 44.4406,137.5781 Q45.0656,136.4219 46.1594,135.8125 Q47.2531,135.1875 48.4875,135.1875 Q49.2219,135.1875 49.8625,135.3594 Q50.5188,135.5156 51.0656,135.875 Z "/><text fill="#000000" font-family="sans-serif" font-size="12" lengthAdjust="spacingAndGlyphs" textLength="32" x="62.7" y="144.9102">Policy</text><line style="stroke: #A80036; stroke-width: 1.5;" x1="32.5" x2="98.5" y1="156" y2="156"/><text fill="#000000" font-family="sans-serif" font-size="11" lengthAdjust="spacingAndGlyphs" textLength="56" x="37.5" y="171.4189">string name</text><line style="stroke: #A80036; stroke-width: 1.5;" x1="32.5" x2="98.5" y1="177.8359" y2="177.8359"/><!--link Model to PolicyCollection--><path d="M69.1627,110.4696 C69.7149,99.2415 69.9647,87.1727 69.5,76 C69.2757,70.608 68.9104,64.885 68.4893,59.34 " fill="none" id="Model-PolicyCollection" style="stroke: #A80036; stroke-width: 1.0;"/><polygon fill="#A80036" points="67.3764,46.212,64.1513,55.5178,67.7989,51.1941,72.1226,54.8418,67.3764,46.212" style="stroke: #A80036; stroke-width: 1.0;"/><line style="stroke: #A80036; stroke-width: 1.0;" x1="67.7989" x2="68.4747" y1="51.1941" y2="59.1655"/><polygon fill="#FFFFFF" points="68.3669,123.6318,72.7217,117.8841,69.0911,111.6537,64.7363,117.4013,68.3669,123.6318" style="stroke: #A80036; stroke-width: 1.0;"/><text fill="#000000" font-family="sans-serif" font-size="13" lengthAdjust="spacingAndGlyphs" textLength="34" x="70.5" y="90.4951">owner</text><text fill="#000000" font-family="sans-serif" font-size="13" lengthAdjust="spacingAndGlyphs" textLength="7" x="59.9401" y="67.1201">1</text><!--link PolicyCollection to Model--><path d="M28.2936,55.173 C17.7666,66.307 10.3903,79.887 15.5,94 C17.9522,100.7732 21.5399,107.3191 25.6862,113.4404 " fill="none" id="PolicyCollection-Model" style="stroke: #A80036; stroke-width: 1.0;"/><polygon fill="#A80036" points="33.6281,123.9575,31.3965,114.3648,30.615,119.9674,25.0124,119.1858,33.6281,123.9575" style="stroke: #A80036; stroke-width: 1.0;"/><line style="stroke: #A80036; stroke-width: 1.0;" x1="30.615" x2="25.794" y1="119.9674" y2="113.5832"/><polygon fill="#A80036" points="38.121,46.066,31.0012,47.2101,29.319,54.2223,36.4388,53.0781,38.121,46.066" style="stroke: #A80036; stroke-width: 1.0;"/><text fill="#000000" font-family="sans-serif" font-size="13" lengthAdjust="spacingAndGlyphs" textLength="44" x="16.5" y="90.4951">policies</text><text fill="#000000" font-family="sans-serif" font-size="13" lengthAdjust="spacingAndGlyphs" textLength="7" x="18.8905" y="112.9685">n</text><!--
@startuml

class "Policy" as Model {
 string name

 
}

rectangle "PolicyCollection" as PolicyCollection #lightblue {
}

Model o- -> "1" PolicyCollection : owner




    rectangle "PolicyCollection" as PolicyCollection #lightgreen {
    }
    
        PolicyCollection   *- -> "n" Model : "policies"
    

@enduml

PlantUML version 1.2019.05(Sat Apr 20 09:45:36 PDT 2019)
(GPL source distribution)
Java Runtime: OpenJDK Runtime Environment
JVM: OpenJDK 64-Bit Server VM
Java Version: 12.0.1+12
Operating System: Windows 10
OS Version: 10.0
Default Encoding: Cp1252
Language: en
Country: US
--></g></svg>