<?xml version="1.0" encoding="UTF-8" standalone="no"?><svg xmlns="http://www.w3.org/2000/svg" xmlns:xlink="http://www.w3.org/1999/xlink" contentScriptType="application/ecmascript" contentStyleType="text/css" height="345px" preserveAspectRatio="none" style="width:518px;height:345px;" version="1.1" viewBox="0 0 518 345" width="518px" zoomAndPan="magnify"><defs><filter height="300%" id="f18bxs638cu7iz" width="300%" x="-1" y="-1"><feGaussianBlur result="blurOut" stdDeviation="2.0"/><feColorMatrix in="blurOut" result="blurOut2" type="matrix" values="0 0 0 0 0 0 0 0 0 0 0 0 0 0 0 0 0 0 .4 0"/><feOffset dx="4.0" dy="4.0" in="blurOut2" result="blurOut3"/><feBlend in="SourceGraphic" in2="blurOut3" mode="normal"/></filter></defs><g><!--cluster AI ML Services--><polygon fill="#ADD8E6" filter="url(#f18bxs638cu7iz)" points="30,73.5,140,73.5,147,97.1094,321,97.1094,321,333,30,333,30,73.5" style="stroke: #000000; stroke-width: 1.5;"/><line style="stroke: #000000; stroke-width: 1.5;" x1="30" x2="147" y1="97.1094" y2="97.1094"/><text fill="#000000" font-family="sans-serif" font-size="14" font-weight="bold" lengthAdjust="spacingAndGlyphs" textLength="104" x="34" y="90.0332">AI ML Services</text><polygon fill="#ADD8E6" filter="url(#f18bxs638cu7iz)" points="345.5,257.5,482.5,257.5,489.5,281.1094,496.5,281.1094,496.5,312.7188,345.5,312.7188,345.5,257.5" style="stroke: #000000; stroke-width: 1.5;"/><line style="stroke: #000000; stroke-width: 1.5;" x1="345.5" x2="489.5" y1="281.1094" y2="281.1094"/><text fill="#000000" font-family="sans-serif" font-size="14" font-weight="bold" lengthAdjust="spacingAndGlyphs" textLength="131" x="349.5" y="274.0332">Workflow Services</text><!--class i--><rect fill="#FEFECE" filter="url(#f18bxs638cu7iz)" height="48" id="i" style="stroke: #A80036; stroke-width: 1.5;" width="113" x="164.5" y="124.5"/><ellipse cx="179.5" cy="140.5" fill="#B4A7E5" rx="11" ry="11" style="stroke: #A80036; stroke-width: 1.0;"/><path d="M180.4531,137.1406 L180.4531,143.7969 L182.1719,143.7969 Q182.7813,143.7969 183.0469,144.0313 Q183.3125,144.2656 183.3125,144.6563 Q183.3125,145.0313 183.0469,145.2656 Q182.7813,145.5 182.1719,145.5 L177.0313,145.5 Q176.4219,145.5 176.1563,145.2656 Q175.8906,145.0313 175.8906,144.6406 Q175.8906,144.2656 176.1563,144.0313 Q176.4219,143.7969 177.0313,143.7969 L178.75,143.7969 L178.75,137.1406 L177.0313,137.1406 Q176.4219,137.1406 176.1563,136.9063 Q175.8906,136.6719 175.8906,136.2813 Q175.8906,135.9063 176.1563,135.6719 Q176.4219,135.4375 177.0313,135.4375 L182.1719,135.4375 Q182.7813,135.4375 183.0469,135.6719 Q183.3125,135.9063 183.3125,136.2813 Q183.3125,136.6719 183.0469,136.9063 Q182.7813,137.1406 182.1719,137.1406 L180.4531,137.1406 Z "/><text fill="#000000" font-family="sans-serif" font-size="12" font-style="italic" lengthAdjust="spacingAndGlyphs" textLength="81" x="193.5" y="145.4102">AI ML Services</text><line style="stroke: #A80036; stroke-width: 1.5;" x1="165.5" x2="276.5" y1="156.5" y2="156.5"/><line style="stroke: #A80036; stroke-width: 1.5;" x1="165.5" x2="276.5" y1="164.5" y2="164.5"/><!--class AIModel--><rect fill="#FEFECE" filter="url(#f18bxs638cu7iz)" height="61.8359" id="AIModel" style="stroke: #A80036; stroke-width: 1.5;" width="75" x="54.5" y="117.5"/><ellipse cx="69.5" cy="133.5" fill="#ADD1B2" rx="11" ry="11" style="stroke: #A80036; stroke-width: 1.0;"/><path d="M72.2656,129.375 Q72.4219,129.1563 72.6094,129.0469 Q72.7969,128.9375 73.0156,128.9375 Q73.3906,128.9375 73.625,129.2031 Q73.8594,129.4531 73.8594,130.0625 L73.8594,131.5156 Q73.8594,132.125 73.625,132.3906 Q73.3906,132.6563 73.0156,132.6563 Q72.6719,132.6563 72.4688,132.4531 Q72.2656,132.2656 72.1563,131.75 Q72.1094,131.3906 71.9219,131.2031 Q71.5938,130.8281 70.9844,130.6094 Q70.375,130.3906 69.75,130.3906 Q68.9844,130.3906 68.3438,130.7188 Q67.7188,131.0469 67.2188,131.7969 Q66.7344,132.5469 66.7344,133.5781 L66.7344,134.6719 Q66.7344,135.9063 67.625,136.7344 Q68.5156,137.5469 70.1094,137.5469 Q71.0469,137.5469 71.7031,137.2969 Q72.0938,137.1406 72.5156,136.7031 Q72.7813,136.4375 72.9219,136.3594 Q73.0781,136.2813 73.2813,136.2813 Q73.6094,136.2813 73.8594,136.5469 Q74.125,136.7969 74.125,137.1406 Q74.125,137.4844 73.7813,137.8906 Q73.2813,138.4688 72.4844,138.7969 Q71.4063,139.25 70.1094,139.25 Q68.5938,139.25 67.3906,138.625 Q66.4063,138.125 65.7188,137.0625 Q65.0313,135.9844 65.0313,134.7031 L65.0313,133.5469 Q65.0313,132.2188 65.6406,131.0781 Q66.2656,129.9219 67.3594,129.3125 Q68.4531,128.6875 69.6875,128.6875 Q70.4219,128.6875 71.0625,128.8594 Q71.7188,129.0156 72.2656,129.375 Z "/><text fill="#000000" font-family="sans-serif" font-size="12" lengthAdjust="spacingAndGlyphs" textLength="43" x="83.5" y="138.4102">AIModel</text><line style="stroke: #A80036; stroke-width: 1.5;" x1="55.5" x2="128.5" y1="149.5" y2="149.5"/><text fill="#000000" font-family="sans-serif" font-size="11" lengthAdjust="spacingAndGlyphs" textLength="52" x="60.5" y="164.9189">string attr1</text><line style="stroke: #A80036; stroke-width: 1.5;" x1="55.5" x2="128.5" y1="171.3359" y2="171.3359"/><!--class ModelName--><rect fill="#FEFECE" filter="url(#f18bxs638cu7iz)" height="48" id="ModelName" style="stroke: #A80036; stroke-width: 1.5;" width="99" x="54.5" y="261"/><ellipse cx="69.5" cy="277" fill="#ADD1B2" rx="11" ry="11" style="stroke: #A80036; stroke-width: 1.0;"/><path d="M72.2656,272.875 Q72.4219,272.6563 72.6094,272.5469 Q72.7969,272.4375 73.0156,272.4375 Q73.3906,272.4375 73.625,272.7031 Q73.8594,272.9531 73.8594,273.5625 L73.8594,275.0156 Q73.8594,275.625 73.625,275.8906 Q73.3906,276.1563 73.0156,276.1563 Q72.6719,276.1563 72.4688,275.9531 Q72.2656,275.7656 72.1563,275.25 Q72.1094,274.8906 71.9219,274.7031 Q71.5938,274.3281 70.9844,274.1094 Q70.375,273.8906 69.75,273.8906 Q68.9844,273.8906 68.3438,274.2188 Q67.7188,274.5469 67.2188,275.2969 Q66.7344,276.0469 66.7344,277.0781 L66.7344,278.1719 Q66.7344,279.4063 67.625,280.2344 Q68.5156,281.0469 70.1094,281.0469 Q71.0469,281.0469 71.7031,280.7969 Q72.0938,280.6406 72.5156,280.2031 Q72.7813,279.9375 72.9219,279.8594 Q73.0781,279.7813 73.2813,279.7813 Q73.6094,279.7813 73.8594,280.0469 Q74.125,280.2969 74.125,280.6406 Q74.125,280.9844 73.7813,281.3906 Q73.2813,281.9688 72.4844,282.2969 Q71.4063,282.75 70.1094,282.75 Q68.5938,282.75 67.3906,282.125 Q66.4063,281.625 65.7188,280.5625 Q65.0313,279.4844 65.0313,278.2031 L65.0313,277.0469 Q65.0313,275.7188 65.6406,274.5781 Q66.2656,273.4219 67.3594,272.8125 Q68.4531,272.1875 69.6875,272.1875 Q70.4219,272.1875 71.0625,272.3594 Q71.7188,272.5156 72.2656,272.875 Z "/><text fill="#000000" font-family="sans-serif" font-size="12" lengthAdjust="spacingAndGlyphs" textLength="67" x="83.5" y="281.9102">ModelName</text><line style="stroke: #A80036; stroke-width: 1.5;" x1="55.5" x2="152.5" y1="293" y2="293"/><line style="stroke: #A80036; stroke-width: 1.5;" x1="55.5" x2="152.5" y1="301" y2="301"/><ellipse cx="176" cy="13.5" fill="#FEFECE" filter="url(#f18bxs638cu7iz)" rx="5" ry="5" style="stroke: #A80036; stroke-width: 1.5;"/><text fill="#000000" font-family="sans-serif" font-size="12" lengthAdjust="spacingAndGlyphs" textLength="19" x="166.5" y="30.957">CLI</text><ellipse cx="221" cy="13.5" fill="#FEFECE" filter="url(#f18bxs638cu7iz)" rx="5" ry="5" style="stroke: #A80036; stroke-width: 1.5;"/><text fill="#000000" font-family="sans-serif" font-size="12" lengthAdjust="spacingAndGlyphs" textLength="32" x="205" y="30.957">REST</text><ellipse cx="266" cy="13.5" fill="#FEFECE" filter="url(#f18bxs638cu7iz)" rx="5" ry="5" style="stroke: #A80036; stroke-width: 1.5;"/><text fill="#000000" font-family="sans-serif" font-size="12" lengthAdjust="spacingAndGlyphs" textLength="25" x="253.5" y="30.957">Web</text><!--link ilol446 to i--><path d="M177.298,18.337 C182.5,33.712 202.092,91.618 213.196,124.435 " fill="none" id="ilol446-i" style="stroke: #A80036; stroke-width: 1.0;"/><!--link ilol449 to i--><path d="M221,18.626 C221,34.411 221,91.711 221,124.343 " fill="none" id="ilol449-i" style="stroke: #A80036; stroke-width: 1.0;"/><!--link ilol452 to i--><path d="M264.702,18.337 C259.5,33.712 239.908,91.618 228.804,124.435 " fill="none" id="ilol452-i" style="stroke: #A80036; stroke-width: 1.0;"/><!--link AIModel to ModelName--><path d="M95.8564,192.724 C97.4347,210.414 99.2409,230.658 100.7506,247.58 " fill="none" id="AIModel-ModelName" style="stroke: #A80036; stroke-width: 1.0;"/><polygon fill="#A80036" points="101.9125,260.6031,105.0966,251.2831,101.468,255.6229,97.1282,251.9943,101.9125,260.6031" style="stroke: #A80036; stroke-width: 1.0;"/><line style="stroke: #A80036; stroke-width: 1.0;" x1="101.468" x2="100.7572" y1="255.6229" y2="247.6545"/><polygon fill="#FFFFFF" points="94.693,179.684,91.2415,186.0155,95.7585,191.6366,99.21,185.3051,94.693,179.684" style="stroke: #A80036; stroke-width: 1.0;"/><text fill="#000000" font-family="sans-serif" font-size="13" lengthAdjust="spacingAndGlyphs" textLength="42" x="100" y="223.9951">assoc1</text><text fill="#000000" font-family="sans-serif" font-size="13" lengthAdjust="spacingAndGlyphs" textLength="7" x="93.5505" y="250.2442">1</text><!--link AI ML Services to Workflow Services--><path d="M321.1369,159.6338 C321.2958,159.8318 321.4568,160.0322 321.6197,160.2351 C321.9455,160.6409 322.2791,161.0564 322.6203,161.4813 C328.0791,168.2796 335.4724,177.4871 343.7698,187.8204 C360.3645,208.487 380.5755,233.657 396.159,253.064 " fill="none" id="AI ML Services-Workflow Services" style="stroke: #A80036; stroke-width: 1.0;"/><polygon fill="#A80036" points="399.489,257.211,396.9736,247.6888,396.3587,253.3121,390.7354,252.6972,399.489,257.211" style="stroke: #A80036; stroke-width: 1.0;"/><!--
@startuml


package "Workflow Services" #lightblue {
    }


package "AI ML Services" #lightblue {

    interface "AI ML Services" as i {
    
    }
}

CLI ()- - i
REST ()- - i
Web ()- - i

package "AI ML Services" #lightblue {
        class "AIModel" {
                 string attr1
                    }
                AIModel o- -> "1" ModelName : assoc1
            
    

}


    "AI ML Services" - -> "Workflow Services"


@enduml

PlantUML version 1.2019.05(Sat Apr 20 09:45:36 PDT 2019)
(GPL source distribution)
Java Runtime: OpenJDK Runtime Environment
JVM: OpenJDK 64-Bit Server VM
Java Version: 12.0.1+12
Operating System: Windows 10
OS Version: 10.0
Default Encoding: Cp1252
Language: en
Country: US
--></g></svg>