<?xml version="1.0" encoding="UTF-8" standalone="no"?><svg xmlns="http://www.w3.org/2000/svg" xmlns:xlink="http://www.w3.org/1999/xlink" contentScriptType="application/ecmascript" contentStyleType="text/css" height="261px" preserveAspectRatio="none" style="width:276px;height:261px;" version="1.1" viewBox="0 0 276 261" width="276px" zoomAndPan="magnify"><defs><filter height="300%" id="fi8wwq8oo9ctm" width="300%" x="-1" y="-1"><feGaussianBlur result="blurOut" stdDeviation="2.0"/><feColorMatrix in="blurOut" result="blurOut2" type="matrix" values="0 0 0 0 0 0 0 0 0 0 0 0 0 0 0 0 0 0 .4 0"/><feOffset dx="4.0" dy="4.0" in="blurOut2" result="blurOut3"/><feBlend in="SourceGraphic" in2="blurOut3" mode="normal"/></filter></defs><g><!--cluster AI ML Services--><polygon fill="#ADD8E6" filter="url(#fi8wwq8oo9ctm)" points="73.5,42,183.5,42,190.5,65.6094,254.5,65.6094,254.5,158,73.5,158,73.5,42" style="stroke: #000000; stroke-width: 1.5;"/><line style="stroke: #000000; stroke-width: 1.5;" x1="73.5" x2="190.5" y1="65.6094" y2="65.6094"/><text fill="#000000" font-family="sans-serif" font-size="14" font-weight="bold" lengthAdjust="spacingAndGlyphs" textLength="104" x="77.5" y="58.5332">AI ML Services</text><polygon fill="#ADD8E6" filter="url(#fi8wwq8oo9ctm)" points="6,194,143,194,150,217.6094,157,217.6094,157,249.2188,6,249.2188,6,194" style="stroke: #000000; stroke-width: 1.5;"/><line style="stroke: #000000; stroke-width: 1.5;" x1="6" x2="150" y1="217.6094" y2="217.6094"/><text fill="#000000" font-family="sans-serif" font-size="14" font-weight="bold" lengthAdjust="spacingAndGlyphs" textLength="131" x="10" y="210.5332">Workflow Services</text><!--class i--><rect fill="#FEFECE" filter="url(#fi8wwq8oo9ctm)" height="48" id="i" style="stroke: #A80036; stroke-width: 1.5;" width="113" x="117" y="86"/><ellipse cx="132" cy="102" fill="#B4A7E5" rx="11" ry="11" style="stroke: #A80036; stroke-width: 1.0;"/><path d="M132.9531,98.6406 L132.9531,105.2969 L134.6719,105.2969 Q135.2813,105.2969 135.5469,105.5313 Q135.8125,105.7656 135.8125,106.1563 Q135.8125,106.5313 135.5469,106.7656 Q135.2813,107 134.6719,107 L129.5313,107 Q128.9219,107 128.6563,106.7656 Q128.3906,106.5313 128.3906,106.1406 Q128.3906,105.7656 128.6563,105.5313 Q128.9219,105.2969 129.5313,105.2969 L131.25,105.2969 L131.25,98.6406 L129.5313,98.6406 Q128.9219,98.6406 128.6563,98.4063 Q128.3906,98.1719 128.3906,97.7813 Q128.3906,97.4063 128.6563,97.1719 Q128.9219,96.9375 129.5313,96.9375 L134.6719,96.9375 Q135.2813,96.9375 135.5469,97.1719 Q135.8125,97.4063 135.8125,97.7813 Q135.8125,98.1719 135.5469,98.4063 Q135.2813,98.6406 134.6719,98.6406 L132.9531,98.6406 Z "/><text fill="#000000" font-family="sans-serif" font-size="12" font-style="italic" lengthAdjust="spacingAndGlyphs" textLength="81" x="146" y="106.9102">AI ML Services</text><line style="stroke: #A80036; stroke-width: 1.5;" x1="118" x2="229" y1="118" y2="118"/><line style="stroke: #A80036; stroke-width: 1.5;" x1="118" x2="229" y1="126" y2="126"/><ellipse cx="128.5" cy="13" fill="#FEFECE" filter="url(#fi8wwq8oo9ctm)" rx="5" ry="5" style="stroke: #A80036; stroke-width: 1.5;"/><text fill="#000000" font-family="sans-serif" font-size="12" lengthAdjust="spacingAndGlyphs" textLength="19" x="119" y="30.457">CLI</text><ellipse cx="173.5" cy="13" fill="#FEFECE" filter="url(#fi8wwq8oo9ctm)" rx="5" ry="5" style="stroke: #A80036; stroke-width: 1.5;"/><text fill="#000000" font-family="sans-serif" font-size="12" lengthAdjust="spacingAndGlyphs" textLength="32" x="157.5" y="30.457">REST</text><ellipse cx="218.5" cy="13" fill="#FEFECE" filter="url(#fi8wwq8oo9ctm)" rx="5" ry="5" style="stroke: #A80036; stroke-width: 1.5;"/><text fill="#000000" font-family="sans-serif" font-size="12" lengthAdjust="spacingAndGlyphs" textLength="25" x="206" y="30.457">Web</text><!--link ilol471 to i--><path d="M130.434,18.082 C135.884,29.589 151.682,62.941 162.549,85.882 " fill="none" id="ilol471-i" style="stroke: #A80036; stroke-width: 1.0;"/><!--link ilol474 to i--><path d="M173.5,18.082 C173.5,29.589 173.5,62.941 173.5,85.882 " fill="none" id="ilol474-i" style="stroke: #A80036; stroke-width: 1.0;"/><!--link ilol477 to i--><path d="M216.566,18.082 C211.116,29.589 195.318,62.941 184.451,85.882 " fill="none" id="ilol477-i" style="stroke: #A80036; stroke-width: 1.0;"/><!--link AI ML Services to Workflow Services--><path d="M81.5,158.2243 C81.5,158.3573 81.5,158.4903 81.5,158.6234 C81.5,159.1558 81.5,159.689 81.5,160.223 C81.5,161.2909 81.5,162.3617 81.5,163.4336 C81.5,172.0093 81.5,180.6608 81.5,188.5446 " fill="none" id="AI ML Services-Workflow Services" style="stroke: #A80036; stroke-width: 1.0;"/><polygon fill="#A80036" points="81.5,193.8839,85.5,184.8839,81.5,188.8839,77.5,184.8839,81.5,193.8839" style="stroke: #A80036; stroke-width: 1.0;"/><!--
@startuml


package "Workflow Services" #lightblue {

}


package "AI ML Services" #lightblue {

    interface "AI ML Services" as i {
    
    }
}

CLI ()- - i
REST ()- - i
Web ()- - i

package "AI ML Services" #lightblue {


}


    "AI ML Services" - -> "Workflow Services"


@enduml

PlantUML version 1.2019.05(Sat Apr 20 09:45:36 PDT 2019)
(GPL source distribution)
Java Runtime: OpenJDK Runtime Environment
JVM: OpenJDK 64-Bit Server VM
Java Version: 12.0.1+12
Operating System: Windows 10
OS Version: 10.0
Default Encoding: Cp1252
Language: en
Country: US
--></g></svg>