<?xml version="1.0" encoding="UTF-8" standalone="no"?><svg xmlns="http://www.w3.org/2000/svg" xmlns:xlink="http://www.w3.org/1999/xlink" contentScriptType="application/ecmascript" contentStyleType="text/css" height="265px" preserveAspectRatio="none" style="width:600px;height:265px;" version="1.1" viewBox="0 0 600 265" width="600px" zoomAndPan="magnify"><defs><filter height="300%" id="f1hagq0x01z3kh" width="300%" x="-1" y="-1"><feGaussianBlur result="blurOut" stdDeviation="2.0"/><feColorMatrix in="blurOut" result="blurOut2" type="matrix" values="0 0 0 0 0 0 0 0 0 0 0 0 0 0 0 0 0 0 .4 0"/><feOffset dx="4.0" dy="4.0" in="blurOut2" result="blurOut3"/><feBlend in="SourceGraphic" in2="blurOut3" mode="normal"/></filter></defs><g><!--entity Request--><rect fill="#ADD8E6" filter="url(#f1hagq0x01z3kh)" height="37.6094" style="stroke: #000000; stroke-width: 1.5;" width="73" x="6" y="217"/><text fill="#000000" font-family="sans-serif" font-size="14" lengthAdjust="spacingAndGlyphs" textLength="53" x="16" y="241.5332">Request</text><!--entity PhysicalProfile--><rect fill="#ADD8E6" filter="url(#f1hagq0x01z3kh)" height="37.6094" style="stroke: #000000; stroke-width: 1.5;" width="112" x="114.5" y="217"/><text fill="#000000" font-family="sans-serif" font-size="14" lengthAdjust="spacingAndGlyphs" textLength="92" x="124.5" y="241.5332">PhysicalProfile</text><!--entity Hardware--><rect fill="#ADD8E6" filter="url(#f1hagq0x01z3kh)" height="37.6094" style="stroke: #000000; stroke-width: 1.5;" width="80" x="261.5" y="217"/><text fill="#000000" font-family="sans-serif" font-size="14" lengthAdjust="spacingAndGlyphs" textLength="60" x="271.5" y="241.5332">Hardware</text><!--entity ServiceInstance--><rect fill="#ADD8E6" filter="url(#f1hagq0x01z3kh)" height="37.6094" style="stroke: #000000; stroke-width: 1.5;" width="120" x="376.5" y="217"/><text fill="#000000" font-family="sans-serif" font-size="14" lengthAdjust="spacingAndGlyphs" textLength="100" x="386.5" y="241.5332">ServiceInstance</text><!--entity Cloud--><rect fill="#ADD8E6" filter="url(#f1hagq0x01z3kh)" height="37.6094" style="stroke: #000000; stroke-width: 1.5;" width="57" x="532" y="217"/><text fill="#000000" font-family="sans-serif" font-size="14" lengthAdjust="spacingAndGlyphs" textLength="37" x="542" y="241.5332">Cloud</text><!--class Model--><rect fill="#FEFECE" filter="url(#f1hagq0x01z3kh)" height="131.0156" id="Model" style="stroke: #A80036; stroke-width: 1.5;" width="137" x="233" y="8"/><ellipse cx="248" cy="24" fill="#ADD1B2" rx="11" ry="11" style="stroke: #A80036; stroke-width: 1.0;"/><path d="M250.7656,19.875 Q250.9219,19.6563 251.1094,19.5469 Q251.2969,19.4375 251.5156,19.4375 Q251.8906,19.4375 252.125,19.7031 Q252.3594,19.9531 252.3594,20.5625 L252.3594,22.0156 Q252.3594,22.625 252.125,22.8906 Q251.8906,23.1563 251.5156,23.1563 Q251.1719,23.1563 250.9688,22.9531 Q250.7656,22.7656 250.6563,22.25 Q250.6094,21.8906 250.4219,21.7031 Q250.0938,21.3281 249.4844,21.1094 Q248.875,20.8906 248.25,20.8906 Q247.4844,20.8906 246.8438,21.2188 Q246.2188,21.5469 245.7188,22.2969 Q245.2344,23.0469 245.2344,24.0781 L245.2344,25.1719 Q245.2344,26.4063 246.125,27.2344 Q247.0156,28.0469 248.6094,28.0469 Q249.5469,28.0469 250.2031,27.7969 Q250.5938,27.6406 251.0156,27.2031 Q251.2813,26.9375 251.4219,26.8594 Q251.5781,26.7813 251.7813,26.7813 Q252.1094,26.7813 252.3594,27.0469 Q252.625,27.2969 252.625,27.6406 Q252.625,27.9844 252.2813,28.3906 Q251.7813,28.9688 250.9844,29.2969 Q249.9063,29.75 248.6094,29.75 Q247.0938,29.75 245.8906,29.125 Q244.9063,28.625 244.2188,27.5625 Q243.5313,26.4844 243.5313,25.2031 L243.5313,24.0469 Q243.5313,22.7188 244.1406,21.5781 Q244.7656,20.4219 245.8594,19.8125 Q246.9531,19.1875 248.1875,19.1875 Q248.9219,19.1875 249.5625,19.3594 Q250.2188,19.5156 250.7656,19.875 Z "/><text fill="#000000" font-family="sans-serif" font-size="12" lengthAdjust="spacingAndGlyphs" textLength="105" x="262" y="28.9102">ComputeResource</text><line style="stroke: #A80036; stroke-width: 1.5;" x1="234" x2="369" y1="40" y2="40"/><text fill="#000000" font-family="sans-serif" font-size="11" lengthAdjust="spacingAndGlyphs" textLength="56" x="239" y="55.4189">string name</text><text fill="#000000" font-family="sans-serif" font-size="11" lengthAdjust="spacingAndGlyphs" textLength="62" x="239" y="69.2549">string ename</text><text fill="#000000" font-family="sans-serif" font-size="11" lengthAdjust="spacingAndGlyphs" textLength="81" x="239" y="83.0908">boolean disabled</text><text fill="#000000" font-family="sans-serif" font-size="11" lengthAdjust="spacingAndGlyphs" textLength="51" x="239" y="96.9268">string type</text><line style="stroke: #A80036; stroke-width: 1.5;" x1="234" x2="369" y1="103.3438" y2="103.3438"/><text fill="#000000" font-family="sans-serif" font-size="11" lengthAdjust="spacingAndGlyphs" textLength="43" x="239" y="118.7627">factory()</text><text fill="#000000" font-family="sans-serif" font-size="11" lengthAdjust="spacingAndGlyphs" textLength="52" x="239" y="132.5986">provision()</text><!--link Model to Request--><path d="M221.47,124.094 C175.638,152.496 120.076,186.9268 83.1403,209.8156 " fill="none" id="Model-Request" style="stroke: #A80036; stroke-width: 1.0;"/><polygon fill="#A80036" points="71.8386,216.8192,81.5958,215.4785,76.0887,214.1854,77.3817,208.6783,71.8386,216.8192" style="stroke: #A80036; stroke-width: 1.0;"/><line style="stroke: #A80036; stroke-width: 1.0;" x1="76.0887" x2="82.8888" y1="214.1854" y2="209.9714"/><polygon fill="#FFFFFF" points="232.773,117.09,225.5659,116.8502,222.5726,123.4107,229.7797,123.6505,232.773,117.09" style="stroke: #A80036; stroke-width: 1.0;"/><text fill="#000000" font-family="sans-serif" font-size="13" lengthAdjust="spacingAndGlyphs" textLength="43" x="150.5" y="183.4951">request</text><text fill="#000000" font-family="sans-serif" font-size="13" lengthAdjust="spacingAndGlyphs" textLength="7" x="72.7517" y="206.1038">1</text><!--link Model to PhysicalProfile--><path d="M240.216,149.585 C223.642,169.8911 206.707,190.6399 193.678,206.6022 " fill="none" id="Model-PhysicalProfile" style="stroke: #A80036; stroke-width: 1.0;"/><polygon fill="#A80036" points="185.335,216.824,194.1247,212.3808,188.4966,212.9504,187.9269,207.3223,185.335,216.824" style="stroke: #A80036; stroke-width: 1.0;"/><line style="stroke: #A80036; stroke-width: 1.0;" x1="188.4966" x2="193.555" y1="212.9504" y2="206.7528"/><polygon fill="#A80036" points="248.595,139.319,241.7023,141.4381,241.0074,148.6156,247.9001,146.4965,248.595,139.319" style="stroke: #A80036; stroke-width: 1.0;"/><text fill="#000000" font-family="sans-serif" font-size="13" lengthAdjust="spacingAndGlyphs" textLength="34" x="225.5" y="183.4951">profile</text><text fill="#000000" font-family="sans-serif" font-size="13" lengthAdjust="spacingAndGlyphs" textLength="7" x="181.8063" y="206.1101">1</text><!--link Model to Hardware--><path d="M301.5,152.587 C301.5,170.6084 301.5,188.7756 301.5,203.4494 " fill="none" id="Model-Hardware" style="stroke: #A80036; stroke-width: 1.0;"/><polygon fill="#A80036" points="301.5,216.824,305.5,207.824,301.5,211.824,297.5,207.824,301.5,216.824" style="stroke: #A80036; stroke-width: 1.0;"/><line style="stroke: #A80036; stroke-width: 1.0;" x1="301.5" x2="301.5" y1="211.824" y2="203.8241"/><polygon fill="#FFFFFF" points="301.5,139.319,297.5,145.319,301.5,151.319,305.5,145.319,301.5,139.319" style="stroke: #A80036; stroke-width: 1.0;"/><text fill="#000000" font-family="sans-serif" font-size="13" lengthAdjust="spacingAndGlyphs" textLength="52" x="302.5" y="183.4951">hardware</text><text fill="#000000" font-family="sans-serif" font-size="13" lengthAdjust="spacingAndGlyphs" textLength="7" x="293.4281" y="206.1101">n</text><!--link Model to ServiceInstance--><path d="M364.656,149.585 C381.736,169.8911 399.188,190.6399 412.614,206.6022 " fill="none" id="Model-ServiceInstance" style="stroke: #A80036; stroke-width: 1.0;"/><polygon fill="#A80036" points="421.212,216.824,418.4798,207.3617,417.9935,212.9976,412.3576,212.5113,421.212,216.824" style="stroke: #A80036; stroke-width: 1.0;"/><line style="stroke: #A80036; stroke-width: 1.0;" x1="417.9935" x2="412.844" y1="212.9976" y2="206.8754"/><polygon fill="#FFFFFF" points="356.021,139.319,356.8217,146.4855,363.7449,148.5028,362.9442,141.3362,356.021,139.319" style="stroke: #A80036; stroke-width: 1.0;"/><text fill="#000000" font-family="sans-serif" font-size="13" lengthAdjust="spacingAndGlyphs" textLength="56" x="394.5" y="183.4951">instances</text><text fill="#000000" font-family="sans-serif" font-size="13" lengthAdjust="spacingAndGlyphs" textLength="7" x="408.4582" y="206.1101">n</text><!--link Model to Cloud--><path d="M381.614,121.578 C406.681,136.532 434.355,153.274 459.5,169 C480.384,182.0615 503.393,197.0495 522.168,209.4382 " fill="none" id="Model-Cloud" style="stroke: #A80036; stroke-width: 1.0;"/><polygon fill="#A80036" points="533.255,216.7756,527.9572,208.473,529.0854,214.0162,523.5422,215.1444,533.255,216.7756" style="stroke: #A80036; stroke-width: 1.0;"/><line style="stroke: #A80036; stroke-width: 1.0;" x1="529.0854" x2="522.414" y1="214.0162" y2="209.6008"/><polygon fill="#FFFFFF" points="370.299,114.843,373.4089,121.349,380.6106,120.9806,377.5007,114.4746,370.299,114.843" style="stroke: #A80036; stroke-width: 1.0;"/><text fill="#000000" font-family="sans-serif" font-size="13" lengthAdjust="spacingAndGlyphs" textLength="31" x="488.5" y="183.4951">cloud</text><text fill="#000000" font-family="sans-serif" font-size="13" lengthAdjust="spacingAndGlyphs" textLength="7" x="516.8393" y="206.0469">1</text><!--
@startuml

class "ComputeResource" as Model {
 string name
 string ename
 boolean disabled
 string type

 factory()
 provision()
 
}

rectangle "Request" as Request #lightblue {
}

Model o- -> "1" Request : request


rectangle "PhysicalProfile" as PhysicalProfile #lightblue {
}

Model *- -> "1" PhysicalProfile : profile


rectangle "Hardware" as Hardware #lightblue {
}

Model o- -> "n" Hardware : hardware


rectangle "ServiceInstance" as ServiceInstance #lightblue {
}

Model o- -> "n" ServiceInstance : instances


rectangle "Cloud" as Cloud #lightblue {
}

Model o- -> "1" Cloud : cloud





@enduml

PlantUML version 1.2019.05(Sat Apr 20 09:45:36 PDT 2019)
(GPL source distribution)
Java Runtime: OpenJDK Runtime Environment
JVM: OpenJDK 64-Bit Server VM
Java Version: 12.0.1+12
Operating System: Windows 10
OS Version: 10.0
Default Encoding: Cp1252
Language: en
Country: US
--></g></svg>