<?xml version="1.0" encoding="UTF-8" standalone="no"?><svg xmlns="http://www.w3.org/2000/svg" xmlns:xlink="http://www.w3.org/1999/xlink" contentScriptType="application/ecmascript" contentStyleType="text/css" height="266px" preserveAspectRatio="none" style="width:285px;height:266px;" version="1.1" viewBox="0 0 285 266" width="285px" zoomAndPan="magnify"><defs><filter height="300%" id="f18dvno11kioh6" width="300%" x="-1" y="-1"><feGaussianBlur result="blurOut" stdDeviation="2.0"/><feColorMatrix in="blurOut" result="blurOut2" type="matrix" values="0 0 0 0 0 0 0 0 0 0 0 0 0 0 0 0 0 0 .4 0"/><feOffset dx="4.0" dy="4.0" in="blurOut2" result="blurOut3"/><feBlend in="SourceGraphic" in2="blurOut3" mode="normal"/></filter></defs><g><rect fill="#ADD8E6" height="251.9219" style="stroke: #A80036; stroke-width: 1.0;" width="121" x="153" y="4"/><text fill="#000000" font-family="sans-serif" font-size="13" font-weight="bold" lengthAdjust="spacingAndGlyphs" textLength="111" x="156" y="17.4951">Data Orchestrator</text><line style="stroke: #A80036; stroke-width: 1.0; stroke-dasharray: 5.0,5.0;" x1="27" x2="27" y1="87.6094" y2="168.3125"/><line style="stroke: #A80036; stroke-width: 1.0; stroke-dasharray: 5.0,5.0;" x1="90" x2="90" y1="87.6094" y2="168.3125"/><line style="stroke: #A80036; stroke-width: 1.0; stroke-dasharray: 5.0,5.0;" x1="213" x2="213" y1="87.6094" y2="168.3125"/><text fill="#000000" font-family="sans-serif" font-size="14" lengthAdjust="spacingAndGlyphs" textLength="33" x="8" y="84.5332">Actor</text><ellipse cx="27.5" cy="13" fill="#FEFECE" filter="url(#f18dvno11kioh6)" rx="8" ry="8" style="stroke: #A80036; stroke-width: 2.0;"/><path d="M27.5,21 L27.5,48 M14.5,29 L40.5,29 M27.5,48 L14.5,63 M27.5,48 L40.5,63 " fill="none" filter="url(#f18dvno11kioh6)" style="stroke: #A80036; stroke-width: 2.0;"/><text fill="#000000" font-family="sans-serif" font-size="14" lengthAdjust="spacingAndGlyphs" textLength="33" x="8" y="181.8457">Actor</text><ellipse cx="27.5" cy="194.9219" fill="#FEFECE" filter="url(#f18dvno11kioh6)" rx="8" ry="8" style="stroke: #A80036; stroke-width: 2.0;"/><path d="M27.5,202.9219 L27.5,229.9219 M14.5,210.9219 L40.5,210.9219 M27.5,229.9219 L14.5,244.9219 M27.5,229.9219 L40.5,244.9219 " fill="none" filter="url(#f18dvno11kioh6)" style="stroke: #A80036; stroke-width: 2.0;"/><text fill="#000000" font-family="sans-serif" font-size="14" lengthAdjust="spacingAndGlyphs" textLength="60" x="57" y="84.5332">EventBus</text><ellipse cx="90" cy="54" fill="#FEFECE" filter="url(#f18dvno11kioh6)" rx="12" ry="12" style="stroke: #A80036; stroke-width: 2.0;"/><line style="stroke: #A80036; stroke-width: 2.0;" x1="78" x2="102" y1="68" y2="68"/><text fill="#000000" font-family="sans-serif" font-size="14" lengthAdjust="spacingAndGlyphs" textLength="60" x="57" y="181.8457">EventBus</text><ellipse cx="90" cy="200.9219" fill="#FEFECE" filter="url(#f18dvno11kioh6)" rx="12" ry="12" style="stroke: #A80036; stroke-width: 2.0;"/><line style="stroke: #A80036; stroke-width: 2.0;" x1="78" x2="102" y1="214.9219" y2="214.9219"/><text fill="#000000" font-family="sans-serif" font-size="14" lengthAdjust="spacingAndGlyphs" textLength="16" x="202.5" y="84.5332">do</text><path d="M193,42 L193,66 M193,54 L210,54 " fill="none" filter="url(#f18dvno11kioh6)" style="stroke: #A80036; stroke-width: 2.0;"/><ellipse cx="222" cy="54" fill="#FFFFFF" filter="url(#f18dvno11kioh6)" rx="12" ry="12" style="stroke: #A80036; stroke-width: 2.0;"/><text fill="#000000" font-family="sans-serif" font-size="14" lengthAdjust="spacingAndGlyphs" textLength="16" x="202.5" y="181.8457">do</text><path d="M193,188.9219 L193,212.9219 M193,200.9219 L210,200.9219 " fill="none" filter="url(#f18dvno11kioh6)" style="stroke: #A80036; stroke-width: 2.0;"/><ellipse cx="222" cy="200.9219" fill="#FFFFFF" filter="url(#f18dvno11kioh6)" rx="12" ry="12" style="stroke: #A80036; stroke-width: 2.0;"/><polygon fill="#A80036" points="201.5,115.9609,211.5,119.9609,201.5,123.9609,205.5,119.9609" style="stroke: #A80036; stroke-width: 1.0;"/><line style="stroke: #A80036; stroke-width: 1.0;" x1="27.5" x2="207.5" y1="119.9609" y2="119.9609"/><text fill="#000000" font-family="sans-serif" font-size="13" lengthAdjust="spacingAndGlyphs" textLength="130" x="34.5" y="115.1045">Remove Data Instance</text><polygon fill="#A80036" points="201.5,151.3125,211.5,151.3125,201.5,155.3125" style="stroke: #A80036; stroke-width: 1.0;"/><line style="stroke: #A80036; stroke-width: 1.0; stroke-dasharray: 2.0,2.0;" x1="90" x2="212.5" y1="150.3125" y2="150.3125"/><text fill="#000000" font-family="sans-serif" font-size="13" lengthAdjust="spacingAndGlyphs" textLength="58" x="97" y="145.4561">method2()</text><!--
@startuml

actor "Actor"


entity EventBus

box Data Orchestrator #lightblue
    boundary do #white
end box



"Actor" -> do: Remove Data Instance




EventBus - -/ do : method2()
@enduml

PlantUML version 1.2019.05(Sat Apr 20 09:45:36 PDT 2019)
(GPL source distribution)
Java Runtime: OpenJDK Runtime Environment
JVM: OpenJDK 64-Bit Server VM
Java Version: 12.0.1+12
Operating System: Windows 10
OS Version: 10.0
Default Encoding: Cp1252
Language: en
Country: US
--></g></svg>