<?xml version="1.0" encoding="UTF-8" standalone="no"?><svg xmlns="http://www.w3.org/2000/svg" xmlns:xlink="http://www.w3.org/1999/xlink" contentScriptType="application/ecmascript" contentStyleType="text/css" height="309px" preserveAspectRatio="none" style="width:1195px;height:309px;" version="1.1" viewBox="0 0 1195 309" width="1195px" zoomAndPan="magnify"><defs><filter height="300%" id="fwm4jrgwszge7" width="300%" x="-1" y="-1"><feGaussianBlur result="blurOut" stdDeviation="2.0"/><feColorMatrix in="blurOut" result="blurOut2" type="matrix" values="0 0 0 0 0 0 0 0 0 0 0 0 0 0 0 0 0 0 .4 0"/><feOffset dx="4.0" dy="4.0" in="blurOut2" result="blurOut3"/><feBlend in="SourceGraphic" in2="blurOut3" mode="normal"/></filter></defs><g><ellipse cx="565.169" cy="172.0338" fill="#FEFECE" filter="url(#fwm4jrgwszge7)" rx="83.169" ry="19.0338" style="stroke: #A80036; stroke-width: 1.5;"/><text fill="#000000" font-family="sans-serif" font-size="14" lengthAdjust="spacingAndGlyphs" textLength="134" x="498.169" y="177.3385">Manage Environment</text><!--entity ITOperations--><ellipse cx="500" cy="18" fill="#FEFECE" filter="url(#fwm4jrgwszge7)" rx="8" ry="8" style="stroke: #A80036; stroke-width: 2.0;"/><path d="M500,26 L500,53 M487,34 L513,34 M500,53 L487,68 M500,53 L513,68 " fill="none" filter="url(#fwm4jrgwszge7)" style="stroke: #A80036; stroke-width: 2.0;"/><text fill="#000000" font-family="sans-serif" font-size="14" lengthAdjust="spacingAndGlyphs" textLength="86" x="457" y="89.5332">IT Operations</text><!--entity StackDeveloper--><ellipse cx="630" cy="18" fill="#FEFECE" filter="url(#fwm4jrgwszge7)" rx="8" ry="8" style="stroke: #A80036; stroke-width: 2.0;"/><path d="M630,26 L630,53 M617,34 L643,34 M630,53 L617,68 M630,53 L643,68 " fill="none" filter="url(#fwm4jrgwszge7)" style="stroke: #A80036; stroke-width: 2.0;"/><text fill="#000000" font-family="sans-serif" font-size="14" lengthAdjust="spacingAndGlyphs" textLength="104" x="578" y="89.5332">Stack Developer</text><ellipse cx="84.2267" cy="275.0453" fill="#D3D3D3" filter="url(#fwm4jrgwszge7)" rx="78.2267" ry="18.0453" style="stroke: #A80036; stroke-width: 1.5;"/><text fill="#000000" font-family="sans-serif" font-size="14" lengthAdjust="spacingAndGlyphs" textLength="122" x="23.2267" y="280.35">CreateEnvironment</text><ellipse cx="274.9182" cy="274.8836" fill="#D3D3D3" filter="url(#fwm4jrgwszge7)" rx="77.4182" ry="17.8836" style="stroke: #A80036; stroke-width: 1.5;"/><text fill="#000000" font-family="sans-serif" font-size="14" lengthAdjust="spacingAndGlyphs" textLength="120" x="214.9182" y="280.1883">DeleteEnvironment</text><ellipse cx="467.8574" cy="274.8715" fill="#D3D3D3" filter="url(#fwm4jrgwszge7)" rx="79.8574" ry="18.3715" style="stroke: #A80036; stroke-width: 1.5;"/><text fill="#000000" font-family="sans-serif" font-size="14" lengthAdjust="spacingAndGlyphs" textLength="126" x="404.8574" y="280.1762">DisableEnvironment</text><ellipse cx="662.1328" cy="275.1266" fill="#D3D3D3" filter="url(#fwm4jrgwszge7)" rx="78.6328" ry="18.1266" style="stroke: #A80036; stroke-width: 1.5;"/><text fill="#000000" font-family="sans-serif" font-size="14" lengthAdjust="spacingAndGlyphs" textLength="123" x="600.6328" y="280.4312">EnableEnvironment</text><ellipse cx="882.7512" cy="274.8502" fill="#D3D3D3" filter="url(#fwm4jrgwszge7)" rx="107.2512" ry="23.8502" style="stroke: #A80036; stroke-width: 1.5;"/><text fill="#000000" font-family="sans-serif" font-size="14" lengthAdjust="spacingAndGlyphs" textLength="189" x="788.2512" y="280.1549">ManagePoliciesinEnvironment</text><ellipse cx="1105.0399" cy="275.208" fill="#D3D3D3" filter="url(#fwm4jrgwszge7)" rx="79.0399" ry="18.208" style="stroke: #A80036; stroke-width: 1.5;"/><text fill="#000000" font-family="sans-serif" font-size="14" lengthAdjust="spacingAndGlyphs" textLength="124" x="1043.0399" y="280.5127">UpdateEnvironment</text><!--link ITOperations to ManageEnvironment--><path d="M522.734,93.295 C532.82,111.838 544.289,132.924 552.733,148.447 " fill="none" id="ITOperations-ManageEnvironment" style="stroke: #A80036; stroke-width: 1.0;"/><polygon fill="#A80036" points="555.251,153.077,554.4646,143.2596,552.8619,148.6847,547.4369,147.0821,555.251,153.077" style="stroke: #A80036; stroke-width: 1.0;"/><!--link StackDeveloper to ManageEnvironment--><path d="M607.266,93.295 C597.18,111.838 585.711,132.924 577.267,148.447 " fill="none" id="StackDeveloper-ManageEnvironment" style="stroke: #A80036; stroke-width: 1.0;"/><polygon fill="#A80036" points="574.749,153.077,582.5631,147.0821,577.1381,148.6847,575.5354,143.2596,574.749,153.077" style="stroke: #A80036; stroke-width: 1.0;"/><!--link ManageEnvironment to CreateEnvironment--><path d="M503.514,184.763 C427.398,199.485 293.871,225.8324 180,251 C167.147,253.8407 153.365,257.0472 140.369,260.1442 " fill="none" id="ManageEnvironment-CreateEnvironment" style="stroke: #A80036; stroke-width: 1.0;"/><polygon fill="#A80036" points="135.239,261.3706,144.9225,263.1678,140.1019,260.2078,143.062,255.3872,135.239,261.3706" style="stroke: #A80036; stroke-width: 1.0;"/><!--link ManageEnvironment to DeleteEnvironment--><path d="M521.27,188.23 C467.358,207.0063 376.141,238.7751 321.143,257.9296 " fill="none" id="ManageEnvironment-DeleteEnvironment" style="stroke: #A80036; stroke-width: 1.0;"/><polygon fill="#A80036" points="316.264,259.6287,326.0791,260.4438,320.9855,257.9831,323.4462,252.8895,316.264,259.6287" style="stroke: #A80036; stroke-width: 1.0;"/><!--link ManageEnvironment to DisableEnvironment--><path d="M547.658,191.057 C531.041,208.3591 505.962,234.4729 488.394,252.7649 " fill="none" id="ManageEnvironment-DisableEnvironment" style="stroke: #A80036; stroke-width: 1.0;"/><polygon fill="#A80036" points="484.544,256.7737,493.6626,253.0521,488.007,253.167,487.892,247.5114,484.544,256.7737" style="stroke: #A80036; stroke-width: 1.0;"/><!--link ManageEnvironment to EnableEnvironment--><path d="M582.342,191.057 C599.06,208.4646 624.345,234.7917 641.926,253.0986 " fill="none" id="ManageEnvironment-EnableEnvironment" style="stroke: #A80036; stroke-width: 1.0;"/><polygon fill="#A80036" points="645.776,257.1073,642.4262,247.8456,642.3123,253.5013,636.6566,253.3875,645.776,257.1073" style="stroke: #A80036; stroke-width: 1.0;"/><!--link ManageEnvironment to ManagePoliciesinEnvironment--><path d="M611.58,187.794 C666.115,205.115 756.772,233.9089 818.16,253.4061 " fill="none" id="ManageEnvironment-ManagePoliciesinEnvironment" style="stroke: #A80036; stroke-width: 1.0;"/><polygon fill="#A80036" points="823.266,255.0279,815.8982,248.4922,818.5004,253.515,813.4776,256.1171,823.266,255.0279" style="stroke: #A80036; stroke-width: 1.0;"/><!--link ManageEnvironment to UpdateEnvironment--><path d="M631.652,183.487 C718.544,197.444 875.115,223.5714 1008,251 C1021.28,253.742 1035.53,256.9609 1048.89,260.1076 " fill="none" id="ManageEnvironment-UpdateEnvironment" style="stroke: #A80036; stroke-width: 1.0;"/><polygon fill="#A80036" points="1053.78,261.2626,1045.9331,255.3107,1048.9125,260.1193,1044.1038,263.0987,1053.78,261.2626" style="stroke: #A80036; stroke-width: 1.0;"/><!--
@startuml


usecase "Manage Environment" as ManageEnvironment

Actor "IT Operations" as ITOperations

ITOperations - -> ManageEnvironment

Actor "Stack Developer" as StackDeveloper

StackDeveloper - -> ManageEnvironment



usecase "CreateEnvironment" as CreateEnvironment #lightgrey

ManageEnvironment - -> CreateEnvironment

usecase "DeleteEnvironment" as DeleteEnvironment #lightgrey

ManageEnvironment - -> DeleteEnvironment

usecase "DisableEnvironment" as DisableEnvironment #lightgrey

ManageEnvironment - -> DisableEnvironment

usecase "EnableEnvironment" as EnableEnvironment #lightgrey

ManageEnvironment - -> EnableEnvironment

usecase "ManagePoliciesinEnvironment" as ManagePoliciesinEnvironment #lightgrey

ManageEnvironment - -> ManagePoliciesinEnvironment

usecase "UpdateEnvironment" as UpdateEnvironment #lightgrey

ManageEnvironment - -> UpdateEnvironment

@enduml

PlantUML version 1.2019.05(Sat Apr 20 09:45:36 PDT 2019)
(GPL source distribution)
Java Runtime: OpenJDK Runtime Environment
JVM: OpenJDK 64-Bit Server VM
Java Version: 12.0.1+12
Operating System: Windows 10
OS Version: 10.0
Default Encoding: Cp1252
Language: en
Country: US
--></g></svg>