<?xml version="1.0" encoding="UTF-8" standalone="no"?><svg xmlns="http://www.w3.org/2000/svg" xmlns:xlink="http://www.w3.org/1999/xlink" contentScriptType="application/ecmascript" contentStyleType="text/css" height="685px" preserveAspectRatio="none" style="width:472px;height:685px;" version="1.1" viewBox="0 0 472 685" width="472px" zoomAndPan="magnify"><defs><filter height="300%" id="f1plncg6d32hqs" width="300%" x="-1" y="-1"><feGaussianBlur result="blurOut" stdDeviation="2.0"/><feColorMatrix in="blurOut" result="blurOut2" type="matrix" values="0 0 0 0 0 0 0 0 0 0 0 0 0 0 0 0 0 0 .4 0"/><feOffset dx="4.0" dy="4.0" in="blurOut2" result="blurOut3"/><feBlend in="SourceGraphic" in2="blurOut3" mode="normal"/></filter></defs><g><!--cluster Common Physical Layer--><polygon fill="#D3D3D3" filter="url(#f1plncg6d32hqs)" points="45.5,84,215.5,84,222.5,107.6094,450.5,107.6094,450.5,673,45.5,673,45.5,84" style="stroke: #000000; stroke-width: 1.5;"/><line style="stroke: #000000; stroke-width: 1.5;" x1="45.5" x2="222.5" y1="107.6094" y2="107.6094"/><text fill="#000000" font-family="sans-serif" font-size="14" font-weight="bold" lengthAdjust="spacingAndGlyphs" textLength="164" x="49.5" y="100.5332">Common Physical Layer</text><!--cluster bin--><polygon fill="#FFFFFF" filter="url(#f1plncg6d32hqs)" points="91.5,128,119.5,128,126.5,151.6094,229.5,151.6094,229.5,218,91.5,218,91.5,128" style="stroke: #000000; stroke-width: 1.5;"/><line style="stroke: #000000; stroke-width: 1.5;" x1="91.5" x2="126.5" y1="151.6094" y2="151.6094"/><text fill="#000000" font-family="sans-serif" font-size="14" font-weight="bold" lengthAdjust="spacingAndGlyphs" textLength="22" x="95.5" y="144.5332">bin</text><!--cluster deploy--><polygon fill="#FFFFFF" filter="url(#f1plncg6d32hqs)" points="69.5,324,122.5,324,129.5,347.6094,426.5,347.6094,426.5,431,69.5,431,69.5,324" style="stroke: #000000; stroke-width: 1.5;"/><line style="stroke: #000000; stroke-width: 1.5;" x1="69.5" x2="129.5" y1="347.6094" y2="347.6094"/><text fill="#000000" font-family="sans-serif" font-size="14" font-weight="bold" lengthAdjust="spacingAndGlyphs" textLength="47" x="73.5" y="340.5332">deploy</text><!--cluster images--><polygon fill="#FFFFFF" filter="url(#f1plncg6d32hqs)" points="167.5,455,223.5,455,230.5,478.6094,354.5,478.6094,354.5,649,167.5,649,167.5,455" style="stroke: #000000; stroke-width: 1.5;"/><line style="stroke: #000000; stroke-width: 1.5;" x1="167.5" x2="230.5" y1="478.6094" y2="478.6094"/><text fill="#000000" font-family="sans-serif" font-size="14" font-weight="bold" lengthAdjust="spacingAndGlyphs" textLength="50" x="171.5" y="471.5332">images</text><!--entity REST--><rect fill="#FEFECE" filter="url(#f1plncg6d32hqs)" height="37.6094" style="stroke: #A80036; stroke-width: 1.5;" width="69" x="126" y="262"/><rect fill="#FEFECE" height="5" style="stroke: #A80036; stroke-width: 1.5;" width="10" x="121" y="267"/><rect fill="#FEFECE" height="5" style="stroke: #A80036; stroke-width: 1.5;" width="10" x="121" y="289.6094"/><text fill="#000000" font-family="sans-serif" font-size="14" lengthAdjust="spacingAndGlyphs" textLength="49" x="136" y="286.5332">express</text><!--entity socket--><rect fill="#FEFECE" filter="url(#f1plncg6d32hqs)" height="37.6094" style="stroke: #A80036; stroke-width: 1.5;" width="76" x="302.5" y="164"/><rect fill="#FEFECE" height="5" style="stroke: #A80036; stroke-width: 1.5;" width="10" x="297.5" y="169"/><rect fill="#FEFECE" height="5" style="stroke: #A80036; stroke-width: 1.5;" width="10" x="297.5" y="191.6094"/><text fill="#000000" font-family="sans-serif" font-size="14" lengthAdjust="spacingAndGlyphs" textLength="56" x="312.5" y="188.5332">socket.io</text><!--entity binName--><rect fill="#FEFECE" filter="url(#f1plncg6d32hqs)" height="37.6094" style="stroke: #A80036; stroke-width: 1.5;" width="106" x="107.5" y="164"/><rect fill="#FEFECE" height="5" style="stroke: #A80036; stroke-width: 1.5;" width="10" x="102.5" y="169"/><rect fill="#FEFECE" height="5" style="stroke: #A80036; stroke-width: 1.5;" width="10" x="102.5" y="191.6094"/><text fill="#000000" font-family="sans-serif" font-size="14" lengthAdjust="spacingAndGlyphs" textLength="86" x="117.5" y="188.5332">edgemere cpl</text><!--entity cpl_container--><polygon fill="#FEFECE" filter="url(#f1plncg6d32hqs)" points="85.5,360,85.5,415.2188,235.5,415.2188,235.5,370,225.5,360,85.5,360" style="stroke: #000000; stroke-width: 1.5;"/><path d="M225.5,360 L225.5,370 L235.5,370 " fill="#FEFECE" style="stroke: #000000; stroke-width: 1.5;"/><text fill="#000000" font-family="sans-serif" font-size="14" lengthAdjust="spacingAndGlyphs" textLength="90" x="95.5" y="384.5332">node server.js</text><text fill="#000000" font-family="sans-serif" font-size="14" lengthAdjust="spacingAndGlyphs" textLength="130" x="95.5" y="402.1426">docker-compose.yml</text><!--entity web_container--><polygon fill="#FEFECE" filter="url(#f1plncg6d32hqs)" points="271,368.5,271,406.1094,410,406.1094,410,378.5,400,368.5,271,368.5" style="stroke: #000000; stroke-width: 1.5;"/><path d="M400,368.5 L400,378.5 L410,378.5 " fill="#FEFECE" style="stroke: #000000; stroke-width: 1.5;"/><text fill="#000000" font-family="sans-serif" font-size="14" lengthAdjust="spacingAndGlyphs" textLength="119" x="281" y="393.0332">node web/server.js</text><!--entity cplimage--><rect fill="#FEFECE" filter="url(#f1plncg6d32hqs)" height="33.6094" style="stroke: #000000; stroke-width: 1.5;" width="34" x="187.5" y="496.5"/><rect fill="#FEFECE" height="33.6094" style="stroke: #000000; stroke-width: 1.5;" width="34" x="183.5" y="492.5"/><text fill="#000000" font-family="sans-serif" font-size="14" lengthAdjust="spacingAndGlyphs" textLength="18" x="191.5" y="515.0332">cpl</text><!--entity ailtireswarm--><rect fill="#FEFECE" filter="url(#f1plncg6d32hqs)" height="40.6094" style="stroke: #000000; stroke-width: 1.5;" width="108" x="183.5" y="592"/><polygon fill="#FEFECE" points="274.5,597,274.5,611,286.5,611,286.5,603,280.5,597,274.5,597" style="stroke: #000000; stroke-width: 1.5;"/><line style="stroke: #000000; stroke-width: 1.5;" x1="280.5" x2="280.5" y1="597" y2="603"/><line style="stroke: #000000; stroke-width: 1.5;" x1="286.5" x2="280.5" y1="603" y2="603"/><text fill="#000000" font-family="sans-serif" font-size="14" lengthAdjust="spacingAndGlyphs" textLength="78" x="193.5" y="619.5332">ailtire:swarm</text><!--entity cpl_web--><rect fill="#FEFECE" filter="url(#f1plncg6d32hqs)" height="40.6094" style="stroke: #000000; stroke-width: 1.5;" width="81" x="257" y="491"/><polygon fill="#FEFECE" points="321,496,321,510,333,510,333,502,327,496,321,496" style="stroke: #000000; stroke-width: 1.5;"/><line style="stroke: #000000; stroke-width: 1.5;" x1="327" x2="327" y1="496" y2="502"/><line style="stroke: #000000; stroke-width: 1.5;" x1="333" x2="327" y1="502" y2="502"/><text fill="#000000" font-family="sans-serif" font-size="14" lengthAdjust="spacingAndGlyphs" textLength="51" x="267" y="518.5332">cpl_web</text><!--entity CLI--><ellipse cx="160.5" cy="38" fill="#FEFECE" filter="url(#f1plncg6d32hqs)" rx="8" ry="8" style="stroke: #A80036; stroke-width: 2.0;"/><text fill="#000000" font-family="sans-serif" font-size="14" lengthAdjust="spacingAndGlyphs" textLength="21" x="150" y="69.5332">CLI</text><!--entity Web--><ellipse cx="20.5" cy="281" fill="#FEFECE" filter="url(#f1plncg6d32hqs)" rx="8" ry="8" style="stroke: #A80036; stroke-width: 2.0;"/><text fill="#000000" font-family="sans-serif" font-size="14" lengthAdjust="spacingAndGlyphs" textLength="29" x="6" y="312.5332">Web</text><!--entity WebSocket--><ellipse cx="340.5" cy="38" fill="#FEFECE" filter="url(#f1plncg6d32hqs)" rx="8" ry="8" style="stroke: #A80036; stroke-width: 2.0;"/><text fill="#000000" font-family="sans-serif" font-size="14" lengthAdjust="spacingAndGlyphs" textLength="72" x="304.5" y="69.5332">WebSocket</text><!--link binName to REST--><path d="M160.5,202.057 C160.5,217.513 160.5,239.865 160.5,256.673 " fill="none" id="binName-REST" style="stroke: #A80036; stroke-width: 1.0;"/><polygon fill="#A80036" points="160.5,261.698,164.5,252.698,160.5,256.698,156.5,252.698,160.5,261.698" style="stroke: #A80036; stroke-width: 1.0;"/><!--link REST to cpl_container--><path d="M160.5,300.203 C160.5,315.147 160.5,336.673 160.5,354.487 " fill="none" id="REST-cpl_container" style="stroke: #A80036; stroke-width: 1.0;"/><polygon fill="#A80036" points="160.5,359.885,164.5,350.885,160.5,354.885,156.5,350.885,160.5,359.885" style="stroke: #A80036; stroke-width: 1.0;"/><!--link REST to web_container--><path d="M195.271,291.692 C213.279,297.45 235.255,305.656 253.5,316 C277.198,329.435 301.019,349.285 317.728,364.502 " fill="none" id="REST-web_container" style="stroke: #A80036; stroke-width: 1.0;"/><polygon fill="#A80036" points="321.819,368.264,317.9021,359.2275,318.1387,364.8794,312.4868,365.116,321.819,368.264" style="stroke: #A80036; stroke-width: 1.0;"/><!--link socket to web_container--><path d="M340.5,202.328 C340.5,239.225 340.5,322.407 340.5,363.138 " fill="none" id="socket-web_container" style="stroke: #A80036; stroke-width: 1.0;"/><polygon fill="#A80036" points="340.5,368.36,344.5,359.36,340.5,363.36,336.5,359.36,340.5,368.36" style="stroke: #A80036; stroke-width: 1.0;"/><!--link cplimage to ailtireswarm--><path d="M215.723,549.901 C220.755,564.136 226.29,579.793 230.521,591.7594 " fill="none" id="cplimage-ailtireswarm" style="stroke: #A80036; stroke-width: 1.0;"/><polygon fill="none" points="208.986,551.848,208.92,530.658,222.186,547.181,208.986,551.848" style="stroke: #A80036; stroke-width: 1.0;"/><!--link cpl_container to cplimage--><path d="M169.717,415.273 C177.184,436.962 187.589,467.186 194.659,487.725 " fill="none" id="cpl_container-cplimage" style="stroke: #A80036; stroke-width: 1.0;"/><polygon fill="#A80036" points="196.293,492.469,197.1442,482.657,194.6648,487.7415,189.5803,485.2621,196.293,492.469" style="stroke: #A80036; stroke-width: 1.0;"/><!--link web_container to cpl_web--><path d="M334.155,406.502 C326.74,427.541 314.43,462.465 306.145,485.972 " fill="none" id="web_container-cpl_web" style="stroke: #A80036; stroke-width: 1.0;"/><polygon fill="#A80036" points="304.442,490.805,311.2054,483.6456,306.1035,486.0891,303.66,480.9872,304.442,490.805" style="stroke: #A80036; stroke-width: 1.0;"/><!--link CLI to binName--><path d="M160.5,47.098 C160.5,69.432 160.5,132.318 160.5,163.705 " fill="none" id="CLI-binName" style="stroke: #A80036; stroke-width: 1.0;"/><text fill="#000000" font-family="sans-serif" font-size="13" lengthAdjust="spacingAndGlyphs" textLength="78" x="65.5875" y="45.1186">edgemere cpl</text><!--link Web to REST--><path d="M29.5234,281 C61.6707,281 93.8179,281 125.965,281 " fill="none" id="Web-REST" style="stroke: #A80036; stroke-width: 1.0;"/><text fill="#000000" font-family="sans-serif" font-size="13" lengthAdjust="spacingAndGlyphs" textLength="82" x="37.4959" y="277.2481">/edgemere/cpl</text><!--link WebSocket to socket--><path d="M340.5,47.098 C340.5,69.432 340.5,132.318 340.5,163.705 " fill="none" id="WebSocket-socket" style="stroke: #A80036; stroke-width: 1.0;"/><text fill="#000000" font-family="sans-serif" font-size="13" lengthAdjust="spacingAndGlyphs" textLength="82" x="241.5875" y="45.1186">.edgemere.cpl</text><!--
@startuml
  interface CLI
  interface Web
  interface WebSocket
package "Common Physical Layer" #lightgray {
  component express as REST
  component socket.io as socket
  folder bin #ffffff {
    component " edgemere cpl" as binName
  }
  binName - -> REST

  folder deploy #ffffff {
      file "node server.js\ndocker-compose.yml" as cpl_container
      REST - -> cpl_container

  
    file "node web/server.js" as web_container
    REST - -> web_container
    socket - - -> web_container
  
  }
  folder images #ffffff {
    collections "cpl" as cplimage
    artifact "ailtire:swarm" as ailtireswarm
    cplimage <|- - ailtireswarm
    cpl_container - -> cplimage

  
      artifact cpl_web
      web_container - -> cpl_web
    
  }
}
CLI " edgemere cpl" - - binName
Web "/edgemere/cpl" - REST
WebSocket ".edgemere.cpl" - - socket

@enduml

PlantUML version 1.2019.05(Sat Apr 20 09:45:36 PDT 2019)
(GPL source distribution)
Java Runtime: OpenJDK Runtime Environment
JVM: OpenJDK 64-Bit Server VM
Java Version: 12.0.1+12
Operating System: Windows 10
OS Version: 10.0
Default Encoding: Cp1252
Language: en
Country: US
--></g></svg>