<?xml version="1.0" encoding="UTF-8" standalone="no"?><svg xmlns="http://www.w3.org/2000/svg" xmlns:xlink="http://www.w3.org/1999/xlink" contentScriptType="application/ecmascript" contentStyleType="text/css" height="182px" preserveAspectRatio="none" style="width:260px;height:182px;" version="1.1" viewBox="0 0 260 182" width="260px" zoomAndPan="magnify"><defs><filter height="300%" id="f1ck9jhdupy2dc" width="300%" x="-1" y="-1"><feGaussianBlur result="blurOut" stdDeviation="2.0"/><feColorMatrix in="blurOut" result="blurOut2" type="matrix" values="0 0 0 0 0 0 0 0 0 0 0 0 0 0 0 0 0 0 .4 0"/><feOffset dx="4.0" dy="4.0" in="blurOut2" result="blurOut3"/><feBlend in="SourceGraphic" in2="blurOut3" mode="normal"/></filter></defs><g><!--cluster Device Manager--><polygon fill="#D3D3D3" filter="url(#f1ck9jhdupy2dc)" points="22,42,143,42,150,65.6094,238,65.6094,238,170,22,170,22,42" style="stroke: #000000; stroke-width: 1.5;"/><line style="stroke: #000000; stroke-width: 1.5;" x1="22" x2="150" y1="65.6094" y2="65.6094"/><text fill="#000000" font-family="sans-serif" font-size="14" font-weight="bold" lengthAdjust="spacingAndGlyphs" textLength="115" x="26" y="58.5332">Device Manager</text><!--class i--><rect fill="#FEFECE" filter="url(#f1ck9jhdupy2dc)" height="75.6719" id="i" style="stroke: #A80036; stroke-width: 1.5;" width="184" x="38" y="78"/><ellipse cx="81.35" cy="94" fill="#B4A7E5" rx="11" ry="11" style="stroke: #A80036; stroke-width: 1.0;"/><path d="M82.3031,90.6406 L82.3031,97.2969 L84.0219,97.2969 Q84.6313,97.2969 84.8969,97.5313 Q85.1625,97.7656 85.1625,98.1563 Q85.1625,98.5313 84.8969,98.7656 Q84.6313,99 84.0219,99 L78.8813,99 Q78.2719,99 78.0063,98.7656 Q77.7406,98.5313 77.7406,98.1406 Q77.7406,97.7656 78.0063,97.5313 Q78.2719,97.2969 78.8813,97.2969 L80.6,97.2969 L80.6,90.6406 L78.8813,90.6406 Q78.2719,90.6406 78.0063,90.4063 Q77.7406,90.1719 77.7406,89.7813 Q77.7406,89.4063 78.0063,89.1719 Q78.2719,88.9375 78.8813,88.9375 L84.0219,88.9375 Q84.6313,88.9375 84.8969,89.1719 Q85.1625,89.4063 85.1625,89.7813 Q85.1625,90.1719 84.8969,90.4063 Q84.6313,90.6406 84.0219,90.6406 L82.3031,90.6406 Z "/><text fill="#000000" font-family="sans-serif" font-size="12" font-style="italic" lengthAdjust="spacingAndGlyphs" textLength="89" x="101.65" y="98.9102">Device Manager</text><line style="stroke: #A80036; stroke-width: 1.5;" x1="39" x2="221" y1="110" y2="110"/><line style="stroke: #A80036; stroke-width: 1.5;" x1="39" x2="221" y1="118" y2="118"/><text fill="#000000" font-family="sans-serif" font-size="11" lengthAdjust="spacingAndGlyphs" textLength="163" x="44" y="133.4189">/edgemere/cpl/dm/agent/register()</text><text fill="#000000" font-family="sans-serif" font-size="11" lengthAdjust="spacingAndGlyphs" textLength="172" x="44" y="147.2549">/edgemere/cpl/dm/service/register()</text><ellipse cx="85" cy="13" fill="#FEFECE" filter="url(#f1ck9jhdupy2dc)" rx="5" ry="5" style="stroke: #A80036; stroke-width: 1.5;"/><text fill="#000000" font-family="sans-serif" font-size="12" lengthAdjust="spacingAndGlyphs" textLength="19" x="75.5" y="30.457">CLI</text><ellipse cx="130" cy="13" fill="#FEFECE" filter="url(#f1ck9jhdupy2dc)" rx="5" ry="5" style="stroke: #A80036; stroke-width: 1.5;"/><text fill="#000000" font-family="sans-serif" font-size="12" lengthAdjust="spacingAndGlyphs" textLength="32" x="114" y="30.457">REST</text><ellipse cx="175" cy="13" fill="#FEFECE" filter="url(#f1ck9jhdupy2dc)" rx="5" ry="5" style="stroke: #A80036; stroke-width: 1.5;"/><text fill="#000000" font-family="sans-serif" font-size="12" lengthAdjust="spacingAndGlyphs" textLength="25" x="162.5" y="30.457">Web</text><!--link ilol1831 to i--><path d="M86.7091,17.836 C91.108,27.709 103.1969,54.842 113.485,77.934 " fill="none" id="ilol1831-i" style="stroke: #A80036; stroke-width: 1.0;"/><!--link ilol1834 to i--><path d="M130,18.34 C130,28.61 130,55.248 130,77.965 " fill="none" id="ilol1834-i" style="stroke: #A80036; stroke-width: 1.0;"/><!--link ilol1837 to i--><path d="M173.291,17.836 C168.892,27.709 156.803,54.842 146.515,77.934 " fill="none" id="ilol1837-i" style="stroke: #A80036; stroke-width: 1.0;"/><!--
@startuml



package "Device Manager" #lightgray {

    interface "Device Manager" as i {
            /edgemere/cpl/dm/agent/register()
            /edgemere/cpl/dm/service/register()
    
    }
}

CLI ()- - i
REST ()- - i
Web ()- - i

package "Device Manager" #lightgray {


}



@enduml

PlantUML version 1.2019.05(Sat Apr 20 09:45:36 PDT 2019)
(GPL source distribution)
Java Runtime: OpenJDK Runtime Environment
JVM: OpenJDK 64-Bit Server VM
Java Version: 12.0.1+12
Operating System: Windows 10
OS Version: 10.0
Default Encoding: Cp1252
Language: en
Country: US
--></g></svg>