<?xml version="1.0" encoding="UTF-8" standalone="no"?><svg xmlns="http://www.w3.org/2000/svg" xmlns:xlink="http://www.w3.org/1999/xlink" contentScriptType="application/ecmascript" contentStyleType="text/css" height="326px" preserveAspectRatio="none" style="width:281px;height:326px;" version="1.1" viewBox="0 0 281 326" width="281px" zoomAndPan="magnify"><defs><filter height="300%" id="f90dzrram4e3c" width="300%" x="-1" y="-1"><feGaussianBlur result="blurOut" stdDeviation="2.0"/><feColorMatrix in="blurOut" result="blurOut2" type="matrix" values="0 0 0 0 0 0 0 0 0 0 0 0 0 0 0 0 0 0 .4 0"/><feOffset dx="4.0" dy="4.0" in="blurOut2" result="blurOut3"/><feBlend in="SourceGraphic" in2="blurOut3" mode="normal"/></filter></defs><g><!--entity DataAdaptor--><rect fill="#ADD8E6" filter="url(#f90dzrram4e3c)" height="37.6094" style="stroke: #000000; stroke-width: 1.5;" width="100" x="170.5" y="278"/><text fill="#000000" font-family="sans-serif" font-size="14" lengthAdjust="spacingAndGlyphs" textLength="80" x="180.5" y="302.5332">DataAdaptor</text><!--entity DataBluePrint--><rect fill="#90EE90" filter="url(#f90dzrram4e3c)" height="37.6094" style="stroke: #000000; stroke-width: 1.5;" width="107" x="6" y="278"/><text fill="#000000" font-family="sans-serif" font-size="14" lengthAdjust="spacingAndGlyphs" textLength="87" x="16" y="302.5332">DataBluePrint</text><!--entity DataFlowTemplate--><rect fill="#90EE90" filter="url(#f90dzrram4e3c)" height="37.6094" style="stroke: #000000; stroke-width: 1.5;" width="138" x="59.5" y="8"/><text fill="#000000" font-family="sans-serif" font-size="14" lengthAdjust="spacingAndGlyphs" textLength="118" x="69.5" y="32.5332">DataFlowTemplate</text><!--class Model--><rect fill="#FEFECE" filter="url(#f90dzrram4e3c)" height="75.6719" id="Model" style="stroke: #A80036; stroke-width: 1.5;" width="152" x="52.5" y="124"/><ellipse cx="67.5" cy="140" fill="#ADD1B2" rx="11" ry="11" style="stroke: #A80036; stroke-width: 1.0;"/><path d="M70.2656,135.875 Q70.4219,135.6563 70.6094,135.5469 Q70.7969,135.4375 71.0156,135.4375 Q71.3906,135.4375 71.625,135.7031 Q71.8594,135.9531 71.8594,136.5625 L71.8594,138.0156 Q71.8594,138.625 71.625,138.8906 Q71.3906,139.1563 71.0156,139.1563 Q70.6719,139.1563 70.4688,138.9531 Q70.2656,138.7656 70.1563,138.25 Q70.1094,137.8906 69.9219,137.7031 Q69.5938,137.3281 68.9844,137.1094 Q68.375,136.8906 67.75,136.8906 Q66.9844,136.8906 66.3438,137.2188 Q65.7188,137.5469 65.2188,138.2969 Q64.7344,139.0469 64.7344,140.0781 L64.7344,141.1719 Q64.7344,142.4063 65.625,143.2344 Q66.5156,144.0469 68.1094,144.0469 Q69.0469,144.0469 69.7031,143.7969 Q70.0938,143.6406 70.5156,143.2031 Q70.7813,142.9375 70.9219,142.8594 Q71.0781,142.7813 71.2813,142.7813 Q71.6094,142.7813 71.8594,143.0469 Q72.125,143.2969 72.125,143.6406 Q72.125,143.9844 71.7813,144.3906 Q71.2813,144.9688 70.4844,145.2969 Q69.4063,145.75 68.1094,145.75 Q66.5938,145.75 65.3906,145.125 Q64.4063,144.625 63.7188,143.5625 Q63.0313,142.4844 63.0313,141.2031 L63.0313,140.0469 Q63.0313,138.7188 63.6406,137.5781 Q64.2656,136.4219 65.3594,135.8125 Q66.4531,135.1875 67.6875,135.1875 Q68.4219,135.1875 69.0625,135.3594 Q69.7188,135.5156 70.2656,135.875 Z "/><text fill="#000000" font-family="sans-serif" font-size="12" lengthAdjust="spacingAndGlyphs" textLength="120" x="81.5" y="144.9102">DataAdaptorTemplate</text><line style="stroke: #A80036; stroke-width: 1.5;" x1="53.5" x2="203.5" y1="156" y2="156"/><text fill="#000000" font-family="sans-serif" font-size="11" lengthAdjust="spacingAndGlyphs" textLength="56" x="58.5" y="171.4189">string name</text><text fill="#000000" font-family="sans-serif" font-size="11" lengthAdjust="spacingAndGlyphs" textLength="45" x="58.5" y="185.2549">json args</text><line style="stroke: #A80036; stroke-width: 1.5;" x1="53.5" x2="203.5" y1="191.6719" y2="191.6719"/><!--link Model to DataAdaptor--><path d="M161.566,210.803 C174.518,229.5267 188.96,250.4034 200.305,266.8048 " fill="none" id="Model-DataAdaptor" style="stroke: #A80036; stroke-width: 1.0;"/><polygon fill="#A80036" points="207.953,277.8618,206.1227,268.1845,205.1086,273.7497,199.5433,272.7356,207.953,277.8618" style="stroke: #A80036; stroke-width: 1.0;"/><line style="stroke: #A80036; stroke-width: 1.0;" x1="205.1086" x2="200.558" y1="273.7497" y2="267.1704"/><polygon fill="#FFFFFF" points="154.127,200.048,154.2507,207.258,160.9537,209.9169,160.83,202.7069,154.127,200.048" style="stroke: #A80036; stroke-width: 1.0;"/><text fill="#000000" font-family="sans-serif" font-size="13" lengthAdjust="spacingAndGlyphs" textLength="43" x="186.5" y="244.4951">adaptor</text><text fill="#000000" font-family="sans-serif" font-size="13" lengthAdjust="spacingAndGlyphs" textLength="7" x="196.0386" y="267.1595">1</text><!--link Model to DataBluePrint--><path d="M49.3423,209.496 C43.4757,215.687 38.3553,222.5178 34.5,230 C28.5437,241.56 31.823,254.8788 37.704,266.5111 " fill="none" id="Model-DataBluePrint" style="stroke: #A80036; stroke-width: 1.0;"/><polygon fill="#A80036" points="44.4962,277.8784,43.3135,268.1008,41.9315,273.5863,36.4461,272.2043,44.4962,277.8784" style="stroke: #A80036; stroke-width: 1.0;"/><line style="stroke: #A80036; stroke-width: 1.0;" x1="41.9315" x2="37.8281" y1="273.5863" y2="266.7189"/><polygon fill="#FFFFFF" points="59.101,200.291,51.9916,201.498,50.3714,208.5247,57.4808,207.3177,59.101,200.291" style="stroke: #A80036; stroke-width: 1.0;"/><text fill="#000000" font-family="sans-serif" font-size="13" lengthAdjust="spacingAndGlyphs" textLength="49" x="35.5" y="244.4951">blueprint</text><text fill="#000000" font-family="sans-serif" font-size="13" lengthAdjust="spacingAndGlyphs" textLength="7" x="31.8294" y="267.1812">1</text><!--link DataBluePrint to Model--><path d="M78.7199,266.5704 C82.4408,260.5123 86.204,254.1147 89.5,248 C95.6179,236.6501 101.6932,224.1623 107.163,212.335 " fill="none" id="DataBluePrint-Model" style="stroke: #A80036; stroke-width: 1.0;"/><polygon fill="#A80036" points="112.622,200.324,105.2576,206.8635,110.5539,204.8762,112.5412,210.1725,112.622,200.324" style="stroke: #A80036; stroke-width: 1.0;"/><line style="stroke: #A80036; stroke-width: 1.0;" x1="110.5539" x2="107.2435" y1="204.8762" y2="212.159"/><polygon fill="#A80036" points="71.7503,277.638,78.3323,274.6923,78.1448,267.4837,71.5628,270.4293,71.7503,277.638" style="stroke: #A80036; stroke-width: 1.0;"/><text fill="#000000" font-family="sans-serif" font-size="13" lengthAdjust="spacingAndGlyphs" textLength="50" x="99.5" y="244.4951">adaptors</text><text fill="#000000" font-family="sans-serif" font-size="13" lengthAdjust="spacingAndGlyphs" textLength="7" x="102.5332" y="221.2562">n</text><!--link DataFlowTemplate to Model--><path d="M94.5127,55.784 C89.2041,61.847 84.4923,68.667 81.5,76 C78.4775,83.407 79.0911,86.371 81.5,94 C83.5075,100.357 86.3581,106.635 89.6752,112.649 " fill="none" id="DataFlowTemplate-Model" style="stroke: #A80036; stroke-width: 1.0;"/><polygon fill="#A80036" points="96.5303,123.84,95.2404,114.076,93.9187,119.5763,88.4184,118.2546,96.5303,123.84" style="stroke: #A80036; stroke-width: 1.0;"/><line style="stroke: #A80036; stroke-width: 1.0;" x1="93.9187" x2="89.7397" y1="119.5763" y2="112.7545"/><polygon fill="#FFFFFF" points="103.8119,46.337,96.7523,47.8073,95.3942,54.8893,102.4538,53.4191,103.8119,46.337" style="stroke: #A80036; stroke-width: 1.0;"/><text fill="#000000" font-family="sans-serif" font-size="13" lengthAdjust="spacingAndGlyphs" textLength="46" x="82.5" y="90.4951">sources</text><text fill="#000000" font-family="sans-serif" font-size="13" lengthAdjust="spacingAndGlyphs" textLength="7" x="83.2123" y="113.1734">n</text><!--link DataFlowTemplate to Model--><path d="M132.236,59.326 C132.763,64.873 133.22,70.601 133.5,76 C134.084,87.247 133.878,99.328 133.3,110.751 " fill="none" id="DataFlowTemplate-Model-1" style="stroke: #A80036; stroke-width: 1.0;"/><polygon fill="#A80036" points="132.475,123.768,137.0357,115.0387,132.7909,118.778,129.0517,114.5332,132.475,123.768" style="stroke: #A80036; stroke-width: 1.0;"/><line style="stroke: #A80036; stroke-width: 1.0;" x1="132.7909" x2="133.297" y1="118.778" y2="110.7945"/><polygon fill="#FFFFFF" points="130.845,46.2,127.4996,52.5881,132.1097,58.1332,135.4551,51.745,130.845,46.2" style="stroke: #A80036; stroke-width: 1.0;"/><text fill="#000000" font-family="sans-serif" font-size="13" lengthAdjust="spacingAndGlyphs" textLength="31" x="135.5" y="90.4951">sinks</text><text fill="#000000" font-family="sans-serif" font-size="13" lengthAdjust="spacingAndGlyphs" textLength="7" x="125.5596" y="113.0886">n</text><!--
@startuml

class "DataAdaptorTemplate" as Model {
 string name
 json args

 
}

rectangle "DataAdaptor" as DataAdaptor #lightblue {
}

Model o- -> "1" DataAdaptor : adaptor


rectangle "DataBluePrint" as DataBluePrint #lightblue {
}

Model o- -> "1" DataBluePrint : blueprint




    rectangle "DataBluePrint" as DataBluePrint #lightgreen {
    }
    
        DataBluePrint   *- -> "n" Model : "adaptors"
    
    rectangle "DataFlowTemplate" as DataFlowTemplate #lightgreen {
    }
    
        DataFlowTemplate   o- -> "n" Model : "sources"
    
    rectangle "DataFlowTemplate" as DataFlowTemplate #lightgreen {
    }
    
        DataFlowTemplate   o- -> "n" Model : "sinks"
    

@enduml

PlantUML version 1.2019.05(Sat Apr 20 09:45:36 PDT 2019)
(GPL source distribution)
Java Runtime: OpenJDK Runtime Environment
JVM: OpenJDK 64-Bit Server VM
Java Version: 12.0.1+12
Operating System: Windows 10
OS Version: 10.0
Default Encoding: Cp1252
Language: en
Country: US
--></g></svg>