<?xml version="1.0" encoding="UTF-8" standalone="no"?><svg xmlns="http://www.w3.org/2000/svg" xmlns:xlink="http://www.w3.org/1999/xlink" contentScriptType="application/ecmascript" contentStyleType="text/css" height="312px" preserveAspectRatio="none" style="width:228px;height:312px;" version="1.1" viewBox="0 0 228 312" width="228px" zoomAndPan="magnify"><defs><filter height="300%" id="f1db82kdf7i6g9" width="300%" x="-1" y="-1"><feGaussianBlur result="blurOut" stdDeviation="2.0"/><feColorMatrix in="blurOut" result="blurOut2" type="matrix" values="0 0 0 0 0 0 0 0 0 0 0 0 0 0 0 0 0 0 .4 0"/><feOffset dx="4.0" dy="4.0" in="blurOut2" result="blurOut3"/><feBlend in="SourceGraphic" in2="blurOut3" mode="normal"/></filter></defs><g><!--entity Cloud--><rect fill="#ADD8E6" filter="url(#f1db82kdf7i6g9)" height="37.6094" style="stroke: #000000; stroke-width: 1.5;" width="57" x="6" y="264"/><text fill="#000000" font-family="sans-serif" font-size="14" lengthAdjust="spacingAndGlyphs" textLength="37" x="16" y="288.5332">Cloud</text><!--entity PolicyCollection--><rect fill="#ADD8E6" filter="url(#f1db82kdf7i6g9)" height="37.6094" style="stroke: #000000; stroke-width: 1.5;" width="119" x="98" y="264"/><text fill="#000000" font-family="sans-serif" font-size="14" lengthAdjust="spacingAndGlyphs" textLength="99" x="108" y="288.5332">PolicyCollection</text><!--entity Environment--><rect fill="#90EE90" filter="url(#f1db82kdf7i6g9)" height="37.6094" style="stroke: #000000; stroke-width: 1.5;" width="99" x="46" y="8"/><text fill="#000000" font-family="sans-serif" font-size="14" lengthAdjust="spacingAndGlyphs" textLength="79" x="56" y="32.5332">Environment</text><!--class Model--><rect fill="#FEFECE" filter="url(#f1db82kdf7i6g9)" height="61.8359" id="Model" style="stroke: #A80036; stroke-width: 1.5;" width="90" x="50.5" y="124"/><ellipse cx="65.5" cy="140" fill="#ADD1B2" rx="11" ry="11" style="stroke: #A80036; stroke-width: 1.0;"/><path d="M68.2656,135.875 Q68.4219,135.6563 68.6094,135.5469 Q68.7969,135.4375 69.0156,135.4375 Q69.3906,135.4375 69.625,135.7031 Q69.8594,135.9531 69.8594,136.5625 L69.8594,138.0156 Q69.8594,138.625 69.625,138.8906 Q69.3906,139.1563 69.0156,139.1563 Q68.6719,139.1563 68.4688,138.9531 Q68.2656,138.7656 68.1563,138.25 Q68.1094,137.8906 67.9219,137.7031 Q67.5938,137.3281 66.9844,137.1094 Q66.375,136.8906 65.75,136.8906 Q64.9844,136.8906 64.3438,137.2188 Q63.7188,137.5469 63.2188,138.2969 Q62.7344,139.0469 62.7344,140.0781 L62.7344,141.1719 Q62.7344,142.4063 63.625,143.2344 Q64.5156,144.0469 66.1094,144.0469 Q67.0469,144.0469 67.7031,143.7969 Q68.0938,143.6406 68.5156,143.2031 Q68.7813,142.9375 68.9219,142.8594 Q69.0781,142.7813 69.2813,142.7813 Q69.6094,142.7813 69.8594,143.0469 Q70.125,143.2969 70.125,143.6406 Q70.125,143.9844 69.7813,144.3906 Q69.2813,144.9688 68.4844,145.2969 Q67.4063,145.75 66.1094,145.75 Q64.5938,145.75 63.3906,145.125 Q62.4063,144.625 61.7188,143.5625 Q61.0313,142.4844 61.0313,141.2031 L61.0313,140.0469 Q61.0313,138.7188 61.6406,137.5781 Q62.2656,136.4219 63.3594,135.8125 Q64.4531,135.1875 65.6875,135.1875 Q66.4219,135.1875 67.0625,135.3594 Q67.7188,135.5156 68.2656,135.875 Z "/><text fill="#000000" font-family="sans-serif" font-size="12" lengthAdjust="spacingAndGlyphs" textLength="58" x="79.5" y="144.9102">MultiCloud</text><line style="stroke: #A80036; stroke-width: 1.5;" x1="51.5" x2="139.5" y1="156" y2="156"/><text fill="#000000" font-family="sans-serif" font-size="11" lengthAdjust="spacingAndGlyphs" textLength="56" x="56.5" y="171.4189">string name</text><line style="stroke: #A80036; stroke-width: 1.5;" x1="51.5" x2="139.5" y1="177.8359" y2="177.8359"/><!--link Model to Cloud--><path d="M75.1268,198.082 C66.6065,215.6816 56.8969,235.7376 49.1068,251.8286 " fill="none" id="Model-Cloud" style="stroke: #A80036; stroke-width: 1.0;"/><polygon fill="#A80036" points="43.3302,263.7606,50.8522,257.403,45.5089,259.2603,43.6517,253.917,43.3302,263.7606" style="stroke: #A80036; stroke-width: 1.0;"/><line style="stroke: #A80036; stroke-width: 1.0;" x1="45.5089" x2="48.995" y1="259.2603" y2="252.0597"/><polygon fill="#FFFFFF" points="80.889,186.18,74.674,189.837,75.6593,196.9805,81.8743,193.3235,80.889,186.18" style="stroke: #A80036; stroke-width: 1.0;"/><text fill="#000000" font-family="sans-serif" font-size="13" lengthAdjust="spacingAndGlyphs" textLength="38" x="66.5" y="230.4951">clouds</text><text fill="#000000" font-family="sans-serif" font-size="13" lengthAdjust="spacingAndGlyphs" textLength="7" x="37.9626" y="253.0273">n</text><!--link Model to PolicyCollection--><path d="M116.207,198.082 C124.867,215.6816 134.736,235.7376 142.654,251.8286 " fill="none" id="Model-PolicyCollection" style="stroke: #A80036; stroke-width: 1.0;"/><polygon fill="#A80036" points="148.525,263.7606,148.1404,253.9193,146.3174,259.2743,140.9623,257.4514,148.525,263.7606" style="stroke: #A80036; stroke-width: 1.0;"/><line style="stroke: #A80036; stroke-width: 1.0;" x1="146.3174" x2="142.7855" y1="259.2743" y2="252.0962"/><polygon fill="#FFFFFF" points="110.351,186.18,109.4105,193.3295,115.6484,196.9475,116.5888,189.7979,110.351,186.18" style="stroke: #A80036; stroke-width: 1.0;"/><text fill="#000000" font-family="sans-serif" font-size="13" lengthAdjust="spacingAndGlyphs" textLength="41" x="134.5" y="230.4951">polices</text><text fill="#000000" font-family="sans-serif" font-size="13" lengthAdjust="spacingAndGlyphs" textLength="7" x="137.7045" y="253.0273">1</text><!--link Environment to Model--><path d="M95.5,59.254 C95.5,74.813 95.5,93.869 95.5,110.801 " fill="none" id="Environment-Model" style="stroke: #A80036; stroke-width: 1.0;"/><polygon fill="#A80036" points="95.5,123.817,99.5,114.817,95.5,118.817,91.5,114.817,95.5,123.817" style="stroke: #A80036; stroke-width: 1.0;"/><line style="stroke: #A80036; stroke-width: 1.0;" x1="95.5" x2="95.5001" y1="118.817" y2="110.817"/><polygon fill="#FFFFFF" points="95.5,46.053,91.5,52.053,95.5,58.053,99.5,52.053,95.5,46.053" style="stroke: #A80036; stroke-width: 1.0;"/><text fill="#000000" font-family="sans-serif" font-size="13" lengthAdjust="spacingAndGlyphs" textLength="38" x="96.5" y="90.4951">clouds</text><text fill="#000000" font-family="sans-serif" font-size="13" lengthAdjust="spacingAndGlyphs" textLength="7" x="87.7781" y="113.2838">n</text><!--
@startuml

class "MultiCloud" as Model {
 string name

 
}

rectangle "Cloud" as Cloud #lightblue {
}

Model o- -> "n" Cloud : clouds


rectangle "PolicyCollection" as PolicyCollection #lightblue {
}

Model o- -> "1" PolicyCollection : polices




    rectangle "Environment" as Environment #lightgreen {
    }
    
        Environment   o- -> "n" Model : "clouds"
    

@enduml

PlantUML version 1.2019.05(Sat Apr 20 09:45:36 PDT 2019)
(GPL source distribution)
Java Runtime: OpenJDK Runtime Environment
JVM: OpenJDK 64-Bit Server VM
Java Version: 12.0.1+12
Operating System: Windows 10
OS Version: 10.0
Default Encoding: Cp1252
Language: en
Country: US
--></g></svg>