<?xml version="1.0" encoding="UTF-8" standalone="no"?><svg xmlns="http://www.w3.org/2000/svg" xmlns:xlink="http://www.w3.org/1999/xlink" contentScriptType="application/ecmascript" contentStyleType="text/css" height="326px" preserveAspectRatio="none" style="width:749px;height:326px;" version="1.1" viewBox="0 0 749 326" width="749px" zoomAndPan="magnify"><defs><filter height="300%" id="fa06368q9yo12" width="300%" x="-1" y="-1"><feGaussianBlur result="blurOut" stdDeviation="2.0"/><feColorMatrix in="blurOut" result="blurOut2" type="matrix" values="0 0 0 0 0 0 0 0 0 0 0 0 0 0 0 0 0 0 .4 0"/><feOffset dx="4.0" dy="4.0" in="blurOut2" result="blurOut3"/><feBlend in="SourceGraphic" in2="blurOut3" mode="normal"/></filter></defs><g><!--entity DataSource--><rect fill="#90EE90" filter="url(#fa06368q9yo12)" height="37.6094" style="stroke: #000000; stroke-width: 1.5;" width="95" x="240" y="8"/><text fill="#000000" font-family="sans-serif" font-size="14" lengthAdjust="spacingAndGlyphs" textLength="75" x="250" y="32.5332">DataSource</text><!--entity DataAdaptor--><rect fill="#ADD8E6" filter="url(#fa06368q9yo12)" height="37.6094" style="stroke: #000000; stroke-width: 1.5;" width="100" x="638.5" y="278"/><text fill="#000000" font-family="sans-serif" font-size="14" lengthAdjust="spacingAndGlyphs" textLength="80" x="648.5" y="302.5332">DataAdaptor</text><!--entity DataInstance--><rect fill="#90EE90" filter="url(#fa06368q9yo12)" height="37.6094" style="stroke: #000000; stroke-width: 1.5;" width="103" x="6" y="278"/><text fill="#000000" font-family="sans-serif" font-size="14" lengthAdjust="spacingAndGlyphs" textLength="83" x="16" y="302.5332">DataInstance</text><!--entity LineageMetaData--><rect fill="#90EE90" filter="url(#fa06368q9yo12)" height="37.6094" style="stroke: #000000; stroke-width: 1.5;" width="132" x="150.5" y="278"/><text fill="#000000" font-family="sans-serif" font-size="14" lengthAdjust="spacingAndGlyphs" textLength="112" x="160.5" y="302.5332">LineageMetaData</text><!--entity MetaData--><rect fill="#90EE90" filter="url(#fa06368q9yo12)" height="37.6094" style="stroke: #000000; stroke-width: 1.5;" width="81" x="331" y="278"/><text fill="#000000" font-family="sans-serif" font-size="14" lengthAdjust="spacingAndGlyphs" textLength="61" x="341" y="302.5332">MetaData</text><!--entity SourceMetaData--><rect fill="#90EE90" filter="url(#fa06368q9yo12)" height="37.6094" style="stroke: #000000; stroke-width: 1.5;" width="126" x="465.5" y="278"/><text fill="#000000" font-family="sans-serif" font-size="14" lengthAdjust="spacingAndGlyphs" textLength="106" x="475.5" y="302.5332">SourceMetaData</text><!--entity DataReservation--><rect fill="#90EE90" filter="url(#fa06368q9yo12)" height="37.6094" style="stroke: #000000; stroke-width: 1.5;" width="126" x="371.5" y="8"/><text fill="#000000" font-family="sans-serif" font-size="14" lengthAdjust="spacingAndGlyphs" textLength="106" x="381.5" y="32.5332">DataReservation</text><!--class Model--><rect fill="#FEFECE" filter="url(#fa06368q9yo12)" height="75.6719" id="Model" style="stroke: #A80036; stroke-width: 1.5;" width="78" x="314.5" y="124"/><ellipse cx="338.5" cy="140" fill="#ADD1B2" rx="11" ry="11" style="stroke: #A80036; stroke-width: 1.0;"/><path d="M341.2656,135.875 Q341.4219,135.6563 341.6094,135.5469 Q341.7969,135.4375 342.0156,135.4375 Q342.3906,135.4375 342.625,135.7031 Q342.8594,135.9531 342.8594,136.5625 L342.8594,138.0156 Q342.8594,138.625 342.625,138.8906 Q342.3906,139.1563 342.0156,139.1563 Q341.6719,139.1563 341.4688,138.9531 Q341.2656,138.7656 341.1563,138.25 Q341.1094,137.8906 340.9219,137.7031 Q340.5938,137.3281 339.9844,137.1094 Q339.375,136.8906 338.75,136.8906 Q337.9844,136.8906 337.3438,137.2188 Q336.7188,137.5469 336.2188,138.2969 Q335.7344,139.0469 335.7344,140.0781 L335.7344,141.1719 Q335.7344,142.4063 336.625,143.2344 Q337.5156,144.0469 339.1094,144.0469 Q340.0469,144.0469 340.7031,143.7969 Q341.0938,143.6406 341.5156,143.2031 Q341.7813,142.9375 341.9219,142.8594 Q342.0781,142.7813 342.2813,142.7813 Q342.6094,142.7813 342.8594,143.0469 Q343.125,143.2969 343.125,143.6406 Q343.125,143.9844 342.7813,144.3906 Q342.2813,144.9688 341.4844,145.2969 Q340.4063,145.75 339.1094,145.75 Q337.5938,145.75 336.3906,145.125 Q335.4063,144.625 334.7188,143.5625 Q334.0313,142.4844 334.0313,141.2031 L334.0313,140.0469 Q334.0313,138.7188 334.6406,137.5781 Q335.2656,136.4219 336.3594,135.8125 Q337.4531,135.1875 338.6875,135.1875 Q339.4219,135.1875 340.0625,135.3594 Q340.7188,135.5156 341.2656,135.875 Z "/><text fill="#000000" font-family="sans-serif" font-size="12" lengthAdjust="spacingAndGlyphs" textLength="26" x="354.5" y="144.9102">Data</text><line style="stroke: #A80036; stroke-width: 1.5;" x1="315.5" x2="391.5" y1="156" y2="156"/><text fill="#000000" font-family="sans-serif" font-size="11" lengthAdjust="spacingAndGlyphs" textLength="56" x="320.5" y="171.4189">string name</text><text fill="#000000" font-family="sans-serif" font-size="11" lengthAdjust="spacingAndGlyphs" textLength="66" x="320.5" y="185.2549">string access</text><line style="stroke: #A80036; stroke-width: 1.5;" x1="315.5" x2="391.5" y1="191.6719" y2="191.6719"/><!--link Model to DataSource--><path d="M331.787,111.863 C326.329,100.028 320.354,87.488 314.5,76 C311.459,70.031 308.06,63.735 304.726,57.736 " fill="none" id="Model-DataSource" style="stroke: #A80036; stroke-width: 1.0;"/><polygon fill="#A80036" points="298.113,46.043,299.062,55.846,300.5745,50.3951,306.0254,51.9076,298.113,46.043" style="stroke: #A80036; stroke-width: 1.0;"/><line style="stroke: #A80036; stroke-width: 1.0;" x1="300.5745" x2="304.5135" y1="50.3951" y2="57.359"/><polygon fill="#FFFFFF" points="337.26,123.866,338.4102,116.7472,332.2815,112.9475,331.1312,120.0663,337.26,123.866" style="stroke: #A80036; stroke-width: 1.0;"/><text fill="#000000" font-family="sans-serif" font-size="13" lengthAdjust="spacingAndGlyphs" textLength="39" x="323.5" y="90.4951">source</text><text fill="#000000" font-family="sans-serif" font-size="13" lengthAdjust="spacingAndGlyphs" textLength="7" x="293.1135" y="67.2483">1</text><!--link DataSource to Model--><path d="M277.209,58.734 C275.037,70.202 274.656,83.08 279.5,94 C285.092,106.606 294.356,117.848 304.471,127.357 " fill="none" id="DataSource-Model" style="stroke: #A80036; stroke-width: 1.0;"/><polygon fill="#A80036" points="314.336,135.93,310.1663,127.0074,310.5619,132.6504,304.9189,133.046,314.336,135.93" style="stroke: #A80036; stroke-width: 1.0;"/><line style="stroke: #A80036; stroke-width: 1.0;" x1="310.5619" x2="304.5235" y1="132.6504" y2="127.4025"/><polygon fill="#A80036" points="280.376,46.121,275.0353,50.9663,277.4538,57.7598,282.7945,52.9145,280.376,46.121" style="stroke: #A80036; stroke-width: 1.0;"/><text fill="#000000" font-family="sans-serif" font-size="13" lengthAdjust="spacingAndGlyphs" textLength="25" x="280.5" y="90.4951">data</text><text fill="#000000" font-family="sans-serif" font-size="13" lengthAdjust="spacingAndGlyphs" textLength="7" x="299.4698" y="127.2061">n</text><!--link Model to DataAdaptor--><path d="M405.51,173.64 C453.328,184.449 525.53,203.39 584.5,230 C608.778,240.9554 634.051,256.874 653.603,270.3328 " fill="none" id="Model-DataAdaptor" style="stroke: #A80036; stroke-width: 1.0;"/><polygon fill="#A80036" points="664.403,277.9168,659.3366,269.471,660.3112,275.0433,654.7389,276.0179,664.403,277.9168" style="stroke: #A80036; stroke-width: 1.0;"/><line style="stroke: #A80036; stroke-width: 1.0;" x1="660.3112" x2="653.764" y1="275.0433" y2="270.446"/><polygon fill="#FFFFFF" points="392.701,170.808,397.6962,176.0087,404.4182,173.398,399.4229,168.1973,392.701,170.808" style="stroke: #A80036; stroke-width: 1.0;"/><text fill="#000000" font-family="sans-serif" font-size="13" lengthAdjust="spacingAndGlyphs" textLength="43" x="618.5" y="244.4951">adaptor</text><text fill="#000000" font-family="sans-serif" font-size="13" lengthAdjust="spacingAndGlyphs" textLength="7" x="648.9514" y="267.2313">1</text><!--link Model to DataInstance--><path d="M301.273,166.25 C219.807,172.53 68.3796,189.471 35.5,230 C27.1106,240.3411 30.0276,254.0163 36.0685,266.2358 " fill="none" id="Model-DataInstance" style="stroke: #A80036; stroke-width: 1.0;"/><polygon fill="#A80036" points="42.8476,277.7926,41.7442,268.0057,40.3178,273.4798,34.8438,272.0534,42.8476,277.7926" style="stroke: #A80036; stroke-width: 1.0;"/><line style="stroke: #A80036; stroke-width: 1.0;" x1="40.3178" x2="36.2701" y1="273.4798" y2="266.5794"/><polygon fill="#FFFFFF" points="314.435,165.281,308.1575,161.7323,302.4674,166.1619,308.7448,169.7107,314.435,165.281" style="stroke: #A80036; stroke-width: 1.0;"/><text fill="#000000" font-family="sans-serif" font-size="13" lengthAdjust="spacingAndGlyphs" textLength="56" x="36.5" y="244.4951">instances</text><text fill="#000000" font-family="sans-serif" font-size="13" lengthAdjust="spacingAndGlyphs" textLength="7" x="30.2884" y="267.0691">n</text><!--link DataInstance to Model--><path d="M93.4287,270.3055 C112.937,257.1091 137.845,241.4445 161.5,230 C207.284,207.849 262.341,189.411 301.736,177.522 " fill="none" id="DataInstance-Model" style="stroke: #A80036; stroke-width: 1.0;"/><polygon fill="#A80036" points="314.202,173.821,304.4356,172.5489,309.4089,175.2445,306.7133,180.2178,314.202,173.821" style="stroke: #A80036; stroke-width: 1.0;"/><line style="stroke: #A80036; stroke-width: 1.0;" x1="309.4089" x2="301.7395" y1="175.2445" y2="177.521"/><polygon fill="#FFFFFF" points="82.6169,277.7396,89.8273,277.6362,92.505,270.9407,85.2947,271.0441,82.6169,277.7396" style="stroke: #A80036; stroke-width: 1.0;"/><text fill="#000000" font-family="sans-serif" font-size="13" lengthAdjust="spacingAndGlyphs" textLength="25" x="162.5" y="244.4951">data</text><text fill="#000000" font-family="sans-serif" font-size="13" lengthAdjust="spacingAndGlyphs" textLength="7" x="299.5786" y="172.0573">n</text><!--link Model to LineageMetaData--><path d="M301.486,170.855 C266.454,179.144 222.731,195.996 200.5,230 C193.583,240.5808 195.266,253.8759 199.559,265.7556 " fill="none" id="Model-LineageMetaData" style="stroke: #A80036; stroke-width: 1.0;"/><polygon fill="#A80036" points="204.959,277.8955,204.9559,268.0466,202.9269,273.3271,197.6465,271.298,204.959,277.8955" style="stroke: #A80036; stroke-width: 1.0;"/><line style="stroke: #A80036; stroke-width: 1.0;" x1="202.9269" x2="199.676" y1="273.3271" y2="266.0174"/><polygon fill="#A80036" points="314.424,168.079,307.7184,165.4266,302.691,170.5962,309.3966,173.2486,314.424,168.079" style="stroke: #A80036; stroke-width: 1.0;"/><text fill="#000000" font-family="sans-serif" font-size="13" lengthAdjust="spacingAndGlyphs" textLength="41" x="201.5" y="244.4951">lineage</text><text fill="#000000" font-family="sans-serif" font-size="13" lengthAdjust="spacingAndGlyphs" textLength="7" x="193.3527" y="267.2035">n</text><!--link LineageMetaData to Model--><path d="M244.855,268.4727 C262.459,251.3825 285.53,228.9857 305.881,209.228 " fill="none" id="LineageMetaData-Model" style="stroke: #A80036; stroke-width: 1.0;"/><polygon fill="#A80036" points="315.338,200.048,306.0944,203.4474,311.7507,203.531,311.6671,209.1872,315.338,200.048" style="stroke: #A80036; stroke-width: 1.0;"/><line style="stroke: #A80036; stroke-width: 1.0;" x1="311.7507" x2="306.0105" y1="203.531" y2="209.1035"/><polygon fill="#FFFFFF" points="235.184,277.8618,242.2752,276.5523,243.7938,269.5029,236.7026,270.8124,235.184,277.8618" style="stroke: #A80036; stroke-width: 1.0;"/><text fill="#000000" font-family="sans-serif" font-size="13" lengthAdjust="spacingAndGlyphs" textLength="25" x="282.5" y="244.4951">data</text><text fill="#000000" font-family="sans-serif" font-size="13" lengthAdjust="spacingAndGlyphs" textLength="7" x="301.4377" y="221.2261">1</text><!--link Model to MetaData--><path d="M347.736,213.275 C347.518,224.7763 348.175,236.8845 350.5,248 C351.749,253.9708 353.785,260.1073 356.109,265.9129 " fill="none" id="Model-MetaData" style="stroke: #A80036; stroke-width: 1.0;"/><polygon fill="#A80036" points="361.466,277.9012,361.4466,268.0524,359.4263,273.3361,354.1425,271.3159,361.466,277.9012" style="stroke: #A80036; stroke-width: 1.0;"/><line style="stroke: #A80036; stroke-width: 1.0;" x1="359.4263" x2="356.1625" y1="273.3361" y2="266.0322"/><polygon fill="#A80036" points="348.347,200.148,344.0724,205.9556,347.7892,212.135,352.0638,206.3275,348.347,200.148" style="stroke: #A80036; stroke-width: 1.0;"/><text fill="#000000" font-family="sans-serif" font-size="13" lengthAdjust="spacingAndGlyphs" textLength="54" x="351.5" y="244.4951">metadata</text><text fill="#000000" font-family="sans-serif" font-size="13" lengthAdjust="spacingAndGlyphs" textLength="7" x="350.3212" y="267.211">n</text><!--link MetaData to Model--><path d="M401.336,267.7541 C409.676,256.4673 415.305,243.063 410.5,230 C408.029,223.2814 404.551,216.7769 400.519,210.633 " fill="none" id="MetaData-Model" style="stroke: #A80036; stroke-width: 1.0;"/><polygon fill="#A80036" points="392.76,199.996,394.8324,209.6244,395.7066,204.0355,401.2955,204.9097,392.76,199.996" style="stroke: #A80036; stroke-width: 1.0;"/><line style="stroke: #A80036; stroke-width: 1.0;" x1="395.7066" x2="400.421" y1="204.0355" y2="210.4985"/><polygon fill="#FFFFFF" points="392.761,277.8465,399.6942,275.864,400.5308,268.7016,393.5976,270.6841,392.761,277.8465" style="stroke: #A80036; stroke-width: 1.0;"/><text fill="#000000" font-family="sans-serif" font-size="13" lengthAdjust="spacingAndGlyphs" textLength="25" x="413.5" y="244.4951">data</text><text fill="#000000" font-family="sans-serif" font-size="13" lengthAdjust="spacingAndGlyphs" textLength="7" x="391.6828" y="221.1655">1</text><!--link Model to SourceMetaData--><path d="M403.475,197.719 C417.827,207.932 433.404,219.2513 447.5,230 C464.098,242.6568 482.141,257.2702 496.975,269.5241 " fill="none" id="Model-SourceMetaData" style="stroke: #A80036; stroke-width: 1.0;"/><polygon fill="#A80036" points="507.143,277.968,502.7748,269.1408,503.2965,274.7736,497.6637,275.2953,507.143,277.968" style="stroke: #A80036; stroke-width: 1.0;"/><line style="stroke: #A80036; stroke-width: 1.0;" x1="503.2965" x2="497.142" y1="274.7736" y2="269.6629"/><polygon fill="#A80036" points="392.783,190.153,395.3704,196.8839,402.5787,197.0844,399.9913,190.3535,392.783,190.153" style="stroke: #A80036; stroke-width: 1.0;"/><text fill="#000000" font-family="sans-serif" font-size="13" lengthAdjust="spacingAndGlyphs" textLength="63" x="471.5" y="244.4951">connection</text><text fill="#000000" font-family="sans-serif" font-size="13" lengthAdjust="spacingAndGlyphs" textLength="7" x="492.5305" y="267.2982">n</text><!--link SourceMetaData to Model--><path d="M545.1,265.6996 C549.308,253.7124 550.828,240.3543 543.5,230 C512.487,186.179 450.363,170.82 405.582,165.546 " fill="none" id="SourceMetaData-Model" style="stroke: #A80036; stroke-width: 1.0;"/><polygon fill="#A80036" points="392.585,164.237,401.1388,169.1189,397.5598,164.7381,401.9406,161.1591,392.585,164.237" style="stroke: #A80036; stroke-width: 1.0;"/><line style="stroke: #A80036; stroke-width: 1.0;" x1="397.5598" x2="405.52" y1="164.7381" y2="165.54"/><polygon fill="#FFFFFF" points="539.769,277.962,545.8293,274.0539,544.5527,266.9567,538.4924,270.8648,539.769,277.962" style="stroke: #A80036; stroke-width: 1.0;"/><text fill="#000000" font-family="sans-serif" font-size="13" lengthAdjust="spacingAndGlyphs" textLength="25" x="550.5" y="244.4951">data</text><text fill="#000000" font-family="sans-serif" font-size="13" lengthAdjust="spacingAndGlyphs" textLength="7" x="400.4366" y="160.7322">1</text><!--link DataReservation to Model--><path d="M416.536,57.497 C406.658,73.716 394.156,94.243 382.896,112.732 " fill="none" id="DataReservation-Model" style="stroke: #A80036; stroke-width: 1.0;"/><polygon fill="#A80036" points="376.08,123.924,384.1775,118.3177,378.6806,119.6535,377.3448,114.1567,376.08,123.924" style="stroke: #A80036; stroke-width: 1.0;"/><line style="stroke: #A80036; stroke-width: 1.0;" x1="378.6806" x2="382.842" y1="119.6535" y2="112.8215"/><polygon fill="#FFFFFF" points="423.407,46.214,416.8696,49.2574,417.1645,56.4625,423.7019,53.4191,423.407,46.214" style="stroke: #A80036; stroke-width: 1.0;"/><text fill="#000000" font-family="sans-serif" font-size="13" lengthAdjust="spacingAndGlyphs" textLength="25" x="405.5" y="90.4951">data</text><text fill="#000000" font-family="sans-serif" font-size="13" lengthAdjust="spacingAndGlyphs" textLength="7" x="372.4786" y="113.2724">1</text><!--
@startuml

class "Data" as Model {
 string name
 string access

 
}

rectangle "DataSource" as DataSource #lightblue {
}

Model o- -> "1" DataSource : source


rectangle "DataAdaptor" as DataAdaptor #lightblue {
}

Model o- -> "1" DataAdaptor : adaptor


rectangle "DataInstance" as DataInstance #lightblue {
}

Model o- -> "n" DataInstance : instances


rectangle "LineageMetaData" as LineageMetaData #lightblue {
}

Model *- -> "n" LineageMetaData : lineage


rectangle "MetaData" as MetaData #lightblue {
}

Model *- -> "n" MetaData : metadata


rectangle "SourceMetaData" as SourceMetaData #lightblue {
}

Model *- -> "n" SourceMetaData : connection




    rectangle "DataSource" as DataSource #lightgreen {
    }
    
        DataSource   *- -> "n" Model : "data"
    
    rectangle "DataInstance" as DataInstance #lightgreen {
    }
    
        DataInstance   o- -> "n" Model : "data"
    
    rectangle "DataReservation" as DataReservation #lightgreen {
    }
    
        DataReservation   o- -> "1" Model : "data"
    
    rectangle "LineageMetaData" as LineageMetaData #lightgreen {
    }
    
        LineageMetaData   o- -> "1" Model : "data"
    
    rectangle "MetaData" as MetaData #lightgreen {
    }
    
        MetaData   o- -> "1" Model : "data"
    
    rectangle "SourceMetaData" as SourceMetaData #lightgreen {
    }
    
        SourceMetaData   o- -> "1" Model : "data"
    

@enduml

PlantUML version 1.2019.05(Sat Apr 20 09:45:36 PDT 2019)
(GPL source distribution)
Java Runtime: OpenJDK Runtime Environment
JVM: OpenJDK 64-Bit Server VM
Java Version: 12.0.1+12
Operating System: Windows 10
OS Version: 10.0
Default Encoding: Cp1252
Language: en
Country: US
--></g></svg>