<?xml version="1.0" encoding="UTF-8" standalone="no"?><svg xmlns="http://www.w3.org/2000/svg" xmlns:xlink="http://www.w3.org/1999/xlink" contentScriptType="application/ecmascript" contentStyleType="text/css" height="237px" preserveAspectRatio="none" style="width:474px;height:237px;" version="1.1" viewBox="0 0 474 237" width="474px" zoomAndPan="magnify"><defs><filter height="300%" id="frkwpgayx9n0r" width="300%" x="-1" y="-1"><feGaussianBlur result="blurOut" stdDeviation="2.0"/><feColorMatrix in="blurOut" result="blurOut2" type="matrix" values="0 0 0 0 0 0 0 0 0 0 0 0 0 0 0 0 0 0 .4 0"/><feOffset dx="4.0" dy="4.0" in="blurOut2" result="blurOut3"/><feBlend in="SourceGraphic" in2="blurOut3" mode="normal"/></filter></defs><g><!--entity Stack--><rect fill="#ADD8E6" filter="url(#frkwpgayx9n0r)" height="37.6094" style="stroke: #000000; stroke-width: 1.5;" width="55" x="6" y="189"/><text fill="#000000" font-family="sans-serif" font-size="14" lengthAdjust="spacingAndGlyphs" textLength="35" x="16" y="213.5332">Stack</text><!--entity Environment--><rect fill="#ADD8E6" filter="url(#frkwpgayx9n0r)" height="37.6094" style="stroke: #000000; stroke-width: 1.5;" width="99" x="96" y="189"/><text fill="#000000" font-family="sans-serif" font-size="14" lengthAdjust="spacingAndGlyphs" textLength="79" x="106" y="213.5332">Environment</text><!--entity Servicelet--><rect fill="#ADD8E6" filter="url(#frkwpgayx9n0r)" height="37.6094" style="stroke: #000000; stroke-width: 1.5;" width="82" x="230.5" y="189"/><text fill="#000000" font-family="sans-serif" font-size="14" lengthAdjust="spacingAndGlyphs" textLength="62" x="240.5" y="213.5332">Servicelet</text><!--entity DataReference--><rect fill="#ADD8E6" filter="url(#frkwpgayx9n0r)" height="37.6094" style="stroke: #000000; stroke-width: 1.5;" width="116" x="347.5" y="189"/><text fill="#000000" font-family="sans-serif" font-size="14" lengthAdjust="spacingAndGlyphs" textLength="96" x="357.5" y="213.5332">DataReference</text><!--class Model--><rect fill="#FEFECE" filter="url(#frkwpgayx9n0r)" height="103.3438" id="Model" style="stroke: #A80036; stroke-width: 1.5;" width="127" x="145" y="8"/><ellipse cx="160" cy="24" fill="#ADD1B2" rx="11" ry="11" style="stroke: #A80036; stroke-width: 1.0;"/><path d="M162.7656,19.875 Q162.9219,19.6563 163.1094,19.5469 Q163.2969,19.4375 163.5156,19.4375 Q163.8906,19.4375 164.125,19.7031 Q164.3594,19.9531 164.3594,20.5625 L164.3594,22.0156 Q164.3594,22.625 164.125,22.8906 Q163.8906,23.1563 163.5156,23.1563 Q163.1719,23.1563 162.9688,22.9531 Q162.7656,22.7656 162.6563,22.25 Q162.6094,21.8906 162.4219,21.7031 Q162.0938,21.3281 161.4844,21.1094 Q160.875,20.8906 160.25,20.8906 Q159.4844,20.8906 158.8438,21.2188 Q158.2188,21.5469 157.7188,22.2969 Q157.2344,23.0469 157.2344,24.0781 L157.2344,25.1719 Q157.2344,26.4063 158.125,27.2344 Q159.0156,28.0469 160.6094,28.0469 Q161.5469,28.0469 162.2031,27.7969 Q162.5938,27.6406 163.0156,27.2031 Q163.2813,26.9375 163.4219,26.8594 Q163.5781,26.7813 163.7813,26.7813 Q164.1094,26.7813 164.3594,27.0469 Q164.625,27.2969 164.625,27.6406 Q164.625,27.9844 164.2813,28.3906 Q163.7813,28.9688 162.9844,29.2969 Q161.9063,29.75 160.6094,29.75 Q159.0938,29.75 157.8906,29.125 Q156.9063,28.625 156.2188,27.5625 Q155.5313,26.4844 155.5313,25.2031 L155.5313,24.0469 Q155.5313,22.7188 156.1406,21.5781 Q156.7656,20.4219 157.8594,19.8125 Q158.9531,19.1875 160.1875,19.1875 Q160.9219,19.1875 161.5625,19.3594 Q162.2188,19.5156 162.7656,19.875 Z "/><text fill="#000000" font-family="sans-serif" font-size="12" lengthAdjust="spacingAndGlyphs" textLength="95" x="174" y="28.9102">StackletDefinition</text><line style="stroke: #A80036; stroke-width: 1.5;" x1="146" x2="271" y1="40" y2="40"/><text fill="#000000" font-family="sans-serif" font-size="11" lengthAdjust="spacingAndGlyphs" textLength="56" x="151" y="55.4189">string name</text><text fill="#000000" font-family="sans-serif" font-size="11" lengthAdjust="spacingAndGlyphs" textLength="66" x="151" y="69.2549">string version</text><text fill="#000000" font-family="sans-serif" font-size="11" lengthAdjust="spacingAndGlyphs" textLength="78" x="151" y="83.0908">json parameters</text><line style="stroke: #A80036; stroke-width: 1.5;" x1="146" x2="271" y1="89.5078" y2="89.5078"/><text fill="#000000" font-family="sans-serif" font-size="11" lengthAdjust="spacingAndGlyphs" textLength="39" x="151" y="104.9268">create()</text><!--link Model to Stack--><path d="M137.447,119.982 C112.356,140.9863 85.3937,163.5576 65.2178,180.4476 " fill="none" id="Model-Stack" style="stroke: #A80036; stroke-width: 1.0;"/><polygon fill="#A80036" points="55.0475,188.9617,64.5162,186.2516,58.8814,185.7521,59.3809,180.1174,55.0475,188.9617" style="stroke: #A80036; stroke-width: 1.0;"/><line style="stroke: #A80036; stroke-width: 1.0;" x1="58.8814" x2="65.0157" y1="185.7521" y2="180.6169"/><polygon fill="#FFFFFF" points="147.785,111.327,140.6166,112.111,138.5832,119.0294,145.7516,118.2455,147.785,111.327" style="stroke: #A80036; stroke-width: 1.0;"/><text fill="#000000" font-family="sans-serif" font-size="13" lengthAdjust="spacingAndGlyphs" textLength="32" x="112.5" y="155.4951">stack</text><text fill="#000000" font-family="sans-serif" font-size="13" lengthAdjust="spacingAndGlyphs" textLength="7" x="53.5745" y="178.29">1</text><!--link Model to Environment--><path d="M181.379,123.566 C173.476,141.9452 165.197,161.1963 158.586,176.5695 " fill="none" id="Model-Environment" style="stroke: #A80036; stroke-width: 1.0;"/><polygon fill="#A80036" points="153.257,188.9617,160.4871,182.2739,155.2322,184.3684,153.1378,179.1136,153.257,188.9617" style="stroke: #A80036; stroke-width: 1.0;"/><line style="stroke: #A80036; stroke-width: 1.0;" x1="155.2322" x2="158.393" y1="184.3684" y2="177.0191"/><polygon fill="#FFFFFF" points="186.642,111.327,180.5967,115.2582,181.9003,122.3505,187.9457,118.4193,186.642,111.327" style="stroke: #A80036; stroke-width: 1.0;"/><text fill="#000000" font-family="sans-serif" font-size="13" lengthAdjust="spacingAndGlyphs" textLength="19" x="174.5" y="155.4951">env</text><text fill="#000000" font-family="sans-serif" font-size="13" lengthAdjust="spacingAndGlyphs" textLength="7" x="147.5607" y="178.29">1</text><!--link Model to Servicelet--><path d="M235.621,123.566 C243.524,141.9452 251.803,161.1963 258.414,176.5695 " fill="none" id="Model-Servicelet" style="stroke: #A80036; stroke-width: 1.0;"/><polygon fill="#A80036" points="263.743,188.9617,263.8622,179.1136,261.7678,184.3684,256.5129,182.2739,263.743,188.9617" style="stroke: #A80036; stroke-width: 1.0;"/><line style="stroke: #A80036; stroke-width: 1.0;" x1="261.7678" x2="258.607" y1="184.3684" y2="177.0191"/><polygon fill="#A80036" points="230.358,111.327,229.0543,118.4193,235.0997,122.3505,236.4033,115.2582,230.358,111.327" style="stroke: #A80036; stroke-width: 1.0;"/><text fill="#000000" font-family="sans-serif" font-size="13" lengthAdjust="spacingAndGlyphs" textLength="61" x="250.5" y="155.4951">servicelets</text><text fill="#000000" font-family="sans-serif" font-size="13" lengthAdjust="spacingAndGlyphs" textLength="7" x="253.2955" y="178.29">n</text><!--link Model to DataReference--><path d="M283.095,113.529 C295.639,122.615 308.483,132.0204 320.5,141 C337.602,153.7785 356.371,168.2987 371.912,180.46 " fill="none" id="Model-DataReference" style="stroke: #A80036; stroke-width: 1.0;"/><polygon fill="#A80036" points="382.588,188.8397,377.9777,180.1365,378.6547,185.7527,373.0385,186.4298,382.588,188.8397" style="stroke: #A80036; stroke-width: 1.0;"/><line style="stroke: #A80036; stroke-width: 1.0;" x1="378.6547" x2="372.362" y1="185.7527" y2="180.813"/><polygon fill="#FFFFFF" points="272.175,105.647,274.698,112.4023,281.9041,112.6715,279.3811,105.9162,272.175,105.647" style="stroke: #A80036; stroke-width: 1.0;"/><text fill="#000000" font-family="sans-serif" font-size="13" lengthAdjust="spacingAndGlyphs" textLength="25" x="345.5" y="155.4951">data</text><text fill="#000000" font-family="sans-serif" font-size="13" lengthAdjust="spacingAndGlyphs" textLength="7" x="367.4993" y="178.1306">n</text><!--
@startuml

class "StackletDefinition" as Model {
 string name
 string version
 json parameters

 create()
 
}

rectangle "Stack" as Stack #lightblue {
}

Model o- -> "1" Stack : stack


rectangle "Environment" as Environment #lightblue {
}

Model o- -> "1" Environment : env


rectangle "Servicelet" as Servicelet #lightblue {
}

Model *- -> "n" Servicelet : servicelets


rectangle "DataReference" as DataReference #lightblue {
}

Model o- -> "n" DataReference : data





@enduml

PlantUML version 1.2019.05(Sat Apr 20 09:45:36 PDT 2019)
(GPL source distribution)
Java Runtime: OpenJDK Runtime Environment
JVM: OpenJDK 64-Bit Server VM
Java Version: 12.0.1+12
Operating System: Windows 10
OS Version: 10.0
Default Encoding: Cp1252
Language: en
Country: US
--></g></svg>