<?xml version="1.0" encoding="UTF-8" standalone="no"?><svg xmlns="http://www.w3.org/2000/svg" xmlns:xlink="http://www.w3.org/1999/xlink" contentScriptType="application/ecmascript" contentStyleType="text/css" height="1155px" preserveAspectRatio="none" style="width:1124px;height:1155px;" version="1.1" viewBox="0 0 1124 1155" width="1124px" zoomAndPan="magnify"><defs><filter height="300%" id="fkwo3qtsgnlt7" width="300%" x="-1" y="-1"><feGaussianBlur result="blurOut" stdDeviation="2.0"/><feColorMatrix in="blurOut" result="blurOut2" type="matrix" values="0 0 0 0 0 0 0 0 0 0 0 0 0 0 0 0 0 0 .4 0"/><feOffset dx="4.0" dy="4.0" in="blurOut2" result="blurOut3"/><feBlend in="SourceGraphic" in2="blurOut3" mode="normal"/></filter></defs><g><!--cluster diml_dml_doStack--><rect fill="#ADD8E6" filter="url(#fkwo3qtsgnlt7)" height="115" style="stroke: #000000; stroke-width: 1.5;" width="114" x="975" y="564"/><text fill="#000000" font-family="sans-serif" font-size="14" font-weight="bold" lengthAdjust="spacingAndGlyphs" textLength="88" x="988" y="580.5332">diml_dml_do</text><!--cluster sa_peStack--><rect fill="#FFC0CB" filter="url(#fkwo3qtsgnlt7)" height="115" style="stroke: #000000; stroke-width: 1.5;" width="114" x="975" y="719"/><text fill="#000000" font-family="sans-serif" font-size="14" font-weight="bold" lengthAdjust="spacingAndGlyphs" textLength="42" x="1011" y="735.5332">sa_pe</text><!--cluster sml_soStack--><rect fill="#90EE90" filter="url(#fkwo3qtsgnlt7)" height="115" style="stroke: #000000; stroke-width: 1.5;" width="114" x="975" y="874"/><text fill="#000000" font-family="sans-serif" font-size="14" font-weight="bold" lengthAdjust="spacingAndGlyphs" textLength="49" x="1007.5" y="890.5332">sml_so</text><!--cluster cpl_taStack--><rect fill="#D3D3D3" filter="url(#fkwo3qtsgnlt7)" height="115" style="stroke: #000000; stroke-width: 1.5;" width="114" x="975" y="1029"/><text fill="#000000" font-family="sans-serif" font-size="14" font-weight="bold" lengthAdjust="spacingAndGlyphs" textLength="42" x="1011" y="1045.5332">cpl_ta</text><!--cluster cpl_dm--><polygon fill="#D3D3D3" filter="url(#fkwo3qtsgnlt7)" points="112,24,168,24,175,47.6094,1102,47.6094,1102,532,112,532,112,24" style="stroke: #000000; stroke-width: 1.5;"/><line style="stroke: #000000; stroke-width: 1.5;" x1="112" x2="175" y1="47.6094" y2="47.6094"/><text fill="#000000" font-family="sans-serif" font-size="14" font-weight="bold" lengthAdjust="spacingAndGlyphs" textLength="50" x="116" y="40.5332">cpl_dm</text><!--cluster frontendService--><polygon fill="#D3D3D3" filter="url(#fkwo3qtsgnlt7)" points="148,86,158,76,285,76,285,182,275,192,148,192,148,86" style="stroke: #000000; stroke-width: 1.5;"/><line style="stroke: #000000; stroke-width: 1.5;" x1="275" x2="284" y1="86" y2="77"/><line style="stroke: #000000; stroke-width: 1.5;" x1="148" x2="275" y1="86" y2="86"/><line style="stroke: #000000; stroke-width: 1.5;" x1="275" x2="275" y1="86" y2="192"/><text fill="#000000" font-family="sans-serif" font-size="14" font-weight="bold" lengthAdjust="spacingAndGlyphs" textLength="61" x="182" y="103.5332">frontend</text><!--entity diml_dml_doStacksnet--><path d="M1004,608 L1060,608 C1065,608 1065,621.8047 1065,621.8047 C1065,621.8047 1065,635.6094 1060,635.6094 L1004,635.6094 C999,635.6094 999,621.8047 999,621.8047 C999,621.8047 999,608 1004,608 " fill="#000000" filter="url(#fkwo3qtsgnlt7)" style="stroke: #A80036; stroke-width: 1.5;"/><path d="M1060,608 C1055,608 1055,621.8047 1055,621.8047 C1055,635.6094 1060,635.6094 1060,635.6094 " fill="none" style="stroke: #A80036; stroke-width: 1.5;"/><text fill="#FFFFFF" font-family="sans-serif" font-size="14" font-weight="bold" lengthAdjust="spacingAndGlyphs" textLength="46" x="1004" y="627.5332">parent</text><!--entity sa_peStacksnet--><path d="M1004,763 L1060,763 C1065,763 1065,776.8047 1065,776.8047 C1065,776.8047 1065,790.6094 1060,790.6094 L1004,790.6094 C999,790.6094 999,776.8047 999,776.8047 C999,776.8047 999,763 1004,763 " fill="#000000" filter="url(#fkwo3qtsgnlt7)" style="stroke: #A80036; stroke-width: 1.5;"/><path d="M1060,763 C1055,763 1055,776.8047 1055,776.8047 C1055,790.6094 1060,790.6094 1060,790.6094 " fill="none" style="stroke: #A80036; stroke-width: 1.5;"/><text fill="#FFFFFF" font-family="sans-serif" font-size="14" font-weight="bold" lengthAdjust="spacingAndGlyphs" textLength="46" x="1004" y="782.5332">parent</text><!--entity sml_soStacksnet--><path d="M1004,918 L1060,918 C1065,918 1065,931.8047 1065,931.8047 C1065,931.8047 1065,945.6094 1060,945.6094 L1004,945.6094 C999,945.6094 999,931.8047 999,931.8047 C999,931.8047 999,918 1004,918 " fill="#000000" filter="url(#fkwo3qtsgnlt7)" style="stroke: #A80036; stroke-width: 1.5;"/><path d="M1060,918 C1055,918 1055,931.8047 1055,931.8047 C1055,945.6094 1060,945.6094 1060,945.6094 " fill="none" style="stroke: #A80036; stroke-width: 1.5;"/><text fill="#FFFFFF" font-family="sans-serif" font-size="14" font-weight="bold" lengthAdjust="spacingAndGlyphs" textLength="46" x="1004" y="937.5332">parent</text><!--entity cpl_taStacksnet--><path d="M1004,1073 L1060,1073 C1065,1073 1065,1086.8047 1065,1086.8047 C1065,1086.8047 1065,1100.6094 1060,1100.6094 L1004,1100.6094 C999,1100.6094 999,1086.8047 999,1086.8047 C999,1086.8047 999,1073 1004,1073 " fill="#000000" filter="url(#fkwo3qtsgnlt7)" style="stroke: #A80036; stroke-width: 1.5;"/><path d="M1060,1073 C1055,1073 1055,1086.8047 1055,1086.8047 C1055,1100.6094 1060,1100.6094 1060,1100.6094 " fill="none" style="stroke: #A80036; stroke-width: 1.5;"/><text fill="#FFFFFF" font-family="sans-serif" font-size="14" font-weight="bold" lengthAdjust="spacingAndGlyphs" textLength="46" x="1004" y="1092.5332">parent</text><!--entity childrennet--><path d="M390,386 L458,386 C463,386 463,399.8047 463,399.8047 C463,399.8047 463,413.6094 458,413.6094 L390,413.6094 C385,413.6094 385,399.8047 385,399.8047 C385,399.8047 385,386 390,386 " fill="#000000" filter="url(#fkwo3qtsgnlt7)" style="stroke: #A80036; stroke-width: 1.5;"/><path d="M458,386 C453,386 453,399.8047 453,399.8047 C453,413.6094 458,413.6094 458,413.6094 " fill="none" style="stroke: #A80036; stroke-width: 1.5;"/><text fill="#FFFFFF" font-family="sans-serif" font-size="14" font-weight="bold" lengthAdjust="spacingAndGlyphs" textLength="58" x="390" y="405.5332">children</text><!--entity siblingnet--><path d="M593.5,69 L650.5,69 C655.5,69 655.5,82.8047 655.5,82.8047 C655.5,82.8047 655.5,96.6094 650.5,96.6094 L593.5,96.6094 C588.5,96.6094 588.5,82.8047 588.5,82.8047 C588.5,82.8047 588.5,69 593.5,69 " fill="#0000FF" filter="url(#fkwo3qtsgnlt7)" style="stroke: #A80036; stroke-width: 1.5;"/><path d="M650.5,69 C645.5,69 645.5,82.8047 645.5,82.8047 C645.5,96.6094 650.5,96.6094 650.5,96.6094 " fill="none" style="stroke: #A80036; stroke-width: 1.5;"/><text fill="#FFFFFF" font-family="sans-serif" font-size="14" font-weight="bold" lengthAdjust="spacingAndGlyphs" textLength="47" x="593.5" y="88.5332">sibling</text><!--entity parentnet--><path d="M396,449 L452,449 C457,449 457,462.8047 457,462.8047 C457,462.8047 457,476.6094 452,476.6094 L396,476.6094 C391,476.6094 391,462.8047 391,462.8047 C391,462.8047 391,449 396,449 " fill="#FF0000" filter="url(#fkwo3qtsgnlt7)" style="stroke: #A80036; stroke-width: 1.5;"/><path d="M452,449 C447,449 447,462.8047 447,462.8047 C447,476.6094 452,476.6094 452,476.6094 " fill="none" style="stroke: #A80036; stroke-width: 1.5;"/><text fill="#FFFFFF" font-family="sans-serif" font-size="14" font-weight="bold" lengthAdjust="spacingAndGlyphs" textLength="46" x="396" y="468.5332">parent</text><!--entity data_orchestratorService--><polygon fill="#FEFECE" filter="url(#fkwo3qtsgnlt7)" points="139.5,229,149.5,219,292.5,219,292.5,256.6094,282.5,266.6094,139.5,266.6094,139.5,229" style="stroke: #000000; stroke-width: 1.5;"/><line style="stroke: #000000; stroke-width: 1.5;" x1="282.5" x2="291.5" y1="229" y2="220"/><line style="stroke: #000000; stroke-width: 1.5;" x1="139.5" x2="282.5" y1="229" y2="229"/><line style="stroke: #000000; stroke-width: 1.5;" x1="282.5" x2="282.5" y1="229" y2="266.6094"/><text fill="#000000" font-family="sans-serif" font-size="14" lengthAdjust="spacingAndGlyphs" textLength="113" x="154.5" y="253.5332">data_orchestrator</text><!--entity policy_engineService--><polygon fill="#FEFECE" filter="url(#fkwo3qtsgnlt7)" points="152.5,312,162.5,302,279.5,302,279.5,339.6094,269.5,349.6094,152.5,349.6094,152.5,312" style="stroke: #000000; stroke-width: 1.5;"/><line style="stroke: #000000; stroke-width: 1.5;" x1="269.5" x2="278.5" y1="312" y2="303"/><line style="stroke: #000000; stroke-width: 1.5;" x1="152.5" x2="269.5" y1="312" y2="312"/><line style="stroke: #000000; stroke-width: 1.5;" x1="269.5" x2="269.5" y1="312" y2="349.6094"/><text fill="#000000" font-family="sans-serif" font-size="14" lengthAdjust="spacingAndGlyphs" textLength="87" x="167.5" y="336.5332">policy_engine</text><!--entity service_orchestratorService--><polygon fill="#FEFECE" filter="url(#fkwo3qtsgnlt7)" points="131,395,141,385,301,385,301,422.6094,291,432.6094,131,432.6094,131,395" style="stroke: #000000; stroke-width: 1.5;"/><line style="stroke: #000000; stroke-width: 1.5;" x1="291" x2="300" y1="395" y2="386"/><line style="stroke: #000000; stroke-width: 1.5;" x1="131" x2="291" y1="395" y2="395"/><line style="stroke: #000000; stroke-width: 1.5;" x1="291" x2="291" y1="395" y2="432.6094"/><text fill="#000000" font-family="sans-serif" font-size="14" lengthAdjust="spacingAndGlyphs" textLength="130" x="146" y="419.5332">service_orchestrator</text><!--entity telemetry_aggregatorService--><polygon fill="#FEFECE" filter="url(#fkwo3qtsgnlt7)" points="128,478,138,468,304,468,304,505.6094,294,515.6094,128,515.6094,128,478" style="stroke: #000000; stroke-width: 1.5;"/><line style="stroke: #000000; stroke-width: 1.5;" x1="294" x2="303" y1="478" y2="469"/><line style="stroke: #000000; stroke-width: 1.5;" x1="128" x2="294" y1="478" y2="478"/><line style="stroke: #000000; stroke-width: 1.5;" x1="294" x2="294" y1="478" y2="515.6094"/><text fill="#000000" font-family="sans-serif" font-size="14" lengthAdjust="spacingAndGlyphs" textLength="136" x="143" y="502.5332">telemetry_aggregator</text><!--entity portalService--><polygon fill="#FEFECE" filter="url(#fkwo3qtsgnlt7)" points="386,117,396,107,462,107,462,144.6094,452,154.6094,386,154.6094,386,117" style="stroke: #000000; stroke-width: 1.5;"/><line style="stroke: #000000; stroke-width: 1.5;" x1="452" x2="461" y1="117" y2="108"/><line style="stroke: #000000; stroke-width: 1.5;" x1="386" x2="452" y1="117" y2="117"/><line style="stroke: #000000; stroke-width: 1.5;" x1="452" x2="452" y1="117" y2="154.6094"/><text fill="#000000" font-family="sans-serif" font-size="14" lengthAdjust="spacingAndGlyphs" textLength="36" x="401" y="141.5332">portal</text><!--entity diml_dml_dolatestimage--><rect fill="#FEFECE" filter="url(#fkwo3qtsgnlt7)" height="33.6094" style="stroke: #000000; stroke-width: 1.5;" width="133" x="785" y="252"/><rect fill="#FEFECE" height="33.6094" style="stroke: #000000; stroke-width: 1.5;" width="133" x="781" y="248"/><text fill="#000000" font-family="sans-serif" font-size="14" lengthAdjust="spacingAndGlyphs" textLength="117" x="789" y="270.5332">diml_dml_do:latest</text><!--entity sa_pelatestimage--><rect fill="#FEFECE" filter="url(#fkwo3qtsgnlt7)" height="33.6094" style="stroke: #000000; stroke-width: 1.5;" width="93" x="805" y="328"/><rect fill="#FEFECE" height="33.6094" style="stroke: #000000; stroke-width: 1.5;" width="93" x="801" y="324"/><text fill="#000000" font-family="sans-serif" font-size="14" lengthAdjust="spacingAndGlyphs" textLength="77" x="809" y="346.5332">sa_pe:latest</text><!--entity sml_solatestimage--><rect fill="#FEFECE" filter="url(#fkwo3qtsgnlt7)" height="33.6094" style="stroke: #000000; stroke-width: 1.5;" width="98" x="802.5" y="407"/><rect fill="#FEFECE" height="33.6094" style="stroke: #000000; stroke-width: 1.5;" width="98" x="798.5" y="403"/><text fill="#000000" font-family="sans-serif" font-size="14" lengthAdjust="spacingAndGlyphs" textLength="82" x="806.5" y="425.5332">sml_so:latest</text><!--entity cpl_talatestimage--><rect fill="#FEFECE" filter="url(#fkwo3qtsgnlt7)" height="33.6094" style="stroke: #000000; stroke-width: 1.5;" width="92" x="805.5" y="482"/><rect fill="#FEFECE" height="33.6094" style="stroke: #000000; stroke-width: 1.5;" width="92" x="801.5" y="478"/><text fill="#000000" font-family="sans-serif" font-size="14" lengthAdjust="spacingAndGlyphs" textLength="76" x="809.5" y="500.5332">cpl_ta:latest</text><!--entity traefiklatestimage--><rect fill="#FEFECE" filter="url(#fkwo3qtsgnlt7)" height="40.6094" style="stroke: #000000; stroke-width: 1.5;" width="107" x="796" y="170.5"/><polygon fill="#FEFECE" points="886,175.5,886,189.5,898,189.5,898,181.5,892,175.5,886,175.5" style="stroke: #000000; stroke-width: 1.5;"/><line style="stroke: #000000; stroke-width: 1.5;" x1="892" x2="892" y1="175.5" y2="181.5"/><line style="stroke: #000000; stroke-width: 1.5;" x1="898" x2="892" y1="181.5" y2="181.5"/><text fill="#000000" font-family="sans-serif" font-size="14" lengthAdjust="spacingAndGlyphs" textLength="77" x="806" y="198.0332">traefik:latest</text><!--entity cpl_dm_webimage--><rect fill="#FEFECE" filter="url(#fkwo3qtsgnlt7)" height="40.6094" style="stroke: #000000; stroke-width: 1.5;" width="108" x="978" y="112.5"/><polygon fill="#FEFECE" points="1069,117.5,1069,131.5,1081,131.5,1081,123.5,1075,117.5,1069,117.5" style="stroke: #000000; stroke-width: 1.5;"/><line style="stroke: #000000; stroke-width: 1.5;" x1="1075" x2="1075" y1="117.5" y2="123.5"/><line style="stroke: #000000; stroke-width: 1.5;" x1="1081" x2="1075" y1="123.5" y2="123.5"/><text fill="#000000" font-family="sans-serif" font-size="14" lengthAdjust="spacingAndGlyphs" textLength="78" x="988" y="140.0332">cpl_dm_web</text><!--entity adminmap--><rect fill="#FEFECE" filter="url(#fkwo3qtsgnlt7)" height="23.6094" style="stroke: #000000; stroke-width: 1.5;" width="62" x="185" y="125"/><text fill="#000000" font-family="sans-serif" font-size="14" lengthAdjust="spacingAndGlyphs" textLength="42" x="195" y="142.5332">/admin</text><!--entity ailtire_appname_cpl_family--><path d="M601.5,638 L601.5,662 M601.5,650 L618.5,650 " fill="none" filter="url(#fkwo3qtsgnlt7)" style="stroke: #A80036; stroke-width: 2.0;"/><ellipse cx="630.5" cy="650" fill="#FF0000" filter="url(#fkwo3qtsgnlt7)" rx="12" ry="12" style="stroke: #A80036; stroke-width: 2.0;"/><text fill="#000000" font-family="sans-serif" font-size="14" lengthAdjust="spacingAndGlyphs" textLength="171" x="536.5" y="680.5332">ailtire_appname_cpl_family</text><!--entity ailtire_appname_cpl_dm_family--><ellipse cx="622" cy="565" fill="#000000" filter="url(#fkwo3qtsgnlt7)" rx="12" ry="12" style="stroke: #A80036; stroke-width: 2.0;"/><line style="stroke: #A80036; stroke-width: 2.0;" x1="610" x2="634" y1="579" y2="579"/><text fill="#000000" font-family="sans-serif" font-size="14" lengthAdjust="spacingAndGlyphs" textLength="198" x="523" y="595.5332">ailtire_appname_cpl_dm_family</text><!--entity external--><ellipse cx="39" cy="184" fill="#FEFECE" filter="url(#fkwo3qtsgnlt7)" rx="8" ry="8" style="stroke: #A80036; stroke-width: 2.0;"/><text fill="#000000" font-family="sans-serif" font-size="14" lengthAdjust="spacingAndGlyphs" textLength="50" x="14" y="215.5332">external</text><!--link childrennet to ailtire_appname_cpl_dm_family--><path d="M444.293,414.17 C450.665,419.369 457.518,425.566 463,432 C496.614,471.453 483.953,497.916 523,532 C530.461,538.512 539.083,544.137 548.056,548.961 " fill="none" id="childrennet-ailtire_appname_cpl_dm_family" style="stroke: #000000; stroke-width: 1.0;"/><!--link parentnet to ailtire_appname_cpl_family--><path d="M430.637,477.326 C443.04,507.168 475.431,576.568 523,617 C530.616,623.474 539.38,629.085 548.468,633.91 " fill="none" id="parentnet-ailtire_appname_cpl_family" style="stroke: #FF0000; stroke-width: 1.0;"/><!--link external to frontendService--><path d="M48.4406,184 C65.646,184 106.2636,184 143.0789,184 C144.2294,184 145.3762,184 146.5184,184 C146.804,184 147.0892,184 147.3742,184 " fill="none" id="external-frontendService" style="stroke: #000000; stroke-width: 1.0;"/><!--link adminmap to portalService--><path d="M247.396,136.11 C282.635,135.09 340.943,133.39 380.62,132.23 " fill="none" id="adminmap-portalService" style="stroke: #0000FF; stroke-width: 1.0;"/><polygon fill="#0000FF" points="385.848,132.08,376.7353,128.3439,380.8501,132.2257,376.9683,136.3405,385.848,132.08" style="stroke: #0000FF; stroke-width: 1.0;"/><!--link data_orchestratorService to childrennet--><path d="M273.711,267.128 C284.122,272.454 294.646,278.475 304,285 C347.83,315.571 390.789,362.426 411.005,385.764 " fill="none" id="data_orchestratorService-childrennet" style="stroke: #000000; stroke-width: 1.0;"/><!--link data_orchestratorService to parentnet--><path d="M279.506,267.244 C288.324,272.294 296.817,278.194 304,285 C358.148,336.307 337.227,374.71 385,432 C390.126,438.147 396.61,443.959 402.765,448.854 " fill="none" id="data_orchestratorService-parentnet" style="stroke: #FF0000; stroke-width: 1.0;"/><!--link policy_engineService to childrennet--><path d="M279.646,348.504 C313.974,360.835 355.405,375.718 384.88,386.306 " fill="none" id="policy_engineService-childrennet" style="stroke: #000000; stroke-width: 1.0;"/><!--link policy_engineService to parentnet--><path d="M271.846,350.163 C282.742,355.602 293.922,361.657 304,368 C309.37,371.379 373.622,423.127 405.413,448.79 " fill="none" id="policy_engineService-parentnet" style="stroke: #FF0000; stroke-width: 1.0;"/><!--link service_orchestratorService to childrennet--><path d="M301.085,405.326 C330.122,404.058 361.236,402.698 384.764,401.671 " fill="none" id="service_orchestratorService-childrennet" style="stroke: #000000; stroke-width: 1.0;"/><!--link service_orchestratorService to parentnet--><path d="M301.085,431.042 C332.681,439.324 366.736,448.251 390.8,454.559 " fill="none" id="service_orchestratorService-parentnet" style="stroke: #FF0000; stroke-width: 1.0;"/><!--link telemetry_aggregatorService to childrennet--><path d="M270.855,467.948 C309.241,450.805 359.521,428.35 391.553,414.044 " fill="none" id="telemetry_aggregatorService-childrennet" style="stroke: #000000; stroke-width: 1.0;"/><!--link telemetry_aggregatorService to parentnet--><path d="M304.064,479.743 C334.81,475.415 367.498,470.813 390.809,467.532 " fill="none" id="telemetry_aggregatorService-parentnet" style="stroke: #FF0000; stroke-width: 1.0;"/><!--link portalService to siblingnet--><path d="M462.327,121.86 C498.758,112.94 553.631,99.5 588.366,90.99 " fill="none" id="portalService-siblingnet" style="stroke: #0000FF; stroke-width: 1.0;"/><!--link data_orchestratorService to diml_dml_dolatestimage--><path d="M292.546,245.871 C416.625,250.587 661.642,259.899 780.564,264.418 " fill="none" id="data_orchestratorService-diml_dml_dolatestimage" style="stroke: #A80036; stroke-width: 1.0; stroke-dasharray: 7.0,7.0;"/><!--link policy_engineService to sa_pelatestimage--><path d="M279.569,327.684 C405.755,331.081 688.294,338.687 800.876,341.718 " fill="none" id="policy_engineService-sa_pelatestimage" style="stroke: #A80036; stroke-width: 1.0; stroke-dasharray: 7.0,7.0;"/><!--link service_orchestratorService to sml_solatestimage--><path d="M300.913,384.956 C327.563,378.419 357.307,372.251 385,369 C535.424,351.339 713.404,387.76 798.419,408.676 " fill="none" id="service_orchestratorService-sml_solatestimage" style="stroke: #A80036; stroke-width: 1.0; stroke-dasharray: 7.0,7.0;"/><!--link telemetry_aggregatorService to cpl_talatestimage--><path d="M304.192,493.781 C330.19,494.252 358.747,494.709 385,495 C537.279,496.688 717.715,496.973 801.456,497.007 " fill="none" id="telemetry_aggregatorService-cpl_talatestimage" style="stroke: #A80036; stroke-width: 1.0; stroke-dasharray: 7.0,7.0;"/><!--link portalService to cpl_dm_webimage--><path d="M462.451,131.12 C566.187,131.47 857.519,132.43 977.912,132.82 " fill="none" id="portalService-cpl_dm_webimage" style="stroke: #A80036; stroke-width: 1.0; stroke-dasharray: 7.0,7.0;"/><!--link frontendService to traefiklatestimage--><path d="M285.8372,184.7631 C287.1484,184.7776 288.4747,184.7923 289.8157,184.8072 C332.729,185.283 390.7627,185.9263 453.2386,186.6189 C578.1905,188.004 720.9115,189.586 795.977,190.418 " fill="none" id="frontendService-traefiklatestimage" style="stroke: #A80036; stroke-width: 1.0; stroke-dasharray: 7.0,7.0;"/><!--link diml_dml_dolatestimage to diml_dml_doStack--><path d="M896.002,286.096 C904.54,291.646 912.501,298.552 918,307 C1002.242,436.408 857.702,535.459 959,652 C961.6291,655.0248 964.6772,657.5955 968.0043,659.778 C969.6678,660.8692 971.4011,661.8633 973.1866,662.7686 C973.633,662.9949 974.0826,663.2156 974.5353,663.4309 C974.6484,663.4848 974.7618,663.5383 974.8753,663.5914 " fill="none" id="diml_dml_dolatestimage-diml_dml_doStack" style="stroke: #A80036; stroke-width: 1.0;"/><polygon fill="#A80036" points="974.8753,663.5914,968.4206,656.1526,970.347,661.4713,965.0283,663.3977,974.8753,663.5914" style="stroke: #A80036; stroke-width: 1.0;"/><!--link sa_pelatestimage to sa_peStack--><path d="M893.402,362.132 C902.975,368.387 912.041,376.289 918,386 C967.158,466.119 898.091,735.406 959,807 C961.5969,810.0525 964.6206,812.6443 967.9298,814.8423 C969.5844,815.9413 971.3103,816.9418 973.0899,817.8522 C973.5348,818.0798 973.983,818.3018 974.4343,818.5182 C974.5472,818.5723 974.6602,818.6261 974.7734,818.6795 " fill="none" id="sa_pelatestimage-sa_peStack" style="stroke: #A80036; stroke-width: 1.0;"/><polygon fill="#A80036" points="974.7734,818.6795,968.3416,811.2209,970.2517,816.5455,964.9271,818.4557,974.7734,818.6795" style="stroke: #A80036; stroke-width: 1.0;"/><!--link sml_solatestimage to sml_soStack--><path d="M897.596,441.169 C905.591,446.451 912.933,452.995 918,461 C977.74,555.389 887.275,876.363 959,962 C961.5733,965.0724 964.5791,967.6793 967.8751,969.8884 C969.5231,970.9929 971.2436,971.998 973.0188,972.9121 C973.4626,973.1406 973.9099,973.3635 974.3602,973.5808 C974.4728,973.6351 974.5856,973.689 974.6986,973.7427 " fill="none" id="sml_solatestimage-sml_soStack" style="stroke: #A80036; stroke-width: 1.0;"/><polygon fill="#A80036" points="974.6986,973.7427,968.2833,966.2697,970.1816,971.5986,964.8528,973.4969,974.6986,973.7427" style="stroke: #A80036; stroke-width: 1.0;"/><!--link cpl_talatestimage to cpl_taStack--><path d="M851.155,516.171 C854.77,610.654 875.279,1025.864 959,1117 C961.7113,1119.9514 964.8217,1122.4666 968.195,1124.6079 C969.8816,1125.6786 971.6339,1126.6558 973.4348,1127.5474 C973.8851,1127.7703 974.3384,1127.9879 974.7944,1128.2002 " fill="none" id="cpl_talatestimage-cpl_taStack" style="stroke: #A80036; stroke-width: 1.0;"/><polygon fill="#A80036" points="974.7944,1128.2002,968.3234,1120.7755,970.2615,1126.0899,964.9471,1128.0281,974.7944,1128.2002" style="stroke: #A80036; stroke-width: 1.0;"/><!--
@startuml

left to right direction


boundary ailtire_appname_cpl_family #red


entity ailtire_appname_cpl_dm_family #black

rectangle "diml_dml_do" as diml_dml_doStack #lightblue {
    queue diml_dml_doStacksnet #black [
        <b><color:white>parent</color></b>
    ]
}
rectangle "sa_pe" as sa_peStack #pink {
    queue sa_peStacksnet #black [
        <b><color:white>parent</color></b>
    ]
}
rectangle "sml_so" as sml_soStack #lightgreen {
    queue sml_soStacksnet #black [
        <b><color:white>parent</color></b>
    ]
}
rectangle "cpl_ta" as cpl_taStack #lightgray {
    queue cpl_taStacksnet #black [
        <b><color:white>parent</color></b>
    ]
}



package "cpl_dm" #lightgray {
    queue childrennet #black [
            <b><color:white>children</color></b>
    ]
    
    childrennet -[#black]- ailtire_appname_cpl_dm_family
    
    queue siblingnet #blue [
            <b><color:white>sibling</color></b>
    ]
    
    queue parentnet #red [
            <b><color:white>parent</color></b>
    ]
    
    parentnet -[#red]- ailtire_appname_cpl_family
    


node "frontend" as frontendService {
    card "/admin" as adminmap
    
}
node "data_orchestrator" as data_orchestratorService
node "policy_engine" as policy_engineService
node "service_orchestrator" as service_orchestratorService
node "telemetry_aggregator" as telemetry_aggregatorService
node "portal" as portalService

        collections "diml_dml_do:latest" as diml_dml_dolatestimage
            collections "sa_pe:latest" as sa_pelatestimage
            collections "sml_so:latest" as sml_solatestimage
            collections "cpl_ta:latest" as cpl_talatestimage
    
        artifact "traefik:latest" as traefiklatestimage
    
        artifact "cpl_dm_web" as cpl_dm_webimage
    
}

external -[#black]- frontendService

adminmap -[#blue]-> portalService

data_orchestratorService -[#black]- childrennet

data_orchestratorService -[#red]- parentnet

policy_engineService -[#black]- childrennet

policy_engineService -[#red]- parentnet

service_orchestratorService -[#black]- childrennet

service_orchestratorService -[#red]- parentnet

telemetry_aggregatorService -[#black]- childrennet

telemetry_aggregatorService -[#red]- parentnet

portalService -[#blue]- siblingnet
data_orchestratorService .... diml_dml_dolatestimage
policy_engineService .... sa_pelatestimage
service_orchestratorService .... sml_solatestimage
telemetry_aggregatorService .... cpl_talatestimage
portalService .... cpl_dm_webimage

frontendService .... traefiklatestimage

diml_dml_dolatestimage - -> diml_dml_doStack
    
sa_pelatestimage - -> sa_peStack
    
sml_solatestimage - -> sml_soStack
    
cpl_talatestimage - -> cpl_taStack
    

@enduml

PlantUML version 1.2019.05(Sat Apr 20 09:45:36 PDT 2019)
(GPL source distribution)
Java Runtime: OpenJDK Runtime Environment
JVM: OpenJDK 64-Bit Server VM
Java Version: 12.0.1+12
Operating System: Windows 10
OS Version: 10.0
Default Encoding: Cp1252
Language: en
Country: US
--></g></svg>