<?xml version="1.0" encoding="UTF-8" standalone="no"?><svg xmlns="http://www.w3.org/2000/svg" xmlns:xlink="http://www.w3.org/1999/xlink" contentScriptType="application/ecmascript" contentStyleType="text/css" height="265px" preserveAspectRatio="none" style="width:600px;height:265px;" version="1.1" viewBox="0 0 600 265" width="600px" zoomAndPan="magnify"><defs><filter height="300%" id="fd0wuh7w1fnod" width="300%" x="-1" y="-1"><feGaussianBlur result="blurOut" stdDeviation="2.0"/><feColorMatrix in="blurOut" result="blurOut2" type="matrix" values="0 0 0 0 0 0 0 0 0 0 0 0 0 0 0 0 0 0 .4 0"/><feOffset dx="4.0" dy="4.0" in="blurOut2" result="blurOut3"/><feBlend in="SourceGraphic" in2="blurOut3" mode="normal"/></filter></defs><g><!--entity Request--><rect fill="#ADD8E6" filter="url(#fd0wuh7w1fnod)" height="37.6094" style="stroke: #000000; stroke-width: 1.5;" width="73" x="6" y="217"/><text fill="#000000" font-family="sans-serif" font-size="14" lengthAdjust="spacingAndGlyphs" textLength="53" x="16" y="241.5332">Request</text><!--entity PhysicalProfile--><rect fill="#ADD8E6" filter="url(#fd0wuh7w1fnod)" height="37.6094" style="stroke: #000000; stroke-width: 1.5;" width="112" x="114.5" y="217"/><text fill="#000000" font-family="sans-serif" font-size="14" lengthAdjust="spacingAndGlyphs" textLength="92" x="124.5" y="241.5332">PhysicalProfile</text><!--entity Hardware--><rect fill="#ADD8E6" filter="url(#fd0wuh7w1fnod)" height="37.6094" style="stroke: #000000; stroke-width: 1.5;" width="80" x="261.5" y="217"/><text fill="#000000" font-family="sans-serif" font-size="14" lengthAdjust="spacingAndGlyphs" textLength="60" x="271.5" y="241.5332">Hardware</text><!--entity ServiceInstance--><rect fill="#ADD8E6" filter="url(#fd0wuh7w1fnod)" height="37.6094" style="stroke: #000000; stroke-width: 1.5;" width="120" x="376.5" y="217"/><text fill="#000000" font-family="sans-serif" font-size="14" lengthAdjust="spacingAndGlyphs" textLength="100" x="386.5" y="241.5332">ServiceInstance</text><!--entity Cloud--><rect fill="#ADD8E6" filter="url(#fd0wuh7w1fnod)" height="37.6094" style="stroke: #000000; stroke-width: 1.5;" width="57" x="532" y="217"/><text fill="#000000" font-family="sans-serif" font-size="14" lengthAdjust="spacingAndGlyphs" textLength="37" x="542" y="241.5332">Cloud</text><!--class Model--><rect fill="#FEFECE" filter="url(#fd0wuh7w1fnod)" height="131.0156" id="Model" style="stroke: #A80036; stroke-width: 1.5;" width="147" x="228" y="8"/><ellipse cx="243" cy="24" fill="#ADD1B2" rx="11" ry="11" style="stroke: #A80036; stroke-width: 1.0;"/><path d="M245.7656,19.875 Q245.9219,19.6563 246.1094,19.5469 Q246.2969,19.4375 246.5156,19.4375 Q246.8906,19.4375 247.125,19.7031 Q247.3594,19.9531 247.3594,20.5625 L247.3594,22.0156 Q247.3594,22.625 247.125,22.8906 Q246.8906,23.1563 246.5156,23.1563 Q246.1719,23.1563 245.9688,22.9531 Q245.7656,22.7656 245.6563,22.25 Q245.6094,21.8906 245.4219,21.7031 Q245.0938,21.3281 244.4844,21.1094 Q243.875,20.8906 243.25,20.8906 Q242.4844,20.8906 241.8438,21.2188 Q241.2188,21.5469 240.7188,22.2969 Q240.2344,23.0469 240.2344,24.0781 L240.2344,25.1719 Q240.2344,26.4063 241.125,27.2344 Q242.0156,28.0469 243.6094,28.0469 Q244.5469,28.0469 245.2031,27.7969 Q245.5938,27.6406 246.0156,27.2031 Q246.2813,26.9375 246.4219,26.8594 Q246.5781,26.7813 246.7813,26.7813 Q247.1094,26.7813 247.3594,27.0469 Q247.625,27.2969 247.625,27.6406 Q247.625,27.9844 247.2813,28.3906 Q246.7813,28.9688 245.9844,29.2969 Q244.9063,29.75 243.6094,29.75 Q242.0938,29.75 240.8906,29.125 Q239.9063,28.625 239.2188,27.5625 Q238.5313,26.4844 238.5313,25.2031 L238.5313,24.0469 Q238.5313,22.7188 239.1406,21.5781 Q239.7656,20.4219 240.8594,19.8125 Q241.9531,19.1875 243.1875,19.1875 Q243.9219,19.1875 244.5625,19.3594 Q245.2188,19.5156 245.7656,19.875 Z "/><text fill="#000000" font-family="sans-serif" font-size="12" lengthAdjust="spacingAndGlyphs" textLength="115" x="257" y="28.9102">AcceleratorResource</text><line style="stroke: #A80036; stroke-width: 1.5;" x1="229" x2="374" y1="40" y2="40"/><text fill="#000000" font-family="sans-serif" font-size="11" lengthAdjust="spacingAndGlyphs" textLength="56" x="234" y="55.4189">string name</text><text fill="#000000" font-family="sans-serif" font-size="11" lengthAdjust="spacingAndGlyphs" textLength="62" x="234" y="69.2549">string ename</text><text fill="#000000" font-family="sans-serif" font-size="11" lengthAdjust="spacingAndGlyphs" textLength="81" x="234" y="83.0908">boolean disabled</text><text fill="#000000" font-family="sans-serif" font-size="11" lengthAdjust="spacingAndGlyphs" textLength="51" x="234" y="96.9268">string type</text><line style="stroke: #A80036; stroke-width: 1.5;" x1="229" x2="374" y1="103.3438" y2="103.3438"/><text fill="#000000" font-family="sans-serif" font-size="11" lengthAdjust="spacingAndGlyphs" textLength="43" x="234" y="118.7627">factory()</text><text fill="#000000" font-family="sans-serif" font-size="11" lengthAdjust="spacingAndGlyphs" textLength="52" x="234" y="132.5986">provision()</text><!--link Model to Request--><path d="M216.822,126.974 C171.913,154.804 118.8,187.7174 83.1041,209.838 " fill="none" id="Model-Request" style="stroke: #A80036; stroke-width: 1.0;"/><polygon fill="#A80036" points="71.7032,216.903,81.4604,215.5624,75.9533,214.2693,77.2464,208.7622,71.7032,216.903" style="stroke: #A80036; stroke-width: 1.0;"/><line style="stroke: #A80036; stroke-width: 1.0;" x1="75.9533" x2="82.7535" y1="214.2693" y2="210.0552"/><polygon fill="#FFFFFF" points="227.974,120.064,220.7669,119.8242,217.7736,126.3847,224.9807,126.6245,227.974,120.064" style="stroke: #A80036; stroke-width: 1.0;"/><text fill="#000000" font-family="sans-serif" font-size="13" lengthAdjust="spacingAndGlyphs" textLength="43" x="150.5" y="183.4951">request</text><text fill="#000000" font-family="sans-serif" font-size="13" lengthAdjust="spacingAndGlyphs" textLength="7" x="72.5748" y="206.2133">1</text><!--link Model to PhysicalProfile--><path d="M240.216,149.585 C223.642,169.8911 206.707,190.6399 193.678,206.6022 " fill="none" id="Model-PhysicalProfile" style="stroke: #A80036; stroke-width: 1.0;"/><polygon fill="#A80036" points="185.335,216.824,194.1247,212.3808,188.4966,212.9504,187.9269,207.3223,185.335,216.824" style="stroke: #A80036; stroke-width: 1.0;"/><line style="stroke: #A80036; stroke-width: 1.0;" x1="188.4966" x2="193.555" y1="212.9504" y2="206.7528"/><polygon fill="#A80036" points="248.595,139.319,241.7023,141.4381,241.0074,148.6156,247.9001,146.4965,248.595,139.319" style="stroke: #A80036; stroke-width: 1.0;"/><text fill="#000000" font-family="sans-serif" font-size="13" lengthAdjust="spacingAndGlyphs" textLength="34" x="225.5" y="183.4951">profile</text><text fill="#000000" font-family="sans-serif" font-size="13" lengthAdjust="spacingAndGlyphs" textLength="7" x="181.8063" y="206.1101">1</text><!--link Model to Hardware--><path d="M301.5,152.587 C301.5,170.6084 301.5,188.7756 301.5,203.4494 " fill="none" id="Model-Hardware" style="stroke: #A80036; stroke-width: 1.0;"/><polygon fill="#A80036" points="301.5,216.824,305.5,207.824,301.5,211.824,297.5,207.824,301.5,216.824" style="stroke: #A80036; stroke-width: 1.0;"/><line style="stroke: #A80036; stroke-width: 1.0;" x1="301.5" x2="301.5" y1="211.824" y2="203.8241"/><polygon fill="#FFFFFF" points="301.5,139.319,297.5,145.319,301.5,151.319,305.5,145.319,301.5,139.319" style="stroke: #A80036; stroke-width: 1.0;"/><text fill="#000000" font-family="sans-serif" font-size="13" lengthAdjust="spacingAndGlyphs" textLength="52" x="302.5" y="183.4951">hardware</text><text fill="#000000" font-family="sans-serif" font-size="13" lengthAdjust="spacingAndGlyphs" textLength="7" x="293.4281" y="206.1101">n</text><!--link Model to ServiceInstance--><path d="M364.656,149.585 C381.736,169.8911 399.188,190.6399 412.614,206.6022 " fill="none" id="Model-ServiceInstance" style="stroke: #A80036; stroke-width: 1.0;"/><polygon fill="#A80036" points="421.212,216.824,418.4798,207.3617,417.9935,212.9976,412.3576,212.5113,421.212,216.824" style="stroke: #A80036; stroke-width: 1.0;"/><line style="stroke: #A80036; stroke-width: 1.0;" x1="417.9935" x2="412.844" y1="212.9976" y2="206.8754"/><polygon fill="#FFFFFF" points="356.021,139.319,356.8217,146.4855,363.7449,148.5028,362.9442,141.3362,356.021,139.319" style="stroke: #A80036; stroke-width: 1.0;"/><text fill="#000000" font-family="sans-serif" font-size="13" lengthAdjust="spacingAndGlyphs" textLength="56" x="394.5" y="183.4951">instances</text><text fill="#000000" font-family="sans-serif" font-size="13" lengthAdjust="spacingAndGlyphs" textLength="7" x="408.4582" y="206.1101">n</text><!--link Model to Cloud--><path d="M386.502,124.497 C410.245,138.69 435.979,154.289 459.5,169 C480.384,182.0615 503.393,197.0495 522.168,209.4382 " fill="none" id="Model-Cloud" style="stroke: #A80036; stroke-width: 1.0;"/><polygon fill="#A80036" points="533.255,216.7756,527.9572,208.473,529.0854,214.0162,523.5422,215.1444,533.255,216.7756" style="stroke: #A80036; stroke-width: 1.0;"/><line style="stroke: #A80036; stroke-width: 1.0;" x1="529.0854" x2="522.414" y1="214.0162" y2="209.6008"/><polygon fill="#FFFFFF" points="375.025,117.652,378.1295,124.1606,385.3315,123.7982,382.227,117.2896,375.025,117.652" style="stroke: #A80036; stroke-width: 1.0;"/><text fill="#000000" font-family="sans-serif" font-size="13" lengthAdjust="spacingAndGlyphs" textLength="31" x="488.5" y="183.4951">cloud</text><text fill="#000000" font-family="sans-serif" font-size="13" lengthAdjust="spacingAndGlyphs" textLength="7" x="516.8393" y="206.0469">1</text><!--
@startuml

class "AcceleratorResource" as Model {
 string name
 string ename
 boolean disabled
 string type

 factory()
 provision()
 
}

rectangle "Request" as Request #lightblue {
}

Model o- -> "1" Request : request


rectangle "PhysicalProfile" as PhysicalProfile #lightblue {
}

Model *- -> "1" PhysicalProfile : profile


rectangle "Hardware" as Hardware #lightblue {
}

Model o- -> "n" Hardware : hardware


rectangle "ServiceInstance" as ServiceInstance #lightblue {
}

Model o- -> "n" ServiceInstance : instances


rectangle "Cloud" as Cloud #lightblue {
}

Model o- -> "1" Cloud : cloud





@enduml

PlantUML version 1.2019.05(Sat Apr 20 09:45:36 PDT 2019)
(GPL source distribution)
Java Runtime: OpenJDK Runtime Environment
JVM: OpenJDK 64-Bit Server VM
Java Version: 12.0.1+12
Operating System: Windows 10
OS Version: 10.0
Default Encoding: Cp1252
Language: en
Country: US
--></g></svg>