<?xml version="1.0" encoding="UTF-8" standalone="no"?><svg xmlns="http://www.w3.org/2000/svg" xmlns:xlink="http://www.w3.org/1999/xlink" contentScriptType="application/ecmascript" contentStyleType="text/css" height="434px" preserveAspectRatio="none" style="width:2309px;height:434px;" version="1.1" viewBox="0 0 2309 434" width="2309px" zoomAndPan="magnify"><defs><filter height="300%" id="f4nbpoy0nqqy3" width="300%" x="-1" y="-1"><feGaussianBlur result="blurOut" stdDeviation="2.0"/><feColorMatrix in="blurOut" result="blurOut2" type="matrix" values="0 0 0 0 0 0 0 0 0 0 0 0 0 0 0 0 0 0 .4 0"/><feOffset dx="4.0" dy="4.0" in="blurOut2" result="blurOut3"/><feBlend in="SourceGraphic" in2="blurOut3" mode="normal"/></filter></defs><g><!--cluster Service Management Layer--><polygon fill="#90EE90" filter="url(#f4nbpoy0nqqy3)" points="1155,306,1352,306,1359,329.6094,1362,329.6094,1362,422,1155,422,1155,306" style="stroke: #000000; stroke-width: 1.5;"/><line style="stroke: #000000; stroke-width: 1.5;" x1="1155" x2="1359" y1="329.6094" y2="329.6094"/><text fill="#000000" font-family="sans-serif" font-size="14" font-weight="bold" lengthAdjust="spacingAndGlyphs" textLength="191" x="1159" y="322.5332">Service Management Layer</text><!--cluster Data Definition Framework--><polygon fill="#FFCC88" filter="url(#f4nbpoy0nqqy3)" points="1394,314,1585,314,1592,337.6094,1659,337.6094,1659,414,1394,414,1394,314" style="stroke: #000000; stroke-width: 1.5;"/><line style="stroke: #000000; stroke-width: 1.5;" x1="1394" x2="1592" y1="337.6094" y2="337.6094"/><text fill="#000000" font-family="sans-serif" font-size="14" font-weight="bold" lengthAdjust="spacingAndGlyphs" textLength="185" x="1398" y="330.5332">Data Definition Framework</text><!--cluster Data Orchestrator--><polygon fill="#ADD8E6" filter="url(#f4nbpoy0nqqy3)" points="1683,314,1814,314,1821,337.6094,1824,337.6094,1824,414,1683,414,1683,314" style="stroke: #000000; stroke-width: 1.5;"/><line style="stroke: #000000; stroke-width: 1.5;" x1="1683" x2="1821" y1="337.6094" y2="337.6094"/><text fill="#000000" font-family="sans-serif" font-size="14" font-weight="bold" lengthAdjust="spacingAndGlyphs" textLength="125" x="1687" y="330.5332">Data Orchestrator</text><!--cluster Federated Meta Data Management--><polygon fill="#ADD8E6" filter="url(#f4nbpoy0nqqy3)" points="1848,314,2096,314,2103,337.6094,2287,337.6094,2287,414,1848,414,1848,314" style="stroke: #000000; stroke-width: 1.5;"/><line style="stroke: #000000; stroke-width: 1.5;" x1="1848" x2="2103" y1="337.6094" y2="337.6094"/><text fill="#000000" font-family="sans-serif" font-size="14" font-weight="bold" lengthAdjust="spacingAndGlyphs" textLength="242" x="1852" y="330.5332">Federated Meta Data Management</text><!--cluster Data Management Layer--><polygon fill="#FFCC88" filter="url(#f4nbpoy0nqqy3)" points="30,73,204,73,211,96.6094,700,96.6094,700,422,30,422,30,73" style="stroke: #000000; stroke-width: 1.5;"/><line style="stroke: #000000; stroke-width: 1.5;" x1="30" x2="211" y1="96.6094" y2="96.6094"/><text fill="#000000" font-family="sans-serif" font-size="14" font-weight="bold" lengthAdjust="spacingAndGlyphs" textLength="168" x="34" y="89.5332">Data Management Layer</text><polygon fill="#FFFFE0" filter="url(#f4nbpoy0nqqy3)" points="724,346.5,952,346.5,959,370.1094,966,370.1094,966,401.7188,724,401.7188,724,346.5" style="stroke: #000000; stroke-width: 1.5;"/><line style="stroke: #000000; stroke-width: 1.5;" x1="724" x2="959" y1="370.1094" y2="370.1094"/><text fill="#000000" font-family="sans-serif" font-size="14" font-weight="bold" lengthAdjust="spacingAndGlyphs" textLength="222" x="728" y="363.0332">Software Defined Infrastructure</text><polygon fill="#FFC0CB" filter="url(#f4nbpoy0nqqy3)" points="1001.5,346.5,1116.5,346.5,1123.5,370.1094,1130.5,370.1094,1130.5,401.7188,1001.5,401.7188,1001.5,346.5" style="stroke: #000000; stroke-width: 1.5;"/><line style="stroke: #000000; stroke-width: 1.5;" x1="1001.5" x2="1123.5" y1="370.1094" y2="370.1094"/><text fill="#000000" font-family="sans-serif" font-size="14" font-weight="bold" lengthAdjust="spacingAndGlyphs" textLength="109" x="1005.5" y="363.0332">Security Aspect</text><!--class Servicelet--><rect fill="#FEFECE" filter="url(#f4nbpoy0nqqy3)" height="48" id="Servicelet" style="stroke: #A80036; stroke-width: 1.5;" width="85" x="1201.5" y="350"/><ellipse cx="1216.5" cy="366" fill="#ADD1B2" rx="11" ry="11" style="stroke: #A80036; stroke-width: 1.0;"/><path d="M1219.2656,361.875 Q1219.4219,361.6563 1219.6094,361.5469 Q1219.7969,361.4375 1220.0156,361.4375 Q1220.3906,361.4375 1220.625,361.7031 Q1220.8594,361.9531 1220.8594,362.5625 L1220.8594,364.0156 Q1220.8594,364.625 1220.625,364.8906 Q1220.3906,365.1563 1220.0156,365.1563 Q1219.6719,365.1563 1219.4688,364.9531 Q1219.2656,364.7656 1219.1563,364.25 Q1219.1094,363.8906 1218.9219,363.7031 Q1218.5938,363.3281 1217.9844,363.1094 Q1217.375,362.8906 1216.75,362.8906 Q1215.9844,362.8906 1215.3438,363.2188 Q1214.7188,363.5469 1214.2188,364.2969 Q1213.7344,365.0469 1213.7344,366.0781 L1213.7344,367.1719 Q1213.7344,368.4063 1214.625,369.2344 Q1215.5156,370.0469 1217.1094,370.0469 Q1218.0469,370.0469 1218.7031,369.7969 Q1219.0938,369.6406 1219.5156,369.2031 Q1219.7813,368.9375 1219.9219,368.8594 Q1220.0781,368.7813 1220.2813,368.7813 Q1220.6094,368.7813 1220.8594,369.0469 Q1221.125,369.2969 1221.125,369.6406 Q1221.125,369.9844 1220.7813,370.3906 Q1220.2813,370.9688 1219.4844,371.2969 Q1218.4063,371.75 1217.1094,371.75 Q1215.5938,371.75 1214.3906,371.125 Q1213.4063,370.625 1212.7188,369.5625 Q1212.0313,368.4844 1212.0313,367.2031 L1212.0313,366.0469 Q1212.0313,364.7188 1212.6406,363.5781 Q1213.2656,362.4219 1214.3594,361.8125 Q1215.4531,361.1875 1216.6875,361.1875 Q1217.4219,361.1875 1218.0625,361.3594 Q1218.7188,361.5156 1219.2656,361.875 Z "/><text fill="#000000" font-family="sans-serif" font-size="12" lengthAdjust="spacingAndGlyphs" textLength="53" x="1230.5" y="370.9102">Servicelet</text><line style="stroke: #A80036; stroke-width: 1.5;" x1="1202.5" x2="1285.5" y1="382" y2="382"/><line style="stroke: #A80036; stroke-width: 1.5;" x1="1202.5" x2="1285.5" y1="390" y2="390"/><!--class DataSource--><rect fill="#FEFECE" filter="url(#f4nbpoy0nqqy3)" height="48" id="DataSource" style="stroke: #A80036; stroke-width: 1.5;" width="97" x="1410.5" y="350"/><ellipse cx="1425.5" cy="366" fill="#ADD1B2" rx="11" ry="11" style="stroke: #A80036; stroke-width: 1.0;"/><path d="M1428.2656,361.875 Q1428.4219,361.6563 1428.6094,361.5469 Q1428.7969,361.4375 1429.0156,361.4375 Q1429.3906,361.4375 1429.625,361.7031 Q1429.8594,361.9531 1429.8594,362.5625 L1429.8594,364.0156 Q1429.8594,364.625 1429.625,364.8906 Q1429.3906,365.1563 1429.0156,365.1563 Q1428.6719,365.1563 1428.4688,364.9531 Q1428.2656,364.7656 1428.1563,364.25 Q1428.1094,363.8906 1427.9219,363.7031 Q1427.5938,363.3281 1426.9844,363.1094 Q1426.375,362.8906 1425.75,362.8906 Q1424.9844,362.8906 1424.3438,363.2188 Q1423.7188,363.5469 1423.2188,364.2969 Q1422.7344,365.0469 1422.7344,366.0781 L1422.7344,367.1719 Q1422.7344,368.4063 1423.625,369.2344 Q1424.5156,370.0469 1426.1094,370.0469 Q1427.0469,370.0469 1427.7031,369.7969 Q1428.0938,369.6406 1428.5156,369.2031 Q1428.7813,368.9375 1428.9219,368.8594 Q1429.0781,368.7813 1429.2813,368.7813 Q1429.6094,368.7813 1429.8594,369.0469 Q1430.125,369.2969 1430.125,369.6406 Q1430.125,369.9844 1429.7813,370.3906 Q1429.2813,370.9688 1428.4844,371.2969 Q1427.4063,371.75 1426.1094,371.75 Q1424.5938,371.75 1423.3906,371.125 Q1422.4063,370.625 1421.7188,369.5625 Q1421.0313,368.4844 1421.0313,367.2031 L1421.0313,366.0469 Q1421.0313,364.7188 1421.6406,363.5781 Q1422.2656,362.4219 1423.3594,361.8125 Q1424.4531,361.1875 1425.6875,361.1875 Q1426.4219,361.1875 1427.0625,361.3594 Q1427.7188,361.5156 1428.2656,361.875 Z "/><text fill="#000000" font-family="sans-serif" font-size="12" lengthAdjust="spacingAndGlyphs" textLength="65" x="1439.5" y="370.9102">DataSource</text><line style="stroke: #A80036; stroke-width: 1.5;" x1="1411.5" x2="1506.5" y1="382" y2="382"/><line style="stroke: #A80036; stroke-width: 1.5;" x1="1411.5" x2="1506.5" y1="390" y2="390"/><!--class DataAdaptor--><rect fill="#FEFECE" filter="url(#f4nbpoy0nqqy3)" height="48" id="DataAdaptor" style="stroke: #A80036; stroke-width: 1.5;" width="100" x="1543" y="350"/><ellipse cx="1558" cy="366" fill="#ADD1B2" rx="11" ry="11" style="stroke: #A80036; stroke-width: 1.0;"/><path d="M1560.7656,361.875 Q1560.9219,361.6563 1561.1094,361.5469 Q1561.2969,361.4375 1561.5156,361.4375 Q1561.8906,361.4375 1562.125,361.7031 Q1562.3594,361.9531 1562.3594,362.5625 L1562.3594,364.0156 Q1562.3594,364.625 1562.125,364.8906 Q1561.8906,365.1563 1561.5156,365.1563 Q1561.1719,365.1563 1560.9688,364.9531 Q1560.7656,364.7656 1560.6563,364.25 Q1560.6094,363.8906 1560.4219,363.7031 Q1560.0938,363.3281 1559.4844,363.1094 Q1558.875,362.8906 1558.25,362.8906 Q1557.4844,362.8906 1556.8438,363.2188 Q1556.2188,363.5469 1555.7188,364.2969 Q1555.2344,365.0469 1555.2344,366.0781 L1555.2344,367.1719 Q1555.2344,368.4063 1556.125,369.2344 Q1557.0156,370.0469 1558.6094,370.0469 Q1559.5469,370.0469 1560.2031,369.7969 Q1560.5938,369.6406 1561.0156,369.2031 Q1561.2813,368.9375 1561.4219,368.8594 Q1561.5781,368.7813 1561.7813,368.7813 Q1562.1094,368.7813 1562.3594,369.0469 Q1562.625,369.2969 1562.625,369.6406 Q1562.625,369.9844 1562.2813,370.3906 Q1561.7813,370.9688 1560.9844,371.2969 Q1559.9063,371.75 1558.6094,371.75 Q1557.0938,371.75 1555.8906,371.125 Q1554.9063,370.625 1554.2188,369.5625 Q1553.5313,368.4844 1553.5313,367.2031 L1553.5313,366.0469 Q1553.5313,364.7188 1554.1406,363.5781 Q1554.7656,362.4219 1555.8594,361.8125 Q1556.9531,361.1875 1558.1875,361.1875 Q1558.9219,361.1875 1559.5625,361.3594 Q1560.2188,361.5156 1560.7656,361.875 Z "/><text fill="#000000" font-family="sans-serif" font-size="12" lengthAdjust="spacingAndGlyphs" textLength="68" x="1572" y="370.9102">DataAdaptor</text><line style="stroke: #A80036; stroke-width: 1.5;" x1="1544" x2="1642" y1="382" y2="382"/><line style="stroke: #A80036; stroke-width: 1.5;" x1="1544" x2="1642" y1="390" y2="390"/><!--class DataInstance--><rect fill="#FEFECE" filter="url(#f4nbpoy0nqqy3)" height="48" id="DataInstance" style="stroke: #A80036; stroke-width: 1.5;" width="105" x="1699.5" y="350"/><ellipse cx="1714.5" cy="366" fill="#ADD1B2" rx="11" ry="11" style="stroke: #A80036; stroke-width: 1.0;"/><path d="M1717.2656,361.875 Q1717.4219,361.6563 1717.6094,361.5469 Q1717.7969,361.4375 1718.0156,361.4375 Q1718.3906,361.4375 1718.625,361.7031 Q1718.8594,361.9531 1718.8594,362.5625 L1718.8594,364.0156 Q1718.8594,364.625 1718.625,364.8906 Q1718.3906,365.1563 1718.0156,365.1563 Q1717.6719,365.1563 1717.4688,364.9531 Q1717.2656,364.7656 1717.1563,364.25 Q1717.1094,363.8906 1716.9219,363.7031 Q1716.5938,363.3281 1715.9844,363.1094 Q1715.375,362.8906 1714.75,362.8906 Q1713.9844,362.8906 1713.3438,363.2188 Q1712.7188,363.5469 1712.2188,364.2969 Q1711.7344,365.0469 1711.7344,366.0781 L1711.7344,367.1719 Q1711.7344,368.4063 1712.625,369.2344 Q1713.5156,370.0469 1715.1094,370.0469 Q1716.0469,370.0469 1716.7031,369.7969 Q1717.0938,369.6406 1717.5156,369.2031 Q1717.7813,368.9375 1717.9219,368.8594 Q1718.0781,368.7813 1718.2813,368.7813 Q1718.6094,368.7813 1718.8594,369.0469 Q1719.125,369.2969 1719.125,369.6406 Q1719.125,369.9844 1718.7813,370.3906 Q1718.2813,370.9688 1717.4844,371.2969 Q1716.4063,371.75 1715.1094,371.75 Q1713.5938,371.75 1712.3906,371.125 Q1711.4063,370.625 1710.7188,369.5625 Q1710.0313,368.4844 1710.0313,367.2031 L1710.0313,366.0469 Q1710.0313,364.7188 1710.6406,363.5781 Q1711.2656,362.4219 1712.3594,361.8125 Q1713.4531,361.1875 1714.6875,361.1875 Q1715.4219,361.1875 1716.0625,361.3594 Q1716.7188,361.5156 1717.2656,361.875 Z "/><text fill="#000000" font-family="sans-serif" font-size="12" lengthAdjust="spacingAndGlyphs" textLength="73" x="1728.5" y="370.9102">DataInstance</text><line style="stroke: #A80036; stroke-width: 1.5;" x1="1700.5" x2="1803.5" y1="382" y2="382"/><line style="stroke: #A80036; stroke-width: 1.5;" x1="1700.5" x2="1803.5" y1="390" y2="390"/><!--class LineageMetaData--><rect fill="#FEFECE" filter="url(#f4nbpoy0nqqy3)" height="48" id="LineageMetaData" style="stroke: #A80036; stroke-width: 1.5;" width="129" x="2022.5" y="350"/><ellipse cx="2037.5" cy="366" fill="#ADD1B2" rx="11" ry="11" style="stroke: #A80036; stroke-width: 1.0;"/><path d="M2040.2656,361.875 Q2040.4219,361.6563 2040.6094,361.5469 Q2040.7969,361.4375 2041.0156,361.4375 Q2041.3906,361.4375 2041.625,361.7031 Q2041.8594,361.9531 2041.8594,362.5625 L2041.8594,364.0156 Q2041.8594,364.625 2041.625,364.8906 Q2041.3906,365.1563 2041.0156,365.1563 Q2040.6719,365.1563 2040.4688,364.9531 Q2040.2656,364.7656 2040.1563,364.25 Q2040.1094,363.8906 2039.9219,363.7031 Q2039.5938,363.3281 2038.9844,363.1094 Q2038.375,362.8906 2037.75,362.8906 Q2036.9844,362.8906 2036.3438,363.2188 Q2035.7188,363.5469 2035.2188,364.2969 Q2034.7344,365.0469 2034.7344,366.0781 L2034.7344,367.1719 Q2034.7344,368.4063 2035.625,369.2344 Q2036.5156,370.0469 2038.1094,370.0469 Q2039.0469,370.0469 2039.7031,369.7969 Q2040.0938,369.6406 2040.5156,369.2031 Q2040.7813,368.9375 2040.9219,368.8594 Q2041.0781,368.7813 2041.2813,368.7813 Q2041.6094,368.7813 2041.8594,369.0469 Q2042.125,369.2969 2042.125,369.6406 Q2042.125,369.9844 2041.7813,370.3906 Q2041.2813,370.9688 2040.4844,371.2969 Q2039.4063,371.75 2038.1094,371.75 Q2036.5938,371.75 2035.3906,371.125 Q2034.4063,370.625 2033.7188,369.5625 Q2033.0313,368.4844 2033.0313,367.2031 L2033.0313,366.0469 Q2033.0313,364.7188 2033.6406,363.5781 Q2034.2656,362.4219 2035.3594,361.8125 Q2036.4531,361.1875 2037.6875,361.1875 Q2038.4219,361.1875 2039.0625,361.3594 Q2039.7188,361.5156 2040.2656,361.875 Z "/><text fill="#000000" font-family="sans-serif" font-size="12" lengthAdjust="spacingAndGlyphs" textLength="97" x="2051.5" y="370.9102">LineageMetaData</text><line style="stroke: #A80036; stroke-width: 1.5;" x1="2023.5" x2="2150.5" y1="382" y2="382"/><line style="stroke: #A80036; stroke-width: 1.5;" x1="2023.5" x2="2150.5" y1="390" y2="390"/><!--class MetaData--><rect fill="#FEFECE" filter="url(#f4nbpoy0nqqy3)" height="48" id="MetaData" style="stroke: #A80036; stroke-width: 1.5;" width="84" x="2187" y="350"/><ellipse cx="2202" cy="366" fill="#ADD1B2" rx="11" ry="11" style="stroke: #A80036; stroke-width: 1.0;"/><path d="M2204.7656,361.875 Q2204.9219,361.6563 2205.1094,361.5469 Q2205.2969,361.4375 2205.5156,361.4375 Q2205.8906,361.4375 2206.125,361.7031 Q2206.3594,361.9531 2206.3594,362.5625 L2206.3594,364.0156 Q2206.3594,364.625 2206.125,364.8906 Q2205.8906,365.1563 2205.5156,365.1563 Q2205.1719,365.1563 2204.9688,364.9531 Q2204.7656,364.7656 2204.6563,364.25 Q2204.6094,363.8906 2204.4219,363.7031 Q2204.0938,363.3281 2203.4844,363.1094 Q2202.875,362.8906 2202.25,362.8906 Q2201.4844,362.8906 2200.8438,363.2188 Q2200.2188,363.5469 2199.7188,364.2969 Q2199.2344,365.0469 2199.2344,366.0781 L2199.2344,367.1719 Q2199.2344,368.4063 2200.125,369.2344 Q2201.0156,370.0469 2202.6094,370.0469 Q2203.5469,370.0469 2204.2031,369.7969 Q2204.5938,369.6406 2205.0156,369.2031 Q2205.2813,368.9375 2205.4219,368.8594 Q2205.5781,368.7813 2205.7813,368.7813 Q2206.1094,368.7813 2206.3594,369.0469 Q2206.625,369.2969 2206.625,369.6406 Q2206.625,369.9844 2206.2813,370.3906 Q2205.7813,370.9688 2204.9844,371.2969 Q2203.9063,371.75 2202.6094,371.75 Q2201.0938,371.75 2199.8906,371.125 Q2198.9063,370.625 2198.2188,369.5625 Q2197.5313,368.4844 2197.5313,367.2031 L2197.5313,366.0469 Q2197.5313,364.7188 2198.1406,363.5781 Q2198.7656,362.4219 2199.8594,361.8125 Q2200.9531,361.1875 2202.1875,361.1875 Q2202.9219,361.1875 2203.5625,361.3594 Q2204.2188,361.5156 2204.7656,361.875 Z "/><text fill="#000000" font-family="sans-serif" font-size="12" lengthAdjust="spacingAndGlyphs" textLength="52" x="2216" y="370.9102">MetaData</text><line style="stroke: #A80036; stroke-width: 1.5;" x1="2188" x2="2270" y1="382" y2="382"/><line style="stroke: #A80036; stroke-width: 1.5;" x1="2188" x2="2270" y1="390" y2="390"/><!--class SourceMetaData--><rect fill="#FEFECE" filter="url(#f4nbpoy0nqqy3)" height="48" id="SourceMetaData" style="stroke: #A80036; stroke-width: 1.5;" width="123" x="1864.5" y="350"/><ellipse cx="1879.5" cy="366" fill="#ADD1B2" rx="11" ry="11" style="stroke: #A80036; stroke-width: 1.0;"/><path d="M1882.2656,361.875 Q1882.4219,361.6563 1882.6094,361.5469 Q1882.7969,361.4375 1883.0156,361.4375 Q1883.3906,361.4375 1883.625,361.7031 Q1883.8594,361.9531 1883.8594,362.5625 L1883.8594,364.0156 Q1883.8594,364.625 1883.625,364.8906 Q1883.3906,365.1563 1883.0156,365.1563 Q1882.6719,365.1563 1882.4688,364.9531 Q1882.2656,364.7656 1882.1563,364.25 Q1882.1094,363.8906 1881.9219,363.7031 Q1881.5938,363.3281 1880.9844,363.1094 Q1880.375,362.8906 1879.75,362.8906 Q1878.9844,362.8906 1878.3438,363.2188 Q1877.7188,363.5469 1877.2188,364.2969 Q1876.7344,365.0469 1876.7344,366.0781 L1876.7344,367.1719 Q1876.7344,368.4063 1877.625,369.2344 Q1878.5156,370.0469 1880.1094,370.0469 Q1881.0469,370.0469 1881.7031,369.7969 Q1882.0938,369.6406 1882.5156,369.2031 Q1882.7813,368.9375 1882.9219,368.8594 Q1883.0781,368.7813 1883.2813,368.7813 Q1883.6094,368.7813 1883.8594,369.0469 Q1884.125,369.2969 1884.125,369.6406 Q1884.125,369.9844 1883.7813,370.3906 Q1883.2813,370.9688 1882.4844,371.2969 Q1881.4063,371.75 1880.1094,371.75 Q1878.5938,371.75 1877.3906,371.125 Q1876.4063,370.625 1875.7188,369.5625 Q1875.0313,368.4844 1875.0313,367.2031 L1875.0313,366.0469 Q1875.0313,364.7188 1875.6406,363.5781 Q1876.2656,362.4219 1877.3594,361.8125 Q1878.4531,361.1875 1879.6875,361.1875 Q1880.4219,361.1875 1881.0625,361.3594 Q1881.7188,361.5156 1882.2656,361.875 Z "/><text fill="#000000" font-family="sans-serif" font-size="12" lengthAdjust="spacingAndGlyphs" textLength="91" x="1893.5" y="370.9102">SourceMetaData</text><line style="stroke: #A80036; stroke-width: 1.5;" x1="1865.5" x2="1986.5" y1="382" y2="382"/><line style="stroke: #A80036; stroke-width: 1.5;" x1="1865.5" x2="1986.5" y1="390" y2="390"/><!--class i--><rect fill="#FEFECE" filter="url(#f4nbpoy0nqqy3)" height="117.1797" id="i" style="stroke: #A80036; stroke-width: 1.5;" width="201" x="455.5" y="117"/><ellipse cx="485.8" cy="133" fill="#B4A7E5" rx="11" ry="11" style="stroke: #A80036; stroke-width: 1.0;"/><path d="M486.7531,129.6406 L486.7531,136.2969 L488.4719,136.2969 Q489.0813,136.2969 489.3469,136.5313 Q489.6125,136.7656 489.6125,137.1563 Q489.6125,137.5313 489.3469,137.7656 Q489.0813,138 488.4719,138 L483.3313,138 Q482.7219,138 482.4563,137.7656 Q482.1906,137.5313 482.1906,137.1406 Q482.1906,136.7656 482.4563,136.5313 Q482.7219,136.2969 483.3313,136.2969 L485.05,136.2969 L485.05,129.6406 L483.3313,129.6406 Q482.7219,129.6406 482.4563,129.4063 Q482.1906,129.1719 482.1906,128.7813 Q482.1906,128.4063 482.4563,128.1719 Q482.7219,127.9375 483.3313,127.9375 L488.4719,127.9375 Q489.0813,127.9375 489.3469,128.1719 Q489.6125,128.4063 489.6125,128.7813 Q489.6125,129.1719 489.3469,129.4063 Q489.0813,129.6406 488.4719,129.6406 L486.7531,129.6406 Z "/><text fill="#000000" font-family="sans-serif" font-size="12" font-style="italic" lengthAdjust="spacingAndGlyphs" textLength="135" x="503.2" y="137.9102">Data Management Layer</text><line style="stroke: #A80036; stroke-width: 1.5;" x1="456.5" x2="655.5" y1="149" y2="149"/><line style="stroke: #A80036; stroke-width: 1.5;" x1="456.5" x2="655.5" y1="157" y2="157"/><text fill="#000000" font-family="sans-serif" font-size="11" lengthAdjust="spacingAndGlyphs" textLength="160" x="461.5" y="172.4189">/edgemere/diml/dml/data/govern()</text><text fill="#000000" font-family="sans-serif" font-size="11" lengthAdjust="spacingAndGlyphs" textLength="189" x="461.5" y="186.2549">/edgemere/diml/dml/data/source/name()</text><text fill="#000000" font-family="sans-serif" font-size="11" lengthAdjust="spacingAndGlyphs" textLength="167" x="461.5" y="200.0908">/edgemere/diml/dml/datapolicy/list()</text><text fill="#000000" font-family="sans-serif" font-size="11" lengthAdjust="spacingAndGlyphs" textLength="173" x="461.5" y="213.9268">/edgemere/diml/dml/datasource/list()</text><text fill="#000000" font-family="sans-serif" font-size="11" lengthAdjust="spacingAndGlyphs" textLength="179" x="461.5" y="227.7627">/edgemere/diml/dml/datastrategy/list()</text><!--class Data--><rect fill="#FEFECE" filter="url(#f4nbpoy0nqqy3)" height="75.6719" id="Data" style="stroke: #A80036; stroke-width: 1.5;" width="78" x="342" y="137.5"/><ellipse cx="366" cy="153.5" fill="#ADD1B2" rx="11" ry="11" style="stroke: #A80036; stroke-width: 1.0;"/><path d="M368.7656,149.375 Q368.9219,149.1563 369.1094,149.0469 Q369.2969,148.9375 369.5156,148.9375 Q369.8906,148.9375 370.125,149.2031 Q370.3594,149.4531 370.3594,150.0625 L370.3594,151.5156 Q370.3594,152.125 370.125,152.3906 Q369.8906,152.6563 369.5156,152.6563 Q369.1719,152.6563 368.9688,152.4531 Q368.7656,152.2656 368.6563,151.75 Q368.6094,151.3906 368.4219,151.2031 Q368.0938,150.8281 367.4844,150.6094 Q366.875,150.3906 366.25,150.3906 Q365.4844,150.3906 364.8438,150.7188 Q364.2188,151.0469 363.7188,151.7969 Q363.2344,152.5469 363.2344,153.5781 L363.2344,154.6719 Q363.2344,155.9063 364.125,156.7344 Q365.0156,157.5469 366.6094,157.5469 Q367.5469,157.5469 368.2031,157.2969 Q368.5938,157.1406 369.0156,156.7031 Q369.2813,156.4375 369.4219,156.3594 Q369.5781,156.2813 369.7813,156.2813 Q370.1094,156.2813 370.3594,156.5469 Q370.625,156.7969 370.625,157.1406 Q370.625,157.4844 370.2813,157.8906 Q369.7813,158.4688 368.9844,158.7969 Q367.9063,159.25 366.6094,159.25 Q365.0938,159.25 363.8906,158.625 Q362.9063,158.125 362.2188,157.0625 Q361.5313,155.9844 361.5313,154.7031 L361.5313,153.5469 Q361.5313,152.2188 362.1406,151.0781 Q362.7656,149.9219 363.8594,149.3125 Q364.9531,148.6875 366.1875,148.6875 Q366.9219,148.6875 367.5625,148.8594 Q368.2188,149.0156 368.7656,149.375 Z "/><text fill="#000000" font-family="sans-serif" font-size="12" lengthAdjust="spacingAndGlyphs" textLength="26" x="382" y="158.4102">Data</text><line style="stroke: #A80036; stroke-width: 1.5;" x1="343" x2="419" y1="169.5" y2="169.5"/><text fill="#000000" font-family="sans-serif" font-size="11" lengthAdjust="spacingAndGlyphs" textLength="56" x="348" y="184.9189">string name</text><text fill="#000000" font-family="sans-serif" font-size="11" lengthAdjust="spacingAndGlyphs" textLength="66" x="348" y="198.7549">string access</text><line style="stroke: #A80036; stroke-width: 1.5;" x1="343" x2="419" y1="205.1719" y2="205.1719"/><!--class DataReference--><rect fill="#FEFECE" filter="url(#f4nbpoy0nqqy3)" height="103.3438" id="DataReference" style="stroke: #A80036; stroke-width: 1.5;" width="115" x="191.5" y="124"/><ellipse cx="206.5" cy="140" fill="#ADD1B2" rx="11" ry="11" style="stroke: #A80036; stroke-width: 1.0;"/><path d="M209.2656,135.875 Q209.4219,135.6563 209.6094,135.5469 Q209.7969,135.4375 210.0156,135.4375 Q210.3906,135.4375 210.625,135.7031 Q210.8594,135.9531 210.8594,136.5625 L210.8594,138.0156 Q210.8594,138.625 210.625,138.8906 Q210.3906,139.1563 210.0156,139.1563 Q209.6719,139.1563 209.4688,138.9531 Q209.2656,138.7656 209.1563,138.25 Q209.1094,137.8906 208.9219,137.7031 Q208.5938,137.3281 207.9844,137.1094 Q207.375,136.8906 206.75,136.8906 Q205.9844,136.8906 205.3438,137.2188 Q204.7188,137.5469 204.2188,138.2969 Q203.7344,139.0469 203.7344,140.0781 L203.7344,141.1719 Q203.7344,142.4063 204.625,143.2344 Q205.5156,144.0469 207.1094,144.0469 Q208.0469,144.0469 208.7031,143.7969 Q209.0938,143.6406 209.5156,143.2031 Q209.7813,142.9375 209.9219,142.8594 Q210.0781,142.7813 210.2813,142.7813 Q210.6094,142.7813 210.8594,143.0469 Q211.125,143.2969 211.125,143.6406 Q211.125,143.9844 210.7813,144.3906 Q210.2813,144.9688 209.4844,145.2969 Q208.4063,145.75 207.1094,145.75 Q205.5938,145.75 204.3906,145.125 Q203.4063,144.625 202.7188,143.5625 Q202.0313,142.4844 202.0313,141.2031 L202.0313,140.0469 Q202.0313,138.7188 202.6406,137.5781 Q203.2656,136.4219 204.3594,135.8125 Q205.4531,135.1875 206.6875,135.1875 Q207.4219,135.1875 208.0625,135.3594 Q208.7188,135.5156 209.2656,135.875 Z "/><text fill="#000000" font-family="sans-serif" font-size="12" lengthAdjust="spacingAndGlyphs" textLength="83" x="220.5" y="144.9102">DataReference</text><line style="stroke: #A80036; stroke-width: 1.5;" x1="192.5" x2="305.5" y1="156" y2="156"/><text fill="#000000" font-family="sans-serif" font-size="11" lengthAdjust="spacingAndGlyphs" textLength="56" x="197.5" y="171.4189">string name</text><text fill="#000000" font-family="sans-serif" font-size="11" lengthAdjust="spacingAndGlyphs" textLength="82" x="197.5" y="185.2549">string shortName</text><text fill="#000000" font-family="sans-serif" font-size="11" lengthAdjust="spacingAndGlyphs" textLength="51" x="197.5" y="199.0908">json query</text><text fill="#000000" font-family="sans-serif" font-size="11" lengthAdjust="spacingAndGlyphs" textLength="83" x="197.5" y="212.9268">string connection</text><line style="stroke: #A80036; stroke-width: 1.5;" x1="192.5" x2="305.5" y1="219.3438" y2="219.3438"/><!--class DataStrategy--><rect fill="#FEFECE" filter="url(#f4nbpoy0nqqy3)" height="61.8359" id="DataStrategy" style="stroke: #A80036; stroke-width: 1.5;" width="102" x="54" y="144.5"/><ellipse cx="69" cy="160.5" fill="#ADD1B2" rx="11" ry="11" style="stroke: #A80036; stroke-width: 1.0;"/><path d="M71.7656,156.375 Q71.9219,156.1563 72.1094,156.0469 Q72.2969,155.9375 72.5156,155.9375 Q72.8906,155.9375 73.125,156.2031 Q73.3594,156.4531 73.3594,157.0625 L73.3594,158.5156 Q73.3594,159.125 73.125,159.3906 Q72.8906,159.6563 72.5156,159.6563 Q72.1719,159.6563 71.9688,159.4531 Q71.7656,159.2656 71.6563,158.75 Q71.6094,158.3906 71.4219,158.2031 Q71.0938,157.8281 70.4844,157.6094 Q69.875,157.3906 69.25,157.3906 Q68.4844,157.3906 67.8438,157.7188 Q67.2188,158.0469 66.7188,158.7969 Q66.2344,159.5469 66.2344,160.5781 L66.2344,161.6719 Q66.2344,162.9063 67.125,163.7344 Q68.0156,164.5469 69.6094,164.5469 Q70.5469,164.5469 71.2031,164.2969 Q71.5938,164.1406 72.0156,163.7031 Q72.2813,163.4375 72.4219,163.3594 Q72.5781,163.2813 72.7813,163.2813 Q73.1094,163.2813 73.3594,163.5469 Q73.625,163.7969 73.625,164.1406 Q73.625,164.4844 73.2813,164.8906 Q72.7813,165.4688 71.9844,165.7969 Q70.9063,166.25 69.6094,166.25 Q68.0938,166.25 66.8906,165.625 Q65.9063,165.125 65.2188,164.0625 Q64.5313,162.9844 64.5313,161.7031 L64.5313,160.5469 Q64.5313,159.2188 65.1406,158.0781 Q65.7656,156.9219 66.8594,156.3125 Q67.9531,155.6875 69.1875,155.6875 Q69.9219,155.6875 70.5625,155.8594 Q71.2188,156.0156 71.7656,156.375 Z "/><text fill="#000000" font-family="sans-serif" font-size="12" lengthAdjust="spacingAndGlyphs" textLength="70" x="83" y="165.4102">DataStrategy</text><line style="stroke: #A80036; stroke-width: 1.5;" x1="55" x2="155" y1="176.5" y2="176.5"/><text fill="#000000" font-family="sans-serif" font-size="11" lengthAdjust="spacingAndGlyphs" textLength="52" x="60" y="191.9189">string attr1</text><line style="stroke: #A80036; stroke-width: 1.5;" x1="55" x2="155" y1="198.3359" y2="198.3359"/><!--class ModelName--><rect fill="#FEFECE" filter="url(#f4nbpoy0nqqy3)" height="48" id="ModelName" style="stroke: #A80036; stroke-width: 1.5;" width="99" x="55.5" y="350"/><ellipse cx="70.5" cy="366" fill="#ADD1B2" rx="11" ry="11" style="stroke: #A80036; stroke-width: 1.0;"/><path d="M73.2656,361.875 Q73.4219,361.6563 73.6094,361.5469 Q73.7969,361.4375 74.0156,361.4375 Q74.3906,361.4375 74.625,361.7031 Q74.8594,361.9531 74.8594,362.5625 L74.8594,364.0156 Q74.8594,364.625 74.625,364.8906 Q74.3906,365.1563 74.0156,365.1563 Q73.6719,365.1563 73.4688,364.9531 Q73.2656,364.7656 73.1563,364.25 Q73.1094,363.8906 72.9219,363.7031 Q72.5938,363.3281 71.9844,363.1094 Q71.375,362.8906 70.75,362.8906 Q69.9844,362.8906 69.3438,363.2188 Q68.7188,363.5469 68.2188,364.2969 Q67.7344,365.0469 67.7344,366.0781 L67.7344,367.1719 Q67.7344,368.4063 68.625,369.2344 Q69.5156,370.0469 71.1094,370.0469 Q72.0469,370.0469 72.7031,369.7969 Q73.0938,369.6406 73.5156,369.2031 Q73.7813,368.9375 73.9219,368.8594 Q74.0781,368.7813 74.2813,368.7813 Q74.6094,368.7813 74.8594,369.0469 Q75.125,369.2969 75.125,369.6406 Q75.125,369.9844 74.7813,370.3906 Q74.2813,370.9688 73.4844,371.2969 Q72.4063,371.75 71.1094,371.75 Q69.5938,371.75 68.3906,371.125 Q67.4063,370.625 66.7188,369.5625 Q66.0313,368.4844 66.0313,367.2031 L66.0313,366.0469 Q66.0313,364.7188 66.6406,363.5781 Q67.2656,362.4219 68.3594,361.8125 Q69.4531,361.1875 70.6875,361.1875 Q71.4219,361.1875 72.0625,361.3594 Q72.7188,361.5156 73.2656,361.875 Z "/><text fill="#000000" font-family="sans-serif" font-size="12" lengthAdjust="spacingAndGlyphs" textLength="67" x="84.5" y="370.9102">ModelName</text><line style="stroke: #A80036; stroke-width: 1.5;" x1="56.5" x2="153.5" y1="382" y2="382"/><line style="stroke: #A80036; stroke-width: 1.5;" x1="56.5" x2="153.5" y1="390" y2="390"/><ellipse cx="511" cy="13" fill="#FEFECE" filter="url(#f4nbpoy0nqqy3)" rx="5" ry="5" style="stroke: #A80036; stroke-width: 1.5;"/><text fill="#000000" font-family="sans-serif" font-size="12" lengthAdjust="spacingAndGlyphs" textLength="19" x="501.5" y="30.457">CLI</text><ellipse cx="556" cy="13" fill="#FEFECE" filter="url(#f4nbpoy0nqqy3)" rx="5" ry="5" style="stroke: #A80036; stroke-width: 1.5;"/><text fill="#000000" font-family="sans-serif" font-size="12" lengthAdjust="spacingAndGlyphs" textLength="32" x="540" y="30.457">REST</text><ellipse cx="601" cy="13" fill="#FEFECE" filter="url(#f4nbpoy0nqqy3)" rx="5" ry="5" style="stroke: #A80036; stroke-width: 1.5;"/><text fill="#000000" font-family="sans-serif" font-size="12" lengthAdjust="spacingAndGlyphs" textLength="25" x="588.5" y="30.457">Web</text><!--link ilol6558 to i--><path d="M512.112,17.967 C515.943,31.629 528.947,78.011 539.814,116.768 " fill="none" id="ilol6558-i" style="stroke: #A80036; stroke-width: 1.0;"/><!--link ilol6561 to i--><path d="M556,18.293 C556,32.351 556,78.31 556,116.765 " fill="none" id="ilol6561-i" style="stroke: #A80036; stroke-width: 1.0;"/><!--link ilol6564 to i--><path d="M599.888,17.967 C596.057,31.629 583.053,78.011 572.186,116.768 " fill="none" id="ilol6564-i" style="stroke: #A80036; stroke-width: 1.0;"/><!--link Data to DataSource--><path d="M365.291,226.663 C362.384,246.43 363.887,267.765 378,282 C387.045,291.124 1290.55,286.836 1303,290 C1343.87,300.383 1385.82,323.541 1415.91,342.764 " fill="none" id="Data-DataSource" style="stroke: #A80036; stroke-width: 1.0;"/><polygon fill="#A80036" points="1426.83,349.9039,1421.4856,341.6312,1422.6449,347.168,1417.1081,348.3274,1426.83,349.9039" style="stroke: #A80036; stroke-width: 1.0;"/><line style="stroke: #A80036; stroke-width: 1.0;" x1="1422.6449" x2="1415.95" y1="347.168" y2="342.792"/><polygon fill="#FFFFFF" points="367.827,213.663,362.7518,218.7857,365.5284,225.4408,370.6036,220.3181,367.827,213.663" style="stroke: #A80036; stroke-width: 1.0;"/><text fill="#000000" font-family="sans-serif" font-size="13" lengthAdjust="spacingAndGlyphs" textLength="39" x="379" y="278.4951">source</text><text fill="#000000" font-family="sans-serif" font-size="13" lengthAdjust="spacingAndGlyphs" textLength="7" x="1410.6896" y="339.2196">1</text><!--link Data to DataAdaptor--><path d="M403.876,225.12 C416.79,246.677 435.168,269.869 459,282 C485.39,295.433 1498.28,277.228 1525,290 C1546.23,300.15 1563.07,320.494 1574.68,338.5 " fill="none" id="Data-DataAdaptor" style="stroke: #A80036; stroke-width: 1.0;"/><polygon fill="#A80036" points="1581.54,349.8636,1580.3036,340.0927,1578.9518,345.5856,1573.4588,344.2338,1581.54,349.8636" style="stroke: #A80036; stroke-width: 1.0;"/><line style="stroke: #A80036; stroke-width: 1.0;" x1="1578.9518" x2="1574.82" y1="345.5856" y2="338.7375"/><polygon fill="#FFFFFF" points="397.443,213.729,396.9105,220.9204,403.3439,224.1779,403.8764,216.9865,397.443,213.729" style="stroke: #A80036; stroke-width: 1.0;"/><text fill="#000000" font-family="sans-serif" font-size="13" lengthAdjust="spacingAndGlyphs" textLength="43" x="460" y="278.4951">adaptor</text><text fill="#000000" font-family="sans-serif" font-size="13" lengthAdjust="spacingAndGlyphs" textLength="7" x="1570.7065" y="339.1693">1</text><!--link Data to DataInstance--><path d="M423.6,222.846 C428.258,226.864 433.095,230.664 438,234 C465.987,253.037 477.294,249.759 508,264 C524.228,271.527 526.605,277.828 544,282 C574.119,289.224 1630.1,278.86 1659,290 C1685.24,300.114 1708.8,321.343 1725.64,339.8 " fill="none" id="Data-DataInstance" style="stroke: #A80036; stroke-width: 1.0;"/><polygon fill="#A80036" points="1734.28,349.6793,1731.3659,340.2714,1730.9883,345.9157,1725.3441,345.5381,1734.28,349.6793" style="stroke: #A80036; stroke-width: 1.0;"/><line style="stroke: #A80036; stroke-width: 1.0;" x1="1730.9883" x2="1725.725" y1="345.9157" y2="339.8935"/><polygon fill="#FFFFFF" points="413.732,213.793,415.4499,220.7965,422.5753,221.9044,420.8575,214.9009,413.732,213.793" style="stroke: #A80036; stroke-width: 1.0;"/><text fill="#000000" font-family="sans-serif" font-size="13" lengthAdjust="spacingAndGlyphs" textLength="56" x="545" y="278.4951">instances</text><text fill="#000000" font-family="sans-serif" font-size="13" lengthAdjust="spacingAndGlyphs" textLength="7" x="1722.1076" y="339.3387">n</text><!--link Data to LineageMetaData--><path d="M420.452,222.683 C425.941,227.093 431.829,231.022 438,234 C547.933,287.05 593.913,229.499 711,264 C728.159,269.056 729.603,277.835 747,282 C780.985,290.137 1972.8,276.427 2005,290 C2029.03,300.128 2049.63,321.059 2064.17,339.367 " fill="none" id="Data-LineageMetaData" style="stroke: #A80036; stroke-width: 1.0;"/><polygon fill="#A80036" points="2072.01,349.7411,2069.7746,340.1493,2068.9953,345.7522,2063.3923,344.9729,2072.01,349.7411" style="stroke: #A80036; stroke-width: 1.0;"/><line style="stroke: #A80036; stroke-width: 1.0;" x1="2068.9953" x2="2064.17" y1="345.7522" y2="339.3705"/><polygon fill="#A80036" points="410.419,213.734,412.2342,220.7129,419.3744,221.7215,417.5592,214.7426,410.419,213.734" style="stroke: #A80036; stroke-width: 1.0;"/><text fill="#000000" font-family="sans-serif" font-size="13" lengthAdjust="spacingAndGlyphs" textLength="41" x="748" y="278.4951">lineage</text><text fill="#000000" font-family="sans-serif" font-size="13" lengthAdjust="spacingAndGlyphs" textLength="7" x="2060.2719" y="339.0148">n</text><!--link Data to MetaData--><path d="M419.388,222.485 C425.152,227.091 431.396,231.122 438,234 C614.404,310.892 1999.08,199.672 2169,290 C2188.52,300.375 2203.23,320.246 2213.2,337.943 " fill="none" id="Data-MetaData" style="stroke: #A80036; stroke-width: 1.0;"/><polygon fill="#A80036" points="2219.34,349.705,2218.7198,339.8757,2217.0256,345.2729,2211.6284,343.5787,2219.34,349.705" style="stroke: #A80036; stroke-width: 1.0;"/><line style="stroke: #A80036; stroke-width: 1.0;" x1="2217.0256" x2="2213.325" y1="345.2729" y2="338.183"/><polygon fill="#A80036" points="409.558,213.698,411.3651,220.679,418.5041,221.696,416.697,214.7149,409.558,213.698" style="stroke: #A80036; stroke-width: 1.0;"/><text fill="#000000" font-family="sans-serif" font-size="13" lengthAdjust="spacingAndGlyphs" textLength="54" x="2143" y="278.4951">metadata</text><text fill="#000000" font-family="sans-serif" font-size="13" lengthAdjust="spacingAndGlyphs" textLength="7" x="2208.9678" y="338.9696">n</text><!--link Data to SourceMetaData--><path d="M420.86,222.446 C426.254,226.861 432.008,230.856 438,234 C505.163,269.243 534.007,240.128 606,264 C622.979,269.63 624.604,277.831 642,282 C673.849,289.633 1790.1,279.145 1821,290 C1849.75,300.1 1876.6,321.633 1895.95,340.235 " fill="none" id="Data-SourceMetaData" style="stroke: #A80036; stroke-width: 1.0;"/><polygon fill="#A80036" points="1905.36,349.6195,1901.8159,340.4304,1901.8212,346.0873,1896.1643,346.0925,1905.36,349.6195" style="stroke: #A80036; stroke-width: 1.0;"/><line style="stroke: #A80036; stroke-width: 1.0;" x1="1901.8212" x2="1896.155" y1="346.0873" y2="340.438"/><polygon fill="#A80036" points="410.964,213.553,412.7526,220.5388,419.8889,221.5746,418.1003,214.5888,410.964,213.553" style="stroke: #A80036; stroke-width: 1.0;"/><text fill="#000000" font-family="sans-serif" font-size="13" lengthAdjust="spacingAndGlyphs" textLength="63" x="643" y="278.4951">connection</text><text fill="#000000" font-family="sans-serif" font-size="13" lengthAdjust="spacingAndGlyphs" textLength="7" x="1892.4759" y="339.2641">n</text><!--link DataReference to DataInstance--><path d="M266.939,239.263 C274.892,256.012 286.165,272.17 302,282 C334.026,301.882 1623.82,276.465 1659,290 C1685.24,300.097 1708.81,321.327 1725.65,339.787 " fill="none" id="DataReference-DataInstance" style="stroke: #A80036; stroke-width: 1.0;"/><polygon fill="#A80036" points="1734.29,349.6698,1731.3775,340.2614,1730.999,345.9056,1725.3548,345.5271,1734.29,349.6698" style="stroke: #A80036; stroke-width: 1.0;"/><line style="stroke: #A80036; stroke-width: 1.0;" x1="1730.999" x2="1725.735" y1="345.9056" y2="339.8825"/><polygon fill="#A80036" points="261.716,227.045,260.3963,234.1343,266.4327,238.0792,267.7524,230.9899,261.716,227.045" style="stroke: #A80036; stroke-width: 1.0;"/><text fill="#000000" font-family="sans-serif" font-size="13" lengthAdjust="spacingAndGlyphs" textLength="56" x="303" y="278.4951">instances</text><text fill="#000000" font-family="sans-serif" font-size="13" lengthAdjust="spacingAndGlyphs" textLength="7" x="1730.8263" y="339.3275">n</text><!--link DataReference to Servicelet--><path d="M197.908,238.927 C191.132,254.4 190.072,269.976 202,282 C221.485,301.642 1174.22,275.861 1198,290 C1215.43,300.365 1226.74,319.958 1233.78,337.505 " fill="none" id="DataReference-Servicelet" style="stroke: #A80036; stroke-width: 1.0;"/><polygon fill="#A80036" points="1238.17,349.7592,1238.8964,339.9372,1236.4818,345.0528,1231.3662,342.6382,1238.17,349.7592" style="stroke: #A80036; stroke-width: 1.0;"/><line style="stroke: #A80036; stroke-width: 1.0;" x1="1236.4818" x2="1233.785" y1="345.0528" y2="337.523"/><polygon fill="#FFFFFF" points="204.084,227.174,197.7522,230.6248,198.5023,237.7968,204.8341,234.346,204.084,227.174" style="stroke: #A80036; stroke-width: 1.0;"/><text fill="#000000" font-family="sans-serif" font-size="13" lengthAdjust="spacingAndGlyphs" textLength="36" x="203" y="278.4951">parent</text><text fill="#000000" font-family="sans-serif" font-size="13" lengthAdjust="spacingAndGlyphs" textLength="7" x="1228.7792" y="339.0374">1</text><!--link DataStrategy to ModelName--><path d="M105,219.861 C105,254.902 105,303.659 105,336.672 " fill="none" id="DataStrategy-ModelName" style="stroke: #A80036; stroke-width: 1.0;"/><polygon fill="#A80036" points="105,349.7706,109,340.7706,105,344.7706,101,340.7706,105,349.7706" style="stroke: #A80036; stroke-width: 1.0;"/><line style="stroke: #A80036; stroke-width: 1.0;" x1="105" x2="105.0001" y1="344.7706" y2="336.771"/><polygon fill="#FFFFFF" points="105,206.772,101,212.772,105,218.772,109,212.772,105,206.772" style="stroke: #A80036; stroke-width: 1.0;"/><text fill="#000000" font-family="sans-serif" font-size="13" lengthAdjust="spacingAndGlyphs" textLength="42" x="106" y="278.4951">assoc1</text><text fill="#000000" font-family="sans-serif" font-size="13" lengthAdjust="spacingAndGlyphs" textLength="7" x="97.1031" y="339.0525">1</text><!--link Data Management Layer to Software Defined Infrastructure--><path d="M700.1751,177.1128 C700.3159,177.1255 700.4584,177.1385 700.6025,177.1518 C700.8908,177.1783 701.1855,177.2058 701.4868,177.2343 C702.0892,177.2913 702.7173,177.3524 703.3703,177.4178 C704.6763,177.5486 706.0817,177.6967 707.5797,177.8639 C710.5755,178.1983 713.9414,178.6094 717.6217,179.1128 C732.343,181.1265 752.0957,184.6166 773.3256,190.5795 C815.7855,202.5053 864.1545,224.322 890,264 C905.884,288.386 890.253,319.298 873.208,341.97 " fill="none" id="Data Management Layer-Software Defined Infrastructure" style="stroke: #A80036; stroke-width: 1.0;"/><polygon fill="#A80036" points="870.016,346.1044,878.6826,341.4258,873.0719,342.147,872.3507,336.5363,870.016,346.1044" style="stroke: #A80036; stroke-width: 1.0;"/><!--link Data Management Layer to Security Aspect--><path d="M700.0576,178.2653 C700.2152,178.301 700.3749,178.3372 700.5368,178.374 C700.8606,178.4475 701.1929,178.5233 701.5337,178.6012 C706.9869,179.8478 714.6111,181.6527 723.9655,184.025 C742.6744,188.7697 768.3041,195.7843 797.3285,205.1423 C855.3773,223.8583 927.0045,251.948 984,290 C1005.614,304.43 1026.16,325.243 1041.28,342.417 " fill="none" id="Data Management Layer-Security Aspect" style="stroke: #A80036; stroke-width: 1.0;"/><polygon fill="#A80036" points="1044.61,346.2465,1041.718,336.8318,1041.3272,342.4751,1035.6839,342.0843,1044.61,346.2465" style="stroke: #A80036; stroke-width: 1.0;"/><!--link Data Management Layer to Service Management Layer--><path d="M700.6573,177.4187 C700.901,177.4453 701.1494,177.4725 701.4027,177.5002 C701.9092,177.5557 702.4348,177.6135 702.9793,177.6736 C705.1571,177.9139 707.6362,178.1911 710.3958,178.5051 C721.4343,179.7611 736.9614,181.6057 755.6534,184.0347 C793.0375,188.8928 843.0813,196.0888 895.195,205.5901 C999.4225,224.5928 1111.93,252.8165 1148,290 C1151.1825,293.2808 1153.8581,296.984 1156.103,300.9594 C1156.6642,301.9532 1157.1985,302.9641 1157.707,303.9896 C1157.9613,304.5024 1158.2091,305.0188 1158.4507,305.5386 C1158.5111,305.6685 1158.5711,305.7987 1158.6307,305.929 " fill="none" id="Data Management Layer-Service Management Layer" style="stroke: #A80036; stroke-width: 1.0;"/><polygon fill="#A80036" points="1158.6307,305.929,1158.526,296.0807,1156.5516,301.3818,1151.2505,299.4073,1158.6307,305.929" style="stroke: #A80036; stroke-width: 1.0;"/><!--
@startuml


package "Software Defined Infrastructure" #lightyellow {
    }

package "Security Aspect" #pink {
    }

package "Service Management Layer" #lightgreen {
    
        class Servicelet {
        }
    }

package "Data Definition Framework" #ffcc88 {
    
        class DataSource {
        }
    
        class DataAdaptor {
        }
    }

package "Data Orchestrator" #lightblue {
    
        class DataInstance {
        }
    }

package "Federated Meta Data Management" #lightblue {
    
        class LineageMetaData {
        }
    
        class MetaData {
        }
    
        class SourceMetaData {
        }
    }


package "Data Management Layer" #ffcc88 {

    interface "Data Management Layer" as i {
            /edgemere/diml/dml/data/govern()
            /edgemere/diml/dml/data/source/name()
            /edgemere/diml/dml/datapolicy/list()
            /edgemere/diml/dml/datasource/list()
            /edgemere/diml/dml/datastrategy/list()
    
    }
}

CLI ()- - i
REST ()- - i
Web ()- - i

package "Data Management Layer" #ffcc88 {
        class "Data" {
                 string name
                 string access
                    }
                Data o- -> "1" DataSource : source
                        Data o- -> "1" DataAdaptor : adaptor
                        Data o- -> "n" DataInstance : instances
                        Data *- -> "n" LineageMetaData : lineage
                        Data *- -> "n" MetaData : metadata
                        Data *- -> "n" SourceMetaData : connection
            
    
    class "DataReference" {
                 string name
                 string shortName
                 json query
                 string connection
                    }
                DataReference *- -> "n" DataInstance : instances
                        DataReference o- -> "1" Servicelet : parent
            
    
    class "DataStrategy" {
                 string attr1
                    }
                DataStrategy o- -> "1" ModelName : assoc1
            
    

}


    "Data Management Layer" - -> "Software Defined Infrastructure"

    "Data Management Layer" - -> "Security Aspect"

    "Data Management Layer" - -> "Service Management Layer"


@enduml

PlantUML version 1.2019.05(Sat Apr 20 09:45:36 PDT 2019)
(GPL source distribution)
Java Runtime: OpenJDK Runtime Environment
JVM: OpenJDK 64-Bit Server VM
Java Version: 12.0.1+12
Operating System: Windows 10
OS Version: 10.0
Default Encoding: Cp1252
Language: en
Country: US
--></g></svg>