<?xml version="1.0" encoding="UTF-8" standalone="no"?><svg xmlns="http://www.w3.org/2000/svg" xmlns:xlink="http://www.w3.org/1999/xlink" contentScriptType="application/ecmascript" contentStyleType="text/css" height="820px" preserveAspectRatio="none" style="width:499px;height:820px;" version="1.1" viewBox="0 0 499 820" width="499px" zoomAndPan="magnify"><defs><filter height="300%" id="f1nimmolwdgqp7" width="300%" x="-1" y="-1"><feGaussianBlur result="blurOut" stdDeviation="2.0"/><feColorMatrix in="blurOut" result="blurOut2" type="matrix" values="0 0 0 0 0 0 0 0 0 0 0 0 0 0 0 0 0 0 .4 0"/><feOffset dx="4.0" dy="4.0" in="blurOut2" result="blurOut3"/><feBlend in="SourceGraphic" in2="blurOut3" mode="normal"/></filter></defs><g><!--cluster ChiefDataOfficer--><rect fill="#FEFECE" filter="url(#f1nimmolwdgqp7)" height="272" rx="12.5" ry="12.5" style="stroke: #A80036; stroke-width: 1.5;" width="219" x="37" y="132"/><rect fill="#FFFFFF" height="238.3906" rx="12.5" ry="12.5" style="stroke: #FFFFFF; stroke-width: 1.0;" width="213" x="40" y="162.6094"/><line style="stroke: #A80036; stroke-width: 1.5;" x1="37" x2="256" y1="159.6094" y2="159.6094"/><text fill="#000000" font-family="sans-serif" font-size="14" lengthAdjust="spacingAndGlyphs" textLength="113" x="90" y="150.5332">Chief Data Officer</text><!--cluster diml--><rect fill="#FFCC88" filter="url(#f1nimmolwdgqp7)" height="701" rx="12.5" ry="12.5" style="stroke: #A80036; stroke-width: 1.5;" width="192" x="295" y="24"/><rect fill="#FFFFFF" height="667.3906" rx="12.5" ry="12.5" style="stroke: #FFFFFF; stroke-width: 1.0;" width="186" x="298" y="54.6094"/><line style="stroke: #A80036; stroke-width: 1.5;" x1="295" x2="487" y1="51.6094" y2="51.6094"/><text fill="#000000" font-family="sans-serif" font-size="14" lengthAdjust="spacingAndGlyphs" textLength="25" x="378.5" y="42.5332">diml</text><!--cluster dimldml--><rect fill="#FFCC88" filter="url(#f1nimmolwdgqp7)" height="633" rx="12.5" ry="12.5" style="stroke: #A80036; stroke-width: 1.5;" width="144" x="319" y="68"/><rect fill="#FFFFFF" height="599.3906" rx="12.5" ry="12.5" style="stroke: #FFFFFF; stroke-width: 1.0;" width="138" x="322" y="98.6094"/><line style="stroke: #A80036; stroke-width: 1.5;" x1="319" x2="463" y1="95.6094" y2="95.6094"/><text fill="#000000" font-family="sans-serif" font-size="14" lengthAdjust="spacingAndGlyphs" textLength="22" x="380" y="86.5332">dml</text><!--cluster dimldmldata--><rect fill="#FFCC88" filter="url(#f1nimmolwdgqp7)" height="102" rx="12.5" ry="12.5" style="stroke: #A80036; stroke-width: 1.5;" width="96" x="343" y="112"/><rect fill="#FFFFFF" height="68.3906" rx="12.5" ry="12.5" style="stroke: #FFFFFF; stroke-width: 1.0;" width="90" x="346" y="142.6094"/><line style="stroke: #A80036; stroke-width: 1.5;" x1="343" x2="439" y1="139.6094" y2="139.6094"/><text fill="#000000" font-family="sans-serif" font-size="14" lengthAdjust="spacingAndGlyphs" textLength="28" x="377" y="130.5332">data</text><!--cluster dimldmldatapolicy--><rect fill="#FFCC88" filter="url(#f1nimmolwdgqp7)" height="102" rx="12.5" ry="12.5" style="stroke: #A80036; stroke-width: 1.5;" width="82" x="350" y="238"/><rect fill="#FFFFFF" height="68.3906" rx="12.5" ry="12.5" style="stroke: #FFFFFF; stroke-width: 1.0;" width="76" x="353" y="268.6094"/><line style="stroke: #A80036; stroke-width: 1.5;" x1="350" x2="432" y1="265.6094" y2="265.6094"/><text fill="#000000" font-family="sans-serif" font-size="14" lengthAdjust="spacingAndGlyphs" textLength="64" x="359" y="256.5332">datapolicy</text><!--cluster dimldmldatasource--><rect fill="#FFCC88" filter="url(#f1nimmolwdgqp7)" height="187" rx="12.5" ry="12.5" style="stroke: #A80036; stroke-width: 1.5;" width="87" x="347.5" y="490"/><rect fill="#FFFFFF" height="153.3906" rx="12.5" ry="12.5" style="stroke: #FFFFFF; stroke-width: 1.0;" width="81" x="350.5" y="520.6094"/><line style="stroke: #A80036; stroke-width: 1.5;" x1="347.5" x2="434.5" y1="517.6094" y2="517.6094"/><text fill="#000000" font-family="sans-serif" font-size="14" lengthAdjust="spacingAndGlyphs" textLength="71" x="355.5" y="508.5332">datasource</text><!--cluster dimldmldatastrategy--><rect fill="#FFCC88" filter="url(#f1nimmolwdgqp7)" height="102" rx="12.5" ry="12.5" style="stroke: #A80036; stroke-width: 1.5;" width="95" x="344" y="364"/><rect fill="#FFFFFF" height="68.3906" rx="12.5" ry="12.5" style="stroke: #FFFFFF; stroke-width: 1.0;" width="89" x="347" y="394.6094"/><line style="stroke: #A80036; stroke-width: 1.5;" x1="344" x2="439" y1="391.6094" y2="391.6094"/><text fill="#000000" font-family="sans-serif" font-size="14" lengthAdjust="spacingAndGlyphs" textLength="79" x="352" y="382.5332">datastrategy</text><!--cluster DataEngineer--><rect fill="#FEFECE" filter="url(#f1nimmolwdgqp7)" height="102" rx="12.5" ry="12.5" style="stroke: #A80036; stroke-width: 1.5;" width="193" x="50" y="428"/><rect fill="#FFFFFF" height="68.3906" rx="12.5" ry="12.5" style="stroke: #FFFFFF; stroke-width: 1.0;" width="187" x="53" y="458.6094"/><line style="stroke: #A80036; stroke-width: 1.5;" x1="50" x2="243" y1="455.6094" y2="455.6094"/><text fill="#000000" font-family="sans-serif" font-size="14" lengthAdjust="spacingAndGlyphs" textLength="91" x="101" y="446.5332">Data Engineer</text><!--cluster Actor--><rect fill="#FEFECE" filter="url(#f1nimmolwdgqp7)" height="255" rx="12.5" ry="12.5" style="stroke: #A80036; stroke-width: 1.5;" width="249" x="22" y="554"/><rect fill="#FFFFFF" height="221.3906" rx="12.5" ry="12.5" style="stroke: #FFFFFF; stroke-width: 1.0;" width="243" x="25" y="584.6094"/><line style="stroke: #A80036; stroke-width: 1.5;" x1="22" x2="271" y1="581.6094" y2="581.6094"/><text fill="#000000" font-family="sans-serif" font-size="14" lengthAdjust="spacingAndGlyphs" textLength="33" x="130" y="572.5332">Actor</text><!--cluster ActorManageDataSources--><rect fill="#FEFECE" filter="url(#f1nimmolwdgqp7)" height="187" rx="12.5" ry="12.5" style="stroke: #A80036; stroke-width: 1.5;" width="201" x="46" y="598"/><rect fill="#FFFFFF" height="153.3906" rx="12.5" ry="12.5" style="stroke: #FFFFFF; stroke-width: 1.0;" width="195" x="49" y="628.6094"/><line style="stroke: #A80036; stroke-width: 1.5;" x1="46" x2="247" y1="625.6094" y2="625.6094"/><text fill="#000000" font-family="sans-serif" font-size="14" lengthAdjust="spacingAndGlyphs" textLength="141" x="76" y="616.5332">Manage Data Sources</text><rect fill="#FEFECE" filter="url(#f1nimmolwdgqp7)" height="50" rx="12.5" ry="12.5" style="stroke: #A80036; stroke-width: 1.5;" width="187" x="53" y="168"/><line style="stroke: #A80036; stroke-width: 1.5;" x1="53" x2="240" y1="195.6094" y2="195.6094"/><text fill="#000000" font-family="sans-serif" font-size="14" lengthAdjust="spacingAndGlyphs" textLength="167" x="63" y="187.5332">Manage Data Governance</text><rect fill="#FEFECE" filter="url(#f1nimmolwdgqp7)" height="50" rx="12.5" ry="12.5" style="stroke: #A80036; stroke-width: 1.5;" width="157" x="68" y="253"/><line style="stroke: #A80036; stroke-width: 1.5;" x1="68" x2="225" y1="280.6094" y2="280.6094"/><text fill="#000000" font-family="sans-serif" font-size="14" lengthAdjust="spacingAndGlyphs" textLength="137" x="78" y="272.5332">Manage Data Policies</text><rect fill="#FEFECE" filter="url(#f1nimmolwdgqp7)" height="50" rx="12.5" ry="12.5" style="stroke: #A80036; stroke-width: 1.5;" width="162" x="65.5" y="338"/><line style="stroke: #A80036; stroke-width: 1.5;" x1="65.5" x2="227.5" y1="365.6094" y2="365.6094"/><text fill="#000000" font-family="sans-serif" font-size="14" lengthAdjust="spacingAndGlyphs" textLength="142" x="75.5" y="357.5332">Manage Data Strategy</text><rect fill="#FFCC88" filter="url(#f1nimmolwdgqp7)" height="50" rx="12.5" ry="12.5" style="stroke: #A80036; stroke-width: 1.5;" width="64" x="359" y="148"/><line style="stroke: #A80036; stroke-width: 1.5;" x1="359" x2="423" y1="175.6094" y2="175.6094"/><text fill="#000000" font-family="sans-serif" font-size="14" lengthAdjust="spacingAndGlyphs" textLength="44" x="369" y="167.5332">govern</text><rect fill="#FFCC88" filter="url(#f1nimmolwdgqp7)" height="50" rx="12.5" ry="12.5" style="stroke: #A80036; stroke-width: 1.5;" width="50" x="366" y="274"/><line style="stroke: #A80036; stroke-width: 1.5;" x1="366" x2="416" y1="301.6094" y2="301.6094"/><text fill="#000000" font-family="sans-serif" font-size="14" lengthAdjust="spacingAndGlyphs" textLength="17" x="382.5" y="293.5332">list</text><rect fill="#FFCC88" filter="url(#f1nimmolwdgqp7)" height="50" rx="12.5" ry="12.5" style="stroke: #A80036; stroke-width: 1.5;" width="50" x="366" y="526"/><line style="stroke: #A80036; stroke-width: 1.5;" x1="366" x2="416" y1="553.6094" y2="553.6094"/><text fill="#000000" font-family="sans-serif" font-size="14" lengthAdjust="spacingAndGlyphs" textLength="17" x="382.5" y="545.5332">list</text><rect fill="#FFCC88" filter="url(#f1nimmolwdgqp7)" height="50" rx="12.5" ry="12.5" style="stroke: #A80036; stroke-width: 1.5;" width="55" x="363.5" y="611"/><line style="stroke: #A80036; stroke-width: 1.5;" x1="363.5" x2="418.5" y1="638.6094" y2="638.6094"/><text fill="#000000" font-family="sans-serif" font-size="14" lengthAdjust="spacingAndGlyphs" textLength="35" x="373.5" y="630.5332">name</text><rect fill="#FFCC88" filter="url(#f1nimmolwdgqp7)" height="50" rx="12.5" ry="12.5" style="stroke: #A80036; stroke-width: 1.5;" width="50" x="366" y="400"/><line style="stroke: #A80036; stroke-width: 1.5;" x1="366" x2="416" y1="427.6094" y2="427.6094"/><text fill="#000000" font-family="sans-serif" font-size="14" lengthAdjust="spacingAndGlyphs" textLength="17" x="382.5" y="419.5332">list</text><rect fill="#FEFECE" filter="url(#f1nimmolwdgqp7)" height="50" rx="12.5" ry="12.5" style="stroke: #A80036; stroke-width: 1.5;" width="161" x="66" y="464"/><line style="stroke: #A80036; stroke-width: 1.5;" x1="66" x2="227" y1="491.6094" y2="491.6094"/><text fill="#000000" font-family="sans-serif" font-size="14" lengthAdjust="spacingAndGlyphs" textLength="141" x="76" y="483.5332">Manage Data Sources</text><rect fill="#FEFECE" filter="url(#f1nimmolwdgqp7)" height="50" rx="12.5" ry="12.5" style="stroke: #A80036; stroke-width: 1.5;" width="169" x="62" y="634"/><line style="stroke: #A80036; stroke-width: 1.5;" x1="62" x2="231" y1="661.6094" y2="661.6094"/><text fill="#000000" font-family="sans-serif" font-size="14" lengthAdjust="spacingAndGlyphs" textLength="149" x="72" y="653.5332">Deregister Data Source</text><rect fill="#FEFECE" filter="url(#f1nimmolwdgqp7)" height="50" rx="12.5" ry="12.5" style="stroke: #A80036; stroke-width: 1.5;" width="156" x="68.5" y="719"/><line style="stroke: #A80036; stroke-width: 1.5;" x1="68.5" x2="224.5" y1="746.6094" y2="746.6094"/><text fill="#000000" font-family="sans-serif" font-size="14" lengthAdjust="spacingAndGlyphs" textLength="136" x="78.5" y="738.5332">Register Data Source</text><!--link ChiefDataOfficerManageDataGovernance to dimldmldatagovern--><path d="M240.217,185.353 C279.905,182.08 323.918,178.45 353.902,175.977 " fill="none" id="ChiefDataOfficerManageDataGovernance-dimldmldatagovern" style="stroke: #A80036; stroke-width: 1.0;"/><polygon fill="#A80036" points="358.961,175.56,349.6624,172.3142,353.978,175.9714,350.3207,180.287,358.961,175.56" style="stroke: #A80036; stroke-width: 1.0;"/><!--link ChiefDataOfficerManageDataPolicies to dimldmldatapolicylist--><path d="M225.229,284.731 C271.386,288.728 327.244,293.565 360.632,296.457 " fill="none" id="ChiefDataOfficerManageDataPolicies-dimldmldatapolicylist" style="stroke: #A80036; stroke-width: 1.0;"/><polygon fill="#A80036" points="365.793,296.904,357.1717,292.1424,360.8116,296.4726,356.4814,300.1125,365.793,296.904" style="stroke: #A80036; stroke-width: 1.0;"/><!--link DataEngineerManageDataSources to dimldmldatasourcelist--><path d="M227.239,509.387 C273.102,521.113 327.975,535.142 360.856,543.549 " fill="none" id="DataEngineerManageDataSources-dimldmldatasourcelist" style="stroke: #A80036; stroke-width: 1.0;"/><polygon fill="#A80036" points="365.939,544.848,358.2103,538.7433,361.0948,543.6095,356.2287,546.494,365.939,544.848" style="stroke: #A80036; stroke-width: 1.0;"/><!--link ActorManageDataSourcesDeregisterDataSource to dimldmldatasourcename--><path d="M231.294,651.052 C275.087,646.899 326.109,642.06 358.232,639.013 " fill="none" id="ActorManageDataSourcesDeregisterDataSource-dimldmldatasourcename" style="stroke: #A80036; stroke-width: 1.0;"/><polygon fill="#A80036" points="363.221,638.54,353.883,635.4091,358.2434,639.0129,354.6397,643.3733,363.221,638.54" style="stroke: #A80036; stroke-width: 1.0;"/><!--link ActorManageDataSourcesRegisterDataSource to dimldmldatasourcename--><path d="M224.745,722.559 C242.844,716.654 261.843,709.719 279,702 C307.177,689.322 337.185,671.168 358.886,657.106 " fill="none" id="ActorManageDataSourcesRegisterDataSource-dimldmldatasourcename" style="stroke: #A80036; stroke-width: 1.0;"/><polygon fill="#A80036" points="363.113,654.352,353.3894,655.9176,358.9248,657.0832,357.7592,662.6186,363.113,654.352" style="stroke: #A80036; stroke-width: 1.0;"/><!--link ChiefDataOfficerManageDataStrategy to dimldmldatastrategylist--><path d="M227.576,383.473 C273.278,395.158 327.837,409.107 360.659,417.498 " fill="none" id="ChiefDataOfficerManageDataStrategy-dimldmldatastrategylist" style="stroke: #A80036; stroke-width: 1.0;"/><polygon fill="#A80036" points="365.735,418.796,358.0063,412.6913,360.8908,417.5575,356.0247,420.442,365.735,418.796" style="stroke: #A80036; stroke-width: 1.0;"/><!--
@startuml
left to right direction



state "Chief Data Officer" as ChiefDataOfficer {
    state "Manage Data Governance" as ChiefDataOfficerManageDataGovernance {
    }
}
state "diml" as diml #ffcc88 {
state "dml" as dimldml #ffcc88 {
state "data" as dimldmldata #ffcc88 {
state "govern" as dimldmldatagovern #ffcc88 {
}
}
}
}

ChiefDataOfficerManageDataGovernance - -> dimldmldatagovern


 
state "Chief Data Officer" as ChiefDataOfficer {
    state "Manage Data Policies" as ChiefDataOfficerManageDataPolicies {
    }
}
state "diml" as diml #ffcc88 {
state "dml" as dimldml #ffcc88 {
state "datapolicy" as dimldmldatapolicy #ffcc88 {
state "list" as dimldmldatapolicylist #ffcc88 {
}
}
}
}

ChiefDataOfficerManageDataPolicies - -> dimldmldatapolicylist


 
state "Data Engineer" as DataEngineer {
    state "Manage Data Sources" as DataEngineerManageDataSources {
    }
}
state "diml" as diml #ffcc88 {
state "dml" as dimldml #ffcc88 {
state "datasource" as dimldmldatasource #ffcc88 {
state "list" as dimldmldatasourcelist #ffcc88 {
}
}
}
}

DataEngineerManageDataSources - -> dimldmldatasourcelist


    state "Actor" as Actor {
        state "Manage Data Sources" as ActorManageDataSources {
            state "Deregister Data Source" as ActorManageDataSourcesDeregisterDataSource {
            }
        }
    }
    state "diml" as diml #ffcc88 {
state "dmldata" as dimldmldata #ffcc88 {
state "source" as dimldmldatasource #ffcc88 {
state "name" as dimldmldatasourcename #ffcc88 {
}
}
}
}

    ActorManageDataSourcesDeregisterDataSource - -> dimldmldatasourcename
    
 
    state "Actor" as Actor {
        state "Manage Data Sources" as ActorManageDataSources {
            state "Register Data Source" as ActorManageDataSourcesRegisterDataSource {
            }
        }
    }
    state "diml" as diml #ffcc88 {
state "dmldata" as dimldmldata #ffcc88 {
state "source" as dimldmldatasource #ffcc88 {
state "name" as dimldmldatasourcename #ffcc88 {
}
}
}
}

    ActorManageDataSourcesRegisterDataSource - -> dimldmldatasourcename
    
 
 
state "Chief Data Officer" as ChiefDataOfficer {
    state "Manage Data Strategy" as ChiefDataOfficerManageDataStrategy {
    }
}
state "diml" as diml #ffcc88 {
state "dml" as dimldml #ffcc88 {
state "datastrategy" as dimldmldatastrategy #ffcc88 {
state "list" as dimldmldatastrategylist #ffcc88 {
}
}
}
}

ChiefDataOfficerManageDataStrategy - -> dimldmldatastrategylist


 

@enduml

PlantUML version 1.2019.05(Sat Apr 20 09:45:36 PDT 2019)
(GPL source distribution)
Java Runtime: OpenJDK Runtime Environment
JVM: OpenJDK 64-Bit Server VM
Java Version: 12.0.1+12
Operating System: Windows 10
OS Version: 10.0
Default Encoding: Cp1252
Language: en
Country: US
--></g></svg>