<?xml version="1.0" encoding="UTF-8" standalone="no"?><svg xmlns="http://www.w3.org/2000/svg" xmlns:xlink="http://www.w3.org/1999/xlink" contentScriptType="application/ecmascript" contentStyleType="text/css" height="736px" preserveAspectRatio="none" style="width:531px;height:736px;" version="1.1" viewBox="0 0 531 736" width="531px" zoomAndPan="magnify"><defs><filter height="300%" id="ftprowhjv82wx" width="300%" x="-1" y="-1"><feGaussianBlur result="blurOut" stdDeviation="2.0"/><feColorMatrix in="blurOut" result="blurOut2" type="matrix" values="0 0 0 0 0 0 0 0 0 0 0 0 0 0 0 0 0 0 .4 0"/><feOffset dx="4.0" dy="4.0" in="blurOut2" result="blurOut3"/><feBlend in="SourceGraphic" in2="blurOut3" mode="normal"/></filter></defs><g><!--cluster ChiefDataOfficer--><rect fill="#FEFECE" filter="url(#ftprowhjv82wx)" height="272" rx="12.5" ry="12.5" style="stroke: #A80036; stroke-width: 1.5;" width="219" x="53" y="123"/><rect fill="#FFFFFF" height="238.3906" rx="12.5" ry="12.5" style="stroke: #FFFFFF; stroke-width: 1.0;" width="213" x="56" y="153.6094"/><line style="stroke: #A80036; stroke-width: 1.5;" x1="53" x2="272" y1="150.6094" y2="150.6094"/><text fill="#000000" font-family="sans-serif" font-size="14" lengthAdjust="spacingAndGlyphs" textLength="113" x="106" y="141.5332">Chief Data Officer</text><!--cluster diml--><rect fill="#FFCC88" filter="url(#ftprowhjv82wx)" height="616" rx="12.5" ry="12.5" style="stroke: #A80036; stroke-width: 1.5;" width="192" x="327" y="24"/><rect fill="#FFFFFF" height="582.3906" rx="12.5" ry="12.5" style="stroke: #FFFFFF; stroke-width: 1.0;" width="186" x="330" y="54.6094"/><line style="stroke: #A80036; stroke-width: 1.5;" x1="327" x2="519" y1="51.6094" y2="51.6094"/><text fill="#000000" font-family="sans-serif" font-size="14" lengthAdjust="spacingAndGlyphs" textLength="25" x="410.5" y="42.5332">diml</text><!--cluster dimldml--><rect fill="#FFCC88" filter="url(#ftprowhjv82wx)" height="548" rx="12.5" ry="12.5" style="stroke: #A80036; stroke-width: 1.5;" width="144" x="351" y="68"/><rect fill="#FFFFFF" height="514.3906" rx="12.5" ry="12.5" style="stroke: #FFFFFF; stroke-width: 1.0;" width="138" x="354" y="98.6094"/><line style="stroke: #A80036; stroke-width: 1.5;" x1="351" x2="495" y1="95.6094" y2="95.6094"/><text fill="#000000" font-family="sans-serif" font-size="14" lengthAdjust="spacingAndGlyphs" textLength="22" x="412" y="86.5332">dml</text><!--cluster dimldmldata--><rect fill="#FFCC88" filter="url(#ftprowhjv82wx)" height="102" rx="12.5" ry="12.5" style="stroke: #A80036; stroke-width: 1.5;" width="96" x="375" y="112"/><rect fill="#FFFFFF" height="68.3906" rx="12.5" ry="12.5" style="stroke: #FFFFFF; stroke-width: 1.0;" width="90" x="378" y="142.6094"/><line style="stroke: #A80036; stroke-width: 1.5;" x1="375" x2="471" y1="139.6094" y2="139.6094"/><text fill="#000000" font-family="sans-serif" font-size="14" lengthAdjust="spacingAndGlyphs" textLength="28" x="409" y="130.5332">data</text><!--cluster dimldmldatapolicy--><rect fill="#FFCC88" filter="url(#ftprowhjv82wx)" height="102" rx="12.5" ry="12.5" style="stroke: #A80036; stroke-width: 1.5;" width="82" x="382" y="238"/><rect fill="#FFFFFF" height="68.3906" rx="12.5" ry="12.5" style="stroke: #FFFFFF; stroke-width: 1.0;" width="76" x="385" y="268.6094"/><line style="stroke: #A80036; stroke-width: 1.5;" x1="382" x2="464" y1="265.6094" y2="265.6094"/><text fill="#000000" font-family="sans-serif" font-size="14" lengthAdjust="spacingAndGlyphs" textLength="64" x="391" y="256.5332">datapolicy</text><!--cluster dimldmldatasource--><rect fill="#FFCC88" filter="url(#ftprowhjv82wx)" height="102" rx="12.5" ry="12.5" style="stroke: #A80036; stroke-width: 1.5;" width="87" x="380" y="490"/><rect fill="#FFFFFF" height="68.3906" rx="12.5" ry="12.5" style="stroke: #FFFFFF; stroke-width: 1.0;" width="81" x="383" y="520.6094"/><line style="stroke: #A80036; stroke-width: 1.5;" x1="380" x2="467" y1="517.6094" y2="517.6094"/><text fill="#000000" font-family="sans-serif" font-size="14" lengthAdjust="spacingAndGlyphs" textLength="71" x="388" y="508.5332">datasource</text><!--cluster dimldmldatastrategy--><rect fill="#FFCC88" filter="url(#ftprowhjv82wx)" height="102" rx="12.5" ry="12.5" style="stroke: #A80036; stroke-width: 1.5;" width="95" x="376" y="364"/><rect fill="#FFFFFF" height="68.3906" rx="12.5" ry="12.5" style="stroke: #FFFFFF; stroke-width: 1.0;" width="89" x="379" y="394.6094"/><line style="stroke: #A80036; stroke-width: 1.5;" x1="376" x2="471" y1="391.6094" y2="391.6094"/><text fill="#000000" font-family="sans-serif" font-size="14" lengthAdjust="spacingAndGlyphs" textLength="79" x="384" y="382.5332">datastrategy</text><!--cluster DataEngineer--><rect fill="#FEFECE" filter="url(#ftprowhjv82wx)" height="306" rx="12.5" ry="12.5" style="stroke: #A80036; stroke-width: 1.5;" width="281" x="22" y="419"/><rect fill="#FFFFFF" height="272.3906" rx="12.5" ry="12.5" style="stroke: #FFFFFF; stroke-width: 1.0;" width="275" x="25" y="449.6094"/><line style="stroke: #A80036; stroke-width: 1.5;" x1="22" x2="303" y1="446.6094" y2="446.6094"/><text fill="#000000" font-family="sans-serif" font-size="14" lengthAdjust="spacingAndGlyphs" textLength="91" x="117" y="437.5332">Data Engineer</text><!--cluster DataEngineerManageDataSources--><rect fill="#FEFECE" filter="url(#ftprowhjv82wx)" height="222" rx="12.5" ry="12.5" style="stroke: #A80036; stroke-width: 1.5;" width="217" x="54" y="471"/><rect fill="#FFFFFF" height="188.3906" rx="12.5" ry="12.5" style="stroke: #FFFFFF; stroke-width: 1.0;" width="211" x="57" y="501.6094"/><line style="stroke: #A80036; stroke-width: 1.5;" x1="54" x2="271" y1="498.6094" y2="498.6094"/><text fill="#000000" font-family="sans-serif" font-size="14" lengthAdjust="spacingAndGlyphs" textLength="141" x="92" y="489.5332">Manage Data Sources</text><rect fill="#FEFECE" filter="url(#ftprowhjv82wx)" height="50" rx="12.5" ry="12.5" style="stroke: #A80036; stroke-width: 1.5;" width="187" x="69" y="159"/><line style="stroke: #A80036; stroke-width: 1.5;" x1="69" x2="256" y1="186.6094" y2="186.6094"/><text fill="#000000" font-family="sans-serif" font-size="14" lengthAdjust="spacingAndGlyphs" textLength="167" x="79" y="178.5332">Manage Data Governance</text><rect fill="#FEFECE" filter="url(#ftprowhjv82wx)" height="50" rx="12.5" ry="12.5" style="stroke: #A80036; stroke-width: 1.5;" width="157" x="84" y="244"/><line style="stroke: #A80036; stroke-width: 1.5;" x1="84" x2="241" y1="271.6094" y2="271.6094"/><text fill="#000000" font-family="sans-serif" font-size="14" lengthAdjust="spacingAndGlyphs" textLength="137" x="94" y="263.5332">Manage Data Policies</text><rect fill="#FEFECE" filter="url(#ftprowhjv82wx)" height="50" rx="12.5" ry="12.5" style="stroke: #A80036; stroke-width: 1.5;" width="162" x="81.5" y="329"/><line style="stroke: #A80036; stroke-width: 1.5;" x1="81.5" x2="243.5" y1="356.6094" y2="356.6094"/><text fill="#000000" font-family="sans-serif" font-size="14" lengthAdjust="spacingAndGlyphs" textLength="142" x="91.5" y="348.5332">Manage Data Strategy</text><rect fill="#FFCC88" filter="url(#ftprowhjv82wx)" height="50" rx="12.5" ry="12.5" style="stroke: #A80036; stroke-width: 1.5;" width="64" x="391" y="148"/><line style="stroke: #A80036; stroke-width: 1.5;" x1="391" x2="455" y1="175.6094" y2="175.6094"/><text fill="#000000" font-family="sans-serif" font-size="14" lengthAdjust="spacingAndGlyphs" textLength="44" x="401" y="167.5332">govern</text><rect fill="#FFCC88" filter="url(#ftprowhjv82wx)" height="50" rx="12.5" ry="12.5" style="stroke: #A80036; stroke-width: 1.5;" width="50" x="398" y="274"/><line style="stroke: #A80036; stroke-width: 1.5;" x1="398" x2="448" y1="301.6094" y2="301.6094"/><text fill="#000000" font-family="sans-serif" font-size="14" lengthAdjust="spacingAndGlyphs" textLength="17" x="414.5" y="293.5332">list</text><rect fill="#FFCC88" filter="url(#ftprowhjv82wx)" height="50" rx="12.5" ry="12.5" style="stroke: #A80036; stroke-width: 1.5;" width="50" x="398" y="526"/><line style="stroke: #A80036; stroke-width: 1.5;" x1="398" x2="448" y1="553.6094" y2="553.6094"/><text fill="#000000" font-family="sans-serif" font-size="14" lengthAdjust="spacingAndGlyphs" textLength="17" x="414.5" y="545.5332">list</text><rect fill="#FFCC88" filter="url(#ftprowhjv82wx)" height="50" rx="12.5" ry="12.5" style="stroke: #A80036; stroke-width: 1.5;" width="50" x="398" y="400"/><line style="stroke: #A80036; stroke-width: 1.5;" x1="398" x2="448" y1="427.6094" y2="427.6094"/><text fill="#000000" font-family="sans-serif" font-size="14" lengthAdjust="spacingAndGlyphs" textLength="17" x="414.5" y="419.5332">list</text><rect fill="#FEFECE" filter="url(#ftprowhjv82wx)" height="50" rx="12.5" ry="12.5" style="stroke: #A80036; stroke-width: 1.5;" width="169" x="78" y="515"/><line style="stroke: #A80036; stroke-width: 1.5;" x1="78" x2="247" y1="542.6094" y2="542.6094"/><text fill="#000000" font-family="sans-serif" font-size="14" lengthAdjust="spacingAndGlyphs" textLength="149" x="88" y="534.5332">Deregister Data Source</text><rect fill="#FEFECE" filter="url(#ftprowhjv82wx)" height="50" rx="12.5" ry="12.5" style="stroke: #A80036; stroke-width: 1.5;" width="156" x="84.5" y="600"/><line style="stroke: #A80036; stroke-width: 1.5;" x1="84.5" x2="240.5" y1="627.6094" y2="627.6094"/><text fill="#000000" font-family="sans-serif" font-size="14" lengthAdjust="spacingAndGlyphs" textLength="136" x="94.5" y="619.5332">Register Data Source</text><!--link ChiefDataOfficerManageDataGovernance to dimldmldatagovern--><path d="M256.094,180.06 C300.924,178.152 352.167,175.972 385.696,174.545 " fill="none" id="ChiefDataOfficerManageDataGovernance-dimldmldatagovern" style="stroke: #A80036; stroke-width: 1.0;"/><polygon fill="#A80036" points="390.921,174.322,381.7589,170.7087,385.9255,174.5348,382.0994,178.7015,390.921,174.322" style="stroke: #A80036; stroke-width: 1.0;"/><!--link ChiefDataOfficerManageDataPolicies to dimldmldatapolicylist--><path d="M241.059,278.001 C292.087,283.923 355.985,291.339 392.585,295.586 " fill="none" id="ChiefDataOfficerManageDataPolicies-dimldmldatapolicylist" style="stroke: #A80036; stroke-width: 1.0;"/><polygon fill="#A80036" points="397.783,296.189,389.305,291.1767,392.8164,295.6118,388.3814,299.1232,397.783,296.189" style="stroke: #A80036; stroke-width: 1.0;"/><!--link DataEngineerManageDataSources to dimldmldatasourcelist--><path d="M271.4644,679.723 C271.9734,679.6068 272.482,679.4888 272.9904,679.3689 C274.007,679.1293 275.0223,678.8826 276.0358,678.6285 C280.0897,677.6122 284.1147,676.4789 288.0833,675.2166 C296.0207,672.6919 303.7328,669.6514 311,666 C349.834,646.4882 382.698,607.807 402.361,580.715 " fill="none" id="DataEngineerManageDataSources-dimldmldatasourcelist" style="stroke: #A80036; stroke-width: 1.0;"/><polygon fill="#A80036" points="405.403,576.471,396.9081,581.4547,402.4897,580.5345,403.4098,586.1161,405.403,576.471" style="stroke: #A80036; stroke-width: 1.0;"/><!--link DataEngineerManageDataSourcesDeregisterDataSource to dimldmldatasourcelist--><path d="M247.071,543.556 C297.122,545.686 357.662,548.262 392.806,549.758 " fill="none" id="DataEngineerManageDataSourcesDeregisterDataSource-dimldmldatasourcelist" style="stroke: #A80036; stroke-width: 1.0;"/><polygon fill="#A80036" points="397.803,549.97,388.9814,545.5905,392.8075,549.7572,388.6409,553.5833,397.803,549.97" style="stroke: #A80036; stroke-width: 1.0;"/><!--link DataEngineerManageDataSourcesRegisterDataSource to dimldmldatasourcelist--><path d="M240.831,603.032 C263.451,596.592 288.22,589.527 311,583 C338.783,575.04 370.458,565.902 392.841,559.434 " fill="none" id="DataEngineerManageDataSourcesRegisterDataSource-dimldmldatasourcelist" style="stroke: #A80036; stroke-width: 1.0;"/><polygon fill="#A80036" points="397.755,558.014,387.9982,556.6702,392.9516,559.4023,390.2195,564.3557,397.755,558.014" style="stroke: #A80036; stroke-width: 1.0;"/><!--link ChiefDataOfficerManageDataStrategy to dimldmldatastrategylist--><path d="M243.521,375.979 C294.258,389.914 356.893,407.118 392.863,416.997 " fill="none" id="ChiefDataOfficerManageDataStrategy-dimldmldatastrategylist" style="stroke: #A80036; stroke-width: 1.0;"/><polygon fill="#A80036" points="397.972,418.401,390.3528,412.1601,393.1506,417.0767,388.234,419.8744,397.972,418.401" style="stroke: #A80036; stroke-width: 1.0;"/><!--
@startuml
left to right direction



state "Chief Data Officer" as ChiefDataOfficer {
    state "Manage Data Governance" as ChiefDataOfficerManageDataGovernance {
    }
}
state "diml" as diml #ffcc88 {
state "dml" as dimldml #ffcc88 {
state "data" as dimldmldata #ffcc88 {
state "govern" as dimldmldatagovern #ffcc88 {
}
}
}
}

ChiefDataOfficerManageDataGovernance - -> dimldmldatagovern


 
state "Chief Data Officer" as ChiefDataOfficer {
    state "Manage Data Policies" as ChiefDataOfficerManageDataPolicies {
    }
}
state "diml" as diml #ffcc88 {
state "dml" as dimldml #ffcc88 {
state "datapolicy" as dimldmldatapolicy #ffcc88 {
state "list" as dimldmldatapolicylist #ffcc88 {
}
}
}
}

ChiefDataOfficerManageDataPolicies - -> dimldmldatapolicylist


 
state "Data Engineer" as DataEngineer {
    state "Manage Data Sources" as DataEngineerManageDataSources {
    }
}
state "diml" as diml #ffcc88 {
state "dml" as dimldml #ffcc88 {
state "datasource" as dimldmldatasource #ffcc88 {
state "list" as dimldmldatasourcelist #ffcc88 {
}
}
}
}

DataEngineerManageDataSources - -> dimldmldatasourcelist


    state "Data Engineer" as DataEngineer {
        state "Manage Data Sources" as DataEngineerManageDataSources {
            state "Deregister Data Source" as DataEngineerManageDataSourcesDeregisterDataSource {
            }
        }
    }
    state "diml" as diml #ffcc88 {
state "dmldatasource" as dimldmldatasource #ffcc88 {
state "list" as dimldmldatasourcelist #ffcc88 {
}
}
}

    DataEngineerManageDataSourcesDeregisterDataSource - -> dimldmldatasourcelist
    
 
    state "DataEngineer" as DataEngineer {
        state "Manage Data Sources" as DataEngineerManageDataSources {
            state "Register Data Source" as DataEngineerManageDataSourcesRegisterDataSource {
            }
        }
    }
    state "diml" as diml #ffcc88 {
state "dmldatasource" as dimldmldatasource #ffcc88 {
state "list" as dimldmldatasourcelist #ffcc88 {
}
}
}

    DataEngineerManageDataSourcesRegisterDataSource - -> dimldmldatasourcelist
    
 
 
state "Chief Data Officer" as ChiefDataOfficer {
    state "Manage Data Strategy" as ChiefDataOfficerManageDataStrategy {
    }
}
state "diml" as diml #ffcc88 {
state "dml" as dimldml #ffcc88 {
state "datastrategy" as dimldmldatastrategy #ffcc88 {
state "list" as dimldmldatastrategylist #ffcc88 {
}
}
}
}

ChiefDataOfficerManageDataStrategy - -> dimldmldatastrategylist


 

@enduml

PlantUML version 1.2019.05(Sat Apr 20 09:45:36 PDT 2019)
(GPL source distribution)
Java Runtime: OpenJDK Runtime Environment
JVM: OpenJDK 64-Bit Server VM
Java Version: 12.0.1+12
Operating System: Windows 10
OS Version: 10.0
Default Encoding: Cp1252
Language: en
Country: US
--></g></svg>