<?xml version="1.0" encoding="UTF-8" standalone="no"?><svg xmlns="http://www.w3.org/2000/svg" xmlns:xlink="http://www.w3.org/1999/xlink" contentScriptType="application/ecmascript" contentStyleType="text/css" height="375px" preserveAspectRatio="none" style="width:1574px;height:375px;" version="1.1" viewBox="0 0 1574 375" width="1574px" zoomAndPan="magnify"><defs><filter height="300%" id="f1x80ja5aaxf0l" width="300%" x="-1" y="-1"><feGaussianBlur result="blurOut" stdDeviation="2.0"/><feColorMatrix in="blurOut" result="blurOut2" type="matrix" values="0 0 0 0 0 0 0 0 0 0 0 0 0 0 0 0 0 0 .4 0"/><feOffset dx="4.0" dy="4.0" in="blurOut2" result="blurOut3"/><feBlend in="SourceGraphic" in2="blurOut3" mode="normal"/></filter></defs><g><!--cluster Data Management Layer--><polygon fill="#FFCC88" filter="url(#f1x80ja5aaxf0l)" points="340,87,514,87,521,110.6094,1387,110.6094,1387,272,340,272,340,87" style="stroke: #000000; stroke-width: 1.5;"/><line style="stroke: #000000; stroke-width: 1.5;" x1="340" x2="521" y1="110.6094" y2="110.6094"/><text fill="#000000" font-family="sans-serif" font-size="14" font-weight="bold" lengthAdjust="spacingAndGlyphs" textLength="168" x="344" y="103.5332">Data Management Layer</text><polygon fill="#FFFFE0" filter="url(#f1x80ja5aaxf0l)" points="6,308,234,308,241,331.6094,248,331.6094,248,363.2188,6,363.2188,6,308" style="stroke: #000000; stroke-width: 1.5;"/><line style="stroke: #000000; stroke-width: 1.5;" x1="6" x2="241" y1="331.6094" y2="331.6094"/><text fill="#000000" font-family="sans-serif" font-size="14" font-weight="bold" lengthAdjust="spacingAndGlyphs" textLength="222" x="10" y="324.5332">Software Defined Infrastructure</text><polygon fill="#FFC0CB" filter="url(#f1x80ja5aaxf0l)" points="283.5,308,398.5,308,405.5,331.6094,412.5,331.6094,412.5,363.2188,283.5,363.2188,283.5,308" style="stroke: #000000; stroke-width: 1.5;"/><line style="stroke: #000000; stroke-width: 1.5;" x1="283.5" x2="405.5" y1="331.6094" y2="331.6094"/><text fill="#000000" font-family="sans-serif" font-size="14" font-weight="bold" lengthAdjust="spacingAndGlyphs" textLength="109" x="287.5" y="324.5332">Security Aspect</text><polygon fill="#90EE90" filter="url(#f1x80ja5aaxf0l)" points="447.5,308,644.5,308,651.5,331.6094,658.5,331.6094,658.5,363.2188,447.5,363.2188,447.5,308" style="stroke: #000000; stroke-width: 1.5;"/><line style="stroke: #000000; stroke-width: 1.5;" x1="447.5" x2="651.5" y1="331.6094" y2="331.6094"/><text fill="#000000" font-family="sans-serif" font-size="14" font-weight="bold" lengthAdjust="spacingAndGlyphs" textLength="191" x="451.5" y="324.5332">Service Management Layer</text><polygon fill="#FFCC88" filter="url(#f1x80ja5aaxf0l)" points="1347.5,8,1538.5,8,1545.5,31.6094,1552.5,31.6094,1552.5,63.2188,1347.5,63.2188,1347.5,8" style="stroke: #000000; stroke-width: 1.5;"/><line style="stroke: #000000; stroke-width: 1.5;" x1="1347.5" x2="1545.5" y1="31.6094" y2="31.6094"/><text fill="#000000" font-family="sans-serif" font-size="14" font-weight="bold" lengthAdjust="spacingAndGlyphs" textLength="185" x="1351.5" y="24.5332">Data Definition Framework</text><!--class i--><rect fill="#FEFECE" filter="url(#f1x80ja5aaxf0l)" height="117.1797" id="i" style="stroke: #A80036; stroke-width: 1.5;" width="201" x="1161.5" y="131"/><ellipse cx="1191.8" cy="147" fill="#B4A7E5" rx="11" ry="11" style="stroke: #A80036; stroke-width: 1.0;"/><path d="M1192.7531,143.6406 L1192.7531,150.2969 L1194.4719,150.2969 Q1195.0813,150.2969 1195.3469,150.5313 Q1195.6125,150.7656 1195.6125,151.1563 Q1195.6125,151.5313 1195.3469,151.7656 Q1195.0813,152 1194.4719,152 L1189.3313,152 Q1188.7219,152 1188.4563,151.7656 Q1188.1906,151.5313 1188.1906,151.1406 Q1188.1906,150.7656 1188.4563,150.5313 Q1188.7219,150.2969 1189.3313,150.2969 L1191.05,150.2969 L1191.05,143.6406 L1189.3313,143.6406 Q1188.7219,143.6406 1188.4563,143.4063 Q1188.1906,143.1719 1188.1906,142.7813 Q1188.1906,142.4063 1188.4563,142.1719 Q1188.7219,141.9375 1189.3313,141.9375 L1194.4719,141.9375 Q1195.0813,141.9375 1195.3469,142.1719 Q1195.6125,142.4063 1195.6125,142.7813 Q1195.6125,143.1719 1195.3469,143.4063 Q1195.0813,143.6406 1194.4719,143.6406 L1192.7531,143.6406 Z "/><text fill="#000000" font-family="sans-serif" font-size="12" font-style="italic" lengthAdjust="spacingAndGlyphs" textLength="135" x="1209.2" y="151.9102">Data Management Layer</text><line style="stroke: #A80036; stroke-width: 1.5;" x1="1162.5" x2="1361.5" y1="163" y2="163"/><line style="stroke: #A80036; stroke-width: 1.5;" x1="1162.5" x2="1361.5" y1="171" y2="171"/><text fill="#000000" font-family="sans-serif" font-size="11" lengthAdjust="spacingAndGlyphs" textLength="160" x="1167.5" y="186.4189">/edgemere/diml/dml/data/govern()</text><text fill="#000000" font-family="sans-serif" font-size="11" lengthAdjust="spacingAndGlyphs" textLength="189" x="1167.5" y="200.2549">/edgemere/diml/dml/data/source/name()</text><text fill="#000000" font-family="sans-serif" font-size="11" lengthAdjust="spacingAndGlyphs" textLength="167" x="1167.5" y="214.0908">/edgemere/diml/dml/datapolicy/list()</text><text fill="#000000" font-family="sans-serif" font-size="11" lengthAdjust="spacingAndGlyphs" textLength="173" x="1167.5" y="227.9268">/edgemere/diml/dml/datasource/list()</text><text fill="#000000" font-family="sans-serif" font-size="11" lengthAdjust="spacingAndGlyphs" textLength="179" x="1167.5" y="241.7627">/edgemere/diml/dml/datastrategy/list()</text><!--entity Data Controller--><rect fill="#FFFFFF" filter="url(#f1x80ja5aaxf0l)" height="37.6094" style="stroke: #000000; stroke-width: 1.5;" width="116" x="1010" y="170.5"/><text fill="#000000" font-family="sans-serif" font-size="14" lengthAdjust="spacingAndGlyphs" textLength="96" x="1020" y="195.0332">Data Controller</text><!--entity Data Orchestrator--><rect fill="#FFFFFF" filter="url(#f1x80ja5aaxf0l)" height="37.6094" style="stroke: #000000; stroke-width: 1.5;" width="134" x="841" y="170.5"/><text fill="#000000" font-family="sans-serif" font-size="14" lengthAdjust="spacingAndGlyphs" textLength="114" x="851" y="195.0332">Data Orchestrator</text><!--entity Federated Meta Data Management--><rect fill="#FFFFFF" filter="url(#f1x80ja5aaxf0l)" height="37.6094" style="stroke: #000000; stroke-width: 1.5;" width="241" x="564.5" y="170.5"/><text fill="#000000" font-family="sans-serif" font-size="14" lengthAdjust="spacingAndGlyphs" textLength="221" x="574.5" y="195.0332">Federated Meta Data Management</text><!--entity Governance Engine--><rect fill="#FFFFFF" filter="url(#f1x80ja5aaxf0l)" height="37.6094" style="stroke: #000000; stroke-width: 1.5;" width="146" x="383" y="170.5"/><text fill="#000000" font-family="sans-serif" font-size="14" lengthAdjust="spacingAndGlyphs" textLength="126" x="393" y="195.0332">Governance Engine</text><ellipse cx="1217" cy="35.5" fill="#FEFECE" filter="url(#f1x80ja5aaxf0l)" rx="5" ry="5" style="stroke: #A80036; stroke-width: 1.5;"/><text fill="#000000" font-family="sans-serif" font-size="12" lengthAdjust="spacingAndGlyphs" textLength="19" x="1207.5" y="52.957">CLI</text><ellipse cx="1262" cy="35.5" fill="#FEFECE" filter="url(#f1x80ja5aaxf0l)" rx="5" ry="5" style="stroke: #A80036; stroke-width: 1.5;"/><text fill="#000000" font-family="sans-serif" font-size="12" lengthAdjust="spacingAndGlyphs" textLength="32" x="1246" y="52.957">REST</text><ellipse cx="1307" cy="35.5" fill="#FEFECE" filter="url(#f1x80ja5aaxf0l)" rx="5" ry="5" style="stroke: #A80036; stroke-width: 1.5;"/><text fill="#000000" font-family="sans-serif" font-size="12" lengthAdjust="spacingAndGlyphs" textLength="25" x="1294.5" y="52.957">Web</text><!--link ilol6732 to i--><path d="M1218.2,40.566 C1222.03,53.502 1234.31,94.959 1244.89,130.707 " fill="none" id="ilol6732-i" style="stroke: #A80036; stroke-width: 1.0;"/><!--link ilol6735 to i--><path d="M1262,40.566 C1262,53.502 1262,94.959 1262,130.707 " fill="none" id="ilol6735-i" style="stroke: #A80036; stroke-width: 1.0;"/><!--link ilol6738 to i--><path d="M1305.8,40.566 C1301.97,53.502 1289.69,94.959 1279.11,130.707 " fill="none" id="ilol6738-i" style="stroke: #A80036; stroke-width: 1.0;"/><!--link Data Management Layer to Software Defined Infrastructure--><path d="M339.783,195.8537 C339.6602,195.9337 339.5362,196.0144 339.411,196.096 C339.1606,196.2592 338.9052,196.4256 338.6449,196.5952 C337.6039,197.2735 336.4847,198.0028 335.2919,198.78 C332.9064,200.3343 330.2264,202.0806 327.288,203.9951 C315.5346,211.6535 299.6471,222.0055 281.9315,233.5488 C246.5003,256.6354 203.7565,284.4867 172.148,305.0822 " fill="none" id="Data Management Layer-Software Defined Infrastructure" style="stroke: #A80036; stroke-width: 1.0;"/><polygon fill="#A80036" points="167.676,307.9965,177.4001,306.4339,171.865,305.2666,173.0323,299.7315,167.676,307.9965" style="stroke: #A80036; stroke-width: 1.0;"/><!--link Data Management Layer to Security Aspect--><path d="M348,272.0837 C348,272.2735 348,272.4633 348,272.6529 C348,274.1701 348,275.6811 348,277.1832 C348,280.1875 348,283.1561 348,286.0669 C348,291.8887 348,297.4793 348,302.6618 " fill="none" id="Data Management Layer-Security Aspect" style="stroke: #A80036; stroke-width: 1.0;"/><polygon fill="#A80036" points="348,307.8311,352,298.8311,348,302.8311,344,298.8311,348,307.8311" style="stroke: #A80036; stroke-width: 1.0;"/><!--link Data Management Layer to Service Management Layer--><path d="M356.1896,272.1273 C356.3381,272.4326 356.4887,272.7367 356.6413,273.0396 C356.9464,273.6455 357.2597,274.2467 357.5814,274.8428 C360.1545,279.6121 363.261,284.0593 367,288 C370.111,291.2786 404.069,300.1466 442.136,309.2706 " fill="none" id="Data Management Layer-Service Management Layer" style="stroke: #A80036; stroke-width: 1.0;"/><polygon fill="#A80036" points="447.286,310.5006,439.463,304.5172,442.4231,309.3378,437.6025,312.2979,447.286,310.5006" style="stroke: #A80036; stroke-width: 1.0;"/><!--
@startuml


package "Software Defined Infrastructure" #lightyellow {

}

package "Security Aspect" #pink {

}

package "Service Management Layer" #lightgreen {

}

package "Data Definition Framework" #ffcc88 {

}


package "Data Management Layer" #ffcc88 {

    interface "Data Management Layer" as i {
            /edgemere/diml/dml/data/govern()
            /edgemere/diml/dml/data/source/name()
            /edgemere/diml/dml/datapolicy/list()
            /edgemere/diml/dml/datasource/list()
            /edgemere/diml/dml/datastrategy/list()
    
    }
}

CLI ()- - i
REST ()- - i
Web ()- - i

package "Data Management Layer" #ffcc88 {


rectangle "Data Controller" #white {
}

rectangle "Data Orchestrator" #white {
}

rectangle "Federated Meta Data Management" #white {
}

rectangle "Governance Engine" #white {
}

}


    "Data Management Layer" - -> "Software Defined Infrastructure"

    "Data Management Layer" - -> "Security Aspect"

    "Data Management Layer" - -> "Service Management Layer"


@enduml

PlantUML version 1.2019.05(Sat Apr 20 09:45:36 PDT 2019)
(GPL source distribution)
Java Runtime: OpenJDK Runtime Environment
JVM: OpenJDK 64-Bit Server VM
Java Version: 12.0.1+12
Operating System: Windows 10
OS Version: 10.0
Default Encoding: Cp1252
Language: en
Country: US
--></g></svg>