<?xml version="1.0" encoding="UTF-8" standalone="no"?><svg xmlns="http://www.w3.org/2000/svg" xmlns:xlink="http://www.w3.org/1999/xlink" contentScriptType="application/ecmascript" contentStyleType="text/css" height="354px" preserveAspectRatio="none" style="width:394px;height:354px;" version="1.1" viewBox="0 0 394 354" width="394px" zoomAndPan="magnify"><defs><filter height="300%" id="f1316wykj3qse6" width="300%" x="-1" y="-1"><feGaussianBlur result="blurOut" stdDeviation="2.0"/><feColorMatrix in="blurOut" result="blurOut2" type="matrix" values="0 0 0 0 0 0 0 0 0 0 0 0 0 0 0 0 0 0 .4 0"/><feOffset dx="4.0" dy="4.0" in="blurOut2" result="blurOut3"/><feBlend in="SourceGraphic" in2="blurOut3" mode="normal"/></filter></defs><g><!--cluster Data Management Layer--><rect fill="#FFCC88" filter="url(#f1316wykj3qse6)" height="313" style="stroke: #000000; stroke-width: 1.5;" width="220" x="163" y="24"/><text fill="#000000" font-family="sans-serif" font-size="14" font-weight="bold" lengthAdjust="spacingAndGlyphs" textLength="168" x="189" y="40.5332">Data Management Layer</text><ellipse cx="272.8753" cy="154.1751" fill="#FEFECE" filter="url(#f1316wykj3qse6)" rx="93.8753" ry="21.1751" style="stroke: #A80036; stroke-width: 1.5;"/><text fill="#000000" font-family="sans-serif" font-size="14" lengthAdjust="spacingAndGlyphs" textLength="159" x="193.3753" y="159.4797">ManageDataGovernance</text><ellipse cx="273.0917" cy="229.1183" fill="#FEFECE" filter="url(#f1316wykj3qse6)" rx="81.0917" ry="18.6183" style="stroke: #A80036; stroke-width: 1.5;"/><text fill="#000000" font-family="sans-serif" font-size="14" lengthAdjust="spacingAndGlyphs" textLength="129" x="208.5917" y="234.423">ManageDataPolicies</text><ellipse cx="272.7516" cy="301.9503" fill="#FEFECE" filter="url(#f1316wykj3qse6)" rx="82.7516" ry="18.9503" style="stroke: #A80036; stroke-width: 1.5;"/><text fill="#000000" font-family="sans-serif" font-size="14" lengthAdjust="spacingAndGlyphs" textLength="133" x="206.2516" y="307.255">ManageDataSources</text><ellipse cx="273.169" cy="79.0338" fill="#FEFECE" filter="url(#f1316wykj3qse6)" rx="83.169" ry="19.0338" style="stroke: #A80036; stroke-width: 1.5;"/><text fill="#000000" font-family="sans-serif" font-size="14" lengthAdjust="spacingAndGlyphs" textLength="134" x="206.169" y="84.3385">ManageDataStrategy</text><!--entity ChiefDataOfficer--><ellipse cx="62.5" cy="121.5" fill="#FEFECE" filter="url(#f1316wykj3qse6)" rx="8" ry="8" style="stroke: #A80036; stroke-width: 2.0;"/><path d="M62.5,129.5 L62.5,156.5 M49.5,137.5 L75.5,137.5 M62.5,156.5 L49.5,171.5 M62.5,156.5 L75.5,171.5 " fill="none" filter="url(#f1316wykj3qse6)" style="stroke: #A80036; stroke-width: 2.0;"/><text fill="#000000" font-family="sans-serif" font-size="14" lengthAdjust="spacingAndGlyphs" textLength="113" x="6" y="193.0332">Chief Data Officer</text><!--entity DataEngineer--><ellipse cx="62.5" cy="269.5" fill="#FEFECE" filter="url(#f1316wykj3qse6)" rx="8" ry="8" style="stroke: #A80036; stroke-width: 2.0;"/><path d="M62.5,277.5 L62.5,304.5 M49.5,285.5 L75.5,285.5 M62.5,304.5 L49.5,319.5 M62.5,304.5 L75.5,319.5 " fill="none" filter="url(#f1316wykj3qse6)" style="stroke: #A80036; stroke-width: 2.0;"/><text fill="#000000" font-family="sans-serif" font-size="14" lengthAdjust="spacingAndGlyphs" textLength="91" x="17" y="341.0332">Data Engineer</text><!--link ChiefDataOfficer to ManageDataGovernance--><path d="M119.1,154 C135.861,154 154.784,154 173.463,154 " fill="none" id="ChiefDataOfficer-ManageDataGovernance" style="stroke: #A80036; stroke-width: 1.0;"/><polygon fill="#A80036" points="178.722,154,169.722,150,173.722,154,169.722,158,178.722,154" style="stroke: #A80036; stroke-width: 1.0;"/><!--link ChiefDataOfficer to ManageDataPolicies--><path d="M119.262,178.86 C130.978,183.775 143.324,188.728 155,193 C174.779,200.236 196.778,207.264 216.314,213.162 " fill="none" id="ChiefDataOfficer-ManageDataPolicies" style="stroke: #A80036; stroke-width: 1.0;"/><polygon fill="#A80036" points="221.225,214.636,213.7564,208.2157,216.4364,213.1974,211.4547,215.8774,221.225,214.636" style="stroke: #A80036; stroke-width: 1.0;"/><!--link DataEngineer to ManageDataSources--><path d="M108.228,302 C130.552,302 158.351,302 184.672,302 " fill="none" id="DataEngineer-ManageDataSources" style="stroke: #A80036; stroke-width: 1.0;"/><polygon fill="#A80036" points="189.914,302,180.914,298,184.914,302,180.914,306,189.914,302" style="stroke: #A80036; stroke-width: 1.0;"/><!--link ChiefDataOfficer to ManageDataStrategy--><path d="M119.262,129.14 C130.978,124.225 143.324,119.272 155,115 C174.411,107.899 195.961,100.997 215.221,95.169 " fill="none" id="ChiefDataOfficer-ManageDataStrategy" style="stroke: #A80036; stroke-width: 1.0;"/><polygon fill="#A80036" points="220.066,93.71,210.2949,92.4747,215.2783,95.1516,212.6015,100.135,220.066,93.71" style="stroke: #A80036; stroke-width: 1.0;"/><!--
@startuml

left to right direction
Actor "Chief Data Officer" as ChiefDataOfficer
Actor "Chief Data Officer" as ChiefDataOfficer
Actor "Data Engineer" as DataEngineer
Actor "Chief Data Officer" as ChiefDataOfficer


rectangle "Data Management Layer" #ffcc88 {
usecase "ManageDataGovernance" as ManageDataGovernance
    ChiefDataOfficer - -> ManageDataGovernance
    usecase "ManageDataPolicies" as ManageDataPolicies
    ChiefDataOfficer - -> ManageDataPolicies
    usecase "ManageDataSources" as ManageDataSources
    DataEngineer - -> ManageDataSources
    usecase "ManageDataStrategy" as ManageDataStrategy
    ChiefDataOfficer - -> ManageDataStrategy
    }


@enduml

PlantUML version 1.2019.05(Sat Apr 20 09:45:36 PDT 2019)
(GPL source distribution)
Java Runtime: OpenJDK Runtime Environment
JVM: OpenJDK 64-Bit Server VM
Java Version: 12.0.1+12
Operating System: Windows 10
OS Version: 10.0
Default Encoding: Cp1252
Language: en
Country: US
--></g></svg>