<?xml version="1.0" encoding="UTF-8" standalone="no"?><svg xmlns="http://www.w3.org/2000/svg" xmlns:xlink="http://www.w3.org/1999/xlink" contentScriptType="application/ecmascript" contentStyleType="text/css" height="560px" preserveAspectRatio="none" style="width:597px;height:560px;" version="1.1" viewBox="0 0 597 560" width="597px" zoomAndPan="magnify"><defs><filter height="300%" id="f1bp2dyi07ghts" width="300%" x="-1" y="-1"><feGaussianBlur result="blurOut" stdDeviation="2.0"/><feColorMatrix in="blurOut" result="blurOut2" type="matrix" values="0 0 0 0 0 0 0 0 0 0 0 0 0 0 0 0 0 0 .4 0"/><feOffset dx="4.0" dy="4.0" in="blurOut2" result="blurOut3"/><feBlend in="SourceGraphic" in2="blurOut3" mode="normal"/></filter></defs><g><line style="stroke: #A80036; stroke-width: 1.0; stroke-dasharray: 5.0,5.0;" x1="63" x2="63" y1="87.6094" y2="471.8281"/><line style="stroke: #A80036; stroke-width: 1.0; stroke-dasharray: 5.0,5.0;" x1="175" x2="175" y1="87.6094" y2="471.8281"/><line style="stroke: #A80036; stroke-width: 1.0; stroke-dasharray: 5.0,5.0;" x1="328.5" x2="328.5" y1="87.6094" y2="471.8281"/><line style="stroke: #A80036; stroke-width: 1.0; stroke-dasharray: 5.0,5.0;" x1="445" x2="445" y1="87.6094" y2="471.8281"/><line style="stroke: #A80036; stroke-width: 1.0; stroke-dasharray: 5.0,5.0;" x1="562" x2="562" y1="87.6094" y2="471.8281"/><text fill="#000000" font-family="sans-serif" font-size="14" lengthAdjust="spacingAndGlyphs" textLength="105" x="8" y="84.5332">ChiefDataOfficer</text><ellipse cx="63.5" cy="13" fill="#FEFECE" filter="url(#f1bp2dyi07ghts)" rx="8" ry="8" style="stroke: #A80036; stroke-width: 2.0;"/><path d="M63.5,21 L63.5,48 M50.5,29 L76.5,29 M63.5,48 L50.5,63 M63.5,48 L76.5,63 " fill="none" filter="url(#f1bp2dyi07ghts)" style="stroke: #A80036; stroke-width: 2.0;"/><text fill="#000000" font-family="sans-serif" font-size="14" lengthAdjust="spacingAndGlyphs" textLength="105" x="8" y="485.3613">ChiefDataOfficer</text><ellipse cx="63.5" cy="498.4375" fill="#FEFECE" filter="url(#f1bp2dyi07ghts)" rx="8" ry="8" style="stroke: #A80036; stroke-width: 2.0;"/><path d="M63.5,506.4375 L63.5,533.4375 M50.5,514.4375 L76.5,514.4375 M63.5,533.4375 L50.5,548.4375 M63.5,533.4375 L76.5,548.4375 " fill="none" filter="url(#f1bp2dyi07ghts)" style="stroke: #A80036; stroke-width: 2.0;"/><text fill="#000000" font-family="sans-serif" font-size="14" lengthAdjust="spacingAndGlyphs" textLength="87" x="129" y="84.5332">DataEngineer</text><ellipse cx="175.5" cy="13" fill="#FEFECE" filter="url(#f1bp2dyi07ghts)" rx="8" ry="8" style="stroke: #A80036; stroke-width: 2.0;"/><path d="M175.5,21 L175.5,48 M162.5,29 L188.5,29 M175.5,48 L162.5,63 M175.5,48 L188.5,63 " fill="none" filter="url(#f1bp2dyi07ghts)" style="stroke: #A80036; stroke-width: 2.0;"/><text fill="#000000" font-family="sans-serif" font-size="14" lengthAdjust="spacingAndGlyphs" textLength="87" x="129" y="485.3613">DataEngineer</text><ellipse cx="175.5" cy="498.4375" fill="#FEFECE" filter="url(#f1bp2dyi07ghts)" rx="8" ry="8" style="stroke: #A80036; stroke-width: 2.0;"/><path d="M175.5,506.4375 L175.5,533.4375 M162.5,514.4375 L188.5,514.4375 M175.5,533.4375 L162.5,548.4375 M175.5,533.4375 L188.5,548.4375 " fill="none" filter="url(#f1bp2dyi07ghts)" style="stroke: #A80036; stroke-width: 2.0;"/><rect fill="#FEFECE" filter="url(#f1bp2dyi07ghts)" height="31.6094" style="stroke: #A80036; stroke-width: 1.5;" width="170" x="241.5" y="51"/><text fill="#000000" font-family="sans-serif" font-size="14" lengthAdjust="spacingAndGlyphs" textLength="156" x="248.5" y="72.5332">Data Management Layer</text><rect fill="#FEFECE" filter="url(#f1bp2dyi07ghts)" height="31.6094" style="stroke: #A80036; stroke-width: 1.5;" width="170" x="241.5" y="470.8281"/><text fill="#000000" font-family="sans-serif" font-size="14" lengthAdjust="spacingAndGlyphs" textLength="156" x="248.5" y="492.3613">Data Management Layer</text><rect fill="#FEFECE" filter="url(#f1bp2dyi07ghts)" height="31.6094" style="stroke: #A80036; stroke-width: 1.5;" width="33" x="427" y="51"/><text fill="#000000" font-family="sans-serif" font-size="14" lengthAdjust="spacingAndGlyphs" textLength="19" x="434" y="72.5332">bin</text><rect fill="#FEFECE" filter="url(#f1bp2dyi07ghts)" height="31.6094" style="stroke: #A80036; stroke-width: 1.5;" width="33" x="427" y="470.8281"/><text fill="#000000" font-family="sans-serif" font-size="14" lengthAdjust="spacingAndGlyphs" textLength="19" x="434" y="492.3613">bin</text><rect fill="#FEFECE" filter="url(#f1bp2dyi07ghts)" height="31.6094" style="stroke: #A80036; stroke-width: 1.5;" width="51" x="535" y="51"/><text fill="#000000" font-family="sans-serif" font-size="14" lengthAdjust="spacingAndGlyphs" textLength="37" x="542" y="72.5332">REST</text><rect fill="#FEFECE" filter="url(#f1bp2dyi07ghts)" height="31.6094" style="stroke: #A80036; stroke-width: 1.5;" width="51" x="535" y="470.8281"/><text fill="#000000" font-family="sans-serif" font-size="14" lengthAdjust="spacingAndGlyphs" textLength="37" x="542" y="492.3613">REST</text><polygon fill="#A80036" points="316.5,115.9609,326.5,119.9609,316.5,123.9609,320.5,119.9609" style="stroke: #A80036; stroke-width: 1.0;"/><line style="stroke: #A80036; stroke-width: 1.0;" x1="63.5" x2="322.5" y1="119.9609" y2="119.9609"/><text fill="#000000" font-family="sans-serif" font-size="13" lengthAdjust="spacingAndGlyphs" textLength="149" x="70.5" y="115.1045">Manage Data Governance</text><polygon fill="#A80036" points="433.5,146.3125,443.5,150.3125,433.5,154.3125,437.5,150.3125" style="stroke: #A80036; stroke-width: 1.0;"/><line style="stroke: #A80036; stroke-width: 1.0;" x1="328.5" x2="439.5" y1="150.3125" y2="150.3125"/><text fill="#000000" font-family="sans-serif" font-size="13" lengthAdjust="spacingAndGlyphs" textLength="66" x="335.5" y="145.4561">data/govern</text><polygon fill="#A80036" points="550.5,176.6641,560.5,180.6641,550.5,184.6641,554.5,180.6641" style="stroke: #A80036; stroke-width: 1.0;"/><line style="stroke: #A80036; stroke-width: 1.0;" x1="445.5" x2="556.5" y1="180.6641" y2="180.6641"/><text fill="#000000" font-family="sans-serif" font-size="13" lengthAdjust="spacingAndGlyphs" textLength="66" x="452.5" y="175.8076">data/govern</text><polygon fill="#A80036" points="316.5,207.0156,326.5,211.0156,316.5,215.0156,320.5,211.0156" style="stroke: #A80036; stroke-width: 1.0;"/><line style="stroke: #A80036; stroke-width: 1.0;" x1="63.5" x2="322.5" y1="211.0156" y2="211.0156"/><text fill="#000000" font-family="sans-serif" font-size="13" lengthAdjust="spacingAndGlyphs" textLength="127" x="70.5" y="206.1592">Manage Data Policies</text><polygon fill="#A80036" points="433.5,237.3672,443.5,241.3672,433.5,245.3672,437.5,241.3672" style="stroke: #A80036; stroke-width: 1.0;"/><line style="stroke: #A80036; stroke-width: 1.0;" x1="328.5" x2="439.5" y1="241.3672" y2="241.3672"/><text fill="#000000" font-family="sans-serif" font-size="13" lengthAdjust="spacingAndGlyphs" textLength="80" x="335.5" y="236.5107">datapolicy/list</text><polygon fill="#A80036" points="550.5,267.7188,560.5,271.7188,550.5,275.7188,554.5,271.7188" style="stroke: #A80036; stroke-width: 1.0;"/><line style="stroke: #A80036; stroke-width: 1.0;" x1="445.5" x2="556.5" y1="271.7188" y2="271.7188"/><text fill="#000000" font-family="sans-serif" font-size="13" lengthAdjust="spacingAndGlyphs" textLength="80" x="452.5" y="266.8623">datapolicy/list</text><polygon fill="#A80036" points="316.5,298.0703,326.5,302.0703,316.5,306.0703,320.5,302.0703" style="stroke: #A80036; stroke-width: 1.0;"/><line style="stroke: #A80036; stroke-width: 1.0;" x1="63.5" x2="322.5" y1="302.0703" y2="302.0703"/><text fill="#000000" font-family="sans-serif" font-size="13" lengthAdjust="spacingAndGlyphs" textLength="130" x="70.5" y="297.2139">Manage Data Strategy</text><polygon fill="#A80036" points="433.5,328.4219,443.5,332.4219,433.5,336.4219,437.5,332.4219" style="stroke: #A80036; stroke-width: 1.0;"/><line style="stroke: #A80036; stroke-width: 1.0;" x1="328.5" x2="439.5" y1="332.4219" y2="332.4219"/><text fill="#000000" font-family="sans-serif" font-size="13" lengthAdjust="spacingAndGlyphs" textLength="93" x="335.5" y="327.5654">datastrategy/list</text><polygon fill="#A80036" points="550.5,358.7734,560.5,362.7734,550.5,366.7734,554.5,362.7734" style="stroke: #A80036; stroke-width: 1.0;"/><line style="stroke: #A80036; stroke-width: 1.0;" x1="445.5" x2="556.5" y1="362.7734" y2="362.7734"/><text fill="#000000" font-family="sans-serif" font-size="13" lengthAdjust="spacingAndGlyphs" textLength="93" x="452.5" y="357.917">datastrategy/list</text><polygon fill="#A80036" points="316.5,389.125,326.5,393.125,316.5,397.125,320.5,393.125" style="stroke: #A80036; stroke-width: 1.0;"/><line style="stroke: #A80036; stroke-width: 1.0;" x1="175.5" x2="322.5" y1="393.125" y2="393.125"/><text fill="#000000" font-family="sans-serif" font-size="13" lengthAdjust="spacingAndGlyphs" textLength="129" x="182.5" y="388.2686">Manage Data Sources</text><polygon fill="#A80036" points="433.5,419.4766,443.5,423.4766,433.5,427.4766,437.5,423.4766" style="stroke: #A80036; stroke-width: 1.0;"/><line style="stroke: #A80036; stroke-width: 1.0;" x1="328.5" x2="439.5" y1="423.4766" y2="423.4766"/><text fill="#000000" font-family="sans-serif" font-size="13" lengthAdjust="spacingAndGlyphs" textLength="85" x="335.5" y="418.6201">datasource/list</text><polygon fill="#A80036" points="550.5,449.8281,560.5,453.8281,550.5,457.8281,554.5,453.8281" style="stroke: #A80036; stroke-width: 1.0;"/><line style="stroke: #A80036; stroke-width: 1.0;" x1="445.5" x2="556.5" y1="453.8281" y2="453.8281"/><text fill="#000000" font-family="sans-serif" font-size="13" lengthAdjust="spacingAndGlyphs" textLength="85" x="452.5" y="448.9717">datasource/list</text><!--
@startuml

actor "ChiefDataOfficer" as cdo

actor "DataEngineer" as dataengineer




cdo -> "Data Management Layer": Manage Data Governance
"Data Management Layer" -> bin: data/govern
bin -> REST: data/govern

cdo -> "Data Management Layer": Manage Data Policies
"Data Management Layer" -> bin: datapolicy/list
bin -> REST: datapolicy/list

cdo -> "Data Management Layer": Manage Data Strategy
"Data Management Layer" -> bin: datastrategy/list
bin -> REST: datastrategy/list

dataengineer -> "Data Management Layer": Manage Data Sources
"Data Management Layer" -> bin: datasource/list
bin -> REST: datasource/list


@enduml

PlantUML version 1.2019.05(Sat Apr 20 09:45:36 PDT 2019)
(GPL source distribution)
Java Runtime: OpenJDK Runtime Environment
JVM: OpenJDK 64-Bit Server VM
Java Version: 12.0.1+12
Operating System: Windows 10
OS Version: 10.0
Default Encoding: Cp1252
Language: en
Country: US
--></g></svg>