<?xml version="1.0" encoding="UTF-8" standalone="no"?><svg xmlns="http://www.w3.org/2000/svg" xmlns:xlink="http://www.w3.org/1999/xlink" contentScriptType="application/ecmascript" contentStyleType="text/css" height="332px" preserveAspectRatio="none" style="width:152px;height:332px;" version="1.1" viewBox="0 0 152 332" width="152px" zoomAndPan="magnify"><defs><filter height="300%" id="f1ccyavfcmc0gm" width="300%" x="-1" y="-1"><feGaussianBlur result="blurOut" stdDeviation="2.0"/><feColorMatrix in="blurOut" result="blurOut2" type="matrix" values="0 0 0 0 0 0 0 0 0 0 0 0 0 0 0 0 0 0 .4 0"/><feOffset dx="4.0" dy="4.0" in="blurOut2" result="blurOut3"/><feBlend in="SourceGraphic" in2="blurOut3" mode="normal"/></filter></defs><g><rect fill="#D3D3D3" filter="url(#f1ccyavfcmc0gm)" height="313.6094" rx="12.5" ry="12.5" style="stroke: #A80036; stroke-width: 1.5;" width="134" x="6" y="8"/><rect fill="#FFFFFF" height="280" rx="12.5" ry="12.5" style="stroke: #FFFFFF; stroke-width: 1.0;" width="128" x="9" y="38.6094"/><line style="stroke: #A80036; stroke-width: 1.5;" x1="6" x2="140" y1="35.6094" y2="35.6094"/><text fill="#000000" font-family="sans-serif" font-size="14" lengthAdjust="spacingAndGlyphs" textLength="43" x="51.5" y="27.5332">Device</text><rect fill="#D3D3D3" filter="url(#f1ccyavfcmc0gm)" height="50" rx="12.5" ry="12.5" style="stroke: #A80036; stroke-width: 1.5;" width="50" x="29.5" y="48.6094"/><line style="stroke: #A80036; stroke-width: 1.5;" x1="29.5" x2="79.5" y1="76.2188" y2="76.2188"/><text fill="#000000" font-family="sans-serif" font-size="14" lengthAdjust="spacingAndGlyphs" textLength="18" x="45.5" y="68.1426">Init</text><rect fill="#D3D3D3" filter="url(#f1ccyavfcmc0gm)" height="50" rx="12.5" ry="12.5" style="stroke: #A80036; stroke-width: 1.5;" width="72" x="18.5" y="152.6094"/><line style="stroke: #A80036; stroke-width: 1.5;" x1="18.5" x2="90.5" y1="180.2188" y2="180.2188"/><text fill="#000000" font-family="sans-serif" font-size="14" lengthAdjust="spacingAndGlyphs" textLength="52" x="28.5" y="172.1426">Enabled</text><rect fill="#D3D3D3" filter="url(#f1ccyavfcmc0gm)" height="50" rx="12.5" ry="12.5" style="stroke: #A80036; stroke-width: 1.5;" width="75" x="17" y="256.6094"/><line style="stroke: #A80036; stroke-width: 1.5;" x1="17" x2="92" y1="284.2188" y2="284.2188"/><text fill="#000000" font-family="sans-serif" font-size="14" lengthAdjust="spacingAndGlyphs" textLength="55" x="27" y="276.1426">Disabled</text><!--link Init to Enabled--><path d="M34.3272,98.6184 C30.6976,104.1994 27.4512,110.3494 25.5,116.6094 C22.186,127.2414 25.4642,138.3614 30.8458,148.0984 " fill="none" id="Init-Enabled" style="stroke: #A80036; stroke-width: 1.0;"/><polygon fill="#A80036" points="33.4503,152.4684,32.2783,142.6895,30.8903,148.1734,25.4064,146.7854,33.4503,152.4684" style="stroke: #A80036; stroke-width: 1.0;"/><text fill="#000000" font-family="sans-serif" font-size="13" lengthAdjust="spacingAndGlyphs" textLength="36" x="26.5" y="131.1045">create</text><!--link Init to Enabled--><path d="M60.9612,98.7794 C63.1473,109.6954 64.7539,122.7734 63.5,134.6094 C63.0596,138.7664 62.3804,143.1174 61.5882,147.3774 " fill="none" id="Init-Enabled-1" style="stroke: #A80036; stroke-width: 1.0;"/><polygon fill="#A80036" points="60.6138,152.3204,66.2791,144.2641,61.5809,147.4148,58.4302,142.7166,60.6138,152.3204" style="stroke: #A80036; stroke-width: 1.0;"/><text fill="#000000" font-family="sans-serif" font-size="13" lengthAdjust="spacingAndGlyphs" textLength="41" x="64.5" y="131.1045">reserve</text><!--link Enabled to Disabled--><path d="M31.9414,202.8194 C28.0656,208.2977 24.6109,214.3559 22.5,220.6094 C18.8984,231.2793 22.4239,242.3283 28.2652,251.9924 " fill="none" id="Enabled-Disabled" style="stroke: #A80036; stroke-width: 1.0;"/><polygon fill="#A80036" points="31.0947,256.3289,29.5264,246.6057,28.3623,252.1415,22.8265,250.9775,31.0947,256.3289" style="stroke: #A80036; stroke-width: 1.0;"/><text fill="#000000" font-family="sans-serif" font-size="13" lengthAdjust="spacingAndGlyphs" textLength="41" x="23.5" y="235.1045">disable</text><!--link Disabled to Enabled--><path d="M62.3932,256.4704 C65.0644,245.5597 67.0285,232.4784 65.5,220.6094 C64.9603,216.4182 64.1294,212.0485 63.1608,207.7794 " fill="none" id="Disabled-Enabled" style="stroke: #A80036; stroke-width: 1.0;"/><polygon fill="#A80036" points="61.9696,202.8304,60.1872,212.5166,63.1399,207.6915,67.965,210.6442,61.9696,202.8304" style="stroke: #A80036; stroke-width: 1.0;"/><text fill="#000000" font-family="sans-serif" font-size="13" lengthAdjust="spacingAndGlyphs" textLength="38" x="66.5" y="235.1045">enable</text><!--
@startuml



state Device #lightgray {

    state Init #lightgray {
    }

    state Enabled #lightgray {
    }

    state Disabled #lightgray {
    }

}


Init - -> Enabled : create

Init - -> Enabled : reserve

Enabled - -> Disabled : disable

Disabled - -> Enabled : enable




@enduml

PlantUML version 1.2019.05(Sat Apr 20 09:45:36 PDT 2019)
(GPL source distribution)
Java Runtime: OpenJDK Runtime Environment
JVM: OpenJDK 64-Bit Server VM
Java Version: 12.0.1+12
Operating System: Windows 10
OS Version: 10.0
Default Encoding: Cp1252
Language: en
Country: US
--></g></svg>