<?xml version="1.0" encoding="UTF-8" standalone="no"?><svg xmlns="http://www.w3.org/2000/svg" xmlns:xlink="http://www.w3.org/1999/xlink" contentScriptType="application/ecmascript" contentStyleType="text/css" height="237px" preserveAspectRatio="none" style="width:230px;height:237px;" version="1.1" viewBox="0 0 230 237" width="230px" zoomAndPan="magnify"><defs><filter height="300%" id="fv4kedpgsugt3" width="300%" x="-1" y="-1"><feGaussianBlur result="blurOut" stdDeviation="2.0"/><feColorMatrix in="blurOut" result="blurOut2" type="matrix" values="0 0 0 0 0 0 0 0 0 0 0 0 0 0 0 0 0 0 .4 0"/><feOffset dx="4.0" dy="4.0" in="blurOut2" result="blurOut3"/><feBlend in="SourceGraphic" in2="blurOut3" mode="normal"/></filter></defs><g><!--cluster Telemetry Aggregator--><polygon fill="#D3D3D3" filter="url(#fv4kedpgsugt3)" points="22,42,180,42,187,65.6094,208,65.6094,208,225,22,225,22,42" style="stroke: #000000; stroke-width: 1.5;"/><line style="stroke: #000000; stroke-width: 1.5;" x1="22" x2="187" y1="65.6094" y2="65.6094"/><text fill="#000000" font-family="sans-serif" font-size="14" font-weight="bold" lengthAdjust="spacingAndGlyphs" textLength="152" x="26" y="58.5332">Telemetry Aggregator</text><!--class i--><rect fill="#FEFECE" filter="url(#fv4kedpgsugt3)" height="131.0156" id="i" style="stroke: #A80036; stroke-width: 1.5;" width="154" x="38" y="78"/><ellipse cx="54.35" cy="94" fill="#B4A7E5" rx="11" ry="11" style="stroke: #A80036; stroke-width: 1.0;"/><path d="M55.3031,90.6406 L55.3031,97.2969 L57.0219,97.2969 Q57.6313,97.2969 57.8969,97.5313 Q58.1625,97.7656 58.1625,98.1563 Q58.1625,98.5313 57.8969,98.7656 Q57.6313,99 57.0219,99 L51.8813,99 Q51.2719,99 51.0063,98.7656 Q50.7406,98.5313 50.7406,98.1406 Q50.7406,97.7656 51.0063,97.5313 Q51.2719,97.2969 51.8813,97.2969 L53.6,97.2969 L53.6,90.6406 L51.8813,90.6406 Q51.2719,90.6406 51.0063,90.4063 Q50.7406,90.1719 50.7406,89.7813 Q50.7406,89.4063 51.0063,89.1719 Q51.2719,88.9375 51.8813,88.9375 L57.0219,88.9375 Q57.6313,88.9375 57.8969,89.1719 Q58.1625,89.4063 58.1625,89.7813 Q58.1625,90.1719 57.8969,90.4063 Q57.6313,90.6406 57.0219,90.6406 L55.3031,90.6406 Z "/><text fill="#000000" font-family="sans-serif" font-size="12" font-style="italic" lengthAdjust="spacingAndGlyphs" textLength="119" x="68.65" y="98.9102">Telemetry Aggregator</text><line style="stroke: #A80036; stroke-width: 1.5;" x1="39" x2="191" y1="110" y2="110"/><line style="stroke: #A80036; stroke-width: 1.5;" x1="39" x2="191" y1="118" y2="118"/><text fill="#000000" font-family="sans-serif" font-size="11" lengthAdjust="spacingAndGlyphs" textLength="104" x="44" y="133.4189">/edgemere/cpl/ta/list()</text><text fill="#000000" font-family="sans-serif" font-size="11" lengthAdjust="spacingAndGlyphs" textLength="120" x="44" y="147.2549">/edgemere/cpl/ta/report()</text><text fill="#000000" font-family="sans-serif" font-size="11" lengthAdjust="spacingAndGlyphs" textLength="137" x="44" y="161.0908">/edgemere/cpl/ta/setparent()</text><text fill="#000000" font-family="sans-serif" font-size="11" lengthAdjust="spacingAndGlyphs" textLength="119" x="44" y="174.9268">/edgemere/cpl/ta/show()</text><text fill="#000000" font-family="sans-serif" font-size="11" lengthAdjust="spacingAndGlyphs" textLength="133" x="44" y="188.7627">/edgemere/cpl/ta/stats/get()</text><text fill="#000000" font-family="sans-serif" font-size="11" lengthAdjust="spacingAndGlyphs" textLength="142" x="44" y="202.5986">/edgemere/cpl/ta/stats/send()</text><ellipse cx="70" cy="13" fill="#FEFECE" filter="url(#fv4kedpgsugt3)" rx="5" ry="5" style="stroke: #A80036; stroke-width: 1.5;"/><text fill="#000000" font-family="sans-serif" font-size="12" lengthAdjust="spacingAndGlyphs" textLength="19" x="60.5" y="30.457">CLI</text><ellipse cx="115" cy="13" fill="#FEFECE" filter="url(#fv4kedpgsugt3)" rx="5" ry="5" style="stroke: #A80036; stroke-width: 1.5;"/><text fill="#000000" font-family="sans-serif" font-size="12" lengthAdjust="spacingAndGlyphs" textLength="32" x="99" y="30.457">REST</text><ellipse cx="160" cy="13" fill="#FEFECE" filter="url(#fv4kedpgsugt3)" rx="5" ry="5" style="stroke: #A80036; stroke-width: 1.5;"/><text fill="#000000" font-family="sans-serif" font-size="12" lengthAdjust="spacingAndGlyphs" textLength="25" x="147.5" y="30.457">Web</text><!--link ilol2878 to i--><path d="M71.3961,17.987 C74.734,27.518 83.5589,52.718 92.4037,77.975 " fill="none" id="ilol2878-i" style="stroke: #A80036; stroke-width: 1.0;"/><!--link ilol2881 to i--><path d="M115,18.275 C115,27.987 115,52.804 115,77.726 " fill="none" id="ilol2881-i" style="stroke: #A80036; stroke-width: 1.0;"/><!--link ilol2884 to i--><path d="M158.604,17.987 C155.266,27.518 146.441,52.718 137.596,77.975 " fill="none" id="ilol2884-i" style="stroke: #A80036; stroke-width: 1.0;"/><!--
@startuml



package "Telemetry Aggregator" #lightgray {

    interface "Telemetry Aggregator" as i {
            /edgemere/cpl/ta/list()
            /edgemere/cpl/ta/report()
            /edgemere/cpl/ta/setparent()
            /edgemere/cpl/ta/show()
            /edgemere/cpl/ta/stats/get()
            /edgemere/cpl/ta/stats/send()
    
    }
}

CLI ()- - i
REST ()- - i
Web ()- - i

package "Telemetry Aggregator" #lightgray {
    
}



@enduml

PlantUML version 1.2019.05(Sat Apr 20 09:45:36 PDT 2019)
(GPL source distribution)
Java Runtime: OpenJDK Runtime Environment
JVM: OpenJDK 64-Bit Server VM
Java Version: 12.0.1+12
Operating System: Windows 10
OS Version: 10.0
Default Encoding: Cp1252
Language: en
Country: US
--></g></svg>