<?xml version="1.0" encoding="UTF-8" standalone="no"?><svg xmlns="http://www.w3.org/2000/svg" xmlns:xlink="http://www.w3.org/1999/xlink" contentScriptType="application/ecmascript" contentStyleType="text/css" height="464px" preserveAspectRatio="none" style="width:565px;height:464px;" version="1.1" viewBox="0 0 565 464" width="565px" zoomAndPan="magnify"><defs><filter height="300%" id="f1ij2ypui7a0ph" width="300%" x="-1" y="-1"><feGaussianBlur result="blurOut" stdDeviation="2.0"/><feColorMatrix in="blurOut" result="blurOut2" type="matrix" values="0 0 0 0 0 0 0 0 0 0 0 0 0 0 0 0 0 0 .4 0"/><feOffset dx="4.0" dy="4.0" in="blurOut2" result="blurOut3"/><feBlend in="SourceGraphic" in2="blurOut3" mode="normal"/></filter></defs><g><!--entity Device--><rect fill="#90EE90" filter="url(#f1ij2ypui7a0ph)" height="37.6094" style="stroke: #000000; stroke-width: 1.5;" width="63" x="147" y="8"/><text fill="#000000" font-family="sans-serif" font-size="14" lengthAdjust="spacingAndGlyphs" textLength="43" x="157" y="32.5332">Device</text><!--entity PhysicalProfile--><rect fill="#ADD8E6" filter="url(#f1ij2ypui7a0ph)" height="37.6094" style="stroke: #000000; stroke-width: 1.5;" width="112" x="327.5" y="416"/><text fill="#000000" font-family="sans-serif" font-size="14" lengthAdjust="spacingAndGlyphs" textLength="92" x="337.5" y="440.5332">PhysicalProfile</text><!--entity DataCenter--><rect fill="#90EE90" filter="url(#f1ij2ypui7a0ph)" height="37.6094" style="stroke: #000000; stroke-width: 1.5;" width="93" x="6" y="416"/><text fill="#000000" font-family="sans-serif" font-size="14" lengthAdjust="spacingAndGlyphs" textLength="73" x="16" y="440.5332">DataCenter</text><!--entity Hardware--><rect fill="#ADD8E6" filter="url(#f1ij2ypui7a0ph)" height="37.6094" style="stroke: #000000; stroke-width: 1.5;" width="80" x="474.5" y="416"/><text fill="#000000" font-family="sans-serif" font-size="14" lengthAdjust="spacingAndGlyphs" textLength="60" x="484.5" y="440.5332">Hardware</text><!--entity AggregatedDevice--><rect fill="#90EE90" filter="url(#f1ij2ypui7a0ph)" height="37.6094" style="stroke: #000000; stroke-width: 1.5;" width="137" x="155" y="416"/><text fill="#000000" font-family="sans-serif" font-size="14" lengthAdjust="spacingAndGlyphs" textLength="117" x="165" y="440.5332">AggregatedDevice</text><!--entity Cloud--><rect fill="#90EE90" filter="url(#f1ij2ypui7a0ph)" height="37.6094" style="stroke: #000000; stroke-width: 1.5;" width="57" x="279" y="8"/><text fill="#000000" font-family="sans-serif" font-size="14" lengthAdjust="spacingAndGlyphs" textLength="37" x="289" y="32.5332">Cloud</text><!--entity Request--><rect fill="#90EE90" filter="url(#f1ij2ypui7a0ph)" height="37.6094" style="stroke: #000000; stroke-width: 1.5;" width="73" x="371" y="8"/><text fill="#000000" font-family="sans-serif" font-size="14" lengthAdjust="spacingAndGlyphs" textLength="53" x="381" y="32.5332">Request</text><!--class Model--><rect fill="#FEFECE" filter="url(#f1ij2ypui7a0ph)" height="214.0313" id="Model" style="stroke: #A80036; stroke-width: 1.5;" width="132" x="198.5" y="124"/><ellipse cx="213.5" cy="140" fill="#ADD1B2" rx="11" ry="11" style="stroke: #A80036; stroke-width: 1.0;"/><path d="M216.2656,135.875 Q216.4219,135.6563 216.6094,135.5469 Q216.7969,135.4375 217.0156,135.4375 Q217.3906,135.4375 217.625,135.7031 Q217.8594,135.9531 217.8594,136.5625 L217.8594,138.0156 Q217.8594,138.625 217.625,138.8906 Q217.3906,139.1563 217.0156,139.1563 Q216.6719,139.1563 216.4688,138.9531 Q216.2656,138.7656 216.1563,138.25 Q216.1094,137.8906 215.9219,137.7031 Q215.5938,137.3281 214.9844,137.1094 Q214.375,136.8906 213.75,136.8906 Q212.9844,136.8906 212.3438,137.2188 Q211.7188,137.5469 211.2188,138.2969 Q210.7344,139.0469 210.7344,140.0781 L210.7344,141.1719 Q210.7344,142.4063 211.625,143.2344 Q212.5156,144.0469 214.1094,144.0469 Q215.0469,144.0469 215.7031,143.7969 Q216.0938,143.6406 216.5156,143.2031 Q216.7813,142.9375 216.9219,142.8594 Q217.0781,142.7813 217.2813,142.7813 Q217.6094,142.7813 217.8594,143.0469 Q218.125,143.2969 218.125,143.6406 Q218.125,143.9844 217.7813,144.3906 Q217.2813,144.9688 216.4844,145.2969 Q215.4063,145.75 214.1094,145.75 Q212.5938,145.75 211.3906,145.125 Q210.4063,144.625 209.7188,143.5625 Q209.0313,142.4844 209.0313,141.2031 L209.0313,140.0469 Q209.0313,138.7188 209.6406,137.5781 Q210.2656,136.4219 211.3594,135.8125 Q212.4531,135.1875 213.6875,135.1875 Q214.4219,135.1875 215.0625,135.3594 Q215.7188,135.5156 216.2656,135.875 Z "/><text fill="#000000" font-family="sans-serif" font-size="12" lengthAdjust="spacingAndGlyphs" textLength="100" x="227.5" y="144.9102">AggregatedDevice</text><line style="stroke: #A80036; stroke-width: 1.5;" x1="199.5" x2="329.5" y1="156" y2="156"/><text fill="#000000" font-family="sans-serif" font-size="11" lengthAdjust="spacingAndGlyphs" textLength="56" x="204.5" y="171.4189">string name</text><text fill="#000000" font-family="sans-serif" font-size="11" lengthAdjust="spacingAndGlyphs" textLength="62" x="204.5" y="185.2549">string ename</text><text fill="#000000" font-family="sans-serif" font-size="11" lengthAdjust="spacingAndGlyphs" textLength="77" x="204.5" y="199.0908">string hostname</text><text fill="#000000" font-family="sans-serif" font-size="11" lengthAdjust="spacingAndGlyphs" textLength="51" x="204.5" y="212.9268">string type</text><line style="stroke: #A80036; stroke-width: 1.5;" x1="199.5" x2="329.5" y1="219.3438" y2="219.3438"/><text fill="#000000" font-family="sans-serif" font-size="11" lengthAdjust="spacingAndGlyphs" textLength="65" x="204.5" y="234.7627">addDevices()</text><text fill="#000000" font-family="sans-serif" font-size="11" lengthAdjust="spacingAndGlyphs" textLength="42" x="204.5" y="248.5986">disable()</text><text fill="#000000" font-family="sans-serif" font-size="11" lengthAdjust="spacingAndGlyphs" textLength="40" x="204.5" y="262.4346">enable()</text><text fill="#000000" font-family="sans-serif" font-size="11" lengthAdjust="spacingAndGlyphs" textLength="46" x="204.5" y="276.2705">reserve()</text><text fill="#000000" font-family="sans-serif" font-size="11" lengthAdjust="spacingAndGlyphs" textLength="87" x="204.5" y="290.1064">addToHardware()</text><text fill="#000000" font-family="sans-serif" font-size="11" lengthAdjust="spacingAndGlyphs" textLength="39" x="204.5" y="303.9424">create()</text><text fill="#000000" font-family="sans-serif" font-size="11" lengthAdjust="spacingAndGlyphs" textLength="87" x="204.5" y="317.7783">getReservations()</text><text fill="#000000" font-family="sans-serif" font-size="11" lengthAdjust="spacingAndGlyphs" textLength="52" x="204.5" y="331.6143">provision()</text><!--link Model to Device--><path d="M214.179,111.804 C205.768,92.047 197.741,73.194 191.439,58.391 " fill="none" id="Model-Device" style="stroke: #A80036; stroke-width: 1.0;"/><polygon fill="#A80036" points="186.284,46.282,186.1298,56.1297,188.2429,50.8823,193.4903,52.9954,186.284,46.282" style="stroke: #A80036; stroke-width: 1.0;"/><line style="stroke: #A80036; stroke-width: 1.0;" x1="188.2429" x2="191.376" y1="50.8823" y2="58.2435"/><polygon fill="#A80036" points="219.31,123.855,220.6406,116.7677,214.6102,112.8136,213.2796,119.9009,219.31,123.855" style="stroke: #A80036; stroke-width: 1.0;"/><text fill="#000000" font-family="sans-serif" font-size="13" lengthAdjust="spacingAndGlyphs" textLength="43" x="207.5" y="90.4951">devices</text><text fill="#000000" font-family="sans-serif" font-size="13" lengthAdjust="spacingAndGlyphs" textLength="7" x="180.4353" y="67.2089">n</text><!--link Device to Model--><path d="M157.931,57.626 C152.518,68.967 149.242,82.048 153.5,94 C161.526,116.528 175.061,138.023 189.973,157.002 " fill="none" id="Device-Model" style="stroke: #A80036; stroke-width: 1.0;"/><polygon fill="#A80036" points="198.373,167.277,195.7738,157.7773,195.2085,163.4058,189.58,162.8405,198.373,167.277" style="stroke: #A80036; stroke-width: 1.0;"/><line style="stroke: #A80036; stroke-width: 1.0;" x1="195.2085" x2="190.1455" y1="163.4058" y2="157.2125"/><polygon fill="#FFFFFF" points="164.387,46.138,157.9602,49.4084,158.5072,56.5988,164.934,53.3283,164.387,46.138" style="stroke: #A80036; stroke-width: 1.0;"/><text fill="#000000" font-family="sans-serif" font-size="13" lengthAdjust="spacingAndGlyphs" textLength="36" x="154.5" y="90.4951">parent</text><text fill="#000000" font-family="sans-serif" font-size="13" lengthAdjust="spacingAndGlyphs" textLength="7" x="183.3224" y="156.4977">1</text><!--link Model to PhysicalProfile--><path d="M333.583,349.267 C345.577,369.6264 357.037,389.0802 365.945,404.2011 " fill="none" id="Model-PhysicalProfile" style="stroke: #A80036; stroke-width: 1.0;"/><polygon fill="#A80036" points="372.783,415.8083,371.6614,406.0235,370.2452,411.5002,364.7685,410.084,372.783,415.8083" style="stroke: #A80036; stroke-width: 1.0;"/><line style="stroke: #A80036; stroke-width: 1.0;" x1="370.2452" x2="366.1845" y1="411.5002" y2="404.6074"/><polygon fill="#FFFFFF" points="326.962,338.028,326.5613,345.228,333.0533,348.367,333.454,341.1671,326.962,338.028" style="stroke: #A80036; stroke-width: 1.0;"/><text fill="#000000" font-family="sans-serif" font-size="13" lengthAdjust="spacingAndGlyphs" textLength="34" x="356.5" y="382.4951">profile</text><text fill="#000000" font-family="sans-serif" font-size="13" lengthAdjust="spacingAndGlyphs" textLength="7" x="361.429" y="405.0896">1</text><!--link Model to DataCenter--><path d="M185.92,254.037 C130.883,274.034 61.3554,309.539 27.5,368 C20.8684,379.4514 24.2816,392.9873 30.4447,404.8107 " fill="none" id="Model-DataCenter" style="stroke: #A80036; stroke-width: 1.0;"/><polygon fill="#A80036" points="37.2542,415.9228,35.9623,406.159,34.6417,411.6596,29.1411,410.339,37.2542,415.9228" style="stroke: #A80036; stroke-width: 1.0;"/><line style="stroke: #A80036; stroke-width: 1.0;" x1="34.6417" x2="30.4617" y1="411.6596" y2="404.8384"/><polygon fill="#FFFFFF" points="198.493,249.642,191.5094,247.8452,187.1647,253.6005,194.1484,255.3974,198.493,249.642" style="stroke: #A80036; stroke-width: 1.0;"/><text fill="#000000" font-family="sans-serif" font-size="13" lengthAdjust="spacingAndGlyphs" textLength="61" x="28.5" y="382.4951">datacenter</text><text fill="#000000" font-family="sans-serif" font-size="13" lengthAdjust="spacingAndGlyphs" textLength="7" x="24.5133" y="405.2392">1</text><!--link DataCenter to Model--><path d="M81.623,406.2507 C109.129,380.0418 151.58,339.593 188.66,304.263 " fill="none" id="DataCenter-Model" style="stroke: #A80036; stroke-width: 1.0;"/><polygon fill="#A80036" points="198.294,295.083,189.0191,298.3961,194.6743,298.5323,194.5381,304.1876,198.294,295.083" style="stroke: #A80036; stroke-width: 1.0;"/><line style="stroke: #A80036; stroke-width: 1.0;" x1="194.6743" x2="188.882" y1="298.5323" y2="304.051"/><polygon fill="#A80036" points="71.855,415.558,78.9582,414.315,80.5427,407.2801,73.4396,408.5231,71.855,415.558" style="stroke: #A80036; stroke-width: 1.0;"/><text fill="#000000" font-family="sans-serif" font-size="13" lengthAdjust="spacingAndGlyphs" textLength="50" x="122.5" y="382.4951">adevices</text><text fill="#000000" font-family="sans-serif" font-size="13" lengthAdjust="spacingAndGlyphs" textLength="7" x="183.6699" y="298.7297">n</text><!--link Model to Hardware--><path d="M340.725,293.59 C387.875,331.687 446.005,378.6559 481.649,407.4566 " fill="none" id="Model-Hardware" style="stroke: #A80036; stroke-width: 1.0;"/><polygon fill="#A80036" points="491.952,415.7815,487.4654,407.0139,488.0628,412.6392,482.4376,413.2366,491.952,415.7815" style="stroke: #A80036; stroke-width: 1.0;"/><line style="stroke: #A80036; stroke-width: 1.0;" x1="488.0628" x2="481.8405" y1="412.6392" y2="407.6112"/><polygon fill="#A80036" points="330.512,285.337,332.665,292.2192,339.8459,292.8788,337.6929,285.9966,330.512,285.337" style="stroke: #A80036; stroke-width: 1.0;"/><text fill="#000000" font-family="sans-serif" font-size="13" lengthAdjust="spacingAndGlyphs" textLength="52" x="455.5" y="382.4951">hardware</text><text fill="#000000" font-family="sans-serif" font-size="13" lengthAdjust="spacingAndGlyphs" textLength="7" x="476.9748" y="405.0546">n</text><!--link Model to AggregatedDevice--><path d="M225.487,351.311 C224.338,356.9202 223.33,362.5022 222.5,368 C221.306,375.9104 222.417,378.0004 222.5,386 C222.556,391.3785 222.647,397.0954 222.753,402.6384 " fill="none" id="Model-AggregatedDevice" style="stroke: #A80036; stroke-width: 1.0;"/><polygon fill="#A80036" points="223.031,415.767,226.8394,406.6843,222.9251,410.7681,218.8412,406.8538,223.031,415.767" style="stroke: #A80036; stroke-width: 1.0;"/><line style="stroke: #A80036; stroke-width: 1.0;" x1="222.9251" x2="222.755" y1="410.7681" y2="402.7699"/><polygon fill="#FFFFFF" points="228.406,338.202,223.1981,343.1897,225.7991,349.9154,231.007,344.9277,228.406,338.202" style="stroke: #A80036; stroke-width: 1.0;"/><text fill="#000000" font-family="sans-serif" font-size="13" lengthAdjust="spacingAndGlyphs" textLength="36" x="223.5" y="382.4951">parent</text><text fill="#000000" font-family="sans-serif" font-size="13" lengthAdjust="spacingAndGlyphs" textLength="7" x="214.8155" y="405.0357">1</text><!--link AggregatedDevice to Model--><path d="M253.287,405.5403 C257.879,399.5579 261.939,392.9404 264.5,386 C268.578,374.9476 271.252,363.1377 272.884,351.158 " fill="none" id="AggregatedDevice-Model" style="stroke: #A80036; stroke-width: 1.0;"/><polygon fill="#A80036" points="274.265,338.121,269.3398,346.6499,273.7387,343.0932,277.2954,347.4921,274.265,338.121" style="stroke: #A80036; stroke-width: 1.0;"/><line style="stroke: #A80036; stroke-width: 1.0;" x1="273.7387" x2="272.896" y1="343.0932" y2="351.049"/><polygon fill="#FFFFFF" points="244.658,415.5552,251.6048,413.6208,252.491,406.4643,245.5442,408.3988,244.658,415.5552" style="stroke: #A80036; stroke-width: 1.0;"/><text fill="#000000" font-family="sans-serif" font-size="13" lengthAdjust="spacingAndGlyphs" textLength="36" x="270.5" y="382.4951">parent</text><text fill="#000000" font-family="sans-serif" font-size="13" lengthAdjust="spacingAndGlyphs" textLength="7" x="267.6859" y="359.3616">1</text><!--link Cloud to Model--><path d="M300.864,59.176 C297.788,73.625 293.917,91.809 289.857,110.883 " fill="none" id="Cloud-Model" style="stroke: #A80036; stroke-width: 1.0;"/><polygon fill="#A80036" points="287.095,123.855,292.8816,115.8853,288.1363,118.9646,285.057,114.2193,287.095,123.855" style="stroke: #A80036; stroke-width: 1.0;"/><line style="stroke: #A80036; stroke-width: 1.0;" x1="288.1363" x2="289.802" y1="118.9646" y2="111.1395"/><polygon fill="#FFFFFF" points="303.608,46.282,298.4463,51.3176,301.1092,58.019,306.2709,52.9834,303.608,46.282" style="stroke: #A80036; stroke-width: 1.0;"/><text fill="#000000" font-family="sans-serif" font-size="13" lengthAdjust="spacingAndGlyphs" textLength="50" x="298.5" y="90.4951">adevices</text><text fill="#000000" font-family="sans-serif" font-size="13" lengthAdjust="spacingAndGlyphs" textLength="7" x="281.4376" y="113.2652">n</text><!--link Request to Model--><path d="M386.979,56.987 C373.986,75.341 356.313,100.306 338.437,125.557 " fill="none" id="Request-Model" style="stroke: #A80036; stroke-width: 1.0;"/><polygon fill="#A80036" points="330.776,136.379,339.2405,131.344,333.6647,132.2979,332.7108,126.7221,330.776,136.379" style="stroke: #A80036; stroke-width: 1.0;"/><line style="stroke: #A80036; stroke-width: 1.0;" x1="333.6647" x2="338.2875" y1="132.2979" y2="125.7685"/><polygon fill="#FFFFFF" points="394.557,46.282,387.8254,48.8678,387.6232,56.076,394.3548,53.4903,394.557,46.282" style="stroke: #A80036; stroke-width: 1.0;"/><text fill="#000000" font-family="sans-serif" font-size="13" lengthAdjust="spacingAndGlyphs" textLength="64" x="374.5" y="90.4951">aggregates</text><text fill="#000000" font-family="sans-serif" font-size="13" lengthAdjust="spacingAndGlyphs" textLength="7" x="338.4078" y="122.6675">n</text><!--
@startuml

class "AggregatedDevice" as Model {
 string name
 string ename
 string hostname
 string type

 addDevices()
 disable()
 enable()
 reserve()
 addToHardware()
 create()
 getReservations()
 provision()
 
}

rectangle "Device" as Device #lightblue {
}

Model *- -> "n" Device : devices


rectangle "PhysicalProfile" as PhysicalProfile #lightblue {
}

Model o- -> "1" PhysicalProfile : profile


rectangle "DataCenter" as DataCenter #lightblue {
}

Model o- -> "1" DataCenter : datacenter


rectangle "Hardware" as Hardware #lightblue {
}

Model *- -> "n" Hardware : hardware


rectangle "AggregatedDevice" as AggregatedDevice #lightblue {
}

Model o- -> "1" AggregatedDevice : parent




    rectangle "Device" as Device #lightgreen {
    }
    
        Device   o- -> "1" Model : "parent"
    
    rectangle "AggregatedDevice" as AggregatedDevice #lightgreen {
    }
    
        AggregatedDevice   o- -> "1" Model : "parent"
    
    rectangle "DataCenter" as DataCenter #lightgreen {
    }
    
        DataCenter   *- -> "n" Model : "adevices"
    
    rectangle "Cloud" as Cloud #lightgreen {
    }
    
        Cloud   o- -> "n" Model : "adevices"
    
    rectangle "Request" as Request #lightgreen {
    }
    
        Request   o- -> "n" Model : "aggregates"
    

@enduml

PlantUML version 1.2019.05(Sat Apr 20 09:45:36 PDT 2019)
(GPL source distribution)
Java Runtime: OpenJDK Runtime Environment
JVM: OpenJDK 64-Bit Server VM
Java Version: 12.0.1+12
Operating System: Windows 10
OS Version: 10.0
Default Encoding: Cp1252
Language: en
Country: US
--></g></svg>