<?xml version="1.0" encoding="UTF-8" standalone="no"?><svg xmlns="http://www.w3.org/2000/svg" xmlns:xlink="http://www.w3.org/1999/xlink" contentScriptType="application/ecmascript" contentStyleType="text/css" height="279px" preserveAspectRatio="none" style="width:343px;height:279px;" version="1.1" viewBox="0 0 343 279" width="343px" zoomAndPan="magnify"><defs><filter height="300%" id="fnp5c7t7jp95r" width="300%" x="-1" y="-1"><feGaussianBlur result="blurOut" stdDeviation="2.0"/><feColorMatrix in="blurOut" result="blurOut2" type="matrix" values="0 0 0 0 0 0 0 0 0 0 0 0 0 0 0 0 0 0 .4 0"/><feOffset dx="4.0" dy="4.0" in="blurOut2" result="blurOut3"/><feBlend in="SourceGraphic" in2="blurOut3" mode="normal"/></filter></defs><g><!--entity PhysicalProfile--><rect fill="#ADD8E6" filter="url(#fnp5c7t7jp95r)" height="37.6094" style="stroke: #000000; stroke-width: 1.5;" width="112" x="6" y="231"/><text fill="#000000" font-family="sans-serif" font-size="14" lengthAdjust="spacingAndGlyphs" textLength="92" x="16" y="255.5332">PhysicalProfile</text><!--entity Device--><rect fill="#ADD8E6" filter="url(#fnp5c7t7jp95r)" height="37.6094" style="stroke: #000000; stroke-width: 1.5;" width="63" x="153.5" y="231"/><text fill="#000000" font-family="sans-serif" font-size="14" lengthAdjust="spacingAndGlyphs" textLength="43" x="163.5" y="255.5332">Device</text><!--entity Resource--><rect fill="#ADD8E6" filter="url(#fnp5c7t7jp95r)" height="37.6094" style="stroke: #000000; stroke-width: 1.5;" width="81" x="251.5" y="231"/><text fill="#000000" font-family="sans-serif" font-size="14" lengthAdjust="spacingAndGlyphs" textLength="61" x="261.5" y="255.5332">Resource</text><!--class Model--><rect fill="#FEFECE" filter="url(#fnp5c7t7jp95r)" height="144.8516" id="Model" style="stroke: #A80036; stroke-width: 1.5;" width="137" x="116.5" y="8"/><ellipse cx="131.5" cy="24" fill="#ADD1B2" rx="11" ry="11" style="stroke: #A80036; stroke-width: 1.0;"/><path d="M134.2656,19.875 Q134.4219,19.6563 134.6094,19.5469 Q134.7969,19.4375 135.0156,19.4375 Q135.3906,19.4375 135.625,19.7031 Q135.8594,19.9531 135.8594,20.5625 L135.8594,22.0156 Q135.8594,22.625 135.625,22.8906 Q135.3906,23.1563 135.0156,23.1563 Q134.6719,23.1563 134.4688,22.9531 Q134.2656,22.7656 134.1563,22.25 Q134.1094,21.8906 133.9219,21.7031 Q133.5938,21.3281 132.9844,21.1094 Q132.375,20.8906 131.75,20.8906 Q130.9844,20.8906 130.3438,21.2188 Q129.7188,21.5469 129.2188,22.2969 Q128.7344,23.0469 128.7344,24.0781 L128.7344,25.1719 Q128.7344,26.4063 129.625,27.2344 Q130.5156,28.0469 132.1094,28.0469 Q133.0469,28.0469 133.7031,27.7969 Q134.0938,27.6406 134.5156,27.2031 Q134.7813,26.9375 134.9219,26.8594 Q135.0781,26.7813 135.2813,26.7813 Q135.6094,26.7813 135.8594,27.0469 Q136.125,27.2969 136.125,27.6406 Q136.125,27.9844 135.7813,28.3906 Q135.2813,28.9688 134.4844,29.2969 Q133.4063,29.75 132.1094,29.75 Q130.5938,29.75 129.3906,29.125 Q128.4063,28.625 127.7188,27.5625 Q127.0313,26.4844 127.0313,25.2031 L127.0313,24.0469 Q127.0313,22.7188 127.6406,21.5781 Q128.2656,20.4219 129.3594,19.8125 Q130.4531,19.1875 131.6875,19.1875 Q132.4219,19.1875 133.0625,19.3594 Q133.7188,19.5156 134.2656,19.875 Z "/><text fill="#000000" font-family="sans-serif" font-size="12" lengthAdjust="spacingAndGlyphs" textLength="105" x="145.5" y="28.9102">ComputeHardware</text><line style="stroke: #A80036; stroke-width: 1.5;" x1="117.5" x2="252.5" y1="40" y2="40"/><text fill="#000000" font-family="sans-serif" font-size="11" lengthAdjust="spacingAndGlyphs" textLength="56" x="122.5" y="55.4189">string name</text><text fill="#000000" font-family="sans-serif" font-size="11" lengthAdjust="spacingAndGlyphs" textLength="62" x="122.5" y="69.2549">string ename</text><line style="stroke: #A80036; stroke-width: 1.5;" x1="117.5" x2="252.5" y1="75.6719" y2="75.6719"/><text fill="#000000" font-family="sans-serif" font-size="11" lengthAdjust="spacingAndGlyphs" textLength="51" x="122.5" y="91.0908">addStats()</text><text fill="#000000" font-family="sans-serif" font-size="11" lengthAdjust="spacingAndGlyphs" textLength="39" x="122.5" y="104.9268">create()</text><text fill="#000000" font-family="sans-serif" font-size="11" lengthAdjust="spacingAndGlyphs" textLength="42" x="122.5" y="118.7627">disable()</text><text fill="#000000" font-family="sans-serif" font-size="11" lengthAdjust="spacingAndGlyphs" textLength="40" x="122.5" y="132.5986">enable()</text><text fill="#000000" font-family="sans-serif" font-size="11" lengthAdjust="spacingAndGlyphs" textLength="43" x="122.5" y="146.4346">factory()</text><!--link Model to PhysicalProfile--><path d="M124.548,163.822 C109.604,184.1732 94.5772,204.6367 82.9988,220.404 " fill="none" id="Model-PhysicalProfile" style="stroke: #A80036; stroke-width: 1.0;"/><polygon fill="#A80036" points="75.2279,230.9864,83.7789,226.0997,78.1873,226.9563,77.3307,221.3646,75.2279,230.9864" style="stroke: #A80036; stroke-width: 1.0;"/><line style="stroke: #A80036; stroke-width: 1.0;" x1="78.1873" x2="82.9225" y1="226.9563" y2="220.5081"/><polygon fill="#FFFFFF" points="132.48,153.021,125.7047,155.4898,125.3776,162.6935,132.153,160.2247,132.48,153.021" style="stroke: #A80036; stroke-width: 1.0;"/><text fill="#000000" font-family="sans-serif" font-size="13" lengthAdjust="spacingAndGlyphs" textLength="34" x="110" y="197.4951">profile</text><text fill="#000000" font-family="sans-serif" font-size="13" lengthAdjust="spacingAndGlyphs" textLength="7" x="71.3287" y="219.9892">1</text><!--link Model to Device--><path d="M185,166.193 C185,184.57 185,202.8859 185,217.6017 " fill="none" id="Model-Device" style="stroke: #A80036; stroke-width: 1.0;"/><polygon fill="#A80036" points="185,230.9864,189,221.9864,185,225.9864,181,221.9864,185,230.9864" style="stroke: #A80036; stroke-width: 1.0;"/><line style="stroke: #A80036; stroke-width: 1.0;" x1="185" x2="185" y1="225.9864" y2="217.9864"/><polygon fill="#FFFFFF" points="185,153.021,181,159.021,185,165.021,189,159.021,185,153.021" style="stroke: #A80036; stroke-width: 1.0;"/><text fill="#000000" font-family="sans-serif" font-size="13" lengthAdjust="spacingAndGlyphs" textLength="36" x="186" y="197.4951">device</text><text fill="#000000" font-family="sans-serif" font-size="13" lengthAdjust="spacingAndGlyphs" textLength="7" x="176.8844" y="219.9892">1</text><!--link Model to Resource--><path d="M237.804,164.161 C250.622,184.2255 263.492,204.3734 273.473,219.9971 " fill="none" id="Model-Resource" style="stroke: #A80036; stroke-width: 1.0;"/><polygon fill="#A80036" points="280.493,230.9864,279.0189,221.2485,277.8013,226.7727,272.2771,225.5551,280.493,230.9864" style="stroke: #A80036; stroke-width: 1.0;"/><line style="stroke: #A80036; stroke-width: 1.0;" x1="277.8013" x2="273.4945" y1="226.7727" y2="220.0309"/><polygon fill="#FFFFFF" points="230.688,153.021,230.5471,160.2307,237.1481,163.1337,237.2889,155.924,230.688,153.021" style="stroke: #A80036; stroke-width: 1.0;"/><text fill="#000000" font-family="sans-serif" font-size="13" lengthAdjust="spacingAndGlyphs" textLength="57" x="262" y="197.4951">resources</text><text fill="#000000" font-family="sans-serif" font-size="13" lengthAdjust="spacingAndGlyphs" textLength="7" x="268.7095" y="219.9892">n</text><!--
@startuml

class "ComputeHardware" as Model {
 string name
 string ename

 addStats()
 create()
 disable()
 enable()
 factory()
 
}

rectangle "PhysicalProfile" as PhysicalProfile #lightblue {
}

Model o- -> "1" PhysicalProfile : profile


rectangle "Device" as Device #lightblue {
}

Model o- -> "1" Device : device


rectangle "Resource" as Resource #lightblue {
}

Model o- -> "n" Resource : resources





@enduml

PlantUML version 1.2019.05(Sat Apr 20 09:45:36 PDT 2019)
(GPL source distribution)
Java Runtime: OpenJDK Runtime Environment
JVM: OpenJDK 64-Bit Server VM
Java Version: 12.0.1+12
Operating System: Windows 10
OS Version: 10.0
Default Encoding: Cp1252
Language: en
Country: US
--></g></svg>