<?xml version="1.0" encoding="UTF-8" standalone="no"?><svg xmlns="http://www.w3.org/2000/svg" xmlns:xlink="http://www.w3.org/1999/xlink" contentScriptType="application/ecmascript" contentStyleType="text/css" height="266px" preserveAspectRatio="none" style="width:380px;height:266px;" version="1.1" viewBox="0 0 380 266" width="380px" zoomAndPan="magnify"><defs><filter height="300%" id="fypqqao2ol1f2" width="300%" x="-1" y="-1"><feGaussianBlur result="blurOut" stdDeviation="2.0"/><feColorMatrix in="blurOut" result="blurOut2" type="matrix" values="0 0 0 0 0 0 0 0 0 0 0 0 0 0 0 0 0 0 .4 0"/><feOffset dx="4.0" dy="4.0" in="blurOut2" result="blurOut3"/><feBlend in="SourceGraphic" in2="blurOut3" mode="normal"/></filter></defs><g><rect fill="#ADD8E6" height="251.9219" style="stroke: #A80036; stroke-width: 1.0;" width="121" x="248.5" y="4"/><text fill="#000000" font-family="sans-serif" font-size="13" font-weight="bold" lengthAdjust="spacingAndGlyphs" textLength="111" x="251.5" y="17.4951">Data Orchestrator</text><line style="stroke: #A80036; stroke-width: 1.0; stroke-dasharray: 5.0,5.0;" x1="80" x2="80" y1="87.6094" y2="168.3125"/><line style="stroke: #A80036; stroke-width: 1.0; stroke-dasharray: 5.0,5.0;" x1="195" x2="195" y1="87.6094" y2="168.3125"/><line style="stroke: #A80036; stroke-width: 1.0; stroke-dasharray: 5.0,5.0;" x1="308.5" x2="308.5" y1="87.6094" y2="168.3125"/><text fill="#000000" font-family="sans-serif" font-size="14" lengthAdjust="spacingAndGlyphs" textLength="138" x="8" y="84.5332">Application Developer</text><ellipse cx="80" cy="13" fill="#FEFECE" filter="url(#fypqqao2ol1f2)" rx="8" ry="8" style="stroke: #A80036; stroke-width: 2.0;"/><path d="M80,21 L80,48 M67,29 L93,29 M80,48 L67,63 M80,48 L93,63 " fill="none" filter="url(#fypqqao2ol1f2)" style="stroke: #A80036; stroke-width: 2.0;"/><text fill="#000000" font-family="sans-serif" font-size="14" lengthAdjust="spacingAndGlyphs" textLength="138" x="8" y="181.8457">Application Developer</text><ellipse cx="80" cy="194.9219" fill="#FEFECE" filter="url(#fypqqao2ol1f2)" rx="8" ry="8" style="stroke: #A80036; stroke-width: 2.0;"/><path d="M80,202.9219 L80,229.9219 M67,210.9219 L93,210.9219 M80,229.9219 L67,244.9219 M80,229.9219 L93,244.9219 " fill="none" filter="url(#fypqqao2ol1f2)" style="stroke: #A80036; stroke-width: 2.0;"/><text fill="#000000" font-family="sans-serif" font-size="14" lengthAdjust="spacingAndGlyphs" textLength="60" x="162" y="84.5332">EventBus</text><ellipse cx="195" cy="54" fill="#FEFECE" filter="url(#fypqqao2ol1f2)" rx="12" ry="12" style="stroke: #A80036; stroke-width: 2.0;"/><line style="stroke: #A80036; stroke-width: 2.0;" x1="183" x2="207" y1="68" y2="68"/><text fill="#000000" font-family="sans-serif" font-size="14" lengthAdjust="spacingAndGlyphs" textLength="60" x="162" y="181.8457">EventBus</text><ellipse cx="195" cy="200.9219" fill="#FEFECE" filter="url(#fypqqao2ol1f2)" rx="12" ry="12" style="stroke: #A80036; stroke-width: 2.0;"/><line style="stroke: #A80036; stroke-width: 2.0;" x1="183" x2="207" y1="214.9219" y2="214.9219"/><text fill="#000000" font-family="sans-serif" font-size="14" lengthAdjust="spacingAndGlyphs" textLength="16" x="298" y="84.5332">do</text><path d="M288.5,42 L288.5,66 M288.5,54 L305.5,54 " fill="none" filter="url(#fypqqao2ol1f2)" style="stroke: #A80036; stroke-width: 2.0;"/><ellipse cx="317.5" cy="54" fill="#FFFFFF" filter="url(#fypqqao2ol1f2)" rx="12" ry="12" style="stroke: #A80036; stroke-width: 2.0;"/><text fill="#000000" font-family="sans-serif" font-size="14" lengthAdjust="spacingAndGlyphs" textLength="16" x="298" y="181.8457">do</text><path d="M288.5,188.9219 L288.5,212.9219 M288.5,200.9219 L305.5,200.9219 " fill="none" filter="url(#fypqqao2ol1f2)" style="stroke: #A80036; stroke-width: 2.0;"/><ellipse cx="317.5" cy="200.9219" fill="#FFFFFF" filter="url(#fypqqao2ol1f2)" rx="12" ry="12" style="stroke: #A80036; stroke-width: 2.0;"/><polygon fill="#A80036" points="297,115.9609,307,119.9609,297,123.9609,301,119.9609" style="stroke: #A80036; stroke-width: 1.0;"/><line style="stroke: #A80036; stroke-width: 1.0;" x1="80" x2="303" y1="119.9609" y2="119.9609"/><text fill="#000000" font-family="sans-serif" font-size="13" lengthAdjust="spacingAndGlyphs" textLength="122" x="87" y="115.1045">Create Data Instance</text><polygon fill="#A80036" points="297,151.3125,307,151.3125,297,155.3125" style="stroke: #A80036; stroke-width: 1.0;"/><line style="stroke: #A80036; stroke-width: 1.0; stroke-dasharray: 2.0,2.0;" x1="195" x2="308" y1="150.3125" y2="150.3125"/><text fill="#000000" font-family="sans-serif" font-size="13" lengthAdjust="spacingAndGlyphs" textLength="58" x="202" y="145.4561">method2()</text><!--
@startuml

actor "Application Developer"


entity EventBus

box Data Orchestrator #lightblue
    boundary do #white
end box



"Application Developer" -> do: Create Data Instance




EventBus - -/ do : method2()
@enduml

PlantUML version 1.2019.05(Sat Apr 20 09:45:36 PDT 2019)
(GPL source distribution)
Java Runtime: OpenJDK Runtime Environment
JVM: OpenJDK 64-Bit Server VM
Java Version: 12.0.1+12
Operating System: Windows 10
OS Version: 10.0
Default Encoding: Cp1252
Language: en
Country: US
--></g></svg>