<?xml version="1.0" encoding="UTF-8" standalone="no"?><svg xmlns="http://www.w3.org/2000/svg" xmlns:xlink="http://www.w3.org/1999/xlink" contentScriptType="application/ecmascript" contentStyleType="text/css" height="237px" preserveAspectRatio="none" style="width:435px;height:237px;" version="1.1" viewBox="0 0 435 237" width="435px" zoomAndPan="magnify"><defs><filter height="300%" id="fkyk0yvohe8wm" width="300%" x="-1" y="-1"><feGaussianBlur result="blurOut" stdDeviation="2.0"/><feColorMatrix in="blurOut" result="blurOut2" type="matrix" values="0 0 0 0 0 0 0 0 0 0 0 0 0 0 0 0 0 0 .4 0"/><feOffset dx="4.0" dy="4.0" in="blurOut2" result="blurOut3"/><feBlend in="SourceGraphic" in2="blurOut3" mode="normal"/></filter></defs><g><!--entity Device--><rect fill="#ADD8E6" filter="url(#fkyk0yvohe8wm)" height="37.6094" style="stroke: #000000; stroke-width: 1.5;" width="63" x="361.51" y="189"/><text fill="#000000" font-family="sans-serif" font-size="14" lengthAdjust="spacingAndGlyphs" textLength="43" x="371.51" y="213.5332">Device</text><!--entity Request--><rect fill="#90EE90" filter="url(#fkyk0yvohe8wm)" height="37.6094" style="stroke: #000000; stroke-width: 1.5;" width="73" x="18.51" y="189"/><text fill="#000000" font-family="sans-serif" font-size="14" lengthAdjust="spacingAndGlyphs" textLength="53" x="28.51" y="213.5332">Request</text><!--entity Cloud--><rect fill="#90EE90" filter="url(#fkyk0yvohe8wm)" height="37.6094" style="stroke: #000000; stroke-width: 1.5;" width="57" x="216.51" y="189"/><text fill="#000000" font-family="sans-serif" font-size="14" lengthAdjust="spacingAndGlyphs" textLength="37" x="226.51" y="213.5332">Cloud</text><!--class Model--><rect fill="#FEFECE" filter="url(#fkyk0yvohe8wm)" height="103.3438" id="Model" style="stroke: #A80036; stroke-width: 1.5;" width="98" x="160.01" y="8"/><ellipse cx="175.01" cy="24" fill="#ADD1B2" rx="11" ry="11" style="stroke: #A80036; stroke-width: 1.0;"/><path d="M177.7756,19.875 Q177.9319,19.6563 178.1194,19.5469 Q178.3069,19.4375 178.5256,19.4375 Q178.9006,19.4375 179.135,19.7031 Q179.3694,19.9531 179.3694,20.5625 L179.3694,22.0156 Q179.3694,22.625 179.135,22.8906 Q178.9006,23.1563 178.5256,23.1563 Q178.1819,23.1563 177.9788,22.9531 Q177.7756,22.7656 177.6663,22.25 Q177.6194,21.8906 177.4319,21.7031 Q177.1038,21.3281 176.4944,21.1094 Q175.885,20.8906 175.26,20.8906 Q174.4944,20.8906 173.8538,21.2188 Q173.2288,21.5469 172.7288,22.2969 Q172.2444,23.0469 172.2444,24.0781 L172.2444,25.1719 Q172.2444,26.4063 173.135,27.2344 Q174.0256,28.0469 175.6194,28.0469 Q176.5569,28.0469 177.2131,27.7969 Q177.6038,27.6406 178.0256,27.2031 Q178.2913,26.9375 178.4319,26.8594 Q178.5881,26.7813 178.7913,26.7813 Q179.1194,26.7813 179.3694,27.0469 Q179.635,27.2969 179.635,27.6406 Q179.635,27.9844 179.2913,28.3906 Q178.7913,28.9688 177.9944,29.2969 Q176.9163,29.75 175.6194,29.75 Q174.1038,29.75 172.9006,29.125 Q171.9163,28.625 171.2288,27.5625 Q170.5413,26.4844 170.5413,25.2031 L170.5413,24.0469 Q170.5413,22.7188 171.1506,21.5781 Q171.7756,20.4219 172.8694,19.8125 Q173.9631,19.1875 175.1975,19.1875 Q175.9319,19.1875 176.5725,19.3594 Q177.2288,19.5156 177.7756,19.875 Z "/><text fill="#000000" font-family="sans-serif" font-size="12" lengthAdjust="spacingAndGlyphs" textLength="66" x="189.01" y="28.9102">Reservation</text><line style="stroke: #A80036; stroke-width: 1.5;" x1="161.01" x2="257.01" y1="40" y2="40"/><text fill="#000000" font-family="sans-serif" font-size="11" lengthAdjust="spacingAndGlyphs" textLength="60" x="166.01" y="55.4189">number cost</text><line style="stroke: #A80036; stroke-width: 1.5;" x1="161.01" x2="257.01" y1="61.8359" y2="61.8359"/><text fill="#000000" font-family="sans-serif" font-size="11" lengthAdjust="spacingAndGlyphs" textLength="44" x="166.01" y="77.2549">confirm()</text><text fill="#000000" font-family="sans-serif" font-size="11" lengthAdjust="spacingAndGlyphs" textLength="39" x="166.01" y="91.0908">create()</text><text fill="#000000" font-family="sans-serif" font-size="11" lengthAdjust="spacingAndGlyphs" textLength="28" x="166.01" y="104.9268">free()</text><!--link Model to Device--><path d="M268.82,99.801 C286.972,112.404 306.686,126.79 324.01,141 C338.573,152.9452 353.802,167.2887 366.236,179.5484 " fill="none" id="Model-Device" style="stroke: #A80036; stroke-width: 1.0;"/><polygon fill="#A80036" points="375.543,188.8481,372.0038,179.6571,372.006,185.314,366.3492,185.3163,375.543,188.8481" style="stroke: #A80036; stroke-width: 1.0;"/><line style="stroke: #A80036; stroke-width: 1.0;" x1="372.006" x2="366.347" y1="185.314" y2="179.6592"/><polygon fill="#FFFFFF" points="258.05,92.402,260.7305,99.0964,267.9409,99.1968,265.2604,92.5024,258.05,92.402" style="stroke: #A80036; stroke-width: 1.0;"/><text fill="#000000" font-family="sans-serif" font-size="13" lengthAdjust="spacingAndGlyphs" textLength="36" x="344.01" y="155.4951">device</text><text fill="#000000" font-family="sans-serif" font-size="13" lengthAdjust="spacingAndGlyphs" textLength="7" x="362.1219" y="178.1416">1</text><!--link Model to Request--><path d="M146.714,67.42 C100.4466,76.187 40.319,96.044 10.01,141 C1.3846,153.7935 8.756,167.9328 19.8488,179.8317 " fill="none" id="Model-Request" style="stroke: #A80036; stroke-width: 1.0;"/><polygon fill="#A80036" points="29.3083,188.8256,25.542,179.7253,25.6847,185.3804,20.0296,185.5231,29.3083,188.8256" style="stroke: #A80036; stroke-width: 1.0;"/><line style="stroke: #A80036; stroke-width: 1.0;" x1="25.6847" x2="19.887" y1="185.3804" y2="179.868"/><polygon fill="#FFFFFF" points="159.663,65.182,153.0694,62.2624,147.8384,67.226,154.432,70.1455,159.663,65.182" style="stroke: #A80036; stroke-width: 1.0;"/><text fill="#000000" font-family="sans-serif" font-size="13" lengthAdjust="spacingAndGlyphs" textLength="43" x="11.01" y="155.4951">request</text><text fill="#000000" font-family="sans-serif" font-size="13" lengthAdjust="spacingAndGlyphs" textLength="7" x="13.3653" y="178.1122">1</text><!--link Request to Model--><path d="M83.0419,179.5708 C95.2678,167.6654 109.799,153.5926 123.01,141 C131.707,132.7102 140.942,123.986 150.009,115.463 " fill="none" id="Request-Model" style="stroke: #A80036; stroke-width: 1.0;"/><polygon fill="#A80036" points="159.749,106.323,150.4486,109.5639,156.1026,109.7441,155.9224,115.3981,159.749,106.323" style="stroke: #A80036; stroke-width: 1.0;"/><line style="stroke: #A80036; stroke-width: 1.0;" x1="156.1026" x2="150.269" y1="109.7441" y2="115.219"/><polygon fill="#A80036" points="73.3939,188.9815,80.482,187.6555,81.9842,180.6026,74.8961,181.9286,73.3939,188.9815" style="stroke: #A80036; stroke-width: 1.0;"/><text fill="#000000" font-family="sans-serif" font-size="13" lengthAdjust="spacingAndGlyphs" textLength="69" x="124.01" y="155.4951">reservations</text><text fill="#000000" font-family="sans-serif" font-size="13" lengthAdjust="spacingAndGlyphs" textLength="7" x="144.9997" y="109.5208">n</text><!--link Model to Cloud--><path d="M200.24,124.329 C200.525,136.1004 202.142,148.1059 206.01,159 C208.48,165.9564 212.436,172.6383 216.902,178.6915 " fill="none" id="Model-Cloud" style="stroke: #A80036; stroke-width: 1.0;"/><polygon fill="#A80036" points="225.28,188.8315,222.6309,179.3456,222.0952,184.977,216.4637,184.4413,225.28,188.8315" style="stroke: #A80036; stroke-width: 1.0;"/><line style="stroke: #A80036; stroke-width: 1.0;" x1="222.0952" x2="216.9995" y1="184.977" y2="178.8098"/><polygon fill="#FFFFFF" points="200.435,111.211,196.3458,117.1505,200.2557,123.2097,204.3449,117.2701,200.435,111.211" style="stroke: #A80036; stroke-width: 1.0;"/><text fill="#000000" font-family="sans-serif" font-size="13" lengthAdjust="spacingAndGlyphs" textLength="31" x="207.01" y="155.4951">cloud</text><text fill="#000000" font-family="sans-serif" font-size="13" lengthAdjust="spacingAndGlyphs" textLength="7" x="211.1658" y="178.1199">1</text><!--link Cloud to Model--><path d="M246.411,175.7692 C246.293,164.6814 245.451,152.1823 243.01,141 C241.756,135.2588 240.104,129.412 238.202,123.623 " fill="none" id="Cloud-Model" style="stroke: #A80036; stroke-width: 1.0;"/><polygon fill="#A80036" points="233.697,111.106,232.9816,120.9288,235.3904,115.8105,240.5088,118.2193,233.697,111.106" style="stroke: #A80036; stroke-width: 1.0;"/><line style="stroke: #A80036; stroke-width: 1.0;" x1="235.3904" x2="238.099" y1="115.8105" y2="123.338"/><polygon fill="#A80036" points="246.239,188.8537,250.3174,182.9067,246.3965,176.8547,242.3181,182.8017,246.239,188.8537" style="stroke: #A80036; stroke-width: 1.0;"/><text fill="#000000" font-family="sans-serif" font-size="13" lengthAdjust="spacingAndGlyphs" textLength="69" x="246.01" y="155.4951">reservations</text><text fill="#000000" font-family="sans-serif" font-size="13" lengthAdjust="spacingAndGlyphs" textLength="7" x="229.6764" y="132.9838">n</text><!--
@startuml

class "Reservation" as Model {
 number cost

 confirm()
 create()
 free()
 
}

rectangle "Device" as Device #lightblue {
}

Model o- -> "1" Device : device


rectangle "Request" as Request #lightblue {
}

Model o- -> "1" Request : request


rectangle "Cloud" as Cloud #lightblue {
}

Model o- -> "1" Cloud : cloud




    rectangle "Cloud" as Cloud #lightgreen {
    }
    
        Cloud   *- -> "n" Model : "reservations"
    
    rectangle "Request" as Request #lightgreen {
    }
    
        Request   *- -> "n" Model : "reservations"
    

@enduml

PlantUML version 1.2019.05(Sat Apr 20 09:45:36 PDT 2019)
(GPL source distribution)
Java Runtime: OpenJDK Runtime Environment
JVM: OpenJDK 64-Bit Server VM
Java Version: 12.0.1+12
Operating System: Windows 10
OS Version: 10.0
Default Encoding: Cp1252
Language: en
Country: US
--></g></svg>