<?xml version="1.0" encoding="UTF-8" standalone="no"?><svg xmlns="http://www.w3.org/2000/svg" xmlns:xlink="http://www.w3.org/1999/xlink" contentScriptType="application/ecmascript" contentStyleType="text/css" height="658px" preserveAspectRatio="none" style="width:345px;height:658px;" version="1.1" viewBox="0 0 345 658" width="345px" zoomAndPan="magnify"><defs><filter height="300%" id="f1t1n7lsene3pa" width="300%" x="-1" y="-1"><feGaussianBlur result="blurOut" stdDeviation="2.0"/><feColorMatrix in="blurOut" result="blurOut2" type="matrix" values="0 0 0 0 0 0 0 0 0 0 0 0 0 0 0 0 0 0 .4 0"/><feOffset dx="4.0" dy="4.0" in="blurOut2" result="blurOut3"/><feBlend in="SourceGraphic" in2="blurOut3" mode="normal"/></filter></defs><g><!--cluster Reservation--><rect fill="#FFFFE0" filter="url(#f1t1n7lsene3pa)" height="358" rx="12.5" ry="12.5" style="stroke: #A80036; stroke-width: 1.5;" width="311" x="22" y="24"/><rect fill="#FFFFFF" height="324.3906" rx="12.5" ry="12.5" style="stroke: #FFFFFF; stroke-width: 1.0;" width="305" x="25" y="54.6094"/><line style="stroke: #A80036; stroke-width: 1.5;" x1="22" x2="333" y1="51.6094" y2="51.6094"/><text fill="#000000" font-family="sans-serif" font-size="14" lengthAdjust="spacingAndGlyphs" textLength="76" x="139.5" y="42.5332">Reservation</text><!--cluster sdi--><rect fill="#FFFFE0" filter="url(#f1t1n7lsene3pa)" height="170" rx="12.5" ry="12.5" style="stroke: #A80036; stroke-width: 1.5;" width="158" x="29" y="477"/><rect fill="#FFFFFF" height="136.3906" rx="12.5" ry="12.5" style="stroke: #FFFFFF; stroke-width: 1.0;" width="152" x="32" y="507.6094"/><line style="stroke: #A80036; stroke-width: 1.5;" x1="29" x2="187" y1="504.6094" y2="504.6094"/><text fill="#000000" font-family="sans-serif" font-size="14" lengthAdjust="spacingAndGlyphs" textLength="18" x="99" y="495.5332">sdi</text><!--cluster sdiio--><rect fill="#FFFFE0" filter="url(#f1t1n7lsene3pa)" height="102" rx="12.5" ry="12.5" style="stroke: #A80036; stroke-width: 1.5;" width="110" x="53" y="521"/><rect fill="#FFFFFF" height="68.3906" rx="12.5" ry="12.5" style="stroke: #FFFFFF; stroke-width: 1.0;" width="104" x="56" y="551.6094"/><line style="stroke: #A80036; stroke-width: 1.5;" x1="53" x2="163" y1="548.6094" y2="548.6094"/><text fill="#000000" font-family="sans-serif" font-size="14" lengthAdjust="spacingAndGlyphs" textLength="11" x="102.5" y="539.5332">io</text><!--cluster cpl--><rect fill="#D3D3D3" filter="url(#f1t1n7lsene3pa)" height="102" rx="12.5" ry="12.5" style="stroke: #A80036; stroke-width: 1.5;" width="108" x="218" y="521"/><rect fill="#FFFFFF" height="68.3906" rx="12.5" ry="12.5" style="stroke: #FFFFFF; stroke-width: 1.0;" width="102" x="221" y="551.6094"/><line style="stroke: #A80036; stroke-width: 1.5;" x1="218" x2="326" y1="548.6094" y2="548.6094"/><text fill="#000000" font-family="sans-serif" font-size="14" lengthAdjust="spacingAndGlyphs" textLength="18" x="263" y="539.5332">cpl</text><rect fill="#FFFFE0" filter="url(#f1t1n7lsene3pa)" height="50" rx="12.5" ry="12.5" style="stroke: #A80036; stroke-width: 1.5;" width="50" x="163" y="60"/><line style="stroke: #A80036; stroke-width: 1.5;" x1="163" x2="213" y1="87.6094" y2="87.6094"/><text fill="#000000" font-family="sans-serif" font-size="14" lengthAdjust="spacingAndGlyphs" textLength="18" x="179" y="79.5332">Init</text><rect fill="#FFFFE0" filter="url(#f1t1n7lsene3pa)" height="50" rx="12.5" ry="12.5" style="stroke: #A80036; stroke-width: 1.5;" width="71" x="152.5" y="188"/><line style="stroke: #A80036; stroke-width: 1.5;" x1="152.5" x2="223.5" y1="215.6094" y2="215.6094"/><text fill="#000000" font-family="sans-serif" font-size="14" lengthAdjust="spacingAndGlyphs" textLength="51" x="162.5" y="207.5332">Created</text><rect fill="#FFFFE0" filter="url(#f1t1n7lsene3pa)" height="50" rx="12.5" ry="12.5" style="stroke: #A80036; stroke-width: 1.5;" width="85" x="65.5" y="316"/><line style="stroke: #A80036; stroke-width: 1.5;" x1="65.5" x2="150.5" y1="343.6094" y2="343.6094"/><text fill="#000000" font-family="sans-serif" font-size="14" lengthAdjust="spacingAndGlyphs" textLength="65" x="75.5" y="335.5332">Confirmed</text><rect fill="#FFFFE0" filter="url(#f1t1n7lsene3pa)" height="50" rx="12.5" ry="12.5" style="stroke: #A80036; stroke-width: 1.5;" width="76" x="234" y="316"/><line style="stroke: #A80036; stroke-width: 1.5;" x1="234" x2="310" y1="343.6094" y2="343.6094"/><text fill="#000000" font-family="sans-serif" font-size="14" lengthAdjust="spacingAndGlyphs" textLength="56" x="244" y="335.5332">Rejected</text><rect fill="#FFFFE0" filter="url(#f1t1n7lsene3pa)" height="50" rx="12.5" ry="12.5" style="stroke: #A80036; stroke-width: 1.5;" width="77" x="69.5" y="557"/><line style="stroke: #A80036; stroke-width: 1.5;" x1="69.5" x2="146.5" y1="584.6094" y2="584.6094"/><text fill="#000000" font-family="sans-serif" font-size="14" lengthAdjust="spacingAndGlyphs" textLength="57" x="79.5" y="576.5332">provision</text><rect fill="#D3D3D3" filter="url(#f1t1n7lsene3pa)" height="50" rx="12.5" ry="12.5" style="stroke: #A80036; stroke-width: 1.5;" width="75" x="234.5" y="557"/><line style="stroke: #A80036; stroke-width: 1.5;" x1="234.5" x2="309.5" y1="584.6094" y2="584.6094"/><text fill="#000000" font-family="sans-serif" font-size="14" lengthAdjust="spacingAndGlyphs" textLength="55" x="244.5" y="576.5332">Function</text><!--link Init to Created--><path d="M188,110.294 C188,130.95 188,160.669 188,182.651 " fill="none" id="Init-Created" style="stroke: #A80036; stroke-width: 1.0;"/><polygon fill="#A80036" points="188,187.781,192,178.781,188,182.781,184,178.781,188,187.781" style="stroke: #A80036; stroke-width: 1.0;"/><text fill="#000000" font-family="sans-serif" font-size="13" lengthAdjust="spacingAndGlyphs" textLength="36" x="189" y="154.4951">create</text><!--link Init to Confirmed--><path d="M162.984,103.294 C139.344,121.31 105.4172,151.919 91,188 C74.8205,228.492 86.3932,279.58 96.7716,311.009 " fill="none" id="Init-Confirmed" style="stroke: #A80036; stroke-width: 1.0;"/><polygon fill="#A80036" points="98.4225,315.879,99.3204,306.0712,96.8168,311.1438,91.7442,308.6402,98.4225,315.879" style="stroke: #A80036; stroke-width: 1.0;"/><text fill="#000000" font-family="sans-serif" font-size="13" lengthAdjust="spacingAndGlyphs" textLength="42" x="92" y="218.4951">confirm</text><!--link Init to Rejected--><path d="M212.627,110.055 C220.442,118.84 228.477,129.269 234,140 C262.634,195.64 269.837,269.982 271.557,310.543 " fill="none" id="Init-Rejected" style="stroke: #A80036; stroke-width: 1.0;"/><polygon fill="#A80036" points="271.757,315.797,275.4121,306.6515,271.567,310.8006,267.4178,306.9555,271.757,315.797" style="stroke: #A80036; stroke-width: 1.0;"/><text fill="#000000" font-family="sans-serif" font-size="13" lengthAdjust="spacingAndGlyphs" textLength="21" x="264" y="218.4951">free</text><!--link Created to Confirmed--><path d="M172.575,238.294 C159.294,259.211 140.112,289.423 126.106,311.482 " fill="none" id="Created-Confirmed" style="stroke: #A80036; stroke-width: 1.0;"/><polygon fill="#A80036" points="123.377,315.781,131.5777,310.3267,126.0568,311.5598,124.8238,306.039,123.377,315.781" style="stroke: #A80036; stroke-width: 1.0;"/><text fill="#000000" font-family="sans-serif" font-size="13" lengthAdjust="spacingAndGlyphs" textLength="42" x="154" y="282.4951">confirm</text><!--link Created to Rejected--><path d="M204.196,238.294 C218.141,259.211 238.282,289.423 252.988,311.482 " fill="none" id="Created-Rejected" style="stroke: #A80036; stroke-width: 1.0;"/><polygon fill="#A80036" points="255.854,315.781,254.1907,306.0736,253.0808,311.6205,247.5339,310.5107,255.854,315.781" style="stroke: #A80036; stroke-width: 1.0;"/><text fill="#000000" font-family="sans-serif" font-size="13" lengthAdjust="spacingAndGlyphs" textLength="21" x="236" y="282.4951">free</text><!--link Confirmed to sdiioprovision--><path d="M108,366.232 C108,410.429 108,503.965 108,551.676 " fill="none" id="Confirmed-sdiioprovision" style="stroke: #000000; stroke-width: 1.0;"/><polygon fill="#000000" points="108,556.704,112,547.704,108,551.704,104,547.704,108,556.704" style="stroke: #000000; stroke-width: 1.0;"/><!--link Rejected to cplFunction--><path d="M272,366.232 C272,410.429 272,503.965 272,551.676 " fill="none" id="Rejected-cplFunction" style="stroke: #000000; stroke-width: 1.0;"/><polygon fill="#000000" points="272,556.704,276,547.704,272,551.704,268,547.704,272,556.704" style="stroke: #000000; stroke-width: 1.0;"/><!--
@startuml



state Reservation #lightyellow {

    state Init #lightyellow {
    }

    state Created #lightyellow {
    }

    state Confirmed #lightyellow {
    }

    state Rejected #lightyellow {
    }

}


Init - -> Created : create

Init - -> Confirmed : confirm

Init - -> Rejected : free

Created - -> Confirmed : confirm

Created - -> Rejected : free



 state "sdi" as sdi #lightyellow {
state "io" as sdiio #lightyellow {
state "provision" as sdiioprovision #lightyellow {
}
}
}

 Confirmed -[#black]- -> sdiioprovision
 
 state "cpl" as cpl #lightgray {
state "Function" as cplFunction #lightgray {
}
}

 Rejected -[#black]- -> cplFunction
 

@enduml

PlantUML version 1.2019.05(Sat Apr 20 09:45:36 PDT 2019)
(GPL source distribution)
Java Runtime: OpenJDK Runtime Environment
JVM: OpenJDK 64-Bit Server VM
Java Version: 12.0.1+12
Operating System: Windows 10
OS Version: 10.0
Default Encoding: Cp1252
Language: en
Country: US
--></g></svg>