<?xml version="1.0" encoding="UTF-8" standalone="no"?><svg xmlns="http://www.w3.org/2000/svg" xmlns:xlink="http://www.w3.org/1999/xlink" contentScriptType="application/ecmascript" contentStyleType="text/css" height="474px" preserveAspectRatio="none" style="width:369px;height:474px;" version="1.1" viewBox="0 0 369 474" width="369px" zoomAndPan="magnify"><defs><filter height="300%" id="f1ph0i8subzt3" width="300%" x="-1" y="-1"><feGaussianBlur result="blurOut" stdDeviation="2.0"/><feColorMatrix in="blurOut" result="blurOut2" type="matrix" values="0 0 0 0 0 0 0 0 0 0 0 0 0 0 0 0 0 0 .4 0"/><feOffset dx="4.0" dy="4.0" in="blurOut2" result="blurOut3"/><feBlend in="SourceGraphic" in2="blurOut3" mode="normal"/></filter></defs><g><!--cluster Cloud Broker--><rect fill="#90EE90" filter="url(#f1ph0i8subzt3)" height="439" style="stroke: #000000; stroke-width: 1.5;" width="222" x="136" y="24"/><text fill="#000000" font-family="sans-serif" font-size="14" font-weight="bold" lengthAdjust="spacingAndGlyphs" textLength="93" x="200.5" y="40.5332">Cloud Broker</text><ellipse cx="247.1311" cy="76.0262" fill="#FEFECE" filter="url(#f1ph0i8subzt3)" rx="68.1311" ry="16.0262" style="stroke: #A80036; stroke-width: 1.5;"/><text fill="#000000" font-family="sans-serif" font-size="14" lengthAdjust="spacingAndGlyphs" textLength="96" x="199.1311" y="81.3309">FindResources</text><ellipse cx="247.2254" cy="142.9517" fill="#FEFECE" filter="url(#f1ph0i8subzt3)" rx="65.2254" ry="15.4517" style="stroke: #A80036; stroke-width: 1.5;"/><text fill="#000000" font-family="sans-serif" font-size="14" lengthAdjust="spacingAndGlyphs" textLength="88" x="203.2254" y="148.2564">ManageBilling</text><ellipse cx="247.1143" cy="211.2229" fill="#FEFECE" filter="url(#f1ph0i8subzt3)" rx="76.6143" ry="17.7229" style="stroke: #A80036; stroke-width: 1.5;"/><text fill="#000000" font-family="sans-serif" font-size="14" lengthAdjust="spacingAndGlyphs" textLength="118" x="188.1143" y="216.5275">ManageCostModel</text><ellipse cx="247.2142" cy="281.1428" fill="#FEFECE" filter="url(#f1ph0i8subzt3)" rx="76.2142" ry="17.6428" style="stroke: #A80036; stroke-width: 1.5;"/><text fill="#000000" font-family="sans-serif" font-size="14" lengthAdjust="spacingAndGlyphs" textLength="117" x="188.7142" y="286.4475">ManageMultiCloud</text><ellipse cx="247.1143" cy="351.2229" fill="#FEFECE" filter="url(#f1ph0i8subzt3)" rx="76.6143" ry="17.7229" style="stroke: #A80036; stroke-width: 1.5;"/><text fill="#000000" font-family="sans-serif" font-size="14" lengthAdjust="spacingAndGlyphs" textLength="118" x="188.1143" y="356.5275">MapAssetstoCloud</text><ellipse cx="246.7514" cy="424.8503" fill="#FEFECE" filter="url(#f1ph0i8subzt3)" rx="94.7514" ry="21.3503" style="stroke: #A80036; stroke-width: 1.5;"/><text fill="#000000" font-family="sans-serif" font-size="14" lengthAdjust="spacingAndGlyphs" textLength="161" x="166.2514" y="430.155">MapServicestoResources</text><!--entity ITOperations--><ellipse cx="49" cy="213.5" fill="#FEFECE" filter="url(#f1ph0i8subzt3)" rx="8" ry="8" style="stroke: #A80036; stroke-width: 2.0;"/><path d="M49,221.5 L49,248.5 M36,229.5 L62,229.5 M49,248.5 L36,263.5 M49,248.5 L62,263.5 " fill="none" filter="url(#f1ph0i8subzt3)" style="stroke: #A80036; stroke-width: 2.0;"/><text fill="#000000" font-family="sans-serif" font-size="14" lengthAdjust="spacingAndGlyphs" textLength="86" x="6" y="285.0332">IT Operations</text><!--link ITOperations to FindResources--><path d="M64.5373,203.306 C76.9193,173.094 97.5924,133.859 128,110 C143.485,97.85 163.147,90.042 181.96,85.023 " fill="none" id="ITOperations-FindResources" style="stroke: #A80036; stroke-width: 1.0;"/><polygon fill="#A80036" points="187.24,83.681,177.5321,82.0209,182.394,84.9125,179.5024,89.7745,187.24,83.681" style="stroke: #A80036; stroke-width: 1.0;"/><!--link ITOperations to ManageBilling--><path d="M90.5819,203.26 C101.9082,193.181 114.762,183.267 128,176 C146.737,165.714 168.946,158.418 189.013,153.351 " fill="none" id="ITOperations-ManageBilling" style="stroke: #A80036; stroke-width: 1.0;"/><polygon fill="#A80036" points="194.065,152.11,184.3706,150.3726,189.2094,153.3028,186.2791,158.1416,194.065,152.11" style="stroke: #A80036; stroke-width: 1.0;"/><!--link ITOperations to ManageCostModel--><path d="M92.0469,238.492 C117.992,233.859 151.805,227.82 181.132,222.584 " fill="none" id="ITOperations-ManageCostModel" style="stroke: #A80036; stroke-width: 1.0;"/><polygon fill="#A80036" points="186.174,221.683,176.6112,219.3264,181.2518,222.5615,178.0168,227.202,186.174,221.683" style="stroke: #A80036; stroke-width: 1.0;"/><!--link ITOperations to ManageMultiCloud--><path d="M92.0469,253.508 C118.098,258.16 152.082,264.229 181.492,269.481 " fill="none" id="ITOperations-ManageMultiCloud" style="stroke: #A80036; stroke-width: 1.0;"/><polygon fill="#A80036" points="186.548,270.384,178.3926,264.8623,181.6261,269.5039,176.9844,272.7374,186.548,270.384" style="stroke: #A80036; stroke-width: 1.0;"/><!--link ITOperations to MapAssetstoCloud--><path d="M90.6603,288.598 C101.9856,298.68 114.819,308.629 128,316 C145.133,325.581 165.164,332.792 183.808,338.101 " fill="none" id="ITOperations-MapAssetstoCloud" style="stroke: #A80036; stroke-width: 1.0;"/><polygon fill="#A80036" points="189.026,339.549,181.4238,333.2875,184.2082,338.2117,179.284,340.9961,189.026,339.549" style="stroke: #A80036; stroke-width: 1.0;"/><!--link ITOperations to MapServicestoResources--><path d="M64.1229,288.608 C76.446,319.65 97.2284,360.559 128,386 C140.101,396.0049 154.858,403.4732 169.783,409.0385 " fill="none" id="ITOperations-MapServicestoResources" style="stroke: #A80036; stroke-width: 1.0;"/><polygon fill="#A80036" points="174.847,410.8539,167.7246,404.0516,170.1402,409.1667,165.0251,411.5824,174.847,410.8539" style="stroke: #A80036; stroke-width: 1.0;"/><!--
@startuml

left to right direction
Actor "IT Operations" as ITOperations
Actor "ITOperations" as ITOperations
Actor "ITOperations" as ITOperations
Actor "IT Operations" as ITOperations
Actor "IT Operations" as ITOperations
Actor "IT Operations" as ITOperations


rectangle "Cloud Broker" #lightgreen {
usecase "FindResources" as FindResources
    ITOperations - -> FindResources
    usecase "ManageBilling" as ManageBilling
    ITOperations - -> ManageBilling
    usecase "ManageCostModel" as ManageCostModel
    ITOperations - -> ManageCostModel
    usecase "ManageMultiCloud" as ManageMultiCloud
    ITOperations - -> ManageMultiCloud
    usecase "MapAssetstoCloud" as MapAssetstoCloud
    ITOperations - -> MapAssetstoCloud
    usecase "MapServicestoResources" as MapServicestoResources
    ITOperations - -> MapServicestoResources
    }


@enduml

PlantUML version 1.2019.05(Sat Apr 20 09:45:36 PDT 2019)
(GPL source distribution)
Java Runtime: OpenJDK Runtime Environment
JVM: OpenJDK 64-Bit Server VM
Java Version: 12.0.1+12
Operating System: Windows 10
OS Version: 10.0
Default Encoding: Cp1252
Language: en
Country: US
--></g></svg>