<?xml version="1.0" encoding="UTF-8" standalone="no"?><svg xmlns="http://www.w3.org/2000/svg" xmlns:xlink="http://www.w3.org/1999/xlink" contentScriptType="application/ecmascript" contentStyleType="text/css" height="742px" preserveAspectRatio="none" style="width:623px;height:742px;" version="1.1" viewBox="0 0 623 742" width="623px" zoomAndPan="magnify"><defs><filter height="300%" id="f1rsy6dc1gbs7b" width="300%" x="-1" y="-1"><feGaussianBlur result="blurOut" stdDeviation="2.0"/><feColorMatrix in="blurOut" result="blurOut2" type="matrix" values="0 0 0 0 0 0 0 0 0 0 0 0 0 0 0 0 0 0 .4 0"/><feOffset dx="4.0" dy="4.0" in="blurOut2" result="blurOut3"/><feBlend in="SourceGraphic" in2="blurOut3" mode="normal"/></filter></defs><g><line style="stroke: #A80036; stroke-width: 1.0; stroke-dasharray: 5.0,5.0;" x1="52" x2="52" y1="87.6094" y2="653.9375"/><line style="stroke: #A80036; stroke-width: 1.0; stroke-dasharray: 5.0,5.0;" x1="234.5" x2="234.5" y1="87.6094" y2="653.9375"/><line style="stroke: #A80036; stroke-width: 1.0; stroke-dasharray: 5.0,5.0;" x1="411.5" x2="411.5" y1="87.6094" y2="653.9375"/><line style="stroke: #A80036; stroke-width: 1.0; stroke-dasharray: 5.0,5.0;" x1="588.5" x2="588.5" y1="87.6094" y2="653.9375"/><text fill="#000000" font-family="sans-serif" font-size="14" lengthAdjust="spacingAndGlyphs" textLength="82" x="8" y="84.5332">ITOperations</text><ellipse cx="52" cy="13" fill="#FEFECE" filter="url(#f1rsy6dc1gbs7b)" rx="8" ry="8" style="stroke: #A80036; stroke-width: 2.0;"/><path d="M52,21 L52,48 M39,29 L65,29 M52,48 L39,63 M52,48 L65,63 " fill="none" filter="url(#f1rsy6dc1gbs7b)" style="stroke: #A80036; stroke-width: 2.0;"/><text fill="#000000" font-family="sans-serif" font-size="14" lengthAdjust="spacingAndGlyphs" textLength="82" x="8" y="667.4707">ITOperations</text><ellipse cx="52" cy="680.5469" fill="#FEFECE" filter="url(#f1rsy6dc1gbs7b)" rx="8" ry="8" style="stroke: #A80036; stroke-width: 2.0;"/><path d="M52,688.5469 L52,715.5469 M39,696.5469 L65,696.5469 M52,715.5469 L39,730.5469 M52,715.5469 L65,730.5469 " fill="none" filter="url(#f1rsy6dc1gbs7b)" style="stroke: #A80036; stroke-width: 2.0;"/><rect fill="#FEFECE" filter="url(#f1rsy6dc1gbs7b)" height="31.6094" style="stroke: #A80036; stroke-width: 1.5;" width="97" x="184.5" y="51"/><text fill="#000000" font-family="sans-serif" font-size="14" lengthAdjust="spacingAndGlyphs" textLength="83" x="191.5" y="72.5332">Cloud Broker</text><rect fill="#FEFECE" filter="url(#f1rsy6dc1gbs7b)" height="31.6094" style="stroke: #A80036; stroke-width: 1.5;" width="97" x="184.5" y="652.9375"/><text fill="#000000" font-family="sans-serif" font-size="14" lengthAdjust="spacingAndGlyphs" textLength="83" x="191.5" y="674.4707">Cloud Broker</text><rect fill="#FEFECE" filter="url(#f1rsy6dc1gbs7b)" height="31.6094" style="stroke: #A80036; stroke-width: 1.5;" width="33" x="393.5" y="51"/><text fill="#000000" font-family="sans-serif" font-size="14" lengthAdjust="spacingAndGlyphs" textLength="19" x="400.5" y="72.5332">bin</text><rect fill="#FEFECE" filter="url(#f1rsy6dc1gbs7b)" height="31.6094" style="stroke: #A80036; stroke-width: 1.5;" width="33" x="393.5" y="652.9375"/><text fill="#000000" font-family="sans-serif" font-size="14" lengthAdjust="spacingAndGlyphs" textLength="19" x="400.5" y="674.4707">bin</text><rect fill="#FEFECE" filter="url(#f1rsy6dc1gbs7b)" height="31.6094" style="stroke: #A80036; stroke-width: 1.5;" width="51" x="561.5" y="51"/><text fill="#000000" font-family="sans-serif" font-size="14" lengthAdjust="spacingAndGlyphs" textLength="37" x="568.5" y="72.5332">REST</text><rect fill="#FEFECE" filter="url(#f1rsy6dc1gbs7b)" height="31.6094" style="stroke: #A80036; stroke-width: 1.5;" width="51" x="561.5" y="652.9375"/><text fill="#000000" font-family="sans-serif" font-size="14" lengthAdjust="spacingAndGlyphs" textLength="37" x="568.5" y="674.4707">REST</text><polygon fill="#A80036" points="223,115.9609,233,119.9609,223,123.9609,227,119.9609" style="stroke: #A80036; stroke-width: 1.0;"/><line style="stroke: #A80036; stroke-width: 1.0;" x1="52" x2="229" y1="119.9609" y2="119.9609"/><text fill="#000000" font-family="sans-serif" font-size="13" lengthAdjust="spacingAndGlyphs" textLength="91" x="59" y="115.1045">Find Resources</text><polygon fill="#A80036" points="400,146.3125,410,150.3125,400,154.3125,404,150.3125" style="stroke: #A80036; stroke-width: 1.0;"/><line style="stroke: #A80036; stroke-width: 1.0;" x1="235" x2="406" y1="150.3125" y2="150.3125"/><text fill="#000000" font-family="sans-serif" font-size="13" lengthAdjust="spacingAndGlyphs" textLength="81" x="242" y="145.4561">resources/find</text><polygon fill="#A80036" points="577,176.6641,587,180.6641,577,184.6641,581,180.6641" style="stroke: #A80036; stroke-width: 1.0;"/><line style="stroke: #A80036; stroke-width: 1.0;" x1="412" x2="583" y1="180.6641" y2="180.6641"/><text fill="#000000" font-family="sans-serif" font-size="13" lengthAdjust="spacingAndGlyphs" textLength="81" x="419" y="175.8076">resources/find</text><polygon fill="#A80036" points="223,207.0156,233,211.0156,223,215.0156,227,211.0156" style="stroke: #A80036; stroke-width: 1.0;"/><line style="stroke: #A80036; stroke-width: 1.0;" x1="52" x2="229" y1="211.0156" y2="211.0156"/><text fill="#000000" font-family="sans-serif" font-size="13" lengthAdjust="spacingAndGlyphs" textLength="81" x="59" y="206.1592">ManageBilling</text><polygon fill="#A80036" points="400,237.3672,410,241.3672,400,245.3672,404,241.3672" style="stroke: #A80036; stroke-width: 1.0;"/><line style="stroke: #A80036; stroke-width: 1.0;" x1="235" x2="406" y1="241.3672" y2="241.3672"/><text fill="#000000" font-family="sans-serif" font-size="13" lengthAdjust="spacingAndGlyphs" textLength="54" x="242" y="236.5107">billing/list</text><polygon fill="#A80036" points="577,267.7188,587,271.7188,577,275.7188,581,271.7188" style="stroke: #A80036; stroke-width: 1.0;"/><line style="stroke: #A80036; stroke-width: 1.0;" x1="412" x2="583" y1="271.7188" y2="271.7188"/><text fill="#000000" font-family="sans-serif" font-size="13" lengthAdjust="spacingAndGlyphs" textLength="54" x="419" y="266.8623">billing/list</text><polygon fill="#A80036" points="223,298.0703,233,302.0703,223,306.0703,227,302.0703" style="stroke: #A80036; stroke-width: 1.0;"/><line style="stroke: #A80036; stroke-width: 1.0;" x1="52" x2="229" y1="302.0703" y2="302.0703"/><text fill="#000000" font-family="sans-serif" font-size="13" lengthAdjust="spacingAndGlyphs" textLength="108" x="59" y="297.2139">ManageCostModel</text><polygon fill="#A80036" points="400,328.4219,410,332.4219,400,336.4219,404,332.4219" style="stroke: #A80036; stroke-width: 1.0;"/><line style="stroke: #A80036; stroke-width: 1.0;" x1="235" x2="406" y1="332.4219" y2="332.4219"/><text fill="#000000" font-family="sans-serif" font-size="13" lengthAdjust="spacingAndGlyphs" textLength="153" x="242" y="327.5654">ResourceInstanceType/list</text><polygon fill="#A80036" points="577,358.7734,587,362.7734,577,366.7734,581,362.7734" style="stroke: #A80036; stroke-width: 1.0;"/><line style="stroke: #A80036; stroke-width: 1.0;" x1="412" x2="583" y1="362.7734" y2="362.7734"/><text fill="#000000" font-family="sans-serif" font-size="13" lengthAdjust="spacingAndGlyphs" textLength="153" x="419" y="357.917">ResourceInstanceType/list</text><polygon fill="#A80036" points="223,389.125,233,393.125,223,397.125,227,393.125" style="stroke: #A80036; stroke-width: 1.0;"/><line style="stroke: #A80036; stroke-width: 1.0;" x1="52" x2="229" y1="393.125" y2="393.125"/><text fill="#000000" font-family="sans-serif" font-size="13" lengthAdjust="spacingAndGlyphs" textLength="115" x="59" y="388.2686">Manage Multi Cloud</text><polygon fill="#A80036" points="400,419.4766,410,423.4766,400,427.4766,404,423.4766" style="stroke: #A80036; stroke-width: 1.0;"/><line style="stroke: #A80036; stroke-width: 1.0;" x1="235" x2="406" y1="423.4766" y2="423.4766"/><text fill="#000000" font-family="sans-serif" font-size="13" lengthAdjust="spacingAndGlyphs" textLength="80" x="242" y="418.6201">multicloud/list</text><polygon fill="#A80036" points="577,449.8281,587,453.8281,577,457.8281,581,453.8281" style="stroke: #A80036; stroke-width: 1.0;"/><line style="stroke: #A80036; stroke-width: 1.0;" x1="412" x2="583" y1="453.8281" y2="453.8281"/><text fill="#000000" font-family="sans-serif" font-size="13" lengthAdjust="spacingAndGlyphs" textLength="80" x="419" y="448.9717">multicloud/list</text><polygon fill="#A80036" points="223,480.1797,233,484.1797,223,488.1797,227,484.1797" style="stroke: #A80036; stroke-width: 1.0;"/><line style="stroke: #A80036; stroke-width: 1.0;" x1="52" x2="229" y1="484.1797" y2="484.1797"/><text fill="#000000" font-family="sans-serif" font-size="13" lengthAdjust="spacingAndGlyphs" textLength="122" x="59" y="479.3232">Map Assets to Cloud</text><polygon fill="#A80036" points="400,510.5313,410,514.5313,400,518.5313,404,514.5313" style="stroke: #A80036; stroke-width: 1.0;"/><line style="stroke: #A80036; stroke-width: 1.0;" x1="235" x2="406" y1="514.5313" y2="514.5313"/><text fill="#000000" font-family="sans-serif" font-size="13" lengthAdjust="spacingAndGlyphs" textLength="145" x="242" y="509.6748">multicloud/mapresources</text><polygon fill="#A80036" points="577,540.8828,587,544.8828,577,548.8828,581,544.8828" style="stroke: #A80036; stroke-width: 1.0;"/><line style="stroke: #A80036; stroke-width: 1.0;" x1="412" x2="583" y1="544.8828" y2="544.8828"/><text fill="#000000" font-family="sans-serif" font-size="13" lengthAdjust="spacingAndGlyphs" textLength="145" x="419" y="540.0264">multicloud/mapresources</text><polygon fill="#A80036" points="223,571.2344,233,575.2344,223,579.2344,227,575.2344" style="stroke: #A80036; stroke-width: 1.0;"/><line style="stroke: #A80036; stroke-width: 1.0;" x1="52" x2="229" y1="575.2344" y2="575.2344"/><text fill="#000000" font-family="sans-serif" font-size="13" lengthAdjust="spacingAndGlyphs" textLength="159" x="59" y="570.3779">Map Services to Resources</text><polygon fill="#A80036" points="400,601.5859,410,605.5859,400,609.5859,404,605.5859" style="stroke: #A80036; stroke-width: 1.0;"/><line style="stroke: #A80036; stroke-width: 1.0;" x1="235" x2="406" y1="605.5859" y2="605.5859"/><text fill="#000000" font-family="sans-serif" font-size="13" lengthAdjust="spacingAndGlyphs" textLength="126" x="242" y="600.7295">service/mapresources</text><polygon fill="#A80036" points="577,631.9375,587,635.9375,577,639.9375,581,635.9375" style="stroke: #A80036; stroke-width: 1.0;"/><line style="stroke: #A80036; stroke-width: 1.0;" x1="412" x2="583" y1="635.9375" y2="635.9375"/><text fill="#000000" font-family="sans-serif" font-size="13" lengthAdjust="spacingAndGlyphs" textLength="126" x="419" y="631.0811">service/mapresources</text><!--
@startuml

actor "ITOperations" as itops




itops -> "Cloud Broker": Find Resources
"Cloud Broker" -> bin: resources/find
bin -> REST: resources/find

itops -> "Cloud Broker": ManageBilling
"Cloud Broker" -> bin: billing/list
bin -> REST: billing/list

itops -> "Cloud Broker": ManageCostModel
"Cloud Broker" -> bin: ResourceInstanceType/list
bin -> REST: ResourceInstanceType/list

itops -> "Cloud Broker": Manage Multi Cloud
"Cloud Broker" -> bin: multicloud/list
bin -> REST: multicloud/list

itops -> "Cloud Broker": Map Assets to Cloud
"Cloud Broker" -> bin: multicloud/mapresources
bin -> REST: multicloud/mapresources

itops -> "Cloud Broker": Map Services to Resources
"Cloud Broker" -> bin: service/mapresources
bin -> REST: service/mapresources


@enduml

PlantUML version 1.2019.05(Sat Apr 20 09:45:36 PDT 2019)
(GPL source distribution)
Java Runtime: OpenJDK Runtime Environment
JVM: OpenJDK 64-Bit Server VM
Java Version: 12.0.1+12
Operating System: Windows 10
OS Version: 10.0
Default Encoding: Cp1252
Language: en
Country: US
--></g></svg>