<?xml version="1.0" encoding="UTF-8" standalone="no"?><svg xmlns="http://www.w3.org/2000/svg" xmlns:xlink="http://www.w3.org/1999/xlink" contentScriptType="application/ecmascript" contentStyleType="text/css" height="685px" preserveAspectRatio="none" style="width:472px;height:685px;" version="1.1" viewBox="0 0 472 685" width="472px" zoomAndPan="magnify"><defs><filter height="300%" id="fc7onkonsbuge" width="300%" x="-1" y="-1"><feGaussianBlur result="blurOut" stdDeviation="2.0"/><feColorMatrix in="blurOut" result="blurOut2" type="matrix" values="0 0 0 0 0 0 0 0 0 0 0 0 0 0 0 0 0 0 .4 0"/><feOffset dx="4.0" dy="4.0" in="blurOut2" result="blurOut3"/><feBlend in="SourceGraphic" in2="blurOut3" mode="normal"/></filter></defs><g><!--cluster Telemetry Aggregator--><polygon fill="#D3D3D3" filter="url(#fc7onkonsbuge)" points="45.5,84,203.5,84,210.5,107.6094,450.5,107.6094,450.5,673,45.5,673,45.5,84" style="stroke: #000000; stroke-width: 1.5;"/><line style="stroke: #000000; stroke-width: 1.5;" x1="45.5" x2="210.5" y1="107.6094" y2="107.6094"/><text fill="#000000" font-family="sans-serif" font-size="14" font-weight="bold" lengthAdjust="spacingAndGlyphs" textLength="152" x="49.5" y="100.5332">Telemetry Aggregator</text><!--cluster bin--><polygon fill="#FFFFFF" filter="url(#fc7onkonsbuge)" points="83.5,128,111.5,128,118.5,151.6094,237.5,151.6094,237.5,218,83.5,218,83.5,128" style="stroke: #000000; stroke-width: 1.5;"/><line style="stroke: #000000; stroke-width: 1.5;" x1="83.5" x2="118.5" y1="151.6094" y2="151.6094"/><text fill="#000000" font-family="sans-serif" font-size="14" font-weight="bold" lengthAdjust="spacingAndGlyphs" textLength="22" x="87.5" y="144.5332">bin</text><!--cluster deploy--><polygon fill="#FFFFFF" filter="url(#fc7onkonsbuge)" points="69.5,324,122.5,324,129.5,347.6094,426.5,347.6094,426.5,431,69.5,431,69.5,324" style="stroke: #000000; stroke-width: 1.5;"/><line style="stroke: #000000; stroke-width: 1.5;" x1="69.5" x2="129.5" y1="347.6094" y2="347.6094"/><text fill="#000000" font-family="sans-serif" font-size="14" font-weight="bold" lengthAdjust="spacingAndGlyphs" textLength="47" x="73.5" y="340.5332">deploy</text><!--cluster images--><polygon fill="#FFFFFF" filter="url(#fc7onkonsbuge)" points="147.5,455,203.5,455,210.5,478.6094,374.5,478.6094,374.5,649,147.5,649,147.5,455" style="stroke: #000000; stroke-width: 1.5;"/><line style="stroke: #000000; stroke-width: 1.5;" x1="147.5" x2="210.5" y1="478.6094" y2="478.6094"/><text fill="#000000" font-family="sans-serif" font-size="14" font-weight="bold" lengthAdjust="spacingAndGlyphs" textLength="50" x="151.5" y="471.5332">images</text><!--entity REST--><rect fill="#FEFECE" filter="url(#fc7onkonsbuge)" height="37.6094" style="stroke: #A80036; stroke-width: 1.5;" width="69" x="126" y="262"/><rect fill="#FEFECE" height="5" style="stroke: #A80036; stroke-width: 1.5;" width="10" x="121" y="267"/><rect fill="#FEFECE" height="5" style="stroke: #A80036; stroke-width: 1.5;" width="10" x="121" y="289.6094"/><text fill="#000000" font-family="sans-serif" font-size="14" lengthAdjust="spacingAndGlyphs" textLength="49" x="136" y="286.5332">express</text><!--entity socket--><rect fill="#FEFECE" filter="url(#fc7onkonsbuge)" height="37.6094" style="stroke: #A80036; stroke-width: 1.5;" width="76" x="302.5" y="164"/><rect fill="#FEFECE" height="5" style="stroke: #A80036; stroke-width: 1.5;" width="10" x="297.5" y="169"/><rect fill="#FEFECE" height="5" style="stroke: #A80036; stroke-width: 1.5;" width="10" x="297.5" y="191.6094"/><text fill="#000000" font-family="sans-serif" font-size="14" lengthAdjust="spacingAndGlyphs" textLength="56" x="312.5" y="188.5332">socket.io</text><!--entity binName--><rect fill="#FEFECE" filter="url(#fc7onkonsbuge)" height="37.6094" style="stroke: #A80036; stroke-width: 1.5;" width="122" x="99.5" y="164"/><rect fill="#FEFECE" height="5" style="stroke: #A80036; stroke-width: 1.5;" width="10" x="94.5" y="169"/><rect fill="#FEFECE" height="5" style="stroke: #A80036; stroke-width: 1.5;" width="10" x="94.5" y="191.6094"/><text fill="#000000" font-family="sans-serif" font-size="14" lengthAdjust="spacingAndGlyphs" textLength="102" x="109.5" y="188.5332">edgemere cpl ta</text><!--entity cpl_ta_container--><polygon fill="#FEFECE" filter="url(#fc7onkonsbuge)" points="85.5,360,85.5,415.2188,235.5,415.2188,235.5,370,225.5,360,85.5,360" style="stroke: #000000; stroke-width: 1.5;"/><path d="M225.5,360 L225.5,370 L235.5,370 " fill="#FEFECE" style="stroke: #000000; stroke-width: 1.5;"/><text fill="#000000" font-family="sans-serif" font-size="14" lengthAdjust="spacingAndGlyphs" textLength="90" x="95.5" y="384.5332">node server.js</text><text fill="#000000" font-family="sans-serif" font-size="14" lengthAdjust="spacingAndGlyphs" textLength="130" x="95.5" y="402.1426">docker-compose.yml</text><!--entity web_container--><polygon fill="#FEFECE" filter="url(#fc7onkonsbuge)" points="271,368.5,271,406.1094,410,406.1094,410,378.5,400,368.5,271,368.5" style="stroke: #000000; stroke-width: 1.5;"/><path d="M400,368.5 L400,378.5 L410,378.5 " fill="#FEFECE" style="stroke: #000000; stroke-width: 1.5;"/><text fill="#000000" font-family="sans-serif" font-size="14" lengthAdjust="spacingAndGlyphs" textLength="119" x="281" y="393.0332">node web/server.js</text><!--entity cpl_taimage--><rect fill="#FEFECE" filter="url(#fc7onkonsbuge)" height="33.6094" style="stroke: #000000; stroke-width: 1.5;" width="54" x="167.5" y="496.5"/><rect fill="#FEFECE" height="33.6094" style="stroke: #000000; stroke-width: 1.5;" width="54" x="163.5" y="492.5"/><text fill="#000000" font-family="sans-serif" font-size="14" lengthAdjust="spacingAndGlyphs" textLength="38" x="171.5" y="515.0332">cpl_ta</text><!--entity ailtireswarm--><rect fill="#FEFECE" filter="url(#fc7onkonsbuge)" height="40.6094" style="stroke: #000000; stroke-width: 1.5;" width="108" x="163.5" y="592"/><polygon fill="#FEFECE" points="254.5,597,254.5,611,266.5,611,266.5,603,260.5,597,254.5,597" style="stroke: #000000; stroke-width: 1.5;"/><line style="stroke: #000000; stroke-width: 1.5;" x1="260.5" x2="260.5" y1="597" y2="603"/><line style="stroke: #000000; stroke-width: 1.5;" x1="266.5" x2="260.5" y1="603" y2="603"/><text fill="#000000" font-family="sans-serif" font-size="14" lengthAdjust="spacingAndGlyphs" textLength="78" x="173.5" y="619.5332">ailtire:swarm</text><!--entity cpl_ta_web--><rect fill="#FEFECE" filter="url(#fc7onkonsbuge)" height="40.6094" style="stroke: #000000; stroke-width: 1.5;" width="101" x="257" y="491"/><polygon fill="#FEFECE" points="341,496,341,510,353,510,353,502,347,496,341,496" style="stroke: #000000; stroke-width: 1.5;"/><line style="stroke: #000000; stroke-width: 1.5;" x1="347" x2="347" y1="496" y2="502"/><line style="stroke: #000000; stroke-width: 1.5;" x1="353" x2="347" y1="502" y2="502"/><text fill="#000000" font-family="sans-serif" font-size="14" lengthAdjust="spacingAndGlyphs" textLength="71" x="267" y="518.5332">cpl_ta_web</text><!--entity CLI--><ellipse cx="160.5" cy="38" fill="#FEFECE" filter="url(#fc7onkonsbuge)" rx="8" ry="8" style="stroke: #A80036; stroke-width: 2.0;"/><text fill="#000000" font-family="sans-serif" font-size="14" lengthAdjust="spacingAndGlyphs" textLength="21" x="150" y="69.5332">CLI</text><!--entity Web--><ellipse cx="20.5" cy="281" fill="#FEFECE" filter="url(#fc7onkonsbuge)" rx="8" ry="8" style="stroke: #A80036; stroke-width: 2.0;"/><text fill="#000000" font-family="sans-serif" font-size="14" lengthAdjust="spacingAndGlyphs" textLength="29" x="6" y="312.5332">Web</text><!--entity WebSocket--><ellipse cx="340.5" cy="38" fill="#FEFECE" filter="url(#fc7onkonsbuge)" rx="8" ry="8" style="stroke: #A80036; stroke-width: 2.0;"/><text fill="#000000" font-family="sans-serif" font-size="14" lengthAdjust="spacingAndGlyphs" textLength="72" x="304.5" y="69.5332">WebSocket</text><!--link binName to REST--><path d="M160.5,202.057 C160.5,217.513 160.5,239.865 160.5,256.673 " fill="none" id="binName-REST" style="stroke: #A80036; stroke-width: 1.0;"/><polygon fill="#A80036" points="160.5,261.698,164.5,252.698,160.5,256.698,156.5,252.698,160.5,261.698" style="stroke: #A80036; stroke-width: 1.0;"/><!--link REST to cpl_ta_container--><path d="M160.5,300.203 C160.5,315.147 160.5,336.673 160.5,354.487 " fill="none" id="REST-cpl_ta_container" style="stroke: #A80036; stroke-width: 1.0;"/><polygon fill="#A80036" points="160.5,359.885,164.5,350.885,160.5,354.885,156.5,350.885,160.5,359.885" style="stroke: #A80036; stroke-width: 1.0;"/><!--link REST to web_container--><path d="M195.271,291.692 C213.279,297.45 235.255,305.656 253.5,316 C277.198,329.435 301.019,349.285 317.728,364.502 " fill="none" id="REST-web_container" style="stroke: #A80036; stroke-width: 1.0;"/><polygon fill="#A80036" points="321.819,368.264,317.9021,359.2275,318.1387,364.8794,312.4868,365.116,321.819,368.264" style="stroke: #A80036; stroke-width: 1.0;"/><!--link socket to web_container--><path d="M340.5,202.328 C340.5,239.225 340.5,322.407 340.5,363.138 " fill="none" id="socket-web_container" style="stroke: #A80036; stroke-width: 1.0;"/><polygon fill="#A80036" points="340.5,368.36,344.5,359.36,340.5,363.36,336.5,359.36,340.5,368.36" style="stroke: #A80036; stroke-width: 1.0;"/><!--link cpl_taimage to ailtireswarm--><path d="M202.07,550.398 C205.631,564.499 209.528,579.932 212.515,591.7594 " fill="none" id="cpl_taimage-ailtireswarm" style="stroke: #A80036; stroke-width: 1.0;"/><polygon fill="none" points="195.195,551.763,197.085,530.658,208.769,548.336,195.195,551.763" style="stroke: #A80036; stroke-width: 1.0;"/><!--link cpl_ta_container to cpl_taimage--><path d="M167.523,415.273 C173.187,436.871 181.072,466.931 186.458,487.465 " fill="none" id="cpl_ta_container-cpl_taimage" style="stroke: #A80036; stroke-width: 1.0;"/><polygon fill="#A80036" points="187.77,492.469,189.3561,482.7487,186.5016,487.6326,181.6177,484.7781,187.77,492.469" style="stroke: #A80036; stroke-width: 1.0;"/><!--link web_container to cpl_ta_web--><path d="M335.631,406.502 C329.94,427.541 320.493,462.465 314.135,485.972 " fill="none" id="web_container-cpl_ta_web" style="stroke: #A80036; stroke-width: 1.0;"/><polygon fill="#A80036" points="312.827,490.805,319.0388,483.1621,314.1329,485.9786,311.3165,481.0727,312.827,490.805" style="stroke: #A80036; stroke-width: 1.0;"/><!--link CLI to binName--><path d="M160.5,47.098 C160.5,69.432 160.5,132.318 160.5,163.705 " fill="none" id="CLI-binName" style="stroke: #A80036; stroke-width: 1.0;"/><text fill="#000000" font-family="sans-serif" font-size="13" lengthAdjust="spacingAndGlyphs" textLength="93" x="50.2219" y="45.0469">edgemere cpl ta</text><!--link Web to REST--><path d="M29.5234,281 C61.6707,281 93.8179,281 125.965,281 " fill="none" id="Web-REST" style="stroke: #A80036; stroke-width: 1.0;"/><text fill="#000000" font-family="sans-serif" font-size="13" lengthAdjust="spacingAndGlyphs" textLength="97" x="37.2552" y="274.856">/edgemere/cpl/ta</text><!--link WebSocket to socket--><path d="M340.5,47.098 C340.5,69.432 340.5,132.318 340.5,163.705 " fill="none" id="WebSocket-socket" style="stroke: #A80036; stroke-width: 1.0;"/><text fill="#000000" font-family="sans-serif" font-size="13" lengthAdjust="spacingAndGlyphs" textLength="97" x="226.2219" y="45.0469">.edgemere.cpl.ta</text><!--
@startuml
  interface CLI
  interface Web
  interface WebSocket
package "Telemetry Aggregator" #lightgray {
  component express as REST
  component socket.io as socket
  folder bin #ffffff {
    component " edgemere cpl ta" as binName
  }
  binName - -> REST

  folder deploy #ffffff {
      file "node server.js\ndocker-compose.yml" as cpl_ta_container
      REST - -> cpl_ta_container

  
    file "node web/server.js" as web_container
    REST - -> web_container
    socket - - -> web_container
  
  }
  folder images #ffffff {
    collections "cpl_ta" as cpl_taimage
    artifact "ailtire:swarm" as ailtireswarm
    cpl_taimage <|- - ailtireswarm
    cpl_ta_container - -> cpl_taimage

  
      artifact cpl_ta_web
      web_container - -> cpl_ta_web
    
  }
}
CLI " edgemere cpl ta" - - binName
Web "/edgemere/cpl/ta" - REST
WebSocket ".edgemere.cpl.ta" - - socket

@enduml

PlantUML version 1.2019.05(Sat Apr 20 09:45:36 PDT 2019)
(GPL source distribution)
Java Runtime: OpenJDK Runtime Environment
JVM: OpenJDK 64-Bit Server VM
Java Version: 12.0.1+12
Operating System: Windows 10
OS Version: 10.0
Default Encoding: Cp1252
Language: en
Country: US
--></g></svg>