<?xml version="1.0" encoding="UTF-8" standalone="no"?><svg xmlns="http://www.w3.org/2000/svg" xmlns:xlink="http://www.w3.org/1999/xlink" contentScriptType="application/ecmascript" contentStyleType="text/css" height="261px" preserveAspectRatio="none" style="width:334px;height:261px;" version="1.1" viewBox="0 0 334 261" width="334px" zoomAndPan="magnify"><defs><filter height="300%" id="fmlj1cuzqce1u" width="300%" x="-1" y="-1"><feGaussianBlur result="blurOut" stdDeviation="2.0"/><feColorMatrix in="blurOut" result="blurOut2" type="matrix" values="0 0 0 0 0 0 0 0 0 0 0 0 0 0 0 0 0 0 .4 0"/><feOffset dx="4.0" dy="4.0" in="blurOut2" result="blurOut3"/><feBlend in="SourceGraphic" in2="blurOut3" mode="normal"/></filter></defs><g><!--cluster Provision Engine--><polygon fill="#90EE90" filter="url(#fmlj1cuzqce1u)" points="119,42,245,42,252,65.6094,312,65.6094,312,158,119,158,119,42" style="stroke: #000000; stroke-width: 1.5;"/><line style="stroke: #000000; stroke-width: 1.5;" x1="119" x2="252" y1="65.6094" y2="65.6094"/><text fill="#000000" font-family="sans-serif" font-size="14" font-weight="bold" lengthAdjust="spacingAndGlyphs" textLength="120" x="123" y="58.5332">Provision Engine</text><polygon fill="#FFFFE0" filter="url(#fmlj1cuzqce1u)" points="6,194,234,194,241,217.6094,248,217.6094,248,249.2188,6,249.2188,6,194" style="stroke: #000000; stroke-width: 1.5;"/><line style="stroke: #000000; stroke-width: 1.5;" x1="6" x2="241" y1="217.6094" y2="217.6094"/><text fill="#000000" font-family="sans-serif" font-size="14" font-weight="bold" lengthAdjust="spacingAndGlyphs" textLength="222" x="10" y="210.5332">Software Defined Infrastructure</text><!--class i--><rect fill="#FEFECE" filter="url(#fmlj1cuzqce1u)" height="48" id="i" style="stroke: #A80036; stroke-width: 1.5;" width="125" x="162.5" y="86"/><ellipse cx="177.5" cy="102" fill="#B4A7E5" rx="11" ry="11" style="stroke: #A80036; stroke-width: 1.0;"/><path d="M178.4531,98.6406 L178.4531,105.2969 L180.1719,105.2969 Q180.7813,105.2969 181.0469,105.5313 Q181.3125,105.7656 181.3125,106.1563 Q181.3125,106.5313 181.0469,106.7656 Q180.7813,107 180.1719,107 L175.0313,107 Q174.4219,107 174.1563,106.7656 Q173.8906,106.5313 173.8906,106.1406 Q173.8906,105.7656 174.1563,105.5313 Q174.4219,105.2969 175.0313,105.2969 L176.75,105.2969 L176.75,98.6406 L175.0313,98.6406 Q174.4219,98.6406 174.1563,98.4063 Q173.8906,98.1719 173.8906,97.7813 Q173.8906,97.4063 174.1563,97.1719 Q174.4219,96.9375 175.0313,96.9375 L180.1719,96.9375 Q180.7813,96.9375 181.0469,97.1719 Q181.3125,97.4063 181.3125,97.7813 Q181.3125,98.1719 181.0469,98.4063 Q180.7813,98.6406 180.1719,98.6406 L178.4531,98.6406 Z "/><text fill="#000000" font-family="sans-serif" font-size="12" font-style="italic" lengthAdjust="spacingAndGlyphs" textLength="93" x="191.5" y="106.9102">Provision Engine</text><line style="stroke: #A80036; stroke-width: 1.5;" x1="163.5" x2="286.5" y1="118" y2="118"/><line style="stroke: #A80036; stroke-width: 1.5;" x1="163.5" x2="286.5" y1="126" y2="126"/><ellipse cx="180" cy="13" fill="#FEFECE" filter="url(#fmlj1cuzqce1u)" rx="5" ry="5" style="stroke: #A80036; stroke-width: 1.5;"/><text fill="#000000" font-family="sans-serif" font-size="12" lengthAdjust="spacingAndGlyphs" textLength="19" x="170.5" y="30.457">CLI</text><ellipse cx="225" cy="13" fill="#FEFECE" filter="url(#fmlj1cuzqce1u)" rx="5" ry="5" style="stroke: #A80036; stroke-width: 1.5;"/><text fill="#000000" font-family="sans-serif" font-size="12" lengthAdjust="spacingAndGlyphs" textLength="32" x="209" y="30.457">REST</text><ellipse cx="270" cy="13" fill="#FEFECE" filter="url(#fmlj1cuzqce1u)" rx="5" ry="5" style="stroke: #A80036; stroke-width: 1.5;"/><text fill="#000000" font-family="sans-serif" font-size="12" lengthAdjust="spacingAndGlyphs" textLength="25" x="257.5" y="30.457">Web</text><!--link ilol10147 to i--><path d="M181.934,18.082 C187.384,29.589 203.182,62.941 214.049,85.882 " fill="none" id="ilol10147-i" style="stroke: #A80036; stroke-width: 1.0;"/><!--link ilol10150 to i--><path d="M225,18.082 C225,29.589 225,62.941 225,85.882 " fill="none" id="ilol10150-i" style="stroke: #A80036; stroke-width: 1.0;"/><!--link ilol10153 to i--><path d="M268.066,18.082 C262.616,29.589 246.818,62.941 235.951,85.882 " fill="none" id="ilol10153-i" style="stroke: #A80036; stroke-width: 1.0;"/><!--link Provision Engine to Software Defined Infrastructure--><path d="M127,158.2243 C127,158.3573 127,158.4903 127,158.6234 C127,159.1558 127,159.689 127,160.223 C127,161.2909 127,162.3617 127,163.4336 C127,172.0093 127,180.6608 127,188.5446 " fill="none" id="Provision Engine-Software Defined Infrastructure" style="stroke: #A80036; stroke-width: 1.0;"/><polygon fill="#A80036" points="127,193.8839,131,184.8839,127,188.8839,123,184.8839,127,193.8839" style="stroke: #A80036; stroke-width: 1.0;"/><!--
@startuml


package "Software Defined Infrastructure" #lightyellow {
    }


package "Provision Engine" #lightgreen {

    interface "Provision Engine" as i {
    
    }
}

CLI ()- - i
REST ()- - i
Web ()- - i

package "Provision Engine" #lightgreen {
    
}


    "Provision Engine" - -> "Software Defined Infrastructure"


@enduml

PlantUML version 1.2019.05(Sat Apr 20 09:45:36 PDT 2019)
(GPL source distribution)
Java Runtime: OpenJDK Runtime Environment
JVM: OpenJDK 64-Bit Server VM
Java Version: 12.0.1+12
Operating System: Windows 10
OS Version: 10.0
Default Encoding: Cp1252
Language: en
Country: US
--></g></svg>