<?xml version="1.0" encoding="UTF-8" standalone="no"?><svg xmlns="http://www.w3.org/2000/svg" xmlns:xlink="http://www.w3.org/1999/xlink" contentScriptType="application/ecmascript" contentStyleType="text/css" height="327px" preserveAspectRatio="none" style="width:508px;height:327px;" version="1.1" viewBox="0 0 508 327" width="508px" zoomAndPan="magnify"><defs><filter height="300%" id="fobyytsjzp76a" width="300%" x="-1" y="-1"><feGaussianBlur result="blurOut" stdDeviation="2.0"/><feColorMatrix in="blurOut" result="blurOut2" type="matrix" values="0 0 0 0 0 0 0 0 0 0 0 0 0 0 0 0 0 0 .4 0"/><feOffset dx="4.0" dy="4.0" in="blurOut2" result="blurOut3"/><feBlend in="SourceGraphic" in2="blurOut3" mode="normal"/></filter></defs><g><rect fill="#FFCC88" height="312.625" style="stroke: #A80036; stroke-width: 1.0;" width="180" x="153" y="4"/><text fill="#000000" font-family="sans-serif" font-size="13" font-weight="bold" lengthAdjust="spacingAndGlyphs" textLength="170" x="156" y="17.4951">Data Definition Framework</text><rect fill="#FFCC88" height="312.625" style="stroke: #A80036; stroke-width: 1.0;" width="162" x="335" y="4"/><text fill="#000000" font-family="sans-serif" font-size="13" font-weight="bold" lengthAdjust="spacingAndGlyphs" textLength="156" x="338" y="17.4951">Data Management Layer</text><line style="stroke: #A80036; stroke-width: 1.0; stroke-dasharray: 5.0,5.0;" x1="27" x2="27" y1="87.6094" y2="229.0156"/><line style="stroke: #A80036; stroke-width: 1.0; stroke-dasharray: 5.0,5.0;" x1="90" x2="90" y1="87.6094" y2="229.0156"/><line style="stroke: #A80036; stroke-width: 1.0; stroke-dasharray: 5.0,5.0;" x1="242.5" x2="242.5" y1="87.6094" y2="229.0156"/><line style="stroke: #A80036; stroke-width: 1.0; stroke-dasharray: 5.0,5.0;" x1="415.5" x2="415.5" y1="87.6094" y2="229.0156"/><text fill="#000000" font-family="sans-serif" font-size="14" lengthAdjust="spacingAndGlyphs" textLength="33" x="8" y="84.5332">Actor</text><ellipse cx="27.5" cy="13" fill="#FEFECE" filter="url(#fobyytsjzp76a)" rx="8" ry="8" style="stroke: #A80036; stroke-width: 2.0;"/><path d="M27.5,21 L27.5,48 M14.5,29 L40.5,29 M27.5,48 L14.5,63 M27.5,48 L40.5,63 " fill="none" filter="url(#fobyytsjzp76a)" style="stroke: #A80036; stroke-width: 2.0;"/><text fill="#000000" font-family="sans-serif" font-size="14" lengthAdjust="spacingAndGlyphs" textLength="33" x="8" y="242.5488">Actor</text><ellipse cx="27.5" cy="255.625" fill="#FEFECE" filter="url(#fobyytsjzp76a)" rx="8" ry="8" style="stroke: #A80036; stroke-width: 2.0;"/><path d="M27.5,263.625 L27.5,290.625 M14.5,271.625 L40.5,271.625 M27.5,290.625 L14.5,305.625 M27.5,290.625 L40.5,305.625 " fill="none" filter="url(#fobyytsjzp76a)" style="stroke: #A80036; stroke-width: 2.0;"/><text fill="#000000" font-family="sans-serif" font-size="14" lengthAdjust="spacingAndGlyphs" textLength="60" x="57" y="84.5332">EventBus</text><ellipse cx="90" cy="54" fill="#FEFECE" filter="url(#fobyytsjzp76a)" rx="12" ry="12" style="stroke: #A80036; stroke-width: 2.0;"/><line style="stroke: #A80036; stroke-width: 2.0;" x1="78" x2="102" y1="68" y2="68"/><text fill="#000000" font-family="sans-serif" font-size="14" lengthAdjust="spacingAndGlyphs" textLength="60" x="57" y="242.5488">EventBus</text><ellipse cx="90" cy="261.625" fill="#FEFECE" filter="url(#fobyytsjzp76a)" rx="12" ry="12" style="stroke: #A80036; stroke-width: 2.0;"/><line style="stroke: #A80036; stroke-width: 2.0;" x1="78" x2="102" y1="275.625" y2="275.625"/><text fill="#000000" font-family="sans-serif" font-size="14" lengthAdjust="spacingAndGlyphs" textLength="20" x="230" y="84.5332">ddf</text><path d="M222.5,42 L222.5,66 M222.5,54 L239.5,54 " fill="none" filter="url(#fobyytsjzp76a)" style="stroke: #A80036; stroke-width: 2.0;"/><ellipse cx="251.5" cy="54" fill="#FFFFFF" filter="url(#fobyytsjzp76a)" rx="12" ry="12" style="stroke: #A80036; stroke-width: 2.0;"/><text fill="#000000" font-family="sans-serif" font-size="14" lengthAdjust="spacingAndGlyphs" textLength="20" x="230" y="242.5488">ddf</text><path d="M222.5,249.625 L222.5,273.625 M222.5,261.625 L239.5,261.625 " fill="none" filter="url(#fobyytsjzp76a)" style="stroke: #A80036; stroke-width: 2.0;"/><ellipse cx="251.5" cy="261.625" fill="#FFFFFF" filter="url(#fobyytsjzp76a)" rx="12" ry="12" style="stroke: #A80036; stroke-width: 2.0;"/><text fill="#000000" font-family="sans-serif" font-size="14" lengthAdjust="spacingAndGlyphs" textLength="22" x="402" y="84.5332">dml</text><path d="M395.5,42 L395.5,66 M395.5,54 L412.5,54 " fill="none" filter="url(#fobyytsjzp76a)" style="stroke: #A80036; stroke-width: 2.0;"/><ellipse cx="424.5" cy="54" fill="#FFFFFF" filter="url(#fobyytsjzp76a)" rx="12" ry="12" style="stroke: #A80036; stroke-width: 2.0;"/><text fill="#000000" font-family="sans-serif" font-size="14" lengthAdjust="spacingAndGlyphs" textLength="22" x="402" y="242.5488">dml</text><path d="M395.5,249.625 L395.5,273.625 M395.5,261.625 L412.5,261.625 " fill="none" filter="url(#fobyytsjzp76a)" style="stroke: #A80036; stroke-width: 2.0;"/><ellipse cx="424.5" cy="261.625" fill="#FFFFFF" filter="url(#fobyytsjzp76a)" rx="12" ry="12" style="stroke: #A80036; stroke-width: 2.0;"/><polygon fill="#A80036" points="231,115.9609,241,119.9609,231,123.9609,235,119.9609" style="stroke: #A80036; stroke-width: 1.0;"/><line style="stroke: #A80036; stroke-width: 1.0;" x1="27.5" x2="237" y1="119.9609" y2="119.9609"/><text fill="#000000" font-family="sans-serif" font-size="13" lengthAdjust="spacingAndGlyphs" textLength="130" x="34.5" y="115.1045">Attach Data Blue Print</text><polygon fill="#A80036" points="404,146.3125,414,150.3125,404,150.3125" style="stroke: #A80036; stroke-width: 1.0;"/><line style="stroke: #A80036; stroke-width: 1.0;" x1="90" x2="415" y1="150.3125" y2="150.3125"/><text fill="#000000" font-family="sans-serif" font-size="13" lengthAdjust="spacingAndGlyphs" textLength="51" x="97" y="145.4561">method()</text><polygon fill="#A80036" points="101,181.6641,91,181.6641,101,185.6641" style="stroke: #A80036; stroke-width: 1.0;"/><line style="stroke: #A80036; stroke-width: 1.0; stroke-dasharray: 2.0,2.0;" x1="90" x2="415" y1="180.6641" y2="180.6641"/><text fill="#000000" font-family="sans-serif" font-size="13" lengthAdjust="spacingAndGlyphs" textLength="78" x="107" y="175.8076">Model.Event2</text><polygon fill="#A80036" points="231,212.0156,241,212.0156,231,216.0156" style="stroke: #A80036; stroke-width: 1.0;"/><line style="stroke: #A80036; stroke-width: 1.0; stroke-dasharray: 2.0,2.0;" x1="90" x2="242" y1="211.0156" y2="211.0156"/><text fill="#000000" font-family="sans-serif" font-size="13" lengthAdjust="spacingAndGlyphs" textLength="58" x="97" y="206.1592">method2()</text><!--
@startuml

actor "Actor"


entity EventBus

box Data Definition Framework #ffcc88
    boundary ddf #white
end box



"Actor" -> ddf: Attach Data Blue Print



box "Data Management Layer" #ffcc88
    boundary dml #white
end box
EventBus -\ dml: method()
dml - -/ EventBus: Model.Event2

EventBus - -/ ddf : method2()
@enduml

PlantUML version 1.2019.05(Sat Apr 20 09:45:36 PDT 2019)
(GPL source distribution)
Java Runtime: OpenJDK Runtime Environment
JVM: OpenJDK 64-Bit Server VM
Java Version: 12.0.1+12
Operating System: Windows 10
OS Version: 10.0
Default Encoding: Cp1252
Language: en
Country: US
--></g></svg>