<?xml version="1.0" encoding="UTF-8" standalone="no"?><svg xmlns="http://www.w3.org/2000/svg" xmlns:xlink="http://www.w3.org/1999/xlink" contentScriptType="application/ecmascript" contentStyleType="text/css" height="327px" preserveAspectRatio="none" style="width:548px;height:327px;" version="1.1" viewBox="0 0 548 327" width="548px" zoomAndPan="magnify"><defs><filter height="300%" id="fv8w2ti2k5azy" width="300%" x="-1" y="-1"><feGaussianBlur result="blurOut" stdDeviation="2.0"/><feColorMatrix in="blurOut" result="blurOut2" type="matrix" values="0 0 0 0 0 0 0 0 0 0 0 0 0 0 0 0 0 0 .4 0"/><feOffset dx="4.0" dy="4.0" in="blurOut2" result="blurOut3"/><feBlend in="SourceGraphic" in2="blurOut3" mode="normal"/></filter></defs><g><rect fill="#FFCC88" height="312.625" style="stroke: #A80036; stroke-width: 1.0;" width="180" x="193.5" y="4"/><text fill="#000000" font-family="sans-serif" font-size="13" font-weight="bold" lengthAdjust="spacingAndGlyphs" textLength="170" x="196.5" y="17.4951">Data Definition Framework</text><rect fill="#FFCC88" height="312.625" style="stroke: #A80036; stroke-width: 1.0;" width="162" x="375.5" y="4"/><text fill="#000000" font-family="sans-serif" font-size="13" font-weight="bold" lengthAdjust="spacingAndGlyphs" textLength="156" x="378.5" y="17.4951">Data Management Layer</text><line style="stroke: #A80036; stroke-width: 1.0; stroke-dasharray: 5.0,5.0;" x1="52" x2="52" y1="87.6094" y2="229.0156"/><line style="stroke: #A80036; stroke-width: 1.0; stroke-dasharray: 5.0,5.0;" x1="140" x2="140" y1="87.6094" y2="229.0156"/><line style="stroke: #A80036; stroke-width: 1.0; stroke-dasharray: 5.0,5.0;" x1="283" x2="283" y1="87.6094" y2="229.0156"/><line style="stroke: #A80036; stroke-width: 1.0; stroke-dasharray: 5.0,5.0;" x1="456" x2="456" y1="87.6094" y2="229.0156"/><text fill="#000000" font-family="sans-serif" font-size="14" lengthAdjust="spacingAndGlyphs" textLength="83" x="8" y="84.5332">DataScientist</text><ellipse cx="52.5" cy="13" fill="#FEFECE" filter="url(#fv8w2ti2k5azy)" rx="8" ry="8" style="stroke: #A80036; stroke-width: 2.0;"/><path d="M52.5,21 L52.5,48 M39.5,29 L65.5,29 M52.5,48 L39.5,63 M52.5,48 L65.5,63 " fill="none" filter="url(#fv8w2ti2k5azy)" style="stroke: #A80036; stroke-width: 2.0;"/><text fill="#000000" font-family="sans-serif" font-size="14" lengthAdjust="spacingAndGlyphs" textLength="83" x="8" y="242.5488">DataScientist</text><ellipse cx="52.5" cy="255.625" fill="#FEFECE" filter="url(#fv8w2ti2k5azy)" rx="8" ry="8" style="stroke: #A80036; stroke-width: 2.0;"/><path d="M52.5,263.625 L52.5,290.625 M39.5,271.625 L65.5,271.625 M52.5,290.625 L39.5,305.625 M52.5,290.625 L65.5,305.625 " fill="none" filter="url(#fv8w2ti2k5azy)" style="stroke: #A80036; stroke-width: 2.0;"/><text fill="#000000" font-family="sans-serif" font-size="14" lengthAdjust="spacingAndGlyphs" textLength="60" x="107" y="84.5332">EventBus</text><ellipse cx="140" cy="54" fill="#FEFECE" filter="url(#fv8w2ti2k5azy)" rx="12" ry="12" style="stroke: #A80036; stroke-width: 2.0;"/><line style="stroke: #A80036; stroke-width: 2.0;" x1="128" x2="152" y1="68" y2="68"/><text fill="#000000" font-family="sans-serif" font-size="14" lengthAdjust="spacingAndGlyphs" textLength="60" x="107" y="242.5488">EventBus</text><ellipse cx="140" cy="261.625" fill="#FEFECE" filter="url(#fv8w2ti2k5azy)" rx="12" ry="12" style="stroke: #A80036; stroke-width: 2.0;"/><line style="stroke: #A80036; stroke-width: 2.0;" x1="128" x2="152" y1="275.625" y2="275.625"/><text fill="#000000" font-family="sans-serif" font-size="14" lengthAdjust="spacingAndGlyphs" textLength="20" x="270.5" y="84.5332">ddf</text><path d="M263,42 L263,66 M263,54 L280,54 " fill="none" filter="url(#fv8w2ti2k5azy)" style="stroke: #A80036; stroke-width: 2.0;"/><ellipse cx="292" cy="54" fill="#FFFFFF" filter="url(#fv8w2ti2k5azy)" rx="12" ry="12" style="stroke: #A80036; stroke-width: 2.0;"/><text fill="#000000" font-family="sans-serif" font-size="14" lengthAdjust="spacingAndGlyphs" textLength="20" x="270.5" y="242.5488">ddf</text><path d="M263,249.625 L263,273.625 M263,261.625 L280,261.625 " fill="none" filter="url(#fv8w2ti2k5azy)" style="stroke: #A80036; stroke-width: 2.0;"/><ellipse cx="292" cy="261.625" fill="#FFFFFF" filter="url(#fv8w2ti2k5azy)" rx="12" ry="12" style="stroke: #A80036; stroke-width: 2.0;"/><text fill="#000000" font-family="sans-serif" font-size="14" lengthAdjust="spacingAndGlyphs" textLength="22" x="442.5" y="84.5332">dml</text><path d="M436,42 L436,66 M436,54 L453,54 " fill="none" filter="url(#fv8w2ti2k5azy)" style="stroke: #A80036; stroke-width: 2.0;"/><ellipse cx="465" cy="54" fill="#FFFFFF" filter="url(#fv8w2ti2k5azy)" rx="12" ry="12" style="stroke: #A80036; stroke-width: 2.0;"/><text fill="#000000" font-family="sans-serif" font-size="14" lengthAdjust="spacingAndGlyphs" textLength="22" x="442.5" y="242.5488">dml</text><path d="M436,249.625 L436,273.625 M436,261.625 L453,261.625 " fill="none" filter="url(#fv8w2ti2k5azy)" style="stroke: #A80036; stroke-width: 2.0;"/><ellipse cx="465" cy="261.625" fill="#FFFFFF" filter="url(#fv8w2ti2k5azy)" rx="12" ry="12" style="stroke: #A80036; stroke-width: 2.0;"/><polygon fill="#A80036" points="271.5,115.9609,281.5,119.9609,271.5,123.9609,275.5,119.9609" style="stroke: #A80036; stroke-width: 1.0;"/><line style="stroke: #A80036; stroke-width: 1.0;" x1="52.5" x2="277.5" y1="119.9609" y2="119.9609"/><text fill="#000000" font-family="sans-serif" font-size="13" lengthAdjust="spacingAndGlyphs" textLength="125" x="59.5" y="115.1045">Manage Data Catalog</text><polygon fill="#A80036" points="444.5,146.3125,454.5,150.3125,444.5,150.3125" style="stroke: #A80036; stroke-width: 1.0;"/><line style="stroke: #A80036; stroke-width: 1.0;" x1="140" x2="455.5" y1="150.3125" y2="150.3125"/><text fill="#000000" font-family="sans-serif" font-size="13" lengthAdjust="spacingAndGlyphs" textLength="51" x="147" y="145.4561">method()</text><polygon fill="#A80036" points="151,181.6641,141,181.6641,151,185.6641" style="stroke: #A80036; stroke-width: 1.0;"/><line style="stroke: #A80036; stroke-width: 1.0; stroke-dasharray: 2.0,2.0;" x1="140" x2="455.5" y1="180.6641" y2="180.6641"/><text fill="#000000" font-family="sans-serif" font-size="13" lengthAdjust="spacingAndGlyphs" textLength="78" x="157" y="175.8076">Model.Event2</text><polygon fill="#A80036" points="271.5,212.0156,281.5,212.0156,271.5,216.0156" style="stroke: #A80036; stroke-width: 1.0;"/><line style="stroke: #A80036; stroke-width: 1.0; stroke-dasharray: 2.0,2.0;" x1="140" x2="282.5" y1="211.0156" y2="211.0156"/><text fill="#000000" font-family="sans-serif" font-size="13" lengthAdjust="spacingAndGlyphs" textLength="58" x="147" y="206.1592">method2()</text><!--
@startuml

actor "DataScientist"


entity EventBus

box Data Definition Framework #ffcc88
    boundary ddf #white
end box



"DataScientist" -> ddf: Manage Data Catalog



box "Data Management Layer" #ffcc88
    boundary dml #white
end box
EventBus -\ dml: method()
dml - -/ EventBus: Model.Event2

EventBus - -/ ddf : method2()
@enduml

PlantUML version 1.2019.05(Sat Apr 20 09:45:36 PDT 2019)
(GPL source distribution)
Java Runtime: OpenJDK Runtime Environment
JVM: OpenJDK 64-Bit Server VM
Java Version: 12.0.1+12
Operating System: Windows 10
OS Version: 10.0
Default Encoding: Cp1252
Language: en
Country: US
--></g></svg>