<?xml version="1.0" encoding="UTF-8" standalone="no"?><svg xmlns="http://www.w3.org/2000/svg" xmlns:xlink="http://www.w3.org/1999/xlink" contentScriptType="application/ecmascript" contentStyleType="text/css" height="261px" preserveAspectRatio="none" style="width:387px;height:261px;" version="1.1" viewBox="0 0 387 261" width="387px" zoomAndPan="magnify"><defs><filter height="300%" id="ftbyee61noces" width="300%" x="-1" y="-1"><feGaussianBlur result="blurOut" stdDeviation="2.0"/><feColorMatrix in="blurOut" result="blurOut2" type="matrix" values="0 0 0 0 0 0 0 0 0 0 0 0 0 0 0 0 0 0 .4 0"/><feOffset dx="4.0" dy="4.0" in="blurOut2" result="blurOut3"/><feBlend in="SourceGraphic" in2="blurOut3" mode="normal"/></filter></defs><g><!--cluster Workflow Services--><polygon fill="#ADD8E6" filter="url(#ftbyee61noces)" points="166,42,303,42,310,65.6094,365,65.6094,365,158,166,158,166,42" style="stroke: #000000; stroke-width: 1.5;"/><line style="stroke: #000000; stroke-width: 1.5;" x1="166" x2="310" y1="65.6094" y2="65.6094"/><text fill="#000000" font-family="sans-serif" font-size="14" font-weight="bold" lengthAdjust="spacingAndGlyphs" textLength="131" x="170" y="58.5332">Workflow Services</text><polygon fill="#ADD8E6" filter="url(#ftbyee61noces)" points="6,194,152,194,159,217.6094,166,217.6094,166,249.2188,6,249.2188,6,194" style="stroke: #000000; stroke-width: 1.5;"/><line style="stroke: #000000; stroke-width: 1.5;" x1="6" x2="159" y1="217.6094" y2="217.6094"/><text fill="#000000" font-family="sans-serif" font-size="14" font-weight="bold" lengthAdjust="spacingAndGlyphs" textLength="140" x="10" y="210.5332">Developer Services</text><polygon fill="#FFC0CB" filter="url(#ftbyee61noces)" points="201,194,311,194,318,217.6094,325,217.6094,325,249.2188,201,249.2188,201,194" style="stroke: #000000; stroke-width: 1.5;"/><line style="stroke: #000000; stroke-width: 1.5;" x1="201" x2="318" y1="217.6094" y2="217.6094"/><text fill="#000000" font-family="sans-serif" font-size="14" font-weight="bold" lengthAdjust="spacingAndGlyphs" textLength="104" x="205" y="210.5332">Identity Aspect</text><!--class i--><rect fill="#FEFECE" filter="url(#ftbyee61noces)" height="48" id="i" style="stroke: #A80036; stroke-width: 1.5;" width="132" x="209" y="86"/><ellipse cx="224" cy="102" fill="#B4A7E5" rx="11" ry="11" style="stroke: #A80036; stroke-width: 1.0;"/><path d="M224.9531,98.6406 L224.9531,105.2969 L226.6719,105.2969 Q227.2813,105.2969 227.5469,105.5313 Q227.8125,105.7656 227.8125,106.1563 Q227.8125,106.5313 227.5469,106.7656 Q227.2813,107 226.6719,107 L221.5313,107 Q220.9219,107 220.6563,106.7656 Q220.3906,106.5313 220.3906,106.1406 Q220.3906,105.7656 220.6563,105.5313 Q220.9219,105.2969 221.5313,105.2969 L223.25,105.2969 L223.25,98.6406 L221.5313,98.6406 Q220.9219,98.6406 220.6563,98.4063 Q220.3906,98.1719 220.3906,97.7813 Q220.3906,97.4063 220.6563,97.1719 Q220.9219,96.9375 221.5313,96.9375 L226.6719,96.9375 Q227.2813,96.9375 227.5469,97.1719 Q227.8125,97.4063 227.8125,97.7813 Q227.8125,98.1719 227.5469,98.4063 Q227.2813,98.6406 226.6719,98.6406 L224.9531,98.6406 Z "/><text fill="#000000" font-family="sans-serif" font-size="12" font-style="italic" lengthAdjust="spacingAndGlyphs" textLength="100" x="238" y="106.9102">Workflow Services</text><line style="stroke: #A80036; stroke-width: 1.5;" x1="210" x2="340" y1="118" y2="118"/><line style="stroke: #A80036; stroke-width: 1.5;" x1="210" x2="340" y1="126" y2="126"/><ellipse cx="230" cy="13" fill="#FEFECE" filter="url(#ftbyee61noces)" rx="5" ry="5" style="stroke: #A80036; stroke-width: 1.5;"/><text fill="#000000" font-family="sans-serif" font-size="12" lengthAdjust="spacingAndGlyphs" textLength="19" x="220.5" y="30.457">CLI</text><ellipse cx="275" cy="13" fill="#FEFECE" filter="url(#ftbyee61noces)" rx="5" ry="5" style="stroke: #A80036; stroke-width: 1.5;"/><text fill="#000000" font-family="sans-serif" font-size="12" lengthAdjust="spacingAndGlyphs" textLength="32" x="259" y="30.457">REST</text><ellipse cx="320" cy="13" fill="#FEFECE" filter="url(#ftbyee61noces)" rx="5" ry="5" style="stroke: #A80036; stroke-width: 1.5;"/><text fill="#000000" font-family="sans-serif" font-size="12" lengthAdjust="spacingAndGlyphs" textLength="25" x="307.5" y="30.457">Web</text><!--link ilol1507 to i--><path d="M231.934,18.082 C237.384,29.589 253.182,62.941 264.049,85.882 " fill="none" id="ilol1507-i" style="stroke: #A80036; stroke-width: 1.0;"/><!--link ilol1510 to i--><path d="M275,18.082 C275,29.589 275,62.941 275,85.882 " fill="none" id="ilol1510-i" style="stroke: #A80036; stroke-width: 1.0;"/><!--link ilol1513 to i--><path d="M318.066,18.082 C312.616,29.589 296.818,62.941 285.951,85.882 " fill="none" id="ilol1513-i" style="stroke: #A80036; stroke-width: 1.0;"/><!--link Workflow Services to Developer Services--><path d="M165.9413,121.0276 C165.875,121.1101 165.8084,121.193 165.7414,121.2763 C165.6075,121.4429 165.4723,121.6112 165.3357,121.7811 C164.7894,122.4609 164.222,123.167 163.6347,123.8977 C162.4602,125.3592 161.2064,126.9193 159.8844,128.5643 C157.2404,131.8543 154.3234,135.484 151.2214,139.3439 C138.8132,154.7835 123.4445,173.9069 110.743,189.7116 " fill="none" id="Workflow Services-Developer Services" style="stroke: #A80036; stroke-width: 1.0;"/><polygon fill="#A80036" points="107.39,193.8839,116.146,189.3748,110.5224,189.9867,109.9105,184.363,107.39,193.8839" style="stroke: #A80036; stroke-width: 1.0;"/><!--link Workflow Services to Identity Aspect--><path d="M184.1777,158.0703 C184.2651,158.28 184.3532,158.4895 184.4421,158.6987 C184.6199,159.1171 184.8006,159.5343 184.9844,159.9502 C185.7195,161.6137 186.5033,163.2554 187.339,164.8629 C189.0102,168.078 190.8888,171.1566 193,174 C197.523,180.0912 203.096,185.6265 209.107,190.5803 " fill="none" id="Workflow Services-Identity Aspect" style="stroke: #A80036; stroke-width: 1.0;"/><polygon fill="#A80036" points="213.331,193.9167,208.749,185.1986,209.4078,190.817,203.7894,191.4758,213.331,193.9167" style="stroke: #A80036; stroke-width: 1.0;"/><!--
@startuml


package "Developer Services" #lightblue {

}

package "Identity Aspect" #pink {

}


package "Workflow Services" #lightblue {

    interface "Workflow Services" as i {
    
    }
}

CLI ()- - i
REST ()- - i
Web ()- - i

package "Workflow Services" #lightblue {


}


    "Workflow Services" - -> "Developer Services"

    "Workflow Services" - -> "Identity Aspect"


@enduml

PlantUML version 1.2019.05(Sat Apr 20 09:45:36 PDT 2019)
(GPL source distribution)
Java Runtime: OpenJDK Runtime Environment
JVM: OpenJDK 64-Bit Server VM
Java Version: 12.0.1+12
Operating System: Windows 10
OS Version: 10.0
Default Encoding: Cp1252
Language: en
Country: US
--></g></svg>