<?xml version="1.0" encoding="UTF-8" standalone="no"?><svg xmlns="http://www.w3.org/2000/svg" xmlns:xlink="http://www.w3.org/1999/xlink" contentScriptType="application/ecmascript" contentStyleType="text/css" height="450px" preserveAspectRatio="none" style="width:1004px;height:450px;" version="1.1" viewBox="0 0 1004 450" width="1004px" zoomAndPan="magnify"><defs><filter height="300%" id="fibb339ymvwn2" width="300%" x="-1" y="-1"><feGaussianBlur result="blurOut" stdDeviation="2.0"/><feColorMatrix in="blurOut" result="blurOut2" type="matrix" values="0 0 0 0 0 0 0 0 0 0 0 0 0 0 0 0 0 0 .4 0"/><feOffset dx="4.0" dy="4.0" in="blurOut2" result="blurOut3"/><feBlend in="SourceGraphic" in2="blurOut3" mode="normal"/></filter></defs><g><!--entity PhysicalProfile--><rect fill="#ADD8E6" filter="url(#fibb339ymvwn2)" height="37.6094" style="stroke: #000000; stroke-width: 1.5;" width="112" x="788" y="402"/><text fill="#000000" font-family="sans-serif" font-size="14" lengthAdjust="spacingAndGlyphs" textLength="92" x="798" y="426.5332">PhysicalProfile</text><!--entity Hardware--><rect fill="#90EE90" filter="url(#fibb339ymvwn2)" height="37.6094" style="stroke: #000000; stroke-width: 1.5;" width="80" x="325" y="402"/><text fill="#000000" font-family="sans-serif" font-size="14" lengthAdjust="spacingAndGlyphs" textLength="60" x="335" y="426.5332">Hardware</text><!--entity DataCenter--><rect fill="#90EE90" filter="url(#fibb339ymvwn2)" height="37.6094" style="stroke: #000000; stroke-width: 1.5;" width="93" x="465.5" y="402"/><text fill="#000000" font-family="sans-serif" font-size="14" lengthAdjust="spacingAndGlyphs" textLength="73" x="475.5" y="426.5332">DataCenter</text><!--entity AggregatedDevice--><rect fill="#90EE90" filter="url(#fibb339ymvwn2)" height="37.6094" style="stroke: #000000; stroke-width: 1.5;" width="137" x="613.5" y="402"/><text fill="#000000" font-family="sans-serif" font-size="14" lengthAdjust="spacingAndGlyphs" textLength="117" x="623.5" y="426.5332">AggregatedDevice</text><!--entity AcceleratorHardware--><rect fill="#90EE90" filter="url(#fibb339ymvwn2)" height="37.6094" style="stroke: #000000; stroke-width: 1.5;" width="152" x="6" y="8"/><text fill="#000000" font-family="sans-serif" font-size="14" lengthAdjust="spacingAndGlyphs" textLength="132" x="16" y="32.5332">AcceleratorHardware</text><!--entity ComputeHardware--><rect fill="#90EE90" filter="url(#fibb339ymvwn2)" height="37.6094" style="stroke: #000000; stroke-width: 1.5;" width="137" x="193.5" y="8"/><text fill="#000000" font-family="sans-serif" font-size="14" lengthAdjust="spacingAndGlyphs" textLength="117" x="203.5" y="32.5332">ComputeHardware</text><!--entity NetworkHardware--><rect fill="#90EE90" filter="url(#fibb339ymvwn2)" height="37.6094" style="stroke: #000000; stroke-width: 1.5;" width="130" x="366" y="8"/><text fill="#000000" font-family="sans-serif" font-size="14" lengthAdjust="spacingAndGlyphs" textLength="110" x="376" y="32.5332">NetworkHardware</text><!--entity StorageHardware--><rect fill="#90EE90" filter="url(#fibb339ymvwn2)" height="37.6094" style="stroke: #000000; stroke-width: 1.5;" width="130" x="531" y="8"/><text fill="#000000" font-family="sans-serif" font-size="14" lengthAdjust="spacingAndGlyphs" textLength="110" x="541" y="32.5332">StorageHardware</text><!--entity Cloud--><rect fill="#90EE90" filter="url(#fibb339ymvwn2)" height="37.6094" style="stroke: #000000; stroke-width: 1.5;" width="57" x="696.5" y="8"/><text fill="#000000" font-family="sans-serif" font-size="14" lengthAdjust="spacingAndGlyphs" textLength="37" x="706.5" y="32.5332">Cloud</text><!--entity Request--><rect fill="#90EE90" filter="url(#fibb339ymvwn2)" height="37.6094" style="stroke: #000000; stroke-width: 1.5;" width="73" x="788.5" y="8"/><text fill="#000000" font-family="sans-serif" font-size="14" lengthAdjust="spacingAndGlyphs" textLength="53" x="798.5" y="32.5332">Request</text><!--entity Reservation--><rect fill="#90EE90" filter="url(#fibb339ymvwn2)" height="37.6094" style="stroke: #000000; stroke-width: 1.5;" width="96" x="897" y="8"/><text fill="#000000" font-family="sans-serif" font-size="14" lengthAdjust="spacingAndGlyphs" textLength="76" x="907" y="32.5332">Reservation</text><!--class Model--><rect fill="#FEFECE" filter="url(#fibb339ymvwn2)" height="200.1953" id="Model" style="stroke: #A80036; stroke-width: 1.5;" width="99" x="546.5" y="124"/><ellipse cx="575" cy="140" fill="#ADD1B2" rx="11" ry="11" style="stroke: #A80036; stroke-width: 1.0;"/><path d="M577.7656,135.875 Q577.9219,135.6563 578.1094,135.5469 Q578.2969,135.4375 578.5156,135.4375 Q578.8906,135.4375 579.125,135.7031 Q579.3594,135.9531 579.3594,136.5625 L579.3594,138.0156 Q579.3594,138.625 579.125,138.8906 Q578.8906,139.1563 578.5156,139.1563 Q578.1719,139.1563 577.9688,138.9531 Q577.7656,138.7656 577.6563,138.25 Q577.6094,137.8906 577.4219,137.7031 Q577.0938,137.3281 576.4844,137.1094 Q575.875,136.8906 575.25,136.8906 Q574.4844,136.8906 573.8438,137.2188 Q573.2188,137.5469 572.7188,138.2969 Q572.2344,139.0469 572.2344,140.0781 L572.2344,141.1719 Q572.2344,142.4063 573.125,143.2344 Q574.0156,144.0469 575.6094,144.0469 Q576.5469,144.0469 577.2031,143.7969 Q577.5938,143.6406 578.0156,143.2031 Q578.2813,142.9375 578.4219,142.8594 Q578.5781,142.7813 578.7813,142.7813 Q579.1094,142.7813 579.3594,143.0469 Q579.625,143.2969 579.625,143.6406 Q579.625,143.9844 579.2813,144.3906 Q578.7813,144.9688 577.9844,145.2969 Q576.9063,145.75 575.6094,145.75 Q574.0938,145.75 572.8906,145.125 Q571.9063,144.625 571.2188,143.5625 Q570.5313,142.4844 570.5313,141.2031 L570.5313,140.0469 Q570.5313,138.7188 571.1406,137.5781 Q571.7656,136.4219 572.8594,135.8125 Q573.9531,135.1875 575.1875,135.1875 Q575.9219,135.1875 576.5625,135.3594 Q577.2188,135.5156 577.7656,135.875 Z "/><text fill="#000000" font-family="sans-serif" font-size="12" lengthAdjust="spacingAndGlyphs" textLength="37" x="592" y="144.9102">Device</text><line style="stroke: #A80036; stroke-width: 1.5;" x1="547.5" x2="644.5" y1="156" y2="156"/><text fill="#000000" font-family="sans-serif" font-size="11" lengthAdjust="spacingAndGlyphs" textLength="56" x="552.5" y="171.4189">string name</text><text fill="#000000" font-family="sans-serif" font-size="11" lengthAdjust="spacingAndGlyphs" textLength="62" x="552.5" y="185.2549">string ename</text><text fill="#000000" font-family="sans-serif" font-size="11" lengthAdjust="spacingAndGlyphs" textLength="77" x="552.5" y="199.0908">string hostname</text><text fill="#000000" font-family="sans-serif" font-size="11" lengthAdjust="spacingAndGlyphs" textLength="51" x="552.5" y="212.9268">string type</text><line style="stroke: #A80036; stroke-width: 1.5;" x1="547.5" x2="644.5" y1="219.3438" y2="219.3438"/><text fill="#000000" font-family="sans-serif" font-size="11" lengthAdjust="spacingAndGlyphs" textLength="87" x="552.5" y="234.7627">addToHardware()</text><text fill="#000000" font-family="sans-serif" font-size="11" lengthAdjust="spacingAndGlyphs" textLength="39" x="552.5" y="248.5986">create()</text><text fill="#000000" font-family="sans-serif" font-size="11" lengthAdjust="spacingAndGlyphs" textLength="42" x="552.5" y="262.4346">disable()</text><text fill="#000000" font-family="sans-serif" font-size="11" lengthAdjust="spacingAndGlyphs" textLength="40" x="552.5" y="276.2705">enable()</text><text fill="#000000" font-family="sans-serif" font-size="11" lengthAdjust="spacingAndGlyphs" textLength="87" x="552.5" y="290.1064">getReservations()</text><text fill="#000000" font-family="sans-serif" font-size="11" lengthAdjust="spacingAndGlyphs" textLength="52" x="552.5" y="303.9424">provision()</text><text fill="#000000" font-family="sans-serif" font-size="11" lengthAdjust="spacingAndGlyphs" textLength="46" x="552.5" y="317.7783">reserve()</text><!--link Model to PhysicalProfile--><path d="M655.866,271.613 C687.226,296.08 726.24,326.592 761,354 C777.403,366.9333 795.57,381.3668 810.715,393.4303 " fill="none" id="Model-PhysicalProfile" style="stroke: #A80036; stroke-width: 1.0;"/><polygon fill="#A80036" points="821.141,401.7402,816.5963,393.0026,817.2311,398.6237,811.6099,399.2585,821.141,401.7402" style="stroke: #A80036; stroke-width: 1.0;"/><line style="stroke: #A80036; stroke-width: 1.0;" x1="817.2311" x2="810.975" y1="398.6237" y2="393.6373"/><polygon fill="#FFFFFF" points="645.541,263.561,647.8122,270.4051,655.0033,270.941,652.7322,264.0969,645.541,263.561" style="stroke: #A80036; stroke-width: 1.0;"/><text fill="#000000" font-family="sans-serif" font-size="13" lengthAdjust="spacingAndGlyphs" textLength="34" x="783" y="368.4951">profile</text><text fill="#000000" font-family="sans-serif" font-size="13" lengthAdjust="spacingAndGlyphs" textLength="7" x="806.0686" y="391.0007">1</text><!--link Model to Hardware--><path d="M533.498,234.261 C467.071,247.803 365.24,280.002 318,354 C309.638,367.098 317.245,381.1817 328.596,392.9614 " fill="none" id="Model-Hardware" style="stroke: #A80036; stroke-width: 1.0;"/><polygon fill="#A80036" points="338.268,401.8517,334.3494,392.816,334.5871,398.4678,328.9352,398.7055,338.268,401.8517" style="stroke: #A80036; stroke-width: 1.0;"/><line style="stroke: #A80036; stroke-width: 1.0;" x1="334.5871" x2="328.6965" y1="398.4678" y2="393.0543"/><polygon fill="#A80036" points="546.285,231.795,539.6358,229.0042,534.5023,234.0685,541.1515,236.8593,546.285,231.795" style="stroke: #A80036; stroke-width: 1.0;"/><text fill="#000000" font-family="sans-serif" font-size="13" lengthAdjust="spacingAndGlyphs" textLength="52" x="319" y="368.4951">hardware</text><text fill="#000000" font-family="sans-serif" font-size="13" lengthAdjust="spacingAndGlyphs" textLength="7" x="322.0094" y="391.1463">n</text><!--link Hardware to Model--><path d="M396.266,393.0608 C410.23,381.0659 426.907,366.7892 442,354 C472.926,327.794 507.514,298.794 536.064,274.938 " fill="none" id="Hardware-Model" style="stroke: #A80036; stroke-width: 1.0;"/><polygon fill="#A80036" points="546.291,266.396,536.819,269.0945,542.4532,269.6009,541.9468,275.235,546.291,266.396" style="stroke: #A80036; stroke-width: 1.0;"/><line style="stroke: #A80036; stroke-width: 1.0;" x1="542.4532" x2="536.3135" y1="269.6009" y2="274.7295"/><polygon fill="#FFFFFF" points="386.189,401.7261,393.3463,400.8472,395.2879,393.9024,388.1305,394.7813,386.189,401.7261" style="stroke: #A80036; stroke-width: 1.0;"/><text fill="#000000" font-family="sans-serif" font-size="13" lengthAdjust="spacingAndGlyphs" textLength="36" x="443" y="368.4951">device</text><text fill="#000000" font-family="sans-serif" font-size="13" lengthAdjust="spacingAndGlyphs" textLength="7" x="531.4759" y="268.9545">1</text><!--link Model to DataCenter--><path d="M537.338,279.291 C518.455,300.542 499.872,326.437 490,354 C485.798,365.7315 488.557,378.7269 493.347,390.0619 " fill="none" id="Model-DataCenter" style="stroke: #A80036; stroke-width: 1.0;"/><polygon fill="#A80036" points="499.357,401.9983,498.8824,392.1609,497.1085,397.5324,491.737,395.7585,499.357,401.9983" style="stroke: #A80036; stroke-width: 1.0;"/><line style="stroke: #A80036; stroke-width: 1.0;" x1="497.1085" x2="493.511" y1="397.5324" y2="390.387"/><polygon fill="#FFFFFF" points="546.299,269.555,539.2927,271.2614,538.1731,278.3851,545.1794,276.6787,546.299,269.555" style="stroke: #A80036; stroke-width: 1.0;"/><text fill="#000000" font-family="sans-serif" font-size="13" lengthAdjust="spacingAndGlyphs" textLength="61" x="491" y="368.4951">datacenter</text><text fill="#000000" font-family="sans-serif" font-size="13" lengthAdjust="spacingAndGlyphs" textLength="7" x="487.2114" y="391.0049">1</text><!--link DataCenter to Model--><path d="M542.498,392.0017 C547.933,385.8411 553.097,379.0399 557,372 C563.145,360.9158 568.357,348.8203 572.77,336.482 " fill="none" id="DataCenter-Model" style="stroke: #A80036; stroke-width: 1.0;"/><polygon fill="#A80036" points="576.921,324.092,570.2691,331.3551,575.3326,328.833,577.8547,333.8965,576.921,324.092" style="stroke: #A80036; stroke-width: 1.0;"/><line style="stroke: #A80036; stroke-width: 1.0;" x1="575.3326" x2="572.7915" y1="328.833" y2="336.4185"/><polygon fill="#A80036" points="533.27,401.6936,540.3043,400.1067,541.545,393.0032,534.5107,394.59,533.27,401.6936" style="stroke: #A80036; stroke-width: 1.0;"/><text fill="#000000" font-family="sans-serif" font-size="13" lengthAdjust="spacingAndGlyphs" textLength="43" x="566" y="368.4951">devices</text><text fill="#000000" font-family="sans-serif" font-size="13" lengthAdjust="spacingAndGlyphs" textLength="7" x="568.2629" y="345.5309">n</text><!--link Model to AggregatedDevice--><path d="M645.116,336.368 C653.793,356.0425 662.131,374.948 668.677,389.7913 " fill="none" id="Model-AggregatedDevice" style="stroke: #A80036; stroke-width: 1.0;"/><polygon fill="#A80036" points="673.932,401.7069,673.9605,391.8581,671.9145,397.132,666.6406,395.086,673.932,401.7069" style="stroke: #A80036; stroke-width: 1.0;"/><line style="stroke: #A80036; stroke-width: 1.0;" x1="671.9145" x2="668.6865" y1="397.132" y2="389.8124"/><polygon fill="#FFFFFF" points="639.756,324.214,638.5173,331.3179,644.5983,335.1936,645.837,328.0897,639.756,324.214" style="stroke: #A80036; stroke-width: 1.0;"/><text fill="#000000" font-family="sans-serif" font-size="13" lengthAdjust="spacingAndGlyphs" textLength="36" x="660" y="368.4951">parent</text><text fill="#000000" font-family="sans-serif" font-size="13" lengthAdjust="spacingAndGlyphs" textLength="7" x="663.5339" y="391.2937">1</text><!--link AggregatedDevice to Model--><path d="M701.349,390.2123 C706.38,378.8515 709.318,365.7994 705,354 C694.559,325.466 674.71,298.895 654.781,277.373 " fill="none" id="AggregatedDevice-Model" style="stroke: #A80036; stroke-width: 1.0;"/><polygon fill="#A80036" points="645.652,267.851,648.9932,277.1158,649.1123,271.4602,654.7679,271.5793,645.652,267.851" style="stroke: #A80036; stroke-width: 1.0;"/><line style="stroke: #A80036; stroke-width: 1.0;" x1="649.1123" x2="654.6485" y1="271.4602" y2="277.235"/><polygon fill="#A80036" points="695.313,401.7371,701.6402,398.2778,700.8804,391.1068,694.5533,394.5661,695.313,401.7371" style="stroke: #A80036; stroke-width: 1.0;"/><text fill="#000000" font-family="sans-serif" font-size="13" lengthAdjust="spacingAndGlyphs" textLength="43" x="709" y="368.4951">devices</text><text fill="#000000" font-family="sans-serif" font-size="13" lengthAdjust="spacingAndGlyphs" textLength="7" x="653.4587" y="270.6232">n</text><!--link AcceleratorHardware to Model--><path d="M142.159,50.823 C240.435,88.107 434.413,161.697 533.92,199.448 " fill="none" id="AcceleratorHardware-Model" style="stroke: #A80036; stroke-width: 1.0;"/><polygon fill="#A80036" points="546.155,204.09,539.159,197.1578,541.4801,202.3165,536.3214,204.6376,546.155,204.09" style="stroke: #A80036; stroke-width: 1.0;"/><line style="stroke: #A80036; stroke-width: 1.0;" x1="541.4801" x2="534" y1="202.3165" y2="199.4785"/><polygon fill="#FFFFFF" points="129.894,46.17,134.0849,52.0383,141.1136,50.4268,136.9227,44.5585,129.894,46.17" style="stroke: #A80036; stroke-width: 1.0;"/><text fill="#000000" font-family="sans-serif" font-size="13" lengthAdjust="spacingAndGlyphs" textLength="36" x="250" y="90.4951">device</text><text fill="#000000" font-family="sans-serif" font-size="13" lengthAdjust="spacingAndGlyphs" textLength="7" x="531.6534" y="197.6713">1</text><!--link ComputeHardware to Model--><path d="M304.379,52.742 C362.644,86.759 467.855,148.185 534.701,187.211 " fill="none" id="ComputeHardware-Model" style="stroke: #A80036; stroke-width: 1.0;"/><polygon fill="#A80036" points="546.308,193.988,540.5522,185.9961,541.99,191.4672,536.5189,192.9049,546.308,193.988" style="stroke: #A80036; stroke-width: 1.0;"/><line style="stroke: #A80036; stroke-width: 1.0;" x1="541.99" x2="535.081" y1="191.4672" y2="187.4335"/><polygon fill="#FFFFFF" points="293.122,46.17,296.287,52.6494,303.4853,52.22,300.3203,45.7406,293.122,46.17" style="stroke: #A80036; stroke-width: 1.0;"/><text fill="#000000" font-family="sans-serif" font-size="13" lengthAdjust="spacingAndGlyphs" textLength="36" x="372" y="90.4951">device</text><text fill="#000000" font-family="sans-serif" font-size="13" lengthAdjust="spacingAndGlyphs" textLength="7" x="531.4954" y="185.9116">1</text><!--link NetworkHardware to Model--><path d="M454.955,56.31 C476.55,81.832 509.187,120.403 537.629,154.016 " fill="none" id="NetworkHardware-Model" style="stroke: #A80036; stroke-width: 1.0;"/><polygon fill="#A80036" points="546.304,164.268,543.5442,154.8137,543.0744,160.451,537.4371,159.9811,546.304,164.268" style="stroke: #A80036; stroke-width: 1.0;"/><line style="stroke: #A80036; stroke-width: 1.0;" x1="543.0744" x2="537.9065" y1="160.451" y2="154.344"/><polygon fill="#FFFFFF" points="446.523,46.345,447.3455,53.509,454.2748,55.5052,453.4523,48.3412,446.523,46.345" style="stroke: #A80036; stroke-width: 1.0;"/><text fill="#000000" font-family="sans-serif" font-size="13" lengthAdjust="spacingAndGlyphs" textLength="36" x="486" y="90.4951">device</text><text fill="#000000" font-family="sans-serif" font-size="13" lengthAdjust="spacingAndGlyphs" textLength="7" x="531.4908" y="151.8265">1</text><!--link StorageHardware to Model--><path d="M596,59.519 C596,73.876 596,91.83 596,110.536 " fill="none" id="StorageHardware-Model" style="stroke: #A80036; stroke-width: 1.0;"/><polygon fill="#A80036" points="596,123.572,600,114.572,596,118.572,592,114.572,596,123.572" style="stroke: #A80036; stroke-width: 1.0;"/><line style="stroke: #A80036; stroke-width: 1.0;" x1="596" x2="596" y1="118.572" y2="110.572"/><polygon fill="#FFFFFF" points="596,46.345,592,52.345,596,58.345,600,52.345,596,46.345" style="stroke: #A80036; stroke-width: 1.0;"/><text fill="#000000" font-family="sans-serif" font-size="13" lengthAdjust="spacingAndGlyphs" textLength="36" x="597" y="90.4951">device</text><text fill="#000000" font-family="sans-serif" font-size="13" lengthAdjust="spacingAndGlyphs" textLength="7" x="588.743" y="113.1102">1</text><!--link Cloud to Model--><path d="M705.491,57.49 C691.493,78.651 671.86,108.328 653.079,136.718 " fill="none" id="Cloud-Model" style="stroke: #A80036; stroke-width: 1.0;"/><polygon fill="#A80036" points="645.659,147.934,653.9607,142.6347,648.4176,143.7639,647.2885,138.2209,645.659,147.934" style="stroke: #A80036; stroke-width: 1.0;"/><line style="stroke: #A80036; stroke-width: 1.0;" x1="648.4176" x2="652.832" y1="143.7639" y2="137.0915"/><polygon fill="#FFFFFF" points="712.864,46.345,706.2174,49.1418,706.2426,56.3529,712.8893,53.5561,712.864,46.345" style="stroke: #A80036; stroke-width: 1.0;"/><text fill="#000000" font-family="sans-serif" font-size="13" lengthAdjust="spacingAndGlyphs" textLength="43" x="692" y="90.4951">devices</text><text fill="#000000" font-family="sans-serif" font-size="13" lengthAdjust="spacingAndGlyphs" textLength="7" x="653.4667" y="133.0934">n</text><!--link Request to Model--><path d="M793.433,54.88 C758.024,85.032 699.786,134.624 655.715,172.151 " fill="none" id="Request-Model" style="stroke: #A80036; stroke-width: 1.0;"/><polygon fill="#A80036" points="645.692,180.686,655.1377,177.8969,649.4989,177.4445,649.9513,171.8058,645.692,180.686" style="stroke: #A80036; stroke-width: 1.0;"/><line style="stroke: #A80036; stroke-width: 1.0;" x1="649.4989" x2="655.5895" y1="177.4445" y2="172.258"/><polygon fill="#FFFFFF" points="803.456,46.345,796.2944,47.1887,794.3188,54.1239,801.4804,53.2802,803.456,46.345" style="stroke: #A80036; stroke-width: 1.0;"/><text fill="#000000" font-family="sans-serif" font-size="13" lengthAdjust="spacingAndGlyphs" textLength="43" x="765" y="90.4951">devices</text><text fill="#000000" font-family="sans-serif" font-size="13" lengthAdjust="spacingAndGlyphs" textLength="7" x="653.5046" y="170.6558">n</text><!--link Reservation to Model--><path d="M900.985,52.593 C839.314,87.051 726.937,149.84 657.165,188.825 " fill="none" id="Reservation-Model" style="stroke: #A80036; stroke-width: 1.0;"/><polygon fill="#A80036" points="645.501,195.342,655.3089,194.4446,649.866,192.9034,651.4072,187.4606,645.501,195.342" style="stroke: #A80036; stroke-width: 1.0;"/><line style="stroke: #A80036; stroke-width: 1.0;" x1="649.866" x2="656.85" y1="192.9034" y2="189.001"/><polygon fill="#FFFFFF" points="912.48,46.17,905.2911,45.605,902.0045,52.0236,909.1934,52.5886,912.48,46.17" style="stroke: #A80036; stroke-width: 1.0;"/><text fill="#000000" font-family="sans-serif" font-size="13" lengthAdjust="spacingAndGlyphs" textLength="36" x="853" y="90.4951">device</text><text fill="#000000" font-family="sans-serif" font-size="13" lengthAdjust="spacingAndGlyphs" textLength="7" x="653.6168" y="205.6858">1</text><!--
@startuml

class "Device" as Model {
 string name
 string ename
 string hostname
 string type

 addToHardware()
 create()
 disable()
 enable()
 getReservations()
 provision()
 reserve()
 
}

rectangle "PhysicalProfile" as PhysicalProfile #lightblue {
}

Model o- -> "1" PhysicalProfile : profile


rectangle "Hardware" as Hardware #lightblue {
}

Model *- -> "n" Hardware : hardware


rectangle "DataCenter" as DataCenter #lightblue {
}

Model o- -> "1" DataCenter : datacenter


rectangle "AggregatedDevice" as AggregatedDevice #lightblue {
}

Model o- -> "1" AggregatedDevice : parent




    rectangle "AggregatedDevice" as AggregatedDevice #lightgreen {
    }
    
        AggregatedDevice   *- -> "n" Model : "devices"
    
    rectangle "AcceleratorHardware" as AcceleratorHardware #lightgreen {
    }
    
        AcceleratorHardware   o- -> "1" Model : "device"
    
    rectangle "ComputeHardware" as ComputeHardware #lightgreen {
    }
    
        ComputeHardware   o- -> "1" Model : "device"
    
    rectangle "DataCenter" as DataCenter #lightgreen {
    }
    
        DataCenter   *- -> "n" Model : "devices"
    
    rectangle "Hardware" as Hardware #lightgreen {
    }
    
        Hardware   o- -> "1" Model : "device"
    
    rectangle "NetworkHardware" as NetworkHardware #lightgreen {
    }
    
        NetworkHardware   o- -> "1" Model : "device"
    
    rectangle "StorageHardware" as StorageHardware #lightgreen {
    }
    
        StorageHardware   o- -> "1" Model : "device"
    
    rectangle "Cloud" as Cloud #lightgreen {
    }
    
        Cloud   o- -> "n" Model : "devices"
    
    rectangle "Request" as Request #lightgreen {
    }
    
        Request   o- -> "n" Model : "devices"
    
    rectangle "Reservation" as Reservation #lightgreen {
    }
    
        Reservation   o- -> "1" Model : "device"
    

@enduml

PlantUML version 1.2019.05(Sat Apr 20 09:45:36 PDT 2019)
(GPL source distribution)
Java Runtime: OpenJDK Runtime Environment
JVM: OpenJDK 64-Bit Server VM
Java Version: 12.0.1+12
Operating System: Windows 10
OS Version: 10.0
Default Encoding: Cp1252
Language: en
Country: US
--></g></svg>