<?xml version="1.0" encoding="UTF-8" standalone="no"?><svg xmlns="http://www.w3.org/2000/svg" xmlns:xlink="http://www.w3.org/1999/xlink" contentScriptType="application/ecmascript" contentStyleType="text/css" height="1296px" preserveAspectRatio="none" style="width:535px;height:1296px;" version="1.1" viewBox="0 0 535 1296" width="535px" zoomAndPan="magnify"><defs><filter height="300%" id="f1pb5vqq4zx7da" width="300%" x="-1" y="-1"><feGaussianBlur result="blurOut" stdDeviation="2.0"/><feColorMatrix in="blurOut" result="blurOut2" type="matrix" values="0 0 0 0 0 0 0 0 0 0 0 0 0 0 0 0 0 0 .4 0"/><feOffset dx="4.0" dy="4.0" in="blurOut2" result="blurOut3"/><feBlend in="SourceGraphic" in2="blurOut3" mode="normal"/></filter></defs><g><!--cluster diml--><rect fill="#FFCC88" filter="url(#f1pb5vqq4zx7da)" height="999" rx="12.5" ry="12.5" style="stroke: #A80036; stroke-width: 1.5;" width="501" x="22" y="24"/><rect fill="#FFFFFF" height="965.3906" rx="12.5" ry="12.5" style="stroke: #FFFFFF; stroke-width: 1.0;" width="495" x="25" y="54.6094"/><line style="stroke: #A80036; stroke-width: 1.5;" x1="22" x2="523" y1="51.6094" y2="51.6094"/><text fill="#000000" font-family="sans-serif" font-size="14" lengthAdjust="spacingAndGlyphs" textLength="25" x="260" y="42.5332">diml</text><!--cluster dimldml--><rect fill="#FFCC88" filter="url(#f1pb5vqq4zx7da)" height="931" rx="12.5" ry="12.5" style="stroke: #A80036; stroke-width: 1.5;" width="453" x="46" y="68"/><rect fill="#FFFFFF" height="897.3906" rx="12.5" ry="12.5" style="stroke: #FFFFFF; stroke-width: 1.0;" width="447" x="49" y="98.6094"/><line style="stroke: #A80036; stroke-width: 1.5;" x1="46" x2="499" y1="95.6094" y2="95.6094"/><text fill="#000000" font-family="sans-serif" font-size="14" lengthAdjust="spacingAndGlyphs" textLength="22" x="261.5" y="86.5332">dml</text><!--cluster dimldmldatareference--><rect fill="#FFCC88" filter="url(#f1pb5vqq4zx7da)" height="187" rx="12.5" ry="12.5" style="stroke: #A80036; stroke-width: 1.5;" width="128" x="70" y="112"/><rect fill="#FFFFFF" height="153.3906" rx="12.5" ry="12.5" style="stroke: #FFFFFF; stroke-width: 1.0;" width="122" x="73" y="142.6094"/><line style="stroke: #A80036; stroke-width: 1.5;" x1="70" x2="198" y1="139.6094" y2="139.6094"/><text fill="#000000" font-family="sans-serif" font-size="14" lengthAdjust="spacingAndGlyphs" textLength="96" x="86" y="130.5332">DataReference</text><!--cluster dimldmldo--><rect fill="#ADD8E6" filter="url(#f1pb5vqq4zx7da)" height="170" rx="12.5" ry="12.5" style="stroke: #A80036; stroke-width: 1.5;" width="145" x="330" y="112"/><rect fill="#FFFFFF" height="136.3906" rx="12.5" ry="12.5" style="stroke: #FFFFFF; stroke-width: 1.0;" width="139" x="333" y="142.6094"/><line style="stroke: #A80036; stroke-width: 1.5;" x1="330" x2="475" y1="139.6094" y2="139.6094"/><text fill="#000000" font-family="sans-serif" font-size="14" lengthAdjust="spacingAndGlyphs" textLength="16" x="394.5" y="130.5332">do</text><!--cluster dimldmldodatainstance--><rect fill="#ADD8E6" filter="url(#f1pb5vqq4zx7da)" height="102" rx="12.5" ry="12.5" style="stroke: #A80036; stroke-width: 1.5;" width="97" x="354" y="156"/><rect fill="#FFFFFF" height="68.3906" rx="12.5" ry="12.5" style="stroke: #FFFFFF; stroke-width: 1.0;" width="91" x="357" y="186.6094"/><line style="stroke: #A80036; stroke-width: 1.5;" x1="354" x2="451" y1="183.6094" y2="183.6094"/><text fill="#000000" font-family="sans-serif" font-size="14" lengthAdjust="spacingAndGlyphs" textLength="81" x="362" y="174.5332">datainstance</text><!--cluster sml--><rect fill="#90EE90" filter="url(#f1pb5vqq4zx7da)" height="238" rx="12.5" ry="12.5" style="stroke: #A80036; stroke-width: 1.5;" width="219" x="292.5" y="1047"/><rect fill="#FFFFFF" height="204.3906" rx="12.5" ry="12.5" style="stroke: #FFFFFF; stroke-width: 1.0;" width="213" x="295.5" y="1077.6094"/><line style="stroke: #A80036; stroke-width: 1.5;" x1="292.5" x2="511.5" y1="1074.6094" y2="1074.6094"/><text fill="#000000" font-family="sans-serif" font-size="14" lengthAdjust="spacingAndGlyphs" textLength="21" x="391.5" y="1065.5332">sml</text><!--cluster smlso--><rect fill="#90EE90" filter="url(#f1pb5vqq4zx7da)" height="170" rx="12.5" ry="12.5" style="stroke: #A80036; stroke-width: 1.5;" width="171" x="316.5" y="1091"/><rect fill="#FFFFFF" height="136.3906" rx="12.5" ry="12.5" style="stroke: #FFFFFF; stroke-width: 1.0;" width="165" x="319.5" y="1121.6094"/><line style="stroke: #A80036; stroke-width: 1.5;" x1="316.5" x2="487.5" y1="1118.6094" y2="1118.6094"/><text fill="#000000" font-family="sans-serif" font-size="14" lengthAdjust="spacingAndGlyphs" textLength="15" x="394.5" y="1109.5332">so</text><!--cluster smlsoservicelet--><rect fill="#90EE90" filter="url(#f1pb5vqq4zx7da)" height="102" rx="12.5" ry="12.5" style="stroke: #A80036; stroke-width: 1.5;" width="123" x="340.5" y="1135"/><rect fill="#FFFFFF" height="68.3906" rx="12.5" ry="12.5" style="stroke: #FFFFFF; stroke-width: 1.0;" width="117" x="343.5" y="1165.6094"/><line style="stroke: #A80036; stroke-width: 1.5;" x1="340.5" x2="463.5" y1="1162.6094" y2="1162.6094"/><text fill="#000000" font-family="sans-serif" font-size="14" lengthAdjust="spacingAndGlyphs" textLength="60" x="372" y="1153.5332">servicelet</text><rect fill="#FEFECE" filter="url(#f1pb5vqq4zx7da)" height="50" rx="12.5" ry="12.5" style="stroke: #A80036; stroke-width: 1.5;" width="127" x="70.5" y="318"/><line style="stroke: #A80036; stroke-width: 1.5;" x1="70.5" x2="197.5" y1="345.6094" y2="345.6094"/><text fill="#000000" font-family="sans-serif" font-size="14" lengthAdjust="spacingAndGlyphs" textLength="107" x="80.5" y="337.5332">Custom Function</text><rect fill="#FFCC88" filter="url(#f1pb5vqq4zx7da)" height="297.6094" rx="12.5" ry="12.5" style="stroke: #A80036; stroke-width: 1.5;" width="143" x="62.5" y="403"/><rect fill="#FFFFFF" height="264" rx="12.5" ry="12.5" style="stroke: #FFFFFF; stroke-width: 1.0;" width="137" x="65.5" y="433.6094"/><line style="stroke: #A80036; stroke-width: 1.5;" x1="62.5" x2="205.5" y1="430.6094" y2="430.6094"/><text fill="#000000" font-family="sans-serif" font-size="14" lengthAdjust="spacingAndGlyphs" textLength="28" x="120" y="422.5332">data</text><rect fill="#FFCC88" filter="url(#f1pb5vqq4zx7da)" height="50" rx="12.5" ry="12.5" style="stroke: #A80036; stroke-width: 1.5;" width="64" x="91" y="635.6094"/><line style="stroke: #A80036; stroke-width: 1.5;" x1="91" x2="155" y1="663.2188" y2="663.2188"/><text fill="#000000" font-family="sans-serif" font-size="14" lengthAdjust="spacingAndGlyphs" textLength="44" x="101" y="655.1426">govern</text><rect fill="#FFCC88" filter="url(#f1pb5vqq4zx7da)" height="173.6094" rx="12.5" ry="12.5" style="stroke: #A80036; stroke-width: 1.5;" width="99" x="73.5" y="443.6094"/><rect fill="#FFFFFF" height="140" rx="12.5" ry="12.5" style="stroke: #FFFFFF; stroke-width: 1.0;" width="93" x="76.5" y="474.2188"/><line style="stroke: #A80036; stroke-width: 1.5;" x1="73.5" x2="172.5" y1="471.2188" y2="471.2188"/><text fill="#000000" font-family="sans-serif" font-size="14" lengthAdjust="spacingAndGlyphs" textLength="43" x="101.5" y="463.1426">source</text><rect fill="#FFCC88" filter="url(#f1pb5vqq4zx7da)" height="50" rx="12.5" ry="12.5" style="stroke: #A80036; stroke-width: 1.5;" width="55" x="84.5" y="552.2188"/><line style="stroke: #A80036; stroke-width: 1.5;" x1="84.5" x2="139.5" y1="579.8281" y2="579.8281"/><text fill="#000000" font-family="sans-serif" font-size="14" lengthAdjust="spacingAndGlyphs" textLength="35" x="94.5" y="571.752">name</text><rect fill="#FFCC88" filter="url(#f1pb5vqq4zx7da)" height="50" rx="12.5" ry="12.5" style="stroke: #A80036; stroke-width: 1.5;" width="50" x="87" y="484.2188"/><line style="stroke: #A80036; stroke-width: 1.5;" x1="87" x2="137" y1="511.8281" y2="511.8281"/><text fill="#000000" font-family="sans-serif" font-size="14" lengthAdjust="spacingAndGlyphs" textLength="17" x="103.5" y="503.752">list</text><rect fill="#FFCC88" filter="url(#f1pb5vqq4zx7da)" height="105.6094" rx="12.5" ry="12.5" style="stroke: #A80036; stroke-width: 1.5;" width="94" x="87" y="736"/><rect fill="#FFFFFF" height="72" rx="12.5" ry="12.5" style="stroke: #FFFFFF; stroke-width: 1.0;" width="88" x="90" y="766.6094"/><line style="stroke: #A80036; stroke-width: 1.5;" x1="87" x2="181" y1="763.6094" y2="763.6094"/><text fill="#000000" font-family="sans-serif" font-size="14" lengthAdjust="spacingAndGlyphs" textLength="64" x="102" y="755.5332">datapolicy</text><rect fill="#FFCC88" filter="url(#f1pb5vqq4zx7da)" height="50" rx="12.5" ry="12.5" style="stroke: #A80036; stroke-width: 1.5;" width="50" x="98" y="776.6094"/><line style="stroke: #A80036; stroke-width: 1.5;" x1="98" x2="148" y1="804.2188" y2="804.2188"/><text fill="#000000" font-family="sans-serif" font-size="14" lengthAdjust="spacingAndGlyphs" textLength="17" x="114.5" y="796.1426">list</text><rect fill="#FFCC88" filter="url(#f1pb5vqq4zx7da)" height="105.6094" rx="12.5" ry="12.5" style="stroke: #A80036; stroke-width: 1.5;" width="99" x="84.5" y="877"/><rect fill="#FFFFFF" height="72" rx="12.5" ry="12.5" style="stroke: #FFFFFF; stroke-width: 1.0;" width="93" x="87.5" y="907.6094"/><line style="stroke: #A80036; stroke-width: 1.5;" x1="84.5" x2="183.5" y1="904.6094" y2="904.6094"/><text fill="#000000" font-family="sans-serif" font-size="14" lengthAdjust="spacingAndGlyphs" textLength="79" x="94.5" y="896.5332">datastrategy</text><rect fill="#FFCC88" filter="url(#f1pb5vqq4zx7da)" height="50" rx="12.5" ry="12.5" style="stroke: #A80036; stroke-width: 1.5;" width="50" x="95.5" y="917.6094"/><line style="stroke: #A80036; stroke-width: 1.5;" x1="95.5" x2="145.5" y1="945.2188" y2="945.2188"/><text fill="#000000" font-family="sans-serif" font-size="14" lengthAdjust="spacingAndGlyphs" textLength="17" x="112" y="937.1426">list</text><rect fill="#FFCC88" filter="url(#f1pb5vqq4zx7da)" height="50" rx="12.5" ry="12.5" style="stroke: #A80036; stroke-width: 1.5;" width="96" x="86" y="148"/><line style="stroke: #A80036; stroke-width: 1.5;" x1="86" x2="182" y1="175.6094" y2="175.6094"/><text fill="#000000" font-family="sans-serif" font-size="14" lengthAdjust="spacingAndGlyphs" textLength="76" x="96" y="167.5332">provisioning</text><rect fill="#FFCC88" filter="url(#f1pb5vqq4zx7da)" height="50" rx="12.5" ry="12.5" style="stroke: #A80036; stroke-width: 1.5;" width="93" x="87.5" y="233"/><line style="stroke: #A80036; stroke-width: 1.5;" x1="87.5" x2="180.5" y1="260.6094" y2="260.6094"/><text fill="#000000" font-family="sans-serif" font-size="14" lengthAdjust="spacingAndGlyphs" textLength="73" x="97.5" y="252.5332">provisioned</text><rect fill="#ADD8E6" filter="url(#f1pb5vqq4zx7da)" height="50" rx="12.5" ry="12.5" style="stroke: #A80036; stroke-width: 1.5;" width="60" x="372" y="192"/><line style="stroke: #A80036; stroke-width: 1.5;" x1="372" x2="432" y1="219.6094" y2="219.6094"/><text fill="#000000" font-family="sans-serif" font-size="14" lengthAdjust="spacingAndGlyphs" textLength="40" x="382" y="211.5332">create</text><rect fill="#90EE90" filter="url(#f1pb5vqq4zx7da)" height="50" rx="12.5" ry="12.5" style="stroke: #A80036; stroke-width: 1.5;" width="91" x="356.5" y="1171"/><line style="stroke: #A80036; stroke-width: 1.5;" x1="356.5" x2="447.5" y1="1198.6094" y2="1198.6094"/><text fill="#000000" font-family="sans-serif" font-size="14" lengthAdjust="spacingAndGlyphs" textLength="71" x="366.5" y="1190.5332">assignData</text><!--link dimldmldatareferenceprovisioning to dimldmldodatainstancecreate--><path d="M182.249,180.82 C235.257,189.58 319.946,203.59 366.883,211.36 " fill="none" id="dimldmldatareferenceprovisioning-dimldmldodatainstancecreate" style="stroke: #A80036; stroke-width: 1.0;"/><polygon fill="#A80036" points="371.86,212.18,363.6355,206.7618,366.9273,211.3622,362.3269,214.6541,371.86,212.18" style="stroke: #A80036; stroke-width: 1.0;"/><!--link dimldmldatareferenceprovisioned to smlsoserviceletassigndata--><path d="M180.571,269.02 C190.136,273.24 199.332,279.04 206,287 C322.637,426.274 384.926,1023.455 398.262,1165.564 " fill="none" id="dimldmldatareferenceprovisioned-smlsoserviceletassigndata" style="stroke: #A80036; stroke-width: 1.0;"/><polygon fill="#A80036" points="398.752,1170.819,401.899,1161.4865,398.2877,1165.8406,393.9336,1162.2293,398.752,1170.819" style="stroke: #A80036; stroke-width: 1.0;"/><!--
@startuml
left to right direction


state "diml" as diml #ffcc88 {
state "dml" as dimldml #ffcc88 {
}
}


state dimldml #ffcc88 {
    state "Custom Function" as dmlfunction {
    }
}

        state "diml" as diml #ffcc88 {
state "dml" as dimldml #ffcc88 {
state "data" as dimldmldata #ffcc88 {
state "govern" as dimldmldatagovern #ffcc88 {
}
}
}
}


        state "diml" as diml #ffcc88 {
state "dml" as dimldml #ffcc88 {
state "data" as dimldmldata #ffcc88 {
state "source" as dimldmldatasource #ffcc88 {
state "name" as dimldmldatasourcename #ffcc88 {
}
}
}
}
}


        state "diml" as diml #ffcc88 {
state "dml" as dimldml #ffcc88 {
state "datapolicy" as dimldmldatapolicy #ffcc88 {
state "list" as dimldmldatapolicylist #ffcc88 {
}
}
}
}


        state "diml" as diml #ffcc88 {
state "dml" as dimldml #ffcc88 {
state "datasource" as dimldmldatasource #ffcc88 {
state "list" as dimldmldatasourcelist #ffcc88 {
}
}
}
}


        state "diml" as diml #ffcc88 {
state "dml" as dimldml #ffcc88 {
state "datastrategy" as dimldmldatastrategy #ffcc88 {
state "list" as dimldmldatastrategylist #ffcc88 {
}
}
}
}





    state "diml" as diml #ffcc88 {
state "dml" as dimldml #ffcc88 {
state "DataReference" as dimldmldatareference #ffcc88 {
state "provisioning" as dimldmldatareferenceprovisioning #ffcc88 {
}
}
}
}

    state "diml" as diml #ffcc88 {
state "dml" as dimldml #ffcc88 {
state "do" as dimldmldo #lightblue {
state "datainstance" as dimldmldodatainstance #lightblue {
state "create" as dimldmldodatainstancecreate #lightblue {
}
}
}
}
}

        dimldmldatareferenceprovisioning - - -> dimldmldodatainstancecreate
       
    state "diml" as diml #ffcc88 {
state "dml" as dimldml #ffcc88 {
state "DataReference" as dimldmldatareference #ffcc88 {
state "provisioned" as dimldmldatareferenceprovisioned #ffcc88 {
}
}
}
}

    state "sml" as sml #lightgreen {
state "so" as smlso #lightgreen {
state "servicelet" as smlsoservicelet #lightgreen {
state "assignData" as smlsoserviceletassigndata #lightgreen {
}
}
}
}

        dimldmldatareferenceprovisioned - - -> smlsoserviceletassigndata
       

@enduml

PlantUML version 1.2019.05(Sat Apr 20 09:45:36 PDT 2019)
(GPL source distribution)
Java Runtime: OpenJDK Runtime Environment
JVM: OpenJDK 64-Bit Server VM
Java Version: 12.0.1+12
Operating System: Windows 10
OS Version: 10.0
Default Encoding: Cp1252
Language: en
Country: US
--></g></svg>