<?xml version="1.0" encoding="UTF-8" standalone="no"?><svg xmlns="http://www.w3.org/2000/svg" xmlns:xlink="http://www.w3.org/1999/xlink" contentScriptType="application/ecmascript" contentStyleType="text/css" height="312px" preserveAspectRatio="none" style="width:124px;height:312px;" version="1.1" viewBox="0 0 124 312" width="124px" zoomAndPan="magnify"><defs><filter height="300%" id="fz2wg3c5olqjy" width="300%" x="-1" y="-1"><feGaussianBlur result="blurOut" stdDeviation="2.0"/><feColorMatrix in="blurOut" result="blurOut2" type="matrix" values="0 0 0 0 0 0 0 0 0 0 0 0 0 0 0 0 0 0 .4 0"/><feOffset dx="4.0" dy="4.0" in="blurOut2" result="blurOut3"/><feBlend in="SourceGraphic" in2="blurOut3" mode="normal"/></filter></defs><g><!--entity ModelName--><rect fill="#ADD8E6" filter="url(#fz2wg3c5olqjy)" height="37.6094" style="stroke: #000000; stroke-width: 1.5;" width="94" x="6" y="264"/><text fill="#000000" font-family="sans-serif" font-size="14" lengthAdjust="spacingAndGlyphs" textLength="74" x="16" y="288.5332">ModelName</text><!--entity Application--><rect fill="#90EE90" filter="url(#fz2wg3c5olqjy)" height="37.6094" style="stroke: #000000; stroke-width: 1.5;" width="89" x="8.5" y="8"/><text fill="#000000" font-family="sans-serif" font-size="14" lengthAdjust="spacingAndGlyphs" textLength="69" x="18.5" y="32.5332">Application</text><!--class Model--><rect fill="#FEFECE" filter="url(#fz2wg3c5olqjy)" height="61.8359" id="Model" style="stroke: #A80036; stroke-width: 1.5;" width="84" x="11" y="124"/><ellipse cx="26" cy="140" fill="#ADD1B2" rx="11" ry="11" style="stroke: #A80036; stroke-width: 1.0;"/><path d="M28.7656,135.875 Q28.9219,135.6563 29.1094,135.5469 Q29.2969,135.4375 29.5156,135.4375 Q29.8906,135.4375 30.125,135.7031 Q30.3594,135.9531 30.3594,136.5625 L30.3594,138.0156 Q30.3594,138.625 30.125,138.8906 Q29.8906,139.1563 29.5156,139.1563 Q29.1719,139.1563 28.9688,138.9531 Q28.7656,138.7656 28.6563,138.25 Q28.6094,137.8906 28.4219,137.7031 Q28.0938,137.3281 27.4844,137.1094 Q26.875,136.8906 26.25,136.8906 Q25.4844,136.8906 24.8438,137.2188 Q24.2188,137.5469 23.7188,138.2969 Q23.2344,139.0469 23.2344,140.0781 L23.2344,141.1719 Q23.2344,142.4063 24.125,143.2344 Q25.0156,144.0469 26.6094,144.0469 Q27.5469,144.0469 28.2031,143.7969 Q28.5938,143.6406 29.0156,143.2031 Q29.2813,142.9375 29.4219,142.8594 Q29.5781,142.7813 29.7813,142.7813 Q30.1094,142.7813 30.3594,143.0469 Q30.625,143.2969 30.625,143.6406 Q30.625,143.9844 30.2813,144.3906 Q29.7813,144.9688 28.9844,145.2969 Q27.9063,145.75 26.6094,145.75 Q25.0938,145.75 23.8906,145.125 Q22.9063,144.625 22.2188,143.5625 Q21.5313,142.4844 21.5313,141.2031 L21.5313,140.0469 Q21.5313,138.7188 22.1406,137.5781 Q22.7656,136.4219 23.8594,135.8125 Q24.9531,135.1875 26.1875,135.1875 Q26.9219,135.1875 27.5625,135.3594 Q28.2188,135.5156 28.7656,135.875 Z "/><text fill="#000000" font-family="sans-serif" font-size="12" lengthAdjust="spacingAndGlyphs" textLength="52" x="40" y="144.9102">Workload</text><line style="stroke: #A80036; stroke-width: 1.5;" x1="12" x2="94" y1="156" y2="156"/><text fill="#000000" font-family="sans-serif" font-size="11" lengthAdjust="spacingAndGlyphs" textLength="52" x="17" y="171.4189">string attr1</text><line style="stroke: #A80036; stroke-width: 1.5;" x1="12" x2="94" y1="177.8359" y2="177.8359"/><!--link Model to ModelName--><path d="M53,199.325 C53,216.1922 53,235.1503 53,250.6534 " fill="none" id="Model-ModelName" style="stroke: #A80036; stroke-width: 1.0;"/><polygon fill="#A80036" points="53,263.7606,57,254.7606,53,258.7606,49,254.7606,53,263.7606" style="stroke: #A80036; stroke-width: 1.0;"/><line style="stroke: #A80036; stroke-width: 1.0;" x1="53" x2="53.0001" y1="258.7606" y2="250.7606"/><polygon fill="#FFFFFF" points="53,186.18,49,192.18,53,198.18,57,192.18,53,186.18" style="stroke: #A80036; stroke-width: 1.0;"/><text fill="#000000" font-family="sans-serif" font-size="13" lengthAdjust="spacingAndGlyphs" textLength="42" x="54" y="230.4951">assoc1</text><text fill="#000000" font-family="sans-serif" font-size="13" lengthAdjust="spacingAndGlyphs" textLength="7" x="44.9281" y="253.0273">1</text><!--link Application to Model--><path d="M53,59.254 C53,74.813 53,93.869 53,110.801 " fill="none" id="Application-Model" style="stroke: #A80036; stroke-width: 1.0;"/><polygon fill="#A80036" points="53,123.817,57,114.817,53,118.817,49,114.817,53,123.817" style="stroke: #A80036; stroke-width: 1.0;"/><line style="stroke: #A80036; stroke-width: 1.0;" x1="53" x2="53.0001" y1="118.817" y2="110.817"/><polygon fill="#FFFFFF" points="53,46.053,49,52.053,53,58.053,57,52.053,53,46.053" style="stroke: #A80036; stroke-width: 1.0;"/><text fill="#000000" font-family="sans-serif" font-size="13" lengthAdjust="spacingAndGlyphs" textLength="58" x="54" y="90.4951">workloads</text><text fill="#000000" font-family="sans-serif" font-size="13" lengthAdjust="spacingAndGlyphs" textLength="7" x="45.2781" y="113.2838">n</text><!--
@startuml

class "Workload" as Model {
 string attr1

 
}

rectangle "ModelName" as ModelName #lightblue {
}

Model o- -> "1" ModelName : assoc1




    rectangle "Application" as Application #lightgreen {
    }
    
        Application   o- -> "n" Model : "workloads"
    

@enduml

PlantUML version 1.2019.05(Sat Apr 20 09:45:36 PDT 2019)
(GPL source distribution)
Java Runtime: OpenJDK Runtime Environment
JVM: OpenJDK 64-Bit Server VM
Java Version: 12.0.1+12
Operating System: Windows 10
OS Version: 10.0
Default Encoding: Cp1252
Language: en
Country: US
--></g></svg>