<?xml version="1.0" encoding="UTF-8" standalone="no"?><svg xmlns="http://www.w3.org/2000/svg" xmlns:xlink="http://www.w3.org/1999/xlink" contentScriptType="application/ecmascript" contentStyleType="text/css" height="381px" preserveAspectRatio="none" style="width:904px;height:381px;" version="1.1" viewBox="0 0 904 381" width="904px" zoomAndPan="magnify"><defs><filter height="300%" id="f17w8vg5vwa72e" width="300%" x="-1" y="-1"><feGaussianBlur result="blurOut" stdDeviation="2.0"/><feColorMatrix in="blurOut" result="blurOut2" type="matrix" values="0 0 0 0 0 0 0 0 0 0 0 0 0 0 0 0 0 0 .4 0"/><feOffset dx="4.0" dy="4.0" in="blurOut2" result="blurOut3"/><feBlend in="SourceGraphic" in2="blurOut3" mode="normal"/></filter></defs><g><!--entity Resource--><rect fill="#ADD8E6" filter="url(#f17w8vg5vwa72e)" height="37.6094" style="stroke: #000000; stroke-width: 1.5;" width="81" x="678.259" y="333"/><text fill="#000000" font-family="sans-serif" font-size="14" lengthAdjust="spacingAndGlyphs" textLength="61" x="688.259" y="357.5332">Resource</text><!--entity Stacklet--><rect fill="#90EE90" filter="url(#f17w8vg5vwa72e)" height="37.6094" style="stroke: #000000; stroke-width: 1.5;" width="70" x="30.7586" y="333"/><text fill="#000000" font-family="sans-serif" font-size="14" lengthAdjust="spacingAndGlyphs" textLength="50" x="40.7586" y="357.5332">Stacklet</text><!--entity ServiceInstance--><rect fill="#90EE90" filter="url(#f17w8vg5vwa72e)" height="37.6094" style="stroke: #000000; stroke-width: 1.5;" width="120" x="160.759" y="333"/><text fill="#000000" font-family="sans-serif" font-size="14" lengthAdjust="spacingAndGlyphs" textLength="100" x="170.759" y="357.5332">ServiceInstance</text><!--entity Service--><rect fill="#90EE90" filter="url(#f17w8vg5vwa72e)" height="37.6094" style="stroke: #000000; stroke-width: 1.5;" width="67" x="386.259" y="333"/><text fill="#000000" font-family="sans-serif" font-size="14" lengthAdjust="spacingAndGlyphs" textLength="47" x="396.259" y="357.5332">Service</text><!--entity Environment--><rect fill="#ADD8E6" filter="url(#f17w8vg5vwa72e)" height="37.6094" style="stroke: #000000; stroke-width: 1.5;" width="99" x="794.259" y="333"/><text fill="#000000" font-family="sans-serif" font-size="14" lengthAdjust="spacingAndGlyphs" textLength="79" x="804.259" y="357.5332">Environment</text><!--entity DataReference--><rect fill="#90EE90" filter="url(#f17w8vg5vwa72e)" height="37.6094" style="stroke: #000000; stroke-width: 1.5;" width="116" x="520.759" y="333"/><text fill="#000000" font-family="sans-serif" font-size="14" lengthAdjust="spacingAndGlyphs" textLength="96" x="530.759" y="357.5332">DataReference</text><!--entity Stack--><rect fill="#90EE90" filter="url(#f17w8vg5vwa72e)" height="37.6094" style="stroke: #000000; stroke-width: 1.5;" width="55" x="275.259" y="8"/><text fill="#000000" font-family="sans-serif" font-size="14" lengthAdjust="spacingAndGlyphs" textLength="35" x="285.259" y="32.5332">Stack</text><!--entity StackletDefinition--><rect fill="#90EE90" filter="url(#f17w8vg5vwa72e)" height="37.6094" style="stroke: #000000; stroke-width: 1.5;" width="129" x="365.259" y="8"/><text fill="#000000" font-family="sans-serif" font-size="14" lengthAdjust="spacingAndGlyphs" textLength="109" x="375.259" y="32.5332">StackletDefinition</text><!--entity StackInstance--><rect fill="#90EE90" filter="url(#f17w8vg5vwa72e)" height="37.6094" style="stroke: #000000; stroke-width: 1.5;" width="108" x="529.759" y="8"/><text fill="#000000" font-family="sans-serif" font-size="14" lengthAdjust="spacingAndGlyphs" textLength="88" x="539.759" y="32.5332">StackInstance</text><!--class Model--><rect fill="#FEFECE" filter="url(#f17w8vg5vwa72e)" height="131.0156" id="Model" style="stroke: #A80036; stroke-width: 1.5;" width="89" x="385.259" y="124"/><ellipse cx="402.059" cy="140" fill="#ADD1B2" rx="11" ry="11" style="stroke: #A80036; stroke-width: 1.0;"/><path d="M404.8246,135.875 Q404.9809,135.6563 405.1684,135.5469 Q405.3559,135.4375 405.5746,135.4375 Q405.9496,135.4375 406.184,135.7031 Q406.4184,135.9531 406.4184,136.5625 L406.4184,138.0156 Q406.4184,138.625 406.184,138.8906 Q405.9496,139.1563 405.5746,139.1563 Q405.2309,139.1563 405.0278,138.9531 Q404.8246,138.7656 404.7153,138.25 Q404.6684,137.8906 404.4809,137.7031 Q404.1528,137.3281 403.5434,137.1094 Q402.934,136.8906 402.309,136.8906 Q401.5434,136.8906 400.9028,137.2188 Q400.2778,137.5469 399.7778,138.2969 Q399.2934,139.0469 399.2934,140.0781 L399.2934,141.1719 Q399.2934,142.4063 400.184,143.2344 Q401.0746,144.0469 402.6684,144.0469 Q403.6059,144.0469 404.2621,143.7969 Q404.6528,143.6406 405.0746,143.2031 Q405.3403,142.9375 405.4809,142.8594 Q405.6371,142.7813 405.8403,142.7813 Q406.1684,142.7813 406.4184,143.0469 Q406.684,143.2969 406.684,143.6406 Q406.684,143.9844 406.3403,144.3906 Q405.8403,144.9688 405.0434,145.2969 Q403.9653,145.75 402.6684,145.75 Q401.1528,145.75 399.9496,145.125 Q398.9653,144.625 398.2778,143.5625 Q397.5903,142.4844 397.5903,141.2031 L397.5903,140.0469 Q397.5903,138.7188 398.1996,137.5781 Q398.8246,136.4219 399.9184,135.8125 Q401.0121,135.1875 402.2465,135.1875 Q402.9809,135.1875 403.6215,135.3594 Q404.2778,135.5156 404.8246,135.875 Z "/><text fill="#000000" font-family="sans-serif" font-size="12" lengthAdjust="spacingAndGlyphs" textLength="53" x="416.459" y="144.9102">Servicelet</text><line style="stroke: #A80036; stroke-width: 1.5;" x1="386.259" x2="473.259" y1="156" y2="156"/><text fill="#000000" font-family="sans-serif" font-size="11" lengthAdjust="spacingAndGlyphs" textLength="56" x="391.259" y="171.4189">string name</text><text fill="#000000" font-family="sans-serif" font-size="11" lengthAdjust="spacingAndGlyphs" textLength="45" x="391.259" y="185.2549">json args</text><text fill="#000000" font-family="sans-serif" font-size="11" lengthAdjust="spacingAndGlyphs" textLength="77" x="391.259" y="199.0908">number replicas</text><text fill="#000000" font-family="sans-serif" font-size="11" lengthAdjust="spacingAndGlyphs" textLength="48" x="391.259" y="212.9268">json ports</text><line style="stroke: #A80036; stroke-width: 1.5;" x1="386.259" x2="473.259" y1="219.3438" y2="219.3438"/><text fill="#000000" font-family="sans-serif" font-size="11" lengthAdjust="spacingAndGlyphs" textLength="39" x="391.259" y="234.7627">create()</text><text fill="#000000" font-family="sans-serif" font-size="11" lengthAdjust="spacingAndGlyphs" textLength="40" x="391.259" y="248.5986">deploy()</text><!--link Model to Resource--><path d="M486.309,216.321 C524.618,234.369 576.028,259.684 619.759,285 C641.225,297.4273 664.335,312.7173 682.824,325.4503 " fill="none" id="Model-Resource" style="stroke: #A80036; stroke-width: 1.0;"/><polygon fill="#A80036" points="693.682,332.9994,688.576,324.5775,689.5768,330.1451,684.0091,331.1459,693.682,332.9994" style="stroke: #A80036; stroke-width: 1.0;"/><line style="stroke: #A80036; stroke-width: 1.0;" x1="689.5768" x2="683.0085" y1="330.1451" y2="325.5786"/><polygon fill="#FFFFFF" points="474.358,210.726,478.0964,216.8924,485.2263,215.8133,481.4879,209.6469,474.358,210.726" style="stroke: #A80036; stroke-width: 1.0;"/><text fill="#000000" font-family="sans-serif" font-size="13" lengthAdjust="spacingAndGlyphs" textLength="57" x="648.759" y="299.4951">resources</text><text fill="#000000" font-family="sans-serif" font-size="13" lengthAdjust="spacingAndGlyphs" textLength="7" x="677.5731" y="322.0064">n</text><!--link Model to Stacklet--><path d="M372.024,194.839 C267.914,203.993 55.3719,229.204 10.7587,285 C0.1902,298.2175 9.7936,312.6833 23.7641,324.6946 " fill="none" id="Model-Stacklet" style="stroke: #A80036; stroke-width: 1.0;"/><polygon fill="#A80036" points="34.4827,332.954,29.7952,324.2922,30.5221,329.9021,24.9122,330.6291,34.4827,332.954" style="stroke: #A80036; stroke-width: 1.0;"/><line style="stroke: #A80036; stroke-width: 1.0;" x1="30.5221" x2="24.1852" y1="329.9021" y2="325.0191"/><polygon fill="#FFFFFF" points="385.066,193.727,378.7479,190.2511,373.1094,194.7464,379.4275,198.2222,385.066,193.727" style="stroke: #A80036; stroke-width: 1.0;"/><text fill="#000000" font-family="sans-serif" font-size="13" lengthAdjust="spacingAndGlyphs" textLength="36" x="11.7587" y="299.4951">parent</text><text fill="#000000" font-family="sans-serif" font-size="13" lengthAdjust="spacingAndGlyphs" textLength="7" x="16.8326" y="322.2799">1</text><!--link Stacklet to Model--><path d="M82.6836,321.5331 C91.3905,308.684 103.062,294.4321 116.759,285 C195.266,230.936 305.462,207.138 371.99,197.162 " fill="none" id="Stacklet-Model" style="stroke: #A80036; stroke-width: 1.0;"/><polygon fill="#A80036" points="385.093,195.291,375.6181,192.603,380.1432,195.9976,376.7486,200.5227,385.093,195.291" style="stroke: #A80036; stroke-width: 1.0;"/><line style="stroke: #A80036; stroke-width: 1.0;" x1="380.1432" x2="372.224" y1="195.9976" y2="197.1285"/><polygon fill="#A80036" points="75.5478,332.7604,82.142,329.8422,81.9845,322.6328,75.3903,325.551,75.5478,332.7604" style="stroke: #A80036; stroke-width: 1.0;"/><text fill="#000000" font-family="sans-serif" font-size="13" lengthAdjust="spacingAndGlyphs" textLength="61" x="117.759" y="299.4951">servicelets</text><text fill="#000000" font-family="sans-serif" font-size="13" lengthAdjust="spacingAndGlyphs" textLength="7" x="370.1155" y="192.4481">n</text><!--link Model to ServiceInstance--><path d="M371.969,195.475 C315.339,203.775 231.868,225.92 191.759,285 C184.087,296.2998 188.226,309.9586 195.499,321.9121 " fill="none" id="Model-ServiceInstance" style="stroke: #A80036; stroke-width: 1.0;"/><polygon fill="#A80036" points="203.15,332.7175,201.213,323.061,200.2603,328.6371,194.6843,327.6845,203.15,332.7175" style="stroke: #A80036; stroke-width: 1.0;"/><line style="stroke: #A80036; stroke-width: 1.0;" x1="200.2603" x2="195.638" y1="328.6371" y2="322.1079"/><polygon fill="#FFFFFF" points="385.036,193.734,378.5603,190.5615,373.1411,195.3189,379.6169,198.4914,385.036,193.734" style="stroke: #A80036; stroke-width: 1.0;"/><text fill="#000000" font-family="sans-serif" font-size="13" lengthAdjust="spacingAndGlyphs" textLength="56" x="192.759" y="299.4951">instances</text><text fill="#000000" font-family="sans-serif" font-size="13" lengthAdjust="spacingAndGlyphs" textLength="7" x="189.9492" y="322.3074">n</text><!--link ServiceInstance to Model--><path d="M254.945,324.7469 C287.395,299.8269 336.72,261.949 374.711,232.774 " fill="none" id="ServiceInstance-Model" style="stroke: #A80036; stroke-width: 1.0;"/><polygon fill="#A80036" points="385.179,224.734,375.6048,227.0438,381.2136,227.7796,380.4778,233.3884,385.179,224.734" style="stroke: #A80036; stroke-width: 1.0;"/><line style="stroke: #A80036; stroke-width: 1.0;" x1="381.2136" x2="374.8685" y1="227.7796" y2="232.6525"/><polygon fill="#FFFFFF" points="244.217,332.9855,251.412,332.5033,253.7341,325.6763,246.5392,326.1585,244.217,332.9855" style="stroke: #A80036; stroke-width: 1.0;"/><text fill="#000000" font-family="sans-serif" font-size="13" lengthAdjust="spacingAndGlyphs" textLength="54" x="307.759" y="299.4951">servicelet</text><text fill="#000000" font-family="sans-serif" font-size="13" lengthAdjust="spacingAndGlyphs" textLength="7" x="370.2157" y="226.7676">1</text><!--link Model to Service--><path d="M390.642,267.599 C388.704,273.3912 387.036,279.2284 385.759,285 C384.029,292.8109 383.332,295.3768 385.759,303 C387.873,309.6415 391.276,316.1534 395.131,322.1327 " fill="none" id="Model-Service" style="stroke: #A80036; stroke-width: 1.0;"/><polygon fill="#A80036" points="402.881,332.8688,400.8564,323.2303,399.9544,328.8148,394.37,327.9128,402.881,332.8688" style="stroke: #A80036; stroke-width: 1.0;"/><line style="stroke: #A80036; stroke-width: 1.0;" x1="399.9544" x2="395.272" y1="328.8148" y2="322.328"/><polygon fill="#FFFFFF" points="395.269,255.034,389.4424,259.2826,391.1232,266.2951,396.9498,262.0465,395.269,255.034" style="stroke: #A80036; stroke-width: 1.0;"/><text fill="#000000" font-family="sans-serif" font-size="13" lengthAdjust="spacingAndGlyphs" textLength="40" x="386.759" y="299.4951">service</text><text fill="#000000" font-family="sans-serif" font-size="13" lengthAdjust="spacingAndGlyphs" textLength="7" x="389.6402" y="322.1686">1</text><!--link Service to Model--><path d="M428.61,320.3215 C429.92,314.6099 431.062,308.6588 431.759,303 C433.137,291.8012 433.792,279.9286 433.979,268.257 " fill="none" id="Service-Model" style="stroke: #A80036; stroke-width: 1.0;"/><polygon fill="#A80036" points="434.006,255.21,429.9882,264.2021,433.9961,260.21,437.9882,264.2179,434.006,255.21" style="stroke: #A80036; stroke-width: 1.0;"/><line style="stroke: #A80036; stroke-width: 1.0;" x1="433.9961" x2="433.979" y1="260.21" y2="268.21"/><polygon fill="#A80036" points="425.381,332.9632,430.7416,328.1399,428.3511,321.3366,422.9905,326.1598,425.381,332.9632" style="stroke: #A80036; stroke-width: 1.0;"/><text fill="#000000" font-family="sans-serif" font-size="13" lengthAdjust="spacingAndGlyphs" textLength="61" x="434.759" y="299.4951">servicelets</text><text fill="#000000" font-family="sans-serif" font-size="13" lengthAdjust="spacingAndGlyphs" textLength="7" x="427.083" y="276.3238">n</text><!--link Model to Environment--><path d="M487.073,206.691 C545.303,223.792 637.647,252.712 714.759,285 C743.973,297.2326 775.652,313.3961 800.307,326.6656 " fill="none" id="Model-Environment" style="stroke: #A80036; stroke-width: 1.0;"/><polygon fill="#A80036" points="811.804,332.9173,805.8081,325.1039,807.4114,330.5288,801.9865,332.1321,811.804,332.9173" style="stroke: #A80036; stroke-width: 1.0;"/><line style="stroke: #A80036; stroke-width: 1.0;" x1="807.4114" x2="800.3825" y1="330.5288" y2="326.707"/><polygon fill="#FFFFFF" points="474.468,203.018,479.1093,208.5369,485.9888,206.3752,481.3475,200.8563,474.468,203.018" style="stroke: #A80036; stroke-width: 1.0;"/><text fill="#000000" font-family="sans-serif" font-size="13" lengthAdjust="spacingAndGlyphs" textLength="19" x="752.759" y="299.4951">env</text><text fill="#000000" font-family="sans-serif" font-size="13" lengthAdjust="spacingAndGlyphs" textLength="7" x="793.9459" y="322.232">1</text><!--link Model to DataReference--><path d="M483.654,248.556 C507.297,274.0233 533.945,302.7279 553.005,323.259 " fill="none" id="Model-DataReference" style="stroke: #A80036; stroke-width: 1.0;"/><polygon fill="#A80036" points="561.965,332.9103,558.7731,323.593,558.5631,329.246,552.9102,329.036,561.965,332.9103" style="stroke: #A80036; stroke-width: 1.0;"/><line style="stroke: #A80036; stroke-width: 1.0;" x1="558.5631" x2="553.1205" y1="329.246" y2="323.383"/><polygon fill="#A80036" points="474.464,238.655,475.6146,245.7737,482.6282,247.4496,481.4777,240.3309,474.464,238.655" style="stroke: #A80036; stroke-width: 1.0;"/><text fill="#000000" font-family="sans-serif" font-size="13" lengthAdjust="spacingAndGlyphs" textLength="25" x="531.759" y="299.4951">data</text><text fill="#000000" font-family="sans-serif" font-size="13" lengthAdjust="spacingAndGlyphs" textLength="7" x="548.75" y="322.2228">n</text><!--link DataReference to Model--><path d="M577.471,319.5112 C575.783,307.9147 572.392,295.1461 565.759,285 C546.417,255.415 514.289,232.452 486.115,216.573 " fill="none" id="DataReference-Model" style="stroke: #A80036; stroke-width: 1.0;"/><polygon fill="#A80036" points="474.331,210.203,480.346,218.0017,478.7294,212.5808,484.1504,210.9642,474.331,210.203" style="stroke: #A80036; stroke-width: 1.0;"/><line style="stroke: #A80036; stroke-width: 1.0;" x1="478.7294" x2="485.767" y1="212.5808" y2="216.385"/><polygon fill="#FFFFFF" points="578.789,332.8199,582.1785,326.455,577.6068,320.8783,574.2174,327.2431,578.789,332.8199" style="stroke: #A80036; stroke-width: 1.0;"/><text fill="#000000" font-family="sans-serif" font-size="13" lengthAdjust="spacingAndGlyphs" textLength="36" x="574.759" y="299.4951">parent</text><text fill="#000000" font-family="sans-serif" font-size="13" lengthAdjust="spacingAndGlyphs" textLength="7" x="482.2929" y="209.8299">1</text><!--link Stack to Model--><path d="M325.314,56.505 C339.649,74.621 358.837,98.871 376.854,121.641 " fill="none" id="Stack-Model" style="stroke: #A80036; stroke-width: 1.0;"/><polygon fill="#A80036" points="385.029,131.971,382.5808,122.4313,381.9263,128.0501,376.3074,127.3956,385.029,131.971" style="stroke: #A80036; stroke-width: 1.0;"/><line style="stroke: #A80036; stroke-width: 1.0;" x1="381.9263" x2="376.962" y1="128.0501" y2="121.7765"/><polygon fill="#A80036" points="317.08,46.099,317.666,53.2863,324.5257,55.5097,323.9398,48.3224,317.08,46.099" style="stroke: #A80036; stroke-width: 1.0;"/><text fill="#000000" font-family="sans-serif" font-size="13" lengthAdjust="spacingAndGlyphs" textLength="61" x="356.759" y="90.4951">servicelets</text><text fill="#000000" font-family="sans-serif" font-size="13" lengthAdjust="spacingAndGlyphs" textLength="7" x="370.3423" y="119.0492">n</text><!--link StackletDefinition to Model--><path d="M429.759,59.2 C429.759,73.954 429.759,92.297 429.759,110.486 " fill="none" id="StackletDefinition-Model" style="stroke: #A80036; stroke-width: 1.0;"/><polygon fill="#A80036" points="429.759,123.65,433.759,114.65,429.759,118.65,425.759,114.65,429.759,123.65" style="stroke: #A80036; stroke-width: 1.0;"/><line style="stroke: #A80036; stroke-width: 1.0;" x1="429.759" x2="429.759" y1="118.65" y2="110.65"/><polygon fill="#A80036" points="429.759,46.099,425.759,52.099,429.759,58.099,433.759,52.099,429.759,46.099" style="stroke: #A80036; stroke-width: 1.0;"/><text fill="#000000" font-family="sans-serif" font-size="13" lengthAdjust="spacingAndGlyphs" textLength="61" x="430.759" y="90.4951">servicelets</text><text fill="#000000" font-family="sans-serif" font-size="13" lengthAdjust="spacingAndGlyphs" textLength="7" x="422.3762" y="113.0861">n</text><!--link StackInstance to Model--><path d="M557.326,55.548 C537.035,76.696 508.344,106.597 483.31,132.688 " fill="none" id="StackInstance-Model" style="stroke: #A80036; stroke-width: 1.0;"/><polygon fill="#A80036" points="474.274,142.105,483.3913,138.3802,477.7357,138.4971,477.6188,132.8415,474.274,142.105" style="stroke: #A80036; stroke-width: 1.0;"/><line style="stroke: #A80036; stroke-width: 1.0;" x1="477.7357" x2="483.275" y1="138.4971" y2="132.725"/><polygon fill="#FFFFFF" points="566.392,46.099,559.3517,47.6591,558.0839,54.7579,565.1242,53.1978,566.392,46.099" style="stroke: #A80036; stroke-width: 1.0;"/><text fill="#000000" font-family="sans-serif" font-size="13" lengthAdjust="spacingAndGlyphs" textLength="54" x="535.759" y="90.4951">servicelet</text><text fill="#000000" font-family="sans-serif" font-size="13" lengthAdjust="spacingAndGlyphs" textLength="7" x="482.2265" y="130.4531">1</text><!--
@startuml

class "Servicelet" as Model {
 string name
 json args
 number replicas
 json ports

 create()
 deploy()
 
}

rectangle "Resource" as Resource #lightblue {
}

Model o- -> "n" Resource : resources


rectangle "Stacklet" as Stacklet #lightblue {
}

Model o- -> "1" Stacklet : parent


rectangle "ServiceInstance" as ServiceInstance #lightblue {
}

Model o- -> "n" ServiceInstance : instances


rectangle "Service" as Service #lightblue {
}

Model o- -> "1" Service : service


rectangle "Environment" as Environment #lightblue {
}

Model o- -> "1" Environment : env


rectangle "DataReference" as DataReference #lightblue {
}

Model *- -> "n" DataReference : data




    rectangle "DataReference" as DataReference #lightgreen {
    }
    
        DataReference   o- -> "1" Model : "parent"
    
    rectangle "Service" as Service #lightgreen {
    }
    
        Service   *- -> "n" Model : "servicelets"
    
    rectangle "Stack" as Stack #lightgreen {
    }
    
        Stack   *- -> "n" Model : "servicelets"
    
    rectangle "Stacklet" as Stacklet #lightgreen {
    }
    
        Stacklet   *- -> "n" Model : "servicelets"
    
    rectangle "StackletDefinition" as StackletDefinition #lightgreen {
    }
    
        StackletDefinition   *- -> "n" Model : "servicelets"
    
    rectangle "ServiceInstance" as ServiceInstance #lightgreen {
    }
    
        ServiceInstance   o- -> "1" Model : "servicelet"
    
    rectangle "StackInstance" as StackInstance #lightgreen {
    }
    
        StackInstance   o- -> "1" Model : "servicelet"
    

@enduml

PlantUML version 1.2019.05(Sat Apr 20 09:45:36 PDT 2019)
(GPL source distribution)
Java Runtime: OpenJDK Runtime Environment
JVM: OpenJDK 64-Bit Server VM
Java Version: 12.0.1+12
Operating System: Windows 10
OS Version: 10.0
Default Encoding: Cp1252
Language: en
Country: US
--></g></svg>