<?xml version="1.0" encoding="UTF-8" standalone="no"?><svg xmlns="http://www.w3.org/2000/svg" xmlns:xlink="http://www.w3.org/1999/xlink" contentScriptType="application/ecmascript" contentStyleType="text/css" height="196px" preserveAspectRatio="none" style="width:111px;height:196px;" version="1.1" viewBox="0 0 111 196" width="111px" zoomAndPan="magnify"><defs><filter height="300%" id="f2f64onh2q6b8" width="300%" x="-1" y="-1"><feGaussianBlur result="blurOut" stdDeviation="2.0"/><feColorMatrix in="blurOut" result="blurOut2" type="matrix" values="0 0 0 0 0 0 0 0 0 0 0 0 0 0 0 0 0 0 .4 0"/><feOffset dx="4.0" dy="4.0" in="blurOut2" result="blurOut3"/><feBlend in="SourceGraphic" in2="blurOut3" mode="normal"/></filter></defs><g><!--entity ModelName--><rect fill="#ADD8E6" filter="url(#f2f64onh2q6b8)" height="37.6094" style="stroke: #000000; stroke-width: 1.5;" width="94" x="6" y="148"/><text fill="#000000" font-family="sans-serif" font-size="14" lengthAdjust="spacingAndGlyphs" textLength="74" x="16" y="172.5332">ModelName</text><!--class Model--><rect fill="#FEFECE" filter="url(#f2f64onh2q6b8)" height="61.8359" id="Model" style="stroke: #A80036; stroke-width: 1.5;" width="66" x="20" y="8"/><ellipse cx="35" cy="24" fill="#ADD1B2" rx="11" ry="11" style="stroke: #A80036; stroke-width: 1.0;"/><path d="M37.7656,19.875 Q37.9219,19.6563 38.1094,19.5469 Q38.2969,19.4375 38.5156,19.4375 Q38.8906,19.4375 39.125,19.7031 Q39.3594,19.9531 39.3594,20.5625 L39.3594,22.0156 Q39.3594,22.625 39.125,22.8906 Q38.8906,23.1563 38.5156,23.1563 Q38.1719,23.1563 37.9688,22.9531 Q37.7656,22.7656 37.6563,22.25 Q37.6094,21.8906 37.4219,21.7031 Q37.0938,21.3281 36.4844,21.1094 Q35.875,20.8906 35.25,20.8906 Q34.4844,20.8906 33.8438,21.2188 Q33.2188,21.5469 32.7188,22.2969 Q32.2344,23.0469 32.2344,24.0781 L32.2344,25.1719 Q32.2344,26.4063 33.125,27.2344 Q34.0156,28.0469 35.6094,28.0469 Q36.5469,28.0469 37.2031,27.7969 Q37.5938,27.6406 38.0156,27.2031 Q38.2813,26.9375 38.4219,26.8594 Q38.5781,26.7813 38.7813,26.7813 Q39.1094,26.7813 39.3594,27.0469 Q39.625,27.2969 39.625,27.6406 Q39.625,27.9844 39.2813,28.3906 Q38.7813,28.9688 37.9844,29.2969 Q36.9063,29.75 35.6094,29.75 Q34.0938,29.75 32.8906,29.125 Q31.9063,28.625 31.2188,27.5625 Q30.5313,26.4844 30.5313,25.2031 L30.5313,24.0469 Q30.5313,22.7188 31.1406,21.5781 Q31.7656,20.4219 32.8594,19.8125 Q33.9531,19.1875 35.1875,19.1875 Q35.9219,19.1875 36.5625,19.3594 Q37.2188,19.5156 37.7656,19.875 Z "/><text fill="#000000" font-family="sans-serif" font-size="12" lengthAdjust="spacingAndGlyphs" textLength="34" x="49" y="28.9102">Group</text><line style="stroke: #A80036; stroke-width: 1.5;" x1="21" x2="85" y1="40" y2="40"/><text fill="#000000" font-family="sans-serif" font-size="11" lengthAdjust="spacingAndGlyphs" textLength="52" x="26" y="55.4189">string attr1</text><line style="stroke: #A80036; stroke-width: 1.5;" x1="21" x2="85" y1="61.8359" y2="61.8359"/><!--link Model to ModelName--><path d="M53,83.325 C53,100.1922 53,119.1503 53,134.6534 " fill="none" id="Model-ModelName" style="stroke: #A80036; stroke-width: 1.0;"/><polygon fill="#A80036" points="53,147.7606,57,138.7606,53,142.7606,49,138.7606,53,147.7606" style="stroke: #A80036; stroke-width: 1.0;"/><line style="stroke: #A80036; stroke-width: 1.0;" x1="53" x2="53.0001" y1="142.7606" y2="134.7606"/><polygon fill="#FFFFFF" points="53,70.18,49,76.18,53,82.18,57,76.18,53,70.18" style="stroke: #A80036; stroke-width: 1.0;"/><text fill="#000000" font-family="sans-serif" font-size="13" lengthAdjust="spacingAndGlyphs" textLength="42" x="54" y="114.4951">assoc1</text><text fill="#000000" font-family="sans-serif" font-size="13" lengthAdjust="spacingAndGlyphs" textLength="7" x="44.9281" y="137.0273">1</text><!--
@startuml

class "Group" as Model {
 string attr1

 
}

rectangle "ModelName" as ModelName #lightblue {
}

Model o- -> "1" ModelName : assoc1





@enduml

PlantUML version 1.2019.05(Sat Apr 20 09:45:36 PDT 2019)
(GPL source distribution)
Java Runtime: OpenJDK Runtime Environment
JVM: OpenJDK 64-Bit Server VM
Java Version: 12.0.1+12
Operating System: Windows 10
OS Version: 10.0
Default Encoding: Cp1252
Language: en
Country: US
--></g></svg>