<?xml version="1.0" encoding="UTF-8" standalone="no"?><svg xmlns="http://www.w3.org/2000/svg" xmlns:xlink="http://www.w3.org/1999/xlink" contentScriptType="application/ecmascript" contentStyleType="text/css" height="198px" preserveAspectRatio="none" style="width:295px;height:198px;" version="1.1" viewBox="0 0 295 198" width="295px" zoomAndPan="magnify"><defs><filter height="300%" id="fhp6cfq60g9nn" width="300%" x="-1" y="-1"><feGaussianBlur result="blurOut" stdDeviation="2.0"/><feColorMatrix in="blurOut" result="blurOut2" type="matrix" values="0 0 0 0 0 0 0 0 0 0 0 0 0 0 0 0 0 0 .4 0"/><feOffset dx="4.0" dy="4.0" in="blurOut2" result="blurOut3"/><feBlend in="SourceGraphic" in2="blurOut3" mode="normal"/></filter></defs><g><ellipse cx="136.0594" cy="170.0119" fill="#FEFECE" filter="url(#fhp6cfq60g9nn)" rx="73.0594" ry="17.0119" style="stroke: #A80036; stroke-width: 1.5;"/><text fill="#000000" font-family="sans-serif" font-size="14" lengthAdjust="spacingAndGlyphs" textLength="109" x="81.5594" y="175.3166">Manage Services</text><!--entity StackDeveloper--><ellipse cx="58" cy="18" fill="#FEFECE" filter="url(#fhp6cfq60g9nn)" rx="8" ry="8" style="stroke: #A80036; stroke-width: 2.0;"/><path d="M58,26 L58,53 M45,34 L71,34 M58,53 L45,68 M58,53 L71,68 " fill="none" filter="url(#fhp6cfq60g9nn)" style="stroke: #A80036; stroke-width: 2.0;"/><text fill="#000000" font-family="sans-serif" font-size="14" lengthAdjust="spacingAndGlyphs" textLength="104" x="6" y="89.5332">Stack Developer</text><!--entity ApplicationDeveloper--><ellipse cx="214" cy="18" fill="#FEFECE" filter="url(#fhp6cfq60g9nn)" rx="8" ry="8" style="stroke: #A80036; stroke-width: 2.0;"/><path d="M214,26 L214,53 M201,34 L227,34 M214,53 L201,68 M214,53 L227,68 " fill="none" filter="url(#fhp6cfq60g9nn)" style="stroke: #A80036; stroke-width: 2.0;"/><text fill="#000000" font-family="sans-serif" font-size="14" lengthAdjust="spacingAndGlyphs" textLength="138" x="145" y="89.5332">Application Developer</text><!--link StackDeveloper to ManageServices--><path d="M85.7195,93.2569 C98.1799,112.0274 112.321,133.3301 122.426,148.552 " fill="none" id="StackDeveloper-ManageServices" style="stroke: #A80036; stroke-width: 1.0;"/><polygon fill="#A80036" points="125.426,153.0713,123.7808,143.3608,122.6606,148.9056,117.1158,147.7854,125.426,153.0713" style="stroke: #A80036; stroke-width: 1.0;"/><!--link ApplicationDeveloper to ManageServices--><path d="M186.28,93.2569 C173.82,112.0274 159.679,133.3301 149.574,148.552 " fill="none" id="ApplicationDeveloper-ManageServices" style="stroke: #A80036; stroke-width: 1.0;"/><polygon fill="#A80036" points="146.574,153.0713,154.8842,147.7854,149.3394,148.9056,148.2192,143.3608,146.574,153.0713" style="stroke: #A80036; stroke-width: 1.0;"/><!--
@startuml


usecase "Manage Services" as ManageServices

Actor "Stack Developer" as StackDeveloper

StackDeveloper - -> ManageServices

Actor "Application Developer" as ApplicationDeveloper

ApplicationDeveloper - -> ManageServices



@enduml

PlantUML version 1.2019.05(Sat Apr 20 09:45:36 PDT 2019)
(GPL source distribution)
Java Runtime: OpenJDK Runtime Environment
JVM: OpenJDK 64-Bit Server VM
Java Version: 12.0.1+12
Operating System: Windows 10
OS Version: 10.0
Default Encoding: Cp1252
Language: en
Country: US
--></g></svg>