<?xml version="1.0" encoding="UTF-8" standalone="no"?><svg xmlns="http://www.w3.org/2000/svg" xmlns:xlink="http://www.w3.org/1999/xlink" contentScriptType="application/ecmascript" contentStyleType="text/css" height="307px" preserveAspectRatio="none" style="width:676px;height:307px;" version="1.1" viewBox="0 0 676 307" width="676px" zoomAndPan="magnify"><defs><filter height="300%" id="f182n6kjumlj4w" width="300%" x="-1" y="-1"><feGaussianBlur result="blurOut" stdDeviation="2.0"/><feColorMatrix in="blurOut" result="blurOut2" type="matrix" values="0 0 0 0 0 0 0 0 0 0 0 0 0 0 0 0 0 0 .4 0"/><feOffset dx="4.0" dy="4.0" in="blurOut2" result="blurOut3"/><feBlend in="SourceGraphic" in2="blurOut3" mode="normal"/></filter></defs><g><ellipse cx="316.4481" cy="171.2896" fill="#FEFECE" filter="url(#f182n6kjumlj4w)" rx="79.4481" ry="18.2896" style="stroke: #A80036; stroke-width: 1.5;"/><text fill="#000000" font-family="sans-serif" font-size="14" lengthAdjust="spacingAndGlyphs" textLength="125" x="253.9481" y="176.5943">Manage Multi Cloud</text><!--entity ITOperations--><ellipse cx="316.5" cy="18" fill="#FEFECE" filter="url(#f182n6kjumlj4w)" rx="8" ry="8" style="stroke: #A80036; stroke-width: 2.0;"/><path d="M316.5,26 L316.5,53 M303.5,34 L329.5,34 M316.5,53 L303.5,68 M316.5,53 L329.5,68 " fill="none" filter="url(#f182n6kjumlj4w)" style="stroke: #A80036; stroke-width: 2.0;"/><text fill="#000000" font-family="sans-serif" font-size="14" lengthAdjust="spacingAndGlyphs" textLength="86" x="273.5" y="89.5332">IT Operations</text><ellipse cx="91.6926" cy="273.5385" fill="#D3D3D3" filter="url(#f182n6kjumlj4w)" rx="85.6926" ry="19.5385" style="stroke: #A80036; stroke-width: 1.5;"/><text fill="#000000" font-family="sans-serif" font-size="14" lengthAdjust="spacingAndGlyphs" textLength="140" x="21.6926" y="278.8432">AddCloudtoMultiCloud</text><ellipse cx="316.5894" cy="273.7179" fill="#D3D3D3" filter="url(#f182n6kjumlj4w)" rx="104.0894" ry="23.2179" style="stroke: #A80036; stroke-width: 1.5;"/><text fill="#000000" font-family="sans-serif" font-size="14" lengthAdjust="spacingAndGlyphs" textLength="182" x="225.5894" y="279.0226">ManagePoliciesforMultiCloud</text><ellipse cx="560.5397" cy="273.3079" fill="#D3D3D3" filter="url(#f182n6kjumlj4w)" rx="104.5397" ry="23.3079" style="stroke: #A80036; stroke-width: 1.5;"/><text fill="#000000" font-family="sans-serif" font-size="14" lengthAdjust="spacingAndGlyphs" textLength="183" x="469.0397" y="278.6126">RemoveCloudfromMultiCloud</text><!--link ITOperations to ManageMultiCloud--><path d="M316.5,93.12 C316.5,111.547 316.5,132.495 316.5,147.944 " fill="none" id="ITOperations-ManageMultiCloud" style="stroke: #A80036; stroke-width: 1.0;"/><polygon fill="#A80036" points="316.5,152.961,320.5,143.961,316.5,147.961,312.5,143.961,316.5,152.961" style="stroke: #A80036; stroke-width: 1.0;"/><!--link ManageMultiCloud to AddCloudtoMultiCloud--><path d="M281.344,188.125 C241.476,205.8442 176.49,234.7268 133.86,253.6734 " fill="none" id="ManageMultiCloud-AddCloudtoMultiCloud" style="stroke: #A80036; stroke-width: 1.0;"/><polygon fill="#A80036" points="129.033,255.8185,138.8819,255.8198,133.6023,253.7884,135.6337,248.5089,129.033,255.8185" style="stroke: #A80036; stroke-width: 1.0;"/><!--link ManageMultiCloud to ManagePoliciesforMultiCloud--><path d="M316.5,190.378 C316.5,205.5498 316.5,227.5644 316.5,244.982 " fill="none" id="ManageMultiCloud-ManagePoliciesforMultiCloud" style="stroke: #A80036; stroke-width: 1.0;"/><polygon fill="#A80036" points="316.5,250.2272,320.5,241.2272,316.5,245.2272,312.5,241.2272,316.5,250.2272" style="stroke: #A80036; stroke-width: 1.0;"/><!--link ManageMultiCloud to RemoveCloudfromMultiCloud--><path d="M354.09,187.906 C395.06,204.6966 460.939,231.6963 507.227,250.6669 " fill="none" id="ManageMultiCloud-RemoveCloudfromMultiCloud" style="stroke: #A80036; stroke-width: 1.0;"/><polygon fill="#A80036" points="511.925,252.5923,505.1137,245.4785,507.2983,250.6965,502.0804,252.8812,511.925,252.5923" style="stroke: #A80036; stroke-width: 1.0;"/><!--
@startuml


usecase "Manage Multi Cloud" as ManageMultiCloud

Actor "IT Operations" as ITOperations

ITOperations - -> ManageMultiCloud



usecase "AddCloudtoMultiCloud" as AddCloudtoMultiCloud #lightgrey

ManageMultiCloud - -> AddCloudtoMultiCloud

usecase "ManagePoliciesforMultiCloud" as ManagePoliciesforMultiCloud #lightgrey

ManageMultiCloud - -> ManagePoliciesforMultiCloud

usecase "RemoveCloudfromMultiCloud" as RemoveCloudfromMultiCloud #lightgrey

ManageMultiCloud - -> RemoveCloudfromMultiCloud

@enduml

PlantUML version 1.2019.05(Sat Apr 20 09:45:36 PDT 2019)
(GPL source distribution)
Java Runtime: OpenJDK Runtime Environment
JVM: OpenJDK 64-Bit Server VM
Java Version: 12.0.1+12
Operating System: Windows 10
OS Version: 10.0
Default Encoding: Cp1252
Language: en
Country: US
--></g></svg>