<?xml version="1.0" encoding="UTF-8" standalone="no"?><svg xmlns="http://www.w3.org/2000/svg" xmlns:xlink="http://www.w3.org/1999/xlink" contentScriptType="application/ecmascript" contentStyleType="text/css" height="295px" preserveAspectRatio="none" style="width:507px;height:295px;" version="1.1" viewBox="0 0 507 295" width="507px" zoomAndPan="magnify"><defs><filter height="300%" id="f1ecqn1o40m5m0" width="300%" x="-1" y="-1"><feGaussianBlur result="blurOut" stdDeviation="2.0"/><feColorMatrix in="blurOut" result="blurOut2" type="matrix" values="0 0 0 0 0 0 0 0 0 0 0 0 0 0 0 0 0 0 .4 0"/><feOffset dx="4.0" dy="4.0" in="blurOut2" result="blurOut3"/><feBlend in="SourceGraphic" in2="blurOut3" mode="normal"/></filter></defs><g><ellipse cx="240.6328" cy="171.1266" fill="#FEFECE" filter="url(#f1ecqn1o40m5m0)" rx="78.6328" ry="18.1266" style="stroke: #A80036; stroke-width: 1.5;"/><text fill="#000000" font-family="sans-serif" font-size="14" lengthAdjust="spacingAndGlyphs" textLength="123" x="179.1328" y="176.4312">Manage Resources</text><!--entity ITOperations--><ellipse cx="240.5" cy="18" fill="#FEFECE" filter="url(#f1ecqn1o40m5m0)" rx="8" ry="8" style="stroke: #A80036; stroke-width: 2.0;"/><path d="M240.5,26 L240.5,53 M227.5,34 L253.5,34 M240.5,53 L227.5,68 M240.5,53 L253.5,68 " fill="none" filter="url(#f1ecqn1o40m5m0)" style="stroke: #A80036; stroke-width: 2.0;"/><text fill="#000000" font-family="sans-serif" font-size="14" lengthAdjust="spacingAndGlyphs" textLength="86" x="197.5" y="89.5332">IT Operations</text><ellipse cx="72.3112" cy="267.1622" fill="#D3D3D3" filter="url(#f1ecqn1o40m5m0)" rx="66.3112" ry="15.6622" style="stroke: #A80036; stroke-width: 1.5;"/><text fill="#000000" font-family="sans-serif" font-size="14" lengthAdjust="spacingAndGlyphs" textLength="91" x="26.8112" y="272.4669">GetResources</text><ellipse cx="240.4529" cy="267.0906" fill="#D3D3D3" filter="url(#f1ecqn1o40m5m0)" rx="65.9529" ry="15.5906" style="stroke: #A80036; stroke-width: 1.5;"/><text fill="#000000" font-family="sans-serif" font-size="14" lengthAdjust="spacingAndGlyphs" textLength="90" x="195.4529" y="272.3953">ListResources</text><ellipse cx="419.4182" cy="266.8836" fill="#D3D3D3" filter="url(#f1ecqn1o40m5m0)" rx="77.4182" ry="17.8836" style="stroke: #A80036; stroke-width: 1.5;"/><text fill="#000000" font-family="sans-serif" font-size="14" lengthAdjust="spacingAndGlyphs" textLength="120" x="359.4182" y="272.1883">ReleaseResources</text><!--link ITOperations to ManageResources--><path d="M240.5,93.279 C240.5,111.557 240.5,132.272 240.5,147.566 " fill="none" id="ITOperations-ManageResources" style="stroke: #A80036; stroke-width: 1.0;"/><polygon fill="#A80036" points="240.5,152.941,244.5,143.941,240.5,147.941,236.5,143.941,240.5,152.941" style="stroke: #A80036; stroke-width: 1.0;"/><!--link ManageResources to GetResources--><path d="M212.001,187.9458 C181.128,205.2198 132.151,232.6236 101.2003,249.9415 " fill="none" id="ManageResources-GetResources" style="stroke: #A80036; stroke-width: 1.0;"/><polygon fill="#A80036" points="96.7688,252.421,106.5761,251.5169,101.1322,249.9795,102.6696,244.5356,96.7688,252.421" style="stroke: #A80036; stroke-width: 1.0;"/><!--link ManageResources to ListResources--><path d="M240.5,189.241 C240.5,205.241 240.5,229.0574 240.5,245.911 " fill="none" id="ManageResources-ListResources" style="stroke: #A80036; stroke-width: 1.0;"/><polygon fill="#A80036" points="240.5,251.3383,244.5,242.3383,240.5,246.3383,236.5,242.3383,240.5,251.3383" style="stroke: #A80036; stroke-width: 1.0;"/><!--link ManageResources to ReleaseResources--><path d="M270.461,187.7335 C302.049,204.3218 351.747,230.4201 384.963,247.8633 " fill="none" id="ManageResources-ReleaseResources" style="stroke: #A80036; stroke-width: 1.0;"/><polygon fill="#A80036" points="389.74,250.3719,383.6311,242.6465,385.3131,248.0475,379.9121,249.7295,389.74,250.3719" style="stroke: #A80036; stroke-width: 1.0;"/><!--
@startuml


usecase "Manage Resources" as ManageResources

Actor "IT Operations" as ITOperations

ITOperations - -> ManageResources



usecase "GetResources" as GetResources #lightgrey

ManageResources - -> GetResources

usecase "ListResources" as ListResources #lightgrey

ManageResources - -> ListResources

usecase "ReleaseResources" as ReleaseResources #lightgrey

ManageResources - -> ReleaseResources

@enduml

PlantUML version 1.2019.05(Sat Apr 20 09:45:36 PDT 2019)
(GPL source distribution)
Java Runtime: OpenJDK Runtime Environment
JVM: OpenJDK 64-Bit Server VM
Java Version: 12.0.1+12
Operating System: Windows 10
OS Version: 10.0
Default Encoding: Cp1252
Language: en
Country: US
--></g></svg>