<?xml version="1.0" encoding="UTF-8" standalone="no"?><svg xmlns="http://www.w3.org/2000/svg" xmlns:xlink="http://www.w3.org/1999/xlink" contentScriptType="application/ecmascript" contentStyleType="text/css" height="327px" preserveAspectRatio="none" style="width:577px;height:327px;" version="1.1" viewBox="0 0 577 327" width="577px" zoomAndPan="magnify"><defs><filter height="300%" id="fs5zcsdg1g2w8" width="300%" x="-1" y="-1"><feGaussianBlur result="blurOut" stdDeviation="2.0"/><feColorMatrix in="blurOut" result="blurOut2" type="matrix" values="0 0 0 0 0 0 0 0 0 0 0 0 0 0 0 0 0 0 .4 0"/><feOffset dx="4.0" dy="4.0" in="blurOut2" result="blurOut3"/><feBlend in="SourceGraphic" in2="blurOut3" mode="normal"/></filter></defs><g><rect fill="#FFFFE0" height="312.625" style="stroke: #A80036; stroke-width: 1.0;" width="208" x="196.5" y="4"/><text fill="#000000" font-family="sans-serif" font-size="13" font-weight="bold" lengthAdjust="spacingAndGlyphs" textLength="198" x="199.5" y="17.4951">Software Defined Infrastructure</text><rect fill="#D3D3D3" height="312.625" style="stroke: #A80036; stroke-width: 1.0;" width="160" x="406.5" y="4"/><text fill="#000000" font-family="sans-serif" font-size="13" font-weight="bold" lengthAdjust="spacingAndGlyphs" textLength="154" x="409.5" y="17.4951">Common Physical Layer</text><line style="stroke: #A80036; stroke-width: 1.0; stroke-dasharray: 5.0,5.0;" x1="54" x2="54" y1="87.6094" y2="229.0156"/><line style="stroke: #A80036; stroke-width: 1.0; stroke-dasharray: 5.0,5.0;" x1="143" x2="143" y1="87.6094" y2="229.0156"/><line style="stroke: #A80036; stroke-width: 1.0; stroke-dasharray: 5.0,5.0;" x1="300" x2="300" y1="87.6094" y2="229.0156"/><line style="stroke: #A80036; stroke-width: 1.0; stroke-dasharray: 5.0,5.0;" x1="486" x2="486" y1="87.6094" y2="229.0156"/><text fill="#000000" font-family="sans-serif" font-size="14" lengthAdjust="spacingAndGlyphs" textLength="86" x="8" y="84.5332">IT Operations</text><ellipse cx="54" cy="13" fill="#FEFECE" filter="url(#fs5zcsdg1g2w8)" rx="8" ry="8" style="stroke: #A80036; stroke-width: 2.0;"/><path d="M54,21 L54,48 M41,29 L67,29 M54,48 L41,63 M54,48 L67,63 " fill="none" filter="url(#fs5zcsdg1g2w8)" style="stroke: #A80036; stroke-width: 2.0;"/><text fill="#000000" font-family="sans-serif" font-size="14" lengthAdjust="spacingAndGlyphs" textLength="86" x="8" y="242.5488">IT Operations</text><ellipse cx="54" cy="255.625" fill="#FEFECE" filter="url(#fs5zcsdg1g2w8)" rx="8" ry="8" style="stroke: #A80036; stroke-width: 2.0;"/><path d="M54,263.625 L54,290.625 M41,271.625 L67,271.625 M54,290.625 L41,305.625 M54,290.625 L67,305.625 " fill="none" filter="url(#fs5zcsdg1g2w8)" style="stroke: #A80036; stroke-width: 2.0;"/><text fill="#000000" font-family="sans-serif" font-size="14" lengthAdjust="spacingAndGlyphs" textLength="60" x="110" y="84.5332">EventBus</text><ellipse cx="143" cy="54" fill="#FEFECE" filter="url(#fs5zcsdg1g2w8)" rx="12" ry="12" style="stroke: #A80036; stroke-width: 2.0;"/><line style="stroke: #A80036; stroke-width: 2.0;" x1="131" x2="155" y1="68" y2="68"/><text fill="#000000" font-family="sans-serif" font-size="14" lengthAdjust="spacingAndGlyphs" textLength="60" x="110" y="242.5488">EventBus</text><ellipse cx="143" cy="261.625" fill="#FEFECE" filter="url(#fs5zcsdg1g2w8)" rx="12" ry="12" style="stroke: #A80036; stroke-width: 2.0;"/><line style="stroke: #A80036; stroke-width: 2.0;" x1="131" x2="155" y1="275.625" y2="275.625"/><text fill="#000000" font-family="sans-serif" font-size="14" lengthAdjust="spacingAndGlyphs" textLength="18" x="288.5" y="84.5332">sdi</text><path d="M280,42 L280,66 M280,54 L297,54 " fill="none" filter="url(#fs5zcsdg1g2w8)" style="stroke: #A80036; stroke-width: 2.0;"/><ellipse cx="309" cy="54" fill="#FFFFFF" filter="url(#fs5zcsdg1g2w8)" rx="12" ry="12" style="stroke: #A80036; stroke-width: 2.0;"/><text fill="#000000" font-family="sans-serif" font-size="14" lengthAdjust="spacingAndGlyphs" textLength="18" x="288.5" y="242.5488">sdi</text><path d="M280,249.625 L280,273.625 M280,261.625 L297,261.625 " fill="none" filter="url(#fs5zcsdg1g2w8)" style="stroke: #A80036; stroke-width: 2.0;"/><ellipse cx="309" cy="261.625" fill="#FFFFFF" filter="url(#fs5zcsdg1g2w8)" rx="12" ry="12" style="stroke: #A80036; stroke-width: 2.0;"/><text fill="#000000" font-family="sans-serif" font-size="14" lengthAdjust="spacingAndGlyphs" textLength="18" x="474.5" y="84.5332">cpl</text><path d="M466,42 L466,66 M466,54 L483,54 " fill="none" filter="url(#fs5zcsdg1g2w8)" style="stroke: #A80036; stroke-width: 2.0;"/><ellipse cx="495" cy="54" fill="#FFFFFF" filter="url(#fs5zcsdg1g2w8)" rx="12" ry="12" style="stroke: #A80036; stroke-width: 2.0;"/><text fill="#000000" font-family="sans-serif" font-size="14" lengthAdjust="spacingAndGlyphs" textLength="18" x="474.5" y="242.5488">cpl</text><path d="M466,249.625 L466,273.625 M466,261.625 L483,261.625 " fill="none" filter="url(#fs5zcsdg1g2w8)" style="stroke: #A80036; stroke-width: 2.0;"/><ellipse cx="495" cy="261.625" fill="#FFFFFF" filter="url(#fs5zcsdg1g2w8)" rx="12" ry="12" style="stroke: #A80036; stroke-width: 2.0;"/><polygon fill="#A80036" points="288.5,115.9609,298.5,119.9609,288.5,123.9609,292.5,119.9609" style="stroke: #A80036; stroke-width: 1.0;"/><line style="stroke: #A80036; stroke-width: 1.0;" x1="54" x2="294.5" y1="119.9609" y2="119.9609"/><text fill="#000000" font-family="sans-serif" font-size="13" lengthAdjust="spacingAndGlyphs" textLength="113" x="61" y="115.1045">Release Resources</text><polygon fill="#A80036" points="474.5,146.3125,484.5,150.3125,474.5,150.3125" style="stroke: #A80036; stroke-width: 1.0;"/><line style="stroke: #A80036; stroke-width: 1.0;" x1="143" x2="485.5" y1="150.3125" y2="150.3125"/><text fill="#000000" font-family="sans-serif" font-size="13" lengthAdjust="spacingAndGlyphs" textLength="51" x="150" y="145.4561">method()</text><polygon fill="#A80036" points="154,181.6641,144,181.6641,154,185.6641" style="stroke: #A80036; stroke-width: 1.0;"/><line style="stroke: #A80036; stroke-width: 1.0; stroke-dasharray: 2.0,2.0;" x1="143" x2="485.5" y1="180.6641" y2="180.6641"/><text fill="#000000" font-family="sans-serif" font-size="13" lengthAdjust="spacingAndGlyphs" textLength="78" x="160" y="175.8076">Model.Event2</text><polygon fill="#A80036" points="288.5,212.0156,298.5,212.0156,288.5,216.0156" style="stroke: #A80036; stroke-width: 1.0;"/><line style="stroke: #A80036; stroke-width: 1.0; stroke-dasharray: 2.0,2.0;" x1="143" x2="299.5" y1="211.0156" y2="211.0156"/><text fill="#000000" font-family="sans-serif" font-size="13" lengthAdjust="spacingAndGlyphs" textLength="58" x="150" y="206.1592">method2()</text><!--
@startuml

actor "IT Operations"


entity EventBus

box Software Defined Infrastructure #lightyellow
    boundary sdi #white
end box



"IT Operations" -> sdi: Release Resources



box "Common Physical Layer" #lightgray
    boundary cpl #white
end box
EventBus -\ cpl: method()
cpl - -/ EventBus: Model.Event2

EventBus - -/ sdi : method2()
@enduml

PlantUML version 1.2019.05(Sat Apr 20 09:45:36 PDT 2019)
(GPL source distribution)
Java Runtime: OpenJDK Runtime Environment
JVM: OpenJDK 64-Bit Server VM
Java Version: 12.0.1+12
Operating System: Windows 10
OS Version: 10.0
Default Encoding: Cp1252
Language: en
Country: US
--></g></svg>