<?xml version="1.0" encoding="UTF-8" standalone="no"?><svg xmlns="http://www.w3.org/2000/svg" xmlns:xlink="http://www.w3.org/1999/xlink" contentScriptType="application/ecmascript" contentStyleType="text/css" height="685px" preserveAspectRatio="none" style="width:673px;height:685px;" version="1.1" viewBox="0 0 673 685" width="673px" zoomAndPan="magnify"><defs><filter height="300%" id="fvtsr8aaeexjb" width="300%" x="-1" y="-1"><feGaussianBlur result="blurOut" stdDeviation="2.0"/><feColorMatrix in="blurOut" result="blurOut2" type="matrix" values="0 0 0 0 0 0 0 0 0 0 0 0 0 0 0 0 0 0 .4 0"/><feOffset dx="4.0" dy="4.0" in="blurOut2" result="blurOut3"/><feBlend in="SourceGraphic" in2="blurOut3" mode="normal"/></filter></defs><g><!--cluster Insite Services--><polygon fill="#ADD8E6" filter="url(#fvtsr8aaeexjb)" points="45.5,84,156.5,84,163.5,107.6094,651.5,107.6094,651.5,673,45.5,673,45.5,84" style="stroke: #000000; stroke-width: 1.5;"/><line style="stroke: #000000; stroke-width: 1.5;" x1="45.5" x2="163.5" y1="107.6094" y2="107.6094"/><text fill="#000000" font-family="sans-serif" font-size="14" font-weight="bold" lengthAdjust="spacingAndGlyphs" textLength="105" x="49.5" y="100.5332">Insite Services</text><!--cluster bin--><polygon fill="#FFFFFF" filter="url(#fvtsr8aaeexjb)" points="158.5,128,186.5,128,193.5,151.6094,366.5,151.6094,366.5,218,158.5,218,158.5,128" style="stroke: #000000; stroke-width: 1.5;"/><line style="stroke: #000000; stroke-width: 1.5;" x1="158.5" x2="193.5" y1="151.6094" y2="151.6094"/><text fill="#000000" font-family="sans-serif" font-size="14" font-weight="bold" lengthAdjust="spacingAndGlyphs" textLength="22" x="162.5" y="144.5332">bin</text><!--cluster deploy--><polygon fill="#FFFFFF" filter="url(#fvtsr8aaeexjb)" points="69.5,324,122.5,324,129.5,347.6094,627.5,347.6094,627.5,431,69.5,431,69.5,324" style="stroke: #000000; stroke-width: 1.5;"/><line style="stroke: #000000; stroke-width: 1.5;" x1="69.5" x2="129.5" y1="347.6094" y2="347.6094"/><text fill="#000000" font-family="sans-serif" font-size="14" font-weight="bold" lengthAdjust="spacingAndGlyphs" textLength="47" x="73.5" y="340.5332">deploy</text><!--cluster images--><polygon fill="#FFFFFF" filter="url(#fvtsr8aaeexjb)" points="161.5,455,217.5,455,224.5,478.6094,627.5,478.6094,627.5,649,161.5,649,161.5,455" style="stroke: #000000; stroke-width: 1.5;"/><line style="stroke: #000000; stroke-width: 1.5;" x1="161.5" x2="224.5" y1="478.6094" y2="478.6094"/><text fill="#000000" font-family="sans-serif" font-size="14" font-weight="bold" lengthAdjust="spacingAndGlyphs" textLength="50" x="165.5" y="471.5332">images</text><!--entity REST--><rect fill="#FEFECE" filter="url(#fvtsr8aaeexjb)" height="37.6094" style="stroke: #A80036; stroke-width: 1.5;" width="69" x="228" y="262"/><rect fill="#FEFECE" height="5" style="stroke: #A80036; stroke-width: 1.5;" width="10" x="223" y="267"/><rect fill="#FEFECE" height="5" style="stroke: #A80036; stroke-width: 1.5;" width="10" x="223" y="289.6094"/><text fill="#000000" font-family="sans-serif" font-size="14" lengthAdjust="spacingAndGlyphs" textLength="49" x="238" y="286.5332">express</text><!--entity socket--><rect fill="#FEFECE" filter="url(#fvtsr8aaeexjb)" height="37.6094" style="stroke: #A80036; stroke-width: 1.5;" width="76" x="413.5" y="164"/><rect fill="#FEFECE" height="5" style="stroke: #A80036; stroke-width: 1.5;" width="10" x="408.5" y="169"/><rect fill="#FEFECE" height="5" style="stroke: #A80036; stroke-width: 1.5;" width="10" x="408.5" y="191.6094"/><text fill="#000000" font-family="sans-serif" font-size="14" lengthAdjust="spacingAndGlyphs" textLength="56" x="423.5" y="188.5332">socket.io</text><!--entity binName--><rect fill="#FEFECE" filter="url(#fvtsr8aaeexjb)" height="37.6094" style="stroke: #A80036; stroke-width: 1.5;" width="176" x="174.5" y="164"/><rect fill="#FEFECE" height="5" style="stroke: #A80036; stroke-width: 1.5;" width="10" x="169.5" y="169"/><rect fill="#FEFECE" height="5" style="stroke: #A80036; stroke-width: 1.5;" width="10" x="169.5" y="191.6094"/><text fill="#000000" font-family="sans-serif" font-size="14" lengthAdjust="spacingAndGlyphs" textLength="156" x="184.5" y="188.5332">edgemere diml cds insite</text><!--entity insite_container--><polygon fill="#FEFECE" filter="url(#fvtsr8aaeexjb)" points="85.5,360,85.5,415.2188,235.5,415.2188,235.5,370,225.5,360,85.5,360" style="stroke: #000000; stroke-width: 1.5;"/><path d="M225.5,360 L225.5,370 L235.5,370 " fill="#FEFECE" style="stroke: #000000; stroke-width: 1.5;"/><text fill="#000000" font-family="sans-serif" font-size="14" lengthAdjust="spacingAndGlyphs" textLength="90" x="95.5" y="384.5332">node server.js</text><text fill="#000000" font-family="sans-serif" font-size="14" lengthAdjust="spacingAndGlyphs" textLength="130" x="95.5" y="402.1426">docker-compose.yml</text><!--entity web_container--><polygon fill="#FEFECE" filter="url(#fvtsr8aaeexjb)" points="472,368.5,472,406.1094,611,406.1094,611,378.5,601,368.5,472,368.5" style="stroke: #000000; stroke-width: 1.5;"/><path d="M601,368.5 L601,378.5 L611,378.5 " fill="#FEFECE" style="stroke: #000000; stroke-width: 1.5;"/><text fill="#000000" font-family="sans-serif" font-size="14" lengthAdjust="spacingAndGlyphs" textLength="119" x="482" y="393.0332">node web/server.js</text><!--entity gateway_container--><polygon fill="#FEFECE" filter="url(#fvtsr8aaeexjb)" points="270.5,368.5,270.5,406.1094,436.5,406.1094,436.5,378.5,426.5,368.5,270.5,368.5" style="stroke: #000000; stroke-width: 1.5;"/><path d="M426.5,368.5 L426.5,378.5 L436.5,378.5 " fill="#FEFECE" style="stroke: #000000; stroke-width: 1.5;"/><text fill="#000000" font-family="sans-serif" font-size="14" lengthAdjust="spacingAndGlyphs" textLength="146" x="280.5" y="393.0332">node gateway/server.js</text><!--entity insiteimage--><rect fill="#FEFECE" filter="url(#fvtsr8aaeexjb)" height="33.6094" style="stroke: #000000; stroke-width: 1.5;" width="49" x="182" y="496.5"/><rect fill="#FEFECE" height="33.6094" style="stroke: #000000; stroke-width: 1.5;" width="49" x="178" y="492.5"/><text fill="#000000" font-family="sans-serif" font-size="14" lengthAdjust="spacingAndGlyphs" textLength="33" x="186" y="515.0332">insite</text><!--entity ailtireswarm--><rect fill="#FEFECE" filter="url(#fvtsr8aaeexjb)" height="40.6094" style="stroke: #000000; stroke-width: 1.5;" width="108" x="177.5" y="592"/><polygon fill="#FEFECE" points="268.5,597,268.5,611,280.5,611,280.5,603,274.5,597,268.5,597" style="stroke: #000000; stroke-width: 1.5;"/><line style="stroke: #000000; stroke-width: 1.5;" x1="274.5" x2="274.5" y1="597" y2="603"/><line style="stroke: #000000; stroke-width: 1.5;" x1="280.5" x2="274.5" y1="603" y2="603"/><text fill="#000000" font-family="sans-serif" font-size="14" lengthAdjust="spacingAndGlyphs" textLength="78" x="187.5" y="619.5332">ailtire:swarm</text><!--entity diml_cds_insite_web--><rect fill="#FEFECE" filter="url(#fvtsr8aaeexjb)" height="40.6094" style="stroke: #000000; stroke-width: 1.5;" width="159" x="452" y="491"/><polygon fill="#FEFECE" points="594,496,594,510,606,510,606,502,600,496,594,496" style="stroke: #000000; stroke-width: 1.5;"/><line style="stroke: #000000; stroke-width: 1.5;" x1="600" x2="600" y1="496" y2="502"/><line style="stroke: #000000; stroke-width: 1.5;" x1="606" x2="600" y1="502" y2="502"/><text fill="#000000" font-family="sans-serif" font-size="14" lengthAdjust="spacingAndGlyphs" textLength="129" x="462" y="518.5332">diml_cds_insite_web</text><!--entity diml_cds_insite_gw--><rect fill="#FEFECE" filter="url(#fvtsr8aaeexjb)" height="40.6094" style="stroke: #000000; stroke-width: 1.5;" width="151" x="266" y="491"/><polygon fill="#FEFECE" points="400,496,400,510,412,510,412,502,406,496,400,496" style="stroke: #000000; stroke-width: 1.5;"/><line style="stroke: #000000; stroke-width: 1.5;" x1="406" x2="406" y1="496" y2="502"/><line style="stroke: #000000; stroke-width: 1.5;" x1="412" x2="406" y1="502" y2="502"/><text fill="#000000" font-family="sans-serif" font-size="14" lengthAdjust="spacingAndGlyphs" textLength="121" x="276" y="518.5332">diml_cds_insite_gw</text><!--entity CLI--><ellipse cx="262.5" cy="38" fill="#FEFECE" filter="url(#fvtsr8aaeexjb)" rx="8" ry="8" style="stroke: #A80036; stroke-width: 2.0;"/><text fill="#000000" font-family="sans-serif" font-size="14" lengthAdjust="spacingAndGlyphs" textLength="21" x="252" y="69.5332">CLI</text><!--entity Web--><ellipse cx="20.5" cy="281" fill="#FEFECE" filter="url(#fvtsr8aaeexjb)" rx="8" ry="8" style="stroke: #A80036; stroke-width: 2.0;"/><text fill="#000000" font-family="sans-serif" font-size="14" lengthAdjust="spacingAndGlyphs" textLength="29" x="6" y="312.5332">Web</text><!--entity WebSocket--><ellipse cx="451.5" cy="38" fill="#FEFECE" filter="url(#fvtsr8aaeexjb)" rx="8" ry="8" style="stroke: #A80036; stroke-width: 2.0;"/><text fill="#000000" font-family="sans-serif" font-size="14" lengthAdjust="spacingAndGlyphs" textLength="72" x="415.5" y="69.5332">WebSocket</text><!--link binName to REST--><path d="M262.5,202.057 C262.5,217.513 262.5,239.865 262.5,256.673 " fill="none" id="binName-REST" style="stroke: #A80036; stroke-width: 1.0;"/><polygon fill="#A80036" points="262.5,261.698,266.5,252.698,262.5,256.698,258.5,252.698,262.5,261.698" style="stroke: #A80036; stroke-width: 1.0;"/><!--link REST to insite_container--><path d="M244.733,300.203 C229.769,315.533 208.044,337.791 190.405,355.862 " fill="none" id="REST-insite_container" style="stroke: #A80036; stroke-width: 1.0;"/><polygon fill="#A80036" points="186.478,359.885,195.6269,356.2383,189.9704,356.3069,189.9019,350.6504,186.478,359.885" style="stroke: #A80036; stroke-width: 1.0;"/><!--link REST to web_container--><path d="M297.334,282.96 C337.034,285.211 403.07,292.529 454.5,316 C480.15,327.706 504.66,348.776 521.09,364.843 " fill="none" id="REST-web_container" style="stroke: #A80036; stroke-width: 1.0;"/><polygon fill="#A80036" points="524.676,368.396,521.0978,359.2201,521.1241,364.8769,515.4673,364.9032,524.676,368.396" style="stroke: #A80036; stroke-width: 1.0;"/><!--link socket to web_container--><path d="M459.646,202.328 C476.111,239.375 513.317,323.087 531.338,363.635 " fill="none" id="socket-web_container" style="stroke: #A80036; stroke-width: 1.0;"/><polygon fill="#A80036" points="533.438,368.36,533.4389,358.5111,531.4077,363.7908,526.1281,361.7596,533.438,368.36" style="stroke: #A80036; stroke-width: 1.0;"/><!--link REST to gateway_container--><path d="M278.351,300.203 C293.784,317.925 317.279,344.905 333.883,363.972 " fill="none" id="REST-gateway_container" style="stroke: #A80036; stroke-width: 1.0;"/><polygon fill="#A80036" points="337.525,368.155,334.6293,358.7415,334.2407,364.385,328.5972,363.9964,337.525,368.155" style="stroke: #A80036; stroke-width: 1.0;"/><!--link socket to gateway_container--><path d="M442.63,202.328 C424.701,239.375 384.189,323.087 364.566,363.635 " fill="none" id="socket-gateway_container" style="stroke: #A80036; stroke-width: 1.0;"/><polygon fill="#A80036" points="362.279,368.36,369.7994,362.0004,364.4566,363.8591,362.5979,358.5163,362.279,368.36" style="stroke: #A80036; stroke-width: 1.0;"/><!--link insiteimage to ailtireswarm--><path d="M214.836,550.398 C218.682,564.499 222.891,579.932 226.116,591.7594 " fill="none" id="insiteimage-ailtireswarm" style="stroke: #A80036; stroke-width: 1.0;"/><polygon fill="none" points="207.961,551.795,209.452,530.658,221.468,548.112,207.961,551.795" style="stroke: #A80036; stroke-width: 1.0;"/><!--link insite_container to insiteimage--><path d="M170.156,415.273 C177.978,436.962 188.878,467.186 196.286,487.725 " fill="none" id="insite_container-insiteimage" style="stroke: #A80036; stroke-width: 1.0;"/><polygon fill="#A80036" points="197.997,492.469,198.7081,482.6458,196.3015,487.7653,191.1821,485.3587,197.997,492.469" style="stroke: #A80036; stroke-width: 1.0;"/><!--link web_container to diml_cds_insite_web--><path d="M540.024,406.502 C538.307,427.453 535.461,462.173 533.535,485.676 " fill="none" id="web_container-diml_cds_insite_web" style="stroke: #A80036; stroke-width: 1.0;"/><polygon fill="#A80036" points="533.114,490.805,537.8361,482.162,533.5226,485.8217,529.8629,481.5082,533.114,490.805" style="stroke: #A80036; stroke-width: 1.0;"/><!--link gateway_container to diml_cds_insite_gw--><path d="M351.729,406.502 C349.669,427.453 346.253,462.173 343.942,485.676 " fill="none" id="gateway_container-diml_cds_insite_gw" style="stroke: #A80036; stroke-width: 1.0;"/><polygon fill="#A80036" points="343.437,490.805,348.2998,482.2403,343.927,485.8291,340.3383,481.4563,343.437,490.805" style="stroke: #A80036; stroke-width: 1.0;"/><!--link CLI to binName--><path d="M262.5,47.098 C262.5,69.432 262.5,132.318 262.5,163.705 " fill="none" id="CLI-binName" style="stroke: #A80036; stroke-width: 1.0;"/><text fill="#000000" font-family="sans-serif" font-size="13" lengthAdjust="spacingAndGlyphs" textLength="145" x="100.2719" y="44.8877">edgemere diml cds insite</text><!--link Web to REST--><path d="M29.9531,281 C95.9625,281 161.972,281 227.981,281 " fill="none" id="Web-REST" style="stroke: #A80036; stroke-width: 1.0;"/><text fill="#000000" font-family="sans-serif" font-size="13" lengthAdjust="spacingAndGlyphs" textLength="149" x="37.4302" y="277.7983">/edgemere/diml/cds/insite</text><!--link WebSocket to socket--><path d="M451.5,47.098 C451.5,69.432 451.5,132.318 451.5,163.705 " fill="none" id="WebSocket-socket" style="stroke: #A80036; stroke-width: 1.0;"/><text fill="#000000" font-family="sans-serif" font-size="13" lengthAdjust="spacingAndGlyphs" textLength="149" x="285.2719" y="44.8877">.edgemere.diml.cds.insite</text><!--
@startuml
  interface CLI
  interface Web
  interface WebSocket
package "Insite Services" #lightblue {
  component express as REST
  component socket.io as socket
  folder bin #ffffff {
    component " edgemere diml cds insite" as binName
  }
  binName - -> REST

  folder deploy #ffffff {
      file "node server.js\ndocker-compose.yml" as insite_container
      REST - -> insite_container

  
    file "node web/server.js" as web_container
    REST - -> web_container
    socket - - -> web_container
  
    file "node gateway/server.js" as gateway_container
    REST - -> gateway_container
    socket - - -> gateway_container
  
  }
  folder images #ffffff {
    collections "insite" as insiteimage
    artifact "ailtire:swarm" as ailtireswarm
    insiteimage <|- - ailtireswarm
    insite_container - -> insiteimage

  
      artifact diml_cds_insite_web
      web_container - -> diml_cds_insite_web
    
      artifact diml_cds_insite_gw
      gateway_container - -> diml_cds_insite_gw
    
  }
}
CLI " edgemere diml cds insite" - - binName
Web "/edgemere/diml/cds/insite" - REST
WebSocket ".edgemere.diml.cds.insite" - - socket

@enduml

PlantUML version 1.2019.05(Sat Apr 20 09:45:36 PDT 2019)
(GPL source distribution)
Java Runtime: OpenJDK Runtime Environment
JVM: OpenJDK 64-Bit Server VM
Java Version: 12.0.1+12
Operating System: Windows 10
OS Version: 10.0
Default Encoding: Cp1252
Language: en
Country: US
--></g></svg>