<?xml version="1.0" encoding="UTF-8" standalone="no"?><svg xmlns="http://www.w3.org/2000/svg" xmlns:xlink="http://www.w3.org/1999/xlink" contentScriptType="application/ecmascript" contentStyleType="text/css" height="312px" preserveAspectRatio="none" style="width:368px;height:312px;" version="1.1" viewBox="0 0 368 312" width="368px" zoomAndPan="magnify"><defs><filter height="300%" id="f14fde2621m2d6" width="300%" x="-1" y="-1"><feGaussianBlur result="blurOut" stdDeviation="2.0"/><feColorMatrix in="blurOut" result="blurOut2" type="matrix" values="0 0 0 0 0 0 0 0 0 0 0 0 0 0 0 0 0 0 .4 0"/><feOffset dx="4.0" dy="4.0" in="blurOut2" result="blurOut3"/><feBlend in="SourceGraphic" in2="blurOut3" mode="normal"/></filter></defs><g><!--entity MultiCloud--><rect fill="#ADD8E6" filter="url(#f14fde2621m2d6)" height="37.6094" style="stroke: #000000; stroke-width: 1.5;" width="86" x="46" y="264"/><text fill="#000000" font-family="sans-serif" font-size="14" lengthAdjust="spacingAndGlyphs" textLength="66" x="56" y="288.5332">MultiCloud</text><!--entity PolicyCollection--><rect fill="#ADD8E6" filter="url(#f14fde2621m2d6)" height="37.6094" style="stroke: #000000; stroke-width: 1.5;" width="119" x="167.5" y="264"/><text fill="#000000" font-family="sans-serif" font-size="14" lengthAdjust="spacingAndGlyphs" textLength="99" x="177.5" y="288.5332">PolicyCollection</text><!--entity Servicelet--><rect fill="#90EE90" filter="url(#f14fde2621m2d6)" height="37.6094" style="stroke: #000000; stroke-width: 1.5;" width="82" x="6" y="8"/><text fill="#000000" font-family="sans-serif" font-size="14" lengthAdjust="spacingAndGlyphs" textLength="62" x="16" y="32.5332">Servicelet</text><!--entity Stacklet--><rect fill="#90EE90" filter="url(#f14fde2621m2d6)" height="37.6094" style="stroke: #000000; stroke-width: 1.5;" width="70" x="123" y="8"/><text fill="#000000" font-family="sans-serif" font-size="14" lengthAdjust="spacingAndGlyphs" textLength="50" x="133" y="32.5332">Stacklet</text><!--entity StackletDefinition--><rect fill="#90EE90" filter="url(#f14fde2621m2d6)" height="37.6094" style="stroke: #000000; stroke-width: 1.5;" width="129" x="228.5" y="8"/><text fill="#000000" font-family="sans-serif" font-size="14" lengthAdjust="spacingAndGlyphs" textLength="109" x="238.5" y="32.5332">StackletDefinition</text><!--class Model--><rect fill="#FEFECE" filter="url(#f14fde2621m2d6)" height="61.8359" id="Model" style="stroke: #A80036; stroke-width: 1.5;" width="101" x="107.5" y="124"/><ellipse cx="122.5" cy="140" fill="#ADD1B2" rx="11" ry="11" style="stroke: #A80036; stroke-width: 1.0;"/><path d="M125.2656,135.875 Q125.4219,135.6563 125.6094,135.5469 Q125.7969,135.4375 126.0156,135.4375 Q126.3906,135.4375 126.625,135.7031 Q126.8594,135.9531 126.8594,136.5625 L126.8594,138.0156 Q126.8594,138.625 126.625,138.8906 Q126.3906,139.1563 126.0156,139.1563 Q125.6719,139.1563 125.4688,138.9531 Q125.2656,138.7656 125.1563,138.25 Q125.1094,137.8906 124.9219,137.7031 Q124.5938,137.3281 123.9844,137.1094 Q123.375,136.8906 122.75,136.8906 Q121.9844,136.8906 121.3438,137.2188 Q120.7188,137.5469 120.2188,138.2969 Q119.7344,139.0469 119.7344,140.0781 L119.7344,141.1719 Q119.7344,142.4063 120.625,143.2344 Q121.5156,144.0469 123.1094,144.0469 Q124.0469,144.0469 124.7031,143.7969 Q125.0938,143.6406 125.5156,143.2031 Q125.7813,142.9375 125.9219,142.8594 Q126.0781,142.7813 126.2813,142.7813 Q126.6094,142.7813 126.8594,143.0469 Q127.125,143.2969 127.125,143.6406 Q127.125,143.9844 126.7813,144.3906 Q126.2813,144.9688 125.4844,145.2969 Q124.4063,145.75 123.1094,145.75 Q121.5938,145.75 120.3906,145.125 Q119.4063,144.625 118.7188,143.5625 Q118.0313,142.4844 118.0313,141.2031 L118.0313,140.0469 Q118.0313,138.7188 118.6406,137.5781 Q119.2656,136.4219 120.3594,135.8125 Q121.4531,135.1875 122.6875,135.1875 Q123.4219,135.1875 124.0625,135.3594 Q124.7188,135.5156 125.2656,135.875 Z "/><text fill="#000000" font-family="sans-serif" font-size="12" lengthAdjust="spacingAndGlyphs" textLength="69" x="136.5" y="144.9102">Environment</text><line style="stroke: #A80036; stroke-width: 1.5;" x1="108.5" x2="207.5" y1="156" y2="156"/><text fill="#000000" font-family="sans-serif" font-size="11" lengthAdjust="spacingAndGlyphs" textLength="56" x="113.5" y="171.4189">string name</text><line style="stroke: #A80036; stroke-width: 1.5;" x1="108.5" x2="207.5" y1="177.8359" y2="177.8359"/><!--link Model to MultiCloud--><path d="M135.124,197.773 C125.362,215.5991 114.194,235.9931 105.2927,252.2481 " fill="none" id="Model-MultiCloud" style="stroke: #A80036; stroke-width: 1.0;"/><polygon fill="#A80036" points="98.9883,263.7606,106.8195,257.788,101.3899,259.3751,99.8028,253.9455,98.9883,263.7606" style="stroke: #A80036; stroke-width: 1.0;"/><line style="stroke: #A80036; stroke-width: 1.0;" x1="101.3899" x2="105.2323" y1="259.3751" y2="252.3583"/><polygon fill="#FFFFFF" points="141.473,186.18,135.0826,189.521,135.7088,196.7049,142.0992,193.3639,141.473,186.18" style="stroke: #A80036; stroke-width: 1.0;"/><text fill="#000000" font-family="sans-serif" font-size="13" lengthAdjust="spacingAndGlyphs" textLength="38" x="125" y="230.4951">clouds</text><text fill="#000000" font-family="sans-serif" font-size="13" lengthAdjust="spacingAndGlyphs" textLength="7" x="93.9753" y="253.0273">n</text><!--link Model to PolicyCollection--><path d="M180.876,197.773 C190.638,215.5991 201.806,235.9931 210.707,252.2481 " fill="none" id="Model-PolicyCollection" style="stroke: #A80036; stroke-width: 1.0;"/><polygon fill="#A80036" points="217.012,263.7606,216.1973,253.9455,214.6103,259.3752,209.1806,257.7882,217.012,263.7606" style="stroke: #A80036; stroke-width: 1.0;"/><line style="stroke: #A80036; stroke-width: 1.0;" x1="214.6103" x2="210.7675" y1="259.3752" y2="252.3583"/><polygon fill="#FFFFFF" points="174.527,186.18,173.9008,193.3639,180.2912,196.7049,180.9174,189.521,174.527,186.18" style="stroke: #A80036; stroke-width: 1.0;"/><text fill="#000000" font-family="sans-serif" font-size="13" lengthAdjust="spacingAndGlyphs" textLength="44" x="202" y="230.4951">policies</text><text fill="#000000" font-family="sans-serif" font-size="13" lengthAdjust="spacingAndGlyphs" textLength="7" x="205.8813" y="253.0273">1</text><!--link Servicelet to Model--><path d="M71.5503,55.868 C86.5846,72.934 106.073,95.056 122.74,113.975 " fill="none" id="Servicelet-Model" style="stroke: #A80036; stroke-width: 1.0;"/><polygon fill="#A80036" points="131.411,123.817,128.4633,114.4196,128.1059,120.0652,122.4603,119.7078,131.411,123.817" style="stroke: #A80036; stroke-width: 1.0;"/><line style="stroke: #A80036; stroke-width: 1.0;" x1="128.1059" x2="122.817" y1="120.0652" y2="114.0625"/><polygon fill="#FFFFFF" points="62.9036,46.053,63.8681,53.1993,70.8357,55.0576,69.8712,47.9113,62.9036,46.053" style="stroke: #A80036; stroke-width: 1.0;"/><text fill="#000000" font-family="sans-serif" font-size="13" lengthAdjust="spacingAndGlyphs" textLength="19" x="104" y="90.4951">env</text><text fill="#000000" font-family="sans-serif" font-size="13" lengthAdjust="spacingAndGlyphs" textLength="7" x="118.2051" y="113.2838">1</text><!--link Stacklet to Model--><path d="M158,59.254 C158,74.813 158,93.869 158,110.801 " fill="none" id="Stacklet-Model" style="stroke: #A80036; stroke-width: 1.0;"/><polygon fill="#A80036" points="158,123.817,162,114.817,158,118.817,154,114.817,158,123.817" style="stroke: #A80036; stroke-width: 1.0;"/><line style="stroke: #A80036; stroke-width: 1.0;" x1="158" x2="158" y1="118.817" y2="110.817"/><polygon fill="#FFFFFF" points="158,46.053,154,52.053,158,58.053,162,52.053,158,46.053" style="stroke: #A80036; stroke-width: 1.0;"/><text fill="#000000" font-family="sans-serif" font-size="13" lengthAdjust="spacingAndGlyphs" textLength="19" x="159" y="90.4951">env</text><text fill="#000000" font-family="sans-serif" font-size="13" lengthAdjust="spacingAndGlyphs" textLength="7" x="150.2781" y="113.2838">1</text><!--link StackletDefinition to Model--><path d="M264.028,55.041 C245.333,72.489 220.711,95.469 199.901,114.893 " fill="none" id="StackletDefinition-Model" style="stroke: #A80036; stroke-width: 1.0;"/><polygon fill="#A80036" points="190.339,123.817,199.6476,120.6,193.9941,120.4053,194.1889,114.7518,190.339,123.817" style="stroke: #A80036; stroke-width: 1.0;"/><line style="stroke: #A80036; stroke-width: 1.0;" x1="193.9941" x2="199.8425" y1="120.4053" y2="114.947"/><polygon fill="#FFFFFF" points="273.658,46.053,266.5425,47.2235,264.8863,54.2419,272.0018,53.0713,273.658,46.053" style="stroke: #A80036; stroke-width: 1.0;"/><text fill="#000000" font-family="sans-serif" font-size="13" lengthAdjust="spacingAndGlyphs" textLength="19" x="243" y="90.4951">env</text><text fill="#000000" font-family="sans-serif" font-size="13" lengthAdjust="spacingAndGlyphs" textLength="7" x="189.287" y="113.2838">1</text><!--
@startuml

class "Environment" as Model {
 string name

 
}

rectangle "MultiCloud" as MultiCloud #lightblue {
}

Model o- -> "n" MultiCloud : clouds


rectangle "PolicyCollection" as PolicyCollection #lightblue {
}

Model o- -> "1" PolicyCollection : policies




    rectangle "Servicelet" as Servicelet #lightgreen {
    }
    
        Servicelet   o- -> "1" Model : "env"
    
    rectangle "Stacklet" as Stacklet #lightgreen {
    }
    
        Stacklet   o- -> "1" Model : "env"
    
    rectangle "StackletDefinition" as StackletDefinition #lightgreen {
    }
    
        StackletDefinition   o- -> "1" Model : "env"
    

@enduml

PlantUML version 1.2019.05(Sat Apr 20 09:45:36 PDT 2019)
(GPL source distribution)
Java Runtime: OpenJDK Runtime Environment
JVM: OpenJDK 64-Bit Server VM
Java Version: 12.0.1+12
Operating System: Windows 10
OS Version: 10.0
Default Encoding: Cp1252
Language: en
Country: US
--></g></svg>