<?xml version="1.0" encoding="UTF-8" standalone="no"?><svg xmlns="http://www.w3.org/2000/svg" xmlns:xlink="http://www.w3.org/1999/xlink" contentScriptType="application/ecmascript" contentStyleType="text/css" height="210px" preserveAspectRatio="none" style="width:533px;height:210px;" version="1.1" viewBox="0 0 533 210" width="533px" zoomAndPan="magnify"><defs><filter height="300%" id="fji7j99oup7a7" width="300%" x="-1" y="-1"><feGaussianBlur result="blurOut" stdDeviation="2.0"/><feColorMatrix in="blurOut" result="blurOut2" type="matrix" values="0 0 0 0 0 0 0 0 0 0 0 0 0 0 0 0 0 0 .4 0"/><feOffset dx="4.0" dy="4.0" in="blurOut2" result="blurOut3"/><feBlend in="SourceGraphic" in2="blurOut3" mode="normal"/></filter></defs><g><!--entity Workload--><rect fill="#ADD8E6" filter="url(#fji7j99oup7a7)" height="37.6094" style="stroke: #000000; stroke-width: 1.5;" width="80" x="114.0688" y="162"/><text fill="#000000" font-family="sans-serif" font-size="14" lengthAdjust="spacingAndGlyphs" textLength="60" x="124.0688" y="186.5332">Workload</text><!--entity Stack--><rect fill="#90EE90" filter="url(#fji7j99oup7a7)" height="37.6094" style="stroke: #000000; stroke-width: 1.5;" width="55" x="11.5688" y="162"/><text fill="#000000" font-family="sans-serif" font-size="14" lengthAdjust="spacingAndGlyphs" textLength="35" x="21.5688" y="186.5332">Stack</text><!--entity DataReference--><rect fill="#ADD8E6" filter="url(#fji7j99oup7a7)" height="37.6094" style="stroke: #000000; stroke-width: 1.5;" width="116" x="229.0688" y="162"/><text fill="#000000" font-family="sans-serif" font-size="14" lengthAdjust="spacingAndGlyphs" textLength="96" x="239.0688" y="186.5332">DataReference</text><!--entity ApplicationInstance--><rect fill="#ADD8E6" filter="url(#fji7j99oup7a7)" height="37.6094" style="stroke: #000000; stroke-width: 1.5;" width="142" x="380.0688" y="162"/><text fill="#000000" font-family="sans-serif" font-size="14" lengthAdjust="spacingAndGlyphs" textLength="122" x="390.0688" y="186.5332">ApplicationInstance</text><!--class Model--><rect fill="#FEFECE" filter="url(#fji7j99oup7a7)" height="75.6719" id="Model" style="stroke: #A80036; stroke-width: 1.5;" width="92" x="125.0688" y="8"/><ellipse cx="140.0688" cy="24" fill="#ADD1B2" rx="11" ry="11" style="stroke: #A80036; stroke-width: 1.0;"/><path d="M142.8344,19.875 Q142.9907,19.6563 143.1782,19.5469 Q143.3657,19.4375 143.5844,19.4375 Q143.9594,19.4375 144.1938,19.7031 Q144.4282,19.9531 144.4282,20.5625 L144.4282,22.0156 Q144.4282,22.625 144.1938,22.8906 Q143.9594,23.1563 143.5844,23.1563 Q143.2407,23.1563 143.0376,22.9531 Q142.8344,22.7656 142.7251,22.25 Q142.6782,21.8906 142.4907,21.7031 Q142.1626,21.3281 141.5532,21.1094 Q140.9438,20.8906 140.3188,20.8906 Q139.5532,20.8906 138.9126,21.2188 Q138.2876,21.5469 137.7876,22.2969 Q137.3032,23.0469 137.3032,24.0781 L137.3032,25.1719 Q137.3032,26.4063 138.1938,27.2344 Q139.0844,28.0469 140.6782,28.0469 Q141.6157,28.0469 142.2719,27.7969 Q142.6626,27.6406 143.0844,27.2031 Q143.3501,26.9375 143.4907,26.8594 Q143.6469,26.7813 143.8501,26.7813 Q144.1782,26.7813 144.4282,27.0469 Q144.6938,27.2969 144.6938,27.6406 Q144.6938,27.9844 144.3501,28.3906 Q143.8501,28.9688 143.0532,29.2969 Q141.9751,29.75 140.6782,29.75 Q139.1626,29.75 137.9594,29.125 Q136.9751,28.625 136.2876,27.5625 Q135.6001,26.4844 135.6001,25.2031 L135.6001,24.0469 Q135.6001,22.7188 136.2094,21.5781 Q136.8344,20.4219 137.9282,19.8125 Q139.0219,19.1875 140.2563,19.1875 Q140.9907,19.1875 141.6313,19.3594 Q142.2876,19.5156 142.8344,19.875 Z "/><text fill="#000000" font-family="sans-serif" font-size="12" lengthAdjust="spacingAndGlyphs" textLength="60" x="154.0688" y="28.9102">Application</text><line style="stroke: #A80036; stroke-width: 1.5;" x1="126.0688" x2="216.0688" y1="40" y2="40"/><text fill="#000000" font-family="sans-serif" font-size="11" lengthAdjust="spacingAndGlyphs" textLength="56" x="131.0688" y="55.4189">string name</text><text fill="#000000" font-family="sans-serif" font-size="11" lengthAdjust="spacingAndGlyphs" textLength="66" x="131.0688" y="69.2549">string version</text><line style="stroke: #A80036; stroke-width: 1.5;" x1="126.0688" x2="216.0688" y1="75.6719" y2="75.6719"/><!--link Model to Workload--><path d="M164.6748,97.023 C162.4508,114.4208 160.0218,133.4241 158.0508,148.8498 " fill="none" id="Model-Workload" style="stroke: #A80036; stroke-width: 1.0;"/><polygon fill="#A80036" points="156.3868,161.8618,161.4956,153.4416,157.0207,156.9021,153.5602,152.4273,156.3868,161.8618" style="stroke: #A80036; stroke-width: 1.0;"/><line style="stroke: #A80036; stroke-width: 1.0;" x1="157.0207" x2="158.0353" y1="156.9021" y2="148.9667"/><polygon fill="#FFFFFF" points="166.3338,84.048,161.6053,89.4923,164.8121,95.9511,169.5407,90.5068,166.3338,84.048" style="stroke: #A80036; stroke-width: 1.0;"/><text fill="#000000" font-family="sans-serif" font-size="13" lengthAdjust="spacingAndGlyphs" textLength="58" x="163.0688" y="128.4951">workloads</text><text fill="#000000" font-family="sans-serif" font-size="13" lengthAdjust="spacingAndGlyphs" textLength="7" x="149.0248" y="151.1595">n</text><!--link Model to Stack--><path d="M112.0448,57.881 C80.1705,67.088 43.4709,83.835 24.0688,114 C17.2534,124.5962 18.7781,137.8938 22.8524,149.7713 " fill="none" id="Model-Stack" style="stroke: #A80036; stroke-width: 1.0;"/><polygon fill="#A80036" points="28,161.9071,28.168,152.0597,26.0475,157.3041,20.8031,155.1836,28,161.9071" style="stroke: #A80036; stroke-width: 1.0;"/><line style="stroke: #A80036; stroke-width: 1.0;" x1="26.0475" x2="22.9236" y1="157.3041" y2="149.9393"/><polygon fill="#A80036" points="124.8868,54.489,118.0643,52.1537,113.2846,57.5531,120.1071,59.8885,124.8868,54.489" style="stroke: #A80036; stroke-width: 1.0;"/><text fill="#000000" font-family="sans-serif" font-size="13" lengthAdjust="spacingAndGlyphs" textLength="39" x="25.0688" y="128.4951">stacks</text><text fill="#000000" font-family="sans-serif" font-size="13" lengthAdjust="spacingAndGlyphs" textLength="7" x="16.5383" y="151.2187">n</text><!--link Stack to Model--><path d="M66.345,152.5172 C83.2224,135.5119 105.327,113.2398 124.8758,93.542 " fill="none" id="Stack-Model" style="stroke: #A80036; stroke-width: 1.0;"/><polygon fill="#A80036" points="134.2998,84.048,125.1207,87.6178,130.7775,87.5967,130.7986,93.2535,134.2998,84.048" style="stroke: #A80036; stroke-width: 1.0;"/><line style="stroke: #A80036; stroke-width: 1.0;" x1="130.7775" x2="125.1418" y1="87.5967" y2="93.275"/><polygon fill="#FFFFFF" points="57.0707,161.8618,64.1364,160.4209,65.524,153.3446,58.4583,154.7855,57.0707,161.8618" style="stroke: #A80036; stroke-width: 1.0;"/><text fill="#000000" font-family="sans-serif" font-size="13" lengthAdjust="spacingAndGlyphs" textLength="21" x="103.0688" y="128.4951">app</text><text fill="#000000" font-family="sans-serif" font-size="13" lengthAdjust="spacingAndGlyphs" textLength="7" x="120.6303" y="105.2261">1</text><!--link Model to DataReference--><path d="M212.8768,94.362 C218.6618,100.9492 224.5198,107.6374 230.0688,114 C240.8108,126.318 252.6298,139.9836 262.7058,151.6698 " fill="none" id="Model-DataReference" style="stroke: #A80036; stroke-width: 1.0;"/><polygon fill="#A80036" points="271.3898,161.7501,268.5467,152.3205,268.1266,157.9618,262.4853,157.5417,271.3898,161.7501" style="stroke: #A80036; stroke-width: 1.0;"/><line style="stroke: #A80036; stroke-width: 1.0;" x1="268.1266" x2="262.9053" y1="157.9618" y2="151.9008"/><polygon fill="#FFFFFF" points="203.9008,84.155,204.8593,91.3021,211.8253,93.1662,210.8668,86.0191,203.9008,84.155" style="stroke: #A80036; stroke-width: 1.0;"/><text fill="#000000" font-family="sans-serif" font-size="13" lengthAdjust="spacingAndGlyphs" textLength="25" x="246.0688" y="128.4951">data</text><text fill="#000000" font-family="sans-serif" font-size="13" lengthAdjust="spacingAndGlyphs" textLength="7" x="258.5162" y="151.0136">n</text><!--link Model to ApplicationInstance--><path d="M229.3358,74.677 C280.0288,98.756 352.7238,133.286 400.8818,156.161 " fill="none" id="Model-ApplicationInstance" style="stroke: #A80036; stroke-width: 1.0;"/><polygon fill="#A80036" points="412.8698,161.8553,406.4562,154.381,408.3533,159.7102,403.0241,161.6073,412.8698,161.8553" style="stroke: #A80036; stroke-width: 1.0;"/><line style="stroke: #A80036; stroke-width: 1.0;" x1="408.3533" x2="401.1268" y1="159.7102" y2="156.2775"/><polygon fill="#A80036" points="217.3048,68.962,221.0086,75.1493,228.1444,74.1101,224.4407,67.9229,217.3048,68.962" style="stroke: #A80036; stroke-width: 1.0;"/><text fill="#000000" font-family="sans-serif" font-size="13" lengthAdjust="spacingAndGlyphs" textLength="56" x="346.0688" y="128.4951">instances</text><text fill="#000000" font-family="sans-serif" font-size="13" lengthAdjust="spacingAndGlyphs" textLength="7" x="393.0995" y="151.151">n</text><!--
@startuml

class "Application" as Model {
 string name
 string version

 
}

rectangle "Workload" as Workload #lightblue {
}

Model o- -> "n" Workload : workloads


rectangle "Stack" as Stack #lightblue {
}

Model *- -> "n" Stack : stacks


rectangle "DataReference" as DataReference #lightblue {
}

Model o- -> "n" DataReference : data


rectangle "ApplicationInstance" as ApplicationInstance #lightblue {
}

Model *- -> "n" ApplicationInstance : instances




    rectangle "Stack" as Stack #lightgreen {
    }
    
        Stack   o- -> "1" Model : "app"
    

@enduml

PlantUML version 1.2019.05(Sat Apr 20 09:45:36 PDT 2019)
(GPL source distribution)
Java Runtime: OpenJDK Runtime Environment
JVM: OpenJDK 64-Bit Server VM
Java Version: 12.0.1+12
Operating System: Windows 10
OS Version: 10.0
Default Encoding: Cp1252
Language: en
Country: US
--></g></svg>