<?xml version="1.0" encoding="UTF-8" standalone="no"?><svg xmlns="http://www.w3.org/2000/svg" xmlns:xlink="http://www.w3.org/1999/xlink" contentScriptType="application/ecmascript" contentStyleType="text/css" height="224px" preserveAspectRatio="none" style="width:183px;height:224px;" version="1.1" viewBox="0 0 183 224" width="183px" zoomAndPan="magnify"><defs><filter height="300%" id="f8wh5grs024hr" width="300%" x="-1" y="-1"><feGaussianBlur result="blurOut" stdDeviation="2.0"/><feColorMatrix in="blurOut" result="blurOut2" type="matrix" values="0 0 0 0 0 0 0 0 0 0 0 0 0 0 0 0 0 0 .4 0"/><feOffset dx="4.0" dy="4.0" in="blurOut2" result="blurOut3"/><feBlend in="SourceGraphic" in2="blurOut3" mode="normal"/></filter></defs><g><!--entity ResourceInstanceType--><rect fill="#90EE90" filter="url(#f8wh5grs024hr)" height="37.6094" style="stroke: #000000; stroke-width: 1.5;" width="166" x="6" y="8"/><text fill="#000000" font-family="sans-serif" font-size="14" lengthAdjust="spacingAndGlyphs" textLength="146" x="16" y="32.5332">ResourceInstanceType</text><!--class Model--><rect fill="#FEFECE" filter="url(#f8wh5grs024hr)" height="89.5078" id="Model" style="stroke: #A80036; stroke-width: 1.5;" width="112" x="33" y="124"/><ellipse cx="48" cy="140" fill="#ADD1B2" rx="11" ry="11" style="stroke: #A80036; stroke-width: 1.0;"/><path d="M50.7656,135.875 Q50.9219,135.6563 51.1094,135.5469 Q51.2969,135.4375 51.5156,135.4375 Q51.8906,135.4375 52.125,135.7031 Q52.3594,135.9531 52.3594,136.5625 L52.3594,138.0156 Q52.3594,138.625 52.125,138.8906 Q51.8906,139.1563 51.5156,139.1563 Q51.1719,139.1563 50.9688,138.9531 Q50.7656,138.7656 50.6563,138.25 Q50.6094,137.8906 50.4219,137.7031 Q50.0938,137.3281 49.4844,137.1094 Q48.875,136.8906 48.25,136.8906 Q47.4844,136.8906 46.8438,137.2188 Q46.2188,137.5469 45.7188,138.2969 Q45.2344,139.0469 45.2344,140.0781 L45.2344,141.1719 Q45.2344,142.4063 46.125,143.2344 Q47.0156,144.0469 48.6094,144.0469 Q49.5469,144.0469 50.2031,143.7969 Q50.5938,143.6406 51.0156,143.2031 Q51.2813,142.9375 51.4219,142.8594 Q51.5781,142.7813 51.7813,142.7813 Q52.1094,142.7813 52.3594,143.0469 Q52.625,143.2969 52.625,143.6406 Q52.625,143.9844 52.2813,144.3906 Q51.7813,144.9688 50.9844,145.2969 Q49.9063,145.75 48.6094,145.75 Q47.0938,145.75 45.8906,145.125 Q44.9063,144.625 44.2188,143.5625 Q43.5313,142.4844 43.5313,141.2031 L43.5313,140.0469 Q43.5313,138.7188 44.1406,137.5781 Q44.7656,136.4219 45.8594,135.8125 Q46.9531,135.1875 48.1875,135.1875 Q48.9219,135.1875 49.5625,135.3594 Q50.2188,135.5156 50.7656,135.875 Z "/><text fill="#000000" font-family="sans-serif" font-size="12" lengthAdjust="spacingAndGlyphs" textLength="80" x="62" y="144.9102">ResourceCost</text><line style="stroke: #A80036; stroke-width: 1.5;" x1="34" x2="144" y1="156" y2="156"/><text fill="#000000" font-family="sans-serif" font-size="11" lengthAdjust="spacingAndGlyphs" textLength="56" x="39" y="171.4189">string name</text><text fill="#000000" font-family="sans-serif" font-size="11" lengthAdjust="spacingAndGlyphs" textLength="74" x="39" y="185.2549">number amount</text><text fill="#000000" font-family="sans-serif" font-size="11" lengthAdjust="spacingAndGlyphs" textLength="53" x="39" y="199.0908">string units</text><line style="stroke: #A80036; stroke-width: 1.5;" x1="34" x2="144" y1="205.5078" y2="205.5078"/><!--link Model to ResourceInstanceType--><path d="M89,110.675 C89,93.012 89,74.236 89,59.048 " fill="none" id="Model-ResourceInstanceType" style="stroke: #A80036; stroke-width: 1.0;"/><polygon fill="#A80036" points="89,46.016,85,55.016,89,51.016,93,55.016,89,46.016" style="stroke: #A80036; stroke-width: 1.0;"/><line style="stroke: #A80036; stroke-width: 1.0;" x1="89" x2="89.0001" y1="51.016" y2="59.016"/><polygon fill="#FFFFFF" points="89,123.887,93,117.887,89,111.887,85,117.887,89,123.887" style="stroke: #A80036; stroke-width: 1.0;"/><text fill="#000000" font-family="sans-serif" font-size="13" lengthAdjust="spacingAndGlyphs" textLength="36" x="90" y="90.4951">parent</text><text fill="#000000" font-family="sans-serif" font-size="13" lengthAdjust="spacingAndGlyphs" textLength="7" x="81.0156" y="67.2137">1</text><!--link ResourceInstanceType to Model--><path d="M58.4961,56.368 C53.7915,62.359 49.6289,69.003 47,76 C42.5999,87.711 43.9025,100.029 48.0742,111.71 " fill="none" id="ResourceInstanceType-Model" style="stroke: #A80036; stroke-width: 1.0;"/><polygon fill="#A80036" points="53.3415,123.5999,53.3532,113.751,51.3163,119.0284,46.0389,116.9914,53.3415,123.5999" style="stroke: #A80036; stroke-width: 1.0;"/><line style="stroke: #A80036; stroke-width: 1.0;" x1="51.3163" x2="48.0759" y1="119.0284" y2="111.714"/><polygon fill="#A80036" points="67.3357,46.354,60.3661,48.2046,59.3937,55.3498,66.3633,53.4992,67.3357,46.354" style="stroke: #A80036; stroke-width: 1.0;"/><text fill="#000000" font-family="sans-serif" font-size="13" lengthAdjust="spacingAndGlyphs" textLength="32" x="48" y="90.4951">costs</text><text fill="#000000" font-family="sans-serif" font-size="13" lengthAdjust="spacingAndGlyphs" textLength="7" x="40.3454" y="112.9828">n</text><!--
@startuml

class "ResourceCost" as Model {
 string name
 number amount
 string units

 
}

rectangle "ResourceInstanceType" as ResourceInstanceType #lightblue {
}

Model o- -> "1" ResourceInstanceType : parent




    rectangle "ResourceInstanceType" as ResourceInstanceType #lightgreen {
    }
    
        ResourceInstanceType   *- -> "n" Model : "costs"
    

@enduml

PlantUML version 1.2019.05(Sat Apr 20 09:45:36 PDT 2019)
(GPL source distribution)
Java Runtime: OpenJDK Runtime Environment
JVM: OpenJDK 64-Bit Server VM
Java Version: 12.0.1+12
Operating System: Windows 10
OS Version: 10.0
Default Encoding: Cp1252
Language: en
Country: US
--></g></svg>