<?xml version="1.0" encoding="UTF-8" standalone="no"?><svg xmlns="http://www.w3.org/2000/svg" xmlns:xlink="http://www.w3.org/1999/xlink" contentScriptType="application/ecmascript" contentStyleType="text/css" height="326px" preserveAspectRatio="none" style="width:341px;height:326px;" version="1.1" viewBox="0 0 341 326" width="341px" zoomAndPan="magnify"><defs><filter height="300%" id="fq1zed68l3yst" width="300%" x="-1" y="-1"><feGaussianBlur result="blurOut" stdDeviation="2.0"/><feColorMatrix in="blurOut" result="blurOut2" type="matrix" values="0 0 0 0 0 0 0 0 0 0 0 0 0 0 0 0 0 0 .4 0"/><feOffset dx="4.0" dy="4.0" in="blurOut2" result="blurOut3"/><feBlend in="SourceGraphic" in2="blurOut3" mode="normal"/></filter></defs><g><!--entity Cloud--><rect fill="#90EE90" filter="url(#fq1zed68l3yst)" height="37.6094" style="stroke: #000000; stroke-width: 1.5;" width="57" x="115.5" y="8"/><text fill="#000000" font-family="sans-serif" font-size="14" lengthAdjust="spacingAndGlyphs" textLength="37" x="125.5" y="32.5332">Cloud</text><!--entity ResourceMap--><rect fill="#ADD8E6" filter="url(#fq1zed68l3yst)" height="37.6094" style="stroke: #000000; stroke-width: 1.5;" width="108" x="6" y="278"/><text fill="#000000" font-family="sans-serif" font-size="14" lengthAdjust="spacingAndGlyphs" textLength="88" x="16" y="302.5332">ResourceMap</text><!--entity ResourceInstanceType--><rect fill="#ADD8E6" filter="url(#fq1zed68l3yst)" height="37.6094" style="stroke: #000000; stroke-width: 1.5;" width="166" x="164" y="278"/><text fill="#000000" font-family="sans-serif" font-size="14" lengthAdjust="spacingAndGlyphs" textLength="146" x="174" y="302.5332">ResourceInstanceType</text><!--class Model--><rect fill="#FEFECE" filter="url(#fq1zed68l3yst)" height="75.6719" id="Model" style="stroke: #A80036; stroke-width: 1.5;" width="91" x="98.5" y="124"/><ellipse cx="113.5" cy="140" fill="#ADD1B2" rx="11" ry="11" style="stroke: #A80036; stroke-width: 1.0;"/><path d="M116.2656,135.875 Q116.4219,135.6563 116.6094,135.5469 Q116.7969,135.4375 117.0156,135.4375 Q117.3906,135.4375 117.625,135.7031 Q117.8594,135.9531 117.8594,136.5625 L117.8594,138.0156 Q117.8594,138.625 117.625,138.8906 Q117.3906,139.1563 117.0156,139.1563 Q116.6719,139.1563 116.4688,138.9531 Q116.2656,138.7656 116.1563,138.25 Q116.1094,137.8906 115.9219,137.7031 Q115.5938,137.3281 114.9844,137.1094 Q114.375,136.8906 113.75,136.8906 Q112.9844,136.8906 112.3438,137.2188 Q111.7188,137.5469 111.2188,138.2969 Q110.7344,139.0469 110.7344,140.0781 L110.7344,141.1719 Q110.7344,142.4063 111.625,143.2344 Q112.5156,144.0469 114.1094,144.0469 Q115.0469,144.0469 115.7031,143.7969 Q116.0938,143.6406 116.5156,143.2031 Q116.7813,142.9375 116.9219,142.8594 Q117.0781,142.7813 117.2813,142.7813 Q117.6094,142.7813 117.8594,143.0469 Q118.125,143.2969 118.125,143.6406 Q118.125,143.9844 117.7813,144.3906 Q117.2813,144.9688 116.4844,145.2969 Q115.4063,145.75 114.1094,145.75 Q112.5938,145.75 111.3906,145.125 Q110.4063,144.625 109.7188,143.5625 Q109.0313,142.4844 109.0313,141.2031 L109.0313,140.0469 Q109.0313,138.7188 109.6406,137.5781 Q110.2656,136.4219 111.3594,135.8125 Q112.4531,135.1875 113.6875,135.1875 Q114.4219,135.1875 115.0625,135.3594 Q115.7188,135.5156 116.2656,135.875 Z "/><text fill="#000000" font-family="sans-serif" font-size="12" lengthAdjust="spacingAndGlyphs" textLength="59" x="127.5" y="144.9102">CloudType</text><line style="stroke: #A80036; stroke-width: 1.5;" x1="99.5" x2="188.5" y1="156" y2="156"/><text fill="#000000" font-family="sans-serif" font-size="11" lengthAdjust="spacingAndGlyphs" textLength="56" x="104.5" y="171.4189">string name</text><line style="stroke: #A80036; stroke-width: 1.5;" x1="99.5" x2="188.5" y1="177.8359" y2="177.8359"/><text fill="#000000" font-family="sans-serif" font-size="11" lengthAdjust="spacingAndGlyphs" textLength="39" x="104.5" y="193.2549">create()</text><!--link Model to Cloud--><path d="M144,110.829 C144,93.587 144,74.784 144,59.457 " fill="none" id="Model-Cloud" style="stroke: #A80036; stroke-width: 1.0;"/><polygon fill="#A80036" points="144,46.214,140,55.214,144,51.214,148,55.214,144,46.214" style="stroke: #A80036; stroke-width: 1.0;"/><line style="stroke: #A80036; stroke-width: 1.0;" x1="144" x2="144" y1="51.214" y2="59.214"/><polygon fill="#FFFFFF" points="144,123.924,148,117.924,144,111.924,140,117.924,144,123.924" style="stroke: #A80036; stroke-width: 1.0;"/><text fill="#000000" font-family="sans-serif" font-size="13" lengthAdjust="spacingAndGlyphs" textLength="38" x="145" y="90.4951">clouds</text><text fill="#000000" font-family="sans-serif" font-size="13" lengthAdjust="spacingAndGlyphs" textLength="7" x="136.0594" y="67.1226">n</text><!--link Cloud to Model--><path d="M118.656,56.785 C114.687,62.772 111.181,69.307 109,76 C105.1872,87.7 106.847,100.064 111.028,111.63 " fill="none" id="Cloud-Model" style="stroke: #A80036; stroke-width: 1.0;"/><polygon fill="#A80036" points="116.415,123.798,116.4291,113.9492,114.3908,119.226,109.1139,117.1878,116.415,123.798" style="stroke: #A80036; stroke-width: 1.0;"/><line style="stroke: #A80036; stroke-width: 1.0;" x1="114.3908" x2="111.1525" y1="119.226" y2="111.91"/><polygon fill="#FFFFFF" points="126.633,46.052,119.8434,48.4813,119.4744,55.6829,126.264,53.2537,126.633,46.052" style="stroke: #A80036; stroke-width: 1.0;"/><text fill="#000000" font-family="sans-serif" font-size="13" lengthAdjust="spacingAndGlyphs" textLength="25" x="110" y="90.4951">type</text><text fill="#000000" font-family="sans-serif" font-size="13" lengthAdjust="spacingAndGlyphs" textLength="7" x="103.878" y="113.1239">1</text><!--link Model to ResourceMap--><path d="M86.9009,187.04 C69.2724,197.5 51.9037,211.646 42,230 C36.0359,241.0533 38.0707,254.237 42.5136,265.9047 " fill="none" id="Model-ResourceMap" style="stroke: #A80036; stroke-width: 1.0;"/><polygon fill="#A80036" points="48.0153,277.798,47.8671,267.9503,45.9161,273.26,40.6063,271.309,48.0153,277.798" style="stroke: #A80036; stroke-width: 1.0;"/><line style="stroke: #A80036; stroke-width: 1.0;" x1="45.9161" x2="42.5572" y1="273.26" y2="265.9993"/><polygon fill="#A80036" points="98.447,180.692,91.2621,180.0777,87.9317,186.4737,95.1166,187.088,98.447,180.692" style="stroke: #A80036; stroke-width: 1.0;"/><text fill="#000000" font-family="sans-serif" font-size="13" lengthAdjust="spacingAndGlyphs" textLength="57" x="43" y="244.4951">assetmap</text><text fill="#000000" font-family="sans-serif" font-size="13" lengthAdjust="spacingAndGlyphs" textLength="7" x="36.2731" y="267.0762">n</text><!--link Model to ResourceMap--><path d="M124.504,212.599 C118.916,224.5979 112.326,237.0979 105,248 C100.4289,254.8027 94.8852,261.5627 89.2732,267.7696 " fill="none" id="Model-ResourceMap-1" style="stroke: #A80036; stroke-width: 1.0;"/><polygon fill="#A80036" points="79.9237,277.603,89.024,273.8368,83.369,273.9794,83.2263,268.3244,79.9237,277.603" style="stroke: #A80036; stroke-width: 1.0;"/><line style="stroke: #A80036; stroke-width: 1.0;" x1="83.369" x2="88.8814" y1="273.9794" y2="268.1817"/><polygon fill="#A80036" points="129.954,200.363,123.8587,204.2162,125.0712,211.3247,131.1665,207.4714,129.954,200.363" style="stroke: #A80036; stroke-width: 1.0;"/><text fill="#000000" font-family="sans-serif" font-size="13" lengthAdjust="spacingAndGlyphs" textLength="61" x="117" y="244.4951">metricmap</text><text fill="#000000" font-family="sans-serif" font-size="13" lengthAdjust="spacingAndGlyphs" textLength="7" x="77.7482" y="267.1593">n</text><!--link Model to ResourceInstanceType--><path d="M180.776,210.487 C195.464,229.4536 211.897,250.6732 224.719,267.2296 " fill="none" id="Model-ResourceInstanceType" style="stroke: #A80036; stroke-width: 1.0;"/><polygon fill="#A80036" points="232.953,277.8618,230.605,268.2969,229.8916,273.9086,224.2799,273.1952,232.953,277.8618" style="stroke: #A80036; stroke-width: 1.0;"/><line style="stroke: #A80036; stroke-width: 1.0;" x1="229.8916" x2="224.9935" y1="273.9086" y2="267.5836"/><polygon fill="#A80036" points="172.691,200.048,173.2027,207.2409,180.0391,209.5351,179.5274,202.3422,172.691,200.048" style="stroke: #A80036; stroke-width: 1.0;"/><text fill="#000000" font-family="sans-serif" font-size="13" lengthAdjust="spacingAndGlyphs" textLength="81" x="208" y="244.4951">instancetypes</text><text fill="#000000" font-family="sans-serif" font-size="13" lengthAdjust="spacingAndGlyphs" textLength="7" x="220.5792" y="267.1595">n</text><!--
@startuml

class "CloudType" as Model {
 string name

 create()
 
}

rectangle "Cloud" as Cloud #lightblue {
}

Model o- -> "n" Cloud : clouds


rectangle "ResourceMap" as ResourceMap #lightblue {
}

Model *- -> "n" ResourceMap : assetmap


rectangle "ResourceInstanceType" as ResourceInstanceType #lightblue {
}

Model *- -> "n" ResourceInstanceType : instancetypes


rectangle "ResourceMap" as ResourceMap #lightblue {
}

Model *- -> "n" ResourceMap : metricmap




    rectangle "Cloud" as Cloud #lightgreen {
    }
    
        Cloud   o- -> "1" Model : "type"
    

@enduml

PlantUML version 1.2019.05(Sat Apr 20 09:45:36 PDT 2019)
(GPL source distribution)
Java Runtime: OpenJDK Runtime Environment
JVM: OpenJDK 64-Bit Server VM
Java Version: 12.0.1+12
Operating System: Windows 10
OS Version: 10.0
Default Encoding: Cp1252
Language: en
Country: US
--></g></svg>