<?xml version="1.0" encoding="UTF-8" standalone="no"?><svg xmlns="http://www.w3.org/2000/svg" xmlns:xlink="http://www.w3.org/1999/xlink" contentScriptType="application/ecmascript" contentStyleType="text/css" height="273px" preserveAspectRatio="none" style="width:399px;height:273px;" version="1.1" viewBox="0 0 399 273" width="399px" zoomAndPan="magnify"><defs><filter height="300%" id="f1pujtcro5ywyv" width="300%" x="-1" y="-1"><feGaussianBlur result="blurOut" stdDeviation="2.0"/><feColorMatrix in="blurOut" result="blurOut2" type="matrix" values="0 0 0 0 0 0 0 0 0 0 0 0 0 0 0 0 0 0 .4 0"/><feOffset dx="4.0" dy="4.0" in="blurOut2" result="blurOut3"/><feBlend in="SourceGraphic" in2="blurOut3" mode="normal"/></filter></defs><g><!--cluster Actor--><rect fill="#FEFECE" filter="url(#f1pujtcro5ywyv)" height="102" rx="12.5" ry="12.5" style="stroke: #A80036; stroke-width: 1.5;" width="149" x="22" y="112"/><rect fill="#FFFFFF" height="68.3906" rx="12.5" ry="12.5" style="stroke: #FFFFFF; stroke-width: 1.0;" width="143" x="25" y="142.6094"/><line style="stroke: #A80036; stroke-width: 1.5;" x1="22" x2="171" y1="139.6094" y2="139.6094"/><text fill="#000000" font-family="sans-serif" font-size="14" lengthAdjust="spacingAndGlyphs" textLength="33" x="80" y="130.5332">Actor</text><!--cluster sml--><rect fill="#90EE90" filter="url(#f1pujtcro5ywyv)" height="238" rx="12.5" ry="12.5" style="stroke: #A80036; stroke-width: 1.5;" width="192" x="195" y="24"/><rect fill="#FFFFFF" height="204.3906" rx="12.5" ry="12.5" style="stroke: #FFFFFF; stroke-width: 1.0;" width="186" x="198" y="54.6094"/><line style="stroke: #A80036; stroke-width: 1.5;" x1="195" x2="387" y1="51.6094" y2="51.6094"/><text fill="#000000" font-family="sans-serif" font-size="14" lengthAdjust="spacingAndGlyphs" textLength="21" x="280.5" y="42.5332">sml</text><!--cluster smlsr--><rect fill="#90EE90" filter="url(#f1pujtcro5ywyv)" height="170" rx="12.5" ry="12.5" style="stroke: #A80036; stroke-width: 1.5;" width="144" x="219" y="68"/><rect fill="#FFFFFF" height="136.3906" rx="12.5" ry="12.5" style="stroke: #FFFFFF; stroke-width: 1.0;" width="138" x="222" y="98.6094"/><line style="stroke: #A80036; stroke-width: 1.5;" x1="219" x2="363" y1="95.6094" y2="95.6094"/><text fill="#000000" font-family="sans-serif" font-size="14" lengthAdjust="spacingAndGlyphs" textLength="12" x="285" y="86.5332">sr</text><!--cluster smlsrdata--><rect fill="#90EE90" filter="url(#f1pujtcro5ywyv)" height="102" rx="12.5" ry="12.5" style="stroke: #A80036; stroke-width: 1.5;" width="96" x="243" y="112"/><rect fill="#FFFFFF" height="68.3906" rx="12.5" ry="12.5" style="stroke: #FFFFFF; stroke-width: 1.0;" width="90" x="246" y="142.6094"/><line style="stroke: #A80036; stroke-width: 1.5;" x1="243" x2="339" y1="139.6094" y2="139.6094"/><text fill="#000000" font-family="sans-serif" font-size="14" lengthAdjust="spacingAndGlyphs" textLength="28" x="277" y="130.5332">data</text><rect fill="#FEFECE" filter="url(#f1pujtcro5ywyv)" height="50" rx="12.5" ry="12.5" style="stroke: #A80036; stroke-width: 1.5;" width="117" x="38" y="148"/><line style="stroke: #A80036; stroke-width: 1.5;" x1="38" x2="155" y1="175.6094" y2="175.6094"/><text fill="#000000" font-family="sans-serif" font-size="14" lengthAdjust="spacingAndGlyphs" textLength="97" x="48" y="167.5332">Manage Assets</text><rect fill="#90EE90" filter="url(#f1pujtcro5ywyv)" height="50" rx="12.5" ry="12.5" style="stroke: #A80036; stroke-width: 1.5;" width="64" x="259" y="148"/><line style="stroke: #A80036; stroke-width: 1.5;" x1="259" x2="323" y1="175.6094" y2="175.6094"/><text fill="#000000" font-family="sans-serif" font-size="14" lengthAdjust="spacingAndGlyphs" textLength="44" x="269" y="167.5332">govern</text><!--link ActorManageAssets to smlsrdatagovern--><path d="M155.256,173 C187.263,173 226.07,173 253.801,173 " fill="none" id="ActorManageAssets-smlsrdatagovern" style="stroke: #A80036; stroke-width: 1.0;"/><polygon fill="#A80036" points="258.846,173,249.846,169,253.846,173,249.846,177,258.846,173" style="stroke: #A80036; stroke-width: 1.0;"/><!--
@startuml
left to right direction



state "Actor" as Actor {
    state "Manage Assets" as ActorManageAssets {
    }
}
state "sml" as sml #lightgreen {
state "sr" as smlsr #lightgreen {
state "data" as smlsrdata #lightgreen {
state "govern" as smlsrdatagovern #lightgreen {
}
}
}
}

ActorManageAssets - -> smlsrdatagovern


 

@enduml

PlantUML version 1.2019.05(Sat Apr 20 09:45:36 PDT 2019)
(GPL source distribution)
Java Runtime: OpenJDK Runtime Environment
JVM: OpenJDK 64-Bit Server VM
Java Version: 12.0.1+12
Operating System: Windows 10
OS Version: 10.0
Default Encoding: Cp1252
Language: en
Country: US
--></g></svg>