<?xml version="1.0" encoding="UTF-8" standalone="no"?><svg xmlns="http://www.w3.org/2000/svg" xmlns:xlink="http://www.w3.org/1999/xlink" contentScriptType="application/ecmascript" contentStyleType="text/css" height="168px" preserveAspectRatio="none" style="width:240px;height:168px;" version="1.1" viewBox="0 0 240 168" width="240px" zoomAndPan="magnify"><defs><filter height="300%" id="fc9968yqx9pzx" width="300%" x="-1" y="-1"><feGaussianBlur result="blurOut" stdDeviation="2.0"/><feColorMatrix in="blurOut" result="blurOut2" type="matrix" values="0 0 0 0 0 0 0 0 0 0 0 0 0 0 0 0 0 0 .4 0"/><feOffset dx="4.0" dy="4.0" in="blurOut2" result="blurOut3"/><feBlend in="SourceGraphic" in2="blurOut3" mode="normal"/></filter></defs><g><!--cluster Service Repository--><polygon fill="#90EE90" filter="url(#fc9968yqx9pzx)" points="22,42,162,42,169,65.6094,218,65.6094,218,156,22,156,22,42" style="stroke: #000000; stroke-width: 1.5;"/><line style="stroke: #000000; stroke-width: 1.5;" x1="22" x2="169" y1="65.6094" y2="65.6094"/><text fill="#000000" font-family="sans-serif" font-size="14" font-weight="bold" lengthAdjust="spacingAndGlyphs" textLength="134" x="26" y="58.5332">Service Repository</text><!--class i--><rect fill="#FEFECE" filter="url(#fc9968yqx9pzx)" height="61.8359" id="i" style="stroke: #A80036; stroke-width: 1.5;" width="164" x="38" y="78"/><ellipse cx="66.05" cy="94" fill="#B4A7E5" rx="11" ry="11" style="stroke: #A80036; stroke-width: 1.0;"/><path d="M67.0031,90.6406 L67.0031,97.2969 L68.7219,97.2969 Q69.3313,97.2969 69.5969,97.5313 Q69.8625,97.7656 69.8625,98.1563 Q69.8625,98.5313 69.5969,98.7656 Q69.3313,99 68.7219,99 L63.5813,99 Q62.9719,99 62.7063,98.7656 Q62.4406,98.5313 62.4406,98.1406 Q62.4406,97.7656 62.7063,97.5313 Q62.9719,97.2969 63.5813,97.2969 L65.3,97.2969 L65.3,90.6406 L63.5813,90.6406 Q62.9719,90.6406 62.7063,90.4063 Q62.4406,90.1719 62.4406,89.7813 Q62.4406,89.4063 62.7063,89.1719 Q62.9719,88.9375 63.5813,88.9375 L68.7219,88.9375 Q69.3313,88.9375 69.5969,89.1719 Q69.8625,89.4063 69.8625,89.7813 Q69.8625,90.1719 69.5969,90.4063 Q69.3313,90.6406 68.7219,90.6406 L67.0031,90.6406 Z "/><text fill="#000000" font-family="sans-serif" font-size="12" font-style="italic" lengthAdjust="spacingAndGlyphs" textLength="103" x="82.95" y="98.9102">Service Repository</text><line style="stroke: #A80036; stroke-width: 1.5;" x1="39" x2="201" y1="110" y2="110"/><line style="stroke: #A80036; stroke-width: 1.5;" x1="39" x2="201" y1="118" y2="118"/><text fill="#000000" font-family="sans-serif" font-size="11" lengthAdjust="spacingAndGlyphs" textLength="152" x="44" y="133.4189">/edgemere/sml/sr/data/govern()</text><ellipse cx="75" cy="13" fill="#FEFECE" filter="url(#fc9968yqx9pzx)" rx="5" ry="5" style="stroke: #A80036; stroke-width: 1.5;"/><text fill="#000000" font-family="sans-serif" font-size="12" lengthAdjust="spacingAndGlyphs" textLength="19" x="65.5" y="30.457">CLI</text><ellipse cx="120" cy="13" fill="#FEFECE" filter="url(#fc9968yqx9pzx)" rx="5" ry="5" style="stroke: #A80036; stroke-width: 1.5;"/><text fill="#000000" font-family="sans-serif" font-size="12" lengthAdjust="spacingAndGlyphs" textLength="32" x="104" y="30.457">REST</text><ellipse cx="165" cy="13" fill="#FEFECE" filter="url(#fc9968yqx9pzx)" rx="5" ry="5" style="stroke: #A80036; stroke-width: 1.5;"/><text fill="#000000" font-family="sans-serif" font-size="12" lengthAdjust="spacingAndGlyphs" textLength="25" x="152.5" y="30.457">Web</text><!--link ilol10948 to i--><path d="M76.9336,18.039 C81.8122,28.23 94.9807,55.737 105.483,77.6756 " fill="none" id="ilol10948-i" style="stroke: #A80036; stroke-width: 1.0;"/><!--link ilol10951 to i--><path d="M120,18.039 C120,28.23 120,55.737 120,77.6756 " fill="none" id="ilol10951-i" style="stroke: #A80036; stroke-width: 1.0;"/><!--link ilol10954 to i--><path d="M163.066,18.039 C158.188,28.23 145.019,55.737 134.517,77.6756 " fill="none" id="ilol10954-i" style="stroke: #A80036; stroke-width: 1.0;"/><!--
@startuml



package "Service Repository" #lightgreen {

    interface "Service Repository" as i {
            /edgemere/sml/sr/data/govern()
    
    }
}

CLI ()- - i
REST ()- - i
Web ()- - i

package "Service Repository" #lightgreen {


}



@enduml

PlantUML version 1.2019.05(Sat Apr 20 09:45:36 PDT 2019)
(GPL source distribution)
Java Runtime: OpenJDK Runtime Environment
JVM: OpenJDK 64-Bit Server VM
Java Version: 12.0.1+12
Operating System: Windows 10
OS Version: 10.0
Default Encoding: Cp1252
Language: en
Country: US
--></g></svg>