<?xml version="1.0" encoding="UTF-8" standalone="no"?><svg xmlns="http://www.w3.org/2000/svg" xmlns:xlink="http://www.w3.org/1999/xlink" contentScriptType="application/ecmascript" contentStyleType="text/css" height="409px" preserveAspectRatio="none" style="width:908px;height:409px;" version="1.1" viewBox="0 0 908 409" width="908px" zoomAndPan="magnify"><defs><filter height="300%" id="fhayijfwtp0lu" width="300%" x="-1" y="-1"><feGaussianBlur result="blurOut" stdDeviation="2.0"/><feColorMatrix in="blurOut" result="blurOut2" type="matrix" values="0 0 0 0 0 0 0 0 0 0 0 0 0 0 0 0 0 0 .4 0"/><feOffset dx="4.0" dy="4.0" in="blurOut2" result="blurOut3"/><feBlend in="SourceGraphic" in2="blurOut3" mode="normal"/></filter></defs><g><!--entity Stack--><rect fill="#90EE90" filter="url(#fhayijfwtp0lu)" height="37.6094" style="stroke: #000000; stroke-width: 1.5;" width="55" x="215.888" y="8"/><text fill="#000000" font-family="sans-serif" font-size="14" lengthAdjust="spacingAndGlyphs" textLength="35" x="225.888" y="32.5332">Stack</text><!--entity Servicelet--><rect fill="#90EE90" filter="url(#fhayijfwtp0lu)" height="37.6094" style="stroke: #000000; stroke-width: 1.5;" width="82" x="11.3879" y="361"/><text fill="#000000" font-family="sans-serif" font-size="14" lengthAdjust="spacingAndGlyphs" textLength="62" x="21.3879" y="385.5332">Servicelet</text><!--entity Resource--><rect fill="#ADD8E6" filter="url(#fhayijfwtp0lu)" height="37.6094" style="stroke: #000000; stroke-width: 1.5;" width="81" x="272.888" y="361"/><text fill="#000000" font-family="sans-serif" font-size="14" lengthAdjust="spacingAndGlyphs" textLength="61" x="282.888" y="385.5332">Resource</text><!--entity Stacklet--><rect fill="#90EE90" filter="url(#fhayijfwtp0lu)" height="37.6094" style="stroke: #000000; stroke-width: 1.5;" width="70" x="163.388" y="361"/><text fill="#000000" font-family="sans-serif" font-size="14" lengthAdjust="spacingAndGlyphs" textLength="50" x="173.388" y="385.5332">Stacklet</text><!--entity ServiceInstance--><rect fill="#ADD8E6" filter="url(#fhayijfwtp0lu)" height="37.6094" style="stroke: #000000; stroke-width: 1.5;" width="120" x="389.388" y="361"/><text fill="#000000" font-family="sans-serif" font-size="14" lengthAdjust="spacingAndGlyphs" textLength="100" x="399.388" y="385.5332">ServiceInstance</text><!--entity Service--><rect fill="#ADD8E6" filter="url(#fhayijfwtp0lu)" height="37.6094" style="stroke: #000000; stroke-width: 1.5;" width="67" x="544.888" y="361"/><text fill="#000000" font-family="sans-serif" font-size="14" lengthAdjust="spacingAndGlyphs" textLength="47" x="554.888" y="385.5332">Service</text><!--entity Environment--><rect fill="#ADD8E6" filter="url(#fhayijfwtp0lu)" height="37.6094" style="stroke: #000000; stroke-width: 1.5;" width="99" x="646.888" y="361"/><text fill="#000000" font-family="sans-serif" font-size="14" lengthAdjust="spacingAndGlyphs" textLength="79" x="656.888" y="385.5332">Environment</text><!--entity DataReference--><rect fill="#ADD8E6" filter="url(#fhayijfwtp0lu)" height="37.6094" style="stroke: #000000; stroke-width: 1.5;" width="116" x="781.388" y="361"/><text fill="#000000" font-family="sans-serif" font-size="14" lengthAdjust="spacingAndGlyphs" textLength="96" x="791.388" y="385.5332">DataReference</text><!--entity StackTemplate--><rect fill="#90EE90" filter="url(#fhayijfwtp0lu)" height="37.6094" style="stroke: #000000; stroke-width: 1.5;" width="114" x="330.388" y="8"/><text fill="#000000" font-family="sans-serif" font-size="14" lengthAdjust="spacingAndGlyphs" textLength="94" x="340.388" y="32.5332">StackTemplate</text><!--entity StackInstance--><rect fill="#90EE90" filter="url(#fhayijfwtp0lu)" height="37.6094" style="stroke: #000000; stroke-width: 1.5;" width="108" x="479.388" y="8"/><text fill="#000000" font-family="sans-serif" font-size="14" lengthAdjust="spacingAndGlyphs" textLength="88" x="489.388" y="32.5332">StackInstance</text><!--class Model--><rect fill="#FEFECE" filter="url(#fhayijfwtp0lu)" height="158.6875" id="Model" style="stroke: #A80036; stroke-width: 1.5;" width="90" x="305.388" y="124"/><ellipse cx="327.138" cy="140" fill="#ADD1B2" rx="11" ry="11" style="stroke: #A80036; stroke-width: 1.0;"/><path d="M329.9036,135.875 Q330.0599,135.6563 330.2474,135.5469 Q330.4349,135.4375 330.6536,135.4375 Q331.0286,135.4375 331.263,135.7031 Q331.4974,135.9531 331.4974,136.5625 L331.4974,138.0156 Q331.4974,138.625 331.263,138.8906 Q331.0286,139.1563 330.6536,139.1563 Q330.3099,139.1563 330.1068,138.9531 Q329.9036,138.7656 329.7943,138.25 Q329.7474,137.8906 329.5599,137.7031 Q329.2318,137.3281 328.6224,137.1094 Q328.013,136.8906 327.388,136.8906 Q326.6224,136.8906 325.9818,137.2188 Q325.3568,137.5469 324.8568,138.2969 Q324.3724,139.0469 324.3724,140.0781 L324.3724,141.1719 Q324.3724,142.4063 325.263,143.2344 Q326.1536,144.0469 327.7474,144.0469 Q328.6849,144.0469 329.3411,143.7969 Q329.7318,143.6406 330.1536,143.2031 Q330.4193,142.9375 330.5599,142.8594 Q330.7161,142.7813 330.9193,142.7813 Q331.2474,142.7813 331.4974,143.0469 Q331.763,143.2969 331.763,143.6406 Q331.763,143.9844 331.4193,144.3906 Q330.9193,144.9688 330.1224,145.2969 Q329.0443,145.75 327.7474,145.75 Q326.2318,145.75 325.0286,145.125 Q324.0443,144.625 323.3568,143.5625 Q322.6693,142.4844 322.6693,141.2031 L322.6693,140.0469 Q322.6693,138.7188 323.2786,137.5781 Q323.9036,136.4219 324.9974,135.8125 Q326.0911,135.1875 327.3255,135.1875 Q328.0599,135.1875 328.7005,135.3594 Q329.3568,135.5156 329.9036,135.875 Z "/><text fill="#000000" font-family="sans-serif" font-size="12" lengthAdjust="spacingAndGlyphs" textLength="43" x="342.638" y="144.9102">Stacklet</text><line style="stroke: #A80036; stroke-width: 1.5;" x1="306.388" x2="394.388" y1="156" y2="156"/><text fill="#000000" font-family="sans-serif" font-size="11" lengthAdjust="spacingAndGlyphs" textLength="56" x="311.388" y="171.4189">string name</text><text fill="#000000" font-family="sans-serif" font-size="11" lengthAdjust="spacingAndGlyphs" textLength="66" x="311.388" y="185.2549">string version</text><text fill="#000000" font-family="sans-serif" font-size="11" lengthAdjust="spacingAndGlyphs" textLength="78" x="311.388" y="199.0908">json parameters</text><text fill="#000000" font-family="sans-serif" font-size="11" lengthAdjust="spacingAndGlyphs" textLength="45" x="311.388" y="212.9268">json args</text><text fill="#000000" font-family="sans-serif" font-size="11" lengthAdjust="spacingAndGlyphs" textLength="77" x="311.388" y="226.7627">number replicas</text><text fill="#000000" font-family="sans-serif" font-size="11" lengthAdjust="spacingAndGlyphs" textLength="48" x="311.388" y="240.5986">json ports</text><line style="stroke: #A80036; stroke-width: 1.5;" x1="306.388" x2="394.388" y1="247.0156" y2="247.0156"/><text fill="#000000" font-family="sans-serif" font-size="11" lengthAdjust="spacingAndGlyphs" textLength="39" x="311.388" y="262.4346">create()</text><text fill="#000000" font-family="sans-serif" font-size="11" lengthAdjust="spacingAndGlyphs" textLength="40" x="311.388" y="276.2705">deploy()</text><!--link Model to Stack--><path d="M298.43,115.177 C290.447,102.006 282.247,88.614 274.388,76 C270.616,69.946 266.517,63.506 262.572,57.374 " fill="none" id="Model-Stack" style="stroke: #A80036; stroke-width: 1.0;"/><polygon fill="#A80036" points="255.304,46.146,256.8369,55.8748,258.0211,50.3433,263.5526,51.5275,255.304,46.146" style="stroke: #A80036; stroke-width: 1.0;"/><line style="stroke: #A80036; stroke-width: 1.0;" x1="258.0211" x2="262.3685" y1="50.3433" y2="57.0585"/><polygon fill="#FFFFFF" points="305.374,126.669,305.6942,119.465,299.1675,116.3987,298.8473,123.6027,305.374,126.669" style="stroke: #A80036; stroke-width: 1.0;"/><text fill="#000000" font-family="sans-serif" font-size="13" lengthAdjust="spacingAndGlyphs" textLength="32" x="286.388" y="90.4951">stack</text><text fill="#000000" font-family="sans-serif" font-size="13" lengthAdjust="spacingAndGlyphs" textLength="7" x="250.5658" y="67.0363">1</text><!--link Stack to Model--><path d="M217.155,57.011 C209.916,68.532 205.482,81.898 211.388,94 C228.591,129.252 263.394,156.396 293.87,174.718 " fill="none" id="Stack-Model" style="stroke: #A80036; stroke-width: 1.0;"/><polygon fill="#A80036" points="305.293,181.306,299.496,173.3439,300.962,178.8075,295.4984,180.2735,305.293,181.306" style="stroke: #A80036; stroke-width: 1.0;"/><line style="stroke: #A80036; stroke-width: 1.0;" x1="300.962" x2="294.0315" y1="178.8075" y2="174.811"/><polygon fill="#A80036" points="225.05,46.221,218.2787,48.7009,217.9636,55.9051,224.7348,53.4252,225.05,46.221" style="stroke: #A80036; stroke-width: 1.0;"/><text fill="#000000" font-family="sans-serif" font-size="13" lengthAdjust="spacingAndGlyphs" textLength="53" x="212.388" y="90.4951">stacklets</text><text fill="#000000" font-family="sans-serif" font-size="13" lengthAdjust="spacingAndGlyphs" textLength="7" x="290.2445" y="173.8552">n</text><!--link Model to Servicelet--><path d="M292.204,214.612 C204.207,231.223 43.9374,267.077 10.3879,313 C1.437,325.252 8.2972,339.3798 18.8732,351.4129 " fill="none" id="Model-Servicelet" style="stroke: #A80036; stroke-width: 1.0;"/><polygon fill="#A80036" points="28.3655,360.9409,24.8472,351.7419,24.8366,357.3987,19.1798,357.3881,28.3655,360.9409" style="stroke: #A80036; stroke-width: 1.0;"/><line style="stroke: #A80036; stroke-width: 1.0;" x1="24.8366" x2="19.1903" y1="357.3987" y2="351.7313"/><polygon fill="#A80036" points="305.158,212.207,298.5284,209.37,293.3598,214.3984,299.9894,217.2354,305.158,212.207" style="stroke: #A80036; stroke-width: 1.0;"/><text fill="#000000" font-family="sans-serif" font-size="13" lengthAdjust="spacingAndGlyphs" textLength="61" x="11.3879" y="327.4951">servicelets</text><text fill="#000000" font-family="sans-serif" font-size="13" lengthAdjust="spacingAndGlyphs" textLength="7" x="12.9368" y="350.2628">n</text><!--link Servicelet to Model--><path d="M85.3886,352.5658 C101.7893,339.9425 122.168,325.0087 141.388,313 C191.038,281.978 250.539,251.712 293.334,231.063 " fill="none" id="Servicelet-Model" style="stroke: #A80036; stroke-width: 1.0;"/><polygon fill="#A80036" points="305.216,225.37,295.3712,225.6528,300.7071,227.531,298.8288,232.867,305.216,225.37" style="stroke: #A80036; stroke-width: 1.0;"/><line style="stroke: #A80036; stroke-width: 1.0;" x1="300.7071" x2="293.4925" y1="227.531" y2="230.987"/><polygon fill="#FFFFFF" points="74.7331,360.8716,81.9244,360.3377,84.1975,353.4943,77.0062,354.0281,74.7331,360.8716" style="stroke: #A80036; stroke-width: 1.0;"/><text fill="#000000" font-family="sans-serif" font-size="13" lengthAdjust="spacingAndGlyphs" textLength="36" x="142.388" y="327.4951">parent</text><text fill="#000000" font-family="sans-serif" font-size="13" lengthAdjust="spacingAndGlyphs" textLength="7" x="290.4589" y="225.1286">1</text><!--link Model to Resource--><path d="M330.986,296.006 C327.011,314.7493 323.093,333.2306 319.966,347.9781 " fill="none" id="Model-Resource" style="stroke: #A80036; stroke-width: 1.0;"/><polygon fill="#A80036" points="317.234,360.8602,323.0139,352.8857,318.2712,355.969,315.1879,351.2262,317.234,360.8602" style="stroke: #A80036; stroke-width: 1.0;"/><line style="stroke: #A80036; stroke-width: 1.0;" x1="318.2712" x2="319.931" y1="355.969" y2="348.1429"/><polygon fill="#FFFFFF" points="333.728,283.072,328.5702,288.1116,331.2383,294.8109,336.3961,289.7713,333.728,283.072" style="stroke: #A80036; stroke-width: 1.0;"/><text fill="#000000" font-family="sans-serif" font-size="13" lengthAdjust="spacingAndGlyphs" textLength="57" x="328.388" y="327.4951">resources</text><text fill="#000000" font-family="sans-serif" font-size="13" lengthAdjust="spacingAndGlyphs" textLength="7" x="310.34" y="350.1574">n</text><!--link Model to Stacklet--><path d="M293.131,226.791 C256.813,244.286 212.775,272.514 191.388,313 C185.779,323.6182 185.897,336.5295 188.008,348.1069 " fill="none" id="Model-Stacklet" style="stroke: #A80036; stroke-width: 1.0;"/><polygon fill="#A80036" points="191.18,360.8678,192.8913,351.1688,189.9741,356.0154,185.1275,353.0982,191.18,360.8678" style="stroke: #A80036; stroke-width: 1.0;"/><line style="stroke: #A80036; stroke-width: 1.0;" x1="189.9741" x2="188.0445" y1="356.0154" y2="348.2515"/><polygon fill="#FFFFFF" points="305.107,221.267,297.9834,220.1473,294.2099,226.2923,301.3335,227.412,305.107,221.267" style="stroke: #A80036; stroke-width: 1.0;"/><text fill="#000000" font-family="sans-serif" font-size="13" lengthAdjust="spacingAndGlyphs" textLength="36" x="192.388" y="327.4951">parent</text><text fill="#000000" font-family="sans-serif" font-size="13" lengthAdjust="spacingAndGlyphs" textLength="7" x="180.9007" y="350.1673">1</text><!--link Stacklet to Model--><path d="M222.824,350.9473 C242.611,328.2311 271.223,295.383 296.338,266.551 " fill="none" id="Stacklet-Model" style="stroke: #A80036; stroke-width: 1.0;"/><polygon fill="#A80036" points="305.194,256.383,296.2665,260.5423,301.91,260.1533,302.299,265.7968,305.194,256.383" style="stroke: #A80036; stroke-width: 1.0;"/><line style="stroke: #A80036; stroke-width: 1.0;" x1="301.91" x2="296.656" y1="260.1533" y2="266.1855"/><polygon fill="#FFFFFF" points="214.135,360.9215,221.0921,359.0244,222.0168,351.8729,215.0597,353.7699,214.135,360.9215" style="stroke: #A80036; stroke-width: 1.0;"/><text fill="#000000" font-family="sans-serif" font-size="13" lengthAdjust="spacingAndGlyphs" textLength="36" x="253.388" y="327.4951">parent</text><text fill="#000000" font-family="sans-serif" font-size="13" lengthAdjust="spacingAndGlyphs" textLength="7" x="290.4334" y="261.0843">1</text><!--link Model to ServiceInstance--><path d="M401.53,294.644 C412.7,314.3329 423.759,333.8254 432.427,349.1047 " fill="none" id="Model-ServiceInstance" style="stroke: #A80036; stroke-width: 1.0;"/><polygon fill="#A80036" points="439.097,360.8602,438.1351,351.0584,436.6298,356.5113,431.1769,355.006,439.097,360.8602" style="stroke: #A80036; stroke-width: 1.0;"/><line style="stroke: #A80036; stroke-width: 1.0;" x1="436.6298" x2="432.6815" y1="356.5113" y2="349.5531"/><polygon fill="#FFFFFF" points="394.964,283.072,394.4453,290.2644,400.885,293.5095,401.4037,286.3171,394.964,283.072" style="stroke: #A80036; stroke-width: 1.0;"/><text fill="#000000" font-family="sans-serif" font-size="13" lengthAdjust="spacingAndGlyphs" textLength="56" x="421.388" y="327.4951">instances</text><text fill="#000000" font-family="sans-serif" font-size="13" lengthAdjust="spacingAndGlyphs" textLength="7" x="427.8735" y="350.1574">n</text><!--link Model to Service--><path d="M405.899,246.985 C449.067,280.024 507.581,324.808 544.149,352.7952 " fill="none" id="Model-Service" style="stroke: #A80036; stroke-width: 1.0;"/><polygon fill="#A80036" points="554.752,360.91,550.0363,352.2635,550.7815,357.871,545.174,358.6163,554.752,360.91" style="stroke: #A80036; stroke-width: 1.0;"/><line style="stroke: #A80036; stroke-width: 1.0;" x1="550.7815" x2="544.4285" y1="357.871" y2="353.0089"/><polygon fill="#FFFFFF" points="395.433,238.976,397.7667,245.799,404.9624,246.2691,402.6288,239.4461,395.433,238.976" style="stroke: #A80036; stroke-width: 1.0;"/><text fill="#000000" font-family="sans-serif" font-size="13" lengthAdjust="spacingAndGlyphs" textLength="40" x="512.388" y="327.4951">service</text><text fill="#000000" font-family="sans-serif" font-size="13" lengthAdjust="spacingAndGlyphs" textLength="7" x="539.4416" y="350.2225">1</text><!--link Model to Environment--><path d="M407.579,233.344 C474.965,267.329 585.699,323.1755 648.672,354.935 " fill="none" id="Model-Environment" style="stroke: #A80036; stroke-width: 1.0;"/><polygon fill="#A80036" points="660.602,360.9521,654.3675,353.3277,656.1377,358.7005,650.7649,360.4706,660.602,360.9521" style="stroke: #A80036; stroke-width: 1.0;"/><line style="stroke: #A80036; stroke-width: 1.0;" x1="656.1377" x2="648.995" y1="358.7005" y2="355.0981"/><polygon fill="#FFFFFF" points="395.621,227.313,399.1768,233.5864,406.3353,232.717,402.7795,226.4435,395.621,227.313" style="stroke: #A80036; stroke-width: 1.0;"/><text fill="#000000" font-family="sans-serif" font-size="13" lengthAdjust="spacingAndGlyphs" textLength="19" x="595.388" y="327.4951">env</text><text fill="#000000" font-family="sans-serif" font-size="13" lengthAdjust="spacingAndGlyphs" textLength="7" x="641.5707" y="350.2774">1</text><!--link Model to DataReference--><path d="M407.914,225.028 C500.281,257.989 680.963,322.4659 776.578,356.5863 " fill="none" id="Model-DataReference" style="stroke: #A80036; stroke-width: 1.0;"/><polygon fill="#A80036" points="788.927,360.9929,781.7946,354.2011,784.2178,359.3126,779.1062,361.7358,788.927,360.9929" style="stroke: #A80036; stroke-width: 1.0;"/><line style="stroke: #A80036; stroke-width: 1.0;" x1="784.2178" x2="776.683" y1="359.3126" y2="356.6236"/><polygon fill="#A80036" points="395.515,220.604,399.8217,226.3878,406.817,224.6369,402.5103,218.8531,395.515,220.604" style="stroke: #A80036; stroke-width: 1.0;"/><text fill="#000000" font-family="sans-serif" font-size="13" lengthAdjust="spacingAndGlyphs" textLength="25" x="696.388" y="327.4951">data</text><text fill="#000000" font-family="sans-serif" font-size="13" lengthAdjust="spacingAndGlyphs" textLength="7" x="766.076" y="350.6637">n</text><!--link StackTemplate to Model--><path d="M380.832,58.921 C377.714,73.622 373.807,92.051 369.841,110.756 " fill="none" id="StackTemplate-Model" style="stroke: #A80036; stroke-width: 1.0;"/><polygon fill="#A80036" points="367.095,123.707,372.8752,115.7327,368.1324,118.8158,365.0493,114.0729,367.095,123.707" style="stroke: #A80036; stroke-width: 1.0;"/><line style="stroke: #A80036; stroke-width: 1.0;" x1="368.1324" x2="369.791" y1="118.8158" y2="110.99"/><polygon fill="#A80036" points="383.568,46.017,378.4107,51.0571,381.0796,57.7562,386.2368,52.716,383.568,46.017" style="stroke: #A80036; stroke-width: 1.0;"/><text fill="#000000" font-family="sans-serif" font-size="13" lengthAdjust="spacingAndGlyphs" textLength="53" x="378.388" y="90.4951">stacklets</text><text fill="#000000" font-family="sans-serif" font-size="13" lengthAdjust="spacingAndGlyphs" textLength="7" x="361.3125" y="113.1393">n</text><!--link StackInstance to Model--><path d="M504.891,55.173 C478.272,80.556 437.825,119.124 404.992,150.432 " fill="none" id="StackInstance-Model" style="stroke: #A80036; stroke-width: 1.0;"/><polygon fill="#A80036" points="395.512,159.472,404.7856,156.1553,399.1303,156.0213,399.2644,150.366,395.512,159.472" style="stroke: #A80036; stroke-width: 1.0;"/><line style="stroke: #A80036; stroke-width: 1.0;" x1="399.1303" x2="404.92" y1="156.0213" y2="150.5005"/><polygon fill="#FFFFFF" points="514.493,46.017,507.3903,47.2627,505.8084,54.2981,512.9111,53.0524,514.493,46.017" style="stroke: #A80036; stroke-width: 1.0;"/><text fill="#000000" font-family="sans-serif" font-size="13" lengthAdjust="spacingAndGlyphs" textLength="46" x="480.388" y="90.4951">stacklet</text><text fill="#000000" font-family="sans-serif" font-size="13" lengthAdjust="spacingAndGlyphs" textLength="7" x="403.2615" y="148.7281">1</text><!--
@startuml

class "Stacklet" as Model {
 string name
 string version
 json parameters
 json args
 number replicas
 json ports

 create()
 deploy()
 
}

rectangle "Stack" as Stack #lightblue {
}

Model o- -> "1" Stack : stack


rectangle "Servicelet" as Servicelet #lightblue {
}

Model *- -> "n" Servicelet : servicelets


rectangle "Resource" as Resource #lightblue {
}

Model o- -> "n" Resource : resources


rectangle "Stacklet" as Stacklet #lightblue {
}

Model o- -> "1" Stacklet : parent


rectangle "ServiceInstance" as ServiceInstance #lightblue {
}

Model o- -> "n" ServiceInstance : instances


rectangle "Service" as Service #lightblue {
}

Model o- -> "1" Service : service


rectangle "Environment" as Environment #lightblue {
}

Model o- -> "1" Environment : env


rectangle "DataReference" as DataReference #lightblue {
}

Model *- -> "n" DataReference : data




    rectangle "Servicelet" as Servicelet #lightgreen {
    }
    
        Servicelet   o- -> "1" Model : "parent"
    
    rectangle "Stack" as Stack #lightgreen {
    }
    
        Stack   *- -> "n" Model : "stacklets"
    
    rectangle "StackTemplate" as StackTemplate #lightgreen {
    }
    
        StackTemplate   *- -> "n" Model : "stacklets"
    
    rectangle "Stacklet" as Stacklet #lightgreen {
    }
    
        Stacklet   o- -> "1" Model : "parent"
    
    rectangle "StackInstance" as StackInstance #lightgreen {
    }
    
        StackInstance   o- -> "1" Model : "stacklet"
    

@enduml

PlantUML version 1.2019.05(Sat Apr 20 09:45:36 PDT 2019)
(GPL source distribution)
Java Runtime: OpenJDK Runtime Environment
JVM: OpenJDK 64-Bit Server VM
Java Version: 12.0.1+12
Operating System: Windows 10
OS Version: 10.0
Default Encoding: Cp1252
Language: en
Country: US
--></g></svg>