<?xml version="1.0" encoding="UTF-8" standalone="no"?><svg xmlns="http://www.w3.org/2000/svg" xmlns:xlink="http://www.w3.org/1999/xlink" contentScriptType="application/ecmascript" contentStyleType="text/css" height="1003px" preserveAspectRatio="none" style="width:517px;height:1003px;" version="1.1" viewBox="0 0 517 1003" width="517px" zoomAndPan="magnify"><defs><filter height="300%" id="fvxqd527jb91" width="300%" x="-1" y="-1"><feGaussianBlur result="blurOut" stdDeviation="2.0"/><feColorMatrix in="blurOut" result="blurOut2" type="matrix" values="0 0 0 0 0 0 0 0 0 0 0 0 0 0 0 0 0 0 .4 0"/><feOffset dx="4.0" dy="4.0" in="blurOut2" result="blurOut3"/><feBlend in="SourceGraphic" in2="blurOut3" mode="normal"/></filter></defs><g><!--cluster DataReference--><rect fill="#FFCC88" filter="url(#fvxqd527jb91)" height="358" rx="12.5" ry="12.5" style="stroke: #A80036; stroke-width: 1.5;" width="279" x="69" y="24"/><rect fill="#FFFFFF" height="324.3906" rx="12.5" ry="12.5" style="stroke: #FFFFFF; stroke-width: 1.0;" width="273" x="72" y="54.6094"/><line style="stroke: #A80036; stroke-width: 1.5;" x1="69" x2="348" y1="51.6094" y2="51.6094"/><text fill="#000000" font-family="sans-serif" font-size="14" lengthAdjust="spacingAndGlyphs" textLength="96" x="160.5" y="42.5332">DataReference</text><!--cluster diml--><rect fill="#FFCC88" filter="url(#fvxqd527jb91)" height="306" rx="12.5" ry="12.5" style="stroke: #A80036; stroke-width: 1.5;" width="241" x="264" y="415"/><rect fill="#FFFFFF" height="272.3906" rx="12.5" ry="12.5" style="stroke: #FFFFFF; stroke-width: 1.0;" width="235" x="267" y="445.6094"/><line style="stroke: #A80036; stroke-width: 1.5;" x1="264" x2="505" y1="442.6094" y2="442.6094"/><text fill="#000000" font-family="sans-serif" font-size="14" lengthAdjust="spacingAndGlyphs" textLength="25" x="372" y="433.5332">diml</text><!--cluster dimldml--><rect fill="#FFCC88" filter="url(#fvxqd527jb91)" height="238" rx="12.5" ry="12.5" style="stroke: #A80036; stroke-width: 1.5;" width="193" x="288" y="459"/><rect fill="#FFFFFF" height="204.3906" rx="12.5" ry="12.5" style="stroke: #FFFFFF; stroke-width: 1.0;" width="187" x="291" y="489.6094"/><line style="stroke: #A80036; stroke-width: 1.5;" x1="288" x2="481" y1="486.6094" y2="486.6094"/><text fill="#000000" font-family="sans-serif" font-size="14" lengthAdjust="spacingAndGlyphs" textLength="22" x="373.5" y="477.5332">dml</text><!--cluster dimldmldo--><rect fill="#ADD8E6" filter="url(#fvxqd527jb91)" height="170" rx="12.5" ry="12.5" style="stroke: #A80036; stroke-width: 1.5;" width="145" x="312" y="503"/><rect fill="#FFFFFF" height="136.3906" rx="12.5" ry="12.5" style="stroke: #FFFFFF; stroke-width: 1.0;" width="139" x="315" y="533.6094"/><line style="stroke: #A80036; stroke-width: 1.5;" x1="312" x2="457" y1="530.6094" y2="530.6094"/><text fill="#000000" font-family="sans-serif" font-size="14" lengthAdjust="spacingAndGlyphs" textLength="16" x="376.5" y="521.5332">do</text><!--cluster dimldmldodatainstance--><rect fill="#ADD8E6" filter="url(#fvxqd527jb91)" height="102" rx="12.5" ry="12.5" style="stroke: #A80036; stroke-width: 1.5;" width="97" x="336" y="547"/><rect fill="#FFFFFF" height="68.3906" rx="12.5" ry="12.5" style="stroke: #FFFFFF; stroke-width: 1.0;" width="91" x="339" y="577.6094"/><line style="stroke: #A80036; stroke-width: 1.5;" x1="336" x2="433" y1="574.6094" y2="574.6094"/><text fill="#000000" font-family="sans-serif" font-size="14" lengthAdjust="spacingAndGlyphs" textLength="81" x="344" y="565.5332">datainstance</text><!--cluster sml--><rect fill="#90EE90" filter="url(#fvxqd527jb91)" height="238" rx="12.5" ry="12.5" style="stroke: #A80036; stroke-width: 1.5;" width="220" x="22" y="754"/><rect fill="#FFFFFF" height="204.3906" rx="12.5" ry="12.5" style="stroke: #FFFFFF; stroke-width: 1.0;" width="214" x="25" y="784.6094"/><line style="stroke: #A80036; stroke-width: 1.5;" x1="22" x2="242" y1="781.6094" y2="781.6094"/><text fill="#000000" font-family="sans-serif" font-size="14" lengthAdjust="spacingAndGlyphs" textLength="21" x="121.5" y="772.5332">sml</text><!--cluster smlso--><rect fill="#90EE90" filter="url(#fvxqd527jb91)" height="170" rx="12.5" ry="12.5" style="stroke: #A80036; stroke-width: 1.5;" width="172" x="46" y="798"/><rect fill="#FFFFFF" height="136.3906" rx="12.5" ry="12.5" style="stroke: #FFFFFF; stroke-width: 1.0;" width="166" x="49" y="828.6094"/><line style="stroke: #A80036; stroke-width: 1.5;" x1="46" x2="218" y1="825.6094" y2="825.6094"/><text fill="#000000" font-family="sans-serif" font-size="14" lengthAdjust="spacingAndGlyphs" textLength="15" x="124.5" y="816.5332">so</text><!--cluster smlsoservicelet--><rect fill="#90EE90" filter="url(#fvxqd527jb91)" height="102" rx="12.5" ry="12.5" style="stroke: #A80036; stroke-width: 1.5;" width="124" x="70" y="842"/><rect fill="#FFFFFF" height="68.3906" rx="12.5" ry="12.5" style="stroke: #FFFFFF; stroke-width: 1.0;" width="118" x="73" y="872.6094"/><line style="stroke: #A80036; stroke-width: 1.5;" x1="70" x2="194" y1="869.6094" y2="869.6094"/><text fill="#000000" font-family="sans-serif" font-size="14" lengthAdjust="spacingAndGlyphs" textLength="60" x="102" y="860.5332">servicelet</text><rect fill="#FFCC88" filter="url(#fvxqd527jb91)" height="50" rx="12.5" ry="12.5" style="stroke: #A80036; stroke-width: 1.5;" width="50" x="248" y="60"/><line style="stroke: #A80036; stroke-width: 1.5;" x1="248" x2="298" y1="87.6094" y2="87.6094"/><text fill="#000000" font-family="sans-serif" font-size="14" lengthAdjust="spacingAndGlyphs" textLength="18" x="264" y="79.5332">Init</text><rect fill="#FFCC88" filter="url(#fvxqd527jb91)" height="50" rx="12.5" ry="12.5" style="stroke: #A80036; stroke-width: 1.5;" width="97" x="224.5" y="188"/><line style="stroke: #A80036; stroke-width: 1.5;" x1="224.5" x2="321.5" y1="215.6094" y2="215.6094"/><text fill="#000000" font-family="sans-serif" font-size="14" lengthAdjust="spacingAndGlyphs" textLength="77" x="234.5" y="207.5332">Provisioning</text><rect fill="#FFCC88" filter="url(#fvxqd527jb91)" height="50" rx="12.5" ry="12.5" style="stroke: #A80036; stroke-width: 1.5;" width="94" x="85" y="316"/><line style="stroke: #A80036; stroke-width: 1.5;" x1="85" x2="179" y1="343.6094" y2="343.6094"/><text fill="#000000" font-family="sans-serif" font-size="14" lengthAdjust="spacingAndGlyphs" textLength="74" x="95" y="335.5332">Provisioned</text><rect fill="#FFCC88" filter="url(#fvxqd527jb91)" height="50" rx="12.5" ry="12.5" style="stroke: #A80036; stroke-width: 1.5;" width="117" x="214.5" y="316"/><line style="stroke: #A80036; stroke-width: 1.5;" x1="214.5" x2="331.5" y1="343.6094" y2="343.6094"/><text fill="#000000" font-family="sans-serif" font-size="14" lengthAdjust="spacingAndGlyphs" textLength="97" x="224.5" y="335.5332">FailedProvision</text><rect fill="#ADD8E6" filter="url(#fvxqd527jb91)" height="50" rx="12.5" ry="12.5" style="stroke: #A80036; stroke-width: 1.5;" width="60" x="355" y="583"/><line style="stroke: #A80036; stroke-width: 1.5;" x1="355" x2="415" y1="610.6094" y2="610.6094"/><text fill="#000000" font-family="sans-serif" font-size="14" lengthAdjust="spacingAndGlyphs" textLength="40" x="365" y="602.5332">create</text><rect fill="#90EE90" filter="url(#fvxqd527jb91)" height="50" rx="12.5" ry="12.5" style="stroke: #A80036; stroke-width: 1.5;" width="91" x="86.5" y="878"/><line style="stroke: #A80036; stroke-width: 1.5;" x1="86.5" x2="177.5" y1="905.6094" y2="905.6094"/><text fill="#000000" font-family="sans-serif" font-size="14" lengthAdjust="spacingAndGlyphs" textLength="71" x="96.5" y="897.5332">assignData</text><!--link Init to Provisioning--><path d="M273,110.294 C273,130.95 273,160.669 273,182.651 " fill="none" id="Init-Provisioning" style="stroke: #A80036; stroke-width: 1.0;"/><polygon fill="#A80036" points="273,187.781,277,178.781,273,182.781,269,178.781,273,187.781" style="stroke: #A80036; stroke-width: 1.0;"/><text fill="#000000" font-family="sans-serif" font-size="13" lengthAdjust="spacingAndGlyphs" textLength="50" x="274" y="154.4951">provision</text><!--link Provisioning to Provisioned--><path d="M236.928,238.226 C224.511,247.105 210.776,257.549 199,268 C183.708,281.572 168.063,298.2 155.741,312.056 " fill="none" id="Provisioning-Provisioned" style="stroke: #A80036; stroke-width: 1.0;"/><polygon fill="#A80036" points="152.357,315.885,161.3132,311.7879,155.6672,312.1376,155.3175,306.4916,152.357,315.885" style="stroke: #A80036; stroke-width: 1.0;"/><text fill="#000000" font-family="sans-serif" font-size="13" lengthAdjust="spacingAndGlyphs" textLength="64" x="200" y="282.4951">provisioned</text><!--link Provisioning to FailedProvision--><path d="M273,238.294 C273,258.95 273,288.669 273,310.651 " fill="none" id="Provisioning-FailedProvision" style="stroke: #A80036; stroke-width: 1.0;"/><polygon fill="#A80036" points="273,315.781,277,306.781,273,310.781,269,306.781,273,315.781" style="stroke: #A80036; stroke-width: 1.0;"/><text fill="#000000" font-family="sans-serif" font-size="13" lengthAdjust="spacingAndGlyphs" textLength="30" x="274" y="282.4951">failed</text><!--link Provisioning to dimldmldodatainstancecreate--><path d="M296.746,238.139 C314.274,257.507 337.072,286.284 349,316 C385.282,406.387 387.44,524.212 386.215,577.974 " fill="none" id="Provisioning-dimldmldodatainstancecreate" style="stroke: #000000; stroke-width: 1.0;"/><polygon fill="#000000" points="386.087,582.974,390.3171,574.0798,386.2156,577.9757,382.3197,573.8741,386.087,582.974" style="stroke: #000000; stroke-width: 1.0;"/><!--link Provisioned to smlsoserviceletassignData--><path d="M132,366.062 C132,456.249 132,774.082 132,872.636 " fill="none" id="Provisioned-smlsoserviceletassignData" style="stroke: #000000; stroke-width: 1.0;"/><polygon fill="#000000" points="132,877.713,136,868.713,132,872.713,128,868.713,132,877.713" style="stroke: #000000; stroke-width: 1.0;"/><!--
@startuml



state DataReference #ffcc88 {

    state Init #ffcc88 {
    }

    state Provisioning #ffcc88 {
    }

    state Provisioned #ffcc88 {
    }

    state FailedProvision #ffcc88 {
    }

}


Init - -> Provisioning : provision

Provisioning - -> Provisioned : provisioned

Provisioning - -> FailedProvision : failed



 state "diml" as diml #ffcc88 {
state "dml" as dimldml #ffcc88 {
state "do" as dimldmldo #lightblue {
state "datainstance" as dimldmldodatainstance #lightblue {
state "create" as dimldmldodatainstancecreate #lightblue {
}
}
}
}
}

 Provisioning -[#black]- -> dimldmldodatainstancecreate
 
 state "sml" as sml #lightgreen {
state "so" as smlso #lightgreen {
state "servicelet" as smlsoservicelet #lightgreen {
state "assignData" as smlsoserviceletassignData #lightgreen {
}
}
}
}

 Provisioned -[#black]- -> smlsoserviceletassignData
 

@enduml

PlantUML version 1.2019.05(Sat Apr 20 09:45:36 PDT 2019)
(GPL source distribution)
Java Runtime: OpenJDK Runtime Environment
JVM: OpenJDK 64-Bit Server VM
Java Version: 12.0.1+12
Operating System: Windows 10
OS Version: 10.0
Default Encoding: Cp1252
Language: en
Country: US
--></g></svg>