<?xml version="1.0" encoding="UTF-8" standalone="no"?><svg xmlns="http://www.w3.org/2000/svg" xmlns:xlink="http://www.w3.org/1999/xlink" contentScriptType="application/ecmascript" contentStyleType="text/css" height="1004px" preserveAspectRatio="none" style="width:384px;height:1004px;" version="1.1" viewBox="0 0 384 1004" width="384px" zoomAndPan="magnify"><defs><filter height="300%" id="f15jfovuedgjip" width="300%" x="-1" y="-1"><feGaussianBlur result="blurOut" stdDeviation="2.0"/><feColorMatrix in="blurOut" result="blurOut2" type="matrix" values="0 0 0 0 0 0 0 0 0 0 0 0 0 0 0 0 0 0 .4 0"/><feOffset dx="4.0" dy="4.0" in="blurOut2" result="blurOut3"/><feBlend in="SourceGraphic" in2="blurOut3" mode="normal"/></filter></defs><g><!--cluster cpl--><rect fill="#D3D3D3" filter="url(#f15jfovuedgjip)" height="165" style="stroke: #000000; stroke-width: 1.5;" width="203" x="152.5" y="24"/><text fill="#000000" font-family="sans-serif" font-size="14" font-weight="bold" lengthAdjust="spacingAndGlyphs" textLength="164" x="172" y="40.5332">Common Physical Layer</text><!--cluster cb--><rect fill="#90EE90" filter="url(#f15jfovuedgjip)" height="446" style="stroke: #000000; stroke-width: 1.5;" width="232" x="138" y="213"/><text fill="#000000" font-family="sans-serif" font-size="14" font-weight="bold" lengthAdjust="spacingAndGlyphs" textLength="93" x="207.5" y="229.5332">Cloud Broker</text><!--cluster em--><rect fill="#90EE90" filter="url(#f15jfovuedgjip)" height="90" style="stroke: #000000; stroke-width: 1.5;" width="201" x="154" y="683"/><text fill="#000000" font-family="sans-serif" font-size="14" font-weight="bold" lengthAdjust="spacingAndGlyphs" textLength="185" x="162" y="699.5332">Environment Management</text><!--cluster sml--><rect fill="#90EE90" filter="url(#f15jfovuedgjip)" height="84" style="stroke: #000000; stroke-width: 1.5;" width="207" x="151" y="797"/><text fill="#000000" font-family="sans-serif" font-size="14" font-weight="bold" lengthAdjust="spacingAndGlyphs" textLength="191" x="159" y="813.5332">Service Management Layer</text><!--cluster sdi--><rect fill="#FFFFE0" filter="url(#f15jfovuedgjip)" height="88" style="stroke: #000000; stroke-width: 1.5;" width="238" x="135.5" y="905"/><text fill="#000000" font-family="sans-serif" font-size="14" font-weight="bold" lengthAdjust="spacingAndGlyphs" textLength="222" x="143.5" y="921.5332">Software Defined Infrastructure</text><ellipse cx="253.8351" cy="78.867" fill="#FEFECE" filter="url(#f15jfovuedgjip)" rx="82.3351" ry="18.867" style="stroke: #A80036; stroke-width: 1.5;"/><text fill="#000000" font-family="sans-serif" font-size="14" lengthAdjust="spacingAndGlyphs" textLength="132" x="187.8351" y="84.1717">Manage Data Center</text><ellipse cx="253.7698" cy="152.954" fill="#FEFECE" filter="url(#f15jfovuedgjip)" rx="85.2698" ry="19.454" style="stroke: #A80036; stroke-width: 1.5;"/><text fill="#000000" font-family="sans-serif" font-size="14" lengthAdjust="spacingAndGlyphs" textLength="139" x="184.2698" y="158.2586">Manage Infrastructure</text><ellipse cx="254.1188" cy="265.8238" fill="#FEFECE" filter="url(#f15jfovuedgjip)" rx="69.6188" ry="16.3238" style="stroke: #A80036; stroke-width: 1.5;"/><text fill="#000000" font-family="sans-serif" font-size="14" lengthAdjust="spacingAndGlyphs" textLength="100" x="204.1188" y="271.1284">Find Resources</text><ellipse cx="254.2254" cy="332.9517" fill="#FEFECE" filter="url(#f15jfovuedgjip)" rx="65.2254" ry="15.4517" style="stroke: #A80036; stroke-width: 1.5;"/><text fill="#000000" font-family="sans-serif" font-size="14" lengthAdjust="spacingAndGlyphs" textLength="88" x="210.2254" y="338.2564">ManageBilling</text><ellipse cx="254.1143" cy="401.2229" fill="#FEFECE" filter="url(#f15jfovuedgjip)" rx="76.6143" ry="17.7229" style="stroke: #A80036; stroke-width: 1.5;"/><text fill="#000000" font-family="sans-serif" font-size="14" lengthAdjust="spacingAndGlyphs" textLength="118" x="195.1143" y="406.5275">ManageCostModel</text><ellipse cx="253.9481" cy="471.7896" fill="#FEFECE" filter="url(#f15jfovuedgjip)" rx="79.4481" ry="18.2896" style="stroke: #A80036; stroke-width: 1.5;"/><text fill="#000000" font-family="sans-serif" font-size="14" lengthAdjust="spacingAndGlyphs" textLength="125" x="191.4481" y="477.0943">Manage Multi Cloud</text><ellipse cx="254.0052" cy="544.201" fill="#FEFECE" filter="url(#f15jfovuedgjip)" rx="81.5052" ry="18.701" style="stroke: #A80036; stroke-width: 1.5;"/><text fill="#000000" font-family="sans-serif" font-size="14" lengthAdjust="spacingAndGlyphs" textLength="130" x="189.0052" y="549.5057">Map Assets to Cloud</text><ellipse cx="254.0583" cy="619.9117" fill="#FEFECE" filter="url(#f15jfovuedgjip)" rx="100.0583" ry="22.4117" style="stroke: #A80036; stroke-width: 1.5;"/><text fill="#000000" font-family="sans-serif" font-size="14" lengthAdjust="spacingAndGlyphs" textLength="173" x="167.5583" y="625.2163">Map Services to Resources</text><ellipse cx="254.169" cy="738.0338" fill="#FEFECE" filter="url(#f15jfovuedgjip)" rx="83.169" ry="19.0338" style="stroke: #A80036; stroke-width: 1.5;"/><text fill="#000000" font-family="sans-serif" font-size="14" lengthAdjust="spacingAndGlyphs" textLength="134" x="187.169" y="743.3385">Manage Environment</text><ellipse cx="254.2443" cy="849.2489" fill="#FEFECE" filter="url(#f15jfovuedgjip)" rx="69.2443" ry="16.2489" style="stroke: #A80036; stroke-width: 1.5;"/><text fill="#000000" font-family="sans-serif" font-size="14" lengthAdjust="spacingAndGlyphs" textLength="99" x="204.7443" y="854.5536">Manage Clouds</text><ellipse cx="254.1328" cy="959.1266" fill="#FEFECE" filter="url(#f15jfovuedgjip)" rx="78.6328" ry="18.1266" style="stroke: #A80036; stroke-width: 1.5;"/><text fill="#000000" font-family="sans-serif" font-size="14" lengthAdjust="spacingAndGlyphs" textLength="123" x="192.6328" y="964.4312">Manage Resources</text><!--entity ITOperations--><ellipse cx="49" cy="439.5" fill="#FEFECE" filter="url(#f15jfovuedgjip)" rx="8" ry="8" style="stroke: #A80036; stroke-width: 2.0;"/><path d="M49,447.5 L49,474.5 M36,455.5 L62,455.5 M49,474.5 L36,489.5 M49,474.5 L62,489.5 " fill="none" filter="url(#f15jfovuedgjip)" style="stroke: #A80036; stroke-width: 2.0;"/><text fill="#000000" font-family="sans-serif" font-size="14" lengthAdjust="spacingAndGlyphs" textLength="86" x="6" y="511.0332">IT Operations</text><!--link ITOperations to ManageDataCenter--><path d="M53.8837,429.335 C62.3986,345.016 85.3894,161.273 127.5,116 C139.874,102.697 156.765,94.095 174.145,88.555 " fill="none" id="ITOperations-ManageDataCenter" style="stroke: #A80036; stroke-width: 1.0;"/><polygon fill="#A80036" points="179.056,87.072,169.2842,85.8421,174.2691,88.5162,171.595,93.5011,179.056,87.072" style="stroke: #A80036; stroke-width: 1.0;"/><!--link ITOperations to ManageInfrastructure--><path d="M55.0006,429.063 C62.839,377.801 82.1268,291.652 127.5,233 C148.274,206.146 180.786,185.783 207.513,172.322 " fill="none" id="ITOperations-ManageInfrastructure" style="stroke: #A80036; stroke-width: 1.0;"/><polygon fill="#A80036" points="212.09,170.055,202.2497,170.4658,207.6096,172.2745,205.8009,177.6344,212.09,170.055" style="stroke: #A80036; stroke-width: 1.0;"/><!--link ITOperations to FindResources--><path d="M58.3452,429.32 C68.2165,390.132 88.4953,333.256 127.5,300 C143.336,286.498 164.041,278.312 184.055,273.363 " fill="none" id="ITOperations-FindResources" style="stroke: #A80036; stroke-width: 1.0;"/><polygon fill="#A80036" points="189.125,272.173,179.4489,270.3363,184.2574,273.316,181.2777,278.1244,189.125,272.173" style="stroke: #A80036; stroke-width: 1.0;"/><!--link ITOperations to ManageBilling--><path d="M71.775,429.481 C85.077,407.494 104.0481,381.986 127.5,366 C145.94,353.43 168.9,345.647 190.122,340.828 " fill="none" id="ITOperations-ManageBilling" style="stroke: #A80036; stroke-width: 1.0;"/><polygon fill="#A80036" points="195.189,339.726,185.5444,337.7306,190.3033,340.7889,187.245,345.5477,195.189,339.726" style="stroke: #A80036; stroke-width: 1.0;"/><!--link ITOperations to ManageCostModel--><path d="M92.11,450.925 C103.4451,445.672 115.808,440.313 127.5,436 C149.4,427.921 174.037,420.668 195.646,414.888 " fill="none" id="ITOperations-ManageCostModel" style="stroke: #A80036; stroke-width: 1.0;"/><polygon fill="#A80036" points="200.494,413.602,190.769,412.0449,195.6614,414.8848,192.8215,419.7772,200.494,413.602" style="stroke: #A80036; stroke-width: 1.0;"/><!--link ITOperations to ManageMultiCloud--><path d="M92.0617,472 C114.381,472 142.621,472 169.191,472 " fill="none" id="ITOperations-ManageMultiCloud" style="stroke: #A80036; stroke-width: 1.0;"/><polygon fill="#A80036" points="174.481,472,165.481,468,169.481,472,165.481,476,174.481,472" style="stroke: #A80036; stroke-width: 1.0;"/><!--link ITOperations to MapAssetstoCloud--><path d="M92.1316,493.016 C103.4666,498.27 115.824,503.644 127.5,508 C148.734,515.922 172.525,523.148 193.637,529.012 " fill="none" id="ITOperations-MapAssetstoCloud" style="stroke: #A80036; stroke-width: 1.0;"/><polygon fill="#A80036" points="198.66,530.396,191.0448,524.1504,193.8394,529.0687,188.9211,531.8633,198.66,530.396" style="stroke: #A80036; stroke-width: 1.0;"/><!--link ITOperations to MapServicestoResources--><path d="M71.7801,514.575 C85.1398,536.894 104.1641,563.041 127.5,580 C141.247,589.991 157.588,597.552 173.859,603.252 " fill="none" id="ITOperations-MapServicestoResources" style="stroke: #A80036; stroke-width: 1.0;"/><polygon fill="#A80036" points="178.903,604.961,171.6641,598.2829,174.1678,603.3555,169.0952,605.8592,178.903,604.961" style="stroke: #A80036; stroke-width: 1.0;"/><!--link ITOperations to ManageEnvironment--><path d="M59.6328,514.575 C70.5613,555.279 91.6895,616.565 127.5,659 C149.632,685.226 182.738,705.558 209.392,719.024 " fill="none" id="ITOperations-ManageEnvironment" style="stroke: #A80036; stroke-width: 1.0;"/><polygon fill="#A80036" points="213.95,721.292,207.6744,713.7014,209.4736,719.0645,204.1105,720.8636,213.95,721.292" style="stroke: #A80036; stroke-width: 1.0;"/><!--link ITOperations to ManageClouds--><path d="M51.0861,514.701 C54.7021,577.252 69.4,694.826 127.5,773 C148.542,801.312 183.545,821.234 211.247,833.557 " fill="none" id="ITOperations-ManageClouds" style="stroke: #A80036; stroke-width: 1.0;"/><polygon fill="#A80036" points="215.977,835.62,209.3263,828.3558,211.3939,833.6213,206.1284,835.6889,215.977,835.62" style="stroke: #A80036; stroke-width: 1.0;"/><!--link ITOperations to ManageResources--><path d="M53.7349,514.631 C62.5016,606.907 86.7874,821.616 127.5,881 C146.698,909.0019 179.587,928.8976 206.881,941.5847 " fill="none" id="ITOperations-ManageResources" style="stroke: #A80036; stroke-width: 1.0;"/><polygon fill="#A80036" points="211.558,943.7144,205.024,936.3451,207.0073,941.6429,201.7095,943.6262,211.558,943.7144" style="stroke: #A80036; stroke-width: 1.0;"/><!--
@startuml

left to right direction


Actor "IT Operations" as ITOperations


rectangle "Common Physical Layer" as cpl #lightgray {
        usecase "Manage Data Center" as ManageDataCenter
    ITOperations - -> ManageDataCenter
    usecase "Manage Infrastructure" as ManageInfrastructure
    ITOperations - -> ManageInfrastructure

}

rectangle "Cloud Broker" as cb #lightgreen {
        usecase "Find Resources" as FindResources
    ITOperations - -> FindResources
    usecase "ManageBilling" as ManageBilling
    ITOperations - -> ManageBilling
    usecase "ManageCostModel" as ManageCostModel
    ITOperations - -> ManageCostModel
    usecase "Manage Multi Cloud" as ManageMultiCloud
    ITOperations - -> ManageMultiCloud
    usecase "Map Assets to Cloud" as MapAssetstoCloud
    ITOperations - -> MapAssetstoCloud
    usecase "Map Services to Resources" as MapServicestoResources
    ITOperations - -> MapServicestoResources

}

rectangle "Environment Management" as em #lightgreen {
        usecase "Manage Environment" as ManageEnvironment
    ITOperations - -> ManageEnvironment

}

rectangle "Service Management Layer" as sml #lightgreen {
        usecase "Manage Clouds" as ManageClouds
    ITOperations - -> ManageClouds

}

rectangle "Software Defined Infrastructure" as sdi #lightyellow {
        usecase "Manage Resources" as ManageResources
    ITOperations - -> ManageResources

}


@enduml

PlantUML version 1.2019.05(Sat Apr 20 09:45:36 PDT 2019)
(GPL source distribution)
Java Runtime: OpenJDK Runtime Environment
JVM: OpenJDK 64-Bit Server VM
Java Version: 12.0.1+12
Operating System: Windows 10
OS Version: 10.0
Default Encoding: Cp1252
Language: en
Country: US
--></g></svg>