<?xml version="1.0" encoding="UTF-8" standalone="no"?><svg xmlns="http://www.w3.org/2000/svg" xmlns:xlink="http://www.w3.org/1999/xlink" contentScriptType="application/ecmascript" contentStyleType="text/css" height="206px" preserveAspectRatio="none" style="width:227px;height:206px;" version="1.1" viewBox="0 0 227 206" width="227px" zoomAndPan="magnify"><defs><filter height="300%" id="f16r4zyfwejfo0" width="300%" x="-1" y="-1"><feGaussianBlur result="blurOut" stdDeviation="2.0"/><feColorMatrix in="blurOut" result="blurOut2" type="matrix" values="0 0 0 0 0 0 0 0 0 0 0 0 0 0 0 0 0 0 .4 0"/><feOffset dx="4.0" dy="4.0" in="blurOut2" result="blurOut3"/><feBlend in="SourceGraphic" in2="blurOut3" mode="normal"/></filter></defs><g><ellipse cx="110.5017" cy="174.0003" fill="#FEFECE" filter="url(#f16r4zyfwejfo0)" rx="93.0017" ry="21.0003" style="stroke: #A80036; stroke-width: 1.5;"/><text fill="#000000" font-family="sans-serif" font-size="14" lengthAdjust="spacingAndGlyphs" textLength="157" x="32.0017" y="179.305">Manage Data Blue Prints</text><!--entity DataEngineer--><ellipse cx="49.5" cy="18" fill="#FEFECE" filter="url(#f16r4zyfwejfo0)" rx="8" ry="8" style="stroke: #A80036; stroke-width: 2.0;"/><path d="M49.5,26 L49.5,53 M36.5,34 L62.5,34 M49.5,53 L36.5,68 M49.5,53 L62.5,68 " fill="none" filter="url(#f16r4zyfwejfo0)" style="stroke: #A80036; stroke-width: 2.0;"/><text fill="#000000" font-family="sans-serif" font-size="14" lengthAdjust="spacingAndGlyphs" textLength="87" x="6" y="89.5332">DataEngineer</text><!--entity DataScientist--><ellipse cx="171.5" cy="18" fill="#FEFECE" filter="url(#f16r4zyfwejfo0)" rx="8" ry="8" style="stroke: #A80036; stroke-width: 2.0;"/><path d="M171.5,26 L171.5,53 M158.5,34 L184.5,34 M171.5,53 L158.5,68 M171.5,53 L184.5,68 " fill="none" filter="url(#f16r4zyfwejfo0)" style="stroke: #A80036; stroke-width: 2.0;"/><text fill="#000000" font-family="sans-serif" font-size="14" lengthAdjust="spacingAndGlyphs" textLength="87" x="128" y="89.5332">Data Scientist</text><!--link DataEngineer to ManageDataBluePrints--><path d="M70.4927,93.313 C79.675,111.6027 90.1347,132.4362 98.0556,148.2133 " fill="none" id="DataEngineer-ManageDataBluePrints" style="stroke: #A80036; stroke-width: 1.0;"/><polygon fill="#A80036" points="100.4282,152.9389,99.9648,143.101,98.1848,148.4705,92.8153,146.6904,100.4282,152.9389" style="stroke: #A80036; stroke-width: 1.0;"/><!--link DataScientist to ManageDataBluePrints--><path d="M150.507,93.313 C141.325,111.6027 130.865,132.4362 122.944,148.2133 " fill="none" id="DataScientist-ManageDataBluePrints" style="stroke: #A80036; stroke-width: 1.0;"/><polygon fill="#A80036" points="120.572,152.9389,128.1849,146.6904,122.8154,148.4704,121.0353,143.1009,120.572,152.9389" style="stroke: #A80036; stroke-width: 1.0;"/><!--
@startuml


usecase "Manage Data Blue Prints" as ManageDataBluePrints

Actor "DataEngineer" as DataEngineer

DataEngineer - -> ManageDataBluePrints

Actor "Data Scientist" as DataScientist

DataScientist - -> ManageDataBluePrints



@enduml

PlantUML version 1.2019.05(Sat Apr 20 09:45:36 PDT 2019)
(GPL source distribution)
Java Runtime: OpenJDK Runtime Environment
JVM: OpenJDK 64-Bit Server VM
Java Version: 12.0.1+12
Operating System: Windows 10
OS Version: 10.0
Default Encoding: Cp1252
Language: en
Country: US
--></g></svg>