<?xml version="1.0" encoding="UTF-8" standalone="no"?><svg xmlns="http://www.w3.org/2000/svg" xmlns:xlink="http://www.w3.org/1999/xlink" contentScriptType="application/ecmascript" contentStyleType="text/css" height="275px" preserveAspectRatio="none" style="width:840px;height:275px;" version="1.1" viewBox="0 0 840 275" width="840px" zoomAndPan="magnify"><defs><filter height="300%" id="f4jq6igknmx2" width="300%" x="-1" y="-1"><feGaussianBlur result="blurOut" stdDeviation="2.0"/><feColorMatrix in="blurOut" result="blurOut2" type="matrix" values="0 0 0 0 0 0 0 0 0 0 0 0 0 0 0 0 0 0 .4 0"/><feOffset dx="4.0" dy="4.0" in="blurOut2" result="blurOut3"/><feBlend in="SourceGraphic" in2="blurOut3" mode="normal"/></filter></defs><g><!--cluster Distributed Information Management Layer--><polygon fill="#FFCC88" filter="url(#f4jq6igknmx2)" points="483,42,788,42,795,65.6094,818,65.6094,818,172,483,172,483,42" style="stroke: #000000; stroke-width: 1.5;"/><line style="stroke: #000000; stroke-width: 1.5;" x1="483" x2="795" y1="65.6094" y2="65.6094"/><text fill="#000000" font-family="sans-serif" font-size="14" font-weight="bold" lengthAdjust="spacingAndGlyphs" textLength="299" x="487" y="58.5332">Distributed Information Management Layer</text><polygon fill="#FFFFE0" filter="url(#f4jq6igknmx2)" points="6,208,234,208,241,231.6094,248,231.6094,248,263.2188,6,263.2188,6,208" style="stroke: #000000; stroke-width: 1.5;"/><line style="stroke: #000000; stroke-width: 1.5;" x1="6" x2="241" y1="231.6094" y2="231.6094"/><text fill="#000000" font-family="sans-serif" font-size="14" font-weight="bold" lengthAdjust="spacingAndGlyphs" textLength="222" x="10" y="224.5332">Software Defined Infrastructure</text><polygon fill="#90EE90" filter="url(#f4jq6igknmx2)" points="283.5,208,480.5,208,487.5,231.6094,494.5,231.6094,494.5,263.2188,283.5,263.2188,283.5,208" style="stroke: #000000; stroke-width: 1.5;"/><line style="stroke: #000000; stroke-width: 1.5;" x1="283.5" x2="487.5" y1="231.6094" y2="231.6094"/><text fill="#000000" font-family="sans-serif" font-size="14" font-weight="bold" lengthAdjust="spacingAndGlyphs" textLength="191" x="287.5" y="224.5332">Service Management Layer</text><polygon fill="#FFC0CB" filter="url(#f4jq6igknmx2)" points="529.5,208,644.5,208,651.5,231.6094,658.5,231.6094,658.5,263.2188,529.5,263.2188,529.5,208" style="stroke: #000000; stroke-width: 1.5;"/><line style="stroke: #000000; stroke-width: 1.5;" x1="529.5" x2="651.5" y1="231.6094" y2="231.6094"/><text fill="#000000" font-family="sans-serif" font-size="14" font-weight="bold" lengthAdjust="spacingAndGlyphs" textLength="109" x="533.5" y="224.5332">Security Aspect</text><polygon fill="#FFC0CB" filter="url(#f4jq6igknmx2)" points="694,208,804,208,811,231.6094,818,231.6094,818,263.2188,694,263.2188,694,208" style="stroke: #000000; stroke-width: 1.5;"/><line style="stroke: #000000; stroke-width: 1.5;" x1="694" x2="811" y1="231.6094" y2="231.6094"/><text fill="#000000" font-family="sans-serif" font-size="14" font-weight="bold" lengthAdjust="spacingAndGlyphs" textLength="104" x="698" y="224.5332">Identity Aspect</text><!--class i--><rect fill="#FEFECE" filter="url(#f4jq6igknmx2)" height="61.8359" id="i" style="stroke: #A80036; stroke-width: 1.5;" width="267" x="526.5" y="86"/><ellipse cx="541.5" cy="102" fill="#B4A7E5" rx="11" ry="11" style="stroke: #A80036; stroke-width: 1.0;"/><path d="M542.4531,98.6406 L542.4531,105.2969 L544.1719,105.2969 Q544.7813,105.2969 545.0469,105.5313 Q545.3125,105.7656 545.3125,106.1563 Q545.3125,106.5313 545.0469,106.7656 Q544.7813,107 544.1719,107 L539.0313,107 Q538.4219,107 538.1563,106.7656 Q537.8906,106.5313 537.8906,106.1406 Q537.8906,105.7656 538.1563,105.5313 Q538.4219,105.2969 539.0313,105.2969 L540.75,105.2969 L540.75,98.6406 L539.0313,98.6406 Q538.4219,98.6406 538.1563,98.4063 Q537.8906,98.1719 537.8906,97.7813 Q537.8906,97.4063 538.1563,97.1719 Q538.4219,96.9375 539.0313,96.9375 L544.1719,96.9375 Q544.7813,96.9375 545.0469,97.1719 Q545.3125,97.4063 545.3125,97.7813 Q545.3125,98.1719 545.0469,98.4063 Q544.7813,98.6406 544.1719,98.6406 L542.4531,98.6406 Z "/><text fill="#000000" font-family="sans-serif" font-size="12" font-style="italic" lengthAdjust="spacingAndGlyphs" textLength="235" x="555.5" y="106.9102">Distributed Information Management Layer</text><line style="stroke: #A80036; stroke-width: 1.5;" x1="527.5" x2="792.5" y1="118" y2="118"/><line style="stroke: #A80036; stroke-width: 1.5;" x1="527.5" x2="792.5" y1="126" y2="126"/><text fill="#000000" font-family="sans-serif" font-size="11" lengthAdjust="spacingAndGlyphs" textLength="101" x="532.5" y="141.4189">/edgemere/diml/find()</text><ellipse cx="615" cy="13" fill="#FEFECE" filter="url(#f4jq6igknmx2)" rx="5" ry="5" style="stroke: #A80036; stroke-width: 1.5;"/><text fill="#000000" font-family="sans-serif" font-size="12" lengthAdjust="spacingAndGlyphs" textLength="19" x="605.5" y="30.457">CLI</text><ellipse cx="660" cy="13" fill="#FEFECE" filter="url(#f4jq6igknmx2)" rx="5" ry="5" style="stroke: #A80036; stroke-width: 1.5;"/><text fill="#000000" font-family="sans-serif" font-size="12" lengthAdjust="spacingAndGlyphs" textLength="32" x="644" y="30.457">REST</text><ellipse cx="705" cy="13" fill="#FEFECE" filter="url(#f4jq6igknmx2)" rx="5" ry="5" style="stroke: #A80036; stroke-width: 1.5;"/><text fill="#000000" font-family="sans-serif" font-size="12" lengthAdjust="spacingAndGlyphs" textLength="25" x="692.5" y="30.457">Web</text><!--link ilol6943 to i--><path d="M616.709,17.874 C621.557,28.864 635.748,61.029 646.573,85.565 " fill="none" id="ilol6943-i" style="stroke: #A80036; stroke-width: 1.0;"/><!--link ilol6946 to i--><path d="M660,18.383 C660,29.822 660,61.37 660,85.535 " fill="none" id="ilol6946-i" style="stroke: #A80036; stroke-width: 1.0;"/><!--link ilol6949 to i--><path d="M703.291,17.874 C698.443,28.864 684.252,61.029 673.427,85.565 " fill="none" id="ilol6949-i" style="stroke: #A80036; stroke-width: 1.0;"/><!--link Distributed Information Management Layer to Software Defined Infrastructure--><path d="M482.8213,120.6176 C482.6659,120.6674 482.5084,120.7178 482.3489,120.7688 C477.2439,122.4027 470.0398,124.7084 461.1689,127.5476 C443.4271,133.226 419.018,141.0383 391.4,149.8776 C336.164,167.5561 268.0925,189.3427 214.853,206.3822 " fill="none" id="Distributed Information Management Layer-Software Defined Infrastructure" style="stroke: #A80036; stroke-width: 1.0;"/><polygon fill="#A80036" points="209.828,207.9904,219.619,209.0563,214.59,206.4661,217.1802,201.4371,209.828,207.9904" style="stroke: #A80036; stroke-width: 1.0;"/><!--link Distributed Information Management Layer to Service Management Layer--><path d="M482.926,127.2212 C482.7784,127.3898 482.629,127.5604 482.478,127.7329 C477.6444,133.2536 471.0831,140.7478 463.6631,149.2226 C448.8233,166.1722 430.549,187.0444 415.794,203.8968 " fill="none" id="Distributed Information Management Layer-Service Management Layer" style="stroke: #A80036; stroke-width: 1.0;"/><polygon fill="#A80036" points="412.269,207.9231,421.2074,203.7872,415.5629,204.1614,415.1887,198.517,412.269,207.9231" style="stroke: #A80036; stroke-width: 1.0;"/><!--link Distributed Information Management Layer to Security Aspect--><path d="M500.9388,172.3099 C500.9877,172.4246 501.0369,172.5392 501.0863,172.6537 C501.877,174.4856 502.7294,176.2895 503.6484,178.0511 C505.4864,181.5743 507.5908,184.9285 510,188 C514.941,194.2996 520.985,199.8721 527.544,204.7688 " fill="none" id="Distributed Information Management Layer-Security Aspect" style="stroke: #A80036; stroke-width: 1.0;"/><polygon fill="#A80036" points="531.689,207.7307,526.6922,199.2435,527.621,204.8236,522.0409,205.7524,531.689,207.7307" style="stroke: #A80036; stroke-width: 1.0;"/><!--link Distributed Information Management Layer to Identity Aspect--><path d="M498.4796,172.2438 C498.5832,172.4652 498.6881,172.6859 498.7943,172.9058 C499.0066,173.3458 499.2243,173.7828 499.4472,174.2167 C500.3391,175.9521 501.3168,177.6365 502.388,179.253 C504.5303,182.486 507.0469,185.4471 510,188 C538.109,212.2989 639.739,199.8956 676,208 C680.208,208.9404 684.507,210.0155 688.821,211.1818 " fill="none" id="Distributed Information Management Layer-Identity Aspect" style="stroke: #A80036; stroke-width: 1.0;"/><polygon fill="#A80036" points="693.886,212.5902,686.2872,206.3246,689.0689,211.2502,684.1432,214.032,693.886,212.5902" style="stroke: #A80036; stroke-width: 1.0;"/><!--
@startuml


package "Software Defined Infrastructure" #lightyellow {
    }

package "Service Management Layer" #lightgreen {
    }

package "Security Aspect" #pink {
    }

package "Identity Aspect" #pink {
    }


package "Distributed Information Management Layer" #ffcc88 {

    interface "Distributed Information Management Layer" as i {
            /edgemere/diml/find()
    
    }
}

CLI ()- - i
REST ()- - i
Web ()- - i

package "Distributed Information Management Layer" #ffcc88 {
    
}


    "Distributed Information Management Layer" - -> "Software Defined Infrastructure"

    "Distributed Information Management Layer" - -> "Service Management Layer"

    "Distributed Information Management Layer" - -> "Security Aspect"

    "Distributed Information Management Layer" - -> "Identity Aspect"


@enduml

PlantUML version 1.2019.05(Sat Apr 20 09:45:36 PDT 2019)
(GPL source distribution)
Java Runtime: OpenJDK Runtime Environment
JVM: OpenJDK 64-Bit Server VM
Java Version: 12.0.1+12
Operating System: Windows 10
OS Version: 10.0
Default Encoding: Cp1252
Language: en
Country: US
--></g></svg>