<?xml version="1.0" encoding="UTF-8" standalone="no"?><svg xmlns="http://www.w3.org/2000/svg" xmlns:xlink="http://www.w3.org/1999/xlink" contentScriptType="application/ecmascript" contentStyleType="text/css" height="1321px" preserveAspectRatio="none" style="width:539px;height:1321px;" version="1.1" viewBox="0 0 539 1321" width="539px" zoomAndPan="magnify"><defs><filter height="300%" id="fnk758dgzdxui" width="300%" x="-1" y="-1"><feGaussianBlur result="blurOut" stdDeviation="2.0"/><feColorMatrix in="blurOut" result="blurOut2" type="matrix" values="0 0 0 0 0 0 0 0 0 0 0 0 0 0 0 0 0 0 .4 0"/><feOffset dx="4.0" dy="4.0" in="blurOut2" result="blurOut3"/><feBlend in="SourceGraphic" in2="blurOut3" mode="normal"/></filter></defs><g><!--cluster DataEngineer--><rect fill="#FEFECE" filter="url(#fnk758dgzdxui)" height="357" rx="12.5" ry="12.5" style="stroke: #A80036; stroke-width: 1.5;" width="214" x="50" y="75"/><rect fill="#FFFFFF" height="323.3906" rx="12.5" ry="12.5" style="stroke: #FFFFFF; stroke-width: 1.0;" width="208" x="53" y="105.6094"/><line style="stroke: #A80036; stroke-width: 1.5;" x1="50" x2="264" y1="102.6094" y2="102.6094"/><text fill="#000000" font-family="sans-serif" font-size="14" lengthAdjust="spacingAndGlyphs" textLength="91" x="111.5" y="93.5332">Data Engineer</text><!--cluster diml--><rect fill="#FFCC88" filter="url(#fnk758dgzdxui)" height="1062" rx="12.5" ry="12.5" style="stroke: #A80036; stroke-width: 1.5;" width="205" x="322.5" y="24"/><rect fill="#FFFFFF" height="1028.3906" rx="12.5" ry="12.5" style="stroke: #FFFFFF; stroke-width: 1.0;" width="199" x="325.5" y="54.6094"/><line style="stroke: #A80036; stroke-width: 1.5;" x1="322.5" x2="527.5" y1="51.6094" y2="51.6094"/><text fill="#000000" font-family="sans-serif" font-size="14" lengthAdjust="spacingAndGlyphs" textLength="25" x="412.5" y="42.5332">diml</text><!--cluster dimlddf--><rect fill="#FFCC88" filter="url(#fnk758dgzdxui)" height="674" rx="12.5" ry="12.5" style="stroke: #A80036; stroke-width: 1.5;" width="157" x="346.5" y="68"/><rect fill="#FFFFFF" height="640.3906" rx="12.5" ry="12.5" style="stroke: #FFFFFF; stroke-width: 1.0;" width="151" x="349.5" y="98.6094"/><line style="stroke: #A80036; stroke-width: 1.5;" x1="346.5" x2="503.5" y1="95.6094" y2="95.6094"/><text fill="#000000" font-family="sans-serif" font-size="14" lengthAdjust="spacingAndGlyphs" textLength="20" x="415" y="86.5332">ddf</text><!--cluster dimlddfdatadaptor--><rect fill="#FFCC88" filter="url(#fnk758dgzdxui)" height="102" rx="12.5" ry="12.5" style="stroke: #A80036; stroke-width: 1.5;" width="85" x="382.5" y="238"/><rect fill="#FFFFFF" height="68.3906" rx="12.5" ry="12.5" style="stroke: #FFFFFF; stroke-width: 1.0;" width="79" x="385.5" y="268.6094"/><line style="stroke: #A80036; stroke-width: 1.5;" x1="382.5" x2="467.5" y1="265.6094" y2="265.6094"/><text fill="#000000" font-family="sans-serif" font-size="14" lengthAdjust="spacingAndGlyphs" textLength="69" x="390.5" y="256.5332">datadaptor</text><!--cluster dimlddfdatablueprint--><rect fill="#FFCC88" filter="url(#fnk758dgzdxui)" height="102" rx="12.5" ry="12.5" style="stroke: #A80036; stroke-width: 1.5;" width="99" x="375.5" y="364"/><rect fill="#FFFFFF" height="68.3906" rx="12.5" ry="12.5" style="stroke: #FFFFFF; stroke-width: 1.0;" width="93" x="378.5" y="394.6094"/><line style="stroke: #A80036; stroke-width: 1.5;" x1="375.5" x2="474.5" y1="391.6094" y2="391.6094"/><text fill="#000000" font-family="sans-serif" font-size="14" lengthAdjust="spacingAndGlyphs" textLength="83" x="383.5" y="382.5332">datablueprint</text><!--cluster dimlddfdatapipeline--><rect fill="#FFCC88" filter="url(#fnk758dgzdxui)" height="102" rx="12.5" ry="12.5" style="stroke: #A80036; stroke-width: 1.5;" width="93" x="378.5" y="112"/><rect fill="#FFFFFF" height="68.3906" rx="12.5" ry="12.5" style="stroke: #FFFFFF; stroke-width: 1.0;" width="87" x="381.5" y="142.6094"/><line style="stroke: #A80036; stroke-width: 1.5;" x1="378.5" x2="471.5" y1="139.6094" y2="139.6094"/><text fill="#000000" font-family="sans-serif" font-size="14" lengthAdjust="spacingAndGlyphs" textLength="77" x="386.5" y="130.5332">datapipeline</text><!--cluster dimlddfdataprocedure--><rect fill="#FFCC88" filter="url(#fnk758dgzdxui)" height="102" rx="12.5" ry="12.5" style="stroke: #A80036; stroke-width: 1.5;" width="109" x="370.5" y="616"/><rect fill="#FFFFFF" height="68.3906" rx="12.5" ry="12.5" style="stroke: #FFFFFF; stroke-width: 1.0;" width="103" x="373.5" y="646.6094"/><line style="stroke: #A80036; stroke-width: 1.5;" x1="370.5" x2="479.5" y1="643.6094" y2="643.6094"/><text fill="#000000" font-family="sans-serif" font-size="14" lengthAdjust="spacingAndGlyphs" textLength="93" x="378.5" y="634.5332">dataprocedure</text><!--cluster dimlddfmetadata--><rect fill="#FFCC88" filter="url(#fnk758dgzdxui)" height="102" rx="12.5" ry="12.5" style="stroke: #A80036; stroke-width: 1.5;" width="82" x="383.5" y="490"/><rect fill="#FFFFFF" height="68.3906" rx="12.5" ry="12.5" style="stroke: #FFFFFF; stroke-width: 1.0;" width="76" x="386.5" y="520.6094"/><line style="stroke: #A80036; stroke-width: 1.5;" x1="383.5" x2="465.5" y1="517.6094" y2="517.6094"/><text fill="#000000" font-family="sans-serif" font-size="14" lengthAdjust="spacingAndGlyphs" textLength="59" x="395" y="508.5332">metadata</text><!--cluster dimlddfdata--><rect fill="#FFCC88" filter="url(#fnk758dgzdxui)" height="170" rx="12.5" ry="12.5" style="stroke: #A80036; stroke-width: 1.5;" width="135" x="357" y="892"/><rect fill="#FFFFFF" height="136.3906" rx="12.5" ry="12.5" style="stroke: #FFFFFF; stroke-width: 1.0;" width="129" x="360" y="922.6094"/><line style="stroke: #A80036; stroke-width: 1.5;" x1="357" x2="492" y1="919.6094" y2="919.6094"/><text fill="#000000" font-family="sans-serif" font-size="14" lengthAdjust="spacingAndGlyphs" textLength="48" x="400.5" y="910.5332">ddfdata</text><!--cluster dimlddfdatasource--><rect fill="#FFCC88" filter="url(#fnk758dgzdxui)" height="102" rx="12.5" ry="12.5" style="stroke: #A80036; stroke-width: 1.5;" width="87" x="381" y="936"/><rect fill="#FFFFFF" height="68.3906" rx="12.5" ry="12.5" style="stroke: #FFFFFF; stroke-width: 1.0;" width="81" x="384" y="966.6094"/><line style="stroke: #A80036; stroke-width: 1.5;" x1="381" x2="468" y1="963.6094" y2="963.6094"/><text fill="#000000" font-family="sans-serif" font-size="14" lengthAdjust="spacingAndGlyphs" textLength="43" x="403" y="954.5332">source</text><!--cluster dimlddfdatacatalog--><rect fill="#FFCC88" filter="url(#fnk758dgzdxui)" height="102" rx="12.5" ry="12.5" style="stroke: #A80036; stroke-width: 1.5;" width="110" x="369.5" y="766"/><rect fill="#FFFFFF" height="68.3906" rx="12.5" ry="12.5" style="stroke: #FFFFFF; stroke-width: 1.0;" width="104" x="372.5" y="796.6094"/><line style="stroke: #A80036; stroke-width: 1.5;" x1="369.5" x2="479.5" y1="793.6094" y2="793.6094"/><text fill="#000000" font-family="sans-serif" font-size="14" lengthAdjust="spacingAndGlyphs" textLength="94" x="377.5" y="784.5332">ddfdatacatalog</text><!--cluster DataScientist--><rect fill="#FEFECE" filter="url(#fnk758dgzdxui)" height="364" rx="12.5" ry="12.5" style="stroke: #A80036; stroke-width: 1.5;" width="270" x="22" y="456"/><rect fill="#FFFFFF" height="330.3906" rx="12.5" ry="12.5" style="stroke: #FFFFFF; stroke-width: 1.0;" width="264" x="25" y="486.6094"/><line style="stroke: #A80036; stroke-width: 1.5;" x1="22" x2="292" y1="483.6094" y2="483.6094"/><text fill="#000000" font-family="sans-serif" font-size="14" lengthAdjust="spacingAndGlyphs" textLength="87" x="113.5" y="474.5332">Data Scientist</text><!--cluster DataScientistManageMetaData--><rect fill="#FEFECE" filter="url(#fnk758dgzdxui)" height="137" rx="12.5" ry="12.5" style="stroke: #A80036; stroke-width: 1.5;" width="206" x="54" y="651"/><rect fill="#FFFFFF" height="103.3906" rx="12.5" ry="12.5" style="stroke: #FFFFFF; stroke-width: 1.0;" width="200" x="57" y="681.6094"/><line style="stroke: #A80036; stroke-width: 1.5;" x1="54" x2="260" y1="678.6094" y2="678.6094"/><text fill="#000000" font-family="sans-serif" font-size="14" lengthAdjust="spacingAndGlyphs" textLength="120" x="97" y="669.5332">Manage Meta Data</text><!--cluster Actor--><rect fill="#FEFECE" filter="url(#fnk758dgzdxui)" height="340" rx="12.5" ry="12.5" style="stroke: #A80036; stroke-width: 1.5;" width="239" x="37.5" y="844"/><rect fill="#FFFFFF" height="306.3906" rx="12.5" ry="12.5" style="stroke: #FFFFFF; stroke-width: 1.0;" width="233" x="40.5" y="874.6094"/><line style="stroke: #A80036; stroke-width: 1.5;" x1="37.5" x2="276.5" y1="871.6094" y2="871.6094"/><text fill="#000000" font-family="sans-serif" font-size="14" lengthAdjust="spacingAndGlyphs" textLength="33" x="140.5" y="862.5332">Actor</text><!--cluster ActorManageDataAdaptors--><rect fill="#FEFECE" filter="url(#fnk758dgzdxui)" height="272" rx="12.5" ry="12.5" style="stroke: #A80036; stroke-width: 1.5;" width="191" x="61.5" y="888"/><rect fill="#FFFFFF" height="238.3906" rx="12.5" ry="12.5" style="stroke: #FFFFFF; stroke-width: 1.0;" width="185" x="64.5" y="918.6094"/><line style="stroke: #A80036; stroke-width: 1.5;" x1="61.5" x2="252.5" y1="915.6094" y2="915.6094"/><text fill="#000000" font-family="sans-serif" font-size="14" lengthAdjust="spacingAndGlyphs" textLength="146" x="84" y="906.5332">Manage Data Adaptors</text><!--cluster ChiefDataOfficer--><rect fill="#FEFECE" filter="url(#fnk758dgzdxui)" height="102" rx="12.5" ry="12.5" style="stroke: #A80036; stroke-width: 1.5;" width="214" x="50" y="1208"/><rect fill="#FFFFFF" height="68.3906" rx="12.5" ry="12.5" style="stroke: #FFFFFF; stroke-width: 1.0;" width="208" x="53" y="1238.6094"/><line style="stroke: #A80036; stroke-width: 1.5;" x1="50" x2="264" y1="1235.6094" y2="1235.6094"/><text fill="#000000" font-family="sans-serif" font-size="14" lengthAdjust="spacingAndGlyphs" textLength="113" x="100.5" y="1226.5332">Chief Data Officer</text><rect fill="#FEFECE" filter="url(#fnk758dgzdxui)" height="50" rx="12.5" ry="12.5" style="stroke: #A80036; stroke-width: 1.5;" width="166" x="74" y="196"/><line style="stroke: #A80036; stroke-width: 1.5;" x1="74" x2="240" y1="223.6094" y2="223.6094"/><text fill="#000000" font-family="sans-serif" font-size="14" lengthAdjust="spacingAndGlyphs" textLength="146" x="84" y="215.5332">Manage Data Adaptors</text><rect fill="#FEFECE" filter="url(#fnk758dgzdxui)" height="50" rx="12.5" ry="12.5" style="stroke: #A80036; stroke-width: 1.5;" width="177" x="68.5" y="281"/><line style="stroke: #A80036; stroke-width: 1.5;" x1="68.5" x2="245.5" y1="308.6094" y2="308.6094"/><text fill="#000000" font-family="sans-serif" font-size="14" lengthAdjust="spacingAndGlyphs" textLength="157" x="78.5" y="300.5332">Manage Data Blue Prints</text><rect fill="#FEFECE" filter="url(#fnk758dgzdxui)" height="50" rx="12.5" ry="12.5" style="stroke: #A80036; stroke-width: 1.5;" width="159" x="77.5" y="111"/><line style="stroke: #A80036; stroke-width: 1.5;" x1="77.5" x2="236.5" y1="138.6094" y2="138.6094"/><text fill="#000000" font-family="sans-serif" font-size="14" lengthAdjust="spacingAndGlyphs" textLength="139" x="87.5" y="130.5332">Manage Data Pipeline</text><rect fill="#FEFECE" filter="url(#fnk758dgzdxui)" height="50" rx="12.5" ry="12.5" style="stroke: #A80036; stroke-width: 1.5;" width="182" x="66" y="366"/><line style="stroke: #A80036; stroke-width: 1.5;" x1="66" x2="248" y1="393.6094" y2="393.6094"/><text fill="#000000" font-family="sans-serif" font-size="14" lengthAdjust="spacingAndGlyphs" textLength="162" x="76" y="385.5332">Manage Data Procedures</text><rect fill="#FFCC88" filter="url(#fnk758dgzdxui)" height="50" rx="12.5" ry="12.5" style="stroke: #A80036; stroke-width: 1.5;" width="50" x="399.5" y="274"/><line style="stroke: #A80036; stroke-width: 1.5;" x1="399.5" x2="449.5" y1="301.6094" y2="301.6094"/><text fill="#000000" font-family="sans-serif" font-size="14" lengthAdjust="spacingAndGlyphs" textLength="17" x="416" y="293.5332">list</text><rect fill="#FFCC88" filter="url(#fnk758dgzdxui)" height="50" rx="12.5" ry="12.5" style="stroke: #A80036; stroke-width: 1.5;" width="50" x="399.5" y="400"/><line style="stroke: #A80036; stroke-width: 1.5;" x1="399.5" x2="449.5" y1="427.6094" y2="427.6094"/><text fill="#000000" font-family="sans-serif" font-size="14" lengthAdjust="spacingAndGlyphs" textLength="17" x="416" y="419.5332">list</text><rect fill="#FFCC88" filter="url(#fnk758dgzdxui)" height="50" rx="12.5" ry="12.5" style="stroke: #A80036; stroke-width: 1.5;" width="50" x="399.5" y="148"/><line style="stroke: #A80036; stroke-width: 1.5;" x1="399.5" x2="449.5" y1="175.6094" y2="175.6094"/><text fill="#000000" font-family="sans-serif" font-size="14" lengthAdjust="spacingAndGlyphs" textLength="17" x="416" y="167.5332">list</text><rect fill="#FFCC88" filter="url(#fnk758dgzdxui)" height="50" rx="12.5" ry="12.5" style="stroke: #A80036; stroke-width: 1.5;" width="50" x="399.5" y="652"/><line style="stroke: #A80036; stroke-width: 1.5;" x1="399.5" x2="449.5" y1="679.6094" y2="679.6094"/><text fill="#000000" font-family="sans-serif" font-size="14" lengthAdjust="spacingAndGlyphs" textLength="17" x="416" y="671.5332">list</text><rect fill="#FFCC88" filter="url(#fnk758dgzdxui)" height="50" rx="12.5" ry="12.5" style="stroke: #A80036; stroke-width: 1.5;" width="50" x="399.5" y="526"/><line style="stroke: #A80036; stroke-width: 1.5;" x1="399.5" x2="449.5" y1="553.6094" y2="553.6094"/><text fill="#000000" font-family="sans-serif" font-size="14" lengthAdjust="spacingAndGlyphs" textLength="17" x="416" y="545.5332">list</text><rect fill="#FFCC88" filter="url(#fnk758dgzdxui)" height="50" rx="12.5" ry="12.5" style="stroke: #A80036; stroke-width: 1.5;" width="55" x="397" y="972"/><line style="stroke: #A80036; stroke-width: 1.5;" x1="397" x2="452" y1="999.6094" y2="999.6094"/><text fill="#000000" font-family="sans-serif" font-size="14" lengthAdjust="spacingAndGlyphs" textLength="35" x="407" y="991.5332">name</text><rect fill="#FFCC88" filter="url(#fnk758dgzdxui)" height="50" rx="12.5" ry="12.5" style="stroke: #A80036; stroke-width: 1.5;" width="50" x="399.5" y="802"/><line style="stroke: #A80036; stroke-width: 1.5;" x1="399.5" x2="449.5" y1="829.6094" y2="829.6094"/><text fill="#000000" font-family="sans-serif" font-size="14" lengthAdjust="spacingAndGlyphs" textLength="17" x="416" y="821.5332">list</text><rect fill="#FEFECE" filter="url(#fnk758dgzdxui)" height="50" rx="12.5" ry="12.5" style="stroke: #A80036; stroke-width: 1.5;" width="166" x="74" y="492"/><line style="stroke: #A80036; stroke-width: 1.5;" x1="74" x2="240" y1="519.6094" y2="519.6094"/><text fill="#000000" font-family="sans-serif" font-size="14" lengthAdjust="spacingAndGlyphs" textLength="146" x="84" y="511.5332">Manage Data Adaptors</text><rect fill="#FEFECE" filter="url(#fnk758dgzdxui)" height="50" rx="12.5" ry="12.5" style="stroke: #A80036; stroke-width: 1.5;" width="177" x="68.5" y="577"/><line style="stroke: #A80036; stroke-width: 1.5;" x1="68.5" x2="245.5" y1="604.6094" y2="604.6094"/><text fill="#000000" font-family="sans-serif" font-size="14" lengthAdjust="spacingAndGlyphs" textLength="157" x="78.5" y="596.5332">Manage Data Blue Prints</text><rect fill="#FEFECE" filter="url(#fnk758dgzdxui)" height="50" rx="12.5" ry="12.5" style="stroke: #A80036; stroke-width: 1.5;" width="158" x="78" y="714"/><line style="stroke: #A80036; stroke-width: 1.5;" x1="78" x2="236" y1="741.6094" y2="741.6094"/><text fill="#000000" font-family="sans-serif" font-size="14" lengthAdjust="spacingAndGlyphs" textLength="138" x="88" y="733.5332">Manage Data Catalog</text><rect fill="#FEFECE" filter="url(#fnk758dgzdxui)" height="50" rx="12.5" ry="12.5" style="stroke: #A80036; stroke-width: 1.5;" width="159" x="77.5" y="924"/><line style="stroke: #A80036; stroke-width: 1.5;" x1="77.5" x2="236.5" y1="951.6094" y2="951.6094"/><text fill="#000000" font-family="sans-serif" font-size="14" lengthAdjust="spacingAndGlyphs" textLength="139" x="87.5" y="943.5332">Attach Data Blue Print</text><rect fill="#FEFECE" filter="url(#fnk758dgzdxui)" height="50" rx="12.5" ry="12.5" style="stroke: #A80036; stroke-width: 1.5;" width="151" x="81.5" y="1009"/><line style="stroke: #A80036; stroke-width: 1.5;" x1="81.5" x2="232.5" y1="1036.6094" y2="1036.6094"/><text fill="#000000" font-family="sans-serif" font-size="14" lengthAdjust="spacingAndGlyphs" textLength="131" x="91.5" y="1028.5332">Create Data Adaptor</text><rect fill="#FEFECE" filter="url(#fnk758dgzdxui)" height="50" rx="12.5" ry="12.5" style="stroke: #A80036; stroke-width: 1.5;" width="153" x="80.5" y="1094"/><line style="stroke: #A80036; stroke-width: 1.5;" x1="80.5" x2="233.5" y1="1121.6094" y2="1121.6094"/><text fill="#000000" font-family="sans-serif" font-size="14" lengthAdjust="spacingAndGlyphs" textLength="133" x="90.5" y="1113.5332">Update Data Adaptor</text><rect fill="#FEFECE" filter="url(#fnk758dgzdxui)" height="50" rx="12.5" ry="12.5" style="stroke: #A80036; stroke-width: 1.5;" width="182" x="66" y="1244"/><line style="stroke: #A80036; stroke-width: 1.5;" x1="66" x2="248" y1="1271.6094" y2="1271.6094"/><text fill="#000000" font-family="sans-serif" font-size="14" lengthAdjust="spacingAndGlyphs" textLength="162" x="76" y="1263.5332">Manage Data Procedures</text><!--link DataEngineerManageDataAdaptors to dimlddfdatadaptorlist--><path d="M240.188,245.15 C292.589,260.54 357.348,279.57 394.189,290.39 " fill="none" id="DataEngineerManageDataAdaptors-dimlddfdatadaptorlist" style="stroke: #A80036; stroke-width: 1.0;"/><polygon fill="#A80036" points="399.418,291.92,391.9154,285.5395,394.6218,290.5069,389.6544,293.2134,399.418,291.92" style="stroke: #A80036; stroke-width: 1.0;"/><!--link DataScientistManageDataAdaptors to dimlddfdatadaptorlist--><path d="M220.925,491.94 C248.693,478.025 279.591,458.168 300,432 C313.706,414.427 301.9,402.381 314.5,384 C335.193,353.814 369.915,329.427 394.607,314.64 " fill="none" id="DataScientistManageDataAdaptors-dimlddfdatadaptorlist" style="stroke: #A80036; stroke-width: 1.0;"/><polygon fill="#A80036" points="399.095,311.99,389.3118,313.1257,394.7906,314.534,393.3823,320.0128,399.095,311.99" style="stroke: #A80036; stroke-width: 1.0;"/><!--link ActorManageDataAdaptorsAttachDataBluePrint to dimlddfdatasourcename--><path d="M236.581,963.207 C288.531,972.599 353.841,984.406 391.906,991.288 " fill="none" id="ActorManageDataAdaptorsAttachDataBluePrint-dimlddfdatasourcename" style="stroke: #A80036; stroke-width: 1.0;"/><polygon fill="#A80036" points="396.864,992.184,388.7182,986.6481,391.9436,991.2954,387.2964,994.5208,396.864,992.184" style="stroke: #A80036; stroke-width: 1.0;"/><!--link ActorManageDataAdaptorsCreateDataAdaptor to dimlddfdatasourcename--><path d="M232.663,1023.595 C285.212,1016.272 352.888,1006.84 391.914,1001.402 " fill="none" id="ActorManageDataAdaptorsCreateDataAdaptor-dimlddfdatasourcename" style="stroke: #A80036; stroke-width: 1.0;"/><polygon fill="#A80036" points="396.994,1000.694,387.5281,997.9745,392.0419,1001.3841,388.6322,1005.8979,396.994,1000.694" style="stroke: #A80036; stroke-width: 1.0;"/><!--link ActorManageDataAdaptorsUpdateDataAdaptor to dimlddfdatasourcename--><path d="M233.541,1101.015 C255.454,1094.643 279.097,1086.617 300,1077 C333.566,1061.557 368.625,1038.028 392.776,1020.48 " fill="none" id="ActorManageDataAdaptorsUpdateDataAdaptor-dimlddfdatasourcename" style="stroke: #A80036; stroke-width: 1.0;"/><polygon fill="#A80036" points="396.855,1017.497,387.2288,1019.5795,392.8186,1020.4479,391.9502,1026.0377,396.855,1017.497" style="stroke: #A80036; stroke-width: 1.0;"/><!--link DataEngineerManageDataBluePrints to dimlddfdatablueprintlist--><path d="M245.658,328.676 C263.938,334.472 282.853,341.284 300,349 C334.365,364.464 370.765,387.827 395.072,404.565 " fill="none" id="DataEngineerManageDataBluePrints-dimlddfdatablueprintlist" style="stroke: #A80036; stroke-width: 1.0;"/><polygon fill="#A80036" points="399.466,407.61,394.3455,399.1969,395.3559,404.7628,389.79,405.7731,399.466,407.61" style="stroke: #A80036; stroke-width: 1.0;"/><!--link DataScientistManageDataBluePrints to dimlddfdatablueprintlist--><path d="M245.76,590.651 C265.706,584.39 285.314,574.764 300,560 C316.317,543.596 301.524,529.157 314.5,510 C335.151,479.512 370.208,455.034 394.981,440.315 " fill="none" id="DataScientistManageDataBluePrints-dimlddfdatablueprintlist" style="stroke: #A80036; stroke-width: 1.0;"/><polygon fill="#A80036" points="399.482,437.681,389.694,438.7746,395.1667,440.2065,393.7348,445.6791,399.482,437.681" style="stroke: #A80036; stroke-width: 1.0;"/><!--link DataEngineerManageDataPipeline to dimlddfdatapipelinelist--><path d="M236.581,146.95 C289.485,154.32 356.244,163.63 393.974,168.89 " fill="none" id="DataEngineerManageDataPipeline-dimlddfdatapipelinelist" style="stroke: #A80036; stroke-width: 1.0;"/><polygon fill="#A80036" points="399.326,169.63,390.9654,164.4241,394.374,168.9387,389.8594,172.3473,399.326,169.63" style="stroke: #A80036; stroke-width: 1.0;"/><!--link DataEngineerManageDataProcedures to dimlddfdataprocedurelist--><path d="M225.926,416.024 C253.307,429.582 282.5,449.166 300,476 C328.382,519.52 288.845,546.819 314.5,592 C332.906,624.414 369.105,648.787 394.729,662.943 " fill="none" id="DataEngineerManageDataProcedures-dimlddfdataprocedurelist" style="stroke: #A80036; stroke-width: 1.0;"/><polygon fill="#A80036" points="399.384,665.467,393.38,657.6598,394.9889,663.0831,389.5657,664.692,399.384,665.467" style="stroke: #A80036; stroke-width: 1.0;"/><!--link ChiefDataOfficerManageDataProcedures to dimlddfdataprocedurelist--><path d="M210.261,1243.9411 C242.286,1225.538 280.721,1197.264 300,1160 C338.219,1086.127 281.188,862.211 314.5,786 C331.389,747.361 368.782,714.992 395.04,695.814 " fill="none" id="ChiefDataOfficerManageDataProcedures-dimlddfdataprocedurelist" style="stroke: #A80036; stroke-width: 1.0;"/><polygon fill="#A80036" points="399.154,692.85,389.5135,694.8653,395.0971,695.7727,394.1898,701.3563,399.154,692.85" style="stroke: #A80036; stroke-width: 1.0;"/><!--link DataScientistManageMetaData to dimlddfmetadatalist--><path d="M260.5084,690.4795 C260.7487,690.4392 260.9888,690.3982 261.2288,690.3565 C261.7087,690.2732 262.1881,690.1871 262.6668,690.0981 C264.5815,689.7424 266.4855,689.3418 268.375,688.8932 C272.1539,687.996 275.8748,686.9072 279.5073,685.6029 C286.7724,682.9941 293.684,679.5234 300,675 C315.035,664.233 303.572,650.918 314.5,636 C336.127,606.476 370.67,581.962 395.065,566.968 " fill="none" id="DataScientistManageMetaData-dimlddfmetadatalist" style="stroke: #A80036; stroke-width: 1.0;"/><polygon fill="#A80036" points="399.496,564.28,389.7265,565.5279,395.2211,566.8732,393.8757,572.3678,399.496,564.28" style="stroke: #A80036; stroke-width: 1.0;"/><!--link DataScientistManageMetaDataManageDataCatalog to dimlddfdatacataloglist--><path d="M233.726,764.099 C287.266,781.845 356.085,804.655 394.413,817.359 " fill="none" id="DataScientistManageMetaDataManageDataCatalog-dimlddfdatacataloglist" style="stroke: #A80036; stroke-width: 1.0;"/><polygon fill="#A80036" points="399.387,819.008,392.1024,812.3797,394.6409,817.435,389.5856,819.9735,399.387,819.008" style="stroke: #A80036; stroke-width: 1.0;"/><!--
@startuml
left to right direction



state "Data Engineer" as DataEngineer {
    state "Manage Data Adaptors" as DataEngineerManageDataAdaptors {
    }
}
state "diml" as diml #ffcc88 {
state "ddf" as dimlddf #ffcc88 {
state "datadaptor" as dimlddfdatadaptor #ffcc88 {
state "list" as dimlddfdatadaptorlist #ffcc88 {
}
}
}
}

DataEngineerManageDataAdaptors - -> dimlddfdatadaptorlist

state "Data Scientist" as DataScientist {
    state "Manage Data Adaptors" as DataScientistManageDataAdaptors {
    }
}
state "diml" as diml #ffcc88 {
state "ddf" as dimlddf #ffcc88 {
state "datadaptor" as dimlddfdatadaptor #ffcc88 {
state "list" as dimlddfdatadaptorlist #ffcc88 {
}
}
}
}

DataScientistManageDataAdaptors - -> dimlddfdatadaptorlist


    state "Actor" as Actor {
        state "Manage Data Adaptors" as ActorManageDataAdaptors {
            state "Attach Data Blue Print" as ActorManageDataAdaptorsAttachDataBluePrint {
            }
        }
    }
    state "diml" as diml #ffcc88 {
state "ddfdata" as dimlddfdata #ffcc88 {
state "source" as dimlddfdatasource #ffcc88 {
state "name" as dimlddfdatasourcename #ffcc88 {
}
}
}
}

    ActorManageDataAdaptorsAttachDataBluePrint - -> dimlddfdatasourcename
    
 
    state "Actor" as Actor {
        state "Manage Data Adaptors" as ActorManageDataAdaptors {
            state "Create Data Adaptor" as ActorManageDataAdaptorsCreateDataAdaptor {
            }
        }
    }
    state "diml" as diml #ffcc88 {
state "ddfdata" as dimlddfdata #ffcc88 {
state "source" as dimlddfdatasource #ffcc88 {
state "name" as dimlddfdatasourcename #ffcc88 {
}
}
}
}

    ActorManageDataAdaptorsCreateDataAdaptor - -> dimlddfdatasourcename
    
 
    state "Actor" as Actor {
        state "Manage Data Adaptors" as ActorManageDataAdaptors {
            state "Update Data Adaptor" as ActorManageDataAdaptorsUpdateDataAdaptor {
            }
        }
    }
    state "diml" as diml #ffcc88 {
state "ddfdata" as dimlddfdata #ffcc88 {
state "source" as dimlddfdatasource #ffcc88 {
state "name" as dimlddfdatasourcename #ffcc88 {
}
}
}
}

    ActorManageDataAdaptorsUpdateDataAdaptor - -> dimlddfdatasourcename
    
 
 
state "Data Engineer" as DataEngineer {
    state "Manage Data Blue Prints" as DataEngineerManageDataBluePrints {
    }
}
state "diml" as diml #ffcc88 {
state "ddf" as dimlddf #ffcc88 {
state "datablueprint" as dimlddfdatablueprint #ffcc88 {
state "list" as dimlddfdatablueprintlist #ffcc88 {
}
}
}
}

DataEngineerManageDataBluePrints - -> dimlddfdatablueprintlist

state "Data Scientist" as DataScientist {
    state "Manage Data Blue Prints" as DataScientistManageDataBluePrints {
    }
}
state "diml" as diml #ffcc88 {
state "ddf" as dimlddf #ffcc88 {
state "datablueprint" as dimlddfdatablueprint #ffcc88 {
state "list" as dimlddfdatablueprintlist #ffcc88 {
}
}
}
}

DataScientistManageDataBluePrints - -> dimlddfdatablueprintlist


 
state "Data Engineer" as DataEngineer {
    state "Manage Data Pipeline" as DataEngineerManageDataPipeline {
    }
}
state "diml" as diml #ffcc88 {
state "ddf" as dimlddf #ffcc88 {
state "datapipeline" as dimlddfdatapipeline #ffcc88 {
state "list" as dimlddfdatapipelinelist #ffcc88 {
}
}
}
}

DataEngineerManageDataPipeline - -> dimlddfdatapipelinelist


 
state "Data Engineer" as DataEngineer {
    state "Manage Data Procedures" as DataEngineerManageDataProcedures {
    }
}
state "diml" as diml #ffcc88 {
state "ddf" as dimlddf #ffcc88 {
state "dataprocedure" as dimlddfdataprocedure #ffcc88 {
state "list" as dimlddfdataprocedurelist #ffcc88 {
}
}
}
}

DataEngineerManageDataProcedures - -> dimlddfdataprocedurelist

state "Chief Data Officer" as ChiefDataOfficer {
    state "Manage Data Procedures" as ChiefDataOfficerManageDataProcedures {
    }
}
state "diml" as diml #ffcc88 {
state "ddf" as dimlddf #ffcc88 {
state "dataprocedure" as dimlddfdataprocedure #ffcc88 {
state "list" as dimlddfdataprocedurelist #ffcc88 {
}
}
}
}

ChiefDataOfficerManageDataProcedures - -> dimlddfdataprocedurelist


 
state "Data Scientist" as DataScientist {
    state "Manage Meta Data" as DataScientistManageMetaData {
    }
}
state "diml" as diml #ffcc88 {
state "ddf" as dimlddf #ffcc88 {
state "metadata" as dimlddfmetadata #ffcc88 {
state "list" as dimlddfmetadatalist #ffcc88 {
}
}
}
}

DataScientistManageMetaData - -> dimlddfmetadatalist


    state "DataScientist" as DataScientist {
        state "Manage Meta Data" as DataScientistManageMetaData {
            state "Manage Data Catalog" as DataScientistManageMetaDataManageDataCatalog {
            }
        }
    }
    state "diml" as diml #ffcc88 {
state "ddfdatacatalog" as dimlddfdatacatalog #ffcc88 {
state "list" as dimlddfdatacataloglist #ffcc88 {
}
}
}

    DataScientistManageMetaDataManageDataCatalog - -> dimlddfdatacataloglist
    
 
 

@enduml

PlantUML version 1.2019.05(Sat Apr 20 09:45:36 PDT 2019)
(GPL source distribution)
Java Runtime: OpenJDK Runtime Environment
JVM: OpenJDK 64-Bit Server VM
Java Version: 12.0.1+12
Operating System: Windows 10
OS Version: 10.0
Default Encoding: Cp1252
Language: en
Country: US
--></g></svg>