<?xml version="1.0" encoding="UTF-8" standalone="no"?><svg xmlns="http://www.w3.org/2000/svg" xmlns:xlink="http://www.w3.org/1999/xlink" contentScriptType="application/ecmascript" contentStyleType="text/css" height="506px" preserveAspectRatio="none" style="width:421px;height:506px;" version="1.1" viewBox="0 0 421 506" width="421px" zoomAndPan="magnify"><defs><filter height="300%" id="fpjsekx0s0g9p" width="300%" x="-1" y="-1"><feGaussianBlur result="blurOut" stdDeviation="2.0"/><feColorMatrix in="blurOut" result="blurOut2" type="matrix" values="0 0 0 0 0 0 0 0 0 0 0 0 0 0 0 0 0 0 .4 0"/><feOffset dx="4.0" dy="4.0" in="blurOut2" result="blurOut3"/><feBlend in="SourceGraphic" in2="blurOut3" mode="normal"/></filter></defs><g><!--cluster Data Orchestrator--><polygon fill="#ADD8E6" filter="url(#fpjsekx0s0g9p)" points="33,394,164,394,171,417.6094,174,417.6094,174,494,33,494,33,394" style="stroke: #000000; stroke-width: 1.5;"/><line style="stroke: #000000; stroke-width: 1.5;" x1="33" x2="171" y1="417.6094" y2="417.6094"/><text fill="#000000" font-family="sans-serif" font-size="14" font-weight="bold" lengthAdjust="spacingAndGlyphs" textLength="125" x="37" y="410.5332">Data Orchestrator</text><!--cluster Data Management Layer--><polygon fill="#FFCC88" filter="url(#fpjsekx0s0g9p)" points="215,394,389,394,396,417.6094,399,417.6094,399,494,215,494,215,394" style="stroke: #000000; stroke-width: 1.5;"/><line style="stroke: #000000; stroke-width: 1.5;" x1="215" x2="396" y1="417.6094" y2="417.6094"/><text fill="#000000" font-family="sans-serif" font-size="14" font-weight="bold" lengthAdjust="spacingAndGlyphs" textLength="168" x="219" y="410.5332">Data Management Layer</text><!--cluster Federated Meta Data Management--><polygon fill="#ADD8E6" filter="url(#fpjsekx0s0g9p)" points="22,65,270,65,277,88.6094,395,88.6094,395,344,22,344,22,65" style="stroke: #000000; stroke-width: 1.5;"/><line style="stroke: #000000; stroke-width: 1.5;" x1="22" x2="277" y1="88.6094" y2="88.6094"/><text fill="#000000" font-family="sans-serif" font-size="14" font-weight="bold" lengthAdjust="spacingAndGlyphs" textLength="242" x="26" y="81.5332">Federated Meta Data Management</text><!--class DataInstance--><rect fill="#FEFECE" filter="url(#fpjsekx0s0g9p)" height="48" id="DataInstance" style="stroke: #A80036; stroke-width: 1.5;" width="105" x="50.5" y="430"/><ellipse cx="65.5" cy="446" fill="#ADD1B2" rx="11" ry="11" style="stroke: #A80036; stroke-width: 1.0;"/><path d="M68.2656,441.875 Q68.4219,441.6563 68.6094,441.5469 Q68.7969,441.4375 69.0156,441.4375 Q69.3906,441.4375 69.625,441.7031 Q69.8594,441.9531 69.8594,442.5625 L69.8594,444.0156 Q69.8594,444.625 69.625,444.8906 Q69.3906,445.1563 69.0156,445.1563 Q68.6719,445.1563 68.4688,444.9531 Q68.2656,444.7656 68.1563,444.25 Q68.1094,443.8906 67.9219,443.7031 Q67.5938,443.3281 66.9844,443.1094 Q66.375,442.8906 65.75,442.8906 Q64.9844,442.8906 64.3438,443.2188 Q63.7188,443.5469 63.2188,444.2969 Q62.7344,445.0469 62.7344,446.0781 L62.7344,447.1719 Q62.7344,448.4063 63.625,449.2344 Q64.5156,450.0469 66.1094,450.0469 Q67.0469,450.0469 67.7031,449.7969 Q68.0938,449.6406 68.5156,449.2031 Q68.7813,448.9375 68.9219,448.8594 Q69.0781,448.7813 69.2813,448.7813 Q69.6094,448.7813 69.8594,449.0469 Q70.125,449.2969 70.125,449.6406 Q70.125,449.9844 69.7813,450.3906 Q69.2813,450.9688 68.4844,451.2969 Q67.4063,451.75 66.1094,451.75 Q64.5938,451.75 63.3906,451.125 Q62.4063,450.625 61.7188,449.5625 Q61.0313,448.4844 61.0313,447.2031 L61.0313,446.0469 Q61.0313,444.7188 61.6406,443.5781 Q62.2656,442.4219 63.3594,441.8125 Q64.4531,441.1875 65.6875,441.1875 Q66.4219,441.1875 67.0625,441.3594 Q67.7188,441.5156 68.2656,441.875 Z "/><text fill="#000000" font-family="sans-serif" font-size="12" lengthAdjust="spacingAndGlyphs" textLength="73" x="79.5" y="450.9102">DataInstance</text><line style="stroke: #A80036; stroke-width: 1.5;" x1="51.5" x2="154.5" y1="462" y2="462"/><line style="stroke: #A80036; stroke-width: 1.5;" x1="51.5" x2="154.5" y1="470" y2="470"/><!--class Data--><rect fill="#FEFECE" filter="url(#fpjsekx0s0g9p)" height="48" id="Data" style="stroke: #A80036; stroke-width: 1.5;" width="58" x="235" y="430"/><ellipse cx="250" cy="446" fill="#ADD1B2" rx="11" ry="11" style="stroke: #A80036; stroke-width: 1.0;"/><path d="M252.7656,441.875 Q252.9219,441.6563 253.1094,441.5469 Q253.2969,441.4375 253.5156,441.4375 Q253.8906,441.4375 254.125,441.7031 Q254.3594,441.9531 254.3594,442.5625 L254.3594,444.0156 Q254.3594,444.625 254.125,444.8906 Q253.8906,445.1563 253.5156,445.1563 Q253.1719,445.1563 252.9688,444.9531 Q252.7656,444.7656 252.6563,444.25 Q252.6094,443.8906 252.4219,443.7031 Q252.0938,443.3281 251.4844,443.1094 Q250.875,442.8906 250.25,442.8906 Q249.4844,442.8906 248.8438,443.2188 Q248.2188,443.5469 247.7188,444.2969 Q247.2344,445.0469 247.2344,446.0781 L247.2344,447.1719 Q247.2344,448.4063 248.125,449.2344 Q249.0156,450.0469 250.6094,450.0469 Q251.5469,450.0469 252.2031,449.7969 Q252.5938,449.6406 253.0156,449.2031 Q253.2813,448.9375 253.4219,448.8594 Q253.5781,448.7813 253.7813,448.7813 Q254.1094,448.7813 254.3594,449.0469 Q254.625,449.2969 254.625,449.6406 Q254.625,449.9844 254.2813,450.3906 Q253.7813,450.9688 252.9844,451.2969 Q251.9063,451.75 250.6094,451.75 Q249.0938,451.75 247.8906,451.125 Q246.9063,450.625 246.2188,449.5625 Q245.5313,448.4844 245.5313,447.2031 L245.5313,446.0469 Q245.5313,444.7188 246.1406,443.5781 Q246.7656,442.4219 247.8594,441.8125 Q248.9531,441.1875 250.1875,441.1875 Q250.9219,441.1875 251.5625,441.3594 Q252.2188,441.5156 252.7656,441.875 Z "/><text fill="#000000" font-family="sans-serif" font-size="12" lengthAdjust="spacingAndGlyphs" textLength="26" x="264" y="450.9102">Data</text><line style="stroke: #A80036; stroke-width: 1.5;" x1="236" x2="292" y1="462" y2="462"/><line style="stroke: #A80036; stroke-width: 1.5;" x1="236" x2="292" y1="470" y2="470"/><!--class i--><rect fill="#FEFECE" filter="url(#fpjsekx0s0g9p)" height="61.8359" id="i" style="stroke: #A80036; stroke-width: 1.5;" width="221" x="157.5" y="108"/><ellipse cx="172.5" cy="124" fill="#B4A7E5" rx="11" ry="11" style="stroke: #A80036; stroke-width: 1.0;"/><path d="M173.4531,120.6406 L173.4531,127.2969 L175.1719,127.2969 Q175.7813,127.2969 176.0469,127.5313 Q176.3125,127.7656 176.3125,128.1563 Q176.3125,128.5313 176.0469,128.7656 Q175.7813,129 175.1719,129 L170.0313,129 Q169.4219,129 169.1563,128.7656 Q168.8906,128.5313 168.8906,128.1406 Q168.8906,127.7656 169.1563,127.5313 Q169.4219,127.2969 170.0313,127.2969 L171.75,127.2969 L171.75,120.6406 L170.0313,120.6406 Q169.4219,120.6406 169.1563,120.4063 Q168.8906,120.1719 168.8906,119.7813 Q168.8906,119.4063 169.1563,119.1719 Q169.4219,118.9375 170.0313,118.9375 L175.1719,118.9375 Q175.7813,118.9375 176.0469,119.1719 Q176.3125,119.4063 176.3125,119.7813 Q176.3125,120.1719 176.0469,120.4063 Q175.7813,120.6406 175.1719,120.6406 L173.4531,120.6406 Z "/><text fill="#000000" font-family="sans-serif" font-size="12" font-style="italic" lengthAdjust="spacingAndGlyphs" textLength="189" x="186.5" y="128.9102">Federated Meta Data Management</text><line style="stroke: #A80036; stroke-width: 1.5;" x1="158.5" x2="377.5" y1="140" y2="140"/><line style="stroke: #A80036; stroke-width: 1.5;" x1="158.5" x2="377.5" y1="148" y2="148"/><text fill="#000000" font-family="sans-serif" font-size="11" lengthAdjust="spacingAndGlyphs" textLength="159" x="163.5" y="163.4189">/edgemere/diml/dml/fmdm/query()</text><!--class LineageMetaData--><rect fill="#FEFECE" filter="url(#fpjsekx0s0g9p)" height="89.5078" id="LineageMetaData" style="stroke: #A80036; stroke-width: 1.5;" width="129" x="38.5" y="238"/><ellipse cx="53.5" cy="254" fill="#ADD1B2" rx="11" ry="11" style="stroke: #A80036; stroke-width: 1.0;"/><path d="M56.2656,249.875 Q56.4219,249.6563 56.6094,249.5469 Q56.7969,249.4375 57.0156,249.4375 Q57.3906,249.4375 57.625,249.7031 Q57.8594,249.9531 57.8594,250.5625 L57.8594,252.0156 Q57.8594,252.625 57.625,252.8906 Q57.3906,253.1563 57.0156,253.1563 Q56.6719,253.1563 56.4688,252.9531 Q56.2656,252.7656 56.1563,252.25 Q56.1094,251.8906 55.9219,251.7031 Q55.5938,251.3281 54.9844,251.1094 Q54.375,250.8906 53.75,250.8906 Q52.9844,250.8906 52.3438,251.2188 Q51.7188,251.5469 51.2188,252.2969 Q50.7344,253.0469 50.7344,254.0781 L50.7344,255.1719 Q50.7344,256.4063 51.625,257.2344 Q52.5156,258.0469 54.1094,258.0469 Q55.0469,258.0469 55.7031,257.7969 Q56.0938,257.6406 56.5156,257.2031 Q56.7813,256.9375 56.9219,256.8594 Q57.0781,256.7813 57.2813,256.7813 Q57.6094,256.7813 57.8594,257.0469 Q58.125,257.2969 58.125,257.6406 Q58.125,257.9844 57.7813,258.3906 Q57.2813,258.9688 56.4844,259.2969 Q55.4063,259.75 54.1094,259.75 Q52.5938,259.75 51.3906,259.125 Q50.4063,258.625 49.7188,257.5625 Q49.0313,256.4844 49.0313,255.2031 L49.0313,254.0469 Q49.0313,252.7188 49.6406,251.5781 Q50.2656,250.4219 51.3594,249.8125 Q52.4531,249.1875 53.6875,249.1875 Q54.4219,249.1875 55.0625,249.3594 Q55.7188,249.5156 56.2656,249.875 Z "/><text fill="#000000" font-family="sans-serif" font-size="12" lengthAdjust="spacingAndGlyphs" textLength="97" x="67.5" y="258.9102">LineageMetaData</text><line style="stroke: #A80036; stroke-width: 1.5;" x1="39.5" x2="166.5" y1="270" y2="270"/><text fill="#000000" font-family="sans-serif" font-size="11" lengthAdjust="spacingAndGlyphs" textLength="100" x="44.5" y="285.4189">string creationAction</text><text fill="#000000" font-family="sans-serif" font-size="11" lengthAdjust="spacingAndGlyphs" textLength="56" x="44.5" y="299.2549">string name</text><text fill="#000000" font-family="sans-serif" font-size="11" lengthAdjust="spacingAndGlyphs" textLength="56" x="44.5" y="313.0908">string value</text><line style="stroke: #A80036; stroke-width: 1.5;" x1="39.5" x2="166.5" y1="319.5078" y2="319.5078"/><!--class MetaData--><rect fill="#FEFECE" filter="url(#fpjsekx0s0g9p)" height="75.6719" id="MetaData" style="stroke: #A80036; stroke-width: 1.5;" width="84" x="38" y="101"/><ellipse cx="53" cy="117" fill="#ADD1B2" rx="11" ry="11" style="stroke: #A80036; stroke-width: 1.0;"/><path d="M55.7656,112.875 Q55.9219,112.6563 56.1094,112.5469 Q56.2969,112.4375 56.5156,112.4375 Q56.8906,112.4375 57.125,112.7031 Q57.3594,112.9531 57.3594,113.5625 L57.3594,115.0156 Q57.3594,115.625 57.125,115.8906 Q56.8906,116.1563 56.5156,116.1563 Q56.1719,116.1563 55.9688,115.9531 Q55.7656,115.7656 55.6563,115.25 Q55.6094,114.8906 55.4219,114.7031 Q55.0938,114.3281 54.4844,114.1094 Q53.875,113.8906 53.25,113.8906 Q52.4844,113.8906 51.8438,114.2188 Q51.2188,114.5469 50.7188,115.2969 Q50.2344,116.0469 50.2344,117.0781 L50.2344,118.1719 Q50.2344,119.4063 51.125,120.2344 Q52.0156,121.0469 53.6094,121.0469 Q54.5469,121.0469 55.2031,120.7969 Q55.5938,120.6406 56.0156,120.2031 Q56.2813,119.9375 56.4219,119.8594 Q56.5781,119.7813 56.7813,119.7813 Q57.1094,119.7813 57.3594,120.0469 Q57.625,120.2969 57.625,120.6406 Q57.625,120.9844 57.2813,121.3906 Q56.7813,121.9688 55.9844,122.2969 Q54.9063,122.75 53.6094,122.75 Q52.0938,122.75 50.8906,122.125 Q49.9063,121.625 49.2188,120.5625 Q48.5313,119.4844 48.5313,118.2031 L48.5313,117.0469 Q48.5313,115.7188 49.1406,114.5781 Q49.7656,113.4219 50.8594,112.8125 Q51.9531,112.1875 53.1875,112.1875 Q53.9219,112.1875 54.5625,112.3594 Q55.2188,112.5156 55.7656,112.875 Z "/><text fill="#000000" font-family="sans-serif" font-size="12" lengthAdjust="spacingAndGlyphs" textLength="52" x="67" y="121.9102">MetaData</text><line style="stroke: #A80036; stroke-width: 1.5;" x1="39" x2="121" y1="133" y2="133"/><text fill="#000000" font-family="sans-serif" font-size="11" lengthAdjust="spacingAndGlyphs" textLength="56" x="44" y="148.4189">string name</text><text fill="#000000" font-family="sans-serif" font-size="11" lengthAdjust="spacingAndGlyphs" textLength="56" x="44" y="162.2549">string value</text><line style="stroke: #A80036; stroke-width: 1.5;" x1="39" x2="121" y1="168.6719" y2="168.6719"/><!--class SourceMetaData--><rect fill="#FEFECE" filter="url(#fpjsekx0s0g9p)" height="89.5078" id="SourceMetaData" style="stroke: #A80036; stroke-width: 1.5;" width="123" x="202.5" y="238"/><ellipse cx="217.5" cy="254" fill="#ADD1B2" rx="11" ry="11" style="stroke: #A80036; stroke-width: 1.0;"/><path d="M220.2656,249.875 Q220.4219,249.6563 220.6094,249.5469 Q220.7969,249.4375 221.0156,249.4375 Q221.3906,249.4375 221.625,249.7031 Q221.8594,249.9531 221.8594,250.5625 L221.8594,252.0156 Q221.8594,252.625 221.625,252.8906 Q221.3906,253.1563 221.0156,253.1563 Q220.6719,253.1563 220.4688,252.9531 Q220.2656,252.7656 220.1563,252.25 Q220.1094,251.8906 219.9219,251.7031 Q219.5938,251.3281 218.9844,251.1094 Q218.375,250.8906 217.75,250.8906 Q216.9844,250.8906 216.3438,251.2188 Q215.7188,251.5469 215.2188,252.2969 Q214.7344,253.0469 214.7344,254.0781 L214.7344,255.1719 Q214.7344,256.4063 215.625,257.2344 Q216.5156,258.0469 218.1094,258.0469 Q219.0469,258.0469 219.7031,257.7969 Q220.0938,257.6406 220.5156,257.2031 Q220.7813,256.9375 220.9219,256.8594 Q221.0781,256.7813 221.2813,256.7813 Q221.6094,256.7813 221.8594,257.0469 Q222.125,257.2969 222.125,257.6406 Q222.125,257.9844 221.7813,258.3906 Q221.2813,258.9688 220.4844,259.2969 Q219.4063,259.75 218.1094,259.75 Q216.5938,259.75 215.3906,259.125 Q214.4063,258.625 213.7188,257.5625 Q213.0313,256.4844 213.0313,255.2031 L213.0313,254.0469 Q213.0313,252.7188 213.6406,251.5781 Q214.2656,250.4219 215.3594,249.8125 Q216.4531,249.1875 217.6875,249.1875 Q218.4219,249.1875 219.0625,249.3594 Q219.7188,249.5156 220.2656,249.875 Z "/><text fill="#000000" font-family="sans-serif" font-size="12" lengthAdjust="spacingAndGlyphs" textLength="91" x="231.5" y="258.9102">SourceMetaData</text><line style="stroke: #A80036; stroke-width: 1.5;" x1="203.5" x2="324.5" y1="270" y2="270"/><text fill="#000000" font-family="sans-serif" font-size="11" lengthAdjust="spacingAndGlyphs" textLength="83" x="208.5" y="285.4189">string connection</text><text fill="#000000" font-family="sans-serif" font-size="11" lengthAdjust="spacingAndGlyphs" textLength="56" x="208.5" y="299.2549">string name</text><text fill="#000000" font-family="sans-serif" font-size="11" lengthAdjust="spacingAndGlyphs" textLength="56" x="208.5" y="313.0908">string value</text><line style="stroke: #A80036; stroke-width: 1.5;" x1="203.5" x2="324.5" y1="319.5078" y2="319.5078"/><ellipse cx="223" cy="13" fill="#FEFECE" filter="url(#fpjsekx0s0g9p)" rx="5" ry="5" style="stroke: #A80036; stroke-width: 1.5;"/><text fill="#000000" font-family="sans-serif" font-size="12" lengthAdjust="spacingAndGlyphs" textLength="19" x="213.5" y="30.457">CLI</text><ellipse cx="268" cy="13" fill="#FEFECE" filter="url(#fpjsekx0s0g9p)" rx="5" ry="5" style="stroke: #A80036; stroke-width: 1.5;"/><text fill="#000000" font-family="sans-serif" font-size="12" lengthAdjust="spacingAndGlyphs" textLength="32" x="252" y="30.457">REST</text><ellipse cx="313" cy="13" fill="#FEFECE" filter="url(#fpjsekx0s0g9p)" rx="5" ry="5" style="stroke: #A80036; stroke-width: 1.5;"/><text fill="#000000" font-family="sans-serif" font-size="12" lengthAdjust="spacingAndGlyphs" textLength="25" x="300.5" y="30.457">Web</text><!--link ilol6313 to i--><path d="M224.396,17.847 C229.262,31.255 245.789,76.795 257.039,107.795 " fill="none" id="ilol6313-i" style="stroke: #A80036; stroke-width: 1.0;"/><!--link ilol6316 to i--><path d="M268,18.126 C268,31.867 268,76.953 268,107.741 " fill="none" id="ilol6316-i" style="stroke: #A80036; stroke-width: 1.0;"/><!--link ilol6319 to i--><path d="M311.604,17.847 C306.738,31.255 290.211,76.795 278.961,107.795 " fill="none" id="ilol6319-i" style="stroke: #A80036; stroke-width: 1.0;"/><!--link LineageMetaData to DataInstance--><path d="M103,341.414 C103,366.306 103,394.706 103,416.6249 " fill="none" id="LineageMetaData-DataInstance" style="stroke: #A80036; stroke-width: 1.0;"/><polygon fill="#A80036" points="103,429.6676,107,420.6676,103,424.6676,99,420.6676,103,429.6676" style="stroke: #A80036; stroke-width: 1.0;"/><line style="stroke: #A80036; stroke-width: 1.0;" x1="103" x2="103.0001" y1="424.6676" y2="416.6677"/><polygon fill="#FFFFFF" points="103,328.403,99,334.403,103,340.403,107,334.403,103,328.403" style="stroke: #A80036; stroke-width: 1.0;"/><text fill="#000000" font-family="sans-serif" font-size="13" lengthAdjust="spacingAndGlyphs" textLength="43" x="104" y="374.4951">parents</text><text fill="#000000" font-family="sans-serif" font-size="13" lengthAdjust="spacingAndGlyphs" textLength="7" x="95.1469" y="419.3245">n</text><!--link LineageMetaData to Data--><path d="M154.619,338.184 C180.243,365.081 210.368,396.703 232.508,419.9433 " fill="none" id="LineageMetaData-Data" style="stroke: #A80036; stroke-width: 1.0;"/><polygon fill="#A80036" points="241.772,429.6676,238.4604,420.3922,238.3232,426.0474,232.6681,425.9102,241.772,429.6676" style="stroke: #A80036; stroke-width: 1.0;"/><line style="stroke: #A80036; stroke-width: 1.0;" x1="238.3232" x2="232.8055" y1="426.0474" y2="420.2551"/><polygon fill="#FFFFFF" points="145.301,328.403,146.5434,335.5063,153.5781,337.0915,152.3357,329.9882,145.301,328.403" style="stroke: #A80036; stroke-width: 1.0;"/><text fill="#000000" font-family="sans-serif" font-size="13" lengthAdjust="spacingAndGlyphs" textLength="25" x="190" y="374.4951">data</text><text fill="#000000" font-family="sans-serif" font-size="13" lengthAdjust="spacingAndGlyphs" textLength="7" x="228.5008" y="419.3245">1</text><!--link MetaData to LineageMetaData--><path d="M89.2501,197.109 C91.45,210.691 93.7643,224.98 95.8536,237.879 " fill="none" id="MetaData-LineageMetaData" style="stroke: #A80036; stroke-width: 1.0;"/><polygon fill="none" points="82.3309,198.171,86.043,177.309,96.1508,195.932,82.3309,198.171" style="stroke: #A80036; stroke-width: 1.0;"/><!--link MetaData to Data--><path d="M133.868,174.1 C135.918,175.115 137.966,176.086 140,177 C225.933,215.607 286.782,162.405 343,238 C373.235,278.656 359.509,304.098 343,352 C334.126,377.749 315.691,401.955 298.86,420.2113 " fill="none" id="MetaData-Data" style="stroke: #A80036; stroke-width: 1.0;"/><polygon fill="#A80036" points="289.745,429.7137,298.8615,425.9869,293.2059,426.1051,293.0878,420.4495,289.745,429.7137" style="stroke: #A80036; stroke-width: 1.0;"/><line style="stroke: #A80036; stroke-width: 1.0;" x1="293.2059" x2="298.744" y1="426.1051" y2="420.3318"/><polygon fill="#FFFFFF" points="122.189,167.885,125.6068,174.2347,132.7826,173.522,129.3648,167.1723,122.189,167.885" style="stroke: #A80036; stroke-width: 1.0;"/><text fill="#000000" font-family="sans-serif" font-size="13" lengthAdjust="spacingAndGlyphs" textLength="25" x="361" y="288.4951">data</text><text fill="#000000" font-family="sans-serif" font-size="13" lengthAdjust="spacingAndGlyphs" textLength="7" x="288.4453" y="418.9805">1</text><!--link SourceMetaData to Data--><path d="M264,341.414 C264,366.306 264,394.706 264,416.6249 " fill="none" id="SourceMetaData-Data" style="stroke: #A80036; stroke-width: 1.0;"/><polygon fill="#A80036" points="264,429.6676,268,420.6676,264,424.6676,260,420.6676,264,429.6676" style="stroke: #A80036; stroke-width: 1.0;"/><line style="stroke: #A80036; stroke-width: 1.0;" x1="264" x2="264" y1="424.6676" y2="416.6677"/><polygon fill="#FFFFFF" points="264,328.403,260,334.403,264,340.403,268,334.403,264,328.403" style="stroke: #A80036; stroke-width: 1.0;"/><text fill="#000000" font-family="sans-serif" font-size="13" lengthAdjust="spacingAndGlyphs" textLength="25" x="265" y="374.4951">data</text><text fill="#000000" font-family="sans-serif" font-size="13" lengthAdjust="spacingAndGlyphs" textLength="7" x="256.1469" y="419.3245">1</text><!--link MetaData to SourceMetaData--><path d="M138.244,184.949 C160.089,201.808 184.881,220.941 206.644,237.736 " fill="none" id="MetaData-SourceMetaData" style="stroke: #A80036; stroke-width: 1.0;"/><polygon fill="none" points="133.77,190.339,122.213,172.578,142.323,179.255,133.77,190.339" style="stroke: #A80036; stroke-width: 1.0;"/><!--
@startuml


package "Data Orchestrator" #lightblue {
    
        class DataInstance {
        }
    }

package "Data Management Layer" #ffcc88 {
    
        class Data {
        }
    }


package "Federated Meta Data Management" #lightblue {

    interface "Federated Meta Data Management" as i {
            /edgemere/diml/dml/fmdm/query()
    
    }
}

CLI ()- - i
REST ()- - i
Web ()- - i

package "Federated Meta Data Management" #lightblue {
        class "LineageMetaData" {
                 string creationAction
                 string name
                 string value
                    }
                LineageMetaData o- -> "n" DataInstance : parents
                        LineageMetaData o- -> "1" Data : data
            
    
        MetaData <|- - LineageMetaData
    
    class "MetaData" {
                 string name
                 string value
                    }
                MetaData o- -> "1" Data : data
            
    
    class "SourceMetaData" {
                 string connection
                 string name
                 string value
                    }
                SourceMetaData o- -> "1" Data : data
            
    
        MetaData <|- - SourceMetaData
    

}



@enduml

PlantUML version 1.2019.05(Sat Apr 20 09:45:36 PDT 2019)
(GPL source distribution)
Java Runtime: OpenJDK Runtime Environment
JVM: OpenJDK 64-Bit Server VM
Java Version: 12.0.1+12
Operating System: Windows 10
OS Version: 10.0
Default Encoding: Cp1252
Language: en
Country: US
--></g></svg>