<?xml version="1.0" encoding="UTF-8" standalone="no"?><svg xmlns="http://www.w3.org/2000/svg" xmlns:xlink="http://www.w3.org/1999/xlink" contentScriptType="application/ecmascript" contentStyleType="text/css" height="213px" preserveAspectRatio="none" style="width:610px;height:213px;" version="1.1" viewBox="0 0 610 213" width="610px" zoomAndPan="magnify"><defs><filter height="300%" id="fucpznet3y72l" width="300%" x="-1" y="-1"><feGaussianBlur result="blurOut" stdDeviation="2.0"/><feColorMatrix in="blurOut" result="blurOut2" type="matrix" values="0 0 0 0 0 0 0 0 0 0 0 0 0 0 0 0 0 0 .4 0"/><feOffset dx="4.0" dy="4.0" in="blurOut2" result="blurOut3"/><feBlend in="SourceGraphic" in2="blurOut3" mode="normal"/></filter></defs><g><!--cluster Federated Meta Data Management--><polygon fill="#ADD8E6" filter="url(#fucpznet3y72l)" points="330.5,87,578.5,87,585.5,110.6094,588.5,110.6094,588.5,201,330.5,201,330.5,87" style="stroke: #000000; stroke-width: 1.5;"/><line style="stroke: #000000; stroke-width: 1.5;" x1="330.5" x2="585.5" y1="110.6094" y2="110.6094"/><text fill="#000000" font-family="sans-serif" font-size="14" font-weight="bold" lengthAdjust="spacingAndGlyphs" textLength="242" x="334.5" y="103.5332">Federated Meta Data Management</text><polygon fill="#ADD8E6" filter="url(#fucpznet3y72l)" points="6,8,137,8,144,31.6094,151,31.6094,151,63.2188,6,63.2188,6,8" style="stroke: #000000; stroke-width: 1.5;"/><line style="stroke: #000000; stroke-width: 1.5;" x1="6" x2="144" y1="31.6094" y2="31.6094"/><text fill="#000000" font-family="sans-serif" font-size="14" font-weight="bold" lengthAdjust="spacingAndGlyphs" textLength="125" x="10" y="24.5332">Data Orchestrator</text><polygon fill="#FFCC88" filter="url(#fucpznet3y72l)" points="186.5,8,360.5,8,367.5,31.6094,374.5,31.6094,374.5,63.2188,186.5,63.2188,186.5,8" style="stroke: #000000; stroke-width: 1.5;"/><line style="stroke: #000000; stroke-width: 1.5;" x1="186.5" x2="367.5" y1="31.6094" y2="31.6094"/><text fill="#000000" font-family="sans-serif" font-size="14" font-weight="bold" lengthAdjust="spacingAndGlyphs" textLength="168" x="190.5" y="24.5332">Data Management Layer</text><!--class i--><rect fill="#FEFECE" filter="url(#fucpznet3y72l)" height="61.8359" id="i" style="stroke: #A80036; stroke-width: 1.5;" width="221" x="349" y="123"/><ellipse cx="364" cy="139" fill="#B4A7E5" rx="11" ry="11" style="stroke: #A80036; stroke-width: 1.0;"/><path d="M364.9531,135.6406 L364.9531,142.2969 L366.6719,142.2969 Q367.2813,142.2969 367.5469,142.5313 Q367.8125,142.7656 367.8125,143.1563 Q367.8125,143.5313 367.5469,143.7656 Q367.2813,144 366.6719,144 L361.5313,144 Q360.9219,144 360.6563,143.7656 Q360.3906,143.5313 360.3906,143.1406 Q360.3906,142.7656 360.6563,142.5313 Q360.9219,142.2969 361.5313,142.2969 L363.25,142.2969 L363.25,135.6406 L361.5313,135.6406 Q360.9219,135.6406 360.6563,135.4063 Q360.3906,135.1719 360.3906,134.7813 Q360.3906,134.4063 360.6563,134.1719 Q360.9219,133.9375 361.5313,133.9375 L366.6719,133.9375 Q367.2813,133.9375 367.5469,134.1719 Q367.8125,134.4063 367.8125,134.7813 Q367.8125,135.1719 367.5469,135.4063 Q367.2813,135.6406 366.6719,135.6406 L364.9531,135.6406 Z "/><text fill="#000000" font-family="sans-serif" font-size="12" font-style="italic" lengthAdjust="spacingAndGlyphs" textLength="189" x="378" y="143.9102">Federated Meta Data Management</text><line style="stroke: #A80036; stroke-width: 1.5;" x1="350" x2="569" y1="155" y2="155"/><line style="stroke: #A80036; stroke-width: 1.5;" x1="350" x2="569" y1="163" y2="163"/><text fill="#000000" font-family="sans-serif" font-size="11" lengthAdjust="spacingAndGlyphs" textLength="159" x="355" y="178.4189">/edgemere/diml/dml/fmdm/query()</text><ellipse cx="414.5" cy="35.5" fill="#FEFECE" filter="url(#fucpznet3y72l)" rx="5" ry="5" style="stroke: #A80036; stroke-width: 1.5;"/><text fill="#000000" font-family="sans-serif" font-size="12" lengthAdjust="spacingAndGlyphs" textLength="19" x="405" y="52.957">CLI</text><ellipse cx="459.5" cy="35.5" fill="#FEFECE" filter="url(#fucpznet3y72l)" rx="5" ry="5" style="stroke: #A80036; stroke-width: 1.5;"/><text fill="#000000" font-family="sans-serif" font-size="12" lengthAdjust="spacingAndGlyphs" textLength="32" x="443.5" y="52.957">REST</text><ellipse cx="504.5" cy="35.5" fill="#FEFECE" filter="url(#fucpznet3y72l)" rx="5" ry="5" style="stroke: #A80036; stroke-width: 1.5;"/><text fill="#000000" font-family="sans-serif" font-size="12" lengthAdjust="spacingAndGlyphs" textLength="25" x="492" y="52.957">Web</text><!--link ilol6361 to i--><path d="M415.997,40.376 C420.893,53.05 436.749,94.101 447.899,122.9652 " fill="none" id="ilol6361-i" style="stroke: #A80036; stroke-width: 1.0;"/><!--link ilol6364 to i--><path d="M459.5,40.646 C459.5,53.617 459.5,94.263 459.5,122.9226 " fill="none" id="ilol6364-i" style="stroke: #A80036; stroke-width: 1.0;"/><!--link ilol6367 to i--><path d="M503.003,40.376 C498.107,53.05 482.251,94.101 471.101,122.9652 " fill="none" id="ilol6367-i" style="stroke: #A80036; stroke-width: 1.0;"/><!--
@startuml


package "Data Orchestrator" #lightblue {

}

package "Data Management Layer" #ffcc88 {

}


package "Federated Meta Data Management" #lightblue {

    interface "Federated Meta Data Management" as i {
            /edgemere/diml/dml/fmdm/query()
    
    }
}

CLI ()- - i
REST ()- - i
Web ()- - i

package "Federated Meta Data Management" #lightblue {


}



@enduml

PlantUML version 1.2019.05(Sat Apr 20 09:45:36 PDT 2019)
(GPL source distribution)
Java Runtime: OpenJDK Runtime Environment
JVM: OpenJDK 64-Bit Server VM
Java Version: 12.0.1+12
Operating System: Windows 10
OS Version: 10.0
Default Encoding: Cp1252
Language: en
Country: US
--></g></svg>