<?xml version="1.0" encoding="UTF-8" standalone="no"?><svg xmlns="http://www.w3.org/2000/svg" xmlns:xlink="http://www.w3.org/1999/xlink" contentScriptType="application/ecmascript" contentStyleType="text/css" height="297px" preserveAspectRatio="none" style="width:910px;height:297px;" version="1.1" viewBox="0 0 910 297" width="910px" zoomAndPan="magnify"><defs><filter height="300%" id="f58fmdxkte7hi" width="300%" x="-1" y="-1"><feGaussianBlur result="blurOut" stdDeviation="2.0"/><feColorMatrix in="blurOut" result="blurOut2" type="matrix" values="0 0 0 0 0 0 0 0 0 0 0 0 0 0 0 0 0 0 .4 0"/><feOffset dx="4.0" dy="4.0" in="blurOut2" result="blurOut3"/><feBlend in="SourceGraphic" in2="blurOut3" mode="normal"/></filter></defs><g><ellipse cx="449.9197" cy="171.7839" fill="#FEFECE" filter="url(#f58fmdxkte7hi)" rx="81.9197" ry="18.7839" style="stroke: #A80036; stroke-width: 1.5;"/><text fill="#000000" font-family="sans-serif" font-size="14" lengthAdjust="spacingAndGlyphs" textLength="131" x="384.4197" y="177.0886">Manage Applications</text><!--entity DevOpsEngineer--><ellipse cx="370" cy="18" fill="#FEFECE" filter="url(#f58fmdxkte7hi)" rx="8" ry="8" style="stroke: #A80036; stroke-width: 2.0;"/><path d="M370,26 L370,53 M357,34 L383,34 M370,53 L357,68 M370,53 L383,68 " fill="none" filter="url(#f58fmdxkte7hi)" style="stroke: #A80036; stroke-width: 2.0;"/><text fill="#000000" font-family="sans-serif" font-size="14" lengthAdjust="spacingAndGlyphs" textLength="112" x="314" y="89.5332">DevOps Engineer</text><!--entity ApplicationDeveloper--><ellipse cx="530" cy="18" fill="#FEFECE" filter="url(#f58fmdxkte7hi)" rx="8" ry="8" style="stroke: #A80036; stroke-width: 2.0;"/><path d="M530,26 L530,53 M517,34 L543,34 M530,53 L517,68 M530,53 L543,68 " fill="none" filter="url(#f58fmdxkte7hi)" style="stroke: #A80036; stroke-width: 2.0;"/><text fill="#000000" font-family="sans-serif" font-size="14" lengthAdjust="spacingAndGlyphs" textLength="138" x="461" y="89.5332">Application Developer</text><ellipse cx="80.2325" cy="268.7465" fill="#D3D3D3" filter="url(#f58fmdxkte7hi)" rx="74.2325" ry="17.2465" style="stroke: #A80036; stroke-width: 1.5;"/><text fill="#000000" font-family="sans-serif" font-size="14" lengthAdjust="spacingAndGlyphs" textLength="112" x="24.2325" y="274.0512">CreateApplication</text><ellipse cx="264.1262" cy="268.3252" fill="#D3D3D3" filter="url(#f58fmdxkte7hi)" rx="74.6262" ry="17.3252" style="stroke: #A80036; stroke-width: 1.5;"/><text fill="#000000" font-family="sans-serif" font-size="14" lengthAdjust="spacingAndGlyphs" textLength="113" x="207.6262" y="273.6299">DeployApplication</text><ellipse cx="450.1143" cy="268.7229" fill="#D3D3D3" filter="url(#f58fmdxkte7hi)" rx="76.6143" ry="17.7229" style="stroke: #A80036; stroke-width: 1.5;"/><text fill="#000000" font-family="sans-serif" font-size="14" lengthAdjust="spacingAndGlyphs" textLength="118" x="391.1143" y="274.0275">DestroyApplication</text><ellipse cx="637.8153" cy="268.5631" fill="#D3D3D3" filter="url(#f58fmdxkte7hi)" rx="75.8153" ry="17.5631" style="stroke: #A80036; stroke-width: 1.5;"/><text fill="#000000" font-family="sans-serif" font-size="14" lengthAdjust="spacingAndGlyphs" textLength="116" x="579.8153" y="273.8677">MonitorApplication</text><ellipse cx="824.0213" cy="268.4043" fill="#D3D3D3" filter="url(#f58fmdxkte7hi)" rx="75.0213" ry="17.4043" style="stroke: #A80036; stroke-width: 1.5;"/><text fill="#000000" font-family="sans-serif" font-size="14" lengthAdjust="spacingAndGlyphs" textLength="114" x="767.0213" y="273.7089">UpdateApplication</text><!--link DevOpsEngineer to ManageApplications--><path d="M397.98,93.295 C410.501,111.998 424.753,133.288 435.17,148.847 " fill="none" id="DevOpsEngineer-ManageApplications" style="stroke: #A80036; stroke-width: 1.0;"/><polygon fill="#A80036" points="438.002,153.077,436.3187,143.3731,435.2203,148.9223,429.6711,147.8238,438.002,153.077" style="stroke: #A80036; stroke-width: 1.0;"/><!--link ApplicationDeveloper to ManageApplications--><path d="M502.02,93.295 C489.499,111.998 475.247,133.288 464.83,148.847 " fill="none" id="ApplicationDeveloper-ManageApplications" style="stroke: #A80036; stroke-width: 1.0;"/><polygon fill="#A80036" points="461.998,153.077,470.3289,147.8238,464.7797,148.9223,463.6813,143.3731,461.998,153.077" style="stroke: #A80036; stroke-width: 1.0;"/><!--link ManageApplications to CreateApplication--><path d="M396.988,186.5395 C326.446,204.5564 202.48,236.2179 132.3,254.1424 " fill="none" id="ManageApplications-CreateApplication" style="stroke: #A80036; stroke-width: 1.0;"/><polygon fill="#A80036" points="127.341,255.4088,137.0513,257.0548,132.1852,254.1703,135.0697,249.3041,127.341,255.4088" style="stroke: #A80036; stroke-width: 1.0;"/><!--link ManageApplications to DeployApplication--><path d="M417.601,189.4606 C384.232,206.4145 332.425,232.7355 298.356,250.0449 " fill="none" id="ManageApplications-DeployApplication" style="stroke: #A80036; stroke-width: 1.0;"/><polygon fill="#A80036" points="293.878,252.3202,303.7137,251.8106,298.3359,250.0558,300.0907,244.678,293.878,252.3202" style="stroke: #A80036; stroke-width: 1.0;"/><!--link ManageApplications to DestroyApplication--><path d="M450,191.2206 C450,206.7367 450,229.0717 450,245.5661 " fill="none" id="ManageApplications-DestroyApplication" style="stroke: #A80036; stroke-width: 1.0;"/><polygon fill="#A80036" points="450,250.9177,454,241.9177,450,245.9177,446,241.9177,450,250.9177" style="stroke: #A80036; stroke-width: 1.0;"/><!--link ManageApplications to MonitorApplication--><path d="M482.747,189.4606 C516.475,206.4145 568.839,232.7355 603.275,250.0449 " fill="none" id="ManageApplications-MonitorApplication" style="stroke: #A80036; stroke-width: 1.0;"/><polygon fill="#A80036" points="607.801,252.3202,601.5563,244.7041,603.3337,250.0745,597.9633,251.8519,607.801,252.3202" style="stroke: #A80036; stroke-width: 1.0;"/><!--link ManageApplications to UpdateApplication--><path d="M503.585,186.5395 C574.594,204.4817 699.157,235.9554 770.249,253.9186 " fill="none" id="ManageApplications-UpdateApplication" style="stroke: #A80036; stroke-width: 1.0;"/><polygon fill="#A80036" points="775.274,255.1882,767.5275,249.1062,770.4262,253.9639,765.5685,256.8626,775.274,255.1882" style="stroke: #A80036; stroke-width: 1.0;"/><!--
@startuml


usecase "Manage Applications" as ManageApplications

Actor "DevOps Engineer" as DevOpsEngineer

DevOpsEngineer - -> ManageApplications

Actor "Application Developer" as ApplicationDeveloper

ApplicationDeveloper - -> ManageApplications



usecase "CreateApplication" as CreateApplication #lightgrey

ManageApplications - -> CreateApplication

usecase "DeployApplication" as DeployApplication #lightgrey

ManageApplications - -> DeployApplication

usecase "DestroyApplication" as DestroyApplication #lightgrey

ManageApplications - -> DestroyApplication

usecase "MonitorApplication" as MonitorApplication #lightgrey

ManageApplications - -> MonitorApplication

usecase "UpdateApplication" as UpdateApplication #lightgrey

ManageApplications - -> UpdateApplication

@enduml

PlantUML version 1.2019.05(Sat Apr 20 09:45:36 PDT 2019)
(GPL source distribution)
Java Runtime: OpenJDK Runtime Environment
JVM: OpenJDK 64-Bit Server VM
Java Version: 12.0.1+12
Operating System: Windows 10
OS Version: 10.0
Default Encoding: Cp1252
Language: en
Country: US
--></g></svg>