<?xml version="1.0" encoding="UTF-8" standalone="no"?><svg xmlns="http://www.w3.org/2000/svg" xmlns:xlink="http://www.w3.org/1999/xlink" contentScriptType="application/ecmascript" contentStyleType="text/css" height="509px" preserveAspectRatio="none" style="width:1112px;height:509px;" version="1.1" viewBox="0 0 1112 509" width="1112px" zoomAndPan="magnify"><defs><filter height="300%" id="fu6swqeglk6tn" width="300%" x="-1" y="-1"><feGaussianBlur result="blurOut" stdDeviation="2.0"/><feColorMatrix in="blurOut" result="blurOut2" type="matrix" values="0 0 0 0 0 0 0 0 0 0 0 0 0 0 0 0 0 0 .4 0"/><feOffset dx="4.0" dy="4.0" in="blurOut2" result="blurOut3"/><feBlend in="SourceGraphic" in2="blurOut3" mode="normal"/></filter></defs><g><rect fill="#ADD8E6" height="494.7344" style="stroke: #A80036; stroke-width: 1.0;" width="209" x="222.5" y="4"/><text fill="#000000" font-family="sans-serif" font-size="13" font-weight="bold" lengthAdjust="spacingAndGlyphs" textLength="199" x="225.5" y="17.4951">Application Management Layer</text><rect fill="#FFCC88" height="494.7344" style="stroke: #A80036; stroke-width: 1.0;" width="278" x="433.5" y="4"/><text fill="#000000" font-family="sans-serif" font-size="13" font-weight="bold" lengthAdjust="spacingAndGlyphs" textLength="272" x="436.5" y="17.4951">Distributed Information Management Layer</text><rect fill="#90EE90" height="494.7344" style="stroke: #A80036; stroke-width: 1.0;" width="181" x="713.5" y="4"/><text fill="#000000" font-family="sans-serif" font-size="13" font-weight="bold" lengthAdjust="spacingAndGlyphs" textLength="175" x="716.5" y="17.4951">Service Management Layer</text><rect fill="#FFC0CB" height="494.7344" style="stroke: #A80036; stroke-width: 1.0;" width="104" x="896.5" y="4"/><text fill="#000000" font-family="sans-serif" font-size="13" font-weight="bold" lengthAdjust="spacingAndGlyphs" textLength="98" x="899.5" y="17.4951">Security Aspect</text><rect fill="#FFC0CB" height="494.7344" style="stroke: #A80036; stroke-width: 1.0;" width="99" x="1002.5" y="4"/><text fill="#000000" font-family="sans-serif" font-size="13" font-weight="bold" lengthAdjust="spacingAndGlyphs" textLength="93" x="1005.5" y="17.4951">Identity Aspect</text><line style="stroke: #A80036; stroke-width: 1.0; stroke-dasharray: 5.0,5.0;" x1="67" x2="67" y1="87.6094" y2="411.125"/><line style="stroke: #A80036; stroke-width: 1.0; stroke-dasharray: 5.0,5.0;" x1="169" x2="169" y1="87.6094" y2="411.125"/><line style="stroke: #A80036; stroke-width: 1.0; stroke-dasharray: 5.0,5.0;" x1="326.5" x2="326.5" y1="87.6094" y2="411.125"/><line style="stroke: #A80036; stroke-width: 1.0; stroke-dasharray: 5.0,5.0;" x1="572" x2="572" y1="87.6094" y2="411.125"/><line style="stroke: #A80036; stroke-width: 1.0; stroke-dasharray: 5.0,5.0;" x1="803.5" x2="803.5" y1="87.6094" y2="411.125"/><line style="stroke: #A80036; stroke-width: 1.0; stroke-dasharray: 5.0,5.0;" x1="948" x2="948" y1="87.6094" y2="411.125"/><line style="stroke: #A80036; stroke-width: 1.0; stroke-dasharray: 5.0,5.0;" x1="1051.5" x2="1051.5" y1="87.6094" y2="411.125"/><text fill="#000000" font-family="sans-serif" font-size="14" lengthAdjust="spacingAndGlyphs" textLength="112" x="8" y="84.5332">DevOps Engineer</text><ellipse cx="67" cy="13" fill="#FEFECE" filter="url(#fu6swqeglk6tn)" rx="8" ry="8" style="stroke: #A80036; stroke-width: 2.0;"/><path d="M67,21 L67,48 M54,29 L80,29 M67,48 L54,63 M67,48 L80,63 " fill="none" filter="url(#fu6swqeglk6tn)" style="stroke: #A80036; stroke-width: 2.0;"/><text fill="#000000" font-family="sans-serif" font-size="14" lengthAdjust="spacingAndGlyphs" textLength="112" x="8" y="424.6582">DevOps Engineer</text><ellipse cx="67" cy="437.7344" fill="#FEFECE" filter="url(#fu6swqeglk6tn)" rx="8" ry="8" style="stroke: #A80036; stroke-width: 2.0;"/><path d="M67,445.7344 L67,472.7344 M54,453.7344 L80,453.7344 M67,472.7344 L54,487.7344 M67,472.7344 L80,487.7344 " fill="none" filter="url(#fu6swqeglk6tn)" style="stroke: #A80036; stroke-width: 2.0;"/><text fill="#000000" font-family="sans-serif" font-size="14" lengthAdjust="spacingAndGlyphs" textLength="60" x="136" y="84.5332">EventBus</text><ellipse cx="169" cy="54" fill="#FEFECE" filter="url(#fu6swqeglk6tn)" rx="12" ry="12" style="stroke: #A80036; stroke-width: 2.0;"/><line style="stroke: #A80036; stroke-width: 2.0;" x1="157" x2="181" y1="68" y2="68"/><text fill="#000000" font-family="sans-serif" font-size="14" lengthAdjust="spacingAndGlyphs" textLength="60" x="136" y="424.6582">EventBus</text><ellipse cx="169" cy="443.7344" fill="#FEFECE" filter="url(#fu6swqeglk6tn)" rx="12" ry="12" style="stroke: #A80036; stroke-width: 2.0;"/><line style="stroke: #A80036; stroke-width: 2.0;" x1="157" x2="181" y1="457.7344" y2="457.7344"/><text fill="#000000" font-family="sans-serif" font-size="14" lengthAdjust="spacingAndGlyphs" textLength="22" x="313" y="84.5332">aml</text><path d="M306.5,42 L306.5,66 M306.5,54 L323.5,54 " fill="none" filter="url(#fu6swqeglk6tn)" style="stroke: #A80036; stroke-width: 2.0;"/><ellipse cx="335.5" cy="54" fill="#FFFFFF" filter="url(#fu6swqeglk6tn)" rx="12" ry="12" style="stroke: #A80036; stroke-width: 2.0;"/><text fill="#000000" font-family="sans-serif" font-size="14" lengthAdjust="spacingAndGlyphs" textLength="22" x="313" y="424.6582">aml</text><path d="M306.5,431.7344 L306.5,455.7344 M306.5,443.7344 L323.5,443.7344 " fill="none" filter="url(#fu6swqeglk6tn)" style="stroke: #A80036; stroke-width: 2.0;"/><ellipse cx="335.5" cy="443.7344" fill="#FFFFFF" filter="url(#fu6swqeglk6tn)" rx="12" ry="12" style="stroke: #A80036; stroke-width: 2.0;"/><text fill="#000000" font-family="sans-serif" font-size="14" lengthAdjust="spacingAndGlyphs" textLength="25" x="557" y="84.5332">diml</text><path d="M552,42 L552,66 M552,54 L569,54 " fill="none" filter="url(#fu6swqeglk6tn)" style="stroke: #A80036; stroke-width: 2.0;"/><ellipse cx="581" cy="54" fill="#FFFFFF" filter="url(#fu6swqeglk6tn)" rx="12" ry="12" style="stroke: #A80036; stroke-width: 2.0;"/><text fill="#000000" font-family="sans-serif" font-size="14" lengthAdjust="spacingAndGlyphs" textLength="25" x="557" y="424.6582">diml</text><path d="M552,431.7344 L552,455.7344 M552,443.7344 L569,443.7344 " fill="none" filter="url(#fu6swqeglk6tn)" style="stroke: #A80036; stroke-width: 2.0;"/><ellipse cx="581" cy="443.7344" fill="#FFFFFF" filter="url(#fu6swqeglk6tn)" rx="12" ry="12" style="stroke: #A80036; stroke-width: 2.0;"/><text fill="#000000" font-family="sans-serif" font-size="14" lengthAdjust="spacingAndGlyphs" textLength="21" x="790.5" y="84.5332">sml</text><path d="M783.5,42 L783.5,66 M783.5,54 L800.5,54 " fill="none" filter="url(#fu6swqeglk6tn)" style="stroke: #A80036; stroke-width: 2.0;"/><ellipse cx="812.5" cy="54" fill="#FFFFFF" filter="url(#fu6swqeglk6tn)" rx="12" ry="12" style="stroke: #A80036; stroke-width: 2.0;"/><text fill="#000000" font-family="sans-serif" font-size="14" lengthAdjust="spacingAndGlyphs" textLength="21" x="790.5" y="424.6582">sml</text><path d="M783.5,431.7344 L783.5,455.7344 M783.5,443.7344 L800.5,443.7344 " fill="none" filter="url(#fu6swqeglk6tn)" style="stroke: #A80036; stroke-width: 2.0;"/><ellipse cx="812.5" cy="443.7344" fill="#FFFFFF" filter="url(#fu6swqeglk6tn)" rx="12" ry="12" style="stroke: #A80036; stroke-width: 2.0;"/><text fill="#000000" font-family="sans-serif" font-size="14" lengthAdjust="spacingAndGlyphs" textLength="15" x="938" y="84.5332">sa</text><path d="M928,42 L928,66 M928,54 L945,54 " fill="none" filter="url(#fu6swqeglk6tn)" style="stroke: #A80036; stroke-width: 2.0;"/><ellipse cx="957" cy="54" fill="#FFFFFF" filter="url(#fu6swqeglk6tn)" rx="12" ry="12" style="stroke: #A80036; stroke-width: 2.0;"/><text fill="#000000" font-family="sans-serif" font-size="14" lengthAdjust="spacingAndGlyphs" textLength="15" x="938" y="424.6582">sa</text><path d="M928,431.7344 L928,455.7344 M928,443.7344 L945,443.7344 " fill="none" filter="url(#fu6swqeglk6tn)" style="stroke: #A80036; stroke-width: 2.0;"/><ellipse cx="957" cy="443.7344" fill="#FFFFFF" filter="url(#fu6swqeglk6tn)" rx="12" ry="12" style="stroke: #A80036; stroke-width: 2.0;"/><text fill="#000000" font-family="sans-serif" font-size="14" lengthAdjust="spacingAndGlyphs" textLength="11" x="1043.5" y="84.5332">ia</text><path d="M1031.5,42 L1031.5,66 M1031.5,54 L1048.5,54 " fill="none" filter="url(#fu6swqeglk6tn)" style="stroke: #A80036; stroke-width: 2.0;"/><ellipse cx="1060.5" cy="54" fill="#FFFFFF" filter="url(#fu6swqeglk6tn)" rx="12" ry="12" style="stroke: #A80036; stroke-width: 2.0;"/><text fill="#000000" font-family="sans-serif" font-size="14" lengthAdjust="spacingAndGlyphs" textLength="11" x="1043.5" y="424.6582">ia</text><path d="M1031.5,431.7344 L1031.5,455.7344 M1031.5,443.7344 L1048.5,443.7344 " fill="none" filter="url(#fu6swqeglk6tn)" style="stroke: #A80036; stroke-width: 2.0;"/><ellipse cx="1060.5" cy="443.7344" fill="#FFFFFF" filter="url(#fu6swqeglk6tn)" rx="12" ry="12" style="stroke: #A80036; stroke-width: 2.0;"/><polygon fill="#A80036" points="315,115.9609,325,119.9609,315,123.9609,319,119.9609" style="stroke: #A80036; stroke-width: 1.0;"/><line style="stroke: #A80036; stroke-width: 1.0;" x1="67" x2="321" y1="119.9609" y2="119.9609"/><text fill="#000000" font-family="sans-serif" font-size="13" lengthAdjust="spacingAndGlyphs" textLength="113" x="74" y="115.1045">Destroy Application</text><polygon fill="#A80036" points="560.5,146.3125,570.5,150.3125,560.5,150.3125" style="stroke: #A80036; stroke-width: 1.0;"/><line style="stroke: #A80036; stroke-width: 1.0;" x1="169" x2="571.5" y1="150.3125" y2="150.3125"/><text fill="#000000" font-family="sans-serif" font-size="13" lengthAdjust="spacingAndGlyphs" textLength="51" x="176" y="145.4561">method()</text><polygon fill="#A80036" points="180,181.6641,170,181.6641,180,185.6641" style="stroke: #A80036; stroke-width: 1.0;"/><line style="stroke: #A80036; stroke-width: 1.0; stroke-dasharray: 2.0,2.0;" x1="169" x2="571.5" y1="180.6641" y2="180.6641"/><text fill="#000000" font-family="sans-serif" font-size="13" lengthAdjust="spacingAndGlyphs" textLength="78" x="186" y="175.8076">Model.Event2</text><polygon fill="#A80036" points="792,207.0156,802,211.0156,792,211.0156" style="stroke: #A80036; stroke-width: 1.0;"/><line style="stroke: #A80036; stroke-width: 1.0;" x1="169" x2="803" y1="211.0156" y2="211.0156"/><text fill="#000000" font-family="sans-serif" font-size="13" lengthAdjust="spacingAndGlyphs" textLength="51" x="176" y="206.1592">method()</text><polygon fill="#A80036" points="180,242.3672,170,242.3672,180,246.3672" style="stroke: #A80036; stroke-width: 1.0;"/><line style="stroke: #A80036; stroke-width: 1.0; stroke-dasharray: 2.0,2.0;" x1="169" x2="803" y1="241.3672" y2="241.3672"/><text fill="#000000" font-family="sans-serif" font-size="13" lengthAdjust="spacingAndGlyphs" textLength="78" x="186" y="236.5107">Model.Event2</text><polygon fill="#A80036" points="936.5,267.7188,946.5,271.7188,936.5,271.7188" style="stroke: #A80036; stroke-width: 1.0;"/><line style="stroke: #A80036; stroke-width: 1.0;" x1="169" x2="947.5" y1="271.7188" y2="271.7188"/><text fill="#000000" font-family="sans-serif" font-size="13" lengthAdjust="spacingAndGlyphs" textLength="51" x="176" y="266.8623">method()</text><polygon fill="#A80036" points="180,303.0703,170,303.0703,180,307.0703" style="stroke: #A80036; stroke-width: 1.0;"/><line style="stroke: #A80036; stroke-width: 1.0; stroke-dasharray: 2.0,2.0;" x1="169" x2="947.5" y1="302.0703" y2="302.0703"/><text fill="#000000" font-family="sans-serif" font-size="13" lengthAdjust="spacingAndGlyphs" textLength="78" x="186" y="297.2139">Model.Event2</text><polygon fill="#A80036" points="1040,328.4219,1050,332.4219,1040,332.4219" style="stroke: #A80036; stroke-width: 1.0;"/><line style="stroke: #A80036; stroke-width: 1.0;" x1="169" x2="1051" y1="332.4219" y2="332.4219"/><text fill="#000000" font-family="sans-serif" font-size="13" lengthAdjust="spacingAndGlyphs" textLength="51" x="176" y="327.5654">method()</text><polygon fill="#A80036" points="180,363.7734,170,363.7734,180,367.7734" style="stroke: #A80036; stroke-width: 1.0;"/><line style="stroke: #A80036; stroke-width: 1.0; stroke-dasharray: 2.0,2.0;" x1="169" x2="1051" y1="362.7734" y2="362.7734"/><text fill="#000000" font-family="sans-serif" font-size="13" lengthAdjust="spacingAndGlyphs" textLength="78" x="186" y="357.917">Model.Event2</text><polygon fill="#A80036" points="315,394.125,325,394.125,315,398.125" style="stroke: #A80036; stroke-width: 1.0;"/><line style="stroke: #A80036; stroke-width: 1.0; stroke-dasharray: 2.0,2.0;" x1="169" x2="326" y1="393.125" y2="393.125"/><text fill="#000000" font-family="sans-serif" font-size="13" lengthAdjust="spacingAndGlyphs" textLength="58" x="176" y="388.2686">method2()</text><!--
@startuml

actor "DevOps Engineer"


entity EventBus

box Application Management Layer #lightblue
    boundary aml #white
end box



"DevOps Engineer" -> aml: Destroy Application



box "Distributed Information Management Layer" #ffcc88
    boundary diml #white
end box
EventBus -\ diml: method()
diml - -/ EventBus: Model.Event2
box "Service Management Layer" #lightgreen
    boundary sml #white
end box
EventBus -\ sml: method()
sml - -/ EventBus: Model.Event2
box "Security Aspect" #pink
    boundary sa #white
end box
EventBus -\ sa: method()
sa - -/ EventBus: Model.Event2
box "Identity Aspect" #pink
    boundary ia #white
end box
EventBus -\ ia: method()
ia - -/ EventBus: Model.Event2

EventBus - -/ aml : method2()
@enduml

PlantUML version 1.2019.05(Sat Apr 20 09:45:36 PDT 2019)
(GPL source distribution)
Java Runtime: OpenJDK Runtime Environment
JVM: OpenJDK 64-Bit Server VM
Java Version: 12.0.1+12
Operating System: Windows 10
OS Version: 10.0
Default Encoding: Cp1252
Language: en
Country: US
--></g></svg>