<?xml version="1.0" encoding="UTF-8" standalone="no"?><svg xmlns="http://www.w3.org/2000/svg" xmlns:xlink="http://www.w3.org/1999/xlink" contentScriptType="application/ecmascript" contentStyleType="text/css" height="267px" preserveAspectRatio="none" style="width:404px;height:267px;" version="1.1" viewBox="0 0 404 267" width="404px" zoomAndPan="magnify"><defs><filter height="300%" id="f1vaml4sbh5tbx" width="300%" x="-1" y="-1"><feGaussianBlur result="blurOut" stdDeviation="2.0"/><feColorMatrix in="blurOut" result="blurOut2" type="matrix" values="0 0 0 0 0 0 0 0 0 0 0 0 0 0 0 0 0 0 .4 0"/><feOffset dx="4.0" dy="4.0" in="blurOut2" result="blurOut3"/><feBlend in="SourceGraphic" in2="blurOut3" mode="normal"/></filter></defs><g><!--cluster aml--><rect fill="#ADD8E6" filter="url(#f1vaml4sbh5tbx)" height="232" style="stroke: #000000; stroke-width: 1.5;" width="231" x="162" y="24"/><text fill="#000000" font-family="sans-serif" font-size="14" font-weight="bold" lengthAdjust="spacingAndGlyphs" textLength="215" x="170" y="40.5332">Application Management Layer</text><ellipse cx="276.8153" cy="78.0631" fill="#FEFECE" filter="url(#f1vaml4sbh5tbx)" rx="75.8153" ry="17.5631" style="stroke: #A80036; stroke-width: 1.5;"/><text fill="#000000" font-family="sans-serif" font-size="14" lengthAdjust="spacingAndGlyphs" textLength="116" x="218.8153" y="83.3677">Manage AI Models</text><ellipse cx="276.9197" cy="149.7839" fill="#FEFECE" filter="url(#f1vaml4sbh5tbx)" rx="81.9197" ry="18.7839" style="stroke: #A80036; stroke-width: 1.5;"/><text fill="#000000" font-family="sans-serif" font-size="14" lengthAdjust="spacingAndGlyphs" textLength="131" x="211.4197" y="155.0886">Manage Applications</text><ellipse cx="277.2267" cy="222.0453" fill="#FEFECE" filter="url(#f1vaml4sbh5tbx)" rx="78.2267" ry="18.0453" style="stroke: #A80036; stroke-width: 1.5;"/><text fill="#000000" font-family="sans-serif" font-size="14" lengthAdjust="spacingAndGlyphs" textLength="122" x="216.2267" y="227.35">Manage Workloads</text><!--entity DevOpsEngineer--><ellipse cx="62" cy="117.5" fill="#FEFECE" filter="url(#f1vaml4sbh5tbx)" rx="8" ry="8" style="stroke: #A80036; stroke-width: 2.0;"/><path d="M62,125.5 L62,152.5 M49,133.5 L75,133.5 M62,152.5 L49,167.5 M62,152.5 L75,167.5 " fill="none" filter="url(#f1vaml4sbh5tbx)" style="stroke: #A80036; stroke-width: 2.0;"/><text fill="#000000" font-family="sans-serif" font-size="14" lengthAdjust="spacingAndGlyphs" textLength="112" x="6" y="189.0332">DevOps Engineer</text><!--link DevOpsEngineer to ManageAIModels--><path d="M118.468,126.351 C130.119,121.693 142.394,117.011 154,113 C175.69,105.503 199.925,98.313 221.043,92.421 " fill="none" id="DevOpsEngineer-ManageAIModels" style="stroke: #A80036; stroke-width: 1.0;"/><polygon fill="#A80036" points="226.059,91.03,216.3175,89.5795,221.2407,92.3656,218.4546,97.2888,226.059,91.03" style="stroke: #A80036; stroke-width: 1.0;"/><!--link DevOpsEngineer to ManageApplications--><path d="M118.13,150 C139.88,150 165.388,150 189.482,150 " fill="none" id="DevOpsEngineer-ManageApplications" style="stroke: #A80036; stroke-width: 1.0;"/><polygon fill="#A80036" points="194.6,150,185.6,146,189.6,150,185.6,154,194.6,150" style="stroke: #A80036; stroke-width: 1.0;"/><!--link DevOpsEngineer to ManageWorkloads--><path d="M118.045,172.6936 C129.836,177.2962 142.274,181.9596 154,186 C175.649,193.4594 199.775,200.782 220.82,206.8549 " fill="none" id="DevOpsEngineer-ManageWorkloads" style="stroke: #A80036; stroke-width: 1.0;"/><polygon fill="#A80036" points="225.819,208.2908,218.2726,201.9621,221.0132,206.9108,216.0646,209.6514,225.819,208.2908" style="stroke: #A80036; stroke-width: 1.0;"/><!--
@startuml

left to right direction


Actor "DevOps Engineer" as DevOpsEngineer


rectangle "Application Management Layer" as aml #lightblue {
        usecase "Manage AI Models" as ManageAIModels
    DevOpsEngineer - -> ManageAIModels
    usecase "Manage Applications" as ManageApplications
    DevOpsEngineer - -> ManageApplications
    usecase "Manage Workloads" as ManageWorkloads
    DevOpsEngineer - -> ManageWorkloads

}


@enduml

PlantUML version 1.2019.05(Sat Apr 20 09:45:36 PDT 2019)
(GPL source distribution)
Java Runtime: OpenJDK Runtime Environment
JVM: OpenJDK 64-Bit Server VM
Java Version: 12.0.1+12
Operating System: Windows 10
OS Version: 10.0
Default Encoding: Cp1252
Language: en
Country: US
--></g></svg>