<?xml version="1.0" encoding="UTF-8" standalone="no"?><svg xmlns="http://www.w3.org/2000/svg" xmlns:xlink="http://www.w3.org/1999/xlink" contentScriptType="application/ecmascript" contentStyleType="text/css" height="317px" preserveAspectRatio="none" style="width:347px;height:317px;" version="1.1" viewBox="0 0 347 317" width="347px" zoomAndPan="magnify"><defs><filter height="300%" id="fhf31oq37y4a6" width="300%" x="-1" y="-1"><feGaussianBlur result="blurOut" stdDeviation="2.0"/><feColorMatrix in="blurOut" result="blurOut2" type="matrix" values="0 0 0 0 0 0 0 0 0 0 0 0 0 0 0 0 0 0 .4 0"/><feOffset dx="4.0" dy="4.0" in="blurOut2" result="blurOut3"/><feBlend in="SourceGraphic" in2="blurOut3" mode="normal"/></filter></defs><g><!--cluster Security Aspect--><polygon fill="#FFC0CB" filter="url(#fhf31oq37y4a6)" points="22,65,137,65,144,88.6094,325,88.6094,325,305,22,305,22,65" style="stroke: #000000; stroke-width: 1.5;"/><line style="stroke: #000000; stroke-width: 1.5;" x1="22" x2="144" y1="88.6094" y2="88.6094"/><text fill="#000000" font-family="sans-serif" font-size="14" font-weight="bold" lengthAdjust="spacingAndGlyphs" textLength="109" x="26" y="81.5332">Security Aspect</text><!--class PolicyCollection--><rect fill="#FEFECE" filter="url(#fhf31oq37y4a6)" height="48" id="PolicyCollection" style="stroke: #A80036; stroke-width: 1.5;" width="119" x="189.5" y="101"/><ellipse cx="204.5" cy="117" fill="#ADD1B2" rx="11" ry="11" style="stroke: #A80036; stroke-width: 1.0;"/><path d="M207.2656,112.875 Q207.4219,112.6563 207.6094,112.5469 Q207.7969,112.4375 208.0156,112.4375 Q208.3906,112.4375 208.625,112.7031 Q208.8594,112.9531 208.8594,113.5625 L208.8594,115.0156 Q208.8594,115.625 208.625,115.8906 Q208.3906,116.1563 208.0156,116.1563 Q207.6719,116.1563 207.4688,115.9531 Q207.2656,115.7656 207.1563,115.25 Q207.1094,114.8906 206.9219,114.7031 Q206.5938,114.3281 205.9844,114.1094 Q205.375,113.8906 204.75,113.8906 Q203.9844,113.8906 203.3438,114.2188 Q202.7188,114.5469 202.2188,115.2969 Q201.7344,116.0469 201.7344,117.0781 L201.7344,118.1719 Q201.7344,119.4063 202.625,120.2344 Q203.5156,121.0469 205.1094,121.0469 Q206.0469,121.0469 206.7031,120.7969 Q207.0938,120.6406 207.5156,120.2031 Q207.7813,119.9375 207.9219,119.8594 Q208.0781,119.7813 208.2813,119.7813 Q208.6094,119.7813 208.8594,120.0469 Q209.125,120.2969 209.125,120.6406 Q209.125,120.9844 208.7813,121.3906 Q208.2813,121.9688 207.4844,122.2969 Q206.4063,122.75 205.1094,122.75 Q203.5938,122.75 202.3906,122.125 Q201.4063,121.625 200.7188,120.5625 Q200.0313,119.4844 200.0313,118.2031 L200.0313,117.0469 Q200.0313,115.7188 200.6406,114.5781 Q201.2656,113.4219 202.3594,112.8125 Q203.4531,112.1875 204.6875,112.1875 Q205.4219,112.1875 206.0625,112.3594 Q206.7188,112.5156 207.2656,112.875 Z "/><text fill="#000000" font-family="sans-serif" font-size="12" lengthAdjust="spacingAndGlyphs" textLength="87" x="218.5" y="121.9102">PolicyCollection</text><line style="stroke: #A80036; stroke-width: 1.5;" x1="190.5" x2="307.5" y1="133" y2="133"/><line style="stroke: #A80036; stroke-width: 1.5;" x1="190.5" x2="307.5" y1="141" y2="141"/><!--class Policy--><rect fill="#FEFECE" filter="url(#fhf31oq37y4a6)" height="61.8359" id="Policy" style="stroke: #A80036; stroke-width: 1.5;" width="68" x="184" y="227"/><ellipse cx="200.8" cy="243" fill="#ADD1B2" rx="11" ry="11" style="stroke: #A80036; stroke-width: 1.0;"/><path d="M203.5656,238.875 Q203.7219,238.6563 203.9094,238.5469 Q204.0969,238.4375 204.3156,238.4375 Q204.6906,238.4375 204.925,238.7031 Q205.1594,238.9531 205.1594,239.5625 L205.1594,241.0156 Q205.1594,241.625 204.925,241.8906 Q204.6906,242.1563 204.3156,242.1563 Q203.9719,242.1563 203.7688,241.9531 Q203.5656,241.7656 203.4563,241.25 Q203.4094,240.8906 203.2219,240.7031 Q202.8938,240.3281 202.2844,240.1094 Q201.675,239.8906 201.05,239.8906 Q200.2844,239.8906 199.6438,240.2188 Q199.0188,240.5469 198.5188,241.2969 Q198.0344,242.0469 198.0344,243.0781 L198.0344,244.1719 Q198.0344,245.4063 198.925,246.2344 Q199.8156,247.0469 201.4094,247.0469 Q202.3469,247.0469 203.0031,246.7969 Q203.3938,246.6406 203.8156,246.2031 Q204.0813,245.9375 204.2219,245.8594 Q204.3781,245.7813 204.5813,245.7813 Q204.9094,245.7813 205.1594,246.0469 Q205.425,246.2969 205.425,246.6406 Q205.425,246.9844 205.0813,247.3906 Q204.5813,247.9688 203.7844,248.2969 Q202.7063,248.75 201.4094,248.75 Q199.8938,248.75 198.6906,248.125 Q197.7063,247.625 197.0188,246.5625 Q196.3313,245.4844 196.3313,244.2031 L196.3313,243.0469 Q196.3313,241.7188 196.9406,240.5781 Q197.5656,239.4219 198.6594,238.8125 Q199.7531,238.1875 200.9875,238.1875 Q201.7219,238.1875 202.3625,238.3594 Q203.0188,238.5156 203.5656,238.875 Z "/><text fill="#000000" font-family="sans-serif" font-size="12" lengthAdjust="spacingAndGlyphs" textLength="32" x="215.2" y="247.9102">Policy</text><line style="stroke: #A80036; stroke-width: 1.5;" x1="185" x2="251" y1="259" y2="259"/><text fill="#000000" font-family="sans-serif" font-size="11" lengthAdjust="spacingAndGlyphs" textLength="56" x="190" y="274.4189">string name</text><line style="stroke: #A80036; stroke-width: 1.5;" x1="185" x2="251" y1="280.8359" y2="280.8359"/><!--class i--><rect fill="#FEFECE" filter="url(#fhf31oq37y4a6)" height="48" id="i" style="stroke: #A80036; stroke-width: 1.5;" width="116" x="38" y="101"/><ellipse cx="53" cy="117" fill="#B4A7E5" rx="11" ry="11" style="stroke: #A80036; stroke-width: 1.0;"/><path d="M53.9531,113.6406 L53.9531,120.2969 L55.6719,120.2969 Q56.2813,120.2969 56.5469,120.5313 Q56.8125,120.7656 56.8125,121.1563 Q56.8125,121.5313 56.5469,121.7656 Q56.2813,122 55.6719,122 L50.5313,122 Q49.9219,122 49.6563,121.7656 Q49.3906,121.5313 49.3906,121.1406 Q49.3906,120.7656 49.6563,120.5313 Q49.9219,120.2969 50.5313,120.2969 L52.25,120.2969 L52.25,113.6406 L50.5313,113.6406 Q49.9219,113.6406 49.6563,113.4063 Q49.3906,113.1719 49.3906,112.7813 Q49.3906,112.4063 49.6563,112.1719 Q49.9219,111.9375 50.5313,111.9375 L55.6719,111.9375 Q56.2813,111.9375 56.5469,112.1719 Q56.8125,112.4063 56.8125,112.7813 Q56.8125,113.1719 56.5469,113.4063 Q56.2813,113.6406 55.6719,113.6406 L53.9531,113.6406 Z "/><text fill="#000000" font-family="sans-serif" font-size="12" font-style="italic" lengthAdjust="spacingAndGlyphs" textLength="84" x="67" y="121.9102">Security Aspect</text><line style="stroke: #A80036; stroke-width: 1.5;" x1="39" x2="153" y1="133" y2="133"/><line style="stroke: #A80036; stroke-width: 1.5;" x1="39" x2="153" y1="141" y2="141"/><ellipse cx="51" cy="13" fill="#FEFECE" filter="url(#fhf31oq37y4a6)" rx="5" ry="5" style="stroke: #A80036; stroke-width: 1.5;"/><text fill="#000000" font-family="sans-serif" font-size="12" lengthAdjust="spacingAndGlyphs" textLength="19" x="41.5" y="30.457">CLI</text><ellipse cx="96" cy="13" fill="#FEFECE" filter="url(#fhf31oq37y4a6)" rx="5" ry="5" style="stroke: #A80036; stroke-width: 1.5;"/><text fill="#000000" font-family="sans-serif" font-size="12" lengthAdjust="spacingAndGlyphs" textLength="32" x="80" y="30.457">REST</text><ellipse cx="141" cy="13" fill="#FEFECE" filter="url(#fhf31oq37y4a6)" rx="5" ry="5" style="stroke: #A80036; stroke-width: 1.5;"/><text fill="#000000" font-family="sans-serif" font-size="12" lengthAdjust="spacingAndGlyphs" textLength="25" x="128.5" y="30.457">Web</text><!--link ilol7934 to i--><path d="M52.6016,17.915 C57.9249,30.927 75.316,73.439 86.3998,100.533 " fill="none" id="ilol7934-i" style="stroke: #A80036; stroke-width: 1.0;"/><!--link ilol7937 to i--><path d="M96,18.178 C96,31.521 96,73.808 96,100.714 " fill="none" id="ilol7937-i" style="stroke: #A80036; stroke-width: 1.0;"/><!--link ilol7940 to i--><path d="M139.398,17.915 C134.075,30.927 116.684,73.439 105.6002,100.533 " fill="none" id="ilol7940-i" style="stroke: #A80036; stroke-width: 1.0;"/><!--link Policy to PolicyCollection--><path d="M228.215,213.833 C232.189,197.038 236.691,178.017 240.485,161.981 " fill="none" id="Policy-PolicyCollection" style="stroke: #A80036; stroke-width: 1.0;"/><polygon fill="#A80036" points="243.529,149.119,237.5635,156.9556,242.3773,153.9846,245.3484,158.7983,243.529,149.119" style="stroke: #A80036; stroke-width: 1.0;"/><line style="stroke: #A80036; stroke-width: 1.0;" x1="242.3773" x2="240.5355" y1="153.9846" y2="161.769"/><polygon fill="#FFFFFF" points="225.164,226.7261,230.4379,221.8082,227.9268,215.0485,222.6529,219.9664,225.164,226.7261" style="stroke: #A80036; stroke-width: 1.0;"/><text fill="#000000" font-family="sans-serif" font-size="13" lengthAdjust="spacingAndGlyphs" textLength="34" x="237" y="193.4951">owner</text><text fill="#000000" font-family="sans-serif" font-size="13" lengthAdjust="spacingAndGlyphs" textLength="7" x="234.3423" y="170.486">1</text><!--link PolicyCollection to Policy--><path d="M194.614,157.614 C187.921,163.832 182.03,170.963 178,179 C172.065,190.836 174.784,203.635 180.96,215.377 " fill="none" id="PolicyCollection-Policy" style="stroke: #A80036; stroke-width: 1.0;"/><polygon fill="#A80036" points="188.096,226.6905,186.6786,216.9442,185.4289,222.4613,179.9118,221.2115,188.096,226.6905" style="stroke: #A80036; stroke-width: 1.0;"/><line style="stroke: #A80036; stroke-width: 1.0;" x1="185.4289" x2="181.1615" y1="222.4613" y2="215.695"/><polygon fill="#A80036" points="204.869,149.157,197.6951,149.8889,195.6115,156.7924,202.7854,156.0605,204.869,149.157" style="stroke: #A80036; stroke-width: 1.0;"/><text fill="#000000" font-family="sans-serif" font-size="13" lengthAdjust="spacingAndGlyphs" textLength="44" x="179" y="193.4951">policies</text><text fill="#000000" font-family="sans-serif" font-size="13" lengthAdjust="spacingAndGlyphs" textLength="7" x="174.2064" y="216.1306">n</text><!--
@startuml


package "Security Aspect" #pink {
    
        class PolicyCollection {
        }
    
        class Policy {
        }
    }


package "Security Aspect" #pink {

    interface "Security Aspect" as i {
    
    }
}

CLI ()- - i
REST ()- - i
Web ()- - i

package "Security Aspect" #pink {
        class "Policy" {
                 string name
                    }
                Policy o- -> "1" PolicyCollection : owner
            
    
    class "PolicyCollection" {
                    }
                PolicyCollection *- -> "n" Policy : policies
            
    

}



@enduml

PlantUML version 1.2019.05(Sat Apr 20 09:45:36 PDT 2019)
(GPL source distribution)
Java Runtime: OpenJDK Runtime Environment
JVM: OpenJDK 64-Bit Server VM
Java Version: 12.0.1+12
Operating System: Windows 10
OS Version: 10.0
Default Encoding: Cp1252
Language: en
Country: US
--></g></svg>