<?xml version="1.0" encoding="UTF-8" standalone="no"?><svg xmlns="http://www.w3.org/2000/svg" xmlns:xlink="http://www.w3.org/1999/xlink" contentScriptType="application/ecmascript" contentStyleType="text/css" height="154px" preserveAspectRatio="none" style="width:333px;height:154px;" version="1.1" viewBox="0 0 333 154" width="333px" zoomAndPan="magnify"><defs><filter height="300%" id="f1xogo863a9meo" width="300%" x="-1" y="-1"><feGaussianBlur result="blurOut" stdDeviation="2.0"/><feColorMatrix in="blurOut" result="blurOut2" type="matrix" values="0 0 0 0 0 0 0 0 0 0 0 0 0 0 0 0 0 0 .4 0"/><feOffset dx="4.0" dy="4.0" in="blurOut2" result="blurOut3"/><feBlend in="SourceGraphic" in2="blurOut3" mode="normal"/></filter></defs><g><!--cluster Security Aspect--><polygon fill="#FFC0CB" filter="url(#f1xogo863a9meo)" points="22,42,137,42,144,65.6094,311,65.6094,311,142,22,142,22,42" style="stroke: #000000; stroke-width: 1.5;"/><line style="stroke: #000000; stroke-width: 1.5;" x1="22" x2="144" y1="65.6094" y2="65.6094"/><text fill="#000000" font-family="sans-serif" font-size="14" font-weight="bold" lengthAdjust="spacingAndGlyphs" textLength="109" x="26" y="58.5332">Security Aspect</text><!--class i--><rect fill="#FEFECE" filter="url(#f1xogo863a9meo)" height="48" id="i" style="stroke: #A80036; stroke-width: 1.5;" width="116" x="179" y="78"/><ellipse cx="194" cy="94" fill="#B4A7E5" rx="11" ry="11" style="stroke: #A80036; stroke-width: 1.0;"/><path d="M194.9531,90.6406 L194.9531,97.2969 L196.6719,97.2969 Q197.2813,97.2969 197.5469,97.5313 Q197.8125,97.7656 197.8125,98.1563 Q197.8125,98.5313 197.5469,98.7656 Q197.2813,99 196.6719,99 L191.5313,99 Q190.9219,99 190.6563,98.7656 Q190.3906,98.5313 190.3906,98.1406 Q190.3906,97.7656 190.6563,97.5313 Q190.9219,97.2969 191.5313,97.2969 L193.25,97.2969 L193.25,90.6406 L191.5313,90.6406 Q190.9219,90.6406 190.6563,90.4063 Q190.3906,90.1719 190.3906,89.7813 Q190.3906,89.4063 190.6563,89.1719 Q190.9219,88.9375 191.5313,88.9375 L196.6719,88.9375 Q197.2813,88.9375 197.5469,89.1719 Q197.8125,89.4063 197.8125,89.7813 Q197.8125,90.1719 197.5469,90.4063 Q197.2813,90.6406 196.6719,90.6406 L194.9531,90.6406 Z "/><text fill="#000000" font-family="sans-serif" font-size="12" font-style="italic" lengthAdjust="spacingAndGlyphs" textLength="84" x="208" y="98.9102">Security Aspect</text><line style="stroke: #A80036; stroke-width: 1.5;" x1="180" x2="294" y1="110" y2="110"/><line style="stroke: #A80036; stroke-width: 1.5;" x1="180" x2="294" y1="118" y2="118"/><!--entity Policy Engine--><rect fill="#FFFFFF" filter="url(#f1xogo863a9meo)" height="37.6094" style="stroke: #000000; stroke-width: 1.5;" width="105" x="38.5" y="83"/><text fill="#000000" font-family="sans-serif" font-size="14" lengthAdjust="spacingAndGlyphs" textLength="85" x="48.5" y="107.5332">Policy Engine</text><ellipse cx="192" cy="13" fill="#FEFECE" filter="url(#f1xogo863a9meo)" rx="5" ry="5" style="stroke: #A80036; stroke-width: 1.5;"/><text fill="#000000" font-family="sans-serif" font-size="12" lengthAdjust="spacingAndGlyphs" textLength="19" x="182.5" y="30.457">CLI</text><ellipse cx="237" cy="13" fill="#FEFECE" filter="url(#f1xogo863a9meo)" rx="5" ry="5" style="stroke: #A80036; stroke-width: 1.5;"/><text fill="#000000" font-family="sans-serif" font-size="12" lengthAdjust="spacingAndGlyphs" textLength="32" x="221" y="30.457">REST</text><ellipse cx="282" cy="13" fill="#FEFECE" filter="url(#f1xogo863a9meo)" rx="5" ry="5" style="stroke: #A80036; stroke-width: 1.5;"/><text fill="#000000" font-family="sans-serif" font-size="12" lengthAdjust="spacingAndGlyphs" textLength="25" x="269.5" y="30.457">Web</text><!--link ilol8153 to i--><path d="M193.934,17.738 C199.216,27.951 214.217,56.953 225.029,77.857 " fill="none" id="ilol8153-i" style="stroke: #A80036; stroke-width: 1.0;"/><!--link ilol8156 to i--><path d="M237,18.196 C237,28.786 237,57.218 237,77.8142 " fill="none" id="ilol8156-i" style="stroke: #A80036; stroke-width: 1.0;"/><!--link ilol8159 to i--><path d="M280.066,17.738 C274.784,27.951 259.783,56.953 248.971,77.857 " fill="none" id="ilol8159-i" style="stroke: #A80036; stroke-width: 1.0;"/><!--
@startuml


package "Security Aspect" #pink {

}


package "Security Aspect" #pink {

    interface "Security Aspect" as i {
    
    }
}

CLI ()- - i
REST ()- - i
Web ()- - i

package "Security Aspect" #pink {


rectangle "Policy Engine" #white {
}

}



@enduml

PlantUML version 1.2019.05(Sat Apr 20 09:45:36 PDT 2019)
(GPL source distribution)
Java Runtime: OpenJDK Runtime Environment
JVM: OpenJDK 64-Bit Server VM
Java Version: 12.0.1+12
Operating System: Windows 10
OS Version: 10.0
Default Encoding: Cp1252
Language: en
Country: US
--></g></svg>