<?xml version="1.0" encoding="UTF-8" standalone="no"?><svg xmlns="http://www.w3.org/2000/svg" xmlns:xlink="http://www.w3.org/1999/xlink" contentScriptType="application/ecmascript" contentStyleType="text/css" height="224px" preserveAspectRatio="none" style="width:234px;height:224px;" version="1.1" viewBox="0 0 234 224" width="234px" zoomAndPan="magnify"><defs><filter height="300%" id="fjc0t1y0hagyc" width="300%" x="-1" y="-1"><feGaussianBlur result="blurOut" stdDeviation="2.0"/><feColorMatrix in="blurOut" result="blurOut2" type="matrix" values="0 0 0 0 0 0 0 0 0 0 0 0 0 0 0 0 0 0 .4 0"/><feOffset dx="4.0" dy="4.0" in="blurOut2" result="blurOut3"/><feBlend in="SourceGraphic" in2="blurOut3" mode="normal"/></filter></defs><g><!--entity DataInstance--><rect fill="#ADD8E6" filter="url(#fjc0t1y0hagyc)" height="37.6094" style="stroke: #000000; stroke-width: 1.5;" width="103" x="120.4759" y="176"/><text fill="#000000" font-family="sans-serif" font-size="14" lengthAdjust="spacingAndGlyphs" textLength="83" x="130.4759" y="200.5332">DataInstance</text><!--entity Data--><rect fill="#90EE90" filter="url(#fjc0t1y0hagyc)" height="37.6094" style="stroke: #000000; stroke-width: 1.5;" width="50" x="15.9759" y="176"/><text fill="#000000" font-family="sans-serif" font-size="14" lengthAdjust="spacingAndGlyphs" textLength="30" x="25.9759" y="200.5332">Data</text><!--class Model--><rect fill="#FEFECE" filter="url(#fjc0t1y0hagyc)" height="89.5078" id="Model" style="stroke: #A80036; stroke-width: 1.5;" width="129" x="24.4759" y="8"/><ellipse cx="39.4759" cy="24" fill="#ADD1B2" rx="11" ry="11" style="stroke: #A80036; stroke-width: 1.0;"/><path d="M42.2415,19.875 Q42.3977,19.6563 42.5852,19.5469 Q42.7727,19.4375 42.9915,19.4375 Q43.3665,19.4375 43.6009,19.7031 Q43.8352,19.9531 43.8352,20.5625 L43.8352,22.0156 Q43.8352,22.625 43.6009,22.8906 Q43.3665,23.1563 42.9915,23.1563 Q42.6477,23.1563 42.4446,22.9531 Q42.2415,22.7656 42.1321,22.25 Q42.0852,21.8906 41.8977,21.7031 Q41.5696,21.3281 40.9602,21.1094 Q40.3509,20.8906 39.7259,20.8906 Q38.9602,20.8906 38.3196,21.2188 Q37.6946,21.5469 37.1946,22.2969 Q36.7102,23.0469 36.7102,24.0781 L36.7102,25.1719 Q36.7102,26.4063 37.6009,27.2344 Q38.4915,28.0469 40.0852,28.0469 Q41.0227,28.0469 41.679,27.7969 Q42.0696,27.6406 42.4915,27.2031 Q42.7571,26.9375 42.8977,26.8594 Q43.054,26.7813 43.2571,26.7813 Q43.5852,26.7813 43.8352,27.0469 Q44.1009,27.2969 44.1009,27.6406 Q44.1009,27.9844 43.7571,28.3906 Q43.2571,28.9688 42.4602,29.2969 Q41.3821,29.75 40.0852,29.75 Q38.5696,29.75 37.3665,29.125 Q36.3821,28.625 35.6946,27.5625 Q35.0071,26.4844 35.0071,25.2031 L35.0071,24.0469 Q35.0071,22.7188 35.6165,21.5781 Q36.2415,20.4219 37.3352,19.8125 Q38.429,19.1875 39.6634,19.1875 Q40.3977,19.1875 41.0384,19.3594 Q41.6946,19.5156 42.2415,19.875 Z "/><text fill="#000000" font-family="sans-serif" font-size="12" lengthAdjust="spacingAndGlyphs" textLength="97" x="53.4759" y="28.9102">LineageMetaData</text><line style="stroke: #A80036; stroke-width: 1.5;" x1="25.4759" x2="152.4759" y1="40" y2="40"/><text fill="#000000" font-family="sans-serif" font-size="11" lengthAdjust="spacingAndGlyphs" textLength="100" x="30.4759" y="55.4189">string creationAction</text><text fill="#000000" font-family="sans-serif" font-size="11" lengthAdjust="spacingAndGlyphs" textLength="56" x="30.4759" y="69.2549">string name</text><text fill="#000000" font-family="sans-serif" font-size="11" lengthAdjust="spacingAndGlyphs" textLength="56" x="30.4759" y="83.0908">string value</text><line style="stroke: #A80036; stroke-width: 1.5;" x1="25.4759" x2="152.4759" y1="89.5078" y2="89.5078"/><!--link Model to DataInstance--><path d="M121.9769,109.665 C133.1419,128.496 145.1629,148.7734 154.6199,164.7248 " fill="none" id="Model-DataInstance" style="stroke: #A80036; stroke-width: 1.0;"/><polygon fill="#A80036" points="161.2949,175.9841,160.1455,166.2025,158.7449,171.6832,153.2641,170.2826,161.2949,175.9841" style="stroke: #A80036; stroke-width: 1.0;"/><line style="stroke: #A80036; stroke-width: 1.0;" x1="158.7449" x2="154.6654" y1="171.6832" y2="164.8016"/><polygon fill="#FFFFFF" points="115.2376,98.297,114.8571,105.4981,121.3579,108.6189,121.7384,101.4178,115.2376,98.297" style="stroke: #A80036; stroke-width: 1.0;"/><text fill="#000000" font-family="sans-serif" font-size="13" lengthAdjust="spacingAndGlyphs" textLength="43" x="143.9759" y="142.4951">parents</text><text fill="#000000" font-family="sans-serif" font-size="13" lengthAdjust="spacingAndGlyphs" textLength="7" x="149.7747" y="164.9862">n</text><!--link Model to Data--><path d="M29.3465,108.827 C25.2092,114.905 21.6328,121.325 18.9759,128 C14.3179,139.7023 17.1053,152.8223 22.0453,164.2633 " fill="none" id="Model-Data" style="stroke: #A80036; stroke-width: 1.0;"/><polygon fill="#A80036" points="28,175.8724,27.4515,166.0388,25.718,171.4235,20.3333,169.69,28,175.8724" style="stroke: #A80036; stroke-width: 1.0;"/><line style="stroke: #A80036; stroke-width: 1.0;" x1="25.718" x2="22.0668" y1="171.4235" y2="164.3053"/><polygon fill="#FFFFFF" points="37.3217,98.275,30.5128,100.6497,30.086,107.8482,36.8949,105.4735,37.3217,98.275" style="stroke: #A80036; stroke-width: 1.0;"/><text fill="#000000" font-family="sans-serif" font-size="13" lengthAdjust="spacingAndGlyphs" textLength="25" x="19.9759" y="142.4951">data</text><text fill="#000000" font-family="sans-serif" font-size="13" lengthAdjust="spacingAndGlyphs" textLength="7" x="15.9543" y="165.1733">1</text><!--link Data to Model--><path d="M51.4349,163.4944 C56.742,148.0154 63.3622,128.7067 69.5589,110.633 " fill="none" id="Data-Model" style="stroke: #A80036; stroke-width: 1.0;"/><polygon fill="#A80036" points="73.7884,98.297,67.0852,105.5128,72.1664,103.0266,74.6526,108.1079,73.7884,98.297" style="stroke: #A80036; stroke-width: 1.0;"/><line style="stroke: #A80036; stroke-width: 1.0;" x1="72.1664" x2="69.5721" y1="103.0266" y2="110.594"/><polygon fill="#A80036" points="47.1528,175.9841,52.8825,171.6058,51.0447,164.6328,45.315,169.0111,47.1528,175.9841" style="stroke: #A80036; stroke-width: 1.0;"/><text fill="#000000" font-family="sans-serif" font-size="13" lengthAdjust="spacingAndGlyphs" textLength="41" x="64.9759" y="142.4951">lineage</text><text fill="#000000" font-family="sans-serif" font-size="13" lengthAdjust="spacingAndGlyphs" textLength="7" x="64.2772" y="119.0106">n</text><!--
@startuml

class "LineageMetaData" as Model {
 string creationAction
 string name
 string value

 
}

rectangle "DataInstance" as DataInstance #lightblue {
}

Model o- -> "n" DataInstance : parents


rectangle "Data" as Data #lightblue {
}

Model o- -> "1" Data : data




    rectangle "Data" as Data #lightgreen {
    }
    
        Data   *- -> "n" Model : "lineage"
    

@enduml

PlantUML version 1.2019.05(Sat Apr 20 09:45:36 PDT 2019)
(GPL source distribution)
Java Runtime: OpenJDK Runtime Environment
JVM: OpenJDK 64-Bit Server VM
Java Version: 12.0.1+12
Operating System: Windows 10
OS Version: 10.0
Default Encoding: Cp1252
Language: en
Country: US
--></g></svg>