<?xml version="1.0" encoding="UTF-8" standalone="no"?><svg xmlns="http://www.w3.org/2000/svg" xmlns:xlink="http://www.w3.org/1999/xlink" contentScriptType="application/ecmascript" contentStyleType="text/css" height="685px" preserveAspectRatio="none" style="width:673px;height:685px;" version="1.1" viewBox="0 0 673 685" width="673px" zoomAndPan="magnify"><defs><filter height="300%" id="f1vf2shrn0qffa" width="300%" x="-1" y="-1"><feGaussianBlur result="blurOut" stdDeviation="2.0"/><feColorMatrix in="blurOut" result="blurOut2" type="matrix" values="0 0 0 0 0 0 0 0 0 0 0 0 0 0 0 0 0 0 .4 0"/><feOffset dx="4.0" dy="4.0" in="blurOut2" result="blurOut3"/><feBlend in="SourceGraphic" in2="blurOut3" mode="normal"/></filter></defs><g><!--cluster Common Data Service--><polygon fill="#FFCC88" filter="url(#f1vf2shrn0qffa)" points="45.5,84,205.5,84,212.5,107.6094,651.5,107.6094,651.5,673,45.5,673,45.5,84" style="stroke: #000000; stroke-width: 1.5;"/><line style="stroke: #000000; stroke-width: 1.5;" x1="45.5" x2="212.5" y1="107.6094" y2="107.6094"/><text fill="#000000" font-family="sans-serif" font-size="14" font-weight="bold" lengthAdjust="spacingAndGlyphs" textLength="154" x="49.5" y="100.5332">Common Data Service</text><!--cluster bin--><polygon fill="#FFFFFF" filter="url(#f1vf2shrn0qffa)" points="185.5,128,213.5,128,220.5,151.6094,357.5,151.6094,357.5,218,185.5,218,185.5,128" style="stroke: #000000; stroke-width: 1.5;"/><line style="stroke: #000000; stroke-width: 1.5;" x1="185.5" x2="220.5" y1="151.6094" y2="151.6094"/><text fill="#000000" font-family="sans-serif" font-size="14" font-weight="bold" lengthAdjust="spacingAndGlyphs" textLength="22" x="189.5" y="144.5332">bin</text><!--cluster deploy--><polygon fill="#FFFFFF" filter="url(#f1vf2shrn0qffa)" points="69.5,324,122.5,324,129.5,347.6094,627.5,347.6094,627.5,431,69.5,431,69.5,324" style="stroke: #000000; stroke-width: 1.5;"/><line style="stroke: #000000; stroke-width: 1.5;" x1="69.5" x2="129.5" y1="347.6094" y2="347.6094"/><text fill="#000000" font-family="sans-serif" font-size="14" font-weight="bold" lengthAdjust="spacingAndGlyphs" textLength="47" x="73.5" y="340.5332">deploy</text><!--cluster images--><polygon fill="#FFFFFF" filter="url(#f1vf2shrn0qffa)" points="179.5,455,235.5,455,242.5,478.6094,577.5,478.6094,577.5,649,179.5,649,179.5,455" style="stroke: #000000; stroke-width: 1.5;"/><line style="stroke: #000000; stroke-width: 1.5;" x1="179.5" x2="242.5" y1="478.6094" y2="478.6094"/><text fill="#000000" font-family="sans-serif" font-size="14" font-weight="bold" lengthAdjust="spacingAndGlyphs" textLength="50" x="183.5" y="471.5332">images</text><!--entity REST--><rect fill="#FEFECE" filter="url(#f1vf2shrn0qffa)" height="37.6094" style="stroke: #A80036; stroke-width: 1.5;" width="69" x="237" y="262"/><rect fill="#FEFECE" height="5" style="stroke: #A80036; stroke-width: 1.5;" width="10" x="232" y="267"/><rect fill="#FEFECE" height="5" style="stroke: #A80036; stroke-width: 1.5;" width="10" x="232" y="289.6094"/><text fill="#000000" font-family="sans-serif" font-size="14" lengthAdjust="spacingAndGlyphs" textLength="49" x="247" y="286.5332">express</text><!--entity socket--><rect fill="#FEFECE" filter="url(#f1vf2shrn0qffa)" height="37.6094" style="stroke: #A80036; stroke-width: 1.5;" width="76" x="401.5" y="164"/><rect fill="#FEFECE" height="5" style="stroke: #A80036; stroke-width: 1.5;" width="10" x="396.5" y="169"/><rect fill="#FEFECE" height="5" style="stroke: #A80036; stroke-width: 1.5;" width="10" x="396.5" y="191.6094"/><text fill="#000000" font-family="sans-serif" font-size="14" lengthAdjust="spacingAndGlyphs" textLength="56" x="411.5" y="188.5332">socket.io</text><!--entity binName--><rect fill="#FEFECE" filter="url(#f1vf2shrn0qffa)" height="37.6094" style="stroke: #A80036; stroke-width: 1.5;" width="139" x="202" y="164"/><rect fill="#FEFECE" height="5" style="stroke: #A80036; stroke-width: 1.5;" width="10" x="197" y="169"/><rect fill="#FEFECE" height="5" style="stroke: #A80036; stroke-width: 1.5;" width="10" x="197" y="191.6094"/><text fill="#000000" font-family="sans-serif" font-size="14" lengthAdjust="spacingAndGlyphs" textLength="119" x="212" y="188.5332">edgemere diml cds</text><!--entity dimlcds_container--><polygon fill="#FEFECE" filter="url(#f1vf2shrn0qffa)" points="85.5,360,85.5,415.2188,235.5,415.2188,235.5,370,225.5,360,85.5,360" style="stroke: #000000; stroke-width: 1.5;"/><path d="M225.5,360 L225.5,370 L235.5,370 " fill="#FEFECE" style="stroke: #000000; stroke-width: 1.5;"/><text fill="#000000" font-family="sans-serif" font-size="14" lengthAdjust="spacingAndGlyphs" textLength="90" x="95.5" y="384.5332">node server.js</text><text fill="#000000" font-family="sans-serif" font-size="14" lengthAdjust="spacingAndGlyphs" textLength="130" x="95.5" y="402.1426">docker-compose.yml</text><!--entity web_container--><polygon fill="#FEFECE" filter="url(#f1vf2shrn0qffa)" points="472,368.5,472,406.1094,611,406.1094,611,378.5,601,368.5,472,368.5" style="stroke: #000000; stroke-width: 1.5;"/><path d="M601,368.5 L601,378.5 L611,378.5 " fill="#FEFECE" style="stroke: #000000; stroke-width: 1.5;"/><text fill="#000000" font-family="sans-serif" font-size="14" lengthAdjust="spacingAndGlyphs" textLength="119" x="482" y="393.0332">node web/server.js</text><!--entity gateway_container--><polygon fill="#FEFECE" filter="url(#f1vf2shrn0qffa)" points="270.5,368.5,270.5,406.1094,436.5,406.1094,436.5,378.5,426.5,368.5,270.5,368.5" style="stroke: #000000; stroke-width: 1.5;"/><path d="M426.5,368.5 L426.5,378.5 L436.5,378.5 " fill="#FEFECE" style="stroke: #000000; stroke-width: 1.5;"/><text fill="#000000" font-family="sans-serif" font-size="14" lengthAdjust="spacingAndGlyphs" textLength="146" x="280.5" y="393.0332">node gateway/server.js</text><!--entity dimlcdsimage--><rect fill="#FEFECE" filter="url(#f1vf2shrn0qffa)" height="33.6094" style="stroke: #000000; stroke-width: 1.5;" width="63" x="200" y="496.5"/><rect fill="#FEFECE" height="33.6094" style="stroke: #000000; stroke-width: 1.5;" width="63" x="196" y="492.5"/><text fill="#000000" font-family="sans-serif" font-size="14" lengthAdjust="spacingAndGlyphs" textLength="47" x="204" y="515.0332">dimlcds</text><!--entity ailtireswarm--><rect fill="#FEFECE" filter="url(#f1vf2shrn0qffa)" height="40.6094" style="stroke: #000000; stroke-width: 1.5;" width="108" x="195.5" y="592"/><polygon fill="#FEFECE" points="286.5,597,286.5,611,298.5,611,298.5,603,292.5,597,286.5,597" style="stroke: #000000; stroke-width: 1.5;"/><line style="stroke: #000000; stroke-width: 1.5;" x1="292.5" x2="292.5" y1="597" y2="603"/><line style="stroke: #000000; stroke-width: 1.5;" x1="298.5" x2="292.5" y1="603" y2="603"/><text fill="#000000" font-family="sans-serif" font-size="14" lengthAdjust="spacingAndGlyphs" textLength="78" x="205.5" y="619.5332">ailtire:swarm</text><!--entity diml_cds_web--><rect fill="#FEFECE" filter="url(#f1vf2shrn0qffa)" height="40.6094" style="stroke: #000000; stroke-width: 1.5;" width="118" x="443.5" y="491"/><polygon fill="#FEFECE" points="544.5,496,544.5,510,556.5,510,556.5,502,550.5,496,544.5,496" style="stroke: #000000; stroke-width: 1.5;"/><line style="stroke: #000000; stroke-width: 1.5;" x1="550.5" x2="550.5" y1="496" y2="502"/><line style="stroke: #000000; stroke-width: 1.5;" x1="556.5" x2="550.5" y1="502" y2="502"/><text fill="#000000" font-family="sans-serif" font-size="14" lengthAdjust="spacingAndGlyphs" textLength="88" x="453.5" y="518.5332">diml_cds_web</text><!--entity diml_cds_gw--><rect fill="#FEFECE" filter="url(#f1vf2shrn0qffa)" height="40.6094" style="stroke: #000000; stroke-width: 1.5;" width="110" x="298.5" y="491"/><polygon fill="#FEFECE" points="391.5,496,391.5,510,403.5,510,403.5,502,397.5,496,391.5,496" style="stroke: #000000; stroke-width: 1.5;"/><line style="stroke: #000000; stroke-width: 1.5;" x1="397.5" x2="397.5" y1="496" y2="502"/><line style="stroke: #000000; stroke-width: 1.5;" x1="403.5" x2="397.5" y1="502" y2="502"/><text fill="#000000" font-family="sans-serif" font-size="14" lengthAdjust="spacingAndGlyphs" textLength="80" x="308.5" y="518.5332">diml_cds_gw</text><!--entity CLI--><ellipse cx="271.5" cy="38" fill="#FEFECE" filter="url(#f1vf2shrn0qffa)" rx="8" ry="8" style="stroke: #A80036; stroke-width: 2.0;"/><text fill="#000000" font-family="sans-serif" font-size="14" lengthAdjust="spacingAndGlyphs" textLength="21" x="261" y="69.5332">CLI</text><!--entity Web--><ellipse cx="20.5" cy="281" fill="#FEFECE" filter="url(#f1vf2shrn0qffa)" rx="8" ry="8" style="stroke: #A80036; stroke-width: 2.0;"/><text fill="#000000" font-family="sans-serif" font-size="14" lengthAdjust="spacingAndGlyphs" textLength="29" x="6" y="312.5332">Web</text><!--entity WebSocket--><ellipse cx="439.5" cy="38" fill="#FEFECE" filter="url(#f1vf2shrn0qffa)" rx="8" ry="8" style="stroke: #A80036; stroke-width: 2.0;"/><text fill="#000000" font-family="sans-serif" font-size="14" lengthAdjust="spacingAndGlyphs" textLength="72" x="403.5" y="69.5332">WebSocket</text><!--link binName to REST--><path d="M271.5,202.057 C271.5,217.513 271.5,239.865 271.5,256.673 " fill="none" id="binName-REST" style="stroke: #A80036; stroke-width: 1.0;"/><polygon fill="#A80036" points="271.5,261.698,275.5,252.698,271.5,256.698,267.5,252.698,271.5,261.698" style="stroke: #A80036; stroke-width: 1.0;"/><!--link REST to dimlcds_container--><path d="M252.165,300.203 C235.744,315.662 211.841,338.166 192.561,356.316 " fill="none" id="REST-dimlcds_container" style="stroke: #A80036; stroke-width: 1.0;"/><polygon fill="#A80036" points="188.77,359.885,198.0647,356.6278,192.4104,356.4575,192.5807,350.8032,188.77,359.885" style="stroke: #A80036; stroke-width: 1.0;"/><!--link REST to web_container--><path d="M306.079,283.365 C344.06,285.992 406.087,293.659 454.5,316 C480.101,327.814 504.617,348.869 521.062,364.903 " fill="none" id="REST-web_container" style="stroke: #A80036; stroke-width: 1.0;"/><polygon fill="#A80036" points="524.651,368.449,521.0598,359.2782,521.0941,364.935,515.4374,364.9692,524.651,368.449" style="stroke: #A80036; stroke-width: 1.0;"/><!--link socket to web_container--><path d="M448.732,202.328 C467.393,239.375 509.559,323.087 529.983,363.635 " fill="none" id="socket-web_container" style="stroke: #A80036; stroke-width: 1.0;"/><polygon fill="#A80036" points="532.363,368.36,531.8881,358.5226,530.1144,363.8942,524.7428,362.1204,532.363,368.36" style="stroke: #A80036; stroke-width: 1.0;"/><!--link REST to gateway_container--><path d="M285.783,300.203 C299.69,317.925 320.861,344.905 335.823,363.972 " fill="none" id="REST-gateway_container" style="stroke: #A80036; stroke-width: 1.0;"/><polygon fill="#A80036" points="339.105,368.155,336.6965,358.6052,336.0186,364.2213,330.4025,363.5434,339.105,368.155" style="stroke: #A80036; stroke-width: 1.0;"/><!--link socket to gateway_container--><path d="M431.716,202.328 C415.983,239.375 380.431,323.087 363.211,363.635 " fill="none" id="socket-gateway_container" style="stroke: #A80036; stroke-width: 1.0;"/><polygon fill="#A80036" points="361.204,368.36,368.4057,361.6417,363.1598,363.7584,361.0431,358.5125,361.204,368.36" style="stroke: #A80036; stroke-width: 1.0;"/><!--link dimlcdsimage to ailtireswarm--><path d="M237.156,550.398 C240.005,564.499 243.123,579.932 245.512,591.7594 " fill="none" id="dimlcdsimage-ailtireswarm" style="stroke: #A80036; stroke-width: 1.0;"/><polygon fill="none" points="230.267,551.648,233.168,530.658,243.99,548.876,230.267,551.648" style="stroke: #A80036; stroke-width: 1.0;"/><!--link dimlcds_container to dimlcdsimage--><path d="M175.642,415.273 C187.961,437.054 205.147,467.441 216.766,487.985 " fill="none" id="dimlcds_container-dimlcdsimage" style="stroke: #A80036; stroke-width: 1.0;"/><polygon fill="#A80036" points="219.302,492.469,218.3538,482.6659,216.8409,488.1167,211.3901,486.6037,219.302,492.469" style="stroke: #A80036; stroke-width: 1.0;"/><!--link web_container to diml_cds_web--><path d="M535.745,406.502 C529.02,427.541 517.855,462.465 510.341,485.972 " fill="none" id="web_container-diml_cds_web" style="stroke: #A80036; stroke-width: 1.0;"/><polygon fill="#A80036" points="508.796,490.805,515.3469,483.4507,510.3187,486.0425,507.7269,481.0143,508.796,490.805" style="stroke: #A80036; stroke-width: 1.0;"/><!--link gateway_container to diml_cds_gw--><path d="M353.5,406.502 C353.5,427.453 353.5,462.173 353.5,485.676 " fill="none" id="gateway_container-diml_cds_gw" style="stroke: #A80036; stroke-width: 1.0;"/><polygon fill="#A80036" points="353.5,490.805,357.5,481.805,353.5,485.805,349.5,481.805,353.5,490.805" style="stroke: #A80036; stroke-width: 1.0;"/><!--link CLI to binName--><path d="M271.5,47.098 C271.5,69.432 271.5,132.318 271.5,163.705 " fill="none" id="CLI-binName" style="stroke: #A80036; stroke-width: 1.0;"/><text fill="#000000" font-family="sans-serif" font-size="13" lengthAdjust="spacingAndGlyphs" textLength="110" x="144.7563" y="44.9673">edgemere diml cds</text><!--link Web to REST--><path d="M29.8145,281 C98.7326,281 167.651,281 236.569,281 " fill="none" id="Web-REST" style="stroke: #A80036; stroke-width: 1.0;"/><text fill="#000000" font-family="sans-serif" font-size="13" lengthAdjust="spacingAndGlyphs" textLength="114" x="37.4821" y="277.5904">/edgemere/diml/cds</text><!--link WebSocket to socket--><path d="M439.5,47.098 C439.5,69.432 439.5,132.318 439.5,163.705 " fill="none" id="WebSocket-socket" style="stroke: #A80036; stroke-width: 1.0;"/><text fill="#000000" font-family="sans-serif" font-size="13" lengthAdjust="spacingAndGlyphs" textLength="114" x="308.7563" y="44.9673">.edgemere.diml.cds</text><!--
@startuml
  interface CLI
  interface Web
  interface WebSocket
package "Common Data Service" #ffcc88 {
  component express as REST
  component socket.io as socket
  folder bin #ffffff {
    component " edgemere diml cds" as binName
  }
  binName - -> REST

  folder deploy #ffffff {
      file "node server.js\ndocker-compose.yml" as dimlcds_container
      REST - -> dimlcds_container

  
    file "node web/server.js" as web_container
    REST - -> web_container
    socket - - -> web_container
  
    file "node gateway/server.js" as gateway_container
    REST - -> gateway_container
    socket - - -> gateway_container
  
  }
  folder images #ffffff {
    collections "dimlcds" as dimlcdsimage
    artifact "ailtire:swarm" as ailtireswarm
    dimlcdsimage <|- - ailtireswarm
    dimlcds_container - -> dimlcdsimage

  
      artifact diml_cds_web
      web_container - -> diml_cds_web
    
      artifact diml_cds_gw
      gateway_container - -> diml_cds_gw
    
  }
}
CLI " edgemere diml cds" - - binName
Web "/edgemere/diml/cds" - REST
WebSocket ".edgemere.diml.cds" - - socket

@enduml

PlantUML version 1.2019.05(Sat Apr 20 09:45:36 PDT 2019)
(GPL source distribution)
Java Runtime: OpenJDK Runtime Environment
JVM: OpenJDK 64-Bit Server VM
Java Version: 12.0.1+12
Operating System: Windows 10
OS Version: 10.0
Default Encoding: Cp1252
Language: en
Country: US
--></g></svg>