<?xml version="1.0" encoding="UTF-8" standalone="no"?><svg xmlns="http://www.w3.org/2000/svg" xmlns:xlink="http://www.w3.org/1999/xlink" contentScriptType="application/ecmascript" contentStyleType="text/css" height="644px" preserveAspectRatio="none" style="width:190px;height:644px;" version="1.1" viewBox="0 0 190 644" width="190px" zoomAndPan="magnify"><defs><filter height="300%" id="ftd7extlu7sts" width="300%" x="-1" y="-1"><feGaussianBlur result="blurOut" stdDeviation="2.0"/><feColorMatrix in="blurOut" result="blurOut2" type="matrix" values="0 0 0 0 0 0 0 0 0 0 0 0 0 0 0 0 0 0 .4 0"/><feOffset dx="4.0" dy="4.0" in="blurOut2" result="blurOut3"/><feBlend in="SourceGraphic" in2="blurOut3" mode="normal"/></filter></defs><g><rect fill="#ADD8E6" filter="url(#ftd7extlu7sts)" height="625.6094" rx="12.5" ry="12.5" style="stroke: #A80036; stroke-width: 1.5;" width="172" x="6" y="8"/><rect fill="#FFFFFF" height="592" rx="12.5" ry="12.5" style="stroke: #FFFFFF; stroke-width: 1.0;" width="166" x="9" y="38.6094"/><line style="stroke: #A80036; stroke-width: 1.5;" x1="6" x2="178" y1="35.6094" y2="35.6094"/><text fill="#000000" font-family="sans-serif" font-size="14" lengthAdjust="spacingAndGlyphs" textLength="122" x="31" y="27.5332">ApplicationInstance</text><rect fill="#ADD8E6" filter="url(#ftd7extlu7sts)" height="50" rx="12.5" ry="12.5" style="stroke: #A80036; stroke-width: 1.5;" width="50" x="53" y="48.6094"/><line style="stroke: #A80036; stroke-width: 1.5;" x1="53" x2="103" y1="76.2188" y2="76.2188"/><text fill="#000000" font-family="sans-serif" font-size="14" lengthAdjust="spacingAndGlyphs" textLength="18" x="69" y="68.1426">Init</text><rect fill="#ADD8E6" filter="url(#ftd7extlu7sts)" height="50" rx="12.5" ry="12.5" style="stroke: #A80036; stroke-width: 1.5;" width="80" x="38" y="152.6094"/><line style="stroke: #A80036; stroke-width: 1.5;" x1="38" x2="118" y1="180.2188" y2="180.2188"/><text fill="#000000" font-family="sans-serif" font-size="14" lengthAdjust="spacingAndGlyphs" textLength="60" x="48" y="172.1426">Initializing</text><rect fill="#ADD8E6" filter="url(#ftd7extlu7sts)" height="50" rx="12.5" ry="12.5" style="stroke: #A80036; stroke-width: 1.5;" width="73" x="41.5" y="256.6094"/><line style="stroke: #A80036; stroke-width: 1.5;" x1="41.5" x2="114.5" y1="284.2188" y2="284.2188"/><text fill="#000000" font-family="sans-serif" font-size="14" lengthAdjust="spacingAndGlyphs" textLength="53" x="51.5" y="276.1426">Running</text><rect fill="#ADD8E6" filter="url(#ftd7extlu7sts)" height="50" rx="12.5" ry="12.5" style="stroke: #A80036; stroke-width: 1.5;" width="76" x="40" y="360.6094"/><line style="stroke: #A80036; stroke-width: 1.5;" x1="40" x2="116" y1="388.2188" y2="388.2188"/><text fill="#000000" font-family="sans-serif" font-size="14" lengthAdjust="spacingAndGlyphs" textLength="56" x="50" y="380.1426">Stopping</text><rect fill="#ADD8E6" filter="url(#ftd7extlu7sts)" height="50" rx="12.5" ry="12.5" style="stroke: #A80036; stroke-width: 1.5;" width="73" x="41.5" y="464.6094"/><line style="stroke: #A80036; stroke-width: 1.5;" x1="41.5" x2="114.5" y1="492.2188" y2="492.2188"/><text fill="#000000" font-family="sans-serif" font-size="14" lengthAdjust="spacingAndGlyphs" textLength="53" x="51.5" y="484.1426">Stopped</text><rect fill="#ADD8E6" filter="url(#ftd7extlu7sts)" height="50" rx="12.5" ry="12.5" style="stroke: #A80036; stroke-width: 1.5;" width="50" x="17" y="568.6094"/><line style="stroke: #A80036; stroke-width: 1.5;" x1="17" x2="67" y1="596.2188" y2="596.2188"/><text fill="#000000" font-family="sans-serif" font-size="14" lengthAdjust="spacingAndGlyphs" textLength="22" x="31" y="588.1426">Exit</text><rect fill="#ADD8E6" filter="url(#ftd7extlu7sts)" height="50" rx="12.5" ry="12.5" style="stroke: #A80036; stroke-width: 1.5;" width="59" x="85.5" y="568.6094"/><line style="stroke: #A80036; stroke-width: 1.5;" x1="85.5" x2="144.5" y1="596.2188" y2="596.2188"/><text fill="#000000" font-family="sans-serif" font-size="14" lengthAdjust="spacingAndGlyphs" textLength="39" x="95.5" y="588.1426">Failed</text><!--link Init to Initializing--><path d="M78,98.7824 C78,113.2844 78,131.8324 78,147.1834 " fill="none" id="Init-Initializing" style="stroke: #A80036; stroke-width: 1.0;"/><polygon fill="#A80036" points="78,152.2564,82,143.2564,78,147.2564,74,143.2564,78,152.2564" style="stroke: #A80036; stroke-width: 1.0;"/><text fill="#000000" font-family="sans-serif" font-size="13" lengthAdjust="spacingAndGlyphs" textLength="36" x="79" y="131.1045">create</text><!--link Initializing to Running--><path d="M78,202.7824 C78,217.2844 78,235.8324 78,251.1834 " fill="none" id="Initializing-Running" style="stroke: #A80036; stroke-width: 1.0;"/><polygon fill="#A80036" points="78,256.2564,82,247.2564,78,251.2564,74,247.2564,78,256.2564" style="stroke: #A80036; stroke-width: 1.0;"/><text fill="#000000" font-family="sans-serif" font-size="13" lengthAdjust="spacingAndGlyphs" textLength="61" x="79" y="235.1045">provisoned</text><!--link Running to Stopping--><path d="M78,306.7824 C78,321.2844 78,339.8324 78,355.1834 " fill="none" id="Running-Stopping" style="stroke: #A80036; stroke-width: 1.0;"/><polygon fill="#A80036" points="78,360.2564,82,351.2564,78,355.2564,74,351.2564,78,360.2564" style="stroke: #A80036; stroke-width: 1.0;"/><text fill="#000000" font-family="sans-serif" font-size="13" lengthAdjust="spacingAndGlyphs" textLength="16" x="79" y="339.1045">kill</text><!--link Stopping to Stopped--><path d="M78,410.7824 C78,425.2844 78,443.8324 78,459.1834 " fill="none" id="Stopping-Stopped" style="stroke: #A80036; stroke-width: 1.0;"/><polygon fill="#A80036" points="78,464.2564,82,455.2564,78,459.2564,74,455.2564,78,464.2564" style="stroke: #A80036; stroke-width: 1.0;"/><text fill="#000000" font-family="sans-serif" font-size="13" lengthAdjust="spacingAndGlyphs" textLength="46" x="79" y="443.1045">stopped</text><!--link Stopped to Exit--><path d="M69.4685,514.7824 C64.35,529.2844 57.8035,547.8327 52.3855,563.1839 " fill="none" id="Stopped-Exit" style="stroke: #A80036; stroke-width: 1.0;"/><polygon fill="#A80036" points="50.595,568.2569,57.3626,561.1015,52.2593,563.542,49.8187,558.4387,50.595,568.2569" style="stroke: #A80036; stroke-width: 1.0;"/><text fill="#000000" font-family="sans-serif" font-size="13" lengthAdjust="spacingAndGlyphs" textLength="21" x="64" y="547.1045">exit</text><!--link Stopped to Failed--><path d="M86.7685,514.7824 C92.0292,529.2844 98.7575,547.8327 104.326,563.1839 " fill="none" id="Stopped-Failed" style="stroke: #A80036; stroke-width: 1.0;"/><polygon fill="#A80036" points="106.1662,568.2569,106.8575,558.4323,104.4612,563.5565,99.337,561.1603,106.1662,568.2569" style="stroke: #A80036; stroke-width: 1.0;"/><text fill="#000000" font-family="sans-serif" font-size="13" lengthAdjust="spacingAndGlyphs" textLength="30" x="100" y="547.1045">failed</text><!--
@startuml



state ApplicationInstance #lightblue {

    state Init #lightblue {
    }

    state Initializing #lightblue {
    }

    state Running #lightblue {
    }

    state Stopping #lightblue {
    }

    state Stopped #lightblue {
    }

    state Exit #lightblue {
    }

    state Failed #lightblue {
    }

}


Init - -> Initializing : create

Initializing - -> Running : provisoned

Running - -> Stopping : kill

Stopping - -> Stopped : stopped

Stopped - -> Exit : exit

Stopped - -> Failed : failed




@enduml

PlantUML version 1.2019.05(Sat Apr 20 09:45:36 PDT 2019)
(GPL source distribution)
Java Runtime: OpenJDK Runtime Environment
JVM: OpenJDK 64-Bit Server VM
Java Version: 12.0.1+12
Operating System: Windows 10
OS Version: 10.0
Default Encoding: Cp1252
Language: en
Country: US
--></g></svg>