<?xml version="1.0" encoding="UTF-8" standalone="no"?><svg xmlns="http://www.w3.org/2000/svg" xmlns:xlink="http://www.w3.org/1999/xlink" contentScriptType="application/ecmascript" contentStyleType="text/css" height="463px" preserveAspectRatio="none" style="width:430px;height:463px;" version="1.1" viewBox="0 0 430 463" width="430px" zoomAndPan="magnify"><defs><filter height="300%" id="fv2j01iinecsg" width="300%" x="-1" y="-1"><feGaussianBlur result="blurOut" stdDeviation="2.0"/><feColorMatrix in="blurOut" result="blurOut2" type="matrix" values="0 0 0 0 0 0 0 0 0 0 0 0 0 0 0 0 0 0 .4 0"/><feOffset dx="4.0" dy="4.0" in="blurOut2" result="blurOut3"/><feBlend in="SourceGraphic" in2="blurOut3" mode="normal"/></filter></defs><g><!--cluster Application Management Layer--><rect fill="#ADD8E6" filter="url(#fv2j01iinecsg)" height="229" style="stroke: #000000; stroke-width: 1.5;" width="231" x="188" y="191.5"/><text fill="#000000" font-family="sans-serif" font-size="14" font-weight="bold" lengthAdjust="spacingAndGlyphs" textLength="215" x="196" y="208.0332">Application Management Layer</text><ellipse cx="303.6711" cy="244.4342" fill="#FEFECE" filter="url(#fv2j01iinecsg)" rx="72.6711" ry="16.9342" style="stroke: #A80036; stroke-width: 1.5;"/><text fill="#000000" font-family="sans-serif" font-size="14" lengthAdjust="spacingAndGlyphs" textLength="108" x="249.6711" y="249.7389">ManageAIModels</text><ellipse cx="303.2678" cy="315.4536" fill="#FEFECE" filter="url(#fv2j01iinecsg)" rx="80.2678" ry="18.4536" style="stroke: #A80036; stroke-width: 1.5;"/><text fill="#000000" font-family="sans-serif" font-size="14" lengthAdjust="spacingAndGlyphs" textLength="127" x="239.7678" y="320.7582">ManageApplications</text><ellipse cx="303.6143" cy="386.7229" fill="#FEFECE" filter="url(#fv2j01iinecsg)" rx="76.6143" ry="17.7229" style="stroke: #A80036; stroke-width: 1.5;"/><text fill="#000000" font-family="sans-serif" font-size="14" lengthAdjust="spacingAndGlyphs" textLength="118" x="244.6143" y="392.0275">ManageWorkloads</text><!--entity DataScientist--><ellipse cx="75" cy="18" fill="#FEFECE" filter="url(#fv2j01iinecsg)" rx="8" ry="8" style="stroke: #A80036; stroke-width: 2.0;"/><path d="M75,26 L75,53 M62,34 L88,34 M75,53 L62,68 M75,53 L88,68 " fill="none" filter="url(#fv2j01iinecsg)" style="stroke: #A80036; stroke-width: 2.0;"/><text fill="#000000" font-family="sans-serif" font-size="14" lengthAdjust="spacingAndGlyphs" textLength="87" x="31.5" y="89.5332">Data Scientist</text><!--entity DevOpsEngineer--><ellipse cx="75" cy="378" fill="#FEFECE" filter="url(#fv2j01iinecsg)" rx="8" ry="8" style="stroke: #A80036; stroke-width: 2.0;"/><path d="M75,386 L75,413 M62,394 L88,394 M75,413 L62,428 M75,413 L88,428 " fill="none" filter="url(#fv2j01iinecsg)" style="stroke: #A80036; stroke-width: 2.0;"/><text fill="#000000" font-family="sans-serif" font-size="14" lengthAdjust="spacingAndGlyphs" textLength="112" x="19" y="449.5332">DevOps Engineer</text><!--entity ApplicationDeveloper--><ellipse cx="75" cy="258" fill="#FEFECE" filter="url(#fv2j01iinecsg)" rx="8" ry="8" style="stroke: #A80036; stroke-width: 2.0;"/><path d="M75,266 L75,293 M62,274 L88,274 M75,293 L62,308 M75,293 L88,308 " fill="none" filter="url(#fv2j01iinecsg)" style="stroke: #A80036; stroke-width: 2.0;"/><text fill="#000000" font-family="sans-serif" font-size="14" lengthAdjust="spacingAndGlyphs" textLength="138" x="6" y="329.5332">Application Developer</text><!--entity DataEngineer--><ellipse cx="75" cy="138" fill="#FEFECE" filter="url(#fv2j01iinecsg)" rx="8" ry="8" style="stroke: #A80036; stroke-width: 2.0;"/><path d="M75,146 L75,173 M62,154 L88,154 M75,173 L62,188 M75,173 L88,188 " fill="none" filter="url(#fv2j01iinecsg)" style="stroke: #A80036; stroke-width: 2.0;"/><text fill="#000000" font-family="sans-serif" font-size="14" lengthAdjust="spacingAndGlyphs" textLength="87" x="31.5" y="209.5332">DataEngineer</text><!--link DataScientist to ManageAIModels--><path d="M118.603,86.99 C166.205,127.762 241.534,192.282 279.3,224.629 " fill="none" id="DataScientist-ManageAIModels" style="stroke: #A80036; stroke-width: 1.0;"/><polygon fill="#A80036" points="283.276,228.034,279.0417,219.1418,279.4782,224.7818,273.8382,225.2183,283.276,228.034" style="stroke: #A80036; stroke-width: 1.0;"/><!--link DevOpsEngineer to ManageAIModels--><path d="M128.565,367.8741 C134.094,362.3218 139.375,356.4769 144,350.5 C165.651,322.518 152.711,302.018 180,279.5 C195.204,266.954 214.668,258.901 233.584,253.734 " fill="none" id="DevOpsEngineer-ManageAIModels" style="stroke: #A80036; stroke-width: 1.0;"/><polygon fill="#A80036" points="238.901,252.352,229.184,250.7457,234.0619,253.6103,231.1973,258.4883,238.901,252.352" style="stroke: #A80036; stroke-width: 1.0;"/><!--link ApplicationDeveloper to ManageAIModels--><path d="M144.265,276.636 C175.664,270.259 212.571,262.764 242.841,256.616 " fill="none" id="ApplicationDeveloper-ManageAIModels" style="stroke: #A80036; stroke-width: 1.0;"/><polygon fill="#A80036" points="248.025,255.563,238.4087,253.4353,243.1251,256.5587,240.0018,261.2751,248.025,255.563" style="stroke: #A80036; stroke-width: 1.0;"/><!--link DataEngineer to ManageAIModels--><path d="M118.603,184.419 C157.639,197.172 215.32,216.017 255.642,229.191 " fill="none" id="DataEngineer-ManageAIModels" style="stroke: #A80036; stroke-width: 1.0;"/><polygon fill="#A80036" points="260.471,230.769,253.1583,224.1717,255.7182,229.2162,250.6738,231.7761,260.471,230.769" style="stroke: #A80036; stroke-width: 1.0;"/><!--link DevOpsEngineer to ManageApplications--><path d="M131.201,376.0654 C146.632,367.308 163.659,358.4269 180,351.5 C199.755,343.126 222.085,335.938 242.217,330.236 " fill="none" id="DevOpsEngineer-ManageApplications" style="stroke: #A80036; stroke-width: 1.0;"/><polygon fill="#A80036" points="247.286,328.818,237.541,327.3912,242.471,330.1654,239.6968,335.0953,247.286,328.818" style="stroke: #A80036; stroke-width: 1.0;"/><!--link ApplicationDeveloper to ManageApplications--><path d="M144.265,298.035 C169.787,300.852 198.949,304.07 225.227,306.971 " fill="none" id="ApplicationDeveloper-ManageApplications" style="stroke: #A80036; stroke-width: 1.0;"/><polygon fill="#A80036" points="230.442,307.547,221.9352,302.5838,225.4722,306.9984,221.0575,310.5355,230.442,307.547" style="stroke: #A80036; stroke-width: 1.0;"/><!--link ApplicationDeveloper to ManageWorkloads--><path d="M142.967,333.074 C155.026,339.781 167.684,346.229 180,351.5 C200.237,360.1608 223.253,367.3774 243.829,372.9636 " fill="none" id="ApplicationDeveloper-ManageWorkloads" style="stroke: #A80036; stroke-width: 1.0;"/><polygon fill="#A80036" points="248.728,374.2756,241.0684,368.0844,243.898,372.9827,238.9998,375.8124,248.728,374.2756" style="stroke: #A80036; stroke-width: 1.0;"/><!--link DevOpsEngineer to ManageWorkloads--><path d="M131.119,404.6596 C160.453,401.5514 196.926,397.6867 228.675,394.3225 " fill="none" id="DevOpsEngineer-ManageWorkloads" style="stroke: #A80036; stroke-width: 1.0;"/><polygon fill="#A80036" points="233.728,393.7871,224.3564,390.7582,228.7559,394.3142,225.1999,398.7137,233.728,393.7871" style="stroke: #A80036; stroke-width: 1.0;"/><!--
@startuml

left to right direction
Actor "Data Scientist" as DataScientist
Actor "DevOps Engineer" as DevOpsEngineer
Actor "ApplicationDeveloper" as ApplicationDeveloper
Actor "DataEngineer" as DataEngineer
Actor "DevOps Engineer" as DevOpsEngineer
Actor "Application Developer" as ApplicationDeveloper
Actor "Application Developer" as ApplicationDeveloper
Actor "DevOps Engineer" as DevOpsEngineer


rectangle "Application Management Layer" #lightblue {
usecase "ManageAIModels" as ManageAIModels
    DataScientist - -> ManageAIModels
    DevOpsEngineer - -> ManageAIModels
    ApplicationDeveloper - -> ManageAIModels
    DataEngineer - -> ManageAIModels
    usecase "ManageApplications" as ManageApplications
    DevOpsEngineer - -> ManageApplications
    ApplicationDeveloper - -> ManageApplications
    usecase "ManageWorkloads" as ManageWorkloads
    ApplicationDeveloper - -> ManageWorkloads
    DevOpsEngineer - -> ManageWorkloads
    }


@enduml

PlantUML version 1.2019.05(Sat Apr 20 09:45:36 PDT 2019)
(GPL source distribution)
Java Runtime: OpenJDK Runtime Environment
JVM: OpenJDK 64-Bit Server VM
Java Version: 12.0.1+12
Operating System: Windows 10
OS Version: 10.0
Default Encoding: Cp1252
Language: en
Country: US
--></g></svg>