<?xml version="1.0" encoding="UTF-8" standalone="no"?><svg xmlns="http://www.w3.org/2000/svg" xmlns:xlink="http://www.w3.org/1999/xlink" contentScriptType="application/ecmascript" contentStyleType="text/css" height="196px" preserveAspectRatio="none" style="width:111px;height:196px;" version="1.1" viewBox="0 0 111 196" width="111px" zoomAndPan="magnify"><defs><filter height="300%" id="f1rbfzan319cym" width="300%" x="-1" y="-1"><feGaussianBlur result="blurOut" stdDeviation="2.0"/><feColorMatrix in="blurOut" result="blurOut2" type="matrix" values="0 0 0 0 0 0 0 0 0 0 0 0 0 0 0 0 0 0 .4 0"/><feOffset dx="4.0" dy="4.0" in="blurOut2" result="blurOut3"/><feBlend in="SourceGraphic" in2="blurOut3" mode="normal"/></filter></defs><g><!--entity ModelName--><rect fill="#ADD8E6" filter="url(#f1rbfzan319cym)" height="37.6094" style="stroke: #000000; stroke-width: 1.5;" width="94" x="6" y="148"/><text fill="#000000" font-family="sans-serif" font-size="14" lengthAdjust="spacingAndGlyphs" textLength="74" x="16" y="172.5332">ModelName</text><!--class Model--><rect fill="#FEFECE" filter="url(#f1rbfzan319cym)" height="61.8359" id="Model" style="stroke: #A80036; stroke-width: 1.5;" width="64" x="21" y="8"/><ellipse cx="38.25" cy="24" fill="#ADD1B2" rx="11" ry="11" style="stroke: #A80036; stroke-width: 1.0;"/><path d="M41.0156,19.875 Q41.1719,19.6563 41.3594,19.5469 Q41.5469,19.4375 41.7656,19.4375 Q42.1406,19.4375 42.375,19.7031 Q42.6094,19.9531 42.6094,20.5625 L42.6094,22.0156 Q42.6094,22.625 42.375,22.8906 Q42.1406,23.1563 41.7656,23.1563 Q41.4219,23.1563 41.2188,22.9531 Q41.0156,22.7656 40.9063,22.25 Q40.8594,21.8906 40.6719,21.7031 Q40.3438,21.3281 39.7344,21.1094 Q39.125,20.8906 38.5,20.8906 Q37.7344,20.8906 37.0938,21.2188 Q36.4688,21.5469 35.9688,22.2969 Q35.4844,23.0469 35.4844,24.0781 L35.4844,25.1719 Q35.4844,26.4063 36.375,27.2344 Q37.2656,28.0469 38.8594,28.0469 Q39.7969,28.0469 40.4531,27.7969 Q40.8438,27.6406 41.2656,27.2031 Q41.5313,26.9375 41.6719,26.8594 Q41.8281,26.7813 42.0313,26.7813 Q42.3594,26.7813 42.6094,27.0469 Q42.875,27.2969 42.875,27.6406 Q42.875,27.9844 42.5313,28.3906 Q42.0313,28.9688 41.2344,29.2969 Q40.1563,29.75 38.8594,29.75 Q37.3438,29.75 36.1406,29.125 Q35.1563,28.625 34.4688,27.5625 Q33.7813,26.4844 33.7813,25.2031 L33.7813,24.0469 Q33.7813,22.7188 34.3906,21.5781 Q35.0156,20.4219 36.1094,19.8125 Q37.2031,19.1875 38.4375,19.1875 Q39.1719,19.1875 39.8125,19.3594 Q40.4688,19.5156 41.0156,19.875 Z "/><text fill="#000000" font-family="sans-serif" font-size="12" lengthAdjust="spacingAndGlyphs" textLength="27" x="52.75" y="28.9102">User</text><line style="stroke: #A80036; stroke-width: 1.5;" x1="22" x2="84" y1="40" y2="40"/><text fill="#000000" font-family="sans-serif" font-size="11" lengthAdjust="spacingAndGlyphs" textLength="52" x="27" y="55.4189">string attr1</text><line style="stroke: #A80036; stroke-width: 1.5;" x1="22" x2="84" y1="61.8359" y2="61.8359"/><!--link Model to ModelName--><path d="M53,83.325 C53,100.1922 53,119.1503 53,134.6534 " fill="none" id="Model-ModelName" style="stroke: #A80036; stroke-width: 1.0;"/><polygon fill="#A80036" points="53,147.7606,57,138.7606,53,142.7606,49,138.7606,53,147.7606" style="stroke: #A80036; stroke-width: 1.0;"/><line style="stroke: #A80036; stroke-width: 1.0;" x1="53" x2="53.0001" y1="142.7606" y2="134.7606"/><polygon fill="#FFFFFF" points="53,70.18,49,76.18,53,82.18,57,76.18,53,70.18" style="stroke: #A80036; stroke-width: 1.0;"/><text fill="#000000" font-family="sans-serif" font-size="13" lengthAdjust="spacingAndGlyphs" textLength="42" x="54" y="114.4951">assoc1</text><text fill="#000000" font-family="sans-serif" font-size="13" lengthAdjust="spacingAndGlyphs" textLength="7" x="44.9281" y="137.0273">1</text><!--
@startuml

class "User" as Model {
 string attr1

 
}

rectangle "ModelName" as ModelName #lightblue {
}

Model o- -> "1" ModelName : assoc1





@enduml

PlantUML version 1.2019.05(Sat Apr 20 09:45:36 PDT 2019)
(GPL source distribution)
Java Runtime: OpenJDK Runtime Environment
JVM: OpenJDK 64-Bit Server VM
Java Version: 12.0.1+12
Operating System: Windows 10
OS Version: 10.0
Default Encoding: Cp1252
Language: en
Country: US
--></g></svg>