<?xml version="1.0" encoding="UTF-8" standalone="no"?><svg xmlns="http://www.w3.org/2000/svg" xmlns:xlink="http://www.w3.org/1999/xlink" contentScriptType="application/ecmascript" contentStyleType="text/css" height="298px" preserveAspectRatio="none" style="width:844px;height:298px;" version="1.1" viewBox="0 0 844 298" width="844px" zoomAndPan="magnify"><defs><filter height="300%" id="fcb41hguhnpry" width="300%" x="-1" y="-1"><feGaussianBlur result="blurOut" stdDeviation="2.0"/><feColorMatrix in="blurOut" result="blurOut2" type="matrix" values="0 0 0 0 0 0 0 0 0 0 0 0 0 0 0 0 0 0 .4 0"/><feOffset dx="4.0" dy="4.0" in="blurOut2" result="blurOut3"/><feBlend in="SourceGraphic" in2="blurOut3" mode="normal"/></filter></defs><g><!--entity Image--><rect fill="#ADD8E6" filter="url(#fcb41hguhnpry)" height="37.6094" style="stroke: #000000; stroke-width: 1.5;" width="58" x="519.307" y="250"/><text fill="#000000" font-family="sans-serif" font-size="14" lengthAdjust="spacingAndGlyphs" textLength="38" x="529.307" y="274.5332">Image</text><!--entity DataInstance--><rect fill="#ADD8E6" filter="url(#fcb41hguhnpry)" height="37.6094" style="stroke: #000000; stroke-width: 1.5;" width="103" x="612.807" y="250"/><text fill="#000000" font-family="sans-serif" font-size="14" lengthAdjust="spacingAndGlyphs" textLength="83" x="622.807" y="274.5332">DataInstance</text><!--entity Resource--><rect fill="#90EE90" filter="url(#fcb41hguhnpry)" height="37.6094" style="stroke: #000000; stroke-width: 1.5;" width="81" x="42.8065" y="250"/><text fill="#000000" font-family="sans-serif" font-size="14" lengthAdjust="spacingAndGlyphs" textLength="61" x="52.8065" y="274.5332">Resource</text><!--entity Servicelet--><rect fill="#90EE90" filter="url(#fcb41hguhnpry)" height="37.6094" style="stroke: #000000; stroke-width: 1.5;" width="82" x="199.307" y="250"/><text fill="#000000" font-family="sans-serif" font-size="14" lengthAdjust="spacingAndGlyphs" textLength="62" x="209.307" y="274.5332">Servicelet</text><!--entity StackInstance--><rect fill="#90EE90" filter="url(#fcb41hguhnpry)" height="37.6094" style="stroke: #000000; stroke-width: 1.5;" width="108" x="363.307" y="250"/><text fill="#000000" font-family="sans-serif" font-size="14" lengthAdjust="spacingAndGlyphs" textLength="88" x="373.307" y="274.5332">StackInstance</text><!--entity RunScript--><rect fill="#ADD8E6" filter="url(#fcb41hguhnpry)" height="37.6094" style="stroke: #000000; stroke-width: 1.5;" width="82" x="751.307" y="250"/><text fill="#000000" font-family="sans-serif" font-size="14" lengthAdjust="spacingAndGlyphs" textLength="62" x="761.307" y="274.5332">RunScript</text><!--entity Stacklet--><rect fill="#90EE90" filter="url(#fcb41hguhnpry)" height="37.6094" style="stroke: #000000; stroke-width: 1.5;" width="70" x="42.3065" y="8"/><text fill="#000000" font-family="sans-serif" font-size="14" lengthAdjust="spacingAndGlyphs" textLength="50" x="52.3065" y="32.5332">Stacklet</text><!--entity AcceleratorResource--><rect fill="#90EE90" filter="url(#fcb41hguhnpry)" height="37.6094" style="stroke: #000000; stroke-width: 1.5;" width="153" x="147.807" y="8"/><text fill="#000000" font-family="sans-serif" font-size="14" lengthAdjust="spacingAndGlyphs" textLength="133" x="157.807" y="32.5332">AcceleratorResource</text><!--entity ComputeResource--><rect fill="#90EE90" filter="url(#fcb41hguhnpry)" height="37.6094" style="stroke: #000000; stroke-width: 1.5;" width="138" x="336.307" y="8"/><text fill="#000000" font-family="sans-serif" font-size="14" lengthAdjust="spacingAndGlyphs" textLength="118" x="346.307" y="32.5332">ComputeResource</text><!--entity NetworkResource--><rect fill="#90EE90" filter="url(#fcb41hguhnpry)" height="37.6094" style="stroke: #000000; stroke-width: 1.5;" width="131" x="509.807" y="8"/><text fill="#000000" font-family="sans-serif" font-size="14" lengthAdjust="spacingAndGlyphs" textLength="111" x="519.807" y="32.5332">NetworkResource</text><!--entity StorageResource--><rect fill="#90EE90" filter="url(#fcb41hguhnpry)" height="37.6094" style="stroke: #000000; stroke-width: 1.5;" width="131" x="675.807" y="8"/><text fill="#000000" font-family="sans-serif" font-size="14" lengthAdjust="spacingAndGlyphs" textLength="111" x="685.807" y="32.5332">StorageResource</text><!--class Model--><rect fill="#FEFECE" filter="url(#fcb41hguhnpry)" height="48" id="Model" style="stroke: #A80036; stroke-width: 1.5;" width="119" x="345.807" y="124"/><ellipse cx="360.807" cy="140" fill="#ADD1B2" rx="11" ry="11" style="stroke: #A80036; stroke-width: 1.0;"/><path d="M363.5726,135.875 Q363.7289,135.6563 363.9164,135.5469 Q364.1039,135.4375 364.3226,135.4375 Q364.6976,135.4375 364.932,135.7031 Q365.1664,135.9531 365.1664,136.5625 L365.1664,138.0156 Q365.1664,138.625 364.932,138.8906 Q364.6976,139.1563 364.3226,139.1563 Q363.9789,139.1563 363.7758,138.9531 Q363.5726,138.7656 363.4633,138.25 Q363.4164,137.8906 363.2289,137.7031 Q362.9008,137.3281 362.2914,137.1094 Q361.682,136.8906 361.057,136.8906 Q360.2914,136.8906 359.6508,137.2188 Q359.0258,137.5469 358.5258,138.2969 Q358.0414,139.0469 358.0414,140.0781 L358.0414,141.1719 Q358.0414,142.4063 358.932,143.2344 Q359.8226,144.0469 361.4164,144.0469 Q362.3539,144.0469 363.0101,143.7969 Q363.4008,143.6406 363.8226,143.2031 Q364.0883,142.9375 364.2289,142.8594 Q364.3851,142.7813 364.5883,142.7813 Q364.9164,142.7813 365.1664,143.0469 Q365.432,143.2969 365.432,143.6406 Q365.432,143.9844 365.0883,144.3906 Q364.5883,144.9688 363.7914,145.2969 Q362.7133,145.75 361.4164,145.75 Q359.9008,145.75 358.6976,145.125 Q357.7133,144.625 357.0258,143.5625 Q356.3383,142.4844 356.3383,141.2031 L356.3383,140.0469 Q356.3383,138.7188 356.9476,137.5781 Q357.5726,136.4219 358.6664,135.8125 Q359.7601,135.1875 360.9945,135.1875 Q361.7289,135.1875 362.3695,135.3594 Q363.0258,135.5156 363.5726,135.875 Z "/><text fill="#000000" font-family="sans-serif" font-size="12" lengthAdjust="spacingAndGlyphs" textLength="87" x="374.807" y="144.9102">ServiceInstance</text><line style="stroke: #A80036; stroke-width: 1.5;" x1="346.807" x2="463.807" y1="156" y2="156"/><line style="stroke: #A80036; stroke-width: 1.5;" x1="346.807" x2="463.807" y1="164" y2="164"/><!--link Model to Image--><path d="M466.613,178.615 C478.068,185.488 489.506,193.3562 499.307,202 C511.229,212.5159 522.054,226.3772 530.479,238.6813 " fill="none" id="Model-Image" style="stroke: #A80036; stroke-width: 1.0;"/><polygon fill="#A80036" points="537.778,249.8408,536.1991,240.1193,535.0411,245.6564,529.504,244.4984,537.778,249.8408" style="stroke: #A80036; stroke-width: 1.0;"/><line style="stroke: #A80036; stroke-width: 1.0;" x1="535.0411" x2="530.662" y1="245.6564" y2="238.9614"/><polygon fill="#FFFFFF" points="455.211,172.081,458.4279,178.5348,465.6225,178.0476,462.4056,171.5938,455.211,172.081" style="stroke: #A80036; stroke-width: 1.0;"/><text fill="#000000" font-family="sans-serif" font-size="13" lengthAdjust="spacingAndGlyphs" textLength="35" x="518.307" y="216.4951">image</text><text fill="#000000" font-family="sans-serif" font-size="13" lengthAdjust="spacingAndGlyphs" textLength="7" x="526.4816" y="239.1321">1</text><!--link Model to DataInstance--><path d="M477.452,169.206 C504.645,177.889 535.471,189.0389 562.307,202 C585.695,213.2959 610.183,228.9957 629.302,242.2491 " fill="none" id="Model-DataInstance" style="stroke: #A80036; stroke-width: 1.0;"/><polygon fill="#A80036" points="640.171,249.9203,635.125,241.4623,636.0861,247.0369,630.5115,247.9981,640.171,249.9203" style="stroke: #A80036; stroke-width: 1.0;"/><line style="stroke: #A80036; stroke-width: 1.0;" x1="636.0861" x2="629.55" y1="247.0369" y2="242.4241"/><polygon fill="#FFFFFF" points="464.836,165.269,469.3718,170.875,476.291,168.8442,471.7553,163.2383,464.836,165.269" style="stroke: #A80036; stroke-width: 1.0;"/><text fill="#000000" font-family="sans-serif" font-size="13" lengthAdjust="spacingAndGlyphs" textLength="25" x="596.307" y="216.4951">data</text><text fill="#000000" font-family="sans-serif" font-size="13" lengthAdjust="spacingAndGlyphs" textLength="7" x="624.7075" y="239.2359">n</text><!--link Model to Resource--><path d="M332.735,153.659 C224.732,161.34 32.1054,178.216 11.3065,202 C-1.8183,217.0086 12.3012,232.1531 31.4077,244.1426 " fill="none" id="Model-Resource" style="stroke: #A80036; stroke-width: 1.0;"/><polygon fill="#A80036" points="42.728,250.6348,36.9108,242.6875,38.3907,248.1473,32.9308,249.6272,42.728,250.6348" style="stroke: #A80036; stroke-width: 1.0;"/><line style="stroke: #A80036; stroke-width: 1.0;" x1="38.3907" x2="31.4509" y1="248.1473" y2="244.1674"/><polygon fill="#FFFFFF" points="345.788,152.746,339.5235,149.1744,333.8173,153.5833,340.0817,157.1549,345.788,152.746" style="stroke: #A80036; stroke-width: 1.0;"/><text fill="#000000" font-family="sans-serif" font-size="13" lengthAdjust="spacingAndGlyphs" textLength="57" x="12.3065" y="216.4951">resources</text><text fill="#000000" font-family="sans-serif" font-size="13" lengthAdjust="spacingAndGlyphs" textLength="7" x="27.8765" y="243.4997">n</text><!--link Resource to Model--><path d="M100.9367,238.829 C110.402,225.6042 123.231,210.9552 138.307,202 C197.551,166.808 275.925,154.511 332.418,150.445 " fill="none" id="Resource-Model" style="stroke: #A80036; stroke-width: 1.0;"/><polygon fill="#A80036" points="345.562,149.618,336.3284,146.1916,340.5719,149.9323,336.8312,154.1758,345.562,149.618" style="stroke: #A80036; stroke-width: 1.0;"/><line style="stroke: #A80036; stroke-width: 1.0;" x1="340.5719" x2="332.588" y1="149.9323" y2="150.434"/><polygon fill="#FFFFFF" points="93.512,249.9052,100.1754,247.1486,100.1937,239.9375,93.5303,242.6941,93.512,249.9052" style="stroke: #A80036; stroke-width: 1.0;"/><text fill="#000000" font-family="sans-serif" font-size="13" lengthAdjust="spacingAndGlyphs" textLength="56" x="139.307" y="216.4951">instances</text><text fill="#000000" font-family="sans-serif" font-size="13" lengthAdjust="spacingAndGlyphs" textLength="7" x="330.854" y="146.3567">n</text><!--link Model to Servicelet--><path d="M332.301,159.245 C282.781,167.861 223.635,182.002 208.307,202 C199.706,213.2199 204.583,227.1204 212.865,239.2666 " fill="none" id="Model-Servicelet" style="stroke: #A80036; stroke-width: 1.0;"/><polygon fill="#A80036" points="221.14,249.8009,218.7266,240.2523,218.0516,245.8688,212.4352,245.1938,221.14,249.8009" style="stroke: #A80036; stroke-width: 1.0;"/><line style="stroke: #A80036; stroke-width: 1.0;" x1="218.0516" x2="213.1095" y1="245.8688" y2="239.5777"/><polygon fill="#FFFFFF" points="345.308,157.067,338.7297,154.1129,333.4728,159.049,340.0511,162.0031,345.308,157.067" style="stroke: #A80036; stroke-width: 1.0;"/><text fill="#000000" font-family="sans-serif" font-size="13" lengthAdjust="spacingAndGlyphs" textLength="54" x="209.307" y="216.4951">servicelet</text><text fill="#000000" font-family="sans-serif" font-size="13" lengthAdjust="spacingAndGlyphs" textLength="7" x="207.1982" y="239.0799">1</text><!--link Servicelet to Model--><path d="M276.031,242.2354 C301.341,223.9815 335.423,199.4009 362.238,180.061 " fill="none" id="Servicelet-Model" style="stroke: #A80036; stroke-width: 1.0;"/><polygon fill="#A80036" points="373.101,172.227,363.4615,174.2471,369.0456,175.1517,368.141,180.7357,373.101,172.227" style="stroke: #A80036; stroke-width: 1.0;"/><line style="stroke: #A80036; stroke-width: 1.0;" x1="369.0456" x2="362.5575" y1="175.1517" y2="179.8315"/><polygon fill="#FFFFFF" points="265.423,249.886,272.6292,249.6206,275.1559,242.8667,267.9497,243.132,265.423,249.886" style="stroke: #A80036; stroke-width: 1.0;"/><text fill="#000000" font-family="sans-serif" font-size="13" lengthAdjust="spacingAndGlyphs" textLength="56" x="329.307" y="216.4951">instances</text><text fill="#000000" font-family="sans-serif" font-size="13" lengthAdjust="spacingAndGlyphs" textLength="7" x="357.3977" y="193.6203">n</text><!--link Model to StackInstance--><path d="M401.09,185.113 C400.499,196.341 400.586,208.7281 402.307,220 C403.166,225.6316 404.562,231.5108 406.165,237.1454 " fill="none" id="Model-StackInstance" style="stroke: #A80036; stroke-width: 1.0;"/><polygon fill="#A80036" points="410.126,249.6176,411.2141,239.829,408.6125,244.8522,403.5894,242.2506,410.126,249.6176" style="stroke: #A80036; stroke-width: 1.0;"/><line style="stroke: #A80036; stroke-width: 1.0;" x1="408.6125" x2="406.1905" y1="244.8522" y2="237.2275"/><polygon fill="#FFFFFF" points="402.083,172.145,397.6364,177.822,401.1665,184.1099,405.6131,178.433,402.083,172.145" style="stroke: #A80036; stroke-width: 1.0;"/><text fill="#000000" font-family="sans-serif" font-size="13" lengthAdjust="spacingAndGlyphs" textLength="32" x="403.307" y="216.4951">stack</text><text fill="#000000" font-family="sans-serif" font-size="13" lengthAdjust="spacingAndGlyphs" textLength="7" x="399.9885" y="239.1781">1</text><!--link StackInstance to Model--><path d="M436.065,238.099 C440.914,226.8515 443.883,213.9053 440.307,202 C438.354,195.5003 435.317,189.0625 431.831,183.032 " fill="none" id="StackInstance-Model" style="stroke: #A80036; stroke-width: 1.0;"/><polygon fill="#A80036" points="424.738,172.03,426.2525,181.7617,427.4471,176.2324,432.9764,177.4271,424.738,172.03" style="stroke: #A80036; stroke-width: 1.0;"/><line style="stroke: #A80036; stroke-width: 1.0;" x1="427.4471" x2="431.7815" y1="176.2324" y2="182.9565"/><polygon fill="#A80036" points="430.04,249.9299,436.3271,246.3983,435.4852,239.2365,429.1981,242.7681,430.04,249.9299" style="stroke: #A80036; stroke-width: 1.0;"/><text fill="#000000" font-family="sans-serif" font-size="13" lengthAdjust="spacingAndGlyphs" textLength="47" x="443.307" y="216.4951">services</text><text fill="#000000" font-family="sans-serif" font-size="13" lengthAdjust="spacingAndGlyphs" textLength="7" x="421.6212" y="193.3753">n</text><!--link Model to RunScript--><path d="M477.968,163.116 C522.427,172.491 580.202,185.999 630.307,202 C668.106,214.0709 709.52,231.0123 741.012,244.7084 " fill="none" id="Model-RunScript" style="stroke: #A80036; stroke-width: 1.0;"/><polygon fill="#A80036" points="752.998,249.972,746.3667,242.6901,748.4202,247.9611,743.1492,250.0146,752.998,249.972" style="stroke: #A80036; stroke-width: 1.0;"/><line style="stroke: #A80036; stroke-width: 1.0;" x1="748.4202" x2="741.095" y1="247.9611" y2="244.7446"/><polygon fill="#A80036" points="465.212,160.462,470.2713,165.6004,476.9604,162.9066,471.901,157.7682,465.212,160.462" style="stroke: #A80036; stroke-width: 1.0;"/><text fill="#000000" font-family="sans-serif" font-size="13" lengthAdjust="spacingAndGlyphs" textLength="59" x="681.307" y="216.4951">runScripts</text><text fill="#000000" font-family="sans-serif" font-size="13" lengthAdjust="spacingAndGlyphs" textLength="7" x="736.0984" y="241.3027">n</text><!--link Stacklet to Model--><path d="M124.578,49.476 C155.257,63.044 196.275,80.5 233.307,94 C265.544,105.752 301.773,117.174 332.637,126.387 " fill="none" id="Stacklet-Model" style="stroke: #A80036; stroke-width: 1.0;"/><polygon fill="#A80036" points="345.509,130.194,338.0132,123.8056,340.7143,128.7758,335.7441,131.477,345.509,130.194" style="stroke: #A80036; stroke-width: 1.0;"/><line style="stroke: #A80036; stroke-width: 1.0;" x1="340.7143" x2="333.0435" y1="128.7758" y2="126.507"/><polygon fill="#FFFFFF" points="112.524,44.109,116.3784,50.2035,123.4866,48.9896,119.6322,42.8951,112.524,44.109" style="stroke: #A80036; stroke-width: 1.0;"/><text fill="#000000" font-family="sans-serif" font-size="13" lengthAdjust="spacingAndGlyphs" textLength="56" x="234.307" y="90.4951">instances</text><text fill="#000000" font-family="sans-serif" font-size="13" lengthAdjust="spacingAndGlyphs" textLength="7" x="330.7946" y="124.5654">n</text><!--link AcceleratorResource to Model--><path d="M262.863,53.349 C291.023,71.863 329.327,97.047 359.122,116.636 " fill="none" id="AcceleratorResource-Model" style="stroke: #A80036; stroke-width: 1.0;"/><polygon fill="#A80036" points="370.086,123.844,364.7629,115.5576,365.908,121.0973,360.3682,122.2424,370.086,123.844" style="stroke: #A80036; stroke-width: 1.0;"/><line style="stroke: #A80036; stroke-width: 1.0;" x1="365.908" x2="359.2235" y1="121.0973" y2="116.702"/><polygon fill="#FFFFFF" points="251.797,46.074,254.6132,52.7124,261.8242,52.6661,259.008,46.0276,251.797,46.074" style="stroke: #A80036; stroke-width: 1.0;"/><text fill="#000000" font-family="sans-serif" font-size="13" lengthAdjust="spacingAndGlyphs" textLength="56" x="321.307" y="90.4951">instances</text><text fill="#000000" font-family="sans-serif" font-size="13" lengthAdjust="spacingAndGlyphs" textLength="7" x="353.1637" y="113.1442">n</text><!--link ComputeResource to Model--><path d="M405.307,59.321 C405.307,75.133 405.307,94.397 405.307,110.837 " fill="none" id="ComputeResource-Model" style="stroke: #A80036; stroke-width: 1.0;"/><polygon fill="#A80036" points="405.307,123.844,409.307,114.844,405.307,118.844,401.307,114.844,405.307,123.844" style="stroke: #A80036; stroke-width: 1.0;"/><line style="stroke: #A80036; stroke-width: 1.0;" x1="405.307" x2="405.307" y1="118.844" y2="110.844"/><polygon fill="#FFFFFF" points="405.307,46.074,401.307,52.074,405.307,58.074,409.307,52.074,405.307,46.074" style="stroke: #A80036; stroke-width: 1.0;"/><text fill="#000000" font-family="sans-serif" font-size="13" lengthAdjust="spacingAndGlyphs" textLength="56" x="406.307" y="90.4951">instances</text><text fill="#000000" font-family="sans-serif" font-size="13" lengthAdjust="spacingAndGlyphs" textLength="7" x="397.4101" y="113.1442">n</text><!--link NetworkResource to Model--><path d="M538.7,53.625 C512.507,71.96 477.12,96.731 449.375,116.152 " fill="none" id="NetworkResource-Model" style="stroke: #A80036; stroke-width: 1.0;"/><polygon fill="#A80036" points="438.387,123.844,448.0539,121.9593,442.483,120.9765,443.4659,115.4057,438.387,123.844" style="stroke: #A80036; stroke-width: 1.0;"/><line style="stroke: #A80036; stroke-width: 1.0;" x1="442.483" x2="449.0365" y1="120.9765" y2="116.3885"/><polygon fill="#FFFFFF" points="549.487,46.074,542.2778,46.2375,539.6559,52.9551,546.8652,52.7916,549.487,46.074" style="stroke: #A80036; stroke-width: 1.0;"/><text fill="#000000" font-family="sans-serif" font-size="13" lengthAdjust="spacingAndGlyphs" textLength="56" x="507.307" y="90.4951">instances</text><text fill="#000000" font-family="sans-serif" font-size="13" lengthAdjust="spacingAndGlyphs" textLength="7" x="438.9669" y="113.1442">n</text><!--link StorageResource to Model--><path d="M685.416,50.881 C652.655,64.028 610.358,80.548 572.307,94 C541.579,104.863 507.319,115.917 477.866,125.099 " fill="none" id="StorageResource-Model" style="stroke: #A80036; stroke-width: 1.0;"/><polygon fill="#A80036" points="465.133,129.046,474.9139,130.2012,469.9087,127.5653,472.5447,122.5601,465.133,129.046" style="stroke: #A80036; stroke-width: 1.0;"/><line style="stroke: #A80036; stroke-width: 1.0;" x1="469.9087" x2="477.5505" y1="127.5653" y2="125.197"/><polygon fill="#FFFFFF" points="697.476,46.021,690.4158,44.5534,686.3457,50.5061,693.4059,51.9737,697.476,46.021" style="stroke: #A80036; stroke-width: 1.0;"/><text fill="#000000" font-family="sans-serif" font-size="13" lengthAdjust="spacingAndGlyphs" textLength="56" x="620.307" y="90.4951">instances</text><text fill="#000000" font-family="sans-serif" font-size="13" lengthAdjust="spacingAndGlyphs" textLength="7" x="472.8509" y="123.2775">n</text><!--
@startuml

class "ServiceInstance" as Model {

 
}

rectangle "Image" as Image #lightblue {
}

Model o- -> "1" Image : image


rectangle "DataInstance" as DataInstance #lightblue {
}

Model o- -> "n" DataInstance : data


rectangle "Resource" as Resource #lightblue {
}

Model o- -> "n" Resource : resources


rectangle "Servicelet" as Servicelet #lightblue {
}

Model o- -> "1" Servicelet : servicelet


rectangle "StackInstance" as StackInstance #lightblue {
}

Model o- -> "1" StackInstance : stack


rectangle "RunScript" as RunScript #lightblue {
}

Model *- -> "n" RunScript : runScripts




    rectangle "Servicelet" as Servicelet #lightgreen {
    }
    
        Servicelet   o- -> "n" Model : "instances"
    
    rectangle "Stacklet" as Stacklet #lightgreen {
    }
    
        Stacklet   o- -> "n" Model : "instances"
    
    rectangle "StackInstance" as StackInstance #lightgreen {
    }
    
        StackInstance   *- -> "n" Model : "services"
    
    rectangle "AcceleratorResource" as AcceleratorResource #lightgreen {
    }
    
        AcceleratorResource   o- -> "n" Model : "instances"
    
    rectangle "ComputeResource" as ComputeResource #lightgreen {
    }
    
        ComputeResource   o- -> "n" Model : "instances"
    
    rectangle "NetworkResource" as NetworkResource #lightgreen {
    }
    
        NetworkResource   o- -> "n" Model : "instances"
    
    rectangle "Resource" as Resource #lightgreen {
    }
    
        Resource   o- -> "n" Model : "instances"
    
    rectangle "StorageResource" as StorageResource #lightgreen {
    }
    
        StorageResource   o- -> "n" Model : "instances"
    

@enduml

PlantUML version 1.2019.05(Sat Apr 20 09:45:36 PDT 2019)
(GPL source distribution)
Java Runtime: OpenJDK Runtime Environment
JVM: OpenJDK 64-Bit Server VM
Java Version: 12.0.1+12
Operating System: Windows 10
OS Version: 10.0
Default Encoding: Cp1252
Language: en
Country: US
--></g></svg>