<?xml version="1.0" encoding="UTF-8" standalone="no"?><svg xmlns="http://www.w3.org/2000/svg" xmlns:xlink="http://www.w3.org/1999/xlink" contentScriptType="application/ecmascript" contentStyleType="text/css" height="321px" preserveAspectRatio="none" style="width:142px;height:321px;" version="1.1" viewBox="0 0 142 321" width="142px" zoomAndPan="magnify"><defs><filter height="300%" id="fhylh3l0j7i7e" width="300%" x="-1" y="-1"><feGaussianBlur result="blurOut" stdDeviation="2.0"/><feColorMatrix in="blurOut" result="blurOut2" type="matrix" values="0 0 0 0 0 0 0 0 0 0 0 0 0 0 0 0 0 0 .4 0"/><feOffset dx="4.0" dy="4.0" in="blurOut2" result="blurOut3"/><feBlend in="SourceGraphic" in2="blurOut3" mode="normal"/></filter></defs><g><!--entity MetricComposite--><rect fill="#90EE90" filter="url(#fhylh3l0j7i7e)" height="37.6094" style="stroke: #000000; stroke-width: 1.5;" width="125" x="6" y="8"/><text fill="#000000" font-family="sans-serif" font-size="14" lengthAdjust="spacingAndGlyphs" textLength="105" x="16" y="32.5332">MetricComposite</text><!--class Model--><rect fill="#FEFECE" filter="url(#fhylh3l0j7i7e)" height="186.3594" id="Model" style="stroke: #A80036; stroke-width: 1.5;" width="91" x="23" y="124"/><ellipse cx="50.15" cy="140" fill="#ADD1B2" rx="11" ry="11" style="stroke: #A80036; stroke-width: 1.0;"/><path d="M52.9156,135.875 Q53.0719,135.6563 53.2594,135.5469 Q53.4469,135.4375 53.6656,135.4375 Q54.0406,135.4375 54.275,135.7031 Q54.5094,135.9531 54.5094,136.5625 L54.5094,138.0156 Q54.5094,138.625 54.275,138.8906 Q54.0406,139.1563 53.6656,139.1563 Q53.3219,139.1563 53.1188,138.9531 Q52.9156,138.7656 52.8063,138.25 Q52.7594,137.8906 52.5719,137.7031 Q52.2438,137.3281 51.6344,137.1094 Q51.025,136.8906 50.4,136.8906 Q49.6344,136.8906 48.9938,137.2188 Q48.3688,137.5469 47.8688,138.2969 Q47.3844,139.0469 47.3844,140.0781 L47.3844,141.1719 Q47.3844,142.4063 48.275,143.2344 Q49.1656,144.0469 50.7594,144.0469 Q51.6969,144.0469 52.3531,143.7969 Q52.7438,143.6406 53.1656,143.2031 Q53.4313,142.9375 53.5719,142.8594 Q53.7281,142.7813 53.9313,142.7813 Q54.2594,142.7813 54.5094,143.0469 Q54.775,143.2969 54.775,143.6406 Q54.775,143.9844 54.4313,144.3906 Q53.9313,144.9688 53.1344,145.2969 Q52.0563,145.75 50.7594,145.75 Q49.2438,145.75 48.0406,145.125 Q47.0563,144.625 46.3688,143.5625 Q45.6813,142.4844 45.6813,141.2031 L45.6813,140.0469 Q45.6813,138.7188 46.2906,137.5781 Q46.9156,136.4219 48.0094,135.8125 Q49.1031,135.1875 50.3375,135.1875 Q51.0719,135.1875 51.7125,135.3594 Q52.3688,135.5156 52.9156,135.875 Z "/><text fill="#000000" font-family="sans-serif" font-size="12" lengthAdjust="spacingAndGlyphs" textLength="32" x="66.85" y="144.9102">Metric</text><line style="stroke: #A80036; stroke-width: 1.5;" x1="24" x2="113" y1="156" y2="156"/><text fill="#000000" font-family="sans-serif" font-size="11" lengthAdjust="spacingAndGlyphs" textLength="56" x="29" y="171.4189">string name</text><text fill="#000000" font-family="sans-serif" font-size="11" lengthAdjust="spacingAndGlyphs" textLength="56" x="29" y="185.2549">string value</text><line style="stroke: #A80036; stroke-width: 1.5;" x1="24" x2="113" y1="191.6719" y2="191.6719"/><text fill="#000000" font-family="sans-serif" font-size="11" lengthAdjust="spacingAndGlyphs" textLength="52" x="29" y="207.0908">consume()</text><text fill="#000000" font-family="sans-serif" font-size="11" lengthAdjust="spacingAndGlyphs" textLength="32" x="29" y="220.9268">copy()</text><text fill="#000000" font-family="sans-serif" font-size="11" lengthAdjust="spacingAndGlyphs" textLength="43" x="29" y="234.7627">factory()</text><text fill="#000000" font-family="sans-serif" font-size="11" lengthAdjust="spacingAndGlyphs" textLength="79" x="29" y="248.5986">greaterThanEq()</text><text fill="#000000" font-family="sans-serif" font-size="11" lengthAdjust="spacingAndGlyphs" textLength="64" x="29" y="262.4346">lessThanEq()</text><text fill="#000000" font-family="sans-serif" font-size="11" lengthAdjust="spacingAndGlyphs" textLength="36" x="29" y="276.2705">minus()</text><text fill="#000000" font-family="sans-serif" font-size="11" lengthAdjust="spacingAndGlyphs" textLength="28" x="29" y="290.1064">plus()</text><text fill="#000000" font-family="sans-serif" font-size="11" lengthAdjust="spacingAndGlyphs" textLength="23" x="29" y="303.9424">set()</text><!--link MetricComposite to Model--><path d="M68.5,59.285 C68.5,73.75 68.5,91.859 68.5,110.581 " fill="none" id="MetricComposite-Model" style="stroke: #A80036; stroke-width: 1.0;"/><polygon fill="#A80036" points="68.5,123.603,72.5,114.603,68.5,118.603,64.5,114.603,68.5,123.603" style="stroke: #A80036; stroke-width: 1.0;"/><line style="stroke: #A80036; stroke-width: 1.0;" x1="68.5" x2="68.5001" y1="118.603" y2="110.603"/><polygon fill="#A80036" points="68.5,46.026,64.5,52.026,68.5,58.026,72.5,52.026,68.5,46.026" style="stroke: #A80036; stroke-width: 1.0;"/><text fill="#000000" font-family="sans-serif" font-size="13" lengthAdjust="spacingAndGlyphs" textLength="36" x="69.5" y="90.4951">values</text><text fill="#000000" font-family="sans-serif" font-size="13" lengthAdjust="spacingAndGlyphs" textLength="7" x="61.2211" y="113.0177">n</text><!--
@startuml

class "Metric" as Model {
 string name
 string value

 consume()
 copy()
 factory()
 greaterThanEq()
 lessThanEq()
 minus()
 plus()
 set()
 
}



    rectangle "MetricComposite" as MetricComposite #lightgreen {
    }
    
        MetricComposite   *- -> "n" Model : "values"
    

@enduml

PlantUML version 1.2019.05(Sat Apr 20 09:45:36 PDT 2019)
(GPL source distribution)
Java Runtime: OpenJDK Runtime Environment
JVM: OpenJDK 64-Bit Server VM
Java Version: 12.0.1+12
Operating System: Windows 10
OS Version: 10.0
Default Encoding: Cp1252
Language: en
Country: US
--></g></svg>