<?xml version="1.0" encoding="UTF-8" standalone="no"?><svg xmlns="http://www.w3.org/2000/svg" xmlns:xlink="http://www.w3.org/1999/xlink" contentScriptType="application/ecmascript" contentStyleType="text/css" height="210px" preserveAspectRatio="none" style="width:118px;height:210px;" version="1.1" viewBox="0 0 118 210" width="118px" zoomAndPan="magnify"><defs><filter height="300%" id="f3tyodmvdgdqm" width="300%" x="-1" y="-1"><feGaussianBlur result="blurOut" stdDeviation="2.0"/><feColorMatrix in="blurOut" result="blurOut2" type="matrix" values="0 0 0 0 0 0 0 0 0 0 0 0 0 0 0 0 0 0 .4 0"/><feOffset dx="4.0" dy="4.0" in="blurOut2" result="blurOut3"/><feBlend in="SourceGraphic" in2="blurOut3" mode="normal"/></filter></defs><g><!--entity Data--><rect fill="#90EE90" filter="url(#f3tyodmvdgdqm)" height="37.6094" style="stroke: #000000; stroke-width: 1.5;" width="50" x="40.9005" y="8"/><text fill="#000000" font-family="sans-serif" font-size="14" lengthAdjust="spacingAndGlyphs" textLength="30" x="50.9005" y="32.5332">Data</text><!--class Model--><rect fill="#FEFECE" filter="url(#f3tyodmvdgdqm)" height="75.6719" id="Model" style="stroke: #A80036; stroke-width: 1.5;" width="84" x="23.9005" y="124"/><ellipse cx="38.9005" cy="140" fill="#ADD1B2" rx="11" ry="11" style="stroke: #A80036; stroke-width: 1.0;"/><path d="M41.6661,135.875 Q41.8224,135.6563 42.0099,135.5469 Q42.1974,135.4375 42.4161,135.4375 Q42.7911,135.4375 43.0255,135.7031 Q43.2599,135.9531 43.2599,136.5625 L43.2599,138.0156 Q43.2599,138.625 43.0255,138.8906 Q42.7911,139.1563 42.4161,139.1563 Q42.0724,139.1563 41.8693,138.9531 Q41.6661,138.7656 41.5568,138.25 Q41.5099,137.8906 41.3224,137.7031 Q40.9943,137.3281 40.3849,137.1094 Q39.7755,136.8906 39.1505,136.8906 Q38.3849,136.8906 37.7443,137.2188 Q37.1193,137.5469 36.6193,138.2969 Q36.1349,139.0469 36.1349,140.0781 L36.1349,141.1719 Q36.1349,142.4063 37.0255,143.2344 Q37.9161,144.0469 39.5099,144.0469 Q40.4474,144.0469 41.1036,143.7969 Q41.4943,143.6406 41.9161,143.2031 Q42.1818,142.9375 42.3224,142.8594 Q42.4786,142.7813 42.6818,142.7813 Q43.0099,142.7813 43.2599,143.0469 Q43.5255,143.2969 43.5255,143.6406 Q43.5255,143.9844 43.1818,144.3906 Q42.6818,144.9688 41.8849,145.2969 Q40.8068,145.75 39.5099,145.75 Q37.9943,145.75 36.7911,145.125 Q35.8068,144.625 35.1193,143.5625 Q34.4318,142.4844 34.4318,141.2031 L34.4318,140.0469 Q34.4318,138.7188 35.0411,137.5781 Q35.6661,136.4219 36.7599,135.8125 Q37.8536,135.1875 39.088,135.1875 Q39.8224,135.1875 40.463,135.3594 Q41.1193,135.5156 41.6661,135.875 Z "/><text fill="#000000" font-family="sans-serif" font-size="12" lengthAdjust="spacingAndGlyphs" textLength="52" x="52.9005" y="144.9102">MetaData</text><line style="stroke: #A80036; stroke-width: 1.5;" x1="24.9005" x2="106.9005" y1="156" y2="156"/><text fill="#000000" font-family="sans-serif" font-size="11" lengthAdjust="spacingAndGlyphs" textLength="56" x="29.9005" y="171.4189">string name</text><text fill="#000000" font-family="sans-serif" font-size="11" lengthAdjust="spacingAndGlyphs" textLength="56" x="29.9005" y="185.2549">string value</text><line style="stroke: #A80036; stroke-width: 1.5;" x1="24.9005" x2="106.9005" y1="191.6719" y2="191.6719"/><!--link Model to Data--><path d="M74.5321,110.7659 C75.5731,99.343 75.9467,87.257 74.9005,76 C74.3942,70.552 73.5712,64.801 72.6235,59.245 " fill="none" id="Model-Data" style="stroke: #A80036; stroke-width: 1.0;"/><polygon fill="#A80036" points="70.1196,46.122,67.8778,55.7123,71.057,51.0334,75.7359,54.2125,70.1196,46.122" style="stroke: #A80036; stroke-width: 1.0;"/><line style="stroke: #A80036; stroke-width: 1.0;" x1="71.057" x2="72.5562" y1="51.0334" y2="58.892"/><polygon fill="#FFFFFF" points="73.0485,123.7825,77.7022,118.2741,74.4074,111.8597,69.7537,117.3681,73.0485,123.7825" style="stroke: #A80036; stroke-width: 1.0;"/><text fill="#000000" font-family="sans-serif" font-size="13" lengthAdjust="spacingAndGlyphs" textLength="25" x="75.9005" y="90.4951">data</text><text fill="#000000" font-family="sans-serif" font-size="13" lengthAdjust="spacingAndGlyphs" textLength="7" x="63.3129" y="67.0059">1</text><!--link Data to Model--><path d="M30.3995,50.089 C16.4018,61.828 4.9151,77.275 10.9005,94 C13.218,100.4757 16.461,106.7747 20.2252,112.7537 " fill="none" id="Data-Model" style="stroke: #A80036; stroke-width: 1.0;"/><polygon fill="#A80036" points="28,123.8193,26.0989,114.1557,25.1255,119.7281,19.5531,118.7548,28,123.8193" style="stroke: #A80036; stroke-width: 1.0;"/><line style="stroke: #A80036; stroke-width: 1.0;" x1="25.1255" x2="20.5264" y1="119.7281" y2="113.1824"/><polygon fill="#A80036" points="40.8219,42.231,33.6229,42.6487,31.2396,49.4546,38.4386,49.0369,40.8219,42.231" style="stroke: #A80036; stroke-width: 1.0;"/><text fill="#000000" font-family="sans-serif" font-size="13" lengthAdjust="spacingAndGlyphs" textLength="54" x="11.9005" y="90.4951">metadata</text><text fill="#000000" font-family="sans-serif" font-size="13" lengthAdjust="spacingAndGlyphs" textLength="7" x="13.6255" y="113.149">n</text><!--
@startuml

class "MetaData" as Model {
 string name
 string value

 
}

rectangle "Data" as Data #lightblue {
}

Model o- -> "1" Data : data




    rectangle "Data" as Data #lightgreen {
    }
    
        Data   *- -> "n" Model : "metadata"
    

@enduml

PlantUML version 1.2019.05(Sat Apr 20 09:45:36 PDT 2019)
(GPL source distribution)
Java Runtime: OpenJDK Runtime Environment
JVM: OpenJDK 64-Bit Server VM
Java Version: 12.0.1+12
Operating System: Windows 10
OS Version: 10.0
Default Encoding: Cp1252
Language: en
Country: US
--></g></svg>