<?xml version="1.0" encoding="UTF-8" standalone="no"?><svg xmlns="http://www.w3.org/2000/svg" xmlns:xlink="http://www.w3.org/1999/xlink" contentScriptType="application/ecmascript" contentStyleType="text/css" height="685px" preserveAspectRatio="none" style="width:472px;height:685px;" version="1.1" viewBox="0 0 472 685" width="472px" zoomAndPan="magnify"><defs><filter height="300%" id="fhf70dxzdn8cz" width="300%" x="-1" y="-1"><feGaussianBlur result="blurOut" stdDeviation="2.0"/><feColorMatrix in="blurOut" result="blurOut2" type="matrix" values="0 0 0 0 0 0 0 0 0 0 0 0 0 0 0 0 0 0 .4 0"/><feOffset dx="4.0" dy="4.0" in="blurOut2" result="blurOut3"/><feBlend in="SourceGraphic" in2="blurOut3" mode="normal"/></filter></defs><g><!--cluster Device Manager--><polygon fill="#D3D3D3" filter="url(#fhf70dxzdn8cz)" points="45.5,84,166.5,84,173.5,107.6094,450.5,107.6094,450.5,673,45.5,673,45.5,84" style="stroke: #000000; stroke-width: 1.5;"/><line style="stroke: #000000; stroke-width: 1.5;" x1="45.5" x2="173.5" y1="107.6094" y2="107.6094"/><text fill="#000000" font-family="sans-serif" font-size="14" font-weight="bold" lengthAdjust="spacingAndGlyphs" textLength="115" x="49.5" y="100.5332">Device Manager</text><!--cluster bin--><polygon fill="#FFFFFF" filter="url(#fhf70dxzdn8cz)" points="79.5,128,107.5,128,114.5,151.6094,241.5,151.6094,241.5,218,79.5,218,79.5,128" style="stroke: #000000; stroke-width: 1.5;"/><line style="stroke: #000000; stroke-width: 1.5;" x1="79.5" x2="114.5" y1="151.6094" y2="151.6094"/><text fill="#000000" font-family="sans-serif" font-size="14" font-weight="bold" lengthAdjust="spacingAndGlyphs" textLength="22" x="83.5" y="144.5332">bin</text><!--cluster deploy--><polygon fill="#FFFFFF" filter="url(#fhf70dxzdn8cz)" points="69.5,324,122.5,324,129.5,347.6094,426.5,347.6094,426.5,431,69.5,431,69.5,324" style="stroke: #000000; stroke-width: 1.5;"/><line style="stroke: #000000; stroke-width: 1.5;" x1="69.5" x2="129.5" y1="347.6094" y2="347.6094"/><text fill="#000000" font-family="sans-serif" font-size="14" font-weight="bold" lengthAdjust="spacingAndGlyphs" textLength="47" x="73.5" y="340.5332">deploy</text><!--cluster images--><polygon fill="#FFFFFF" filter="url(#fhf70dxzdn8cz)" points="140.5,455,196.5,455,203.5,478.6094,381.5,478.6094,381.5,649,140.5,649,140.5,455" style="stroke: #000000; stroke-width: 1.5;"/><line style="stroke: #000000; stroke-width: 1.5;" x1="140.5" x2="203.5" y1="478.6094" y2="478.6094"/><text fill="#000000" font-family="sans-serif" font-size="14" font-weight="bold" lengthAdjust="spacingAndGlyphs" textLength="50" x="144.5" y="471.5332">images</text><!--entity REST--><rect fill="#FEFECE" filter="url(#fhf70dxzdn8cz)" height="37.6094" style="stroke: #A80036; stroke-width: 1.5;" width="69" x="126" y="262"/><rect fill="#FEFECE" height="5" style="stroke: #A80036; stroke-width: 1.5;" width="10" x="121" y="267"/><rect fill="#FEFECE" height="5" style="stroke: #A80036; stroke-width: 1.5;" width="10" x="121" y="289.6094"/><text fill="#000000" font-family="sans-serif" font-size="14" lengthAdjust="spacingAndGlyphs" textLength="49" x="136" y="286.5332">express</text><!--entity socket--><rect fill="#FEFECE" filter="url(#fhf70dxzdn8cz)" height="37.6094" style="stroke: #A80036; stroke-width: 1.5;" width="76" x="302.5" y="164"/><rect fill="#FEFECE" height="5" style="stroke: #A80036; stroke-width: 1.5;" width="10" x="297.5" y="169"/><rect fill="#FEFECE" height="5" style="stroke: #A80036; stroke-width: 1.5;" width="10" x="297.5" y="191.6094"/><text fill="#000000" font-family="sans-serif" font-size="14" lengthAdjust="spacingAndGlyphs" textLength="56" x="312.5" y="188.5332">socket.io</text><!--entity binName--><rect fill="#FEFECE" filter="url(#fhf70dxzdn8cz)" height="37.6094" style="stroke: #A80036; stroke-width: 1.5;" width="129" x="96" y="164"/><rect fill="#FEFECE" height="5" style="stroke: #A80036; stroke-width: 1.5;" width="10" x="91" y="169"/><rect fill="#FEFECE" height="5" style="stroke: #A80036; stroke-width: 1.5;" width="10" x="91" y="191.6094"/><text fill="#000000" font-family="sans-serif" font-size="14" lengthAdjust="spacingAndGlyphs" textLength="109" x="106" y="188.5332">edgemere cpl dm</text><!--entity cpl_dm_container--><polygon fill="#FEFECE" filter="url(#fhf70dxzdn8cz)" points="85.5,360,85.5,415.2188,235.5,415.2188,235.5,370,225.5,360,85.5,360" style="stroke: #000000; stroke-width: 1.5;"/><path d="M225.5,360 L225.5,370 L235.5,370 " fill="#FEFECE" style="stroke: #000000; stroke-width: 1.5;"/><text fill="#000000" font-family="sans-serif" font-size="14" lengthAdjust="spacingAndGlyphs" textLength="90" x="95.5" y="384.5332">node server.js</text><text fill="#000000" font-family="sans-serif" font-size="14" lengthAdjust="spacingAndGlyphs" textLength="130" x="95.5" y="402.1426">docker-compose.yml</text><!--entity web_container--><polygon fill="#FEFECE" filter="url(#fhf70dxzdn8cz)" points="271,368.5,271,406.1094,410,406.1094,410,378.5,400,368.5,271,368.5" style="stroke: #000000; stroke-width: 1.5;"/><path d="M400,368.5 L400,378.5 L410,378.5 " fill="#FEFECE" style="stroke: #000000; stroke-width: 1.5;"/><text fill="#000000" font-family="sans-serif" font-size="14" lengthAdjust="spacingAndGlyphs" textLength="119" x="281" y="393.0332">node web/server.js</text><!--entity cpl_dmimage--><rect fill="#FEFECE" filter="url(#fhf70dxzdn8cz)" height="33.6094" style="stroke: #000000; stroke-width: 1.5;" width="61" x="161" y="496.5"/><rect fill="#FEFECE" height="33.6094" style="stroke: #000000; stroke-width: 1.5;" width="61" x="157" y="492.5"/><text fill="#000000" font-family="sans-serif" font-size="14" lengthAdjust="spacingAndGlyphs" textLength="45" x="165" y="515.0332">cpl_dm</text><!--entity ailtireswarm--><rect fill="#FEFECE" filter="url(#fhf70dxzdn8cz)" height="40.6094" style="stroke: #000000; stroke-width: 1.5;" width="108" x="156.5" y="592"/><polygon fill="#FEFECE" points="247.5,597,247.5,611,259.5,611,259.5,603,253.5,597,247.5,597" style="stroke: #000000; stroke-width: 1.5;"/><line style="stroke: #000000; stroke-width: 1.5;" x1="253.5" x2="253.5" y1="597" y2="603"/><line style="stroke: #000000; stroke-width: 1.5;" x1="259.5" x2="253.5" y1="603" y2="603"/><text fill="#000000" font-family="sans-serif" font-size="14" lengthAdjust="spacingAndGlyphs" textLength="78" x="166.5" y="619.5332">ailtire:swarm</text><!--entity cpl_dm_web--><rect fill="#FEFECE" filter="url(#fhf70dxzdn8cz)" height="40.6094" style="stroke: #000000; stroke-width: 1.5;" width="108" x="257.5" y="491"/><polygon fill="#FEFECE" points="348.5,496,348.5,510,360.5,510,360.5,502,354.5,496,348.5,496" style="stroke: #000000; stroke-width: 1.5;"/><line style="stroke: #000000; stroke-width: 1.5;" x1="354.5" x2="354.5" y1="496" y2="502"/><line style="stroke: #000000; stroke-width: 1.5;" x1="360.5" x2="354.5" y1="502" y2="502"/><text fill="#000000" font-family="sans-serif" font-size="14" lengthAdjust="spacingAndGlyphs" textLength="78" x="267.5" y="518.5332">cpl_dm_web</text><!--entity CLI--><ellipse cx="160.5" cy="38" fill="#FEFECE" filter="url(#fhf70dxzdn8cz)" rx="8" ry="8" style="stroke: #A80036; stroke-width: 2.0;"/><text fill="#000000" font-family="sans-serif" font-size="14" lengthAdjust="spacingAndGlyphs" textLength="21" x="150" y="69.5332">CLI</text><!--entity Web--><ellipse cx="20.5" cy="281" fill="#FEFECE" filter="url(#fhf70dxzdn8cz)" rx="8" ry="8" style="stroke: #A80036; stroke-width: 2.0;"/><text fill="#000000" font-family="sans-serif" font-size="14" lengthAdjust="spacingAndGlyphs" textLength="29" x="6" y="312.5332">Web</text><!--entity WebSocket--><ellipse cx="340.5" cy="38" fill="#FEFECE" filter="url(#fhf70dxzdn8cz)" rx="8" ry="8" style="stroke: #A80036; stroke-width: 2.0;"/><text fill="#000000" font-family="sans-serif" font-size="14" lengthAdjust="spacingAndGlyphs" textLength="72" x="304.5" y="69.5332">WebSocket</text><!--link binName to REST--><path d="M160.5,202.057 C160.5,217.513 160.5,239.865 160.5,256.673 " fill="none" id="binName-REST" style="stroke: #A80036; stroke-width: 1.0;"/><polygon fill="#A80036" points="160.5,261.698,164.5,252.698,160.5,256.698,156.5,252.698,160.5,261.698" style="stroke: #A80036; stroke-width: 1.0;"/><!--link REST to cpl_dm_container--><path d="M160.5,300.203 C160.5,315.147 160.5,336.673 160.5,354.487 " fill="none" id="REST-cpl_dm_container" style="stroke: #A80036; stroke-width: 1.0;"/><polygon fill="#A80036" points="160.5,359.885,164.5,350.885,160.5,354.885,156.5,350.885,160.5,359.885" style="stroke: #A80036; stroke-width: 1.0;"/><!--link REST to web_container--><path d="M195.308,291.931 C213.032,297.707 234.566,305.857 252.5,316 C276.579,329.618 300.889,349.684 317.838,364.929 " fill="none" id="REST-web_container" style="stroke: #A80036; stroke-width: 1.0;"/><polygon fill="#A80036" points="321.554,368.3,317.575,359.2907,317.8505,364.9408,312.2003,365.2163,321.554,368.3" style="stroke: #A80036; stroke-width: 1.0;"/><!--link socket to web_container--><path d="M340.5,202.328 C340.5,239.225 340.5,322.407 340.5,363.138 " fill="none" id="socket-web_container" style="stroke: #A80036; stroke-width: 1.0;"/><polygon fill="#A80036" points="340.5,368.36,344.5,359.36,340.5,363.36,336.5,359.36,340.5,368.36" style="stroke: #A80036; stroke-width: 1.0;"/><!--link cpl_dmimage to ailtireswarm--><path d="M197.539,550.398 C200.53,564.499 203.804,579.932 206.313,591.7594 " fill="none" id="cpl_dmimage-ailtireswarm" style="stroke: #A80036; stroke-width: 1.0;"/><polygon fill="none" points="190.654,551.675,193.352,530.658,204.35,548.77,190.654,551.675" style="stroke: #A80036; stroke-width: 1.0;"/><!--link cpl_dm_container to cpl_dmimage--><path d="M166.864,415.273 C171.998,436.871 179.143,466.931 184.024,487.465 " fill="none" id="cpl_dm_container-cpl_dmimage" style="stroke: #A80036; stroke-width: 1.0;"/><polygon fill="#A80036" points="185.214,492.469,187.0253,482.7881,184.0582,487.6044,179.2419,484.6374,185.214,492.469" style="stroke: #A80036; stroke-width: 1.0;"/><!--link web_container to cpl_dm_web--><path d="M336.221,406.502 C331.241,427.453 322.987,462.173 317.401,485.676 " fill="none" id="web_container-cpl_dm_web" style="stroke: #A80036; stroke-width: 1.0;"/><polygon fill="#A80036" points="316.182,490.805,322.1563,482.975,317.3391,485.9407,314.3734,481.1236,316.182,490.805" style="stroke: #A80036; stroke-width: 1.0;"/><!--link CLI to binName--><path d="M160.5,47.098 C160.5,69.432 160.5,132.318 160.5,163.705 " fill="none" id="CLI-binName" style="stroke: #A80036; stroke-width: 1.0;"/><text fill="#000000" font-family="sans-serif" font-size="13" lengthAdjust="spacingAndGlyphs" textLength="100" x="43.275" y="45.0151">edgemere cpl dm</text><!--link Web to REST--><path d="M29.5234,281 C61.6707,281 93.8179,281 125.965,281 " fill="none" id="Web-REST" style="stroke: #A80036; stroke-width: 1.0;"/><text fill="#000000" font-family="sans-serif" font-size="13" lengthAdjust="spacingAndGlyphs" textLength="104" x="37.2808" y="272.2135">/edgemere/cpl/dm</text><!--link WebSocket to socket--><path d="M340.5,47.098 C340.5,69.432 340.5,132.318 340.5,163.705 " fill="none" id="WebSocket-socket" style="stroke: #A80036; stroke-width: 1.0;"/><text fill="#000000" font-family="sans-serif" font-size="13" lengthAdjust="spacingAndGlyphs" textLength="104" x="219.275" y="45.0151">.edgemere.cpl.dm</text><!--
@startuml
  interface CLI
  interface Web
  interface WebSocket
package "Device Manager" #lightgray {
  component express as REST
  component socket.io as socket
  folder bin #ffffff {
    component " edgemere cpl dm" as binName
  }
  binName - -> REST

  folder deploy #ffffff {
      file "node server.js\ndocker-compose.yml" as cpl_dm_container
      REST - -> cpl_dm_container

  
    file "node web/server.js" as web_container
    REST - -> web_container
    socket - - -> web_container
  
  }
  folder images #ffffff {
    collections "cpl_dm" as cpl_dmimage
    artifact "ailtire:swarm" as ailtireswarm
    cpl_dmimage <|- - ailtireswarm
    cpl_dm_container - -> cpl_dmimage

  
      artifact cpl_dm_web
      web_container - -> cpl_dm_web
    
  }
}
CLI " edgemere cpl dm" - - binName
Web "/edgemere/cpl/dm" - REST
WebSocket ".edgemere.cpl.dm" - - socket

@enduml

PlantUML version 1.2019.05(Sat Apr 20 09:45:36 PDT 2019)
(GPL source distribution)
Java Runtime: OpenJDK Runtime Environment
JVM: OpenJDK 64-Bit Server VM
Java Version: 12.0.1+12
Operating System: Windows 10
OS Version: 10.0
Default Encoding: Cp1252
Language: en
Country: US
--></g></svg>