<?xml version="1.0" encoding="UTF-8" standalone="no"?><svg xmlns="http://www.w3.org/2000/svg" xmlns:xlink="http://www.w3.org/1999/xlink" contentScriptType="application/ecmascript" contentStyleType="text/css" height="731px" preserveAspectRatio="none" style="width:701px;height:731px;" version="1.1" viewBox="0 0 701 731" width="701px" zoomAndPan="magnify"><defs><filter height="300%" id="f2kx9bryypaa3" width="300%" x="-1" y="-1"><feGaussianBlur result="blurOut" stdDeviation="2.0"/><feColorMatrix in="blurOut" result="blurOut2" type="matrix" values="0 0 0 0 0 0 0 0 0 0 0 0 0 0 0 0 0 0 .4 0"/><feOffset dx="4.0" dy="4.0" in="blurOut2" result="blurOut3"/><feBlend in="SourceGraphic" in2="blurOut3" mode="normal"/></filter></defs><g><!--cluster Data Management Layer--><polygon fill="#FFCC88" filter="url(#f2kx9bryypaa3)" points="157,619,331,619,338,642.6094,398,642.6094,398,719,157,719,157,619" style="stroke: #000000; stroke-width: 1.5;"/><line style="stroke: #000000; stroke-width: 1.5;" x1="157" x2="338" y1="642.6094" y2="642.6094"/><text fill="#000000" font-family="sans-serif" font-size="14" font-weight="bold" lengthAdjust="spacingAndGlyphs" textLength="168" x="161" y="635.5332">Data Management Layer</text><!--cluster Data Orchestrator--><polygon fill="#ADD8E6" filter="url(#f2kx9bryypaa3)" points="22,65,153,65,160,88.6094,445,88.6094,445,569,22,569,22,65" style="stroke: #000000; stroke-width: 1.5;"/><line style="stroke: #000000; stroke-width: 1.5;" x1="22" x2="160" y1="88.6094" y2="88.6094"/><text fill="#000000" font-family="sans-serif" font-size="14" font-weight="bold" lengthAdjust="spacingAndGlyphs" textLength="125" x="26" y="81.5332">Data Orchestrator</text><!--cluster Data Definition Framework--><polygon fill="#FFCC88" filter="url(#f2kx9bryypaa3)" points="478,301.5,669,301.5,676,325.1094,679,325.1094,679,401.5,478,401.5,478,301.5" style="stroke: #000000; stroke-width: 1.5;"/><line style="stroke: #000000; stroke-width: 1.5;" x1="478" x2="676" y1="325.1094" y2="325.1094"/><text fill="#000000" font-family="sans-serif" font-size="14" font-weight="bold" lengthAdjust="spacingAndGlyphs" textLength="185" x="482" y="318.0332">Data Definition Framework</text><!--class DataReference--><rect fill="#FEFECE" filter="url(#f2kx9bryypaa3)" height="48" id="DataReference" style="stroke: #A80036; stroke-width: 1.5;" width="115" x="173.5" y="655"/><ellipse cx="188.5" cy="671" fill="#ADD1B2" rx="11" ry="11" style="stroke: #A80036; stroke-width: 1.0;"/><path d="M191.2656,666.875 Q191.4219,666.6563 191.6094,666.5469 Q191.7969,666.4375 192.0156,666.4375 Q192.3906,666.4375 192.625,666.7031 Q192.8594,666.9531 192.8594,667.5625 L192.8594,669.0156 Q192.8594,669.625 192.625,669.8906 Q192.3906,670.1563 192.0156,670.1563 Q191.6719,670.1563 191.4688,669.9531 Q191.2656,669.7656 191.1563,669.25 Q191.1094,668.8906 190.9219,668.7031 Q190.5938,668.3281 189.9844,668.1094 Q189.375,667.8906 188.75,667.8906 Q187.9844,667.8906 187.3438,668.2188 Q186.7188,668.5469 186.2188,669.2969 Q185.7344,670.0469 185.7344,671.0781 L185.7344,672.1719 Q185.7344,673.4063 186.625,674.2344 Q187.5156,675.0469 189.1094,675.0469 Q190.0469,675.0469 190.7031,674.7969 Q191.0938,674.6406 191.5156,674.2031 Q191.7813,673.9375 191.9219,673.8594 Q192.0781,673.7813 192.2813,673.7813 Q192.6094,673.7813 192.8594,674.0469 Q193.125,674.2969 193.125,674.6406 Q193.125,674.9844 192.7813,675.3906 Q192.2813,675.9688 191.4844,676.2969 Q190.4063,676.75 189.1094,676.75 Q187.5938,676.75 186.3906,676.125 Q185.4063,675.625 184.7188,674.5625 Q184.0313,673.4844 184.0313,672.2031 L184.0313,671.0469 Q184.0313,669.7188 184.6406,668.5781 Q185.2656,667.4219 186.3594,666.8125 Q187.4531,666.1875 188.6875,666.1875 Q189.4219,666.1875 190.0625,666.3594 Q190.7188,666.5156 191.2656,666.875 Z "/><text fill="#000000" font-family="sans-serif" font-size="12" lengthAdjust="spacingAndGlyphs" textLength="83" x="202.5" y="675.9102">DataReference</text><line style="stroke: #A80036; stroke-width: 1.5;" x1="174.5" x2="287.5" y1="687" y2="687"/><line style="stroke: #A80036; stroke-width: 1.5;" x1="174.5" x2="287.5" y1="695" y2="695"/><!--class Data--><rect fill="#FEFECE" filter="url(#f2kx9bryypaa3)" height="48" id="Data" style="stroke: #A80036; stroke-width: 1.5;" width="58" x="324" y="655"/><ellipse cx="339" cy="671" fill="#ADD1B2" rx="11" ry="11" style="stroke: #A80036; stroke-width: 1.0;"/><path d="M341.7656,666.875 Q341.9219,666.6563 342.1094,666.5469 Q342.2969,666.4375 342.5156,666.4375 Q342.8906,666.4375 343.125,666.7031 Q343.3594,666.9531 343.3594,667.5625 L343.3594,669.0156 Q343.3594,669.625 343.125,669.8906 Q342.8906,670.1563 342.5156,670.1563 Q342.1719,670.1563 341.9688,669.9531 Q341.7656,669.7656 341.6563,669.25 Q341.6094,668.8906 341.4219,668.7031 Q341.0938,668.3281 340.4844,668.1094 Q339.875,667.8906 339.25,667.8906 Q338.4844,667.8906 337.8438,668.2188 Q337.2188,668.5469 336.7188,669.2969 Q336.2344,670.0469 336.2344,671.0781 L336.2344,672.1719 Q336.2344,673.4063 337.125,674.2344 Q338.0156,675.0469 339.6094,675.0469 Q340.5469,675.0469 341.2031,674.7969 Q341.5938,674.6406 342.0156,674.2031 Q342.2813,673.9375 342.4219,673.8594 Q342.5781,673.7813 342.7813,673.7813 Q343.1094,673.7813 343.3594,674.0469 Q343.625,674.2969 343.625,674.6406 Q343.625,674.9844 343.2813,675.3906 Q342.7813,675.9688 341.9844,676.2969 Q340.9063,676.75 339.6094,676.75 Q338.0938,676.75 336.8906,676.125 Q335.9063,675.625 335.2188,674.5625 Q334.5313,673.4844 334.5313,672.2031 L334.5313,671.0469 Q334.5313,669.7188 335.1406,668.5781 Q335.7656,667.4219 336.8594,666.8125 Q337.9531,666.1875 339.1875,666.1875 Q339.9219,666.1875 340.5625,666.3594 Q341.2188,666.5156 341.7656,666.875 Z "/><text fill="#000000" font-family="sans-serif" font-size="12" lengthAdjust="spacingAndGlyphs" textLength="26" x="353" y="675.9102">Data</text><line style="stroke: #A80036; stroke-width: 1.5;" x1="325" x2="381" y1="687" y2="687"/><line style="stroke: #A80036; stroke-width: 1.5;" x1="325" x2="381" y1="695" y2="695"/><!--class DataReservation--><rect fill="#FEFECE" filter="url(#f2kx9bryypaa3)" height="61.8359" id="DataReservation" style="stroke: #A80036; stroke-width: 1.5;" width="124" x="305" y="135.5"/><ellipse cx="320" cy="151.5" fill="#ADD1B2" rx="11" ry="11" style="stroke: #A80036; stroke-width: 1.0;"/><path d="M322.7656,147.375 Q322.9219,147.1563 323.1094,147.0469 Q323.2969,146.9375 323.5156,146.9375 Q323.8906,146.9375 324.125,147.2031 Q324.3594,147.4531 324.3594,148.0625 L324.3594,149.5156 Q324.3594,150.125 324.125,150.3906 Q323.8906,150.6563 323.5156,150.6563 Q323.1719,150.6563 322.9688,150.4531 Q322.7656,150.2656 322.6563,149.75 Q322.6094,149.3906 322.4219,149.2031 Q322.0938,148.8281 321.4844,148.6094 Q320.875,148.3906 320.25,148.3906 Q319.4844,148.3906 318.8438,148.7188 Q318.2188,149.0469 317.7188,149.7969 Q317.2344,150.5469 317.2344,151.5781 L317.2344,152.6719 Q317.2344,153.9063 318.125,154.7344 Q319.0156,155.5469 320.6094,155.5469 Q321.5469,155.5469 322.2031,155.2969 Q322.5938,155.1406 323.0156,154.7031 Q323.2813,154.4375 323.4219,154.3594 Q323.5781,154.2813 323.7813,154.2813 Q324.1094,154.2813 324.3594,154.5469 Q324.625,154.7969 324.625,155.1406 Q324.625,155.4844 324.2813,155.8906 Q323.7813,156.4688 322.9844,156.7969 Q321.9063,157.25 320.6094,157.25 Q319.0938,157.25 317.8906,156.625 Q316.9063,156.125 316.2188,155.0625 Q315.5313,153.9844 315.5313,152.7031 L315.5313,151.5469 Q315.5313,150.2188 316.1406,149.0781 Q316.7656,147.9219 317.8594,147.3125 Q318.9531,146.6875 320.1875,146.6875 Q320.9219,146.6875 321.5625,146.8594 Q322.2188,147.0156 322.7656,147.375 Z "/><text fill="#000000" font-family="sans-serif" font-size="12" lengthAdjust="spacingAndGlyphs" textLength="92" x="334" y="156.4102">DataReservation</text><line style="stroke: #A80036; stroke-width: 1.5;" x1="306" x2="428" y1="167.5" y2="167.5"/><text fill="#000000" font-family="sans-serif" font-size="11" lengthAdjust="spacingAndGlyphs" textLength="60" x="311" y="182.9189">number cost</text><line style="stroke: #A80036; stroke-width: 1.5;" x1="306" x2="428" y1="189.3359" y2="189.3359"/><!--class DataInstance--><rect fill="#FEFECE" filter="url(#f2kx9bryypaa3)" height="61.8359" id="DataInstance" style="stroke: #A80036; stroke-width: 1.5;" width="105" x="128.5" y="491"/><ellipse cx="143.5" cy="507" fill="#ADD1B2" rx="11" ry="11" style="stroke: #A80036; stroke-width: 1.0;"/><path d="M146.2656,502.875 Q146.4219,502.6563 146.6094,502.5469 Q146.7969,502.4375 147.0156,502.4375 Q147.3906,502.4375 147.625,502.7031 Q147.8594,502.9531 147.8594,503.5625 L147.8594,505.0156 Q147.8594,505.625 147.625,505.8906 Q147.3906,506.1563 147.0156,506.1563 Q146.6719,506.1563 146.4688,505.9531 Q146.2656,505.7656 146.1563,505.25 Q146.1094,504.8906 145.9219,504.7031 Q145.5938,504.3281 144.9844,504.1094 Q144.375,503.8906 143.75,503.8906 Q142.9844,503.8906 142.3438,504.2188 Q141.7188,504.5469 141.2188,505.2969 Q140.7344,506.0469 140.7344,507.0781 L140.7344,508.1719 Q140.7344,509.4063 141.625,510.2344 Q142.5156,511.0469 144.1094,511.0469 Q145.0469,511.0469 145.7031,510.7969 Q146.0938,510.6406 146.5156,510.2031 Q146.7813,509.9375 146.9219,509.8594 Q147.0781,509.7813 147.2813,509.7813 Q147.6094,509.7813 147.8594,510.0469 Q148.125,510.2969 148.125,510.6406 Q148.125,510.9844 147.7813,511.3906 Q147.2813,511.9688 146.4844,512.2969 Q145.4063,512.75 144.1094,512.75 Q142.5938,512.75 141.3906,512.125 Q140.4063,511.625 139.7188,510.5625 Q139.0313,509.4844 139.0313,508.2031 L139.0313,507.0469 Q139.0313,505.7188 139.6406,504.5781 Q140.2656,503.4219 141.3594,502.8125 Q142.4531,502.1875 143.6875,502.1875 Q144.4219,502.1875 145.0625,502.3594 Q145.7188,502.5156 146.2656,502.875 Z "/><text fill="#000000" font-family="sans-serif" font-size="12" lengthAdjust="spacingAndGlyphs" textLength="73" x="157.5" y="511.9102">DataInstance</text><line style="stroke: #A80036; stroke-width: 1.5;" x1="129.5" x2="232.5" y1="523" y2="523"/><text fill="#000000" font-family="sans-serif" font-size="11" lengthAdjust="spacingAndGlyphs" textLength="56" x="134.5" y="538.4189">string name</text><line style="stroke: #A80036; stroke-width: 1.5;" x1="129.5" x2="232.5" y1="544.8359" y2="544.8359"/><!--class DataRequest--><rect fill="#FEFECE" filter="url(#f2kx9bryypaa3)" height="103.3438" id="DataRequest" style="stroke: #A80036; stroke-width: 1.5;" width="105" x="231.5" y="310"/><ellipse cx="246.5" cy="326" fill="#ADD1B2" rx="11" ry="11" style="stroke: #A80036; stroke-width: 1.0;"/><path d="M249.2656,321.875 Q249.4219,321.6563 249.6094,321.5469 Q249.7969,321.4375 250.0156,321.4375 Q250.3906,321.4375 250.625,321.7031 Q250.8594,321.9531 250.8594,322.5625 L250.8594,324.0156 Q250.8594,324.625 250.625,324.8906 Q250.3906,325.1563 250.0156,325.1563 Q249.6719,325.1563 249.4688,324.9531 Q249.2656,324.7656 249.1563,324.25 Q249.1094,323.8906 248.9219,323.7031 Q248.5938,323.3281 247.9844,323.1094 Q247.375,322.8906 246.75,322.8906 Q245.9844,322.8906 245.3438,323.2188 Q244.7188,323.5469 244.2188,324.2969 Q243.7344,325.0469 243.7344,326.0781 L243.7344,327.1719 Q243.7344,328.4063 244.625,329.2344 Q245.5156,330.0469 247.1094,330.0469 Q248.0469,330.0469 248.7031,329.7969 Q249.0938,329.6406 249.5156,329.2031 Q249.7813,328.9375 249.9219,328.8594 Q250.0781,328.7813 250.2813,328.7813 Q250.6094,328.7813 250.8594,329.0469 Q251.125,329.2969 251.125,329.6406 Q251.125,329.9844 250.7813,330.3906 Q250.2813,330.9688 249.4844,331.2969 Q248.4063,331.75 247.1094,331.75 Q245.5938,331.75 244.3906,331.125 Q243.4063,330.625 242.7188,329.5625 Q242.0313,328.4844 242.0313,327.2031 L242.0313,326.0469 Q242.0313,324.7188 242.6406,323.5781 Q243.2656,322.4219 244.3594,321.8125 Q245.4531,321.1875 246.6875,321.1875 Q247.4219,321.1875 248.0625,321.3594 Q248.7188,321.5156 249.2656,321.875 Z "/><text fill="#000000" font-family="sans-serif" font-size="12" lengthAdjust="spacingAndGlyphs" textLength="73" x="260.5" y="330.9102">DataRequest</text><line style="stroke: #A80036; stroke-width: 1.5;" x1="232.5" x2="335.5" y1="342" y2="342"/><text fill="#000000" font-family="sans-serif" font-size="11" lengthAdjust="spacingAndGlyphs" textLength="56" x="237.5" y="357.4189">string name</text><text fill="#000000" font-family="sans-serif" font-size="11" lengthAdjust="spacingAndGlyphs" textLength="62" x="237.5" y="371.2549">string ename</text><text fill="#000000" font-family="sans-serif" font-size="11" lengthAdjust="spacingAndGlyphs" textLength="51" x="237.5" y="385.0908">json query</text><text fill="#000000" font-family="sans-serif" font-size="11" lengthAdjust="spacingAndGlyphs" textLength="74" x="237.5" y="398.9268">string message</text><line style="stroke: #A80036; stroke-width: 1.5;" x1="232.5" x2="335.5" y1="405.3438" y2="405.3438"/><!--class i--><rect fill="#FEFECE" filter="url(#f2kx9bryypaa3)" height="131.0156" id="i" style="stroke: #A80036; stroke-width: 1.5;" width="231" x="38.5" y="101"/><ellipse cx="101.75" cy="117" fill="#B4A7E5" rx="11" ry="11" style="stroke: #A80036; stroke-width: 1.0;"/><path d="M102.7031,113.6406 L102.7031,120.2969 L104.4219,120.2969 Q105.0313,120.2969 105.2969,120.5313 Q105.5625,120.7656 105.5625,121.1563 Q105.5625,121.5313 105.2969,121.7656 Q105.0313,122 104.4219,122 L99.2813,122 Q98.6719,122 98.4063,121.7656 Q98.1406,121.5313 98.1406,121.1406 Q98.1406,120.7656 98.4063,120.5313 Q98.6719,120.2969 99.2813,120.2969 L101,120.2969 L101,113.6406 L99.2813,113.6406 Q98.6719,113.6406 98.4063,113.4063 Q98.1406,113.1719 98.1406,112.7813 Q98.1406,112.4063 98.4063,112.1719 Q98.6719,111.9375 99.2813,111.9375 L104.4219,111.9375 Q105.0313,111.9375 105.2969,112.1719 Q105.5625,112.4063 105.5625,112.7813 Q105.5625,113.1719 105.2969,113.4063 Q105.0313,113.6406 104.4219,113.6406 L102.7031,113.6406 Z "/><text fill="#000000" font-family="sans-serif" font-size="12" font-style="italic" lengthAdjust="spacingAndGlyphs" textLength="96" x="122.25" y="121.9102">Data Orchestrator</text><line style="stroke: #A80036; stroke-width: 1.5;" x1="39.5" x2="268.5" y1="133" y2="133"/><line style="stroke: #A80036; stroke-width: 1.5;" x1="39.5" x2="268.5" y1="141" y2="141"/><text fill="#000000" font-family="sans-serif" font-size="11" lengthAdjust="spacingAndGlyphs" textLength="158" x="44.5" y="156.4189">/edgemere/diml/dml/do/evaluate()</text><text fill="#000000" font-family="sans-serif" font-size="11" lengthAdjust="spacingAndGlyphs" textLength="155" x="44.5" y="170.2549">/edgemere/diml/dml/do/reserve()</text><text fill="#000000" font-family="sans-serif" font-size="11" lengthAdjust="spacingAndGlyphs" textLength="213" x="44.5" y="184.0908">/edgemere/diml/dml/do/datainstance/create()</text><text fill="#000000" font-family="sans-serif" font-size="11" lengthAdjust="spacingAndGlyphs" textLength="219" x="44.5" y="197.9268">/edgemere/diml/dml/do/datainstance/destroy()</text><text fill="#000000" font-family="sans-serif" font-size="11" lengthAdjust="spacingAndGlyphs" textLength="200" x="44.5" y="211.7627">/edgemere/diml/dml/do/datainstance/find()</text><text fill="#000000" font-family="sans-serif" font-size="11" lengthAdjust="spacingAndGlyphs" textLength="195" x="44.5" y="225.5986">/edgemere/diml/dml/do/datainstance/list()</text><!--class DataSource--><rect fill="#FEFECE" filter="url(#f2kx9bryypaa3)" height="48" id="DataSource" style="stroke: #A80036; stroke-width: 1.5;" width="97" x="495.5" y="337.5"/><ellipse cx="510.5" cy="353.5" fill="#ADD1B2" rx="11" ry="11" style="stroke: #A80036; stroke-width: 1.0;"/><path d="M513.2656,349.375 Q513.4219,349.1563 513.6094,349.0469 Q513.7969,348.9375 514.0156,348.9375 Q514.3906,348.9375 514.625,349.2031 Q514.8594,349.4531 514.8594,350.0625 L514.8594,351.5156 Q514.8594,352.125 514.625,352.3906 Q514.3906,352.6563 514.0156,352.6563 Q513.6719,352.6563 513.4688,352.4531 Q513.2656,352.2656 513.1563,351.75 Q513.1094,351.3906 512.9219,351.2031 Q512.5938,350.8281 511.9844,350.6094 Q511.375,350.3906 510.75,350.3906 Q509.9844,350.3906 509.3438,350.7188 Q508.7188,351.0469 508.2188,351.7969 Q507.7344,352.5469 507.7344,353.5781 L507.7344,354.6719 Q507.7344,355.9063 508.625,356.7344 Q509.5156,357.5469 511.1094,357.5469 Q512.0469,357.5469 512.7031,357.2969 Q513.0938,357.1406 513.5156,356.7031 Q513.7813,356.4375 513.9219,356.3594 Q514.0781,356.2813 514.2813,356.2813 Q514.6094,356.2813 514.8594,356.5469 Q515.125,356.7969 515.125,357.1406 Q515.125,357.4844 514.7813,357.8906 Q514.2813,358.4688 513.4844,358.7969 Q512.4063,359.25 511.1094,359.25 Q509.5938,359.25 508.3906,358.625 Q507.4063,358.125 506.7188,357.0625 Q506.0313,355.9844 506.0313,354.7031 L506.0313,353.5469 Q506.0313,352.2188 506.6406,351.0781 Q507.2656,349.9219 508.3594,349.3125 Q509.4531,348.6875 510.6875,348.6875 Q511.4219,348.6875 512.0625,348.8594 Q512.7188,349.0156 513.2656,349.375 Z "/><text fill="#000000" font-family="sans-serif" font-size="12" lengthAdjust="spacingAndGlyphs" textLength="65" x="524.5" y="358.4102">DataSource</text><line style="stroke: #A80036; stroke-width: 1.5;" x1="496.5" x2="591.5" y1="369.5" y2="369.5"/><line style="stroke: #A80036; stroke-width: 1.5;" x1="496.5" x2="591.5" y1="377.5" y2="377.5"/><ellipse cx="109" cy="13" fill="#FEFECE" filter="url(#f2kx9bryypaa3)" rx="5" ry="5" style="stroke: #A80036; stroke-width: 1.5;"/><text fill="#000000" font-family="sans-serif" font-size="12" lengthAdjust="spacingAndGlyphs" textLength="19" x="99.5" y="30.457">CLI</text><ellipse cx="154" cy="13" fill="#FEFECE" filter="url(#f2kx9bryypaa3)" rx="5" ry="5" style="stroke: #A80036; stroke-width: 1.5;"/><text fill="#000000" font-family="sans-serif" font-size="12" lengthAdjust="spacingAndGlyphs" textLength="32" x="138" y="30.457">REST</text><ellipse cx="199" cy="13" fill="#FEFECE" filter="url(#f2kx9bryypaa3)" rx="5" ry="5" style="stroke: #A80036; stroke-width: 1.5;"/><text fill="#000000" font-family="sans-serif" font-size="12" lengthAdjust="spacingAndGlyphs" textLength="25" x="186.5" y="30.457">Web</text><!--link ilol5820 to i--><path d="M110.204,18.052 C113.782,30.099 124.731,66.961 134.785,100.811 " fill="none" id="ilol5820-i" style="stroke: #A80036; stroke-width: 1.0;"/><!--link ilol5823 to i--><path d="M154,18.052 C154,30.099 154,66.961 154,100.811 " fill="none" id="ilol5823-i" style="stroke: #A80036; stroke-width: 1.0;"/><!--link ilol5826 to i--><path d="M197.796,18.052 C194.218,30.099 183.269,66.961 173.215,100.811 " fill="none" id="ilol5826-i" style="stroke: #A80036; stroke-width: 1.0;"/><!--link DataInstance to DataReference--><path d="M156.645,565.415 C152.558,577.702 151.041,591.027 156,603 C162.851,619.539 175.315,634.333 188.14,646.3218 " fill="none" id="DataInstance-DataReference" style="stroke: #A80036; stroke-width: 1.0;"/><polygon fill="#A80036" points="197.932,654.9252,193.8109,645.98,194.1758,651.6251,188.5307,651.9899,197.932,654.9252" style="stroke: #A80036; stroke-width: 1.0;"/><line style="stroke: #A80036; stroke-width: 1.0;" x1="194.1758" x2="188.166" y1="651.6251" y2="646.3443"/><polygon fill="#FFFFFF" points="161.672,553.086,155.7025,557.1314,157.1408,564.1976,163.1103,560.1522,161.672,553.086" style="stroke: #A80036; stroke-width: 1.0;"/><text fill="#000000" font-family="sans-serif" font-size="13" lengthAdjust="spacingAndGlyphs" textLength="53" x="157" y="599.4951">reference</text><text fill="#000000" font-family="sans-serif" font-size="13" lengthAdjust="spacingAndGlyphs" textLength="7" x="181.5614" y="644.2462">1</text><!--link DataInstance to Data--><path d="M236.346,560.665 C266.866,581.665 299.821,604.811 306,611 C315.686,620.702 324.747,632.608 332.278,643.6783 " fill="none" id="DataInstance-Data" style="stroke: #A80036; stroke-width: 1.0;"/><polygon fill="#A80036" points="339.535,654.7851,337.9608,645.0629,336.8001,650.5994,331.2636,649.4387,339.535,654.7851" style="stroke: #A80036; stroke-width: 1.0;"/><line style="stroke: #A80036; stroke-width: 1.0;" x1="336.8001" x2="332.424" y1="650.5994" y2="643.9022"/><polygon fill="#FFFFFF" points="225.266,553.061,227.9492,559.7543,235.1596,559.8519,232.4764,553.1586,225.266,553.061" style="stroke: #A80036; stroke-width: 1.0;"/><text fill="#000000" font-family="sans-serif" font-size="13" lengthAdjust="spacingAndGlyphs" textLength="25" x="297" y="599.4951">data</text><text fill="#000000" font-family="sans-serif" font-size="13" lengthAdjust="spacingAndGlyphs" textLength="7" x="328.1877" y="644.0702">n</text><!--link DataRequest to DataReference--><path d="M293.36,426.147 C298.291,475.547 300.074,545.134 282,603 C277.399,617.729 268.847,632.172 260.043,644.3899 " fill="none" id="DataRequest-DataReference" style="stroke: #A80036; stroke-width: 1.0;"/><polygon fill="#A80036" points="251.993,654.9288,260.6351,650.2051,255.0283,650.9555,254.2779,645.3486,251.993,654.9288" style="stroke: #A80036; stroke-width: 1.0;"/><line style="stroke: #A80036; stroke-width: 1.0;" x1="255.0283" x2="259.8845" y1="650.9555" y2="644.5978"/><polygon fill="#FFFFFF" points="291.937,413.094,288.6106,419.4921,293.2371,425.0234,296.5635,418.6253,291.937,413.094" style="stroke: #A80036; stroke-width: 1.0;"/><text fill="#000000" font-family="sans-serif" font-size="13" lengthAdjust="spacingAndGlyphs" textLength="83" x="298" y="527.4951">dataReference</text><text fill="#000000" font-family="sans-serif" font-size="13" lengthAdjust="spacingAndGlyphs" textLength="7" x="249.4756" y="644.2507">1</text><!--link DataRequest to DataReservation--><path d="M310.94,297.857 C323.363,268.97 337.779,235.447 348.881,209.631 " fill="none" id="DataRequest-DataReservation" style="stroke: #A80036; stroke-width: 1.0;"/><polygon fill="#A80036" points="354.031,197.656,346.8009,204.3438,352.0558,202.2493,354.1502,207.5041,354.031,197.656" style="stroke: #A80036; stroke-width: 1.0;"/><line style="stroke: #A80036; stroke-width: 1.0;" x1="352.0558" x2="348.895" y1="202.2493" y2="209.5985"/><polygon fill="#A80036" points="305.753,309.918,311.7979,305.9862,310.4936,298.8941,304.4486,302.8258,305.753,309.918" style="stroke: #A80036; stroke-width: 1.0;"/><text fill="#000000" font-family="sans-serif" font-size="13" lengthAdjust="spacingAndGlyphs" textLength="69" x="326" y="276.4951">reservations</text><text fill="#000000" font-family="sans-serif" font-size="13" lengthAdjust="spacingAndGlyphs" textLength="7" x="343.7887" y="218.9107">n</text><!--link DataReservation to DataRequest--><path d="M319.403,206.054 C296.555,225.755 272.866,248.385 267,262 C262.335,272.827 261.343,284.844 262.403,296.657 " fill="none" id="DataReservation-DataRequest" style="stroke: #A80036; stroke-width: 1.0;"/><polygon fill="#A80036" points="264.386,309.833,267.0024,300.338,263.6421,304.8887,259.0914,301.5283,264.386,309.833" style="stroke: #A80036; stroke-width: 1.0;"/><line style="stroke: #A80036; stroke-width: 1.0;" x1="263.6421" x2="262.4515" y1="304.8887" y2="296.978"/><polygon fill="#FFFFFF" points="329.431,197.538,322.2684,198.3728,320.2841,205.3055,327.4467,204.4707,329.431,197.538" style="stroke: #A80036; stroke-width: 1.0;"/><text fill="#000000" font-family="sans-serif" font-size="13" lengthAdjust="spacingAndGlyphs" textLength="43" x="268" y="276.4951">request</text><text fill="#000000" font-family="sans-serif" font-size="13" lengthAdjust="spacingAndGlyphs" textLength="7" x="254.2801" y="299.3109">1</text><!--link DataRequest to DataInstance--><path d="M233.147,423.829 C228.523,430.177 224.059,436.635 220,443 C212.81,454.274 205.94,467.053 200.023,478.957 " fill="none" id="DataRequest-DataInstance" style="stroke: #A80036; stroke-width: 1.0;"/><polygon fill="#A80036" points="194.23,490.945,201.7479,484.5826,196.4059,486.4433,194.5452,481.1012,194.23,490.945" style="stroke: #A80036; stroke-width: 1.0;"/><line style="stroke: #A80036; stroke-width: 1.0;" x1="196.4059" x2="199.8865" y1="486.4433" y2="479.24"/><polygon fill="#FFFFFF" points="241.038,413.288,234.2401,415.6938,233.8462,422.8942,240.6442,420.4883,241.038,413.288" style="stroke: #A80036; stroke-width: 1.0;"/><text fill="#000000" font-family="sans-serif" font-size="13" lengthAdjust="spacingAndGlyphs" textLength="56" x="221" y="457.4951">instances</text><text fill="#000000" font-family="sans-serif" font-size="13" lengthAdjust="spacingAndGlyphs" textLength="7" x="189.3584" y="479.9532">n</text><!--link DataReservation to Data--><path d="M387.481,209.876 C394.142,225.828 400.673,244.377 404,262 C405.484,269.861 404.188,272.002 404,280 C400.888,412.11 416.141,447.465 390,577 C385.446,599.566 376.698,623.82 368.851,642.903 " fill="none" id="DataReservation-Data" style="stroke: #A80036; stroke-width: 1.0;"/><polygon fill="#A80036" points="363.752,654.9148,370.9509,648.1935,365.7059,650.3124,363.5871,645.0673,363.752,654.9148" style="stroke: #A80036; stroke-width: 1.0;"/><line style="stroke: #A80036; stroke-width: 1.0;" x1="365.7059" x2="368.832" y1="650.3124" y2="642.9484"/><polygon fill="#FFFFFF" points="382.17,197.707,380.904,204.8061,386.9701,208.7051,388.2361,201.606,382.17,197.707" style="stroke: #A80036; stroke-width: 1.0;"/><text fill="#000000" font-family="sans-serif" font-size="13" lengthAdjust="spacingAndGlyphs" textLength="25" x="406" y="457.4951">data</text><text fill="#000000" font-family="sans-serif" font-size="13" lengthAdjust="spacingAndGlyphs" textLength="7" x="358.6103" y="644.2331">1</text><!--link DataReservation to DataSource--><path d="M411.746,206.494 C429.851,222.995 450.553,242.812 468,262 C486.671,282.535 505.746,307.272 520.116,326.818 " fill="none" id="DataReservation-DataSource" style="stroke: #A80036; stroke-width: 1.0;"/><polygon fill="#A80036" points="527.788,337.37,525.73,327.7386,524.8474,333.3261,519.2598,332.4435,527.788,337.37" style="stroke: #A80036; stroke-width: 1.0;"/><line style="stroke: #A80036; stroke-width: 1.0;" x1="524.8474" x2="520.143" y1="333.3261" y2="326.855"/><polygon fill="#FFFFFF" points="401.992,197.694,403.767,204.6832,410.9013,205.7329,409.1263,198.7437,401.992,197.694" style="stroke: #A80036; stroke-width: 1.0;"/><text fill="#000000" font-family="sans-serif" font-size="13" lengthAdjust="spacingAndGlyphs" textLength="39" x="484" y="276.4951">source</text><text fill="#000000" font-family="sans-serif" font-size="13" lengthAdjust="spacingAndGlyphs" textLength="7" x="515.7368" y="326.6768">1</text><!--
@startuml


package "Data Management Layer" #ffcc88 {
    
        class DataReference {
        }
    
        class Data {
        }
    }

package "Data Orchestrator" #lightblue {
    
        class DataReservation {
        }
    
        class DataInstance {
        }
    
        class DataRequest {
        }
    }

package "Data Definition Framework" #ffcc88 {
    
        class DataSource {
        }
    }


package "Data Orchestrator" #lightblue {

    interface "Data Orchestrator" as i {
            /edgemere/diml/dml/do/evaluate()
            /edgemere/diml/dml/do/reserve()
            /edgemere/diml/dml/do/datainstance/create()
            /edgemere/diml/dml/do/datainstance/destroy()
            /edgemere/diml/dml/do/datainstance/find()
            /edgemere/diml/dml/do/datainstance/list()
    
    }
}

CLI ()- - i
REST ()- - i
Web ()- - i

package "Data Orchestrator" #lightblue {
        class "DataInstance" {
                 string name
                    }
                DataInstance o- -> "1" DataReference : reference
                        DataInstance o- -> "n" Data : data
            
    
    class "DataRequest" {
                 string name
                 string ename
                 json query
                 string message
                    }
                DataRequest o- -> "1" DataReference : dataReference
                        DataRequest *- -> "n" DataReservation : reservations
                        DataRequest o- -> "n" DataInstance : instances
            
    
    class "DataReservation" {
                 number cost
                    }
                DataReservation o- -> "1" Data : data
                        DataReservation o- -> "1" DataSource : source
                        DataReservation o- -> "1" DataRequest : request
            
    

}



@enduml

PlantUML version 1.2019.05(Sat Apr 20 09:45:36 PDT 2019)
(GPL source distribution)
Java Runtime: OpenJDK Runtime Environment
JVM: OpenJDK 64-Bit Server VM
Java Version: 12.0.1+12
Operating System: Windows 10
OS Version: 10.0
Default Encoding: Cp1252
Language: en
Country: US
--></g></svg>