<?xml version="1.0" encoding="UTF-8" standalone="no"?><svg xmlns="http://www.w3.org/2000/svg" xmlns:xlink="http://www.w3.org/1999/xlink" contentScriptType="application/ecmascript" contentStyleType="text/css" height="967px" preserveAspectRatio="none" style="width:555px;height:967px;" version="1.1" viewBox="0 0 555 967" width="555px" zoomAndPan="magnify"><defs><filter height="300%" id="f1ca5eg7017mot" width="300%" x="-1" y="-1"><feGaussianBlur result="blurOut" stdDeviation="2.0"/><feColorMatrix in="blurOut" result="blurOut2" type="matrix" values="0 0 0 0 0 0 0 0 0 0 0 0 0 0 0 0 0 0 .4 0"/><feOffset dx="4.0" dy="4.0" in="blurOut2" result="blurOut3"/><feBlend in="SourceGraphic" in2="blurOut3" mode="normal"/></filter></defs><g><!--cluster DataScientist--><rect fill="#FEFECE" filter="url(#f1ca5eg7017mot)" height="102" rx="12.5" ry="12.5" style="stroke: #A80036; stroke-width: 1.5;" width="201" x="67" y="24"/><rect fill="#FFFFFF" height="68.3906" rx="12.5" ry="12.5" style="stroke: #FFFFFF; stroke-width: 1.0;" width="195" x="70" y="54.6094"/><line style="stroke: #A80036; stroke-width: 1.5;" x1="67" x2="268" y1="51.6094" y2="51.6094"/><text fill="#000000" font-family="sans-serif" font-size="14" lengthAdjust="spacingAndGlyphs" textLength="83" x="126" y="42.5332">DataScientist</text><!--cluster diml--><rect fill="#FFCC88" filter="url(#f1ca5eg7017mot)" height="561" rx="12.5" ry="12.5" style="stroke: #A80036; stroke-width: 1.5;" width="521.5" x="22" y="150"/><rect fill="#FFFFFF" height="527.3906" rx="12.5" ry="12.5" style="stroke: #FFFFFF; stroke-width: 1.0;" width="515.5" x="25" y="180.6094"/><line style="stroke: #A80036; stroke-width: 1.5;" x1="22" x2="543.5" y1="177.6094" y2="177.6094"/><text fill="#000000" font-family="sans-serif" font-size="14" lengthAdjust="spacingAndGlyphs" textLength="25" x="270.25" y="168.5332">diml</text><!--cluster dimldml--><rect fill="#FFCC88" filter="url(#f1ca5eg7017mot)" height="493" rx="12.5" ry="12.5" style="stroke: #A80036; stroke-width: 1.5;" width="195" x="324.5" y="194"/><rect fill="#FFFFFF" height="459.3906" rx="12.5" ry="12.5" style="stroke: #FFFFFF; stroke-width: 1.0;" width="189" x="327.5" y="224.6094"/><line style="stroke: #A80036; stroke-width: 1.5;" x1="324.5" x2="519.5" y1="221.6094" y2="221.6094"/><text fill="#000000" font-family="sans-serif" font-size="14" lengthAdjust="spacingAndGlyphs" textLength="22" x="411" y="212.5332">dml</text><!--cluster dimldmldo--><rect fill="#ADD8E6" filter="url(#f1ca5eg7017mot)" height="425" rx="12.5" ry="12.5" style="stroke: #A80036; stroke-width: 1.5;" width="147" x="348.5" y="238"/><rect fill="#FFFFFF" height="391.3906" rx="12.5" ry="12.5" style="stroke: #FFFFFF; stroke-width: 1.0;" width="141" x="351.5" y="268.6094"/><line style="stroke: #A80036; stroke-width: 1.5;" x1="348.5" x2="495.5" y1="265.6094" y2="265.6094"/><text fill="#000000" font-family="sans-serif" font-size="14" lengthAdjust="spacingAndGlyphs" textLength="16" x="414" y="256.5332">do</text><!--cluster dimldmldodatainstance--><rect fill="#FFCC88" filter="url(#f1ca5eg7017mot)" height="357" rx="12.5" ry="12.5" style="stroke: #A80036; stroke-width: 1.5;" width="99" x="372.5" y="282"/><rect fill="#FFFFFF" height="323.3906" rx="12.5" ry="12.5" style="stroke: #FFFFFF; stroke-width: 1.0;" width="93" x="375.5" y="312.6094"/><line style="stroke: #A80036; stroke-width: 1.5;" x1="372.5" x2="471.5" y1="309.6094" y2="309.6094"/><text fill="#000000" font-family="sans-serif" font-size="14" lengthAdjust="spacingAndGlyphs" textLength="81" x="381.5" y="300.5332">datainstance</text><!--cluster Actor--><rect fill="#FFCC88" filter="url(#f1ca5eg7017mot)" height="255" rx="12.5" ry="12.5" style="stroke: #A80036; stroke-width: 1.5;" width="243" x="46" y="323"/><rect fill="#FFFFFF" height="221.3906" rx="12.5" ry="12.5" style="stroke: #FFFFFF; stroke-width: 1.0;" width="237" x="49" y="353.6094"/><line style="stroke: #A80036; stroke-width: 1.5;" x1="46" x2="289" y1="350.6094" y2="350.6094"/><text fill="#000000" font-family="sans-serif" font-size="14" lengthAdjust="spacingAndGlyphs" textLength="33" x="151" y="341.5332">Actor</text><!--cluster ActorManageDataInstances--><rect fill="#FFCC88" filter="url(#f1ca5eg7017mot)" height="187" rx="12.5" ry="12.5" style="stroke: #A80036; stroke-width: 1.5;" width="195" x="70" y="367"/><rect fill="#FFFFFF" height="153.3906" rx="12.5" ry="12.5" style="stroke: #FFFFFF; stroke-width: 1.0;" width="189" x="73" y="397.6094"/><line style="stroke: #A80036; stroke-width: 1.5;" x1="70" x2="265" y1="394.6094" y2="394.6094"/><text fill="#000000" font-family="sans-serif" font-size="14" lengthAdjust="spacingAndGlyphs" textLength="149" x="93" y="385.5332">Manage Data Instances</text><!--cluster ApplicationDeveloper--><rect fill="#FEFECE" filter="url(#f1ca5eg7017mot)" height="221" rx="12.5" ry="12.5" style="stroke: #A80036; stroke-width: 1.5;" width="266" x="34.5" y="735"/><rect fill="#FFFFFF" height="187.3906" rx="12.5" ry="12.5" style="stroke: #FFFFFF; stroke-width: 1.0;" width="260" x="37.5" y="765.6094"/><line style="stroke: #A80036; stroke-width: 1.5;" x1="34.5" x2="300.5" y1="762.6094" y2="762.6094"/><text fill="#000000" font-family="sans-serif" font-size="14" lengthAdjust="spacingAndGlyphs" textLength="134" x="100.5" y="753.5332">ApplicationDeveloper</text><!--cluster ApplicationDeveloperManageDataInstances--><rect fill="#FEFECE" filter="url(#f1ca5eg7017mot)" height="137" rx="12.5" ry="12.5" style="stroke: #A80036; stroke-width: 1.5;" width="202" x="66.5" y="787"/><rect fill="#FFFFFF" height="103.3906" rx="12.5" ry="12.5" style="stroke: #FFFFFF; stroke-width: 1.0;" width="196" x="69.5" y="817.6094"/><line style="stroke: #A80036; stroke-width: 1.5;" x1="66.5" x2="268.5" y1="814.6094" y2="814.6094"/><text fill="#000000" font-family="sans-serif" font-size="14" lengthAdjust="spacingAndGlyphs" textLength="149" x="93" y="805.5332">Manage Data Instances</text><rect fill="#FEFECE" filter="url(#f1ca5eg7017mot)" height="50" rx="12.5" ry="12.5" style="stroke: #A80036; stroke-width: 1.5;" width="169" x="83" y="60"/><line style="stroke: #A80036; stroke-width: 1.5;" x1="83" x2="252" y1="87.6094" y2="87.6094"/><text fill="#000000" font-family="sans-serif" font-size="14" lengthAdjust="spacingAndGlyphs" textLength="149" x="93" y="79.5332">Manage Data Instances</text><rect fill="#ADD8E6" filter="url(#f1ca5eg7017mot)" height="50" rx="12.5" ry="12.5" style="stroke: #A80036; stroke-width: 1.5;" width="50" x="397" y="318"/><line style="stroke: #A80036; stroke-width: 1.5;" x1="397" x2="447" y1="345.6094" y2="345.6094"/><text fill="#000000" font-family="sans-serif" font-size="14" lengthAdjust="spacingAndGlyphs" textLength="17" x="413.5" y="337.5332">list</text><rect fill="#FFCC88" filter="url(#f1ca5eg7017mot)" height="50" rx="12.5" ry="12.5" style="stroke: #A80036; stroke-width: 1.5;" width="60" x="392" y="573"/><line style="stroke: #A80036; stroke-width: 1.5;" x1="392" x2="452" y1="600.6094" y2="600.6094"/><text fill="#000000" font-family="sans-serif" font-size="14" lengthAdjust="spacingAndGlyphs" textLength="40" x="402" y="592.5332">create</text><rect fill="#FFCC88" filter="url(#f1ca5eg7017mot)" height="50" rx="12.5" ry="12.5" style="stroke: #A80036; stroke-width: 1.5;" width="50" x="397" y="488"/><line style="stroke: #A80036; stroke-width: 1.5;" x1="397" x2="447" y1="515.6094" y2="515.6094"/><text fill="#000000" font-family="sans-serif" font-size="14" lengthAdjust="spacingAndGlyphs" textLength="23" x="410.5" y="507.5332">find</text><rect fill="#FFCC88" filter="url(#f1ca5eg7017mot)" height="50" rx="12.5" ry="12.5" style="stroke: #A80036; stroke-width: 1.5;" width="67" x="388.5" y="403"/><line style="stroke: #A80036; stroke-width: 1.5;" x1="388.5" x2="455.5" y1="430.6094" y2="430.6094"/><text fill="#000000" font-family="sans-serif" font-size="14" lengthAdjust="spacingAndGlyphs" textLength="47" x="398.5" y="422.5332">destroy</text><rect fill="#FEFECE" filter="url(#f1ca5eg7017mot)" height="50" rx="12.5" ry="12.5" style="stroke: #A80036; stroke-width: 1.5;" width="139" x="98" y="488"/><line style="stroke: #A80036; stroke-width: 1.5;" x1="98" x2="237" y1="515.6094" y2="515.6094"/><text fill="#000000" font-family="sans-serif" font-size="14" lengthAdjust="spacingAndGlyphs" textLength="119" x="108" y="507.5332">Find Data Instance</text><rect fill="#FEFECE" filter="url(#f1ca5eg7017mot)" height="50" rx="12.5" ry="12.5" style="stroke: #A80036; stroke-width: 1.5;" width="163" x="86" y="403"/><line style="stroke: #A80036; stroke-width: 1.5;" x1="86" x2="249" y1="430.6094" y2="430.6094"/><text fill="#000000" font-family="sans-serif" font-size="14" lengthAdjust="spacingAndGlyphs" textLength="143" x="96" y="422.5332">Remove Data Instance</text><rect fill="#FEFECE" filter="url(#f1ca5eg7017mot)" height="50" rx="12.5" ry="12.5" style="stroke: #A80036; stroke-width: 1.5;" width="154" x="90.5" y="850"/><line style="stroke: #A80036; stroke-width: 1.5;" x1="90.5" x2="244.5" y1="877.6094" y2="877.6094"/><text fill="#000000" font-family="sans-serif" font-size="14" lengthAdjust="spacingAndGlyphs" textLength="134" x="100.5" y="869.5332">Create Data Instance</text><!--link DataScientistManageDataInstances to dimldmldodatainstancelist--><path d="M193.171,110.208 C240.459,158.526 343.563,263.876 393.202,314.596 " fill="none" id="DataScientistManageDataInstances-dimldmldodatainstancelist" style="stroke: #A80036; stroke-width: 1.0;"/><polygon fill="#A80036" points="396.971,318.447,393.5341,309.2173,393.4735,314.8738,387.817,314.8132,396.971,318.447" style="stroke: #A80036; stroke-width: 1.0;"/><!--link ApplicationDeveloperManageDataInstances to dimldmldodatainstancelist--><path d="M189.4642,786.3739 C189.6378,786.127 189.8122,785.8787 189.9875,785.629 C190.338,785.1297 190.6918,784.6248 191.0487,784.1144 C192.4766,782.0728 193.9553,779.9435 195.4799,777.7305 C198.529,773.3044 201.7614,768.5437 205.1365,763.4811 C211.8867,753.3561 219.2073,742.0239 226.7731,729.748 C257.0363,680.6445 291.221,616.442 308.5,554 C313.484,535.989 305.733,401.274 316.5,386 C333.7,361.599 367.377,351.013 391.864,346.441 " fill="none" id="ApplicationDeveloperManageDataInstances-dimldmldodatainstancelist" style="stroke: #A80036; stroke-width: 1.0;"/><polygon fill="#A80036" points="396.941,345.553,387.3865,343.1632,392.0158,346.4143,388.7646,351.0436,396.941,345.553" style="stroke: #A80036; stroke-width: 1.0;"/><!--link ApplicationDeveloperManageDataInstancesCreateDataInstance to dimldmldodatainstancecreate--><path d="M244.569,872.2363 C267.067,868.187 290.472,860.418 308.5,846 C378.428,790.075 406.462,681.163 416.317,628.273 " fill="none" id="ApplicationDeveloperManageDataInstancesCreateDataInstance-dimldmldodatainstancecreate" style="stroke: #A80036; stroke-width: 1.0;"/><polygon fill="#A80036" points="417.215,623.334,411.6696,631.4733,416.3206,628.2533,419.5405,632.9044,417.215,623.334" style="stroke: #A80036; stroke-width: 1.0;"/><!--link ActorManageDataInstancesFindDataInstance to dimldmldodatainstancefind--><path d="M237.163,513 C287.689,513 353.876,513 391.486,513 " fill="none" id="ActorManageDataInstancesFindDataInstance-dimldmldodatainstancefind" style="stroke: #A80036; stroke-width: 1.0;"/><polygon fill="#A80036" points="396.823,513,387.823,509,391.823,513,387.823,517,396.823,513" style="stroke: #A80036; stroke-width: 1.0;"/><!--link ActorManageDataInstancesRemoveDataInstance to dimldmldodatainstancedestroy--><path d="M249.087,428 C294.07,428 347.991,428 383.3,428 " fill="none" id="ActorManageDataInstancesRemoveDataInstance-dimldmldodatainstancedestroy" style="stroke: #A80036; stroke-width: 1.0;"/><polygon fill="#A80036" points="388.371,428,379.371,424,383.371,428,379.371,432,388.371,428" style="stroke: #A80036; stroke-width: 1.0;"/><!--
@startuml
left to right direction



state "DataScientist" as DataScientist {
    state "Manage Data Instances" as DataScientistManageDataInstances {
    }
}
state "diml" as diml #ffcc88 {
state "dml" as dimldml #ffcc88 {
state "do" as dimldmldo #lightblue {
state "datainstance" as dimldmldodatainstance #lightblue {
state "list" as dimldmldodatainstancelist #lightblue {
}
}
}
}
}

DataScientistManageDataInstances - -> dimldmldodatainstancelist

state "ApplicationDeveloper" as ApplicationDeveloper {
    state "Manage Data Instances" as ApplicationDeveloperManageDataInstances {
    }
}
state "diml" as diml #ffcc88 {
state "dml" as dimldml #ffcc88 {
state "do" as dimldmldo #lightblue {
state "datainstance" as dimldmldodatainstance #lightblue {
state "list" as dimldmldodatainstancelist #lightblue {
}
}
}
}
}

ApplicationDeveloperManageDataInstances - -> dimldmldodatainstancelist


    state "Application Developer" as ApplicationDeveloper {
        state "Manage Data Instances" as ApplicationDeveloperManageDataInstances {
            state "Create Data Instance" as ApplicationDeveloperManageDataInstancesCreateDataInstance {
            }
        }
    }
    state "diml" as diml #ffcc88 {
state "dml" as dimldml #ffcc88 {
state "dodatainstance" as dimldmldodatainstance #ffcc88 {
state "create" as dimldmldodatainstancecreate #ffcc88 {
}
}
}
}

    ApplicationDeveloperManageDataInstancesCreateDataInstance - -> dimldmldodatainstancecreate
    
 
    state "Actor" as Actor {
        state "Manage Data Instances" as ActorManageDataInstances {
            state "Find Data Instance" as ActorManageDataInstancesFindDataInstance {
            }
        }
    }
    state "diml" as diml #ffcc88 {
state "dml" as dimldml #ffcc88 {
state "dodatainstance" as dimldmldodatainstance #ffcc88 {
state "find" as dimldmldodatainstancefind #ffcc88 {
}
}
}
}

    ActorManageDataInstancesFindDataInstance - -> dimldmldodatainstancefind
    
 
    state "Actor" as Actor {
        state "Manage Data Instances" as ActorManageDataInstances {
            state "Remove Data Instance" as ActorManageDataInstancesRemoveDataInstance {
            }
        }
    }
    state "diml" as diml #ffcc88 {
state "dml" as dimldml #ffcc88 {
state "dodatainstance" as dimldmldodatainstance #ffcc88 {
state "destroy" as dimldmldodatainstancedestroy #ffcc88 {
}
}
}
}

    ActorManageDataInstancesRemoveDataInstance - -> dimldmldodatainstancedestroy
    
 
 

@enduml

PlantUML version 1.2019.05(Sat Apr 20 09:45:36 PDT 2019)
(GPL source distribution)
Java Runtime: OpenJDK Runtime Environment
JVM: OpenJDK 64-Bit Server VM
Java Version: 12.0.1+12
Operating System: Windows 10
OS Version: 10.0
Default Encoding: Cp1252
Language: en
Country: US
--></g></svg>