<?xml version="1.0" encoding="UTF-8" standalone="no"?><svg xmlns="http://www.w3.org/2000/svg" xmlns:xlink="http://www.w3.org/1999/xlink" contentScriptType="application/ecmascript" contentStyleType="text/css" height="223px" preserveAspectRatio="none" style="width:399px;height:223px;" version="1.1" viewBox="0 0 399 223" width="399px" zoomAndPan="magnify"><defs><filter height="300%" id="f1gdb9ikvp7gnh" width="300%" x="-1" y="-1"><feGaussianBlur result="blurOut" stdDeviation="2.0"/><feColorMatrix in="blurOut" result="blurOut2" type="matrix" values="0 0 0 0 0 0 0 0 0 0 0 0 0 0 0 0 0 0 .4 0"/><feOffset dx="4.0" dy="4.0" in="blurOut2" result="blurOut3"/><feBlend in="SourceGraphic" in2="blurOut3" mode="normal"/></filter></defs><g><!--cluster Data Orchestrator--><rect fill="#ADD8E6" filter="url(#f1gdb9ikvp7gnh)" height="92" style="stroke: #000000; stroke-width: 1.5;" width="204" x="184" y="54.5"/><text fill="#000000" font-family="sans-serif" font-size="14" font-weight="bold" lengthAdjust="spacingAndGlyphs" textLength="125" x="223.5" y="71.0332">Data Orchestrator</text><ellipse cx="286.1163" cy="110.6233" fill="#FEFECE" filter="url(#f1gdb9ikvp7gnh)" rx="86.1163" ry="19.6233" style="stroke: #A80036; stroke-width: 1.5;"/><text fill="#000000" font-family="sans-serif" font-size="14" lengthAdjust="spacingAndGlyphs" textLength="141" x="215.6163" y="115.9279">ManageDataInstances</text><!--entity DataScientist--><ellipse cx="73" cy="18" fill="#FEFECE" filter="url(#f1gdb9ikvp7gnh)" rx="8" ry="8" style="stroke: #A80036; stroke-width: 2.0;"/><path d="M73,26 L73,53 M60,34 L86,34 M73,53 L60,68 M73,53 L86,68 " fill="none" filter="url(#f1gdb9ikvp7gnh)" style="stroke: #A80036; stroke-width: 2.0;"/><text fill="#000000" font-family="sans-serif" font-size="14" lengthAdjust="spacingAndGlyphs" textLength="83" x="31.5" y="89.5332">DataScientist</text><!--entity ApplicationDeveloper--><ellipse cx="73" cy="138" fill="#FEFECE" filter="url(#f1gdb9ikvp7gnh)" rx="8" ry="8" style="stroke: #A80036; stroke-width: 2.0;"/><path d="M73,146 L73,173 M60,154 L86,154 M73,173 L60,188 M73,173 L86,188 " fill="none" filter="url(#f1gdb9ikvp7gnh)" style="stroke: #A80036; stroke-width: 2.0;"/><text fill="#000000" font-family="sans-serif" font-size="14" lengthAdjust="spacingAndGlyphs" textLength="134" x="6" y="209.5332">ApplicationDeveloper</text><!--link DataScientist to ManageDataInstances--><path d="M114.683,62.069 C146.414,71.092 190.917,83.747 226.475,93.858 " fill="none" id="DataScientist-ManageDataInstances" style="stroke: #A80036; stroke-width: 1.0;"/><polygon fill="#A80036" points="231.654,95.33,224.0905,89.0218,226.8445,93.963,221.9033,96.717,231.654,95.33" style="stroke: #A80036; stroke-width: 1.0;"/><!--link ApplicationDeveloper to ManageDataInstances--><path d="M140.183,151.6802 C167.944,143.786 199.944,134.6864 226.792,127.052 " fill="none" id="ApplicationDeveloper-ManageDataInstances" style="stroke: #A80036; stroke-width: 1.0;"/><polygon fill="#A80036" points="231.743,125.6442,221.9922,124.2576,226.9336,127.0114,224.1797,131.9527,231.743,125.6442" style="stroke: #A80036; stroke-width: 1.0;"/><!--
@startuml

left to right direction
Actor "DataScientist" as DataScientist
Actor "ApplicationDeveloper" as ApplicationDeveloper


rectangle "Data Orchestrator" #lightblue {
usecase "ManageDataInstances" as ManageDataInstances
    DataScientist - -> ManageDataInstances
    ApplicationDeveloper - -> ManageDataInstances
    }


@enduml

PlantUML version 1.2019.05(Sat Apr 20 09:45:36 PDT 2019)
(GPL source distribution)
Java Runtime: OpenJDK Runtime Environment
JVM: OpenJDK 64-Bit Server VM
Java Version: 12.0.1+12
Operating System: Windows 10
OS Version: 10.0
Default Encoding: Cp1252
Language: en
Country: US
--></g></svg>