<?xml version="1.0" encoding="UTF-8" standalone="no"?><svg xmlns="http://www.w3.org/2000/svg" xmlns:xlink="http://www.w3.org/1999/xlink" contentScriptType="application/ecmascript" contentStyleType="text/css" height="378px" preserveAspectRatio="none" style="width:610px;height:378px;" version="1.1" viewBox="0 0 610 378" width="610px" zoomAndPan="magnify"><defs><filter height="300%" id="fnradrahjarqd" width="300%" x="-1" y="-1"><feGaussianBlur result="blurOut" stdDeviation="2.0"/><feColorMatrix in="blurOut" result="blurOut2" type="matrix" values="0 0 0 0 0 0 0 0 0 0 0 0 0 0 0 0 0 0 .4 0"/><feOffset dx="4.0" dy="4.0" in="blurOut2" result="blurOut3"/><feBlend in="SourceGraphic" in2="blurOut3" mode="normal"/></filter></defs><g><line style="stroke: #A80036; stroke-width: 1.0; stroke-dasharray: 5.0,5.0;" x1="52" x2="52" y1="87.6094" y2="289.7188"/><line style="stroke: #A80036; stroke-width: 1.0; stroke-dasharray: 5.0,5.0;" x1="177" x2="177" y1="87.6094" y2="289.7188"/><line style="stroke: #A80036; stroke-width: 1.0; stroke-dasharray: 5.0,5.0;" x1="338" x2="338" y1="87.6094" y2="289.7188"/><line style="stroke: #A80036; stroke-width: 1.0; stroke-dasharray: 5.0,5.0;" x1="456.5" x2="456.5" y1="87.6094" y2="289.7188"/><line style="stroke: #A80036; stroke-width: 1.0; stroke-dasharray: 5.0,5.0;" x1="575.5" x2="575.5" y1="87.6094" y2="289.7188"/><text fill="#000000" font-family="sans-serif" font-size="14" lengthAdjust="spacingAndGlyphs" textLength="83" x="8" y="84.5332">DataScientist</text><ellipse cx="52.5" cy="13" fill="#FEFECE" filter="url(#fnradrahjarqd)" rx="8" ry="8" style="stroke: #A80036; stroke-width: 2.0;"/><path d="M52.5,21 L52.5,48 M39.5,29 L65.5,29 M52.5,48 L39.5,63 M52.5,48 L65.5,63 " fill="none" filter="url(#fnradrahjarqd)" style="stroke: #A80036; stroke-width: 2.0;"/><text fill="#000000" font-family="sans-serif" font-size="14" lengthAdjust="spacingAndGlyphs" textLength="83" x="8" y="303.252">DataScientist</text><ellipse cx="52.5" cy="316.3281" fill="#FEFECE" filter="url(#fnradrahjarqd)" rx="8" ry="8" style="stroke: #A80036; stroke-width: 2.0;"/><path d="M52.5,324.3281 L52.5,351.3281 M39.5,332.3281 L65.5,332.3281 M52.5,351.3281 L39.5,366.3281 M52.5,351.3281 L65.5,366.3281 " fill="none" filter="url(#fnradrahjarqd)" style="stroke: #A80036; stroke-width: 2.0;"/><text fill="#000000" font-family="sans-serif" font-size="14" lengthAdjust="spacingAndGlyphs" textLength="134" x="107" y="84.5332">ApplicationDeveloper</text><ellipse cx="177" cy="13" fill="#FEFECE" filter="url(#fnradrahjarqd)" rx="8" ry="8" style="stroke: #A80036; stroke-width: 2.0;"/><path d="M177,21 L177,48 M164,29 L190,29 M177,48 L164,63 M177,48 L190,63 " fill="none" filter="url(#fnradrahjarqd)" style="stroke: #A80036; stroke-width: 2.0;"/><text fill="#000000" font-family="sans-serif" font-size="14" lengthAdjust="spacingAndGlyphs" textLength="134" x="107" y="303.252">ApplicationDeveloper</text><ellipse cx="177" cy="316.3281" fill="#FEFECE" filter="url(#fnradrahjarqd)" rx="8" ry="8" style="stroke: #A80036; stroke-width: 2.0;"/><path d="M177,324.3281 L177,351.3281 M164,332.3281 L190,332.3281 M177,351.3281 L164,366.3281 M177,351.3281 L190,366.3281 " fill="none" filter="url(#fnradrahjarqd)" style="stroke: #A80036; stroke-width: 2.0;"/><rect fill="#FEFECE" filter="url(#fnradrahjarqd)" height="31.6094" style="stroke: #A80036; stroke-width: 1.5;" width="128" x="272" y="51"/><text fill="#000000" font-family="sans-serif" font-size="14" lengthAdjust="spacingAndGlyphs" textLength="114" x="279" y="72.5332">Data Orchestrator</text><rect fill="#FEFECE" filter="url(#fnradrahjarqd)" height="31.6094" style="stroke: #A80036; stroke-width: 1.5;" width="128" x="272" y="288.7188"/><text fill="#000000" font-family="sans-serif" font-size="14" lengthAdjust="spacingAndGlyphs" textLength="114" x="279" y="310.252">Data Orchestrator</text><rect fill="#FEFECE" filter="url(#fnradrahjarqd)" height="31.6094" style="stroke: #A80036; stroke-width: 1.5;" width="33" x="438.5" y="51"/><text fill="#000000" font-family="sans-serif" font-size="14" lengthAdjust="spacingAndGlyphs" textLength="19" x="445.5" y="72.5332">bin</text><rect fill="#FEFECE" filter="url(#fnradrahjarqd)" height="31.6094" style="stroke: #A80036; stroke-width: 1.5;" width="33" x="438.5" y="288.7188"/><text fill="#000000" font-family="sans-serif" font-size="14" lengthAdjust="spacingAndGlyphs" textLength="19" x="445.5" y="310.252">bin</text><rect fill="#FEFECE" filter="url(#fnradrahjarqd)" height="31.6094" style="stroke: #A80036; stroke-width: 1.5;" width="51" x="548.5" y="51"/><text fill="#000000" font-family="sans-serif" font-size="14" lengthAdjust="spacingAndGlyphs" textLength="37" x="555.5" y="72.5332">REST</text><rect fill="#FEFECE" filter="url(#fnradrahjarqd)" height="31.6094" style="stroke: #A80036; stroke-width: 1.5;" width="51" x="548.5" y="288.7188"/><text fill="#000000" font-family="sans-serif" font-size="14" lengthAdjust="spacingAndGlyphs" textLength="37" x="555.5" y="310.252">REST</text><polygon fill="#A80036" points="326,115.9609,336,119.9609,326,123.9609,330,119.9609" style="stroke: #A80036; stroke-width: 1.0;"/><line style="stroke: #A80036; stroke-width: 1.0;" x1="52.5" x2="332" y1="119.9609" y2="119.9609"/><text fill="#000000" font-family="sans-serif" font-size="13" lengthAdjust="spacingAndGlyphs" textLength="137" x="59.5" y="115.1045">Manage Data Instances</text><polygon fill="#A80036" points="445,146.3125,455,150.3125,445,154.3125,449,150.3125" style="stroke: #A80036; stroke-width: 1.0;"/><line style="stroke: #A80036; stroke-width: 1.0;" x1="338" x2="451" y1="150.3125" y2="150.3125"/><text fill="#000000" font-family="sans-serif" font-size="13" lengthAdjust="spacingAndGlyphs" textLength="95" x="345" y="145.4561">datainstance/list</text><polygon fill="#A80036" points="564,176.6641,574,180.6641,564,184.6641,568,180.6641" style="stroke: #A80036; stroke-width: 1.0;"/><line style="stroke: #A80036; stroke-width: 1.0;" x1="457" x2="570" y1="180.6641" y2="180.6641"/><text fill="#000000" font-family="sans-serif" font-size="13" lengthAdjust="spacingAndGlyphs" textLength="95" x="464" y="175.8076">datainstance/list</text><polygon fill="#A80036" points="326,207.0156,336,211.0156,326,215.0156,330,211.0156" style="stroke: #A80036; stroke-width: 1.0;"/><line style="stroke: #A80036; stroke-width: 1.0;" x1="177" x2="332" y1="211.0156" y2="211.0156"/><text fill="#000000" font-family="sans-serif" font-size="13" lengthAdjust="spacingAndGlyphs" textLength="137" x="184" y="206.1592">Manage Data Instances</text><polygon fill="#A80036" points="445,237.3672,455,241.3672,445,245.3672,449,241.3672" style="stroke: #A80036; stroke-width: 1.0;"/><line style="stroke: #A80036; stroke-width: 1.0;" x1="338" x2="451" y1="241.3672" y2="241.3672"/><text fill="#000000" font-family="sans-serif" font-size="13" lengthAdjust="spacingAndGlyphs" textLength="95" x="345" y="236.5107">datainstance/list</text><polygon fill="#A80036" points="564,267.7188,574,271.7188,564,275.7188,568,271.7188" style="stroke: #A80036; stroke-width: 1.0;"/><line style="stroke: #A80036; stroke-width: 1.0;" x1="457" x2="570" y1="271.7188" y2="271.7188"/><text fill="#000000" font-family="sans-serif" font-size="13" lengthAdjust="spacingAndGlyphs" textLength="95" x="464" y="266.8623">datainstance/list</text><!--
@startuml

actor "DataScientist" as datascientist

actor "ApplicationDeveloper" as applicationdeveloper




datascientist -> "Data Orchestrator": Manage Data Instances
"Data Orchestrator" -> bin: datainstance/list
bin -> REST: datainstance/list

applicationdeveloper -> "Data Orchestrator": Manage Data Instances
"Data Orchestrator" -> bin: datainstance/list
bin -> REST: datainstance/list


@enduml

PlantUML version 1.2019.05(Sat Apr 20 09:45:36 PDT 2019)
(GPL source distribution)
Java Runtime: OpenJDK Runtime Environment
JVM: OpenJDK 64-Bit Server VM
Java Version: 12.0.1+12
Operating System: Windows 10
OS Version: 10.0
Default Encoding: Cp1252
Language: en
Country: US
--></g></svg>