<?xml version="1.0" encoding="UTF-8" standalone="no"?><svg xmlns="http://www.w3.org/2000/svg" xmlns:xlink="http://www.w3.org/1999/xlink" contentScriptType="application/ecmascript" contentStyleType="text/css" height="712px" preserveAspectRatio="none" style="width:1460px;height:712px;" version="1.1" viewBox="0 0 1460 712" width="1460px" zoomAndPan="magnify"><defs><filter height="300%" id="f11mj50ijqsitt" width="300%" x="-1" y="-1"><feGaussianBlur result="blurOut" stdDeviation="2.0"/><feColorMatrix in="blurOut" result="blurOut2" type="matrix" values="0 0 0 0 0 0 0 0 0 0 0 0 0 0 0 0 0 0 .4 0"/><feOffset dx="4.0" dy="4.0" in="blurOut2" result="blurOut3"/><feBlend in="SourceGraphic" in2="blurOut3" mode="normal"/></filter></defs><g><!--cluster Edge Device (Machine)--><polygon fill="#D3D3D3" filter="url(#f11mj50ijqsitt)" points="730,300,740,290,1405,290,1405,690,1395,700,730,700,730,300" style="stroke: #000000; stroke-width: 1.5;"/><line style="stroke: #000000; stroke-width: 1.5;" x1="1395" x2="1404" y1="300" y2="291"/><line style="stroke: #000000; stroke-width: 1.5;" x1="730" x2="1395" y1="300" y2="300"/><line style="stroke: #000000; stroke-width: 1.5;" x1="1395" x2="1395" y1="300" y2="700"/><text fill="#000000" font-family="sans-serif" font-size="14" font-weight="bold" lengthAdjust="spacingAndGlyphs" textLength="163" x="982" y="317.5332">Edge Device (Machine)</text><!--cluster Aggregated Edge Device--><polygon fill="#D3D3D3" filter="url(#f11mj50ijqsitt)" points="22,153,32,143,706,143,706,690,696,700,22,700,22,153" style="stroke: #000000; stroke-width: 1.5;"/><line style="stroke: #000000; stroke-width: 1.5;" x1="696" x2="705" y1="153" y2="144"/><line style="stroke: #000000; stroke-width: 1.5;" x1="22" x2="696" y1="153" y2="153"/><line style="stroke: #000000; stroke-width: 1.5;" x1="696" x2="696" y1="153" y2="700"/><text fill="#000000" font-family="sans-serif" font-size="14" font-weight="bold" lengthAdjust="spacingAndGlyphs" textLength="175" x="272.5" y="170.5332">Aggregated Edge Device</text><!--cluster Machine0--><polygon fill="#FFFFFF" filter="url(#f11mj50ijqsitt)" points="88,202,98,192,520,192,520,375,510,385,88,385,88,202" style="stroke: #000000; stroke-width: 1.5;"/><line style="stroke: #000000; stroke-width: 1.5;" x1="510" x2="519" y1="202" y2="193"/><line style="stroke: #000000; stroke-width: 1.5;" x1="88" x2="510" y1="202" y2="202"/><line style="stroke: #000000; stroke-width: 1.5;" x1="510" x2="510" y1="202" y2="385"/><text fill="#000000" font-family="sans-serif" font-size="14" font-weight="bold" lengthAdjust="spacingAndGlyphs" textLength="68" x="266" y="219.5332">Machine0</text><!--cluster Machine1--><polygon fill="#FFFFFF" filter="url(#f11mj50ijqsitt)" points="96,419,106,409,403,409,403,592,393,602,96,602,96,419" style="stroke: #000000; stroke-width: 1.5;"/><line style="stroke: #000000; stroke-width: 1.5;" x1="393" x2="402" y1="419" y2="410"/><line style="stroke: #000000; stroke-width: 1.5;" x1="96" x2="393" y1="419" y2="419"/><line style="stroke: #000000; stroke-width: 1.5;" x1="393" x2="393" y1="419" y2="602"/><text fill="#000000" font-family="sans-serif" font-size="14" font-weight="bold" lengthAdjust="spacingAndGlyphs" textLength="68" x="211.5" y="436.5332">Machine1</text><!--cluster Machinen--><polygon fill="#FFFFFF" filter="url(#f11mj50ijqsitt)" points="427,419,437,409,682,409,682,592,672,602,427,602,427,419" style="stroke: #000000; stroke-width: 1.5;"/><line style="stroke: #000000; stroke-width: 1.5;" x1="672" x2="681" y1="419" y2="410"/><line style="stroke: #000000; stroke-width: 1.5;" x1="427" x2="672" y1="419" y2="419"/><line style="stroke: #000000; stroke-width: 1.5;" x1="672" x2="672" y1="419" y2="602"/><text fill="#000000" font-family="sans-serif" font-size="14" font-weight="bold" lengthAdjust="spacingAndGlyphs" textLength="69" x="516" y="436.5332">Machinen</text><!--cluster Data Center--><polygon fill="#FFFFFF" filter="url(#f11mj50ijqsitt)" points="272,34,282,24,729,24,729,109,719,119,272,119,272,34" style="stroke: #000000; stroke-width: 1.5;"/><line style="stroke: #000000; stroke-width: 1.5;" x1="719" x2="728" y1="34" y2="25"/><line style="stroke: #000000; stroke-width: 1.5;" x1="272" x2="719" y1="34" y2="34"/><line style="stroke: #000000; stroke-width: 1.5;" x1="719" x2="719" y1="34" y2="119"/><text fill="#000000" font-family="sans-serif" font-size="14" font-weight="bold" lengthAdjust="spacingAndGlyphs" textLength="83" x="455" y="51.5332">Data Center</text><!--entity sminon--><rect fill="#FFFFE0" filter="url(#f11mj50ijqsitt)" height="37.6094" style="stroke: #A80036; stroke-width: 1.5;" width="86" x="932" y="331"/><rect fill="#FFFFE0" height="5" style="stroke: #A80036; stroke-width: 1.5;" width="10" x="927" y="336"/><rect fill="#FFFFE0" height="5" style="stroke: #A80036; stroke-width: 1.5;" width="10" x="927" y="358.6094"/><text fill="#000000" font-family="sans-serif" font-size="14" lengthAdjust="spacingAndGlyphs" textLength="66" x="942" y="355.5332">Salt Minon</text><!--entity dockersed--><rect fill="#90EE90" filter="url(#f11mj50ijqsitt)" height="37.6094" style="stroke: #A80036; stroke-width: 1.5;" width="111" x="1053.5" y="331"/><rect fill="#90EE90" height="5" style="stroke: #A80036; stroke-width: 1.5;" width="10" x="1048.5" y="336"/><rect fill="#90EE90" height="5" style="stroke: #A80036; stroke-width: 1.5;" width="10" x="1048.5" y="358.6094"/><text fill="#000000" font-family="sans-serif" font-size="14" lengthAdjust="spacingAndGlyphs" textLength="91" x="1063.5" y="355.5332">Docker Swarm</text><!--entity dagent--><rect fill="#FFFFFF" filter="url(#f11mj50ijqsitt)" height="33.6094" style="stroke: #000000; stroke-width: 1.5;" width="100" x="1077" y="650"/><rect fill="#FFFFFF" height="33.6094" style="stroke: #000000; stroke-width: 1.5;" width="100" x="1073" y="646"/><text fill="#000000" font-family="sans-serif" font-size="14" lengthAdjust="spacingAndGlyphs" textLength="84" x="1081" y="668.5332">Device Agent</text><!--entity dockernodeed--><rect fill="#90EE90" filter="url(#f11mj50ijqsitt)" height="37.6094" style="stroke: #A80036; stroke-width: 1.5;" width="102" x="991" y="450"/><rect fill="#90EE90" height="5" style="stroke: #A80036; stroke-width: 1.5;" width="10" x="986" y="455"/><rect fill="#90EE90" height="5" style="stroke: #A80036; stroke-width: 1.5;" width="10" x="986" y="477.6094"/><text fill="#000000" font-family="sans-serif" font-size="14" lengthAdjust="spacingAndGlyphs" textLength="82" x="1001" y="474.5332">Docker Node</text><!--entity datac--><rect fill="#FFCC88" filter="url(#f11mj50ijqsitt)" height="37.6094" style="stroke: #A80036; stroke-width: 1.5;" width="116" x="1067" y="548"/><text fill="#000000" font-family="sans-serif" font-size="14" lengthAdjust="spacingAndGlyphs" textLength="96" x="1077" y="572.5332">Data Controller</text><!--entity servicec--><rect fill="#90EE90" filter="url(#f11mj50ijqsitt)" height="37.6094" style="stroke: #A80036; stroke-width: 1.5;" width="133" x="1218.5" y="548"/><text fill="#000000" font-family="sans-serif" font-size="14" lengthAdjust="spacingAndGlyphs" textLength="113" x="1228.5" y="572.5332">Service Controller</text><!--entity pe--><rect fill="#FFB6C1" filter="url(#f11mj50ijqsitt)" height="37.6094" style="stroke: #A80036; stroke-width: 1.5;" width="105" x="746.5" y="548"/><text fill="#000000" font-family="sans-serif" font-size="14" lengthAdjust="spacingAndGlyphs" textLength="85" x="756.5" y="572.5332">Policy Engine</text><!--entity tp--><rect fill="#D3D3D3" filter="url(#f11mj50ijqsitt)" height="37.6094" style="stroke: #A80036; stroke-width: 1.5;" width="145" x="886.5" y="548"/><text fill="#000000" font-family="sans-serif" font-size="14" lengthAdjust="spacingAndGlyphs" textLength="125" x="896.5" y="572.5332">Telemetry Producer</text><!--entity dm--><rect fill="#FFFFFF" filter="url(#f11mj50ijqsitt)" height="33.6094" style="stroke: #000000; stroke-width: 1.5;" width="119" x="121.5" y="650"/><rect fill="#FFFFFF" height="33.6094" style="stroke: #000000; stroke-width: 1.5;" width="119" x="117.5" y="646"/><text fill="#000000" font-family="sans-serif" font-size="14" lengthAdjust="spacingAndGlyphs" textLength="103" x="125.5" y="668.5332">Device Manager</text><!--entity smaster2--><rect fill="#FFFFE0" filter="url(#f11mj50ijqsitt)" height="37.6094" style="stroke: #A80036; stroke-width: 1.5;" width="91" x="412.5" y="233"/><rect fill="#FFFFE0" height="5" style="stroke: #A80036; stroke-width: 1.5;" width="10" x="407.5" y="238"/><rect fill="#FFFFE0" height="5" style="stroke: #A80036; stroke-width: 1.5;" width="10" x="407.5" y="260.6094"/><text fill="#000000" font-family="sans-serif" font-size="14" lengthAdjust="spacingAndGlyphs" textLength="71" x="422.5" y="257.5332">Salt Master</text><!--entity sminon2--><rect fill="#FFFFE0" filter="url(#f11mj50ijqsitt)" height="37.6094" style="stroke: #A80036; stroke-width: 1.5;" width="86" x="291" y="233"/><rect fill="#FFFFE0" height="5" style="stroke: #A80036; stroke-width: 1.5;" width="10" x="286" y="238"/><rect fill="#FFFFE0" height="5" style="stroke: #A80036; stroke-width: 1.5;" width="10" x="286" y="260.6094"/><text fill="#000000" font-family="sans-serif" font-size="14" lengthAdjust="spacingAndGlyphs" textLength="66" x="301" y="257.5332">Salt Minon</text><!--entity dockersaed--><rect fill="#90EE90" filter="url(#f11mj50ijqsitt)" height="37.6094" style="stroke: #A80036; stroke-width: 1.5;" width="111" x="278.5" y="331"/><rect fill="#90EE90" height="5" style="stroke: #A80036; stroke-width: 1.5;" width="10" x="273.5" y="336"/><rect fill="#90EE90" height="5" style="stroke: #A80036; stroke-width: 1.5;" width="10" x="273.5" y="358.6094"/><text fill="#000000" font-family="sans-serif" font-size="14" lengthAdjust="spacingAndGlyphs" textLength="91" x="288.5" y="355.5332">Docker Swarm</text><!--entity soad--><rect fill="#90EE90" filter="url(#f11mj50ijqsitt)" height="37.6094" style="stroke: #A80036; stroke-width: 1.5;" width="151" x="104.5" y="233"/><text fill="#000000" font-family="sans-serif" font-size="14" lengthAdjust="spacingAndGlyphs" textLength="131" x="114.5" y="257.5332">Service Orchestrator</text><!--entity sminon21--><rect fill="#FFFFE0" filter="url(#f11mj50ijqsitt)" height="37.6094" style="stroke: #A80036; stroke-width: 1.5;" width="86" x="162" y="450"/><rect fill="#FFFFE0" height="5" style="stroke: #A80036; stroke-width: 1.5;" width="10" x="157" y="455"/><rect fill="#FFFFE0" height="5" style="stroke: #A80036; stroke-width: 1.5;" width="10" x="157" y="477.6094"/><text fill="#000000" font-family="sans-serif" font-size="14" lengthAdjust="spacingAndGlyphs" textLength="66" x="172" y="474.5332">Salt Minon</text><!--entity dockernode21--><rect fill="#90EE90" filter="url(#f11mj50ijqsitt)" height="37.6094" style="stroke: #A80036; stroke-width: 1.5;" width="102" x="283" y="450"/><rect fill="#90EE90" height="5" style="stroke: #A80036; stroke-width: 1.5;" width="10" x="278" y="455"/><rect fill="#90EE90" height="5" style="stroke: #A80036; stroke-width: 1.5;" width="10" x="278" y="477.6094"/><text fill="#000000" font-family="sans-serif" font-size="14" lengthAdjust="spacingAndGlyphs" textLength="82" x="293" y="474.5332">Docker Node</text><!--entity pead--><rect fill="#FFB6C1" filter="url(#f11mj50ijqsitt)" height="37.6094" style="stroke: #A80036; stroke-width: 1.5;" width="105" x="281.5" y="548"/><text fill="#000000" font-family="sans-serif" font-size="14" lengthAdjust="spacingAndGlyphs" textLength="85" x="291.5" y="572.5332">Policy Engine</text><!--entity doad--><rect fill="#FFCC88" filter="url(#f11mj50ijqsitt)" height="37.6094" style="stroke: #A80036; stroke-width: 1.5;" width="134" x="112" y="548"/><text fill="#000000" font-family="sans-serif" font-size="14" lengthAdjust="spacingAndGlyphs" textLength="114" x="122" y="572.5332">Data Orchestrator</text><!--entity sminon22--><rect fill="#FFFFE0" filter="url(#f11mj50ijqsitt)" height="37.6094" style="stroke: #A80036; stroke-width: 1.5;" width="86" x="580" y="450"/><rect fill="#FFFFE0" height="5" style="stroke: #A80036; stroke-width: 1.5;" width="10" x="575" y="455"/><rect fill="#FFFFE0" height="5" style="stroke: #A80036; stroke-width: 1.5;" width="10" x="575" y="477.6094"/><text fill="#000000" font-family="sans-serif" font-size="14" lengthAdjust="spacingAndGlyphs" textLength="66" x="590" y="474.5332">Salt Minon</text><!--entity dockernode22--><rect fill="#90EE90" filter="url(#f11mj50ijqsitt)" height="37.6094" style="stroke: #A80036; stroke-width: 1.5;" width="102" x="443" y="450"/><rect fill="#90EE90" height="5" style="stroke: #A80036; stroke-width: 1.5;" width="10" x="438" y="455"/><rect fill="#90EE90" height="5" style="stroke: #A80036; stroke-width: 1.5;" width="10" x="438" y="477.6094"/><text fill="#000000" font-family="sans-serif" font-size="14" lengthAdjust="spacingAndGlyphs" textLength="82" x="453" y="474.5332">Docker Node</text><!--entity tpad--><rect fill="#D3D3D3" filter="url(#f11mj50ijqsitt)" height="37.6094" style="stroke: #A80036; stroke-width: 1.5;" width="158" x="443" y="548"/><text fill="#000000" font-family="sans-serif" font-size="14" lengthAdjust="spacingAndGlyphs" textLength="138" x="453" y="572.5332">Telemetry Aggregator</text><!--entity smaster--><rect fill="#FEFECE" filter="url(#f11mj50ijqsitt)" height="37.6094" style="stroke: #A80036; stroke-width: 1.5;" width="91" x="288.5" y="65"/><rect fill="#FEFECE" height="5" style="stroke: #A80036; stroke-width: 1.5;" width="10" x="283.5" y="70"/><rect fill="#FEFECE" height="5" style="stroke: #A80036; stroke-width: 1.5;" width="10" x="283.5" y="92.6094"/><text fill="#000000" font-family="sans-serif" font-size="14" lengthAdjust="spacingAndGlyphs" textLength="71" x="298.5" y="89.5332">Salt Master</text><!--entity dockersdc--><rect fill="#90EE90" filter="url(#f11mj50ijqsitt)" height="37.6094" style="stroke: #A80036; stroke-width: 1.5;" width="111" x="414.5" y="65"/><rect fill="#90EE90" height="5" style="stroke: #A80036; stroke-width: 1.5;" width="10" x="409.5" y="70"/><rect fill="#90EE90" height="5" style="stroke: #A80036; stroke-width: 1.5;" width="10" x="409.5" y="92.6094"/><text fill="#000000" font-family="sans-serif" font-size="14" lengthAdjust="spacingAndGlyphs" textLength="91" x="424.5" y="89.5332">Docker Swarm</text><!--entity tc--><rect fill="#D3D3D3" filter="url(#f11mj50ijqsitt)" height="37.6094" style="stroke: #A80036; stroke-width: 1.5;" width="152" x="561" y="65"/><text fill="#000000" font-family="sans-serif" font-size="14" lengthAdjust="spacingAndGlyphs" textLength="132" x="571" y="89.5332">Telemetry Consumer</text><!--link dockernodeed to datac--><path d="M1057.61,488.057 C1071.2,503.779 1090.97,526.638 1105.58,543.537 " fill="none" id="dockernodeed-datac" style="stroke: #A80036; stroke-width: 1.0;"/><polygon fill="#A80036" points="1109.18,547.698,1106.324,538.2723,1105.9116,543.9141,1100.2698,543.5018,1109.18,547.698" style="stroke: #A80036; stroke-width: 1.0;"/><!--link dockernodeed to servicec--><path d="M1087.71,488.057 C1129.49,504.564 1191.19,528.939 1234.43,546.023 " fill="none" id="dockernodeed-servicec" style="stroke: #A80036; stroke-width: 1.0;"/><polygon fill="#A80036" points="1239.09,547.861,1232.1961,540.8272,1234.4415,546.0193,1229.2494,548.2647,1239.09,547.861" style="stroke: #A80036; stroke-width: 1.0;"/><!--link dockernodeed to pe--><path d="M996.294,488.057 C954.509,504.564 892.812,528.939 849.566,546.023 " fill="none" id="dockernodeed-pe" style="stroke: #A80036; stroke-width: 1.0;"/><polygon fill="#A80036" points="844.914,547.861,854.7541,548.2752,849.5644,546.0243,851.8154,540.8345,844.914,547.861" style="stroke: #A80036; stroke-width: 1.0;"/><!--link dockernodeed to tp--><path d="M1026.39,488.057 C1012.8,503.779 993.032,526.638 978.421,543.537 " fill="none" id="dockernodeed-tp" style="stroke: #A80036; stroke-width: 1.0;"/><polygon fill="#A80036" points="974.824,547.698,983.7358,543.5051,978.0938,543.9154,977.6835,538.2734,974.824,547.698" style="stroke: #A80036; stroke-width: 1.0;"/><!--link sminon to dockersed--><path d="M1018.18,350 C1028.15,350 1038.12,350 1048.09,350 " fill="none" id="sminon-dockersed" style="stroke: #A80036; stroke-width: 1.0;"/><polygon fill="#A80036" points="1053.3,350,1044.3,346,1048.3,350,1044.3,354,1053.3,350" style="stroke: #A80036; stroke-width: 1.0;"/><!--link sminon to dockernodeed--><path d="M985.322,369.025 C997.042,389.491 1016.19,422.922 1028.94,445.189 " fill="none" id="sminon-dockernodeed" style="stroke: #A80036; stroke-width: 1.0;"/><polygon fill="#A80036" points="1031.56,449.762,1030.5608,439.964,1029.0762,445.4225,1023.6177,443.938,1031.56,449.762" style="stroke: #A80036; stroke-width: 1.0;"/><!--link dockersed to dockernodeed--><path d="M1098.68,369.025 C1086.12,390.947 1065.05,427.744 1052.44,449.762 " fill="none" id="dockersed-dockernodeed" style="stroke: #A80036; stroke-width: 1.0; stroke-dasharray: 7.0,7.0;"/><!--link dockersed to dagent--><path d="M1153.73,369.098 C1247.24,409.469 1448.38,511.133 1369,610 C1346,638.6446 1246.67,653.0215 1182.05,659.4727 " fill="none" id="dockersed-dagent" style="stroke: #A80036; stroke-width: 1.0;"/><polygon fill="#A80036" points="1177.07,659.9609,1186.4248,663.0411,1182.0449,659.461,1185.625,655.0812,1177.07,659.9609" style="stroke: #A80036; stroke-width: 1.0;"/><!--link datac to dagent--><path d="M1125,591.061 C1125,607.811 1125,630.1694 1125,645.6977 " fill="none" id="datac-dagent" style="stroke: #A80036; stroke-width: 1.0;"/><polygon fill="#A80036" points="1125,586.057,1121,595.057,1125,591.057,1129,595.057,1125,586.057" style="stroke: #A80036; stroke-width: 1.0;"/><!--link servicec to dagent--><path d="M1250.46,588.726 C1222.1,605.74 1182.34,629.5954 1155.23,645.8612 " fill="none" id="servicec-dagent" style="stroke: #A80036; stroke-width: 1.0;"/><polygon fill="#A80036" points="1254.91,586.057,1245.1344,587.2561,1250.6222,588.6288,1249.2494,594.1166,1254.91,586.057" style="stroke: #A80036; stroke-width: 1.0;"/><!--link pe to dagent--><path d="M828.842,588.902 C840.858,596.504 855.136,604.556 869,610 C936.648,636.562 1019.74,651.0153 1072.54,658.1199 " fill="none" id="pe-dagent" style="stroke: #A80036; stroke-width: 1.0;"/><polygon fill="#A80036" points="824.523,586.128,829.933,594.358,828.7297,588.8306,834.2571,587.6273,824.523,586.128" style="stroke: #A80036; stroke-width: 1.0;"/><!--link tp to dagent--><path d="M994.84,588.726 C1024.26,605.74 1065.51,629.5954 1093.63,645.8612 " fill="none" id="tp-dagent" style="stroke: #A80036; stroke-width: 1.0;"/><polygon fill="#A80036" points="990.223,586.057,996.012,594.0249,994.5515,588.5598,1000.0166,587.0993,990.223,586.057" style="stroke: #A80036; stroke-width: 1.0;"/><!--link dockernode21 to pead--><path d="M334,488.057 C334,503.513 334,525.865 334,542.673 " fill="none" id="dockernode21-pead" style="stroke: #A80036; stroke-width: 1.0; stroke-dasharray: 7.0,7.0;"/><polygon fill="#A80036" points="334,547.698,338,538.698,334,542.698,330,538.698,334,547.698" style="stroke: #A80036; stroke-width: 1.0;"/><!--link dockernode21 to doad--><path d="M304.846,488.057 C278.625,504.297 240.11,528.151 212.603,545.188 " fill="none" id="dockernode21-doad" style="stroke: #A80036; stroke-width: 1.0; stroke-dasharray: 7.0,7.0;"/><polygon fill="#A80036" points="208.287,547.861,218.0444,546.5217,212.5375,545.2278,213.8313,539.721,208.287,547.861" style="stroke: #A80036; stroke-width: 1.0;"/><!--link dockernode22 to tpad--><path d="M499.267,488.057 C503.775,503.513 510.294,525.865 515.196,542.673 " fill="none" id="dockernode22-tpad" style="stroke: #A80036; stroke-width: 1.0; stroke-dasharray: 7.0,7.0;"/><polygon fill="#A80036" points="516.662,547.698,517.982,537.938,515.262,542.898,510.302,540.178,516.662,547.698" style="stroke: #A80036; stroke-width: 1.0;"/><!--link dockersaed to dm--><path d="M314.233,369.152 C303.236,378.072 288.807,387.964 274,393 C255.257,399.374 109.681,386.69 96,401 C31.8091,468.141 51.7115,528.349 96,610 C103.585,623.9838 116.532,634.9139 129.973,643.1708 " fill="none" id="dockersaed-dm" style="stroke: #A80036; stroke-width: 1.0;"/><polygon fill="#A80036" points="134.543,645.8691,128.8256,637.8496,130.2371,643.3276,124.7592,644.7391,134.543,645.8691" style="stroke: #A80036; stroke-width: 1.0;"/><!--link pead to dm--><path d="M304.846,586.057 C278.625,602.297 240.11,626.1512 212.603,643.1877 " fill="none" id="pead-dm" style="stroke: #A80036; stroke-width: 1.0;"/><polygon fill="#A80036" points="208.287,645.8612,218.0445,644.5228,212.5377,643.2284,213.8321,637.7217,208.287,645.8612" style="stroke: #A80036; stroke-width: 1.0;"/><!--link doad to dm--><path d="M179,591.061 C179,607.811 179,630.1694 179,645.6977 " fill="none" id="doad-dm" style="stroke: #A80036; stroke-width: 1.0;"/><polygon fill="#A80036" points="179,586.057,175,595.057,179,591.057,183,595.057,179,586.057" style="stroke: #A80036; stroke-width: 1.0;"/><!--link soad to dm--><path d="M150.934,274.522 C118.699,300.393 68.5372,347.119 48,401 C14.8619,487.941 5.8316,534.352 60,610 C73.7367,629.1838 95.952,641.6928 117.49,649.7843 " fill="none" id="soad-dm" style="stroke: #A80036; stroke-width: 1.0;"/><polygon fill="#A80036" points="155.163,271.165,145.6271,273.6281,151.247,274.2738,150.6012,279.8937,155.163,271.165" style="stroke: #A80036; stroke-width: 1.0;"/><!--link tpad to dm--><path d="M469.43,587.863 C448.863,595.289 424.976,603.492 403,610 C348.726,626.0735 286.015,640.8761 240.775,650.902 " fill="none" id="tpad-dm" style="stroke: #A80036; stroke-width: 1.0;"/><polygon fill="#A80036" points="474.309,586.094,464.4844,585.4033,469.6088,587.7993,467.2128,592.9237,474.309,586.094" style="stroke: #A80036; stroke-width: 1.0;"/><!--link smaster2 to sminon21--><path d="M412.45,266.958 C406.291,268.507 400.02,269.915 394,271 C364.814,276.261 284.052,263.342 261,282 C235.444,302.685 216.331,399.764 208.672,444.864 " fill="none" id="smaster2-sminon21" style="stroke: #A80036; stroke-width: 1.0; stroke-dasharray: 7.0,7.0;"/><polygon fill="#A80036" points="207.838,449.84,213.272,441.6259,208.6653,444.9089,205.3823,440.3022,207.838,449.84" style="stroke: #A80036; stroke-width: 1.0;"/><!--link smaster2 to sminon22--><path d="M472.068,271.331 C502.206,310.602 572.923,402.748 605.725,445.491 " fill="none" id="smaster2-sminon22" style="stroke: #A80036; stroke-width: 1.0; stroke-dasharray: 7.0,7.0;"/><polygon fill="#A80036" points="608.968,449.716,606.6644,440.1403,605.925,445.7486,600.3167,445.0092,608.968,449.716" style="stroke: #A80036; stroke-width: 1.0;"/><!--link dockersaed to dockernode21--><path d="M334,369.025 C334,389.32 334,422.364 334,444.627 " fill="none" id="dockersaed-dockernode21" style="stroke: #A80036; stroke-width: 1.0; stroke-dasharray: 7.0,7.0;"/><polygon fill="#A80036" points="334,449.762,338,440.762,334,444.762,330,440.762,334,449.762" style="stroke: #A80036; stroke-width: 1.0;"/><!--link dockersaed to dockernode22--><path d="M358.944,369.006 C372.072,378.5 388.426,390.354 403,401 C423.739,416.148 447.063,433.324 464.905,446.492 " fill="none" id="dockersaed-dockernode22" style="stroke: #A80036; stroke-width: 1.0; stroke-dasharray: 7.0,7.0;"/><polygon fill="#A80036" points="469.318,449.75,464.4533,441.1864,465.2955,446.7803,459.7017,447.6225,469.318,449.75" style="stroke: #A80036; stroke-width: 1.0;"/><!--link sminon21 to dockernode21--><path d="M248.084,469 C257.991,469 267.899,469 277.806,469 " fill="none" id="sminon21-dockernode21" style="stroke: #A80036; stroke-width: 1.0;"/><polygon fill="#A80036" points="282.987,469,273.987,465,277.987,469,273.987,473,282.987,469" style="stroke: #A80036; stroke-width: 1.0;"/><!--link sminon22 to dockernode22--><path d="M579.816,469 C569.975,469 560.134,469 550.293,469 " fill="none" id="sminon22-dockernode22" style="stroke: #A80036; stroke-width: 1.0;"/><polygon fill="#A80036" points="545.146,469,554.146,473,550.146,469,554.146,465,545.146,469" style="stroke: #A80036; stroke-width: 1.0;"/><!--link sminon2 to dockersaed--><path d="M334,271.057 C334,286.513 334,308.865 334,325.673 " fill="none" id="sminon2-dockersaed" style="stroke: #A80036; stroke-width: 1.0;"/><polygon fill="#A80036" points="334,330.698,338,321.698,334,325.698,330,321.698,334,330.698" style="stroke: #A80036; stroke-width: 1.0;"/><!--link dockersdc to tc--><path d="M525.775,84 C535.765,84 545.754,84 555.744,84 " fill="none" id="dockersdc-tc" style="stroke: #A80036; stroke-width: 1.0; stroke-dasharray: 7.0,7.0;"/><polygon fill="#A80036" points="560.968,84,551.968,80,555.968,84,551.968,88,560.968,84" style="stroke: #A80036; stroke-width: 1.0;"/><!--link smaster to sminon2--><path d="M334,103.081 C334,133.391 334,194.409 334,227.824 " fill="none" id="smaster-sminon2" style="stroke: #A80036; stroke-width: 1.0; stroke-dasharray: 7.0,7.0;"/><polygon fill="#A80036" points="334,232.941,338,223.941,334,227.941,330,223.941,334,232.941" style="stroke: #A80036; stroke-width: 1.0;"/><!--link smaster2 to sminon2--><path d="M407.246,252 C397.2,252 387.155,252 377.109,252 " fill="none" id="smaster2-sminon2" style="stroke: #A80036; stroke-width: 2.0;"/><polygon fill="#A80036" points="412.499,252,403.499,248,407.499,252,403.499,256,412.499,252" style="stroke: #A80036; stroke-width: 2.0;"/><!--link smaster2 to sminon--><path d="M503.88,261.519 C601.212,279.593 827.577,321.625 926.866,340.062 " fill="none" id="smaster2-sminon" style="stroke: #A80036; stroke-width: 1.0; stroke-dasharray: 7.0,7.0;"/><polygon fill="#A80036" points="931.784,340.975,923.6656,335.399,926.868,340.0621,922.205,343.2645,931.784,340.975" style="stroke: #A80036; stroke-width: 1.0;"/><!--
@startuml

node "Edge Device (Machine)" #lightgray {
    component "Salt Minon" as sminon #lightyellow
    component "Docker Swarm" as dockersed #lightgreen
    collections "Device Agent" as dagent #white
    component "Docker Node" as dockernodeed #lightgreen
    agent "Data Controller" as datac #ffcc88
    agent "Service Controller" as servicec #lightgreen
    agent "Policy Engine" as pe #lightpink
    agent "Telemetry Producer" as tp #lightgray
}
dockernodeed - -> datac
dockernodeed - -> servicec
dockernodeed - -> pe
dockernodeed - -> tp
sminon -> dockersed
sminon -> dockernodeed
dockersed .. dockernodeed
dockersed -> dagent
datac <- - dagent
servicec <- - dagent
pe <- - dagent
tp <- - dagent

node "Aggregated Edge Device" #lightgray {
    node "Machine0" #white {
        component "Salt Master" as smaster2 #lightyellow
        component "Salt Minon" as sminon2 #lightyellow
        component "Docker Swarm" as dockersaed #lightgreen
        agent "Service Orchestrator" as soad #lightgreen
    }
    node "Machine1" #white {
        component "Salt Minon" as sminon21 #lightyellow
        component "Docker Node" as dockernode21 #lightgreen
        agent "Policy Engine" as pead #lightpink
        agent "Data Orchestrator" as doad #ffcc88
    }
    dockernode21 ..> pead
    dockernode21 ..> doad
    node "Machinen" #white {
        component "Salt Minon" as sminon22 #lightyellow
        component "Docker Node" as dockernode22 #lightgreen
        agent "Telemetry Aggregator" as tpad #lightgray
    }
    dockernode22 ..> tpad
    collections "Device Manager" as dm #white
    dockersaed - -> dm
    pead - -> dm
    doad <- dm
    soad <- dm
    tpad <- dm
    smaster2 ..> sminon21
    smaster2 ..> sminon22
    dockersaed ..> dockernode21
    dockersaed ..> dockernode22
    sminon21 -> dockernode21
    sminon22 -> dockernode22
    sminon2 - -> dockersaed
}

node "Data Center" {
    component "Salt Master" as smaster
    component "Docker Swarm" as dockersdc #lightgreen
    agent "Telemetry Consumer" as tc #lightgray
}
dockersdc .> tc
smaster ..> sminon2
smaster2 <= sminon2
smaster2 ..> sminon

@enduml

PlantUML version 1.2019.05(Sat Apr 20 09:45:36 PDT 2019)
(GPL source distribution)
Java Runtime: OpenJDK Runtime Environment
JVM: OpenJDK 64-Bit Server VM
Java Version: 12.0.1+12
Operating System: Windows 10
OS Version: 10.0
Default Encoding: Cp1252
Language: en
Country: US
--></g></svg>