<?xml version="1.0" encoding="UTF-8" standalone="no"?><svg xmlns="http://www.w3.org/2000/svg" xmlns:xlink="http://www.w3.org/1999/xlink" contentScriptType="application/ecmascript" contentStyleType="text/css" height="642px" preserveAspectRatio="none" style="width:462px;height:642px;" version="1.1" viewBox="0 0 462 642" width="462px" zoomAndPan="magnify"><defs><filter height="300%" id="f3njon3jvhl3c" width="300%" x="-1" y="-1"><feGaussianBlur result="blurOut" stdDeviation="2.0"/><feColorMatrix in="blurOut" result="blurOut2" type="matrix" values="0 0 0 0 0 0 0 0 0 0 0 0 0 0 0 0 0 0 .4 0"/><feOffset dx="4.0" dy="4.0" in="blurOut2" result="blurOut3"/><feBlend in="SourceGraphic" in2="blurOut3" mode="normal"/></filter></defs><g><!--cluster sml--><rect fill="#90EE90" filter="url(#f3njon3jvhl3c)" height="170" rx="12.5" ry="12.5" style="stroke: #A80036; stroke-width: 1.5;" width="144" x="41.5" y="24"/><rect fill="#FFFFFF" height="136.3906" rx="12.5" ry="12.5" style="stroke: #FFFFFF; stroke-width: 1.0;" width="138" x="44.5" y="54.6094"/><line style="stroke: #A80036; stroke-width: 1.5;" x1="41.5" x2="185.5" y1="51.6094" y2="51.6094"/><text fill="#000000" font-family="sans-serif" font-size="14" lengthAdjust="spacingAndGlyphs" textLength="21" x="103" y="42.5332">sml</text><!--cluster smlservice--><rect fill="#90EE90" filter="url(#f3njon3jvhl3c)" height="102" rx="12.5" ry="12.5" style="stroke: #A80036; stroke-width: 1.5;" width="96" x="65.5" y="68"/><rect fill="#FFFFFF" height="68.3906" rx="12.5" ry="12.5" style="stroke: #FFFFFF; stroke-width: 1.0;" width="90" x="68.5" y="98.6094"/><line style="stroke: #A80036; stroke-width: 1.5;" x1="65.5" x2="161.5" y1="95.6094" y2="95.6094"/><text fill="#000000" font-family="sans-serif" font-size="14" lengthAdjust="spacingAndGlyphs" textLength="47" x="90" y="86.5332">Service</text><!--cluster da--><rect fill="#E6E6FA" filter="url(#f3njon3jvhl3c)" height="170" rx="12.5" ry="12.5" style="stroke: #A80036; stroke-width: 1.5;" width="148" x="302" y="24"/><rect fill="#FFFFFF" height="136.3906" rx="12.5" ry="12.5" style="stroke: #FFFFFF; stroke-width: 1.0;" width="142" x="305" y="54.6094"/><line style="stroke: #A80036; stroke-width: 1.5;" x1="302" x2="450" y1="51.6094" y2="51.6094"/><text fill="#000000" font-family="sans-serif" font-size="14" lengthAdjust="spacingAndGlyphs" textLength="16" x="368" y="42.5332">da</text><!--cluster daservice--><rect fill="#E6E6FA" filter="url(#f3njon3jvhl3c)" height="102" rx="12.5" ry="12.5" style="stroke: #A80036; stroke-width: 1.5;" width="100" x="326" y="68"/><rect fill="#FFFFFF" height="68.3906" rx="12.5" ry="12.5" style="stroke: #FFFFFF; stroke-width: 1.0;" width="94" x="329" y="98.6094"/><line style="stroke: #A80036; stroke-width: 1.5;" x1="326" x2="426" y1="95.6094" y2="95.6094"/><text fill="#000000" font-family="sans-serif" font-size="14" lengthAdjust="spacingAndGlyphs" textLength="45" x="353.5" y="86.5332">service</text><rect fill="#90EE90" filter="url(#f3njon3jvhl3c)" height="50" rx="12.5" ry="12.5" style="stroke: #A80036; stroke-width: 1.5;" width="64" x="81.5" y="104"/><line style="stroke: #A80036; stroke-width: 1.5;" x1="81.5" x2="145.5" y1="131.6094" y2="131.6094"/><text fill="#000000" font-family="sans-serif" font-size="14" lengthAdjust="spacingAndGlyphs" textLength="44" x="91.5" y="123.5332">started</text><rect fill="#E6E6FA" filter="url(#f3njon3jvhl3c)" height="50" rx="12.5" ry="12.5" style="stroke: #A80036; stroke-width: 1.5;" width="68" x="342" y="104"/><line style="stroke: #A80036; stroke-width: 1.5;" x1="342" x2="410" y1="131.6094" y2="131.6094"/><text fill="#000000" font-family="sans-serif" font-size="14" lengthAdjust="spacingAndGlyphs" textLength="48" x="352" y="123.5332">register</text><rect fill="#D3D3D3" filter="url(#f3njon3jvhl3c)" height="421.6094" rx="12.5" ry="12.5" style="stroke: #A80036; stroke-width: 1.5;" width="215" x="6" y="210"/><rect fill="#FFFFFF" height="388" rx="12.5" ry="12.5" style="stroke: #FFFFFF; stroke-width: 1.0;" width="209" x="9" y="240.6094"/><line style="stroke: #A80036; stroke-width: 1.5;" x1="6" x2="221" y1="237.6094" y2="237.6094"/><text fill="#000000" font-family="sans-serif" font-size="14" lengthAdjust="spacingAndGlyphs" textLength="18" x="104.5" y="229.5332">cpl</text><rect fill="#D3D3D3" filter="url(#f3njon3jvhl3c)" height="365.6094" rx="12.5" ry="12.5" style="stroke: #A80036; stroke-width: 1.5;" width="171" x="17" y="250.6094"/><rect fill="#FFFFFF" height="332" rx="12.5" ry="12.5" style="stroke: #FFFFFF; stroke-width: 1.0;" width="165" x="20" y="281.2188"/><line style="stroke: #A80036; stroke-width: 1.5;" x1="17" x2="188" y1="278.2188" y2="278.2188"/><text fill="#000000" font-family="sans-serif" font-size="14" lengthAdjust="spacingAndGlyphs" textLength="16" x="94.5" y="270.1426">da</text><rect fill="#FEFECE" filter="url(#f3njon3jvhl3c)" height="50" rx="12.5" ry="12.5" style="stroke: #A80036; stroke-width: 1.5;" width="127" x="28" y="551.2188"/><line style="stroke: #A80036; stroke-width: 1.5;" x1="28" x2="155" y1="578.8281" y2="578.8281"/><text fill="#000000" font-family="sans-serif" font-size="14" lengthAdjust="spacingAndGlyphs" textLength="107" x="38" y="570.752">Custom Function</text><rect fill="#D3D3D3" filter="url(#f3njon3jvhl3c)" height="50" rx="12.5" ry="12.5" style="stroke: #A80036; stroke-width: 1.5;" width="70" x="56.5" y="483.2188"/><line style="stroke: #A80036; stroke-width: 1.5;" x1="56.5" x2="126.5" y1="510.8281" y2="510.8281"/><text fill="#000000" font-family="sans-serif" font-size="14" lengthAdjust="spacingAndGlyphs" textLength="50" x="66.5" y="502.752">connect</text><rect fill="#D3D3D3" filter="url(#f3njon3jvhl3c)" height="50" rx="12.5" ry="12.5" style="stroke: #A80036; stroke-width: 1.5;" width="68" x="57.5" y="415.2188"/><line style="stroke: #A80036; stroke-width: 1.5;" x1="57.5" x2="125.5" y1="442.8281" y2="442.8281"/><text fill="#000000" font-family="sans-serif" font-size="14" lengthAdjust="spacingAndGlyphs" textLength="48" x="67.5" y="434.752">register</text><rect fill="#D3D3D3" filter="url(#f3njon3jvhl3c)" height="105.6094" rx="12.5" ry="12.5" style="stroke: #A80036; stroke-width: 1.5;" width="112" x="35.5" y="291.2188"/><rect fill="#FFFFFF" height="72" rx="12.5" ry="12.5" style="stroke: #FFFFFF; stroke-width: 1.0;" width="106" x="38.5" y="321.8281"/><line style="stroke: #A80036; stroke-width: 1.5;" x1="35.5" x2="147.5" y1="318.8281" y2="318.8281"/><text fill="#000000" font-family="sans-serif" font-size="14" lengthAdjust="spacingAndGlyphs" textLength="45" x="69" y="310.752">service</text><rect fill="#D3D3D3" filter="url(#f3njon3jvhl3c)" height="50" rx="12.5" ry="12.5" style="stroke: #A80036; stroke-width: 1.5;" width="68" x="46.5" y="331.8281"/><line style="stroke: #A80036; stroke-width: 1.5;" x1="46.5" x2="114.5" y1="359.4375" y2="359.4375"/><text fill="#000000" font-family="sans-serif" font-size="14" lengthAdjust="spacingAndGlyphs" textLength="48" x="56.5" y="351.3613">register</text><!--link smlservicestarted to daserviceregister--><path d="M145.664,129 C193.45,129 284.724,129 336.551,129 " fill="none" id="smlservicestarted-daserviceregister" style="stroke: #A80036; stroke-width: 1.0;"/><polygon fill="#A80036" points="341.748,129,332.748,125,336.748,129,332.748,133,341.748,129" style="stroke: #A80036; stroke-width: 1.0;"/><!--
@startuml
left to right direction


state "cpl" as cpl #lightgray {
state "da" as cplda #lightgray {
}
}


state cplda #lightgray {
    state "Custom Function" as dafunction {
    }
}

        state "cpl" as cpl #lightgray {
state "da" as cplda #lightgray {
state "connect" as cpldaconnect #lightgray {
}
}
}


        state "cpl" as cpl #lightgray {
state "da" as cplda #lightgray {
state "register" as cpldaregister #lightgray {
}
}
}


        state "cpl" as cpl #lightgray {
state "da" as cplda #lightgray {
state "service" as cpldaservice #lightgray {
state "register" as cpldaserviceregister #lightgray {
}
}
}
}




        state "sml" as sml #lightgreen {
state "Service" as smlservice #lightgreen {
state "started" as smlservicestarted #lightgreen {
}
}
}

        
    state "da" as da #lavender {
state "service" as daservice #lavender {
state "register" as daserviceregister #lavender {
}
}
}

    smlservicestarted - - -> daserviceregister
  



@enduml

PlantUML version 1.2019.05(Sat Apr 20 09:45:36 PDT 2019)
(GPL source distribution)
Java Runtime: OpenJDK Runtime Environment
JVM: OpenJDK 64-Bit Server VM
Java Version: 12.0.1+12
Operating System: Windows 10
OS Version: 10.0
Default Encoding: Cp1252
Language: en
Country: US
--></g></svg>