<?xml version="1.0" encoding="UTF-8" standalone="no"?><svg xmlns="http://www.w3.org/2000/svg" xmlns:xlink="http://www.w3.org/1999/xlink" contentScriptType="application/ecmascript" contentStyleType="text/css" height="196px" preserveAspectRatio="none" style="width:258px;height:196px;" version="1.1" viewBox="0 0 258 196" width="258px" zoomAndPan="magnify"><defs><filter height="300%" id="f18ais4bohp1r4" width="300%" x="-1" y="-1"><feGaussianBlur result="blurOut" stdDeviation="2.0"/><feColorMatrix in="blurOut" result="blurOut2" type="matrix" values="0 0 0 0 0 0 0 0 0 0 0 0 0 0 0 0 0 0 .4 0"/><feOffset dx="4.0" dy="4.0" in="blurOut2" result="blurOut3"/><feBlend in="SourceGraphic" in2="blurOut3" mode="normal"/></filter></defs><g><!--cluster Device Agent--><polygon fill="#D3D3D3" filter="url(#f18ais4bohp1r4)" points="22,42,122,42,129,65.6094,236,65.6094,236,184,22,184,22,42" style="stroke: #000000; stroke-width: 1.5;"/><line style="stroke: #000000; stroke-width: 1.5;" x1="22" x2="129" y1="65.6094" y2="65.6094"/><text fill="#000000" font-family="sans-serif" font-size="14" font-weight="bold" lengthAdjust="spacingAndGlyphs" textLength="94" x="26" y="58.5332">Device Agent</text><!--class i--><rect fill="#FEFECE" filter="url(#f18ais4bohp1r4)" height="89.5078" id="i" style="stroke: #A80036; stroke-width: 1.5;" width="182" x="38" y="78"/><ellipse cx="88.25" cy="94" fill="#B4A7E5" rx="11" ry="11" style="stroke: #A80036; stroke-width: 1.0;"/><path d="M89.2031,90.6406 L89.2031,97.2969 L90.9219,97.2969 Q91.5313,97.2969 91.7969,97.5313 Q92.0625,97.7656 92.0625,98.1563 Q92.0625,98.5313 91.7969,98.7656 Q91.5313,99 90.9219,99 L85.7813,99 Q85.1719,99 84.9063,98.7656 Q84.6406,98.5313 84.6406,98.1406 Q84.6406,97.7656 84.9063,97.5313 Q85.1719,97.2969 85.7813,97.2969 L87.5,97.2969 L87.5,90.6406 L85.7813,90.6406 Q85.1719,90.6406 84.9063,90.4063 Q84.6406,90.1719 84.6406,89.7813 Q84.6406,89.4063 84.9063,89.1719 Q85.1719,88.9375 85.7813,88.9375 L90.9219,88.9375 Q91.5313,88.9375 91.7969,89.1719 Q92.0625,89.4063 92.0625,89.7813 Q92.0625,90.1719 91.7969,90.4063 Q91.5313,90.6406 90.9219,90.6406 L89.2031,90.6406 Z "/><text fill="#000000" font-family="sans-serif" font-size="12" font-style="italic" lengthAdjust="spacingAndGlyphs" textLength="73" x="108.75" y="98.9102">Device Agent</text><line style="stroke: #A80036; stroke-width: 1.5;" x1="39" x2="219" y1="110" y2="110"/><line style="stroke: #A80036; stroke-width: 1.5;" x1="39" x2="219" y1="118" y2="118"/><text fill="#000000" font-family="sans-serif" font-size="11" lengthAdjust="spacingAndGlyphs" textLength="133" x="44" y="133.4189">/edgemere/cpl/da/connect()</text><text fill="#000000" font-family="sans-serif" font-size="11" lengthAdjust="spacingAndGlyphs" textLength="131" x="44" y="147.2549">/edgemere/cpl/da/register()</text><text fill="#000000" font-family="sans-serif" font-size="11" lengthAdjust="spacingAndGlyphs" textLength="170" x="44" y="161.0908">/edgemere/cpl/da/service/register()</text><ellipse cx="84" cy="13" fill="#FEFECE" filter="url(#f18ais4bohp1r4)" rx="5" ry="5" style="stroke: #A80036; stroke-width: 1.5;"/><text fill="#000000" font-family="sans-serif" font-size="12" lengthAdjust="spacingAndGlyphs" textLength="19" x="74.5" y="30.457">CLI</text><ellipse cx="129" cy="13" fill="#FEFECE" filter="url(#f18ais4bohp1r4)" rx="5" ry="5" style="stroke: #A80036; stroke-width: 1.5;"/><text fill="#000000" font-family="sans-serif" font-size="12" lengthAdjust="spacingAndGlyphs" textLength="32" x="113" y="30.457">REST</text><ellipse cx="174" cy="13" fill="#FEFECE" filter="url(#f18ais4bohp1r4)" rx="5" ry="5" style="stroke: #A80036; stroke-width: 1.5;"/><text fill="#000000" font-family="sans-serif" font-size="12" lengthAdjust="spacingAndGlyphs" textLength="25" x="161.5" y="30.457">Web</text><!--link ilol1699 to i--><path d="M85.6016,17.844 C89.6567,27.576 100.7145,54.115 110.653,77.966 " fill="none" id="ilol1699-i" style="stroke: #A80036; stroke-width: 1.0;"/><!--link ilol1702 to i--><path d="M129,18.102 C129,28.043 129,54.347 129,77.999 " fill="none" id="ilol1702-i" style="stroke: #A80036; stroke-width: 1.0;"/><!--link ilol1705 to i--><path d="M172.398,17.844 C168.343,27.576 157.285,54.115 147.347,77.966 " fill="none" id="ilol1705-i" style="stroke: #A80036; stroke-width: 1.0;"/><!--
@startuml



package "Device Agent" #lightgray {

    interface "Device Agent" as i {
            /edgemere/cpl/da/connect()
            /edgemere/cpl/da/register()
            /edgemere/cpl/da/service/register()
    
    }
}

CLI ()- - i
REST ()- - i
Web ()- - i

package "Device Agent" #lightgray {


}



@enduml

PlantUML version 1.2019.05(Sat Apr 20 09:45:36 PDT 2019)
(GPL source distribution)
Java Runtime: OpenJDK Runtime Environment
JVM: OpenJDK 64-Bit Server VM
Java Version: 12.0.1+12
Operating System: Windows 10
OS Version: 10.0
Default Encoding: Cp1252
Language: en
Country: US
--></g></svg>