<?xml version="1.0" encoding="UTF-8" standalone="no"?><svg xmlns="http://www.w3.org/2000/svg" xmlns:xlink="http://www.w3.org/1999/xlink" contentScriptType="application/ecmascript" contentStyleType="text/css" height="693px" preserveAspectRatio="none" style="width:379px;height:693px;" version="1.1" viewBox="0 0 379 693" width="379px" zoomAndPan="magnify"><defs><filter height="300%" id="flksvkp1i4xh5" width="300%" x="-1" y="-1"><feGaussianBlur result="blurOut" stdDeviation="2.0"/><feColorMatrix in="blurOut" result="blurOut2" type="matrix" values="0 0 0 0 0 0 0 0 0 0 0 0 0 0 0 0 0 0 .4 0"/><feOffset dx="4.0" dy="4.0" in="blurOut2" result="blurOut3"/><feBlend in="SourceGraphic" in2="blurOut3" mode="normal"/></filter></defs><g><!--cluster aml--><rect fill="#ADD8E6" filter="url(#flksvkp1i4xh5)" height="88" style="stroke: #000000; stroke-width: 1.5;" width="231" x="137" y="24"/><text fill="#000000" font-family="sans-serif" font-size="14" font-weight="bold" lengthAdjust="spacingAndGlyphs" textLength="215" x="145" y="40.5332">Application Management Layer</text><!--cluster cds--><rect fill="#FFCC88" filter="url(#flksvkp1i4xh5)" height="84" style="stroke: #000000; stroke-width: 1.5;" width="170" x="167" y="136"/><text fill="#000000" font-family="sans-serif" font-size="14" font-weight="bold" lengthAdjust="spacingAndGlyphs" textLength="154" x="175" y="152.5332">Common Data Service</text><!--cluster ddf--><rect fill="#FFCC88" filter="url(#flksvkp1i4xh5)" height="322" style="stroke: #000000; stroke-width: 1.5;" width="222" x="141" y="244"/><text fill="#000000" font-family="sans-serif" font-size="14" font-weight="bold" lengthAdjust="spacingAndGlyphs" textLength="185" x="159.5" y="260.5332">Data Definition Framework</text><!--cluster dml--><rect fill="#FFCC88" filter="url(#flksvkp1i4xh5)" height="92" style="stroke: #000000; stroke-width: 1.5;" width="204" x="150" y="590"/><text fill="#000000" font-family="sans-serif" font-size="14" font-weight="bold" lengthAdjust="spacingAndGlyphs" textLength="168" x="168" y="606.5332">Data Management Layer</text><ellipse cx="251.8153" cy="78.0631" fill="#FEFECE" filter="url(#flksvkp1i4xh5)" rx="75.8153" ry="17.5631" style="stroke: #A80036; stroke-width: 1.5;"/><text fill="#000000" font-family="sans-serif" font-size="14" lengthAdjust="spacingAndGlyphs" textLength="116" x="193.8153" y="83.3677">Manage AI Models</text><ellipse cx="252.1041" cy="187.9517" fill="#FEFECE" filter="url(#flksvkp1i4xh5)" rx="63.1041" ry="15.4517" style="stroke: #A80036; stroke-width: 1.5;"/><text fill="#000000" font-family="sans-serif" font-size="14" lengthAdjust="spacingAndGlyphs" textLength="85" x="209.6041" y="193.2564">Manage Data</text><ellipse cx="252.2471" cy="300.0494" fill="#FEFECE" filter="url(#flksvkp1i4xh5)" rx="88.2471" ry="20.0494" style="stroke: #A80036; stroke-width: 1.5;"/><text fill="#000000" font-family="sans-serif" font-size="14" lengthAdjust="spacingAndGlyphs" textLength="146" x="179.2471" y="305.3541">Manage Data Adaptors</text><ellipse cx="252.0017" cy="376.0003" fill="#FEFECE" filter="url(#flksvkp1i4xh5)" rx="93.0017" ry="21.0003" style="stroke: #A80036; stroke-width: 1.5;"/><text fill="#000000" font-family="sans-serif" font-size="14" lengthAdjust="spacingAndGlyphs" textLength="157" x="173.5017" y="381.305">Manage Data Blue Prints</text><ellipse cx="251.7698" cy="451.954" fill="#FEFECE" filter="url(#flksvkp1i4xh5)" rx="85.2698" ry="19.454" style="stroke: #A80036; stroke-width: 1.5;"/><text fill="#000000" font-family="sans-serif" font-size="14" lengthAdjust="spacingAndGlyphs" textLength="139" x="182.2698" y="457.2586">Manage Data Pipeline</text><ellipse cx="252.1904" cy="527.9381" fill="#FEFECE" filter="url(#flksvkp1i4xh5)" rx="95.1904" ry="21.4381" style="stroke: #A80036; stroke-width: 1.5;"/><text fill="#000000" font-family="sans-serif" font-size="14" lengthAdjust="spacingAndGlyphs" textLength="162" x="171.1904" y="533.2428">Manage Data Procedures</text><ellipse cx="252.1163" cy="646.1233" fill="#FEFECE" filter="url(#flksvkp1i4xh5)" rx="86.1163" ry="19.6233" style="stroke: #A80036; stroke-width: 1.5;"/><text fill="#000000" font-family="sans-serif" font-size="14" lengthAdjust="spacingAndGlyphs" textLength="141" x="181.6163" y="651.4279">Manage Data Sources</text><!--entity DataEngineer--><ellipse cx="49.5" cy="343.5" fill="#FEFECE" filter="url(#flksvkp1i4xh5)" rx="8" ry="8" style="stroke: #A80036; stroke-width: 2.0;"/><path d="M49.5,351.5 L49.5,378.5 M36.5,359.5 L62.5,359.5 M49.5,378.5 L36.5,393.5 M49.5,378.5 L62.5,393.5 " fill="none" filter="url(#flksvkp1i4xh5)" style="stroke: #A80036; stroke-width: 2.0;"/><text fill="#000000" font-family="sans-serif" font-size="14" lengthAdjust="spacingAndGlyphs" textLength="87" x="6" y="415.0332">DataEngineer</text><!--link DataEngineer to ManageAIModels--><path d="M57.2389,333.074 C66.513,285.535 87.0729,208.667 129,156 C150.388,129.134 183.686,108.731 210.095,95.543 " fill="none" id="DataEngineer-ManageAIModels" style="stroke: #A80036; stroke-width: 1.0;"/><polygon fill="#A80036" points="214.605,93.326,204.7635,93.7066,210.1178,95.5317,208.2927,100.8861,214.605,93.326" style="stroke: #A80036; stroke-width: 1.0;"/><!--link DataEngineer to ManageData--><path d="M74.7089,333.255 C88.692,310.941 107.71,284.166 129,264 C155.436,238.96 191.372,217.773 217.389,204.183 " fill="none" id="DataEngineer-ManageData" style="stroke: #A80036; stroke-width: 1.0;"/><polygon fill="#A80036" points="222.127,201.734,212.2952,202.3132,217.6853,204.0299,215.9686,209.42,222.127,201.734" style="stroke: #A80036; stroke-width: 1.0;"/><!--link DataEngineer to ManageDataAdaptors--><path d="M93.1006,353.227 C104.5824,347.535 117.118,341.715 129,337 C148.25,329.361 169.726,322.363 189.23,316.558 " fill="none" id="DataEngineer-ManageDataAdaptors" style="stroke: #A80036; stroke-width: 1.0;"/><polygon fill="#A80036" points="194.144,315.108,184.3798,313.8198,189.3486,316.5236,186.6448,321.4925,194.144,315.108" style="stroke: #A80036; stroke-width: 1.0;"/><!--link DataEngineer to ManageDataBluePrints--><path d="M93.0209,376 C110.793,376 132.237,376 153.515,376 " fill="none" id="DataEngineer-ManageDataBluePrints" style="stroke: #A80036; stroke-width: 1.0;"/><polygon fill="#A80036" points="158.627,376,149.627,372,153.627,376,149.627,380,158.627,376" style="stroke: #A80036; stroke-width: 1.0;"/><!--link DataEngineer to ManageDataPipeline--><path d="M93.1726,398.08 C104.6539,403.627 117.172,409.325 129,414 C149.246,422.002 171.897,429.453 192.135,435.599 " fill="none" id="DataEngineer-ManageDataPipeline" style="stroke: #A80036; stroke-width: 1.0;"/><polygon fill="#A80036" points="196.953,437.052,189.492,430.6229,192.1661,435.6078,187.1812,438.2819,196.953,437.052" style="stroke: #A80036; stroke-width: 1.0;"/><!--link DataEngineer to ManageDataProcedures--><path d="M71.1513,418.592 C84.6338,442.355 104.316,470.755 129,489 C142.613,499.062 158.917,506.588 175.109,512.197 " fill="none" id="DataEngineer-ManageDataProcedures" style="stroke: #A80036; stroke-width: 1.0;"/><polygon fill="#A80036" points="180.128,513.877,172.8632,507.227,175.3866,512.2899,170.3237,514.8133,180.128,513.877" style="stroke: #A80036; stroke-width: 1.0;"/><!--link DataEngineer to ManageDataSources--><path d="M60.2963,418.719 C71.4433,459.963 92.9435,522.41 129,566 C150.353,591.814 182.209,612.3093 208.014,626.0908 " fill="none" id="DataEngineer-ManageDataSources" style="stroke: #A80036; stroke-width: 1.0;"/><polygon fill="#A80036" points="212.758,628.5857,206.6559,620.855,208.3332,626.2574,202.9307,627.9347,212.758,628.5857" style="stroke: #A80036; stroke-width: 1.0;"/><!--
@startuml

left to right direction


Actor "DataEngineer" as DataEngineer


rectangle "Application Management Layer" as aml #lightblue {
        usecase "Manage AI Models" as ManageAIModels
    DataEngineer - -> ManageAIModels

}

rectangle "Common Data Service" as cds #ffcc88 {
        usecase "Manage Data" as ManageData
    DataEngineer - -> ManageData

}

rectangle "Data Definition Framework" as ddf #ffcc88 {
        usecase "Manage Data Adaptors" as ManageDataAdaptors
    DataEngineer - -> ManageDataAdaptors
    usecase "Manage Data Blue Prints" as ManageDataBluePrints
    DataEngineer - -> ManageDataBluePrints
    usecase "Manage Data Pipeline" as ManageDataPipeline
    DataEngineer - -> ManageDataPipeline
    usecase "Manage Data Procedures" as ManageDataProcedures
    DataEngineer - -> ManageDataProcedures

}

rectangle "Data Management Layer" as dml #ffcc88 {
        usecase "Manage Data Sources" as ManageDataSources
    DataEngineer - -> ManageDataSources

}


@enduml

PlantUML version 1.2019.05(Sat Apr 20 09:45:36 PDT 2019)
(GPL source distribution)
Java Runtime: OpenJDK Runtime Environment
JVM: OpenJDK 64-Bit Server VM
Java Version: 12.0.1+12
Operating System: Windows 10
OS Version: 10.0
Default Encoding: Cp1252
Language: en
Country: US
--></g></svg>