<?xml version="1.0" encoding="UTF-8" standalone="no"?><svg xmlns="http://www.w3.org/2000/svg" xmlns:xlink="http://www.w3.org/1999/xlink" contentScriptType="application/ecmascript" contentStyleType="text/css" height="685px" preserveAspectRatio="none" style="width:673px;height:685px;" version="1.1" viewBox="0 0 673 685" width="673px" zoomAndPan="magnify"><defs><filter height="300%" id="f4311dfh0fbkt" width="300%" x="-1" y="-1"><feGaussianBlur result="blurOut" stdDeviation="2.0"/><feColorMatrix in="blurOut" result="blurOut2" type="matrix" values="0 0 0 0 0 0 0 0 0 0 0 0 0 0 0 0 0 0 .4 0"/><feOffset dx="4.0" dy="4.0" in="blurOut2" result="blurOut3"/><feBlend in="SourceGraphic" in2="blurOut3" mode="normal"/></filter></defs><g><!--cluster Transform Services--><polygon fill="#ADD8E6" filter="url(#f4311dfh0fbkt)" points="45.5,84,188.5,84,195.5,107.6094,651.5,107.6094,651.5,673,45.5,673,45.5,84" style="stroke: #000000; stroke-width: 1.5;"/><line style="stroke: #000000; stroke-width: 1.5;" x1="45.5" x2="195.5" y1="107.6094" y2="107.6094"/><text fill="#000000" font-family="sans-serif" font-size="14" font-weight="bold" lengthAdjust="spacingAndGlyphs" textLength="137" x="49.5" y="100.5332">Transform Services</text><!--cluster bin--><polygon fill="#FFFFFF" filter="url(#f4311dfh0fbkt)" points="151.5,128,179.5,128,186.5,151.6094,387.5,151.6094,387.5,218,151.5,218,151.5,128" style="stroke: #000000; stroke-width: 1.5;"/><line style="stroke: #000000; stroke-width: 1.5;" x1="151.5" x2="186.5" y1="151.6094" y2="151.6094"/><text fill="#000000" font-family="sans-serif" font-size="14" font-weight="bold" lengthAdjust="spacingAndGlyphs" textLength="22" x="155.5" y="144.5332">bin</text><!--cluster deploy--><polygon fill="#FFFFFF" filter="url(#f4311dfh0fbkt)" points="69.5,324,122.5,324,129.5,347.6094,627.5,347.6094,627.5,431,69.5,431,69.5,324" style="stroke: #000000; stroke-width: 1.5;"/><line style="stroke: #000000; stroke-width: 1.5;" x1="69.5" x2="129.5" y1="347.6094" y2="347.6094"/><text fill="#000000" font-family="sans-serif" font-size="14" font-weight="bold" lengthAdjust="spacingAndGlyphs" textLength="47" x="73.5" y="340.5332">deploy</text><!--cluster images--><polygon fill="#FFFFFF" filter="url(#f4311dfh0fbkt)" points="81.5,455,137.5,455,144.5,478.6094,627.5,478.6094,627.5,649,81.5,649,81.5,455" style="stroke: #000000; stroke-width: 1.5;"/><line style="stroke: #000000; stroke-width: 1.5;" x1="81.5" x2="144.5" y1="478.6094" y2="478.6094"/><text fill="#000000" font-family="sans-serif" font-size="14" font-weight="bold" lengthAdjust="spacingAndGlyphs" textLength="50" x="85.5" y="471.5332">images</text><!--entity REST--><rect fill="#FEFECE" filter="url(#f4311dfh0fbkt)" height="37.6094" style="stroke: #A80036; stroke-width: 1.5;" width="69" x="235" y="262"/><rect fill="#FEFECE" height="5" style="stroke: #A80036; stroke-width: 1.5;" width="10" x="230" y="267"/><rect fill="#FEFECE" height="5" style="stroke: #A80036; stroke-width: 1.5;" width="10" x="230" y="289.6094"/><text fill="#000000" font-family="sans-serif" font-size="14" lengthAdjust="spacingAndGlyphs" textLength="49" x="245" y="286.5332">express</text><!--entity socket--><rect fill="#FEFECE" filter="url(#f4311dfh0fbkt)" height="37.6094" style="stroke: #A80036; stroke-width: 1.5;" width="76" x="420.5" y="164"/><rect fill="#FEFECE" height="5" style="stroke: #A80036; stroke-width: 1.5;" width="10" x="415.5" y="169"/><rect fill="#FEFECE" height="5" style="stroke: #A80036; stroke-width: 1.5;" width="10" x="415.5" y="191.6094"/><text fill="#000000" font-family="sans-serif" font-size="14" lengthAdjust="spacingAndGlyphs" textLength="56" x="430.5" y="188.5332">socket.io</text><!--entity binName--><rect fill="#FEFECE" filter="url(#f4311dfh0fbkt)" height="37.6094" style="stroke: #A80036; stroke-width: 1.5;" width="203" x="168" y="164"/><rect fill="#FEFECE" height="5" style="stroke: #A80036; stroke-width: 1.5;" width="10" x="163" y="169"/><rect fill="#FEFECE" height="5" style="stroke: #A80036; stroke-width: 1.5;" width="10" x="163" y="191.6094"/><text fill="#000000" font-family="sans-serif" font-size="14" lengthAdjust="spacingAndGlyphs" textLength="183" x="178" y="188.5332">edgemere diml cds transform</text><!--entity transform_container--><polygon fill="#FEFECE" filter="url(#f4311dfh0fbkt)" points="85.5,360,85.5,415.2188,235.5,415.2188,235.5,370,225.5,360,85.5,360" style="stroke: #000000; stroke-width: 1.5;"/><path d="M225.5,360 L225.5,370 L235.5,370 " fill="#FEFECE" style="stroke: #000000; stroke-width: 1.5;"/><text fill="#000000" font-family="sans-serif" font-size="14" lengthAdjust="spacingAndGlyphs" textLength="90" x="95.5" y="384.5332">node server.js</text><text fill="#000000" font-family="sans-serif" font-size="14" lengthAdjust="spacingAndGlyphs" textLength="130" x="95.5" y="402.1426">docker-compose.yml</text><!--entity web_container--><polygon fill="#FEFECE" filter="url(#f4311dfh0fbkt)" points="472,368.5,472,406.1094,611,406.1094,611,378.5,601,368.5,472,368.5" style="stroke: #000000; stroke-width: 1.5;"/><path d="M601,368.5 L601,378.5 L611,378.5 " fill="#FEFECE" style="stroke: #000000; stroke-width: 1.5;"/><text fill="#000000" font-family="sans-serif" font-size="14" lengthAdjust="spacingAndGlyphs" textLength="119" x="482" y="393.0332">node web/server.js</text><!--entity gateway_container--><polygon fill="#FEFECE" filter="url(#f4311dfh0fbkt)" points="270.5,368.5,270.5,406.1094,436.5,406.1094,436.5,378.5,426.5,368.5,270.5,368.5" style="stroke: #000000; stroke-width: 1.5;"/><path d="M426.5,368.5 L426.5,378.5 L436.5,378.5 " fill="#FEFECE" style="stroke: #000000; stroke-width: 1.5;"/><text fill="#000000" font-family="sans-serif" font-size="14" lengthAdjust="spacingAndGlyphs" textLength="146" x="280.5" y="393.0332">node gateway/server.js</text><!--entity transformimage--><rect fill="#FEFECE" filter="url(#f4311dfh0fbkt)" height="33.6094" style="stroke: #000000; stroke-width: 1.5;" width="76" x="101.5" y="496.5"/><rect fill="#FEFECE" height="33.6094" style="stroke: #000000; stroke-width: 1.5;" width="76" x="97.5" y="492.5"/><text fill="#000000" font-family="sans-serif" font-size="14" lengthAdjust="spacingAndGlyphs" textLength="60" x="105.5" y="515.0332">transform</text><!--entity ailtireswarm--><rect fill="#FEFECE" filter="url(#f4311dfh0fbkt)" height="40.6094" style="stroke: #000000; stroke-width: 1.5;" width="108" x="97.5" y="592"/><polygon fill="#FEFECE" points="188.5,597,188.5,611,200.5,611,200.5,603,194.5,597,188.5,597" style="stroke: #000000; stroke-width: 1.5;"/><line style="stroke: #000000; stroke-width: 1.5;" x1="194.5" x2="194.5" y1="597" y2="603"/><line style="stroke: #000000; stroke-width: 1.5;" x1="200.5" x2="194.5" y1="603" y2="603"/><text fill="#000000" font-family="sans-serif" font-size="14" lengthAdjust="spacingAndGlyphs" textLength="78" x="107.5" y="619.5332">ailtire:swarm</text><!--entity diml_cds_transform_web--><rect fill="#FEFECE" filter="url(#f4311dfh0fbkt)" height="40.6094" style="stroke: #000000; stroke-width: 1.5;" width="186" x="425.5" y="491"/><polygon fill="#FEFECE" points="594.5,496,594.5,510,606.5,510,606.5,502,600.5,496,594.5,496" style="stroke: #000000; stroke-width: 1.5;"/><line style="stroke: #000000; stroke-width: 1.5;" x1="600.5" x2="600.5" y1="496" y2="502"/><line style="stroke: #000000; stroke-width: 1.5;" x1="606.5" x2="600.5" y1="502" y2="502"/><text fill="#000000" font-family="sans-serif" font-size="14" lengthAdjust="spacingAndGlyphs" textLength="156" x="435.5" y="518.5332">diml_cds_transform_web</text><!--entity diml_cds_transform_gw--><rect fill="#FEFECE" filter="url(#f4311dfh0fbkt)" height="40.6094" style="stroke: #000000; stroke-width: 1.5;" width="178" x="212.5" y="491"/><polygon fill="#FEFECE" points="373.5,496,373.5,510,385.5,510,385.5,502,379.5,496,373.5,496" style="stroke: #000000; stroke-width: 1.5;"/><line style="stroke: #000000; stroke-width: 1.5;" x1="379.5" x2="379.5" y1="496" y2="502"/><line style="stroke: #000000; stroke-width: 1.5;" x1="385.5" x2="379.5" y1="502" y2="502"/><text fill="#000000" font-family="sans-serif" font-size="14" lengthAdjust="spacingAndGlyphs" textLength="148" x="222.5" y="518.5332">diml_cds_transform_gw</text><!--entity CLI--><ellipse cx="269.5" cy="38" fill="#FEFECE" filter="url(#f4311dfh0fbkt)" rx="8" ry="8" style="stroke: #A80036; stroke-width: 2.0;"/><text fill="#000000" font-family="sans-serif" font-size="14" lengthAdjust="spacingAndGlyphs" textLength="21" x="259" y="69.5332">CLI</text><!--entity Web--><ellipse cx="20.5" cy="281" fill="#FEFECE" filter="url(#f4311dfh0fbkt)" rx="8" ry="8" style="stroke: #A80036; stroke-width: 2.0;"/><text fill="#000000" font-family="sans-serif" font-size="14" lengthAdjust="spacingAndGlyphs" textLength="29" x="6" y="312.5332">Web</text><!--entity WebSocket--><ellipse cx="458.5" cy="38" fill="#FEFECE" filter="url(#f4311dfh0fbkt)" rx="8" ry="8" style="stroke: #A80036; stroke-width: 2.0;"/><text fill="#000000" font-family="sans-serif" font-size="14" lengthAdjust="spacingAndGlyphs" textLength="72" x="422.5" y="69.5332">WebSocket</text><!--link binName to REST--><path d="M269.5,202.057 C269.5,217.513 269.5,239.865 269.5,256.673 " fill="none" id="binName-REST" style="stroke: #A80036; stroke-width: 1.0;"/><polygon fill="#A80036" points="269.5,261.698,273.5,252.698,269.5,256.698,265.5,252.698,269.5,261.698" style="stroke: #A80036; stroke-width: 1.0;"/><!--link REST to transform_container--><path d="M250.514,300.203 C234.388,315.662 210.916,338.166 191.983,356.316 " fill="none" id="REST-transform_container" style="stroke: #A80036; stroke-width: 1.0;"/><polygon fill="#A80036" points="188.261,359.885,197.5257,356.5434,191.87,356.4245,191.9889,350.7689,188.261,359.885" style="stroke: #A80036; stroke-width: 1.0;"/><!--link REST to web_container--><path d="M304.244,283.381 C342.41,286.022 404.758,293.7 453.5,316 C479.318,327.812 504.126,348.867 520.783,364.902 " fill="none" id="REST-web_container" style="stroke: #A80036; stroke-width: 1.0;"/><polygon fill="#A80036" points="524.419,368.448,520.7667,359.3014,520.8387,364.9578,515.1824,365.0298,524.419,368.448" style="stroke: #A80036; stroke-width: 1.0;"/><!--link socket to web_container--><path d="M466.012,202.328 C481.197,239.375 515.509,323.087 532.128,363.635 " fill="none" id="socket-web_container" style="stroke: #A80036; stroke-width: 1.0;"/><polygon fill="#A80036" points="534.065,368.36,534.3518,358.5153,532.1682,363.7337,526.9498,361.5502,534.065,368.36" style="stroke: #A80036; stroke-width: 1.0;"/><!--link REST to gateway_container--><path d="M284.132,300.203 C298.378,317.925 320.065,344.905 335.392,363.972 " fill="none" id="REST-gateway_container" style="stroke: #A80036; stroke-width: 1.0;"/><polygon fill="#A80036" points="338.754,368.155,336.2327,358.6343,335.6213,364.2581,329.9976,363.6467,338.754,368.155" style="stroke: #A80036; stroke-width: 1.0;"/><!--link socket to gateway_container--><path d="M448.997,202.328 C429.787,239.375 386.381,323.087 365.356,363.635 " fill="none" id="socket-gateway_container" style="stroke: #A80036; stroke-width: 1.0;"/><polygon fill="#A80036" points="362.906,368.36,370.5998,362.2114,365.2075,363.9212,363.4977,358.5289,362.906,368.36" style="stroke: #A80036; stroke-width: 1.0;"/><!--link transformimage to ailtireswarm--><path d="M142.93,550.896 C144.905,564.862 147.055,580.071 148.708,591.7594 " fill="none" id="transformimage-ailtireswarm" style="stroke: #A80036; stroke-width: 1.0;"/><polygon fill="none" points="135.937,551.441,140.068,530.658,149.799,549.481,135.937,551.441" style="stroke: #A80036; stroke-width: 1.0;"/><!--link transform_container to transformimage--><path d="M155.453,415.273 C151.381,436.871 145.714,466.931 141.843,487.465 " fill="none" id="transform_container-transformimage" style="stroke: #A80036; stroke-width: 1.0;"/><polygon fill="#A80036" points="140.899,492.469,146.4986,484.3669,141.8262,487.5557,138.6374,482.8833,140.899,492.469" style="stroke: #A80036; stroke-width: 1.0;"/><!--link web_container to diml_cds_transform_web--><path d="M538.106,406.502 C534.156,427.453 527.611,462.173 523.18,485.676 " fill="none" id="web_container-diml_cds_transform_web" style="stroke: #A80036; stroke-width: 1.0;"/><polygon fill="#A80036" points="522.213,490.805,527.8103,482.7013,523.1388,485.8915,519.9487,481.22,522.213,490.805" style="stroke: #A80036; stroke-width: 1.0;"/><!--link gateway_container to diml_cds_transform_gw--><path d="M345.827,406.502 C336.86,427.541 321.974,462.465 311.955,485.972 " fill="none" id="gateway_container-diml_cds_transform_gw" style="stroke: #A80036; stroke-width: 1.0;"/><polygon fill="#A80036" points="309.894,490.805,317.1018,484.0932,311.8539,486.2051,309.742,480.9573,309.894,490.805" style="stroke: #A80036; stroke-width: 1.0;"/><!--link CLI to binName--><path d="M269.5,47.098 C269.5,69.432 269.5,132.318 269.5,163.705 " fill="none" id="CLI-binName" style="stroke: #A80036; stroke-width: 1.0;"/><text fill="#000000" font-family="sans-serif" font-size="13" lengthAdjust="spacingAndGlyphs" textLength="168" x="84.5688" y="44.8439">edgemere diml cds transform</text><!--link Web to REST--><path d="M29.7402,281 C98.1092,281 166.478,281 234.847,281 " fill="none" id="Web-REST" style="stroke: #A80036; stroke-width: 1.0;"/><text fill="#000000" font-family="sans-serif" font-size="13" lengthAdjust="spacingAndGlyphs" textLength="172" x="37.6273" y="277.8472">/edgemere/diml/cds/transform</text><!--link WebSocket to socket--><path d="M458.5,47.098 C458.5,69.432 458.5,132.318 458.5,163.705 " fill="none" id="WebSocket-socket" style="stroke: #A80036; stroke-width: 1.0;"/><text fill="#000000" font-family="sans-serif" font-size="13" lengthAdjust="spacingAndGlyphs" textLength="172" x="475.4313" y="44.8439">.edgemere.diml.cds.transform</text><!--
@startuml
  interface CLI
  interface Web
  interface WebSocket
package "Transform Services" #lightblue {
  component express as REST
  component socket.io as socket
  folder bin #ffffff {
    component " edgemere diml cds transform" as binName
  }
  binName - -> REST

  folder deploy #ffffff {
      file "node server.js\ndocker-compose.yml" as transform_container
      REST - -> transform_container

  
    file "node web/server.js" as web_container
    REST - -> web_container
    socket - - -> web_container
  
    file "node gateway/server.js" as gateway_container
    REST - -> gateway_container
    socket - - -> gateway_container
  
  }
  folder images #ffffff {
    collections "transform" as transformimage
    artifact "ailtire:swarm" as ailtireswarm
    transformimage <|- - ailtireswarm
    transform_container - -> transformimage

  
      artifact diml_cds_transform_web
      web_container - -> diml_cds_transform_web
    
      artifact diml_cds_transform_gw
      gateway_container - -> diml_cds_transform_gw
    
  }
}
CLI " edgemere diml cds transform" - - binName
Web "/edgemere/diml/cds/transform" - REST
WebSocket ".edgemere.diml.cds.transform" - - socket

@enduml

PlantUML version 1.2019.05(Sat Apr 20 09:45:36 PDT 2019)
(GPL source distribution)
Java Runtime: OpenJDK Runtime Environment
JVM: OpenJDK 64-Bit Server VM
Java Version: 12.0.1+12
Operating System: Windows 10
OS Version: 10.0
Default Encoding: Cp1252
Language: en
Country: US
--></g></svg>