<?xml version="1.0" encoding="UTF-8" standalone="no"?><svg xmlns="http://www.w3.org/2000/svg" xmlns:xlink="http://www.w3.org/1999/xlink" contentScriptType="application/ecmascript" contentStyleType="text/css" height="395px" preserveAspectRatio="none" style="width:848px;height:395px;" version="1.1" viewBox="0 0 848 395" width="848px" zoomAndPan="magnify"><defs><filter height="300%" id="ftsoh0j36eqti" width="300%" x="-1" y="-1"><feGaussianBlur result="blurOut" stdDeviation="2.0"/><feColorMatrix in="blurOut" result="blurOut2" type="matrix" values="0 0 0 0 0 0 0 0 0 0 0 0 0 0 0 0 0 0 .4 0"/><feOffset dx="4.0" dy="4.0" in="blurOut2" result="blurOut3"/><feBlend in="SourceGraphic" in2="blurOut3" mode="normal"/></filter></defs><g><!--entity PhysicalProfile--><rect fill="#ADD8E6" filter="url(#ftsoh0j36eqti)" height="37.6094" style="stroke: #000000; stroke-width: 1.5;" width="112" x="572.5" y="347"/><text fill="#000000" font-family="sans-serif" font-size="14" lengthAdjust="spacingAndGlyphs" textLength="92" x="582.5" y="371.5332">PhysicalProfile</text><!--entity Device--><rect fill="#90EE90" filter="url(#ftsoh0j36eqti)" height="37.6094" style="stroke: #000000; stroke-width: 1.5;" width="63" x="287" y="347"/><text fill="#000000" font-family="sans-serif" font-size="14" lengthAdjust="spacingAndGlyphs" textLength="43" x="297" y="371.5332">Device</text><!--entity Resource--><rect fill="#90EE90" filter="url(#ftsoh0j36eqti)" height="37.6094" style="stroke: #000000; stroke-width: 1.5;" width="81" x="417" y="347"/><text fill="#000000" font-family="sans-serif" font-size="14" lengthAdjust="spacingAndGlyphs" textLength="61" x="427" y="371.5332">Resource</text><!--entity AggregatedDevice--><rect fill="#90EE90" filter="url(#ftsoh0j36eqti)" height="37.6094" style="stroke: #000000; stroke-width: 1.5;" width="137" x="6" y="8"/><text fill="#000000" font-family="sans-serif" font-size="14" lengthAdjust="spacingAndGlyphs" textLength="117" x="16" y="32.5332">AggregatedDevice</text><!--entity AcceleratorResource--><rect fill="#90EE90" filter="url(#ftsoh0j36eqti)" height="37.6094" style="stroke: #000000; stroke-width: 1.5;" width="153" x="178" y="8"/><text fill="#000000" font-family="sans-serif" font-size="14" lengthAdjust="spacingAndGlyphs" textLength="133" x="188" y="32.5332">AcceleratorResource</text><!--entity ComputeResource--><rect fill="#90EE90" filter="url(#ftsoh0j36eqti)" height="37.6094" style="stroke: #000000; stroke-width: 1.5;" width="138" x="366.5" y="8"/><text fill="#000000" font-family="sans-serif" font-size="14" lengthAdjust="spacingAndGlyphs" textLength="118" x="376.5" y="32.5332">ComputeResource</text><!--entity NetworkResource--><rect fill="#90EE90" filter="url(#ftsoh0j36eqti)" height="37.6094" style="stroke: #000000; stroke-width: 1.5;" width="131" x="540" y="8"/><text fill="#000000" font-family="sans-serif" font-size="14" lengthAdjust="spacingAndGlyphs" textLength="111" x="550" y="32.5332">NetworkResource</text><!--entity StorageResource--><rect fill="#90EE90" filter="url(#ftsoh0j36eqti)" height="37.6094" style="stroke: #000000; stroke-width: 1.5;" width="131" x="706" y="8"/><text fill="#000000" font-family="sans-serif" font-size="14" lengthAdjust="spacingAndGlyphs" textLength="111" x="716" y="32.5332">StorageResource</text><!--class Model--><rect fill="#FEFECE" filter="url(#ftsoh0j36eqti)" height="144.8516" id="Model" style="stroke: #A80036; stroke-width: 1.5;" width="86" x="392.5" y="124"/><ellipse cx="407.5" cy="140" fill="#ADD1B2" rx="11" ry="11" style="stroke: #A80036; stroke-width: 1.0;"/><path d="M410.2656,135.875 Q410.4219,135.6563 410.6094,135.5469 Q410.7969,135.4375 411.0156,135.4375 Q411.3906,135.4375 411.625,135.7031 Q411.8594,135.9531 411.8594,136.5625 L411.8594,138.0156 Q411.8594,138.625 411.625,138.8906 Q411.3906,139.1563 411.0156,139.1563 Q410.6719,139.1563 410.4688,138.9531 Q410.2656,138.7656 410.1563,138.25 Q410.1094,137.8906 409.9219,137.7031 Q409.5938,137.3281 408.9844,137.1094 Q408.375,136.8906 407.75,136.8906 Q406.9844,136.8906 406.3438,137.2188 Q405.7188,137.5469 405.2188,138.2969 Q404.7344,139.0469 404.7344,140.0781 L404.7344,141.1719 Q404.7344,142.4063 405.625,143.2344 Q406.5156,144.0469 408.1094,144.0469 Q409.0469,144.0469 409.7031,143.7969 Q410.0938,143.6406 410.5156,143.2031 Q410.7813,142.9375 410.9219,142.8594 Q411.0781,142.7813 411.2813,142.7813 Q411.6094,142.7813 411.8594,143.0469 Q412.125,143.2969 412.125,143.6406 Q412.125,143.9844 411.7813,144.3906 Q411.2813,144.9688 410.4844,145.2969 Q409.4063,145.75 408.1094,145.75 Q406.5938,145.75 405.3906,145.125 Q404.4063,144.625 403.7188,143.5625 Q403.0313,142.4844 403.0313,141.2031 L403.0313,140.0469 Q403.0313,138.7188 403.6406,137.5781 Q404.2656,136.4219 405.3594,135.8125 Q406.4531,135.1875 407.6875,135.1875 Q408.4219,135.1875 409.0625,135.3594 Q409.7188,135.5156 410.2656,135.875 Z "/><text fill="#000000" font-family="sans-serif" font-size="12" lengthAdjust="spacingAndGlyphs" textLength="54" x="421.5" y="144.9102">Hardware</text><line style="stroke: #A80036; stroke-width: 1.5;" x1="393.5" x2="477.5" y1="156" y2="156"/><text fill="#000000" font-family="sans-serif" font-size="11" lengthAdjust="spacingAndGlyphs" textLength="56" x="398.5" y="171.4189">string name</text><text fill="#000000" font-family="sans-serif" font-size="11" lengthAdjust="spacingAndGlyphs" textLength="62" x="398.5" y="185.2549">string ename</text><line style="stroke: #A80036; stroke-width: 1.5;" x1="393.5" x2="477.5" y1="191.6719" y2="191.6719"/><text fill="#000000" font-family="sans-serif" font-size="11" lengthAdjust="spacingAndGlyphs" textLength="51" x="398.5" y="207.0908">addStats()</text><text fill="#000000" font-family="sans-serif" font-size="11" lengthAdjust="spacingAndGlyphs" textLength="39" x="398.5" y="220.9268">create()</text><text fill="#000000" font-family="sans-serif" font-size="11" lengthAdjust="spacingAndGlyphs" textLength="42" x="398.5" y="234.7627">disable()</text><text fill="#000000" font-family="sans-serif" font-size="11" lengthAdjust="spacingAndGlyphs" textLength="40" x="398.5" y="248.5986">enable()</text><text fill="#000000" font-family="sans-serif" font-size="11" lengthAdjust="spacingAndGlyphs" textLength="43" x="398.5" y="262.4346">factory()</text><!--link Model to PhysicalProfile--><path d="M488.881,239.697 C511.051,257.605 536.841,278.943 559.5,299 C573.506,311.3977 588.57,325.6885 601.039,337.7951 " fill="none" id="Model-PhysicalProfile" style="stroke: #A80036; stroke-width: 1.0;"/><polygon fill="#A80036" points="610.412,346.9581,606.7722,337.8065,606.8365,343.463,601.18,343.5273,610.412,346.9581" style="stroke: #A80036; stroke-width: 1.0;"/><line style="stroke: #A80036; stroke-width: 1.0;" x1="606.8365" x2="601.1155" y1="343.463" y2="337.8706"/><polygon fill="#FFFFFF" points="478.647,231.465,480.815,238.3425,487.9973,238.9864,485.8293,232.1089,478.647,231.465" style="stroke: #A80036; stroke-width: 1.0;"/><text fill="#000000" font-family="sans-serif" font-size="13" lengthAdjust="spacingAndGlyphs" textLength="34" x="580.5" y="313.4951">profile</text><text fill="#000000" font-family="sans-serif" font-size="13" lengthAdjust="spacingAndGlyphs" textLength="7" x="596.8007" y="336.2853">1</text><!--link Model to Device--><path d="M380.05,213.171 C339.017,228.002 285.999,254.732 260.5,299 C251.984,313.7845 261.981,328.2491 275.941,339.8509 " fill="none" id="Model-Device" style="stroke: #A80036; stroke-width: 1.0;"/><polygon fill="#A80036" points="286.597,347.7566,281.7514,339.1822,282.5811,344.7779,276.9855,345.6076,286.597,347.7566" style="stroke: #A80036; stroke-width: 1.0;"/><line style="stroke: #A80036; stroke-width: 1.0;" x1="282.5811" x2="276.1565" y1="344.7779" y2="340.0111"/><polygon fill="#FFFFFF" points="392.356,208.944,385.382,207.1101,381.0068,212.8422,387.9808,214.6762,392.356,208.944" style="stroke: #A80036; stroke-width: 1.0;"/><text fill="#000000" font-family="sans-serif" font-size="13" lengthAdjust="spacingAndGlyphs" textLength="36" x="261.5" y="313.4951">device</text><text fill="#000000" font-family="sans-serif" font-size="13" lengthAdjust="spacingAndGlyphs" textLength="7" x="271.8526" y="339.5922">1</text><!--link Device to Model--><path d="M338.68,336.1103 C351.428,317.8589 368.513,293.4007 384.78,270.112 " fill="none" id="Device-Model" style="stroke: #A80036; stroke-width: 1.0;"/><polygon fill="#A80036" points="392.266,259.395,383.8333,264.4831,389.403,263.4942,390.3919,269.0639,392.266,259.395" style="stroke: #A80036; stroke-width: 1.0;"/><line style="stroke: #A80036; stroke-width: 1.0;" x1="389.403" x2="384.8215" y1="263.4942" y2="270.0525"/><polygon fill="#A80036" points="331.164,346.8693,337.8791,344.2411,338.0358,337.0317,331.3207,339.6599,331.164,346.8693" style="stroke: #A80036; stroke-width: 1.0;"/><text fill="#000000" font-family="sans-serif" font-size="13" lengthAdjust="spacingAndGlyphs" textLength="52" x="364.5" y="313.4951">hardware</text><text fill="#000000" font-family="sans-serif" font-size="13" lengthAdjust="spacingAndGlyphs" textLength="7" x="377.5257" y="266.0235">n</text><!--link Model to Resource--><path d="M427.841,282.411 C428.384,294.1366 429.793,305.9423 432.5,317 C433.972,323.0149 436.344,329.1141 439.053,334.8556 " fill="none" id="Model-Resource" style="stroke: #A80036; stroke-width: 1.0;"/><polygon fill="#A80036" points="445.308,346.6815,444.636,336.8556,442.9703,342.2617,437.5642,340.596,445.308,346.6815" style="stroke: #A80036; stroke-width: 1.0;"/><line style="stroke: #A80036; stroke-width: 1.0;" x1="442.9703" x2="439.23" y1="342.2617" y2="335.1899"/><polygon fill="#FFFFFF" points="427.572,269.251,423.6955,275.3315,427.8173,281.2485,431.6938,275.168,427.572,269.251" style="stroke: #A80036; stroke-width: 1.0;"/><text fill="#000000" font-family="sans-serif" font-size="13" lengthAdjust="spacingAndGlyphs" textLength="57" x="433.5" y="313.4951">resources</text><text fill="#000000" font-family="sans-serif" font-size="13" lengthAdjust="spacingAndGlyphs" textLength="7" x="433.6985" y="336.2608">n</text><!--link Resource to Model--><path d="M484.896,336.6031 C489.247,330.5579 493.099,323.9014 495.5,317 C498.129,309.4442 497.61,306.7167 495.5,299 C492.842,289.2817 488.989,279.548 484.497,270.165 " fill="none" id="Resource-Model" style="stroke: #A80036; stroke-width: 1.0;"/><polygon fill="#A80036" points="478.509,258.494,479.0587,268.3275,480.7915,262.9426,486.1765,264.6754,478.509,258.494" style="stroke: #A80036; stroke-width: 1.0;"/><line style="stroke: #A80036; stroke-width: 1.0;" x1="480.7915" x2="484.444" y1="262.9426" y2="270.061"/><polygon fill="#FFFFFF" points="476.733,346.7456,483.6111,344.5796,484.2572,337.3975,477.3791,339.5635,476.733,346.7456" style="stroke: #A80036; stroke-width: 1.0;"/><text fill="#000000" font-family="sans-serif" font-size="13" lengthAdjust="spacingAndGlyphs" textLength="52" x="498.5" y="313.4951">hardware</text><text fill="#000000" font-family="sans-serif" font-size="13" lengthAdjust="spacingAndGlyphs" textLength="7" x="486.5027" y="265.3123">n</text><!--link AggregatedDevice to Model--><path d="M125.697,51.755 C193.055,83.008 310.983,137.725 380.285,169.881 " fill="none" id="AggregatedDevice-Model" style="stroke: #A80036; stroke-width: 1.0;"/><polygon fill="#A80036" points="392.221,175.419,385.7404,168.0027,387.6854,173.3147,382.3734,175.2597,392.221,175.419" style="stroke: #A80036; stroke-width: 1.0;"/><line style="stroke: #A80036; stroke-width: 1.0;" x1="387.6854" x2="380.428" y1="173.3147" y2="169.9475"/><polygon fill="#A80036" points="113.476,46.085,117.2353,52.2387,124.3615,51.1354,120.6022,44.9817,113.476,46.085" style="stroke: #A80036; stroke-width: 1.0;"/><text fill="#000000" font-family="sans-serif" font-size="13" lengthAdjust="spacingAndGlyphs" textLength="52" x="213.5" y="90.4951">hardware</text><text fill="#000000" font-family="sans-serif" font-size="13" lengthAdjust="spacingAndGlyphs" textLength="7" x="377.4732" y="168.139">n</text><!--link AcceleratorResource to Model--><path d="M283.878,55.187 C310.475,79.8 350.295,116.65 382.454,146.41 " fill="none" id="AcceleratorResource-Model" style="stroke: #A80036; stroke-width: 1.0;"/><polygon fill="#A80036" points="392.165,155.397,388.2764,146.3483,388.4953,152.0009,382.8427,152.2198,392.165,155.397" style="stroke: #A80036; stroke-width: 1.0;"/><line style="stroke: #A80036; stroke-width: 1.0;" x1="388.4953" x2="382.6235" y1="152.0009" y2="146.5675"/><polygon fill="#FFFFFF" points="274.215,46.244,275.9018,53.255,283.0223,54.3945,281.3355,47.3835,274.215,46.244" style="stroke: #A80036; stroke-width: 1.0;"/><text fill="#000000" font-family="sans-serif" font-size="13" lengthAdjust="spacingAndGlyphs" textLength="52" x="324.5" y="90.4951">hardware</text><text fill="#000000" font-family="sans-serif" font-size="13" lengthAdjust="spacingAndGlyphs" textLength="7" x="377.408" y="144.8008">n</text><!--link ComputeResource to Model--><path d="M435.5,59.258 C435.5,73.989 435.5,92.351 435.5,110.775 " fill="none" id="ComputeResource-Model" style="stroke: #A80036; stroke-width: 1.0;"/><polygon fill="#A80036" points="435.5,123.822,439.5,114.822,435.5,118.822,431.5,114.822,435.5,123.822" style="stroke: #A80036; stroke-width: 1.0;"/><line style="stroke: #A80036; stroke-width: 1.0;" x1="435.5" x2="435.5" y1="118.822" y2="110.822"/><polygon fill="#FFFFFF" points="435.5,46.244,431.5,52.244,435.5,58.244,439.5,52.244,435.5,46.244" style="stroke: #A80036; stroke-width: 1.0;"/><text fill="#000000" font-family="sans-serif" font-size="13" lengthAdjust="spacingAndGlyphs" textLength="52" x="436.5" y="90.4951">hardware</text><text fill="#000000" font-family="sans-serif" font-size="13" lengthAdjust="spacingAndGlyphs" textLength="7" x="428.1391" y="113.023">n</text><!--link NetworkResource to Model--><path d="M577.422,55.665 C553.175,79.555 517.493,114.713 487.973,143.798 " fill="none" id="NetworkResource-Model" style="stroke: #A80036; stroke-width: 1.0;"/><polygon fill="#A80036" points="478.628,153.006,487.8462,149.5384,482.1895,149.4967,482.2313,143.84,478.628,153.006" style="stroke: #A80036; stroke-width: 1.0;"/><line style="stroke: #A80036; stroke-width: 1.0;" x1="482.1895" x2="487.8885" y1="149.4967" y2="143.882"/><polygon fill="#FFFFFF" points="586.983,46.244,579.9017,47.606,578.4353,54.6664,585.5166,53.3044,586.983,46.244" style="stroke: #A80036; stroke-width: 1.0;"/><text fill="#000000" font-family="sans-serif" font-size="13" lengthAdjust="spacingAndGlyphs" textLength="52" x="556.5" y="90.4951">hardware</text><text fill="#000000" font-family="sans-serif" font-size="13" lengthAdjust="spacingAndGlyphs" textLength="7" x="486.6422" y="141.6936">n</text><!--link StorageResource to Model--><path d="M723.21,52.073 C661.641,82.766 555.433,135.712 490.716,167.974 " fill="none" id="StorageResource-Model" style="stroke: #A80036; stroke-width: 1.0;"/><polygon fill="#A80036" points="478.743,173.943,488.5822,173.5074,483.2178,171.7122,485.013,166.3478,478.743,173.943" style="stroke: #A80036; stroke-width: 1.0;"/><line style="stroke: #A80036; stroke-width: 1.0;" x1="483.2178" x2="490.378" y1="171.7122" y2="168.143"/><polygon fill="#FFFFFF" points="735.223,46.085,728.0687,45.1818,724.4833,51.4384,731.6376,52.3416,735.223,46.085" style="stroke: #A80036; stroke-width: 1.0;"/><text fill="#000000" font-family="sans-serif" font-size="13" lengthAdjust="spacingAndGlyphs" textLength="52" x="673.5" y="90.4951">hardware</text><text fill="#000000" font-family="sans-serif" font-size="13" lengthAdjust="spacingAndGlyphs" textLength="7" x="486.4848" y="166.4185">n</text><!--
@startuml

class "Hardware" as Model {
 string name
 string ename

 addStats()
 create()
 disable()
 enable()
 factory()
 
}

rectangle "PhysicalProfile" as PhysicalProfile #lightblue {
}

Model o- -> "1" PhysicalProfile : profile


rectangle "Device" as Device #lightblue {
}

Model o- -> "1" Device : device


rectangle "Resource" as Resource #lightblue {
}

Model o- -> "n" Resource : resources




    rectangle "Device" as Device #lightgreen {
    }
    
        Device   *- -> "n" Model : "hardware"
    
    rectangle "AggregatedDevice" as AggregatedDevice #lightgreen {
    }
    
        AggregatedDevice   *- -> "n" Model : "hardware"
    
    rectangle "AcceleratorResource" as AcceleratorResource #lightgreen {
    }
    
        AcceleratorResource   o- -> "n" Model : "hardware"
    
    rectangle "ComputeResource" as ComputeResource #lightgreen {
    }
    
        ComputeResource   o- -> "n" Model : "hardware"
    
    rectangle "NetworkResource" as NetworkResource #lightgreen {
    }
    
        NetworkResource   o- -> "n" Model : "hardware"
    
    rectangle "Resource" as Resource #lightgreen {
    }
    
        Resource   o- -> "n" Model : "hardware"
    
    rectangle "StorageResource" as StorageResource #lightgreen {
    }
    
        StorageResource   o- -> "n" Model : "hardware"
    

@enduml

PlantUML version 1.2019.05(Sat Apr 20 09:45:36 PDT 2019)
(GPL source distribution)
Java Runtime: OpenJDK Runtime Environment
JVM: OpenJDK 64-Bit Server VM
Java Version: 12.0.1+12
Operating System: Windows 10
OS Version: 10.0
Default Encoding: Cp1252
Language: en
Country: US
--></g></svg>