<?xml version="1.0" encoding="UTF-8" standalone="no"?><svg xmlns="http://www.w3.org/2000/svg" xmlns:xlink="http://www.w3.org/1999/xlink" contentScriptType="application/ecmascript" contentStyleType="text/css" height="527px" preserveAspectRatio="none" style="width:1204px;height:527px;" version="1.1" viewBox="0 0 1204 527" width="1204px" zoomAndPan="magnify"><defs><filter height="300%" id="fkbnyzy0tkvb5" width="300%" x="-1" y="-1"><feGaussianBlur result="blurOut" stdDeviation="2.0"/><feColorMatrix in="blurOut" result="blurOut2" type="matrix" values="0 0 0 0 0 0 0 0 0 0 0 0 0 0 0 0 0 0 .4 0"/><feOffset dx="4.0" dy="4.0" in="blurOut2" result="blurOut3"/><feBlend in="SourceGraphic" in2="blurOut3" mode="normal"/></filter></defs><g><!--cluster Application Developer--><polygon fill="#D3D3D3" filter="url(#fkbnyzy0tkvb5)" points="22,75.5,184,75.5,191,99.1094,194,99.1094,194,230,22,230,22,75.5" style="stroke: #000000; stroke-width: 1.5;"/><line style="stroke: #000000; stroke-width: 1.5;" x1="22" x2="191" y1="99.1094" y2="99.1094"/><text fill="#000000" font-family="sans-serif" font-size="14" font-weight="bold" lengthAdjust="spacingAndGlyphs" textLength="156" x="26" y="92.0332">Application Developer</text><!--cluster Application Management Layer--><polygon fill="#ADD8E6" filter="url(#fkbnyzy0tkvb5)" points="218,24,439,24,446,47.6094,1182,47.6094,1182,329,218,329,218,24" style="stroke: #000000; stroke-width: 1.5;"/><line style="stroke: #000000; stroke-width: 1.5;" x1="218" x2="446" y1="47.6094" y2="47.6094"/><text fill="#000000" font-family="sans-serif" font-size="14" font-weight="bold" lengthAdjust="spacingAndGlyphs" textLength="215" x="222" y="40.5332">Application Management Layer</text><!--cluster Workflow Services--><polygon fill="#FFFFFF" filter="url(#fkbnyzy0tkvb5)" points="242,68,379,68,386,91.6094,1158,91.6094,1158,305,242,305,242,68" style="stroke: #000000; stroke-width: 1.5;"/><line style="stroke: #000000; stroke-width: 1.5;" x1="242" x2="386" y1="91.6094" y2="91.6094"/><text fill="#000000" font-family="sans-serif" font-size="14" font-weight="bold" lengthAdjust="spacingAndGlyphs" textLength="131" x="246" y="84.5332">Workflow Services</text><!--cluster Service Management Layer--><polygon fill="#90EE90" filter="url(#fkbnyzy0tkvb5)" points="364,353,561,353,568,376.6094,1123,376.6094,1123,515,364,515,364,353" style="stroke: #000000; stroke-width: 1.5;"/><line style="stroke: #000000; stroke-width: 1.5;" x1="364" x2="568" y1="376.6094" y2="376.6094"/><text fill="#000000" font-family="sans-serif" font-size="14" font-weight="bold" lengthAdjust="spacingAndGlyphs" textLength="191" x="368" y="369.5332">Service Management Layer</text><ellipse cx="118" cy="121.5" fill="#000000" filter="url(#fkbnyzy0tkvb5)" rx="10" ry="10" style="stroke: none; stroke-width: 1.0;"/><rect fill="#FEFECE" filter="url(#fkbnyzy0tkvb5)" height="35.0938" rx="12.5" ry="12.5" style="stroke: #A80036; stroke-width: 1.5;" width="119" x="58.5" y="179"/><text fill="#000000" font-family="sans-serif" font-size="12" lengthAdjust="spacingAndGlyphs" textLength="99" x="68.5" y="201.457">Define Application</text><rect fill="#FEFECE" filter="url(#fkbnyzy0tkvb5)" height="35.0938" rx="12.5" ry="12.5" style="stroke: #A80036; stroke-width: 1.5;" width="120" x="258" y="179"/><text fill="#000000" font-family="sans-serif" font-size="12" lengthAdjust="spacingAndGlyphs" textLength="100" x="268" y="201.457">Create Application</text><rect fill="#FEFECE" filter="url(#fkbnyzy0tkvb5)" height="35.0938" rx="12.5" ry="12.5" style="stroke: #A80036; stroke-width: 1.5;" width="121" x="398.5" y="179"/><text fill="#000000" font-family="sans-serif" font-size="12" lengthAdjust="spacingAndGlyphs" textLength="101" x="408.5" y="201.457">Deploy Application</text><rect fill="#FEFECE" filter="url(#fkbnyzy0tkvb5)" height="35.0938" rx="12.5" ry="12.5" style="stroke: #A80036; stroke-width: 1.5;" width="123" x="539.5" y="179"/><text fill="#000000" font-family="sans-serif" font-size="12" lengthAdjust="spacingAndGlyphs" textLength="103" x="549.5" y="201.457">Update Application</text><rect fill="#FEFECE" filter="url(#fkbnyzy0tkvb5)" height="35.0938" rx="12.5" ry="12.5" style="stroke: #A80036; stroke-width: 1.5;" width="115" x="682.5" y="179"/><text fill="#000000" font-family="sans-serif" font-size="12" lengthAdjust="spacingAndGlyphs" textLength="95" x="692.5" y="201.457">Sleep Application</text><rect fill="#FEFECE" filter="url(#fkbnyzy0tkvb5)" height="35.0938" rx="12.5" ry="12.5" style="stroke: #A80036; stroke-width: 1.5;" width="138" x="818" y="179"/><text fill="#000000" font-family="sans-serif" font-size="12" lengthAdjust="spacingAndGlyphs" textLength="118" x="828" y="201.457">Shutdown Application</text><rect fill="#FEFECE" filter="url(#fkbnyzy0tkvb5)" height="35.0938" rx="12.5" ry="12.5" style="stroke: #A80036; stroke-width: 1.5;" width="125" x="976.5" y="179"/><text fill="#000000" font-family="sans-serif" font-size="12" lengthAdjust="spacingAndGlyphs" textLength="105" x="986.5" y="201.457">Destroy Application</text><ellipse cx="1132" cy="196.5" fill="none" filter="url(#fkbnyzy0tkvb5)" rx="10" ry="10" style="stroke: #000000; stroke-width: 1.0;"/><ellipse cx="1132.5" cy="197" fill="#000000" rx="6" ry="6" style="stroke: none; stroke-width: 1.0;"/><rect fill="#D3D3D3" filter="url(#fkbnyzy0tkvb5)" height="35.0938" rx="12.5" ry="12.5" style="stroke: #A80036; stroke-width: 1.5;" width="113" x="402.5" y="104"/><text fill="#000000" font-family="sans-serif" font-size="12" lengthAdjust="spacingAndGlyphs" textLength="93" x="412.5" y="126.457">Deploy Workload</text><rect fill="#FEFECE" filter="url(#fkbnyzy0tkvb5)" height="35.0938" rx="12.5" ry="12.5" style="stroke: #A80036; stroke-width: 1.5;" width="123" x="258.5" y="254"/><text fill="#000000" font-family="sans-serif" font-size="12" lengthAdjust="spacingAndGlyphs" textLength="103" x="268.5" y="276.457">Monitor Application</text><rect fill="#FEFECE" filter="url(#fkbnyzy0tkvb5)" height="35.0938" rx="12.5" ry="12.5" style="stroke: #A80036; stroke-width: 1.5;" width="143" x="401.5" y="254"/><text fill="#000000" font-family="sans-serif" font-size="12" lengthAdjust="spacingAndGlyphs" textLength="123" x="411.5" y="276.457">Rebalance Application</text><rect fill="#FEFECE" filter="url(#fkbnyzy0tkvb5)" height="35.0938" rx="12.5" ry="12.5" style="stroke: #A80036; stroke-width: 1.5;" width="120" x="565" y="254"/><text fill="#000000" font-family="sans-serif" font-size="12" lengthAdjust="spacingAndGlyphs" textLength="100" x="575" y="276.457">Debug Application</text><rect fill="#D3D3D3" filter="url(#fkbnyzy0tkvb5)" height="35.0938" rx="12.5" ry="12.5" style="stroke: #A80036; stroke-width: 1.5;" width="100" x="504" y="389"/><text fill="#000000" font-family="sans-serif" font-size="12" lengthAdjust="spacingAndGlyphs" textLength="80" x="514" y="411.457">Create Service</text><rect fill="#D3D3D3" filter="url(#fkbnyzy0tkvb5)" height="35.0938" rx="12.5" ry="12.5" style="stroke: #A80036; stroke-width: 1.5;" width="101" x="503.5" y="464"/><text fill="#000000" font-family="sans-serif" font-size="12" lengthAdjust="spacingAndGlyphs" textLength="81" x="513.5" y="486.457">Deploy Service</text><rect fill="#D3D3D3" filter="url(#fkbnyzy0tkvb5)" height="35.0938" rx="12.5" ry="12.5" style="stroke: #A80036; stroke-width: 1.5;" width="103" x="624.5" y="389"/><text fill="#000000" font-family="sans-serif" font-size="12" lengthAdjust="spacingAndGlyphs" textLength="83" x="634.5" y="411.457">Update Service</text><rect fill="#D3D3D3" filter="url(#fkbnyzy0tkvb5)" height="35.0938" rx="12.5" ry="12.5" style="stroke: #A80036; stroke-width: 1.5;" width="95" x="747.5" y="389"/><text fill="#000000" font-family="sans-serif" font-size="12" lengthAdjust="spacingAndGlyphs" textLength="75" x="757.5" y="411.457">Sleep Service</text><rect fill="#D3D3D3" filter="url(#fkbnyzy0tkvb5)" height="35.0938" rx="12.5" ry="12.5" style="stroke: #A80036; stroke-width: 1.5;" width="118" x="863" y="389"/><text fill="#000000" font-family="sans-serif" font-size="12" lengthAdjust="spacingAndGlyphs" textLength="98" x="873" y="411.457">Shutdown Service</text><rect fill="#D3D3D3" filter="url(#fkbnyzy0tkvb5)" height="35.0938" rx="12.5" ry="12.5" style="stroke: #A80036; stroke-width: 1.5;" width="105" x="1001.5" y="389"/><text fill="#000000" font-family="sans-serif" font-size="12" lengthAdjust="spacingAndGlyphs" textLength="85" x="1011.5" y="411.457">Destroy Service</text><rect fill="#D3D3D3" filter="url(#fkbnyzy0tkvb5)" height="35.0938" rx="12.5" ry="12.5" style="stroke: #A80036; stroke-width: 1.5;" width="103" x="380.5" y="389"/><text fill="#000000" font-family="sans-serif" font-size="12" lengthAdjust="spacingAndGlyphs" textLength="83" x="390.5" y="411.457">Monitor Service</text><!--link start to Define Application--><path d="M118,131.746 C118,142.177 118,159.51 118,173.472 " fill="none" id="start-Define Application" style="stroke: #A80036; stroke-width: 1.0;"/><polygon fill="#A80036" points="118,178.83,122,169.83,118,173.83,114,169.83,118,178.83" style="stroke: #A80036; stroke-width: 1.0;"/><!--link Define Application to Create Application--><path d="M177.766,196.5 C202.654,196.5 227.543,196.5 252.432,196.5 " fill="none" id="Define Application-Create Application" style="stroke: #A80036; stroke-width: 1.0;"/><polygon fill="#A80036" points="257.743,196.5,248.743,192.5,252.743,196.5,248.743,200.5,257.743,196.5" style="stroke: #A80036; stroke-width: 1.0;"/><!--link Create Application to Deploy Application--><path d="M378.035,196.5 C383.095,196.5 388.156,196.5 393.216,196.5 " fill="none" id="Create Application-Deploy Application" style="stroke: #A80036; stroke-width: 1.0;"/><polygon fill="#A80036" points="398.276,196.5,389.276,192.5,393.276,196.5,389.276,200.5,398.276,196.5" style="stroke: #A80036; stroke-width: 1.0;"/><!--link Deploy Application to Update Application--><path d="M519.738,196.5 C524.556,196.5 529.374,196.5 534.191,196.5 " fill="none" id="Deploy Application-Update Application" style="stroke: #A80036; stroke-width: 1.0;"/><polygon fill="#A80036" points="539.419,196.5,530.419,192.5,534.419,196.5,530.419,200.5,539.419,196.5" style="stroke: #A80036; stroke-width: 1.0;"/><!--link Update Application to Sleep Application--><path d="M662.627,196.5 C667.436,196.5 672.245,196.5 677.054,196.5 " fill="none" id="Update Application-Sleep Application" style="stroke: #A80036; stroke-width: 1.0;"/><polygon fill="#A80036" points="682.272,196.5,673.272,192.5,677.272,196.5,673.272,200.5,682.272,196.5" style="stroke: #A80036; stroke-width: 1.0;"/><!--link Sleep Application to Shutdown Application--><path d="M797.709,196.5 C802.766,196.5 807.824,196.5 812.881,196.5 " fill="none" id="Sleep Application-Shutdown Application" style="stroke: #A80036; stroke-width: 1.0;"/><polygon fill="#A80036" points="817.939,196.5,808.939,192.5,812.939,196.5,808.939,200.5,817.939,196.5" style="stroke: #A80036; stroke-width: 1.0;"/><!--link Shutdown Application to Destroy Application--><path d="M956.172,196.5 C961.187,196.5 966.202,196.5 971.217,196.5 " fill="none" id="Shutdown Application-Destroy Application" style="stroke: #A80036; stroke-width: 1.0;"/><polygon fill="#A80036" points="976.232,196.5,967.232,192.5,971.232,196.5,967.232,200.5,976.232,196.5" style="stroke: #A80036; stroke-width: 1.0;"/><!--link Destroy Application to end--><path d="M1101.85,196.5 C1106.69,196.5 1111.54,196.5 1116.38,196.5 " fill="none" id="Destroy Application-end" style="stroke: #A80036; stroke-width: 1.0;"/><polygon fill="#A80036" points="1121.64,196.5,1112.64,192.5,1116.64,196.5,1112.64,200.5,1121.64,196.5" style="stroke: #A80036; stroke-width: 1.0;"/><!--link Deploy Workload to Deploy Application--><path d="M459,139.065 C459,149.259 459,162.447 459,173.51 " fill="none" id="Deploy Workload-Deploy Application" style="stroke: #A80036; stroke-width: 1.0;"/><polygon fill="#A80036" points="459,178.748,463,169.748,459,173.748,455,169.748,459,178.748" style="stroke: #A80036; stroke-width: 1.0;"/><!--link Deploy Application to Monitor Application--><path d="M430.929,214.136 C417.981,221.648 402.334,230.499 388,238 C379.294,242.556 369.845,247.235 360.837,251.574 " fill="none" id="Deploy Application-Monitor Application" style="stroke: #A80036; stroke-width: 1.0;"/><polygon fill="#A80036" points="355.886,253.946,365.7308,253.6648,360.3952,251.7857,362.2743,246.4501,355.886,253.946" style="stroke: #A80036; stroke-width: 1.0;"/><!--link Deploy Application to Rebalance Application--><path d="M462.177,214.065 C464.15,224.352 466.707,237.687 468.841,248.811 " fill="none" id="Deploy Application-Rebalance Application" style="stroke: #A80036; stroke-width: 1.0;"/><polygon fill="#A80036" points="469.787,253.748,472.0207,244.1558,468.8455,248.8374,464.1638,245.6622,469.787,253.748" style="stroke: #A80036; stroke-width: 1.0;"/><!--link Deploy Application to Debug Application--><path d="M484.938,214.157 C497.858,222.023 513.91,231.162 529,238 C540.461,243.193 553.009,248.021 565.143,252.283 " fill="none" id="Deploy Application-Debug Application" style="stroke: #A80036; stroke-width: 1.0;"/><polygon fill="#A80036" points="569.95,253.949,562.7559,247.2226,565.2256,252.3118,560.1364,254.7816,569.95,253.949" style="stroke: #A80036; stroke-width: 1.0;"/><!--link Deploy Application to Create Service--><path d="M481.788,214.046 C494.934,222.703 512.154,232.598 529,238 C564.29,249.316 670.084,226.566 695,254 C719.802,281.307 719.769,309.664 695,337 C682.855,350.404 630.334,337.23 614,345 C595.477,353.811 579.418,370.825 568.587,384.572 " fill="none" id="Deploy Application-Create Service" style="stroke: #A80036; stroke-width: 1.0;"/><polygon fill="#A80036" points="565.397,388.721,574.054,384.0246,568.4448,384.7573,567.7121,379.1481,565.397,388.721" style="stroke: #A80036; stroke-width: 1.0;"/><!--link Create Service to Deploy Service--><path d="M554,424.065 C554,434.2594 554,447.4469 554,458.5101 " fill="none" id="Create Service-Deploy Service" style="stroke: #A80036; stroke-width: 1.0;"/><polygon fill="#A80036" points="554,463.748,558,454.748,554,458.748,550,454.748,554,463.748" style="stroke: #A80036; stroke-width: 1.0;"/><!--link Update Application to Update Service--><path d="M626.486,214.171 C639.661,222.231 656.247,231.534 672,238 C697.531,248.48 715.186,232.115 732,254 C754.474,283.252 744.395,302.256 732,337 C725.405,355.487 711.442,372.585 699.109,385.075 " fill="none" id="Update Application-Update Service" style="stroke: #A80036; stroke-width: 1.0;"/><polygon fill="#A80036" points="695.343,388.799,704.5538,385.3118,698.8971,385.2821,698.9268,379.6253,695.343,388.799" style="stroke: #A80036; stroke-width: 1.0;"/><!--link Sleep Application to Sleep Service--><path d="M752.659,214.398 C760.082,225.176 768.964,239.752 774,254 C789.577,298.074 793.661,353.174 794.693,383.293 " fill="none" id="Sleep Application-Sleep Service" style="stroke: #A80036; stroke-width: 1.0;"/><polygon fill="#A80036" points="794.852,388.618,798.5802,379.5021,794.702,383.6202,790.5838,379.742,794.852,388.618" style="stroke: #A80036; stroke-width: 1.0;"/><!--link Shutdown Application to Shutdown Service--><path d="M889.805,214.17 C896.09,251.519 911.298,341.898 918.326,383.666 " fill="none" id="Shutdown Application-Shutdown Service" style="stroke: #A80036; stroke-width: 1.0;"/><polygon fill="#A80036" points="919.182,388.751,921.6354,379.2126,918.3535,383.8201,913.746,380.5382,919.182,388.751" style="stroke: #A80036; stroke-width: 1.0;"/><!--link Destroy Application to Destroy Service--><path d="M1040.2,214.17 C1042.9,251.519 1049.41,341.898 1052.43,383.666 " fill="none" id="Destroy Application-Destroy Service" style="stroke: #A80036; stroke-width: 1.0;"/><polygon fill="#A80036" points="1052.79,388.751,1056.1314,379.4863,1052.4299,383.764,1048.1522,380.0624,1052.79,388.751" style="stroke: #A80036; stroke-width: 1.0;"/><!--link Monitor Application to Monitor Service--><path d="M333.958,289.076 C354.331,313.268 392.196,358.233 414.436,384.642 " fill="none" id="Monitor Application-Monitor Service" style="stroke: #A80036; stroke-width: 1.0;"/><polygon fill="#A80036" points="417.866,388.715,415.1308,379.2536,414.6463,384.8896,409.0102,384.4051,417.866,388.715" style="stroke: #A80036; stroke-width: 1.0;"/><!--
@startuml
partition "Application Developer" #lightgray {
    (*) - -> "Define Application"
}

partition "Application Management Layer" #lightblue {
    partition "Workflow Services" #white {
        "Define Application" -> "Create Application"
        -> "Deploy Application"
        -> "Update Application"
        -> "Sleep Application"
        -> "Shutdown Application"
        -> "Destroy Application"
        -> (*)
        "Deploy Workload" #lightgray  - -> "Deploy Application"
        "Deploy Application" - -> "Monitor Application"
        "Deploy Application" - -> "Rebalance Application"
        "Deploy Application" - -> "Debug Application"
    }
}
partition "Service Management Layer" #lightgreen {
    "Deploy Application" - -> "Create Service" #lightgray
    "Create Service" - -> "Deploy Service" #lightgray
    "Update Application" - -> "Update Service" #lightgray
    "Sleep Application" - -> "Sleep Service" #lightgray
    "Shutdown Application" - -> "Shutdown Service" #lightgray
    "Destroy Application" - -> "Destroy Service" #lightgray
    "Monitor Application" - -> "Monitor Service" #lightgray
}
@enduml

PlantUML version 1.2019.05(Sat Apr 20 09:45:36 PDT 2019)
(GPL source distribution)
Java Runtime: OpenJDK Runtime Environment
JVM: OpenJDK 64-Bit Server VM
Java Version: 12.0.1+12
Operating System: Windows 10
OS Version: 10.0
Default Encoding: Cp1252
Language: en
Country: US
--></g></svg>