<?xml version="1.0" encoding="UTF-8" standalone="no"?><svg xmlns="http://www.w3.org/2000/svg" xmlns:xlink="http://www.w3.org/1999/xlink" contentScriptType="application/ecmascript" contentStyleType="text/css" height="603px" preserveAspectRatio="none" style="width:429px;height:603px;" version="1.1" viewBox="0 0 429 603" width="429px" zoomAndPan="magnify"><defs><filter height="300%" id="fk27dbylr4xut" width="300%" x="-1" y="-1"><feGaussianBlur result="blurOut" stdDeviation="2.0"/><feColorMatrix in="blurOut" result="blurOut2" type="matrix" values="0 0 0 0 0 0 0 0 0 0 0 0 0 0 0 0 0 0 .4 0"/><feOffset dx="4.0" dy="4.0" in="blurOut2" result="blurOut3"/><feBlend in="SourceGraphic" in2="blurOut3" mode="normal"/></filter></defs><g><!--cluster aml--><rect fill="#ADD8E6" filter="url(#fk27dbylr4xut)" height="232" style="stroke: #000000; stroke-width: 1.5;" width="231" x="187.5" y="24"/><text fill="#000000" font-family="sans-serif" font-size="14" font-weight="bold" lengthAdjust="spacingAndGlyphs" textLength="215" x="195.5" y="40.5332">Application Management Layer</text><!--cluster do--><rect fill="#ADD8E6" filter="url(#fk27dbylr4xut)" height="94" style="stroke: #000000; stroke-width: 1.5;" width="211" x="197" y="280"/><text fill="#000000" font-family="sans-serif" font-size="14" font-weight="bold" lengthAdjust="spacingAndGlyphs" textLength="125" x="240" y="296.5332">Data Orchestrator</text><!--cluster so--><rect fill="#90EE90" filter="url(#fk27dbylr4xut)" height="84" style="stroke: #000000; stroke-width: 1.5;" width="169" x="218" y="398"/><text fill="#000000" font-family="sans-serif" font-size="14" font-weight="bold" lengthAdjust="spacingAndGlyphs" textLength="148" x="228.5" y="414.5332">Service Orchestrator</text><!--cluster sml--><rect fill="#90EE90" filter="url(#fk27dbylr4xut)" height="86" style="stroke: #000000; stroke-width: 1.5;" width="207" x="199.5" y="506"/><text fill="#000000" font-family="sans-serif" font-size="14" font-weight="bold" lengthAdjust="spacingAndGlyphs" textLength="191" x="207.5" y="522.5332">Service Management Layer</text><ellipse cx="302.3153" cy="78.0631" fill="#FEFECE" filter="url(#fk27dbylr4xut)" rx="75.8153" ry="17.5631" style="stroke: #A80036; stroke-width: 1.5;"/><text fill="#000000" font-family="sans-serif" font-size="14" lengthAdjust="spacingAndGlyphs" textLength="116" x="244.3153" y="83.3677">Manage AI Models</text><ellipse cx="302.4197" cy="149.7839" fill="#FEFECE" filter="url(#fk27dbylr4xut)" rx="81.9197" ry="18.7839" style="stroke: #A80036; stroke-width: 1.5;"/><text fill="#000000" font-family="sans-serif" font-size="14" lengthAdjust="spacingAndGlyphs" textLength="131" x="236.9197" y="155.0886">Manage Applications</text><ellipse cx="302.7267" cy="222.0453" fill="#FEFECE" filter="url(#fk27dbylr4xut)" rx="78.2267" ry="18.0453" style="stroke: #A80036; stroke-width: 1.5;"/><text fill="#000000" font-family="sans-serif" font-size="14" lengthAdjust="spacingAndGlyphs" textLength="122" x="241.7267" y="227.35">Manage Workloads</text><ellipse cx="302.535" cy="336.807" fill="#FEFECE" filter="url(#fk27dbylr4xut)" rx="89.535" ry="20.307" style="stroke: #A80036; stroke-width: 1.5;"/><text fill="#000000" font-family="sans-serif" font-size="14" lengthAdjust="spacingAndGlyphs" textLength="149" x="228.035" y="342.1117">Manage Data Instances</text><ellipse cx="302.5005" cy="450.1001" fill="#FEFECE" filter="url(#fk27dbylr4xut)" rx="68.5005" ry="16.1001" style="stroke: #A80036; stroke-width: 1.5;"/><text fill="#000000" font-family="sans-serif" font-size="14" lengthAdjust="spacingAndGlyphs" textLength="97" x="254.0005" y="455.4048">Manage Stacks</text><ellipse cx="302.5594" cy="559.0119" fill="#FEFECE" filter="url(#fk27dbylr4xut)" rx="73.0594" ry="17.0119" style="stroke: #A80036; stroke-width: 1.5;"/><text fill="#000000" font-family="sans-serif" font-size="14" lengthAdjust="spacingAndGlyphs" textLength="109" x="248.0594" y="564.3166">Manage Services</text><!--entity ApplicationDeveloper--><ellipse cx="75" cy="247.5" fill="#FEFECE" filter="url(#fk27dbylr4xut)" rx="8" ry="8" style="stroke: #A80036; stroke-width: 2.0;"/><path d="M75,255.5 L75,282.5 M62,263.5 L88,263.5 M75,282.5 L62,297.5 M75,282.5 L88,297.5 " fill="none" filter="url(#fk27dbylr4xut)" style="stroke: #A80036; stroke-width: 2.0;"/><text fill="#000000" font-family="sans-serif" font-size="14" lengthAdjust="spacingAndGlyphs" textLength="138" x="6" y="319.0332">Application Developer</text><!--link ApplicationDeveloper to ManageAIModels--><path d="M91.9301,237.424 C108.288,199.391 137.337,144.898 179.5,113 C194.759,101.456 213.704,93.716 232.078,88.528 " fill="none" id="ApplicationDeveloper-ManageAIModels" style="stroke: #A80036; stroke-width: 1.0;"/><polygon fill="#A80036" points="237.241,87.132,227.5087,85.6215,232.4146,88.4379,229.5981,93.3438,237.241,87.132" style="stroke: #A80036; stroke-width: 1.0;"/><!--link ApplicationDeveloper to ManageApplications--><path d="M114.423,237.358 C132.622,219.331 155.59,199.441 179.5,186 C196.48,176.454 216.243,169.213 234.855,163.821 " fill="none" id="ApplicationDeveloper-ManageApplications" style="stroke: #A80036; stroke-width: 1.0;"/><polygon fill="#A80036" points="240.07,162.349,230.3217,160.9452,235.2581,163.7077,232.4956,168.6441,240.07,162.349" style="stroke: #A80036; stroke-width: 1.0;"/><!--link ApplicationDeveloper to ManageWorkloads--><path d="M144.269,262.441 C176.253,254.214 213.923,244.525 244.372,236.694 " fill="none" id="ApplicationDeveloper-ManageWorkloads" style="stroke: #A80036; stroke-width: 1.0;"/><polygon fill="#A80036" points="249.581,235.354,239.8682,233.7229,244.7387,236.5999,241.8616,241.4705,249.581,235.354" style="stroke: #A80036; stroke-width: 1.0;"/><!--link ApplicationDeveloper to ManageDataInstances--><path d="M144.269,297.257 C173.557,304.66 207.612,313.268 236.526,320.576 " fill="none" id="ApplicationDeveloper-ManageDataInstances" style="stroke: #A80036; stroke-width: 1.0;"/><polygon fill="#A80036" points="241.49,321.831,233.7436,315.7488,236.6422,320.6066,231.7845,323.5052,241.49,321.831" style="stroke: #A80036; stroke-width: 1.0;"/><!--link ApplicationDeveloper to ManageStacks--><path d="M119.314,322.547 C137.3,339.348 158.78,358.339 179.5,374 C208.923,396.239 245.038,418.132 270.31,432.665 " fill="none" id="ApplicationDeveloper-ManageStacks" style="stroke: #A80036; stroke-width: 1.0;"/><polygon fill="#A80036" points="274.898,435.292,269.0743,427.3494,270.5586,432.8081,265.1,434.2924,274.898,435.292" style="stroke: #A80036; stroke-width: 1.0;"/><!--link ApplicationDeveloper to ManageServices--><path d="M90.1932,322.648 C106.421,366.51 136.426,434.887 179.5,482 C202.967,507.668 236.871,528.1449 262.984,541.5104 " fill="none" id="ApplicationDeveloper-ManageServices" style="stroke: #A80036; stroke-width: 1.0;"/><polygon fill="#A80036" points="267.765,543.9229,261.5325,536.2969,263.3013,541.6701,257.928,543.4389,267.765,543.9229" style="stroke: #A80036; stroke-width: 1.0;"/><!--
@startuml

left to right direction


Actor "Application Developer" as ApplicationDeveloper


rectangle "Application Management Layer" as aml #lightblue {
        usecase "Manage AI Models" as ManageAIModels
    ApplicationDeveloper - -> ManageAIModels
    usecase "Manage Applications" as ManageApplications
    ApplicationDeveloper - -> ManageApplications
    usecase "Manage Workloads" as ManageWorkloads
    ApplicationDeveloper - -> ManageWorkloads

}

rectangle "Data Orchestrator" as do #lightblue {
        usecase "Manage Data Instances" as ManageDataInstances
    ApplicationDeveloper - -> ManageDataInstances

}

rectangle "Service Orchestrator" as so #lightgreen {
        usecase "Manage Stacks" as ManageStacks
    ApplicationDeveloper - -> ManageStacks

}

rectangle "Service Management Layer" as sml #lightgreen {
        usecase "Manage Services" as ManageServices
    ApplicationDeveloper - -> ManageServices

}


@enduml

PlantUML version 1.2019.05(Sat Apr 20 09:45:36 PDT 2019)
(GPL source distribution)
Java Runtime: OpenJDK Runtime Environment
JVM: OpenJDK 64-Bit Server VM
Java Version: 12.0.1+12
Operating System: Windows 10
OS Version: 10.0
Default Encoding: Cp1252
Language: en
Country: US
--></g></svg>