<?xml version="1.0" encoding="UTF-8" standalone="no"?><svg xmlns="http://www.w3.org/2000/svg" xmlns:xlink="http://www.w3.org/1999/xlink" contentScriptType="application/ecmascript" contentStyleType="text/css" height="479px" preserveAspectRatio="none" style="width:973px;height:479px;" version="1.1" viewBox="0 0 973 479" width="973px" zoomAndPan="magnify"><defs><filter height="300%" id="f1h2whzcdsuyez" width="300%" x="-1" y="-1"><feGaussianBlur result="blurOut" stdDeviation="2.0"/><feColorMatrix in="blurOut" result="blurOut2" type="matrix" values="0 0 0 0 0 0 0 0 0 0 0 0 0 0 0 0 0 0 .4 0"/><feOffset dx="4.0" dy="4.0" in="blurOut2" result="blurOut3"/><feBlend in="SourceGraphic" in2="blurOut3" mode="normal"/></filter></defs><g><!--cluster Application Management Layer--><rect fill="#ADD8E6" filter="url(#f1h2whzcdsuyez)" height="368.9999" style="stroke: #000000; stroke-width: 1.5;" width="608" x="119" y="25.031"/><text fill="#000000" font-family="sans-serif" font-size="14" font-weight="bold" lengthAdjust="spacingAndGlyphs" textLength="215" x="315.5" y="41.5642">Application Management Layer</text><!--cluster Service Management Layer--><rect fill="#90EE90" filter="url(#f1h2whzcdsuyez)" height="379.9999" style="stroke: #000000; stroke-width: 1.5;" width="207" x="755" y="24.031"/><text fill="#000000" font-family="sans-serif" font-size="14" font-weight="bold" lengthAdjust="spacingAndGlyphs" textLength="191" x="763" y="40.5642">Service Management Layer</text><ellipse cx="344.1836" cy="174.7863" fill="#FFFFFF" filter="url(#f1h2whzcdsuyez)" rx="53.1836" ry="26.2553" style="stroke: #A80036; stroke-width: 1.5;"/><text fill="#000000" font-family="sans-serif" font-size="14" lengthAdjust="spacingAndGlyphs" textLength="51" x="318.6836" y="168.8664">Manage</text><text fill="#000000" font-family="sans-serif" font-size="14" lengthAdjust="spacingAndGlyphs" textLength="76" x="306.1836" y="186.4758">Applications</text><ellipse cx="182.9545" cy="180.1615" fill="#FFFFFF" filter="url(#f1h2whzcdsuyez)" rx="47.9545" ry="26.6305" style="stroke: #A80036; stroke-width: 1.5;"/><text fill="#000000" font-family="sans-serif" font-size="14" lengthAdjust="spacingAndGlyphs" textLength="51" x="157.4545" y="174.8099">Manage</text><text fill="#000000" font-family="sans-serif" font-size="14" lengthAdjust="spacingAndGlyphs" textLength="67" x="149.4545" y="192.4193">Workloads</text><ellipse cx="505.5784" cy="175.2549" fill="#FFFFFF" filter="url(#f1h2whzcdsuyez)" rx="38.0784" ry="27.2239" style="stroke: #A80036; stroke-width: 1.5;"/><text fill="#000000" font-family="sans-serif" font-size="14" lengthAdjust="spacingAndGlyphs" textLength="51" x="480.0784" y="172.7298">Manage</text><text fill="#000000" font-family="sans-serif" font-size="14" lengthAdjust="spacingAndGlyphs" textLength="45" x="483.0784" y="190.3391">Models</text><ellipse cx="505.3163" cy="263.1612" fill="#D3D3D3" filter="url(#f1h2whzcdsuyez)" rx="48.3163" ry="26.1302" style="stroke: #A80036; stroke-width: 1.5;"/><text fill="#000000" font-family="sans-serif" font-size="14" lengthAdjust="spacingAndGlyphs" textLength="44" x="483.3163" y="257.049">Deploy</text><text fill="#000000" font-family="sans-serif" font-size="14" lengthAdjust="spacingAndGlyphs" textLength="69" x="470.8163" y="274.6584">Application</text><ellipse cx="662.6491" cy="191.1503" fill="#D3D3D3" filter="url(#f1h2whzcdsuyez)" rx="33.1491" ry="27.1193" style="stroke: #A80036; stroke-width: 1.5;"/><text fill="#000000" font-family="sans-serif" font-size="14" lengthAdjust="spacingAndGlyphs" textLength="44" x="640.6491" y="188.7679">Deploy</text><text fill="#000000" font-family="sans-serif" font-size="14" lengthAdjust="spacingAndGlyphs" textLength="38" x="643.6491" y="206.3772">Model</text><ellipse cx="505.421" cy="87.2146" fill="#D3D3D3" filter="url(#f1h2whzcdsuyez)" rx="48.421" ry="26.1836" style="stroke: #A80036; stroke-width: 1.5;"/><text fill="#000000" font-family="sans-serif" font-size="14" lengthAdjust="spacingAndGlyphs" textLength="45" x="482.921" y="81.1847">Update</text><text fill="#000000" font-family="sans-serif" font-size="14" lengthAdjust="spacingAndGlyphs" textLength="69" x="470.921" y="98.7941">Application</text><ellipse cx="662.6998" cy="102.0579" fill="#D3D3D3" filter="url(#f1h2whzcdsuyez)" rx="33.6998" ry="27.0269" style="stroke: #A80036; stroke-width: 1.5;"/><text fill="#000000" font-family="sans-serif" font-size="14" lengthAdjust="spacingAndGlyphs" textLength="45" x="640.1998" y="99.821">Update</text><text fill="#000000" font-family="sans-serif" font-size="14" lengthAdjust="spacingAndGlyphs" textLength="38" x="643.6998" y="117.4303">Model</text><ellipse cx="183.1733" cy="90.1119" fill="#D3D3D3" filter="url(#f1h2whzcdsuyez)" rx="43.1733" ry="26.5809" style="stroke: #A80036; stroke-width: 1.5;"/><text fill="#000000" font-family="sans-serif" font-size="14" lengthAdjust="spacingAndGlyphs" textLength="45" x="160.6733" y="84.6858">Update</text><text fill="#000000" font-family="sans-serif" font-size="14" lengthAdjust="spacingAndGlyphs" textLength="60" x="153.1733" y="102.2952">Workload</text><ellipse cx="344.0502" cy="263.0396" fill="#D3D3D3" filter="url(#f1h2whzcdsuyez)" rx="43.0502" ry="26.5086" style="stroke: #A80036; stroke-width: 1.5;"/><text fill="#000000" font-family="sans-serif" font-size="14" lengthAdjust="spacingAndGlyphs" textLength="44" x="322.0502" y="257.5048">Deploy</text><text fill="#000000" font-family="sans-serif" font-size="14" lengthAdjust="spacingAndGlyphs" textLength="60" x="314.0502" y="275.1141">Workload</text><ellipse cx="662.6385" cy="279.8257" fill="#D3D3D3" filter="url(#f1h2whzcdsuyez)" rx="48.6385" ry="26.2947" style="stroke: #A80036; stroke-width: 1.5;"/><text fill="#000000" font-family="sans-serif" font-size="14" lengthAdjust="spacingAndGlyphs" textLength="47" x="639.1385" y="273.9659">Monitor</text><text fill="#000000" font-family="sans-serif" font-size="14" lengthAdjust="spacingAndGlyphs" textLength="69" x="628.1385" y="291.5753">Application</text><ellipse cx="505.4292" cy="351.262" fill="#D3D3D3" filter="url(#f1h2whzcdsuyez)" rx="43.4292" ry="26.7311" style="stroke: #A80036; stroke-width: 1.5;"/><text fill="#000000" font-family="sans-serif" font-size="14" lengthAdjust="spacingAndGlyphs" textLength="47" x="481.9292" y="346.061">Monitor</text><text fill="#000000" font-family="sans-serif" font-size="14" lengthAdjust="spacingAndGlyphs" textLength="60" x="475.4292" y="363.6704">Workload</text><ellipse cx="858.6717" cy="270.1004" fill="#FFFFFF" filter="url(#f1h2whzcdsuyez)" rx="40.6717" ry="27.5694" style="stroke: #A80036; stroke-width: 1.5;"/><text fill="#000000" font-family="sans-serif" font-size="14" lengthAdjust="spacingAndGlyphs" textLength="51" x="833.1717" y="266.1249">Manage</text><text fill="#000000" font-family="sans-serif" font-size="14" lengthAdjust="spacingAndGlyphs" textLength="54" x="831.6717" y="283.7343">Services</text><ellipse cx="858.7246" cy="360.0526" fill="#D3D3D3" filter="url(#f1h2whzcdsuyez)" rx="35.7246" ry="27.5217" style="stroke: #A80036; stroke-width: 1.5;"/><text fill="#000000" font-family="sans-serif" font-size="14" lengthAdjust="spacingAndGlyphs" textLength="44" x="836.7246" y="356.0086">Deploy</text><text fill="#000000" font-family="sans-serif" font-size="14" lengthAdjust="spacingAndGlyphs" textLength="47" x="835.2246" y="373.6179">Service</text><ellipse cx="858.3898" cy="88.1765" fill="#D3D3D3" filter="url(#f1h2whzcdsuyez)" rx="35.8898" ry="27.6455" style="stroke: #A80036; stroke-width: 1.5;"/><text fill="#000000" font-family="sans-serif" font-size="14" lengthAdjust="spacingAndGlyphs" textLength="45" x="835.8898" y="84.3098">Update</text><text fill="#000000" font-family="sans-serif" font-size="14" lengthAdjust="spacingAndGlyphs" textLength="47" x="834.8898" y="101.9192">Service</text><ellipse cx="858.734" cy="178.9344" fill="#D3D3D3" filter="url(#f1h2whzcdsuyez)" rx="36.234" ry="27.9034" style="stroke: #A80036; stroke-width: 1.5;"/><text fill="#000000" font-family="sans-serif" font-size="14" lengthAdjust="spacingAndGlyphs" textLength="47" x="835.234" y="175.4344">Monitor</text><text fill="#000000" font-family="sans-serif" font-size="14" lengthAdjust="spacingAndGlyphs" textLength="47" x="835.234" y="193.0438">Service</text><!--entity User--><ellipse cx="40.5" cy="263.031" fill="#FEFECE" filter="url(#f1h2whzcdsuyez)" rx="8" ry="8" style="stroke: #A80036; stroke-width: 2.0;"/><path d="M40.5,271.031 L40.5,298.031 M27.5,279.031 L53.5,279.031 M40.5,298.031 L27.5,313.031 M40.5,298.031 L53.5,313.031 " fill="none" filter="url(#f1h2whzcdsuyez)" style="stroke: #A80036; stroke-width: 2.0;"/><text fill="#000000" font-family="sans-serif" font-size="14" lengthAdjust="spacingAndGlyphs" textLength="69" x="6" y="334.5642">Application</text><text fill="#000000" font-family="sans-serif" font-size="14" lengthAdjust="spacingAndGlyphs" textLength="65" x="6" y="352.1736">Developer</text><!--link User to MS--><path d="M70.5994,355.1596 C81.4333,369.9084 95.0425,384.5588 111,394.0309 C200.788,447.3273 238.586,431.0309 343,431.0309 C343,431.0309 343,431.0309 506.5,431.0309 C609.378,431.0309 662.611,467.132 735,394.0309 C759.989,368.7963 725.019,342.9246 747,315.031 C763.219,294.45 790.391,283.221 813.73,277.127 " fill="none" id="User-MS" style="stroke: #A80036; stroke-width: 1.0;"/><polygon fill="#A80036" points="818.647,275.903,808.9476,274.1938,813.7949,277.11,810.8787,281.9572,818.647,275.903" style="stroke: #A80036; stroke-width: 1.0;"/><!--link User to MA--><path d="M75.1021,290 C113.027,274.128 176.538,247.439 231,224.031 C253.479,214.369 278.424,203.473 299.057,194.413 " fill="none" id="User-MA" style="stroke: #A80036; stroke-width: 1.0;"/><polygon fill="#A80036" points="303.661,192.39,293.8122,192.3489,299.0835,194.4016,297.0308,199.6729,303.661,192.39" style="stroke: #A80036; stroke-width: 1.0;"/><!--link User to MW--><path d="M75.3172,270.952 C86.5106,260.264 99.1393,248.481 111,238.031 C123.661,226.876 138.012,215.013 150.481,204.942 " fill="none" id="User-MW" style="stroke: #A80036; stroke-width: 1.0;"/><polygon fill="#A80036" points="154.633,201.598,145.1144,204.1269,150.7386,204.7338,150.1317,210.358,154.633,201.598" style="stroke: #A80036; stroke-width: 1.0;"/><!--link User to MM--><path d="M75.0454,314.199 C141.109,332.193 290.851,362.7694 397,307.031 C438.586,285.194 426.451,255.71 457,220.031 C463.109,212.896 470.227,205.675 477.065,199.169 " fill="none" id="User-MM" style="stroke: #A80036; stroke-width: 1.0;"/><polygon fill="#A80036" points="480.827,195.633,471.5304,198.8846,477.1846,199.0583,477.0109,204.7125,480.827,195.633" style="stroke: #A80036; stroke-width: 1.0;"/><!--link MA to MS--><path d="M358.011,149.205 C375.565,117.6 410.12,65.628 457,44.031 C504.861,21.982 715.83,38.756 735,58.031 C761.237,84.412 725.143,194.921 747,225.031 C762.507,246.393 789.957,257.638 813.617,263.545 " fill="none" id="MA-MS" style="stroke: #A80036; stroke-width: 1.0; stroke-dasharray: 7.0,7.0;"/><polygon fill="#A80036" points="818.603,264.726,810.7681,258.7583,813.7378,263.5729,808.9231,266.5426,818.603,264.726" style="stroke: #A80036; stroke-width: 1.0;"/><!--link MA to MM--><path d="M397.226,175.031 C418.243,175.031 442.167,175.031 462.081,175.031 " fill="none" id="MA-MM" style="stroke: #A80036; stroke-width: 1.0; stroke-dasharray: 7.0,7.0;"/><polygon fill="#A80036" points="467.318,175.031,458.318,171.031,462.318,175.031,458.318,179.031,467.318,175.031" style="stroke: #A80036; stroke-width: 1.0;"/><!--link MM to UC7--><path d="M543.233,178.823 C567.721,181.351 599.801,184.662 624.371,187.198 " fill="none" id="MM-UC7" style="stroke: #A80036; stroke-width: 1.0; stroke-dasharray: 7.0,7.0;"/><polygon fill="#A80036" points="629.494,187.727,620.9518,182.8248,624.5204,187.2141,620.1311,190.7826,629.494,187.727" style="stroke: #A80036; stroke-width: 1.0;"/><!--link MM to UC5--><path d="M537.494,160.434 C563.885,148.005 601.692,130.199 628.611,117.521 " fill="none" id="MM-UC5" style="stroke: #A80036; stroke-width: 1.0; stroke-dasharray: 7.0,7.0;"/><polygon fill="#A80036" points="633.169,115.374,623.3225,115.5897,628.6455,117.5043,626.731,122.8273,633.169,115.374" style="stroke: #A80036; stroke-width: 1.0;"/><!--link UC2 to UC9--><path d="M553.426,268.178 C571.181,270.125 591.486,272.352 609.666,274.346 " fill="none" id="UC2-UC9" style="stroke: #A80036; stroke-width: 1.0; stroke-dasharray: 7.0,7.0;"/><polygon fill="#A80036" points="614.734,274.902,606.2229,269.946,609.7637,274.3577,605.352,277.8985,614.734,274.902" style="stroke: #A80036; stroke-width: 1.0;"/><!--link MA to UC4--><path d="M380.398,155.501 C405.992,141.38 440.521,122.329 466.66,107.908 " fill="none" id="MA-UC4" style="stroke: #A80036; stroke-width: 1.0; stroke-dasharray: 7.0,7.0;"/><polygon fill="#A80036" points="471.109,105.453,461.2966,106.2997,466.7314,107.869,465.1621,113.3038,471.109,105.453" style="stroke: #A80036; stroke-width: 1.0;"/><!--link UC12 to UC13--><path d="M376.512,280.417 C402.86,294.953 440.459,315.698 468.09,330.942 " fill="none" id="UC12-UC13" style="stroke: #A80036; stroke-width: 1.0; stroke-dasharray: 7.0,7.0;"/><polygon fill="#A80036" points="472.781,333.531,466.8311,325.6825,468.4025,331.1167,462.9683,332.6882,472.781,333.531" style="stroke: #A80036; stroke-width: 1.0;"/><!--link UC13 to UC9--><path d="M540.9,335.274 C564.325,324.543 595.454,310.284 620.218,298.941 " fill="none" id="UC13-UC9" style="stroke: #A80036; stroke-width: 1.0; stroke-dasharray: 7.0,7.0;"/><polygon fill="#A80036" points="624.764,296.858,614.9158,296.9706,620.2185,298.9408,618.2482,304.2434,624.764,296.858" style="stroke: #A80036; stroke-width: 1.0;"/><!--link UC9 to UC8--><path d="M697.113,261.146 C709.375,253.795 723.136,244.99 735,236.031 C740.774,231.671 740.902,228.924 747,225.031 C769.634,210.581 797.574,198.998 819.696,191.069 " fill="none" id="UC9-UC8" style="stroke: #A80036; stroke-width: 1.0; stroke-dasharray: 7.0,7.0;"/><polygon fill="#A80036" points="824.61,189.334,814.7917,188.5582,819.8952,190.9985,817.4549,196.1019,824.61,189.334" style="stroke: #A80036; stroke-width: 1.0;"/><!--link MW to MA--><path d="M231.275,178.544 C248.428,178.005 267.99,177.39 285.901,176.826 " fill="none" id="MW-MA" style="stroke: #A80036; stroke-width: 1.0; stroke-dasharray: 7.0,7.0;"/><polygon fill="#A80036" points="290.906,176.669,281.7848,172.9538,285.9085,176.8261,282.0361,180.9498,290.906,176.669" style="stroke: #A80036; stroke-width: 1.0;"/><!--link MW to UC11--><path d="M183,153.312 C183,142.832 183,132.352 183,121.872 " fill="none" id="MW-UC11" style="stroke: #A80036; stroke-width: 1.0; stroke-dasharray: 7.0,7.0;"/><polygon fill="#A80036" points="183,116.728,179,125.728,183,121.728,187,125.728,183,116.728" style="stroke: #A80036; stroke-width: 1.0;"/><!--link MW to UC12--><path d="M218.501,198.041 C244.402,211.562 279.807,230.043 306.24,243.842 " fill="none" id="MW-UC12" style="stroke: #A80036; stroke-width: 1.0; stroke-dasharray: 7.0,7.0;"/><polygon fill="#A80036" points="310.734,246.188,304.6081,238.4761,306.302,243.8734,300.9047,245.5673,310.734,246.188" style="stroke: #A80036; stroke-width: 1.0;"/><!--link UC12 to UC2--><path d="M387.324,263.031 C407.063,263.031 430.757,263.031 451.658,263.031 " fill="none" id="UC12-UC2" style="stroke: #A80036; stroke-width: 1.0; stroke-dasharray: 7.0,7.0;"/><polygon fill="#A80036" points="456.908,263.031,447.908,259.031,451.908,263.031,447.908,267.031,456.908,263.031" style="stroke: #A80036; stroke-width: 1.0;"/><!--link UC11 to UC4--><path d="M226.229,89.636 C284.261,89.092 388.627,88.116 451.734,87.525 " fill="none" id="UC11-UC4" style="stroke: #A80036; stroke-width: 1.0; stroke-dasharray: 7.0,7.0;"/><polygon fill="#A80036" points="456.956,87.476,447.9187,83.561,451.9562,87.5231,447.9941,91.5607,456.956,87.476" style="stroke: #A80036; stroke-width: 1.0;"/><!--link UC2 to UC7--><path d="M542.841,246.15 C568.785,234.098 603.4,218.019 628.544,206.34 " fill="none" id="UC2-UC7" style="stroke: #A80036; stroke-width: 1.0; stroke-dasharray: 7.0,7.0;"/><polygon fill="#A80036" points="633.124,204.212,623.2765,204.3762,628.5894,206.3186,626.6471,211.6315,633.124,204.212" style="stroke: #A80036; stroke-width: 1.0;"/><!--link MA to UC2--><path d="M380.398,194.561 C405.992,208.682 440.521,227.732 466.66,242.154 " fill="none" id="MA-UC2" style="stroke: #A80036; stroke-width: 1.0; stroke-dasharray: 7.0,7.0;"/><polygon fill="#A80036" points="471.109,244.608,465.1621,236.7572,466.7314,242.192,461.2966,243.7613,471.109,244.608" style="stroke: #A80036; stroke-width: 1.0;"/><!--link UC2 to UC3--><path d="M535.665,283.527 C556.527,297.175 585.796,314.324 614,324.031 C683.007,347.7801 768.308,355.864 817.453,358.6142 " fill="none" id="UC2-UC3" style="stroke: #A80036; stroke-width: 1.0; stroke-dasharray: 7.0,7.0;"/><polygon fill="#A80036" points="822.679,358.8941,813.9056,354.419,817.6861,358.627,813.4781,362.4075,822.679,358.8941" style="stroke: #A80036; stroke-width: 1.0;"/><!--link UC4 to UC6--><path d="M547.077,73.371 C566.99,67.369 591.484,61.015 614,58.031 C667.312,50.966 681.61,51.589 735,58.031 C763.92,61.521 795.864,69.485 819.88,76.331 " fill="none" id="UC4-UC6" style="stroke: #A80036; stroke-width: 1.0; stroke-dasharray: 7.0,7.0;"/><polygon fill="#A80036" points="824.88,77.773,817.3411,71.4355,820.0758,76.3873,815.124,79.1221,824.88,77.773" style="stroke: #A80036; stroke-width: 1.0;"/><!--link UC4 to UC5--><path d="M553.426,91.572 C576.028,93.759 602.762,96.347 623.986,98.401 " fill="none" id="UC4-UC5" style="stroke: #A80036; stroke-width: 1.0; stroke-dasharray: 7.0,7.0;"/><polygon fill="#A80036" points="628.979,98.884,620.4059,94.0361,624.0022,98.4026,619.6357,101.9989,628.979,98.884" style="stroke: #A80036; stroke-width: 1.0;"/><!--
@startuml

left to right direction

actor :Application\nDeveloper: as User

rectangle "Application Management Layer" #lightBlue {
    UseCase MA as "Manage\nApplications" #white
    UseCase MW as "Manage\nWorkloads" #white
    UseCase MM as "Manage\nModels" #white
    UseCase UC2 as "Deploy\nApplication" #lightgray
    UseCase UC7 as "Deploy\nModel" #lightgray
    UseCase UC4 as "Update\nApplication" #lightgray
    UseCase UC5 as "Update\nModel" #lightgray
    UseCase UC11 as "Update\nWorkload" #lightgray
    UseCase UC12 as "Deploy\nWorkload" #lightgray
    UseCase UC9 as "Monitor\nApplication" #lightgray
    UseCase UC13 as "Monitor\nWorkload" #lightgray
}
rectangle "Service Management Layer" #lightgreen {
    UseCase MS as "Manage\nServices" #white
    UseCase UC3 as "Deploy\nService" #lightgray
    UseCase UC6 as "Update\nService" #lightgray
    UseCase UC8 as "Monitor\nService" #lightgray
}


User - -> MS
User - -> MA
User - -> MW
User - -> MM
MA ..> MS
MA ..> MM
MM ..> UC7
MM ..> UC5
UC2 ..> UC9
MA ..> UC4
UC12 ..> UC13
UC13 ..> UC9
UC9 ..> UC8
MW ..> MA
MW .> UC11
MW .> UC12
UC12 .> UC2
UC11 .> UC4
UC2 ..> UC7
MA ..> UC2
UC2 ..> UC3
UC4 ..> UC6
UC4 ..> UC5

@enduml

PlantUML version 1.2019.05(Sat Apr 20 09:45:36 PDT 2019)
(GPL source distribution)
Java Runtime: OpenJDK Runtime Environment
JVM: OpenJDK 64-Bit Server VM
Java Version: 12.0.1+12
Operating System: Windows 10
OS Version: 10.0
Default Encoding: Cp1252
Language: en
Country: US
--></g></svg>