<?xml version="1.0" encoding="UTF-8" standalone="no"?><svg xmlns="http://www.w3.org/2000/svg" xmlns:xlink="http://www.w3.org/1999/xlink" contentScriptType="application/ecmascript" contentStyleType="text/css" height="666px" preserveAspectRatio="none" style="width:848px;height:666px;" version="1.1" viewBox="0 0 848 666" width="848px" zoomAndPan="magnify"><defs><filter height="300%" id="fyjz7qqlow6nn" width="300%" x="-1" y="-1"><feGaussianBlur result="blurOut" stdDeviation="2.0"/><feColorMatrix in="blurOut" result="blurOut2" type="matrix" values="0 0 0 0 0 0 0 0 0 0 0 0 0 0 0 0 0 0 .4 0"/><feOffset dx="4.0" dy="4.0" in="blurOut2" result="blurOut3"/><feBlend in="SourceGraphic" in2="blurOut3" mode="normal"/></filter></defs><g><ellipse cx="107.5" cy="45.0957" fill="#000000" filter="url(#fyjz7qqlow6nn)" rx="10" ry="10" style="stroke: none; stroke-width: 1.0;"/><rect fill="#E6E6FA" height="642.2969" style="stroke: #E6E6FA; stroke-width: 1.0;" width="371" x="204" y="12.4551"/><rect fill="#000000" filter="url(#fyjz7qqlow6nn)" height="6" rx="2.5" ry="2.5" style="stroke: #000000; stroke-width: 1.0;" width="352" x="214" y="90.0957"/><rect fill="#FEFECE" filter="url(#fyjz7qqlow6nn)" height="35.0938" rx="12.5" ry="12.5" style="stroke: #A80036; stroke-width: 1.5;" width="153" x="230.5" y="116.0957"/><text fill="#000000" font-family="sans-serif" font-size="12" lengthAdjust="spacingAndGlyphs" textLength="133" x="240.5" y="138.5527">Create Application Stack</text><rect fill="#FEFECE" filter="url(#fyjz7qqlow6nn)" height="35.0938" rx="12.5" ry="12.5" style="stroke: #A80036; stroke-width: 1.5;" width="150" x="232" y="186.1895"/><text fill="#000000" font-family="sans-serif" font-size="12" lengthAdjust="spacingAndGlyphs" textLength="130" x="242" y="208.6465">Modify Application Stack</text><rect fill="#FEFECE" filter="url(#fyjz7qqlow6nn)" height="35.0938" rx="12.5" ry="12.5" style="stroke: #A80036; stroke-width: 1.5;" width="158" x="228" y="256.2832"/><text fill="#000000" font-family="sans-serif" font-size="12" lengthAdjust="spacingAndGlyphs" textLength="138" x="238" y="278.7402">Version Application Stack</text><rect fill="#FEFECE" filter="url(#fyjz7qqlow6nn)" height="35.0938" rx="12.5" ry="12.5" style="stroke: #A80036; stroke-width: 1.5;" width="133" x="416.5" y="116.0957"/><text fill="#000000" font-family="sans-serif" font-size="12" lengthAdjust="spacingAndGlyphs" textLength="113" x="426.5" y="138.5527">Create Service Stack</text><rect fill="#FEFECE" filter="url(#fyjz7qqlow6nn)" height="35.0938" rx="12.5" ry="12.5" style="stroke: #A80036; stroke-width: 1.5;" width="130" x="418" y="186.1895"/><text fill="#000000" font-family="sans-serif" font-size="12" lengthAdjust="spacingAndGlyphs" textLength="110" x="428" y="208.6465">Modify Service Stack</text><rect fill="#FEFECE" filter="url(#fyjz7qqlow6nn)" height="35.0938" rx="12.5" ry="12.5" style="stroke: #A80036; stroke-width: 1.5;" width="138" x="414" y="256.2832"/><text fill="#000000" font-family="sans-serif" font-size="12" lengthAdjust="spacingAndGlyphs" textLength="118" x="424" y="278.7402">Version Service Stack</text><rect fill="#000000" filter="url(#fyjz7qqlow6nn)" height="6" rx="2.5" ry="2.5" style="stroke: #000000; stroke-width: 1.0;" width="352" x="214" y="311.377"/><rect fill="#ADD8E6" height="642.2969" style="stroke: #ADD8E6; stroke-width: 1.0;" width="261" x="575" y="12.4551"/><rect fill="#FEFECE" filter="url(#fyjz7qqlow6nn)" height="35.0938" rx="12.5" ry="12.5" style="stroke: #A80036; stroke-width: 1.5;" width="140" x="636" y="352.377"/><text fill="#000000" font-family="sans-serif" font-size="12" lengthAdjust="spacingAndGlyphs" textLength="120" x="646" y="374.834">Test Application Stack</text><rect fill="#FEFECE" filter="url(#fyjz7qqlow6nn)" height="35.0938" rx="12.5" ry="12.5" style="stroke: #A80036; stroke-width: 1.5;" width="137" x="637.5" y="422.4707"/><text fill="#000000" font-family="sans-serif" font-size="12" lengthAdjust="spacingAndGlyphs" textLength="117" x="647.5" y="444.9277">Create an Application</text><rect fill="#FEFECE" filter="url(#fyjz7qqlow6nn)" height="35.0938" rx="12.5" ry="12.5" style="stroke: #A80036; stroke-width: 1.5;" width="242" x="585" y="492.5645"/><text fill="#000000" font-family="sans-serif" font-size="12" lengthAdjust="spacingAndGlyphs" textLength="222" x="595" y="515.0215">Launch an Application in an environment</text><rect fill="#FEFECE" filter="url(#fyjz7qqlow6nn)" height="35.0938" rx="12.5" ry="12.5" style="stroke: #A80036; stroke-width: 1.5;" width="174" x="619" y="562.6582"/><text fill="#000000" font-family="sans-serif" font-size="12" lengthAdjust="spacingAndGlyphs" textLength="154" x="629" y="585.1152">Kill Application and Services</text><ellipse cx="706" cy="643.752" fill="#FFFFFF" filter="url(#fyjz7qqlow6nn)" rx="11" ry="11" style="stroke: #000000; stroke-width: 1.0;"/><ellipse cx="706" cy="643.752" fill="#000000" rx="6" ry="6" style="stroke: #7F7F7F; stroke-width: 1.0;"/><line style="stroke: #A80036; stroke-width: 1.5;" x1="307" x2="307" y1="151.1895" y2="186.1895"/><polygon fill="#A80036" points="303,176.1895,307,186.1895,311,176.1895,307,180.1895" style="stroke: #A80036; stroke-width: 1.0;"/><line style="stroke: #A80036; stroke-width: 1.5;" x1="307" x2="307" y1="221.2832" y2="256.2832"/><polygon fill="#A80036" points="303,246.2832,307,256.2832,311,246.2832,307,250.2832" style="stroke: #A80036; stroke-width: 1.0;"/><line style="stroke: #A80036; stroke-width: 1.5;" x1="483" x2="483" y1="151.1895" y2="186.1895"/><polygon fill="#A80036" points="479,176.1895,483,186.1895,487,176.1895,483,180.1895" style="stroke: #A80036; stroke-width: 1.0;"/><line style="stroke: #A80036; stroke-width: 1.5;" x1="483" x2="483" y1="221.2832" y2="256.2832"/><polygon fill="#A80036" points="479,246.2832,483,256.2832,487,246.2832,483,250.2832" style="stroke: #A80036; stroke-width: 1.0;"/><line style="stroke: #A80036; stroke-width: 1.5;" x1="307" x2="307" y1="96.0957" y2="116.0957"/><polygon fill="#A80036" points="303,106.0957,307,116.0957,311,106.0957,307,110.0957" style="stroke: #A80036; stroke-width: 1.0;"/><line style="stroke: #A80036; stroke-width: 1.5;" x1="483" x2="483" y1="96.0957" y2="116.0957"/><polygon fill="#A80036" points="479,106.0957,483,116.0957,487,106.0957,483,110.0957" style="stroke: #A80036; stroke-width: 1.0;"/><line style="stroke: #A80036; stroke-width: 1.5;" x1="307" x2="307" y1="291.377" y2="311.377"/><polygon fill="#A80036" points="303,301.377,307,311.377,311,301.377,307,305.377" style="stroke: #A80036; stroke-width: 1.0;"/><line style="stroke: #A80036; stroke-width: 1.5;" x1="483" x2="483" y1="291.377" y2="311.377"/><polygon fill="#A80036" points="479,301.377,483,311.377,487,301.377,483,305.377" style="stroke: #A80036; stroke-width: 1.0;"/><line style="stroke: #A80036; stroke-width: 1.5;" x1="706" x2="706" y1="387.4707" y2="422.4707"/><polygon fill="#A80036" points="702,412.4707,706,422.4707,710,412.4707,706,416.4707" style="stroke: #A80036; stroke-width: 1.0;"/><line style="stroke: #A80036; stroke-width: 1.5;" x1="706" x2="706" y1="457.5645" y2="492.5645"/><polygon fill="#A80036" points="702,482.5645,706,492.5645,710,482.5645,706,486.5645" style="stroke: #A80036; stroke-width: 1.0;"/><line style="stroke: #A80036; stroke-width: 1.5;" x1="706" x2="706" y1="527.6582" y2="562.6582"/><polygon fill="#A80036" points="702,552.6582,706,562.6582,710,552.6582,706,556.6582" style="stroke: #A80036; stroke-width: 1.0;"/><line style="stroke: #A80036; stroke-width: 1.5;" x1="706" x2="706" y1="597.752" y2="632.752"/><polygon fill="#A80036" points="702,622.752,706,632.752,710,622.752,706,626.752" style="stroke: #A80036; stroke-width: 1.0;"/><line style="stroke: #A80036; stroke-width: 1.5;" x1="107.5" x2="107.5" y1="55.0957" y2="72.5957"/><line style="stroke: #A80036; stroke-width: 1.5;" x1="107.5" x2="390" y1="72.5957" y2="72.5957"/><line style="stroke: #A80036; stroke-width: 1.5;" x1="390" x2="390" y1="72.5957" y2="90.0957"/><polygon fill="#A80036" points="386,80.0957,390,90.0957,394,80.0957,390,84.0957" style="stroke: #A80036; stroke-width: 1.0;"/><line style="stroke: #A80036; stroke-width: 1.5;" x1="390" x2="390" y1="317.377" y2="334.877"/><line style="stroke: #A80036; stroke-width: 1.5;" x1="390" x2="706" y1="334.877" y2="334.877"/><line style="stroke: #A80036; stroke-width: 1.5;" x1="706" x2="706" y1="334.877" y2="352.377"/><polygon fill="#A80036" points="702,342.377,706,352.377,710,342.377,706,346.377" style="stroke: #A80036; stroke-width: 1.0;"/><text fill="#000000" font-family="sans-serif" font-size="18" lengthAdjust="spacingAndGlyphs" textLength="174" x="20" y="31.1406">Application Developer</text><text fill="#000000" font-family="sans-serif" font-size="18" lengthAdjust="spacingAndGlyphs" textLength="80" x="349.5" y="31.1406">edgemere</text><text fill="#000000" font-family="sans-serif" font-size="18" lengthAdjust="spacingAndGlyphs" textLength="163" x="624" y="31.1406">Application Manager</text><line style="stroke: #000000; stroke-width: 2.0;" x1="10" x2="10" y1="12.4551" y2="654.752"/><line style="stroke: #000000; stroke-width: 2.0;" x1="204" x2="204" y1="12.4551" y2="654.752"/><line style="stroke: #000000; stroke-width: 2.0;" x1="575" x2="575" y1="12.4551" y2="654.752"/><line style="stroke: #000000; stroke-width: 2.0;" x1="836" x2="836" y1="12.4551" y2="654.752"/><!--
@startuml

|Application Developer|
start
|#lavender|edgemere|
fork
:Create Application Stack;
:Modify Application Stack;
:Version Application Stack;
fork again
:Create Service Stack;
:Modify Service Stack;
:Version Service Stack;
fork end
|#lightblue|Application Manager|
:Test Application Stack;
:Create an Application;
:Launch an Application in an environment;
:Kill Application and Services;
stop

@enduml

PlantUML version 1.2019.05(Sat Apr 20 09:45:36 PDT 2019)
(GPL source distribution)
Java Runtime: OpenJDK Runtime Environment
JVM: OpenJDK 64-Bit Server VM
Java Version: 12.0.1+12
Operating System: Windows 10
OS Version: 10.0
Default Encoding: Cp1252
Language: en
Country: US
--></g></svg>