<?xml version="1.0" encoding="UTF-8" standalone="no"?><svg xmlns="http://www.w3.org/2000/svg" xmlns:xlink="http://www.w3.org/1999/xlink" contentScriptType="application/ecmascript" contentStyleType="text/css" height="566px" preserveAspectRatio="none" style="width:416px;height:566px;" version="1.1" viewBox="0 0 416 566" width="416px" zoomAndPan="magnify"><defs><filter height="300%" id="f2yzivofdsrtt" width="300%" x="-1" y="-1"><feGaussianBlur result="blurOut" stdDeviation="2.0"/><feColorMatrix in="blurOut" result="blurOut2" type="matrix" values="0 0 0 0 0 0 0 0 0 0 0 0 0 0 0 0 0 0 .4 0"/><feOffset dx="4.0" dy="4.0" in="blurOut2" result="blurOut3"/><feBlend in="SourceGraphic" in2="blurOut3" mode="normal"/></filter></defs><g><!--cluster cpl--><rect fill="#D3D3D3" filter="url(#f2yzivofdsrtt)" height="491" rx="12.5" ry="12.5" style="stroke: #A80036; stroke-width: 1.5;" width="203" x="22" y="64"/><rect fill="#FFFFFF" height="457.3906" rx="12.5" ry="12.5" style="stroke: #FFFFFF; stroke-width: 1.0;" width="197" x="25" y="94.6094"/><line style="stroke: #A80036; stroke-width: 1.5;" x1="22" x2="225" y1="91.6094" y2="91.6094"/><text fill="#000000" font-family="sans-serif" font-size="14" lengthAdjust="spacingAndGlyphs" textLength="18" x="114.5" y="82.5332">cpl</text><!--cluster cpldevice--><rect fill="#D3D3D3" filter="url(#f2yzivofdsrtt)" height="102" rx="12.5" ry="12.5" style="stroke: #A80036; stroke-width: 1.5;" width="82" x="82.5" y="108"/><rect fill="#FFFFFF" height="68.3906" rx="12.5" ry="12.5" style="stroke: #FFFFFF; stroke-width: 1.0;" width="76" x="85.5" y="138.6094"/><line style="stroke: #A80036; stroke-width: 1.5;" x1="82.5" x2="164.5" y1="135.6094" y2="135.6094"/><text fill="#000000" font-family="sans-serif" font-size="14" lengthAdjust="spacingAndGlyphs" textLength="43" x="102" y="126.5332">Device</text><!--cluster ta--><rect fill="#E6E6FA" filter="url(#f2yzivofdsrtt)" height="102" rx="12.5" ry="12.5" style="stroke: #A80036; stroke-width: 1.5;" width="90" x="314" y="24"/><rect fill="#FFFFFF" height="68.3906" rx="12.5" ry="12.5" style="stroke: #FFFFFF; stroke-width: 1.0;" width="84" x="317" y="54.6094"/><line style="stroke: #A80036; stroke-width: 1.5;" x1="314" x2="404" y1="51.6094" y2="51.6094"/><text fill="#000000" font-family="sans-serif" font-size="14" lengthAdjust="spacingAndGlyphs" textLength="12" x="353" y="42.5332">ta</text><!--cluster tc--><rect fill="#E6E6FA" filter="url(#f2yzivofdsrtt)" height="102" rx="12.5" ry="12.5" style="stroke: #A80036; stroke-width: 1.5;" width="90" x="314" y="150"/><rect fill="#FFFFFF" height="68.3906" rx="12.5" ry="12.5" style="stroke: #FFFFFF; stroke-width: 1.0;" width="84" x="317" y="180.6094"/><line style="stroke: #A80036; stroke-width: 1.5;" x1="314" x2="404" y1="177.6094" y2="177.6094"/><text fill="#000000" font-family="sans-serif" font-size="14" lengthAdjust="spacingAndGlyphs" textLength="11" x="353.5" y="168.5332">tc</text><rect fill="#D3D3D3" filter="url(#f2yzivofdsrtt)" height="309.6094" rx="12.5" ry="12.5" style="stroke: #A80036; stroke-width: 1.5;" width="171" x="38" y="229"/><rect fill="#FFFFFF" height="276" rx="12.5" ry="12.5" style="stroke: #FFFFFF; stroke-width: 1.0;" width="165" x="41" y="259.6094"/><line style="stroke: #A80036; stroke-width: 1.5;" x1="38" x2="209" y1="256.6094" y2="256.6094"/><text fill="#000000" font-family="sans-serif" font-size="14" lengthAdjust="spacingAndGlyphs" textLength="11" x="118" y="248.5332">tc</text><rect fill="#FEFECE" filter="url(#f2yzivofdsrtt)" height="50" rx="12.5" ry="12.5" style="stroke: #A80036; stroke-width: 1.5;" width="127" x="49" y="473.6094"/><line style="stroke: #A80036; stroke-width: 1.5;" x1="49" x2="176" y1="501.2188" y2="501.2188"/><text fill="#000000" font-family="sans-serif" font-size="14" lengthAdjust="spacingAndGlyphs" textLength="107" x="59" y="493.1426">Custom Function</text><rect fill="#D3D3D3" filter="url(#f2yzivofdsrtt)" height="50" rx="12.5" ry="12.5" style="stroke: #A80036; stroke-width: 1.5;" width="50" x="87.5" y="405.6094"/><line style="stroke: #A80036; stroke-width: 1.5;" x1="87.5" x2="137.5" y1="433.2188" y2="433.2188"/><text fill="#000000" font-family="sans-serif" font-size="14" lengthAdjust="spacingAndGlyphs" textLength="17" x="104" y="425.1426">list</text><rect fill="#D3D3D3" filter="url(#f2yzivofdsrtt)" height="50" rx="12.5" ry="12.5" style="stroke: #A80036; stroke-width: 1.5;" width="58" x="83.5" y="337.6094"/><line style="stroke: #A80036; stroke-width: 1.5;" x1="83.5" x2="141.5" y1="365.2188" y2="365.2188"/><text fill="#000000" font-family="sans-serif" font-size="14" lengthAdjust="spacingAndGlyphs" textLength="38" x="93.5" y="357.1426">report</text><rect fill="#D3D3D3" filter="url(#f2yzivofdsrtt)" height="50" rx="12.5" ry="12.5" style="stroke: #A80036; stroke-width: 1.5;" width="52" x="86.5" y="269.6094"/><line style="stroke: #A80036; stroke-width: 1.5;" x1="86.5" x2="138.5" y1="297.2188" y2="297.2188"/><text fill="#000000" font-family="sans-serif" font-size="14" lengthAdjust="spacingAndGlyphs" textLength="32" x="96.5" y="289.1426">show</text><rect fill="#D3D3D3" filter="url(#f2yzivofdsrtt)" height="50" rx="12.5" ry="12.5" style="stroke: #A80036; stroke-width: 1.5;" width="50" x="98.5" y="144"/><line style="stroke: #A80036; stroke-width: 1.5;" x1="98.5" x2="148.5" y1="171.6094" y2="171.6094"/><text fill="#000000" font-family="sans-serif" font-size="14" lengthAdjust="spacingAndGlyphs" textLength="30" x="108.5" y="163.5332">stats</text><rect fill="#E6E6FA" filter="url(#f2yzivofdsrtt)" height="50" rx="12.5" ry="12.5" style="stroke: #A80036; stroke-width: 1.5;" width="58" x="330" y="60"/><line style="stroke: #A80036; stroke-width: 1.5;" x1="330" x2="388" y1="87.6094" y2="87.6094"/><text fill="#000000" font-family="sans-serif" font-size="14" lengthAdjust="spacingAndGlyphs" textLength="38" x="340" y="79.5332">report</text><rect fill="#E6E6FA" filter="url(#f2yzivofdsrtt)" height="50" rx="12.5" ry="12.5" style="stroke: #A80036; stroke-width: 1.5;" width="58" x="330" y="186"/><line style="stroke: #A80036; stroke-width: 1.5;" x1="330" x2="388" y1="213.6094" y2="213.6094"/><text fill="#000000" font-family="sans-serif" font-size="14" lengthAdjust="spacingAndGlyphs" textLength="38" x="340" y="205.5332">report</text><!--link cpldevicestats to tareport--><path d="M148.609,160.327 C190.628,145.211 277.331,114.02 324.929,96.897 " fill="none" id="cpldevicestats-tareport" style="stroke: #A80036; stroke-width: 1.0;"/><polygon fill="#A80036" points="329.691,95.184,319.8682,94.4677,324.9863,96.877,322.577,101.9951,329.691,95.184" style="stroke: #A80036; stroke-width: 1.0;"/><!--link cpldevicestats to tcreport--><path d="M148.609,173.337 C190.544,180.879 276.981,196.427 324.64,204.999 " fill="none" id="cpldevicestats-tcreport" style="stroke: #A80036; stroke-width: 1.0;"/><polygon fill="#A80036" points="329.691,205.908,321.5418,200.3771,324.7701,205.0224,320.1248,208.2506,329.691,205.908" style="stroke: #A80036; stroke-width: 1.0;"/><!--
@startuml
left to right direction


state "cpl" as cpl #lightgray {
state "tc" as cpltc #lightgray {
}
}


state cpltc #lightgray {
    state "Custom Function" as tcfunction {
    }
}

        state "cpl" as cpl #lightgray {
state "tc" as cpltc #lightgray {
state "list" as cpltclist #lightgray {
}
}
}


        state "cpl" as cpl #lightgray {
state "tc" as cpltc #lightgray {
state "report" as cpltcreport #lightgray {
}
}
}


        state "cpl" as cpl #lightgray {
state "tc" as cpltc #lightgray {
state "show" as cpltcshow #lightgray {
}
}
}





        state "cpl" as cpl #lightgray {
state "Device" as cpldevice #lightgray {
state "stats" as cpldevicestats #lightgray {
}
}
}

        
    state "ta" as ta #lavender {
state "report" as tareport #lavender {
}
}

    cpldevicestats - - -> tareport
  
    state "tc" as tc #lavender {
state "report" as tcreport #lavender {
}
}

    cpldevicestats - - -> tcreport
  



@enduml

PlantUML version 1.2019.05(Sat Apr 20 09:45:36 PDT 2019)
(GPL source distribution)
Java Runtime: OpenJDK Runtime Environment
JVM: OpenJDK 64-Bit Server VM
Java Version: 12.0.1+12
Operating System: Windows 10
OS Version: 10.0
Default Encoding: Cp1252
Language: en
Country: US
--></g></svg>