<?xml version="1.0" encoding="UTF-8" standalone="no"?><svg xmlns="http://www.w3.org/2000/svg" xmlns:xlink="http://www.w3.org/1999/xlink" contentScriptType="application/ecmascript" contentStyleType="text/css" height="196px" preserveAspectRatio="none" style="width:224px;height:196px;" version="1.1" viewBox="0 0 224 196" width="224px" zoomAndPan="magnify"><defs><filter height="300%" id="f1btlocaez8kz5" width="300%" x="-1" y="-1"><feGaussianBlur result="blurOut" stdDeviation="2.0"/><feColorMatrix in="blurOut" result="blurOut2" type="matrix" values="0 0 0 0 0 0 0 0 0 0 0 0 0 0 0 0 0 0 .4 0"/><feOffset dx="4.0" dy="4.0" in="blurOut2" result="blurOut3"/><feBlend in="SourceGraphic" in2="blurOut3" mode="normal"/></filter></defs><g><!--cluster Telemetry Consumer--><polygon fill="#D3D3D3" filter="url(#f1btlocaez8kz5)" points="22,42,173,42,180,65.6094,202,65.6094,202,184,22,184,22,42" style="stroke: #000000; stroke-width: 1.5;"/><line style="stroke: #000000; stroke-width: 1.5;" x1="22" x2="180" y1="65.6094" y2="65.6094"/><text fill="#000000" font-family="sans-serif" font-size="14" font-weight="bold" lengthAdjust="spacingAndGlyphs" textLength="145" x="26" y="58.5332">Telemetry Consumer</text><!--class i--><rect fill="#FEFECE" filter="url(#f1btlocaez8kz5)" height="89.5078" id="i" style="stroke: #A80036; stroke-width: 1.5;" width="148" x="38" y="78"/><ellipse cx="53" cy="94" fill="#B4A7E5" rx="11" ry="11" style="stroke: #A80036; stroke-width: 1.0;"/><path d="M53.9531,90.6406 L53.9531,97.2969 L55.6719,97.2969 Q56.2813,97.2969 56.5469,97.5313 Q56.8125,97.7656 56.8125,98.1563 Q56.8125,98.5313 56.5469,98.7656 Q56.2813,99 55.6719,99 L50.5313,99 Q49.9219,99 49.6563,98.7656 Q49.3906,98.5313 49.3906,98.1406 Q49.3906,97.7656 49.6563,97.5313 Q49.9219,97.2969 50.5313,97.2969 L52.25,97.2969 L52.25,90.6406 L50.5313,90.6406 Q49.9219,90.6406 49.6563,90.4063 Q49.3906,90.1719 49.3906,89.7813 Q49.3906,89.4063 49.6563,89.1719 Q49.9219,88.9375 50.5313,88.9375 L55.6719,88.9375 Q56.2813,88.9375 56.5469,89.1719 Q56.8125,89.4063 56.8125,89.7813 Q56.8125,90.1719 56.5469,90.4063 Q56.2813,90.6406 55.6719,90.6406 L53.9531,90.6406 Z "/><text fill="#000000" font-family="sans-serif" font-size="12" font-style="italic" lengthAdjust="spacingAndGlyphs" textLength="116" x="67" y="98.9102">Telemetry Consumer</text><line style="stroke: #A80036; stroke-width: 1.5;" x1="39" x2="185" y1="110" y2="110"/><line style="stroke: #A80036; stroke-width: 1.5;" x1="39" x2="185" y1="118" y2="118"/><text fill="#000000" font-family="sans-serif" font-size="11" lengthAdjust="spacingAndGlyphs" textLength="104" x="44" y="133.4189">/edgemere/cpl/tc/list()</text><text fill="#000000" font-family="sans-serif" font-size="11" lengthAdjust="spacingAndGlyphs" textLength="120" x="44" y="147.2549">/edgemere/cpl/tc/report()</text><text fill="#000000" font-family="sans-serif" font-size="11" lengthAdjust="spacingAndGlyphs" textLength="119" x="44" y="161.0908">/edgemere/cpl/tc/show()</text><ellipse cx="67" cy="13" fill="#FEFECE" filter="url(#f1btlocaez8kz5)" rx="5" ry="5" style="stroke: #A80036; stroke-width: 1.5;"/><text fill="#000000" font-family="sans-serif" font-size="12" lengthAdjust="spacingAndGlyphs" textLength="19" x="57.5" y="30.457">CLI</text><ellipse cx="112" cy="13" fill="#FEFECE" filter="url(#f1btlocaez8kz5)" rx="5" ry="5" style="stroke: #A80036; stroke-width: 1.5;"/><text fill="#000000" font-family="sans-serif" font-size="12" lengthAdjust="spacingAndGlyphs" textLength="32" x="96" y="30.457">REST</text><ellipse cx="157" cy="13" fill="#FEFECE" filter="url(#f1btlocaez8kz5)" rx="5" ry="5" style="stroke: #A80036; stroke-width: 1.5;"/><text fill="#000000" font-family="sans-serif" font-size="12" lengthAdjust="spacingAndGlyphs" textLength="25" x="144.5" y="30.457">Web</text><!--link ilol2651 to i--><path d="M68.6016,17.844 C72.6567,27.576 83.7145,54.115 93.6527,77.966 " fill="none" id="ilol2651-i" style="stroke: #A80036; stroke-width: 1.0;"/><!--link ilol2654 to i--><path d="M112,18.102 C112,28.043 112,54.347 112,77.999 " fill="none" id="ilol2654-i" style="stroke: #A80036; stroke-width: 1.0;"/><!--link ilol2657 to i--><path d="M155.398,17.844 C151.343,27.576 140.285,54.115 130.347,77.966 " fill="none" id="ilol2657-i" style="stroke: #A80036; stroke-width: 1.0;"/><!--
@startuml



package "Telemetry Consumer" #lightgray {

    interface "Telemetry Consumer" as i {
            /edgemere/cpl/tc/list()
            /edgemere/cpl/tc/report()
            /edgemere/cpl/tc/show()
    
    }
}

CLI ()- - i
REST ()- - i
Web ()- - i

package "Telemetry Consumer" #lightgray {


}



@enduml

PlantUML version 1.2019.05(Sat Apr 20 09:45:36 PDT 2019)
(GPL source distribution)
Java Runtime: OpenJDK Runtime Environment
JVM: OpenJDK 64-Bit Server VM
Java Version: 12.0.1+12
Operating System: Windows 10
OS Version: 10.0
Default Encoding: Cp1252
Language: en
Country: US
--></g></svg>