<?xml version="1.0" encoding="UTF-8" standalone="no"?><svg xmlns="http://www.w3.org/2000/svg" xmlns:xlink="http://www.w3.org/1999/xlink" contentScriptType="application/ecmascript" contentStyleType="text/css" height="312px" preserveAspectRatio="none" style="width:737px;height:312px;" version="1.1" viewBox="0 0 737 312" width="737px" zoomAndPan="magnify"><defs><filter height="300%" id="f10jsp5bhhjsw4" width="300%" x="-1" y="-1"><feGaussianBlur result="blurOut" stdDeviation="2.0"/><feColorMatrix in="blurOut" result="blurOut2" type="matrix" values="0 0 0 0 0 0 0 0 0 0 0 0 0 0 0 0 0 0 .4 0"/><feOffset dx="4.0" dy="4.0" in="blurOut2" result="blurOut3"/><feBlend in="SourceGraphic" in2="blurOut3" mode="normal"/></filter></defs><g><!--entity DataReference--><rect fill="#90EE90" filter="url(#f10jsp5bhhjsw4)" height="37.6094" style="stroke: #000000; stroke-width: 1.5;" width="116" x="6" y="8"/><text fill="#000000" font-family="sans-serif" font-size="14" lengthAdjust="spacingAndGlyphs" textLength="96" x="16" y="32.5332">DataReference</text><!--entity Data--><rect fill="#90EE90" filter="url(#f10jsp5bhhjsw4)" height="37.6094" style="stroke: #000000; stroke-width: 1.5;" width="50" x="284" y="264"/><text fill="#000000" font-family="sans-serif" font-size="14" lengthAdjust="spacingAndGlyphs" textLength="30" x="294" y="288.5332">Data</text><!--entity DataRequest--><rect fill="#90EE90" filter="url(#f10jsp5bhhjsw4)" height="37.6094" style="stroke: #000000; stroke-width: 1.5;" width="103" x="157.5" y="8"/><text fill="#000000" font-family="sans-serif" font-size="14" lengthAdjust="spacingAndGlyphs" textLength="83" x="167.5" y="32.5332">DataRequest</text><!--entity LineageMetaData--><rect fill="#90EE90" filter="url(#f10jsp5bhhjsw4)" height="37.6094" style="stroke: #000000; stroke-width: 1.5;" width="132" x="296" y="8"/><text fill="#000000" font-family="sans-serif" font-size="14" lengthAdjust="spacingAndGlyphs" textLength="112" x="306" y="32.5332">LineageMetaData</text><!--entity ServiceInstance--><rect fill="#90EE90" filter="url(#f10jsp5bhhjsw4)" height="37.6094" style="stroke: #000000; stroke-width: 1.5;" width="120" x="463" y="8"/><text fill="#000000" font-family="sans-serif" font-size="14" lengthAdjust="spacingAndGlyphs" textLength="100" x="473" y="32.5332">ServiceInstance</text><!--entity StackInstance--><rect fill="#90EE90" filter="url(#f10jsp5bhhjsw4)" height="37.6094" style="stroke: #000000; stroke-width: 1.5;" width="108" x="618" y="8"/><text fill="#000000" font-family="sans-serif" font-size="14" lengthAdjust="spacingAndGlyphs" textLength="88" x="628" y="32.5332">StackInstance</text><!--class Model--><rect fill="#FEFECE" filter="url(#f10jsp5bhhjsw4)" height="61.8359" id="Model" style="stroke: #A80036; stroke-width: 1.5;" width="105" x="256.5" y="124"/><ellipse cx="271.5" cy="140" fill="#ADD1B2" rx="11" ry="11" style="stroke: #A80036; stroke-width: 1.0;"/><path d="M274.2656,135.875 Q274.4219,135.6563 274.6094,135.5469 Q274.7969,135.4375 275.0156,135.4375 Q275.3906,135.4375 275.625,135.7031 Q275.8594,135.9531 275.8594,136.5625 L275.8594,138.0156 Q275.8594,138.625 275.625,138.8906 Q275.3906,139.1563 275.0156,139.1563 Q274.6719,139.1563 274.4688,138.9531 Q274.2656,138.7656 274.1563,138.25 Q274.1094,137.8906 273.9219,137.7031 Q273.5938,137.3281 272.9844,137.1094 Q272.375,136.8906 271.75,136.8906 Q270.9844,136.8906 270.3438,137.2188 Q269.7188,137.5469 269.2188,138.2969 Q268.7344,139.0469 268.7344,140.0781 L268.7344,141.1719 Q268.7344,142.4063 269.625,143.2344 Q270.5156,144.0469 272.1094,144.0469 Q273.0469,144.0469 273.7031,143.7969 Q274.0938,143.6406 274.5156,143.2031 Q274.7813,142.9375 274.9219,142.8594 Q275.0781,142.7813 275.2813,142.7813 Q275.6094,142.7813 275.8594,143.0469 Q276.125,143.2969 276.125,143.6406 Q276.125,143.9844 275.7813,144.3906 Q275.2813,144.9688 274.4844,145.2969 Q273.4063,145.75 272.1094,145.75 Q270.5938,145.75 269.3906,145.125 Q268.4063,144.625 267.7188,143.5625 Q267.0313,142.4844 267.0313,141.2031 L267.0313,140.0469 Q267.0313,138.7188 267.6406,137.5781 Q268.2656,136.4219 269.3594,135.8125 Q270.4531,135.1875 271.6875,135.1875 Q272.4219,135.1875 273.0625,135.3594 Q273.7188,135.5156 274.2656,135.875 Z "/><text fill="#000000" font-family="sans-serif" font-size="12" lengthAdjust="spacingAndGlyphs" textLength="73" x="285.5" y="144.9102">DataInstance</text><line style="stroke: #A80036; stroke-width: 1.5;" x1="257.5" x2="360.5" y1="156" y2="156"/><text fill="#000000" font-family="sans-serif" font-size="11" lengthAdjust="spacingAndGlyphs" textLength="56" x="262.5" y="171.4189">string name</text><line style="stroke: #A80036; stroke-width: 1.5;" x1="257.5" x2="360.5" y1="177.8359" y2="177.8359"/><!--link Model to DataReference--><path d="M244.244,123.401 C225.075,114.145 204.107,103.826 185,94 C159.087,80.674 130.448,65.092 107.54,52.415 " fill="none" id="Model-DataReference" style="stroke: #A80036; stroke-width: 1.0;"/><polygon fill="#A80036" points="96.1271,46.078,102.0541,53.9438,100.4986,48.505,105.9373,46.9494,96.1271,46.078" style="stroke: #A80036; stroke-width: 1.0;"/><line style="stroke: #A80036; stroke-width: 1.0;" x1="100.4986" x2="107.4924" y1="48.505" y2="52.389"/><polygon fill="#FFFFFF" points="256.228,129.162,252.5538,122.9571,245.4131,123.9622,249.0873,130.1671,256.228,129.162" style="stroke: #A80036; stroke-width: 1.0;"/><text fill="#000000" font-family="sans-serif" font-size="13" lengthAdjust="spacingAndGlyphs" textLength="53" x="186" y="90.4951">reference</text><text fill="#000000" font-family="sans-serif" font-size="13" lengthAdjust="spacingAndGlyphs" textLength="7" x="96.8206" y="66.9501">1</text><!--link DataReference to Model--><path d="M67.8591,58.969 C70.896,71.381 76.319,84.873 86,94 C128.221,133.804 193.979,147.779 243.165,152.407 " fill="none" id="DataReference-Model" style="stroke: #A80036; stroke-width: 1.0;"/><polygon fill="#A80036" points="256.245,153.457,247.5939,148.7498,251.261,153.057,246.9538,156.7241,256.245,153.457" style="stroke: #A80036; stroke-width: 1.0;"/><line style="stroke: #A80036; stroke-width: 1.0;" x1="251.261" x2="243.287" y1="153.057" y2="152.417"/><polygon fill="#A80036" points="65.4116,46.184,62.6111,52.8291,67.6679,57.97,70.4684,51.3249,65.4116,46.184" style="stroke: #A80036; stroke-width: 1.0;"/><text fill="#000000" font-family="sans-serif" font-size="13" lengthAdjust="spacingAndGlyphs" textLength="56" x="87" y="90.4951">instances</text><text fill="#000000" font-family="sans-serif" font-size="13" lengthAdjust="spacingAndGlyphs" textLength="7" x="241.3341" y="149.6464">n</text><!--link Model to Data--><path d="M276.971,197.672 C271.635,209.2294 268.975,221.9236 273,234 C275.208,240.6241 278.728,247.0702 282.721,252.9773 " fill="none" id="Model-Data" style="stroke: #A80036; stroke-width: 1.0;"/><polygon fill="#A80036" points="290.764,263.5778,288.511,253.9901,287.742,259.5944,282.1376,258.8254,290.764,263.5778" style="stroke: #A80036; stroke-width: 1.0;"/><line style="stroke: #A80036; stroke-width: 1.0;" x1="287.742" x2="282.906" y1="259.5944" y2="253.2212"/><polygon fill="#FFFFFF" points="283.331,186.113,276.9339,189.4411,277.5455,196.6263,283.9427,193.2981,283.331,186.113" style="stroke: #A80036; stroke-width: 1.0;"/><text fill="#000000" font-family="sans-serif" font-size="13" lengthAdjust="spacingAndGlyphs" textLength="25" x="274" y="230.4951">data</text><text fill="#000000" font-family="sans-serif" font-size="13" lengthAdjust="spacingAndGlyphs" textLength="7" x="277.3791" y="253.1267">n</text><!--link Data to Model--><path d="M309,250.6534 C309,235.1503 309,216.1922 309,199.325 " fill="none" id="Data-Model" style="stroke: #A80036; stroke-width: 1.0;"/><polygon fill="#A80036" points="309,186.18,305,195.18,309,191.18,313,195.18,309,186.18" style="stroke: #A80036; stroke-width: 1.0;"/><line style="stroke: #A80036; stroke-width: 1.0;" x1="309" x2="309" y1="191.18" y2="199.18"/><polygon fill="#FFFFFF" points="309,263.7606,313,257.7606,309,251.7606,305,257.7606,309,263.7606" style="stroke: #A80036; stroke-width: 1.0;"/><text fill="#000000" font-family="sans-serif" font-size="13" lengthAdjust="spacingAndGlyphs" textLength="56" x="310" y="230.4951">instances</text><text fill="#000000" font-family="sans-serif" font-size="13" lengthAdjust="spacingAndGlyphs" textLength="7" x="301.3109" y="207.4394">n</text><!--link DataRequest to Model--><path d="M231.559,56.424 C244.94,73.284 262.119,94.93 276.897,113.55 " fill="none" id="DataRequest-Model" style="stroke: #A80036; stroke-width: 1.0;"/><polygon fill="#A80036" points="285.046,123.817,282.5844,114.2807,281.9378,119.9005,276.318,119.2539,285.046,123.817" style="stroke: #A80036; stroke-width: 1.0;"/><line style="stroke: #A80036; stroke-width: 1.0;" x1="281.9378" x2="276.964" y1="119.9005" y2="113.6345"/><polygon fill="#FFFFFF" points="223.328,46.053,223.9247,53.2394,230.7878,55.4526,230.1911,48.2662,223.328,46.053" style="stroke: #A80036; stroke-width: 1.0;"/><text fill="#000000" font-family="sans-serif" font-size="13" lengthAdjust="spacingAndGlyphs" textLength="56" x="260" y="90.4951">instances</text><text fill="#000000" font-family="sans-serif" font-size="13" lengthAdjust="spacingAndGlyphs" textLength="7" x="272.3836" y="113.2838">n</text><!--link LineageMetaData to Model--><path d="M349.334,58.112 C342.574,74.182 334.146,94.22 326.744,111.817 " fill="none" id="LineageMetaData-Model" style="stroke: #A80036; stroke-width: 1.0;"/><polygon fill="#A80036" points="321.696,123.817,328.8725,117.0718,323.6345,119.2081,321.4982,113.9701,321.696,123.817" style="stroke: #A80036; stroke-width: 1.0;"/><line style="stroke: #A80036; stroke-width: 1.0;" x1="323.6345" x2="326.736" y1="119.2081" y2="111.834"/><polygon fill="#FFFFFF" points="354.406,46.053,348.3926,50.0329,349.7536,57.1144,355.7669,53.1345,354.406,46.053" style="stroke: #A80036; stroke-width: 1.0;"/><text fill="#000000" font-family="sans-serif" font-size="13" lengthAdjust="spacingAndGlyphs" textLength="43" x="343" y="90.4951">parents</text><text fill="#000000" font-family="sans-serif" font-size="13" lengthAdjust="spacingAndGlyphs" textLength="7" x="316.5927" y="113.2838">n</text><!--link ServiceInstance to Model--><path d="M480.751,52.876 C449.673,71.174 406.914,96.35 371.836,117.003 " fill="none" id="ServiceInstance-Model" style="stroke: #A80036; stroke-width: 1.0;"/><polygon fill="#A80036" points="360.263,123.817,370.0479,122.6963,364.5713,121.2796,365.988,115.803,360.263,123.817" style="stroke: #A80036; stroke-width: 1.0;"/><line style="stroke: #A80036; stroke-width: 1.0;" x1="364.5713" x2="371.465" y1="121.2796" y2="117.2215"/><polygon fill="#FFFFFF" points="492.339,46.053,485.1391,45.6506,481.9985,52.1418,489.1983,52.5442,492.339,46.053" style="stroke: #A80036; stroke-width: 1.0;"/><text fill="#000000" font-family="sans-serif" font-size="13" lengthAdjust="spacingAndGlyphs" textLength="25" x="443" y="90.4951">data</text><text fill="#000000" font-family="sans-serif" font-size="13" lengthAdjust="spacingAndGlyphs" textLength="7" x="363.1141" y="113.2838">n</text><!--link StackInstance to Model--><path d="M607.383,50.429 C541.47,73.308 439.769,108.609 373.793,131.51 " fill="none" id="StackInstance-Model" style="stroke: #A80036; stroke-width: 1.0;"/><polygon fill="#A80036" points="361.502,135.776,371.316,136.6037,366.2256,134.1365,368.6928,129.046,361.502,135.776" style="stroke: #A80036; stroke-width: 1.0;"/><line style="stroke: #A80036; stroke-width: 1.0;" x1="366.2256" x2="373.783" y1="134.1365" y2="131.5135"/><polygon fill="#FFFFFF" points="619.991,46.053,613.0111,44.2416,608.6545,49.9879,615.6344,51.7993,619.991,46.053" style="stroke: #A80036; stroke-width: 1.0;"/><text fill="#000000" font-family="sans-serif" font-size="13" lengthAdjust="spacingAndGlyphs" textLength="25" x="535" y="90.4951">data</text><text fill="#000000" font-family="sans-serif" font-size="13" lengthAdjust="spacingAndGlyphs" textLength="7" x="369.3773" y="129.479">n</text><!--
@startuml

class "DataInstance" as Model {
 string name

 
}

rectangle "DataReference" as DataReference #lightblue {
}

Model o- -> "1" DataReference : reference


rectangle "Data" as Data #lightblue {
}

Model o- -> "n" Data : data




    rectangle "DataRequest" as DataRequest #lightgreen {
    }
    
        DataRequest   o- -> "n" Model : "instances"
    
    rectangle "LineageMetaData" as LineageMetaData #lightgreen {
    }
    
        LineageMetaData   o- -> "n" Model : "parents"
    
    rectangle "Data" as Data #lightgreen {
    }
    
        Data   o- -> "n" Model : "instances"
    
    rectangle "DataReference" as DataReference #lightgreen {
    }
    
        DataReference   *- -> "n" Model : "instances"
    
    rectangle "ServiceInstance" as ServiceInstance #lightgreen {
    }
    
        ServiceInstance   o- -> "n" Model : "data"
    
    rectangle "StackInstance" as StackInstance #lightgreen {
    }
    
        StackInstance   o- -> "n" Model : "data"
    

@enduml

PlantUML version 1.2019.05(Sat Apr 20 09:45:36 PDT 2019)
(GPL source distribution)
Java Runtime: OpenJDK Runtime Environment
JVM: OpenJDK 64-Bit Server VM
Java Version: 12.0.1+12
Operating System: Windows 10
OS Version: 10.0
Default Encoding: Cp1252
Language: en
Country: US
--></g></svg>