<?xml version="1.0" encoding="UTF-8" standalone="no"?><svg xmlns="http://www.w3.org/2000/svg" xmlns:xlink="http://www.w3.org/1999/xlink" contentScriptType="application/ecmascript" contentStyleType="text/css" height="615px" preserveAspectRatio="none" style="width:1134px;height:615px;" version="1.1" viewBox="0 0 1134 615" width="1134px" zoomAndPan="magnify"><defs><filter height="300%" id="f1o6frotbmgekd" width="300%" x="-1" y="-1"><feGaussianBlur result="blurOut" stdDeviation="2.0"/><feColorMatrix in="blurOut" result="blurOut2" type="matrix" values="0 0 0 0 0 0 0 0 0 0 0 0 0 0 0 0 0 0 .4 0"/><feOffset dx="4.0" dy="4.0" in="blurOut2" result="blurOut3"/><feBlend in="SourceGraphic" in2="blurOut3" mode="normal"/></filter></defs><g><!--cluster sml_scStack--><rect fill="#90EE90" filter="url(#f1o6frotbmgekd)" height="115" style="stroke: #000000; stroke-width: 1.5;" width="114" x="1009" y="148"/><text fill="#000000" font-family="sans-serif" font-size="14" font-weight="bold" lengthAdjust="spacingAndGlyphs" textLength="48" x="1042" y="164.5332">sml_sc</text><!--cluster cpl_da--><polygon fill="#D3D3D3" filter="url(#f1o6frotbmgekd)" points="116,24,168,24,175,47.6094,977,47.6094,977,539,116,539,116,24" style="stroke: #000000; stroke-width: 1.5;"/><line style="stroke: #000000; stroke-width: 1.5;" x1="116" x2="175" y1="47.6094" y2="47.6094"/><text fill="#000000" font-family="sans-serif" font-size="14" font-weight="bold" lengthAdjust="spacingAndGlyphs" textLength="46" x="120" y="40.5332">cpl_da</text><!--entity sml_scStacksnet--><path d="M1038,192 L1094,192 C1099,192 1099,205.8047 1099,205.8047 C1099,205.8047 1099,219.6094 1094,219.6094 L1038,219.6094 C1033,219.6094 1033,205.8047 1033,205.8047 C1033,205.8047 1033,192 1038,192 " fill="#000000" filter="url(#f1o6frotbmgekd)" style="stroke: #A80036; stroke-width: 1.5;"/><path d="M1094,192 C1089,192 1089,205.8047 1089,205.8047 C1089,219.6094 1094,219.6094 1094,219.6094 " fill="none" style="stroke: #A80036; stroke-width: 1.5;"/><text fill="#FFFFFF" font-family="sans-serif" font-size="14" font-weight="bold" lengthAdjust="spacingAndGlyphs" textLength="46" x="1038" y="211.5332">parent</text><!--entity childrennet--><path d="M360,193 L428,193 C433,193 433,206.8047 433,206.8047 C433,206.8047 433,220.6094 428,220.6094 L360,220.6094 C355,220.6094 355,206.8047 355,206.8047 C355,206.8047 355,193 360,193 " fill="#000000" filter="url(#f1o6frotbmgekd)" style="stroke: #A80036; stroke-width: 1.5;"/><path d="M428,193 C423,193 423,206.8047 423,206.8047 C423,220.6094 428,220.6094 428,220.6094 " fill="none" style="stroke: #A80036; stroke-width: 1.5;"/><text fill="#FFFFFF" font-family="sans-serif" font-size="14" font-weight="bold" lengthAdjust="spacingAndGlyphs" textLength="58" x="360" y="212.5332">children</text><!--entity siblingnet--><path d="M365.5,365 L422.5,365 C427.5,365 427.5,378.8047 427.5,378.8047 C427.5,378.8047 427.5,392.6094 422.5,392.6094 L365.5,392.6094 C360.5,392.6094 360.5,378.8047 360.5,378.8047 C360.5,378.8047 360.5,365 365.5,365 " fill="#0000FF" filter="url(#f1o6frotbmgekd)" style="stroke: #A80036; stroke-width: 1.5;"/><path d="M422.5,365 C417.5,365 417.5,378.8047 417.5,378.8047 C417.5,392.6094 422.5,392.6094 422.5,392.6094 " fill="none" style="stroke: #A80036; stroke-width: 1.5;"/><text fill="#FFFFFF" font-family="sans-serif" font-size="14" font-weight="bold" lengthAdjust="spacingAndGlyphs" textLength="47" x="365.5" y="384.5332">sibling</text><!--entity datacontrollerService--><polygon fill="#FEFECE" filter="url(#f1o6frotbmgekd)" points="150,70,160,60,277,60,277,97.6094,267,107.6094,150,107.6094,150,70" style="stroke: #000000; stroke-width: 1.5;"/><line style="stroke: #000000; stroke-width: 1.5;" x1="267" x2="276" y1="70" y2="61"/><line style="stroke: #000000; stroke-width: 1.5;" x1="150" x2="267" y1="70" y2="70"/><line style="stroke: #000000; stroke-width: 1.5;" x1="267" x2="267" y1="70" y2="107.6094"/><text fill="#000000" font-family="sans-serif" font-size="14" lengthAdjust="spacingAndGlyphs" textLength="87" x="165" y="94.5332">datacontroller</text><!--entity policyengineService--><polygon fill="#FEFECE" filter="url(#f1o6frotbmgekd)" points="154,153,164,143,273,143,273,180.6094,263,190.6094,154,190.6094,154,153" style="stroke: #000000; stroke-width: 1.5;"/><line style="stroke: #000000; stroke-width: 1.5;" x1="263" x2="272" y1="153" y2="144"/><line style="stroke: #000000; stroke-width: 1.5;" x1="154" x2="263" y1="153" y2="153"/><line style="stroke: #000000; stroke-width: 1.5;" x1="263" x2="263" y1="153" y2="190.6094"/><text fill="#000000" font-family="sans-serif" font-size="14" lengthAdjust="spacingAndGlyphs" textLength="79" x="169" y="177.5332">policyengine</text><!--entity servicecontrollerService--><polygon fill="#FEFECE" filter="url(#f1o6frotbmgekd)" points="141.5,236,151.5,226,285.5,226,285.5,263.6094,275.5,273.6094,141.5,273.6094,141.5,236" style="stroke: #000000; stroke-width: 1.5;"/><line style="stroke: #000000; stroke-width: 1.5;" x1="275.5" x2="284.5" y1="236" y2="227"/><line style="stroke: #000000; stroke-width: 1.5;" x1="141.5" x2="275.5" y1="236" y2="236"/><line style="stroke: #000000; stroke-width: 1.5;" x1="275.5" x2="275.5" y1="236" y2="273.6094"/><text fill="#000000" font-family="sans-serif" font-size="14" lengthAdjust="spacingAndGlyphs" textLength="104" x="156.5" y="260.5332">servicecontroller</text><!--entity telemetry_producerService--><polygon fill="#FEFECE" filter="url(#f1o6frotbmgekd)" points="132,319,142,309,295,309,295,346.6094,285,356.6094,132,356.6094,132,319" style="stroke: #000000; stroke-width: 1.5;"/><line style="stroke: #000000; stroke-width: 1.5;" x1="285" x2="294" y1="319" y2="310"/><line style="stroke: #000000; stroke-width: 1.5;" x1="132" x2="285" y1="319" y2="319"/><line style="stroke: #000000; stroke-width: 1.5;" x1="285" x2="285" y1="319" y2="356.6094"/><text fill="#000000" font-family="sans-serif" font-size="14" lengthAdjust="spacingAndGlyphs" textLength="123" x="147" y="343.5332">telemetry_producer</text><!--entity portalService--><polygon fill="#FEFECE" filter="url(#f1o6frotbmgekd)" points="175.5,402,185.5,392,251.5,392,251.5,429.6094,241.5,439.6094,175.5,439.6094,175.5,402" style="stroke: #000000; stroke-width: 1.5;"/><line style="stroke: #000000; stroke-width: 1.5;" x1="241.5" x2="250.5" y1="402" y2="393"/><line style="stroke: #000000; stroke-width: 1.5;" x1="175.5" x2="241.5" y1="402" y2="402"/><line style="stroke: #000000; stroke-width: 1.5;" x1="241.5" x2="241.5" y1="402" y2="439.6094"/><text fill="#000000" font-family="sans-serif" font-size="14" lengthAdjust="spacingAndGlyphs" textLength="36" x="190.5" y="426.5332">portal</text><!--entity diml_dml_dc_controllerlatestimage--><rect fill="#FEFECE" filter="url(#f1o6frotbmgekd)" height="40.6094" style="stroke: #000000; stroke-width: 1.5;" width="213" x="748" y="61.5"/><polygon fill="#FEFECE" points="944,66.5,944,80.5,956,80.5,956,72.5,950,66.5,944,66.5" style="stroke: #000000; stroke-width: 1.5;"/><line style="stroke: #000000; stroke-width: 1.5;" x1="950" x2="950" y1="66.5" y2="72.5"/><line style="stroke: #000000; stroke-width: 1.5;" x1="956" x2="950" y1="72.5" y2="72.5"/><text fill="#000000" font-family="sans-serif" font-size="14" lengthAdjust="spacingAndGlyphs" textLength="183" x="758" y="89.0332">diml_dml_dc_controller:latest</text><!--entity sa_pe_enginelatestimage--><rect fill="#FEFECE" filter="url(#f1o6frotbmgekd)" height="40.6094" style="stroke: #000000; stroke-width: 1.5;" width="158" x="775.5" y="137.5"/><polygon fill="#FEFECE" points="916.5,142.5,916.5,156.5,928.5,156.5,928.5,148.5,922.5,142.5,916.5,142.5" style="stroke: #000000; stroke-width: 1.5;"/><line style="stroke: #000000; stroke-width: 1.5;" x1="922.5" x2="922.5" y1="142.5" y2="148.5"/><line style="stroke: #000000; stroke-width: 1.5;" x1="928.5" x2="922.5" y1="148.5" y2="148.5"/><text fill="#000000" font-family="sans-serif" font-size="14" lengthAdjust="spacingAndGlyphs" textLength="128" x="785.5" y="165.0332">sa_pe_engine:latest</text><!--entity sml_sclatestimage--><rect fill="#FEFECE" filter="url(#f1o6frotbmgekd)" height="33.6094" style="stroke: #000000; stroke-width: 1.5;" width="97" x="808" y="240"/><rect fill="#FEFECE" height="33.6094" style="stroke: #000000; stroke-width: 1.5;" width="97" x="804" y="236"/><text fill="#000000" font-family="sans-serif" font-size="14" lengthAdjust="spacingAndGlyphs" textLength="81" x="812" y="258.5332">sml_sc:latest</text><!--entity cpl_tp_producerlatestimage--><rect fill="#FEFECE" filter="url(#f1o6frotbmgekd)" height="40.6094" style="stroke: #000000; stroke-width: 1.5;" width="171" x="769" y="309.5"/><polygon fill="#FEFECE" points="923,314.5,923,328.5,935,328.5,935,320.5,929,314.5,923,314.5" style="stroke: #000000; stroke-width: 1.5;"/><line style="stroke: #000000; stroke-width: 1.5;" x1="929" x2="929" y1="314.5" y2="320.5"/><line style="stroke: #000000; stroke-width: 1.5;" x1="935" x2="929" y1="320.5" y2="320.5"/><text fill="#000000" font-family="sans-serif" font-size="14" lengthAdjust="spacingAndGlyphs" textLength="141" x="779" y="337.0332">cpl_tp_producer:latest</text><!--entity cpl_da_webimage--><rect fill="#FEFECE" filter="url(#f1o6frotbmgekd)" height="40.6094" style="stroke: #000000; stroke-width: 1.5;" width="105" x="802" y="403.5"/><polygon fill="#FEFECE" points="890,408.5,890,422.5,902,422.5,902,414.5,896,408.5,890,408.5" style="stroke: #000000; stroke-width: 1.5;"/><line style="stroke: #000000; stroke-width: 1.5;" x1="896" x2="896" y1="408.5" y2="414.5"/><line style="stroke: #000000; stroke-width: 1.5;" x1="902" x2="896" y1="414.5" y2="414.5"/><text fill="#000000" font-family="sans-serif" font-size="14" lengthAdjust="spacingAndGlyphs" textLength="75" x="812" y="431.0332">cpl_da_web</text><!--entity traefiklatestimage--><rect fill="#FEFECE" filter="url(#f1o6frotbmgekd)" height="40.6094" style="stroke: #000000; stroke-width: 1.5;" width="107" x="801" y="479.5"/><polygon fill="#FEFECE" points="891,484.5,891,498.5,903,498.5,903,490.5,897,484.5,891,484.5" style="stroke: #000000; stroke-width: 1.5;"/><line style="stroke: #000000; stroke-width: 1.5;" x1="897" x2="897" y1="484.5" y2="490.5"/><line style="stroke: #000000; stroke-width: 1.5;" x1="903" x2="897" y1="490.5" y2="490.5"/><text fill="#000000" font-family="sans-serif" font-size="14" lengthAdjust="spacingAndGlyphs" textLength="77" x="811" y="507.0332">traefik:latest</text><!--entity frontendService--><polygon fill="#FFFFFF" filter="url(#f1o6frotbmgekd)" points="167,485,177,475,260,475,260,512.6094,250,522.6094,167,522.6094,167,485" style="stroke: #000000; stroke-width: 1.5;"/><line style="stroke: #000000; stroke-width: 1.5;" x1="250" x2="259" y1="485" y2="476"/><line style="stroke: #000000; stroke-width: 1.5;" x1="167" x2="250" y1="485" y2="485"/><line style="stroke: #000000; stroke-width: 1.5;" x1="250" x2="250" y1="485" y2="522.6094"/><text fill="#000000" font-family="sans-serif" font-size="14" lengthAdjust="spacingAndGlyphs" textLength="53" x="182" y="509.5332">frontend</text><!--entity ailtire_appname_cpl_da_family--><ellipse cx="590.5" cy="571" fill="#000000" filter="url(#f1o6frotbmgekd)" rx="12" ry="12" style="stroke: #A80036; stroke-width: 2.0;"/><line style="stroke: #A80036; stroke-width: 2.0;" x1="578.5" x2="602.5" y1="585" y2="585"/><text fill="#000000" font-family="sans-serif" font-size="14" lengthAdjust="spacingAndGlyphs" textLength="195" x="493" y="601.5332">ailtire_appname_cpl_da_family</text><!--entity external--><ellipse cx="39" cy="499" fill="#FEFECE" filter="url(#f1o6frotbmgekd)" rx="8" ry="8" style="stroke: #A80036; stroke-width: 2.0;"/><text fill="#000000" font-family="sans-serif" font-size="14" lengthAdjust="spacingAndGlyphs" textLength="50" x="14" y="530.5332">external</text><!--link childrennet to ailtire_appname_cpl_da_family--><path d="M398.797,221.088 C415.467,282.764 481.828,526.4667 493,539 C498.451,545.1147 504.967,550.3465 512.005,554.817 " fill="none" id="childrennet-ailtire_appname_cpl_da_family" style="stroke: #000000; stroke-width: 1.0;"/><!--link external to frontendService--><path d="M48.32,499 C69.3849,499 126.052,499 166.92,499 " fill="none" id="external-frontendService" style="stroke: #000000; stroke-width: 1.0;"/><!--link datacontrollerService to childrennet--><path d="M266.155,108.12 C275.961,113.306 285.971,119.034 295,125 C326.65,145.913 359.743,175.475 378.23,192.8 " fill="none" id="datacontrollerService-childrennet" style="stroke: #000000; stroke-width: 1.0;"/><!--link policyengineService to childrennet--><path d="M273.442,180.208 C300.251,186.216 331.2,193.151 354.892,198.46 " fill="none" id="policyengineService-childrennet" style="stroke: #000000; stroke-width: 1.0;"/><!--link servicecontrollerService to childrennet--><path d="M285.561,232.882 C309.089,227.214 334.378,221.122 354.507,216.273 " fill="none" id="servicecontrollerService-childrennet" style="stroke: #000000; stroke-width: 1.0;"/><!--link telemetry_producerService to siblingnet--><path d="M295.133,353.779 C318.231,359.732 342.105,365.884 360.491,370.622 " fill="none" id="telemetry_producerService-siblingnet" style="stroke: #0000FF; stroke-width: 1.0;"/><!--link portalService to siblingnet--><path d="M251.919,408.244 C284.02,401.59 329.809,392.098 360.424,385.752 " fill="none" id="portalService-siblingnet" style="stroke: #0000FF; stroke-width: 1.0;"/><!--link datacontrollerService to diml_dml_dc_controllerlatestimage--><path d="M277.226,83.804 C386.734,83.461 613.88,82.75 747.971,82.33 " fill="none" id="datacontrollerService-diml_dml_dc_controllerlatestimage" style="stroke: #A80036; stroke-width: 1.0; stroke-dasharray: 7.0,7.0;"/><!--link policyengineService to sa_pe_enginelatestimage--><path d="M273.185,166.173 C388.73,164.546 645.721,160.926 775.42,159.1 " fill="none" id="policyengineService-sa_pe_enginelatestimage" style="stroke: #A80036; stroke-width: 1.0; stroke-dasharray: 7.0,7.0;"/><!--link servicecontrollerService to sml_sclatestimage--><path d="M285.633,250.557 C416.245,251.579 691.213,253.73 803.817,254.611 " fill="none" id="servicecontrollerService-sml_sclatestimage" style="stroke: #A80036; stroke-width: 1.0; stroke-dasharray: 7.0,7.0;"/><!--link telemetry_producerService to cpl_tp_producerlatestimage--><path d="M295.106,332.622 C416.479,332.052 645.094,330.978 768.818,330.398 " fill="none" id="telemetry_producerService-cpl_tp_producerlatestimage" style="stroke: #A80036; stroke-width: 1.0; stroke-dasharray: 7.0,7.0;"/><!--link portalService to cpl_da_webimage--><path d="M251.617,416.465 C360.027,417.822 676.413,421.783 801.62,423.35 " fill="none" id="portalService-cpl_da_webimage" style="stroke: #A80036; stroke-width: 1.0; stroke-dasharray: 7.0,7.0;"/><!--link frontendService to traefiklatestimage--><path d="M260.199,499.072 C375.6,499.252 678.285,499.726 800.845,499.918 " fill="none" id="frontendService-traefiklatestimage" style="stroke: #A80036; stroke-width: 1.0; stroke-dasharray: 7.0,7.0;"/><!--link sml_sclatestimage to sml_scStack--><path d="M905.149,255 C935.641,255 974.8413,255 1006.791,255 C1007.2902,255 1007.7877,255 1008.2833,255 " fill="none" id="sml_sclatestimage-sml_scStack" style="stroke: #A80036; stroke-width: 1.0;"/><polygon fill="#A80036" points="1008.2833,255,999.2833,251,1003.2833,255,999.2833,259,1008.2833,255" style="stroke: #A80036; stroke-width: 1.0;"/><!--
@startuml

left to right direction




entity ailtire_appname_cpl_da_family #black

rectangle "sml_sc" as sml_scStack #lightgreen {
    queue sml_scStacksnet #black [
        <b><color:white>parent</color></b>
    ]
}



package "cpl_da" #lightgray {
    queue childrennet #black [
            <b><color:white>children</color></b>
    ]
    
    childrennet -[#black]- ailtire_appname_cpl_da_family
    
    queue siblingnet #blue [
            <b><color:white>sibling</color></b>
    ]
    


node "frontend" as frontendService {
    
}
node "datacontroller" as datacontrollerService
node "policyengine" as policyengineService
node "servicecontroller" as servicecontrollerService
node "telemetry_producer" as telemetry_producerService
node "portal" as portalService


        artifact "diml_dml_dc_controller:latest" as diml_dml_dc_controllerlatestimage
    
        artifact "sa_pe_engine:latest" as sa_pe_enginelatestimage
            collections "sml_sc:latest" as sml_sclatestimage
    
        artifact "cpl_tp_producer:latest" as cpl_tp_producerlatestimage
    
        artifact "cpl_da_web" as cpl_da_webimage
    
        artifact "traefik:latest" as traefiklatestimage
    
}

external -[#black]- frontendService

datacontrollerService -[#black]- childrennet

policyengineService -[#black]- childrennet

servicecontrollerService -[#black]- childrennet

telemetry_producerService -[#blue]- siblingnet

portalService -[#blue]- siblingnet
datacontrollerService .... diml_dml_dc_controllerlatestimage
policyengineService .... sa_pe_enginelatestimage
servicecontrollerService .... sml_sclatestimage
telemetry_producerService .... cpl_tp_producerlatestimage
portalService .... cpl_da_webimage

frontendService .... traefiklatestimage

sml_sclatestimage - -> sml_scStack
    

@enduml

PlantUML version 1.2019.05(Sat Apr 20 09:45:36 PDT 2019)
(GPL source distribution)
Java Runtime: OpenJDK Runtime Environment
JVM: OpenJDK 64-Bit Server VM
Java Version: 12.0.1+12
Operating System: Windows 10
OS Version: 10.0
Default Encoding: Cp1252
Language: en
Country: US
--></g></svg>