<?xml version="1.0" encoding="UTF-8" standalone="no"?><svg xmlns="http://www.w3.org/2000/svg" xmlns:xlink="http://www.w3.org/1999/xlink" contentScriptType="application/ecmascript" contentStyleType="text/css" height="685px" preserveAspectRatio="none" style="width:472px;height:685px;" version="1.1" viewBox="0 0 472 685" width="472px" zoomAndPan="magnify"><defs><filter height="300%" id="fuzmx0azo980n" width="300%" x="-1" y="-1"><feGaussianBlur result="blurOut" stdDeviation="2.0"/><feColorMatrix in="blurOut" result="blurOut2" type="matrix" values="0 0 0 0 0 0 0 0 0 0 0 0 0 0 0 0 0 0 .4 0"/><feOffset dx="4.0" dy="4.0" in="blurOut2" result="blurOut3"/><feBlend in="SourceGraphic" in2="blurOut3" mode="normal"/></filter></defs><g><!--cluster Device Agent--><polygon fill="#D3D3D3" filter="url(#fuzmx0azo980n)" points="45.5,84,145.5,84,152.5,107.6094,450.5,107.6094,450.5,673,45.5,673,45.5,84" style="stroke: #000000; stroke-width: 1.5;"/><line style="stroke: #000000; stroke-width: 1.5;" x1="45.5" x2="152.5" y1="107.6094" y2="107.6094"/><text fill="#000000" font-family="sans-serif" font-size="14" font-weight="bold" lengthAdjust="spacingAndGlyphs" textLength="94" x="49.5" y="100.5332">Device Agent</text><!--cluster bin--><polygon fill="#FFFFFF" filter="url(#fuzmx0azo980n)" points="81.5,128,109.5,128,116.5,151.6094,239.5,151.6094,239.5,218,81.5,218,81.5,128" style="stroke: #000000; stroke-width: 1.5;"/><line style="stroke: #000000; stroke-width: 1.5;" x1="81.5" x2="116.5" y1="151.6094" y2="151.6094"/><text fill="#000000" font-family="sans-serif" font-size="14" font-weight="bold" lengthAdjust="spacingAndGlyphs" textLength="22" x="85.5" y="144.5332">bin</text><!--cluster deploy--><polygon fill="#FFFFFF" filter="url(#fuzmx0azo980n)" points="69.5,324,122.5,324,129.5,347.6094,426.5,347.6094,426.5,431,69.5,431,69.5,324" style="stroke: #000000; stroke-width: 1.5;"/><line style="stroke: #000000; stroke-width: 1.5;" x1="69.5" x2="129.5" y1="347.6094" y2="347.6094"/><text fill="#000000" font-family="sans-serif" font-size="14" font-weight="bold" lengthAdjust="spacingAndGlyphs" textLength="47" x="73.5" y="340.5332">deploy</text><!--cluster images--><polygon fill="#FFFFFF" filter="url(#fuzmx0azo980n)" points="143.5,455,199.5,455,206.5,478.6094,378.5,478.6094,378.5,649,143.5,649,143.5,455" style="stroke: #000000; stroke-width: 1.5;"/><line style="stroke: #000000; stroke-width: 1.5;" x1="143.5" x2="206.5" y1="478.6094" y2="478.6094"/><text fill="#000000" font-family="sans-serif" font-size="14" font-weight="bold" lengthAdjust="spacingAndGlyphs" textLength="50" x="147.5" y="471.5332">images</text><!--entity REST--><rect fill="#FEFECE" filter="url(#fuzmx0azo980n)" height="37.6094" style="stroke: #A80036; stroke-width: 1.5;" width="69" x="126" y="262"/><rect fill="#FEFECE" height="5" style="stroke: #A80036; stroke-width: 1.5;" width="10" x="121" y="267"/><rect fill="#FEFECE" height="5" style="stroke: #A80036; stroke-width: 1.5;" width="10" x="121" y="289.6094"/><text fill="#000000" font-family="sans-serif" font-size="14" lengthAdjust="spacingAndGlyphs" textLength="49" x="136" y="286.5332">express</text><!--entity socket--><rect fill="#FEFECE" filter="url(#fuzmx0azo980n)" height="37.6094" style="stroke: #A80036; stroke-width: 1.5;" width="76" x="302.5" y="164"/><rect fill="#FEFECE" height="5" style="stroke: #A80036; stroke-width: 1.5;" width="10" x="297.5" y="169"/><rect fill="#FEFECE" height="5" style="stroke: #A80036; stroke-width: 1.5;" width="10" x="297.5" y="191.6094"/><text fill="#000000" font-family="sans-serif" font-size="14" lengthAdjust="spacingAndGlyphs" textLength="56" x="312.5" y="188.5332">socket.io</text><!--entity binName--><rect fill="#FEFECE" filter="url(#fuzmx0azo980n)" height="37.6094" style="stroke: #A80036; stroke-width: 1.5;" width="126" x="97.5" y="164"/><rect fill="#FEFECE" height="5" style="stroke: #A80036; stroke-width: 1.5;" width="10" x="92.5" y="169"/><rect fill="#FEFECE" height="5" style="stroke: #A80036; stroke-width: 1.5;" width="10" x="92.5" y="191.6094"/><text fill="#000000" font-family="sans-serif" font-size="14" lengthAdjust="spacingAndGlyphs" textLength="106" x="107.5" y="188.5332">edgemere cpl da</text><!--entity cpl_da_container--><polygon fill="#FEFECE" filter="url(#fuzmx0azo980n)" points="85.5,360,85.5,415.2188,235.5,415.2188,235.5,370,225.5,360,85.5,360" style="stroke: #000000; stroke-width: 1.5;"/><path d="M225.5,360 L225.5,370 L235.5,370 " fill="#FEFECE" style="stroke: #000000; stroke-width: 1.5;"/><text fill="#000000" font-family="sans-serif" font-size="14" lengthAdjust="spacingAndGlyphs" textLength="90" x="95.5" y="384.5332">node server.js</text><text fill="#000000" font-family="sans-serif" font-size="14" lengthAdjust="spacingAndGlyphs" textLength="130" x="95.5" y="402.1426">docker-compose.yml</text><!--entity web_container--><polygon fill="#FEFECE" filter="url(#fuzmx0azo980n)" points="271,368.5,271,406.1094,410,406.1094,410,378.5,400,368.5,271,368.5" style="stroke: #000000; stroke-width: 1.5;"/><path d="M400,368.5 L400,378.5 L410,378.5 " fill="#FEFECE" style="stroke: #000000; stroke-width: 1.5;"/><text fill="#000000" font-family="sans-serif" font-size="14" lengthAdjust="spacingAndGlyphs" textLength="119" x="281" y="393.0332">node web/server.js</text><!--entity cpl_daimage--><rect fill="#FEFECE" filter="url(#fuzmx0azo980n)" height="33.6094" style="stroke: #000000; stroke-width: 1.5;" width="58" x="163.5" y="496.5"/><rect fill="#FEFECE" height="33.6094" style="stroke: #000000; stroke-width: 1.5;" width="58" x="159.5" y="492.5"/><text fill="#000000" font-family="sans-serif" font-size="14" lengthAdjust="spacingAndGlyphs" textLength="42" x="167.5" y="515.0332">cpl_da</text><!--entity ailtireswarm--><rect fill="#FEFECE" filter="url(#fuzmx0azo980n)" height="40.6094" style="stroke: #000000; stroke-width: 1.5;" width="108" x="159.5" y="592"/><polygon fill="#FEFECE" points="250.5,597,250.5,611,262.5,611,262.5,603,256.5,597,250.5,597" style="stroke: #000000; stroke-width: 1.5;"/><line style="stroke: #000000; stroke-width: 1.5;" x1="256.5" x2="256.5" y1="597" y2="603"/><line style="stroke: #000000; stroke-width: 1.5;" x1="262.5" x2="256.5" y1="603" y2="603"/><text fill="#000000" font-family="sans-serif" font-size="14" lengthAdjust="spacingAndGlyphs" textLength="78" x="169.5" y="619.5332">ailtire:swarm</text><!--entity cpl_da_web--><rect fill="#FEFECE" filter="url(#fuzmx0azo980n)" height="40.6094" style="stroke: #000000; stroke-width: 1.5;" width="105" x="257" y="491"/><polygon fill="#FEFECE" points="345,496,345,510,357,510,357,502,351,496,345,496" style="stroke: #000000; stroke-width: 1.5;"/><line style="stroke: #000000; stroke-width: 1.5;" x1="351" x2="351" y1="496" y2="502"/><line style="stroke: #000000; stroke-width: 1.5;" x1="357" x2="351" y1="502" y2="502"/><text fill="#000000" font-family="sans-serif" font-size="14" lengthAdjust="spacingAndGlyphs" textLength="75" x="267" y="518.5332">cpl_da_web</text><!--entity CLI--><ellipse cx="160.5" cy="38" fill="#FEFECE" filter="url(#fuzmx0azo980n)" rx="8" ry="8" style="stroke: #A80036; stroke-width: 2.0;"/><text fill="#000000" font-family="sans-serif" font-size="14" lengthAdjust="spacingAndGlyphs" textLength="21" x="150" y="69.5332">CLI</text><!--entity Web--><ellipse cx="20.5" cy="281" fill="#FEFECE" filter="url(#fuzmx0azo980n)" rx="8" ry="8" style="stroke: #A80036; stroke-width: 2.0;"/><text fill="#000000" font-family="sans-serif" font-size="14" lengthAdjust="spacingAndGlyphs" textLength="29" x="6" y="312.5332">Web</text><!--entity WebSocket--><ellipse cx="340.5" cy="38" fill="#FEFECE" filter="url(#fuzmx0azo980n)" rx="8" ry="8" style="stroke: #A80036; stroke-width: 2.0;"/><text fill="#000000" font-family="sans-serif" font-size="14" lengthAdjust="spacingAndGlyphs" textLength="72" x="304.5" y="69.5332">WebSocket</text><!--link binName to REST--><path d="M160.5,202.057 C160.5,217.513 160.5,239.865 160.5,256.673 " fill="none" id="binName-REST" style="stroke: #A80036; stroke-width: 1.0;"/><polygon fill="#A80036" points="160.5,261.698,164.5,252.698,160.5,256.698,156.5,252.698,160.5,261.698" style="stroke: #A80036; stroke-width: 1.0;"/><!--link REST to cpl_da_container--><path d="M160.5,300.203 C160.5,315.147 160.5,336.673 160.5,354.487 " fill="none" id="REST-cpl_da_container" style="stroke: #A80036; stroke-width: 1.0;"/><polygon fill="#A80036" points="160.5,359.885,164.5,350.885,160.5,354.885,156.5,350.885,160.5,359.885" style="stroke: #A80036; stroke-width: 1.0;"/><!--link REST to web_container--><path d="M195.308,291.931 C213.032,297.707 234.566,305.857 252.5,316 C276.579,329.618 300.889,349.684 317.838,364.929 " fill="none" id="REST-web_container" style="stroke: #A80036; stroke-width: 1.0;"/><polygon fill="#A80036" points="321.554,368.3,317.575,359.2907,317.8505,364.9408,312.2003,365.2163,321.554,368.3" style="stroke: #A80036; stroke-width: 1.0;"/><!--link socket to web_container--><path d="M340.5,202.328 C340.5,239.225 340.5,322.407 340.5,363.138 " fill="none" id="socket-web_container" style="stroke: #A80036; stroke-width: 1.0;"/><polygon fill="#A80036" points="340.5,368.36,344.5,359.36,340.5,363.36,336.5,359.36,340.5,368.36" style="stroke: #A80036; stroke-width: 1.0;"/><!--link cpl_daimage to ailtireswarm--><path d="M199.305,550.398 C202.581,564.499 206.166,579.932 208.914,591.7594 " fill="none" id="cpl_daimage-ailtireswarm" style="stroke: #A80036; stroke-width: 1.0;"/><polygon fill="none" points="192.426,551.723,194.719,530.658,206.063,548.555,192.426,551.723" style="stroke: #A80036; stroke-width: 1.0;"/><!--link cpl_da_container to cpl_daimage--><path d="M167.084,415.273 C172.394,436.871 179.786,466.931 184.836,487.465 " fill="none" id="cpl_da_container-cpl_daimage" style="stroke: #A80036; stroke-width: 1.0;"/><polygon fill="#A80036" points="186.066,492.469,187.8,482.774,184.8715,487.6138,180.0317,484.6852,186.066,492.469" style="stroke: #A80036; stroke-width: 1.0;"/><!--link web_container to cpl_da_web--><path d="M335.926,406.502 C330.602,427.453 321.78,462.173 315.808,485.676 " fill="none" id="web_container-cpl_da_web" style="stroke: #A80036; stroke-width: 1.0;"/><polygon fill="#A80036" points="314.504,490.805,320.5975,483.0674,315.7355,485.959,312.8439,481.0971,314.504,490.805" style="stroke: #A80036; stroke-width: 1.0;"/><!--link CLI to binName--><path d="M160.5,47.098 C160.5,69.432 160.5,132.318 160.5,163.705 " fill="none" id="CLI-binName" style="stroke: #A80036; stroke-width: 1.0;"/><text fill="#000000" font-family="sans-serif" font-size="13" lengthAdjust="spacingAndGlyphs" textLength="96" x="47.3125" y="45.031">edgemere cpl da</text><!--link Web to REST--><path d="M29.5234,281 C61.6707,281 93.8179,281 125.965,281 " fill="none" id="Web-REST" style="stroke: #A80036; stroke-width: 1.0;"/><text fill="#000000" font-family="sans-serif" font-size="13" lengthAdjust="spacingAndGlyphs" textLength="100" x="37.7859" y="273.7523">/edgemere/cpl/da</text><!--link WebSocket to socket--><path d="M340.5,47.098 C340.5,69.432 340.5,132.318 340.5,163.705 " fill="none" id="WebSocket-socket" style="stroke: #A80036; stroke-width: 1.0;"/><text fill="#000000" font-family="sans-serif" font-size="13" lengthAdjust="spacingAndGlyphs" textLength="100" x="223.3125" y="45.031">.edgemere.cpl.da</text><!--
@startuml
  interface CLI
  interface Web
  interface WebSocket
package "Device Agent" #lightgray {
  component express as REST
  component socket.io as socket
  folder bin #ffffff {
    component " edgemere cpl da" as binName
  }
  binName - -> REST

  folder deploy #ffffff {
      file "node server.js\ndocker-compose.yml" as cpl_da_container
      REST - -> cpl_da_container

  
    file "node web/server.js" as web_container
    REST - -> web_container
    socket - - -> web_container
  
  }
  folder images #ffffff {
    collections "cpl_da" as cpl_daimage
    artifact "ailtire:swarm" as ailtireswarm
    cpl_daimage <|- - ailtireswarm
    cpl_da_container - -> cpl_daimage

  
      artifact cpl_da_web
      web_container - -> cpl_da_web
    
  }
}
CLI " edgemere cpl da" - - binName
Web "/edgemere/cpl/da" - REST
WebSocket ".edgemere.cpl.da" - - socket

@enduml

PlantUML version 1.2019.05(Sat Apr 20 09:45:36 PDT 2019)
(GPL source distribution)
Java Runtime: OpenJDK Runtime Environment
JVM: OpenJDK 64-Bit Server VM
Java Version: 12.0.1+12
Operating System: Windows 10
OS Version: 10.0
Default Encoding: Cp1252
Language: en
Country: US
--></g></svg>