<?xml version="1.0" encoding="UTF-8" standalone="no"?><svg xmlns="http://www.w3.org/2000/svg" xmlns:xlink="http://www.w3.org/1999/xlink" contentScriptType="application/ecmascript" contentStyleType="text/css" height="378px" preserveAspectRatio="none" style="width:582px;height:378px;" version="1.1" viewBox="0 0 582 378" width="582px" zoomAndPan="magnify"><defs><filter height="300%" id="f1ua0fxai8pzhc" width="300%" x="-1" y="-1"><feGaussianBlur result="blurOut" stdDeviation="2.0"/><feColorMatrix in="blurOut" result="blurOut2" type="matrix" values="0 0 0 0 0 0 0 0 0 0 0 0 0 0 0 0 0 0 .4 0"/><feOffset dx="4.0" dy="4.0" in="blurOut2" result="blurOut3"/><feBlend in="SourceGraphic" in2="blurOut3" mode="normal"/></filter></defs><g><line style="stroke: #A80036; stroke-width: 1.0; stroke-dasharray: 5.0,5.0;" x1="52" x2="52" y1="87.6094" y2="289.7188"/><line style="stroke: #A80036; stroke-width: 1.0; stroke-dasharray: 5.0,5.0;" x1="159" x2="159" y1="87.6094" y2="289.7188"/><line style="stroke: #A80036; stroke-width: 1.0; stroke-dasharray: 5.0,5.0;" x1="313" x2="313" y1="87.6094" y2="289.7188"/><line style="stroke: #A80036; stroke-width: 1.0; stroke-dasharray: 5.0,5.0;" x1="433" x2="433" y1="87.6094" y2="289.7188"/><line style="stroke: #A80036; stroke-width: 1.0; stroke-dasharray: 5.0,5.0;" x1="547" x2="547" y1="87.6094" y2="289.7188"/><text fill="#000000" font-family="sans-serif" font-size="14" lengthAdjust="spacingAndGlyphs" textLength="82" x="8" y="84.5332">ITOperations</text><ellipse cx="52" cy="13" fill="#FEFECE" filter="url(#f1ua0fxai8pzhc)" rx="8" ry="8" style="stroke: #A80036; stroke-width: 2.0;"/><path d="M52,21 L52,48 M39,29 L65,29 M52,48 L39,63 M52,48 L65,63 " fill="none" filter="url(#f1ua0fxai8pzhc)" style="stroke: #A80036; stroke-width: 2.0;"/><text fill="#000000" font-family="sans-serif" font-size="14" lengthAdjust="spacingAndGlyphs" textLength="82" x="8" y="303.252">ITOperations</text><ellipse cx="52" cy="316.3281" fill="#FEFECE" filter="url(#f1ua0fxai8pzhc)" rx="8" ry="8" style="stroke: #A80036; stroke-width: 2.0;"/><path d="M52,324.3281 L52,351.3281 M39,332.3281 L65,332.3281 M52,351.3281 L39,366.3281 M52,351.3281 L65,366.3281 " fill="none" filter="url(#f1ua0fxai8pzhc)" style="stroke: #A80036; stroke-width: 2.0;"/><text fill="#000000" font-family="sans-serif" font-size="14" lengthAdjust="spacingAndGlyphs" textLength="100" x="106" y="84.5332">StackDeveloper</text><ellipse cx="159" cy="13" fill="#FEFECE" filter="url(#f1ua0fxai8pzhc)" rx="8" ry="8" style="stroke: #A80036; stroke-width: 2.0;"/><path d="M159,21 L159,48 M146,29 L172,29 M159,48 L146,63 M159,48 L172,63 " fill="none" filter="url(#f1ua0fxai8pzhc)" style="stroke: #A80036; stroke-width: 2.0;"/><text fill="#000000" font-family="sans-serif" font-size="14" lengthAdjust="spacingAndGlyphs" textLength="100" x="106" y="303.252">StackDeveloper</text><ellipse cx="159" cy="316.3281" fill="#FEFECE" filter="url(#f1ua0fxai8pzhc)" rx="8" ry="8" style="stroke: #A80036; stroke-width: 2.0;"/><path d="M159,324.3281 L159,351.3281 M146,332.3281 L172,332.3281 M159,351.3281 L146,366.3281 M159,351.3281 L172,366.3281 " fill="none" filter="url(#f1ua0fxai8pzhc)" style="stroke: #A80036; stroke-width: 2.0;"/><rect fill="#FEFECE" filter="url(#f1ua0fxai8pzhc)" height="31.6094" style="stroke: #A80036; stroke-width: 1.5;" width="179" x="222" y="51"/><text fill="#000000" font-family="sans-serif" font-size="14" lengthAdjust="spacingAndGlyphs" textLength="165" x="229" y="72.5332">Environment Management</text><rect fill="#FEFECE" filter="url(#f1ua0fxai8pzhc)" height="31.6094" style="stroke: #A80036; stroke-width: 1.5;" width="179" x="222" y="288.7188"/><text fill="#000000" font-family="sans-serif" font-size="14" lengthAdjust="spacingAndGlyphs" textLength="165" x="229" y="310.252">Environment Management</text><rect fill="#FEFECE" filter="url(#f1ua0fxai8pzhc)" height="31.6094" style="stroke: #A80036; stroke-width: 1.5;" width="33" x="415" y="51"/><text fill="#000000" font-family="sans-serif" font-size="14" lengthAdjust="spacingAndGlyphs" textLength="19" x="422" y="72.5332">bin</text><rect fill="#FEFECE" filter="url(#f1ua0fxai8pzhc)" height="31.6094" style="stroke: #A80036; stroke-width: 1.5;" width="33" x="415" y="288.7188"/><text fill="#000000" font-family="sans-serif" font-size="14" lengthAdjust="spacingAndGlyphs" textLength="19" x="422" y="310.252">bin</text><rect fill="#FEFECE" filter="url(#f1ua0fxai8pzhc)" height="31.6094" style="stroke: #A80036; stroke-width: 1.5;" width="51" x="520" y="51"/><text fill="#000000" font-family="sans-serif" font-size="14" lengthAdjust="spacingAndGlyphs" textLength="37" x="527" y="72.5332">REST</text><rect fill="#FEFECE" filter="url(#f1ua0fxai8pzhc)" height="31.6094" style="stroke: #A80036; stroke-width: 1.5;" width="51" x="520" y="288.7188"/><text fill="#000000" font-family="sans-serif" font-size="14" lengthAdjust="spacingAndGlyphs" textLength="37" x="527" y="310.252">REST</text><polygon fill="#A80036" points="301.5,115.9609,311.5,119.9609,301.5,123.9609,305.5,119.9609" style="stroke: #A80036; stroke-width: 1.0;"/><line style="stroke: #A80036; stroke-width: 1.0;" x1="52" x2="307.5" y1="119.9609" y2="119.9609"/><text fill="#000000" font-family="sans-serif" font-size="13" lengthAdjust="spacingAndGlyphs" textLength="121" x="59" y="115.1045">Manage Environment</text><polygon fill="#A80036" points="421.5,146.3125,431.5,150.3125,421.5,154.3125,425.5,150.3125" style="stroke: #A80036; stroke-width: 1.0;"/><line style="stroke: #A80036; stroke-width: 1.0;" x1="313.5" x2="427.5" y1="150.3125" y2="150.3125"/><text fill="#000000" font-family="sans-serif" font-size="13" lengthAdjust="spacingAndGlyphs" textLength="90" x="320.5" y="145.4561">environment/list</text><polygon fill="#A80036" points="535.5,176.6641,545.5,180.6641,535.5,184.6641,539.5,180.6641" style="stroke: #A80036; stroke-width: 1.0;"/><line style="stroke: #A80036; stroke-width: 1.0;" x1="433.5" x2="541.5" y1="180.6641" y2="180.6641"/><text fill="#000000" font-family="sans-serif" font-size="13" lengthAdjust="spacingAndGlyphs" textLength="90" x="440.5" y="175.8076">environment/list</text><polygon fill="#A80036" points="301.5,207.0156,311.5,211.0156,301.5,215.0156,305.5,211.0156" style="stroke: #A80036; stroke-width: 1.0;"/><line style="stroke: #A80036; stroke-width: 1.0;" x1="159" x2="307.5" y1="211.0156" y2="211.0156"/><text fill="#000000" font-family="sans-serif" font-size="13" lengthAdjust="spacingAndGlyphs" textLength="121" x="166" y="206.1592">Manage Environment</text><polygon fill="#A80036" points="421.5,237.3672,431.5,241.3672,421.5,245.3672,425.5,241.3672" style="stroke: #A80036; stroke-width: 1.0;"/><line style="stroke: #A80036; stroke-width: 1.0;" x1="313.5" x2="427.5" y1="241.3672" y2="241.3672"/><text fill="#000000" font-family="sans-serif" font-size="13" lengthAdjust="spacingAndGlyphs" textLength="90" x="320.5" y="236.5107">environment/list</text><polygon fill="#A80036" points="535.5,267.7188,545.5,271.7188,535.5,275.7188,539.5,271.7188" style="stroke: #A80036; stroke-width: 1.0;"/><line style="stroke: #A80036; stroke-width: 1.0;" x1="433.5" x2="541.5" y1="271.7188" y2="271.7188"/><text fill="#000000" font-family="sans-serif" font-size="13" lengthAdjust="spacingAndGlyphs" textLength="90" x="440.5" y="266.8623">environment/list</text><!--
@startuml

actor "ITOperations" as itops

actor "StackDeveloper" as stackdev




itops -> "Environment Management": Manage Environment
"Environment Management" -> bin: environment/list
bin -> REST: environment/list

stackdev -> "Environment Management": Manage Environment
"Environment Management" -> bin: environment/list
bin -> REST: environment/list


@enduml

PlantUML version 1.2019.05(Sat Apr 20 09:45:36 PDT 2019)
(GPL source distribution)
Java Runtime: OpenJDK Runtime Environment
JVM: OpenJDK 64-Bit Server VM
Java Version: 12.0.1+12
Operating System: Windows 10
OS Version: 10.0
Default Encoding: Cp1252
Language: en
Country: US
--></g></svg>