<?xml version="1.0" encoding="UTF-8" standalone="no"?><svg xmlns="http://www.w3.org/2000/svg" xmlns:xlink="http://www.w3.org/1999/xlink" contentScriptType="application/ecmascript" contentStyleType="text/css" height="1865px" preserveAspectRatio="none" style="width:437px;height:1865px;" version="1.1" viewBox="0 0 437 1865" width="437px" zoomAndPan="magnify"><defs><filter height="300%" id="f1qgxx7s6hulcz" width="300%" x="-1" y="-1"><feGaussianBlur result="blurOut" stdDeviation="2.0"/><feColorMatrix in="blurOut" result="blurOut2" type="matrix" values="0 0 0 0 0 0 0 0 0 0 0 0 0 0 0 0 0 0 .4 0"/><feOffset dx="4.0" dy="4.0" in="blurOut2" result="blurOut3"/><feBlend in="SourceGraphic" in2="blurOut3" mode="normal"/></filter></defs><g><!--cluster sml--><rect fill="#90EE90" filter="url(#f1qgxx7s6hulcz)" height="1830" rx="12.5" ry="12.5" style="stroke: #A80036; stroke-width: 1.5;" width="190" x="22" y="24"/><rect fill="#FFFFFF" height="1796.3906" rx="12.5" ry="12.5" style="stroke: #FFFFFF; stroke-width: 1.0;" width="184" x="25" y="54.6094"/><line style="stroke: #A80036; stroke-width: 1.5;" x1="22" x2="212" y1="51.6094" y2="51.6094"/><text fill="#000000" font-family="sans-serif" font-size="14" lengthAdjust="spacingAndGlyphs" textLength="21" x="106.5" y="42.5332">sml</text><!--cluster smlservice--><rect fill="#90EE90" filter="url(#f1qgxx7s6hulcz)" height="187" rx="12.5" ry="12.5" style="stroke: #A80036; stroke-width: 1.5;" width="96" x="69" y="68"/><rect fill="#FFFFFF" height="153.3906" rx="12.5" ry="12.5" style="stroke: #FFFFFF; stroke-width: 1.0;" width="90" x="72" y="98.6094"/><line style="stroke: #A80036; stroke-width: 1.5;" x1="69" x2="165" y1="95.6094" y2="95.6094"/><text fill="#000000" font-family="sans-serif" font-size="14" lengthAdjust="spacingAndGlyphs" textLength="45" x="94.5" y="86.5332">service</text><!--cluster da--><rect fill="#E6E6FA" filter="url(#f1qgxx7s6hulcz)" height="170" rx="12.5" ry="12.5" style="stroke: #A80036; stroke-width: 1.5;" width="148" x="277" y="109"/><rect fill="#FFFFFF" height="136.3906" rx="12.5" ry="12.5" style="stroke: #FFFFFF; stroke-width: 1.0;" width="142" x="280" y="139.6094"/><line style="stroke: #A80036; stroke-width: 1.5;" x1="277" x2="425" y1="136.6094" y2="136.6094"/><text fill="#000000" font-family="sans-serif" font-size="14" lengthAdjust="spacingAndGlyphs" textLength="16" x="343" y="127.5332">da</text><!--cluster daservice--><rect fill="#E6E6FA" filter="url(#f1qgxx7s6hulcz)" height="102" rx="12.5" ry="12.5" style="stroke: #A80036; stroke-width: 1.5;" width="100" x="301" y="153"/><rect fill="#FFFFFF" height="68.3906" rx="12.5" ry="12.5" style="stroke: #FFFFFF; stroke-width: 1.0;" width="94" x="304" y="183.6094"/><line style="stroke: #A80036; stroke-width: 1.5;" x1="301" x2="401" y1="180.6094" y2="180.6094"/><text fill="#000000" font-family="sans-serif" font-size="14" lengthAdjust="spacingAndGlyphs" textLength="45" x="328.5" y="171.5332">service</text><rect fill="#FEFECE" filter="url(#f1qgxx7s6hulcz)" height="50" rx="12.5" ry="12.5" style="stroke: #A80036; stroke-width: 1.5;" width="127" x="53.5" y="274"/><line style="stroke: #A80036; stroke-width: 1.5;" x1="53.5" x2="180.5" y1="301.6094" y2="301.6094"/><text fill="#000000" font-family="sans-serif" font-size="14" lengthAdjust="spacingAndGlyphs" textLength="107" x="63.5" y="293.5332">Custom Function</text><rect fill="#90EE90" filter="url(#f1qgxx7s6hulcz)" height="105.6094" rx="12.5" ry="12.5" style="stroke: #A80036; stroke-width: 1.5;" width="94" x="70" y="359"/><rect fill="#FFFFFF" height="72" rx="12.5" ry="12.5" style="stroke: #FFFFFF; stroke-width: 1.0;" width="88" x="73" y="389.6094"/><line style="stroke: #A80036; stroke-width: 1.5;" x1="70" x2="164" y1="386.6094" y2="386.6094"/><text fill="#000000" font-family="sans-serif" font-size="14" lengthAdjust="spacingAndGlyphs" textLength="34" x="100" y="378.5332">cloud</text><rect fill="#90EE90" filter="url(#f1qgxx7s6hulcz)" height="50" rx="12.5" ry="12.5" style="stroke: #A80036; stroke-width: 1.5;" width="50" x="81" y="399.6094"/><line style="stroke: #A80036; stroke-width: 1.5;" x1="81" x2="131" y1="427.2188" y2="427.2188"/><text fill="#000000" font-family="sans-serif" font-size="14" lengthAdjust="spacingAndGlyphs" textLength="17" x="97.5" y="419.1426">list</text><rect fill="#90EE90" filter="url(#f1qgxx7s6hulcz)" height="229.6094" rx="12.5" ry="12.5" style="stroke: #A80036; stroke-width: 1.5;" width="143" x="45.5" y="500"/><rect fill="#FFFFFF" height="196" rx="12.5" ry="12.5" style="stroke: #FFFFFF; stroke-width: 1.0;" width="137" x="48.5" y="530.6094"/><line style="stroke: #A80036; stroke-width: 1.5;" x1="45.5" x2="188.5" y1="527.6094" y2="527.6094"/><text fill="#000000" font-family="sans-serif" font-size="14" lengthAdjust="spacingAndGlyphs" textLength="28" x="103" y="519.5332">data</text><rect fill="#90EE90" filter="url(#f1qgxx7s6hulcz)" height="50" rx="12.5" ry="12.5" style="stroke: #A80036; stroke-width: 1.5;" width="64" x="74" y="664.6094"/><line style="stroke: #A80036; stroke-width: 1.5;" x1="74" x2="138" y1="692.2188" y2="692.2188"/><text fill="#000000" font-family="sans-serif" font-size="14" lengthAdjust="spacingAndGlyphs" textLength="44" x="84" y="684.1426">govern</text><rect fill="#90EE90" filter="url(#f1qgxx7s6hulcz)" height="105.6094" rx="12.5" ry="12.5" style="stroke: #A80036; stroke-width: 1.5;" width="99" x="56.5" y="540.6094"/><rect fill="#FFFFFF" height="72" rx="12.5" ry="12.5" style="stroke: #FFFFFF; stroke-width: 1.0;" width="93" x="59.5" y="571.2188"/><line style="stroke: #A80036; stroke-width: 1.5;" x1="56.5" x2="155.5" y1="568.2188" y2="568.2188"/><text fill="#000000" font-family="sans-serif" font-size="14" lengthAdjust="spacingAndGlyphs" textLength="43" x="84.5" y="560.1426">source</text><rect fill="#90EE90" filter="url(#f1qgxx7s6hulcz)" height="50" rx="12.5" ry="12.5" style="stroke: #A80036; stroke-width: 1.5;" width="55" x="67.5" y="581.2188"/><line style="stroke: #A80036; stroke-width: 1.5;" x1="67.5" x2="122.5" y1="608.8281" y2="608.8281"/><text fill="#000000" font-family="sans-serif" font-size="14" lengthAdjust="spacingAndGlyphs" textLength="35" x="77.5" y="600.752">name</text><rect fill="#90EE90" filter="url(#f1qgxx7s6hulcz)" height="105.6094" rx="12.5" ry="12.5" style="stroke: #A80036; stroke-width: 1.5;" width="135" x="49.5" y="765"/><rect fill="#FFFFFF" height="72" rx="12.5" ry="12.5" style="stroke: #FFFFFF; stroke-width: 1.0;" width="129" x="52.5" y="795.6094"/><line style="stroke: #A80036; stroke-width: 1.5;" x1="49.5" x2="184.5" y1="792.6094" y2="792.6094"/><text fill="#000000" font-family="sans-serif" font-size="14" lengthAdjust="spacingAndGlyphs" textLength="86" x="74" y="784.5332">environmenet</text><rect fill="#90EE90" filter="url(#f1qgxx7s6hulcz)" height="50" rx="12.5" ry="12.5" style="stroke: #A80036; stroke-width: 1.5;" width="91" x="60.5" y="805.6094"/><line style="stroke: #A80036; stroke-width: 1.5;" x1="60.5" x2="151.5" y1="833.2188" y2="833.2188"/><text fill="#000000" font-family="sans-serif" font-size="14" lengthAdjust="spacingAndGlyphs" textLength="71" x="70.5" y="825.1426">addpolicies</text><rect fill="#90EE90" filter="url(#f1qgxx7s6hulcz)" height="445.6094" rx="12.5" ry="12.5" style="stroke: #A80036; stroke-width: 1.5;" width="111" x="61.5" y="906"/><rect fill="#FFFFFF" height="412" rx="12.5" ry="12.5" style="stroke: #FFFFFF; stroke-width: 1.0;" width="105" x="64.5" y="936.6094"/><line style="stroke: #A80036; stroke-width: 1.5;" x1="61.5" x2="172.5" y1="933.6094" y2="933.6094"/><text fill="#000000" font-family="sans-serif" font-size="14" lengthAdjust="spacingAndGlyphs" textLength="78" x="78" y="925.5332">environment</text><rect fill="#90EE90" filter="url(#f1qgxx7s6hulcz)" height="50" rx="12.5" ry="12.5" style="stroke: #A80036; stroke-width: 1.5;" width="60" x="76" y="1286.6094"/><line style="stroke: #A80036; stroke-width: 1.5;" x1="76" x2="136" y1="1314.2188" y2="1314.2188"/><text fill="#000000" font-family="sans-serif" font-size="14" lengthAdjust="spacingAndGlyphs" textLength="40" x="86" y="1306.1426">create</text><rect fill="#90EE90" filter="url(#f1qgxx7s6hulcz)" height="50" rx="12.5" ry="12.5" style="stroke: #A80036; stroke-width: 1.5;" width="67" x="72.5" y="1218.6094"/><line style="stroke: #A80036; stroke-width: 1.5;" x1="72.5" x2="139.5" y1="1246.2188" y2="1246.2188"/><text fill="#000000" font-family="sans-serif" font-size="14" lengthAdjust="spacingAndGlyphs" textLength="47" x="82.5" y="1238.1426">destroy</text><rect fill="#90EE90" filter="url(#f1qgxx7s6hulcz)" height="50" rx="12.5" ry="12.5" style="stroke: #A80036; stroke-width: 1.5;" width="65" x="73.5" y="1150.6094"/><line style="stroke: #A80036; stroke-width: 1.5;" x1="73.5" x2="138.5" y1="1178.2188" y2="1178.2188"/><text fill="#000000" font-family="sans-serif" font-size="14" lengthAdjust="spacingAndGlyphs" textLength="45" x="83.5" y="1170.1426">disable</text><rect fill="#90EE90" filter="url(#f1qgxx7s6hulcz)" height="50" rx="12.5" ry="12.5" style="stroke: #A80036; stroke-width: 1.5;" width="63" x="74.5" y="1082.6094"/><line style="stroke: #A80036; stroke-width: 1.5;" x1="74.5" x2="137.5" y1="1110.2188" y2="1110.2188"/><text fill="#000000" font-family="sans-serif" font-size="14" lengthAdjust="spacingAndGlyphs" textLength="43" x="84.5" y="1102.1426">enable</text><rect fill="#90EE90" filter="url(#f1qgxx7s6hulcz)" height="50" rx="12.5" ry="12.5" style="stroke: #A80036; stroke-width: 1.5;" width="50" x="81" y="1014.6094"/><line style="stroke: #A80036; stroke-width: 1.5;" x1="81" x2="131" y1="1042.2188" y2="1042.2188"/><text fill="#000000" font-family="sans-serif" font-size="14" lengthAdjust="spacingAndGlyphs" textLength="17" x="97.5" y="1034.1426">list</text><rect fill="#90EE90" filter="url(#f1qgxx7s6hulcz)" height="50" rx="12.5" ry="12.5" style="stroke: #A80036; stroke-width: 1.5;" width="64" x="74" y="946.6094"/><line style="stroke: #A80036; stroke-width: 1.5;" x1="74" x2="138" y1="974.2188" y2="974.2188"/><text fill="#000000" font-family="sans-serif" font-size="14" lengthAdjust="spacingAndGlyphs" textLength="44" x="84" y="966.1426">update</text><rect fill="#90EE90" filter="url(#f1qgxx7s6hulcz)" height="309.6094" rx="12.5" ry="12.5" style="stroke: #A80036; stroke-width: 1.5;" width="158" x="38" y="1387"/><rect fill="#FFFFFF" height="276" rx="12.5" ry="12.5" style="stroke: #FFFFFF; stroke-width: 1.0;" width="152" x="41" y="1417.6094"/><line style="stroke: #A80036; stroke-width: 1.5;" x1="38" x2="196" y1="1414.6094" y2="1414.6094"/><text fill="#000000" font-family="sans-serif" font-size="14" lengthAdjust="spacingAndGlyphs" textLength="63" x="85.5" y="1406.5332">multicloud</text><rect fill="#90EE90" filter="url(#f1qgxx7s6hulcz)" height="50" rx="12.5" ry="12.5" style="stroke: #A80036; stroke-width: 1.5;" width="85" x="63.5" y="1631.6094"/><line style="stroke: #A80036; stroke-width: 1.5;" x1="63.5" x2="148.5" y1="1659.2188" y2="1659.2188"/><text fill="#000000" font-family="sans-serif" font-size="14" lengthAdjust="spacingAndGlyphs" textLength="65" x="73.5" y="1651.1426">addclouds</text><rect fill="#90EE90" filter="url(#f1qgxx7s6hulcz)" height="50" rx="12.5" ry="12.5" style="stroke: #A80036; stroke-width: 1.5;" width="91" x="60.5" y="1563.6094"/><line style="stroke: #A80036; stroke-width: 1.5;" x1="60.5" x2="151.5" y1="1591.2188" y2="1591.2188"/><text fill="#000000" font-family="sans-serif" font-size="14" lengthAdjust="spacingAndGlyphs" textLength="71" x="70.5" y="1583.1426">addpolicies</text><rect fill="#90EE90" filter="url(#f1qgxx7s6hulcz)" height="50" rx="12.5" ry="12.5" style="stroke: #A80036; stroke-width: 1.5;" width="50" x="81" y="1495.6094"/><line style="stroke: #A80036; stroke-width: 1.5;" x1="81" x2="131" y1="1523.2188" y2="1523.2188"/><text fill="#000000" font-family="sans-serif" font-size="14" lengthAdjust="spacingAndGlyphs" textLength="17" x="97.5" y="1515.1426">list</text><rect fill="#90EE90" filter="url(#f1qgxx7s6hulcz)" height="50" rx="12.5" ry="12.5" style="stroke: #A80036; stroke-width: 1.5;" width="114" x="49" y="1427.6094"/><line style="stroke: #A80036; stroke-width: 1.5;" x1="49" x2="163" y1="1455.2188" y2="1455.2188"/><text fill="#000000" font-family="sans-serif" font-size="14" lengthAdjust="spacingAndGlyphs" textLength="94" x="59" y="1447.1426">removepolicies</text><rect fill="#90EE90" filter="url(#f1qgxx7s6hulcz)" height="105.6094" rx="12.5" ry="12.5" style="stroke: #A80036; stroke-width: 1.5;" width="94" x="70" y="1732"/><rect fill="#FFFFFF" height="72" rx="12.5" ry="12.5" style="stroke: #FFFFFF; stroke-width: 1.0;" width="88" x="73" y="1762.6094"/><line style="stroke: #A80036; stroke-width: 1.5;" x1="70" x2="164" y1="1759.6094" y2="1759.6094"/><text fill="#000000" font-family="sans-serif" font-size="14" lengthAdjust="spacingAndGlyphs" textLength="33" x="100.5" y="1751.5332">stack</text><rect fill="#90EE90" filter="url(#f1qgxx7s6hulcz)" height="50" rx="12.5" ry="12.5" style="stroke: #A80036; stroke-width: 1.5;" width="50" x="81" y="1772.6094"/><line style="stroke: #A80036; stroke-width: 1.5;" x1="81" x2="131" y1="1800.2188" y2="1800.2188"/><text fill="#000000" font-family="sans-serif" font-size="14" lengthAdjust="spacingAndGlyphs" textLength="17" x="97.5" y="1792.1426">list</text><rect fill="#90EE90" filter="url(#f1qgxx7s6hulcz)" height="50" rx="12.5" ry="12.5" style="stroke: #A80036; stroke-width: 1.5;" width="50" x="92" y="104"/><line style="stroke: #A80036; stroke-width: 1.5;" x1="92" x2="142" y1="131.6094" y2="131.6094"/><text fill="#000000" font-family="sans-serif" font-size="14" lengthAdjust="spacingAndGlyphs" textLength="17" x="108.5" y="123.5332">list</text><rect fill="#90EE90" filter="url(#f1qgxx7s6hulcz)" height="50" rx="12.5" ry="12.5" style="stroke: #A80036; stroke-width: 1.5;" width="64" x="85" y="189"/><line style="stroke: #A80036; stroke-width: 1.5;" x1="85" x2="149" y1="216.6094" y2="216.6094"/><text fill="#000000" font-family="sans-serif" font-size="14" lengthAdjust="spacingAndGlyphs" textLength="44" x="95" y="208.5332">started</text><rect fill="#E6E6FA" filter="url(#f1qgxx7s6hulcz)" height="50" rx="12.5" ry="12.5" style="stroke: #A80036; stroke-width: 1.5;" width="68" x="317" y="189"/><line style="stroke: #A80036; stroke-width: 1.5;" x1="317" x2="385" y1="216.6094" y2="216.6094"/><text fill="#000000" font-family="sans-serif" font-size="14" lengthAdjust="spacingAndGlyphs" textLength="48" x="327" y="208.5332">register</text><!--link smlservicestarted to daserviceregister--><path d="M149.289,214 C191.448,214 266.432,214 311.848,214 " fill="none" id="smlservicestarted-daserviceregister" style="stroke: #A80036; stroke-width: 1.0;"/><polygon fill="#A80036" points="316.964,214,307.964,210,311.964,214,307.964,218,316.964,214" style="stroke: #A80036; stroke-width: 1.0;"/><!--
@startuml
left to right direction


state "sml" as sml #lightgreen {
}


state sml #lightgreen {
    state "Custom Function" as smlfunction {
    }
}

        state "sml" as sml #lightgreen {
state "cloud" as smlcloud #lightgreen {
state "list" as smlcloudlist #lightgreen {
}
}
}


        state "sml" as sml #lightgreen {
state "data" as smldata #lightgreen {
state "govern" as smldatagovern #lightgreen {
}
}
}


        state "sml" as sml #lightgreen {
state "data" as smldata #lightgreen {
state "source" as smldatasource #lightgreen {
state "name" as smldatasourcename #lightgreen {
}
}
}
}


        state "sml" as sml #lightgreen {
state "environmenet" as smlenvironmenet #lightgreen {
state "addpolicies" as smlenvironmenetaddpolicies #lightgreen {
}
}
}


        state "sml" as sml #lightgreen {
state "environment" as smlenvironment #lightgreen {
state "create" as smlenvironmentcreate #lightgreen {
}
}
}


        state "sml" as sml #lightgreen {
state "environment" as smlenvironment #lightgreen {
state "destroy" as smlenvironmentdestroy #lightgreen {
}
}
}


        state "sml" as sml #lightgreen {
state "environment" as smlenvironment #lightgreen {
state "disable" as smlenvironmentdisable #lightgreen {
}
}
}


        state "sml" as sml #lightgreen {
state "environment" as smlenvironment #lightgreen {
state "enable" as smlenvironmentenable #lightgreen {
}
}
}


        state "sml" as sml #lightgreen {
state "environment" as smlenvironment #lightgreen {
state "list" as smlenvironmentlist #lightgreen {
}
}
}


        state "sml" as sml #lightgreen {
state "environment" as smlenvironment #lightgreen {
state "update" as smlenvironmentupdate #lightgreen {
}
}
}


        state "sml" as sml #lightgreen {
state "multicloud" as smlmulticloud #lightgreen {
state "addclouds" as smlmulticloudaddclouds #lightgreen {
}
}
}


        state "sml" as sml #lightgreen {
state "multicloud" as smlmulticloud #lightgreen {
state "addpolicies" as smlmulticloudaddpolicies #lightgreen {
}
}
}


        state "sml" as sml #lightgreen {
state "multicloud" as smlmulticloud #lightgreen {
state "list" as smlmulticloudlist #lightgreen {
}
}
}


        state "sml" as sml #lightgreen {
state "multicloud" as smlmulticloud #lightgreen {
state "removepolicies" as smlmulticloudremovepolicies #lightgreen {
}
}
}


        state "sml" as sml #lightgreen {
state "service" as smlservice #lightgreen {
state "list" as smlservicelist #lightgreen {
}
}
}


        state "sml" as sml #lightgreen {
state "stack" as smlstack #lightgreen {
state "list" as smlstacklist #lightgreen {
}
}
}





    state "sml" as sml #lightgreen {
state "Service" as smlservice #lightgreen {
state "started" as smlservicestarted #lightgreen {
}
}
}

    state "da" as da #lavender {
state "service" as daservice #lavender {
state "register" as daserviceregister #lavender {
}
}
}

        smlservicestarted - - -> daserviceregister
       

@enduml

PlantUML version 1.2019.05(Sat Apr 20 09:45:36 PDT 2019)
(GPL source distribution)
Java Runtime: OpenJDK Runtime Environment
JVM: OpenJDK 64-Bit Server VM
Java Version: 12.0.1+12
Operating System: Windows 10
OS Version: 10.0
Default Encoding: Cp1252
Language: en
Country: US
--></g></svg>