<?xml version="1.0" encoding="UTF-8" standalone="no"?><svg xmlns="http://www.w3.org/2000/svg" xmlns:xlink="http://www.w3.org/1999/xlink" contentScriptType="application/ecmascript" contentStyleType="text/css" height="848px" preserveAspectRatio="none" style="width:1347px;height:848px;" version="1.1" viewBox="0 0 1347 848" width="1347px" zoomAndPan="magnify"><defs><filter height="300%" id="f8kqqj3ov1cg3" width="300%" x="-1" y="-1"><feGaussianBlur result="blurOut" stdDeviation="2.0"/><feColorMatrix in="blurOut" result="blurOut2" type="matrix" values="0 0 0 0 0 0 0 0 0 0 0 0 0 0 0 0 0 0 .4 0"/><feOffset dx="4.0" dy="4.0" in="blurOut2" result="blurOut3"/><feBlend in="SourceGraphic" in2="blurOut3" mode="normal"/></filter></defs><g><!--cluster Service Management Layer--><polygon fill="#90EE90" filter="url(#f8kqqj3ov1cg3)" points="30,87,227,87,234,110.6094,768,110.6094,768,745,30,745,30,87" style="stroke: #000000; stroke-width: 1.5;"/><line style="stroke: #000000; stroke-width: 1.5;" x1="30" x2="234" y1="110.6094" y2="110.6094"/><text fill="#000000" font-family="sans-serif" font-size="14" font-weight="bold" lengthAdjust="spacingAndGlyphs" textLength="191" x="34" y="103.5332">Service Management Layer</text><polygon fill="#FFFFE0" filter="url(#f8kqqj3ov1cg3)" points="594,781,822,781,829,804.6094,836,804.6094,836,836.2188,594,836.2188,594,781" style="stroke: #000000; stroke-width: 1.5;"/><line style="stroke: #000000; stroke-width: 1.5;" x1="594" x2="829" y1="804.6094" y2="804.6094"/><text fill="#000000" font-family="sans-serif" font-size="14" font-weight="bold" lengthAdjust="spacingAndGlyphs" textLength="222" x="598" y="797.5332">Software Defined Infrastructure</text><polygon fill="#FFCC88" filter="url(#f8kqqj3ov1cg3)" points="842.5,460,1147.5,460,1154.5,483.6094,1161.5,483.6094,1161.5,515.2188,842.5,515.2188,842.5,460" style="stroke: #000000; stroke-width: 1.5;"/><line style="stroke: #000000; stroke-width: 1.5;" x1="842.5" x2="1154.5" y1="483.6094" y2="483.6094"/><text fill="#000000" font-family="sans-serif" font-size="14" font-weight="bold" lengthAdjust="spacingAndGlyphs" textLength="299" x="846.5" y="476.5332">Distributed Information Management Layer</text><polygon fill="#FFC0CB" filter="url(#f8kqqj3ov1cg3)" points="702.5,8,817.5,8,824.5,31.6094,831.5,31.6094,831.5,63.2188,702.5,63.2188,702.5,8" style="stroke: #000000; stroke-width: 1.5;"/><line style="stroke: #000000; stroke-width: 1.5;" x1="702.5" x2="824.5" y1="31.6094" y2="31.6094"/><text fill="#000000" font-family="sans-serif" font-size="14" font-weight="bold" lengthAdjust="spacingAndGlyphs" textLength="109" x="706.5" y="24.5332">Security Aspect</text><!--class i--><rect fill="#FEFECE" filter="url(#f8kqqj3ov1cg3)" height="269.375" id="i" style="stroke: #A80036; stroke-width: 1.5;" width="215" x="509.5" y="131"/><ellipse cx="539.35" cy="147" fill="#B4A7E5" rx="11" ry="11" style="stroke: #A80036; stroke-width: 1.0;"/><path d="M540.3031,143.6406 L540.3031,150.2969 L542.0219,150.2969 Q542.6313,150.2969 542.8969,150.5313 Q543.1625,150.7656 543.1625,151.1563 Q543.1625,151.5313 542.8969,151.7656 Q542.6313,152 542.0219,152 L536.8813,152 Q536.2719,152 536.0063,151.7656 Q535.7406,151.5313 535.7406,151.1406 Q535.7406,150.7656 536.0063,150.5313 Q536.2719,150.2969 536.8813,150.2969 L538.6,150.2969 L538.6,143.6406 L536.8813,143.6406 Q536.2719,143.6406 536.0063,143.4063 Q535.7406,143.1719 535.7406,142.7813 Q535.7406,142.4063 536.0063,142.1719 Q536.2719,141.9375 536.8813,141.9375 L542.0219,141.9375 Q542.6313,141.9375 542.8969,142.1719 Q543.1625,142.4063 543.1625,142.7813 Q543.1625,143.1719 542.8969,143.4063 Q542.6313,143.6406 542.0219,143.6406 L540.3031,143.6406 Z "/><text fill="#000000" font-family="sans-serif" font-size="12" font-style="italic" lengthAdjust="spacingAndGlyphs" textLength="150" x="556.65" y="151.9102">Service Management Layer</text><line style="stroke: #A80036; stroke-width: 1.5;" x1="510.5" x2="723.5" y1="163" y2="163"/><line style="stroke: #A80036; stroke-width: 1.5;" x1="510.5" x2="723.5" y1="171" y2="171"/><text fill="#000000" font-family="sans-serif" font-size="11" lengthAdjust="spacingAndGlyphs" textLength="123" x="515.5" y="186.4189">/edgemere/sml/cloud/list()</text><text fill="#000000" font-family="sans-serif" font-size="11" lengthAdjust="spacingAndGlyphs" textLength="139" x="515.5" y="200.2549">/edgemere/sml/data/govern()</text><text fill="#000000" font-family="sans-serif" font-size="11" lengthAdjust="spacingAndGlyphs" textLength="168" x="515.5" y="214.0908">/edgemere/sml/data/source/name()</text><text fill="#000000" font-family="sans-serif" font-size="11" lengthAdjust="spacingAndGlyphs" textLength="203" x="515.5" y="227.9268">/edgemere/sml/environmenet/addpolicies()</text><text fill="#000000" font-family="sans-serif" font-size="11" lengthAdjust="spacingAndGlyphs" textLength="174" x="515.5" y="241.7627">/edgemere/sml/environment/create()</text><text fill="#000000" font-family="sans-serif" font-size="11" lengthAdjust="spacingAndGlyphs" textLength="180" x="515.5" y="255.5986">/edgemere/sml/environment/destroy()</text><text fill="#000000" font-family="sans-serif" font-size="11" lengthAdjust="spacingAndGlyphs" textLength="177" x="515.5" y="269.4346">/edgemere/sml/environment/disable()</text><text fill="#000000" font-family="sans-serif" font-size="11" lengthAdjust="spacingAndGlyphs" textLength="175" x="515.5" y="283.2705">/edgemere/sml/environment/enable()</text><text fill="#000000" font-family="sans-serif" font-size="11" lengthAdjust="spacingAndGlyphs" textLength="156" x="515.5" y="297.1064">/edgemere/sml/environment/list()</text><text fill="#000000" font-family="sans-serif" font-size="11" lengthAdjust="spacingAndGlyphs" textLength="176" x="515.5" y="310.9424">/edgemere/sml/environment/update()</text><text fill="#000000" font-family="sans-serif" font-size="11" lengthAdjust="spacingAndGlyphs" textLength="181" x="515.5" y="324.7783">/edgemere/sml/multicloud/addclouds()</text><text fill="#000000" font-family="sans-serif" font-size="11" lengthAdjust="spacingAndGlyphs" textLength="185" x="515.5" y="338.6143">/edgemere/sml/multicloud/addpolicies()</text><text fill="#000000" font-family="sans-serif" font-size="11" lengthAdjust="spacingAndGlyphs" textLength="144" x="515.5" y="352.4502">/edgemere/sml/multicloud/list()</text><text fill="#000000" font-family="sans-serif" font-size="11" lengthAdjust="spacingAndGlyphs" textLength="203" x="515.5" y="366.2861">/edgemere/sml/multicloud/removepolicies()</text><text fill="#000000" font-family="sans-serif" font-size="11" lengthAdjust="spacingAndGlyphs" textLength="133" x="515.5" y="380.1221">/edgemere/sml/service/list()</text><text fill="#000000" font-family="sans-serif" font-size="11" lengthAdjust="spacingAndGlyphs" textLength="123" x="515.5" y="393.958">/edgemere/sml/stack/list()</text><!--class Data Orchestrator--><rect fill="#FEFECE" filter="url(#f8kqqj3ov1cg3)" height="48" id="Data Orchestrator" style="stroke: #A80036; stroke-width: 1.5;" width="129" x="54.5" y="575"/><ellipse cx="69.5" cy="591" fill="#ADD1B2" rx="11" ry="11" style="stroke: #A80036; stroke-width: 1.0;"/><path d="M72.2656,586.875 Q72.4219,586.6563 72.6094,586.5469 Q72.7969,586.4375 73.0156,586.4375 Q73.3906,586.4375 73.625,586.7031 Q73.8594,586.9531 73.8594,587.5625 L73.8594,589.0156 Q73.8594,589.625 73.625,589.8906 Q73.3906,590.1563 73.0156,590.1563 Q72.6719,590.1563 72.4688,589.9531 Q72.2656,589.7656 72.1563,589.25 Q72.1094,588.8906 71.9219,588.7031 Q71.5938,588.3281 70.9844,588.1094 Q70.375,587.8906 69.75,587.8906 Q68.9844,587.8906 68.3438,588.2188 Q67.7188,588.5469 67.2188,589.2969 Q66.7344,590.0469 66.7344,591.0781 L66.7344,592.1719 Q66.7344,593.4063 67.625,594.2344 Q68.5156,595.0469 70.1094,595.0469 Q71.0469,595.0469 71.7031,594.7969 Q72.0938,594.6406 72.5156,594.2031 Q72.7813,593.9375 72.9219,593.8594 Q73.0781,593.7813 73.2813,593.7813 Q73.6094,593.7813 73.8594,594.0469 Q74.125,594.2969 74.125,594.6406 Q74.125,594.9844 73.7813,595.3906 Q73.2813,595.9688 72.4844,596.2969 Q71.4063,596.75 70.1094,596.75 Q68.5938,596.75 67.3906,596.125 Q66.4063,595.625 65.7188,594.5625 Q65.0313,593.4844 65.0313,592.2031 L65.0313,591.0469 Q65.0313,589.7188 65.6406,588.5781 Q66.2656,587.4219 67.3594,586.8125 Q68.4531,586.1875 69.6875,586.1875 Q70.4219,586.1875 71.0625,586.3594 Q71.7188,586.5156 72.2656,586.875 Z "/><text fill="#000000" font-family="sans-serif" font-size="12" lengthAdjust="spacingAndGlyphs" textLength="97" x="83.5" y="595.9102">Data Orchestrator</text><line style="stroke: #A80036; stroke-width: 1.5;" x1="55.5" x2="182.5" y1="607" y2="607"/><line style="stroke: #A80036; stroke-width: 1.5;" x1="55.5" x2="182.5" y1="615" y2="615"/><!--class Infrastructure Orchestrator--><rect fill="#FEFECE" filter="url(#f8kqqj3ov1cg3)" height="48" id="Infrastructure Orchestrator" style="stroke: #A80036; stroke-width: 1.5;" width="175" x="218.5" y="575"/><ellipse cx="233.5" cy="591" fill="#ADD1B2" rx="11" ry="11" style="stroke: #A80036; stroke-width: 1.0;"/><path d="M236.2656,586.875 Q236.4219,586.6563 236.6094,586.5469 Q236.7969,586.4375 237.0156,586.4375 Q237.3906,586.4375 237.625,586.7031 Q237.8594,586.9531 237.8594,587.5625 L237.8594,589.0156 Q237.8594,589.625 237.625,589.8906 Q237.3906,590.1563 237.0156,590.1563 Q236.6719,590.1563 236.4688,589.9531 Q236.2656,589.7656 236.1563,589.25 Q236.1094,588.8906 235.9219,588.7031 Q235.5938,588.3281 234.9844,588.1094 Q234.375,587.8906 233.75,587.8906 Q232.9844,587.8906 232.3438,588.2188 Q231.7188,588.5469 231.2188,589.2969 Q230.7344,590.0469 230.7344,591.0781 L230.7344,592.1719 Q230.7344,593.4063 231.625,594.2344 Q232.5156,595.0469 234.1094,595.0469 Q235.0469,595.0469 235.7031,594.7969 Q236.0938,594.6406 236.5156,594.2031 Q236.7813,593.9375 236.9219,593.8594 Q237.0781,593.7813 237.2813,593.7813 Q237.6094,593.7813 237.8594,594.0469 Q238.125,594.2969 238.125,594.6406 Q238.125,594.9844 237.7813,595.3906 Q237.2813,595.9688 236.4844,596.2969 Q235.4063,596.75 234.1094,596.75 Q232.5938,596.75 231.3906,596.125 Q230.4063,595.625 229.7188,594.5625 Q229.0313,593.4844 229.0313,592.2031 L229.0313,591.0469 Q229.0313,589.7188 229.6406,588.5781 Q230.2656,587.4219 231.3594,586.8125 Q232.4531,586.1875 233.6875,586.1875 Q234.4219,586.1875 235.0625,586.3594 Q235.7188,586.5156 236.2656,586.875 Z "/><text fill="#000000" font-family="sans-serif" font-size="12" lengthAdjust="spacingAndGlyphs" textLength="143" x="247.5" y="595.9102">Infrastructure Orchestrator</text><line style="stroke: #A80036; stroke-width: 1.5;" x1="219.5" x2="392.5" y1="607" y2="607"/><line style="stroke: #A80036; stroke-width: 1.5;" x1="219.5" x2="392.5" y1="615" y2="615"/><!--entity Cloud Broker--><rect fill="#FFFFFF" filter="url(#f8kqqj3ov1cg3)" height="37.6094" style="stroke: #000000; stroke-width: 1.5;" width="103" x="371.5" y="246.5"/><text fill="#000000" font-family="sans-serif" font-size="14" lengthAdjust="spacingAndGlyphs" textLength="83" x="381.5" y="271.0332">Cloud Broker</text><!--entity Environment Management--><rect fill="#FFFFFF" filter="url(#f8kqqj3ov1cg3)" height="37.6094" style="stroke: #000000; stroke-width: 1.5;" width="185" x="151.5" y="246.5"/><text fill="#000000" font-family="sans-serif" font-size="14" lengthAdjust="spacingAndGlyphs" textLength="165" x="161.5" y="271.0332">Environment Management</text><!--entity Provision Engine--><rect fill="#FFFFFF" filter="url(#f8kqqj3ov1cg3)" height="37.6094" style="stroke: #000000; stroke-width: 1.5;" width="126" x="505" y="683"/><text fill="#000000" font-family="sans-serif" font-size="14" lengthAdjust="spacingAndGlyphs" textLength="106" x="515" y="707.5332">Provision Engine</text><!--entity Service Controller--><rect fill="#FFFFFF" filter="url(#f8kqqj3ov1cg3)" height="37.6094" style="stroke: #000000; stroke-width: 1.5;" width="133" x="428.5" y="580"/><text fill="#000000" font-family="sans-serif" font-size="14" lengthAdjust="spacingAndGlyphs" textLength="113" x="438.5" y="604.5332">Service Controller</text><!--entity Service Orchestrator--><rect fill="#FFFFFF" filter="url(#f8kqqj3ov1cg3)" height="37.6094" style="stroke: #000000; stroke-width: 1.5;" width="151" x="230.5" y="468.5"/><text fill="#000000" font-family="sans-serif" font-size="14" lengthAdjust="spacingAndGlyphs" textLength="131" x="240.5" y="493.0332">Service Orchestrator</text><!--entity Service Repository--><rect fill="#FFFFFF" filter="url(#f8kqqj3ov1cg3)" height="37.6094" style="stroke: #000000; stroke-width: 1.5;" width="139" x="596.5" y="580"/><text fill="#000000" font-family="sans-serif" font-size="14" lengthAdjust="spacingAndGlyphs" textLength="119" x="606.5" y="604.5332">Service Repository</text><polygon fill="#FFCC88" filter="url(#f8kqqj3ov1cg3)" points="867,8,1041,8,1048,31.6094,1055,31.6094,1055,63.2188,867,63.2188,867,8" style="stroke: #000000; stroke-width: 1.5;"/><line style="stroke: #000000; stroke-width: 1.5;" x1="867" x2="1048" y1="31.6094" y2="31.6094"/><text fill="#000000" font-family="sans-serif" font-size="14" font-weight="bold" lengthAdjust="spacingAndGlyphs" textLength="168" x="871" y="24.5332">Data Management Layer</text><polygon fill="#ADD8E6" filter="url(#f8kqqj3ov1cg3)" points="1090.5,8,1311.5,8,1318.5,31.6094,1325.5,31.6094,1325.5,63.2188,1090.5,63.2188,1090.5,8" style="stroke: #000000; stroke-width: 1.5;"/><line style="stroke: #000000; stroke-width: 1.5;" x1="1090.5" x2="1318.5" y1="31.6094" y2="31.6094"/><text fill="#000000" font-family="sans-serif" font-size="14" font-weight="bold" lengthAdjust="spacingAndGlyphs" textLength="215" x="1094.5" y="24.5332">Application Management Layer</text><ellipse cx="572" cy="35.5" fill="#FEFECE" filter="url(#f8kqqj3ov1cg3)" rx="5" ry="5" style="stroke: #A80036; stroke-width: 1.5;"/><text fill="#000000" font-family="sans-serif" font-size="12" lengthAdjust="spacingAndGlyphs" textLength="19" x="562.5" y="52.957">CLI</text><ellipse cx="617" cy="35.5" fill="#FEFECE" filter="url(#f8kqqj3ov1cg3)" rx="5" ry="5" style="stroke: #A80036; stroke-width: 1.5;"/><text fill="#000000" font-family="sans-serif" font-size="12" lengthAdjust="spacingAndGlyphs" textLength="32" x="601" y="52.957">REST</text><ellipse cx="662" cy="35.5" fill="#FEFECE" filter="url(#f8kqqj3ov1cg3)" rx="5" ry="5" style="stroke: #A80036; stroke-width: 1.5;"/><text fill="#000000" font-family="sans-serif" font-size="12" lengthAdjust="spacingAndGlyphs" textLength="25" x="649.5" y="52.957">Web</text><!--link ilol10961 to i--><path d="M572.781,40.457 C575.139,52.402 582.519,89.795 590.591,130.697 " fill="none" id="ilol10961-i" style="stroke: #A80036; stroke-width: 1.0;"/><!--link ilol10964 to i--><path d="M617,40.851 C617,53.225 617,90.352 617,130.89 " fill="none" id="ilol10964-i" style="stroke: #A80036; stroke-width: 1.0;"/><!--link ilol10967 to i--><path d="M661.219,40.457 C658.861,52.402 651.481,89.795 643.409,130.697 " fill="none" id="ilol10967-i" style="stroke: #A80036; stroke-width: 1.0;"/><!--link Environment Management to Service Orchestrator--><path d="M249.074,284.504 C260.268,324.227 287.073,419.341 299.487,463.389 " fill="none" id="Environment Management-Service Orchestrator" style="stroke: #A80036; stroke-width: 1.0;"/><polygon fill="#A80036" points="300.856,468.248,302.2633,458.5002,299.499,463.4357,294.5635,460.6714,300.856,468.248" style="stroke: #A80036; stroke-width: 1.0;"/><!--link Provision Engine to Software Defined Infrastructure--><path d="M593.605,721.203 C615.534,736.7911 647.536,759.5411 673.178,777.7693 " fill="none" id="Provision Engine-Software Defined Infrastructure" style="stroke: #A80036; stroke-width: 1.0;"/><polygon fill="#A80036" points="677.561,780.8852,672.5435,772.4103,673.4859,777.9881,667.9081,778.9305,677.561,780.8852" style="stroke: #A80036; stroke-width: 1.0;"/><!--link Service Controller to Provision Engine--><path d="M508.051,618.057 C520.225,634.9 538.433,660.093 551.587,678.292 " fill="none" id="Service Controller-Provision Engine" style="stroke: #A80036; stroke-width: 1.0;"/><polygon fill="#A80036" points="554.816,682.759,552.7853,673.1218,551.8869,678.7068,546.3018,677.8084,554.816,682.759" style="stroke: #A80036; stroke-width: 1.0;"/><!--link Service Orchestrator to Service Controller--><path d="M337.21,506.582 C370.723,525.999 423.893,556.803 459.112,577.208 " fill="none" id="Service Orchestrator-Service Controller" style="stroke: #A80036; stroke-width: 1.0;"/><polygon fill="#A80036" points="463.744,579.891,457.9631,571.9172,459.4181,577.3837,453.9515,578.8387,463.744,579.891" style="stroke: #A80036; stroke-width: 1.0;"/><!--link Service Orchestrator to Service Repository--><path d="M365.447,506.582 C430.553,526.385 534.601,558.033 601.604,578.413 " fill="none" id="Service Orchestrator-Service Repository" style="stroke: #A80036; stroke-width: 1.0;"/><polygon fill="#A80036" points="606.764,579.983,599.3164,573.5384,601.9801,578.5288,596.9897,581.1926,606.764,579.983" style="stroke: #A80036; stroke-width: 1.0;"/><!--link Service Orchestrator to Data Orchestrator--><path d="M275.121,506.582 C244.543,524.487 197.427,552.076 162.951,572.264 " fill="none" id="Service Orchestrator-Data Orchestrator" style="stroke: #A80036; stroke-width: 1.0;"/><polygon fill="#A80036" points="158.387,574.937,168.1745,573.8396,162.7013,572.4098,164.1311,566.9366,158.387,574.937" style="stroke: #A80036; stroke-width: 1.0;"/><!--link Service Orchestrator to Infrastructure Orchestrator--><path d="M306,506.582 C306,523.756 306,549.84 306,569.756 " fill="none" id="Service Orchestrator-Infrastructure Orchestrator" style="stroke: #A80036; stroke-width: 1.0;"/><polygon fill="#A80036" points="306,574.937,310,565.937,306,569.937,302,565.937,306,574.937" style="stroke: #A80036; stroke-width: 1.0;"/><!--link Service Management Layer to Software Defined Infrastructure--><path d="M768.1403,308.5445 C768.2923,309.4271 768.4453,310.3219 768.5994,311.2286 C768.9075,313.042 769.2196,314.9032 769.535,316.8109 C774.5799,347.3343 780.4451,389.7546 783.9791,438.452 C791.0473,535.8468 788.791,658.3495 752,761 C750.081,766.3536 747.273,771.5577 744.048,776.4285 " fill="none" id="Service Management Layer-Software Defined Infrastructure" style="stroke: #A80036; stroke-width: 1.0;"/><polygon fill="#A80036" points="740.982,780.8027,749.4233,775.7288,743.8519,776.7084,742.8723,771.137,740.982,780.8027" style="stroke: #A80036; stroke-width: 1.0;"/><!--link Service Management Layer to Distributed Information Management Layer--><path d="M768.3863,274.124 C768.5289,274.2536 768.6732,274.3848 768.8191,274.5174 C769.4026,275.0479 770.0125,275.6024 770.6479,276.18 C771.9186,277.3352 773.2913,278.5831 774.7594,279.9177 C777.6957,282.5871 781.0139,285.6036 784.662,288.9201 C799.2547,302.1862 819.1274,320.2523 840.9603,340.1004 C884.626,379.7965 936.1325,426.6205 968.921,456.428 " fill="none" id="Service Management Layer-Distributed Information Management Layer" style="stroke: #A80036; stroke-width: 1.0;"/><polygon fill="#A80036" points="972.749,459.908,968.7792,450.8946,969.0489,456.5451,963.3985,456.8148,972.749,459.908" style="stroke: #A80036; stroke-width: 1.0;"/><!--
@startuml


package "Software Defined Infrastructure" #lightyellow {

}

package "Distributed Information Management Layer" #ffcc88 {

}

package "Security Aspect" #pink {

}

package "Service Management Layer" #lightgreen {

}

package "Data Management Layer" #ffcc88 {

}

package "Application Management Layer" #lightblue {

}


package "Service Management Layer" #lightgreen {

    interface "Service Management Layer" as i {
            /edgemere/sml/cloud/list()
            /edgemere/sml/data/govern()
            /edgemere/sml/data/source/name()
            /edgemere/sml/environmenet/addpolicies()
            /edgemere/sml/environment/create()
            /edgemere/sml/environment/destroy()
            /edgemere/sml/environment/disable()
            /edgemere/sml/environment/enable()
            /edgemere/sml/environment/list()
            /edgemere/sml/environment/update()
            /edgemere/sml/multicloud/addclouds()
            /edgemere/sml/multicloud/addpolicies()
            /edgemere/sml/multicloud/list()
            /edgemere/sml/multicloud/removepolicies()
            /edgemere/sml/service/list()
            /edgemere/sml/stack/list()
    
    }
}

CLI ()- - i
REST ()- - i
Web ()- - i

package "Service Management Layer" #lightgreen {


rectangle "Cloud Broker" #white {
}

rectangle "Environment Management" #white {
}

rectangle "Provision Engine" #white {
}

rectangle "Service Controller" #white {
}

rectangle "Service Orchestrator" #white {
}

rectangle "Service Repository" #white {
}

    "Environment Management" - -> "Service Orchestrator"
    
    "Provision Engine" - -> "Software Defined Infrastructure"
    
    "Service Controller" - -> "Provision Engine"
    
    "Service Orchestrator" - -> "Service Controller"
    
    "Service Orchestrator" - -> "Service Repository"
    
    "Service Orchestrator" - -> "Data Orchestrator"
    
    "Service Orchestrator" - -> "Infrastructure Orchestrator"
    
}


    "Service Management Layer" - -> "Software Defined Infrastructure"

    "Service Management Layer" - -> "Distributed Information Management Layer"


@enduml

PlantUML version 1.2019.05(Sat Apr 20 09:45:36 PDT 2019)
(GPL source distribution)
Java Runtime: OpenJDK Runtime Environment
JVM: OpenJDK 64-Bit Server VM
Java Version: 12.0.1+12
Operating System: Windows 10
OS Version: 10.0
Default Encoding: Cp1252
Language: en
Country: US
--></g></svg>