<?xml version="1.0" encoding="UTF-8" standalone="no"?><svg xmlns="http://www.w3.org/2000/svg" xmlns:xlink="http://www.w3.org/1999/xlink" contentScriptType="application/ecmascript" contentStyleType="text/css" height="154px" preserveAspectRatio="none" style="width:192px;height:154px;" version="1.1" viewBox="0 0 192 154" width="192px" zoomAndPan="magnify"><defs><filter height="300%" id="fgac2mn0w7ntq" width="300%" x="-1" y="-1"><feGaussianBlur result="blurOut" stdDeviation="2.0"/><feColorMatrix in="blurOut" result="blurOut2" type="matrix" values="0 0 0 0 0 0 0 0 0 0 0 0 0 0 0 0 0 0 .4 0"/><feOffset dx="4.0" dy="4.0" in="blurOut2" result="blurOut3"/><feBlend in="SourceGraphic" in2="blurOut3" mode="normal"/></filter></defs><g><!--cluster Data Controller--><polygon fill="#ADD8E6" filter="url(#fgac2mn0w7ntq)" points="22,42,134,42,141,65.6094,170,65.6094,170,142,22,142,22,42" style="stroke: #000000; stroke-width: 1.5;"/><line style="stroke: #000000; stroke-width: 1.5;" x1="22" x2="141" y1="65.6094" y2="65.6094"/><text fill="#000000" font-family="sans-serif" font-size="14" font-weight="bold" lengthAdjust="spacingAndGlyphs" textLength="106" x="26" y="58.5332">Data Controller</text><!--class i--><rect fill="#FEFECE" filter="url(#fgac2mn0w7ntq)" height="48" id="i" style="stroke: #A80036; stroke-width: 1.5;" width="115" x="38.5" y="78"/><ellipse cx="53.5" cy="94" fill="#B4A7E5" rx="11" ry="11" style="stroke: #A80036; stroke-width: 1.0;"/><path d="M54.4531,90.6406 L54.4531,97.2969 L56.1719,97.2969 Q56.7813,97.2969 57.0469,97.5313 Q57.3125,97.7656 57.3125,98.1563 Q57.3125,98.5313 57.0469,98.7656 Q56.7813,99 56.1719,99 L51.0313,99 Q50.4219,99 50.1563,98.7656 Q49.8906,98.5313 49.8906,98.1406 Q49.8906,97.7656 50.1563,97.5313 Q50.4219,97.2969 51.0313,97.2969 L52.75,97.2969 L52.75,90.6406 L51.0313,90.6406 Q50.4219,90.6406 50.1563,90.4063 Q49.8906,90.1719 49.8906,89.7813 Q49.8906,89.4063 50.1563,89.1719 Q50.4219,88.9375 51.0313,88.9375 L56.1719,88.9375 Q56.7813,88.9375 57.0469,89.1719 Q57.3125,89.4063 57.3125,89.7813 Q57.3125,90.1719 57.0469,90.4063 Q56.7813,90.6406 56.1719,90.6406 L54.4531,90.6406 Z "/><text fill="#000000" font-family="sans-serif" font-size="12" font-style="italic" lengthAdjust="spacingAndGlyphs" textLength="83" x="67.5" y="98.9102">Data Controller</text><line style="stroke: #A80036; stroke-width: 1.5;" x1="39.5" x2="152.5" y1="110" y2="110"/><line style="stroke: #A80036; stroke-width: 1.5;" x1="39.5" x2="152.5" y1="118" y2="118"/><ellipse cx="51" cy="13" fill="#FEFECE" filter="url(#fgac2mn0w7ntq)" rx="5" ry="5" style="stroke: #A80036; stroke-width: 1.5;"/><text fill="#000000" font-family="sans-serif" font-size="12" lengthAdjust="spacingAndGlyphs" textLength="19" x="41.5" y="30.457">CLI</text><ellipse cx="96" cy="13" fill="#FEFECE" filter="url(#fgac2mn0w7ntq)" rx="5" ry="5" style="stroke: #A80036; stroke-width: 1.5;"/><text fill="#000000" font-family="sans-serif" font-size="12" lengthAdjust="spacingAndGlyphs" textLength="32" x="80" y="30.457">REST</text><ellipse cx="141" cy="13" fill="#FEFECE" filter="url(#fgac2mn0w7ntq)" rx="5" ry="5" style="stroke: #A80036; stroke-width: 1.5;"/><text fill="#000000" font-family="sans-serif" font-size="12" lengthAdjust="spacingAndGlyphs" textLength="25" x="128.5" y="30.457">Web</text><!--link ilol5193 to i--><path d="M52.9336,17.738 C58.216,27.951 73.217,56.953 84.0295,77.857 " fill="none" id="ilol5193-i" style="stroke: #A80036; stroke-width: 1.0;"/><!--link ilol5196 to i--><path d="M96,18.196 C96,28.786 96,57.218 96,77.8142 " fill="none" id="ilol5196-i" style="stroke: #A80036; stroke-width: 1.0;"/><!--link ilol5199 to i--><path d="M139.066,17.738 C133.784,27.951 118.783,56.953 107.971,77.857 " fill="none" id="ilol5199-i" style="stroke: #A80036; stroke-width: 1.0;"/><!--
@startuml



package "Data Controller" #lightblue {

    interface "Data Controller" as i {
    
    }
}

CLI ()- - i
REST ()- - i
Web ()- - i

package "Data Controller" #lightblue {
    
}



@enduml

PlantUML version 1.2019.05(Sat Apr 20 09:45:36 PDT 2019)
(GPL source distribution)
Java Runtime: OpenJDK Runtime Environment
JVM: OpenJDK 64-Bit Server VM
Java Version: 12.0.1+12
Operating System: Windows 10
OS Version: 10.0
Default Encoding: Cp1252
Language: en
Country: US
--></g></svg>