<?xml version="1.0" encoding="UTF-8" standalone="no"?><svg xmlns="http://www.w3.org/2000/svg" xmlns:xlink="http://www.w3.org/1999/xlink" contentScriptType="application/ecmascript" contentStyleType="text/css" height="294px" preserveAspectRatio="none" style="width:875px;height:294px;" version="1.1" viewBox="0 0 875 294" width="875px" zoomAndPan="magnify"><defs><filter height="300%" id="f1vtyhletolc2q" width="300%" x="-1" y="-1"><feGaussianBlur result="blurOut" stdDeviation="2.0"/><feColorMatrix in="blurOut" result="blurOut2" type="matrix" values="0 0 0 0 0 0 0 0 0 0 0 0 0 0 0 0 0 0 .4 0"/><feOffset dx="4.0" dy="4.0" in="blurOut2" result="blurOut3"/><feBlend in="SourceGraphic" in2="blurOut3" mode="normal"/></filter></defs><g><ellipse cx="433.2267" cy="171.0453" fill="#FEFECE" filter="url(#f1vtyhletolc2q)" rx="78.2267" ry="18.0453" style="stroke: #A80036; stroke-width: 1.5;"/><text fill="#000000" font-family="sans-serif" font-size="14" lengthAdjust="spacingAndGlyphs" textLength="122" x="372.2267" y="176.35">Manage Workloads</text><!--entity ApplicationDeveloper--><ellipse cx="353" cy="18" fill="#FEFECE" filter="url(#f1vtyhletolc2q)" rx="8" ry="8" style="stroke: #A80036; stroke-width: 2.0;"/><path d="M353,26 L353,53 M340,34 L366,34 M353,53 L340,68 M353,53 L366,68 " fill="none" filter="url(#f1vtyhletolc2q)" style="stroke: #A80036; stroke-width: 2.0;"/><text fill="#000000" font-family="sans-serif" font-size="14" lengthAdjust="spacingAndGlyphs" textLength="138" x="284" y="89.5332">Application Developer</text><!--entity DevOpsEngineer--><ellipse cx="513" cy="18" fill="#FEFECE" filter="url(#f1vtyhletolc2q)" rx="8" ry="8" style="stroke: #A80036; stroke-width: 2.0;"/><path d="M513,26 L513,53 M500,34 L526,34 M513,53 L500,68 M513,53 L526,68 " fill="none" filter="url(#f1vtyhletolc2q)" style="stroke: #A80036; stroke-width: 2.0;"/><text fill="#000000" font-family="sans-serif" font-size="14" lengthAdjust="spacingAndGlyphs" textLength="112" x="457" y="89.5332">DevOps Engineer</text><ellipse cx="76.7518" cy="266.0504" fill="#D3D3D3" filter="url(#f1vtyhletolc2q)" rx="70.7518" ry="16.5504" style="stroke: #A80036; stroke-width: 1.5;"/><text fill="#000000" font-family="sans-serif" font-size="14" lengthAdjust="spacingAndGlyphs" textLength="103" x="25.2518" y="271.3551">CreateWorkload</text><ellipse cx="254.1327" cy="266.1265" fill="#D3D3D3" filter="url(#f1vtyhletolc2q)" rx="71.1327" ry="16.6265" style="stroke: #A80036; stroke-width: 1.5;"/><text fill="#000000" font-family="sans-serif" font-size="14" lengthAdjust="spacingAndGlyphs" textLength="104" x="202.1327" y="271.4312">DeployWorkload</text><ellipse cx="433.0594" cy="266.0119" fill="#D3D3D3" filter="url(#f1vtyhletolc2q)" rx="73.0594" ry="17.0119" style="stroke: #A80036; stroke-width: 1.5;"/><text fill="#000000" font-family="sans-serif" font-size="14" lengthAdjust="spacingAndGlyphs" textLength="109" x="378.5594" y="271.3166">DestroyWorkload</text><ellipse cx="613.7843" cy="265.8569" fill="#D3D3D3" filter="url(#f1vtyhletolc2q)" rx="72.2843" ry="16.8569" style="stroke: #A80036; stroke-width: 1.5;"/><text fill="#000000" font-family="sans-serif" font-size="14" lengthAdjust="spacingAndGlyphs" textLength="107" x="560.2843" y="271.1615">MonitorWorkload</text><ellipse cx="793.0151" cy="266.203" fill="#D3D3D3" filter="url(#f1vtyhletolc2q)" rx="71.5151" ry="16.703" style="stroke: #A80036; stroke-width: 1.5;"/><text fill="#000000" font-family="sans-serif" font-size="14" lengthAdjust="spacingAndGlyphs" textLength="105" x="740.5151" y="271.5077">UpdateWorkload</text><!--link ApplicationDeveloper to ManageWorkloads--><path d="M381.205,93.279 C393.87,112.038 408.267,133.364 418.662,148.762 " fill="none" id="ApplicationDeveloper-ManageWorkloads" style="stroke: #A80036; stroke-width: 1.0;"/><polygon fill="#A80036" points="421.483,152.941,419.7635,143.2434,418.6858,148.7966,413.1326,147.7189,421.483,152.941" style="stroke: #A80036; stroke-width: 1.0;"/><!--link DevOpsEngineer to ManageWorkloads--><path d="M484.795,93.279 C472.13,112.038 457.733,133.364 447.338,148.762 " fill="none" id="DevOpsEngineer-ManageWorkloads" style="stroke: #A80036; stroke-width: 1.0;"/><polygon fill="#A80036" points="444.517,152.941,452.8674,147.7189,447.3142,148.7966,446.2365,143.2434,444.517,152.941" style="stroke: #A80036; stroke-width: 1.0;"/><!--link ManageWorkloads to CreateWorkload--><path d="M383.5,184.9313 C315.908,202.5885 195.385,234.0735 127.353,251.8461 " fill="none" id="ManageWorkloads-CreateWorkload" style="stroke: #A80036; stroke-width: 1.0;"/><polygon fill="#A80036" points="122.144,253.2067,131.8629,254.8011,126.9815,251.9425,129.8402,247.061,122.144,253.2067" style="stroke: #A80036; stroke-width: 1.0;"/><!--link ManageWorkloads to DeployWorkload--><path d="M402.635,187.7762 C370.311,204.57 319.361,231.0414 286.312,248.2121 " fill="none" id="ManageWorkloads-DeployWorkload" style="stroke: #A80036; stroke-width: 1.0;"/><polygon fill="#A80036" points="281.57,250.6757,291.4005,250.0749,286.0067,248.3701,287.7115,242.9762,281.57,250.6757" style="stroke: #A80036; stroke-width: 1.0;"/><!--link ManageWorkloads to DestroyWorkload--><path d="M433,189.0576 C433,204.4163 433,227.0547 433,243.618 " fill="none" id="ManageWorkloads-DestroyWorkload" style="stroke: #A80036; stroke-width: 1.0;"/><polygon fill="#A80036" points="433,248.983,437,239.983,433,243.983,429,239.983,433,248.983" style="stroke: #A80036; stroke-width: 1.0;"/><!--link ManageWorkloads to MonitorWorkload--><path d="M463.704,187.7762 C496.101,204.4219 547.001,230.575 580.438,247.7554 " fill="none" id="ManageWorkloads-MonitorWorkload" style="stroke: #A80036; stroke-width: 1.0;"/><polygon fill="#A80036" points="585.24,250.2229,579.0638,242.5512,580.793,247.9373,575.4069,249.6665,585.24,250.2229" style="stroke: #A80036; stroke-width: 1.0;"/><!--link ManageWorkloads to UpdateWorkload--><path d="M483.056,184.9313 C551.544,202.6239 673.773,234.1997 742.495,251.9528 " fill="none" id="ManageWorkloads-UpdateWorkload" style="stroke: #A80036; stroke-width: 1.0;"/><polygon fill="#A80036" points="747.349,253.2067,739.6349,247.0836,742.5078,251.9566,737.6348,254.8296,747.349,253.2067" style="stroke: #A80036; stroke-width: 1.0;"/><!--
@startuml


usecase "Manage Workloads" as ManageWorkloads

Actor "Application Developer" as ApplicationDeveloper

ApplicationDeveloper - -> ManageWorkloads

Actor "DevOps Engineer" as DevOpsEngineer

DevOpsEngineer - -> ManageWorkloads



usecase "CreateWorkload" as CreateWorkload #lightgrey

ManageWorkloads - -> CreateWorkload

usecase "DeployWorkload" as DeployWorkload #lightgrey

ManageWorkloads - -> DeployWorkload

usecase "DestroyWorkload" as DestroyWorkload #lightgrey

ManageWorkloads - -> DestroyWorkload

usecase "MonitorWorkload" as MonitorWorkload #lightgrey

ManageWorkloads - -> MonitorWorkload

usecase "UpdateWorkload" as UpdateWorkload #lightgrey

ManageWorkloads - -> UpdateWorkload

@enduml

PlantUML version 1.2019.05(Sat Apr 20 09:45:36 PDT 2019)
(GPL source distribution)
Java Runtime: OpenJDK Runtime Environment
JVM: OpenJDK 64-Bit Server VM
Java Version: 12.0.1+12
Operating System: Windows 10
OS Version: 10.0
Default Encoding: Cp1252
Language: en
Country: US
--></g></svg>