<?xml version="1.0" encoding="UTF-8" standalone="no"?><svg xmlns="http://www.w3.org/2000/svg" xmlns:xlink="http://www.w3.org/1999/xlink" contentScriptType="application/ecmascript" contentStyleType="text/css" height="509px" preserveAspectRatio="none" style="width:1138px;height:509px;" version="1.1" viewBox="0 0 1138 509" width="1138px" zoomAndPan="magnify"><defs><filter height="300%" id="f1g1k6y489xynw" width="300%" x="-1" y="-1"><feGaussianBlur result="blurOut" stdDeviation="2.0"/><feColorMatrix in="blurOut" result="blurOut2" type="matrix" values="0 0 0 0 0 0 0 0 0 0 0 0 0 0 0 0 0 0 .4 0"/><feOffset dx="4.0" dy="4.0" in="blurOut2" result="blurOut3"/><feBlend in="SourceGraphic" in2="blurOut3" mode="normal"/></filter></defs><g><rect fill="#ADD8E6" height="494.7344" style="stroke: #A80036; stroke-width: 1.0;" width="209" x="248.5" y="4"/><text fill="#000000" font-family="sans-serif" font-size="13" font-weight="bold" lengthAdjust="spacingAndGlyphs" textLength="199" x="251.5" y="17.4951">Application Management Layer</text><rect fill="#FFCC88" height="494.7344" style="stroke: #A80036; stroke-width: 1.0;" width="278" x="459.5" y="4"/><text fill="#000000" font-family="sans-serif" font-size="13" font-weight="bold" lengthAdjust="spacingAndGlyphs" textLength="272" x="462.5" y="17.4951">Distributed Information Management Layer</text><rect fill="#90EE90" height="494.7344" style="stroke: #A80036; stroke-width: 1.0;" width="181" x="739.5" y="4"/><text fill="#000000" font-family="sans-serif" font-size="13" font-weight="bold" lengthAdjust="spacingAndGlyphs" textLength="175" x="742.5" y="17.4951">Service Management Layer</text><rect fill="#FFC0CB" height="494.7344" style="stroke: #A80036; stroke-width: 1.0;" width="104" x="922.5" y="4"/><text fill="#000000" font-family="sans-serif" font-size="13" font-weight="bold" lengthAdjust="spacingAndGlyphs" textLength="98" x="925.5" y="17.4951">Security Aspect</text><rect fill="#FFC0CB" height="494.7344" style="stroke: #A80036; stroke-width: 1.0;" width="99" x="1028.5" y="4"/><text fill="#000000" font-family="sans-serif" font-size="13" font-weight="bold" lengthAdjust="spacingAndGlyphs" textLength="93" x="1031.5" y="17.4951">Identity Aspect</text><line style="stroke: #A80036; stroke-width: 1.0; stroke-dasharray: 5.0,5.0;" x1="80" x2="80" y1="87.6094" y2="411.125"/><line style="stroke: #A80036; stroke-width: 1.0; stroke-dasharray: 5.0,5.0;" x1="195" x2="195" y1="87.6094" y2="411.125"/><line style="stroke: #A80036; stroke-width: 1.0; stroke-dasharray: 5.0,5.0;" x1="352.5" x2="352.5" y1="87.6094" y2="411.125"/><line style="stroke: #A80036; stroke-width: 1.0; stroke-dasharray: 5.0,5.0;" x1="598" x2="598" y1="87.6094" y2="411.125"/><line style="stroke: #A80036; stroke-width: 1.0; stroke-dasharray: 5.0,5.0;" x1="829.5" x2="829.5" y1="87.6094" y2="411.125"/><line style="stroke: #A80036; stroke-width: 1.0; stroke-dasharray: 5.0,5.0;" x1="974" x2="974" y1="87.6094" y2="411.125"/><line style="stroke: #A80036; stroke-width: 1.0; stroke-dasharray: 5.0,5.0;" x1="1077.5" x2="1077.5" y1="87.6094" y2="411.125"/><text fill="#000000" font-family="sans-serif" font-size="14" lengthAdjust="spacingAndGlyphs" textLength="138" x="8" y="84.5332">Application Developer</text><ellipse cx="80" cy="13" fill="#FEFECE" filter="url(#f1g1k6y489xynw)" rx="8" ry="8" style="stroke: #A80036; stroke-width: 2.0;"/><path d="M80,21 L80,48 M67,29 L93,29 M80,48 L67,63 M80,48 L93,63 " fill="none" filter="url(#f1g1k6y489xynw)" style="stroke: #A80036; stroke-width: 2.0;"/><text fill="#000000" font-family="sans-serif" font-size="14" lengthAdjust="spacingAndGlyphs" textLength="138" x="8" y="424.6582">Application Developer</text><ellipse cx="80" cy="437.7344" fill="#FEFECE" filter="url(#f1g1k6y489xynw)" rx="8" ry="8" style="stroke: #A80036; stroke-width: 2.0;"/><path d="M80,445.7344 L80,472.7344 M67,453.7344 L93,453.7344 M80,472.7344 L67,487.7344 M80,472.7344 L93,487.7344 " fill="none" filter="url(#f1g1k6y489xynw)" style="stroke: #A80036; stroke-width: 2.0;"/><text fill="#000000" font-family="sans-serif" font-size="14" lengthAdjust="spacingAndGlyphs" textLength="60" x="162" y="84.5332">EventBus</text><ellipse cx="195" cy="54" fill="#FEFECE" filter="url(#f1g1k6y489xynw)" rx="12" ry="12" style="stroke: #A80036; stroke-width: 2.0;"/><line style="stroke: #A80036; stroke-width: 2.0;" x1="183" x2="207" y1="68" y2="68"/><text fill="#000000" font-family="sans-serif" font-size="14" lengthAdjust="spacingAndGlyphs" textLength="60" x="162" y="424.6582">EventBus</text><ellipse cx="195" cy="443.7344" fill="#FEFECE" filter="url(#f1g1k6y489xynw)" rx="12" ry="12" style="stroke: #A80036; stroke-width: 2.0;"/><line style="stroke: #A80036; stroke-width: 2.0;" x1="183" x2="207" y1="457.7344" y2="457.7344"/><text fill="#000000" font-family="sans-serif" font-size="14" lengthAdjust="spacingAndGlyphs" textLength="22" x="339" y="84.5332">aml</text><path d="M332.5,42 L332.5,66 M332.5,54 L349.5,54 " fill="none" filter="url(#f1g1k6y489xynw)" style="stroke: #A80036; stroke-width: 2.0;"/><ellipse cx="361.5" cy="54" fill="#FFFFFF" filter="url(#f1g1k6y489xynw)" rx="12" ry="12" style="stroke: #A80036; stroke-width: 2.0;"/><text fill="#000000" font-family="sans-serif" font-size="14" lengthAdjust="spacingAndGlyphs" textLength="22" x="339" y="424.6582">aml</text><path d="M332.5,431.7344 L332.5,455.7344 M332.5,443.7344 L349.5,443.7344 " fill="none" filter="url(#f1g1k6y489xynw)" style="stroke: #A80036; stroke-width: 2.0;"/><ellipse cx="361.5" cy="443.7344" fill="#FFFFFF" filter="url(#f1g1k6y489xynw)" rx="12" ry="12" style="stroke: #A80036; stroke-width: 2.0;"/><text fill="#000000" font-family="sans-serif" font-size="14" lengthAdjust="spacingAndGlyphs" textLength="25" x="583" y="84.5332">diml</text><path d="M578,42 L578,66 M578,54 L595,54 " fill="none" filter="url(#f1g1k6y489xynw)" style="stroke: #A80036; stroke-width: 2.0;"/><ellipse cx="607" cy="54" fill="#FFFFFF" filter="url(#f1g1k6y489xynw)" rx="12" ry="12" style="stroke: #A80036; stroke-width: 2.0;"/><text fill="#000000" font-family="sans-serif" font-size="14" lengthAdjust="spacingAndGlyphs" textLength="25" x="583" y="424.6582">diml</text><path d="M578,431.7344 L578,455.7344 M578,443.7344 L595,443.7344 " fill="none" filter="url(#f1g1k6y489xynw)" style="stroke: #A80036; stroke-width: 2.0;"/><ellipse cx="607" cy="443.7344" fill="#FFFFFF" filter="url(#f1g1k6y489xynw)" rx="12" ry="12" style="stroke: #A80036; stroke-width: 2.0;"/><text fill="#000000" font-family="sans-serif" font-size="14" lengthAdjust="spacingAndGlyphs" textLength="21" x="816.5" y="84.5332">sml</text><path d="M809.5,42 L809.5,66 M809.5,54 L826.5,54 " fill="none" filter="url(#f1g1k6y489xynw)" style="stroke: #A80036; stroke-width: 2.0;"/><ellipse cx="838.5" cy="54" fill="#FFFFFF" filter="url(#f1g1k6y489xynw)" rx="12" ry="12" style="stroke: #A80036; stroke-width: 2.0;"/><text fill="#000000" font-family="sans-serif" font-size="14" lengthAdjust="spacingAndGlyphs" textLength="21" x="816.5" y="424.6582">sml</text><path d="M809.5,431.7344 L809.5,455.7344 M809.5,443.7344 L826.5,443.7344 " fill="none" filter="url(#f1g1k6y489xynw)" style="stroke: #A80036; stroke-width: 2.0;"/><ellipse cx="838.5" cy="443.7344" fill="#FFFFFF" filter="url(#f1g1k6y489xynw)" rx="12" ry="12" style="stroke: #A80036; stroke-width: 2.0;"/><text fill="#000000" font-family="sans-serif" font-size="14" lengthAdjust="spacingAndGlyphs" textLength="15" x="964" y="84.5332">sa</text><path d="M954,42 L954,66 M954,54 L971,54 " fill="none" filter="url(#f1g1k6y489xynw)" style="stroke: #A80036; stroke-width: 2.0;"/><ellipse cx="983" cy="54" fill="#FFFFFF" filter="url(#f1g1k6y489xynw)" rx="12" ry="12" style="stroke: #A80036; stroke-width: 2.0;"/><text fill="#000000" font-family="sans-serif" font-size="14" lengthAdjust="spacingAndGlyphs" textLength="15" x="964" y="424.6582">sa</text><path d="M954,431.7344 L954,455.7344 M954,443.7344 L971,443.7344 " fill="none" filter="url(#f1g1k6y489xynw)" style="stroke: #A80036; stroke-width: 2.0;"/><ellipse cx="983" cy="443.7344" fill="#FFFFFF" filter="url(#f1g1k6y489xynw)" rx="12" ry="12" style="stroke: #A80036; stroke-width: 2.0;"/><text fill="#000000" font-family="sans-serif" font-size="14" lengthAdjust="spacingAndGlyphs" textLength="11" x="1069.5" y="84.5332">ia</text><path d="M1057.5,42 L1057.5,66 M1057.5,54 L1074.5,54 " fill="none" filter="url(#f1g1k6y489xynw)" style="stroke: #A80036; stroke-width: 2.0;"/><ellipse cx="1086.5" cy="54" fill="#FFFFFF" filter="url(#f1g1k6y489xynw)" rx="12" ry="12" style="stroke: #A80036; stroke-width: 2.0;"/><text fill="#000000" font-family="sans-serif" font-size="14" lengthAdjust="spacingAndGlyphs" textLength="11" x="1069.5" y="424.6582">ia</text><path d="M1057.5,431.7344 L1057.5,455.7344 M1057.5,443.7344 L1074.5,443.7344 " fill="none" filter="url(#f1g1k6y489xynw)" style="stroke: #A80036; stroke-width: 2.0;"/><ellipse cx="1086.5" cy="443.7344" fill="#FFFFFF" filter="url(#f1g1k6y489xynw)" rx="12" ry="12" style="stroke: #A80036; stroke-width: 2.0;"/><polygon fill="#A80036" points="341,115.9609,351,119.9609,341,123.9609,345,119.9609" style="stroke: #A80036; stroke-width: 1.0;"/><line style="stroke: #A80036; stroke-width: 1.0;" x1="80" x2="347" y1="119.9609" y2="119.9609"/><text fill="#000000" font-family="sans-serif" font-size="13" lengthAdjust="spacingAndGlyphs" textLength="97" x="87" y="115.1045">Create Workload</text><polygon fill="#A80036" points="586.5,146.3125,596.5,150.3125,586.5,150.3125" style="stroke: #A80036; stroke-width: 1.0;"/><line style="stroke: #A80036; stroke-width: 1.0;" x1="195" x2="597.5" y1="150.3125" y2="150.3125"/><text fill="#000000" font-family="sans-serif" font-size="13" lengthAdjust="spacingAndGlyphs" textLength="51" x="202" y="145.4561">method()</text><polygon fill="#A80036" points="206,181.6641,196,181.6641,206,185.6641" style="stroke: #A80036; stroke-width: 1.0;"/><line style="stroke: #A80036; stroke-width: 1.0; stroke-dasharray: 2.0,2.0;" x1="195" x2="597.5" y1="180.6641" y2="180.6641"/><text fill="#000000" font-family="sans-serif" font-size="13" lengthAdjust="spacingAndGlyphs" textLength="78" x="212" y="175.8076">Model.Event2</text><polygon fill="#A80036" points="818,207.0156,828,211.0156,818,211.0156" style="stroke: #A80036; stroke-width: 1.0;"/><line style="stroke: #A80036; stroke-width: 1.0;" x1="195" x2="829" y1="211.0156" y2="211.0156"/><text fill="#000000" font-family="sans-serif" font-size="13" lengthAdjust="spacingAndGlyphs" textLength="51" x="202" y="206.1592">method()</text><polygon fill="#A80036" points="206,242.3672,196,242.3672,206,246.3672" style="stroke: #A80036; stroke-width: 1.0;"/><line style="stroke: #A80036; stroke-width: 1.0; stroke-dasharray: 2.0,2.0;" x1="195" x2="829" y1="241.3672" y2="241.3672"/><text fill="#000000" font-family="sans-serif" font-size="13" lengthAdjust="spacingAndGlyphs" textLength="78" x="212" y="236.5107">Model.Event2</text><polygon fill="#A80036" points="962.5,267.7188,972.5,271.7188,962.5,271.7188" style="stroke: #A80036; stroke-width: 1.0;"/><line style="stroke: #A80036; stroke-width: 1.0;" x1="195" x2="973.5" y1="271.7188" y2="271.7188"/><text fill="#000000" font-family="sans-serif" font-size="13" lengthAdjust="spacingAndGlyphs" textLength="51" x="202" y="266.8623">method()</text><polygon fill="#A80036" points="206,303.0703,196,303.0703,206,307.0703" style="stroke: #A80036; stroke-width: 1.0;"/><line style="stroke: #A80036; stroke-width: 1.0; stroke-dasharray: 2.0,2.0;" x1="195" x2="973.5" y1="302.0703" y2="302.0703"/><text fill="#000000" font-family="sans-serif" font-size="13" lengthAdjust="spacingAndGlyphs" textLength="78" x="212" y="297.2139">Model.Event2</text><polygon fill="#A80036" points="1066,328.4219,1076,332.4219,1066,332.4219" style="stroke: #A80036; stroke-width: 1.0;"/><line style="stroke: #A80036; stroke-width: 1.0;" x1="195" x2="1077" y1="332.4219" y2="332.4219"/><text fill="#000000" font-family="sans-serif" font-size="13" lengthAdjust="spacingAndGlyphs" textLength="51" x="202" y="327.5654">method()</text><polygon fill="#A80036" points="206,363.7734,196,363.7734,206,367.7734" style="stroke: #A80036; stroke-width: 1.0;"/><line style="stroke: #A80036; stroke-width: 1.0; stroke-dasharray: 2.0,2.0;" x1="195" x2="1077" y1="362.7734" y2="362.7734"/><text fill="#000000" font-family="sans-serif" font-size="13" lengthAdjust="spacingAndGlyphs" textLength="78" x="212" y="357.917">Model.Event2</text><polygon fill="#A80036" points="341,394.125,351,394.125,341,398.125" style="stroke: #A80036; stroke-width: 1.0;"/><line style="stroke: #A80036; stroke-width: 1.0; stroke-dasharray: 2.0,2.0;" x1="195" x2="352" y1="393.125" y2="393.125"/><text fill="#000000" font-family="sans-serif" font-size="13" lengthAdjust="spacingAndGlyphs" textLength="58" x="202" y="388.2686">method2()</text><!--
@startuml

actor "Application Developer"


entity EventBus

box Application Management Layer #lightblue
    boundary aml #white
end box



"Application Developer" -> aml: Create Workload



box "Distributed Information Management Layer" #ffcc88
    boundary diml #white
end box
EventBus -\ diml: method()
diml - -/ EventBus: Model.Event2
box "Service Management Layer" #lightgreen
    boundary sml #white
end box
EventBus -\ sml: method()
sml - -/ EventBus: Model.Event2
box "Security Aspect" #pink
    boundary sa #white
end box
EventBus -\ sa: method()
sa - -/ EventBus: Model.Event2
box "Identity Aspect" #pink
    boundary ia #white
end box
EventBus -\ ia: method()
ia - -/ EventBus: Model.Event2

EventBus - -/ aml : method2()
@enduml

PlantUML version 1.2019.05(Sat Apr 20 09:45:36 PDT 2019)
(GPL source distribution)
Java Runtime: OpenJDK Runtime Environment
JVM: OpenJDK 64-Bit Server VM
Java Version: 12.0.1+12
Operating System: Windows 10
OS Version: 10.0
Default Encoding: Cp1252
Language: en
Country: US
--></g></svg>