<?xml version="1.0" encoding="UTF-8" standalone="no"?><svg xmlns="http://www.w3.org/2000/svg" xmlns:xlink="http://www.w3.org/1999/xlink" contentScriptType="application/ecmascript" contentStyleType="text/css" height="540px" preserveAspectRatio="none" style="width:1266px;height:540px;" version="1.1" viewBox="0 0 1266 540" width="1266px" zoomAndPan="magnify"><defs><filter height="300%" id="f1hcfng85653qu" width="300%" x="-1" y="-1"><feGaussianBlur result="blurOut" stdDeviation="2.0"/><feColorMatrix in="blurOut" result="blurOut2" type="matrix" values="0 0 0 0 0 0 0 0 0 0 0 0 0 0 0 0 0 0 .4 0"/><feOffset dx="4.0" dy="4.0" in="blurOut2" result="blurOut3"/><feBlend in="SourceGraphic" in2="blurOut3" mode="normal"/></filter></defs><g><rect fill="#ADD8E6" height="525.0859" style="stroke: #A80036; stroke-width: 1.0;" width="209" x="376.5" y="4"/><text fill="#000000" font-family="sans-serif" font-size="13" font-weight="bold" lengthAdjust="spacingAndGlyphs" textLength="199" x="379.5" y="17.4951">Application Management Layer</text><rect fill="#FFCC88" height="525.0859" style="stroke: #A80036; stroke-width: 1.0;" width="278" x="587.5" y="4"/><text fill="#000000" font-family="sans-serif" font-size="13" font-weight="bold" lengthAdjust="spacingAndGlyphs" textLength="272" x="590.5" y="17.4951">Distributed Information Management Layer</text><rect fill="#90EE90" height="525.0859" style="stroke: #A80036; stroke-width: 1.0;" width="181" x="867.5" y="4"/><text fill="#000000" font-family="sans-serif" font-size="13" font-weight="bold" lengthAdjust="spacingAndGlyphs" textLength="175" x="870.5" y="17.4951">Service Management Layer</text><rect fill="#FFC0CB" height="525.0859" style="stroke: #A80036; stroke-width: 1.0;" width="104" x="1050.5" y="4"/><text fill="#000000" font-family="sans-serif" font-size="13" font-weight="bold" lengthAdjust="spacingAndGlyphs" textLength="98" x="1053.5" y="17.4951">Security Aspect</text><rect fill="#FFC0CB" height="525.0859" style="stroke: #A80036; stroke-width: 1.0;" width="99" x="1156.5" y="4"/><text fill="#000000" font-family="sans-serif" font-size="13" font-weight="bold" lengthAdjust="spacingAndGlyphs" textLength="93" x="1159.5" y="17.4951">Identity Aspect</text><line style="stroke: #A80036; stroke-width: 1.0; stroke-dasharray: 5.0,5.0;" x1="80" x2="80" y1="87.6094" y2="441.4766"/><line style="stroke: #A80036; stroke-width: 1.0; stroke-dasharray: 5.0,5.0;" x1="221" x2="221" y1="87.6094" y2="441.4766"/><line style="stroke: #A80036; stroke-width: 1.0; stroke-dasharray: 5.0,5.0;" x1="323" x2="323" y1="87.6094" y2="441.4766"/><line style="stroke: #A80036; stroke-width: 1.0; stroke-dasharray: 5.0,5.0;" x1="480.5" x2="480.5" y1="87.6094" y2="441.4766"/><line style="stroke: #A80036; stroke-width: 1.0; stroke-dasharray: 5.0,5.0;" x1="726" x2="726" y1="87.6094" y2="441.4766"/><line style="stroke: #A80036; stroke-width: 1.0; stroke-dasharray: 5.0,5.0;" x1="957.5" x2="957.5" y1="87.6094" y2="441.4766"/><line style="stroke: #A80036; stroke-width: 1.0; stroke-dasharray: 5.0,5.0;" x1="1102" x2="1102" y1="87.6094" y2="441.4766"/><line style="stroke: #A80036; stroke-width: 1.0; stroke-dasharray: 5.0,5.0;" x1="1205.5" x2="1205.5" y1="87.6094" y2="441.4766"/><text fill="#000000" font-family="sans-serif" font-size="14" lengthAdjust="spacingAndGlyphs" textLength="138" x="8" y="84.5332">Application Developer</text><ellipse cx="80" cy="13" fill="#FEFECE" filter="url(#f1hcfng85653qu)" rx="8" ry="8" style="stroke: #A80036; stroke-width: 2.0;"/><path d="M80,21 L80,48 M67,29 L93,29 M80,48 L67,63 M80,48 L93,63 " fill="none" filter="url(#f1hcfng85653qu)" style="stroke: #A80036; stroke-width: 2.0;"/><text fill="#000000" font-family="sans-serif" font-size="14" lengthAdjust="spacingAndGlyphs" textLength="138" x="8" y="455.0098">Application Developer</text><ellipse cx="80" cy="468.0859" fill="#FEFECE" filter="url(#f1hcfng85653qu)" rx="8" ry="8" style="stroke: #A80036; stroke-width: 2.0;"/><path d="M80,476.0859 L80,503.0859 M67,484.0859 L93,484.0859 M80,503.0859 L67,518.0859 M80,503.0859 L93,518.0859 " fill="none" filter="url(#f1hcfng85653qu)" style="stroke: #A80036; stroke-width: 2.0;"/><text fill="#000000" font-family="sans-serif" font-size="14" lengthAdjust="spacingAndGlyphs" textLength="112" x="162" y="84.5332">DevOps Engineer</text><ellipse cx="221" cy="13" fill="#FEFECE" filter="url(#f1hcfng85653qu)" rx="8" ry="8" style="stroke: #A80036; stroke-width: 2.0;"/><path d="M221,21 L221,48 M208,29 L234,29 M221,48 L208,63 M221,48 L234,63 " fill="none" filter="url(#f1hcfng85653qu)" style="stroke: #A80036; stroke-width: 2.0;"/><text fill="#000000" font-family="sans-serif" font-size="14" lengthAdjust="spacingAndGlyphs" textLength="112" x="162" y="455.0098">DevOps Engineer</text><ellipse cx="221" cy="468.0859" fill="#FEFECE" filter="url(#f1hcfng85653qu)" rx="8" ry="8" style="stroke: #A80036; stroke-width: 2.0;"/><path d="M221,476.0859 L221,503.0859 M208,484.0859 L234,484.0859 M221,503.0859 L208,518.0859 M221,503.0859 L234,518.0859 " fill="none" filter="url(#f1hcfng85653qu)" style="stroke: #A80036; stroke-width: 2.0;"/><text fill="#000000" font-family="sans-serif" font-size="14" lengthAdjust="spacingAndGlyphs" textLength="60" x="290" y="84.5332">EventBus</text><ellipse cx="323" cy="54" fill="#FEFECE" filter="url(#f1hcfng85653qu)" rx="12" ry="12" style="stroke: #A80036; stroke-width: 2.0;"/><line style="stroke: #A80036; stroke-width: 2.0;" x1="311" x2="335" y1="68" y2="68"/><text fill="#000000" font-family="sans-serif" font-size="14" lengthAdjust="spacingAndGlyphs" textLength="60" x="290" y="455.0098">EventBus</text><ellipse cx="323" cy="474.0859" fill="#FEFECE" filter="url(#f1hcfng85653qu)" rx="12" ry="12" style="stroke: #A80036; stroke-width: 2.0;"/><line style="stroke: #A80036; stroke-width: 2.0;" x1="311" x2="335" y1="488.0859" y2="488.0859"/><text fill="#000000" font-family="sans-serif" font-size="14" lengthAdjust="spacingAndGlyphs" textLength="22" x="467" y="84.5332">aml</text><path d="M460.5,42 L460.5,66 M460.5,54 L477.5,54 " fill="none" filter="url(#f1hcfng85653qu)" style="stroke: #A80036; stroke-width: 2.0;"/><ellipse cx="489.5" cy="54" fill="#FFFFFF" filter="url(#f1hcfng85653qu)" rx="12" ry="12" style="stroke: #A80036; stroke-width: 2.0;"/><text fill="#000000" font-family="sans-serif" font-size="14" lengthAdjust="spacingAndGlyphs" textLength="22" x="467" y="455.0098">aml</text><path d="M460.5,462.0859 L460.5,486.0859 M460.5,474.0859 L477.5,474.0859 " fill="none" filter="url(#f1hcfng85653qu)" style="stroke: #A80036; stroke-width: 2.0;"/><ellipse cx="489.5" cy="474.0859" fill="#FFFFFF" filter="url(#f1hcfng85653qu)" rx="12" ry="12" style="stroke: #A80036; stroke-width: 2.0;"/><text fill="#000000" font-family="sans-serif" font-size="14" lengthAdjust="spacingAndGlyphs" textLength="25" x="711" y="84.5332">diml</text><path d="M706,42 L706,66 M706,54 L723,54 " fill="none" filter="url(#f1hcfng85653qu)" style="stroke: #A80036; stroke-width: 2.0;"/><ellipse cx="735" cy="54" fill="#FFFFFF" filter="url(#f1hcfng85653qu)" rx="12" ry="12" style="stroke: #A80036; stroke-width: 2.0;"/><text fill="#000000" font-family="sans-serif" font-size="14" lengthAdjust="spacingAndGlyphs" textLength="25" x="711" y="455.0098">diml</text><path d="M706,462.0859 L706,486.0859 M706,474.0859 L723,474.0859 " fill="none" filter="url(#f1hcfng85653qu)" style="stroke: #A80036; stroke-width: 2.0;"/><ellipse cx="735" cy="474.0859" fill="#FFFFFF" filter="url(#f1hcfng85653qu)" rx="12" ry="12" style="stroke: #A80036; stroke-width: 2.0;"/><text fill="#000000" font-family="sans-serif" font-size="14" lengthAdjust="spacingAndGlyphs" textLength="21" x="944.5" y="84.5332">sml</text><path d="M937.5,42 L937.5,66 M937.5,54 L954.5,54 " fill="none" filter="url(#f1hcfng85653qu)" style="stroke: #A80036; stroke-width: 2.0;"/><ellipse cx="966.5" cy="54" fill="#FFFFFF" filter="url(#f1hcfng85653qu)" rx="12" ry="12" style="stroke: #A80036; stroke-width: 2.0;"/><text fill="#000000" font-family="sans-serif" font-size="14" lengthAdjust="spacingAndGlyphs" textLength="21" x="944.5" y="455.0098">sml</text><path d="M937.5,462.0859 L937.5,486.0859 M937.5,474.0859 L954.5,474.0859 " fill="none" filter="url(#f1hcfng85653qu)" style="stroke: #A80036; stroke-width: 2.0;"/><ellipse cx="966.5" cy="474.0859" fill="#FFFFFF" filter="url(#f1hcfng85653qu)" rx="12" ry="12" style="stroke: #A80036; stroke-width: 2.0;"/><text fill="#000000" font-family="sans-serif" font-size="14" lengthAdjust="spacingAndGlyphs" textLength="15" x="1092" y="84.5332">sa</text><path d="M1082,42 L1082,66 M1082,54 L1099,54 " fill="none" filter="url(#f1hcfng85653qu)" style="stroke: #A80036; stroke-width: 2.0;"/><ellipse cx="1111" cy="54" fill="#FFFFFF" filter="url(#f1hcfng85653qu)" rx="12" ry="12" style="stroke: #A80036; stroke-width: 2.0;"/><text fill="#000000" font-family="sans-serif" font-size="14" lengthAdjust="spacingAndGlyphs" textLength="15" x="1092" y="455.0098">sa</text><path d="M1082,462.0859 L1082,486.0859 M1082,474.0859 L1099,474.0859 " fill="none" filter="url(#f1hcfng85653qu)" style="stroke: #A80036; stroke-width: 2.0;"/><ellipse cx="1111" cy="474.0859" fill="#FFFFFF" filter="url(#f1hcfng85653qu)" rx="12" ry="12" style="stroke: #A80036; stroke-width: 2.0;"/><text fill="#000000" font-family="sans-serif" font-size="14" lengthAdjust="spacingAndGlyphs" textLength="11" x="1197.5" y="84.5332">ia</text><path d="M1185.5,42 L1185.5,66 M1185.5,54 L1202.5,54 " fill="none" filter="url(#f1hcfng85653qu)" style="stroke: #A80036; stroke-width: 2.0;"/><ellipse cx="1214.5" cy="54" fill="#FFFFFF" filter="url(#f1hcfng85653qu)" rx="12" ry="12" style="stroke: #A80036; stroke-width: 2.0;"/><text fill="#000000" font-family="sans-serif" font-size="14" lengthAdjust="spacingAndGlyphs" textLength="11" x="1197.5" y="455.0098">ia</text><path d="M1185.5,462.0859 L1185.5,486.0859 M1185.5,474.0859 L1202.5,474.0859 " fill="none" filter="url(#f1hcfng85653qu)" style="stroke: #A80036; stroke-width: 2.0;"/><ellipse cx="1214.5" cy="474.0859" fill="#FFFFFF" filter="url(#f1hcfng85653qu)" rx="12" ry="12" style="stroke: #A80036; stroke-width: 2.0;"/><polygon fill="#A80036" points="469,115.9609,479,119.9609,469,123.9609,473,119.9609" style="stroke: #A80036; stroke-width: 1.0;"/><line style="stroke: #A80036; stroke-width: 1.0;" x1="80" x2="475" y1="119.9609" y2="119.9609"/><text fill="#000000" font-family="sans-serif" font-size="13" lengthAdjust="spacingAndGlyphs" textLength="102" x="87" y="115.1045">Monitor Workload</text><polygon fill="#A80036" points="469,146.3125,479,150.3125,469,154.3125,473,150.3125" style="stroke: #A80036; stroke-width: 1.0;"/><line style="stroke: #A80036; stroke-width: 1.0;" x1="221" x2="475" y1="150.3125" y2="150.3125"/><text fill="#000000" font-family="sans-serif" font-size="13" lengthAdjust="spacingAndGlyphs" textLength="102" x="228" y="145.4561">Monitor Workload</text><polygon fill="#A80036" points="714.5,176.6641,724.5,180.6641,714.5,180.6641" style="stroke: #A80036; stroke-width: 1.0;"/><line style="stroke: #A80036; stroke-width: 1.0;" x1="323" x2="725.5" y1="180.6641" y2="180.6641"/><text fill="#000000" font-family="sans-serif" font-size="13" lengthAdjust="spacingAndGlyphs" textLength="51" x="330" y="175.8076">method()</text><polygon fill="#A80036" points="334,212.0156,324,212.0156,334,216.0156" style="stroke: #A80036; stroke-width: 1.0;"/><line style="stroke: #A80036; stroke-width: 1.0; stroke-dasharray: 2.0,2.0;" x1="323" x2="725.5" y1="211.0156" y2="211.0156"/><text fill="#000000" font-family="sans-serif" font-size="13" lengthAdjust="spacingAndGlyphs" textLength="78" x="340" y="206.1592">Model.Event2</text><polygon fill="#A80036" points="946,237.3672,956,241.3672,946,241.3672" style="stroke: #A80036; stroke-width: 1.0;"/><line style="stroke: #A80036; stroke-width: 1.0;" x1="323" x2="957" y1="241.3672" y2="241.3672"/><text fill="#000000" font-family="sans-serif" font-size="13" lengthAdjust="spacingAndGlyphs" textLength="51" x="330" y="236.5107">method()</text><polygon fill="#A80036" points="334,272.7188,324,272.7188,334,276.7188" style="stroke: #A80036; stroke-width: 1.0;"/><line style="stroke: #A80036; stroke-width: 1.0; stroke-dasharray: 2.0,2.0;" x1="323" x2="957" y1="271.7188" y2="271.7188"/><text fill="#000000" font-family="sans-serif" font-size="13" lengthAdjust="spacingAndGlyphs" textLength="78" x="340" y="266.8623">Model.Event2</text><polygon fill="#A80036" points="1090.5,298.0703,1100.5,302.0703,1090.5,302.0703" style="stroke: #A80036; stroke-width: 1.0;"/><line style="stroke: #A80036; stroke-width: 1.0;" x1="323" x2="1101.5" y1="302.0703" y2="302.0703"/><text fill="#000000" font-family="sans-serif" font-size="13" lengthAdjust="spacingAndGlyphs" textLength="51" x="330" y="297.2139">method()</text><polygon fill="#A80036" points="334,333.4219,324,333.4219,334,337.4219" style="stroke: #A80036; stroke-width: 1.0;"/><line style="stroke: #A80036; stroke-width: 1.0; stroke-dasharray: 2.0,2.0;" x1="323" x2="1101.5" y1="332.4219" y2="332.4219"/><text fill="#000000" font-family="sans-serif" font-size="13" lengthAdjust="spacingAndGlyphs" textLength="78" x="340" y="327.5654">Model.Event2</text><polygon fill="#A80036" points="1194,358.7734,1204,362.7734,1194,362.7734" style="stroke: #A80036; stroke-width: 1.0;"/><line style="stroke: #A80036; stroke-width: 1.0;" x1="323" x2="1205" y1="362.7734" y2="362.7734"/><text fill="#000000" font-family="sans-serif" font-size="13" lengthAdjust="spacingAndGlyphs" textLength="51" x="330" y="357.917">method()</text><polygon fill="#A80036" points="334,394.125,324,394.125,334,398.125" style="stroke: #A80036; stroke-width: 1.0;"/><line style="stroke: #A80036; stroke-width: 1.0; stroke-dasharray: 2.0,2.0;" x1="323" x2="1205" y1="393.125" y2="393.125"/><text fill="#000000" font-family="sans-serif" font-size="13" lengthAdjust="spacingAndGlyphs" textLength="78" x="340" y="388.2686">Model.Event2</text><polygon fill="#A80036" points="469,424.4766,479,424.4766,469,428.4766" style="stroke: #A80036; stroke-width: 1.0;"/><line style="stroke: #A80036; stroke-width: 1.0; stroke-dasharray: 2.0,2.0;" x1="323" x2="480" y1="423.4766" y2="423.4766"/><text fill="#000000" font-family="sans-serif" font-size="13" lengthAdjust="spacingAndGlyphs" textLength="58" x="330" y="418.6201">method2()</text><!--
@startuml

actor "Application Developer"

actor "DevOps Engineer"


entity EventBus

box Application Management Layer #lightblue
    boundary aml #white
end box



"Application Developer" -> aml: Monitor Workload


"DevOps Engineer" -> aml: Monitor Workload



box "Distributed Information Management Layer" #ffcc88
    boundary diml #white
end box
EventBus -\ diml: method()
diml - -/ EventBus: Model.Event2
box "Service Management Layer" #lightgreen
    boundary sml #white
end box
EventBus -\ sml: method()
sml - -/ EventBus: Model.Event2
box "Security Aspect" #pink
    boundary sa #white
end box
EventBus -\ sa: method()
sa - -/ EventBus: Model.Event2
box "Identity Aspect" #pink
    boundary ia #white
end box
EventBus -\ ia: method()
ia - -/ EventBus: Model.Event2

EventBus - -/ aml : method2()
@enduml

PlantUML version 1.2019.05(Sat Apr 20 09:45:36 PDT 2019)
(GPL source distribution)
Java Runtime: OpenJDK Runtime Environment
JVM: OpenJDK 64-Bit Server VM
Java Version: 12.0.1+12
Operating System: Windows 10
OS Version: 10.0
Default Encoding: Cp1252
Language: en
Country: US
--></g></svg>