<?xml version="1.0" encoding="UTF-8" standalone="no"?><svg xmlns="http://www.w3.org/2000/svg" xmlns:xlink="http://www.w3.org/1999/xlink" contentScriptType="application/ecmascript" contentStyleType="text/css" height="196px" preserveAspectRatio="none" style="width:111px;height:196px;" version="1.1" viewBox="0 0 111 196" width="111px" zoomAndPan="magnify"><defs><filter height="300%" id="f1w4us61b2sd0y" width="300%" x="-1" y="-1"><feGaussianBlur result="blurOut" stdDeviation="2.0"/><feColorMatrix in="blurOut" result="blurOut2" type="matrix" values="0 0 0 0 0 0 0 0 0 0 0 0 0 0 0 0 0 0 .4 0"/><feOffset dx="4.0" dy="4.0" in="blurOut2" result="blurOut3"/><feBlend in="SourceGraphic" in2="blurOut3" mode="normal"/></filter></defs><g><!--entity ModelName--><rect fill="#ADD8E6" filter="url(#f1w4us61b2sd0y)" height="37.6094" style="stroke: #000000; stroke-width: 1.5;" width="94" x="6" y="148"/><text fill="#000000" font-family="sans-serif" font-size="14" lengthAdjust="spacingAndGlyphs" textLength="74" x="16" y="172.5332">ModelName</text><!--class Model--><rect fill="#FEFECE" filter="url(#f1w4us61b2sd0y)" height="61.8359" id="Model" style="stroke: #A80036; stroke-width: 1.5;" width="75" x="15.5" y="8"/><ellipse cx="30.5" cy="24" fill="#ADD1B2" rx="11" ry="11" style="stroke: #A80036; stroke-width: 1.0;"/><path d="M33.2656,19.875 Q33.4219,19.6563 33.6094,19.5469 Q33.7969,19.4375 34.0156,19.4375 Q34.3906,19.4375 34.625,19.7031 Q34.8594,19.9531 34.8594,20.5625 L34.8594,22.0156 Q34.8594,22.625 34.625,22.8906 Q34.3906,23.1563 34.0156,23.1563 Q33.6719,23.1563 33.4688,22.9531 Q33.2656,22.7656 33.1563,22.25 Q33.1094,21.8906 32.9219,21.7031 Q32.5938,21.3281 31.9844,21.1094 Q31.375,20.8906 30.75,20.8906 Q29.9844,20.8906 29.3438,21.2188 Q28.7188,21.5469 28.2188,22.2969 Q27.7344,23.0469 27.7344,24.0781 L27.7344,25.1719 Q27.7344,26.4063 28.625,27.2344 Q29.5156,28.0469 31.1094,28.0469 Q32.0469,28.0469 32.7031,27.7969 Q33.0938,27.6406 33.5156,27.2031 Q33.7813,26.9375 33.9219,26.8594 Q34.0781,26.7813 34.2813,26.7813 Q34.6094,26.7813 34.8594,27.0469 Q35.125,27.2969 35.125,27.6406 Q35.125,27.9844 34.7813,28.3906 Q34.2813,28.9688 33.4844,29.2969 Q32.4063,29.75 31.1094,29.75 Q29.5938,29.75 28.3906,29.125 Q27.4063,28.625 26.7188,27.5625 Q26.0313,26.4844 26.0313,25.2031 L26.0313,24.0469 Q26.0313,22.7188 26.6406,21.5781 Q27.2656,20.4219 28.3594,19.8125 Q29.4531,19.1875 30.6875,19.1875 Q31.4219,19.1875 32.0625,19.3594 Q32.7188,19.5156 33.2656,19.875 Z "/><text fill="#000000" font-family="sans-serif" font-size="12" lengthAdjust="spacingAndGlyphs" textLength="43" x="44.5" y="28.9102">AIModel</text><line style="stroke: #A80036; stroke-width: 1.5;" x1="16.5" x2="89.5" y1="40" y2="40"/><text fill="#000000" font-family="sans-serif" font-size="11" lengthAdjust="spacingAndGlyphs" textLength="52" x="21.5" y="55.4189">string attr1</text><line style="stroke: #A80036; stroke-width: 1.5;" x1="16.5" x2="89.5" y1="61.8359" y2="61.8359"/><!--link Model to ModelName--><path d="M53,83.325 C53,100.1922 53,119.1503 53,134.6534 " fill="none" id="Model-ModelName" style="stroke: #A80036; stroke-width: 1.0;"/><polygon fill="#A80036" points="53,147.7606,57,138.7606,53,142.7606,49,138.7606,53,147.7606" style="stroke: #A80036; stroke-width: 1.0;"/><line style="stroke: #A80036; stroke-width: 1.0;" x1="53" x2="53.0001" y1="142.7606" y2="134.7606"/><polygon fill="#FFFFFF" points="53,70.18,49,76.18,53,82.18,57,76.18,53,70.18" style="stroke: #A80036; stroke-width: 1.0;"/><text fill="#000000" font-family="sans-serif" font-size="13" lengthAdjust="spacingAndGlyphs" textLength="42" x="54" y="114.4951">assoc1</text><text fill="#000000" font-family="sans-serif" font-size="13" lengthAdjust="spacingAndGlyphs" textLength="7" x="44.9281" y="137.0273">1</text><!--
@startuml

class "AIModel" as Model {
 string attr1

 
}

rectangle "ModelName" as ModelName #lightblue {
}

Model o- -> "1" ModelName : assoc1





@enduml

PlantUML version 1.2019.05(Sat Apr 20 09:45:36 PDT 2019)
(GPL source distribution)
Java Runtime: OpenJDK Runtime Environment
JVM: OpenJDK 64-Bit Server VM
Java Version: 12.0.1+12
Operating System: Windows 10
OS Version: 10.0
Default Encoding: Cp1252
Language: en
Country: US
--></g></svg>