<?xml version="1.0" encoding="UTF-8" standalone="no"?><svg xmlns="http://www.w3.org/2000/svg" xmlns:xlink="http://www.w3.org/1999/xlink" contentScriptType="application/ecmascript" contentStyleType="text/css" height="332px" preserveAspectRatio="none" style="width:254px;height:332px;" version="1.1" viewBox="0 0 254 332" width="254px" zoomAndPan="magnify"><defs><filter height="300%" id="f11vzvg86616f2" width="300%" x="-1" y="-1"><feGaussianBlur result="blurOut" stdDeviation="2.0"/><feColorMatrix in="blurOut" result="blurOut2" type="matrix" values="0 0 0 0 0 0 0 0 0 0 0 0 0 0 0 0 0 0 .4 0"/><feOffset dx="4.0" dy="4.0" in="blurOut2" result="blurOut3"/><feBlend in="SourceGraphic" in2="blurOut3" mode="normal"/></filter></defs><g><rect fill="#ADD8E6" filter="url(#f11vzvg86616f2)" height="313.6094" rx="12.5" ry="12.5" style="stroke: #A80036; stroke-width: 1.5;" width="236" x="6" y="8"/><rect fill="#FFFFFF" height="280" rx="12.5" ry="12.5" style="stroke: #FFFFFF; stroke-width: 1.0;" width="230" x="9" y="38.6094"/><line style="stroke: #A80036; stroke-width: 1.5;" x1="6" x2="242" y1="35.6094" y2="35.6094"/><text fill="#000000" font-family="sans-serif" font-size="14" lengthAdjust="spacingAndGlyphs" textLength="106" x="71" y="27.5332">DataReservation</text><rect fill="#ADD8E6" filter="url(#f11vzvg86616f2)" height="50" rx="12.5" ry="12.5" style="stroke: #A80036; stroke-width: 1.5;" width="50" x="101.5" y="48.6094"/><line style="stroke: #A80036; stroke-width: 1.5;" x1="101.5" x2="151.5" y1="76.2188" y2="76.2188"/><text fill="#000000" font-family="sans-serif" font-size="14" lengthAdjust="spacingAndGlyphs" textLength="18" x="117.5" y="68.1426">Init</text><rect fill="#ADD8E6" filter="url(#f11vzvg86616f2)" height="50" rx="12.5" ry="12.5" style="stroke: #A80036; stroke-width: 1.5;" width="71" x="91" y="152.6094"/><line style="stroke: #A80036; stroke-width: 1.5;" x1="91" x2="162" y1="180.2188" y2="180.2188"/><text fill="#000000" font-family="sans-serif" font-size="14" lengthAdjust="spacingAndGlyphs" textLength="51" x="101" y="172.1426">Created</text><rect fill="#ADD8E6" filter="url(#f11vzvg86616f2)" height="50" rx="12.5" ry="12.5" style="stroke: #A80036; stroke-width: 1.5;" width="85" x="17" y="256.6094"/><line style="stroke: #A80036; stroke-width: 1.5;" x1="17" x2="102" y1="284.2188" y2="284.2188"/><text fill="#000000" font-family="sans-serif" font-size="14" lengthAdjust="spacingAndGlyphs" textLength="65" x="27" y="276.1426">Confirmed</text><rect fill="#ADD8E6" filter="url(#f11vzvg86616f2)" height="50" rx="12.5" ry="12.5" style="stroke: #A80036; stroke-width: 1.5;" width="76" x="132.5" y="256.6094"/><line style="stroke: #A80036; stroke-width: 1.5;" x1="132.5" x2="208.5" y1="284.2188" y2="284.2188"/><text fill="#000000" font-family="sans-serif" font-size="14" lengthAdjust="spacingAndGlyphs" textLength="56" x="142.5" y="276.1426">Rejected</text><!--link Init to Created--><path d="M126.5,98.7824 C126.5,113.2844 126.5,131.8324 126.5,147.1834 " fill="none" id="Init-Created" style="stroke: #A80036; stroke-width: 1.0;"/><polygon fill="#A80036" points="126.5,152.2564,130.5,143.2564,126.5,147.2564,122.5,143.2564,126.5,152.2564" style="stroke: #A80036; stroke-width: 1.0;"/><text fill="#000000" font-family="sans-serif" font-size="13" lengthAdjust="spacingAndGlyphs" textLength="36" x="127.5" y="131.1045">create</text><!--link Init to Confirmed--><path d="M101.174,88.4244 C79.7334,101.7094 50.478,123.9784 37.5,152.6094 C23.04,184.5094 34.2273,224.8229 45.2618,251.5953 " fill="none" id="Init-Confirmed" style="stroke: #A80036; stroke-width: 1.0;"/><polygon fill="#A80036" points="47.3141,256.4316,47.4804,246.5841,45.3608,251.8289,40.1161,249.7094,47.3141,256.4316" style="stroke: #A80036; stroke-width: 1.0;"/><text fill="#000000" font-family="sans-serif" font-size="13" lengthAdjust="spacingAndGlyphs" textLength="42" x="38.5" y="183.1045">confirm</text><!--link Init to Rejected--><path d="M151.584,94.0974 C158.176,100.5324 164.542,108.2154 168.5,116.6094 C188.904,159.8804 183.388,216.9928 177.185,251.1409 " fill="none" id="Init-Rejected" style="stroke: #A80036; stroke-width: 1.0;"/><polygon fill="#A80036" points="176.187,256.4186,181.7885,248.3177,177.1153,251.5055,173.9276,246.8324,176.187,256.4186" style="stroke: #A80036; stroke-width: 1.0;"/><text fill="#000000" font-family="sans-serif" font-size="13" lengthAdjust="spacingAndGlyphs" textLength="21" x="184.5" y="183.1045">free</text><!--link Created to Confirmed--><path d="M110.1654,203.0074 C106.3261,208.7707 102.2585,214.9 98.5,220.6094 C91.8059,230.7782 84.5222,241.9534 78.0811,251.8747 " fill="none" id="Created-Confirmed" style="stroke: #A80036; stroke-width: 1.0;"/><polygon fill="#A80036" points="75.1861,256.3367,83.4403,250.9638,77.9076,252.1422,76.7291,246.6094,75.1861,256.3367" style="stroke: #A80036; stroke-width: 1.0;"/><text fill="#000000" font-family="sans-serif" font-size="13" lengthAdjust="spacingAndGlyphs" textLength="42" x="99.5" y="235.1045">confirm</text><!--link Created to Rejected--><path d="M136.927,202.7824 C143.238,217.4105 151.324,236.1556 157.979,251.5836 " fill="none" id="Created-Rejected" style="stroke: #A80036; stroke-width: 1.0;"/><polygon fill="#A80036" points="159.995,256.2569,160.102,246.4086,158.0141,251.666,152.7566,249.5781,159.995,256.2569" style="stroke: #A80036; stroke-width: 1.0;"/><text fill="#000000" font-family="sans-serif" font-size="13" lengthAdjust="spacingAndGlyphs" textLength="21" x="152.5" y="235.1045">free</text><!--
@startuml



state DataReservation #lightblue {

    state Init #lightblue {
    }

    state Created #lightblue {
    }

    state Confirmed #lightblue {
    }

    state Rejected #lightblue {
    }

}


Init - -> Created : create

Init - -> Confirmed : confirm

Init - -> Rejected : free

Created - -> Confirmed : confirm

Created - -> Rejected : free




@enduml

PlantUML version 1.2019.05(Sat Apr 20 09:45:36 PDT 2019)
(GPL source distribution)
Java Runtime: OpenJDK Runtime Environment
JVM: OpenJDK 64-Bit Server VM
Java Version: 12.0.1+12
Operating System: Windows 10
OS Version: 10.0
Default Encoding: Cp1252
Language: en
Country: US
--></g></svg>