<?xml version="1.0" encoding="UTF-8" standalone="no"?><svg xmlns="http://www.w3.org/2000/svg" xmlns:xlink="http://www.w3.org/1999/xlink" contentScriptType="application/ecmascript" contentStyleType="text/css" height="478px" preserveAspectRatio="none" style="width:433px;height:478px;" version="1.1" viewBox="0 0 433 478" width="433px" zoomAndPan="magnify"><defs><filter height="300%" id="f1qx6ogqfat4jw" width="300%" x="-1" y="-1"><feGaussianBlur result="blurOut" stdDeviation="2.0"/><feColorMatrix in="blurOut" result="blurOut2" type="matrix" values="0 0 0 0 0 0 0 0 0 0 0 0 0 0 0 0 0 0 .4 0"/><feOffset dx="4.0" dy="4.0" in="blurOut2" result="blurOut3"/><feBlend in="SourceGraphic" in2="blurOut3" mode="normal"/></filter></defs><g><!--entity Metric--><rect fill="#ADD8E6" filter="url(#f1qx6ogqfat4jw)" height="37.6094" style="stroke: #000000; stroke-width: 1.5;" width="58" x="182.39" y="430"/><text fill="#000000" font-family="sans-serif" font-size="14" lengthAdjust="spacingAndGlyphs" textLength="38" x="192.39" y="454.5332">Metric</text><!--entity PhysicalProfile--><rect fill="#90EE90" filter="url(#f1qx6ogqfat4jw)" height="37.6094" style="stroke: #000000; stroke-width: 1.5;" width="112" x="109.39" y="8"/><text fill="#000000" font-family="sans-serif" font-size="14" lengthAdjust="spacingAndGlyphs" textLength="92" x="119.39" y="32.5332">PhysicalProfile</text><!--entity Request--><rect fill="#90EE90" filter="url(#f1qx6ogqfat4jw)" height="37.6094" style="stroke: #000000; stroke-width: 1.5;" width="73" x="349.89" y="8"/><text fill="#000000" font-family="sans-serif" font-size="14" lengthAdjust="spacingAndGlyphs" textLength="53" x="359.89" y="32.5332">Request</text><!--class Model--><rect fill="#FEFECE" filter="url(#f1qx6ogqfat4jw)" height="227.8672" id="Model" style="stroke: #A80036; stroke-width: 1.5;" width="125" x="148.89" y="124"/><ellipse cx="163.89" cy="140" fill="#ADD1B2" rx="11" ry="11" style="stroke: #A80036; stroke-width: 1.0;"/><path d="M166.6556,135.875 Q166.8119,135.6563 166.9994,135.5469 Q167.1869,135.4375 167.4056,135.4375 Q167.7806,135.4375 168.015,135.7031 Q168.2494,135.9531 168.2494,136.5625 L168.2494,138.0156 Q168.2494,138.625 168.015,138.8906 Q167.7806,139.1563 167.4056,139.1563 Q167.0619,139.1563 166.8588,138.9531 Q166.6556,138.7656 166.5463,138.25 Q166.4994,137.8906 166.3119,137.7031 Q165.9838,137.3281 165.3744,137.1094 Q164.765,136.8906 164.14,136.8906 Q163.3744,136.8906 162.7338,137.2188 Q162.1088,137.5469 161.6088,138.2969 Q161.1244,139.0469 161.1244,140.0781 L161.1244,141.1719 Q161.1244,142.4063 162.015,143.2344 Q162.9056,144.0469 164.4994,144.0469 Q165.4369,144.0469 166.0931,143.7969 Q166.4838,143.6406 166.9056,143.2031 Q167.1713,142.9375 167.3119,142.8594 Q167.4681,142.7813 167.6713,142.7813 Q167.9994,142.7813 168.2494,143.0469 Q168.515,143.2969 168.515,143.6406 Q168.515,143.9844 168.1713,144.3906 Q167.6713,144.9688 166.8744,145.2969 Q165.7963,145.75 164.4994,145.75 Q162.9838,145.75 161.7806,145.125 Q160.7963,144.625 160.1088,143.5625 Q159.4213,142.4844 159.4213,141.2031 L159.4213,140.0469 Q159.4213,138.7188 160.0306,137.5781 Q160.6556,136.4219 161.7494,135.8125 Q162.8431,135.1875 164.0775,135.1875 Q164.8119,135.1875 165.4525,135.3594 Q166.1088,135.5156 166.6556,135.875 Z "/><text fill="#000000" font-family="sans-serif" font-size="12" lengthAdjust="spacingAndGlyphs" textLength="93" x="177.89" y="144.9102">MetricComposite</text><line style="stroke: #A80036; stroke-width: 1.5;" x1="149.89" x2="272.89" y1="156" y2="156"/><text fill="#000000" font-family="sans-serif" font-size="11" lengthAdjust="spacingAndGlyphs" textLength="56" x="154.89" y="171.4189">string name</text><text fill="#000000" font-family="sans-serif" font-size="11" lengthAdjust="spacingAndGlyphs" textLength="56" x="154.89" y="185.2549">string value</text><line style="stroke: #A80036; stroke-width: 1.5;" x1="149.89" x2="272.89" y1="191.6719" y2="191.6719"/><text fill="#000000" font-family="sans-serif" font-size="11" lengthAdjust="spacingAndGlyphs" textLength="52" x="154.89" y="207.0908">consume()</text><text fill="#000000" font-family="sans-serif" font-size="11" lengthAdjust="spacingAndGlyphs" textLength="32" x="154.89" y="220.9268">copy()</text><text fill="#000000" font-family="sans-serif" font-size="11" lengthAdjust="spacingAndGlyphs" textLength="39" x="154.89" y="234.7627">create()</text><text fill="#000000" font-family="sans-serif" font-size="11" lengthAdjust="spacingAndGlyphs" textLength="51" x="154.89" y="248.5986">findDeep()</text><text fill="#000000" font-family="sans-serif" font-size="11" lengthAdjust="spacingAndGlyphs" textLength="80" x="154.89" y="262.4346">findMatchDeep()</text><text fill="#000000" font-family="sans-serif" font-size="11" lengthAdjust="spacingAndGlyphs" textLength="64" x="154.89" y="276.2705">lessThanEq()</text><text fill="#000000" font-family="sans-serif" font-size="11" lengthAdjust="spacingAndGlyphs" textLength="36" x="154.89" y="290.1064">minus()</text><text fill="#000000" font-family="sans-serif" font-size="11" lengthAdjust="spacingAndGlyphs" textLength="28" x="154.89" y="303.9424">plus()</text><text fill="#000000" font-family="sans-serif" font-size="11" lengthAdjust="spacingAndGlyphs" textLength="23" x="154.89" y="317.7783">set()</text><text fill="#000000" font-family="sans-serif" font-size="11" lengthAdjust="spacingAndGlyphs" textLength="43" x="154.89" y="331.6143">factory()</text><text fill="#000000" font-family="sans-serif" font-size="11" lengthAdjust="spacingAndGlyphs" textLength="79" x="154.89" y="345.4502">greaterThanEq()</text><!--link Model to Metric--><path d="M211.39,365.15 C211.39,384.3307 211.39,402.4939 211.39,416.8985 " fill="none" id="Model-Metric" style="stroke: #A80036; stroke-width: 1.0;"/><polygon fill="#A80036" points="211.39,429.9489,215.39,420.9489,211.39,424.9489,207.39,420.9489,211.39,429.9489" style="stroke: #A80036; stroke-width: 1.0;"/><line style="stroke: #A80036; stroke-width: 1.0;" x1="211.39" x2="211.39" y1="424.9489" y2="416.9489"/><polygon fill="#A80036" points="211.39,352.064,207.39,358.064,211.39,364.064,215.39,358.064,211.39,352.064" style="stroke: #A80036; stroke-width: 1.0;"/><text fill="#000000" font-family="sans-serif" font-size="13" lengthAdjust="spacingAndGlyphs" textLength="36" x="212.39" y="396.4951">values</text><text fill="#000000" font-family="sans-serif" font-size="13" lengthAdjust="spacingAndGlyphs" textLength="7" x="203.3181" y="419.2733">n</text><!--link PhysicalProfile to Model--><path d="M96.0288,32.692 C45.9813,39.328 -9.5492,55.345 10.3896,94 C36.938,145.469 91.5245,182.465 137.12,205.915 " fill="none" id="PhysicalProfile-Model" style="stroke: #A80036; stroke-width: 1.0;"/><polygon fill="#A80036" points="148.798,211.732,142.5251,204.1392,144.3224,209.503,138.9586,211.3003,148.798,211.732" style="stroke: #A80036; stroke-width: 1.0;"/><line style="stroke: #A80036; stroke-width: 1.0;" x1="144.3224" x2="137.1615" y1="209.503" y2="205.936"/><polygon fill="#A80036" points="109.257,31.128,102.8289,27.8601,97.34,32.5369,103.7681,35.8048,109.257,31.128" style="stroke: #A80036; stroke-width: 1.0;"/><text fill="#000000" font-family="sans-serif" font-size="13" lengthAdjust="spacingAndGlyphs" textLength="65" x="11.3896" y="90.4951">capabilities</text><text fill="#000000" font-family="sans-serif" font-size="13" lengthAdjust="spacingAndGlyphs" textLength="7" x="133.743" y="205.0802">1</text><!--link PhysicalProfile to Model--><path d="M130.843,55.514 C125.358,61.629 120.481,68.537 117.39,76 C114.328,83.391 115.096,86.336 117.39,94 C122.979,112.679 131.88,131.178 142.027,148.363 " fill="none" id="PhysicalProfile-Model-1" style="stroke: #A80036; stroke-width: 1.0;"/><polygon fill="#A80036" points="148.853,159.454,147.543,149.6927,146.2326,155.1957,140.7296,153.8853,148.853,159.454" style="stroke: #A80036; stroke-width: 1.0;"/><line style="stroke: #A80036; stroke-width: 1.0;" x1="146.2326" x2="142.039" y1="155.1957" y2="148.3825"/><polygon fill="#A80036" points="140.441,46.013,133.3629,47.3915,131.913,54.4553,138.9911,53.0768,140.441,46.013" style="stroke: #A80036; stroke-width: 1.0;"/><text fill="#000000" font-family="sans-serif" font-size="13" lengthAdjust="spacingAndGlyphs" textLength="49" x="118.39" y="90.4951">available</text><text fill="#000000" font-family="sans-serif" font-size="13" lengthAdjust="spacingAndGlyphs" textLength="7" x="133.8047" y="146.4308">1</text><!--link PhysicalProfile to Model--><path d="M172.218,59.026 C175.405,73.505 179.43,91.792 183.679,111.097 " fill="none" id="PhysicalProfile-Model-2" style="stroke: #A80036; stroke-width: 1.0;"/><polygon fill="#A80036" points="186.497,123.901,188.4689,114.2516,185.4222,119.0179,180.6559,115.9712,186.497,123.901" style="stroke: #A80036; stroke-width: 1.0;"/><line style="stroke: #A80036; stroke-width: 1.0;" x1="185.4222" x2="183.7025" y1="119.0179" y2="111.204"/><polygon fill="#A80036" points="169.391,46.182,166.7742,52.9016,171.9704,57.9015,174.5872,51.1819,169.391,46.182" style="stroke: #A80036; stroke-width: 1.0;"/><text fill="#000000" font-family="sans-serif" font-size="13" lengthAdjust="spacingAndGlyphs" textLength="48" x="180.39" y="90.4951">reserved</text><text fill="#000000" font-family="sans-serif" font-size="13" lengthAdjust="spacingAndGlyphs" textLength="7" x="177.5893" y="113.2089">1</text><!--link PhysicalProfile to Model--><path d="M217.749,53.612 C225.647,59.821 232.707,67.251 237.39,76 C243.178,86.816 246.263,98.583 247.392,110.669 " fill="none" id="PhysicalProfile-Model-3" style="stroke: #A80036; stroke-width: 1.0;"/><polygon fill="#A80036" points="247.886,123.879,251.5469,114.7358,247.6992,118.8825,243.5525,115.0347,247.886,123.879" style="stroke: #A80036; stroke-width: 1.0;"/><line style="stroke: #A80036; stroke-width: 1.0;" x1="247.6992" x2="247.4005" y1="118.8825" y2="110.888"/><polygon fill="#A80036" points="207.012,46.145,209.6539,52.8547,216.8636,52.9967,214.2217,46.287,207.012,46.145" style="stroke: #A80036; stroke-width: 1.0;"/><text fill="#000000" font-family="sans-serif" font-size="13" lengthAdjust="spacingAndGlyphs" textLength="43" x="245.39" y="90.4951">metrics</text><text fill="#000000" font-family="sans-serif" font-size="13" lengthAdjust="spacingAndGlyphs" textLength="7" x="243.1029" y="113.1854">1</text><!--link Request to Model--><path d="M362.545,56.477 C341.908,81.123 310.976,118.066 282.459,152.123 " fill="none" id="Request-Model" style="stroke: #A80036; stroke-width: 1.0;"/><polygon fill="#A80036" points="274.096,162.11,282.9407,157.7775,277.3059,158.2764,276.807,152.6416,274.096,162.11" style="stroke: #A80036; stroke-width: 1.0;"/><line style="stroke: #A80036; stroke-width: 1.0;" x1="277.3059" x2="282.4425" y1="158.2764" y2="152.143"/><polygon fill="#A80036" points="371.166,46.182,364.2472,48.2143,363.4621,55.3826,370.3809,53.3502,371.166,46.182" style="stroke: #A80036; stroke-width: 1.0;"/><text fill="#000000" font-family="sans-serif" font-size="13" lengthAdjust="spacingAndGlyphs" textLength="75" x="345.39" y="90.4951">requirements</text><text fill="#000000" font-family="sans-serif" font-size="13" lengthAdjust="spacingAndGlyphs" textLength="7" x="281.7511" y="149.9333">1</text><!--
@startuml

class "MetricComposite" as Model {
 string name
 string value

 consume()
 copy()
 create()
 findDeep()
 findMatchDeep()
 lessThanEq()
 minus()
 plus()
 set()
 factory()
 greaterThanEq()
 
}

rectangle "Metric" as Metric #lightblue {
}

Model *- -> "n" Metric : values




    rectangle "PhysicalProfile" as PhysicalProfile #lightgreen {
    }
    
        PhysicalProfile   *- -> "1" Model : "capabilities"
    
    rectangle "PhysicalProfile" as PhysicalProfile #lightgreen {
    }
    
        PhysicalProfile   *- -> "1" Model : "available"
    
    rectangle "PhysicalProfile" as PhysicalProfile #lightgreen {
    }
    
        PhysicalProfile   *- -> "1" Model : "reserved"
    
    rectangle "PhysicalProfile" as PhysicalProfile #lightgreen {
    }
    
        PhysicalProfile   *- -> "1" Model : "metrics"
    
    rectangle "Request" as Request #lightgreen {
    }
    
        Request   *- -> "1" Model : "requirements"
    

@enduml

PlantUML version 1.2019.05(Sat Apr 20 09:45:36 PDT 2019)
(GPL source distribution)
Java Runtime: OpenJDK Runtime Environment
JVM: OpenJDK 64-Bit Server VM
Java Version: 12.0.1+12
Operating System: Windows 10
OS Version: 10.0
Default Encoding: Cp1252
Language: en
Country: US
--></g></svg>