<?xml version="1.0" encoding="UTF-8" standalone="no"?><svg xmlns="http://www.w3.org/2000/svg" xmlns:xlink="http://www.w3.org/1999/xlink" contentScriptType="application/ecmascript" contentStyleType="text/css" height="642px" preserveAspectRatio="none" style="width:1368px;height:642px;" version="1.1" viewBox="0 0 1368 642" width="1368px" zoomAndPan="magnify"><defs><filter height="300%" id="f1ygk1oyv2r6p" width="300%" x="-1" y="-1"><feGaussianBlur result="blurOut" stdDeviation="2.0"/><feColorMatrix in="blurOut" result="blurOut2" type="matrix" values="0 0 0 0 0 0 0 0 0 0 0 0 0 0 0 0 0 0 .4 0"/><feOffset dx="4.0" dy="4.0" in="blurOut2" result="blurOut3"/><feBlend in="SourceGraphic" in2="blurOut3" mode="normal"/></filter></defs><g><line style="stroke: #A80036; stroke-width: 1.0; stroke-dasharray: 5.0,5.0;" x1="27" x2="27" y1="87.6094" y2="554.1797"/><line style="stroke: #A80036; stroke-width: 1.0; stroke-dasharray: 5.0,5.0;" x1="329.5" x2="329.5" y1="87.6094" y2="554.1797"/><line style="stroke: #A80036; stroke-width: 1.0; stroke-dasharray: 5.0,5.0;" x1="804" x2="804" y1="87.6094" y2="554.1797"/><line style="stroke: #A80036; stroke-width: 1.0; stroke-dasharray: 5.0,5.0;" x1="1131.5" x2="1131.5" y1="87.6094" y2="554.1797"/><text fill="#000000" font-family="sans-serif" font-size="14" lengthAdjust="spacingAndGlyphs" textLength="33" x="8" y="84.5332">Actor</text><ellipse cx="27.5" cy="13" fill="#FEFECE" filter="url(#f1ygk1oyv2r6p)" rx="8" ry="8" style="stroke: #A80036; stroke-width: 2.0;"/><path d="M27.5,21 L27.5,48 M14.5,29 L40.5,29 M27.5,48 L14.5,63 M27.5,48 L40.5,63 " fill="none" filter="url(#f1ygk1oyv2r6p)" style="stroke: #A80036; stroke-width: 2.0;"/><text fill="#000000" font-family="sans-serif" font-size="14" lengthAdjust="spacingAndGlyphs" textLength="33" x="8" y="567.7129">Actor</text><ellipse cx="27.5" cy="580.7891" fill="#FEFECE" filter="url(#f1ygk1oyv2r6p)" rx="8" ry="8" style="stroke: #A80036; stroke-width: 2.0;"/><path d="M27.5,588.7891 L27.5,615.7891 M14.5,596.7891 L40.5,596.7891 M27.5,615.7891 L14.5,630.7891 M27.5,615.7891 L40.5,630.7891 " fill="none" filter="url(#f1ygk1oyv2r6p)" style="stroke: #A80036; stroke-width: 2.0;"/><rect fill="#FFCC88" filter="url(#f1ygk1oyv2r6p)" height="31.6094" style="stroke: #A80036; stroke-width: 1.5;" width="282" x="186.5" y="51"/><text fill="#000000" font-family="sans-serif" font-size="14" lengthAdjust="spacingAndGlyphs" textLength="268" x="193.5" y="72.5332">Distributed Infromation Management Layer</text><rect fill="#FFCC88" filter="url(#f1ygk1oyv2r6p)" height="31.6094" style="stroke: #A80036; stroke-width: 1.5;" width="282" x="186.5" y="553.1797"/><text fill="#000000" font-family="sans-serif" font-size="14" lengthAdjust="spacingAndGlyphs" textLength="268" x="193.5" y="574.7129">Distributed Infromation Management Layer</text><rect fill="#FFCC88" filter="url(#f1ygk1oyv2r6p)" height="31.6094" style="stroke: #A80036; stroke-width: 1.5;" width="181" x="712" y="51"/><text fill="#000000" font-family="sans-serif" font-size="14" lengthAdjust="spacingAndGlyphs" textLength="167" x="719" y="72.5332">Data Definition Framework</text><rect fill="#FFCC88" filter="url(#f1ygk1oyv2r6p)" height="31.6094" style="stroke: #A80036; stroke-width: 1.5;" width="181" x="712" y="553.1797"/><text fill="#000000" font-family="sans-serif" font-size="14" lengthAdjust="spacingAndGlyphs" textLength="167" x="719" y="574.7129">Data Definition Framework</text><rect fill="#FFCC88" filter="url(#f1ygk1oyv2r6p)" height="31.6094" style="stroke: #A80036; stroke-width: 1.5;" width="170" x="1044.5" y="51"/><text fill="#000000" font-family="sans-serif" font-size="14" lengthAdjust="spacingAndGlyphs" textLength="156" x="1051.5" y="72.5332">Data Management Layer</text><rect fill="#FFCC88" filter="url(#f1ygk1oyv2r6p)" height="31.6094" style="stroke: #A80036; stroke-width: 1.5;" width="170" x="1044.5" y="553.1797"/><text fill="#000000" font-family="sans-serif" font-size="14" lengthAdjust="spacingAndGlyphs" textLength="156" x="1051.5" y="574.7129">Data Management Layer</text><polygon fill="#A80036" points="317.5,115.9609,327.5,119.9609,317.5,123.9609,321.5,119.9609" style="stroke: #A80036; stroke-width: 1.0;"/><line style="stroke: #A80036; stroke-width: 1.0; stroke-dasharray: 2.0,2.0;" x1="27.5" x2="323.5" y1="119.9609" y2="119.9609"/><text fill="#000000" font-family="sans-serif" font-size="13" lengthAdjust="spacingAndGlyphs" textLength="278" x="34.5" y="115.1045">Add Data Adaptor (dataadaptor-filesystem.yaml)</text><polygon fill="#A80036" points="792.5,146.3125,802.5,150.3125,792.5,154.3125,796.5,150.3125" style="stroke: #A80036; stroke-width: 1.0;"/><line style="stroke: #A80036; stroke-width: 1.0; stroke-dasharray: 2.0,2.0;" x1="329.5" x2="798.5" y1="150.3125" y2="150.3125"/><text fill="#000000" font-family="sans-serif" font-size="13" lengthAdjust="spacingAndGlyphs" textLength="221" x="336.5" y="145.4561">dataadaptor create(name, parameters)</text><polygon fill="#A80036" points="317.5,176.6641,327.5,180.6641,317.5,184.6641,321.5,180.6641" style="stroke: #A80036; stroke-width: 1.0;"/><line style="stroke: #A80036; stroke-width: 1.0; stroke-dasharray: 2.0,2.0;" x1="27.5" x2="323.5" y1="180.6641" y2="180.6641"/><text fill="#000000" font-family="sans-serif" font-size="13" lengthAdjust="spacingAndGlyphs" textLength="235" x="34.5" y="175.8076">Add Data Flow(dataflow-filesystem.yaml)</text><polygon fill="#A80036" points="792.5,207.0156,802.5,211.0156,792.5,215.0156,796.5,211.0156" style="stroke: #A80036; stroke-width: 1.0;"/><line style="stroke: #A80036; stroke-width: 1.0; stroke-dasharray: 2.0,2.0;" x1="329.5" x2="798.5" y1="211.0156" y2="211.0156"/><text fill="#000000" font-family="sans-serif" font-size="13" lengthAdjust="spacingAndGlyphs" textLength="372" x="336.5" y="206.1592">dataflow create(name:'filesystem', file: 'dataflow-filesystem.yaml')</text><polygon fill="#A80036" points="317.5,237.3672,327.5,241.3672,317.5,245.3672,321.5,241.3672" style="stroke: #A80036; stroke-width: 1.0;"/><line style="stroke: #A80036; stroke-width: 1.0; stroke-dasharray: 2.0,2.0;" x1="27.5" x2="323.5" y1="241.3672" y2="241.3672"/><text fill="#000000" font-family="sans-serif" font-size="13" lengthAdjust="spacingAndGlyphs" textLength="84" x="34.5" y="236.5107">Add Blue Print</text><polygon fill="#A80036" points="792.5,267.7188,802.5,271.7188,792.5,275.7188,796.5,271.7188" style="stroke: #A80036; stroke-width: 1.0;"/><line style="stroke: #A80036; stroke-width: 1.0; stroke-dasharray: 2.0,2.0;" x1="329.5" x2="798.5" y1="271.7188" y2="271.7188"/><text fill="#000000" font-family="sans-serif" font-size="13" lengthAdjust="spacingAndGlyphs" textLength="451" x="336.5" y="266.8623">datablueprint create(name: 'myFileSystem', file: 'datablueprintfilesystem.yaml')</text><line style="stroke: #A80036; stroke-width: 1.0; stroke-dasharray: 2.0,2.0;" x1="804.5" x2="846.5" y1="302.0703" y2="302.0703"/><line style="stroke: #A80036; stroke-width: 1.0; stroke-dasharray: 2.0,2.0;" x1="846.5" x2="846.5" y1="302.0703" y2="315.0703"/><line style="stroke: #A80036; stroke-width: 1.0; stroke-dasharray: 2.0,2.0;" x1="805.5" x2="846.5" y1="315.0703" y2="315.0703"/><polygon fill="#A80036" points="815.5,311.0703,805.5,315.0703,815.5,319.0703,811.5,315.0703" style="stroke: #A80036; stroke-width: 1.0;"/><text fill="#000000" font-family="sans-serif" font-size="13" lengthAdjust="spacingAndGlyphs" textLength="289" x="811.5" y="297.2139">datablueprint addflow(name, dataflow, parameters)</text><line style="stroke: #A80036; stroke-width: 1.0; stroke-dasharray: 2.0,2.0;" x1="804.5" x2="846.5" y1="345.4219" y2="345.4219"/><line style="stroke: #A80036; stroke-width: 1.0; stroke-dasharray: 2.0,2.0;" x1="846.5" x2="846.5" y1="345.4219" y2="358.4219"/><line style="stroke: #A80036; stroke-width: 1.0; stroke-dasharray: 2.0,2.0;" x1="805.5" x2="846.5" y1="358.4219" y2="358.4219"/><polygon fill="#A80036" points="815.5,354.4219,805.5,358.4219,815.5,362.4219,811.5,358.4219" style="stroke: #A80036; stroke-width: 1.0;"/><text fill="#000000" font-family="sans-serif" font-size="13" lengthAdjust="spacingAndGlyphs" textLength="313" x="811.5" y="340.5654">datablueprint addadaptor(name, adapator, parameters)</text><polygon fill="#A80036" points="317.5,384.7734,327.5,388.7734,317.5,392.7734,321.5,388.7734" style="stroke: #A80036; stroke-width: 1.0;"/><line style="stroke: #A80036; stroke-width: 1.0; stroke-dasharray: 2.0,2.0;" x1="27.5" x2="323.5" y1="388.7734" y2="388.7734"/><text fill="#000000" font-family="sans-serif" font-size="13" lengthAdjust="spacingAndGlyphs" textLength="99" x="34.5" y="383.917">Add Data Source</text><polygon fill="#A80036" points="1119.5,415.125,1129.5,419.125,1119.5,423.125,1123.5,419.125" style="stroke: #A80036; stroke-width: 1.0;"/><line style="stroke: #A80036; stroke-width: 1.0; stroke-dasharray: 2.0,2.0;" x1="329.5" x2="1125.5" y1="419.125" y2="419.125"/><text fill="#000000" font-family="sans-serif" font-size="13" lengthAdjust="spacingAndGlyphs" textLength="144" x="336.5" y="414.2686">datasource create(name)</text><polygon fill="#A80036" points="1119.5,445.4766,1129.5,449.4766,1119.5,453.4766,1123.5,449.4766" style="stroke: #A80036; stroke-width: 1.0;"/><line style="stroke: #A80036; stroke-width: 1.0; stroke-dasharray: 2.0,2.0;" x1="27.5" x2="1125.5" y1="449.4766" y2="449.4766"/><text fill="#000000" font-family="sans-serif" font-size="13" lengthAdjust="spacingAndGlyphs" textLength="235" x="34.5" y="444.6201">datasource addblueprint(name, blueprint)</text><line style="stroke: #A80036; stroke-width: 1.0; stroke-dasharray: 2.0,2.0;" x1="1131.5" x2="1173.5" y1="479.8281" y2="479.8281"/><line style="stroke: #A80036; stroke-width: 1.0; stroke-dasharray: 2.0,2.0;" x1="1173.5" x2="1173.5" y1="479.8281" y2="492.8281"/><line style="stroke: #A80036; stroke-width: 1.0; stroke-dasharray: 2.0,2.0;" x1="1132.5" x2="1173.5" y1="492.8281" y2="492.8281"/><polygon fill="#A80036" points="1142.5,488.8281,1132.5,492.8281,1142.5,496.8281,1138.5,492.8281" style="stroke: #A80036; stroke-width: 1.0;"/><text fill="#000000" font-family="sans-serif" font-size="13" lengthAdjust="spacingAndGlyphs" textLength="203" x="1138.5" y="474.9717">datasource activateBlueprint(name)</text><line style="stroke: #A80036; stroke-width: 1.0; stroke-dasharray: 2.0,2.0;" x1="1131.5" x2="1173.5" y1="523.1797" y2="523.1797"/><line style="stroke: #A80036; stroke-width: 1.0; stroke-dasharray: 2.0,2.0;" x1="1173.5" x2="1173.5" y1="523.1797" y2="536.1797"/><line style="stroke: #A80036; stroke-width: 1.0; stroke-dasharray: 2.0,2.0;" x1="1132.5" x2="1173.5" y1="536.1797" y2="536.1797"/><polygon fill="#A80036" points="1142.5,532.1797,1132.5,536.1797,1142.5,540.1797,1138.5,536.1797" style="stroke: #A80036; stroke-width: 1.0;"/><text fill="#000000" font-family="sans-serif" font-size="13" lengthAdjust="spacingAndGlyphs" textLength="218" x="1138.5" y="518.3232">data create(name, adaptor, metadata)</text><!--
@startuml
Actor "Actor" as Actor
Participant "Distributed Infromation Management Layer" as DIML #ffcc88
Participant "Data Definition Framework" as DDF #ffcc88
Participant "Data Management Layer" as DML #ffcc88
Actor - -> DIML : Add Data Adaptor (dataadaptor-filesystem.yaml)
DIML - -> DDF : dataadaptor create(name, parameters)
Actor - -> DIML : Add Data Flow(dataflow-filesystem.yaml)
DIML - -> DDF : dataflow create(name:'filesystem', file: 'dataflow-filesystem.yaml')
Actor - -> DIML : Add Blue Print
DIML - -> DDF : datablueprint create(name: 'myFileSystem', file: 'datablueprintfilesystem.yaml')
DDF - -> DDF : datablueprint addflow(name, dataflow, parameters)
DDF - -> DDF : datablueprint addadaptor(name, adapator, parameters)

Actor - -> DIML : Add Data Source
DIML - -> DML : datasource create(name)
Actor - -> DML : datasource addblueprint(name, blueprint)
DML - -> DML : datasource activateBlueprint(name)
DML - -> DML : data create(name, adaptor, metadata)

@enduml

PlantUML version 1.2019.05(Sat Apr 20 09:45:36 PDT 2019)
(GPL source distribution)
Java Runtime: OpenJDK Runtime Environment
JVM: OpenJDK 64-Bit Server VM
Java Version: 12.0.1+12
Operating System: Windows 10
OS Version: 10.0
Default Encoding: Cp1252
Language: en
Country: US
--></g></svg>