<?xml version="1.0" encoding="UTF-8" standalone="no"?><svg xmlns="http://www.w3.org/2000/svg" xmlns:xlink="http://www.w3.org/1999/xlink" contentScriptType="application/ecmascript" contentStyleType="text/css" height="616px" preserveAspectRatio="none" style="width:934px;height:616px;" version="1.1" viewBox="0 0 934 616" width="934px" zoomAndPan="magnify"><defs><filter height="300%" id="fr99h2m274tyn" width="300%" x="-1" y="-1"><feGaussianBlur result="blurOut" stdDeviation="2.0"/><feColorMatrix in="blurOut" result="blurOut2" type="matrix" values="0 0 0 0 0 0 0 0 0 0 0 0 0 0 0 0 0 0 .4 0"/><feOffset dx="4.0" dy="4.0" in="blurOut2" result="blurOut3"/><feBlend in="SourceGraphic" in2="blurOut3" mode="normal"/></filter></defs><g><line style="stroke: #A80036; stroke-width: 1.0; stroke-dasharray: 5.0,5.0;" x1="27" x2="27" y1="87.6094" y2="528.1797"/><line style="stroke: #A80036; stroke-width: 1.0; stroke-dasharray: 5.0,5.0;" x1="200" x2="200" y1="87.6094" y2="528.1797"/><line style="stroke: #A80036; stroke-width: 1.0; stroke-dasharray: 5.0,5.0;" x1="507.5" x2="507.5" y1="87.6094" y2="528.1797"/><line style="stroke: #A80036; stroke-width: 1.0; stroke-dasharray: 5.0,5.0;" x1="697.5" x2="697.5" y1="87.6094" y2="528.1797"/><text fill="#000000" font-family="sans-serif" font-size="14" lengthAdjust="spacingAndGlyphs" textLength="33" x="8" y="84.5332">Actor</text><ellipse cx="27.5" cy="13" fill="#FEFECE" filter="url(#fr99h2m274tyn)" rx="8" ry="8" style="stroke: #A80036; stroke-width: 2.0;"/><path d="M27.5,21 L27.5,48 M14.5,29 L40.5,29 M27.5,48 L14.5,63 M27.5,48 L40.5,63 " fill="none" filter="url(#fr99h2m274tyn)" style="stroke: #A80036; stroke-width: 2.0;"/><text fill="#000000" font-family="sans-serif" font-size="14" lengthAdjust="spacingAndGlyphs" textLength="33" x="8" y="541.7129">Actor</text><ellipse cx="27.5" cy="554.7891" fill="#FEFECE" filter="url(#fr99h2m274tyn)" rx="8" ry="8" style="stroke: #A80036; stroke-width: 2.0;"/><path d="M27.5,562.7891 L27.5,589.7891 M14.5,570.7891 L40.5,570.7891 M27.5,589.7891 L14.5,604.7891 M27.5,589.7891 L40.5,604.7891 " fill="none" filter="url(#fr99h2m274tyn)" style="stroke: #A80036; stroke-width: 2.0;"/><rect fill="#FFCC88" filter="url(#fr99h2m274tyn)" height="31.6094" style="stroke: #A80036; stroke-width: 1.5;" width="282" x="57" y="51"/><text fill="#000000" font-family="sans-serif" font-size="14" lengthAdjust="spacingAndGlyphs" textLength="268" x="64" y="72.5332">Distributed Infromation Management Layer</text><rect fill="#FFCC88" filter="url(#fr99h2m274tyn)" height="31.6094" style="stroke: #A80036; stroke-width: 1.5;" width="282" x="57" y="527.1797"/><text fill="#000000" font-family="sans-serif" font-size="14" lengthAdjust="spacingAndGlyphs" textLength="268" x="64" y="548.7129">Distributed Infromation Management Layer</text><rect fill="#FFCC88" filter="url(#fr99h2m274tyn)" height="31.6094" style="stroke: #A80036; stroke-width: 1.5;" width="181" x="415.5" y="51"/><text fill="#000000" font-family="sans-serif" font-size="14" lengthAdjust="spacingAndGlyphs" textLength="167" x="422.5" y="72.5332">Data Definition Framework</text><rect fill="#FFCC88" filter="url(#fr99h2m274tyn)" height="31.6094" style="stroke: #A80036; stroke-width: 1.5;" width="181" x="415.5" y="527.1797"/><text fill="#000000" font-family="sans-serif" font-size="14" lengthAdjust="spacingAndGlyphs" textLength="167" x="422.5" y="548.7129">Data Definition Framework</text><rect fill="#FFCC88" filter="url(#fr99h2m274tyn)" height="31.6094" style="stroke: #A80036; stroke-width: 1.5;" width="170" x="610.5" y="51"/><text fill="#000000" font-family="sans-serif" font-size="14" lengthAdjust="spacingAndGlyphs" textLength="156" x="617.5" y="72.5332">Data Management Layer</text><rect fill="#FFCC88" filter="url(#fr99h2m274tyn)" height="31.6094" style="stroke: #A80036; stroke-width: 1.5;" width="170" x="610.5" y="527.1797"/><text fill="#000000" font-family="sans-serif" font-size="14" lengthAdjust="spacingAndGlyphs" textLength="156" x="617.5" y="548.7129">Data Management Layer</text><polygon fill="#A80036" points="188,115.9609,198,119.9609,188,123.9609,192,119.9609" style="stroke: #A80036; stroke-width: 1.0;"/><line style="stroke: #A80036; stroke-width: 1.0; stroke-dasharray: 2.0,2.0;" x1="27.5" x2="194" y1="119.9609" y2="119.9609"/><text fill="#000000" font-family="sans-serif" font-size="13" lengthAdjust="spacingAndGlyphs" textLength="110" x="34.5" y="115.1045">Add Data Adaptors</text><polygon fill="#A80036" points="496,146.3125,506,150.3125,496,154.3125,500,150.3125" style="stroke: #A80036; stroke-width: 1.0;"/><line style="stroke: #A80036; stroke-width: 1.0; stroke-dasharray: 2.0,2.0;" x1="200" x2="502" y1="150.3125" y2="150.3125"/><text fill="#000000" font-family="sans-serif" font-size="13" lengthAdjust="spacingAndGlyphs" textLength="221" x="207" y="145.4561">dataadaptor create(name, parameters)</text><polygon fill="#A80036" points="188,176.6641,198,180.6641,188,184.6641,192,180.6641" style="stroke: #A80036; stroke-width: 1.0;"/><line style="stroke: #A80036; stroke-width: 1.0; stroke-dasharray: 2.0,2.0;" x1="27.5" x2="194" y1="180.6641" y2="180.6641"/><text fill="#000000" font-family="sans-serif" font-size="13" lengthAdjust="spacingAndGlyphs" textLength="85" x="34.5" y="175.8076">Add Data Flow</text><polygon fill="#A80036" points="496,207.0156,506,211.0156,496,215.0156,500,211.0156" style="stroke: #A80036; stroke-width: 1.0;"/><line style="stroke: #A80036; stroke-width: 1.0; stroke-dasharray: 2.0,2.0;" x1="200" x2="502" y1="211.0156" y2="211.0156"/><text fill="#000000" font-family="sans-serif" font-size="13" lengthAdjust="spacingAndGlyphs" textLength="284" x="207" y="206.1592">dataflow create(name, parameters, in, out, steps)</text><polygon fill="#A80036" points="188,237.3672,198,241.3672,188,245.3672,192,241.3672" style="stroke: #A80036; stroke-width: 1.0;"/><line style="stroke: #A80036; stroke-width: 1.0; stroke-dasharray: 2.0,2.0;" x1="27.5" x2="194" y1="241.3672" y2="241.3672"/><text fill="#000000" font-family="sans-serif" font-size="13" lengthAdjust="spacingAndGlyphs" textLength="84" x="34.5" y="236.5107">Add Blue Print</text><polygon fill="#A80036" points="496,267.7188,506,271.7188,496,275.7188,500,271.7188" style="stroke: #A80036; stroke-width: 1.0;"/><line style="stroke: #A80036; stroke-width: 1.0; stroke-dasharray: 2.0,2.0;" x1="200" x2="502" y1="271.7188" y2="271.7188"/><text fill="#000000" font-family="sans-serif" font-size="13" lengthAdjust="spacingAndGlyphs" textLength="154" x="207" y="266.8623">datablueprint create(name)</text><polygon fill="#A80036" points="496,298.0703,506,302.0703,496,306.0703,500,302.0703" style="stroke: #A80036; stroke-width: 1.0;"/><line style="stroke: #A80036; stroke-width: 1.0; stroke-dasharray: 2.0,2.0;" x1="27.5" x2="502" y1="302.0703" y2="302.0703"/><text fill="#000000" font-family="sans-serif" font-size="13" lengthAdjust="spacingAndGlyphs" textLength="216" x="34.5" y="297.2139">datablueprint addflow(name, dataflow)</text><polygon fill="#A80036" points="496,328.4219,506,332.4219,496,336.4219,500,332.4219" style="stroke: #A80036; stroke-width: 1.0;"/><line style="stroke: #A80036; stroke-width: 1.0; stroke-dasharray: 2.0,2.0;" x1="27.5" x2="502" y1="332.4219" y2="332.4219"/><text fill="#000000" font-family="sans-serif" font-size="13" lengthAdjust="spacingAndGlyphs" textLength="250" x="34.5" y="327.5654">datablueprint addsource(name, datasource)</text><polygon fill="#A80036" points="188,358.7734,198,362.7734,188,366.7734,192,362.7734" style="stroke: #A80036; stroke-width: 1.0;"/><line style="stroke: #A80036; stroke-width: 1.0; stroke-dasharray: 2.0,2.0;" x1="27.5" x2="194" y1="362.7734" y2="362.7734"/><text fill="#000000" font-family="sans-serif" font-size="13" lengthAdjust="spacingAndGlyphs" textLength="99" x="34.5" y="357.917">Add Data Source</text><polygon fill="#A80036" points="685.5,389.125,695.5,393.125,685.5,397.125,689.5,393.125" style="stroke: #A80036; stroke-width: 1.0;"/><line style="stroke: #A80036; stroke-width: 1.0; stroke-dasharray: 2.0,2.0;" x1="200" x2="691.5" y1="393.125" y2="393.125"/><text fill="#000000" font-family="sans-serif" font-size="13" lengthAdjust="spacingAndGlyphs" textLength="144" x="207" y="388.2686">datasource create(name)</text><polygon fill="#A80036" points="685.5,419.4766,695.5,423.4766,685.5,427.4766,689.5,423.4766" style="stroke: #A80036; stroke-width: 1.0;"/><line style="stroke: #A80036; stroke-width: 1.0; stroke-dasharray: 2.0,2.0;" x1="27.5" x2="691.5" y1="423.4766" y2="423.4766"/><text fill="#000000" font-family="sans-serif" font-size="13" lengthAdjust="spacingAndGlyphs" textLength="235" x="34.5" y="418.6201">datasource addblueprint(name, blueprint)</text><line style="stroke: #A80036; stroke-width: 1.0; stroke-dasharray: 2.0,2.0;" x1="697.5" x2="739.5" y1="453.8281" y2="453.8281"/><line style="stroke: #A80036; stroke-width: 1.0; stroke-dasharray: 2.0,2.0;" x1="739.5" x2="739.5" y1="453.8281" y2="466.8281"/><line style="stroke: #A80036; stroke-width: 1.0; stroke-dasharray: 2.0,2.0;" x1="698.5" x2="739.5" y1="466.8281" y2="466.8281"/><polygon fill="#A80036" points="708.5,462.8281,698.5,466.8281,708.5,470.8281,704.5,466.8281" style="stroke: #A80036; stroke-width: 1.0;"/><text fill="#000000" font-family="sans-serif" font-size="13" lengthAdjust="spacingAndGlyphs" textLength="203" x="704.5" y="448.9717">datasource activateBlueprint(name)</text><line style="stroke: #A80036; stroke-width: 1.0; stroke-dasharray: 2.0,2.0;" x1="697.5" x2="739.5" y1="497.1797" y2="497.1797"/><line style="stroke: #A80036; stroke-width: 1.0; stroke-dasharray: 2.0,2.0;" x1="739.5" x2="739.5" y1="497.1797" y2="510.1797"/><line style="stroke: #A80036; stroke-width: 1.0; stroke-dasharray: 2.0,2.0;" x1="698.5" x2="739.5" y1="510.1797" y2="510.1797"/><polygon fill="#A80036" points="708.5,506.1797,698.5,510.1797,708.5,514.1797,704.5,510.1797" style="stroke: #A80036; stroke-width: 1.0;"/><text fill="#000000" font-family="sans-serif" font-size="13" lengthAdjust="spacingAndGlyphs" textLength="218" x="704.5" y="492.3232">data create(name, adaptor, metadata)</text><!--
@startuml

Actor "Actor" as Actor
Participant "Distributed Infromation Management Layer" as DIML #ffcc88
Participant "Data Definition Framework" as DDF #ffcc88
Participant "Data Management Layer" as DML #ffcc88
Actor - -> DIML : Add Data Adaptors
DIML - -> DDF : dataadaptor create(name, parameters)
Actor - -> DIML : Add Data Flow
DIML - -> DDF : dataflow create(name, parameters, in, out, steps)
Actor - -> DIML : Add Blue Print
DIML - -> DDF : datablueprint create(name)
Actor - -> DDF : datablueprint addflow(name, dataflow)
Actor - -> DDF : datablueprint addsource(name, datasource)

Actor - -> DIML : Add Data Source
DIML - -> DML : datasource create(name)
Actor - -> DML : datasource addblueprint(name, blueprint)
DML - -> DML : datasource activateBlueprint(name)
DML - -> DML : data create(name, adaptor, metadata)

@enduml

PlantUML version 1.2019.05(Sat Apr 20 09:45:36 PDT 2019)
(GPL source distribution)
Java Runtime: OpenJDK Runtime Environment
JVM: OpenJDK 64-Bit Server VM
Java Version: 12.0.1+12
Operating System: Windows 10
OS Version: 10.0
Default Encoding: Cp1252
Language: en
Country: US
--></g></svg>