<?xml version="1.0" encoding="UTF-8" standalone="no"?><svg xmlns="http://www.w3.org/2000/svg" xmlns:xlink="http://www.w3.org/1999/xlink" contentScriptType="application/ecmascript" contentStyleType="text/css" height="1467px" preserveAspectRatio="none" style="width:1123px;height:1467px;" version="1.1" viewBox="0 0 1123 1467" width="1123px" zoomAndPan="magnify"><defs><filter height="300%" id="f7h9cdyn7xtmb" width="300%" x="-1" y="-1"><feGaussianBlur result="blurOut" stdDeviation="2.0"/><feColorMatrix in="blurOut" result="blurOut2" type="matrix" values="0 0 0 0 0 0 0 0 0 0 0 0 0 0 0 0 0 0 .4 0"/><feOffset dx="4.0" dy="4.0" in="blurOut2" result="blurOut3"/><feBlend in="SourceGraphic" in2="blurOut3" mode="normal"/></filter></defs><g><!--cluster Data Management Layer--><polygon fill="#FFCC88" filter="url(#f7h9cdyn7xtmb)" points="788,1005,962,1005,969,1028.6094,972,1028.6094,972,1121,788,1121,788,1005" style="stroke: #000000; stroke-width: 1.5;"/><line style="stroke: #000000; stroke-width: 1.5;" x1="788" x2="969" y1="1028.6094" y2="1028.6094"/><text fill="#000000" font-family="sans-serif" font-size="14" font-weight="bold" lengthAdjust="spacingAndGlyphs" textLength="168" x="792" y="1021.5332">Data Management Layer</text><!--cluster Data Definition Framework--><polygon fill="#FFCC88" filter="url(#f7h9cdyn7xtmb)" points="30,73,221,73,228,96.6094,748,96.6094,748,1455,30,1455,30,73" style="stroke: #000000; stroke-width: 1.5;"/><line style="stroke: #000000; stroke-width: 1.5;" x1="30" x2="228" y1="96.6094" y2="96.6094"/><text fill="#000000" font-family="sans-serif" font-size="14" font-weight="bold" lengthAdjust="spacingAndGlyphs" textLength="185" x="34" y="89.5332">Data Definition Framework</text><!--cluster Identity Aspect--><polygon fill="#FFC0CB" filter="url(#f7h9cdyn7xtmb)" points="907,1179,1017,1179,1024,1202.6094,1027,1202.6094,1027,1279,907,1279,907,1179" style="stroke: #000000; stroke-width: 1.5;"/><line style="stroke: #000000; stroke-width: 1.5;" x1="907" x2="1024" y1="1202.6094" y2="1202.6094"/><text fill="#000000" font-family="sans-serif" font-size="14" font-weight="bold" lengthAdjust="spacingAndGlyphs" textLength="104" x="911" y="1195.5332">Identity Aspect</text><!--class Data--><rect fill="#FEFECE" filter="url(#f7h9cdyn7xtmb)" height="48" id="Data" style="stroke: #A80036; stroke-width: 1.5;" width="58" x="812" y="1049"/><ellipse cx="827" cy="1065" fill="#ADD1B2" rx="11" ry="11" style="stroke: #A80036; stroke-width: 1.0;"/><path d="M829.7656,1060.875 Q829.9219,1060.6563 830.1094,1060.5469 Q830.2969,1060.4375 830.5156,1060.4375 Q830.8906,1060.4375 831.125,1060.7031 Q831.3594,1060.9531 831.3594,1061.5625 L831.3594,1063.0156 Q831.3594,1063.625 831.125,1063.8906 Q830.8906,1064.1563 830.5156,1064.1563 Q830.1719,1064.1563 829.9688,1063.9531 Q829.7656,1063.7656 829.6563,1063.25 Q829.6094,1062.8906 829.4219,1062.7031 Q829.0938,1062.3281 828.4844,1062.1094 Q827.875,1061.8906 827.25,1061.8906 Q826.4844,1061.8906 825.8438,1062.2188 Q825.2188,1062.5469 824.7188,1063.2969 Q824.2344,1064.0469 824.2344,1065.0781 L824.2344,1066.1719 Q824.2344,1067.4063 825.125,1068.2344 Q826.0156,1069.0469 827.6094,1069.0469 Q828.5469,1069.0469 829.2031,1068.7969 Q829.5938,1068.6406 830.0156,1068.2031 Q830.2813,1067.9375 830.4219,1067.8594 Q830.5781,1067.7813 830.7813,1067.7813 Q831.1094,1067.7813 831.3594,1068.0469 Q831.625,1068.2969 831.625,1068.6406 Q831.625,1068.9844 831.2813,1069.3906 Q830.7813,1069.9688 829.9844,1070.2969 Q828.9063,1070.75 827.6094,1070.75 Q826.0938,1070.75 824.8906,1070.125 Q823.9063,1069.625 823.2188,1068.5625 Q822.5313,1067.4844 822.5313,1066.2031 L822.5313,1065.0469 Q822.5313,1063.7188 823.1406,1062.5781 Q823.7656,1061.4219 824.8594,1060.8125 Q825.9531,1060.1875 827.1875,1060.1875 Q827.9219,1060.1875 828.5625,1060.3594 Q829.2188,1060.5156 829.7656,1060.875 Z "/><text fill="#000000" font-family="sans-serif" font-size="12" lengthAdjust="spacingAndGlyphs" textLength="26" x="841" y="1069.9102">Data</text><line style="stroke: #A80036; stroke-width: 1.5;" x1="813" x2="869" y1="1081" y2="1081"/><line style="stroke: #A80036; stroke-width: 1.5;" x1="813" x2="869" y1="1089" y2="1089"/><!--class DataBluePrint--><rect fill="#FEFECE" filter="url(#f7h9cdyn7xtmb)" height="103.3438" id="DataBluePrint" style="stroke: #A80036; stroke-width: 1.5;" width="108" x="523" y="158.5"/><ellipse cx="538" cy="174.5" fill="#ADD1B2" rx="11" ry="11" style="stroke: #A80036; stroke-width: 1.0;"/><path d="M540.7656,170.375 Q540.9219,170.1563 541.1094,170.0469 Q541.2969,169.9375 541.5156,169.9375 Q541.8906,169.9375 542.125,170.2031 Q542.3594,170.4531 542.3594,171.0625 L542.3594,172.5156 Q542.3594,173.125 542.125,173.3906 Q541.8906,173.6563 541.5156,173.6563 Q541.1719,173.6563 540.9688,173.4531 Q540.7656,173.2656 540.6563,172.75 Q540.6094,172.3906 540.4219,172.2031 Q540.0938,171.8281 539.4844,171.6094 Q538.875,171.3906 538.25,171.3906 Q537.4844,171.3906 536.8438,171.7188 Q536.2188,172.0469 535.7188,172.7969 Q535.2344,173.5469 535.2344,174.5781 L535.2344,175.6719 Q535.2344,176.9063 536.125,177.7344 Q537.0156,178.5469 538.6094,178.5469 Q539.5469,178.5469 540.2031,178.2969 Q540.5938,178.1406 541.0156,177.7031 Q541.2813,177.4375 541.4219,177.3594 Q541.5781,177.2813 541.7813,177.2813 Q542.1094,177.2813 542.3594,177.5469 Q542.625,177.7969 542.625,178.1406 Q542.625,178.4844 542.2813,178.8906 Q541.7813,179.4688 540.9844,179.7969 Q539.9063,180.25 538.6094,180.25 Q537.0938,180.25 535.8906,179.625 Q534.9063,179.125 534.2188,178.0625 Q533.5313,176.9844 533.5313,175.7031 L533.5313,174.5469 Q533.5313,173.2188 534.1406,172.0781 Q534.7656,170.9219 535.8594,170.3125 Q536.9531,169.6875 538.1875,169.6875 Q538.9219,169.6875 539.5625,169.8594 Q540.2188,170.0156 540.7656,170.375 Z "/><text fill="#000000" font-family="sans-serif" font-size="12" lengthAdjust="spacingAndGlyphs" textLength="76" x="552" y="179.4102">DataBluePrint</text><line style="stroke: #A80036; stroke-width: 1.5;" x1="524" x2="630" y1="190.5" y2="190.5"/><text fill="#000000" font-family="sans-serif" font-size="11" lengthAdjust="spacingAndGlyphs" textLength="56" x="529" y="205.9189">string name</text><text fill="#000000" font-family="sans-serif" font-size="11" lengthAdjust="spacingAndGlyphs" textLength="66" x="529" y="219.7549">string version</text><line style="stroke: #A80036; stroke-width: 1.5;" x1="524" x2="630" y1="226.1719" y2="226.1719"/><text fill="#000000" font-family="sans-serif" font-size="11" lengthAdjust="spacingAndGlyphs" textLength="39" x="529" y="241.5908">create()</text><text fill="#000000" font-family="sans-serif" font-size="11" lengthAdjust="spacingAndGlyphs" textLength="40" x="529" y="255.4268">deploy()</text><!--class DataSource--><rect fill="#FEFECE" filter="url(#f7h9cdyn7xtmb)" height="89.5078" id="DataSource" style="stroke: #A80036; stroke-width: 1.5;" width="97" x="495.5" y="843"/><ellipse cx="510.5" cy="859" fill="#ADD1B2" rx="11" ry="11" style="stroke: #A80036; stroke-width: 1.0;"/><path d="M513.2656,854.875 Q513.4219,854.6563 513.6094,854.5469 Q513.7969,854.4375 514.0156,854.4375 Q514.3906,854.4375 514.625,854.7031 Q514.8594,854.9531 514.8594,855.5625 L514.8594,857.0156 Q514.8594,857.625 514.625,857.8906 Q514.3906,858.1563 514.0156,858.1563 Q513.6719,858.1563 513.4688,857.9531 Q513.2656,857.7656 513.1563,857.25 Q513.1094,856.8906 512.9219,856.7031 Q512.5938,856.3281 511.9844,856.1094 Q511.375,855.8906 510.75,855.8906 Q509.9844,855.8906 509.3438,856.2188 Q508.7188,856.5469 508.2188,857.2969 Q507.7344,858.0469 507.7344,859.0781 L507.7344,860.1719 Q507.7344,861.4063 508.625,862.2344 Q509.5156,863.0469 511.1094,863.0469 Q512.0469,863.0469 512.7031,862.7969 Q513.0938,862.6406 513.5156,862.2031 Q513.7813,861.9375 513.9219,861.8594 Q514.0781,861.7813 514.2813,861.7813 Q514.6094,861.7813 514.8594,862.0469 Q515.125,862.2969 515.125,862.6406 Q515.125,862.9844 514.7813,863.3906 Q514.2813,863.9688 513.4844,864.2969 Q512.4063,864.75 511.1094,864.75 Q509.5938,864.75 508.3906,864.125 Q507.4063,863.625 506.7188,862.5625 Q506.0313,861.4844 506.0313,860.2031 L506.0313,859.0469 Q506.0313,857.7188 506.6406,856.5781 Q507.2656,855.4219 508.3594,854.8125 Q509.4531,854.1875 510.6875,854.1875 Q511.4219,854.1875 512.0625,854.3594 Q512.7188,854.5156 513.2656,854.875 Z "/><text fill="#000000" font-family="sans-serif" font-size="12" lengthAdjust="spacingAndGlyphs" textLength="65" x="524.5" y="863.9102">DataSource</text><line style="stroke: #A80036; stroke-width: 1.5;" x1="496.5" x2="591.5" y1="875" y2="875"/><text fill="#000000" font-family="sans-serif" font-size="11" lengthAdjust="spacingAndGlyphs" textLength="56" x="501.5" y="890.4189">string name</text><text fill="#000000" font-family="sans-serif" font-size="11" lengthAdjust="spacingAndGlyphs" textLength="78" x="501.5" y="904.2549">json parameters</text><line style="stroke: #A80036; stroke-width: 1.5;" x1="496.5" x2="591.5" y1="910.6719" y2="910.6719"/><text fill="#000000" font-family="sans-serif" font-size="11" lengthAdjust="spacingAndGlyphs" textLength="39" x="501.5" y="926.0908">create()</text><!--class DataAdaptor--><rect fill="#FEFECE" filter="url(#f7h9cdyn7xtmb)" height="75.6719" id="DataAdaptor" style="stroke: #A80036; stroke-width: 1.5;" width="100" x="519" y="689"/><ellipse cx="534" cy="705" fill="#ADD1B2" rx="11" ry="11" style="stroke: #A80036; stroke-width: 1.0;"/><path d="M536.7656,700.875 Q536.9219,700.6563 537.1094,700.5469 Q537.2969,700.4375 537.5156,700.4375 Q537.8906,700.4375 538.125,700.7031 Q538.3594,700.9531 538.3594,701.5625 L538.3594,703.0156 Q538.3594,703.625 538.125,703.8906 Q537.8906,704.1563 537.5156,704.1563 Q537.1719,704.1563 536.9688,703.9531 Q536.7656,703.7656 536.6563,703.25 Q536.6094,702.8906 536.4219,702.7031 Q536.0938,702.3281 535.4844,702.1094 Q534.875,701.8906 534.25,701.8906 Q533.4844,701.8906 532.8438,702.2188 Q532.2188,702.5469 531.7188,703.2969 Q531.2344,704.0469 531.2344,705.0781 L531.2344,706.1719 Q531.2344,707.4063 532.125,708.2344 Q533.0156,709.0469 534.6094,709.0469 Q535.5469,709.0469 536.2031,708.7969 Q536.5938,708.6406 537.0156,708.2031 Q537.2813,707.9375 537.4219,707.8594 Q537.5781,707.7813 537.7813,707.7813 Q538.1094,707.7813 538.3594,708.0469 Q538.625,708.2969 538.625,708.6406 Q538.625,708.9844 538.2813,709.3906 Q537.7813,709.9688 536.9844,710.2969 Q535.9063,710.75 534.6094,710.75 Q533.0938,710.75 531.8906,710.125 Q530.9063,709.625 530.2188,708.5625 Q529.5313,707.4844 529.5313,706.2031 L529.5313,705.0469 Q529.5313,703.7188 530.1406,702.5781 Q530.7656,701.4219 531.8594,700.8125 Q532.9531,700.1875 534.1875,700.1875 Q534.9219,700.1875 535.5625,700.3594 Q536.2188,700.5156 536.7656,700.875 Z "/><text fill="#000000" font-family="sans-serif" font-size="12" lengthAdjust="spacingAndGlyphs" textLength="68" x="548" y="709.9102">DataAdaptor</text><line style="stroke: #A80036; stroke-width: 1.5;" x1="520" x2="618" y1="721" y2="721"/><text fill="#000000" font-family="sans-serif" font-size="11" lengthAdjust="spacingAndGlyphs" textLength="56" x="525" y="736.4189">string name</text><line style="stroke: #A80036; stroke-width: 1.5;" x1="520" x2="618" y1="742.8359" y2="742.8359"/><text fill="#000000" font-family="sans-serif" font-size="11" lengthAdjust="spacingAndGlyphs" textLength="39" x="525" y="758.2549">create()</text><!--class DataAdaptorTemplate--><rect fill="#FEFECE" filter="url(#f7h9cdyn7xtmb)" height="75.6719" id="DataAdaptorTemplate" style="stroke: #A80036; stroke-width: 1.5;" width="152" x="449" y="535"/><ellipse cx="464" cy="551" fill="#ADD1B2" rx="11" ry="11" style="stroke: #A80036; stroke-width: 1.0;"/><path d="M466.7656,546.875 Q466.9219,546.6563 467.1094,546.5469 Q467.2969,546.4375 467.5156,546.4375 Q467.8906,546.4375 468.125,546.7031 Q468.3594,546.9531 468.3594,547.5625 L468.3594,549.0156 Q468.3594,549.625 468.125,549.8906 Q467.8906,550.1563 467.5156,550.1563 Q467.1719,550.1563 466.9688,549.9531 Q466.7656,549.7656 466.6563,549.25 Q466.6094,548.8906 466.4219,548.7031 Q466.0938,548.3281 465.4844,548.1094 Q464.875,547.8906 464.25,547.8906 Q463.4844,547.8906 462.8438,548.2188 Q462.2188,548.5469 461.7188,549.2969 Q461.2344,550.0469 461.2344,551.0781 L461.2344,552.1719 Q461.2344,553.4063 462.125,554.2344 Q463.0156,555.0469 464.6094,555.0469 Q465.5469,555.0469 466.2031,554.7969 Q466.5938,554.6406 467.0156,554.2031 Q467.2813,553.9375 467.4219,553.8594 Q467.5781,553.7813 467.7813,553.7813 Q468.1094,553.7813 468.3594,554.0469 Q468.625,554.2969 468.625,554.6406 Q468.625,554.9844 468.2813,555.3906 Q467.7813,555.9688 466.9844,556.2969 Q465.9063,556.75 464.6094,556.75 Q463.0938,556.75 461.8906,556.125 Q460.9063,555.625 460.2188,554.5625 Q459.5313,553.4844 459.5313,552.2031 L459.5313,551.0469 Q459.5313,549.7188 460.1406,548.5781 Q460.7656,547.4219 461.8594,546.8125 Q462.9531,546.1875 464.1875,546.1875 Q464.9219,546.1875 465.5625,546.3594 Q466.2188,546.5156 466.7656,546.875 Z "/><text fill="#000000" font-family="sans-serif" font-size="12" lengthAdjust="spacingAndGlyphs" textLength="120" x="478" y="555.9102">DataAdaptorTemplate</text><line style="stroke: #A80036; stroke-width: 1.5;" x1="450" x2="600" y1="567" y2="567"/><text fill="#000000" font-family="sans-serif" font-size="11" lengthAdjust="spacingAndGlyphs" textLength="56" x="455" y="582.4189">string name</text><text fill="#000000" font-family="sans-serif" font-size="11" lengthAdjust="spacingAndGlyphs" textLength="45" x="455" y="596.2549">json args</text><line style="stroke: #A80036; stroke-width: 1.5;" x1="450" x2="600" y1="602.6719" y2="602.6719"/><!--class DataFlowTemplate--><rect fill="#FEFECE" filter="url(#f7h9cdyn7xtmb)" height="75.6719" id="DataFlowTemplate" style="stroke: #A80036; stroke-width: 1.5;" width="136" x="384" y="381"/><ellipse cx="399" cy="397" fill="#ADD1B2" rx="11" ry="11" style="stroke: #A80036; stroke-width: 1.0;"/><path d="M401.7656,392.875 Q401.9219,392.6563 402.1094,392.5469 Q402.2969,392.4375 402.5156,392.4375 Q402.8906,392.4375 403.125,392.7031 Q403.3594,392.9531 403.3594,393.5625 L403.3594,395.0156 Q403.3594,395.625 403.125,395.8906 Q402.8906,396.1563 402.5156,396.1563 Q402.1719,396.1563 401.9688,395.9531 Q401.7656,395.7656 401.6563,395.25 Q401.6094,394.8906 401.4219,394.7031 Q401.0938,394.3281 400.4844,394.1094 Q399.875,393.8906 399.25,393.8906 Q398.4844,393.8906 397.8438,394.2188 Q397.2188,394.5469 396.7188,395.2969 Q396.2344,396.0469 396.2344,397.0781 L396.2344,398.1719 Q396.2344,399.4063 397.125,400.2344 Q398.0156,401.0469 399.6094,401.0469 Q400.5469,401.0469 401.2031,400.7969 Q401.5938,400.6406 402.0156,400.2031 Q402.2813,399.9375 402.4219,399.8594 Q402.5781,399.7813 402.7813,399.7813 Q403.1094,399.7813 403.3594,400.0469 Q403.625,400.2969 403.625,400.6406 Q403.625,400.9844 403.2813,401.3906 Q402.7813,401.9688 401.9844,402.2969 Q400.9063,402.75 399.6094,402.75 Q398.0938,402.75 396.8906,402.125 Q395.9063,401.625 395.2188,400.5625 Q394.5313,399.4844 394.5313,398.2031 L394.5313,397.0469 Q394.5313,395.7188 395.1406,394.5781 Q395.7656,393.4219 396.8594,392.8125 Q397.9531,392.1875 399.1875,392.1875 Q399.9219,392.1875 400.5625,392.3594 Q401.2188,392.5156 401.7656,392.875 Z "/><text fill="#000000" font-family="sans-serif" font-size="12" lengthAdjust="spacingAndGlyphs" textLength="104" x="413" y="401.9102">DataFlowTemplate</text><line style="stroke: #A80036; stroke-width: 1.5;" x1="385" x2="519" y1="413" y2="413"/><text fill="#000000" font-family="sans-serif" font-size="11" lengthAdjust="spacingAndGlyphs" textLength="56" x="390" y="428.4189">string name</text><line style="stroke: #A80036; stroke-width: 1.5;" x1="385" x2="519" y1="434.8359" y2="434.8359"/><text fill="#000000" font-family="sans-serif" font-size="11" lengthAdjust="spacingAndGlyphs" textLength="39" x="390" y="450.2549">create()</text><!--class DataBluePrintInstance--><rect fill="#FEFECE" filter="url(#f7h9cdyn7xtmb)" height="75.6719" id="DataBluePrintInstance" style="stroke: #A80036; stroke-width: 1.5;" width="155" x="560.5" y="1035"/><ellipse cx="575.5" cy="1051" fill="#ADD1B2" rx="11" ry="11" style="stroke: #A80036; stroke-width: 1.0;"/><path d="M578.2656,1046.875 Q578.4219,1046.6563 578.6094,1046.5469 Q578.7969,1046.4375 579.0156,1046.4375 Q579.3906,1046.4375 579.625,1046.7031 Q579.8594,1046.9531 579.8594,1047.5625 L579.8594,1049.0156 Q579.8594,1049.625 579.625,1049.8906 Q579.3906,1050.1563 579.0156,1050.1563 Q578.6719,1050.1563 578.4688,1049.9531 Q578.2656,1049.7656 578.1563,1049.25 Q578.1094,1048.8906 577.9219,1048.7031 Q577.5938,1048.3281 576.9844,1048.1094 Q576.375,1047.8906 575.75,1047.8906 Q574.9844,1047.8906 574.3438,1048.2188 Q573.7188,1048.5469 573.2188,1049.2969 Q572.7344,1050.0469 572.7344,1051.0781 L572.7344,1052.1719 Q572.7344,1053.4063 573.625,1054.2344 Q574.5156,1055.0469 576.1094,1055.0469 Q577.0469,1055.0469 577.7031,1054.7969 Q578.0938,1054.6406 578.5156,1054.2031 Q578.7813,1053.9375 578.9219,1053.8594 Q579.0781,1053.7813 579.2813,1053.7813 Q579.6094,1053.7813 579.8594,1054.0469 Q580.125,1054.2969 580.125,1054.6406 Q580.125,1054.9844 579.7813,1055.3906 Q579.2813,1055.9688 578.4844,1056.2969 Q577.4063,1056.75 576.1094,1056.75 Q574.5938,1056.75 573.3906,1056.125 Q572.4063,1055.625 571.7188,1054.5625 Q571.0313,1053.4844 571.0313,1052.2031 L571.0313,1051.0469 Q571.0313,1049.7188 571.6406,1048.5781 Q572.2656,1047.4219 573.3594,1046.8125 Q574.4531,1046.1875 575.6875,1046.1875 Q576.4219,1046.1875 577.0625,1046.3594 Q577.7188,1046.5156 578.2656,1046.875 Z "/><text fill="#000000" font-family="sans-serif" font-size="12" lengthAdjust="spacingAndGlyphs" textLength="123" x="589.5" y="1055.9102">DataBluePrintInstance</text><line style="stroke: #A80036; stroke-width: 1.5;" x1="561.5" x2="714.5" y1="1067" y2="1067"/><text fill="#000000" font-family="sans-serif" font-size="11" lengthAdjust="spacingAndGlyphs" textLength="56" x="566.5" y="1082.4189">string name</text><text fill="#000000" font-family="sans-serif" font-size="11" lengthAdjust="spacingAndGlyphs" textLength="78" x="566.5" y="1096.2549">json parameters</text><line style="stroke: #A80036; stroke-width: 1.5;" x1="561.5" x2="714.5" y1="1102.6719" y2="1102.6719"/><!--class DataFlowInstance--><rect fill="#FEFECE" filter="url(#f7h9cdyn7xtmb)" height="75.6719" id="DataFlowInstance" style="stroke: #A80036; stroke-width: 1.5;" width="131" x="426.5" y="1201"/><ellipse cx="441.5" cy="1217" fill="#ADD1B2" rx="11" ry="11" style="stroke: #A80036; stroke-width: 1.0;"/><path d="M444.2656,1212.875 Q444.4219,1212.6563 444.6094,1212.5469 Q444.7969,1212.4375 445.0156,1212.4375 Q445.3906,1212.4375 445.625,1212.7031 Q445.8594,1212.9531 445.8594,1213.5625 L445.8594,1215.0156 Q445.8594,1215.625 445.625,1215.8906 Q445.3906,1216.1563 445.0156,1216.1563 Q444.6719,1216.1563 444.4688,1215.9531 Q444.2656,1215.7656 444.1563,1215.25 Q444.1094,1214.8906 443.9219,1214.7031 Q443.5938,1214.3281 442.9844,1214.1094 Q442.375,1213.8906 441.75,1213.8906 Q440.9844,1213.8906 440.3438,1214.2188 Q439.7188,1214.5469 439.2188,1215.2969 Q438.7344,1216.0469 438.7344,1217.0781 L438.7344,1218.1719 Q438.7344,1219.4063 439.625,1220.2344 Q440.5156,1221.0469 442.1094,1221.0469 Q443.0469,1221.0469 443.7031,1220.7969 Q444.0938,1220.6406 444.5156,1220.2031 Q444.7813,1219.9375 444.9219,1219.8594 Q445.0781,1219.7813 445.2813,1219.7813 Q445.6094,1219.7813 445.8594,1220.0469 Q446.125,1220.2969 446.125,1220.6406 Q446.125,1220.9844 445.7813,1221.3906 Q445.2813,1221.9688 444.4844,1222.2969 Q443.4063,1222.75 442.1094,1222.75 Q440.5938,1222.75 439.3906,1222.125 Q438.4063,1221.625 437.7188,1220.5625 Q437.0313,1219.4844 437.0313,1218.2031 L437.0313,1217.0469 Q437.0313,1215.7188 437.6406,1214.5781 Q438.2656,1213.4219 439.3594,1212.8125 Q440.4531,1212.1875 441.6875,1212.1875 Q442.4219,1212.1875 443.0625,1212.3594 Q443.7188,1212.5156 444.2656,1212.875 Z "/><text fill="#000000" font-family="sans-serif" font-size="12" lengthAdjust="spacingAndGlyphs" textLength="99" x="455.5" y="1221.9102">DataFlowInstance</text><line style="stroke: #A80036; stroke-width: 1.5;" x1="427.5" x2="556.5" y1="1233" y2="1233"/><text fill="#000000" font-family="sans-serif" font-size="11" lengthAdjust="spacingAndGlyphs" textLength="56" x="432.5" y="1248.4189">string name</text><line style="stroke: #A80036; stroke-width: 1.5;" x1="427.5" x2="556.5" y1="1254.8359" y2="1254.8359"/><text fill="#000000" font-family="sans-serif" font-size="11" lengthAdjust="spacingAndGlyphs" textLength="39" x="432.5" y="1270.2549">create()</text><!--class DataFlow--><rect fill="#FEFECE" filter="url(#f7h9cdyn7xtmb)" height="75.6719" id="DataFlow" style="stroke: #A80036; stroke-width: 1.5;" width="84" x="279" y="1355"/><ellipse cx="294" cy="1371" fill="#ADD1B2" rx="11" ry="11" style="stroke: #A80036; stroke-width: 1.0;"/><path d="M296.7656,1366.875 Q296.9219,1366.6563 297.1094,1366.5469 Q297.2969,1366.4375 297.5156,1366.4375 Q297.8906,1366.4375 298.125,1366.7031 Q298.3594,1366.9531 298.3594,1367.5625 L298.3594,1369.0156 Q298.3594,1369.625 298.125,1369.8906 Q297.8906,1370.1563 297.5156,1370.1563 Q297.1719,1370.1563 296.9688,1369.9531 Q296.7656,1369.7656 296.6563,1369.25 Q296.6094,1368.8906 296.4219,1368.7031 Q296.0938,1368.3281 295.4844,1368.1094 Q294.875,1367.8906 294.25,1367.8906 Q293.4844,1367.8906 292.8438,1368.2188 Q292.2188,1368.5469 291.7188,1369.2969 Q291.2344,1370.0469 291.2344,1371.0781 L291.2344,1372.1719 Q291.2344,1373.4063 292.125,1374.2344 Q293.0156,1375.0469 294.6094,1375.0469 Q295.5469,1375.0469 296.2031,1374.7969 Q296.5938,1374.6406 297.0156,1374.2031 Q297.2813,1373.9375 297.4219,1373.8594 Q297.5781,1373.7813 297.7813,1373.7813 Q298.1094,1373.7813 298.3594,1374.0469 Q298.625,1374.2969 298.625,1374.6406 Q298.625,1374.9844 298.2813,1375.3906 Q297.7813,1375.9688 296.9844,1376.2969 Q295.9063,1376.75 294.6094,1376.75 Q293.0938,1376.75 291.8906,1376.125 Q290.9063,1375.625 290.2188,1374.5625 Q289.5313,1373.4844 289.5313,1372.2031 L289.5313,1371.0469 Q289.5313,1369.7188 290.1406,1368.5781 Q290.7656,1367.4219 291.8594,1366.8125 Q292.9531,1366.1875 294.1875,1366.1875 Q294.9219,1366.1875 295.5625,1366.3594 Q296.2188,1366.5156 296.7656,1366.875 Z "/><text fill="#000000" font-family="sans-serif" font-size="12" lengthAdjust="spacingAndGlyphs" textLength="52" x="308" y="1375.9102">DataFlow</text><line style="stroke: #A80036; stroke-width: 1.5;" x1="280" x2="362" y1="1387" y2="1387"/><text fill="#000000" font-family="sans-serif" font-size="11" lengthAdjust="spacingAndGlyphs" textLength="52" x="285" y="1402.4189">string attr1</text><line style="stroke: #A80036; stroke-width: 1.5;" x1="280" x2="362" y1="1408.8359" y2="1408.8359"/><text fill="#000000" font-family="sans-serif" font-size="11" lengthAdjust="spacingAndGlyphs" textLength="39" x="285" y="1424.2549">create()</text><!--class DataProcedure--><rect fill="#FEFECE" filter="url(#f7h9cdyn7xtmb)" height="61.8359" id="DataProcedure" style="stroke: #A80036; stroke-width: 1.5;" width="115" x="93.5" y="1362"/><ellipse cx="108.5" cy="1378" fill="#ADD1B2" rx="11" ry="11" style="stroke: #A80036; stroke-width: 1.0;"/><path d="M111.2656,1373.875 Q111.4219,1373.6563 111.6094,1373.5469 Q111.7969,1373.4375 112.0156,1373.4375 Q112.3906,1373.4375 112.625,1373.7031 Q112.8594,1373.9531 112.8594,1374.5625 L112.8594,1376.0156 Q112.8594,1376.625 112.625,1376.8906 Q112.3906,1377.1563 112.0156,1377.1563 Q111.6719,1377.1563 111.4688,1376.9531 Q111.2656,1376.7656 111.1563,1376.25 Q111.1094,1375.8906 110.9219,1375.7031 Q110.5938,1375.3281 109.9844,1375.1094 Q109.375,1374.8906 108.75,1374.8906 Q107.9844,1374.8906 107.3438,1375.2188 Q106.7188,1375.5469 106.2188,1376.2969 Q105.7344,1377.0469 105.7344,1378.0781 L105.7344,1379.1719 Q105.7344,1380.4063 106.625,1381.2344 Q107.5156,1382.0469 109.1094,1382.0469 Q110.0469,1382.0469 110.7031,1381.7969 Q111.0938,1381.6406 111.5156,1381.2031 Q111.7813,1380.9375 111.9219,1380.8594 Q112.0781,1380.7813 112.2813,1380.7813 Q112.6094,1380.7813 112.8594,1381.0469 Q113.125,1381.2969 113.125,1381.6406 Q113.125,1381.9844 112.7813,1382.3906 Q112.2813,1382.9688 111.4844,1383.2969 Q110.4063,1383.75 109.1094,1383.75 Q107.5938,1383.75 106.3906,1383.125 Q105.4063,1382.625 104.7188,1381.5625 Q104.0313,1380.4844 104.0313,1379.2031 L104.0313,1378.0469 Q104.0313,1376.7188 104.6406,1375.5781 Q105.2656,1374.4219 106.3594,1373.8125 Q107.4531,1373.1875 108.6875,1373.1875 Q109.4219,1373.1875 110.0625,1373.3594 Q110.7188,1373.5156 111.2656,1373.875 Z "/><text fill="#000000" font-family="sans-serif" font-size="12" lengthAdjust="spacingAndGlyphs" textLength="83" x="122.5" y="1382.9102">DataProcedure</text><line style="stroke: #A80036; stroke-width: 1.5;" x1="94.5" x2="207.5" y1="1394" y2="1394"/><text fill="#000000" font-family="sans-serif" font-size="11" lengthAdjust="spacingAndGlyphs" textLength="56" x="99.5" y="1409.4189">string name</text><line style="stroke: #A80036; stroke-width: 1.5;" x1="94.5" x2="207.5" y1="1415.8359" y2="1415.8359"/><!--class DataPipeline--><rect fill="#FEFECE" filter="url(#f7h9cdyn7xtmb)" height="61.8359" id="DataPipeline" style="stroke: #A80036; stroke-width: 1.5;" width="103" x="143.5" y="1208"/><ellipse cx="158.5" cy="1224" fill="#ADD1B2" rx="11" ry="11" style="stroke: #A80036; stroke-width: 1.0;"/><path d="M161.2656,1219.875 Q161.4219,1219.6563 161.6094,1219.5469 Q161.7969,1219.4375 162.0156,1219.4375 Q162.3906,1219.4375 162.625,1219.7031 Q162.8594,1219.9531 162.8594,1220.5625 L162.8594,1222.0156 Q162.8594,1222.625 162.625,1222.8906 Q162.3906,1223.1563 162.0156,1223.1563 Q161.6719,1223.1563 161.4688,1222.9531 Q161.2656,1222.7656 161.1563,1222.25 Q161.1094,1221.8906 160.9219,1221.7031 Q160.5938,1221.3281 159.9844,1221.1094 Q159.375,1220.8906 158.75,1220.8906 Q157.9844,1220.8906 157.3438,1221.2188 Q156.7188,1221.5469 156.2188,1222.2969 Q155.7344,1223.0469 155.7344,1224.0781 L155.7344,1225.1719 Q155.7344,1226.4063 156.625,1227.2344 Q157.5156,1228.0469 159.1094,1228.0469 Q160.0469,1228.0469 160.7031,1227.7969 Q161.0938,1227.6406 161.5156,1227.2031 Q161.7813,1226.9375 161.9219,1226.8594 Q162.0781,1226.7813 162.2813,1226.7813 Q162.6094,1226.7813 162.8594,1227.0469 Q163.125,1227.2969 163.125,1227.6406 Q163.125,1227.9844 162.7813,1228.3906 Q162.2813,1228.9688 161.4844,1229.2969 Q160.4063,1229.75 159.1094,1229.75 Q157.5938,1229.75 156.3906,1229.125 Q155.4063,1228.625 154.7188,1227.5625 Q154.0313,1226.4844 154.0313,1225.2031 L154.0313,1224.0469 Q154.0313,1222.7188 154.6406,1221.5781 Q155.2656,1220.4219 156.3594,1219.8125 Q157.4531,1219.1875 158.6875,1219.1875 Q159.4219,1219.1875 160.0625,1219.3594 Q160.7188,1219.5156 161.2656,1219.875 Z "/><text fill="#000000" font-family="sans-serif" font-size="12" lengthAdjust="spacingAndGlyphs" textLength="71" x="172.5" y="1228.9102">DataPipeline</text><line style="stroke: #A80036; stroke-width: 1.5;" x1="144.5" x2="245.5" y1="1240" y2="1240"/><text fill="#000000" font-family="sans-serif" font-size="11" lengthAdjust="spacingAndGlyphs" textLength="56" x="149.5" y="1255.4189">string name</text><line style="stroke: #A80036; stroke-width: 1.5;" x1="144.5" x2="245.5" y1="1261.8359" y2="1261.8359"/><!--class i--><rect fill="#FEFECE" filter="url(#f7h9cdyn7xtmb)" height="186.3594" id="i" style="stroke: #A80036; stroke-width: 1.5;" width="211" x="250.5" y="117"/><ellipse cx="280.35" cy="133" fill="#B4A7E5" rx="11" ry="11" style="stroke: #A80036; stroke-width: 1.0;"/><path d="M281.3031,129.6406 L281.3031,136.2969 L283.0219,136.2969 Q283.6313,136.2969 283.8969,136.5313 Q284.1625,136.7656 284.1625,137.1563 Q284.1625,137.5313 283.8969,137.7656 Q283.6313,138 283.0219,138 L277.8813,138 Q277.2719,138 277.0063,137.7656 Q276.7406,137.5313 276.7406,137.1406 Q276.7406,136.7656 277.0063,136.5313 Q277.2719,136.2969 277.8813,136.2969 L279.6,136.2969 L279.6,129.6406 L277.8813,129.6406 Q277.2719,129.6406 277.0063,129.4063 Q276.7406,129.1719 276.7406,128.7813 Q276.7406,128.4063 277.0063,128.1719 Q277.2719,127.9375 277.8813,127.9375 L283.0219,127.9375 Q283.6313,127.9375 283.8969,128.1719 Q284.1625,128.4063 284.1625,128.7813 Q284.1625,129.1719 283.8969,129.4063 Q283.6313,129.6406 283.0219,129.6406 L281.3031,129.6406 Z "/><text fill="#000000" font-family="sans-serif" font-size="12" font-style="italic" lengthAdjust="spacingAndGlyphs" textLength="146" x="297.65" y="137.9102">Data Definition Framework</text><line style="stroke: #A80036; stroke-width: 1.5;" x1="251.5" x2="460.5" y1="149" y2="149"/><line style="stroke: #A80036; stroke-width: 1.5;" x1="251.5" x2="460.5" y1="157" y2="157"/><text fill="#000000" font-family="sans-serif" font-size="11" lengthAdjust="spacingAndGlyphs" textLength="160" x="256.5" y="172.4189">/edgemere/diml/ddf/data/govern()</text><text fill="#000000" font-family="sans-serif" font-size="11" lengthAdjust="spacingAndGlyphs" textLength="189" x="256.5" y="186.2549">/edgemere/diml/ddf/data/source/name()</text><text fill="#000000" font-family="sans-serif" font-size="11" lengthAdjust="spacingAndGlyphs" textLength="199" x="256.5" y="200.0908">/edgemere/diml/ddf/datablueprint/deploy()</text><text fill="#000000" font-family="sans-serif" font-size="11" lengthAdjust="spacingAndGlyphs" textLength="180" x="256.5" y="213.9268">/edgemere/diml/ddf/datablueprint/list()</text><text fill="#000000" font-family="sans-serif" font-size="11" lengthAdjust="spacingAndGlyphs" textLength="174" x="256.5" y="227.7627">/edgemere/diml/ddf/datacatalog/list()</text><text fill="#000000" font-family="sans-serif" font-size="11" lengthAdjust="spacingAndGlyphs" textLength="170" x="256.5" y="241.5986">/edgemere/diml/ddf/datadaptor/list()</text><text fill="#000000" font-family="sans-serif" font-size="11" lengthAdjust="spacingAndGlyphs" textLength="175" x="256.5" y="255.4346">/edgemere/diml/ddf/datapipeline/list()</text><text fill="#000000" font-family="sans-serif" font-size="11" lengthAdjust="spacingAndGlyphs" textLength="189" x="256.5" y="269.2705">/edgemere/diml/ddf/dataprocedure/list()</text><text fill="#000000" font-family="sans-serif" font-size="11" lengthAdjust="spacingAndGlyphs" textLength="199" x="256.5" y="283.1064">/edgemere/diml/ddf/datasource/simulate()</text><text fill="#000000" font-family="sans-serif" font-size="11" lengthAdjust="spacingAndGlyphs" textLength="162" x="256.5" y="296.9424">/edgemere/diml/ddf/metadata/list()</text><!--class DataAdaptorInstance--><rect fill="#FEFECE" filter="url(#f7h9cdyn7xtmb)" height="61.8359" id="DataAdaptorInstance" style="stroke: #A80036; stroke-width: 1.5;" width="147" x="54.5" y="179"/><ellipse cx="69.5" cy="195" fill="#ADD1B2" rx="11" ry="11" style="stroke: #A80036; stroke-width: 1.0;"/><path d="M72.2656,190.875 Q72.4219,190.6563 72.6094,190.5469 Q72.7969,190.4375 73.0156,190.4375 Q73.3906,190.4375 73.625,190.7031 Q73.8594,190.9531 73.8594,191.5625 L73.8594,193.0156 Q73.8594,193.625 73.625,193.8906 Q73.3906,194.1563 73.0156,194.1563 Q72.6719,194.1563 72.4688,193.9531 Q72.2656,193.7656 72.1563,193.25 Q72.1094,192.8906 71.9219,192.7031 Q71.5938,192.3281 70.9844,192.1094 Q70.375,191.8906 69.75,191.8906 Q68.9844,191.8906 68.3438,192.2188 Q67.7188,192.5469 67.2188,193.2969 Q66.7344,194.0469 66.7344,195.0781 L66.7344,196.1719 Q66.7344,197.4063 67.625,198.2344 Q68.5156,199.0469 70.1094,199.0469 Q71.0469,199.0469 71.7031,198.7969 Q72.0938,198.6406 72.5156,198.2031 Q72.7813,197.9375 72.9219,197.8594 Q73.0781,197.7813 73.2813,197.7813 Q73.6094,197.7813 73.8594,198.0469 Q74.125,198.2969 74.125,198.6406 Q74.125,198.9844 73.7813,199.3906 Q73.2813,199.9688 72.4844,200.2969 Q71.4063,200.75 70.1094,200.75 Q68.5938,200.75 67.3906,200.125 Q66.4063,199.625 65.7188,198.5625 Q65.0313,197.4844 65.0313,196.2031 L65.0313,195.0469 Q65.0313,193.7188 65.6406,192.5781 Q66.2656,191.4219 67.3594,190.8125 Q68.4531,190.1875 69.6875,190.1875 Q70.4219,190.1875 71.0625,190.3594 Q71.7188,190.5156 72.2656,190.875 Z "/><text fill="#000000" font-family="sans-serif" font-size="12" lengthAdjust="spacingAndGlyphs" textLength="115" x="83.5" y="199.9102">DataAdaptorInstance</text><line style="stroke: #A80036; stroke-width: 1.5;" x1="55.5" x2="200.5" y1="211" y2="211"/><text fill="#000000" font-family="sans-serif" font-size="11" lengthAdjust="spacingAndGlyphs" textLength="52" x="60.5" y="226.4189">string attr1</text><line style="stroke: #A80036; stroke-width: 1.5;" x1="55.5" x2="200.5" y1="232.8359" y2="232.8359"/><!--class ModelName--><rect fill="#FEFECE" filter="url(#f7h9cdyn7xtmb)" height="48" id="ModelName" style="stroke: #A80036; stroke-width: 1.5;" width="99" x="54.5" y="395"/><ellipse cx="69.5" cy="411" fill="#ADD1B2" rx="11" ry="11" style="stroke: #A80036; stroke-width: 1.0;"/><path d="M72.2656,406.875 Q72.4219,406.6563 72.6094,406.5469 Q72.7969,406.4375 73.0156,406.4375 Q73.3906,406.4375 73.625,406.7031 Q73.8594,406.9531 73.8594,407.5625 L73.8594,409.0156 Q73.8594,409.625 73.625,409.8906 Q73.3906,410.1563 73.0156,410.1563 Q72.6719,410.1563 72.4688,409.9531 Q72.2656,409.7656 72.1563,409.25 Q72.1094,408.8906 71.9219,408.7031 Q71.5938,408.3281 70.9844,408.1094 Q70.375,407.8906 69.75,407.8906 Q68.9844,407.8906 68.3438,408.2188 Q67.7188,408.5469 67.2188,409.2969 Q66.7344,410.0469 66.7344,411.0781 L66.7344,412.1719 Q66.7344,413.4063 67.625,414.2344 Q68.5156,415.0469 70.1094,415.0469 Q71.0469,415.0469 71.7031,414.7969 Q72.0938,414.6406 72.5156,414.2031 Q72.7813,413.9375 72.9219,413.8594 Q73.0781,413.7813 73.2813,413.7813 Q73.6094,413.7813 73.8594,414.0469 Q74.125,414.2969 74.125,414.6406 Q74.125,414.9844 73.7813,415.3906 Q73.2813,415.9688 72.4844,416.2969 Q71.4063,416.75 70.1094,416.75 Q68.5938,416.75 67.3906,416.125 Q66.4063,415.625 65.7188,414.5625 Q65.0313,413.4844 65.0313,412.2031 L65.0313,411.0469 Q65.0313,409.7188 65.6406,408.5781 Q66.2656,407.4219 67.3594,406.8125 Q68.4531,406.1875 69.6875,406.1875 Q70.4219,406.1875 71.0625,406.3594 Q71.7188,406.5156 72.2656,406.875 Z "/><text fill="#000000" font-family="sans-serif" font-size="12" lengthAdjust="spacingAndGlyphs" textLength="67" x="83.5" y="415.9102">ModelName</text><line style="stroke: #A80036; stroke-width: 1.5;" x1="55.5" x2="152.5" y1="427" y2="427"/><line style="stroke: #A80036; stroke-width: 1.5;" x1="55.5" x2="152.5" y1="435" y2="435"/><!--class Identity--><rect fill="#FEFECE" filter="url(#f7h9cdyn7xtmb)" height="48" id="Identity" style="stroke: #A80036; stroke-width: 1.5;" width="70" x="932" y="1215"/><ellipse cx="947" cy="1231" fill="#ADD1B2" rx="11" ry="11" style="stroke: #A80036; stroke-width: 1.0;"/><path d="M949.7656,1226.875 Q949.9219,1226.6563 950.1094,1226.5469 Q950.2969,1226.4375 950.5156,1226.4375 Q950.8906,1226.4375 951.125,1226.7031 Q951.3594,1226.9531 951.3594,1227.5625 L951.3594,1229.0156 Q951.3594,1229.625 951.125,1229.8906 Q950.8906,1230.1563 950.5156,1230.1563 Q950.1719,1230.1563 949.9688,1229.9531 Q949.7656,1229.7656 949.6563,1229.25 Q949.6094,1228.8906 949.4219,1228.7031 Q949.0938,1228.3281 948.4844,1228.1094 Q947.875,1227.8906 947.25,1227.8906 Q946.4844,1227.8906 945.8438,1228.2188 Q945.2188,1228.5469 944.7188,1229.2969 Q944.2344,1230.0469 944.2344,1231.0781 L944.2344,1232.1719 Q944.2344,1233.4063 945.125,1234.2344 Q946.0156,1235.0469 947.6094,1235.0469 Q948.5469,1235.0469 949.2031,1234.7969 Q949.5938,1234.6406 950.0156,1234.2031 Q950.2813,1233.9375 950.4219,1233.8594 Q950.5781,1233.7813 950.7813,1233.7813 Q951.1094,1233.7813 951.3594,1234.0469 Q951.625,1234.2969 951.625,1234.6406 Q951.625,1234.9844 951.2813,1235.3906 Q950.7813,1235.9688 949.9844,1236.2969 Q948.9063,1236.75 947.6094,1236.75 Q946.0938,1236.75 944.8906,1236.125 Q943.9063,1235.625 943.2188,1234.5625 Q942.5313,1233.4844 942.5313,1232.2031 L942.5313,1231.0469 Q942.5313,1229.7188 943.1406,1228.5781 Q943.7656,1227.4219 944.8594,1226.8125 Q945.9531,1226.1875 947.1875,1226.1875 Q947.9219,1226.1875 948.5625,1226.3594 Q949.2188,1226.5156 949.7656,1226.875 Z "/><text fill="#000000" font-family="sans-serif" font-size="12" lengthAdjust="spacingAndGlyphs" textLength="38" x="961" y="1235.9102">Identity</text><line style="stroke: #A80036; stroke-width: 1.5;" x1="933" x2="1001" y1="1247" y2="1247"/><line style="stroke: #A80036; stroke-width: 1.5;" x1="933" x2="1001" y1="1255" y2="1255"/><ellipse cx="311" cy="13" fill="#FEFECE" filter="url(#f7h9cdyn7xtmb)" rx="5" ry="5" style="stroke: #A80036; stroke-width: 1.5;"/><text fill="#000000" font-family="sans-serif" font-size="12" lengthAdjust="spacingAndGlyphs" textLength="19" x="301.5" y="30.457">CLI</text><ellipse cx="356" cy="13" fill="#FEFECE" filter="url(#f7h9cdyn7xtmb)" rx="5" ry="5" style="stroke: #A80036; stroke-width: 1.5;"/><text fill="#000000" font-family="sans-serif" font-size="12" lengthAdjust="spacingAndGlyphs" textLength="32" x="340" y="30.457">REST</text><ellipse cx="401" cy="13" fill="#FEFECE" filter="url(#f7h9cdyn7xtmb)" rx="5" ry="5" style="stroke: #A80036; stroke-width: 1.5;"/><text fill="#000000" font-family="sans-serif" font-size="12" lengthAdjust="spacingAndGlyphs" textLength="25" x="388.5" y="30.457">Web</text><!--link ilol5156 to i--><path d="M311.94,18.07 C314.994,31.31 325.005,74.69 334.713,116.76 " fill="none" id="ilol5156-i" style="stroke: #A80036; stroke-width: 1.0;"/><!--link ilol5159 to i--><path d="M356,18.07 C356,31.31 356,74.69 356,116.76 " fill="none" id="ilol5159-i" style="stroke: #A80036; stroke-width: 1.0;"/><!--link ilol5162 to i--><path d="M400.06,18.07 C397.006,31.31 386.995,74.69 377.287,116.76 " fill="none" id="ilol5162-i" style="stroke: #A80036; stroke-width: 1.0;"/><!--link DataAdaptor to DataBluePrint--><path d="M594.155,676.837 C596.922,670.881 599.602,664.84 602,659 C649.162,544.171 647.357,503.772 629,381 C623.605,344.92 612.104,305.91 601.287,274.37 " fill="none" id="DataAdaptor-DataBluePrint" style="stroke: #A80036; stroke-width: 1.0;"/><polygon fill="#A80036" points="596.873,261.79,596.0754,271.6065,598.527,266.5085,603.625,268.9601,596.873,261.79" style="stroke: #A80036; stroke-width: 1.0;"/><line style="stroke: #A80036; stroke-width: 1.0;" x1="598.527" x2="601.1765" y1="266.5085" y2="274.055"/><polygon fill="#FFFFFF" points="588.413,688.85,594.6097,685.1621,593.5888,678.0236,587.3921,681.7115,588.413,688.85" style="stroke: #A80036; stroke-width: 1.0;"/><text fill="#000000" font-family="sans-serif" font-size="13" lengthAdjust="spacingAndGlyphs" textLength="49" x="643" y="501.4951">blueprint</text><text fill="#000000" font-family="sans-serif" font-size="13" lengthAdjust="spacingAndGlyphs" textLength="7" x="592.0731" y="283.3199">1</text><!--link DataAdaptor to DataSource--><path d="M523.325,776.246 C519.561,782.225 516.318,788.524 514,795 C509.926,806.384 510.514,818.638 513.464,830.373 " fill="none" id="DataAdaptor-DataSource" style="stroke: #A80036; stroke-width: 1.0;"/><polygon fill="#A80036" points="517.484,842.838,518.5287,833.0447,515.9494,838.0793,510.9148,835.5,517.484,842.838" style="stroke: #A80036; stroke-width: 1.0;"/><line style="stroke: #A80036; stroke-width: 1.0;" x1="515.9494" x2="513.4935" y1="838.0793" y2="830.4655"/><polygon fill="#A80036" points="531.1,765.181,524.3779,767.7912,524.2018,775.0001,530.924,772.39,531.1,765.181" style="stroke: #A80036; stroke-width: 1.0;"/><text fill="#000000" font-family="sans-serif" font-size="13" lengthAdjust="spacingAndGlyphs" textLength="46" x="515" y="809.4951">sources</text><text fill="#000000" font-family="sans-serif" font-size="13" lengthAdjust="spacingAndGlyphs" textLength="7" x="505.8878" y="832.2573">n</text><!--link DataSource to DataAdaptor--><path d="M562.55,829.816 C563.91,824.178 565.099,818.506 566,813 C567.833,801.793 568.836,789.648 569.341,778.141 " fill="none" id="DataSource-DataAdaptor" style="stroke: #A80036; stroke-width: 1.0;"/><polygon fill="#A80036" points="569.726,765.019,565.4637,773.8978,569.5793,770.0168,573.4602,774.1325,569.726,765.019" style="stroke: #A80036; stroke-width: 1.0;"/><line style="stroke: #A80036; stroke-width: 1.0;" x1="569.5793" x2="569.345" y1="770.0168" y2="778.0135"/><polygon fill="#FFFFFF" points="559.12,842.817,564.518,838.0357,562.1807,831.2139,556.7826,835.9952,559.12,842.817" style="stroke: #A80036; stroke-width: 1.0;"/><text fill="#000000" font-family="sans-serif" font-size="13" lengthAdjust="spacingAndGlyphs" textLength="43" x="570" y="809.4951">adaptor</text><text fill="#000000" font-family="sans-serif" font-size="13" lengthAdjust="spacingAndGlyphs" textLength="7" x="562.2666" y="786.1923">1</text><!--link DataAdaptorInstance to ModelName--><path d="M122.992,254.19 C118.61,291.99 112.317,346.27 108.194,381.82 " fill="none" id="DataAdaptorInstance-ModelName" style="stroke: #A80036; stroke-width: 1.0;"/><polygon fill="#A80036" points="106.677,394.91,111.6887,386.4316,107.2539,389.9434,103.7422,385.5086,106.677,394.91" style="stroke: #A80036; stroke-width: 1.0;"/><line style="stroke: #A80036; stroke-width: 1.0;" x1="107.2539" x2="108.1744" y1="389.9434" y2="381.995"/><polygon fill="#FFFFFF" points="124.51,241.1,119.8445,246.5984,123.1255,253.0199,127.791,247.5214,124.51,241.1" style="stroke: #A80036; stroke-width: 1.0;"/><text fill="#000000" font-family="sans-serif" font-size="13" lengthAdjust="spacingAndGlyphs" textLength="42" x="115" y="347.4951">assoc1</text><text fill="#000000" font-family="sans-serif" font-size="13" lengthAdjust="spacingAndGlyphs" textLength="7" x="99.4662" y="384.2271">1</text><!--link DataAdaptorTemplate to DataAdaptor--><path d="M539.448,623.911 C544.289,640.634 549.685,659.275 554.527,676.004 " fill="none" id="DataAdaptorTemplate-DataAdaptor" style="stroke: #A80036; stroke-width: 1.0;"/><polygon fill="#A80036" points="558.271,688.937,559.611,679.1797,556.8809,684.1341,551.9265,681.404,558.271,688.937" style="stroke: #A80036; stroke-width: 1.0;"/><line style="stroke: #A80036; stroke-width: 1.0;" x1="556.8809" x2="554.6565" y1="684.1341" y2="676.45"/><polygon fill="#FFFFFF" points="535.764,611.183,533.5899,618.0586,539.1003,622.7099,541.2745,615.8343,535.764,611.183" style="stroke: #A80036; stroke-width: 1.0;"/><text fill="#000000" font-family="sans-serif" font-size="13" lengthAdjust="spacingAndGlyphs" textLength="43" x="550" y="655.4951">adaptor</text><text fill="#000000" font-family="sans-serif" font-size="13" lengthAdjust="spacingAndGlyphs" textLength="7" x="548.6475" y="678.0019">1</text><!--link DataAdaptorTemplate to DataBluePrint--><path d="M436.374,547.306 C391.618,529.854 341.34,501.456 315,457 C297.782,427.94 296.96,409.56 315,381 C358.108,312.76 412.334,348.5 479,303 C492.764,293.61 506.475,282.29 519.091,270.87 " fill="none" id="DataAdaptorTemplate-DataBluePrint" style="stroke: #A80036; stroke-width: 1.0;"/><polygon fill="#A80036" points="528.954,261.71,519.6364,264.901,525.2893,265.1115,525.0788,270.7644,528.954,261.71" style="stroke: #A80036; stroke-width: 1.0;"/><line style="stroke: #A80036; stroke-width: 1.0;" x1="525.2893" x2="519.4265" y1="265.1115" y2="270.555"/><polygon fill="#FFFFFF" points="448.826,551.943,444.5987,546.1009,437.5801,547.7561,441.8074,553.5982,448.826,551.943" style="stroke: #A80036; stroke-width: 1.0;"/><text fill="#000000" font-family="sans-serif" font-size="13" lengthAdjust="spacingAndGlyphs" textLength="49" x="316" y="424.4951">blueprint</text><text fill="#000000" font-family="sans-serif" font-size="13" lengthAdjust="spacingAndGlyphs" textLength="7" x="515.0275" y="283.2292">1</text><!--link DataBluePrint to DataAdaptorTemplate--><path d="M576.01,274.63 C573.939,334.7 567.811,426.95 550,505 C548.691,510.738 547.009,516.649 545.138,522.471 " fill="none" id="DataBluePrint-DataAdaptorTemplate" style="stroke: #A80036; stroke-width: 1.0;"/><polygon fill="#A80036" points="540.809,534.975,547.5325,527.7782,542.4443,530.25,539.9725,525.1617,540.809,534.975" style="stroke: #A80036; stroke-width: 1.0;"/><line style="stroke: #A80036; stroke-width: 1.0;" x1="542.4443" x2="545.0615" y1="530.25" y2="522.69"/><polygon fill="#A80036" points="576.413,261.58,572.2303,267.4541,576.0438,273.5743,580.2265,267.7002,576.413,261.58" style="stroke: #A80036; stroke-width: 1.0;"/><text fill="#000000" font-family="sans-serif" font-size="13" lengthAdjust="spacingAndGlyphs" textLength="50" x="570" y="424.4951">adaptors</text><text fill="#000000" font-family="sans-serif" font-size="13" lengthAdjust="spacingAndGlyphs" textLength="7" x="536.0785" y="524.0469">n</text><!--link DataBluePrint to Identity--><path d="M607.553,273.2 C615.261,284.33 624.415,294.93 635,303 C774.979,409.73 1014,241.97 1014,418 C1014,418 1014,418 1014,1074 C1014,1119.889 996.785,1170.303 983.192,1202.956 " fill="none" id="DataBluePrint-Identity" style="stroke: #A80036; stroke-width: 1.0;"/><polygon fill="#A80036" points="978.019,1214.969,985.2523,1208.2848,979.9965,1210.3767,977.9046,1205.1208,978.019,1214.969" style="stroke: #A80036; stroke-width: 1.0;"/><line style="stroke: #A80036; stroke-width: 1.0;" x1="979.9965" x2="983.161" y1="1210.3767" y2="1203.0285"/><polygon fill="#FFFFFF" points="600.327,261.97,600.2074,269.1801,606.8169,272.0636,606.9365,264.8535,600.327,261.97" style="stroke: #A80036; stroke-width: 1.0;"/><text fill="#000000" font-family="sans-serif" font-size="13" lengthAdjust="spacingAndGlyphs" textLength="42" x="1015" y="732.4951">identity</text><text fill="#000000" font-family="sans-serif" font-size="13" lengthAdjust="spacingAndGlyphs" textLength="7" x="972.9457" y="1204.3012">1</text><!--link DataBluePrint to DataFlowTemplate--><path d="M539.428,273.22 C520.803,304.06 498.645,340.76 481.297,369.48 " fill="none" id="DataBluePrint-DataFlowTemplate" style="stroke: #A80036; stroke-width: 1.0;"/><polygon fill="#A80036" points="474.422,380.87,482.4963,375.2303,477.005,376.5889,475.6464,371.0976,474.422,380.87" style="stroke: #A80036; stroke-width: 1.0;"/><line style="stroke: #A80036; stroke-width: 1.0;" x1="477.005" x2="481.142" y1="376.5889" y2="369.74"/><polygon fill="#A80036" points="546.422,261.64,539.8944,264.7045,540.2126,271.9086,546.7402,268.8441,546.422,261.64" style="stroke: #A80036; stroke-width: 1.0;"/><text fill="#000000" font-family="sans-serif" font-size="13" lengthAdjust="spacingAndGlyphs" textLength="29" x="505" y="347.4951">flows</text><text fill="#000000" font-family="sans-serif" font-size="13" lengthAdjust="spacingAndGlyphs" textLength="7" x="470.7925" y="370.2087">n</text><!--link DataBluePrint to DataBluePrintInstance--><path d="M614.124,273.14 C644.262,327.43 684.386,409.48 701,487 C747.056,701.893 730.119,767.255 679,981 C675.671,994.921 670.221,1009.332 664.367,1022.468 " fill="none" id="DataBluePrint-DataBluePrintInstance" style="stroke: #A80036; stroke-width: 1.0;"/><polygon fill="#A80036" points="658.685,1034.614,666.1217,1028.1568,660.8036,1030.085,658.8753,1024.767,658.685,1034.614" style="stroke: #A80036; stroke-width: 1.0;"/><line style="stroke: #A80036; stroke-width: 1.0;" x1="660.8036" x2="664.1935" y1="1030.085" y2="1022.839"/><polygon fill="#A80036" points="607.665,261.65,607.1187,268.8404,613.5458,272.1102,614.0921,264.9198,607.665,261.65" style="stroke: #A80036; stroke-width: 1.0;"/><text fill="#000000" font-family="sans-serif" font-size="13" lengthAdjust="spacingAndGlyphs" textLength="56" x="728" y="655.4951">instances</text><text fill="#000000" font-family="sans-serif" font-size="13" lengthAdjust="spacingAndGlyphs" textLength="7" x="654.6387" y="1024.1949">n</text><!--link DataBluePrintInstance to DataBluePrint--><path d="M574.693,1027.844 C552.232,1013.774 526.248,999.223 501,989 C486.21,983.012 481.516,984.723 466,981 C380.887,960.58 330.936,1000.323 275,933 C236.014,886.077 259.89,719.977 258,659 C254.141,534.473 242.266,494.338 294,381 C305.771,355.21 311.533,347.32 336,333 C392.05,300.21 421.409,333.01 479,303 C494.988,294.67 510.25,282.99 523.769,270.74 " fill="none" id="DataBluePrintInstance-DataBluePrint" style="stroke: #A80036; stroke-width: 1.0;"/><polygon fill="#A80036" points="533.291,261.76,523.9992,265.0255,529.6537,265.1907,529.4884,270.8452,533.291,261.76" style="stroke: #A80036; stroke-width: 1.0;"/><line style="stroke: #A80036; stroke-width: 1.0;" x1="529.6537" x2="523.834" y1="265.1907" y2="270.68"/><polygon fill="#FFFFFF" points="585.754,1034.911,582.8514,1028.3099,575.6416,1028.4503,578.5443,1035.0514,585.754,1034.911" style="stroke: #A80036; stroke-width: 1.0;"/><text fill="#000000" font-family="sans-serif" font-size="13" lengthAdjust="spacingAndGlyphs" textLength="49" x="259" y="655.4951">blueprint</text><text fill="#000000" font-family="sans-serif" font-size="13" lengthAdjust="spacingAndGlyphs" textLength="7" x="527.8879" y="283.2859">1</text><!--link DataBluePrintInstance to DataSource--><path d="M590.672,1026.053 C573.715,1012.029 553.654,997.961 533,989 C522.073,984.259 487.769,990.029 480,981 C467.717,966.723 473.872,950.09 486.279,934.923 " fill="none" id="DataBluePrintInstance-DataSource" style="stroke: #A80036; stroke-width: 1.0;"/><polygon fill="#A80036" points="495.204,925.208,486.1699,929.1303,491.8216,928.8903,492.0616,934.5421,495.204,925.208" style="stroke: #A80036; stroke-width: 1.0;"/><line style="stroke: #A80036; stroke-width: 1.0;" x1="491.8216" x2="486.409" y1="928.8903" y2="934.781"/><polygon fill="#FFFFFF" points="600.808,1034.734,598.8535,1027.7928,591.6945,1026.9273,593.649,1033.8685,600.808,1034.734" style="stroke: #A80036; stroke-width: 1.0;"/><text fill="#000000" font-family="sans-serif" font-size="13" lengthAdjust="spacingAndGlyphs" textLength="46" x="481" y="977.4951">sources</text><text fill="#000000" font-family="sans-serif" font-size="13" lengthAdjust="spacingAndGlyphs" textLength="7" x="480.523" y="927.055">n</text><!--link DataBluePrintInstance to DataSource--><path d="M595.794,1024.53 C585.536,1011.156 575.402,996.113 568,981 C562.668,970.113 558.42,957.902 555.073,946.022 " fill="none" id="DataBluePrintInstance-DataSource-1" style="stroke: #A80036; stroke-width: 1.0;"/><polygon fill="#A80036" points="551.786,933.339,550.1718,943.0547,553.0404,938.1791,557.916,941.0477,551.786,933.339" style="stroke: #A80036; stroke-width: 1.0;"/><line style="stroke: #A80036; stroke-width: 1.0;" x1="553.0404" x2="555.0475" y1="938.1791" y2="945.9225"/><polygon fill="#FFFFFF" points="603.998,1034.868,603.4019,1027.6816,596.539,1025.4678,597.1351,1032.6542,603.998,1034.868" style="stroke: #A80036; stroke-width: 1.0;"/><text fill="#000000" font-family="sans-serif" font-size="13" lengthAdjust="spacingAndGlyphs" textLength="31" x="569" y="977.4951">sinks</text><text fill="#000000" font-family="sans-serif" font-size="13" lengthAdjust="spacingAndGlyphs" textLength="7" x="545.3619" y="954.0582">n</text><!--link DataSource to DataBluePrintInstance--><path d="M593.172,944.013 C597.516,950.191 601.561,956.579 605,963 C614.822,981.339 622.144,1003.017 627.363,1022.19 " fill="none" id="DataSource-DataBluePrintInstance" style="stroke: #A80036; stroke-width: 1.0;"/><polygon fill="#A80036" points="630.645,1034.992,632.2845,1025.2806,629.4033,1030.1486,624.5352,1027.2674,630.645,1034.992" style="stroke: #A80036; stroke-width: 1.0;"/><line style="stroke: #A80036; stroke-width: 1.0;" x1="629.4033" x2="627.4165" y1="1030.1486" y2="1022.399"/><polygon fill="#FFFFFF" points="585.098,933.157,585.4692,940.3585,592.2595,942.7857,591.8883,935.5842,585.098,933.157" style="stroke: #A80036; stroke-width: 1.0;"/><text fill="#000000" font-family="sans-serif" font-size="13" lengthAdjust="spacingAndGlyphs" textLength="56" x="614" y="977.4951">blueprints</text><text fill="#000000" font-family="sans-serif" font-size="13" lengthAdjust="spacingAndGlyphs" textLength="7" x="621.6436" y="1024.0671">n</text><!--link DataBluePrintInstance to DataFlowInstance--><path d="M573.369,1119.455 C563.996,1127.422 554.87,1136.048 547,1145 C535.468,1158.117 525.049,1173.995 516.459,1188.891 " fill="none" id="DataBluePrintInstance-DataFlowInstance" style="stroke: #A80036; stroke-width: 1.0;"/><polygon fill="#A80036" points="509.976,1200.554,517.8446,1194.6308,512.4051,1196.1837,510.8521,1190.7442,509.976,1200.554" style="stroke: #A80036; stroke-width: 1.0;"/><line style="stroke: #A80036; stroke-width: 1.0;" x1="512.4051" x2="516.292" y1="1196.1837" y2="1189.1915"/><polygon fill="#FFFFFF" points="583.589,1111.084,576.4127,1111.7913,574.3054,1118.6876,581.4817,1117.9803,583.589,1111.084" style="stroke: #A80036; stroke-width: 1.0;"/><text fill="#000000" font-family="sans-serif" font-size="13" lengthAdjust="spacingAndGlyphs" textLength="29" x="548" y="1159.4951">flows</text><text fill="#000000" font-family="sans-serif" font-size="13" lengthAdjust="spacingAndGlyphs" textLength="7" x="505.4641" y="1190.1246">n</text><!--link DataFlowInstance to DataBluePrintInstance--><path d="M552.206,1192.363 C562.682,1183.187 573.068,1173.208 582,1163 C592.707,1150.764 602.742,1136.27 611.276,1122.57 " fill="none" id="DataFlowInstance-DataBluePrintInstance" style="stroke: #A80036; stroke-width: 1.0;"/><polygon fill="#A80036" points="618.074,1111.315,609.9971,1116.9509,615.489,1115.5949,616.845,1121.0869,618.074,1111.315" style="stroke: #A80036; stroke-width: 1.0;"/><line style="stroke: #A80036; stroke-width: 1.0;" x1="615.489" x2="611.353" y1="1115.5949" y2="1122.4425"/><polygon fill="#FFFFFF" points="542.179,1200.897,549.3407,1200.0544,551.3174,1193.1195,544.1557,1193.9621,542.179,1200.897" style="stroke: #A80036; stroke-width: 1.0;"/><text fill="#000000" font-family="sans-serif" font-size="13" lengthAdjust="spacingAndGlyphs" textLength="49" x="596" y="1159.4951">blueprint</text><text fill="#000000" font-family="sans-serif" font-size="13" lengthAdjust="spacingAndGlyphs" textLength="7" x="607.3405" y="1132.2457">1</text><!--link DataBluePrintInstance to Identity--><path d="M724.18,1116.959 C786.75,1148.149 869.04,1189.169 919.955,1214.549 " fill="none" id="DataBluePrintInstance-Identity" style="stroke: #A80036; stroke-width: 1.0;"/><polygon fill="#A80036" points="931.88,1220.493,925.6093,1212.8984,927.405,1218.2626,922.0407,1220.0584,931.88,1220.493" style="stroke: #A80036; stroke-width: 1.0;"/><line style="stroke: #A80036; stroke-width: 1.0;" x1="927.405" x2="920.2455" y1="1218.2626" y2="1214.694"/><polygon fill="#FFFFFF" points="712.244,1111.009,715.8291,1117.2658,722.9834,1116.3629,719.3984,1110.1061,712.244,1111.009" style="stroke: #A80036; stroke-width: 1.0;"/><text fill="#000000" font-family="sans-serif" font-size="13" lengthAdjust="spacingAndGlyphs" textLength="42" x="813" y="1159.4951">identity</text><text fill="#000000" font-family="sans-serif" font-size="13" lengthAdjust="spacingAndGlyphs" textLength="7" x="916.9146" y="1212.5573">1</text><!--link DataFlow to DataBluePrint--><path d="M309.544,1342.086 C279.628,1211.423 200.978,865.77 194,813 C189.042,775.507 190,765.82 190,728 C190,418 190,418 190,418 C190,279.76 355.241,364.59 479,303 C495.307,294.88 510.781,283.16 524.413,270.79 " fill="none" id="DataFlow-DataBluePrint" style="stroke: #A80036; stroke-width: 1.0;"/><polygon fill="#A80036" points="533.999,261.71,524.7134,264.9929,530.3681,265.1475,530.2134,270.8023,533.999,261.71" style="stroke: #A80036; stroke-width: 1.0;"/><line style="stroke: #A80036; stroke-width: 1.0;" x1="530.3681" x2="524.562" y1="265.1475" y2="270.655"/><polygon fill="#FFFFFF" points="312.449,1354.767,315.0082,1348.0253,309.7694,1343.07,307.2102,1349.8117,312.449,1354.767" style="stroke: #A80036; stroke-width: 1.0;"/><text fill="#000000" font-family="sans-serif" font-size="13" lengthAdjust="spacingAndGlyphs" textLength="49" x="195" y="809.4951">blueprint</text><text fill="#000000" font-family="sans-serif" font-size="13" lengthAdjust="spacingAndGlyphs" textLength="7" x="520.7504" y="283.2292">1</text><!--link DataFlowInstance to DataFlow--><path d="M440.195,1286.049 C418.77,1305.094 393.984,1327.125 372.582,1346.149 " fill="none" id="DataFlowInstance-DataFlow" style="stroke: #A80036; stroke-width: 1.0;"/><polygon fill="#A80036" points="362.695,1354.937,372.079,1351.9468,366.4319,1351.615,366.7637,1345.9679,362.695,1354.937" style="stroke: #A80036; stroke-width: 1.0;"/><line style="stroke: #A80036; stroke-width: 1.0;" x1="366.4319" x2="372.412" y1="1351.615" y2="1346.3005"/><polygon fill="#FFFFFF" points="450.169,1277.183,443.0271,1278.1794,441.1999,1285.1552,448.3419,1284.1588,450.169,1277.183" style="stroke: #A80036; stroke-width: 1.0;"/><text fill="#000000" font-family="sans-serif" font-size="13" lengthAdjust="spacingAndGlyphs" textLength="47" x="413" y="1321.4951">dataflow</text><text fill="#000000" font-family="sans-serif" font-size="13" lengthAdjust="spacingAndGlyphs" textLength="7" x="362.7372" y="1344.0019">1</text><!--link DataFlowInstance to DataSource--><path d="M473.29,1188.069 C455.078,1131.18 434.383,1036.577 466,963 C470.708,952.043 477.925,941.946 486.105,932.962 " fill="none" id="DataFlowInstance-DataSource" style="stroke: #A80036; stroke-width: 1.0;"/><polygon fill="#A80036" points="495.285,923.662,486.1156,927.2567,491.7723,927.2203,491.8088,932.877,495.285,923.662" style="stroke: #A80036; stroke-width: 1.0;"/><line style="stroke: #A80036; stroke-width: 1.0;" x1="491.7723" x2="486.152" y1="927.2203" y2="932.9135"/><polygon fill="#FFFFFF" points="477.475,1200.649,479.3762,1193.693,473.6866,1189.2627,471.7854,1196.2186,477.475,1200.649" style="stroke: #A80036; stroke-width: 1.0;"/><text fill="#000000" font-family="sans-serif" font-size="13" lengthAdjust="spacingAndGlyphs" textLength="31" x="461" y="1078.4951">sinks</text><text fill="#000000" font-family="sans-serif" font-size="13" lengthAdjust="spacingAndGlyphs" textLength="7" x="480.6159" y="943.6319">n</text><!--link DataFlowInstance to DataSource--><path d="M432.591,1191.728 C417.047,1176.191 402.324,1157.532 394,1137 C369.287,1076.041 362.962,1046.995 394,989 C412.94,953.61 450.55,928.581 483.37,912.414 " fill="none" id="DataFlowInstance-DataSource-1" style="stroke: #A80036; stroke-width: 1.0;"/><polygon fill="#A80036" points="495.201,906.856,485.3543,907.0623,490.6755,908.9819,488.7558,914.3031,495.201,906.856" style="stroke: #A80036; stroke-width: 1.0;"/><line style="stroke: #A80036; stroke-width: 1.0;" x1="490.6755" x2="483.4345" y1="908.9819" y2="912.384"/><polygon fill="#FFFFFF" points="442.326,1200.987,440.7348,1193.9537,433.6304,1192.7174,435.2217,1199.7507,442.326,1200.987" style="stroke: #A80036; stroke-width: 1.0;"/><text fill="#000000" font-family="sans-serif" font-size="13" lengthAdjust="spacingAndGlyphs" textLength="46" x="395" y="1078.4951">sources</text><text fill="#000000" font-family="sans-serif" font-size="13" lengthAdjust="spacingAndGlyphs" textLength="7" x="480.5196" y="906.0076">n</text><!--link DataFlowTemplate to DataFlow--><path d="M381.209,465.3 C349.019,491.848 318,528.67 318,572 C318,572 318,572 318,805 C318,1003.762 319.741,1240.377 320.571,1341.802 " fill="none" id="DataFlowTemplate-DataFlow" style="stroke: #A80036; stroke-width: 1.0;"/><polygon fill="#A80036" points="320.679,1354.914,324.6047,1345.8813,320.6378,1349.9142,316.605,1345.9473,320.679,1354.914" style="stroke: #A80036; stroke-width: 1.0;"/><line style="stroke: #A80036; stroke-width: 1.0;" x1="320.6378" x2="320.5715" y1="1349.9142" y2="1341.9145"/><polygon fill="#FFFFFF" points="391.664,457.05,384.4758,457.6242,382.2411,464.4803,389.4293,463.9061,391.664,457.05" style="stroke: #A80036; stroke-width: 1.0;"/><text fill="#000000" font-family="sans-serif" font-size="13" lengthAdjust="spacingAndGlyphs" textLength="22" x="320" y="893.4951">flow</text><text fill="#000000" font-family="sans-serif" font-size="13" lengthAdjust="spacingAndGlyphs" textLength="7" x="312.9984" y="1344.2606">1</text><!--link DataFlowTemplate to DataAdaptorTemplate--><path d="M477.001,468.71 C480.069,474.85 483.131,481.059 486,487 C491.555,498.502 497.378,510.962 502.781,522.705 " fill="none" id="DataFlowTemplate-DataAdaptorTemplate" style="stroke: #A80036; stroke-width: 1.0;"/><polygon fill="#A80036" points="508.231,534.613,508.1235,524.7647,506.1506,530.0664,500.8489,528.0934,508.231,534.613" style="stroke: #A80036; stroke-width: 1.0;"/><line style="stroke: #A80036; stroke-width: 1.0;" x1="506.1506" x2="502.821" y1="530.0664" y2="522.792"/><polygon fill="#FFFFFF" points="471.145,457.08,470.2689,464.2377,476.539,467.7994,477.4151,460.6417,471.145,457.08" style="stroke: #A80036; stroke-width: 1.0;"/><text fill="#000000" font-family="sans-serif" font-size="13" lengthAdjust="spacingAndGlyphs" textLength="46" x="495" y="501.4951">sources</text><text fill="#000000" font-family="sans-serif" font-size="13" lengthAdjust="spacingAndGlyphs" textLength="7" x="497.7473" y="524.1938">n</text><!--link DataFlowTemplate to DataAdaptorTemplate--><path d="M439.516,470.1 C438.796,481.965 439.994,494.277 445,505 C448.339,512.151 452.858,518.808 458.058,524.933 " fill="none" id="DataFlowTemplate-DataAdaptorTemplate-1" style="stroke: #A80036; stroke-width: 1.0;"/><polygon fill="#A80036" points="467.367,534.731,464.0676,525.4512,463.923,531.1062,458.268,530.9616,467.367,534.731" style="stroke: #A80036; stroke-width: 1.0;"/><line style="stroke: #A80036; stroke-width: 1.0;" x1="463.923" x2="458.4125" y1="531.1062" y2="525.306"/><polygon fill="#FFFFFF" points="441.043,457.01,436.3773,462.5083,439.6582,468.9298,444.3239,463.4315,441.043,457.01" style="stroke: #A80036; stroke-width: 1.0;"/><text fill="#000000" font-family="sans-serif" font-size="13" lengthAdjust="spacingAndGlyphs" textLength="31" x="446" y="501.4951">sinks</text><text fill="#000000" font-family="sans-serif" font-size="13" lengthAdjust="spacingAndGlyphs" textLength="7" x="449.4777" y="524.045">n</text><!--link DataPipeline to DataProcedure--><path d="M131.751,1264.517 C113.731,1274.791 96.2304,1288.703 86,1307 C77.1605,1322.809 84.4827,1338.906 96.9382,1352.778 " fill="none" id="DataPipeline-DataProcedure" style="stroke: #A80036; stroke-width: 1.0;"/><polygon fill="#A80036" points="106.246,1361.995,102.6657,1352.8199,102.6933,1358.4767,97.0365,1358.5043,106.246,1361.995" style="stroke: #A80036; stroke-width: 1.0;"/><line style="stroke: #A80036; stroke-width: 1.0;" x1="102.6933" x2="97.0087" y1="1358.4767" y2="1352.848"/><polygon fill="#A80036" points="143.286,1258.434,136.1129,1257.6949,132.6717,1264.0319,139.8448,1264.7711,143.286,1258.434" style="stroke: #A80036; stroke-width: 1.0;"/><text fill="#000000" font-family="sans-serif" font-size="13" lengthAdjust="spacingAndGlyphs" textLength="64" x="87" y="1321.4951">procedures</text><text fill="#000000" font-family="sans-serif" font-size="13" lengthAdjust="spacingAndGlyphs" textLength="7" x="88.6901" y="1351.0142">n</text><!--link DataProcedure to DataPipeline--><path d="M163.42,1349.096 C169.446,1328.279 176.663,1303.346 182.676,1282.573 " fill="none" id="DataProcedure-DataPipeline" style="stroke: #A80036; stroke-width: 1.0;"/><polygon fill="#A80036" points="186.307,1270.03,179.9617,1277.5624,184.9163,1274.8327,187.646,1279.7874,186.307,1270.03" style="stroke: #A80036; stroke-width: 1.0;"/><line style="stroke: #A80036; stroke-width: 1.0;" x1="184.9163" x2="182.6925" y1="1274.8327" y2="1282.5175"/><polygon fill="#FFFFFF" points="159.75,1361.772,165.2603,1357.1205,163.086,1350.245,157.5757,1354.8965,159.75,1361.772" style="stroke: #A80036; stroke-width: 1.0;"/><text fill="#000000" font-family="sans-serif" font-size="13" lengthAdjust="spacingAndGlyphs" textLength="44" x="176" y="1321.4951">pipeline</text><text fill="#000000" font-family="sans-serif" font-size="13" lengthAdjust="spacingAndGlyphs" textLength="7" x="176.9065" y="1291.2599">1</text><!--link DataPipeline to DataFlow--><path d="M228.329,1280.206 C244.722,1299.982 264.59,1323.95 281.718,1344.613 " fill="none" id="DataPipeline-DataFlow" style="stroke: #A80036; stroke-width: 1.0;"/><polygon fill="#A80036" points="290.135,1354.766,287.4705,1345.2844,286.9439,1350.9167,281.3116,1350.3901,290.135,1354.766" style="stroke: #A80036; stroke-width: 1.0;"/><line style="stroke: #A80036; stroke-width: 1.0;" x1="286.9439" x2="281.839" y1="1350.9167" y2="1344.758"/><polygon fill="#FFFFFF" points="219.894,1270.03,220.6439,1277.202,227.5526,1279.2683,226.8027,1272.0963,219.894,1270.03" style="stroke: #A80036; stroke-width: 1.0;"/><text fill="#000000" font-family="sans-serif" font-size="13" lengthAdjust="spacingAndGlyphs" textLength="29" x="263" y="1321.4951">flows</text><text fill="#000000" font-family="sans-serif" font-size="13" lengthAdjust="spacingAndGlyphs" textLength="7" x="277.0137" y="1344.0862">n</text><!--link DataSource to Data--><path d="M604.51,918.044 C642.069,936.834 690.851,962.635 732,989 C756.558,1004.735 782.599,1024.44 803.067,1040.701 " fill="none" id="DataSource-Data" style="stroke: #A80036; stroke-width: 1.0;"/><polygon fill="#A80036" points="813.225,1048.851,808.709,1040.0985,809.3253,1045.7217,803.7021,1046.338,813.225,1048.851" style="stroke: #A80036; stroke-width: 1.0;"/><line style="stroke: #A80036; stroke-width: 1.0;" x1="809.3253" x2="803.0855" y1="1045.7217" y2="1040.7155"/><polygon fill="#A80036" points="592.733,912.199,596.3288,918.4496,603.4816,917.5344,599.8858,911.2838,592.733,912.199" style="stroke: #A80036; stroke-width: 1.0;"/><text fill="#000000" font-family="sans-serif" font-size="13" lengthAdjust="spacingAndGlyphs" textLength="25" x="719" y="977.4951">data</text><text fill="#000000" font-family="sans-serif" font-size="13" lengthAdjust="spacingAndGlyphs" textLength="7" x="798.2108" y="1038.153">n</text><!--link Data Definition Framework to Data Management Layer--><path d="M748.3299,211.5387 C748.5636,211.556 748.8018,211.5738 749.0445,211.592 C749.5301,211.6285 750.0337,211.6669 750.5552,211.7073 C752.641,211.8691 755.0115,212.0631 757.6447,212.2939 C768.1775,213.2172 782.9122,214.7295 800.4333,217.1214 C835.4757,221.9053 881.6639,230.2081 927.6737,244.3563 C1019.6935,272.6525 1111,324.33 1111,418 C1111,418 1111,418 1111,889 C1111,940.7605 1074.6628,985.9008 1037.7578,1018.3986 C1019.3053,1034.6476 1000.7108,1047.7359 986.4456,1056.9109 C982.8793,1059.2046 979.5836,1061.2538 976.6283,1063.0466 C975.1507,1063.943 973.7582,1064.7753 972.4595,1065.5421 " fill="none" id="Data Definition Framework-Data Management Layer" style="stroke: #A80036; stroke-width: 1.0;"/><polygon fill="#A80036" points="972.4595,1065.5421,982.2431,1064.4108,976.765,1063,978.1758,1057.5219,972.4595,1065.5421" style="stroke: #A80036; stroke-width: 1.0;"/><!--
@startuml


package "Data Management Layer" #ffcc88 {
    
        class Data {
        }
    }

package "Data Definition Framework" #ffcc88 {
    
        class DataBluePrint {
        }
    
        class DataSource {
        }
    
        class DataAdaptor {
        }
    
        class DataAdaptorTemplate {
        }
    
        class DataFlowTemplate {
        }
    
        class DataBluePrintInstance {
        }
    
        class DataFlowInstance {
        }
    
        class DataFlow {
        }
    
        class DataProcedure {
        }
    
        class DataPipeline {
        }
    }

package "Identity Aspect" #pink {
    
        class Identity {
        }
    }


package "Data Definition Framework" #ffcc88 {

    interface "Data Definition Framework" as i {
            /edgemere/diml/ddf/data/govern()
            /edgemere/diml/ddf/data/source/name()
            /edgemere/diml/ddf/datablueprint/deploy()
            /edgemere/diml/ddf/datablueprint/list()
            /edgemere/diml/ddf/datacatalog/list()
            /edgemere/diml/ddf/datadaptor/list()
            /edgemere/diml/ddf/datapipeline/list()
            /edgemere/diml/ddf/dataprocedure/list()
            /edgemere/diml/ddf/datasource/simulate()
            /edgemere/diml/ddf/metadata/list()
    
    }
}

CLI ()- - i
REST ()- - i
Web ()- - i

package "Data Definition Framework" #ffcc88 {
        class "DataAdaptor" {
                 string name
                             create()
            }
                DataAdaptor o- -> "1" DataBluePrint : blueprint
                        DataAdaptor *- -> "n" DataSource : sources
            
    
    class "DataAdaptorInstance" {
                 string attr1
                    }
                DataAdaptorInstance o- -> "1" ModelName : assoc1
            
    
    class "DataAdaptorTemplate" {
                 string name
                 json args
                    }
                DataAdaptorTemplate o- -> "1" DataAdaptor : adaptor
                        DataAdaptorTemplate o- -> "1" DataBluePrint : blueprint
            
    
    class "DataBluePrint" {
                 string name
                 string version
                             create()
                     deploy()
            }
                DataBluePrint *- -> "n" DataAdaptorTemplate : adaptors
                        DataBluePrint o- -> "1" Identity : identity
                        DataBluePrint *- -> "n" DataFlowTemplate : flows
                        DataBluePrint *- -> "n" DataBluePrintInstance : instances
            
    
    class "DataBluePrintInstance" {
                 string name
                 json parameters
                    }
                DataBluePrintInstance o- -> "n" DataSource : sources
                        DataBluePrintInstance o- -> "n" DataSource : sinks
                        DataBluePrintInstance o- -> "n" DataFlowInstance : flows
                        DataBluePrintInstance o- -> "1" Identity : identity
                        DataBluePrintInstance o- -> "1" DataBluePrint : blueprint
            
    
    class "DataFlow" {
                 string attr1
                             create()
            }
                DataFlow o- -> "1" DataBluePrint : blueprint
            
    
    class "DataFlowInstance" {
                 string name
                             create()
            }
                DataFlowInstance o- -> "1" DataBluePrintInstance : blueprint
                        DataFlowInstance o- -> "1" DataFlow : dataflow
                        DataFlowInstance o- -> "n" DataSource : sinks
                        DataFlowInstance o- -> "n" DataSource : sources
            
    
    class "DataFlowTemplate" {
                 string name
                             create()
            }
                DataFlowTemplate o- -> "1" DataFlow : flow
                        DataFlowTemplate o- -> "n" DataAdaptorTemplate : sources
                        DataFlowTemplate o- -> "n" DataAdaptorTemplate : sinks
            
    
    class "DataPipeline" {
                 string name
                    }
                DataPipeline *- -> "n" DataProcedure : procedures
                        DataPipeline o- -> "n" DataFlow : flows
            
    
    class "DataProcedure" {
                 string name
                    }
                DataProcedure o- -> "1" DataPipeline : pipeline
            
    
    class "DataSource" {
                 string name
                 json parameters
                             create()
            }
                DataSource o- -> "n" DataBluePrintInstance : blueprints
                        DataSource o- -> "1" DataAdaptor : adaptor
                        DataSource *- -> "n" Data : data
            
    

}


    "Data Definition Framework" - -> "Data Management Layer"


@enduml

PlantUML version 1.2019.05(Sat Apr 20 09:45:36 PDT 2019)
(GPL source distribution)
Java Runtime: OpenJDK Runtime Environment
JVM: OpenJDK 64-Bit Server VM
Java Version: 12.0.1+12
Operating System: Windows 10
OS Version: 10.0
Default Encoding: Cp1252
Language: en
Country: US
--></g></svg>