<?xml version="1.0" encoding="UTF-8" standalone="no"?><svg xmlns="http://www.w3.org/2000/svg" xmlns:xlink="http://www.w3.org/1999/xlink" contentScriptType="application/ecmascript" contentStyleType="text/css" height="1508px" preserveAspectRatio="none" style="width:1123px;height:1508px;" version="1.1" viewBox="0 0 1123 1508" width="1123px" zoomAndPan="magnify"><defs><filter height="300%" id="ffhrmkiu77n8n" width="300%" x="-1" y="-1"><feGaussianBlur result="blurOut" stdDeviation="2.0"/><feColorMatrix in="blurOut" result="blurOut2" type="matrix" values="0 0 0 0 0 0 0 0 0 0 0 0 0 0 0 0 0 0 .4 0"/><feOffset dx="4.0" dy="4.0" in="blurOut2" result="blurOut3"/><feBlend in="SourceGraphic" in2="blurOut3" mode="normal"/></filter></defs><g><!--cluster Data Management Layer--><polygon fill="#FFCC88" filter="url(#ffhrmkiu77n8n)" points="788,1019,962,1019,969,1042.6094,972,1042.6094,972,1135,788,1135,788,1019" style="stroke: #000000; stroke-width: 1.5;"/><line style="stroke: #000000; stroke-width: 1.5;" x1="788" x2="969" y1="1042.6094" y2="1042.6094"/><text fill="#000000" font-family="sans-serif" font-size="14" font-weight="bold" lengthAdjust="spacingAndGlyphs" textLength="168" x="792" y="1035.5332">Data Management Layer</text><!--cluster Data Definition Framework--><polygon fill="#FFCC88" filter="url(#ffhrmkiu77n8n)" points="30,73,221,73,228,96.6094,748,96.6094,748,1496,30,1496,30,73" style="stroke: #000000; stroke-width: 1.5;"/><line style="stroke: #000000; stroke-width: 1.5;" x1="30" x2="228" y1="96.6094" y2="96.6094"/><text fill="#000000" font-family="sans-serif" font-size="14" font-weight="bold" lengthAdjust="spacingAndGlyphs" textLength="185" x="34" y="89.5332">Data Definition Framework</text><!--cluster Identity Aspect--><polygon fill="#FFC0CB" filter="url(#ffhrmkiu77n8n)" points="907,1193,1017,1193,1024,1216.6094,1027,1216.6094,1027,1293,907,1293,907,1193" style="stroke: #000000; stroke-width: 1.5;"/><line style="stroke: #000000; stroke-width: 1.5;" x1="907" x2="1024" y1="1216.6094" y2="1216.6094"/><text fill="#000000" font-family="sans-serif" font-size="14" font-weight="bold" lengthAdjust="spacingAndGlyphs" textLength="104" x="911" y="1209.5332">Identity Aspect</text><!--class Data--><rect fill="#FEFECE" filter="url(#ffhrmkiu77n8n)" height="48" id="Data" style="stroke: #A80036; stroke-width: 1.5;" width="58" x="812" y="1063"/><ellipse cx="827" cy="1079" fill="#ADD1B2" rx="11" ry="11" style="stroke: #A80036; stroke-width: 1.0;"/><path d="M829.7656,1074.875 Q829.9219,1074.6563 830.1094,1074.5469 Q830.2969,1074.4375 830.5156,1074.4375 Q830.8906,1074.4375 831.125,1074.7031 Q831.3594,1074.9531 831.3594,1075.5625 L831.3594,1077.0156 Q831.3594,1077.625 831.125,1077.8906 Q830.8906,1078.1563 830.5156,1078.1563 Q830.1719,1078.1563 829.9688,1077.9531 Q829.7656,1077.7656 829.6563,1077.25 Q829.6094,1076.8906 829.4219,1076.7031 Q829.0938,1076.3281 828.4844,1076.1094 Q827.875,1075.8906 827.25,1075.8906 Q826.4844,1075.8906 825.8438,1076.2188 Q825.2188,1076.5469 824.7188,1077.2969 Q824.2344,1078.0469 824.2344,1079.0781 L824.2344,1080.1719 Q824.2344,1081.4063 825.125,1082.2344 Q826.0156,1083.0469 827.6094,1083.0469 Q828.5469,1083.0469 829.2031,1082.7969 Q829.5938,1082.6406 830.0156,1082.2031 Q830.2813,1081.9375 830.4219,1081.8594 Q830.5781,1081.7813 830.7813,1081.7813 Q831.1094,1081.7813 831.3594,1082.0469 Q831.625,1082.2969 831.625,1082.6406 Q831.625,1082.9844 831.2813,1083.3906 Q830.7813,1083.9688 829.9844,1084.2969 Q828.9063,1084.75 827.6094,1084.75 Q826.0938,1084.75 824.8906,1084.125 Q823.9063,1083.625 823.2188,1082.5625 Q822.5313,1081.4844 822.5313,1080.2031 L822.5313,1079.0469 Q822.5313,1077.7188 823.1406,1076.5781 Q823.7656,1075.4219 824.8594,1074.8125 Q825.9531,1074.1875 827.1875,1074.1875 Q827.9219,1074.1875 828.5625,1074.3594 Q829.2188,1074.5156 829.7656,1074.875 Z "/><text fill="#000000" font-family="sans-serif" font-size="12" lengthAdjust="spacingAndGlyphs" textLength="26" x="841" y="1083.9102">Data</text><line style="stroke: #A80036; stroke-width: 1.5;" x1="813" x2="869" y1="1095" y2="1095"/><line style="stroke: #A80036; stroke-width: 1.5;" x1="813" x2="869" y1="1103" y2="1103"/><!--class DataBluePrint--><rect fill="#FEFECE" filter="url(#ffhrmkiu77n8n)" height="103.3438" id="DataBluePrint" style="stroke: #A80036; stroke-width: 1.5;" width="108" x="523" y="165.5"/><ellipse cx="538" cy="181.5" fill="#ADD1B2" rx="11" ry="11" style="stroke: #A80036; stroke-width: 1.0;"/><path d="M540.7656,177.375 Q540.9219,177.1563 541.1094,177.0469 Q541.2969,176.9375 541.5156,176.9375 Q541.8906,176.9375 542.125,177.2031 Q542.3594,177.4531 542.3594,178.0625 L542.3594,179.5156 Q542.3594,180.125 542.125,180.3906 Q541.8906,180.6563 541.5156,180.6563 Q541.1719,180.6563 540.9688,180.4531 Q540.7656,180.2656 540.6563,179.75 Q540.6094,179.3906 540.4219,179.2031 Q540.0938,178.8281 539.4844,178.6094 Q538.875,178.3906 538.25,178.3906 Q537.4844,178.3906 536.8438,178.7188 Q536.2188,179.0469 535.7188,179.7969 Q535.2344,180.5469 535.2344,181.5781 L535.2344,182.6719 Q535.2344,183.9063 536.125,184.7344 Q537.0156,185.5469 538.6094,185.5469 Q539.5469,185.5469 540.2031,185.2969 Q540.5938,185.1406 541.0156,184.7031 Q541.2813,184.4375 541.4219,184.3594 Q541.5781,184.2813 541.7813,184.2813 Q542.1094,184.2813 542.3594,184.5469 Q542.625,184.7969 542.625,185.1406 Q542.625,185.4844 542.2813,185.8906 Q541.7813,186.4688 540.9844,186.7969 Q539.9063,187.25 538.6094,187.25 Q537.0938,187.25 535.8906,186.625 Q534.9063,186.125 534.2188,185.0625 Q533.5313,183.9844 533.5313,182.7031 L533.5313,181.5469 Q533.5313,180.2188 534.1406,179.0781 Q534.7656,177.9219 535.8594,177.3125 Q536.9531,176.6875 538.1875,176.6875 Q538.9219,176.6875 539.5625,176.8594 Q540.2188,177.0156 540.7656,177.375 Z "/><text fill="#000000" font-family="sans-serif" font-size="12" lengthAdjust="spacingAndGlyphs" textLength="76" x="552" y="186.4102">DataBluePrint</text><line style="stroke: #A80036; stroke-width: 1.5;" x1="524" x2="630" y1="197.5" y2="197.5"/><text fill="#000000" font-family="sans-serif" font-size="11" lengthAdjust="spacingAndGlyphs" textLength="56" x="529" y="212.9189">string name</text><text fill="#000000" font-family="sans-serif" font-size="11" lengthAdjust="spacingAndGlyphs" textLength="66" x="529" y="226.7549">string version</text><line style="stroke: #A80036; stroke-width: 1.5;" x1="524" x2="630" y1="233.1719" y2="233.1719"/><text fill="#000000" font-family="sans-serif" font-size="11" lengthAdjust="spacingAndGlyphs" textLength="39" x="529" y="248.5908">create()</text><text fill="#000000" font-family="sans-serif" font-size="11" lengthAdjust="spacingAndGlyphs" textLength="40" x="529" y="262.4268">deploy()</text><!--class DataSource--><rect fill="#FEFECE" filter="url(#ffhrmkiu77n8n)" height="89.5078" id="DataSource" style="stroke: #A80036; stroke-width: 1.5;" width="97" x="495.5" y="857"/><ellipse cx="510.5" cy="873" fill="#ADD1B2" rx="11" ry="11" style="stroke: #A80036; stroke-width: 1.0;"/><path d="M513.2656,868.875 Q513.4219,868.6563 513.6094,868.5469 Q513.7969,868.4375 514.0156,868.4375 Q514.3906,868.4375 514.625,868.7031 Q514.8594,868.9531 514.8594,869.5625 L514.8594,871.0156 Q514.8594,871.625 514.625,871.8906 Q514.3906,872.1563 514.0156,872.1563 Q513.6719,872.1563 513.4688,871.9531 Q513.2656,871.7656 513.1563,871.25 Q513.1094,870.8906 512.9219,870.7031 Q512.5938,870.3281 511.9844,870.1094 Q511.375,869.8906 510.75,869.8906 Q509.9844,869.8906 509.3438,870.2188 Q508.7188,870.5469 508.2188,871.2969 Q507.7344,872.0469 507.7344,873.0781 L507.7344,874.1719 Q507.7344,875.4063 508.625,876.2344 Q509.5156,877.0469 511.1094,877.0469 Q512.0469,877.0469 512.7031,876.7969 Q513.0938,876.6406 513.5156,876.2031 Q513.7813,875.9375 513.9219,875.8594 Q514.0781,875.7813 514.2813,875.7813 Q514.6094,875.7813 514.8594,876.0469 Q515.125,876.2969 515.125,876.6406 Q515.125,876.9844 514.7813,877.3906 Q514.2813,877.9688 513.4844,878.2969 Q512.4063,878.75 511.1094,878.75 Q509.5938,878.75 508.3906,878.125 Q507.4063,877.625 506.7188,876.5625 Q506.0313,875.4844 506.0313,874.2031 L506.0313,873.0469 Q506.0313,871.7188 506.6406,870.5781 Q507.2656,869.4219 508.3594,868.8125 Q509.4531,868.1875 510.6875,868.1875 Q511.4219,868.1875 512.0625,868.3594 Q512.7188,868.5156 513.2656,868.875 Z "/><text fill="#000000" font-family="sans-serif" font-size="12" lengthAdjust="spacingAndGlyphs" textLength="65" x="524.5" y="877.9102">DataSource</text><line style="stroke: #A80036; stroke-width: 1.5;" x1="496.5" x2="591.5" y1="889" y2="889"/><text fill="#000000" font-family="sans-serif" font-size="11" lengthAdjust="spacingAndGlyphs" textLength="56" x="501.5" y="904.4189">string name</text><text fill="#000000" font-family="sans-serif" font-size="11" lengthAdjust="spacingAndGlyphs" textLength="78" x="501.5" y="918.2549">json parameters</text><line style="stroke: #A80036; stroke-width: 1.5;" x1="496.5" x2="591.5" y1="924.6719" y2="924.6719"/><text fill="#000000" font-family="sans-serif" font-size="11" lengthAdjust="spacingAndGlyphs" textLength="39" x="501.5" y="940.0908">create()</text><!--class DataAdaptor--><rect fill="#FEFECE" filter="url(#ffhrmkiu77n8n)" height="75.6719" id="DataAdaptor" style="stroke: #A80036; stroke-width: 1.5;" width="100" x="519" y="703"/><ellipse cx="534" cy="719" fill="#ADD1B2" rx="11" ry="11" style="stroke: #A80036; stroke-width: 1.0;"/><path d="M536.7656,714.875 Q536.9219,714.6563 537.1094,714.5469 Q537.2969,714.4375 537.5156,714.4375 Q537.8906,714.4375 538.125,714.7031 Q538.3594,714.9531 538.3594,715.5625 L538.3594,717.0156 Q538.3594,717.625 538.125,717.8906 Q537.8906,718.1563 537.5156,718.1563 Q537.1719,718.1563 536.9688,717.9531 Q536.7656,717.7656 536.6563,717.25 Q536.6094,716.8906 536.4219,716.7031 Q536.0938,716.3281 535.4844,716.1094 Q534.875,715.8906 534.25,715.8906 Q533.4844,715.8906 532.8438,716.2188 Q532.2188,716.5469 531.7188,717.2969 Q531.2344,718.0469 531.2344,719.0781 L531.2344,720.1719 Q531.2344,721.4063 532.125,722.2344 Q533.0156,723.0469 534.6094,723.0469 Q535.5469,723.0469 536.2031,722.7969 Q536.5938,722.6406 537.0156,722.2031 Q537.2813,721.9375 537.4219,721.8594 Q537.5781,721.7813 537.7813,721.7813 Q538.1094,721.7813 538.3594,722.0469 Q538.625,722.2969 538.625,722.6406 Q538.625,722.9844 538.2813,723.3906 Q537.7813,723.9688 536.9844,724.2969 Q535.9063,724.75 534.6094,724.75 Q533.0938,724.75 531.8906,724.125 Q530.9063,723.625 530.2188,722.5625 Q529.5313,721.4844 529.5313,720.2031 L529.5313,719.0469 Q529.5313,717.7188 530.1406,716.5781 Q530.7656,715.4219 531.8594,714.8125 Q532.9531,714.1875 534.1875,714.1875 Q534.9219,714.1875 535.5625,714.3594 Q536.2188,714.5156 536.7656,714.875 Z "/><text fill="#000000" font-family="sans-serif" font-size="12" lengthAdjust="spacingAndGlyphs" textLength="68" x="548" y="723.9102">DataAdaptor</text><line style="stroke: #A80036; stroke-width: 1.5;" x1="520" x2="618" y1="735" y2="735"/><text fill="#000000" font-family="sans-serif" font-size="11" lengthAdjust="spacingAndGlyphs" textLength="56" x="525" y="750.4189">string name</text><line style="stroke: #A80036; stroke-width: 1.5;" x1="520" x2="618" y1="756.8359" y2="756.8359"/><text fill="#000000" font-family="sans-serif" font-size="11" lengthAdjust="spacingAndGlyphs" textLength="39" x="525" y="772.2549">create()</text><!--class DataAdaptorTemplate--><rect fill="#FEFECE" filter="url(#ffhrmkiu77n8n)" height="75.6719" id="DataAdaptorTemplate" style="stroke: #A80036; stroke-width: 1.5;" width="152" x="449" y="549"/><ellipse cx="464" cy="565" fill="#ADD1B2" rx="11" ry="11" style="stroke: #A80036; stroke-width: 1.0;"/><path d="M466.7656,560.875 Q466.9219,560.6563 467.1094,560.5469 Q467.2969,560.4375 467.5156,560.4375 Q467.8906,560.4375 468.125,560.7031 Q468.3594,560.9531 468.3594,561.5625 L468.3594,563.0156 Q468.3594,563.625 468.125,563.8906 Q467.8906,564.1563 467.5156,564.1563 Q467.1719,564.1563 466.9688,563.9531 Q466.7656,563.7656 466.6563,563.25 Q466.6094,562.8906 466.4219,562.7031 Q466.0938,562.3281 465.4844,562.1094 Q464.875,561.8906 464.25,561.8906 Q463.4844,561.8906 462.8438,562.2188 Q462.2188,562.5469 461.7188,563.2969 Q461.2344,564.0469 461.2344,565.0781 L461.2344,566.1719 Q461.2344,567.4063 462.125,568.2344 Q463.0156,569.0469 464.6094,569.0469 Q465.5469,569.0469 466.2031,568.7969 Q466.5938,568.6406 467.0156,568.2031 Q467.2813,567.9375 467.4219,567.8594 Q467.5781,567.7813 467.7813,567.7813 Q468.1094,567.7813 468.3594,568.0469 Q468.625,568.2969 468.625,568.6406 Q468.625,568.9844 468.2813,569.3906 Q467.7813,569.9688 466.9844,570.2969 Q465.9063,570.75 464.6094,570.75 Q463.0938,570.75 461.8906,570.125 Q460.9063,569.625 460.2188,568.5625 Q459.5313,567.4844 459.5313,566.2031 L459.5313,565.0469 Q459.5313,563.7188 460.1406,562.5781 Q460.7656,561.4219 461.8594,560.8125 Q462.9531,560.1875 464.1875,560.1875 Q464.9219,560.1875 465.5625,560.3594 Q466.2188,560.5156 466.7656,560.875 Z "/><text fill="#000000" font-family="sans-serif" font-size="12" lengthAdjust="spacingAndGlyphs" textLength="120" x="478" y="569.9102">DataAdaptorTemplate</text><line style="stroke: #A80036; stroke-width: 1.5;" x1="450" x2="600" y1="581" y2="581"/><text fill="#000000" font-family="sans-serif" font-size="11" lengthAdjust="spacingAndGlyphs" textLength="56" x="455" y="596.4189">string name</text><text fill="#000000" font-family="sans-serif" font-size="11" lengthAdjust="spacingAndGlyphs" textLength="45" x="455" y="610.2549">json args</text><line style="stroke: #A80036; stroke-width: 1.5;" x1="450" x2="600" y1="616.6719" y2="616.6719"/><!--class DataFlowTemplate--><rect fill="#FEFECE" filter="url(#ffhrmkiu77n8n)" height="75.6719" id="DataFlowTemplate" style="stroke: #A80036; stroke-width: 1.5;" width="136" x="384" y="395"/><ellipse cx="399" cy="411" fill="#ADD1B2" rx="11" ry="11" style="stroke: #A80036; stroke-width: 1.0;"/><path d="M401.7656,406.875 Q401.9219,406.6563 402.1094,406.5469 Q402.2969,406.4375 402.5156,406.4375 Q402.8906,406.4375 403.125,406.7031 Q403.3594,406.9531 403.3594,407.5625 L403.3594,409.0156 Q403.3594,409.625 403.125,409.8906 Q402.8906,410.1563 402.5156,410.1563 Q402.1719,410.1563 401.9688,409.9531 Q401.7656,409.7656 401.6563,409.25 Q401.6094,408.8906 401.4219,408.7031 Q401.0938,408.3281 400.4844,408.1094 Q399.875,407.8906 399.25,407.8906 Q398.4844,407.8906 397.8438,408.2188 Q397.2188,408.5469 396.7188,409.2969 Q396.2344,410.0469 396.2344,411.0781 L396.2344,412.1719 Q396.2344,413.4063 397.125,414.2344 Q398.0156,415.0469 399.6094,415.0469 Q400.5469,415.0469 401.2031,414.7969 Q401.5938,414.6406 402.0156,414.2031 Q402.2813,413.9375 402.4219,413.8594 Q402.5781,413.7813 402.7813,413.7813 Q403.1094,413.7813 403.3594,414.0469 Q403.625,414.2969 403.625,414.6406 Q403.625,414.9844 403.2813,415.3906 Q402.7813,415.9688 401.9844,416.2969 Q400.9063,416.75 399.6094,416.75 Q398.0938,416.75 396.8906,416.125 Q395.9063,415.625 395.2188,414.5625 Q394.5313,413.4844 394.5313,412.2031 L394.5313,411.0469 Q394.5313,409.7188 395.1406,408.5781 Q395.7656,407.4219 396.8594,406.8125 Q397.9531,406.1875 399.1875,406.1875 Q399.9219,406.1875 400.5625,406.3594 Q401.2188,406.5156 401.7656,406.875 Z "/><text fill="#000000" font-family="sans-serif" font-size="12" lengthAdjust="spacingAndGlyphs" textLength="104" x="413" y="415.9102">DataFlowTemplate</text><line style="stroke: #A80036; stroke-width: 1.5;" x1="385" x2="519" y1="427" y2="427"/><text fill="#000000" font-family="sans-serif" font-size="11" lengthAdjust="spacingAndGlyphs" textLength="56" x="390" y="442.4189">string name</text><line style="stroke: #A80036; stroke-width: 1.5;" x1="385" x2="519" y1="448.8359" y2="448.8359"/><text fill="#000000" font-family="sans-serif" font-size="11" lengthAdjust="spacingAndGlyphs" textLength="39" x="390" y="464.2549">create()</text><!--class DataBluePrintInstance--><rect fill="#FEFECE" filter="url(#ffhrmkiu77n8n)" height="75.6719" id="DataBluePrintInstance" style="stroke: #A80036; stroke-width: 1.5;" width="155" x="560.5" y="1049"/><ellipse cx="575.5" cy="1065" fill="#ADD1B2" rx="11" ry="11" style="stroke: #A80036; stroke-width: 1.0;"/><path d="M578.2656,1060.875 Q578.4219,1060.6563 578.6094,1060.5469 Q578.7969,1060.4375 579.0156,1060.4375 Q579.3906,1060.4375 579.625,1060.7031 Q579.8594,1060.9531 579.8594,1061.5625 L579.8594,1063.0156 Q579.8594,1063.625 579.625,1063.8906 Q579.3906,1064.1563 579.0156,1064.1563 Q578.6719,1064.1563 578.4688,1063.9531 Q578.2656,1063.7656 578.1563,1063.25 Q578.1094,1062.8906 577.9219,1062.7031 Q577.5938,1062.3281 576.9844,1062.1094 Q576.375,1061.8906 575.75,1061.8906 Q574.9844,1061.8906 574.3438,1062.2188 Q573.7188,1062.5469 573.2188,1063.2969 Q572.7344,1064.0469 572.7344,1065.0781 L572.7344,1066.1719 Q572.7344,1067.4063 573.625,1068.2344 Q574.5156,1069.0469 576.1094,1069.0469 Q577.0469,1069.0469 577.7031,1068.7969 Q578.0938,1068.6406 578.5156,1068.2031 Q578.7813,1067.9375 578.9219,1067.8594 Q579.0781,1067.7813 579.2813,1067.7813 Q579.6094,1067.7813 579.8594,1068.0469 Q580.125,1068.2969 580.125,1068.6406 Q580.125,1068.9844 579.7813,1069.3906 Q579.2813,1069.9688 578.4844,1070.2969 Q577.4063,1070.75 576.1094,1070.75 Q574.5938,1070.75 573.3906,1070.125 Q572.4063,1069.625 571.7188,1068.5625 Q571.0313,1067.4844 571.0313,1066.2031 L571.0313,1065.0469 Q571.0313,1063.7188 571.6406,1062.5781 Q572.2656,1061.4219 573.3594,1060.8125 Q574.4531,1060.1875 575.6875,1060.1875 Q576.4219,1060.1875 577.0625,1060.3594 Q577.7188,1060.5156 578.2656,1060.875 Z "/><text fill="#000000" font-family="sans-serif" font-size="12" lengthAdjust="spacingAndGlyphs" textLength="123" x="589.5" y="1069.9102">DataBluePrintInstance</text><line style="stroke: #A80036; stroke-width: 1.5;" x1="561.5" x2="714.5" y1="1081" y2="1081"/><text fill="#000000" font-family="sans-serif" font-size="11" lengthAdjust="spacingAndGlyphs" textLength="56" x="566.5" y="1096.4189">string name</text><text fill="#000000" font-family="sans-serif" font-size="11" lengthAdjust="spacingAndGlyphs" textLength="78" x="566.5" y="1110.2549">json parameters</text><line style="stroke: #A80036; stroke-width: 1.5;" x1="561.5" x2="714.5" y1="1116.6719" y2="1116.6719"/><!--class DataFlowInstance--><rect fill="#FEFECE" filter="url(#ffhrmkiu77n8n)" height="75.6719" id="DataFlowInstance" style="stroke: #A80036; stroke-width: 1.5;" width="131" x="426.5" y="1215"/><ellipse cx="441.5" cy="1231" fill="#ADD1B2" rx="11" ry="11" style="stroke: #A80036; stroke-width: 1.0;"/><path d="M444.2656,1226.875 Q444.4219,1226.6563 444.6094,1226.5469 Q444.7969,1226.4375 445.0156,1226.4375 Q445.3906,1226.4375 445.625,1226.7031 Q445.8594,1226.9531 445.8594,1227.5625 L445.8594,1229.0156 Q445.8594,1229.625 445.625,1229.8906 Q445.3906,1230.1563 445.0156,1230.1563 Q444.6719,1230.1563 444.4688,1229.9531 Q444.2656,1229.7656 444.1563,1229.25 Q444.1094,1228.8906 443.9219,1228.7031 Q443.5938,1228.3281 442.9844,1228.1094 Q442.375,1227.8906 441.75,1227.8906 Q440.9844,1227.8906 440.3438,1228.2188 Q439.7188,1228.5469 439.2188,1229.2969 Q438.7344,1230.0469 438.7344,1231.0781 L438.7344,1232.1719 Q438.7344,1233.4063 439.625,1234.2344 Q440.5156,1235.0469 442.1094,1235.0469 Q443.0469,1235.0469 443.7031,1234.7969 Q444.0938,1234.6406 444.5156,1234.2031 Q444.7813,1233.9375 444.9219,1233.8594 Q445.0781,1233.7813 445.2813,1233.7813 Q445.6094,1233.7813 445.8594,1234.0469 Q446.125,1234.2969 446.125,1234.6406 Q446.125,1234.9844 445.7813,1235.3906 Q445.2813,1235.9688 444.4844,1236.2969 Q443.4063,1236.75 442.1094,1236.75 Q440.5938,1236.75 439.3906,1236.125 Q438.4063,1235.625 437.7188,1234.5625 Q437.0313,1233.4844 437.0313,1232.2031 L437.0313,1231.0469 Q437.0313,1229.7188 437.6406,1228.5781 Q438.2656,1227.4219 439.3594,1226.8125 Q440.4531,1226.1875 441.6875,1226.1875 Q442.4219,1226.1875 443.0625,1226.3594 Q443.7188,1226.5156 444.2656,1226.875 Z "/><text fill="#000000" font-family="sans-serif" font-size="12" lengthAdjust="spacingAndGlyphs" textLength="99" x="455.5" y="1235.9102">DataFlowInstance</text><line style="stroke: #A80036; stroke-width: 1.5;" x1="427.5" x2="556.5" y1="1247" y2="1247"/><text fill="#000000" font-family="sans-serif" font-size="11" lengthAdjust="spacingAndGlyphs" textLength="56" x="432.5" y="1262.4189">string name</text><line style="stroke: #A80036; stroke-width: 1.5;" x1="427.5" x2="556.5" y1="1268.8359" y2="1268.8359"/><text fill="#000000" font-family="sans-serif" font-size="11" lengthAdjust="spacingAndGlyphs" textLength="39" x="432.5" y="1284.2549">create()</text><!--class DataFlow--><rect fill="#FEFECE" filter="url(#ffhrmkiu77n8n)" height="103.3438" id="DataFlow" style="stroke: #A80036; stroke-width: 1.5;" width="97" x="272.5" y="1369"/><ellipse cx="293.35" cy="1385" fill="#ADD1B2" rx="11" ry="11" style="stroke: #A80036; stroke-width: 1.0;"/><path d="M296.1156,1380.875 Q296.2719,1380.6563 296.4594,1380.5469 Q296.6469,1380.4375 296.8656,1380.4375 Q297.2406,1380.4375 297.475,1380.7031 Q297.7094,1380.9531 297.7094,1381.5625 L297.7094,1383.0156 Q297.7094,1383.625 297.475,1383.8906 Q297.2406,1384.1563 296.8656,1384.1563 Q296.5219,1384.1563 296.3188,1383.9531 Q296.1156,1383.7656 296.0063,1383.25 Q295.9594,1382.8906 295.7719,1382.7031 Q295.4438,1382.3281 294.8344,1382.1094 Q294.225,1381.8906 293.6,1381.8906 Q292.8344,1381.8906 292.1938,1382.2188 Q291.5688,1382.5469 291.0688,1383.2969 Q290.5844,1384.0469 290.5844,1385.0781 L290.5844,1386.1719 Q290.5844,1387.4063 291.475,1388.2344 Q292.3656,1389.0469 293.9594,1389.0469 Q294.8969,1389.0469 295.5531,1388.7969 Q295.9438,1388.6406 296.3656,1388.2031 Q296.6313,1387.9375 296.7719,1387.8594 Q296.9281,1387.7813 297.1313,1387.7813 Q297.4594,1387.7813 297.7094,1388.0469 Q297.975,1388.2969 297.975,1388.6406 Q297.975,1388.9844 297.6313,1389.3906 Q297.1313,1389.9688 296.3344,1390.2969 Q295.2563,1390.75 293.9594,1390.75 Q292.4438,1390.75 291.2406,1390.125 Q290.2563,1389.625 289.5688,1388.5625 Q288.8813,1387.4844 288.8813,1386.2031 L288.8813,1385.0469 Q288.8813,1383.7188 289.4906,1382.5781 Q290.1156,1381.4219 291.2094,1380.8125 Q292.3031,1380.1875 293.5375,1380.1875 Q294.2719,1380.1875 294.9125,1380.3594 Q295.5688,1380.5156 296.1156,1380.875 Z "/><text fill="#000000" font-family="sans-serif" font-size="12" lengthAdjust="spacingAndGlyphs" textLength="52" x="308.65" y="1389.9102">DataFlow</text><line style="stroke: #A80036; stroke-width: 1.5;" x1="273.5" x2="368.5" y1="1401" y2="1401"/><text fill="#000000" font-family="sans-serif" font-size="11" lengthAdjust="spacingAndGlyphs" textLength="56" x="278.5" y="1416.4189">string name</text><text fill="#000000" font-family="sans-serif" font-size="11" lengthAdjust="spacingAndGlyphs" textLength="66" x="278.5" y="1430.2549">string version</text><text fill="#000000" font-family="sans-serif" font-size="11" lengthAdjust="spacingAndGlyphs" textLength="85" x="278.5" y="1444.0908">string parameters</text><line style="stroke: #A80036; stroke-width: 1.5;" x1="273.5" x2="368.5" y1="1450.5078" y2="1450.5078"/><text fill="#000000" font-family="sans-serif" font-size="11" lengthAdjust="spacingAndGlyphs" textLength="39" x="278.5" y="1465.9268">create()</text><!--class DataProcedure--><rect fill="#FEFECE" filter="url(#ffhrmkiu77n8n)" height="61.8359" id="DataProcedure" style="stroke: #A80036; stroke-width: 1.5;" width="115" x="90.5" y="1389.5"/><ellipse cx="105.5" cy="1405.5" fill="#ADD1B2" rx="11" ry="11" style="stroke: #A80036; stroke-width: 1.0;"/><path d="M108.2656,1401.375 Q108.4219,1401.1563 108.6094,1401.0469 Q108.7969,1400.9375 109.0156,1400.9375 Q109.3906,1400.9375 109.625,1401.2031 Q109.8594,1401.4531 109.8594,1402.0625 L109.8594,1403.5156 Q109.8594,1404.125 109.625,1404.3906 Q109.3906,1404.6563 109.0156,1404.6563 Q108.6719,1404.6563 108.4688,1404.4531 Q108.2656,1404.2656 108.1563,1403.75 Q108.1094,1403.3906 107.9219,1403.2031 Q107.5938,1402.8281 106.9844,1402.6094 Q106.375,1402.3906 105.75,1402.3906 Q104.9844,1402.3906 104.3438,1402.7188 Q103.7188,1403.0469 103.2188,1403.7969 Q102.7344,1404.5469 102.7344,1405.5781 L102.7344,1406.6719 Q102.7344,1407.9063 103.625,1408.7344 Q104.5156,1409.5469 106.1094,1409.5469 Q107.0469,1409.5469 107.7031,1409.2969 Q108.0938,1409.1406 108.5156,1408.7031 Q108.7813,1408.4375 108.9219,1408.3594 Q109.0781,1408.2813 109.2813,1408.2813 Q109.6094,1408.2813 109.8594,1408.5469 Q110.125,1408.7969 110.125,1409.1406 Q110.125,1409.4844 109.7813,1409.8906 Q109.2813,1410.4688 108.4844,1410.7969 Q107.4063,1411.25 106.1094,1411.25 Q104.5938,1411.25 103.3906,1410.625 Q102.4063,1410.125 101.7188,1409.0625 Q101.0313,1407.9844 101.0313,1406.7031 L101.0313,1405.5469 Q101.0313,1404.2188 101.6406,1403.0781 Q102.2656,1401.9219 103.3594,1401.3125 Q104.4531,1400.6875 105.6875,1400.6875 Q106.4219,1400.6875 107.0625,1400.8594 Q107.7188,1401.0156 108.2656,1401.375 Z "/><text fill="#000000" font-family="sans-serif" font-size="12" lengthAdjust="spacingAndGlyphs" textLength="83" x="119.5" y="1410.4102">DataProcedure</text><line style="stroke: #A80036; stroke-width: 1.5;" x1="91.5" x2="204.5" y1="1421.5" y2="1421.5"/><text fill="#000000" font-family="sans-serif" font-size="11" lengthAdjust="spacingAndGlyphs" textLength="56" x="96.5" y="1436.9189">string name</text><line style="stroke: #A80036; stroke-width: 1.5;" x1="91.5" x2="204.5" y1="1443.3359" y2="1443.3359"/><!--class DataPipeline--><rect fill="#FEFECE" filter="url(#ffhrmkiu77n8n)" height="61.8359" id="DataPipeline" style="stroke: #A80036; stroke-width: 1.5;" width="103" x="143.5" y="1222"/><ellipse cx="158.5" cy="1238" fill="#ADD1B2" rx="11" ry="11" style="stroke: #A80036; stroke-width: 1.0;"/><path d="M161.2656,1233.875 Q161.4219,1233.6563 161.6094,1233.5469 Q161.7969,1233.4375 162.0156,1233.4375 Q162.3906,1233.4375 162.625,1233.7031 Q162.8594,1233.9531 162.8594,1234.5625 L162.8594,1236.0156 Q162.8594,1236.625 162.625,1236.8906 Q162.3906,1237.1563 162.0156,1237.1563 Q161.6719,1237.1563 161.4688,1236.9531 Q161.2656,1236.7656 161.1563,1236.25 Q161.1094,1235.8906 160.9219,1235.7031 Q160.5938,1235.3281 159.9844,1235.1094 Q159.375,1234.8906 158.75,1234.8906 Q157.9844,1234.8906 157.3438,1235.2188 Q156.7188,1235.5469 156.2188,1236.2969 Q155.7344,1237.0469 155.7344,1238.0781 L155.7344,1239.1719 Q155.7344,1240.4063 156.625,1241.2344 Q157.5156,1242.0469 159.1094,1242.0469 Q160.0469,1242.0469 160.7031,1241.7969 Q161.0938,1241.6406 161.5156,1241.2031 Q161.7813,1240.9375 161.9219,1240.8594 Q162.0781,1240.7813 162.2813,1240.7813 Q162.6094,1240.7813 162.8594,1241.0469 Q163.125,1241.2969 163.125,1241.6406 Q163.125,1241.9844 162.7813,1242.3906 Q162.2813,1242.9688 161.4844,1243.2969 Q160.4063,1243.75 159.1094,1243.75 Q157.5938,1243.75 156.3906,1243.125 Q155.4063,1242.625 154.7188,1241.5625 Q154.0313,1240.4844 154.0313,1239.2031 L154.0313,1238.0469 Q154.0313,1236.7188 154.6406,1235.5781 Q155.2656,1234.4219 156.3594,1233.8125 Q157.4531,1233.1875 158.6875,1233.1875 Q159.4219,1233.1875 160.0625,1233.3594 Q160.7188,1233.5156 161.2656,1233.875 Z "/><text fill="#000000" font-family="sans-serif" font-size="12" lengthAdjust="spacingAndGlyphs" textLength="71" x="172.5" y="1242.9102">DataPipeline</text><line style="stroke: #A80036; stroke-width: 1.5;" x1="144.5" x2="245.5" y1="1254" y2="1254"/><text fill="#000000" font-family="sans-serif" font-size="11" lengthAdjust="spacingAndGlyphs" textLength="56" x="149.5" y="1269.4189">string name</text><line style="stroke: #A80036; stroke-width: 1.5;" x1="144.5" x2="245.5" y1="1275.8359" y2="1275.8359"/><!--class i--><rect fill="#FEFECE" filter="url(#ffhrmkiu77n8n)" height="200.1953" id="i" style="stroke: #A80036; stroke-width: 1.5;" width="211" x="250.5" y="117"/><ellipse cx="280.35" cy="133" fill="#B4A7E5" rx="11" ry="11" style="stroke: #A80036; stroke-width: 1.0;"/><path d="M281.3031,129.6406 L281.3031,136.2969 L283.0219,136.2969 Q283.6313,136.2969 283.8969,136.5313 Q284.1625,136.7656 284.1625,137.1563 Q284.1625,137.5313 283.8969,137.7656 Q283.6313,138 283.0219,138 L277.8813,138 Q277.2719,138 277.0063,137.7656 Q276.7406,137.5313 276.7406,137.1406 Q276.7406,136.7656 277.0063,136.5313 Q277.2719,136.2969 277.8813,136.2969 L279.6,136.2969 L279.6,129.6406 L277.8813,129.6406 Q277.2719,129.6406 277.0063,129.4063 Q276.7406,129.1719 276.7406,128.7813 Q276.7406,128.4063 277.0063,128.1719 Q277.2719,127.9375 277.8813,127.9375 L283.0219,127.9375 Q283.6313,127.9375 283.8969,128.1719 Q284.1625,128.4063 284.1625,128.7813 Q284.1625,129.1719 283.8969,129.4063 Q283.6313,129.6406 283.0219,129.6406 L281.3031,129.6406 Z "/><text fill="#000000" font-family="sans-serif" font-size="12" font-style="italic" lengthAdjust="spacingAndGlyphs" textLength="146" x="297.65" y="137.9102">Data Definition Framework</text><line style="stroke: #A80036; stroke-width: 1.5;" x1="251.5" x2="460.5" y1="149" y2="149"/><line style="stroke: #A80036; stroke-width: 1.5;" x1="251.5" x2="460.5" y1="157" y2="157"/><text fill="#000000" font-family="sans-serif" font-size="11" lengthAdjust="spacingAndGlyphs" textLength="157" x="256.5" y="172.4189">/edgemere/diml/ddf/data/create()</text><text fill="#000000" font-family="sans-serif" font-size="11" lengthAdjust="spacingAndGlyphs" textLength="160" x="256.5" y="186.2549">/edgemere/diml/ddf/data/govern()</text><text fill="#000000" font-family="sans-serif" font-size="11" lengthAdjust="spacingAndGlyphs" textLength="189" x="256.5" y="200.0908">/edgemere/diml/ddf/data/source/name()</text><text fill="#000000" font-family="sans-serif" font-size="11" lengthAdjust="spacingAndGlyphs" textLength="199" x="256.5" y="213.9268">/edgemere/diml/ddf/datablueprint/deploy()</text><text fill="#000000" font-family="sans-serif" font-size="11" lengthAdjust="spacingAndGlyphs" textLength="180" x="256.5" y="227.7627">/edgemere/diml/ddf/datablueprint/list()</text><text fill="#000000" font-family="sans-serif" font-size="11" lengthAdjust="spacingAndGlyphs" textLength="174" x="256.5" y="241.5986">/edgemere/diml/ddf/datacatalog/list()</text><text fill="#000000" font-family="sans-serif" font-size="11" lengthAdjust="spacingAndGlyphs" textLength="170" x="256.5" y="255.4346">/edgemere/diml/ddf/datadaptor/list()</text><text fill="#000000" font-family="sans-serif" font-size="11" lengthAdjust="spacingAndGlyphs" textLength="175" x="256.5" y="269.2705">/edgemere/diml/ddf/datapipeline/list()</text><text fill="#000000" font-family="sans-serif" font-size="11" lengthAdjust="spacingAndGlyphs" textLength="189" x="256.5" y="283.1064">/edgemere/diml/ddf/dataprocedure/list()</text><text fill="#000000" font-family="sans-serif" font-size="11" lengthAdjust="spacingAndGlyphs" textLength="199" x="256.5" y="296.9424">/edgemere/diml/ddf/datasource/simulate()</text><text fill="#000000" font-family="sans-serif" font-size="11" lengthAdjust="spacingAndGlyphs" textLength="162" x="256.5" y="310.7783">/edgemere/diml/ddf/metadata/list()</text><!--class DataAdaptorInstance--><rect fill="#FEFECE" filter="url(#ffhrmkiu77n8n)" height="61.8359" id="DataAdaptorInstance" style="stroke: #A80036; stroke-width: 1.5;" width="147" x="54.5" y="186"/><ellipse cx="69.5" cy="202" fill="#ADD1B2" rx="11" ry="11" style="stroke: #A80036; stroke-width: 1.0;"/><path d="M72.2656,197.875 Q72.4219,197.6563 72.6094,197.5469 Q72.7969,197.4375 73.0156,197.4375 Q73.3906,197.4375 73.625,197.7031 Q73.8594,197.9531 73.8594,198.5625 L73.8594,200.0156 Q73.8594,200.625 73.625,200.8906 Q73.3906,201.1563 73.0156,201.1563 Q72.6719,201.1563 72.4688,200.9531 Q72.2656,200.7656 72.1563,200.25 Q72.1094,199.8906 71.9219,199.7031 Q71.5938,199.3281 70.9844,199.1094 Q70.375,198.8906 69.75,198.8906 Q68.9844,198.8906 68.3438,199.2188 Q67.7188,199.5469 67.2188,200.2969 Q66.7344,201.0469 66.7344,202.0781 L66.7344,203.1719 Q66.7344,204.4063 67.625,205.2344 Q68.5156,206.0469 70.1094,206.0469 Q71.0469,206.0469 71.7031,205.7969 Q72.0938,205.6406 72.5156,205.2031 Q72.7813,204.9375 72.9219,204.8594 Q73.0781,204.7813 73.2813,204.7813 Q73.6094,204.7813 73.8594,205.0469 Q74.125,205.2969 74.125,205.6406 Q74.125,205.9844 73.7813,206.3906 Q73.2813,206.9688 72.4844,207.2969 Q71.4063,207.75 70.1094,207.75 Q68.5938,207.75 67.3906,207.125 Q66.4063,206.625 65.7188,205.5625 Q65.0313,204.4844 65.0313,203.2031 L65.0313,202.0469 Q65.0313,200.7188 65.6406,199.5781 Q66.2656,198.4219 67.3594,197.8125 Q68.4531,197.1875 69.6875,197.1875 Q70.4219,197.1875 71.0625,197.3594 Q71.7188,197.5156 72.2656,197.875 Z "/><text fill="#000000" font-family="sans-serif" font-size="12" lengthAdjust="spacingAndGlyphs" textLength="115" x="83.5" y="206.9102">DataAdaptorInstance</text><line style="stroke: #A80036; stroke-width: 1.5;" x1="55.5" x2="200.5" y1="218" y2="218"/><text fill="#000000" font-family="sans-serif" font-size="11" lengthAdjust="spacingAndGlyphs" textLength="52" x="60.5" y="233.4189">string attr1</text><line style="stroke: #A80036; stroke-width: 1.5;" x1="55.5" x2="200.5" y1="239.8359" y2="239.8359"/><!--class ModelName--><rect fill="#FEFECE" filter="url(#ffhrmkiu77n8n)" height="48" id="ModelName" style="stroke: #A80036; stroke-width: 1.5;" width="99" x="54.5" y="409"/><ellipse cx="69.5" cy="425" fill="#ADD1B2" rx="11" ry="11" style="stroke: #A80036; stroke-width: 1.0;"/><path d="M72.2656,420.875 Q72.4219,420.6563 72.6094,420.5469 Q72.7969,420.4375 73.0156,420.4375 Q73.3906,420.4375 73.625,420.7031 Q73.8594,420.9531 73.8594,421.5625 L73.8594,423.0156 Q73.8594,423.625 73.625,423.8906 Q73.3906,424.1563 73.0156,424.1563 Q72.6719,424.1563 72.4688,423.9531 Q72.2656,423.7656 72.1563,423.25 Q72.1094,422.8906 71.9219,422.7031 Q71.5938,422.3281 70.9844,422.1094 Q70.375,421.8906 69.75,421.8906 Q68.9844,421.8906 68.3438,422.2188 Q67.7188,422.5469 67.2188,423.2969 Q66.7344,424.0469 66.7344,425.0781 L66.7344,426.1719 Q66.7344,427.4063 67.625,428.2344 Q68.5156,429.0469 70.1094,429.0469 Q71.0469,429.0469 71.7031,428.7969 Q72.0938,428.6406 72.5156,428.2031 Q72.7813,427.9375 72.9219,427.8594 Q73.0781,427.7813 73.2813,427.7813 Q73.6094,427.7813 73.8594,428.0469 Q74.125,428.2969 74.125,428.6406 Q74.125,428.9844 73.7813,429.3906 Q73.2813,429.9688 72.4844,430.2969 Q71.4063,430.75 70.1094,430.75 Q68.5938,430.75 67.3906,430.125 Q66.4063,429.625 65.7188,428.5625 Q65.0313,427.4844 65.0313,426.2031 L65.0313,425.0469 Q65.0313,423.7188 65.6406,422.5781 Q66.2656,421.4219 67.3594,420.8125 Q68.4531,420.1875 69.6875,420.1875 Q70.4219,420.1875 71.0625,420.3594 Q71.7188,420.5156 72.2656,420.875 Z "/><text fill="#000000" font-family="sans-serif" font-size="12" lengthAdjust="spacingAndGlyphs" textLength="67" x="83.5" y="429.9102">ModelName</text><line style="stroke: #A80036; stroke-width: 1.5;" x1="55.5" x2="152.5" y1="441" y2="441"/><line style="stroke: #A80036; stroke-width: 1.5;" x1="55.5" x2="152.5" y1="449" y2="449"/><!--class Identity--><rect fill="#FEFECE" filter="url(#ffhrmkiu77n8n)" height="48" id="Identity" style="stroke: #A80036; stroke-width: 1.5;" width="70" x="932" y="1229"/><ellipse cx="947" cy="1245" fill="#ADD1B2" rx="11" ry="11" style="stroke: #A80036; stroke-width: 1.0;"/><path d="M949.7656,1240.875 Q949.9219,1240.6563 950.1094,1240.5469 Q950.2969,1240.4375 950.5156,1240.4375 Q950.8906,1240.4375 951.125,1240.7031 Q951.3594,1240.9531 951.3594,1241.5625 L951.3594,1243.0156 Q951.3594,1243.625 951.125,1243.8906 Q950.8906,1244.1563 950.5156,1244.1563 Q950.1719,1244.1563 949.9688,1243.9531 Q949.7656,1243.7656 949.6563,1243.25 Q949.6094,1242.8906 949.4219,1242.7031 Q949.0938,1242.3281 948.4844,1242.1094 Q947.875,1241.8906 947.25,1241.8906 Q946.4844,1241.8906 945.8438,1242.2188 Q945.2188,1242.5469 944.7188,1243.2969 Q944.2344,1244.0469 944.2344,1245.0781 L944.2344,1246.1719 Q944.2344,1247.4063 945.125,1248.2344 Q946.0156,1249.0469 947.6094,1249.0469 Q948.5469,1249.0469 949.2031,1248.7969 Q949.5938,1248.6406 950.0156,1248.2031 Q950.2813,1247.9375 950.4219,1247.8594 Q950.5781,1247.7813 950.7813,1247.7813 Q951.1094,1247.7813 951.3594,1248.0469 Q951.625,1248.2969 951.625,1248.6406 Q951.625,1248.9844 951.2813,1249.3906 Q950.7813,1249.9688 949.9844,1250.2969 Q948.9063,1250.75 947.6094,1250.75 Q946.0938,1250.75 944.8906,1250.125 Q943.9063,1249.625 943.2188,1248.5625 Q942.5313,1247.4844 942.5313,1246.2031 L942.5313,1245.0469 Q942.5313,1243.7188 943.1406,1242.5781 Q943.7656,1241.4219 944.8594,1240.8125 Q945.9531,1240.1875 947.1875,1240.1875 Q947.9219,1240.1875 948.5625,1240.3594 Q949.2188,1240.5156 949.7656,1240.875 Z "/><text fill="#000000" font-family="sans-serif" font-size="12" lengthAdjust="spacingAndGlyphs" textLength="38" x="961" y="1249.9102">Identity</text><line style="stroke: #A80036; stroke-width: 1.5;" x1="933" x2="1001" y1="1261" y2="1261"/><line style="stroke: #A80036; stroke-width: 1.5;" x1="933" x2="1001" y1="1269" y2="1269"/><ellipse cx="311" cy="13" fill="#FEFECE" filter="url(#ffhrmkiu77n8n)" rx="5" ry="5" style="stroke: #A80036; stroke-width: 1.5;"/><text fill="#000000" font-family="sans-serif" font-size="12" lengthAdjust="spacingAndGlyphs" textLength="19" x="301.5" y="30.457">CLI</text><ellipse cx="356" cy="13" fill="#FEFECE" filter="url(#ffhrmkiu77n8n)" rx="5" ry="5" style="stroke: #A80036; stroke-width: 1.5;"/><text fill="#000000" font-family="sans-serif" font-size="12" lengthAdjust="spacingAndGlyphs" textLength="32" x="340" y="30.457">REST</text><ellipse cx="401" cy="13" fill="#FEFECE" filter="url(#ffhrmkiu77n8n)" rx="5" ry="5" style="stroke: #A80036; stroke-width: 1.5;"/><text fill="#000000" font-family="sans-serif" font-size="12" lengthAdjust="spacingAndGlyphs" textLength="25" x="388.5" y="30.457">Web</text><!--link ilol5156 to i--><path d="M311.94,18.22 C314.912,31.56 324.472,74.47 333.93,116.93 " fill="none" id="ilol5156-i" style="stroke: #A80036; stroke-width: 1.0;"/><!--link ilol5159 to i--><path d="M356,18.22 C356,31.56 356,74.47 356,116.93 " fill="none" id="ilol5159-i" style="stroke: #A80036; stroke-width: 1.0;"/><!--link ilol5162 to i--><path d="M400.06,18.22 C397.088,31.56 387.528,74.47 378.07,116.93 " fill="none" id="ilol5162-i" style="stroke: #A80036; stroke-width: 1.0;"/><!--link DataAdaptor to DataBluePrint--><path d="M594.155,690.837 C596.922,684.881 599.602,678.84 602,673 C649.162,558.171 646.676,517.87 629,395 C623.44,356.35 611.381,314.36 600.275,280.99 " fill="none" id="DataAdaptor-DataBluePrint" style="stroke: #A80036; stroke-width: 1.0;"/><polygon fill="#A80036" points="596.08,268.65,595.1903,278.4586,597.6896,273.3838,602.7644,275.8832,596.08,268.65" style="stroke: #A80036; stroke-width: 1.0;"/><line style="stroke: #A80036; stroke-width: 1.0;" x1="597.6896" x2="600.2625" y1="273.3838" y2="280.955"/><polygon fill="#FFFFFF" points="588.413,702.85,594.6097,699.1621,593.5888,692.0236,587.3921,695.7115,588.413,702.85" style="stroke: #A80036; stroke-width: 1.0;"/><text fill="#000000" font-family="sans-serif" font-size="13" lengthAdjust="spacingAndGlyphs" textLength="49" x="642" y="515.4951">blueprint</text><text fill="#000000" font-family="sans-serif" font-size="13" lengthAdjust="spacingAndGlyphs" textLength="7" x="591.1736" y="290.1611">1</text><!--link DataAdaptor to DataSource--><path d="M523.325,790.246 C519.561,796.225 516.318,802.524 514,809 C509.926,820.384 510.514,832.638 513.464,844.373 " fill="none" id="DataAdaptor-DataSource" style="stroke: #A80036; stroke-width: 1.0;"/><polygon fill="#A80036" points="517.484,856.838,518.5287,847.0447,515.9494,852.0793,510.9148,849.5,517.484,856.838" style="stroke: #A80036; stroke-width: 1.0;"/><line style="stroke: #A80036; stroke-width: 1.0;" x1="515.9494" x2="513.4935" y1="852.0793" y2="844.4655"/><polygon fill="#A80036" points="531.1,779.181,524.3779,781.7912,524.2018,789.0001,530.924,786.39,531.1,779.181" style="stroke: #A80036; stroke-width: 1.0;"/><text fill="#000000" font-family="sans-serif" font-size="13" lengthAdjust="spacingAndGlyphs" textLength="46" x="515" y="823.4951">sources</text><text fill="#000000" font-family="sans-serif" font-size="13" lengthAdjust="spacingAndGlyphs" textLength="7" x="505.8878" y="846.2573">n</text><!--link DataSource to DataAdaptor--><path d="M562.55,843.816 C563.91,838.178 565.099,832.506 566,827 C567.833,815.793 568.836,803.648 569.341,792.141 " fill="none" id="DataSource-DataAdaptor" style="stroke: #A80036; stroke-width: 1.0;"/><polygon fill="#A80036" points="569.726,779.019,565.4637,787.8978,569.5793,784.0168,573.4602,788.1325,569.726,779.019" style="stroke: #A80036; stroke-width: 1.0;"/><line style="stroke: #A80036; stroke-width: 1.0;" x1="569.5793" x2="569.345" y1="784.0168" y2="792.0135"/><polygon fill="#FFFFFF" points="559.12,856.817,564.518,852.0357,562.1807,845.2139,556.7826,849.9952,559.12,856.817" style="stroke: #A80036; stroke-width: 1.0;"/><text fill="#000000" font-family="sans-serif" font-size="13" lengthAdjust="spacingAndGlyphs" textLength="43" x="570" y="823.4951">adaptor</text><text fill="#000000" font-family="sans-serif" font-size="13" lengthAdjust="spacingAndGlyphs" textLength="7" x="562.2666" y="800.1923">1</text><!--link DataAdaptorInstance to ModelName--><path d="M123.152,261.23 C118.721,300.74 112.242,358.51 108.073,395.69 " fill="none" id="DataAdaptorInstance-ModelName" style="stroke: #A80036; stroke-width: 1.0;"/><polygon fill="#A80036" points="106.597,408.84,111.5713,400.3396,107.152,403.8709,103.6207,399.4516,106.597,408.84" style="stroke: #A80036; stroke-width: 1.0;"/><line style="stroke: #A80036; stroke-width: 1.0;" x1="107.152" x2="108.0455" y1="403.8709" y2="395.925"/><polygon fill="#FFFFFF" points="124.612,248.21,119.9707,253.7289,123.28,260.1358,127.9213,254.6169,124.612,248.21" style="stroke: #A80036; stroke-width: 1.0;"/><text fill="#000000" font-family="sans-serif" font-size="13" lengthAdjust="spacingAndGlyphs" textLength="42" x="115" y="361.4951">assoc1</text><text fill="#000000" font-family="sans-serif" font-size="13" lengthAdjust="spacingAndGlyphs" textLength="7" x="99.3654" y="398.1392">1</text><!--link DataAdaptorTemplate to DataAdaptor--><path d="M539.448,637.911 C544.289,654.634 549.685,673.275 554.527,690.004 " fill="none" id="DataAdaptorTemplate-DataAdaptor" style="stroke: #A80036; stroke-width: 1.0;"/><polygon fill="#A80036" points="558.271,702.937,559.611,693.1797,556.8809,698.1341,551.9265,695.404,558.271,702.937" style="stroke: #A80036; stroke-width: 1.0;"/><line style="stroke: #A80036; stroke-width: 1.0;" x1="556.8809" x2="554.6565" y1="698.1341" y2="690.45"/><polygon fill="#FFFFFF" points="535.764,625.183,533.5899,632.0586,539.1003,636.7099,541.2745,629.8343,535.764,625.183" style="stroke: #A80036; stroke-width: 1.0;"/><text fill="#000000" font-family="sans-serif" font-size="13" lengthAdjust="spacingAndGlyphs" textLength="43" x="550" y="669.4951">adaptor</text><text fill="#000000" font-family="sans-serif" font-size="13" lengthAdjust="spacingAndGlyphs" textLength="7" x="548.6475" y="692.0019">1</text><!--link DataAdaptorTemplate to DataBluePrint--><path d="M436.374,561.306 C391.618,543.854 341.34,515.46 315,471 C297.782,441.94 296.96,423.56 315,395 C358.108,326.76 413.179,363.71 479,317 C494.784,305.8 510.277,291.92 524.118,278.14 " fill="none" id="DataAdaptorTemplate-DataBluePrint" style="stroke: #A80036; stroke-width: 1.0;"/><polygon fill="#A80036" points="533.42,268.65,524.2635,272.2775,529.9201,272.2208,529.9768,277.8774,533.42,268.65" style="stroke: #A80036; stroke-width: 1.0;"/><line style="stroke: #A80036; stroke-width: 1.0;" x1="529.9201" x2="524.3205" y1="272.2208" y2="277.935"/><polygon fill="#FFFFFF" points="448.826,565.943,444.5987,560.1009,437.5801,561.7561,441.8074,567.5982,448.826,565.943" style="stroke: #A80036; stroke-width: 1.0;"/><text fill="#000000" font-family="sans-serif" font-size="13" lengthAdjust="spacingAndGlyphs" textLength="49" x="316" y="438.4951">blueprint</text><text fill="#000000" font-family="sans-serif" font-size="13" lengthAdjust="spacingAndGlyphs" textLength="7" x="520.0936" y="290.1611">1</text><!--link DataBluePrint to DataAdaptorTemplate--><path d="M576.198,282.05 C574.272,343.52 568.255,438.61 550,519 C548.697,524.74 547.019,530.651 545.15,536.474 " fill="none" id="DataBluePrint-DataAdaptorTemplate" style="stroke: #A80036; stroke-width: 1.0;"/><polygon fill="#A80036" points="540.824,548.978,547.5465,541.7802,542.4586,544.2527,539.9861,539.1649,540.824,548.978" style="stroke: #A80036; stroke-width: 1.0;"/><line style="stroke: #A80036; stroke-width: 1.0;" x1="542.4586" x2="545.074" y1="544.2527" y2="536.6925"/><polygon fill="#A80036" points="576.568,268.7,572.4047,274.5879,576.2383,280.6955,580.4017,274.8076,576.568,268.7" style="stroke: #A80036; stroke-width: 1.0;"/><text fill="#000000" font-family="sans-serif" font-size="13" lengthAdjust="spacingAndGlyphs" textLength="50" x="570" y="438.4951">adaptors</text><text fill="#000000" font-family="sans-serif" font-size="13" lengthAdjust="spacingAndGlyphs" textLength="7" x="536.0962" y="538.0505">n</text><!--link DataBluePrint to Identity--><path d="M603.902,280.21 C612.211,293.87 622.535,307.17 635,317 C773.223,426 1014,255.97 1014,432 C1014,432 1014,432 1014,1088 C1014,1133.889 996.785,1184.303 983.192,1216.956 " fill="none" id="DataBluePrint-Identity" style="stroke: #A80036; stroke-width: 1.0;"/><polygon fill="#A80036" points="978.019,1228.969,985.2523,1222.2848,979.9965,1224.3767,977.9046,1219.1208,978.019,1228.969" style="stroke: #A80036; stroke-width: 1.0;"/><line style="stroke: #A80036; stroke-width: 1.0;" x1="979.9965" x2="983.161" y1="1224.3767" y2="1217.0285"/><polygon fill="#FFFFFF" points="597.394,268.72,596.8673,275.9118,603.3033,279.1641,603.83,271.9723,597.394,268.72" style="stroke: #A80036; stroke-width: 1.0;"/><text fill="#000000" font-family="sans-serif" font-size="13" lengthAdjust="spacingAndGlyphs" textLength="42" x="1015" y="746.4951">identity</text><text fill="#000000" font-family="sans-serif" font-size="13" lengthAdjust="spacingAndGlyphs" textLength="7" x="972.9457" y="1218.3012">1</text><!--link DataBluePrint to DataFlowTemplate--><path d="M540.544,280.41 C521.435,313.13 498.369,352.62 480.571,383.09 " fill="none" id="DataBluePrint-DataFlowTemplate" style="stroke: #A80036; stroke-width: 1.0;"/><polygon fill="#A80036" points="473.783,394.71,481.7763,388.9562,476.3049,390.3926,474.8685,384.9211,473.783,394.71" style="stroke: #A80036; stroke-width: 1.0;"/><line style="stroke: #A80036; stroke-width: 1.0;" x1="476.3049" x2="480.34" y1="390.3926" y2="383.485"/><polygon fill="#A80036" points="547.377,268.72,540.8968,271.8834,541.3245,279.0818,547.8047,275.9184,547.377,268.72" style="stroke: #A80036; stroke-width: 1.0;"/><text fill="#000000" font-family="sans-serif" font-size="13" lengthAdjust="spacingAndGlyphs" textLength="29" x="501" y="361.4951">flows</text><text fill="#000000" font-family="sans-serif" font-size="13" lengthAdjust="spacingAndGlyphs" textLength="7" x="470.0397" y="384.0202">n</text><!--link DataBluePrint to DataBluePrintInstance--><path d="M612.819,279.99 C642.829,335.74 683.354,420.94 700,501 C744.734,716.152 729.89,781.22 679,995 C675.685,1008.924 670.241,1023.337 664.387,1036.473 " fill="none" id="DataBluePrint-DataBluePrintInstance" style="stroke: #A80036; stroke-width: 1.0;"/><polygon fill="#A80036" points="658.704,1048.619,666.1407,1042.1618,660.8226,1044.09,658.8943,1038.772,658.704,1048.619" style="stroke: #A80036; stroke-width: 1.0;"/><line style="stroke: #A80036; stroke-width: 1.0;" x1="660.8226" x2="664.2135" y1="1044.09" y2="1036.844"/><polygon fill="#A80036" points="606.587,268.55,605.9494,275.7329,612.3345,279.084,612.9721,271.9012,606.587,268.55" style="stroke: #A80036; stroke-width: 1.0;"/><text fill="#000000" font-family="sans-serif" font-size="13" lengthAdjust="spacingAndGlyphs" textLength="56" x="727" y="669.4951">instances</text><text fill="#000000" font-family="sans-serif" font-size="13" lengthAdjust="spacingAndGlyphs" textLength="7" x="654.6609" y="1038.2008">n</text><!--link DataBluePrintInstance to DataBluePrint--><path d="M574.693,1041.844 C552.232,1027.774 526.248,1013.223 501,1003 C486.21,997.012 481.516,998.723 466,995 C380.887,974.58 330.936,1014.323 275,947 C236.014,900.077 259.89,733.977 258,673 C254.141,548.473 242.266,508.34 294,395 C305.771,369.21 311.533,361.32 336,347 C392.05,314.21 421.968,348.06 479,317 C497.12,307.13 514.047,292.85 528.563,278.19 " fill="none" id="DataBluePrintInstance-DataBluePrint" style="stroke: #A80036; stroke-width: 1.0;"/><polygon fill="#A80036" points="537.742,268.54,528.641,272.3045,534.2961,272.1629,534.4376,277.818,537.742,268.54" style="stroke: #A80036; stroke-width: 1.0;"/><line style="stroke: #A80036; stroke-width: 1.0;" x1="534.2961" x2="528.781" y1="272.1629" y2="277.955"/><polygon fill="#FFFFFF" points="585.754,1048.911,582.8514,1042.3099,575.6416,1042.4503,578.5443,1049.0514,585.754,1048.911" style="stroke: #A80036; stroke-width: 1.0;"/><text fill="#000000" font-family="sans-serif" font-size="13" lengthAdjust="spacingAndGlyphs" textLength="49" x="259" y="669.4951">blueprint</text><text fill="#000000" font-family="sans-serif" font-size="13" lengthAdjust="spacingAndGlyphs" textLength="7" x="532.7135" y="290.4085">1</text><!--link DataBluePrintInstance to DataSource--><path d="M590.672,1040.053 C573.715,1026.029 553.654,1011.961 533,1003 C522.073,998.259 487.769,1004.029 480,995 C467.717,980.723 473.872,964.09 486.279,948.923 " fill="none" id="DataBluePrintInstance-DataSource" style="stroke: #A80036; stroke-width: 1.0;"/><polygon fill="#A80036" points="495.204,939.208,486.1699,943.1303,491.8216,942.8903,492.0616,948.5421,495.204,939.208" style="stroke: #A80036; stroke-width: 1.0;"/><line style="stroke: #A80036; stroke-width: 1.0;" x1="491.8216" x2="486.409" y1="942.8903" y2="948.781"/><polygon fill="#FFFFFF" points="600.808,1048.734,598.8535,1041.7928,591.6945,1040.9273,593.649,1047.8685,600.808,1048.734" style="stroke: #A80036; stroke-width: 1.0;"/><text fill="#000000" font-family="sans-serif" font-size="13" lengthAdjust="spacingAndGlyphs" textLength="46" x="481" y="991.4951">sources</text><text fill="#000000" font-family="sans-serif" font-size="13" lengthAdjust="spacingAndGlyphs" textLength="7" x="480.523" y="941.055">n</text><!--link DataBluePrintInstance to DataSource--><path d="M595.794,1038.53 C585.536,1025.156 575.402,1010.113 568,995 C562.668,984.113 558.42,971.902 555.073,960.022 " fill="none" id="DataBluePrintInstance-DataSource-1" style="stroke: #A80036; stroke-width: 1.0;"/><polygon fill="#A80036" points="551.786,947.339,550.1718,957.0547,553.0404,952.1791,557.916,955.0477,551.786,947.339" style="stroke: #A80036; stroke-width: 1.0;"/><line style="stroke: #A80036; stroke-width: 1.0;" x1="553.0404" x2="555.0475" y1="952.1791" y2="959.9225"/><polygon fill="#FFFFFF" points="603.998,1048.868,603.4019,1041.6816,596.539,1039.4678,597.1351,1046.6542,603.998,1048.868" style="stroke: #A80036; stroke-width: 1.0;"/><text fill="#000000" font-family="sans-serif" font-size="13" lengthAdjust="spacingAndGlyphs" textLength="31" x="569" y="991.4951">sinks</text><text fill="#000000" font-family="sans-serif" font-size="13" lengthAdjust="spacingAndGlyphs" textLength="7" x="545.3619" y="968.0582">n</text><!--link DataSource to DataBluePrintInstance--><path d="M593.172,958.013 C597.516,964.191 601.561,970.579 605,977 C614.822,995.339 622.144,1017.017 627.363,1036.19 " fill="none" id="DataSource-DataBluePrintInstance" style="stroke: #A80036; stroke-width: 1.0;"/><polygon fill="#A80036" points="630.645,1048.992,632.2845,1039.2806,629.4033,1044.1486,624.5352,1041.2674,630.645,1048.992" style="stroke: #A80036; stroke-width: 1.0;"/><line style="stroke: #A80036; stroke-width: 1.0;" x1="629.4033" x2="627.4165" y1="1044.1486" y2="1036.399"/><polygon fill="#FFFFFF" points="585.098,947.157,585.4692,954.3585,592.2595,956.7857,591.8883,949.5842,585.098,947.157" style="stroke: #A80036; stroke-width: 1.0;"/><text fill="#000000" font-family="sans-serif" font-size="13" lengthAdjust="spacingAndGlyphs" textLength="56" x="614" y="991.4951">blueprints</text><text fill="#000000" font-family="sans-serif" font-size="13" lengthAdjust="spacingAndGlyphs" textLength="7" x="621.6436" y="1038.0671">n</text><!--link DataBluePrintInstance to DataFlowInstance--><path d="M573.369,1133.455 C563.996,1141.422 554.87,1150.048 547,1159 C535.468,1172.117 525.049,1187.995 516.459,1202.891 " fill="none" id="DataBluePrintInstance-DataFlowInstance" style="stroke: #A80036; stroke-width: 1.0;"/><polygon fill="#A80036" points="509.976,1214.554,517.8446,1208.6308,512.4051,1210.1837,510.8521,1204.7442,509.976,1214.554" style="stroke: #A80036; stroke-width: 1.0;"/><line style="stroke: #A80036; stroke-width: 1.0;" x1="512.4051" x2="516.292" y1="1210.1837" y2="1203.1915"/><polygon fill="#FFFFFF" points="583.589,1125.084,576.4127,1125.7913,574.3054,1132.6876,581.4817,1131.9803,583.589,1125.084" style="stroke: #A80036; stroke-width: 1.0;"/><text fill="#000000" font-family="sans-serif" font-size="13" lengthAdjust="spacingAndGlyphs" textLength="29" x="548" y="1173.4951">flows</text><text fill="#000000" font-family="sans-serif" font-size="13" lengthAdjust="spacingAndGlyphs" textLength="7" x="505.4641" y="1204.1246">n</text><!--link DataFlowInstance to DataBluePrintInstance--><path d="M552.206,1206.363 C562.682,1197.187 573.068,1187.208 582,1177 C592.707,1164.764 602.742,1150.27 611.276,1136.57 " fill="none" id="DataFlowInstance-DataBluePrintInstance" style="stroke: #A80036; stroke-width: 1.0;"/><polygon fill="#A80036" points="618.074,1125.315,609.9971,1130.9509,615.489,1129.5949,616.845,1135.0869,618.074,1125.315" style="stroke: #A80036; stroke-width: 1.0;"/><line style="stroke: #A80036; stroke-width: 1.0;" x1="615.489" x2="611.353" y1="1129.5949" y2="1136.4425"/><polygon fill="#FFFFFF" points="542.179,1214.897,549.3407,1214.0544,551.3174,1207.1195,544.1557,1207.9621,542.179,1214.897" style="stroke: #A80036; stroke-width: 1.0;"/><text fill="#000000" font-family="sans-serif" font-size="13" lengthAdjust="spacingAndGlyphs" textLength="49" x="596" y="1173.4951">blueprint</text><text fill="#000000" font-family="sans-serif" font-size="13" lengthAdjust="spacingAndGlyphs" textLength="7" x="607.3405" y="1146.2457">1</text><!--link DataBluePrintInstance to Identity--><path d="M724.18,1130.959 C786.75,1162.149 869.04,1203.169 919.955,1228.549 " fill="none" id="DataBluePrintInstance-Identity" style="stroke: #A80036; stroke-width: 1.0;"/><polygon fill="#A80036" points="931.88,1234.493,925.6093,1226.8984,927.405,1232.2626,922.0407,1234.0584,931.88,1234.493" style="stroke: #A80036; stroke-width: 1.0;"/><line style="stroke: #A80036; stroke-width: 1.0;" x1="927.405" x2="920.2455" y1="1232.2626" y2="1228.694"/><polygon fill="#FFFFFF" points="712.244,1125.009,715.8291,1131.2658,722.9834,1130.3629,719.3984,1124.1061,712.244,1125.009" style="stroke: #A80036; stroke-width: 1.0;"/><text fill="#000000" font-family="sans-serif" font-size="13" lengthAdjust="spacingAndGlyphs" textLength="42" x="813" y="1173.4951">identity</text><text fill="#000000" font-family="sans-serif" font-size="13" lengthAdjust="spacingAndGlyphs" textLength="7" x="916.9146" y="1226.5573">1</text><!--link DataFlow to DataBluePrint--><path d="M305.991,1355.937 C275.345,1225.187 207.338,929.753 194,827 C189.132,789.495 190,779.82 190,742 C190,432 190,432 190,432 C190,293.76 356.39,380.85 479,317 C497.387,307.42 514.449,293.16 529.011,278.42 " fill="none" id="DataFlow-DataBluePrint" style="stroke: #A80036; stroke-width: 1.0;"/><polygon fill="#A80036" points="538.208,268.71,529.114,272.4914,534.7688,272.3393,534.9209,277.9941,538.208,268.71" style="stroke: #A80036; stroke-width: 1.0;"/><line style="stroke: #A80036; stroke-width: 1.0;" x1="534.7688" x2="529.268" y1="272.3393" y2="278.15"/><polygon fill="#FFFFFF" points="309.012,1368.811,311.5354,1362.0558,306.2704,1357.1284,303.747,1363.8836,309.012,1368.811" style="stroke: #A80036; stroke-width: 1.0;"/><text fill="#000000" font-family="sans-serif" font-size="13" lengthAdjust="spacingAndGlyphs" textLength="49" x="195" y="823.4951">blueprint</text><text fill="#000000" font-family="sans-serif" font-size="13" lengthAdjust="spacingAndGlyphs" textLength="7" x="525.525" y="290.2292">1</text><!--link DataFlowInstance to DataFlow--><path d="M443.984,1300.471 C423.856,1319.952 400.271,1342.778 379.169,1363.202 " fill="none" id="DataFlowInstance-DataFlow" style="stroke: #A80036; stroke-width: 1.0;"/><polygon fill="#A80036" points="369.669,1372.396,378.9179,1369.0109,373.2618,1368.9186,373.3541,1363.2625,369.669,1372.396" style="stroke: #A80036; stroke-width: 1.0;"/><line style="stroke: #A80036; stroke-width: 1.0;" x1="373.2618" x2="379.0105" y1="1368.9186" y2="1363.3555"/><polygon fill="#FFFFFF" points="453.624,1291.141,446.5307,1292.4391,445.0007,1299.486,452.094,1298.1879,453.624,1291.141" style="stroke: #A80036; stroke-width: 1.0;"/><text fill="#000000" font-family="sans-serif" font-size="13" lengthAdjust="spacingAndGlyphs" textLength="47" x="423" y="1335.4951">dataflow</text><text fill="#000000" font-family="sans-serif" font-size="13" lengthAdjust="spacingAndGlyphs" textLength="7" x="377.6574" y="1361.3008">1</text><!--link DataFlowInstance to DataSource--><path d="M473.29,1202.069 C455.078,1145.18 434.383,1050.577 466,977 C470.708,966.043 477.925,955.946 486.105,946.962 " fill="none" id="DataFlowInstance-DataSource" style="stroke: #A80036; stroke-width: 1.0;"/><polygon fill="#A80036" points="495.285,937.662,486.1156,941.2567,491.7723,941.2203,491.8088,946.877,495.285,937.662" style="stroke: #A80036; stroke-width: 1.0;"/><line style="stroke: #A80036; stroke-width: 1.0;" x1="491.7723" x2="486.152" y1="941.2203" y2="946.9135"/><polygon fill="#FFFFFF" points="477.475,1214.649,479.3762,1207.693,473.6866,1203.2627,471.7854,1210.2186,477.475,1214.649" style="stroke: #A80036; stroke-width: 1.0;"/><text fill="#000000" font-family="sans-serif" font-size="13" lengthAdjust="spacingAndGlyphs" textLength="31" x="461" y="1092.4951">sinks</text><text fill="#000000" font-family="sans-serif" font-size="13" lengthAdjust="spacingAndGlyphs" textLength="7" x="480.6159" y="957.6319">n</text><!--link DataFlowInstance to DataSource--><path d="M432.591,1205.728 C417.047,1190.191 402.324,1171.532 394,1151 C369.287,1090.041 362.962,1060.995 394,1003 C412.94,967.61 450.55,942.581 483.37,926.414 " fill="none" id="DataFlowInstance-DataSource-1" style="stroke: #A80036; stroke-width: 1.0;"/><polygon fill="#A80036" points="495.201,920.856,485.3543,921.0623,490.6755,922.9819,488.7558,928.3031,495.201,920.856" style="stroke: #A80036; stroke-width: 1.0;"/><line style="stroke: #A80036; stroke-width: 1.0;" x1="490.6755" x2="483.4345" y1="922.9819" y2="926.384"/><polygon fill="#FFFFFF" points="442.326,1214.987,440.7348,1207.9537,433.6304,1206.7174,435.2217,1213.7507,442.326,1214.987" style="stroke: #A80036; stroke-width: 1.0;"/><text fill="#000000" font-family="sans-serif" font-size="13" lengthAdjust="spacingAndGlyphs" textLength="46" x="395" y="1092.4951">sources</text><text fill="#000000" font-family="sans-serif" font-size="13" lengthAdjust="spacingAndGlyphs" textLength="7" x="480.5196" y="920.0076">n</text><!--link DataFlowTemplate to DataFlow--><path d="M381.209,479.3 C349.019,505.85 318,542.67 318,586 C318,586 318,586 318,819 C318,1014.657 319.612,1246.17 320.473,1355.815 " fill="none" id="DataFlowTemplate-DataFlow" style="stroke: #A80036; stroke-width: 1.0;"/><polygon fill="#A80036" points="320.577,1368.887,324.5057,1359.8556,320.5374,1363.8872,316.5059,1359.9189,320.577,1368.887" style="stroke: #A80036; stroke-width: 1.0;"/><line style="stroke: #A80036; stroke-width: 1.0;" x1="320.5374" x2="320.4735" y1="1363.8872" y2="1355.887"/><polygon fill="#FFFFFF" points="391.664,471.05,384.4758,471.6242,382.2411,478.4803,389.4293,477.9061,391.664,471.05" style="stroke: #A80036; stroke-width: 1.0;"/><text fill="#000000" font-family="sans-serif" font-size="13" lengthAdjust="spacingAndGlyphs" textLength="22" x="320" y="907.4951">flow</text><text fill="#000000" font-family="sans-serif" font-size="13" lengthAdjust="spacingAndGlyphs" textLength="7" x="313.0253" y="1357.9996">1</text><!--link DataFlowTemplate to DataAdaptorTemplate--><path d="M477.001,482.71 C480.069,488.85 483.131,495.06 486,501 C491.555,512.5 497.378,524.962 502.781,536.705 " fill="none" id="DataFlowTemplate-DataAdaptorTemplate" style="stroke: #A80036; stroke-width: 1.0;"/><polygon fill="#A80036" points="508.231,548.613,508.1235,538.7647,506.1506,544.0664,500.8489,542.0934,508.231,548.613" style="stroke: #A80036; stroke-width: 1.0;"/><line style="stroke: #A80036; stroke-width: 1.0;" x1="506.1506" x2="502.821" y1="544.0664" y2="536.792"/><polygon fill="#FFFFFF" points="471.145,471.08,470.2689,478.2377,476.539,481.7994,477.4151,474.6417,471.145,471.08" style="stroke: #A80036; stroke-width: 1.0;"/><text fill="#000000" font-family="sans-serif" font-size="13" lengthAdjust="spacingAndGlyphs" textLength="46" x="495" y="515.4951">sources</text><text fill="#000000" font-family="sans-serif" font-size="13" lengthAdjust="spacingAndGlyphs" textLength="7" x="497.7473" y="538.1938">n</text><!--link DataFlowTemplate to DataAdaptorTemplate--><path d="M439.516,484.1 C438.796,495.96 439.994,508.28 445,519 C448.339,526.151 452.858,532.808 458.058,538.933 " fill="none" id="DataFlowTemplate-DataAdaptorTemplate-1" style="stroke: #A80036; stroke-width: 1.0;"/><polygon fill="#A80036" points="467.367,548.731,464.0676,539.4512,463.923,545.1062,458.268,544.9616,467.367,548.731" style="stroke: #A80036; stroke-width: 1.0;"/><line style="stroke: #A80036; stroke-width: 1.0;" x1="463.923" x2="458.4125" y1="545.1062" y2="539.306"/><polygon fill="#FFFFFF" points="441.043,471.01,436.3773,476.5083,439.6582,482.9298,444.3239,477.4315,441.043,471.01" style="stroke: #A80036; stroke-width: 1.0;"/><text fill="#000000" font-family="sans-serif" font-size="13" lengthAdjust="spacingAndGlyphs" textLength="31" x="446" y="515.4951">sinks</text><text fill="#000000" font-family="sans-serif" font-size="13" lengthAdjust="spacingAndGlyphs" textLength="7" x="449.4777" y="538.045">n</text><!--link DataPipeline to DataProcedure--><path d="M131.751,1278.517 C113.731,1288.791 96.2304,1302.703 86,1321 C75.0363,1340.608 85.2896,1361.763 100.3989,1379.423 " fill="none" id="DataPipeline-DataProcedure" style="stroke: #A80036; stroke-width: 1.0;"/><polygon fill="#A80036" points="109.732,1389.379,106.4946,1380.0774,106.3123,1385.7313,100.6583,1385.549,109.732,1389.379" style="stroke: #A80036; stroke-width: 1.0;"/><line style="stroke: #A80036; stroke-width: 1.0;" x1="106.3123" x2="100.8412" y1="1385.7313" y2="1379.895"/><polygon fill="#A80036" points="143.286,1272.434,136.1129,1271.6949,132.6717,1278.0319,139.8448,1278.7711,143.286,1272.434" style="stroke: #A80036; stroke-width: 1.0;"/><text fill="#000000" font-family="sans-serif" font-size="13" lengthAdjust="spacingAndGlyphs" textLength="64" x="87" y="1335.4951">procedures</text><text fill="#000000" font-family="sans-serif" font-size="13" lengthAdjust="spacingAndGlyphs" textLength="7" x="94.1178" y="1378.8586">n</text><!--link DataProcedure to DataPipeline--><path d="M160.13,1376.787 C167.093,1352.267 175.812,1321.567 182.789,1296.999 " fill="none" id="DataProcedure-DataPipeline" style="stroke: #A80036; stroke-width: 1.0;"/><polygon fill="#A80036" points="186.379,1284.355,180.0725,1291.9199,185.0131,1289.1648,187.7682,1294.1054,186.379,1284.355" style="stroke: #A80036; stroke-width: 1.0;"/><line style="stroke: #A80036; stroke-width: 1.0;" x1="185.0131" x2="182.828" y1="1289.1648" y2="1296.861"/><polygon fill="#FFFFFF" points="156.566,1389.337,162.0529,1384.658,159.8442,1377.7935,154.3572,1382.4725,156.566,1389.337" style="stroke: #A80036; stroke-width: 1.0;"/><text fill="#000000" font-family="sans-serif" font-size="13" lengthAdjust="spacingAndGlyphs" textLength="44" x="177" y="1335.4951">pipeline</text><text fill="#000000" font-family="sans-serif" font-size="13" lengthAdjust="spacingAndGlyphs" textLength="7" x="177.0684" y="1305.4013">1</text><!--link DataPipeline to DataFlow--><path d="M226.097,1294.846 C240.664,1313.979 258.321,1337.172 274.436,1358.339 " fill="none" id="DataPipeline-DataFlow" style="stroke: #A80036; stroke-width: 1.0;"/><polygon fill="#A80036" points="282.45,1368.864,280.1815,1359.28,279.4215,1364.8855,273.8159,1364.1255,282.45,1368.864" style="stroke: #A80036; stroke-width: 1.0;"/><line style="stroke: #A80036; stroke-width: 1.0;" x1="279.4215" x2="274.5745" y1="1364.8855" y2="1358.521"/><polygon fill="#FFFFFF" points="218.11,1284.355,218.5619,1291.5519,225.379,1293.9028,224.9271,1286.7059,218.11,1284.355" style="stroke: #A80036; stroke-width: 1.0;"/><text fill="#000000" font-family="sans-serif" font-size="13" lengthAdjust="spacingAndGlyphs" textLength="29" x="259" y="1335.4951">flows</text><text fill="#000000" font-family="sans-serif" font-size="13" lengthAdjust="spacingAndGlyphs" textLength="7" x="269.5367" y="1357.9734">n</text><!--link DataSource to Data--><path d="M604.51,932.044 C642.069,950.834 690.851,976.635 732,1003 C756.558,1018.735 782.599,1038.44 803.067,1054.701 " fill="none" id="DataSource-Data" style="stroke: #A80036; stroke-width: 1.0;"/><polygon fill="#A80036" points="813.225,1062.851,808.709,1054.0985,809.3253,1059.7217,803.7021,1060.338,813.225,1062.851" style="stroke: #A80036; stroke-width: 1.0;"/><line style="stroke: #A80036; stroke-width: 1.0;" x1="809.3253" x2="803.0855" y1="1059.7217" y2="1054.7155"/><polygon fill="#A80036" points="592.733,926.199,596.3288,932.4496,603.4816,931.5344,599.8858,925.2838,592.733,926.199" style="stroke: #A80036; stroke-width: 1.0;"/><text fill="#000000" font-family="sans-serif" font-size="13" lengthAdjust="spacingAndGlyphs" textLength="25" x="719" y="991.4951">data</text><text fill="#000000" font-family="sans-serif" font-size="13" lengthAdjust="spacingAndGlyphs" textLength="7" x="798.2108" y="1052.153">n</text><!--link Data Definition Framework to Data Management Layer--><path d="M748.3299,218.6626 C748.5636,218.6834 748.8018,218.7047 749.0445,218.7266 C749.5301,218.7704 750.0337,218.8163 750.5552,218.8646 C752.641,219.0576 755.0115,219.2873 757.6447,219.5578 C768.1775,220.6398 782.9122,222.3755 800.4333,225.038 C835.4757,230.3628 881.6639,239.3944 927.6737,254.3163 C1019.6935,284.16 1111,337.565 1111,432 C1111,432 1111,432 1111,903 C1111,954.7605 1074.6628,999.9008 1037.7578,1032.3986 C1019.3053,1048.6476 1000.7108,1061.7359 986.4456,1070.9109 C982.8793,1073.2046 979.5836,1075.2538 976.6283,1077.0466 C975.1507,1077.943 973.7582,1078.7753 972.4595,1079.5421 " fill="none" id="Data Definition Framework-Data Management Layer" style="stroke: #A80036; stroke-width: 1.0;"/><polygon fill="#A80036" points="972.4595,1079.5421,982.2431,1078.4108,976.765,1077,978.1758,1071.5219,972.4595,1079.5421" style="stroke: #A80036; stroke-width: 1.0;"/><!--
@startuml


package "Data Management Layer" #ffcc88 {
    
        class Data {
        }
    }

package "Data Definition Framework" #ffcc88 {
    
        class DataBluePrint {
        }
    
        class DataSource {
        }
    
        class DataAdaptor {
        }
    
        class DataAdaptorTemplate {
        }
    
        class DataFlowTemplate {
        }
    
        class DataBluePrintInstance {
        }
    
        class DataFlowInstance {
        }
    
        class DataFlow {
        }
    
        class DataProcedure {
        }
    
        class DataPipeline {
        }
    }

package "Identity Aspect" #pink {
    
        class Identity {
        }
    }


package "Data Definition Framework" #ffcc88 {

    interface "Data Definition Framework" as i {
            /edgemere/diml/ddf/data/create()
            /edgemere/diml/ddf/data/govern()
            /edgemere/diml/ddf/data/source/name()
            /edgemere/diml/ddf/datablueprint/deploy()
            /edgemere/diml/ddf/datablueprint/list()
            /edgemere/diml/ddf/datacatalog/list()
            /edgemere/diml/ddf/datadaptor/list()
            /edgemere/diml/ddf/datapipeline/list()
            /edgemere/diml/ddf/dataprocedure/list()
            /edgemere/diml/ddf/datasource/simulate()
            /edgemere/diml/ddf/metadata/list()
    
    }
}

CLI ()- - i
REST ()- - i
Web ()- - i

package "Data Definition Framework" #ffcc88 {
        class "DataAdaptor" {
                 string name
                             create()
            }
                DataAdaptor o- -> "1" DataBluePrint : blueprint
                        DataAdaptor *- -> "n" DataSource : sources
            
    
    class "DataAdaptorInstance" {
                 string attr1
                    }
                DataAdaptorInstance o- -> "1" ModelName : assoc1
            
    
    class "DataAdaptorTemplate" {
                 string name
                 json args
                    }
                DataAdaptorTemplate o- -> "1" DataAdaptor : adaptor
                        DataAdaptorTemplate o- -> "1" DataBluePrint : blueprint
            
    
    class "DataBluePrint" {
                 string name
                 string version
                             create()
                     deploy()
            }
                DataBluePrint *- -> "n" DataAdaptorTemplate : adaptors
                        DataBluePrint o- -> "1" Identity : identity
                        DataBluePrint *- -> "n" DataFlowTemplate : flows
                        DataBluePrint *- -> "n" DataBluePrintInstance : instances
            
    
    class "DataBluePrintInstance" {
                 string name
                 json parameters
                    }
                DataBluePrintInstance o- -> "n" DataSource : sources
                        DataBluePrintInstance o- -> "n" DataSource : sinks
                        DataBluePrintInstance o- -> "n" DataFlowInstance : flows
                        DataBluePrintInstance o- -> "1" Identity : identity
                        DataBluePrintInstance o- -> "1" DataBluePrint : blueprint
            
    
    class "DataFlow" {
                 string name
                 string version
                 string parameters
                             create()
            }
                DataFlow o- -> "1" DataBluePrint : blueprint
            
    
    class "DataFlowInstance" {
                 string name
                             create()
            }
                DataFlowInstance o- -> "1" DataBluePrintInstance : blueprint
                        DataFlowInstance o- -> "1" DataFlow : dataflow
                        DataFlowInstance o- -> "n" DataSource : sinks
                        DataFlowInstance o- -> "n" DataSource : sources
            
    
    class "DataFlowTemplate" {
                 string name
                             create()
            }
                DataFlowTemplate o- -> "1" DataFlow : flow
                        DataFlowTemplate o- -> "n" DataAdaptorTemplate : sources
                        DataFlowTemplate o- -> "n" DataAdaptorTemplate : sinks
            
    
    class "DataPipeline" {
                 string name
                    }
                DataPipeline *- -> "n" DataProcedure : procedures
                        DataPipeline o- -> "n" DataFlow : flows
            
    
    class "DataProcedure" {
                 string name
                    }
                DataProcedure o- -> "1" DataPipeline : pipeline
            
    
    class "DataSource" {
                 string name
                 json parameters
                             create()
            }
                DataSource o- -> "n" DataBluePrintInstance : blueprints
                        DataSource o- -> "1" DataAdaptor : adaptor
                        DataSource *- -> "n" Data : data
            
    

}


    "Data Definition Framework" - -> "Data Management Layer"


@enduml

PlantUML version 1.2019.05(Sat Apr 20 09:45:36 PDT 2019)
(GPL source distribution)
Java Runtime: OpenJDK Runtime Environment
JVM: OpenJDK 64-Bit Server VM
Java Version: 12.0.1+12
Operating System: Windows 10
OS Version: 10.0
Default Encoding: Cp1252
Language: en
Country: US
--></g></svg>