<?xml version="1.0" encoding="UTF-8" standalone="no"?><svg xmlns="http://www.w3.org/2000/svg" xmlns:xlink="http://www.w3.org/1999/xlink" contentScriptType="application/ecmascript" contentStyleType="text/css" height="1522px" preserveAspectRatio="none" style="width:539px;height:1522px;" version="1.1" viewBox="0 0 539 1522" width="539px" zoomAndPan="magnify"><defs><filter height="300%" id="fxa3rx8e4omq2" width="300%" x="-1" y="-1"><feGaussianBlur result="blurOut" stdDeviation="2.0"/><feColorMatrix in="blurOut" result="blurOut2" type="matrix" values="0 0 0 0 0 0 0 0 0 0 0 0 0 0 0 0 0 0 .4 0"/><feOffset dx="4.0" dy="4.0" in="blurOut2" result="blurOut3"/><feBlend in="SourceGraphic" in2="blurOut3" mode="normal"/></filter></defs><g><!--cluster DataEngineer--><rect fill="#FEFECE" filter="url(#fxa3rx8e4omq2)" height="357" rx="12.5" ry="12.5" style="stroke: #A80036; stroke-width: 1.5;" width="214" x="50" y="24"/><rect fill="#FFFFFF" height="323.3906" rx="12.5" ry="12.5" style="stroke: #FFFFFF; stroke-width: 1.0;" width="208" x="53" y="54.6094"/><line style="stroke: #A80036; stroke-width: 1.5;" x1="50" x2="264" y1="51.6094" y2="51.6094"/><text fill="#000000" font-family="sans-serif" font-size="14" lengthAdjust="spacingAndGlyphs" textLength="91" x="111.5" y="42.5332">Data Engineer</text><!--cluster diml--><rect fill="#FFCC88" filter="url(#fxa3rx8e4omq2)" height="1123" rx="12.5" ry="12.5" style="stroke: #A80036; stroke-width: 1.5;" width="205" x="322.5" y="60"/><rect fill="#FFFFFF" height="1089.3906" rx="12.5" ry="12.5" style="stroke: #FFFFFF; stroke-width: 1.0;" width="199" x="325.5" y="90.6094"/><line style="stroke: #A80036; stroke-width: 1.5;" x1="322.5" x2="527.5" y1="87.6094" y2="87.6094"/><text fill="#000000" font-family="sans-serif" font-size="14" lengthAdjust="spacingAndGlyphs" textLength="25" x="412.5" y="78.5332">diml</text><!--cluster dimlddf--><rect fill="#FFCC88" filter="url(#fxa3rx8e4omq2)" height="674" rx="12.5" ry="12.5" style="stroke: #A80036; stroke-width: 1.5;" width="157" x="346.5" y="104"/><rect fill="#FFFFFF" height="640.3906" rx="12.5" ry="12.5" style="stroke: #FFFFFF; stroke-width: 1.0;" width="151" x="349.5" y="134.6094"/><line style="stroke: #A80036; stroke-width: 1.5;" x1="346.5" x2="503.5" y1="131.6094" y2="131.6094"/><text fill="#000000" font-family="sans-serif" font-size="14" lengthAdjust="spacingAndGlyphs" textLength="20" x="415" y="122.5332">ddf</text><!--cluster dimlddfdatadaptor--><rect fill="#FFCC88" filter="url(#fxa3rx8e4omq2)" height="102" rx="12.5" ry="12.5" style="stroke: #A80036; stroke-width: 1.5;" width="85" x="382.5" y="148"/><rect fill="#FFFFFF" height="68.3906" rx="12.5" ry="12.5" style="stroke: #FFFFFF; stroke-width: 1.0;" width="79" x="385.5" y="178.6094"/><line style="stroke: #A80036; stroke-width: 1.5;" x1="382.5" x2="467.5" y1="175.6094" y2="175.6094"/><text fill="#000000" font-family="sans-serif" font-size="14" lengthAdjust="spacingAndGlyphs" textLength="69" x="390.5" y="166.5332">datadaptor</text><!--cluster dimlddfdatablueprint--><rect fill="#FFCC88" filter="url(#fxa3rx8e4omq2)" height="102" rx="12.5" ry="12.5" style="stroke: #A80036; stroke-width: 1.5;" width="99" x="375.5" y="274"/><rect fill="#FFFFFF" height="68.3906" rx="12.5" ry="12.5" style="stroke: #FFFFFF; stroke-width: 1.0;" width="93" x="378.5" y="304.6094"/><line style="stroke: #A80036; stroke-width: 1.5;" x1="375.5" x2="474.5" y1="301.6094" y2="301.6094"/><text fill="#000000" font-family="sans-serif" font-size="14" lengthAdjust="spacingAndGlyphs" textLength="83" x="383.5" y="292.5332">datablueprint</text><!--cluster dimlddfdatapipeline--><rect fill="#FFCC88" filter="url(#fxa3rx8e4omq2)" height="102" rx="12.5" ry="12.5" style="stroke: #A80036; stroke-width: 1.5;" width="93" x="378.5" y="400"/><rect fill="#FFFFFF" height="68.3906" rx="12.5" ry="12.5" style="stroke: #FFFFFF; stroke-width: 1.0;" width="87" x="381.5" y="430.6094"/><line style="stroke: #A80036; stroke-width: 1.5;" x1="378.5" x2="471.5" y1="427.6094" y2="427.6094"/><text fill="#000000" font-family="sans-serif" font-size="14" lengthAdjust="spacingAndGlyphs" textLength="77" x="386.5" y="418.5332">datapipeline</text><!--cluster dimlddfdataprocedure--><rect fill="#FFCC88" filter="url(#fxa3rx8e4omq2)" height="102" rx="12.5" ry="12.5" style="stroke: #A80036; stroke-width: 1.5;" width="109" x="370.5" y="652"/><rect fill="#FFFFFF" height="68.3906" rx="12.5" ry="12.5" style="stroke: #FFFFFF; stroke-width: 1.0;" width="103" x="373.5" y="682.6094"/><line style="stroke: #A80036; stroke-width: 1.5;" x1="370.5" x2="479.5" y1="679.6094" y2="679.6094"/><text fill="#000000" font-family="sans-serif" font-size="14" lengthAdjust="spacingAndGlyphs" textLength="93" x="378.5" y="670.5332">dataprocedure</text><!--cluster dimlddfmetadata--><rect fill="#FFCC88" filter="url(#fxa3rx8e4omq2)" height="102" rx="12.5" ry="12.5" style="stroke: #A80036; stroke-width: 1.5;" width="82" x="383.5" y="526"/><rect fill="#FFFFFF" height="68.3906" rx="12.5" ry="12.5" style="stroke: #FFFFFF; stroke-width: 1.0;" width="76" x="386.5" y="556.6094"/><line style="stroke: #A80036; stroke-width: 1.5;" x1="383.5" x2="465.5" y1="553.6094" y2="553.6094"/><text fill="#000000" font-family="sans-serif" font-size="14" lengthAdjust="spacingAndGlyphs" textLength="59" x="395" y="544.5332">metadata</text><!--cluster dimlddfdata--><rect fill="#FFCC88" filter="url(#fxa3rx8e4omq2)" height="231" rx="12.5" ry="12.5" style="stroke: #A80036; stroke-width: 1.5;" width="135" x="357" y="928"/><rect fill="#FFFFFF" height="197.3906" rx="12.5" ry="12.5" style="stroke: #FFFFFF; stroke-width: 1.0;" width="129" x="360" y="958.6094"/><line style="stroke: #A80036; stroke-width: 1.5;" x1="357" x2="492" y1="955.6094" y2="955.6094"/><text fill="#000000" font-family="sans-serif" font-size="14" lengthAdjust="spacingAndGlyphs" textLength="48" x="400.5" y="946.5332">ddfdata</text><!--cluster dimlddfdatasource--><rect fill="#FFCC88" filter="url(#fxa3rx8e4omq2)" height="102" rx="12.5" ry="12.5" style="stroke: #A80036; stroke-width: 1.5;" width="87" x="381" y="972"/><rect fill="#FFFFFF" height="68.3906" rx="12.5" ry="12.5" style="stroke: #FFFFFF; stroke-width: 1.0;" width="81" x="384" y="1002.6094"/><line style="stroke: #A80036; stroke-width: 1.5;" x1="381" x2="468" y1="999.6094" y2="999.6094"/><text fill="#000000" font-family="sans-serif" font-size="14" lengthAdjust="spacingAndGlyphs" textLength="43" x="403" y="990.5332">source</text><!--cluster dimlddfdatacatalog--><rect fill="#FFCC88" filter="url(#fxa3rx8e4omq2)" height="102" rx="12.5" ry="12.5" style="stroke: #A80036; stroke-width: 1.5;" width="110" x="369.5" y="802"/><rect fill="#FFFFFF" height="68.3906" rx="12.5" ry="12.5" style="stroke: #FFFFFF; stroke-width: 1.0;" width="104" x="372.5" y="832.6094"/><line style="stroke: #A80036; stroke-width: 1.5;" x1="369.5" x2="479.5" y1="829.6094" y2="829.6094"/><text fill="#000000" font-family="sans-serif" font-size="14" lengthAdjust="spacingAndGlyphs" textLength="94" x="377.5" y="820.5332">ddfdatacatalog</text><!--cluster DataScientist--><rect fill="#FEFECE" filter="url(#fxa3rx8e4omq2)" height="364" rx="12.5" ry="12.5" style="stroke: #A80036; stroke-width: 1.5;" width="270" x="22" y="405"/><rect fill="#FFFFFF" height="330.3906" rx="12.5" ry="12.5" style="stroke: #FFFFFF; stroke-width: 1.0;" width="264" x="25" y="435.6094"/><line style="stroke: #A80036; stroke-width: 1.5;" x1="22" x2="292" y1="432.6094" y2="432.6094"/><text fill="#000000" font-family="sans-serif" font-size="14" lengthAdjust="spacingAndGlyphs" textLength="87" x="113.5" y="423.5332">Data Scientist</text><!--cluster DataScientistManageMetaData--><rect fill="#FEFECE" filter="url(#fxa3rx8e4omq2)" height="137" rx="12.5" ry="12.5" style="stroke: #A80036; stroke-width: 1.5;" width="206" x="54" y="600"/><rect fill="#FFFFFF" height="103.3906" rx="12.5" ry="12.5" style="stroke: #FFFFFF; stroke-width: 1.0;" width="200" x="57" y="630.6094"/><line style="stroke: #A80036; stroke-width: 1.5;" x1="54" x2="260" y1="627.6094" y2="627.6094"/><text fill="#000000" font-family="sans-serif" font-size="14" lengthAdjust="spacingAndGlyphs" textLength="120" x="97" y="618.5332">Manage Meta Data</text><!--cluster Actor--><rect fill="#FEFECE" filter="url(#fxa3rx8e4omq2)" height="592" rx="12.5" ry="12.5" style="stroke: #A80036; stroke-width: 1.5;" width="239" x="37.5" y="793"/><rect fill="#FFFFFF" height="558.3906" rx="12.5" ry="12.5" style="stroke: #FFFFFF; stroke-width: 1.0;" width="233" x="40.5" y="823.6094"/><line style="stroke: #A80036; stroke-width: 1.5;" x1="37.5" x2="276.5" y1="820.6094" y2="820.6094"/><text fill="#000000" font-family="sans-serif" font-size="14" lengthAdjust="spacingAndGlyphs" textLength="33" x="140.5" y="811.5332">Actor</text><!--cluster ActorManageDataAdaptors--><rect fill="#FEFECE" filter="url(#fxa3rx8e4omq2)" height="272" rx="12.5" ry="12.5" style="stroke: #A80036; stroke-width: 1.5;" width="191" x="61.5" y="837"/><rect fill="#FFFFFF" height="238.3906" rx="12.5" ry="12.5" style="stroke: #FFFFFF; stroke-width: 1.0;" width="185" x="64.5" y="867.6094"/><line style="stroke: #A80036; stroke-width: 1.5;" x1="61.5" x2="252.5" y1="864.6094" y2="864.6094"/><text fill="#000000" font-family="sans-serif" font-size="14" lengthAdjust="spacingAndGlyphs" textLength="146" x="84" y="855.5332">Manage Data Adaptors</text><!--cluster ActorManageDataBluePrints--><rect fill="#FEFECE" filter="url(#fxa3rx8e4omq2)" height="102" rx="12.5" ry="12.5" style="stroke: #A80036; stroke-width: 1.5;" width="173" x="71" y="1133"/><rect fill="#FFFFFF" height="68.3906" rx="12.5" ry="12.5" style="stroke: #FFFFFF; stroke-width: 1.0;" width="167" x="74" y="1163.6094"/><line style="stroke: #A80036; stroke-width: 1.5;" x1="71" x2="244" y1="1160.6094" y2="1160.6094"/><text fill="#000000" font-family="sans-serif" font-size="14" lengthAdjust="spacingAndGlyphs" textLength="157" x="79" y="1151.5332">Manage Data Blue Prints</text><!--cluster ActorManageMetaData--><rect fill="#FEFECE" filter="url(#fxa3rx8e4omq2)" height="102" rx="12.5" ry="12.5" style="stroke: #A80036; stroke-width: 1.5;" width="172" x="71" y="1259"/><rect fill="#FFFFFF" height="68.3906" rx="12.5" ry="12.5" style="stroke: #FFFFFF; stroke-width: 1.0;" width="166" x="74" y="1289.6094"/><line style="stroke: #A80036; stroke-width: 1.5;" x1="71" x2="243" y1="1286.6094" y2="1286.6094"/><text fill="#000000" font-family="sans-serif" font-size="14" lengthAdjust="spacingAndGlyphs" textLength="120" x="97" y="1277.5332">Manage Meta Data</text><!--cluster ChiefDataOfficer--><rect fill="#FEFECE" filter="url(#fxa3rx8e4omq2)" height="102" rx="12.5" ry="12.5" style="stroke: #A80036; stroke-width: 1.5;" width="214" x="50" y="1409"/><rect fill="#FFFFFF" height="68.3906" rx="12.5" ry="12.5" style="stroke: #FFFFFF; stroke-width: 1.0;" width="208" x="53" y="1439.6094"/><line style="stroke: #A80036; stroke-width: 1.5;" x1="50" x2="264" y1="1436.6094" y2="1436.6094"/><text fill="#000000" font-family="sans-serif" font-size="14" lengthAdjust="spacingAndGlyphs" textLength="113" x="100.5" y="1427.5332">Chief Data Officer</text><rect fill="#FEFECE" filter="url(#fxa3rx8e4omq2)" height="50" rx="12.5" ry="12.5" style="stroke: #A80036; stroke-width: 1.5;" width="166" x="74" y="60"/><line style="stroke: #A80036; stroke-width: 1.5;" x1="74" x2="240" y1="87.6094" y2="87.6094"/><text fill="#000000" font-family="sans-serif" font-size="14" lengthAdjust="spacingAndGlyphs" textLength="146" x="84" y="79.5332">Manage Data Adaptors</text><rect fill="#FEFECE" filter="url(#fxa3rx8e4omq2)" height="50" rx="12.5" ry="12.5" style="stroke: #A80036; stroke-width: 1.5;" width="177" x="68.5" y="145"/><line style="stroke: #A80036; stroke-width: 1.5;" x1="68.5" x2="245.5" y1="172.6094" y2="172.6094"/><text fill="#000000" font-family="sans-serif" font-size="14" lengthAdjust="spacingAndGlyphs" textLength="157" x="78.5" y="164.5332">Manage Data Blue Prints</text><rect fill="#FEFECE" filter="url(#fxa3rx8e4omq2)" height="50" rx="12.5" ry="12.5" style="stroke: #A80036; stroke-width: 1.5;" width="159" x="77.5" y="230"/><line style="stroke: #A80036; stroke-width: 1.5;" x1="77.5" x2="236.5" y1="257.6094" y2="257.6094"/><text fill="#000000" font-family="sans-serif" font-size="14" lengthAdjust="spacingAndGlyphs" textLength="139" x="87.5" y="249.5332">Manage Data Pipeline</text><rect fill="#FEFECE" filter="url(#fxa3rx8e4omq2)" height="50" rx="12.5" ry="12.5" style="stroke: #A80036; stroke-width: 1.5;" width="182" x="66" y="315"/><line style="stroke: #A80036; stroke-width: 1.5;" x1="66" x2="248" y1="342.6094" y2="342.6094"/><text fill="#000000" font-family="sans-serif" font-size="14" lengthAdjust="spacingAndGlyphs" textLength="162" x="76" y="334.5332">Manage Data Procedures</text><rect fill="#FFCC88" filter="url(#fxa3rx8e4omq2)" height="50" rx="12.5" ry="12.5" style="stroke: #A80036; stroke-width: 1.5;" width="50" x="399.5" y="184"/><line style="stroke: #A80036; stroke-width: 1.5;" x1="399.5" x2="449.5" y1="211.6094" y2="211.6094"/><text fill="#000000" font-family="sans-serif" font-size="14" lengthAdjust="spacingAndGlyphs" textLength="17" x="416" y="203.5332">list</text><rect fill="#FFCC88" filter="url(#fxa3rx8e4omq2)" height="50" rx="12.5" ry="12.5" style="stroke: #A80036; stroke-width: 1.5;" width="50" x="399.5" y="310"/><line style="stroke: #A80036; stroke-width: 1.5;" x1="399.5" x2="449.5" y1="337.6094" y2="337.6094"/><text fill="#000000" font-family="sans-serif" font-size="14" lengthAdjust="spacingAndGlyphs" textLength="17" x="416" y="329.5332">list</text><rect fill="#FFCC88" filter="url(#fxa3rx8e4omq2)" height="50" rx="12.5" ry="12.5" style="stroke: #A80036; stroke-width: 1.5;" width="50" x="399.5" y="436"/><line style="stroke: #A80036; stroke-width: 1.5;" x1="399.5" x2="449.5" y1="463.6094" y2="463.6094"/><text fill="#000000" font-family="sans-serif" font-size="14" lengthAdjust="spacingAndGlyphs" textLength="17" x="416" y="455.5332">list</text><rect fill="#FFCC88" filter="url(#fxa3rx8e4omq2)" height="50" rx="12.5" ry="12.5" style="stroke: #A80036; stroke-width: 1.5;" width="50" x="399.5" y="688"/><line style="stroke: #A80036; stroke-width: 1.5;" x1="399.5" x2="449.5" y1="715.6094" y2="715.6094"/><text fill="#000000" font-family="sans-serif" font-size="14" lengthAdjust="spacingAndGlyphs" textLength="17" x="416" y="707.5332">list</text><rect fill="#FFCC88" filter="url(#fxa3rx8e4omq2)" height="50" rx="12.5" ry="12.5" style="stroke: #A80036; stroke-width: 1.5;" width="50" x="399.5" y="562"/><line style="stroke: #A80036; stroke-width: 1.5;" x1="399.5" x2="449.5" y1="589.6094" y2="589.6094"/><text fill="#000000" font-family="sans-serif" font-size="14" lengthAdjust="spacingAndGlyphs" textLength="17" x="416" y="581.5332">list</text><rect fill="#FFCC88" filter="url(#fxa3rx8e4omq2)" height="50" rx="12.5" ry="12.5" style="stroke: #A80036; stroke-width: 1.5;" width="60" x="394.5" y="1093"/><line style="stroke: #A80036; stroke-width: 1.5;" x1="394.5" x2="454.5" y1="1120.6094" y2="1120.6094"/><text fill="#000000" font-family="sans-serif" font-size="14" lengthAdjust="spacingAndGlyphs" textLength="40" x="404.5" y="1112.5332">create</text><rect fill="#FFCC88" filter="url(#fxa3rx8e4omq2)" height="50" rx="12.5" ry="12.5" style="stroke: #A80036; stroke-width: 1.5;" width="55" x="397" y="1008"/><line style="stroke: #A80036; stroke-width: 1.5;" x1="397" x2="452" y1="1035.6094" y2="1035.6094"/><text fill="#000000" font-family="sans-serif" font-size="14" lengthAdjust="spacingAndGlyphs" textLength="35" x="407" y="1027.5332">name</text><rect fill="#FFCC88" filter="url(#fxa3rx8e4omq2)" height="50" rx="12.5" ry="12.5" style="stroke: #A80036; stroke-width: 1.5;" width="50" x="399.5" y="838"/><line style="stroke: #A80036; stroke-width: 1.5;" x1="399.5" x2="449.5" y1="865.6094" y2="865.6094"/><text fill="#000000" font-family="sans-serif" font-size="14" lengthAdjust="spacingAndGlyphs" textLength="17" x="416" y="857.5332">list</text><rect fill="#FEFECE" filter="url(#fxa3rx8e4omq2)" height="50" rx="12.5" ry="12.5" style="stroke: #A80036; stroke-width: 1.5;" width="166" x="74" y="441"/><line style="stroke: #A80036; stroke-width: 1.5;" x1="74" x2="240" y1="468.6094" y2="468.6094"/><text fill="#000000" font-family="sans-serif" font-size="14" lengthAdjust="spacingAndGlyphs" textLength="146" x="84" y="460.5332">Manage Data Adaptors</text><rect fill="#FEFECE" filter="url(#fxa3rx8e4omq2)" height="50" rx="12.5" ry="12.5" style="stroke: #A80036; stroke-width: 1.5;" width="177" x="68.5" y="526"/><line style="stroke: #A80036; stroke-width: 1.5;" x1="68.5" x2="245.5" y1="553.6094" y2="553.6094"/><text fill="#000000" font-family="sans-serif" font-size="14" lengthAdjust="spacingAndGlyphs" textLength="157" x="78.5" y="545.5332">Manage Data Blue Prints</text><rect fill="#FEFECE" filter="url(#fxa3rx8e4omq2)" height="50" rx="12.5" ry="12.5" style="stroke: #A80036; stroke-width: 1.5;" width="158" x="78" y="663"/><line style="stroke: #A80036; stroke-width: 1.5;" x1="78" x2="236" y1="690.6094" y2="690.6094"/><text fill="#000000" font-family="sans-serif" font-size="14" lengthAdjust="spacingAndGlyphs" textLength="138" x="88" y="682.5332">Manage Data Catalog</text><rect fill="#FEFECE" filter="url(#fxa3rx8e4omq2)" height="50" rx="12.5" ry="12.5" style="stroke: #A80036; stroke-width: 1.5;" width="159" x="77.5" y="958"/><line style="stroke: #A80036; stroke-width: 1.5;" x1="77.5" x2="236.5" y1="985.6094" y2="985.6094"/><text fill="#000000" font-family="sans-serif" font-size="14" lengthAdjust="spacingAndGlyphs" textLength="139" x="87.5" y="977.5332">Attach Data Blue Print</text><rect fill="#FEFECE" filter="url(#fxa3rx8e4omq2)" height="50" rx="12.5" ry="12.5" style="stroke: #A80036; stroke-width: 1.5;" width="151" x="81.5" y="1043"/><line style="stroke: #A80036; stroke-width: 1.5;" x1="81.5" x2="232.5" y1="1070.6094" y2="1070.6094"/><text fill="#000000" font-family="sans-serif" font-size="14" lengthAdjust="spacingAndGlyphs" textLength="131" x="91.5" y="1062.5332">Create Data Adaptor</text><rect fill="#FEFECE" filter="url(#fxa3rx8e4omq2)" height="50" rx="12.5" ry="12.5" style="stroke: #A80036; stroke-width: 1.5;" width="153" x="80.5" y="873"/><line style="stroke: #A80036; stroke-width: 1.5;" x1="80.5" x2="233.5" y1="900.6094" y2="900.6094"/><text fill="#000000" font-family="sans-serif" font-size="14" lengthAdjust="spacingAndGlyphs" textLength="133" x="90.5" y="892.5332">Update Data Adaptor</text><rect fill="#FEFECE" filter="url(#fxa3rx8e4omq2)" height="50" rx="12.5" ry="12.5" style="stroke: #A80036; stroke-width: 1.5;" width="128" x="93" y="1169"/><line style="stroke: #A80036; stroke-width: 1.5;" x1="93" x2="221" y1="1196.6094" y2="1196.6094"/><text fill="#000000" font-family="sans-serif" font-size="14" lengthAdjust="spacingAndGlyphs" textLength="108" x="103" y="1188.5332">Create Blue Print</text><rect fill="#FEFECE" filter="url(#fxa3rx8e4omq2)" height="50" rx="12.5" ry="12.5" style="stroke: #A80036; stroke-width: 1.5;" width="140" x="87" y="1295"/><line style="stroke: #A80036; stroke-width: 1.5;" x1="87" x2="227" y1="1322.6094" y2="1322.6094"/><text fill="#000000" font-family="sans-serif" font-size="14" lengthAdjust="spacingAndGlyphs" textLength="120" x="97" y="1314.5332">Capture Meta Data</text><rect fill="#FEFECE" filter="url(#fxa3rx8e4omq2)" height="50" rx="12.5" ry="12.5" style="stroke: #A80036; stroke-width: 1.5;" width="182" x="66" y="1445"/><line style="stroke: #A80036; stroke-width: 1.5;" x1="66" x2="248" y1="1472.6094" y2="1472.6094"/><text fill="#000000" font-family="sans-serif" font-size="14" lengthAdjust="spacingAndGlyphs" textLength="162" x="76" y="1464.5332">Manage Data Procedures</text><!--link DataEngineerManageDataAdaptors to dimlddfdatadaptorlist--><path d="M240.269,104.81 C260.248,110.84 281.248,118.24 300,127 C334.83,143.26 371.057,168.46 395.195,186.63 " fill="none" id="DataEngineerManageDataAdaptors-dimlddfdatadaptorlist" style="stroke: #A80036; stroke-width: 1.0;"/><polygon fill="#A80036" points="399.26,189.71,394.5023,181.0865,395.2748,186.6904,389.6709,187.4629,399.26,189.71" style="stroke: #A80036; stroke-width: 1.0;"/><!--link DataScientistManageDataAdaptors to dimlddfdatadaptorlist--><path d="M224.672,440.99 C252.167,427.36 281.795,407.71 300,381 C322.078,348.61 294.453,327.69 314.5,294 C333.447,262.16 369.186,237.81 394.571,223.5 " fill="none" id="DataScientistManageDataAdaptors-dimlddfdatadaptorlist" style="stroke: #A80036; stroke-width: 1.0;"/><polygon fill="#A80036" points="399.184,220.94,389.3731,221.8044,394.8108,223.3638,393.2513,228.8015,399.184,220.94" style="stroke: #A80036; stroke-width: 1.0;"/><!--link ActorManageDataAdaptorsAttachDataBluePrint to dimlddfdatasourcename--><path d="M236.581,997.799 C288.531,1007.582 353.841,1019.882 391.906,1027.05 " fill="none" id="ActorManageDataAdaptorsAttachDataBluePrint-dimlddfdatasourcename" style="stroke: #A80036; stroke-width: 1.0;"/><polygon fill="#A80036" points="396.864,1027.984,388.7587,1022.3889,391.9502,1027.0595,387.2796,1030.251,396.864,1027.984" style="stroke: #A80036; stroke-width: 1.0;"/><!--link ActorManageDataAdaptorsCreateDataAdaptor to dimlddfdatasourcename--><path d="M232.663,1058.157 C285.212,1051.23 352.888,1042.309 391.914,1037.164 " fill="none" id="ActorManageDataAdaptorsCreateDataAdaptor-dimlddfdatasourcename" style="stroke: #A80036; stroke-width: 1.0;"/><polygon fill="#A80036" points="396.994,1036.494,387.5488,1033.7034,392.0368,1037.1469,388.5933,1041.6349,396.994,1036.494" style="stroke: #A80036; stroke-width: 1.0;"/><!--link ActorManageDataAdaptorsUpdateDataAdaptor to dimlddfdatasourcename--><path d="M233.579,915.624 C255.606,922.146 279.301,930.56 300,941 C334.301,958.301 369.003,985.163 392.851,1005.404 " fill="none" id="ActorManageDataAdaptorsUpdateDataAdaptor-dimlddfdatasourcename" style="stroke: #A80036; stroke-width: 1.0;"/><polygon fill="#A80036" points="396.879,1008.847,392.6392,999.9574,393.0792,1005.5972,387.4395,1006.0371,396.879,1008.847" style="stroke: #A80036; stroke-width: 1.0;"/><!--link DataEngineerManageDataBluePrints to dimlddfdatablueprintlist--><path d="M245.666,182.45 C265.382,188.69 284.908,198.03 300,212 C313.264,224.28 303.755,235.46 314.5,250 C336.119,279.25 370.347,303.66 394.675,318.71 " fill="none" id="DataEngineerManageDataBluePrints-dimlddfdatablueprintlist" style="stroke: #A80036; stroke-width: 1.0;"/><polygon fill="#A80036" points="399.097,321.41,393.4969,313.3082,394.8285,318.8061,389.3307,320.1377,399.097,321.41" style="stroke: #A80036; stroke-width: 1.0;"/><!--link DataScientistManageDataBluePrints to dimlddfdatablueprintlist--><path d="M245.584,540.649 C266.019,534.243 285.902,524.07 300,508 C326.138,478.2 294.26,454.08 314.5,420 C333.418,388.14 369.162,363.8 394.557,349.49 " fill="none" id="DataScientistManageDataBluePrints-dimlddfdatablueprintlist" style="stroke: #A80036; stroke-width: 1.0;"/><polygon fill="#A80036" points="399.172,346.93,389.3597,347.7783,394.7948,349.3467,393.2265,354.7818,399.172,346.93" style="stroke: #A80036; stroke-width: 1.0;"/><!--link ActorManageDataBluePrintsCreateBluePrint to dimlddfdatacreate--><path d="M221.257,1175.893 C273.874,1160.831 346.776,1139.963 389.158,1127.831 " fill="none" id="ActorManageDataBluePrintsCreateBluePrint-dimlddfdatacreate" style="stroke: #A80036; stroke-width: 1.0;"/><polygon fill="#A80036" points="394.172,1126.395,384.4188,1125.0256,389.365,1127.7707,386.6199,1132.7168,394.172,1126.395" style="stroke: #A80036; stroke-width: 1.0;"/><!--link DataEngineerManageDataPipeline to dimlddfdatapipelinelist--><path d="M236.842,262.49 C260.155,268.48 283.756,278.93 300,297 C323.869,323.54 295.994,345.47 314.5,376 C333.707,407.68 369.392,432.07 394.694,446.43 " fill="none" id="DataEngineerManageDataPipeline-dimlddfdatapipelinelist" style="stroke: #A80036; stroke-width: 1.0;"/><polygon fill="#A80036" points="399.291,449,393.376,441.1252,394.9232,446.5663,389.4821,448.1136,399.291,449" style="stroke: #A80036; stroke-width: 1.0;"/><!--link DataEngineerManageDataProcedures to dimlddfdataprocedurelist--><path d="M227.723,365.14 C254.898,378.6 283.444,398.08 300,425 C323.692,463.52 293.22,588.093 314.5,628 C332.039,660.891 368.424,685.162 394.327,699.164 " fill="none" id="DataEngineerManageDataProcedures-dimlddfdataprocedurelist" style="stroke: #A80036; stroke-width: 1.0;"/><polygon fill="#A80036" points="399.035,701.659,392.9555,693.9105,394.617,699.3179,389.2096,700.9794,399.035,701.659" style="stroke: #A80036; stroke-width: 1.0;"/><!--link ChiefDataOfficerManageDataProcedures to dimlddfdataprocedurelist--><path d="M210.766,1444.8127 C242.78,1426.436 281.013,1398.239 300,1361 C327.213,1307.627 290.831,877.037 314.5,822 C331.16,783.261 368.606,750.916 394.938,731.77 " fill="none" id="ChiefDataOfficerManageDataProcedures-dimlddfdataprocedurelist" style="stroke: #A80036; stroke-width: 1.0;"/><polygon fill="#A80036" points="399.064,728.811,389.4194,730.8064,395.0011,731.7253,394.0823,737.307,399.064,728.811" style="stroke: #A80036; stroke-width: 1.0;"/><!--link DataScientistManageMetaData to dimlddfmetadatalist--><path d="M260.5511,628.32 C260.8025,628.3031 261.0539,628.286 261.3053,628.2687 C262.311,628.1996 263.3172,628.1278 264.3235,628.0531 C268.3489,627.7543 272.3764,627.4102 276.3834,627.0155 C284.3976,626.2262 292.33,625.2348 300,624 C333.147,618.664 369.85,606.878 394.562,598.033 " fill="none" id="DataScientistManageMetaData-dimlddfmetadatalist" style="stroke: #A80036; stroke-width: 1.0;"/><polygon fill="#A80036" points="399.34,596.306,389.5161,595.6048,394.638,598.0062,392.2365,603.128,399.34,596.306" style="stroke: #A80036; stroke-width: 1.0;"/><!--link ActorManageMetaDataCaptureMetaData to dimlddfdatacreate--><path d="M205.708,1294.9 C234.087,1279.138 270.24,1257.571 300,1235 C335.516,1208.063 372.08,1172.222 396.112,1147.337 " fill="none" id="ActorManageMetaDataCaptureMetaData-dimlddfdatacreate" style="stroke: #A80036; stroke-width: 1.0;"/><polygon fill="#A80036" points="399.86,1143.441,390.7387,1147.156,396.3944,1147.0451,396.5053,1152.7009,399.86,1143.441" style="stroke: #A80036; stroke-width: 1.0;"/><!--link DataScientistManageMetaDataManageDataCatalog to dimlddfdatacataloglist--><path d="M196.04,713.073 C249.904,748.577 347.177,812.693 395.162,844.321 " fill="none" id="DataScientistManageMetaDataManageDataCatalog-dimlddfdatacataloglist" style="stroke: #A80036; stroke-width: 1.0;"/><polygon fill="#A80036" points="399.369,847.095,394.0579,838.8009,395.195,844.3423,389.6536,845.4794,399.369,847.095" style="stroke: #A80036; stroke-width: 1.0;"/><!--
@startuml
left to right direction



state "Data Engineer" as DataEngineer {
    state "Manage Data Adaptors" as DataEngineerManageDataAdaptors {
    }
}
state "diml" as diml #ffcc88 {
state "ddf" as dimlddf #ffcc88 {
state "datadaptor" as dimlddfdatadaptor #ffcc88 {
state "list" as dimlddfdatadaptorlist #ffcc88 {
}
}
}
}

DataEngineerManageDataAdaptors - -> dimlddfdatadaptorlist

state "Data Scientist" as DataScientist {
    state "Manage Data Adaptors" as DataScientistManageDataAdaptors {
    }
}
state "diml" as diml #ffcc88 {
state "ddf" as dimlddf #ffcc88 {
state "datadaptor" as dimlddfdatadaptor #ffcc88 {
state "list" as dimlddfdatadaptorlist #ffcc88 {
}
}
}
}

DataScientistManageDataAdaptors - -> dimlddfdatadaptorlist


    state "Actor" as Actor {
        state "Manage Data Adaptors" as ActorManageDataAdaptors {
            state "Attach Data Blue Print" as ActorManageDataAdaptorsAttachDataBluePrint {
            }
        }
    }
    state "diml" as diml #ffcc88 {
state "ddfdata" as dimlddfdata #ffcc88 {
state "source" as dimlddfdatasource #ffcc88 {
state "name" as dimlddfdatasourcename #ffcc88 {
}
}
}
}

    ActorManageDataAdaptorsAttachDataBluePrint - -> dimlddfdatasourcename
    
 
    state "Actor" as Actor {
        state "Manage Data Adaptors" as ActorManageDataAdaptors {
            state "Create Data Adaptor" as ActorManageDataAdaptorsCreateDataAdaptor {
            }
        }
    }
    state "diml" as diml #ffcc88 {
state "ddfdata" as dimlddfdata #ffcc88 {
state "source" as dimlddfdatasource #ffcc88 {
state "name" as dimlddfdatasourcename #ffcc88 {
}
}
}
}

    ActorManageDataAdaptorsCreateDataAdaptor - -> dimlddfdatasourcename
    
 
    state "Actor" as Actor {
        state "Manage Data Adaptors" as ActorManageDataAdaptors {
            state "Update Data Adaptor" as ActorManageDataAdaptorsUpdateDataAdaptor {
            }
        }
    }
    state "diml" as diml #ffcc88 {
state "ddfdata" as dimlddfdata #ffcc88 {
state "source" as dimlddfdatasource #ffcc88 {
state "name" as dimlddfdatasourcename #ffcc88 {
}
}
}
}

    ActorManageDataAdaptorsUpdateDataAdaptor - -> dimlddfdatasourcename
    
 
 
state "Data Engineer" as DataEngineer {
    state "Manage Data Blue Prints" as DataEngineerManageDataBluePrints {
    }
}
state "diml" as diml #ffcc88 {
state "ddf" as dimlddf #ffcc88 {
state "datablueprint" as dimlddfdatablueprint #ffcc88 {
state "list" as dimlddfdatablueprintlist #ffcc88 {
}
}
}
}

DataEngineerManageDataBluePrints - -> dimlddfdatablueprintlist

state "Data Scientist" as DataScientist {
    state "Manage Data Blue Prints" as DataScientistManageDataBluePrints {
    }
}
state "diml" as diml #ffcc88 {
state "ddf" as dimlddf #ffcc88 {
state "datablueprint" as dimlddfdatablueprint #ffcc88 {
state "list" as dimlddfdatablueprintlist #ffcc88 {
}
}
}
}

DataScientistManageDataBluePrints - -> dimlddfdatablueprintlist


    state "Actor" as Actor {
        state "Manage Data Blue Prints" as ActorManageDataBluePrints {
            state "Create Blue Print" as ActorManageDataBluePrintsCreateBluePrint {
            }
        }
    }
    state "diml" as diml #ffcc88 {
state "ddfdata" as dimlddfdata #ffcc88 {
state "create" as dimlddfdatacreate #ffcc88 {
}
}
}

    ActorManageDataBluePrintsCreateBluePrint - -> dimlddfdatacreate
    
 
 
state "Data Engineer" as DataEngineer {
    state "Manage Data Pipeline" as DataEngineerManageDataPipeline {
    }
}
state "diml" as diml #ffcc88 {
state "ddf" as dimlddf #ffcc88 {
state "datapipeline" as dimlddfdatapipeline #ffcc88 {
state "list" as dimlddfdatapipelinelist #ffcc88 {
}
}
}
}

DataEngineerManageDataPipeline - -> dimlddfdatapipelinelist


 
state "Data Engineer" as DataEngineer {
    state "Manage Data Procedures" as DataEngineerManageDataProcedures {
    }
}
state "diml" as diml #ffcc88 {
state "ddf" as dimlddf #ffcc88 {
state "dataprocedure" as dimlddfdataprocedure #ffcc88 {
state "list" as dimlddfdataprocedurelist #ffcc88 {
}
}
}
}

DataEngineerManageDataProcedures - -> dimlddfdataprocedurelist

state "Chief Data Officer" as ChiefDataOfficer {
    state "Manage Data Procedures" as ChiefDataOfficerManageDataProcedures {
    }
}
state "diml" as diml #ffcc88 {
state "ddf" as dimlddf #ffcc88 {
state "dataprocedure" as dimlddfdataprocedure #ffcc88 {
state "list" as dimlddfdataprocedurelist #ffcc88 {
}
}
}
}

ChiefDataOfficerManageDataProcedures - -> dimlddfdataprocedurelist


 
state "Data Scientist" as DataScientist {
    state "Manage Meta Data" as DataScientistManageMetaData {
    }
}
state "diml" as diml #ffcc88 {
state "ddf" as dimlddf #ffcc88 {
state "metadata" as dimlddfmetadata #ffcc88 {
state "list" as dimlddfmetadatalist #ffcc88 {
}
}
}
}

DataScientistManageMetaData - -> dimlddfmetadatalist


    state "Actor" as Actor {
        state "Manage Meta Data" as ActorManageMetaData {
            state "Capture Meta Data" as ActorManageMetaDataCaptureMetaData {
            }
        }
    }
    state "diml" as diml #ffcc88 {
state "ddfdata" as dimlddfdata #ffcc88 {
state "create" as dimlddfdatacreate #ffcc88 {
}
}
}

    ActorManageMetaDataCaptureMetaData - -> dimlddfdatacreate
    
 
    state "DataScientist" as DataScientist {
        state "Manage Meta Data" as DataScientistManageMetaData {
            state "Manage Data Catalog" as DataScientistManageMetaDataManageDataCatalog {
            }
        }
    }
    state "diml" as diml #ffcc88 {
state "ddfdatacatalog" as dimlddfdatacatalog #ffcc88 {
state "list" as dimlddfdatacataloglist #ffcc88 {
}
}
}

    DataScientistManageMetaDataManageDataCatalog - -> dimlddfdatacataloglist
    
 
 

@enduml

PlantUML version 1.2019.05(Sat Apr 20 09:45:36 PDT 2019)
(GPL source distribution)
Java Runtime: OpenJDK Runtime Environment
JVM: OpenJDK 64-Bit Server VM
Java Version: 12.0.1+12
Operating System: Windows 10
OS Version: 10.0
Default Encoding: Cp1252
Language: en
Country: US
--></g></svg>