<?xml version="1.0" encoding="UTF-8" standalone="no"?><svg xmlns="http://www.w3.org/2000/svg" xmlns:xlink="http://www.w3.org/1999/xlink" contentScriptType="application/ecmascript" contentStyleType="text/css" height="444px" preserveAspectRatio="none" style="width:1163px;height:444px;" version="1.1" viewBox="0 0 1163 444" width="1163px" zoomAndPan="magnify"><defs><filter height="300%" id="f1ffj8ym11s81p" width="300%" x="-1" y="-1"><feGaussianBlur result="blurOut" stdDeviation="2.0"/><feColorMatrix in="blurOut" result="blurOut2" type="matrix" values="0 0 0 0 0 0 0 0 0 0 0 0 0 0 0 0 0 0 .4 0"/><feOffset dx="4.0" dy="4.0" in="blurOut2" result="blurOut3"/><feBlend in="SourceGraphic" in2="blurOut3" mode="normal"/></filter></defs><g><!--cluster Data Definition Framework--><polygon fill="#FFCC88" filter="url(#f1ffj8ym11s81p)" points="92,87,283,87,290,110.6094,1062,110.6094,1062,341,92,341,92,87" style="stroke: #000000; stroke-width: 1.5;"/><line style="stroke: #000000; stroke-width: 1.5;" x1="92" x2="290" y1="110.6094" y2="110.6094"/><text fill="#000000" font-family="sans-serif" font-size="14" font-weight="bold" lengthAdjust="spacingAndGlyphs" textLength="185" x="96" y="103.5332">Data Definition Framework</text><polygon fill="#FFCC88" filter="url(#f1ffj8ym11s81p)" points="6,377,180,377,187,400.6094,194,400.6094,194,432.2188,6,432.2188,6,377" style="stroke: #000000; stroke-width: 1.5;"/><line style="stroke: #000000; stroke-width: 1.5;" x1="6" x2="187" y1="400.6094" y2="400.6094"/><text fill="#000000" font-family="sans-serif" font-size="14" font-weight="bold" lengthAdjust="spacingAndGlyphs" textLength="168" x="10" y="393.5332">Data Management Layer</text><!--class i--><rect fill="#FEFECE" filter="url(#f1ffj8ym11s81p)" height="186.3594" id="i" style="stroke: #A80036; stroke-width: 1.5;" width="211" x="826.5" y="131"/><ellipse cx="856.35" cy="147" fill="#B4A7E5" rx="11" ry="11" style="stroke: #A80036; stroke-width: 1.0;"/><path d="M857.3031,143.6406 L857.3031,150.2969 L859.0219,150.2969 Q859.6313,150.2969 859.8969,150.5313 Q860.1625,150.7656 860.1625,151.1563 Q860.1625,151.5313 859.8969,151.7656 Q859.6313,152 859.0219,152 L853.8813,152 Q853.2719,152 853.0063,151.7656 Q852.7406,151.5313 852.7406,151.1406 Q852.7406,150.7656 853.0063,150.5313 Q853.2719,150.2969 853.8813,150.2969 L855.6,150.2969 L855.6,143.6406 L853.8813,143.6406 Q853.2719,143.6406 853.0063,143.4063 Q852.7406,143.1719 852.7406,142.7813 Q852.7406,142.4063 853.0063,142.1719 Q853.2719,141.9375 853.8813,141.9375 L859.0219,141.9375 Q859.6313,141.9375 859.8969,142.1719 Q860.1625,142.4063 860.1625,142.7813 Q860.1625,143.1719 859.8969,143.4063 Q859.6313,143.6406 859.0219,143.6406 L857.3031,143.6406 Z "/><text fill="#000000" font-family="sans-serif" font-size="12" font-style="italic" lengthAdjust="spacingAndGlyphs" textLength="146" x="873.65" y="151.9102">Data Definition Framework</text><line style="stroke: #A80036; stroke-width: 1.5;" x1="827.5" x2="1036.5" y1="163" y2="163"/><line style="stroke: #A80036; stroke-width: 1.5;" x1="827.5" x2="1036.5" y1="171" y2="171"/><text fill="#000000" font-family="sans-serif" font-size="11" lengthAdjust="spacingAndGlyphs" textLength="160" x="832.5" y="186.4189">/edgemere/diml/ddf/data/govern()</text><text fill="#000000" font-family="sans-serif" font-size="11" lengthAdjust="spacingAndGlyphs" textLength="189" x="832.5" y="200.2549">/edgemere/diml/ddf/data/source/name()</text><text fill="#000000" font-family="sans-serif" font-size="11" lengthAdjust="spacingAndGlyphs" textLength="199" x="832.5" y="214.0908">/edgemere/diml/ddf/datablueprint/deploy()</text><text fill="#000000" font-family="sans-serif" font-size="11" lengthAdjust="spacingAndGlyphs" textLength="180" x="832.5" y="227.9268">/edgemere/diml/ddf/datablueprint/list()</text><text fill="#000000" font-family="sans-serif" font-size="11" lengthAdjust="spacingAndGlyphs" textLength="174" x="832.5" y="241.7627">/edgemere/diml/ddf/datacatalog/list()</text><text fill="#000000" font-family="sans-serif" font-size="11" lengthAdjust="spacingAndGlyphs" textLength="170" x="832.5" y="255.5986">/edgemere/diml/ddf/datadaptor/list()</text><text fill="#000000" font-family="sans-serif" font-size="11" lengthAdjust="spacingAndGlyphs" textLength="175" x="832.5" y="269.4346">/edgemere/diml/ddf/datapipeline/list()</text><text fill="#000000" font-family="sans-serif" font-size="11" lengthAdjust="spacingAndGlyphs" textLength="189" x="832.5" y="283.2705">/edgemere/diml/ddf/dataprocedure/list()</text><text fill="#000000" font-family="sans-serif" font-size="11" lengthAdjust="spacingAndGlyphs" textLength="199" x="832.5" y="297.1064">/edgemere/diml/ddf/datasource/simulate()</text><text fill="#000000" font-family="sans-serif" font-size="11" lengthAdjust="spacingAndGlyphs" textLength="162" x="832.5" y="310.9424">/edgemere/diml/ddf/metadata/list()</text><!--entity Blue Print Management--><rect fill="#FFFFFF" filter="url(#f1ffj8ym11s81p)" height="37.6094" style="stroke: #000000; stroke-width: 1.5;" width="167" x="624.5" y="205"/><text fill="#000000" font-family="sans-serif" font-size="14" lengthAdjust="spacingAndGlyphs" textLength="147" x="634.5" y="229.5332">Blue Print Management</text><!--entity Data Adaptor Framework--><rect fill="#FFFFFF" filter="url(#f1ffj8ym11s81p)" height="37.6094" style="stroke: #000000; stroke-width: 1.5;" width="178" x="411" y="205"/><text fill="#000000" font-family="sans-serif" font-size="14" lengthAdjust="spacingAndGlyphs" textLength="158" x="421" y="229.5332">Data Adaptor Framework</text><!--entity Data Flow--><rect fill="#FFFFFF" filter="url(#f1ffj8ym11s81p)" height="37.6094" style="stroke: #000000; stroke-width: 1.5;" width="83" x="292.5" y="205"/><text fill="#000000" font-family="sans-serif" font-size="14" lengthAdjust="spacingAndGlyphs" textLength="63" x="302.5" y="229.5332">Data Flow</text><!--entity Data Repository--><rect fill="#FFFFFF" filter="url(#f1ffj8ym11s81p)" height="37.6094" style="stroke: #000000; stroke-width: 1.5;" width="122" x="135" y="205"/><text fill="#000000" font-family="sans-serif" font-size="14" lengthAdjust="spacingAndGlyphs" textLength="102" x="145" y="229.5332">Data Repository</text><polygon fill="#FFC0CB" filter="url(#f1ffj8ym11s81p)" points="1017,8,1127,8,1134,31.6094,1141,31.6094,1141,63.2188,1017,63.2188,1017,8" style="stroke: #000000; stroke-width: 1.5;"/><line style="stroke: #000000; stroke-width: 1.5;" x1="1017" x2="1134" y1="31.6094" y2="31.6094"/><text fill="#000000" font-family="sans-serif" font-size="14" font-weight="bold" lengthAdjust="spacingAndGlyphs" textLength="104" x="1021" y="24.5332">Identity Aspect</text><ellipse cx="887" cy="35.5" fill="#FEFECE" filter="url(#f1ffj8ym11s81p)" rx="5" ry="5" style="stroke: #A80036; stroke-width: 1.5;"/><text fill="#000000" font-family="sans-serif" font-size="12" lengthAdjust="spacingAndGlyphs" textLength="19" x="877.5" y="52.957">CLI</text><ellipse cx="932" cy="35.5" fill="#FEFECE" filter="url(#f1ffj8ym11s81p)" rx="5" ry="5" style="stroke: #A80036; stroke-width: 1.5;"/><text fill="#000000" font-family="sans-serif" font-size="12" lengthAdjust="spacingAndGlyphs" textLength="32" x="916" y="52.957">REST</text><ellipse cx="977" cy="35.5" fill="#FEFECE" filter="url(#f1ffj8ym11s81p)" rx="5" ry="5" style="stroke: #A80036; stroke-width: 1.5;"/><text fill="#000000" font-family="sans-serif" font-size="12" lengthAdjust="spacingAndGlyphs" textLength="25" x="964.5" y="52.957">Web</text><!--link ilol5423 to i--><path d="M888.024,40.746 C891.073,53.379 900.454,92.258 909.772,130.879 " fill="none" id="ilol5423-i" style="stroke: #A80036; stroke-width: 1.0;"/><!--link ilol5426 to i--><path d="M932,40.746 C932,53.379 932,92.258 932,130.879 " fill="none" id="ilol5426-i" style="stroke: #A80036; stroke-width: 1.0;"/><!--link ilol5429 to i--><path d="M975.976,40.746 C972.927,53.379 963.546,92.258 954.228,130.879 " fill="none" id="ilol5429-i" style="stroke: #A80036; stroke-width: 1.0;"/><!--link Data Definition Framework to Data Management Layer--><path d="M100,341.3515 C100,341.8294 100,342.3062 100,342.7818 C100,343.733 100,344.6794 100,345.6204 C100,347.5024 100,349.3631 100,351.1986 C100,358.5402 100,365.4767 100,371.7527 " fill="none" id="Data Definition Framework-Data Management Layer" style="stroke: #A80036; stroke-width: 1.0;"/><polygon fill="#A80036" points="100,376.7707,104,367.7707,100,371.7707,96,367.7707,100,376.7707" style="stroke: #A80036; stroke-width: 1.0;"/><!--
@startuml


package "Data Management Layer" #ffcc88 {

}

package "Data Definition Framework" #ffcc88 {

}

package "Identity Aspect" #pink {

}


package "Data Definition Framework" #ffcc88 {

    interface "Data Definition Framework" as i {
            /edgemere/diml/ddf/data/govern()
            /edgemere/diml/ddf/data/source/name()
            /edgemere/diml/ddf/datablueprint/deploy()
            /edgemere/diml/ddf/datablueprint/list()
            /edgemere/diml/ddf/datacatalog/list()
            /edgemere/diml/ddf/datadaptor/list()
            /edgemere/diml/ddf/datapipeline/list()
            /edgemere/diml/ddf/dataprocedure/list()
            /edgemere/diml/ddf/datasource/simulate()
            /edgemere/diml/ddf/metadata/list()
    
    }
}

CLI ()- - i
REST ()- - i
Web ()- - i

package "Data Definition Framework" #ffcc88 {


rectangle "Blue Print Management" #white {
}

rectangle "Data Adaptor Framework" #white {
}

rectangle "Data Flow" #white {
}

rectangle "Data Repository" #white {
}

}


    "Data Definition Framework" - -> "Data Management Layer"


@enduml

PlantUML version 1.2019.05(Sat Apr 20 09:45:36 PDT 2019)
(GPL source distribution)
Java Runtime: OpenJDK Runtime Environment
JVM: OpenJDK 64-Bit Server VM
Java Version: 12.0.1+12
Operating System: Windows 10
OS Version: 10.0
Default Encoding: Cp1252
Language: en
Country: US
--></g></svg>