<?xml version="1.0" encoding="UTF-8" standalone="no"?><svg xmlns="http://www.w3.org/2000/svg" xmlns:xlink="http://www.w3.org/1999/xlink" contentScriptType="application/ecmascript" contentStyleType="text/css" height="435px" preserveAspectRatio="none" style="width:389px;height:435px;" version="1.1" viewBox="0 0 389 435" width="389px" zoomAndPan="magnify"><defs><filter height="300%" id="f6ji6t6rt11ew" width="300%" x="-1" y="-1"><feGaussianBlur result="blurOut" stdDeviation="2.0"/><feColorMatrix in="blurOut" result="blurOut2" type="matrix" values="0 0 0 0 0 0 0 0 0 0 0 0 0 0 0 0 0 0 .4 0"/><feOffset dx="4.0" dy="4.0" in="blurOut2" result="blurOut3"/><feBlend in="SourceGraphic" in2="blurOut3" mode="normal"/></filter></defs><g><!--cluster Data Definition Framework--><rect fill="#FFCC88" filter="url(#f6ji6t6rt11ew)" height="386" style="stroke: #000000; stroke-width: 1.5;" width="215" x="163" y="24"/><text fill="#000000" font-family="sans-serif" font-size="14" font-weight="bold" lengthAdjust="spacingAndGlyphs" textLength="185" x="178" y="40.5332">Data Definition Framework</text><ellipse cx="270.3478" cy="152.8696" fill="#FEFECE" filter="url(#f6ji6t6rt11ew)" rx="84.8478" ry="19.3696" style="stroke: #A80036; stroke-width: 1.5;"/><text fill="#000000" font-family="sans-serif" font-size="14" lengthAdjust="spacingAndGlyphs" textLength="138" x="201.3478" y="158.1742">ManageDataAdaptors</text><ellipse cx="270.3193" cy="227.9639" fill="#FEFECE" filter="url(#f6ji6t6rt11ew)" rx="87.8193" ry="19.9639" style="stroke: #A80036; stroke-width: 1.5;"/><text fill="#000000" font-family="sans-serif" font-size="14" lengthAdjust="spacingAndGlyphs" textLength="145" x="197.8193" y="233.2685">ManageDataBluePrints</text><ellipse cx="270.4197" cy="78.7839" fill="#FEFECE" filter="url(#f6ji6t6rt11ew)" rx="81.9197" ry="18.7839" style="stroke: #A80036; stroke-width: 1.5;"/><text fill="#000000" font-family="sans-serif" font-size="14" lengthAdjust="spacingAndGlyphs" textLength="131" x="204.9197" y="84.0886">ManageDataPipeline</text><ellipse cx="270.6965" cy="373.2393" fill="#FEFECE" filter="url(#f6ji6t6rt11ew)" rx="91.6965" ry="20.7393" style="stroke: #A80036; stroke-width: 1.5;"/><text fill="#000000" font-family="sans-serif" font-size="14" lengthAdjust="spacingAndGlyphs" textLength="154" x="193.6965" y="378.544">ManageDataProcedures</text><ellipse cx="270.7325" cy="300.2465" fill="#FEFECE" filter="url(#f6ji6t6rt11ew)" rx="74.2325" ry="17.2465" style="stroke: #A80036; stroke-width: 1.5;"/><text fill="#000000" font-family="sans-serif" font-size="14" lengthAdjust="spacingAndGlyphs" textLength="112" x="214.7325" y="305.5512">ManageMetaData</text><!--entity DataEngineer--><ellipse cx="62.5" cy="110.5" fill="#FEFECE" filter="url(#f6ji6t6rt11ew)" rx="8" ry="8" style="stroke: #A80036; stroke-width: 2.0;"/><path d="M62.5,118.5 L62.5,145.5 M49.5,126.5 L75.5,126.5 M62.5,145.5 L49.5,160.5 M62.5,145.5 L75.5,160.5 " fill="none" filter="url(#f6ji6t6rt11ew)" style="stroke: #A80036; stroke-width: 2.0;"/><text fill="#000000" font-family="sans-serif" font-size="14" lengthAdjust="spacingAndGlyphs" textLength="91" x="17" y="182.0332">Data Engineer</text><!--entity DataScientist--><ellipse cx="62.5" cy="230.5" fill="#FEFECE" filter="url(#f6ji6t6rt11ew)" rx="8" ry="8" style="stroke: #A80036; stroke-width: 2.0;"/><path d="M62.5,238.5 L62.5,265.5 M49.5,246.5 L75.5,246.5 M62.5,265.5 L49.5,280.5 M62.5,265.5 L75.5,280.5 " fill="none" filter="url(#f6ji6t6rt11ew)" style="stroke: #A80036; stroke-width: 2.0;"/><text fill="#000000" font-family="sans-serif" font-size="14" lengthAdjust="spacingAndGlyphs" textLength="87" x="19" y="302.0332">Data Scientist</text><!--entity ChiefDataOfficer--><ellipse cx="62.5" cy="350.5" fill="#FEFECE" filter="url(#f6ji6t6rt11ew)" rx="8" ry="8" style="stroke: #A80036; stroke-width: 2.0;"/><path d="M62.5,358.5 L62.5,385.5 M49.5,366.5 L75.5,366.5 M62.5,385.5 L49.5,400.5 M62.5,385.5 L75.5,400.5 " fill="none" filter="url(#f6ji6t6rt11ew)" style="stroke: #A80036; stroke-width: 2.0;"/><text fill="#000000" font-family="sans-serif" font-size="14" lengthAdjust="spacingAndGlyphs" textLength="113" x="6" y="422.0332">Chief Data Officer</text><!--link DataEngineer to ManageDataAdaptors--><path d="M108.199,145.17 C129.832,146.22 156.58,147.518 182.033,148.754 " fill="none" id="DataEngineer-ManageDataAdaptors" style="stroke: #A80036; stroke-width: 1.0;"/><polygon fill="#A80036" points="187.105,149,178.3099,144.5676,182.1109,148.7572,177.9213,152.5582,187.105,149" style="stroke: #A80036; stroke-width: 1.0;"/><!--link DataScientist to ManageDataAdaptors--><path d="M106.022,224.555 C120.771,212.617 137.911,200.194 155,191 C171.523,182.111 190.502,174.79 208.195,169.028 " fill="none" id="DataScientist-ManageDataAdaptors" style="stroke: #A80036; stroke-width: 1.0;"/><polygon fill="#A80036" points="213.148,167.445,203.3572,166.3768,208.3856,168.9682,205.7943,173.9966,213.148,167.445" style="stroke: #A80036; stroke-width: 1.0;"/><!--link DataEngineer to ManageDataBluePrints--><path d="M108.455,167.836 C123.074,175.439 139.522,183.502 155,190 C172.917,197.522 192.886,204.583 211.066,210.529 " fill="none" id="DataEngineer-ManageDataBluePrints" style="stroke: #A80036; stroke-width: 1.0;"/><polygon fill="#A80036" points="216.144,212.176,208.817,205.5946,211.3879,210.6335,206.349,213.2043,216.144,212.176" style="stroke: #A80036; stroke-width: 1.0;"/><!--link DataScientist to ManageDataBluePrints--><path d="M106.183,255.748 C131.583,251.432 164.54,245.833 194.189,240.796 " fill="none" id="DataScientist-ManageDataBluePrints" style="stroke: #A80036; stroke-width: 1.0;"/><polygon fill="#A80036" points="199.3,239.927,189.7573,237.4906,194.3706,240.7643,191.0969,245.3776,199.3,239.927" style="stroke: #A80036; stroke-width: 1.0;"/><!--link DataEngineer to ManageDataPipeline--><path d="M108.199,129.113 C139.779,119.302 182.262,106.103 215.701,95.714 " fill="none" id="DataEngineer-ManageDataPipeline" style="stroke: #A80036; stroke-width: 1.0;"/><polygon fill="#A80036" points="220.567,94.203,210.7856,93.0525,215.792,95.6861,213.1585,100.6925,220.567,94.203" style="stroke: #A80036; stroke-width: 1.0;"/><!--link DataEngineer to ManageDataProcedures--><path d="M107.336,185.666 C111.681,191.211 115.697,197.044 119,203 C148.492,256.179 113.182,290.852 155,335 C165.158,345.7243 178.41,353.4237 192.279,358.951 " fill="none" id="DataEngineer-ManageDataProcedures" style="stroke: #A80036; stroke-width: 1.0;"/><polygon fill="#A80036" points="197.003,360.7434,190.0081,353.8101,192.3284,358.9692,187.1693,361.2894,197.003,360.7434" style="stroke: #A80036; stroke-width: 1.0;"/><!--link ChiefDataOfficer to ManageDataProcedures--><path d="M119.247,380.2939 C136.564,379.4532 156.157,378.5021 175.338,377.571 " fill="none" id="ChiefDataOfficer-ManageDataProcedures" style="stroke: #A80036; stroke-width: 1.0;"/><polygon fill="#A80036" points="180.735,377.309,171.5513,373.7509,175.7409,377.5519,171.9399,381.7414,180.735,377.309" style="stroke: #A80036; stroke-width: 1.0;"/><!--link DataScientist to ManageMetaData--><path d="M106.183,270.666 C135.156,275.87 173.96,282.84 206.474,288.68 " fill="none" id="DataScientist-ManageMetaData" style="stroke: #A80036; stroke-width: 1.0;"/><polygon fill="#A80036" points="211.636,289.607,203.4853,284.0784,206.7148,288.7228,202.0705,291.9523,211.636,289.607" style="stroke: #A80036; stroke-width: 1.0;"/><!--
@startuml

left to right direction
Actor "Data Engineer" as DataEngineer
Actor "Data Scientist" as DataScientist
Actor "Data Engineer" as DataEngineer
Actor "Data Scientist" as DataScientist
Actor "Data Engineer" as DataEngineer
Actor "Data Engineer" as DataEngineer
Actor "Chief Data Officer" as ChiefDataOfficer
Actor "Data Scientist" as DataScientist


rectangle "Data Definition Framework" #ffcc88 {
usecase "ManageDataAdaptors" as ManageDataAdaptors
    DataEngineer - -> ManageDataAdaptors
    DataScientist - -> ManageDataAdaptors
    usecase "ManageDataBluePrints" as ManageDataBluePrints
    DataEngineer - -> ManageDataBluePrints
    DataScientist - -> ManageDataBluePrints
    usecase "ManageDataPipeline" as ManageDataPipeline
    DataEngineer - -> ManageDataPipeline
    usecase "ManageDataProcedures" as ManageDataProcedures
    DataEngineer - -> ManageDataProcedures
    ChiefDataOfficer - -> ManageDataProcedures
    usecase "ManageMetaData" as ManageMetaData
    DataScientist - -> ManageMetaData
    }


@enduml

PlantUML version 1.2019.05(Sat Apr 20 09:45:36 PDT 2019)
(GPL source distribution)
Java Runtime: OpenJDK Runtime Environment
JVM: OpenJDK 64-Bit Server VM
Java Version: 12.0.1+12
Operating System: Windows 10
OS Version: 10.0
Default Encoding: Cp1252
Language: en
Country: US
--></g></svg>