<?xml version="1.0" encoding="UTF-8" standalone="no"?><svg xmlns="http://www.w3.org/2000/svg" xmlns:xlink="http://www.w3.org/1999/xlink" contentScriptType="application/ecmascript" contentStyleType="text/css" height="924px" preserveAspectRatio="none" style="width:725px;height:924px;" version="1.1" viewBox="0 0 725 924" width="725px" zoomAndPan="magnify"><defs><filter height="300%" id="f18u5sdytvo7dq" width="300%" x="-1" y="-1"><feGaussianBlur result="blurOut" stdDeviation="2.0"/><feColorMatrix in="blurOut" result="blurOut2" type="matrix" values="0 0 0 0 0 0 0 0 0 0 0 0 0 0 0 0 0 0 .4 0"/><feOffset dx="4.0" dy="4.0" in="blurOut2" result="blurOut3"/><feBlend in="SourceGraphic" in2="blurOut3" mode="normal"/></filter></defs><g><line style="stroke: #A80036; stroke-width: 1.0; stroke-dasharray: 5.0,5.0;" x1="54" x2="54" y1="87.6094" y2="836.0469"/><line style="stroke: #A80036; stroke-width: 1.0; stroke-dasharray: 5.0,5.0;" x1="155" x2="155" y1="87.6094" y2="836.0469"/><line style="stroke: #A80036; stroke-width: 1.0; stroke-dasharray: 5.0,5.0;" x1="265" x2="265" y1="87.6094" y2="836.0469"/><line style="stroke: #A80036; stroke-width: 1.0; stroke-dasharray: 5.0,5.0;" x1="436" x2="436" y1="87.6094" y2="836.0469"/><line style="stroke: #A80036; stroke-width: 1.0; stroke-dasharray: 5.0,5.0;" x1="563" x2="563" y1="87.6094" y2="836.0469"/><line style="stroke: #A80036; stroke-width: 1.0; stroke-dasharray: 5.0,5.0;" x1="690" x2="690" y1="87.6094" y2="836.0469"/><text fill="#000000" font-family="sans-serif" font-size="14" lengthAdjust="spacingAndGlyphs" textLength="87" x="8" y="84.5332">DataEngineer</text><ellipse cx="54.5" cy="13" fill="#FEFECE" filter="url(#f18u5sdytvo7dq)" rx="8" ry="8" style="stroke: #A80036; stroke-width: 2.0;"/><path d="M54.5,21 L54.5,48 M41.5,29 L67.5,29 M54.5,48 L41.5,63 M54.5,48 L67.5,63 " fill="none" filter="url(#f18u5sdytvo7dq)" style="stroke: #A80036; stroke-width: 2.0;"/><text fill="#000000" font-family="sans-serif" font-size="14" lengthAdjust="spacingAndGlyphs" textLength="87" x="8" y="849.5801">DataEngineer</text><ellipse cx="54.5" cy="862.6563" fill="#FEFECE" filter="url(#f18u5sdytvo7dq)" rx="8" ry="8" style="stroke: #A80036; stroke-width: 2.0;"/><path d="M54.5,870.6563 L54.5,897.6563 M41.5,878.6563 L67.5,878.6563 M54.5,897.6563 L41.5,912.6563 M54.5,897.6563 L67.5,912.6563 " fill="none" filter="url(#f18u5sdytvo7dq)" style="stroke: #A80036; stroke-width: 2.0;"/><text fill="#000000" font-family="sans-serif" font-size="14" lengthAdjust="spacingAndGlyphs" textLength="83" x="111" y="84.5332">DataScientist</text><ellipse cx="155.5" cy="13" fill="#FEFECE" filter="url(#f18u5sdytvo7dq)" rx="8" ry="8" style="stroke: #A80036; stroke-width: 2.0;"/><path d="M155.5,21 L155.5,48 M142.5,29 L168.5,29 M155.5,48 L142.5,63 M155.5,48 L168.5,63 " fill="none" filter="url(#f18u5sdytvo7dq)" style="stroke: #A80036; stroke-width: 2.0;"/><text fill="#000000" font-family="sans-serif" font-size="14" lengthAdjust="spacingAndGlyphs" textLength="83" x="111" y="849.5801">DataScientist</text><ellipse cx="155.5" cy="862.6563" fill="#FEFECE" filter="url(#f18u5sdytvo7dq)" rx="8" ry="8" style="stroke: #A80036; stroke-width: 2.0;"/><path d="M155.5,870.6563 L155.5,897.6563 M142.5,878.6563 L168.5,878.6563 M155.5,897.6563 L142.5,912.6563 M155.5,897.6563 L168.5,912.6563 " fill="none" filter="url(#f18u5sdytvo7dq)" style="stroke: #A80036; stroke-width: 2.0;"/><text fill="#000000" font-family="sans-serif" font-size="14" lengthAdjust="spacingAndGlyphs" textLength="105" x="210" y="84.5332">ChiefDataOfficer</text><ellipse cx="265.5" cy="13" fill="#FEFECE" filter="url(#f18u5sdytvo7dq)" rx="8" ry="8" style="stroke: #A80036; stroke-width: 2.0;"/><path d="M265.5,21 L265.5,48 M252.5,29 L278.5,29 M265.5,48 L252.5,63 M265.5,48 L278.5,63 " fill="none" filter="url(#f18u5sdytvo7dq)" style="stroke: #A80036; stroke-width: 2.0;"/><text fill="#000000" font-family="sans-serif" font-size="14" lengthAdjust="spacingAndGlyphs" textLength="105" x="210" y="849.5801">ChiefDataOfficer</text><ellipse cx="265.5" cy="862.6563" fill="#FEFECE" filter="url(#f18u5sdytvo7dq)" rx="8" ry="8" style="stroke: #A80036; stroke-width: 2.0;"/><path d="M265.5,870.6563 L265.5,897.6563 M252.5,878.6563 L278.5,878.6563 M265.5,897.6563 L252.5,912.6563 M265.5,897.6563 L278.5,912.6563 " fill="none" filter="url(#f18u5sdytvo7dq)" style="stroke: #A80036; stroke-width: 2.0;"/><rect fill="#FEFECE" filter="url(#f18u5sdytvo7dq)" height="31.6094" style="stroke: #A80036; stroke-width: 1.5;" width="181" x="344" y="51"/><text fill="#000000" font-family="sans-serif" font-size="14" lengthAdjust="spacingAndGlyphs" textLength="167" x="351" y="72.5332">Data Definition Framework</text><rect fill="#FEFECE" filter="url(#f18u5sdytvo7dq)" height="31.6094" style="stroke: #A80036; stroke-width: 1.5;" width="181" x="344" y="835.0469"/><text fill="#000000" font-family="sans-serif" font-size="14" lengthAdjust="spacingAndGlyphs" textLength="167" x="351" y="856.5801">Data Definition Framework</text><rect fill="#FEFECE" filter="url(#f18u5sdytvo7dq)" height="31.6094" style="stroke: #A80036; stroke-width: 1.5;" width="33" x="545" y="51"/><text fill="#000000" font-family="sans-serif" font-size="14" lengthAdjust="spacingAndGlyphs" textLength="19" x="552" y="72.5332">bin</text><rect fill="#FEFECE" filter="url(#f18u5sdytvo7dq)" height="31.6094" style="stroke: #A80036; stroke-width: 1.5;" width="33" x="545" y="835.0469"/><text fill="#000000" font-family="sans-serif" font-size="14" lengthAdjust="spacingAndGlyphs" textLength="19" x="552" y="856.5801">bin</text><rect fill="#FEFECE" filter="url(#f18u5sdytvo7dq)" height="31.6094" style="stroke: #A80036; stroke-width: 1.5;" width="51" x="663" y="51"/><text fill="#000000" font-family="sans-serif" font-size="14" lengthAdjust="spacingAndGlyphs" textLength="37" x="670" y="72.5332">REST</text><rect fill="#FEFECE" filter="url(#f18u5sdytvo7dq)" height="31.6094" style="stroke: #A80036; stroke-width: 1.5;" width="51" x="663" y="835.0469"/><text fill="#000000" font-family="sans-serif" font-size="14" lengthAdjust="spacingAndGlyphs" textLength="37" x="670" y="856.5801">REST</text><polygon fill="#A80036" points="424.5,115.9609,434.5,119.9609,424.5,123.9609,428.5,119.9609" style="stroke: #A80036; stroke-width: 1.0;"/><line style="stroke: #A80036; stroke-width: 1.0;" x1="54.5" x2="430.5" y1="119.9609" y2="119.9609"/><text fill="#000000" font-family="sans-serif" font-size="13" lengthAdjust="spacingAndGlyphs" textLength="133" x="61.5" y="115.1045">Manage Data Adaptors</text><polygon fill="#A80036" points="551.5,146.3125,561.5,150.3125,551.5,154.3125,555.5,150.3125" style="stroke: #A80036; stroke-width: 1.0;"/><line style="stroke: #A80036; stroke-width: 1.0;" x1="436.5" x2="557.5" y1="150.3125" y2="150.3125"/><text fill="#000000" font-family="sans-serif" font-size="13" lengthAdjust="spacingAndGlyphs" textLength="82" x="443.5" y="145.4561">datadaptor/list</text><polygon fill="#A80036" points="678.5,176.6641,688.5,180.6641,678.5,184.6641,682.5,180.6641" style="stroke: #A80036; stroke-width: 1.0;"/><line style="stroke: #A80036; stroke-width: 1.0;" x1="563.5" x2="684.5" y1="180.6641" y2="180.6641"/><text fill="#000000" font-family="sans-serif" font-size="13" lengthAdjust="spacingAndGlyphs" textLength="82" x="570.5" y="175.8076">datadaptor/list</text><polygon fill="#A80036" points="424.5,207.0156,434.5,211.0156,424.5,215.0156,428.5,211.0156" style="stroke: #A80036; stroke-width: 1.0;"/><line style="stroke: #A80036; stroke-width: 1.0;" x1="54.5" x2="430.5" y1="211.0156" y2="211.0156"/><text fill="#000000" font-family="sans-serif" font-size="13" lengthAdjust="spacingAndGlyphs" textLength="145" x="61.5" y="206.1592">Manage Data Blue Prints</text><polygon fill="#A80036" points="551.5,237.3672,561.5,241.3672,551.5,245.3672,555.5,241.3672" style="stroke: #A80036; stroke-width: 1.0;"/><line style="stroke: #A80036; stroke-width: 1.0;" x1="436.5" x2="557.5" y1="241.3672" y2="241.3672"/><text fill="#000000" font-family="sans-serif" font-size="13" lengthAdjust="spacingAndGlyphs" textLength="95" x="443.5" y="236.5107">datablueprint/list</text><polygon fill="#A80036" points="678.5,267.7188,688.5,271.7188,678.5,275.7188,682.5,271.7188" style="stroke: #A80036; stroke-width: 1.0;"/><line style="stroke: #A80036; stroke-width: 1.0;" x1="563.5" x2="684.5" y1="271.7188" y2="271.7188"/><text fill="#000000" font-family="sans-serif" font-size="13" lengthAdjust="spacingAndGlyphs" textLength="95" x="570.5" y="266.8623">datablueprint/list</text><polygon fill="#A80036" points="424.5,298.0703,434.5,302.0703,424.5,306.0703,428.5,302.0703" style="stroke: #A80036; stroke-width: 1.0;"/><line style="stroke: #A80036; stroke-width: 1.0;" x1="54.5" x2="430.5" y1="302.0703" y2="302.0703"/><text fill="#000000" font-family="sans-serif" font-size="13" lengthAdjust="spacingAndGlyphs" textLength="127" x="61.5" y="297.2139">Manage Data Pipeline</text><polygon fill="#A80036" points="551.5,328.4219,561.5,332.4219,551.5,336.4219,555.5,332.4219" style="stroke: #A80036; stroke-width: 1.0;"/><line style="stroke: #A80036; stroke-width: 1.0;" x1="436.5" x2="557.5" y1="332.4219" y2="332.4219"/><text fill="#000000" font-family="sans-serif" font-size="13" lengthAdjust="spacingAndGlyphs" textLength="90" x="443.5" y="327.5654">datapipeline/list</text><polygon fill="#A80036" points="678.5,358.7734,688.5,362.7734,678.5,366.7734,682.5,362.7734" style="stroke: #A80036; stroke-width: 1.0;"/><line style="stroke: #A80036; stroke-width: 1.0;" x1="563.5" x2="684.5" y1="362.7734" y2="362.7734"/><text fill="#000000" font-family="sans-serif" font-size="13" lengthAdjust="spacingAndGlyphs" textLength="90" x="570.5" y="357.917">datapipeline/list</text><polygon fill="#A80036" points="424.5,389.125,434.5,393.125,424.5,397.125,428.5,393.125" style="stroke: #A80036; stroke-width: 1.0;"/><line style="stroke: #A80036; stroke-width: 1.0;" x1="54.5" x2="430.5" y1="393.125" y2="393.125"/><text fill="#000000" font-family="sans-serif" font-size="13" lengthAdjust="spacingAndGlyphs" textLength="147" x="61.5" y="388.2686">Manage Data Procedures</text><polygon fill="#A80036" points="551.5,419.4766,561.5,423.4766,551.5,427.4766,555.5,423.4766" style="stroke: #A80036; stroke-width: 1.0;"/><line style="stroke: #A80036; stroke-width: 1.0;" x1="436.5" x2="557.5" y1="423.4766" y2="423.4766"/><text fill="#000000" font-family="sans-serif" font-size="13" lengthAdjust="spacingAndGlyphs" textLength="103" x="443.5" y="418.6201">dataprocedure/list</text><polygon fill="#A80036" points="678.5,449.8281,688.5,453.8281,678.5,457.8281,682.5,453.8281" style="stroke: #A80036; stroke-width: 1.0;"/><line style="stroke: #A80036; stroke-width: 1.0;" x1="563.5" x2="684.5" y1="453.8281" y2="453.8281"/><text fill="#000000" font-family="sans-serif" font-size="13" lengthAdjust="spacingAndGlyphs" textLength="103" x="570.5" y="448.9717">dataprocedure/list</text><polygon fill="#A80036" points="424.5,480.1797,434.5,484.1797,424.5,488.1797,428.5,484.1797" style="stroke: #A80036; stroke-width: 1.0;"/><line style="stroke: #A80036; stroke-width: 1.0;" x1="155.5" x2="430.5" y1="484.1797" y2="484.1797"/><text fill="#000000" font-family="sans-serif" font-size="13" lengthAdjust="spacingAndGlyphs" textLength="133" x="162.5" y="479.3232">Manage Data Adaptors</text><polygon fill="#A80036" points="551.5,510.5313,561.5,514.5313,551.5,518.5313,555.5,514.5313" style="stroke: #A80036; stroke-width: 1.0;"/><line style="stroke: #A80036; stroke-width: 1.0;" x1="436.5" x2="557.5" y1="514.5313" y2="514.5313"/><text fill="#000000" font-family="sans-serif" font-size="13" lengthAdjust="spacingAndGlyphs" textLength="82" x="443.5" y="509.6748">datadaptor/list</text><polygon fill="#A80036" points="678.5,540.8828,688.5,544.8828,678.5,548.8828,682.5,544.8828" style="stroke: #A80036; stroke-width: 1.0;"/><line style="stroke: #A80036; stroke-width: 1.0;" x1="563.5" x2="684.5" y1="544.8828" y2="544.8828"/><text fill="#000000" font-family="sans-serif" font-size="13" lengthAdjust="spacingAndGlyphs" textLength="82" x="570.5" y="540.0264">datadaptor/list</text><polygon fill="#A80036" points="424.5,571.2344,434.5,575.2344,424.5,579.2344,428.5,575.2344" style="stroke: #A80036; stroke-width: 1.0;"/><line style="stroke: #A80036; stroke-width: 1.0;" x1="155.5" x2="430.5" y1="575.2344" y2="575.2344"/><text fill="#000000" font-family="sans-serif" font-size="13" lengthAdjust="spacingAndGlyphs" textLength="145" x="162.5" y="570.3779">Manage Data Blue Prints</text><polygon fill="#A80036" points="551.5,601.5859,561.5,605.5859,551.5,609.5859,555.5,605.5859" style="stroke: #A80036; stroke-width: 1.0;"/><line style="stroke: #A80036; stroke-width: 1.0;" x1="436.5" x2="557.5" y1="605.5859" y2="605.5859"/><text fill="#000000" font-family="sans-serif" font-size="13" lengthAdjust="spacingAndGlyphs" textLength="95" x="443.5" y="600.7295">datablueprint/list</text><polygon fill="#A80036" points="678.5,631.9375,688.5,635.9375,678.5,639.9375,682.5,635.9375" style="stroke: #A80036; stroke-width: 1.0;"/><line style="stroke: #A80036; stroke-width: 1.0;" x1="563.5" x2="684.5" y1="635.9375" y2="635.9375"/><text fill="#000000" font-family="sans-serif" font-size="13" lengthAdjust="spacingAndGlyphs" textLength="95" x="570.5" y="631.0811">datablueprint/list</text><polygon fill="#A80036" points="424.5,662.2891,434.5,666.2891,424.5,670.2891,428.5,666.2891" style="stroke: #A80036; stroke-width: 1.0;"/><line style="stroke: #A80036; stroke-width: 1.0;" x1="155.5" x2="430.5" y1="666.2891" y2="666.2891"/><text fill="#000000" font-family="sans-serif" font-size="13" lengthAdjust="spacingAndGlyphs" textLength="110" x="162.5" y="661.4326">Manage Meta Data</text><polygon fill="#A80036" points="551.5,692.6406,561.5,696.6406,551.5,700.6406,555.5,696.6406" style="stroke: #A80036; stroke-width: 1.0;"/><line style="stroke: #A80036; stroke-width: 1.0;" x1="436.5" x2="557.5" y1="696.6406" y2="696.6406"/><text fill="#000000" font-family="sans-serif" font-size="13" lengthAdjust="spacingAndGlyphs" textLength="75" x="443.5" y="691.7842">metadata/list</text><polygon fill="#A80036" points="678.5,722.9922,688.5,726.9922,678.5,730.9922,682.5,726.9922" style="stroke: #A80036; stroke-width: 1.0;"/><line style="stroke: #A80036; stroke-width: 1.0;" x1="563.5" x2="684.5" y1="726.9922" y2="726.9922"/><text fill="#000000" font-family="sans-serif" font-size="13" lengthAdjust="spacingAndGlyphs" textLength="75" x="570.5" y="722.1357">metadata/list</text><polygon fill="#A80036" points="424.5,753.3438,434.5,757.3438,424.5,761.3438,428.5,757.3438" style="stroke: #A80036; stroke-width: 1.0;"/><line style="stroke: #A80036; stroke-width: 1.0;" x1="265.5" x2="430.5" y1="757.3438" y2="757.3438"/><text fill="#000000" font-family="sans-serif" font-size="13" lengthAdjust="spacingAndGlyphs" textLength="147" x="272.5" y="752.4873">Manage Data Procedures</text><polygon fill="#A80036" points="551.5,783.6953,561.5,787.6953,551.5,791.6953,555.5,787.6953" style="stroke: #A80036; stroke-width: 1.0;"/><line style="stroke: #A80036; stroke-width: 1.0;" x1="436.5" x2="557.5" y1="787.6953" y2="787.6953"/><text fill="#000000" font-family="sans-serif" font-size="13" lengthAdjust="spacingAndGlyphs" textLength="103" x="443.5" y="782.8389">dataprocedure/list</text><polygon fill="#A80036" points="678.5,814.0469,688.5,818.0469,678.5,822.0469,682.5,818.0469" style="stroke: #A80036; stroke-width: 1.0;"/><line style="stroke: #A80036; stroke-width: 1.0;" x1="563.5" x2="684.5" y1="818.0469" y2="818.0469"/><text fill="#000000" font-family="sans-serif" font-size="13" lengthAdjust="spacingAndGlyphs" textLength="103" x="570.5" y="813.1904">dataprocedure/list</text><!--
@startuml

actor "DataEngineer" as dataengineer

actor "DataScientist" as datascientist

actor "ChiefDataOfficer" as cdo




dataengineer -> "Data Definition Framework": Manage Data Adaptors
"Data Definition Framework" -> bin: datadaptor/list
bin -> REST: datadaptor/list

dataengineer -> "Data Definition Framework": Manage Data Blue Prints
"Data Definition Framework" -> bin: datablueprint/list
bin -> REST: datablueprint/list

dataengineer -> "Data Definition Framework": Manage Data Pipeline
"Data Definition Framework" -> bin: datapipeline/list
bin -> REST: datapipeline/list

dataengineer -> "Data Definition Framework": Manage Data Procedures
"Data Definition Framework" -> bin: dataprocedure/list
bin -> REST: dataprocedure/list

datascientist -> "Data Definition Framework": Manage Data Adaptors
"Data Definition Framework" -> bin: datadaptor/list
bin -> REST: datadaptor/list

datascientist -> "Data Definition Framework": Manage Data Blue Prints
"Data Definition Framework" -> bin: datablueprint/list
bin -> REST: datablueprint/list

datascientist -> "Data Definition Framework": Manage Meta Data
"Data Definition Framework" -> bin: metadata/list
bin -> REST: metadata/list

cdo -> "Data Definition Framework": Manage Data Procedures
"Data Definition Framework" -> bin: dataprocedure/list
bin -> REST: dataprocedure/list


@enduml

PlantUML version 1.2019.05(Sat Apr 20 09:45:36 PDT 2019)
(GPL source distribution)
Java Runtime: OpenJDK Runtime Environment
JVM: OpenJDK 64-Bit Server VM
Java Version: 12.0.1+12
Operating System: Windows 10
OS Version: 10.0
Default Encoding: Cp1252
Language: en
Country: US
--></g></svg>