<?xml version="1.0" encoding="UTF-8" standalone="no"?><svg xmlns="http://www.w3.org/2000/svg" xmlns:xlink="http://www.w3.org/1999/xlink" contentScriptType="application/ecmascript" contentStyleType="text/css" height="400px" preserveAspectRatio="none" style="width:401px;height:400px;" version="1.1" viewBox="0 0 401 400" width="401px" zoomAndPan="magnify"><defs><filter height="300%" id="f108chu546vo5d" width="300%" x="-1" y="-1"><feGaussianBlur result="blurOut" stdDeviation="2.0"/><feColorMatrix in="blurOut" result="blurOut2" type="matrix" values="0 0 0 0 0 0 0 0 0 0 0 0 0 0 0 0 0 0 .4 0"/><feOffset dx="4.0" dy="4.0" in="blurOut2" result="blurOut3"/><feBlend in="SourceGraphic" in2="blurOut3" mode="normal"/></filter></defs><g><!--cluster ddf--><rect fill="#FFCC88" filter="url(#f108chu546vo5d)" height="96" style="stroke: #000000; stroke-width: 1.5;" width="222" x="165.5" y="24"/><text fill="#000000" font-family="sans-serif" font-size="14" font-weight="bold" lengthAdjust="spacingAndGlyphs" textLength="185" x="184" y="40.5332">Data Definition Framework</text><!--cluster dml--><rect fill="#FFCC88" filter="url(#f108chu546vo5d)" height="245" style="stroke: #000000; stroke-width: 1.5;" width="227" x="163" y="144"/><text fill="#000000" font-family="sans-serif" font-size="14" font-weight="bold" lengthAdjust="spacingAndGlyphs" textLength="168" x="192.5" y="160.5332">Data Management Layer</text><ellipse cx="276.6904" cy="81.9381" fill="#FEFECE" filter="url(#f108chu546vo5d)" rx="95.1904" ry="21.4381" style="stroke: #A80036; stroke-width: 1.5;"/><text fill="#000000" font-family="sans-serif" font-size="14" lengthAdjust="spacingAndGlyphs" textLength="162" x="195.6904" y="87.2428">Manage Data Procedures</text><ellipse cx="276.3945" cy="201.8789" fill="#FEFECE" filter="url(#f108chu546vo5d)" rx="97.3945" ry="21.8789" style="stroke: #A80036; stroke-width: 1.5;"/><text fill="#000000" font-family="sans-serif" font-size="14" lengthAdjust="spacingAndGlyphs" textLength="167" x="192.8945" y="207.1836">Manage Data Governance</text><ellipse cx="276.4267" cy="278.7853" fill="#FEFECE" filter="url(#f108chu546vo5d)" rx="84.4267" ry="19.2853" style="stroke: #A80036; stroke-width: 1.5;"/><text fill="#000000" font-family="sans-serif" font-size="14" lengthAdjust="spacingAndGlyphs" textLength="137" x="207.9267" y="284.09">Manage Data Policies</text><ellipse cx="276.5408" cy="353.2082" fill="#FEFECE" filter="url(#f108chu546vo5d)" rx="86.5408" ry="19.7082" style="stroke: #A80036; stroke-width: 1.5;"/><text fill="#000000" font-family="sans-serif" font-size="14" lengthAdjust="spacingAndGlyphs" textLength="142" x="205.5408" y="358.5128">Manage Data Strategy</text><!--entity ChiefDataOfficer--><ellipse cx="62.5" cy="208.5" fill="#FEFECE" filter="url(#f108chu546vo5d)" rx="8" ry="8" style="stroke: #A80036; stroke-width: 2.0;"/><path d="M62.5,216.5 L62.5,243.5 M49.5,224.5 L75.5,224.5 M62.5,243.5 L49.5,258.5 M62.5,243.5 L75.5,258.5 " fill="none" filter="url(#f108chu546vo5d)" style="stroke: #A80036; stroke-width: 2.0;"/><text fill="#000000" font-family="sans-serif" font-size="14" lengthAdjust="spacingAndGlyphs" textLength="113" x="6" y="280.0332">Chief Data Officer</text><!--link ChiefDataOfficer to ManageDataProcedures--><path d="M112.134,198.499 C125.775,187.013 140.77,174.785 155,164 C182.624,143.064 215.184,121.057 239.49,105.118 " fill="none" id="ChiefDataOfficer-ManageDataProcedures" style="stroke: #A80036; stroke-width: 1.0;"/><polygon fill="#A80036" points="243.93,102.214,234.2086,103.7934,239.7457,104.9511,238.588,110.4883,243.93,102.214" style="stroke: #A80036; stroke-width: 1.0;"/><!--link ChiefDataOfficer to ManageDataGovernance--><path d="M119.201,230.753 C142.433,226.479 169.862,221.433 195.205,216.771 " fill="none" id="ChiefDataOfficer-ManageDataGovernance" style="stroke: #A80036; stroke-width: 1.0;"/><polygon fill="#A80036" points="200.244,215.844,190.669,213.5378,195.3265,216.7484,192.1159,221.4059,200.244,215.844" style="stroke: #A80036; stroke-width: 1.0;"/><!--link ChiefDataOfficer to ManageDataPolicies--><path d="M119.201,250.984 C145.186,255.642 176.422,261.241 204.116,266.205 " fill="none" id="ChiefDataOfficer-ManageDataPolicies" style="stroke: #A80036; stroke-width: 1.0;"/><polygon fill="#A80036" points="209.244,267.124,201.0901,261.6,204.3223,266.2425,199.6798,269.4747,209.244,267.124" style="stroke: #A80036; stroke-width: 1.0;"/><!--link ChiefDataOfficer to ManageDataStrategy--><path d="M108.475,283.688 C122.564,295.4 138.709,307.2631 155,316 C171.835,325.0287 191.2,332.2022 209.412,337.7358 " fill="none" id="ChiefDataOfficer-ManageDataStrategy" style="stroke: #A80036; stroke-width: 1.0;"/><polygon fill="#A80036" points="214.515,339.2533,207.0291,332.8532,209.7226,337.8277,204.7481,340.5211,214.515,339.2533" style="stroke: #A80036; stroke-width: 1.0;"/><!--
@startuml

left to right direction


Actor "Chief Data Officer" as ChiefDataOfficer


rectangle "Data Definition Framework" as ddf #ffcc88 {
        usecase "Manage Data Procedures" as ManageDataProcedures
    ChiefDataOfficer - -> ManageDataProcedures

}

rectangle "Data Management Layer" as dml #ffcc88 {
        usecase "Manage Data Governance" as ManageDataGovernance
    ChiefDataOfficer - -> ManageDataGovernance
    usecase "Manage Data Policies" as ManageDataPolicies
    ChiefDataOfficer - -> ManageDataPolicies
    usecase "Manage Data Strategy" as ManageDataStrategy
    ChiefDataOfficer - -> ManageDataStrategy

}


@enduml

PlantUML version 1.2019.05(Sat Apr 20 09:45:36 PDT 2019)
(GPL source distribution)
Java Runtime: OpenJDK Runtime Environment
JVM: OpenJDK 64-Bit Server VM
Java Version: 12.0.1+12
Operating System: Windows 10
OS Version: 10.0
Default Encoding: Cp1252
Language: en
Country: US
--></g></svg>