<?xml version="1.0" encoding="UTF-8" standalone="no"?><svg xmlns="http://www.w3.org/2000/svg" xmlns:xlink="http://www.w3.org/1999/xlink" contentScriptType="application/ecmascript" contentStyleType="text/css" height="287px" preserveAspectRatio="none" style="width:364px;height:287px;" version="1.1" viewBox="0 0 364 287" width="364px" zoomAndPan="magnify"><defs><filter height="300%" id="f1jyeaz4ssxhxw" width="300%" x="-1" y="-1"><feGaussianBlur result="blurOut" stdDeviation="2.0"/><feColorMatrix in="blurOut" result="blurOut2" type="matrix" values="0 0 0 0 0 0 0 0 0 0 0 0 0 0 0 0 0 0 .4 0"/><feOffset dx="4.0" dy="4.0" in="blurOut2" result="blurOut3"/><feBlend in="SourceGraphic" in2="blurOut3" mode="normal"/></filter></defs><g><line style="stroke: #A80036; stroke-width: 1.0; stroke-dasharray: 5.0,5.0;" x1="27" x2="27" y1="87.6094" y2="198.6641"/><line style="stroke: #A80036; stroke-width: 1.0; stroke-dasharray: 5.0,5.0;" x1="142" x2="142" y1="87.6094" y2="198.6641"/><line style="stroke: #A80036; stroke-width: 1.0; stroke-dasharray: 5.0,5.0;" x1="239" x2="239" y1="87.6094" y2="198.6641"/><line style="stroke: #A80036; stroke-width: 1.0; stroke-dasharray: 5.0,5.0;" x1="329" x2="329" y1="87.6094" y2="198.6641"/><text fill="#000000" font-family="sans-serif" font-size="14" lengthAdjust="spacingAndGlyphs" textLength="33" x="8" y="84.5332">Actor</text><ellipse cx="27.5" cy="13" fill="#FEFECE" filter="url(#f1jyeaz4ssxhxw)" rx="8" ry="8" style="stroke: #A80036; stroke-width: 2.0;"/><path d="M27.5,21 L27.5,48 M14.5,29 L40.5,29 M27.5,48 L14.5,63 M27.5,48 L40.5,63 " fill="none" filter="url(#f1jyeaz4ssxhxw)" style="stroke: #A80036; stroke-width: 2.0;"/><text fill="#000000" font-family="sans-serif" font-size="14" lengthAdjust="spacingAndGlyphs" textLength="33" x="8" y="212.1973">Actor</text><ellipse cx="27.5" cy="225.2734" fill="#FEFECE" filter="url(#f1jyeaz4ssxhxw)" rx="8" ry="8" style="stroke: #A80036; stroke-width: 2.0;"/><path d="M27.5,233.2734 L27.5,260.2734 M14.5,241.2734 L40.5,241.2734 M27.5,260.2734 L14.5,275.2734 M27.5,260.2734 L40.5,275.2734 " fill="none" filter="url(#f1jyeaz4ssxhxw)" style="stroke: #A80036; stroke-width: 2.0;"/><rect fill="#FEFECE" filter="url(#f1jyeaz4ssxhxw)" height="31.6094" style="stroke: #A80036; stroke-width: 1.5;" width="133" x="74" y="51"/><text fill="#000000" font-family="sans-serif" font-size="14" lengthAdjust="spacingAndGlyphs" textLength="119" x="81" y="72.5332">Service Repository</text><rect fill="#FEFECE" filter="url(#f1jyeaz4ssxhxw)" height="31.6094" style="stroke: #A80036; stroke-width: 1.5;" width="133" x="74" y="197.6641"/><text fill="#000000" font-family="sans-serif" font-size="14" lengthAdjust="spacingAndGlyphs" textLength="119" x="81" y="219.1973">Service Repository</text><rect fill="#FEFECE" filter="url(#f1jyeaz4ssxhxw)" height="31.6094" style="stroke: #A80036; stroke-width: 1.5;" width="33" x="221" y="51"/><text fill="#000000" font-family="sans-serif" font-size="14" lengthAdjust="spacingAndGlyphs" textLength="19" x="228" y="72.5332">bin</text><rect fill="#FEFECE" filter="url(#f1jyeaz4ssxhxw)" height="31.6094" style="stroke: #A80036; stroke-width: 1.5;" width="33" x="221" y="197.6641"/><text fill="#000000" font-family="sans-serif" font-size="14" lengthAdjust="spacingAndGlyphs" textLength="19" x="228" y="219.1973">bin</text><rect fill="#FEFECE" filter="url(#f1jyeaz4ssxhxw)" height="31.6094" style="stroke: #A80036; stroke-width: 1.5;" width="51" x="302" y="51"/><text fill="#000000" font-family="sans-serif" font-size="14" lengthAdjust="spacingAndGlyphs" textLength="37" x="309" y="72.5332">REST</text><rect fill="#FEFECE" filter="url(#f1jyeaz4ssxhxw)" height="31.6094" style="stroke: #A80036; stroke-width: 1.5;" width="51" x="302" y="197.6641"/><text fill="#000000" font-family="sans-serif" font-size="14" lengthAdjust="spacingAndGlyphs" textLength="37" x="309" y="219.1973">REST</text><polygon fill="#A80036" points="130.5,115.9609,140.5,119.9609,130.5,123.9609,134.5,119.9609" style="stroke: #A80036; stroke-width: 1.0;"/><line style="stroke: #A80036; stroke-width: 1.0;" x1="27.5" x2="136.5" y1="119.9609" y2="119.9609"/><text fill="#000000" font-family="sans-serif" font-size="13" lengthAdjust="spacingAndGlyphs" textLength="91" x="34.5" y="115.1045">Manage Assets</text><polygon fill="#A80036" points="227.5,146.3125,237.5,150.3125,227.5,154.3125,231.5,150.3125" style="stroke: #A80036; stroke-width: 1.0;"/><line style="stroke: #A80036; stroke-width: 1.0;" x1="142.5" x2="233.5" y1="150.3125" y2="150.3125"/><text fill="#000000" font-family="sans-serif" font-size="13" lengthAdjust="spacingAndGlyphs" textLength="66" x="149.5" y="145.4561">data/govern</text><polygon fill="#A80036" points="317.5,176.6641,327.5,180.6641,317.5,184.6641,321.5,180.6641" style="stroke: #A80036; stroke-width: 1.0;"/><line style="stroke: #A80036; stroke-width: 1.0;" x1="239.5" x2="323.5" y1="180.6641" y2="180.6641"/><text fill="#000000" font-family="sans-serif" font-size="13" lengthAdjust="spacingAndGlyphs" textLength="66" x="246.5" y="175.8076">data/govern</text><!--
@startuml

actor "Actor" as actor




actor -> "Service Repository": Manage Assets
"Service Repository" -> bin: data/govern
bin -> REST: data/govern


@enduml

PlantUML version 1.2019.05(Sat Apr 20 09:45:36 PDT 2019)
(GPL source distribution)
Java Runtime: OpenJDK Runtime Environment
JVM: OpenJDK 64-Bit Server VM
Java Version: 12.0.1+12
Operating System: Windows 10
OS Version: 10.0
Default Encoding: Cp1252
Language: en
Country: US
--></g></svg>