<?xml version="1.0" encoding="UTF-8" standalone="no"?><svg xmlns="http://www.w3.org/2000/svg" xmlns:xlink="http://www.w3.org/1999/xlink" contentScriptType="application/ecmascript" contentStyleType="text/css" height="691px" preserveAspectRatio="none" style="width:948px;height:691px;" version="1.1" viewBox="0 0 948 691" width="948px" zoomAndPan="magnify"><defs><filter height="300%" id="f1ka4lr9dsw96v" width="300%" x="-1" y="-1"><feGaussianBlur result="blurOut" stdDeviation="2.0"/><feColorMatrix in="blurOut" result="blurOut2" type="matrix" values="0 0 0 0 0 0 0 0 0 0 0 0 0 0 0 0 0 0 .4 0"/><feOffset dx="4.0" dy="4.0" in="blurOut2" result="blurOut3"/><feBlend in="SourceGraphic" in2="blurOut3" mode="normal"/></filter></defs><g><rect fill="#D3D3D3" height="676.8438" style="stroke: #A80036; stroke-width: 1.0;" width="164" x="196.5" y="4"/><text fill="#000000" font-family="sans-serif" font-size="13" font-weight="bold" lengthAdjust="spacingAndGlyphs" textLength="154" x="199.5" y="17.4951">Common Physical Layer</text><rect fill="#D3D3D3" height="676.8438" style="stroke: #A80036; stroke-width: 1.0;" width="305" x="632.5" y="4"/><text fill="#000000" font-family="sans-serif" font-size="13" font-weight="bold" lengthAdjust="spacingAndGlyphs" textLength="154" x="706" y="17.4951">Common Physical Layer</text><line style="stroke: #A80036; stroke-width: 1.0; stroke-dasharray: 5.0,5.0;" x1="54" x2="54" y1="87.6094" y2="593.2344"/><line style="stroke: #A80036; stroke-width: 1.0; stroke-dasharray: 5.0,5.0;" x1="143" x2="143" y1="87.6094" y2="593.2344"/><line style="stroke: #A80036; stroke-width: 1.0; stroke-dasharray: 5.0,5.0;" x1="278" x2="278" y1="87.6094" y2="593.2344"/><line style="stroke: #A80036; stroke-width: 1.0; stroke-dasharray: 5.0,5.0;" x1="665.5" x2="665.5" y1="87.6094" y2="593.2344"/><line style="stroke: #A80036; stroke-width: 1.0; stroke-dasharray: 5.0,5.0;" x1="771.5" x2="771.5" y1="87.6094" y2="593.2344"/><line style="stroke: #A80036; stroke-width: 1.0; stroke-dasharray: 5.0,5.0;" x1="890.5" x2="890.5" y1="87.6094" y2="593.2344"/><text fill="#000000" font-family="sans-serif" font-size="14" lengthAdjust="spacingAndGlyphs" textLength="86" x="8" y="84.5332">IT Operations</text><ellipse cx="54" cy="13" fill="#FEFECE" filter="url(#f1ka4lr9dsw96v)" rx="8" ry="8" style="stroke: #A80036; stroke-width: 2.0;"/><path d="M54,21 L54,48 M41,29 L67,29 M54,48 L41,63 M54,48 L67,63 " fill="none" filter="url(#f1ka4lr9dsw96v)" style="stroke: #A80036; stroke-width: 2.0;"/><text fill="#000000" font-family="sans-serif" font-size="14" lengthAdjust="spacingAndGlyphs" textLength="86" x="8" y="606.7676">IT Operations</text><ellipse cx="54" cy="619.8438" fill="#FEFECE" filter="url(#f1ka4lr9dsw96v)" rx="8" ry="8" style="stroke: #A80036; stroke-width: 2.0;"/><path d="M54,627.8438 L54,654.8438 M41,635.8438 L67,635.8438 M54,654.8438 L41,669.8438 M54,654.8438 L67,669.8438 " fill="none" filter="url(#f1ka4lr9dsw96v)" style="stroke: #A80036; stroke-width: 2.0;"/><text fill="#000000" font-family="sans-serif" font-size="14" lengthAdjust="spacingAndGlyphs" textLength="60" x="110" y="84.5332">EventBus</text><ellipse cx="143" cy="54" fill="#FEFECE" filter="url(#f1ka4lr9dsw96v)" rx="12" ry="12" style="stroke: #A80036; stroke-width: 2.0;"/><line style="stroke: #A80036; stroke-width: 2.0;" x1="131" x2="155" y1="68" y2="68"/><text fill="#000000" font-family="sans-serif" font-size="14" lengthAdjust="spacingAndGlyphs" textLength="60" x="110" y="606.7676">EventBus</text><ellipse cx="143" cy="625.8438" fill="#FEFECE" filter="url(#f1ka4lr9dsw96v)" rx="12" ry="12" style="stroke: #A80036; stroke-width: 2.0;"/><line style="stroke: #A80036; stroke-width: 2.0;" x1="131" x2="155" y1="639.8438" y2="639.8438"/><text fill="#000000" font-family="sans-serif" font-size="14" lengthAdjust="spacingAndGlyphs" textLength="18" x="266.5" y="84.5332">cpl</text><path d="M258,42 L258,66 M258,54 L275,54 " fill="none" filter="url(#f1ka4lr9dsw96v)" style="stroke: #A80036; stroke-width: 2.0;"/><ellipse cx="287" cy="54" fill="#FFFFFF" filter="url(#f1ka4lr9dsw96v)" rx="12" ry="12" style="stroke: #A80036; stroke-width: 2.0;"/><text fill="#000000" font-family="sans-serif" font-size="14" lengthAdjust="spacingAndGlyphs" textLength="18" x="266.5" y="606.7676">cpl</text><path d="M258,613.8438 L258,637.8438 M258,625.8438 L275,625.8438 " fill="none" filter="url(#f1ka4lr9dsw96v)" style="stroke: #A80036; stroke-width: 2.0;"/><ellipse cx="287" cy="625.8438" fill="#FFFFFF" filter="url(#f1ka4lr9dsw96v)" rx="12" ry="12" style="stroke: #A80036; stroke-width: 2.0;"/><rect fill="#FEFECE" filter="url(#f1ka4lr9dsw96v)" height="31.6094" style="stroke: #A80036; stroke-width: 1.5;" width="55" x="636.5" y="51"/><text fill="#000000" font-family="sans-serif" font-size="14" lengthAdjust="spacingAndGlyphs" textLength="41" x="643.5" y="72.5332">device</text><rect fill="#FEFECE" filter="url(#f1ka4lr9dsw96v)" height="31.6094" style="stroke: #A80036; stroke-width: 1.5;" width="55" x="636.5" y="592.2344"/><text fill="#000000" font-family="sans-serif" font-size="14" lengthAdjust="spacingAndGlyphs" textLength="41" x="643.5" y="613.7676">device</text><rect fill="#FEFECE" filter="url(#f1ka4lr9dsw96v)" height="31.6094" style="stroke: #A80036; stroke-width: 1.5;" width="128" x="705.5" y="51"/><text fill="#000000" font-family="sans-serif" font-size="14" lengthAdjust="spacingAndGlyphs" textLength="114" x="712.5" y="72.5332">aggregateddevice</text><rect fill="#FEFECE" filter="url(#f1ka4lr9dsw96v)" height="31.6094" style="stroke: #A80036; stroke-width: 1.5;" width="128" x="705.5" y="592.2344"/><text fill="#000000" font-family="sans-serif" font-size="14" lengthAdjust="spacingAndGlyphs" textLength="114" x="712.5" y="613.7676">aggregateddevice</text><rect fill="#FEFECE" filter="url(#f1ka4lr9dsw96v)" height="31.6094" style="stroke: #A80036; stroke-width: 1.5;" width="82" x="847.5" y="51"/><text fill="#000000" font-family="sans-serif" font-size="14" lengthAdjust="spacingAndGlyphs" textLength="68" x="854.5" y="72.5332">datacenter</text><rect fill="#FEFECE" filter="url(#f1ka4lr9dsw96v)" height="31.6094" style="stroke: #A80036; stroke-width: 1.5;" width="82" x="847.5" y="592.2344"/><text fill="#000000" font-family="sans-serif" font-size="14" lengthAdjust="spacingAndGlyphs" textLength="68" x="854.5" y="613.7676">datacenter</text><polygon fill="#A80036" points="266.5,115.9609,276.5,119.9609,266.5,123.9609,270.5,119.9609" style="stroke: #A80036; stroke-width: 1.0;"/><line style="stroke: #A80036; stroke-width: 1.0;" x1="54" x2="272.5" y1="119.9609" y2="119.9609"/><text fill="#000000" font-family="sans-serif" font-size="13" lengthAdjust="spacingAndGlyphs" textLength="119" x="61" y="115.1045">Manage Data Center</text><polygon fill="#A80036" points="654,146.3125,664,150.3125,654,154.3125,658,150.3125" style="stroke: #A80036; stroke-width: 1.0;"/><line style="stroke: #A80036; stroke-width: 1.0;" x1="278.5" x2="660" y1="150.3125" y2="150.3125"/><text fill="#000000" font-family="sans-serif" font-size="13" lengthAdjust="spacingAndGlyphs" textLength="310" x="285.5" y="145.4561">create (name: hostmdc1,file: ./templates/device.yaml)</text><polygon fill="#A80036" points="654,176.6641,664,180.6641,654,184.6641,658,180.6641" style="stroke: #A80036; stroke-width: 1.0;"/><line style="stroke: #A80036; stroke-width: 1.0;" x1="278.5" x2="660" y1="180.6641" y2="180.6641"/><text fill="#000000" font-family="sans-serif" font-size="13" lengthAdjust="spacingAndGlyphs" textLength="310" x="285.5" y="175.8076">create (name: hostmdc2,file: ./templates/device.yaml)</text><polygon fill="#A80036" points="654,207.0156,664,211.0156,654,215.0156,658,211.0156" style="stroke: #A80036; stroke-width: 1.0;"/><line style="stroke: #A80036; stroke-width: 1.0;" x1="278.5" x2="660" y1="211.0156" y2="211.0156"/><text fill="#000000" font-family="sans-serif" font-size="13" lengthAdjust="spacingAndGlyphs" textLength="310" x="285.5" y="206.1592">create (name: hostmdc3,file: ./templates/device.yaml)</text><polygon fill="#A80036" points="654,237.3672,664,241.3672,654,245.3672,658,241.3672" style="stroke: #A80036; stroke-width: 1.0;"/><line style="stroke: #A80036; stroke-width: 1.0;" x1="278.5" x2="660" y1="241.3672" y2="241.3672"/><text fill="#000000" font-family="sans-serif" font-size="13" lengthAdjust="spacingAndGlyphs" textLength="310" x="285.5" y="236.5107">create (name: hostmdc4,file: ./templates/device.yaml)</text><polygon fill="#A80036" points="654,267.7188,664,271.7188,654,275.7188,658,271.7188" style="stroke: #A80036; stroke-width: 1.0;"/><line style="stroke: #A80036; stroke-width: 1.0;" x1="278.5" x2="660" y1="271.7188" y2="271.7188"/><text fill="#000000" font-family="sans-serif" font-size="13" lengthAdjust="spacingAndGlyphs" textLength="310" x="285.5" y="266.8623">create (name: hostmdc5,file: ./templates/device.yaml)</text><polygon fill="#A80036" points="759.5,298.0703,769.5,302.0703,759.5,306.0703,763.5,302.0703" style="stroke: #A80036; stroke-width: 1.0;"/><line style="stroke: #A80036; stroke-width: 1.0;" x1="278.5" x2="765.5" y1="302.0703" y2="302.0703"/><text fill="#000000" font-family="sans-serif" font-size="13" lengthAdjust="spacingAndGlyphs" textLength="134" x="285.5" y="297.2139">create (name: admdc1)</text><polygon fill="#A80036" points="759.5,328.4219,769.5,332.4219,759.5,336.4219,763.5,332.4219" style="stroke: #A80036; stroke-width: 1.0;"/><line style="stroke: #A80036; stroke-width: 1.0;" x1="278.5" x2="765.5" y1="332.4219" y2="332.4219"/><text fill="#000000" font-family="sans-serif" font-size="13" lengthAdjust="spacingAndGlyphs" textLength="134" x="285.5" y="327.5654">create (name: admdc2)</text><polygon fill="#A80036" points="759.5,358.7734,769.5,362.7734,759.5,366.7734,763.5,362.7734" style="stroke: #A80036; stroke-width: 1.0;"/><line style="stroke: #A80036; stroke-width: 1.0;" x1="278.5" x2="765.5" y1="362.7734" y2="362.7734"/><text fill="#000000" font-family="sans-serif" font-size="13" lengthAdjust="spacingAndGlyphs" textLength="324" x="285.5" y="357.917">adddevices (name: admdc1,items: hostmdc1,hostmdc2)</text><polygon fill="#A80036" points="759.5,389.125,769.5,393.125,759.5,397.125,763.5,393.125" style="stroke: #A80036; stroke-width: 1.0;"/><line style="stroke: #A80036; stroke-width: 1.0;" x1="278.5" x2="765.5" y1="393.125" y2="393.125"/><text fill="#000000" font-family="sans-serif" font-size="13" lengthAdjust="spacingAndGlyphs" textLength="324" x="285.5" y="388.2686">adddevices (name: admdc2,items: hostmdc3,hostmdc4)</text><polygon fill="#A80036" points="878.5,419.4766,888.5,423.4766,878.5,427.4766,882.5,423.4766" style="stroke: #A80036; stroke-width: 1.0;"/><line style="stroke: #A80036; stroke-width: 1.0;" x1="278.5" x2="884.5" y1="423.4766" y2="423.4766"/><text fill="#000000" font-family="sans-serif" font-size="13" lengthAdjust="spacingAndGlyphs" textLength="134" x="285.5" y="418.6201">create (name: dcmdc1)</text><polygon fill="#A80036" points="878.5,449.8281,888.5,453.8281,878.5,457.8281,882.5,453.8281" style="stroke: #A80036; stroke-width: 1.0;"/><line style="stroke: #A80036; stroke-width: 1.0;" x1="278.5" x2="884.5" y1="453.8281" y2="453.8281"/><text fill="#000000" font-family="sans-serif" font-size="13" lengthAdjust="spacingAndGlyphs" textLength="324" x="285.5" y="448.9717">adddevices (name: dcmdc1,items: hostmdc1,hostmdc2)</text><polygon fill="#A80036" points="878.5,480.1797,888.5,484.1797,878.5,488.1797,882.5,484.1797" style="stroke: #A80036; stroke-width: 1.0;"/><line style="stroke: #A80036; stroke-width: 1.0;" x1="278.5" x2="884.5" y1="484.1797" y2="484.1797"/><text fill="#000000" font-family="sans-serif" font-size="13" lengthAdjust="spacingAndGlyphs" textLength="252" x="285.5" y="479.3232">adddevices (name: dcmdc1,items: admdc2)</text><polygon fill="#A80036" points="878.5,510.5313,888.5,514.5313,878.5,518.5313,882.5,514.5313" style="stroke: #A80036; stroke-width: 1.0;"/><line style="stroke: #A80036; stroke-width: 1.0;" x1="278.5" x2="884.5" y1="514.5313" y2="514.5313"/><text fill="#000000" font-family="sans-serif" font-size="13" lengthAdjust="spacingAndGlyphs" textLength="139" x="285.5" y="509.6748">disable (name: dcmdc1)</text><polygon fill="#A80036" points="878.5,540.8828,888.5,544.8828,878.5,548.8828,882.5,544.8828" style="stroke: #A80036; stroke-width: 1.0;"/><line style="stroke: #A80036; stroke-width: 1.0;" x1="278.5" x2="884.5" y1="544.8828" y2="544.8828"/><text fill="#000000" font-family="sans-serif" font-size="13" lengthAdjust="spacingAndGlyphs" textLength="136" x="285.5" y="540.0264">enable (name: dcmdc1)</text><polygon fill="#A80036" points="266.5,576.2344,276.5,576.2344,266.5,580.2344" style="stroke: #A80036; stroke-width: 1.0;"/><line style="stroke: #A80036; stroke-width: 1.0; stroke-dasharray: 2.0,2.0;" x1="143" x2="277.5" y1="575.2344" y2="575.2344"/><text fill="#000000" font-family="sans-serif" font-size="13" lengthAdjust="spacingAndGlyphs" textLength="58" x="150" y="570.3779">method2()</text><!--
@startuml

actor "IT Operations"


entity EventBus

box Common Physical Layer #lightgray
    boundary cpl #white
end box


box Common Physical Layer #lightgray
            participant device
            participant aggregateddevice
            participant datacenter
    end box


"IT Operations" -> cpl: Manage Data Center

    cpl -> "device": create (name: hostmdc1,file: ./templates/device.yaml)


    cpl -> "device": create (name: hostmdc2,file: ./templates/device.yaml)


    cpl -> "device": create (name: hostmdc3,file: ./templates/device.yaml)


    cpl -> "device": create (name: hostmdc4,file: ./templates/device.yaml)


    cpl -> "device": create (name: hostmdc5,file: ./templates/device.yaml)


    cpl -> "aggregateddevice": create (name: admdc1)


    cpl -> "aggregateddevice": create (name: admdc2)


    cpl -> "aggregateddevice": adddevices (name: admdc1,items: hostmdc1,hostmdc2)


    cpl -> "aggregateddevice": adddevices (name: admdc2,items: hostmdc3,hostmdc4)


    cpl -> "datacenter": create (name: dcmdc1)


    cpl -> "datacenter": adddevices (name: dcmdc1,items: hostmdc1,hostmdc2)


    cpl -> "datacenter": adddevices (name: dcmdc1,items: admdc2)


    cpl -> "datacenter": disable (name: dcmdc1)


    cpl -> "datacenter": enable (name: dcmdc1)





EventBus - -/ cpl : method2()
@enduml

PlantUML version 1.2019.05(Sat Apr 20 09:45:36 PDT 2019)
(GPL source distribution)
Java Runtime: OpenJDK Runtime Environment
JVM: OpenJDK 64-Bit Server VM
Java Version: 12.0.1+12
Operating System: Windows 10
OS Version: 10.0
Default Encoding: Cp1252
Language: en
Country: US
--></g></svg>