<?xml version="1.0" encoding="UTF-8" standalone="no"?><svg xmlns="http://www.w3.org/2000/svg" xmlns:xlink="http://www.w3.org/1999/xlink" contentScriptType="application/ecmascript" contentStyleType="text/css" height="266px" preserveAspectRatio="none" style="width:371px;height:266px;" version="1.1" viewBox="0 0 371 266" width="371px" zoomAndPan="magnify"><defs><filter height="300%" id="f1l1hy2bp2iort" width="300%" x="-1" y="-1"><feGaussianBlur result="blurOut" stdDeviation="2.0"/><feColorMatrix in="blurOut" result="blurOut2" type="matrix" values="0 0 0 0 0 0 0 0 0 0 0 0 0 0 0 0 0 0 .4 0"/><feOffset dx="4.0" dy="4.0" in="blurOut2" result="blurOut3"/><feBlend in="SourceGraphic" in2="blurOut3" mode="normal"/></filter></defs><g><rect fill="#D3D3D3" height="251.9219" style="stroke: #A80036; stroke-width: 1.0;" width="164" x="196.5" y="4"/><text fill="#000000" font-family="sans-serif" font-size="13" font-weight="bold" lengthAdjust="spacingAndGlyphs" textLength="154" x="199.5" y="17.4951">Common Physical Layer</text><line style="stroke: #A80036; stroke-width: 1.0; stroke-dasharray: 5.0,5.0;" x1="54" x2="54" y1="87.6094" y2="168.3125"/><line style="stroke: #A80036; stroke-width: 1.0; stroke-dasharray: 5.0,5.0;" x1="143" x2="143" y1="87.6094" y2="168.3125"/><line style="stroke: #A80036; stroke-width: 1.0; stroke-dasharray: 5.0,5.0;" x1="278" x2="278" y1="87.6094" y2="168.3125"/><text fill="#000000" font-family="sans-serif" font-size="14" lengthAdjust="spacingAndGlyphs" textLength="86" x="8" y="84.5332">IT Operations</text><ellipse cx="54" cy="13" fill="#FEFECE" filter="url(#f1l1hy2bp2iort)" rx="8" ry="8" style="stroke: #A80036; stroke-width: 2.0;"/><path d="M54,21 L54,48 M41,29 L67,29 M54,48 L41,63 M54,48 L67,63 " fill="none" filter="url(#f1l1hy2bp2iort)" style="stroke: #A80036; stroke-width: 2.0;"/><text fill="#000000" font-family="sans-serif" font-size="14" lengthAdjust="spacingAndGlyphs" textLength="86" x="8" y="181.8457">IT Operations</text><ellipse cx="54" cy="194.9219" fill="#FEFECE" filter="url(#f1l1hy2bp2iort)" rx="8" ry="8" style="stroke: #A80036; stroke-width: 2.0;"/><path d="M54,202.9219 L54,229.9219 M41,210.9219 L67,210.9219 M54,229.9219 L41,244.9219 M54,229.9219 L67,244.9219 " fill="none" filter="url(#f1l1hy2bp2iort)" style="stroke: #A80036; stroke-width: 2.0;"/><text fill="#000000" font-family="sans-serif" font-size="14" lengthAdjust="spacingAndGlyphs" textLength="60" x="110" y="84.5332">EventBus</text><ellipse cx="143" cy="54" fill="#FEFECE" filter="url(#f1l1hy2bp2iort)" rx="12" ry="12" style="stroke: #A80036; stroke-width: 2.0;"/><line style="stroke: #A80036; stroke-width: 2.0;" x1="131" x2="155" y1="68" y2="68"/><text fill="#000000" font-family="sans-serif" font-size="14" lengthAdjust="spacingAndGlyphs" textLength="60" x="110" y="181.8457">EventBus</text><ellipse cx="143" cy="200.9219" fill="#FEFECE" filter="url(#f1l1hy2bp2iort)" rx="12" ry="12" style="stroke: #A80036; stroke-width: 2.0;"/><line style="stroke: #A80036; stroke-width: 2.0;" x1="131" x2="155" y1="214.9219" y2="214.9219"/><text fill="#000000" font-family="sans-serif" font-size="14" lengthAdjust="spacingAndGlyphs" textLength="18" x="266.5" y="84.5332">cpl</text><path d="M258,42 L258,66 M258,54 L275,54 " fill="none" filter="url(#f1l1hy2bp2iort)" style="stroke: #A80036; stroke-width: 2.0;"/><ellipse cx="287" cy="54" fill="#FFFFFF" filter="url(#f1l1hy2bp2iort)" rx="12" ry="12" style="stroke: #A80036; stroke-width: 2.0;"/><text fill="#000000" font-family="sans-serif" font-size="14" lengthAdjust="spacingAndGlyphs" textLength="18" x="266.5" y="181.8457">cpl</text><path d="M258,188.9219 L258,212.9219 M258,200.9219 L275,200.9219 " fill="none" filter="url(#f1l1hy2bp2iort)" style="stroke: #A80036; stroke-width: 2.0;"/><ellipse cx="287" cy="200.9219" fill="#FFFFFF" filter="url(#f1l1hy2bp2iort)" rx="12" ry="12" style="stroke: #A80036; stroke-width: 2.0;"/><polygon fill="#A80036" points="266.5,115.9609,276.5,119.9609,266.5,123.9609,270.5,119.9609" style="stroke: #A80036; stroke-width: 1.0;"/><line style="stroke: #A80036; stroke-width: 1.0;" x1="54" x2="272.5" y1="119.9609" y2="119.9609"/><text fill="#000000" font-family="sans-serif" font-size="13" lengthAdjust="spacingAndGlyphs" textLength="88" x="61" y="115.1045">Remove Device</text><polygon fill="#A80036" points="266.5,151.3125,276.5,151.3125,266.5,155.3125" style="stroke: #A80036; stroke-width: 1.0;"/><line style="stroke: #A80036; stroke-width: 1.0; stroke-dasharray: 2.0,2.0;" x1="143" x2="277.5" y1="150.3125" y2="150.3125"/><text fill="#000000" font-family="sans-serif" font-size="13" lengthAdjust="spacingAndGlyphs" textLength="58" x="150" y="145.4561">method2()</text><!--
@startuml

actor "IT Operations"


entity EventBus

box Common Physical Layer #lightgray
    boundary cpl #white
end box



"IT Operations" -> cpl: Remove Device




EventBus - -/ cpl : method2()
@enduml

PlantUML version 1.2019.05(Sat Apr 20 09:45:36 PDT 2019)
(GPL source distribution)
Java Runtime: OpenJDK Runtime Environment
JVM: OpenJDK 64-Bit Server VM
Java Version: 12.0.1+12
Operating System: Windows 10
OS Version: 10.0
Default Encoding: Cp1252
Language: en
Country: US
--></g></svg>