<?xml version="1.0" encoding="UTF-8" standalone="no"?><svg xmlns="http://www.w3.org/2000/svg" xmlns:xlink="http://www.w3.org/1999/xlink" contentScriptType="application/ecmascript" contentStyleType="text/css" height="685px" preserveAspectRatio="none" style="width:673px;height:685px;" version="1.1" viewBox="0 0 673 685" width="673px" zoomAndPan="magnify"><defs><filter height="300%" id="f18zjptccx90if" width="300%" x="-1" y="-1"><feGaussianBlur result="blurOut" stdDeviation="2.0"/><feColorMatrix in="blurOut" result="blurOut2" type="matrix" values="0 0 0 0 0 0 0 0 0 0 0 0 0 0 0 0 0 0 .4 0"/><feOffset dx="4.0" dy="4.0" in="blurOut2" result="blurOut3"/><feBlend in="SourceGraphic" in2="blurOut3" mode="normal"/></filter></defs><g><!--cluster Storage Services--><polygon fill="#ADD8E6" filter="url(#f18zjptccx90if)" points="45.5,84,172.5,84,179.5,107.6094,651.5,107.6094,651.5,673,45.5,673,45.5,84" style="stroke: #000000; stroke-width: 1.5;"/><line style="stroke: #000000; stroke-width: 1.5;" x1="45.5" x2="179.5" y1="107.6094" y2="107.6094"/><text fill="#000000" font-family="sans-serif" font-size="14" font-weight="bold" lengthAdjust="spacingAndGlyphs" textLength="121" x="49.5" y="100.5332">Storage Services</text><!--cluster bin--><polygon fill="#FFFFFF" filter="url(#f18zjptccx90if)" points="154.5,128,182.5,128,189.5,151.6094,378.5,151.6094,378.5,218,154.5,218,154.5,128" style="stroke: #000000; stroke-width: 1.5;"/><line style="stroke: #000000; stroke-width: 1.5;" x1="154.5" x2="189.5" y1="151.6094" y2="151.6094"/><text fill="#000000" font-family="sans-serif" font-size="14" font-weight="bold" lengthAdjust="spacingAndGlyphs" textLength="22" x="158.5" y="144.5332">bin</text><!--cluster deploy--><polygon fill="#FFFFFF" filter="url(#f18zjptccx90if)" points="69.5,324,122.5,324,129.5,347.6094,627.5,347.6094,627.5,431,69.5,431,69.5,324" style="stroke: #000000; stroke-width: 1.5;"/><line style="stroke: #000000; stroke-width: 1.5;" x1="69.5" x2="129.5" y1="347.6094" y2="347.6094"/><text fill="#000000" font-family="sans-serif" font-size="14" font-weight="bold" lengthAdjust="spacingAndGlyphs" textLength="47" x="73.5" y="340.5332">deploy</text><!--cluster images--><polygon fill="#FFFFFF" filter="url(#f18zjptccx90if)" points="117.5,455,173.5,455,180.5,478.6094,627.5,478.6094,627.5,649,117.5,649,117.5,455" style="stroke: #000000; stroke-width: 1.5;"/><line style="stroke: #000000; stroke-width: 1.5;" x1="117.5" x2="180.5" y1="478.6094" y2="478.6094"/><text fill="#000000" font-family="sans-serif" font-size="14" font-weight="bold" lengthAdjust="spacingAndGlyphs" textLength="50" x="121.5" y="471.5332">images</text><!--entity REST--><rect fill="#FEFECE" filter="url(#f18zjptccx90if)" height="37.6094" style="stroke: #A80036; stroke-width: 1.5;" width="69" x="232" y="262"/><rect fill="#FEFECE" height="5" style="stroke: #A80036; stroke-width: 1.5;" width="10" x="227" y="267"/><rect fill="#FEFECE" height="5" style="stroke: #A80036; stroke-width: 1.5;" width="10" x="227" y="289.6094"/><text fill="#000000" font-family="sans-serif" font-size="14" lengthAdjust="spacingAndGlyphs" textLength="49" x="242" y="286.5332">express</text><!--entity socket--><rect fill="#FEFECE" filter="url(#f18zjptccx90if)" height="37.6094" style="stroke: #A80036; stroke-width: 1.5;" width="76" x="417.5" y="164"/><rect fill="#FEFECE" height="5" style="stroke: #A80036; stroke-width: 1.5;" width="10" x="412.5" y="169"/><rect fill="#FEFECE" height="5" style="stroke: #A80036; stroke-width: 1.5;" width="10" x="412.5" y="191.6094"/><text fill="#000000" font-family="sans-serif" font-size="14" lengthAdjust="spacingAndGlyphs" textLength="56" x="427.5" y="188.5332">socket.io</text><!--entity binName--><rect fill="#FEFECE" filter="url(#f18zjptccx90if)" height="37.6094" style="stroke: #A80036; stroke-width: 1.5;" width="191" x="171" y="164"/><rect fill="#FEFECE" height="5" style="stroke: #A80036; stroke-width: 1.5;" width="10" x="166" y="169"/><rect fill="#FEFECE" height="5" style="stroke: #A80036; stroke-width: 1.5;" width="10" x="166" y="191.6094"/><text fill="#000000" font-family="sans-serif" font-size="14" lengthAdjust="spacingAndGlyphs" textLength="171" x="181" y="188.5332">edgemere diml cds storage</text><!--entity storage_container--><polygon fill="#FEFECE" filter="url(#f18zjptccx90if)" points="85.5,360,85.5,415.2188,235.5,415.2188,235.5,370,225.5,360,85.5,360" style="stroke: #000000; stroke-width: 1.5;"/><path d="M225.5,360 L225.5,370 L235.5,370 " fill="#FEFECE" style="stroke: #000000; stroke-width: 1.5;"/><text fill="#000000" font-family="sans-serif" font-size="14" lengthAdjust="spacingAndGlyphs" textLength="90" x="95.5" y="384.5332">node server.js</text><text fill="#000000" font-family="sans-serif" font-size="14" lengthAdjust="spacingAndGlyphs" textLength="130" x="95.5" y="402.1426">docker-compose.yml</text><!--entity web_container--><polygon fill="#FEFECE" filter="url(#f18zjptccx90if)" points="472,368.5,472,406.1094,611,406.1094,611,378.5,601,368.5,472,368.5" style="stroke: #000000; stroke-width: 1.5;"/><path d="M601,368.5 L601,378.5 L611,378.5 " fill="#FEFECE" style="stroke: #000000; stroke-width: 1.5;"/><text fill="#000000" font-family="sans-serif" font-size="14" lengthAdjust="spacingAndGlyphs" textLength="119" x="482" y="393.0332">node web/server.js</text><!--entity gateway_container--><polygon fill="#FEFECE" filter="url(#f18zjptccx90if)" points="270.5,368.5,270.5,406.1094,436.5,406.1094,436.5,378.5,426.5,368.5,270.5,368.5" style="stroke: #000000; stroke-width: 1.5;"/><path d="M426.5,368.5 L426.5,378.5 L436.5,378.5 " fill="#FEFECE" style="stroke: #000000; stroke-width: 1.5;"/><text fill="#000000" font-family="sans-serif" font-size="14" lengthAdjust="spacingAndGlyphs" textLength="146" x="280.5" y="393.0332">node gateway/server.js</text><!--entity storageimage--><rect fill="#FEFECE" filter="url(#f18zjptccx90if)" height="33.6094" style="stroke: #000000; stroke-width: 1.5;" width="64" x="137.5" y="496.5"/><rect fill="#FEFECE" height="33.6094" style="stroke: #000000; stroke-width: 1.5;" width="64" x="133.5" y="492.5"/><text fill="#000000" font-family="sans-serif" font-size="14" lengthAdjust="spacingAndGlyphs" textLength="48" x="141.5" y="515.0332">storage</text><!--entity ailtireswarm--><rect fill="#FEFECE" filter="url(#f18zjptccx90if)" height="40.6094" style="stroke: #000000; stroke-width: 1.5;" width="108" x="133.5" y="592"/><polygon fill="#FEFECE" points="224.5,597,224.5,611,236.5,611,236.5,603,230.5,597,224.5,597" style="stroke: #000000; stroke-width: 1.5;"/><line style="stroke: #000000; stroke-width: 1.5;" x1="230.5" x2="230.5" y1="597" y2="603"/><line style="stroke: #000000; stroke-width: 1.5;" x1="236.5" x2="230.5" y1="603" y2="603"/><text fill="#000000" font-family="sans-serif" font-size="14" lengthAdjust="spacingAndGlyphs" textLength="78" x="143.5" y="619.5332">ailtire:swarm</text><!--entity diml_cds_storage_web--><rect fill="#FEFECE" filter="url(#f18zjptccx90if)" height="40.6094" style="stroke: #000000; stroke-width: 1.5;" width="174" x="437.5" y="491"/><polygon fill="#FEFECE" points="594.5,496,594.5,510,606.5,510,606.5,502,600.5,496,594.5,496" style="stroke: #000000; stroke-width: 1.5;"/><line style="stroke: #000000; stroke-width: 1.5;" x1="600.5" x2="600.5" y1="496" y2="502"/><line style="stroke: #000000; stroke-width: 1.5;" x1="606.5" x2="600.5" y1="502" y2="502"/><text fill="#000000" font-family="sans-serif" font-size="14" lengthAdjust="spacingAndGlyphs" textLength="144" x="447.5" y="518.5332">diml_cds_storage_web</text><!--entity diml_cds_storage_gw--><rect fill="#FEFECE" filter="url(#f18zjptccx90if)" height="40.6094" style="stroke: #000000; stroke-width: 1.5;" width="166" x="236.5" y="491"/><polygon fill="#FEFECE" points="385.5,496,385.5,510,397.5,510,397.5,502,391.5,496,385.5,496" style="stroke: #000000; stroke-width: 1.5;"/><line style="stroke: #000000; stroke-width: 1.5;" x1="391.5" x2="391.5" y1="496" y2="502"/><line style="stroke: #000000; stroke-width: 1.5;" x1="397.5" x2="391.5" y1="502" y2="502"/><text fill="#000000" font-family="sans-serif" font-size="14" lengthAdjust="spacingAndGlyphs" textLength="136" x="246.5" y="518.5332">diml_cds_storage_gw</text><!--entity CLI--><ellipse cx="266.5" cy="38" fill="#FEFECE" filter="url(#f18zjptccx90if)" rx="8" ry="8" style="stroke: #A80036; stroke-width: 2.0;"/><text fill="#000000" font-family="sans-serif" font-size="14" lengthAdjust="spacingAndGlyphs" textLength="21" x="256" y="69.5332">CLI</text><!--entity Web--><ellipse cx="20.5" cy="281" fill="#FEFECE" filter="url(#f18zjptccx90if)" rx="8" ry="8" style="stroke: #A80036; stroke-width: 2.0;"/><text fill="#000000" font-family="sans-serif" font-size="14" lengthAdjust="spacingAndGlyphs" textLength="29" x="6" y="312.5332">Web</text><!--entity WebSocket--><ellipse cx="455.5" cy="38" fill="#FEFECE" filter="url(#f18zjptccx90if)" rx="8" ry="8" style="stroke: #A80036; stroke-width: 2.0;"/><text fill="#000000" font-family="sans-serif" font-size="14" lengthAdjust="spacingAndGlyphs" textLength="72" x="419.5" y="69.5332">WebSocket</text><!--link binName to REST--><path d="M266.5,202.057 C266.5,217.513 266.5,239.865 266.5,256.673 " fill="none" id="binName-REST" style="stroke: #A80036; stroke-width: 1.0;"/><polygon fill="#A80036" points="266.5,261.698,270.5,252.698,266.5,256.698,262.5,252.698,266.5,261.698" style="stroke: #A80036; stroke-width: 1.0;"/><!--link REST to storage_container--><path d="M248.036,300.203 C232.355,315.662 209.528,338.166 191.117,356.316 " fill="none" id="REST-storage_container" style="stroke: #A80036; stroke-width: 1.0;"/><polygon fill="#A80036" points="187.497,359.885,196.7142,356.4146,191.0574,356.3746,191.0975,350.7178,187.497,359.885" style="stroke: #A80036; stroke-width: 1.0;"/><!--link REST to web_container--><path d="M301.105,283.229 C339.826,285.731 403.657,293.283 453.5,316 C479.334,327.775 504.141,348.835 520.793,364.881 " fill="none" id="REST-web_container" style="stroke: #A80036; stroke-width: 1.0;"/><polygon fill="#A80036" points="524.428,368.43,520.7831,359.2804,520.8506,364.9369,515.1941,365.0043,524.428,368.43" style="stroke: #A80036; stroke-width: 1.0;"/><!--link socket to web_container--><path d="M463.284,202.328 C479.017,239.375 514.569,323.087 531.789,363.635 " fill="none" id="socket-web_container" style="stroke: #A80036; stroke-width: 1.0;"/><polygon fill="#A80036" points="533.796,368.36,533.9569,358.5125,531.8402,363.7584,526.5943,361.6417,533.796,368.36" style="stroke: #A80036; stroke-width: 1.0;"/><!--link REST to gateway_container--><path d="M281.654,300.203 C296.409,317.925 318.871,344.905 334.745,363.972 " fill="none" id="REST-gateway_container" style="stroke: #A80036; stroke-width: 1.0;"/><polygon fill="#A80036" points="338.228,368.155,335.5427,358.6793,335.0285,364.3127,329.395,363.7985,338.228,368.155" style="stroke: #A80036; stroke-width: 1.0;"/><!--link socket to gateway_container--><path d="M446.268,202.328 C427.607,239.375 385.441,323.087 365.017,363.635 " fill="none" id="socket-gateway_container" style="stroke: #A80036; stroke-width: 1.0;"/><polygon fill="#A80036" points="362.637,368.36,370.2572,362.1204,364.8856,363.8942,363.1119,358.5226,362.637,368.36" style="stroke: #A80036; stroke-width: 1.0;"/><!--link storageimage to ailtireswarm--><path d="M175.156,550.398 C178.005,564.499 181.123,579.932 183.512,591.7594 " fill="none" id="storageimage-ailtireswarm" style="stroke: #A80036; stroke-width: 1.0;"/><polygon fill="none" points="168.267,551.648,171.168,530.658,181.99,548.876,168.267,551.648" style="stroke: #A80036; stroke-width: 1.0;"/><!--link storage_container to storageimage--><path d="M162.036,415.273 C163.275,436.871 165,466.931 166.178,487.465 " fill="none" id="storage_container-storageimage" style="stroke: #A80036; stroke-width: 1.0;"/><polygon fill="#A80036" points="166.465,492.469,169.9441,483.2551,166.1793,487.4772,161.9572,483.7123,166.465,492.469" style="stroke: #A80036; stroke-width: 1.0;"/><!--link web_container to diml_cds_storage_web--><path d="M538.992,406.502 C536.072,427.453 531.234,462.173 527.959,485.676 " fill="none" id="web_container-diml_cds_storage_web" style="stroke: #A80036; stroke-width: 1.0;"/><polygon fill="#A80036" points="527.244,490.805,532.4476,482.443,527.9339,485.8528,524.5241,481.3392,527.244,490.805" style="stroke: #A80036; stroke-width: 1.0;"/><!--link gateway_container to diml_cds_storage_gw--><path d="M348.483,406.502 C342.62,427.541 332.887,462.465 326.336,485.972 " fill="none" id="gateway_container-diml_cds_storage_gw" style="stroke: #A80036; stroke-width: 1.0;"/><polygon fill="#A80036" points="324.989,490.805,331.2588,483.2097,326.3316,485.9886,323.5527,481.0614,324.989,490.805" style="stroke: #A80036; stroke-width: 1.0;"/><!--link CLI to binName--><path d="M266.5,47.098 C266.5,69.432 266.5,132.318 266.5,163.705 " fill="none" id="CLI-binName" style="stroke: #A80036; stroke-width: 1.0;"/><text fill="#000000" font-family="sans-serif" font-size="13" lengthAdjust="spacingAndGlyphs" textLength="157" x="92.8969" y="44.8558">edgemere diml cds storage</text><!--link Web to REST--><path d="M29.6289,281 C97.02,281 164.411,281 231.802,281 " fill="none" id="Web-REST" style="stroke: #A80036; stroke-width: 1.0;"/><text fill="#000000" font-family="sans-serif" font-size="13" lengthAdjust="spacingAndGlyphs" textLength="161" x="37.6115" y="277.7983">/edgemere/diml/cds/storage</text><!--link WebSocket to socket--><path d="M455.5,47.098 C455.5,69.432 455.5,132.318 455.5,163.705 " fill="none" id="WebSocket-socket" style="stroke: #A80036; stroke-width: 1.0;"/><text fill="#000000" font-family="sans-serif" font-size="13" lengthAdjust="spacingAndGlyphs" textLength="161" x="277.8969" y="44.8558">.edgemere.diml.cds.storage</text><!--
@startuml
  interface CLI
  interface Web
  interface WebSocket
package "Storage Services" #lightblue {
  component express as REST
  component socket.io as socket
  folder bin #ffffff {
    component " edgemere diml cds storage" as binName
  }
  binName - -> REST

  folder deploy #ffffff {
      file "node server.js\ndocker-compose.yml" as storage_container
      REST - -> storage_container

  
    file "node web/server.js" as web_container
    REST - -> web_container
    socket - - -> web_container
  
    file "node gateway/server.js" as gateway_container
    REST - -> gateway_container
    socket - - -> gateway_container
  
  }
  folder images #ffffff {
    collections "storage" as storageimage
    artifact "ailtire:swarm" as ailtireswarm
    storageimage <|- - ailtireswarm
    storage_container - -> storageimage

  
      artifact diml_cds_storage_web
      web_container - -> diml_cds_storage_web
    
      artifact diml_cds_storage_gw
      gateway_container - -> diml_cds_storage_gw
    
  }
}
CLI " edgemere diml cds storage" - - binName
Web "/edgemere/diml/cds/storage" - REST
WebSocket ".edgemere.diml.cds.storage" - - socket

@enduml

PlantUML version 1.2019.05(Sat Apr 20 09:45:36 PDT 2019)
(GPL source distribution)
Java Runtime: OpenJDK Runtime Environment
JVM: OpenJDK 64-Bit Server VM
Java Version: 12.0.1+12
Operating System: Windows 10
OS Version: 10.0
Default Encoding: Cp1252
Language: en
Country: US
--></g></svg>