<?xml version="1.0" encoding="UTF-8" standalone="no"?><svg xmlns="http://www.w3.org/2000/svg" xmlns:xlink="http://www.w3.org/1999/xlink" contentScriptType="application/ecmascript" contentStyleType="text/css" height="196px" preserveAspectRatio="none" style="width:1093px;height:196px;" version="1.1" viewBox="0 0 1093 196" width="1093px" zoomAndPan="magnify"><defs><filter height="300%" id="f1i3h4o9a2w7r6" width="300%" x="-1" y="-1"><feGaussianBlur result="blurOut" stdDeviation="2.0"/><feColorMatrix in="blurOut" result="blurOut2" type="matrix" values="0 0 0 0 0 0 0 0 0 0 0 0 0 0 0 0 0 0 .4 0"/><feOffset dx="4.0" dy="4.0" in="blurOut2" result="blurOut3"/><feBlend in="SourceGraphic" in2="blurOut3" mode="normal"/></filter></defs><g><!--entity ApplicationInstance--><rect fill="#ADD8E6" filter="url(#f1i3h4o9a2w7r6)" height="37.6094" style="stroke: #000000; stroke-width: 1.5;" width="142" x="253.0171" y="148"/><text fill="#000000" font-family="sans-serif" font-size="14" lengthAdjust="spacingAndGlyphs" textLength="122" x="263.0171" y="172.5332">ApplicationInstance</text><!--entity Stack--><rect fill="#90EE90" filter="url(#f1i3h4o9a2w7r6)" height="37.6094" style="stroke: #000000; stroke-width: 1.5;" width="55" x="7.5171" y="148"/><text fill="#000000" font-family="sans-serif" font-size="14" lengthAdjust="spacingAndGlyphs" textLength="35" x="17.5171" y="172.5332">Stack</text><!--entity Stacklet--><rect fill="#ADD8E6" filter="url(#f1i3h4o9a2w7r6)" height="37.6094" style="stroke: #000000; stroke-width: 1.5;" width="70" x="430.0171" y="148"/><text fill="#000000" font-family="sans-serif" font-size="14" lengthAdjust="spacingAndGlyphs" textLength="50" x="440.0171" y="172.5332">Stacklet</text><!--entity ServiceInstance--><rect fill="#90EE90" filter="url(#f1i3h4o9a2w7r6)" height="37.6094" style="stroke: #000000; stroke-width: 1.5;" width="120" x="98.0171" y="148"/><text fill="#000000" font-family="sans-serif" font-size="14" lengthAdjust="spacingAndGlyphs" textLength="100" x="108.0171" y="172.5332">ServiceInstance</text><!--entity Image--><rect fill="#ADD8E6" filter="url(#f1i3h4o9a2w7r6)" height="37.6094" style="stroke: #000000; stroke-width: 1.5;" width="58" x="535.0171" y="148"/><text fill="#000000" font-family="sans-serif" font-size="14" lengthAdjust="spacingAndGlyphs" textLength="38" x="545.0171" y="172.5332">Image</text><!--entity DataInstance--><rect fill="#ADD8E6" filter="url(#f1i3h4o9a2w7r6)" height="37.6094" style="stroke: #000000; stroke-width: 1.5;" width="103" x="628.5171" y="148"/><text fill="#000000" font-family="sans-serif" font-size="14" lengthAdjust="spacingAndGlyphs" textLength="83" x="638.5171" y="172.5332">DataInstance</text><!--entity Resource--><rect fill="#ADD8E6" filter="url(#f1i3h4o9a2w7r6)" height="37.6094" style="stroke: #000000; stroke-width: 1.5;" width="81" x="766.5171" y="148"/><text fill="#000000" font-family="sans-serif" font-size="14" lengthAdjust="spacingAndGlyphs" textLength="61" x="776.5171" y="172.5332">Resource</text><!--entity Servicelet--><rect fill="#ADD8E6" filter="url(#f1i3h4o9a2w7r6)" height="37.6094" style="stroke: #000000; stroke-width: 1.5;" width="82" x="883.0171" y="148"/><text fill="#000000" font-family="sans-serif" font-size="14" lengthAdjust="spacingAndGlyphs" textLength="62" x="893.0171" y="172.5332">Servicelet</text><!--entity RunScript--><rect fill="#ADD8E6" filter="url(#f1i3h4o9a2w7r6)" height="37.6094" style="stroke: #000000; stroke-width: 1.5;" width="82" x="1000.0171" y="148"/><text fill="#000000" font-family="sans-serif" font-size="14" lengthAdjust="spacingAndGlyphs" textLength="62" x="1010.0171" y="172.5332">RunScript</text><!--class Model--><rect fill="#FEFECE" filter="url(#f1i3h4o9a2w7r6)" height="61.8359" id="Model" style="stroke: #A80036; stroke-width: 1.5;" width="109" x="410.5171" y="8"/><ellipse cx="425.5171" cy="24" fill="#ADD1B2" rx="11" ry="11" style="stroke: #A80036; stroke-width: 1.0;"/><path d="M428.2827,19.875 Q428.439,19.6563 428.6265,19.5469 Q428.814,19.4375 429.0327,19.4375 Q429.4077,19.4375 429.6421,19.7031 Q429.8765,19.9531 429.8765,20.5625 L429.8765,22.0156 Q429.8765,22.625 429.6421,22.8906 Q429.4077,23.1563 429.0327,23.1563 Q428.689,23.1563 428.4859,22.9531 Q428.2827,22.7656 428.1734,22.25 Q428.1265,21.8906 427.939,21.7031 Q427.6109,21.3281 427.0015,21.1094 Q426.3921,20.8906 425.7671,20.8906 Q425.0015,20.8906 424.3609,21.2188 Q423.7359,21.5469 423.2359,22.2969 Q422.7515,23.0469 422.7515,24.0781 L422.7515,25.1719 Q422.7515,26.4063 423.6421,27.2344 Q424.5327,28.0469 426.1265,28.0469 Q427.064,28.0469 427.7202,27.7969 Q428.1109,27.6406 428.5327,27.2031 Q428.7984,26.9375 428.939,26.8594 Q429.0952,26.7813 429.2984,26.7813 Q429.6265,26.7813 429.8765,27.0469 Q430.1421,27.2969 430.1421,27.6406 Q430.1421,27.9844 429.7984,28.3906 Q429.2984,28.9688 428.5015,29.2969 Q427.4234,29.75 426.1265,29.75 Q424.6109,29.75 423.4077,29.125 Q422.4234,28.625 421.7359,27.5625 Q421.0484,26.4844 421.0484,25.2031 L421.0484,24.0469 Q421.0484,22.7188 421.6577,21.5781 Q422.2827,20.4219 423.3765,19.8125 Q424.4702,19.1875 425.7046,19.1875 Q426.439,19.1875 427.0796,19.3594 Q427.7359,19.5156 428.2827,19.875 Z "/><text fill="#000000" font-family="sans-serif" font-size="12" lengthAdjust="spacingAndGlyphs" textLength="77" x="439.5171" y="28.9102">StackInstance</text><line style="stroke: #A80036; stroke-width: 1.5;" x1="411.5171" x2="518.5171" y1="40" y2="40"/><text fill="#000000" font-family="sans-serif" font-size="11" lengthAdjust="spacingAndGlyphs" textLength="56" x="416.5171" y="55.4189">string name</text><line style="stroke: #A80036; stroke-width: 1.5;" x1="411.5171" x2="518.5171" y1="61.8359" y2="61.8359"/><!--link Model to ApplicationInstance--><path d="M421.3621,79.011 C399.6161,98.4438 373.8641,121.456 354.3101,138.9292 " fill="none" id="Model-ApplicationInstance" style="stroke: #A80036; stroke-width: 1.0;"/><polygon fill="#A80036" points="344.4281,147.7606,353.8045,144.7467,348.1566,144.4291,348.4742,138.7812,344.4281,147.7606" style="stroke: #A80036; stroke-width: 1.0;"/><line style="stroke: #A80036; stroke-width: 1.0;" x1="348.1566" x2="354.1216" y1="144.4291" y2="139.0983"/><polygon fill="#FFFFFF" points="431.2441,70.18,424.1048,71.1952,422.2961,78.1758,429.4354,77.1606,431.2441,70.18" style="stroke: #A80036; stroke-width: 1.0;"/><text fill="#000000" font-family="sans-serif" font-size="13" lengthAdjust="spacingAndGlyphs" textLength="21" x="396.0171" y="114.4951">app</text><text fill="#000000" font-family="sans-serif" font-size="13" lengthAdjust="spacingAndGlyphs" textLength="7" x="342.6071" y="137.0273">1</text><!--link Model to Stack--><path d="M397.2561,39.066 C287.5381,39.163 78.5505,46.574 32.0171,100 C23.8615,109.3636 23.1401,122.6105 25.0238,134.7819 " fill="none" id="Model-Stack" style="stroke: #A80036; stroke-width: 1.0;"/><polygon fill="#A80036" points="28,147.8025,29.8939,138.1375,26.8858,142.9282,22.0951,139.9201,28,147.8025" style="stroke: #A80036; stroke-width: 1.0;"/><line style="stroke: #A80036; stroke-width: 1.0;" x1="26.8858" x2="25.1031" y1="142.9282" y2="135.1294"/><polygon fill="#FFFFFF" points="410.4481,39.089,404.4551,35.0785,398.4481,39.0679,404.4411,43.0784,410.4481,39.089" style="stroke: #A80036; stroke-width: 1.0;"/><text fill="#000000" font-family="sans-serif" font-size="13" lengthAdjust="spacingAndGlyphs" textLength="32" x="33.0171" y="114.4951">stack</text><text fill="#000000" font-family="sans-serif" font-size="13" lengthAdjust="spacingAndGlyphs" textLength="7" x="17.7791" y="137.082">1</text><!--link Stack to Model--><path d="M62.797,138.7575 C78.3892,125.0168 98.9132,109.3286 120.0171,100 C210.5191,59.995 325.3981,46.606 397.0741,42.159 " fill="none" id="Stack-Model" style="stroke: #A80036; stroke-width: 1.0;"/><polygon fill="#A80036" points="410.3761,41.406,401.1645,37.9208,405.3841,41.6884,401.6164,45.908,410.3761,41.406" style="stroke: #A80036; stroke-width: 1.0;"/><line style="stroke: #A80036; stroke-width: 1.0;" x1="405.3841" x2="397.3961" y1="41.6884" y2="42.1415"/><polygon fill="#A80036" points="52.8439,147.8571,59.9712,146.7608,61.7005,139.7601,54.5732,140.8564,52.8439,147.8571" style="stroke: #A80036; stroke-width: 1.0;"/><text fill="#000000" font-family="sans-serif" font-size="13" lengthAdjust="spacingAndGlyphs" textLength="56" x="121.0171" y="114.4951">instances</text><text fill="#000000" font-family="sans-serif" font-size="13" lengthAdjust="spacingAndGlyphs" textLength="7" x="395.5634" y="38.1841">n</text><!--link Model to Stacklet--><path d="M465.0171,83.325 C465.0171,100.1922 465.0171,119.1503 465.0171,134.6534 " fill="none" id="Model-Stacklet" style="stroke: #A80036; stroke-width: 1.0;"/><polygon fill="#A80036" points="465.0171,147.7606,469.0171,138.7606,465.0171,142.7606,461.0171,138.7606,465.0171,147.7606" style="stroke: #A80036; stroke-width: 1.0;"/><line style="stroke: #A80036; stroke-width: 1.0;" x1="465.0171" x2="465.0171" y1="142.7606" y2="134.7606"/><polygon fill="#FFFFFF" points="465.0171,70.18,461.0171,76.18,465.0171,82.18,469.0171,76.18,465.0171,70.18" style="stroke: #A80036; stroke-width: 1.0;"/><text fill="#000000" font-family="sans-serif" font-size="13" lengthAdjust="spacingAndGlyphs" textLength="46" x="466.0171" y="114.4951">stacklet</text><text fill="#000000" font-family="sans-serif" font-size="13" lengthAdjust="spacingAndGlyphs" textLength="7" x="456.9452" y="137.0273">1</text><!--link Model to ServiceInstance--><path d="M397.2701,42.289 C341.2141,47.122 261.7131,61.031 204.0171,100 C190.7731,108.9453 180.1781,123.0806 172.5101,135.9787 " fill="none" id="Model-ServiceInstance" style="stroke: #A80036; stroke-width: 1.0;"/><polygon fill="#A80036" points="166.0641,147.7562,173.8937,141.7815,168.4645,143.3701,166.876,137.9409,166.0641,147.7562" style="stroke: #A80036; stroke-width: 1.0;"/><line style="stroke: #A80036; stroke-width: 1.0;" x1="168.4645" x2="172.3056" y1="143.3701" y2="136.3524"/><polygon fill="#A80036" points="410.2771,41.293,403.9891,37.7629,398.3122,42.2095,404.6001,45.7396,410.2771,41.293" style="stroke: #A80036; stroke-width: 1.0;"/><text fill="#000000" font-family="sans-serif" font-size="13" lengthAdjust="spacingAndGlyphs" textLength="47" x="205.0171" y="114.4951">services</text><text fill="#000000" font-family="sans-serif" font-size="13" lengthAdjust="spacingAndGlyphs" textLength="7" x="160.4566" y="137.0216">n</text><!--link ServiceInstance to Model--><path d="M214.3951,142.8613 C266.2711,121.5701 343.2631,89.9707 398.2081,67.42 " fill="none" id="ServiceInstance-Model" style="stroke: #A80036; stroke-width: 1.0;"/><polygon fill="#A80036" points="410.4851,62.381,400.6403,62.0978,405.8595,64.2795,403.6779,69.4987,410.4851,62.381" style="stroke: #A80036; stroke-width: 1.0;"/><line style="stroke: #A80036; stroke-width: 1.0;" x1="405.8595" x2="398.4586" y1="64.2795" y2="67.317"/><polygon fill="#FFFFFF" points="202.1011,147.9067,209.1707,149.3284,213.2021,143.3495,206.1325,141.9278,202.1011,147.9067" style="stroke: #A80036; stroke-width: 1.0;"/><text fill="#000000" font-family="sans-serif" font-size="13" lengthAdjust="spacingAndGlyphs" textLength="32" x="313.0171" y="114.4951">stack</text><text fill="#000000" font-family="sans-serif" font-size="13" lengthAdjust="spacingAndGlyphs" textLength="7" x="395.6871" y="61.9776">1</text><!--link Model to Image--><path d="M504.2401,80.127 C510.0551,86.6106 515.8291,93.3733 521.0171,100 C529.9641,111.4289 538.8831,124.7253 546.2601,136.3764 " fill="none" id="Model-Image" style="stroke: #A80036; stroke-width: 1.0;"/><polygon fill="#A80036" points="553.3251,147.7752,551.9835,138.0181,550.691,143.5253,545.1838,142.2328,553.3251,147.7752" style="stroke: #A80036; stroke-width: 1.0;"/><line style="stroke: #A80036; stroke-width: 1.0;" x1="550.691" x2="546.4766" y1="143.5253" y2="136.7256"/><polygon fill="#FFFFFF" points="495.1481,70.229,496.261,77.3537,503.2657,79.0666,502.1528,71.9419,495.1481,70.229" style="stroke: #A80036; stroke-width: 1.0;"/><text fill="#000000" font-family="sans-serif" font-size="13" lengthAdjust="spacingAndGlyphs" textLength="35" x="535.0171" y="114.4951">image</text><text fill="#000000" font-family="sans-serif" font-size="13" lengthAdjust="spacingAndGlyphs" textLength="7" x="541.9788" y="137.0464">1</text><!--link Model to DataInstance--><path d="M531.3721,73.574 C547.1471,81.925 563.8081,91.0552 579.0171,100 C600.6501,112.7227 624.1571,127.9932 643.0451,140.6399 " fill="none" id="Model-DataInstance" style="stroke: #A80036; stroke-width: 1.0;"/><polygon fill="#A80036" points="653.8661,147.9358,648.6405,139.5876,649.7206,145.1404,644.1678,146.2204,653.8661,147.9358" style="stroke: #A80036; stroke-width: 1.0;"/><line style="stroke: #A80036; stroke-width: 1.0;" x1="649.7206" x2="643.0871" y1="145.1404" y2="140.6684"/><polygon fill="#FFFFFF" points="519.5211,67.355,522.9757,73.6848,530.1472,72.9305,526.6926,66.6007,519.5211,67.355" style="stroke: #A80036; stroke-width: 1.0;"/><text fill="#000000" font-family="sans-serif" font-size="13" lengthAdjust="spacingAndGlyphs" textLength="25" x="609.0171" y="114.4951">data</text><text fill="#000000" font-family="sans-serif" font-size="13" lengthAdjust="spacingAndGlyphs" textLength="7" x="637.7855" y="137.2562">n</text><!--link Model to Resource--><path d="M532.2631,61.655 C565.7161,72.684 606.6691,86.5727 643.0171,100 C680.5061,113.8487 722.2881,130.685 754.2971,143.8866 " fill="none" id="Model-Resource" style="stroke: #A80036; stroke-width: 1.0;"/><polygon fill="#A80036" points="766.4941,148.9363,759.7087,141.7978,761.8744,147.0237,756.6485,149.1894,766.4941,148.9363" style="stroke: #A80036; stroke-width: 1.0;"/><line style="stroke: #A80036; stroke-width: 1.0;" x1="761.8744" x2="754.4826" y1="147.0237" y2="143.9636"/><polygon fill="#FFFFFF" points="519.8351,57.575,524.2878,63.2472,531.2362,61.3187,526.7835,55.6465,519.8351,57.575" style="stroke: #A80036; stroke-width: 1.0;"/><text fill="#000000" font-family="sans-serif" font-size="13" lengthAdjust="spacingAndGlyphs" textLength="57" x="690.0171" y="114.4951">resources</text><text fill="#000000" font-family="sans-serif" font-size="13" lengthAdjust="spacingAndGlyphs" textLength="7" x="751.6525" y="141.8549">n</text><!--link Model to Servicelet--><path d="M532.5851,50.557 C592.0861,60.649 680.7411,77.632 756.0171,100 C795.5711,111.7533 838.8831,128.8774 871.6221,142.7376 " fill="none" id="Model-Servicelet" style="stroke: #A80036; stroke-width: 1.0;"/><polygon fill="#A80036" points="883.6221,147.8718,876.9207,140.6544,879.0251,145.9053,873.7742,148.0097,883.6221,147.8718" style="stroke: #A80036; stroke-width: 1.0;"/><line style="stroke: #A80036; stroke-width: 1.0;" x1="879.0251" x2="871.6696" y1="145.9053" y2="142.758"/><polygon fill="#FFFFFF" points="519.6031,48.386,524.8611,53.3209,531.4387,50.3654,526.1807,45.4305,519.6031,48.386" style="stroke: #A80036; stroke-width: 1.0;"/><text fill="#000000" font-family="sans-serif" font-size="13" lengthAdjust="spacingAndGlyphs" textLength="54" x="809.0171" y="114.4951">servicelet</text><text fill="#000000" font-family="sans-serif" font-size="13" lengthAdjust="spacingAndGlyphs" textLength="7" x="867.9803" y="140.0991">1</text><!--link Model to RunScript--><path d="M532.8511,45.28 C614.4161,52.705 754.9611,68.943 872.0171,100 C912.7811,110.8154 957.1351,128.3721 990.1721,142.6596 " fill="none" id="Model-RunScript" style="stroke: #A80036; stroke-width: 1.0;"/><polygon fill="#A80036" points="1002.2491,147.9545,995.6127,140.6773,997.6699,145.9468,992.4004,148.004,1002.2491,147.9545" style="stroke: #A80036; stroke-width: 1.0;"/><line style="stroke: #A80036; stroke-width: 1.0;" x1="997.6699" x2="990.3431" y1="145.9468" y2="142.7344"/><polygon fill="#A80036" points="519.7911,44.121,525.4137,48.6361,531.7441,45.1826,526.1214,40.6675,519.7911,44.121" style="stroke: #A80036; stroke-width: 1.0;"/><text fill="#000000" font-family="sans-serif" font-size="13" lengthAdjust="spacingAndGlyphs" textLength="59" x="926.0171" y="114.4951">runScripts</text><text fill="#000000" font-family="sans-serif" font-size="13" lengthAdjust="spacingAndGlyphs" textLength="7" x="984.9463" y="138.9477">n</text><!--
@startuml

class "StackInstance" as Model {
 string name

 
}

rectangle "ApplicationInstance" as ApplicationInstance #lightblue {
}

Model o- -> "1" ApplicationInstance : app


rectangle "Stack" as Stack #lightblue {
}

Model o- -> "1" Stack : stack


rectangle "Stacklet" as Stacklet #lightblue {
}

Model o- -> "1" Stacklet : stacklet


rectangle "ServiceInstance" as ServiceInstance #lightblue {
}

Model *- -> "n" ServiceInstance : services


rectangle "Image" as Image #lightblue {
}

Model o- -> "1" Image : image


rectangle "DataInstance" as DataInstance #lightblue {
}

Model o- -> "n" DataInstance : data


rectangle "Resource" as Resource #lightblue {
}

Model o- -> "n" Resource : resources


rectangle "Servicelet" as Servicelet #lightblue {
}

Model o- -> "1" Servicelet : servicelet


rectangle "RunScript" as RunScript #lightblue {
}

Model *- -> "n" RunScript : runScripts




    rectangle "Stack" as Stack #lightgreen {
    }
    
        Stack   *- -> "n" Model : "instances"
    
    rectangle "ServiceInstance" as ServiceInstance #lightgreen {
    }
    
        ServiceInstance   o- -> "1" Model : "stack"
    

@enduml

PlantUML version 1.2019.05(Sat Apr 20 09:45:36 PDT 2019)
(GPL source distribution)
Java Runtime: OpenJDK Runtime Environment
JVM: OpenJDK 64-Bit Server VM
Java Version: 12.0.1+12
Operating System: Windows 10
OS Version: 10.0
Default Encoding: Cp1252
Language: en
Country: US
--></g></svg>