<?xml version="1.0" encoding="UTF-8" standalone="no"?><svg xmlns="http://www.w3.org/2000/svg" xmlns:xlink="http://www.w3.org/1999/xlink" contentScriptType="application/ecmascript" contentStyleType="text/css" height="685px" preserveAspectRatio="none" style="width:506px;height:685px;" version="1.1" viewBox="0 0 506 685" width="506px" zoomAndPan="magnify"><defs><filter height="300%" id="fbu1lg5fx3mnx" width="300%" x="-1" y="-1"><feGaussianBlur result="blurOut" stdDeviation="2.0"/><feColorMatrix in="blurOut" result="blurOut2" type="matrix" values="0 0 0 0 0 0 0 0 0 0 0 0 0 0 0 0 0 0 .4 0"/><feOffset dx="4.0" dy="4.0" in="blurOut2" result="blurOut3"/><feBlend in="SourceGraphic" in2="blurOut3" mode="normal"/></filter></defs><g><!--cluster Service Controller--><polygon fill="#90EE90" filter="url(#fbu1lg5fx3mnx)" points="45.5,84,180.5,84,187.5,107.6094,484.5,107.6094,484.5,673,45.5,673,45.5,84" style="stroke: #000000; stroke-width: 1.5;"/><line style="stroke: #000000; stroke-width: 1.5;" x1="45.5" x2="187.5" y1="107.6094" y2="107.6094"/><text fill="#000000" font-family="sans-serif" font-size="14" font-weight="bold" lengthAdjust="spacingAndGlyphs" textLength="129" x="49.5" y="100.5332">Service Controller</text><!--cluster bin--><polygon fill="#FFFFFF" filter="url(#fbu1lg5fx3mnx)" points="80.5,128,108.5,128,115.5,151.6094,240.5,151.6094,240.5,218,80.5,218,80.5,128" style="stroke: #000000; stroke-width: 1.5;"/><line style="stroke: #000000; stroke-width: 1.5;" x1="80.5" x2="115.5" y1="151.6094" y2="151.6094"/><text fill="#000000" font-family="sans-serif" font-size="14" font-weight="bold" lengthAdjust="spacingAndGlyphs" textLength="22" x="84.5" y="144.5332">bin</text><!--cluster deploy--><polygon fill="#FFFFFF" filter="url(#fbu1lg5fx3mnx)" points="69.5,324,122.5,324,129.5,347.6094,460.5,347.6094,460.5,431,69.5,431,69.5,324" style="stroke: #000000; stroke-width: 1.5;"/><line style="stroke: #000000; stroke-width: 1.5;" x1="69.5" x2="129.5" y1="347.6094" y2="347.6094"/><text fill="#000000" font-family="sans-serif" font-size="14" font-weight="bold" lengthAdjust="spacingAndGlyphs" textLength="47" x="73.5" y="340.5332">deploy</text><!--cluster images--><polygon fill="#FFFFFF" filter="url(#fbu1lg5fx3mnx)" points="142.5,455,198.5,455,205.5,478.6094,413.5,478.6094,413.5,649,142.5,649,142.5,455" style="stroke: #000000; stroke-width: 1.5;"/><line style="stroke: #000000; stroke-width: 1.5;" x1="142.5" x2="205.5" y1="478.6094" y2="478.6094"/><text fill="#000000" font-family="sans-serif" font-size="14" font-weight="bold" lengthAdjust="spacingAndGlyphs" textLength="50" x="146.5" y="471.5332">images</text><!--entity REST--><rect fill="#FEFECE" filter="url(#fbu1lg5fx3mnx)" height="37.6094" style="stroke: #A80036; stroke-width: 1.5;" width="69" x="126" y="262"/><rect fill="#FEFECE" height="5" style="stroke: #A80036; stroke-width: 1.5;" width="10" x="121" y="267"/><rect fill="#FEFECE" height="5" style="stroke: #A80036; stroke-width: 1.5;" width="10" x="121" y="289.6094"/><text fill="#000000" font-family="sans-serif" font-size="14" lengthAdjust="spacingAndGlyphs" textLength="49" x="136" y="286.5332">express</text><!--entity socket--><rect fill="#FEFECE" filter="url(#fbu1lg5fx3mnx)" height="37.6094" style="stroke: #A80036; stroke-width: 1.5;" width="76" x="319.5" y="164"/><rect fill="#FEFECE" height="5" style="stroke: #A80036; stroke-width: 1.5;" width="10" x="314.5" y="169"/><rect fill="#FEFECE" height="5" style="stroke: #A80036; stroke-width: 1.5;" width="10" x="314.5" y="191.6094"/><text fill="#000000" font-family="sans-serif" font-size="14" lengthAdjust="spacingAndGlyphs" textLength="56" x="329.5" y="188.5332">socket.io</text><!--entity binName--><rect fill="#FEFECE" filter="url(#fbu1lg5fx3mnx)" height="37.6094" style="stroke: #A80036; stroke-width: 1.5;" width="127" x="97" y="164"/><rect fill="#FEFECE" height="5" style="stroke: #A80036; stroke-width: 1.5;" width="10" x="92" y="169"/><rect fill="#FEFECE" height="5" style="stroke: #A80036; stroke-width: 1.5;" width="10" x="92" y="191.6094"/><text fill="#000000" font-family="sans-serif" font-size="14" lengthAdjust="spacingAndGlyphs" textLength="107" x="107" y="188.5332">edgemere sml sc</text><!--entity sml_sc_container--><polygon fill="#FEFECE" filter="url(#fbu1lg5fx3mnx)" points="85.5,360,85.5,415.2188,235.5,415.2188,235.5,370,225.5,360,85.5,360" style="stroke: #000000; stroke-width: 1.5;"/><path d="M225.5,360 L225.5,370 L235.5,370 " fill="#FEFECE" style="stroke: #000000; stroke-width: 1.5;"/><text fill="#000000" font-family="sans-serif" font-size="14" lengthAdjust="spacingAndGlyphs" textLength="90" x="95.5" y="384.5332">node server.js</text><text fill="#000000" font-family="sans-serif" font-size="14" lengthAdjust="spacingAndGlyphs" textLength="130" x="95.5" y="402.1426">docker-compose.yml</text><!--entity controller_container--><polygon fill="#FEFECE" filter="url(#fbu1lg5fx3mnx)" points="271,368.5,271,406.1094,444,406.1094,444,378.5,434,368.5,271,368.5" style="stroke: #000000; stroke-width: 1.5;"/><path d="M434,368.5 L434,378.5 L444,378.5 " fill="#FEFECE" style="stroke: #000000; stroke-width: 1.5;"/><text fill="#000000" font-family="sans-serif" font-size="14" lengthAdjust="spacingAndGlyphs" textLength="153" x="281" y="393.0332">node controller/server.js</text><!--entity sml_scimage--><rect fill="#FEFECE" filter="url(#fbu1lg5fx3mnx)" height="33.6094" style="stroke: #000000; stroke-width: 1.5;" width="59" x="163" y="496.5"/><rect fill="#FEFECE" height="33.6094" style="stroke: #000000; stroke-width: 1.5;" width="59" x="159" y="492.5"/><text fill="#000000" font-family="sans-serif" font-size="14" lengthAdjust="spacingAndGlyphs" textLength="43" x="167" y="515.0332">sml_sc</text><!--entity ailtireswarm--><rect fill="#FEFECE" filter="url(#fbu1lg5fx3mnx)" height="40.6094" style="stroke: #000000; stroke-width: 1.5;" width="108" x="158.5" y="592"/><polygon fill="#FEFECE" points="249.5,597,249.5,611,261.5,611,261.5,603,255.5,597,249.5,597" style="stroke: #000000; stroke-width: 1.5;"/><line style="stroke: #000000; stroke-width: 1.5;" x1="255.5" x2="255.5" y1="597" y2="603"/><line style="stroke: #000000; stroke-width: 1.5;" x1="261.5" x2="255.5" y1="603" y2="603"/><text fill="#000000" font-family="sans-serif" font-size="14" lengthAdjust="spacingAndGlyphs" textLength="78" x="168.5" y="619.5332">ailtire:swarm</text><!--entity sml_sc_controller--><rect fill="#FEFECE" filter="url(#fbu1lg5fx3mnx)" height="40.6094" style="stroke: #000000; stroke-width: 1.5;" width="140" x="257.5" y="491"/><polygon fill="#FEFECE" points="380.5,496,380.5,510,392.5,510,392.5,502,386.5,496,380.5,496" style="stroke: #000000; stroke-width: 1.5;"/><line style="stroke: #000000; stroke-width: 1.5;" x1="386.5" x2="386.5" y1="496" y2="502"/><line style="stroke: #000000; stroke-width: 1.5;" x1="392.5" x2="386.5" y1="502" y2="502"/><text fill="#000000" font-family="sans-serif" font-size="14" lengthAdjust="spacingAndGlyphs" textLength="110" x="267.5" y="518.5332">sml_sc_controller</text><!--entity CLI--><ellipse cx="160.5" cy="38" fill="#FEFECE" filter="url(#fbu1lg5fx3mnx)" rx="8" ry="8" style="stroke: #A80036; stroke-width: 2.0;"/><text fill="#000000" font-family="sans-serif" font-size="14" lengthAdjust="spacingAndGlyphs" textLength="21" x="150" y="69.5332">CLI</text><!--entity Web--><ellipse cx="20.5" cy="281" fill="#FEFECE" filter="url(#fbu1lg5fx3mnx)" rx="8" ry="8" style="stroke: #A80036; stroke-width: 2.0;"/><text fill="#000000" font-family="sans-serif" font-size="14" lengthAdjust="spacingAndGlyphs" textLength="29" x="6" y="312.5332">Web</text><!--entity WebSocket--><ellipse cx="357.5" cy="38" fill="#FEFECE" filter="url(#fbu1lg5fx3mnx)" rx="8" ry="8" style="stroke: #A80036; stroke-width: 2.0;"/><text fill="#000000" font-family="sans-serif" font-size="14" lengthAdjust="spacingAndGlyphs" textLength="72" x="321.5" y="69.5332">WebSocket</text><!--link binName to REST--><path d="M160.5,202.057 C160.5,217.513 160.5,239.865 160.5,256.673 " fill="none" id="binName-REST" style="stroke: #A80036; stroke-width: 1.0;"/><polygon fill="#A80036" points="160.5,261.698,164.5,252.698,160.5,256.698,156.5,252.698,160.5,261.698" style="stroke: #A80036; stroke-width: 1.0;"/><!--link REST to sml_sc_container--><path d="M160.5,300.203 C160.5,315.147 160.5,336.673 160.5,354.487 " fill="none" id="REST-sml_sc_container" style="stroke: #A80036; stroke-width: 1.0;"/><polygon fill="#A80036" points="160.5,359.885,164.5,350.885,160.5,354.885,156.5,350.885,160.5,359.885" style="stroke: #A80036; stroke-width: 1.0;"/><!--link REST to controller_container--><path d="M195.403,292.716 C212.955,298.646 234.307,306.698 252.5,316 C280.06,330.091 309.107,350.042 329.646,365.125 " fill="none" id="REST-controller_container" style="stroke: #A80036; stroke-width: 1.0;"/><polygon fill="#A80036" points="333.896,368.266,329.0347,359.7005,329.8747,365.2946,324.2805,366.1346,333.896,368.266" style="stroke: #A80036; stroke-width: 1.0;"/><!--link socket to controller_container--><path d="M357.5,202.328 C357.5,239.225 357.5,322.407 357.5,363.138 " fill="none" id="socket-controller_container" style="stroke: #A80036; stroke-width: 1.0;"/><polygon fill="#A80036" points="357.5,368.36,361.5,359.36,357.5,363.36,353.5,359.36,357.5,368.36" style="stroke: #A80036; stroke-width: 1.0;"/><!--link sml_scimage to ailtireswarm--><path d="M198.922,550.398 C202.055,564.499 205.485,579.932 208.113,591.7594 " fill="none" id="sml_scimage-ailtireswarm" style="stroke: #A80036; stroke-width: 1.0;"/><polygon fill="none" points="192.041,551.7,194.535,530.658,205.707,548.663,192.041,551.7" style="stroke: #A80036; stroke-width: 1.0;"/><!--link sml_sc_container to sml_scimage--><path d="M167.084,415.273 C172.394,436.871 179.786,466.931 184.836,487.465 " fill="none" id="sml_sc_container-sml_scimage" style="stroke: #A80036; stroke-width: 1.0;"/><polygon fill="#A80036" points="186.066,492.469,187.8,482.774,184.8715,487.6138,180.0317,484.6852,186.066,492.469" style="stroke: #A80036; stroke-width: 1.0;"/><!--link controller_container to sml_sc_controller--><path d="M353.073,406.502 C347.921,427.453 339.384,462.173 333.604,485.676 " fill="none" id="controller_container-sml_sc_controller" style="stroke: #A80036; stroke-width: 1.0;"/><polygon fill="#A80036" points="332.343,490.805,338.3773,483.0212,333.5375,485.9498,330.609,481.11,332.343,490.805" style="stroke: #A80036; stroke-width: 1.0;"/><!--link CLI to binName--><path d="M160.5,47.098 C160.5,69.432 160.5,132.318 160.5,163.705 " fill="none" id="CLI-binName" style="stroke: #A80036; stroke-width: 1.0;"/><text fill="#000000" font-family="sans-serif" font-size="13" lengthAdjust="spacingAndGlyphs" textLength="100" x="43.275" y="45.0151">edgemere sml sc</text><!--link Web to REST--><path d="M29.5234,281 C61.6707,281 93.8179,281 125.965,281 " fill="none" id="Web-REST" style="stroke: #A80036; stroke-width: 1.0;"/><text fill="#000000" font-family="sans-serif" font-size="13" lengthAdjust="spacingAndGlyphs" textLength="104" x="37.2808" y="272.2135">/edgemere/sml/sc</text><!--link WebSocket to socket--><path d="M357.5,47.098 C357.5,69.432 357.5,132.318 357.5,163.705 " fill="none" id="WebSocket-socket" style="stroke: #A80036; stroke-width: 1.0;"/><text fill="#000000" font-family="sans-serif" font-size="13" lengthAdjust="spacingAndGlyphs" textLength="104" x="236.275" y="45.0151">.edgemere.sml.sc</text><!--
@startuml
  interface CLI
  interface Web
  interface WebSocket
package "Service Controller" #lightgreen {
  component express as REST
  component socket.io as socket
  folder bin #ffffff {
    component " edgemere sml sc" as binName
  }
  binName - -> REST

  folder deploy #ffffff {
      file "node server.js\ndocker-compose.yml" as sml_sc_container
      REST - -> sml_sc_container

  
    file "node controller/server.js" as controller_container
    REST - -> controller_container
    socket - - -> controller_container
  
  }
  folder images #ffffff {
    collections "sml_sc" as sml_scimage
    artifact "ailtire:swarm" as ailtireswarm
    sml_scimage <|- - ailtireswarm
    sml_sc_container - -> sml_scimage

  
      artifact sml_sc_controller
      controller_container - -> sml_sc_controller
    
  }
}
CLI " edgemere sml sc" - - binName
Web "/edgemere/sml/sc" - REST
WebSocket ".edgemere.sml.sc" - - socket

@enduml

PlantUML version 1.2019.05(Sat Apr 20 09:45:36 PDT 2019)
(GPL source distribution)
Java Runtime: OpenJDK Runtime Environment
JVM: OpenJDK 64-Bit Server VM
Java Version: 12.0.1+12
Operating System: Windows 10
OS Version: 10.0
Default Encoding: Cp1252
Language: en
Country: US
--></g></svg>