<?xml version="1.0" encoding="UTF-8" standalone="no"?><svg xmlns="http://www.w3.org/2000/svg" xmlns:xlink="http://www.w3.org/1999/xlink" contentScriptType="application/ecmascript" contentStyleType="text/css" height="261px" preserveAspectRatio="none" style="width:291px;height:261px;" version="1.1" viewBox="0 0 291 261" width="291px" zoomAndPan="magnify"><defs><filter height="300%" id="fl3q6sqo6bgg8" width="300%" x="-1" y="-1"><feGaussianBlur result="blurOut" stdDeviation="2.0"/><feColorMatrix in="blurOut" result="blurOut2" type="matrix" values="0 0 0 0 0 0 0 0 0 0 0 0 0 0 0 0 0 0 .4 0"/><feOffset dx="4.0" dy="4.0" in="blurOut2" result="blurOut3"/><feBlend in="SourceGraphic" in2="blurOut3" mode="normal"/></filter></defs><g><!--cluster Developer Services--><polygon fill="#ADD8E6" filter="url(#fl3q6sqo6bgg8)" points="62.5,42,208.5,42,215.5,65.6094,269.5,65.6094,269.5,158,62.5,158,62.5,42" style="stroke: #000000; stroke-width: 1.5;"/><line style="stroke: #000000; stroke-width: 1.5;" x1="62.5" x2="215.5" y1="65.6094" y2="65.6094"/><text fill="#000000" font-family="sans-serif" font-size="14" font-weight="bold" lengthAdjust="spacingAndGlyphs" textLength="140" x="66.5" y="58.5332">Developer Services</text><polygon fill="#FFC0CB" filter="url(#fl3q6sqo6bgg8)" points="6,194,121,194,128,217.6094,135,217.6094,135,249.2188,6,249.2188,6,194" style="stroke: #000000; stroke-width: 1.5;"/><line style="stroke: #000000; stroke-width: 1.5;" x1="6" x2="128" y1="217.6094" y2="217.6094"/><text fill="#000000" font-family="sans-serif" font-size="14" font-weight="bold" lengthAdjust="spacingAndGlyphs" textLength="109" x="10" y="210.5332">Security Aspect</text><!--class i--><rect fill="#FEFECE" filter="url(#fl3q6sqo6bgg8)" height="48" id="i" style="stroke: #A80036; stroke-width: 1.5;" width="139" x="106" y="86"/><ellipse cx="121" cy="102" fill="#B4A7E5" rx="11" ry="11" style="stroke: #A80036; stroke-width: 1.0;"/><path d="M121.9531,98.6406 L121.9531,105.2969 L123.6719,105.2969 Q124.2813,105.2969 124.5469,105.5313 Q124.8125,105.7656 124.8125,106.1563 Q124.8125,106.5313 124.5469,106.7656 Q124.2813,107 123.6719,107 L118.5313,107 Q117.9219,107 117.6563,106.7656 Q117.3906,106.5313 117.3906,106.1406 Q117.3906,105.7656 117.6563,105.5313 Q117.9219,105.2969 118.5313,105.2969 L120.25,105.2969 L120.25,98.6406 L118.5313,98.6406 Q117.9219,98.6406 117.6563,98.4063 Q117.3906,98.1719 117.3906,97.7813 Q117.3906,97.4063 117.6563,97.1719 Q117.9219,96.9375 118.5313,96.9375 L123.6719,96.9375 Q124.2813,96.9375 124.5469,97.1719 Q124.8125,97.4063 124.8125,97.7813 Q124.8125,98.1719 124.5469,98.4063 Q124.2813,98.6406 123.6719,98.6406 L121.9531,98.6406 Z "/><text fill="#000000" font-family="sans-serif" font-size="12" font-style="italic" lengthAdjust="spacingAndGlyphs" textLength="107" x="135" y="106.9102">Developer Services</text><line style="stroke: #A80036; stroke-width: 1.5;" x1="107" x2="244" y1="118" y2="118"/><line style="stroke: #A80036; stroke-width: 1.5;" x1="107" x2="244" y1="126" y2="126"/><ellipse cx="130.5" cy="13" fill="#FEFECE" filter="url(#fl3q6sqo6bgg8)" rx="5" ry="5" style="stroke: #A80036; stroke-width: 1.5;"/><text fill="#000000" font-family="sans-serif" font-size="12" lengthAdjust="spacingAndGlyphs" textLength="19" x="121" y="30.457">CLI</text><ellipse cx="175.5" cy="13" fill="#FEFECE" filter="url(#fl3q6sqo6bgg8)" rx="5" ry="5" style="stroke: #A80036; stroke-width: 1.5;"/><text fill="#000000" font-family="sans-serif" font-size="12" lengthAdjust="spacingAndGlyphs" textLength="32" x="159.5" y="30.457">REST</text><ellipse cx="220.5" cy="13" fill="#FEFECE" filter="url(#fl3q6sqo6bgg8)" rx="5" ry="5" style="stroke: #A80036; stroke-width: 1.5;"/><text fill="#000000" font-family="sans-serif" font-size="12" lengthAdjust="spacingAndGlyphs" textLength="25" x="208" y="30.457">Web</text><!--link ilol828 to i--><path d="M132.434,18.082 C137.884,29.589 153.682,62.941 164.549,85.882 " fill="none" id="ilol828-i" style="stroke: #A80036; stroke-width: 1.0;"/><!--link ilol831 to i--><path d="M175.5,18.082 C175.5,29.589 175.5,62.941 175.5,85.882 " fill="none" id="ilol831-i" style="stroke: #A80036; stroke-width: 1.0;"/><!--link ilol834 to i--><path d="M218.566,18.082 C213.116,29.589 197.318,62.941 186.451,85.882 " fill="none" id="ilol834-i" style="stroke: #A80036; stroke-width: 1.0;"/><!--link Developer Services to Security Aspect--><path d="M70.5,158.2243 C70.5,158.3573 70.5,158.4903 70.5,158.6234 C70.5,159.1558 70.5,159.689 70.5,160.223 C70.5,161.2909 70.5,162.3617 70.5,163.4336 C70.5,172.0093 70.5,180.6608 70.5,188.5446 " fill="none" id="Developer Services-Security Aspect" style="stroke: #A80036; stroke-width: 1.0;"/><polygon fill="#A80036" points="70.5,193.8839,74.5,184.8839,70.5,188.8839,66.5,184.8839,70.5,193.8839" style="stroke: #A80036; stroke-width: 1.0;"/><!--
@startuml


package "Security Aspect" #pink {
    }


package "Developer Services" #lightblue {

    interface "Developer Services" as i {
    
    }
}

CLI ()- - i
REST ()- - i
Web ()- - i

package "Developer Services" #lightblue {
    
}


    "Developer Services" - -> "Security Aspect"


@enduml

PlantUML version 1.2019.05(Sat Apr 20 09:45:36 PDT 2019)
(GPL source distribution)
Java Runtime: OpenJDK Runtime Environment
JVM: OpenJDK 64-Bit Server VM
Java Version: 12.0.1+12
Operating System: Windows 10
OS Version: 10.0
Default Encoding: Cp1252
Language: en
Country: US
--></g></svg>