<?xml version="1.0" encoding="UTF-8" standalone="no"?><svg xmlns="http://www.w3.org/2000/svg" xmlns:xlink="http://www.w3.org/1999/xlink" contentScriptType="application/ecmascript" contentStyleType="text/css" height="464px" preserveAspectRatio="none" style="width:1306px;height:464px;" version="1.1" viewBox="0 0 1306 464" width="1306px" zoomAndPan="magnify"><defs><filter height="300%" id="fbnsios7om5bf" width="300%" x="-1" y="-1"><feGaussianBlur result="blurOut" stdDeviation="2.0"/><feColorMatrix in="blurOut" result="blurOut2" type="matrix" values="0 0 0 0 0 0 0 0 0 0 0 0 0 0 0 0 0 0 .4 0"/><feOffset dx="4.0" dy="4.0" in="blurOut2" result="blurOut3"/><feBlend in="SourceGraphic" in2="blurOut3" mode="normal"/></filter></defs><g><!--entity PolicyCollection--><rect fill="#ADD8E6" filter="url(#fbnsios7om5bf)" height="37.6094" style="stroke: #000000; stroke-width: 1.5;" width="119" x="908.243" y="416"/><text fill="#000000" font-family="sans-serif" font-size="14" lengthAdjust="spacingAndGlyphs" textLength="99" x="918.243" y="440.5332">PolicyCollection</text><!--entity Stacklet--><rect fill="#90EE90" filter="url(#fbnsios7om5bf)" height="37.6094" style="stroke: #000000; stroke-width: 1.5;" width="70" x="26.7432" y="416"/><text fill="#000000" font-family="sans-serif" font-size="14" lengthAdjust="spacingAndGlyphs" textLength="50" x="36.7432" y="440.5332">Stacklet</text><!--entity Service--><rect fill="#90EE90" filter="url(#fbnsios7om5bf)" height="37.6094" style="stroke: #000000; stroke-width: 1.5;" width="67" x="264.243" y="416"/><text fill="#000000" font-family="sans-serif" font-size="14" lengthAdjust="spacingAndGlyphs" textLength="47" x="274.243" y="440.5332">Service</text><!--entity StackInstance--><rect fill="#90EE90" filter="url(#fbnsios7om5bf)" height="37.6094" style="stroke: #000000; stroke-width: 1.5;" width="108" x="485.743" y="416"/><text fill="#000000" font-family="sans-serif" font-size="14" lengthAdjust="spacingAndGlyphs" textLength="88" x="495.743" y="440.5332">StackInstance</text><!--entity Application--><rect fill="#90EE90" filter="url(#fbnsios7om5bf)" height="37.6094" style="stroke: #000000; stroke-width: 1.5;" width="89" x="659.243" y="416"/><text fill="#000000" font-family="sans-serif" font-size="14" lengthAdjust="spacingAndGlyphs" textLength="69" x="669.243" y="440.5332">Application</text><!--entity DataReference--><rect fill="#ADD8E6" filter="url(#fbnsios7om5bf)" height="37.6094" style="stroke: #000000; stroke-width: 1.5;" width="116" x="1062.74" y="416"/><text fill="#000000" font-family="sans-serif" font-size="14" lengthAdjust="spacingAndGlyphs" textLength="96" x="1072.74" y="440.5332">DataReference</text><!--entity Stack--><rect fill="#90EE90" filter="url(#fbnsios7om5bf)" height="37.6094" style="stroke: #000000; stroke-width: 1.5;" width="55" x="805.243" y="416"/><text fill="#000000" font-family="sans-serif" font-size="14" lengthAdjust="spacingAndGlyphs" textLength="35" x="815.243" y="440.5332">Stack</text><!--entity Servicelet--><rect fill="#ADD8E6" filter="url(#fbnsios7om5bf)" height="37.6094" style="stroke: #000000; stroke-width: 1.5;" width="82" x="1213.74" y="416"/><text fill="#000000" font-family="sans-serif" font-size="14" lengthAdjust="spacingAndGlyphs" textLength="62" x="1223.74" y="440.5332">Servicelet</text><!--entity StackletDefinition--><rect fill="#90EE90" filter="url(#fbnsios7om5bf)" height="37.6094" style="stroke: #000000; stroke-width: 1.5;" width="129" x="544.243" y="8"/><text fill="#000000" font-family="sans-serif" font-size="14" lengthAdjust="spacingAndGlyphs" textLength="109" x="554.243" y="32.5332">StackletDefinition</text><!--class Model--><rect fill="#FEFECE" filter="url(#fbnsios7om5bf)" height="214.0313" id="Model" style="stroke: #A80036; stroke-width: 1.5;" width="90" x="563.743" y="124"/><ellipse cx="591.343" cy="140" fill="#ADD1B2" rx="11" ry="11" style="stroke: #A80036; stroke-width: 1.0;"/><path d="M594.1086,135.875 Q594.2649,135.6563 594.4524,135.5469 Q594.6399,135.4375 594.8586,135.4375 Q595.2336,135.4375 595.468,135.7031 Q595.7024,135.9531 595.7024,136.5625 L595.7024,138.0156 Q595.7024,138.625 595.468,138.8906 Q595.2336,139.1563 594.8586,139.1563 Q594.5149,139.1563 594.3118,138.9531 Q594.1086,138.7656 593.9993,138.25 Q593.9524,137.8906 593.7649,137.7031 Q593.4368,137.3281 592.8274,137.1094 Q592.218,136.8906 591.593,136.8906 Q590.8274,136.8906 590.1868,137.2188 Q589.5618,137.5469 589.0618,138.2969 Q588.5774,139.0469 588.5774,140.0781 L588.5774,141.1719 Q588.5774,142.4063 589.468,143.2344 Q590.3586,144.0469 591.9524,144.0469 Q592.8899,144.0469 593.5461,143.7969 Q593.9368,143.6406 594.3586,143.2031 Q594.6243,142.9375 594.7649,142.8594 Q594.9211,142.7813 595.1243,142.7813 Q595.4524,142.7813 595.7024,143.0469 Q595.968,143.2969 595.968,143.6406 Q595.968,143.9844 595.6243,144.3906 Q595.1243,144.9688 594.3274,145.2969 Q593.2493,145.75 591.9524,145.75 Q590.4368,145.75 589.2336,145.125 Q588.2493,144.625 587.5618,143.5625 Q586.8743,142.4844 586.8743,141.2031 L586.8743,140.0469 Q586.8743,138.7188 587.4836,137.5781 Q588.1086,136.4219 589.2024,135.8125 Q590.2961,135.1875 591.5305,135.1875 Q592.2649,135.1875 592.9055,135.3594 Q593.5618,135.5156 594.1086,135.875 Z "/><text fill="#000000" font-family="sans-serif" font-size="12" lengthAdjust="spacingAndGlyphs" textLength="30" x="608.143" y="144.9102">Stack</text><line style="stroke: #A80036; stroke-width: 1.5;" x1="564.743" x2="652.743" y1="156" y2="156"/><text fill="#000000" font-family="sans-serif" font-size="11" lengthAdjust="spacingAndGlyphs" textLength="56" x="569.743" y="171.4189">string name</text><text fill="#000000" font-family="sans-serif" font-size="11" lengthAdjust="spacingAndGlyphs" textLength="66" x="569.743" y="185.2549">string version</text><text fill="#000000" font-family="sans-serif" font-size="11" lengthAdjust="spacingAndGlyphs" textLength="48" x="569.743" y="199.0908">json ports</text><text fill="#000000" font-family="sans-serif" font-size="11" lengthAdjust="spacingAndGlyphs" textLength="59" x="569.743" y="212.9268">json expose</text><text fill="#000000" font-family="sans-serif" font-size="11" lengthAdjust="spacingAndGlyphs" textLength="78" x="569.743" y="226.7627">json parameters</text><line style="stroke: #A80036; stroke-width: 1.5;" x1="564.743" x2="652.743" y1="233.1797" y2="233.1797"/><text fill="#000000" font-family="sans-serif" font-size="11" lengthAdjust="spacingAndGlyphs" textLength="39" x="569.743" y="248.5986">create()</text><text fill="#000000" font-family="sans-serif" font-size="11" lengthAdjust="spacingAndGlyphs" textLength="50" x="569.743" y="262.4346">createlet()</text><text fill="#000000" font-family="sans-serif" font-size="11" lengthAdjust="spacingAndGlyphs" textLength="38" x="569.743" y="276.2705">debug()</text><text fill="#000000" font-family="sans-serif" font-size="11" lengthAdjust="spacingAndGlyphs" textLength="40" x="569.743" y="290.1064">deploy()</text><text fill="#000000" font-family="sans-serif" font-size="11" lengthAdjust="spacingAndGlyphs" textLength="23" x="569.743" y="303.9424">get()</text><text fill="#000000" font-family="sans-serif" font-size="11" lengthAdjust="spacingAndGlyphs" textLength="36" x="569.743" y="317.7783">show()</text><text fill="#000000" font-family="sans-serif" font-size="11" lengthAdjust="spacingAndGlyphs" textLength="41" x="569.743" y="331.6143">update()</text><!--link Model to PolicyCollection--><path d="M666.165,259.357 C719.969,285.56 802.156,327.061 870.743,368 C891.6,380.4492 914.074,395.6215 932.132,408.2786 " fill="none" id="Model-PolicyCollection" style="stroke: #A80036; stroke-width: 1.0;"/><polygon fill="#A80036" points="942.752,415.7875,937.713,407.3253,938.6695,412.9007,933.0941,413.8573,942.752,415.7875" style="stroke: #A80036; stroke-width: 1.0;"/><line style="stroke: #A80036; stroke-width: 1.0;" x1="938.6695" x2="932.137" y1="412.9007" y2="408.282"/><polygon fill="#FFFFFF" points="654.128,253.52,657.7811,259.7373,664.9252,258.7564,661.2721,252.5391,654.128,253.52" style="stroke: #A80036; stroke-width: 1.0;"/><text fill="#000000" font-family="sans-serif" font-size="13" lengthAdjust="spacingAndGlyphs" textLength="44" x="899.743" y="382.4951">policies</text><text fill="#000000" font-family="sans-serif" font-size="13" lengthAdjust="spacingAndGlyphs" textLength="7" x="927.0266" y="405.0624">1</text><!--link Model to Stacklet--><path d="M550.622,236.255 C413.845,247.599 78.0716,283.64 10.7432,368 C0.4216,380.9325 9.4748,395.4692 22.6632,407.6016 " fill="none" id="Model-Stacklet" style="stroke: #A80036; stroke-width: 1.0;"/><polygon fill="#A80036" points="32.7793,415.9535,28.3857,407.1389,28.9236,412.7702,23.2924,413.3081,32.7793,415.9535" style="stroke: #A80036; stroke-width: 1.0;"/><line style="stroke: #A80036; stroke-width: 1.0;" x1="28.9236" x2="22.7545" y1="412.7702" y2="407.6769"/><polygon fill="#A80036" points="563.607,235.203,557.3035,231.7007,551.6462,236.1723,557.9497,239.6746,563.607,235.203" style="stroke: #A80036; stroke-width: 1.0;"/><text fill="#000000" font-family="sans-serif" font-size="13" lengthAdjust="spacingAndGlyphs" textLength="53" x="11.7432" y="382.4951">stacklets</text><text fill="#000000" font-family="sans-serif" font-size="13" lengthAdjust="spacingAndGlyphs" textLength="7" x="15.8372" y="405.2793">n</text><!--link Stacklet to Model--><path d="M85.824,406.1559 C98.584,392.9265 115.222,377.8837 132.743,368 C270.98,290.02 457.471,253.774 550.666,239.63 " fill="none" id="Stacklet-Model" style="stroke: #A80036; stroke-width: 1.0;"/><polygon fill="#A80036" points="563.722,237.701,554.234,235.0594,558.7757,238.4318,555.4033,242.9735,563.722,237.701" style="stroke: #A80036; stroke-width: 1.0;"/><line style="stroke: #A80036; stroke-width: 1.0;" x1="558.7757" x2="550.862" y1="238.4318" y2="239.601"/><polygon fill="#FFFFFF" points="76.872,415.8035,83.8853,414.126,85.0342,407.007,78.0209,408.6845,76.872,415.8035" style="stroke: #A80036; stroke-width: 1.0;"/><text fill="#000000" font-family="sans-serif" font-size="13" lengthAdjust="spacingAndGlyphs" textLength="32" x="133.743" y="382.4951">stack</text><text fill="#000000" font-family="sans-serif" font-size="13" lengthAdjust="spacingAndGlyphs" textLength="7" x="548.6857" y="253.6575">1</text><!--link Model to Service--><path d="M551.263,248.287 C490.326,268.037 394.408,306.533 331.743,368 C321.636,377.9143 313.942,391.4717 308.452,403.7205 " fill="none" id="Model-Service" style="stroke: #A80036; stroke-width: 1.0;"/><polygon fill="#A80036" points="303.52,415.8039,310.6245,408.9829,305.4095,411.1747,303.2177,405.9597,303.52,415.8039" style="stroke: #A80036; stroke-width: 1.0;"/><line style="stroke: #A80036; stroke-width: 1.0;" x1="305.4095" x2="308.433" y1="411.1747" y2="403.768"/><polygon fill="#A80036" points="563.71,244.355,556.7838,242.3481,552.2673,247.9696,559.1936,249.9765,563.71,244.355" style="stroke: #A80036; stroke-width: 1.0;"/><text fill="#000000" font-family="sans-serif" font-size="13" lengthAdjust="spacingAndGlyphs" textLength="47" x="332.743" y="382.4951">services</text><text fill="#000000" font-family="sans-serif" font-size="13" lengthAdjust="spacingAndGlyphs" textLength="7" x="297.2173" y="405.0839">n</text><!--link Model to Service--><path d="M553.075,272.532 C508.358,304.535 443.538,349.691 384.743,386 C371.461,394.2022 356.699,402.6034 343.161,410.038 " fill="none" id="Model-Service-1" style="stroke: #A80036; stroke-width: 1.0;"/><polygon fill="#A80036" points="331.649,416.2933,341.4667,415.5107,336.0423,413.906,337.647,408.4815,331.649,416.2933" style="stroke: #A80036; stroke-width: 1.0;"/><line style="stroke: #A80036; stroke-width: 1.0;" x1="336.0423" x2="343.0715" y1="413.906" y2="410.0869"/><polygon fill="#FFFFFF" points="563.712,264.896,556.5052,265.1454,553.9636,271.8938,561.1704,271.6444,563.712,264.896" style="stroke: #A80036; stroke-width: 1.0;"/><text fill="#000000" font-family="sans-serif" font-size="13" lengthAdjust="spacingAndGlyphs" textLength="45" x="410.743" y="382.4951">children</text><text fill="#000000" font-family="sans-serif" font-size="13" lengthAdjust="spacingAndGlyphs" textLength="7" x="339.364" y="408.3567">n</text><!--link Model to Service--><path d="M550.48,241.819 C443.84,261.105 224.112,307.389 179.743,368 C157.551,398.3161 209.238,416.5235 251.096,425.9126 " fill="none" id="Model-Service-2" style="stroke: #A80036; stroke-width: 1.0;"/><polygon fill="#A80036" points="263.956,428.6012,255.9649,422.8443,259.0618,427.5781,254.328,430.675,263.956,428.6012" style="stroke: #A80036; stroke-width: 1.0;"/><line style="stroke: #A80036; stroke-width: 1.0;" x1="259.0618" x2="251.231" y1="427.5781" y2="425.9408"/><polygon fill="#FFFFFF" points="563.519,239.493,556.9102,236.608,551.7052,241.5989,558.3141,244.4839,563.519,239.493" style="stroke: #A80036; stroke-width: 1.0;"/><text fill="#000000" font-family="sans-serif" font-size="13" lengthAdjust="spacingAndGlyphs" textLength="36" x="180.743" y="382.4951">parent</text><text fill="#000000" font-family="sans-serif" font-size="13" lengthAdjust="spacingAndGlyphs" textLength="7" x="249.2656" y="423.2031">1</text><!--link Service to Model--><path d="M277.601,404.2601 C272.132,392.3045 269.483,378.8195 276.743,368 C337.968,276.758 472.464,246.685 550.177,236.805 " fill="none" id="Service-Model" style="stroke: #A80036; stroke-width: 1.0;"/><polygon fill="#A80036" points="563.533,235.235,554.1273,232.3138,558.5672,235.8191,555.0619,240.259,563.533,235.235" style="stroke: #A80036; stroke-width: 1.0;"/><line style="stroke: #A80036; stroke-width: 1.0;" x1="558.5672" x2="550.6215" y1="235.8191" y2="236.7525"/><polygon fill="#FFFFFF" points="284.025,415.9896,284.651,408.8057,278.2605,405.4649,277.6345,412.6487,284.025,415.9896" style="stroke: #A80036; stroke-width: 1.0;"/><text fill="#000000" font-family="sans-serif" font-size="13" lengthAdjust="spacingAndGlyphs" textLength="32" x="277.743" y="382.4951">stack</text><text fill="#000000" font-family="sans-serif" font-size="13" lengthAdjust="spacingAndGlyphs" textLength="7" x="548.7698" y="232.1556">1</text><!--link Model to StackInstance--><path d="M555.093,287.291 C536.302,310.339 517.473,338.58 507.743,368 C503.618,380.4727 508.015,393.6109 514.734,404.8528 " fill="none" id="Model-StackInstance" style="stroke: #A80036; stroke-width: 1.0;"/><polygon fill="#A80036" points="522.318,415.7742,520.4698,406.1003,519.466,411.6674,513.8989,410.6635,522.318,415.7742" style="stroke: #A80036; stroke-width: 1.0;"/><line style="stroke: #A80036; stroke-width: 1.0;" x1="519.466" x2="514.903" y1="411.6674" y2="405.0961"/><polygon fill="#A80036" points="563.691,277.081,556.7664,279.0934,555.9606,286.2593,562.8853,284.2469,563.691,277.081" style="stroke: #A80036; stroke-width: 1.0;"/><text fill="#000000" font-family="sans-serif" font-size="13" lengthAdjust="spacingAndGlyphs" textLength="56" x="508.743" y="382.4951">instances</text><text fill="#000000" font-family="sans-serif" font-size="13" lengthAdjust="spacingAndGlyphs" textLength="7" x="508.9097" y="405.0451">n</text><!--link StackInstance to Model--><path d="M560.323,404.2238 C563.805,398.3564 567.133,392.118 569.743,386 C574.523,374.7978 578.815,362.8779 582.644,350.821 " fill="none" id="StackInstance-Model" style="stroke: #A80036; stroke-width: 1.0;"/><polygon fill="#A80036" points="586.468,338.232,580.0247,345.6808,585.0147,343.0161,587.6793,348.0061,586.468,338.232" style="stroke: #A80036; stroke-width: 1.0;"/><line style="stroke: #A80036; stroke-width: 1.0;" x1="585.0147" x2="582.6895" y1="343.0161" y2="350.6705"/><polygon fill="#FFFFFF" points="553.136,415.5891,559.7236,412.6558,559.5496,405.4468,552.962,408.3801,553.136,415.5891" style="stroke: #A80036; stroke-width: 1.0;"/><text fill="#000000" font-family="sans-serif" font-size="13" lengthAdjust="spacingAndGlyphs" textLength="32" x="577.743" y="382.4951">stack</text><text fill="#000000" font-family="sans-serif" font-size="13" lengthAdjust="spacingAndGlyphs" textLength="7" x="577.7362" y="359.48">1</text><!--link Model to Application--><path d="M659.535,343.27 C666.261,357.6791 673.12,372.2128 679.743,386 C682.57,391.884 685.647,398.1426 688.625,404.13 " fill="none" id="Model-Application" style="stroke: #A80036; stroke-width: 1.0;"/><polygon fill="#A80036" points="694.49,415.8323,694.0336,405.994,692.2498,411.3623,686.8815,409.5784,694.49,415.8323" style="stroke: #A80036; stroke-width: 1.0;"/><line style="stroke: #A80036; stroke-width: 1.0;" x1="692.2498" x2="688.6655" y1="411.3623" y2="404.21"/><polygon fill="#FFFFFF" points="653.924,331.214,652.8292,338.3415,658.9873,342.0935,660.0821,334.966,653.924,331.214" style="stroke: #A80036; stroke-width: 1.0;"/><text fill="#000000" font-family="sans-serif" font-size="13" lengthAdjust="spacingAndGlyphs" textLength="21" x="680.743" y="382.4951">app</text><text fill="#000000" font-family="sans-serif" font-size="13" lengthAdjust="spacingAndGlyphs" textLength="7" x="683.5844" y="405.121">1</text><!--link Application to Model--><path d="M709.637,402.6873 C710.583,391.5106 710.286,378.9754 706.743,368 C697.518,339.419 679.806,311.782 661.948,288.971 " fill="none" id="Application-Model" style="stroke: #A80036; stroke-width: 1.0;"/><polygon fill="#A80036" points="653.763,278.843,656.3088,288.3571,656.9057,282.7319,662.531,283.3288,653.763,278.843" style="stroke: #A80036; stroke-width: 1.0;"/><line style="stroke: #A80036; stroke-width: 1.0;" x1="656.9057" x2="661.935" y1="282.7319" y2="288.954"/><polygon fill="#A80036" points="707.926,415.8982,712.6637,410.4619,709.4678,403.9977,704.73,409.434,707.926,415.8982" style="stroke: #A80036; stroke-width: 1.0;"/><text fill="#000000" font-family="sans-serif" font-size="13" lengthAdjust="spacingAndGlyphs" textLength="39" x="711.743" y="382.4951">stacks</text><text fill="#000000" font-family="sans-serif" font-size="13" lengthAdjust="spacingAndGlyphs" textLength="7" x="661.7991" y="282.9636">n</text><!--link Model to DataReference--><path d="M666.442,254.764 C764.84,293.585 964.008,372.163 1062.66,411.086 " fill="none" id="Model-DataReference" style="stroke: #A80036; stroke-width: 1.0;"/><polygon fill="#A80036" points="1075.04,415.9691,1068.1362,408.945,1070.389,414.134,1065.2,416.3867,1075.04,415.9691" style="stroke: #A80036; stroke-width: 1.0;"/><line style="stroke: #A80036; stroke-width: 1.0;" x1="1070.389" x2="1062.95" y1="414.134" y2="411.198"/><polygon fill="#A80036" points="654.18,249.926,658.2931,255.849,665.3425,254.3303,661.2294,248.4073,654.18,249.926" style="stroke: #A80036; stroke-width: 1.0;"/><text fill="#000000" font-family="sans-serif" font-size="13" lengthAdjust="spacingAndGlyphs" textLength="25" x="998.743" y="382.4951">data</text><text fill="#000000" font-family="sans-serif" font-size="13" lengthAdjust="spacingAndGlyphs" textLength="7" x="1052.9725" y="405.2997">n</text><!--link Model to Stack--><path d="M663.841,281.579 C692.46,307.343 727.995,339.351 759.743,368 C773.856,380.7349 789.49,394.8665 802.657,406.7755 " fill="none" id="Model-Stack" style="stroke: #A80036; stroke-width: 1.0;"/><polygon fill="#A80036" points="812.612,415.7806,808.6212,406.7765,808.9041,412.4263,803.2543,412.7092,812.612,415.7806" style="stroke: #A80036; stroke-width: 1.0;"/><line style="stroke: #A80036; stroke-width: 1.0;" x1="808.9041" x2="802.9715" y1="412.4263" y2="407.0597"/><polygon fill="#FFFFFF" points="654.025,272.743,655.8081,279.7302,662.9436,280.7716,661.1605,273.7844,654.025,272.743" style="stroke: #A80036; stroke-width: 1.0;"/><text fill="#000000" font-family="sans-serif" font-size="13" lengthAdjust="spacingAndGlyphs" textLength="32" x="779.743" y="382.4951">stack</text><text fill="#000000" font-family="sans-serif" font-size="13" lengthAdjust="spacingAndGlyphs" textLength="7" x="798.375" y="405.0534">1</text><!--link Stack to Model--><path d="M832.195,402.4027 C830.715,390.7931 827.47,378.0438 820.743,368 C783.506,312.401 715.032,274.675 665.973,253.322 " fill="none" id="Stack-Model" style="stroke: #A80036; stroke-width: 1.0;"/><polygon fill="#A80036" points="653.949,248.246,660.6847,255.4314,658.5553,250.1906,663.7961,248.0613,653.949,248.246" style="stroke: #A80036; stroke-width: 1.0;"/><line style="stroke: #A80036; stroke-width: 1.0;" x1="658.5553" x2="665.9255" y1="250.1906" y2="253.3025"/><polygon fill="#FFFFFF" points="833.241,415.7402,836.7595,409.4457,832.3025,403.777,828.784,410.0714,833.241,415.7402" style="stroke: #A80036; stroke-width: 1.0;"/><text fill="#000000" font-family="sans-serif" font-size="13" lengthAdjust="spacingAndGlyphs" textLength="32" x="829.743" y="382.4951">stack</text><text fill="#000000" font-family="sans-serif" font-size="13" lengthAdjust="spacingAndGlyphs" textLength="7" x="661.7115" y="247.2402">1</text><!--link Model to Servicelet--><path d="M666.51,250.063 C790.545,288.848 1080.82,379.6168 1201.09,417.2222 " fill="none" id="Model-Servicelet" style="stroke: #A80036; stroke-width: 1.0;"/><polygon fill="#A80036" points="1213.54,421.1161,1206.1468,414.6092,1208.7685,419.6218,1203.7559,422.2435,1213.54,421.1161" style="stroke: #A80036; stroke-width: 1.0;"/><line style="stroke: #A80036; stroke-width: 1.0;" x1="1208.7685" x2="1201.13" y1="419.6218" y2="417.2363"/><polygon fill="#A80036" points="653.912,246.124,658.4452,251.732,665.3654,249.7044,660.8322,244.0964,653.912,246.124" style="stroke: #A80036; stroke-width: 1.0;"/><text fill="#000000" font-family="sans-serif" font-size="13" lengthAdjust="spacingAndGlyphs" textLength="61" x="1099.74" y="382.4951">servicelets</text><text fill="#000000" font-family="sans-serif" font-size="13" lengthAdjust="spacingAndGlyphs" textLength="7" x="1198.8572" y="414.9137">n</text><!--link StackletDefinition to Model--><path d="M608.743,59.439 C608.743,73.793 608.743,91.792 608.743,110.675 " fill="none" id="StackletDefinition-Model" style="stroke: #A80036; stroke-width: 1.0;"/><polygon fill="#A80036" points="608.743,123.855,612.743,114.855,608.743,118.855,604.743,114.855,608.743,123.855" style="stroke: #A80036; stroke-width: 1.0;"/><line style="stroke: #A80036; stroke-width: 1.0;" x1="608.743" x2="608.743" y1="118.855" y2="110.855"/><polygon fill="#FFFFFF" points="608.743,46.282,604.743,52.282,608.743,58.282,612.743,52.282,608.743,46.282" style="stroke: #A80036; stroke-width: 1.0;"/><text fill="#000000" font-family="sans-serif" font-size="13" lengthAdjust="spacingAndGlyphs" textLength="32" x="609.743" y="90.4951">stack</text><text fill="#000000" font-family="sans-serif" font-size="13" lengthAdjust="spacingAndGlyphs" textLength="7" x="601.4969" y="113.2652">1</text><!--
@startuml

class "Stack" as Model {
 string name
 string version
 json ports
 json expose
 json parameters

 create()
 createlet()
 debug()
 deploy()
 get()
 show()
 update()
 
}

rectangle "PolicyCollection" as PolicyCollection #lightblue {
}

Model o- -> "1" PolicyCollection : policies


rectangle "Stacklet" as Stacklet #lightblue {
}

Model *- -> "n" Stacklet : stacklets


rectangle "Service" as Service #lightblue {
}

Model *- -> "n" Service : services


rectangle "StackInstance" as StackInstance #lightblue {
}

Model *- -> "n" StackInstance : instances


rectangle "Application" as Application #lightblue {
}

Model o- -> "1" Application : app


rectangle "DataReference" as DataReference #lightblue {
}

Model *- -> "n" DataReference : data


rectangle "Stack" as Stack #lightblue {
}

Model o- -> "1" Stack : stack


rectangle "Servicelet" as Servicelet #lightblue {
}

Model *- -> "n" Servicelet : servicelets


rectangle "Service" as Service #lightblue {
}

Model o- -> "n" Service : children


rectangle "Service" as Service #lightblue {
}

Model o- -> "1" Service : parent




    rectangle "Application" as Application #lightgreen {
    }
    
        Application   *- -> "n" Model : "stacks"
    
    rectangle "Service" as Service #lightgreen {
    }
    
        Service   o- -> "1" Model : "stack"
    
    rectangle "Stack" as Stack #lightgreen {
    }
    
        Stack   o- -> "1" Model : "stack"
    
    rectangle "Stacklet" as Stacklet #lightgreen {
    }
    
        Stacklet   o- -> "1" Model : "stack"
    
    rectangle "StackletDefinition" as StackletDefinition #lightgreen {
    }
    
        StackletDefinition   o- -> "1" Model : "stack"
    
    rectangle "StackInstance" as StackInstance #lightgreen {
    }
    
        StackInstance   o- -> "1" Model : "stack"
    

@enduml

PlantUML version 1.2019.05(Sat Apr 20 09:45:36 PDT 2019)
(GPL source distribution)
Java Runtime: OpenJDK Runtime Environment
JVM: OpenJDK 64-Bit Server VM
Java Version: 12.0.1+12
Operating System: Windows 10
OS Version: 10.0
Default Encoding: Cp1252
Language: en
Country: US
--></g></svg>