<?xml version="1.0" encoding="UTF-8" standalone="no"?><svg xmlns="http://www.w3.org/2000/svg" xmlns:xlink="http://www.w3.org/1999/xlink" contentScriptType="application/ecmascript" contentStyleType="text/css" height="685px" preserveAspectRatio="none" style="width:673px;height:685px;" version="1.1" viewBox="0 0 673 685" width="673px" zoomAndPan="magnify"><defs><filter height="300%" id="f1e7kmvhrfuoxl" width="300%" x="-1" y="-1"><feGaussianBlur result="blurOut" stdDeviation="2.0"/><feColorMatrix in="blurOut" result="blurOut2" type="matrix" values="0 0 0 0 0 0 0 0 0 0 0 0 0 0 0 0 0 0 .4 0"/><feOffset dx="4.0" dy="4.0" in="blurOut2" result="blurOut3"/><feBlend in="SourceGraphic" in2="blurOut3" mode="normal"/></filter></defs><g><!--cluster Service Management Layer--><polygon fill="#90EE90" filter="url(#f1e7kmvhrfuoxl)" points="45.5,84,242.5,84,249.5,107.6094,651.5,107.6094,651.5,673,45.5,673,45.5,84" style="stroke: #000000; stroke-width: 1.5;"/><line style="stroke: #000000; stroke-width: 1.5;" x1="45.5" x2="249.5" y1="107.6094" y2="107.6094"/><text fill="#000000" font-family="sans-serif" font-size="14" font-weight="bold" lengthAdjust="spacingAndGlyphs" textLength="191" x="49.5" y="100.5332">Service Management Layer</text><!--cluster bin--><polygon fill="#FFFFFF" filter="url(#f1e7kmvhrfuoxl)" points="204.5,128,232.5,128,239.5,151.6094,346.5,151.6094,346.5,218,204.5,218,204.5,128" style="stroke: #000000; stroke-width: 1.5;"/><line style="stroke: #000000; stroke-width: 1.5;" x1="204.5" x2="239.5" y1="151.6094" y2="151.6094"/><text fill="#000000" font-family="sans-serif" font-size="14" font-weight="bold" lengthAdjust="spacingAndGlyphs" textLength="22" x="208.5" y="144.5332">bin</text><!--cluster deploy--><polygon fill="#FFFFFF" filter="url(#f1e7kmvhrfuoxl)" points="69.5,324,122.5,324,129.5,347.6094,627.5,347.6094,627.5,431,69.5,431,69.5,324" style="stroke: #000000; stroke-width: 1.5;"/><line style="stroke: #000000; stroke-width: 1.5;" x1="69.5" x2="129.5" y1="347.6094" y2="347.6094"/><text fill="#000000" font-family="sans-serif" font-size="14" font-weight="bold" lengthAdjust="spacingAndGlyphs" textLength="47" x="73.5" y="340.5332">deploy</text><!--cluster images--><polygon fill="#FFFFFF" filter="url(#f1e7kmvhrfuoxl)" points="222.5,455,278.5,455,285.5,478.6094,526.5,478.6094,526.5,649,222.5,649,222.5,455" style="stroke: #000000; stroke-width: 1.5;"/><line style="stroke: #000000; stroke-width: 1.5;" x1="222.5" x2="285.5" y1="478.6094" y2="478.6094"/><text fill="#000000" font-family="sans-serif" font-size="14" font-weight="bold" lengthAdjust="spacingAndGlyphs" textLength="50" x="226.5" y="471.5332">images</text><!--entity REST--><rect fill="#FEFECE" filter="url(#f1e7kmvhrfuoxl)" height="37.6094" style="stroke: #A80036; stroke-width: 1.5;" width="69" x="241" y="262"/><rect fill="#FEFECE" height="5" style="stroke: #A80036; stroke-width: 1.5;" width="10" x="236" y="267"/><rect fill="#FEFECE" height="5" style="stroke: #A80036; stroke-width: 1.5;" width="10" x="236" y="289.6094"/><text fill="#000000" font-family="sans-serif" font-size="14" lengthAdjust="spacingAndGlyphs" textLength="49" x="251" y="286.5332">express</text><!--entity socket--><rect fill="#FEFECE" filter="url(#f1e7kmvhrfuoxl)" height="37.6094" style="stroke: #A80036; stroke-width: 1.5;" width="76" x="397.5" y="164"/><rect fill="#FEFECE" height="5" style="stroke: #A80036; stroke-width: 1.5;" width="10" x="392.5" y="169"/><rect fill="#FEFECE" height="5" style="stroke: #A80036; stroke-width: 1.5;" width="10" x="392.5" y="191.6094"/><text fill="#000000" font-family="sans-serif" font-size="14" lengthAdjust="spacingAndGlyphs" textLength="56" x="407.5" y="188.5332">socket.io</text><!--entity binName--><rect fill="#FEFECE" filter="url(#f1e7kmvhrfuoxl)" height="37.6094" style="stroke: #A80036; stroke-width: 1.5;" width="109" x="221" y="164"/><rect fill="#FEFECE" height="5" style="stroke: #A80036; stroke-width: 1.5;" width="10" x="216" y="169"/><rect fill="#FEFECE" height="5" style="stroke: #A80036; stroke-width: 1.5;" width="10" x="216" y="191.6094"/><text fill="#000000" font-family="sans-serif" font-size="14" lengthAdjust="spacingAndGlyphs" textLength="89" x="231" y="188.5332">edgemere sml</text><!--entity sml_container--><polygon fill="#FEFECE" filter="url(#f1e7kmvhrfuoxl)" points="85.5,360,85.5,415.2188,235.5,415.2188,235.5,370,225.5,360,85.5,360" style="stroke: #000000; stroke-width: 1.5;"/><path d="M225.5,360 L225.5,370 L235.5,370 " fill="#FEFECE" style="stroke: #000000; stroke-width: 1.5;"/><text fill="#000000" font-family="sans-serif" font-size="14" lengthAdjust="spacingAndGlyphs" textLength="90" x="95.5" y="384.5332">node server.js</text><text fill="#000000" font-family="sans-serif" font-size="14" lengthAdjust="spacingAndGlyphs" textLength="130" x="95.5" y="402.1426">docker-compose.yml</text><!--entity web_container--><polygon fill="#FEFECE" filter="url(#f1e7kmvhrfuoxl)" points="472,368.5,472,406.1094,611,406.1094,611,378.5,601,368.5,472,368.5" style="stroke: #000000; stroke-width: 1.5;"/><path d="M601,368.5 L601,378.5 L611,378.5 " fill="#FEFECE" style="stroke: #000000; stroke-width: 1.5;"/><text fill="#000000" font-family="sans-serif" font-size="14" lengthAdjust="spacingAndGlyphs" textLength="119" x="482" y="393.0332">node web/server.js</text><!--entity gateway_container--><polygon fill="#FEFECE" filter="url(#f1e7kmvhrfuoxl)" points="270.5,368.5,270.5,406.1094,436.5,406.1094,436.5,378.5,426.5,368.5,270.5,368.5" style="stroke: #000000; stroke-width: 1.5;"/><path d="M426.5,368.5 L426.5,378.5 L436.5,378.5 " fill="#FEFECE" style="stroke: #000000; stroke-width: 1.5;"/><text fill="#000000" font-family="sans-serif" font-size="14" lengthAdjust="spacingAndGlyphs" textLength="146" x="280.5" y="393.0332">node gateway/server.js</text><!--entity smlimage--><rect fill="#FEFECE" filter="url(#f1e7kmvhrfuoxl)" height="33.6094" style="stroke: #000000; stroke-width: 1.5;" width="37" x="243" y="496.5"/><rect fill="#FEFECE" height="33.6094" style="stroke: #000000; stroke-width: 1.5;" width="37" x="239" y="492.5"/><text fill="#000000" font-family="sans-serif" font-size="14" lengthAdjust="spacingAndGlyphs" textLength="21" x="247" y="515.0332">sml</text><!--entity ailtireswarm--><rect fill="#FEFECE" filter="url(#f1e7kmvhrfuoxl)" height="40.6094" style="stroke: #000000; stroke-width: 1.5;" width="108" x="238.5" y="592"/><polygon fill="#FEFECE" points="329.5,597,329.5,611,341.5,611,341.5,603,335.5,597,329.5,597" style="stroke: #000000; stroke-width: 1.5;"/><line style="stroke: #000000; stroke-width: 1.5;" x1="335.5" x2="335.5" y1="597" y2="603"/><line style="stroke: #000000; stroke-width: 1.5;" x1="341.5" x2="335.5" y1="603" y2="603"/><text fill="#000000" font-family="sans-serif" font-size="14" lengthAdjust="spacingAndGlyphs" textLength="78" x="248.5" y="619.5332">ailtire:swarm</text><!--entity sml_web--><rect fill="#FEFECE" filter="url(#f1e7kmvhrfuoxl)" height="40.6094" style="stroke: #000000; stroke-width: 1.5;" width="84" x="426.5" y="491"/><polygon fill="#FEFECE" points="493.5,496,493.5,510,505.5,510,505.5,502,499.5,496,493.5,496" style="stroke: #000000; stroke-width: 1.5;"/><line style="stroke: #000000; stroke-width: 1.5;" x1="499.5" x2="499.5" y1="496" y2="502"/><line style="stroke: #000000; stroke-width: 1.5;" x1="505.5" x2="499.5" y1="502" y2="502"/><text fill="#000000" font-family="sans-serif" font-size="14" lengthAdjust="spacingAndGlyphs" textLength="54" x="436.5" y="518.5332">sml_web</text><!--entity sml_gw--><rect fill="#FEFECE" filter="url(#f1e7kmvhrfuoxl)" height="40.6094" style="stroke: #000000; stroke-width: 1.5;" width="76" x="315.5" y="491"/><polygon fill="#FEFECE" points="374.5,496,374.5,510,386.5,510,386.5,502,380.5,496,374.5,496" style="stroke: #000000; stroke-width: 1.5;"/><line style="stroke: #000000; stroke-width: 1.5;" x1="380.5" x2="380.5" y1="496" y2="502"/><line style="stroke: #000000; stroke-width: 1.5;" x1="386.5" x2="380.5" y1="502" y2="502"/><text fill="#000000" font-family="sans-serif" font-size="14" lengthAdjust="spacingAndGlyphs" textLength="46" x="325.5" y="518.5332">sml_gw</text><!--entity CLI--><ellipse cx="275.5" cy="38" fill="#FEFECE" filter="url(#f1e7kmvhrfuoxl)" rx="8" ry="8" style="stroke: #A80036; stroke-width: 2.0;"/><text fill="#000000" font-family="sans-serif" font-size="14" lengthAdjust="spacingAndGlyphs" textLength="21" x="265" y="69.5332">CLI</text><!--entity Web--><ellipse cx="20.5" cy="281" fill="#FEFECE" filter="url(#f1e7kmvhrfuoxl)" rx="8" ry="8" style="stroke: #A80036; stroke-width: 2.0;"/><text fill="#000000" font-family="sans-serif" font-size="14" lengthAdjust="spacingAndGlyphs" textLength="29" x="6" y="312.5332">Web</text><!--entity WebSocket--><ellipse cx="435.5" cy="38" fill="#FEFECE" filter="url(#f1e7kmvhrfuoxl)" rx="8" ry="8" style="stroke: #A80036; stroke-width: 2.0;"/><text fill="#000000" font-family="sans-serif" font-size="14" lengthAdjust="spacingAndGlyphs" textLength="72" x="399.5" y="69.5332">WebSocket</text><!--link binName to REST--><path d="M275.5,202.057 C275.5,217.513 275.5,239.865 275.5,256.673 " fill="none" id="binName-REST" style="stroke: #A80036; stroke-width: 1.0;"/><polygon fill="#A80036" points="275.5,261.698,279.5,252.698,275.5,256.698,271.5,252.698,275.5,261.698" style="stroke: #A80036; stroke-width: 1.0;"/><!--link REST to sml_container--><path d="M255.469,300.203 C238.455,315.662 213.691,338.166 193.716,356.316 " fill="none" id="REST-sml_container" style="stroke: #A80036; stroke-width: 1.0;"/><polygon fill="#A80036" points="189.789,359.885,199.1408,356.7956,193.4904,356.5236,193.7624,350.8732,189.789,359.885" style="stroke: #A80036; stroke-width: 1.0;"/><!--link REST to web_container--><path d="M310.005,283.559 C347.215,286.355 407.441,294.169 454.5,316 C480.077,327.865 504.597,348.914 521.048,364.932 " fill="none" id="REST-web_container" style="stroke: #A80036; stroke-width: 1.0;"/><polygon fill="#A80036" points="524.639,368.474,521.0385,359.3068,521.0786,364.9636,515.4218,365.0036,524.639,368.474" style="stroke: #A80036; stroke-width: 1.0;"/><!--link socket to web_container--><path d="M445.094,202.328 C464.487,239.375 508.306,323.087 529.531,363.635 " fill="none" id="socket-web_container" style="stroke: #A80036; stroke-width: 1.0;"/><polygon fill="#A80036" points="532.004,368.36,531.3746,358.5313,529.6855,363.9301,524.2867,362.2409,532.004,368.36" style="stroke: #A80036; stroke-width: 1.0;"/><!--link REST to gateway_container--><path d="M289.087,300.203 C302.315,317.925 322.453,344.905 336.685,363.972 " fill="none" id="REST-gateway_container" style="stroke: #A80036; stroke-width: 1.0;"/><polygon fill="#A80036" points="339.807,368.155,337.6306,358.5496,336.8168,364.1476,331.2188,363.3339,339.807,368.155" style="stroke: #A80036; stroke-width: 1.0;"/><!--link socket to gateway_container--><path d="M428.078,202.328 C413.076,239.375 379.178,323.087 362.759,363.635 " fill="none" id="socket-gateway_container" style="stroke: #A80036; stroke-width: 1.0;"/><polygon fill="#A80036" points="360.846,368.36,367.9315,361.5193,362.7226,363.7255,360.5164,358.5167,360.846,368.36" style="stroke: #A80036; stroke-width: 1.0;"/><!--link smlimage to ailtireswarm--><path d="M271.967,549.901 C276.712,564.136 281.931,579.793 285.92,591.7594 " fill="none" id="smlimage-ailtireswarm" style="stroke: #A80036; stroke-width: 1.0;"/><polygon fill="none" points="265.237,551.845,265.553,530.658,278.518,547.418,265.237,551.845" style="stroke: #A80036; stroke-width: 1.0;"/><!--link sml_container to smlimage--><path d="M182.226,415.273 C200.049,437.237 224.974,467.952 241.648,488.5 " fill="none" id="sml_container-smlimage" style="stroke: #A80036; stroke-width: 1.0;"/><polygon fill="#A80036" points="244.868,492.469,242.3004,482.9607,241.7164,488.5873,236.0898,488.0033,244.868,492.469" style="stroke: #A80036; stroke-width: 1.0;"/><!--link web_container to sml_web--><path d="M530.729,406.502 C518.087,427.629 497.067,462.758 483.001,486.266 " fill="none" id="web_container-sml_web" style="stroke: #A80036; stroke-width: 1.0;"/><polygon fill="#A80036" points="480.284,490.805,488.3369,485.1349,482.8508,486.5141,481.4716,481.028,480.284,490.805" style="stroke: #A80036; stroke-width: 1.0;"/><!--link gateway_container to sml_gw--><path d="M353.5,406.502 C353.5,427.453 353.5,462.173 353.5,485.676 " fill="none" id="gateway_container-sml_gw" style="stroke: #A80036; stroke-width: 1.0;"/><polygon fill="#A80036" points="353.5,490.805,357.5,481.805,353.5,485.805,349.5,481.805,353.5,490.805" style="stroke: #A80036; stroke-width: 1.0;"/><!--link CLI to binName--><path d="M275.5,47.098 C275.5,69.432 275.5,132.318 275.5,163.705 " fill="none" id="CLI-binName" style="stroke: #A80036; stroke-width: 1.0;"/><text fill="#000000" font-family="sans-serif" font-size="13" lengthAdjust="spacingAndGlyphs" textLength="82" x="176.5688" y="45.0947">edgemere sml</text><!--link Web to REST--><path d="M29.9629,281 C100.299,281 170.635,281 240.971,281 " fill="none" id="Web-REST" style="stroke: #A80036; stroke-width: 1.0;"/><text fill="#000000" font-family="sans-serif" font-size="13" lengthAdjust="spacingAndGlyphs" textLength="86" x="37.3405" y="277.3948">/edgemere/sml</text><!--link WebSocket to socket--><path d="M435.5,47.098 C435.5,69.432 435.5,132.318 435.5,163.705 " fill="none" id="WebSocket-socket" style="stroke: #A80036; stroke-width: 1.0;"/><text fill="#000000" font-family="sans-serif" font-size="13" lengthAdjust="spacingAndGlyphs" textLength="86" x="332.5688" y="45.0947">.edgemere.sml</text><!--
@startuml
  interface CLI
  interface Web
  interface WebSocket
package "Service Management Layer" #lightgreen {
  component express as REST
  component socket.io as socket
  folder bin #ffffff {
    component " edgemere sml" as binName
  }
  binName - -> REST

  folder deploy #ffffff {
      file "node server.js\ndocker-compose.yml" as sml_container
      REST - -> sml_container

  
    file "node web/server.js" as web_container
    REST - -> web_container
    socket - - -> web_container
  
    file "node gateway/server.js" as gateway_container
    REST - -> gateway_container
    socket - - -> gateway_container
  
  }
  folder images #ffffff {
    collections "sml" as smlimage
    artifact "ailtire:swarm" as ailtireswarm
    smlimage <|- - ailtireswarm
    sml_container - -> smlimage

  
      artifact sml_web
      web_container - -> sml_web
    
      artifact sml_gw
      gateway_container - -> sml_gw
    
  }
}
CLI " edgemere sml" - - binName
Web "/edgemere/sml" - REST
WebSocket ".edgemere.sml" - - socket

@enduml

PlantUML version 1.2019.05(Sat Apr 20 09:45:36 PDT 2019)
(GPL source distribution)
Java Runtime: OpenJDK Runtime Environment
JVM: OpenJDK 64-Bit Server VM
Java Version: 12.0.1+12
Operating System: Windows 10
OS Version: 10.0
Default Encoding: Cp1252
Language: en
Country: US
--></g></svg>