<?xml version="1.0" encoding="UTF-8" standalone="no"?><svg xmlns="http://www.w3.org/2000/svg" xmlns:xlink="http://www.w3.org/1999/xlink" contentScriptType="application/ecmascript" contentStyleType="text/css" height="327px" preserveAspectRatio="none" style="width:489px;height:327px;" version="1.1" viewBox="0 0 489 327" width="489px" zoomAndPan="magnify"><defs><filter height="300%" id="f63bvbbu9isx6" width="300%" x="-1" y="-1"><feGaussianBlur result="blurOut" stdDeviation="2.0"/><feColorMatrix in="blurOut" result="blurOut2" type="matrix" values="0 0 0 0 0 0 0 0 0 0 0 0 0 0 0 0 0 0 .4 0"/><feOffset dx="4.0" dy="4.0" in="blurOut2" result="blurOut3"/><feBlend in="SourceGraphic" in2="blurOut3" mode="normal"/></filter></defs><g><rect fill="#FFCC88" height="312.625" style="stroke: #A80036; stroke-width: 1.0;" width="152" x="143.5" y="4"/><text fill="#000000" font-family="sans-serif" font-size="13" font-weight="bold" lengthAdjust="spacingAndGlyphs" textLength="142" x="146.5" y="17.4951">Common Data Service</text><rect fill="#90EE90" height="312.625" style="stroke: #A80036; stroke-width: 1.0;" width="181" x="297.5" y="4"/><text fill="#000000" font-family="sans-serif" font-size="13" font-weight="bold" lengthAdjust="spacingAndGlyphs" textLength="175" x="300.5" y="17.4951">Service Management Layer</text><line style="stroke: #A80036; stroke-width: 1.0; stroke-dasharray: 5.0,5.0;" x1="27" x2="27" y1="87.6094" y2="229.0156"/><line style="stroke: #A80036; stroke-width: 1.0; stroke-dasharray: 5.0,5.0;" x1="90" x2="90" y1="87.6094" y2="229.0156"/><line style="stroke: #A80036; stroke-width: 1.0; stroke-dasharray: 5.0,5.0;" x1="219" x2="219" y1="87.6094" y2="229.0156"/><line style="stroke: #A80036; stroke-width: 1.0; stroke-dasharray: 5.0,5.0;" x1="387.5" x2="387.5" y1="87.6094" y2="229.0156"/><text fill="#000000" font-family="sans-serif" font-size="14" lengthAdjust="spacingAndGlyphs" textLength="33" x="8" y="84.5332">Actor</text><ellipse cx="27.5" cy="13" fill="#FEFECE" filter="url(#f63bvbbu9isx6)" rx="8" ry="8" style="stroke: #A80036; stroke-width: 2.0;"/><path d="M27.5,21 L27.5,48 M14.5,29 L40.5,29 M27.5,48 L14.5,63 M27.5,48 L40.5,63 " fill="none" filter="url(#f63bvbbu9isx6)" style="stroke: #A80036; stroke-width: 2.0;"/><text fill="#000000" font-family="sans-serif" font-size="14" lengthAdjust="spacingAndGlyphs" textLength="33" x="8" y="242.5488">Actor</text><ellipse cx="27.5" cy="255.625" fill="#FEFECE" filter="url(#f63bvbbu9isx6)" rx="8" ry="8" style="stroke: #A80036; stroke-width: 2.0;"/><path d="M27.5,263.625 L27.5,290.625 M14.5,271.625 L40.5,271.625 M27.5,290.625 L14.5,305.625 M27.5,290.625 L40.5,305.625 " fill="none" filter="url(#f63bvbbu9isx6)" style="stroke: #A80036; stroke-width: 2.0;"/><text fill="#000000" font-family="sans-serif" font-size="14" lengthAdjust="spacingAndGlyphs" textLength="60" x="57" y="84.5332">EventBus</text><ellipse cx="90" cy="54" fill="#FEFECE" filter="url(#f63bvbbu9isx6)" rx="12" ry="12" style="stroke: #A80036; stroke-width: 2.0;"/><line style="stroke: #A80036; stroke-width: 2.0;" x1="78" x2="102" y1="68" y2="68"/><text fill="#000000" font-family="sans-serif" font-size="14" lengthAdjust="spacingAndGlyphs" textLength="60" x="57" y="242.5488">EventBus</text><ellipse cx="90" cy="261.625" fill="#FEFECE" filter="url(#f63bvbbu9isx6)" rx="12" ry="12" style="stroke: #A80036; stroke-width: 2.0;"/><line style="stroke: #A80036; stroke-width: 2.0;" x1="78" x2="102" y1="275.625" y2="275.625"/><text fill="#000000" font-family="sans-serif" font-size="14" lengthAdjust="spacingAndGlyphs" textLength="22" x="205.5" y="84.5332">cds</text><path d="M199,42 L199,66 M199,54 L216,54 " fill="none" filter="url(#f63bvbbu9isx6)" style="stroke: #A80036; stroke-width: 2.0;"/><ellipse cx="228" cy="54" fill="#FFFFFF" filter="url(#f63bvbbu9isx6)" rx="12" ry="12" style="stroke: #A80036; stroke-width: 2.0;"/><text fill="#000000" font-family="sans-serif" font-size="14" lengthAdjust="spacingAndGlyphs" textLength="22" x="205.5" y="242.5488">cds</text><path d="M199,249.625 L199,273.625 M199,261.625 L216,261.625 " fill="none" filter="url(#f63bvbbu9isx6)" style="stroke: #A80036; stroke-width: 2.0;"/><ellipse cx="228" cy="261.625" fill="#FFFFFF" filter="url(#f63bvbbu9isx6)" rx="12" ry="12" style="stroke: #A80036; stroke-width: 2.0;"/><text fill="#000000" font-family="sans-serif" font-size="14" lengthAdjust="spacingAndGlyphs" textLength="21" x="374.5" y="84.5332">sml</text><path d="M367.5,42 L367.5,66 M367.5,54 L384.5,54 " fill="none" filter="url(#f63bvbbu9isx6)" style="stroke: #A80036; stroke-width: 2.0;"/><ellipse cx="396.5" cy="54" fill="#FFFFFF" filter="url(#f63bvbbu9isx6)" rx="12" ry="12" style="stroke: #A80036; stroke-width: 2.0;"/><text fill="#000000" font-family="sans-serif" font-size="14" lengthAdjust="spacingAndGlyphs" textLength="21" x="374.5" y="242.5488">sml</text><path d="M367.5,249.625 L367.5,273.625 M367.5,261.625 L384.5,261.625 " fill="none" filter="url(#f63bvbbu9isx6)" style="stroke: #A80036; stroke-width: 2.0;"/><ellipse cx="396.5" cy="261.625" fill="#FFFFFF" filter="url(#f63bvbbu9isx6)" rx="12" ry="12" style="stroke: #A80036; stroke-width: 2.0;"/><polygon fill="#A80036" points="207.5,115.9609,217.5,119.9609,207.5,123.9609,211.5,119.9609" style="stroke: #A80036; stroke-width: 1.0;"/><line style="stroke: #A80036; stroke-width: 1.0;" x1="27.5" x2="213.5" y1="119.9609" y2="119.9609"/><text fill="#000000" font-family="sans-serif" font-size="13" lengthAdjust="spacingAndGlyphs" textLength="76" x="34.5" y="115.1045">Destroy Data</text><polygon fill="#A80036" points="376,146.3125,386,150.3125,376,150.3125" style="stroke: #A80036; stroke-width: 1.0;"/><line style="stroke: #A80036; stroke-width: 1.0;" x1="90" x2="387" y1="150.3125" y2="150.3125"/><text fill="#000000" font-family="sans-serif" font-size="13" lengthAdjust="spacingAndGlyphs" textLength="51" x="97" y="145.4561">method()</text><polygon fill="#A80036" points="101,181.6641,91,181.6641,101,185.6641" style="stroke: #A80036; stroke-width: 1.0;"/><line style="stroke: #A80036; stroke-width: 1.0; stroke-dasharray: 2.0,2.0;" x1="90" x2="387" y1="180.6641" y2="180.6641"/><text fill="#000000" font-family="sans-serif" font-size="13" lengthAdjust="spacingAndGlyphs" textLength="78" x="107" y="175.8076">Model.Event2</text><polygon fill="#A80036" points="207.5,212.0156,217.5,212.0156,207.5,216.0156" style="stroke: #A80036; stroke-width: 1.0;"/><line style="stroke: #A80036; stroke-width: 1.0; stroke-dasharray: 2.0,2.0;" x1="90" x2="218.5" y1="211.0156" y2="211.0156"/><text fill="#000000" font-family="sans-serif" font-size="13" lengthAdjust="spacingAndGlyphs" textLength="58" x="97" y="206.1592">method2()</text><!--
@startuml

actor "Actor"


entity EventBus

box Common Data Service #ffcc88
    boundary cds #white
end box



"Actor" -> cds: Destroy Data



box "Service Management Layer" #lightgreen
    boundary sml #white
end box
EventBus -\ sml: method()
sml - -/ EventBus: Model.Event2

EventBus - -/ cds : method2()
@enduml

PlantUML version 1.2019.05(Sat Apr 20 09:45:36 PDT 2019)
(GPL source distribution)
Java Runtime: OpenJDK Runtime Environment
JVM: OpenJDK 64-Bit Server VM
Java Version: 12.0.1+12
Operating System: Windows 10
OS Version: 10.0
Default Encoding: Cp1252
Language: en
Country: US
--></g></svg>