<?xml version="1.0" encoding="UTF-8" standalone="no"?><svg xmlns="http://www.w3.org/2000/svg" xmlns:xlink="http://www.w3.org/1999/xlink" contentScriptType="application/ecmascript" contentStyleType="text/css" height="182px" preserveAspectRatio="none" style="width:363px;height:182px;" version="1.1" viewBox="0 0 363 182" width="363px" zoomAndPan="magnify"><defs><filter height="300%" id="f1v8wzx5fw0fa6" width="300%" x="-1" y="-1"><feGaussianBlur result="blurOut" stdDeviation="2.0"/><feColorMatrix in="blurOut" result="blurOut2" type="matrix" values="0 0 0 0 0 0 0 0 0 0 0 0 0 0 0 0 0 0 .4 0"/><feOffset dx="4.0" dy="4.0" in="blurOut2" result="blurOut3"/><feBlend in="SourceGraphic" in2="blurOut3" mode="normal"/></filter></defs><g><!--cluster Device Manager--><polygon fill="#D3D3D3" filter="url(#f1v8wzx5fw0fa6)" points="22,42,143,42,150,65.6094,341,65.6094,341,170,22,170,22,42" style="stroke: #000000; stroke-width: 1.5;"/><line style="stroke: #000000; stroke-width: 1.5;" x1="22" x2="150" y1="65.6094" y2="65.6094"/><text fill="#000000" font-family="sans-serif" font-size="14" font-weight="bold" lengthAdjust="spacingAndGlyphs" textLength="115" x="26" y="58.5332">Device Manager</text><!--class i--><rect fill="#FEFECE" filter="url(#f1v8wzx5fw0fa6)" height="75.6719" id="i" style="stroke: #A80036; stroke-width: 1.5;" width="184" x="141" y="78"/><ellipse cx="184.35" cy="94" fill="#B4A7E5" rx="11" ry="11" style="stroke: #A80036; stroke-width: 1.0;"/><path d="M185.3031,90.6406 L185.3031,97.2969 L187.0219,97.2969 Q187.6313,97.2969 187.8969,97.5313 Q188.1625,97.7656 188.1625,98.1563 Q188.1625,98.5313 187.8969,98.7656 Q187.6313,99 187.0219,99 L181.8813,99 Q181.2719,99 181.0063,98.7656 Q180.7406,98.5313 180.7406,98.1406 Q180.7406,97.7656 181.0063,97.5313 Q181.2719,97.2969 181.8813,97.2969 L183.6,97.2969 L183.6,90.6406 L181.8813,90.6406 Q181.2719,90.6406 181.0063,90.4063 Q180.7406,90.1719 180.7406,89.7813 Q180.7406,89.4063 181.0063,89.1719 Q181.2719,88.9375 181.8813,88.9375 L187.0219,88.9375 Q187.6313,88.9375 187.8969,89.1719 Q188.1625,89.4063 188.1625,89.7813 Q188.1625,90.1719 187.8969,90.4063 Q187.6313,90.6406 187.0219,90.6406 L185.3031,90.6406 Z "/><text fill="#000000" font-family="sans-serif" font-size="12" font-style="italic" lengthAdjust="spacingAndGlyphs" textLength="89" x="204.65" y="98.9102">Device Manager</text><line style="stroke: #A80036; stroke-width: 1.5;" x1="142" x2="324" y1="110" y2="110"/><line style="stroke: #A80036; stroke-width: 1.5;" x1="142" x2="324" y1="118" y2="118"/><text fill="#000000" font-family="sans-serif" font-size="11" lengthAdjust="spacingAndGlyphs" textLength="163" x="147" y="133.4189">/edgemere/cpl/dm/agent/register()</text><text fill="#000000" font-family="sans-serif" font-size="11" lengthAdjust="spacingAndGlyphs" textLength="172" x="147" y="147.2549">/edgemere/cpl/dm/service/register()</text><!--class Agent--><rect fill="#FEFECE" filter="url(#f1v8wzx5fw0fa6)" height="75.6719" id="Agent" style="stroke: #A80036; stroke-width: 1.5;" width="68" x="38" y="78"/><ellipse cx="55.25" cy="94" fill="#ADD1B2" rx="11" ry="11" style="stroke: #A80036; stroke-width: 1.0;"/><path d="M58.0156,89.875 Q58.1719,89.6563 58.3594,89.5469 Q58.5469,89.4375 58.7656,89.4375 Q59.1406,89.4375 59.375,89.7031 Q59.6094,89.9531 59.6094,90.5625 L59.6094,92.0156 Q59.6094,92.625 59.375,92.8906 Q59.1406,93.1563 58.7656,93.1563 Q58.4219,93.1563 58.2188,92.9531 Q58.0156,92.7656 57.9063,92.25 Q57.8594,91.8906 57.6719,91.7031 Q57.3438,91.3281 56.7344,91.1094 Q56.125,90.8906 55.5,90.8906 Q54.7344,90.8906 54.0938,91.2188 Q53.4688,91.5469 52.9688,92.2969 Q52.4844,93.0469 52.4844,94.0781 L52.4844,95.1719 Q52.4844,96.4063 53.375,97.2344 Q54.2656,98.0469 55.8594,98.0469 Q56.7969,98.0469 57.4531,97.7969 Q57.8438,97.6406 58.2656,97.2031 Q58.5313,96.9375 58.6719,96.8594 Q58.8281,96.7813 59.0313,96.7813 Q59.3594,96.7813 59.6094,97.0469 Q59.875,97.2969 59.875,97.6406 Q59.875,97.9844 59.5313,98.3906 Q59.0313,98.9688 58.2344,99.2969 Q57.1563,99.75 55.8594,99.75 Q54.3438,99.75 53.1406,99.125 Q52.1563,98.625 51.4688,97.5625 Q50.7813,96.4844 50.7813,95.2031 L50.7813,94.0469 Q50.7813,92.7188 51.3906,91.5781 Q52.0156,90.4219 53.1094,89.8125 Q54.2031,89.1875 55.4375,89.1875 Q56.1719,89.1875 56.8125,89.3594 Q57.4688,89.5156 58.0156,89.875 Z "/><text fill="#000000" font-family="sans-serif" font-size="12" lengthAdjust="spacingAndGlyphs" textLength="31" x="69.75" y="98.9102">Agent</text><line style="stroke: #A80036; stroke-width: 1.5;" x1="39" x2="105" y1="110" y2="110"/><text fill="#000000" font-family="sans-serif" font-size="11" lengthAdjust="spacingAndGlyphs" textLength="56" x="44" y="125.4189">string name</text><text fill="#000000" font-family="sans-serif" font-size="11" lengthAdjust="spacingAndGlyphs" textLength="42" x="44" y="139.2549">string url</text><line style="stroke: #A80036; stroke-width: 1.5;" x1="39" x2="105" y1="145.6719" y2="145.6719"/><ellipse cx="188" cy="13" fill="#FEFECE" filter="url(#f1v8wzx5fw0fa6)" rx="5" ry="5" style="stroke: #A80036; stroke-width: 1.5;"/><text fill="#000000" font-family="sans-serif" font-size="12" lengthAdjust="spacingAndGlyphs" textLength="19" x="178.5" y="30.457">CLI</text><ellipse cx="233" cy="13" fill="#FEFECE" filter="url(#f1v8wzx5fw0fa6)" rx="5" ry="5" style="stroke: #A80036; stroke-width: 1.5;"/><text fill="#000000" font-family="sans-serif" font-size="12" lengthAdjust="spacingAndGlyphs" textLength="32" x="217" y="30.457">REST</text><ellipse cx="278" cy="13" fill="#FEFECE" filter="url(#f1v8wzx5fw0fa6)" rx="5" ry="5" style="stroke: #A80036; stroke-width: 1.5;"/><text fill="#000000" font-family="sans-serif" font-size="12" lengthAdjust="spacingAndGlyphs" textLength="25" x="265.5" y="30.457">Web</text><!--link ilol2078 to i--><path d="M189.709,17.836 C194.108,27.709 206.197,54.842 216.485,77.934 " fill="none" id="ilol2078-i" style="stroke: #A80036; stroke-width: 1.0;"/><!--link ilol2081 to i--><path d="M233,18.34 C233,28.61 233,55.248 233,77.965 " fill="none" id="ilol2081-i" style="stroke: #A80036; stroke-width: 1.0;"/><!--link ilol2084 to i--><path d="M276.291,17.836 C271.892,27.709 259.803,54.842 249.515,77.934 " fill="none" id="ilol2084-i" style="stroke: #A80036; stroke-width: 1.0;"/><!--
@startuml



package "Device Manager" #lightgray {

    interface "Device Manager" as i {
            /edgemere/cpl/dm/agent/register()
            /edgemere/cpl/dm/service/register()
    
    }
}

CLI ()- - i
REST ()- - i
Web ()- - i

package "Device Manager" #lightgray {
        class "Agent" {
                 string name
                 string url
                    }
    
    

}



@enduml

PlantUML version 1.2019.05(Sat Apr 20 09:45:36 PDT 2019)
(GPL source distribution)
Java Runtime: OpenJDK Runtime Environment
JVM: OpenJDK 64-Bit Server VM
Java Version: 12.0.1+12
Operating System: Windows 10
OS Version: 10.0
Default Encoding: Cp1252
Language: en
Country: US
--></g></svg>