<?xml version="1.0" encoding="UTF-8" standalone="no"?><svg xmlns="http://www.w3.org/2000/svg" xmlns:xlink="http://www.w3.org/1999/xlink" contentScriptType="application/ecmascript" contentStyleType="text/css" height="346px" preserveAspectRatio="none" style="width:835px;height:346px;" version="1.1" viewBox="0 0 835 346" width="835px" zoomAndPan="magnify"><defs><filter height="300%" id="fmupi70fkvg0y" width="300%" x="-1" y="-1"><feGaussianBlur result="blurOut" stdDeviation="2.0"/><feColorMatrix in="blurOut" result="blurOut2" type="matrix" values="0 0 0 0 0 0 0 0 0 0 0 0 0 0 0 0 0 0 .4 0"/><feOffset dx="4.0" dy="4.0" in="blurOut2" result="blurOut3"/><feBlend in="SourceGraphic" in2="blurOut3" mode="normal"/></filter></defs><g><!--cluster sml_sc--><polygon fill="#90EE90" filter="url(#fmupi70fkvg0y)" points="22,24,76,24,83,47.6094,813,47.6094,813,270,22,270,22,24" style="stroke: #000000; stroke-width: 1.5;"/><line style="stroke: #000000; stroke-width: 1.5;" x1="22" x2="83" y1="47.6094" y2="47.6094"/><text fill="#000000" font-family="sans-serif" font-size="14" font-weight="bold" lengthAdjust="spacingAndGlyphs" textLength="48" x="26" y="40.5332">sml_sc</text><!--entity childrennet--><path d="M249,220 L317,220 C322,220 322,233.8047 322,233.8047 C322,233.8047 322,247.6094 317,247.6094 L249,247.6094 C244,247.6094 244,233.8047 244,233.8047 C244,233.8047 244,220 249,220 " fill="#000000" filter="url(#fmupi70fkvg0y)" style="stroke: #A80036; stroke-width: 1.5;"/><path d="M317,220 C312,220 312,233.8047 312,233.8047 C312,247.6094 317,247.6094 317,247.6094 " fill="none" style="stroke: #A80036; stroke-width: 1.5;"/><text fill="#FFFFFF" font-family="sans-serif" font-size="14" font-weight="bold" lengthAdjust="spacingAndGlyphs" textLength="58" x="249" y="239.5332">children</text><!--entity siblingnet--><path d="M254.5,119 L311.5,119 C316.5,119 316.5,132.8047 316.5,132.8047 C316.5,132.8047 316.5,146.6094 311.5,146.6094 L254.5,146.6094 C249.5,146.6094 249.5,132.8047 249.5,132.8047 C249.5,132.8047 249.5,119 254.5,119 " fill="#0000FF" filter="url(#fmupi70fkvg0y)" style="stroke: #A80036; stroke-width: 1.5;"/><path d="M311.5,119 C306.5,119 306.5,132.8047 306.5,132.8047 C306.5,146.6094 311.5,146.6094 311.5,146.6094 " fill="none" style="stroke: #A80036; stroke-width: 1.5;"/><text fill="#FFFFFF" font-family="sans-serif" font-size="14" font-weight="bold" lengthAdjust="spacingAndGlyphs" textLength="47" x="254.5" y="138.5332">sibling</text><!--entity parentnet--><path d="M56.5,226 L112.5,226 C117.5,226 117.5,239.8047 117.5,239.8047 C117.5,239.8047 117.5,253.6094 112.5,253.6094 L56.5,253.6094 C51.5,253.6094 51.5,239.8047 51.5,239.8047 C51.5,239.8047 51.5,226 56.5,226 " fill="#FF0000" filter="url(#fmupi70fkvg0y)" style="stroke: #A80036; stroke-width: 1.5;"/><path d="M112.5,226 C107.5,226 107.5,239.8047 107.5,239.8047 C107.5,253.6094 112.5,253.6094 112.5,253.6094 " fill="none" style="stroke: #A80036; stroke-width: 1.5;"/><text fill="#FFFFFF" font-family="sans-serif" font-size="14" font-weight="bold" lengthAdjust="spacingAndGlyphs" textLength="46" x="56.5" y="245.5332">parent</text><!--entity frontendService--><polygon fill="#FEFECE" filter="url(#fmupi70fkvg0y)" points="38,70,48,60,131,60,131,97.6094,121,107.6094,38,107.6094,38,70" style="stroke: #000000; stroke-width: 1.5;"/><line style="stroke: #000000; stroke-width: 1.5;" x1="121" x2="130" y1="70" y2="61"/><line style="stroke: #000000; stroke-width: 1.5;" x1="38" x2="121" y1="70" y2="70"/><line style="stroke: #000000; stroke-width: 1.5;" x1="121" x2="121" y1="70" y2="107.6094"/><text fill="#000000" font-family="sans-serif" font-size="14" lengthAdjust="spacingAndGlyphs" textLength="53" x="53" y="94.5332">frontend</text><!--entity gwService--><polygon fill="#FEFECE" filter="url(#fmupi70fkvg0y)" points="56,153,66,143,113,143,113,180.6094,103,190.6094,56,190.6094,56,153" style="stroke: #000000; stroke-width: 1.5;"/><line style="stroke: #000000; stroke-width: 1.5;" x1="103" x2="112" y1="153" y2="144"/><line style="stroke: #000000; stroke-width: 1.5;" x1="56" x2="103" y1="153" y2="153"/><line style="stroke: #000000; stroke-width: 1.5;" x1="103" x2="103" y1="153" y2="190.6094"/><text fill="#000000" font-family="sans-serif" font-size="14" lengthAdjust="spacingAndGlyphs" textLength="17" x="71" y="177.5332">gw</text><!--entity sml_sc_webimage--><rect fill="#FEFECE" filter="url(#fmupi70fkvg0y)" height="40.6094" style="stroke: #000000; stroke-width: 1.5;" width="106" x="691" y="62.5"/><polygon fill="#FEFECE" points="780,67.5,780,81.5,792,81.5,792,73.5,786,67.5,780,67.5" style="stroke: #000000; stroke-width: 1.5;"/><line style="stroke: #000000; stroke-width: 1.5;" x1="786" x2="786" y1="67.5" y2="73.5"/><line style="stroke: #000000; stroke-width: 1.5;" x1="792" x2="786" y1="73.5" y2="73.5"/><text fill="#000000" font-family="sans-serif" font-size="14" lengthAdjust="spacingAndGlyphs" textLength="76" x="701" y="90.0332">sml_sc_web</text><!--entity sml_sc_gwimage--><rect fill="#FEFECE" filter="url(#fmupi70fkvg0y)" height="40.6094" style="stroke: #000000; stroke-width: 1.5;" width="98" x="695" y="162.5"/><polygon fill="#FEFECE" points="776,167.5,776,181.5,788,181.5,788,173.5,782,167.5,776,167.5" style="stroke: #000000; stroke-width: 1.5;"/><line style="stroke: #000000; stroke-width: 1.5;" x1="782" x2="782" y1="167.5" y2="173.5"/><line style="stroke: #000000; stroke-width: 1.5;" x1="788" x2="782" y1="173.5" y2="173.5"/><text fill="#000000" font-family="sans-serif" font-size="14" lengthAdjust="spacingAndGlyphs" textLength="68" x="705" y="190.0332">sml_sc_gw</text><!--entity ailtire_parent_network_family--><path d="M262.5,290 L262.5,314 M262.5,302 L279.5,302 " fill="none" filter="url(#fmupi70fkvg0y)" style="stroke: #A80036; stroke-width: 2.0;"/><ellipse cx="291.5" cy="302" fill="#FF0000" filter="url(#fmupi70fkvg0y)" rx="12" ry="12" style="stroke: #A80036; stroke-width: 2.0;"/><text fill="#000000" font-family="sans-serif" font-size="14" lengthAdjust="spacingAndGlyphs" textLength="184" x="191" y="332.5332">ailtire_parent_network_family</text><!--entity ailtire_appname_sml_sc_family--><ellipse cx="533" cy="302" fill="#000000" filter="url(#fmupi70fkvg0y)" rx="12" ry="12" style="stroke: #A80036; stroke-width: 2.0;"/><line style="stroke: #A80036; stroke-width: 2.0;" x1="521" x2="545" y1="316" y2="316"/><text fill="#000000" font-family="sans-serif" font-size="14" lengthAdjust="spacingAndGlyphs" textLength="196" x="435" y="332.5332">ailtire_appname_sml_sc_family</text><!--link childrennet to ailtire_appname_sml_sc_family--><path d="M322.207,245.8625 C356.514,256.5144 408.007,272.5022 451.391,285.9723 " fill="none" id="childrennet-ailtire_appname_sml_sc_family" style="stroke: #000000; stroke-width: 1.0;"/><!--link parentnet to ailtire_parent_network_family--><path d="M117.508,251.5654 C143.174,260.8389 180.127,274.191 212.51,285.8916 " fill="none" id="parentnet-ailtire_parent_network_family" style="stroke: #FF0000; stroke-width: 1.0;"/><!--link frontendService to siblingnet--><path d="M131.075,95.365 C167.242,104.383 216.928,116.774 249.249,124.833 " fill="none" id="frontendService-siblingnet" style="stroke: #0000FF; stroke-width: 1.0;"/><!--link gwService to childrennet--><path d="M113.237,176.457 C147.408,188.108 205.629,207.96 243.957,221.029 " fill="none" id="gwService-childrennet" style="stroke: #000000; stroke-width: 1.0;"/><!--link gwService to siblingnet--><path d="M113.237,162.201 C148.994,156.014 211.089,145.27 249.164,138.682 " fill="none" id="gwService-siblingnet" style="stroke: #0000FF; stroke-width: 1.0;"/><!--link frontendService to sml_sc_webimage--><path d="M131.212,83.93 C249.594,83.75 565.639,83.27 690.857,83.079 " fill="none" id="frontendService-sml_sc_webimage" style="stroke: #A80036; stroke-width: 1.0; stroke-dasharray: 7.0,7.0;"/><!--link gwService to sml_sc_gwimage--><path d="M113.332,167.677 C214.768,170.146 565.45,178.679 694.685,181.824 " fill="none" id="gwService-sml_sc_gwimage" style="stroke: #A80036; stroke-width: 1.0; stroke-dasharray: 7.0,7.0;"/><!--
@startuml

left to right direction


boundary ailtire_parent_network_family #red


entity ailtire_appname_sml_sc_family #black




package "sml_sc" #lightgreen {
    queue childrennet #black [
            <b><color:white>children</color></b>
    ]
    
    childrennet -[#black]- ailtire_appname_sml_sc_family
    
    queue siblingnet #blue [
            <b><color:white>sibling</color></b>
    ]
    
    queue parentnet #red [
            <b><color:white>parent</color></b>
    ]
    
    parentnet -[#red]- ailtire_parent_network_family
    

node "frontend" as frontendService
node "gw" as gwService


        artifact "sml_sc_web" as sml_sc_webimage
    
        artifact "sml_sc_gw" as sml_sc_gwimage
    
}

frontendService -[#blue]- siblingnet

gwService -[#black]- childrennet

gwService -[#blue]- siblingnet
frontendService .... sml_sc_webimage
gwService .... sml_sc_gwimage


@enduml

PlantUML version 1.2019.05(Sat Apr 20 09:45:36 PDT 2019)
(GPL source distribution)
Java Runtime: OpenJDK Runtime Environment
JVM: OpenJDK 64-Bit Server VM
Java Version: 12.0.1+12
Operating System: Windows 10
OS Version: 10.0
Default Encoding: Cp1252
Language: en
Country: US
--></g></svg>