<?xml version="1.0" encoding="UTF-8" standalone="no"?><svg xmlns="http://www.w3.org/2000/svg" xmlns:xlink="http://www.w3.org/1999/xlink" contentScriptType="application/ecmascript" contentStyleType="text/css" height="302px" preserveAspectRatio="none" style="width:385px;height:302px;" version="1.1" viewBox="0 0 385 302" width="385px" zoomAndPan="magnify"><defs><filter height="300%" id="f68syosmq15ud" width="300%" x="-1" y="-1"><feGaussianBlur result="blurOut" stdDeviation="2.0"/><feColorMatrix in="blurOut" result="blurOut2" type="matrix" values="0 0 0 0 0 0 0 0 0 0 0 0 0 0 0 0 0 0 .4 0"/><feOffset dx="4.0" dy="4.0" in="blurOut2" result="blurOut3"/><feBlend in="SourceGraphic" in2="blurOut3" mode="normal"/></filter></defs><g><ellipse cx="193.1163" cy="172.6233" fill="#FEFECE" filter="url(#f68syosmq15ud)" rx="86.1163" ry="19.6233" style="stroke: #A80036; stroke-width: 1.5;"/><text fill="#000000" font-family="sans-serif" font-size="14" lengthAdjust="spacingAndGlyphs" textLength="141" x="122.6163" y="177.9279">Manage Data Sources</text><!--entity DataEngineer--><ellipse cx="193" cy="18" fill="#FEFECE" filter="url(#f68syosmq15ud)" rx="8" ry="8" style="stroke: #A80036; stroke-width: 2.0;"/><path d="M193,26 L193,53 M180,34 L206,34 M193,53 L180,68 M193,53 L206,68 " fill="none" filter="url(#f68syosmq15ud)" style="stroke: #A80036; stroke-width: 2.0;"/><text fill="#000000" font-family="sans-serif" font-size="14" lengthAdjust="spacingAndGlyphs" textLength="87" x="149.5" y="89.5332">DataEngineer</text><ellipse cx="92.1163" cy="271.6233" fill="#D3D3D3" filter="url(#f68syosmq15ud)" rx="86.1163" ry="19.6233" style="stroke: #A80036; stroke-width: 1.5;"/><text fill="#000000" font-family="sans-serif" font-size="14" lengthAdjust="spacingAndGlyphs" textLength="141" x="21.6163" y="276.9279">DeregisterDataSource</text><ellipse cx="294.1792" cy="271.5358" fill="#D3D3D3" filter="url(#f68syosmq15ud)" rx="80.6792" ry="18.5358" style="stroke: #A80036; stroke-width: 1.5;"/><text fill="#000000" font-family="sans-serif" font-size="14" lengthAdjust="spacingAndGlyphs" textLength="128" x="230.1792" y="276.8405">RegisterDataSource</text><!--link DataEngineer to ManageDataSources--><path d="M193,93.133 C193,111.379 193,132.132 193,147.696 " fill="none" id="DataEngineer-ManageDataSources" style="stroke: #A80036; stroke-width: 1.0;"/><polygon fill="#A80036" points="193,152.764,197,143.764,193,147.764,189,143.764,193,152.764" style="stroke: #A80036; stroke-width: 1.0;"/><!--link ManageDataSources to DeregisterDataSource--><path d="M174.003,191.745 C157.215,207.8677 132.694,231.4173 114.842,248.5626 " fill="none" id="ManageDataSources-DeregisterDataSource" style="stroke: #A80036; stroke-width: 1.0;"/><polygon fill="#A80036" points="110.912,252.3369,120.1735,248.9867,114.5178,248.8731,114.6314,243.2174,110.912,252.3369" style="stroke: #A80036; stroke-width: 1.0;"/><!--link ManageDataSources to RegisterDataSource--><path d="M211.997,191.745 C229.104,208.1738 254.24,232.3142 272.168,249.5322 " fill="none" id="ManageDataSources-RegisterDataSource" style="stroke: #A80036; stroke-width: 1.0;"/><polygon fill="#A80036" points="276.105,253.3137,272.3837,244.1949,272.4985,249.8506,266.8428,249.9654,276.105,253.3137" style="stroke: #A80036; stroke-width: 1.0;"/><!--
@startuml


usecase "Manage Data Sources" as ManageDataSources

Actor "DataEngineer" as DataEngineer

DataEngineer - -> ManageDataSources



usecase "DeregisterDataSource" as DeregisterDataSource #lightgrey

ManageDataSources - -> DeregisterDataSource

usecase "RegisterDataSource" as RegisterDataSource #lightgrey

ManageDataSources - -> RegisterDataSource

@enduml

PlantUML version 1.2019.05(Sat Apr 20 09:45:36 PDT 2019)
(GPL source distribution)
Java Runtime: OpenJDK Runtime Environment
JVM: OpenJDK 64-Bit Server VM
Java Version: 12.0.1+12
Operating System: Windows 10
OS Version: 10.0
Default Encoding: Cp1252
Language: en
Country: US
--></g></svg>