<?xml version="1.0" encoding="UTF-8" standalone="no"?><svg xmlns="http://www.w3.org/2000/svg" xmlns:xlink="http://www.w3.org/1999/xlink" contentScriptType="application/ecmascript" contentStyleType="text/css" height="509px" preserveAspectRatio="none" style="width:1433px;height:509px;" version="1.1" viewBox="0 0 1433 509" width="1433px" zoomAndPan="magnify"><defs><filter height="300%" id="fbrh3o2zfm4x7" width="300%" x="-1" y="-1"><feGaussianBlur result="blurOut" stdDeviation="2.0"/><feColorMatrix in="blurOut" result="blurOut2" type="matrix" values="0 0 0 0 0 0 0 0 0 0 0 0 0 0 0 0 0 0 .4 0"/><feOffset dx="4.0" dy="4.0" in="blurOut2" result="blurOut3"/><feBlend in="SourceGraphic" in2="blurOut3" mode="normal"/></filter></defs><g><rect fill="#FFCC88" height="494.7344" style="stroke: #A80036; stroke-width: 1.0;" width="166" x="201.5" y="4"/><text fill="#000000" font-family="sans-serif" font-size="13" font-weight="bold" lengthAdjust="spacingAndGlyphs" textLength="156" x="204.5" y="17.4951">Data Management Layer</text><rect fill="#FFCC88" height="494.7344" style="stroke: #A80036; stroke-width: 1.0;" width="202" x="725.5" y="4"/><text fill="#000000" font-family="sans-serif" font-size="13" font-weight="bold" lengthAdjust="spacingAndGlyphs" textLength="170" x="739.5" y="17.4951">Data Definition Framework</text><rect fill="#FFFFE0" height="494.7344" style="stroke: #A80036; stroke-width: 1.0;" width="204" x="929.5" y="4"/><text fill="#000000" font-family="sans-serif" font-size="13" font-weight="bold" lengthAdjust="spacingAndGlyphs" textLength="198" x="932.5" y="17.4951">Software Defined Infrastructure</text><rect fill="#FFC0CB" height="494.7344" style="stroke: #A80036; stroke-width: 1.0;" width="104" x="1135.5" y="4"/><text fill="#000000" font-family="sans-serif" font-size="13" font-weight="bold" lengthAdjust="spacingAndGlyphs" textLength="98" x="1138.5" y="17.4951">Security Aspect</text><rect fill="#90EE90" height="494.7344" style="stroke: #A80036; stroke-width: 1.0;" width="181" x="1241.5" y="4"/><text fill="#000000" font-family="sans-serif" font-size="13" font-weight="bold" lengthAdjust="spacingAndGlyphs" textLength="175" x="1244.5" y="17.4951">Service Management Layer</text><line style="stroke: #A80036; stroke-width: 1.0; stroke-dasharray: 5.0,5.0;" x1="56" x2="56" y1="87.6094" y2="411.125"/><line style="stroke: #A80036; stroke-width: 1.0; stroke-dasharray: 5.0,5.0;" x1="148" x2="148" y1="87.6094" y2="411.125"/><line style="stroke: #A80036; stroke-width: 1.0; stroke-dasharray: 5.0,5.0;" x1="284" x2="284" y1="87.6094" y2="411.125"/><line style="stroke: #A80036; stroke-width: 1.0; stroke-dasharray: 5.0,5.0;" x1="776.5" x2="776.5" y1="87.6094" y2="411.125"/><line style="stroke: #A80036; stroke-width: 1.0; stroke-dasharray: 5.0,5.0;" x1="878.5" x2="878.5" y1="87.6094" y2="411.125"/><line style="stroke: #A80036; stroke-width: 1.0; stroke-dasharray: 5.0,5.0;" x1="1031" x2="1031" y1="87.6094" y2="411.125"/><line style="stroke: #A80036; stroke-width: 1.0; stroke-dasharray: 5.0,5.0;" x1="1187" x2="1187" y1="87.6094" y2="411.125"/><line style="stroke: #A80036; stroke-width: 1.0; stroke-dasharray: 5.0,5.0;" x1="1331.5" x2="1331.5" y1="87.6094" y2="411.125"/><text fill="#000000" font-family="sans-serif" font-size="14" lengthAdjust="spacingAndGlyphs" textLength="91" x="8" y="84.5332">Data Engineer</text><ellipse cx="56.5" cy="13" fill="#FEFECE" filter="url(#fbrh3o2zfm4x7)" rx="8" ry="8" style="stroke: #A80036; stroke-width: 2.0;"/><path d="M56.5,21 L56.5,48 M43.5,29 L69.5,29 M56.5,48 L43.5,63 M56.5,48 L69.5,63 " fill="none" filter="url(#fbrh3o2zfm4x7)" style="stroke: #A80036; stroke-width: 2.0;"/><text fill="#000000" font-family="sans-serif" font-size="14" lengthAdjust="spacingAndGlyphs" textLength="91" x="8" y="424.6582">Data Engineer</text><ellipse cx="56.5" cy="437.7344" fill="#FEFECE" filter="url(#fbrh3o2zfm4x7)" rx="8" ry="8" style="stroke: #A80036; stroke-width: 2.0;"/><path d="M56.5,445.7344 L56.5,472.7344 M43.5,453.7344 L69.5,453.7344 M56.5,472.7344 L43.5,487.7344 M56.5,472.7344 L69.5,487.7344 " fill="none" filter="url(#fbrh3o2zfm4x7)" style="stroke: #A80036; stroke-width: 2.0;"/><text fill="#000000" font-family="sans-serif" font-size="14" lengthAdjust="spacingAndGlyphs" textLength="60" x="115" y="84.5332">EventBus</text><ellipse cx="148" cy="54" fill="#FEFECE" filter="url(#fbrh3o2zfm4x7)" rx="12" ry="12" style="stroke: #A80036; stroke-width: 2.0;"/><line style="stroke: #A80036; stroke-width: 2.0;" x1="136" x2="160" y1="68" y2="68"/><text fill="#000000" font-family="sans-serif" font-size="14" lengthAdjust="spacingAndGlyphs" textLength="60" x="115" y="424.6582">EventBus</text><ellipse cx="148" cy="443.7344" fill="#FEFECE" filter="url(#fbrh3o2zfm4x7)" rx="12" ry="12" style="stroke: #A80036; stroke-width: 2.0;"/><line style="stroke: #A80036; stroke-width: 2.0;" x1="136" x2="160" y1="457.7344" y2="457.7344"/><text fill="#000000" font-family="sans-serif" font-size="14" lengthAdjust="spacingAndGlyphs" textLength="22" x="270.5" y="84.5332">dml</text><path d="M264,42 L264,66 M264,54 L281,54 " fill="none" filter="url(#fbrh3o2zfm4x7)" style="stroke: #A80036; stroke-width: 2.0;"/><ellipse cx="293" cy="54" fill="#FFFFFF" filter="url(#fbrh3o2zfm4x7)" rx="12" ry="12" style="stroke: #A80036; stroke-width: 2.0;"/><text fill="#000000" font-family="sans-serif" font-size="14" lengthAdjust="spacingAndGlyphs" textLength="22" x="270.5" y="424.6582">dml</text><path d="M264,431.7344 L264,455.7344 M264,443.7344 L281,443.7344 " fill="none" filter="url(#fbrh3o2zfm4x7)" style="stroke: #A80036; stroke-width: 2.0;"/><ellipse cx="293" cy="443.7344" fill="#FFFFFF" filter="url(#fbrh3o2zfm4x7)" rx="12" ry="12" style="stroke: #A80036; stroke-width: 2.0;"/><rect fill="#FEFECE" filter="url(#fbrh3o2zfm4x7)" height="31.6094" style="stroke: #A80036; stroke-width: 1.5;" width="91" x="729.5" y="51"/><text fill="#000000" font-family="sans-serif" font-size="14" lengthAdjust="spacingAndGlyphs" textLength="77" x="736.5" y="72.5332">dataadaptor</text><rect fill="#FEFECE" filter="url(#fbrh3o2zfm4x7)" height="31.6094" style="stroke: #A80036; stroke-width: 1.5;" width="91" x="729.5" y="410.125"/><text fill="#000000" font-family="sans-serif" font-size="14" lengthAdjust="spacingAndGlyphs" textLength="77" x="736.5" y="431.6582">dataadaptor</text><rect fill="#FEFECE" filter="url(#fbrh3o2zfm4x7)" height="31.6094" style="stroke: #A80036; stroke-width: 1.5;" width="85" x="834.5" y="51"/><text fill="#000000" font-family="sans-serif" font-size="14" lengthAdjust="spacingAndGlyphs" textLength="71" x="841.5" y="72.5332">datasource</text><rect fill="#FEFECE" filter="url(#fbrh3o2zfm4x7)" height="31.6094" style="stroke: #A80036; stroke-width: 1.5;" width="85" x="834.5" y="410.125"/><text fill="#000000" font-family="sans-serif" font-size="14" lengthAdjust="spacingAndGlyphs" textLength="71" x="841.5" y="431.6582">datasource</text><text fill="#000000" font-family="sans-serif" font-size="14" lengthAdjust="spacingAndGlyphs" textLength="18" x="1019.5" y="84.5332">sdi</text><path d="M1011,42 L1011,66 M1011,54 L1028,54 " fill="none" filter="url(#fbrh3o2zfm4x7)" style="stroke: #A80036; stroke-width: 2.0;"/><ellipse cx="1040" cy="54" fill="#FFFFFF" filter="url(#fbrh3o2zfm4x7)" rx="12" ry="12" style="stroke: #A80036; stroke-width: 2.0;"/><text fill="#000000" font-family="sans-serif" font-size="14" lengthAdjust="spacingAndGlyphs" textLength="18" x="1019.5" y="424.6582">sdi</text><path d="M1011,431.7344 L1011,455.7344 M1011,443.7344 L1028,443.7344 " fill="none" filter="url(#fbrh3o2zfm4x7)" style="stroke: #A80036; stroke-width: 2.0;"/><ellipse cx="1040" cy="443.7344" fill="#FFFFFF" filter="url(#fbrh3o2zfm4x7)" rx="12" ry="12" style="stroke: #A80036; stroke-width: 2.0;"/><text fill="#000000" font-family="sans-serif" font-size="14" lengthAdjust="spacingAndGlyphs" textLength="15" x="1177" y="84.5332">sa</text><path d="M1167,42 L1167,66 M1167,54 L1184,54 " fill="none" filter="url(#fbrh3o2zfm4x7)" style="stroke: #A80036; stroke-width: 2.0;"/><ellipse cx="1196" cy="54" fill="#FFFFFF" filter="url(#fbrh3o2zfm4x7)" rx="12" ry="12" style="stroke: #A80036; stroke-width: 2.0;"/><text fill="#000000" font-family="sans-serif" font-size="14" lengthAdjust="spacingAndGlyphs" textLength="15" x="1177" y="424.6582">sa</text><path d="M1167,431.7344 L1167,455.7344 M1167,443.7344 L1184,443.7344 " fill="none" filter="url(#fbrh3o2zfm4x7)" style="stroke: #A80036; stroke-width: 2.0;"/><ellipse cx="1196" cy="443.7344" fill="#FFFFFF" filter="url(#fbrh3o2zfm4x7)" rx="12" ry="12" style="stroke: #A80036; stroke-width: 2.0;"/><text fill="#000000" font-family="sans-serif" font-size="14" lengthAdjust="spacingAndGlyphs" textLength="21" x="1318.5" y="84.5332">sml</text><path d="M1311.5,42 L1311.5,66 M1311.5,54 L1328.5,54 " fill="none" filter="url(#fbrh3o2zfm4x7)" style="stroke: #A80036; stroke-width: 2.0;"/><ellipse cx="1340.5" cy="54" fill="#FFFFFF" filter="url(#fbrh3o2zfm4x7)" rx="12" ry="12" style="stroke: #A80036; stroke-width: 2.0;"/><text fill="#000000" font-family="sans-serif" font-size="14" lengthAdjust="spacingAndGlyphs" textLength="21" x="1318.5" y="424.6582">sml</text><path d="M1311.5,431.7344 L1311.5,455.7344 M1311.5,443.7344 L1328.5,443.7344 " fill="none" filter="url(#fbrh3o2zfm4x7)" style="stroke: #A80036; stroke-width: 2.0;"/><ellipse cx="1340.5" cy="443.7344" fill="#FFFFFF" filter="url(#fbrh3o2zfm4x7)" rx="12" ry="12" style="stroke: #A80036; stroke-width: 2.0;"/><polygon fill="#A80036" points="272.5,115.9609,282.5,119.9609,272.5,123.9609,276.5,119.9609" style="stroke: #A80036; stroke-width: 1.0;"/><line style="stroke: #A80036; stroke-width: 1.0;" x1="56.5" x2="278.5" y1="119.9609" y2="119.9609"/><text fill="#000000" font-family="sans-serif" font-size="13" lengthAdjust="spacingAndGlyphs" textLength="135" x="63.5" y="115.1045">Deregister Data Source</text><polygon fill="#A80036" points="765,146.3125,775,150.3125,765,154.3125,769,150.3125" style="stroke: #A80036; stroke-width: 1.0;"/><line style="stroke: #A80036; stroke-width: 1.0;" x1="284.5" x2="771" y1="150.3125" y2="150.3125"/><text fill="#000000" font-family="sans-serif" font-size="13" lengthAdjust="spacingAndGlyphs" textLength="414" x="291.5" y="145.4561">create (name: filesystem1,file: ./templates/dataadaptor-filesystem.yaml)</text><polygon fill="#A80036" points="867,176.6641,877,180.6641,867,184.6641,871,180.6641" style="stroke: #A80036; stroke-width: 1.0;"/><line style="stroke: #A80036; stroke-width: 1.0;" x1="284.5" x2="873" y1="180.6641" y2="180.6641"/><text fill="#000000" font-family="sans-serif" font-size="13" lengthAdjust="spacingAndGlyphs" textLength="498" x="291.5" y="175.8076">create (name: myDataVolume1,adaptor: filesystem1,file: ./templates/datasource.yaml)</text><polygon fill="#A80036" points="1019.5,207.0156,1029.5,211.0156,1019.5,211.0156" style="stroke: #A80036; stroke-width: 1.0;"/><line style="stroke: #A80036; stroke-width: 1.0;" x1="148" x2="1030.5" y1="211.0156" y2="211.0156"/><text fill="#000000" font-family="sans-serif" font-size="13" lengthAdjust="spacingAndGlyphs" textLength="51" x="155" y="206.1592">method()</text><polygon fill="#A80036" points="159,242.3672,149,242.3672,159,246.3672" style="stroke: #A80036; stroke-width: 1.0;"/><line style="stroke: #A80036; stroke-width: 1.0; stroke-dasharray: 2.0,2.0;" x1="148" x2="1030.5" y1="241.3672" y2="241.3672"/><text fill="#000000" font-family="sans-serif" font-size="13" lengthAdjust="spacingAndGlyphs" textLength="78" x="165" y="236.5107">Model.Event2</text><polygon fill="#A80036" points="1175.5,267.7188,1185.5,271.7188,1175.5,271.7188" style="stroke: #A80036; stroke-width: 1.0;"/><line style="stroke: #A80036; stroke-width: 1.0;" x1="148" x2="1186.5" y1="271.7188" y2="271.7188"/><text fill="#000000" font-family="sans-serif" font-size="13" lengthAdjust="spacingAndGlyphs" textLength="51" x="155" y="266.8623">method()</text><polygon fill="#A80036" points="159,303.0703,149,303.0703,159,307.0703" style="stroke: #A80036; stroke-width: 1.0;"/><line style="stroke: #A80036; stroke-width: 1.0; stroke-dasharray: 2.0,2.0;" x1="148" x2="1186.5" y1="302.0703" y2="302.0703"/><text fill="#000000" font-family="sans-serif" font-size="13" lengthAdjust="spacingAndGlyphs" textLength="78" x="165" y="297.2139">Model.Event2</text><polygon fill="#A80036" points="1320,328.4219,1330,332.4219,1320,332.4219" style="stroke: #A80036; stroke-width: 1.0;"/><line style="stroke: #A80036; stroke-width: 1.0;" x1="148" x2="1331" y1="332.4219" y2="332.4219"/><text fill="#000000" font-family="sans-serif" font-size="13" lengthAdjust="spacingAndGlyphs" textLength="51" x="155" y="327.5654">method()</text><polygon fill="#A80036" points="159,363.7734,149,363.7734,159,367.7734" style="stroke: #A80036; stroke-width: 1.0;"/><line style="stroke: #A80036; stroke-width: 1.0; stroke-dasharray: 2.0,2.0;" x1="148" x2="1331" y1="362.7734" y2="362.7734"/><text fill="#000000" font-family="sans-serif" font-size="13" lengthAdjust="spacingAndGlyphs" textLength="78" x="165" y="357.917">Model.Event2</text><polygon fill="#A80036" points="272.5,394.125,282.5,394.125,272.5,398.125" style="stroke: #A80036; stroke-width: 1.0;"/><line style="stroke: #A80036; stroke-width: 1.0; stroke-dasharray: 2.0,2.0;" x1="148" x2="283.5" y1="393.125" y2="393.125"/><text fill="#000000" font-family="sans-serif" font-size="13" lengthAdjust="spacingAndGlyphs" textLength="58" x="155" y="388.2686">method2()</text><!--
@startuml

actor "Data Engineer"


entity EventBus

box Data Management Layer #ffcc88
    boundary dml #white
end box


box Data Definition Framework #ffcc88
            participant dataadaptor
            participant datasource
    end box


"Data Engineer" -> dml: Deregister Data Source

    dml -> "dataadaptor": create (name: filesystem1,file: ./templates/dataadaptor-filesystem.yaml)


    dml -> "datasource": create (name: myDataVolume1,adaptor: filesystem1,file: ./templates/datasource.yaml)




box "Software Defined Infrastructure" #lightyellow
    boundary sdi #white
end box
EventBus -\ sdi: method()
sdi - -/ EventBus: Model.Event2
box "Security Aspect" #pink
    boundary sa #white
end box
EventBus -\ sa: method()
sa - -/ EventBus: Model.Event2
box "Service Management Layer" #lightgreen
    boundary sml #white
end box
EventBus -\ sml: method()
sml - -/ EventBus: Model.Event2

EventBus - -/ dml : method2()
@enduml

PlantUML version 1.2019.05(Sat Apr 20 09:45:36 PDT 2019)
(GPL source distribution)
Java Runtime: OpenJDK Runtime Environment
JVM: OpenJDK 64-Bit Server VM
Java Version: 12.0.1+12
Operating System: Windows 10
OS Version: 10.0
Default Encoding: Cp1252
Language: en
Country: US
--></g></svg>