<?xml version="1.0" encoding="UTF-8" standalone="no"?><svg xmlns="http://www.w3.org/2000/svg" xmlns:xlink="http://www.w3.org/1999/xlink" contentScriptType="application/ecmascript" contentStyleType="text/css" height="809px" preserveAspectRatio="none" style="width:1443px;height:809px;" version="1.1" viewBox="0 0 1443 809" width="1443px" zoomAndPan="magnify"><defs><filter height="300%" id="fstf8s6sjxmgk" width="300%" x="-1" y="-1"><feGaussianBlur result="blurOut" stdDeviation="2.0"/><feColorMatrix in="blurOut" result="blurOut2" type="matrix" values="0 0 0 0 0 0 0 0 0 0 0 0 0 0 0 0 0 0 .4 0"/><feOffset dx="4.0" dy="4.0" in="blurOut2" result="blurOut3"/><feBlend in="SourceGraphic" in2="blurOut3" mode="normal"/></filter></defs><g><rect fill="#FFCC88" filter="url(#fstf8s6sjxmgk)" height="31.6094" style="stroke: #A80036; stroke-width: 1.5;" width="93" x="458.5" y="172.3125"/><text fill="#000000" font-family="sans-serif" font-size="14" lengthAdjust="spacingAndGlyphs" textLength="79" x="465.5" y="193.8457">Data Source</text><rect fill="#FFCC88" filter="url(#fstf8s6sjxmgk)" height="31.6094" style="stroke: #A80036; stroke-width: 1.5;" width="166" x="1011" y="249.2734"/><text fill="#000000" font-family="sans-serif" font-size="14" lengthAdjust="spacingAndGlyphs" textLength="152" x="1018" y="270.8066">Data Blue Print Instance</text><rect fill="#FFFFFF" filter="url(#fstf8s6sjxmgk)" height="141.9219" style="stroke: #000000; stroke-width: 2.0;" width="973" x="448.5" y="302.8828"/><rect fill="#FFCC88" filter="url(#fstf8s6sjxmgk)" height="31.6094" style="stroke: #A80036; stroke-width: 1.5;" width="44" x="1363.5" y="351.5859"/><text fill="#000000" font-family="sans-serif" font-size="14" lengthAdjust="spacingAndGlyphs" textLength="30" x="1370.5" y="373.1191">Data</text><rect fill="#FFCC88" filter="url(#fstf8s6sjxmgk)" height="31.6094" style="stroke: #A80036; stroke-width: 1.5;" width="79" x="1251" y="398.1953"/><text fill="#000000" font-family="sans-serif" font-size="14" lengthAdjust="spacingAndGlyphs" textLength="65" x="1258" y="419.7285">Meta Data</text><rect fill="#FFFFFF" filter="url(#fstf8s6sjxmgk)" height="79.0547" style="stroke: #000000; stroke-width: 2.0;" width="420.5" x="1001" y="594.2109"/><line style="stroke: #A80036; stroke-width: 1.0; stroke-dasharray: 5.0,5.0;" x1="56" x2="56" y1="87.6094" y2="720.6172"/><line style="stroke: #A80036; stroke-width: 1.0; stroke-dasharray: 5.0,5.0;" x1="205.5" x2="205.5" y1="87.6094" y2="720.6172"/><line style="stroke: #A80036; stroke-width: 1.0; stroke-dasharray: 5.0,5.0;" x1="506.5" x2="506.5" y1="205.6172" y2="720.6172"/><line style="stroke: #A80036; stroke-width: 1.0; stroke-dasharray: 5.0,5.0;" x1="616.5" x2="616.5" y1="87.6094" y2="720.6172"/><line style="stroke: #A80036; stroke-width: 1.0; stroke-dasharray: 5.0,5.0;" x1="733.5" x2="733.5" y1="87.6094" y2="720.6172"/><line style="stroke: #A80036; stroke-width: 1.0; stroke-dasharray: 5.0,5.0;" x1="1096" x2="1096" y1="282.5781" y2="720.6172"/><line style="stroke: #A80036; stroke-width: 1.0; stroke-dasharray: 5.0,5.0;" x1="1292" x2="1292" y1="431.5" y2="720.6172"/><line style="stroke: #A80036; stroke-width: 1.0; stroke-dasharray: 5.0,5.0;" x1="1387.5" x2="1387.5" y1="384.8906" y2="720.6172"/><text fill="#000000" font-family="sans-serif" font-size="14" lengthAdjust="spacingAndGlyphs" textLength="91" x="8" y="84.5332">Data Engineer</text><ellipse cx="56.5" cy="13" fill="#FEFECE" filter="url(#fstf8s6sjxmgk)" rx="8" ry="8" style="stroke: #A80036; stroke-width: 2.0;"/><path d="M56.5,21 L56.5,48 M43.5,29 L69.5,29 M56.5,48 L43.5,63 M56.5,48 L69.5,63 " fill="none" filter="url(#fstf8s6sjxmgk)" style="stroke: #A80036; stroke-width: 2.0;"/><text fill="#000000" font-family="sans-serif" font-size="14" lengthAdjust="spacingAndGlyphs" textLength="91" x="8" y="734.1504">Data Engineer</text><ellipse cx="56.5" cy="747.2266" fill="#FEFECE" filter="url(#fstf8s6sjxmgk)" rx="8" ry="8" style="stroke: #A80036; stroke-width: 2.0;"/><path d="M56.5,755.2266 L56.5,782.2266 M43.5,763.2266 L69.5,763.2266 M56.5,782.2266 L43.5,797.2266 M56.5,782.2266 L69.5,797.2266 " fill="none" filter="url(#fstf8s6sjxmgk)" style="stroke: #A80036; stroke-width: 2.0;"/><rect fill="#FFCC88" filter="url(#fstf8s6sjxmgk)" height="31.6094" style="stroke: #A80036; stroke-width: 1.5;" width="170" x="118.5" y="51"/><text fill="#000000" font-family="sans-serif" font-size="14" lengthAdjust="spacingAndGlyphs" textLength="156" x="125.5" y="72.5332">Data Management Layer</text><rect fill="#FFCC88" filter="url(#fstf8s6sjxmgk)" height="31.6094" style="stroke: #A80036; stroke-width: 1.5;" width="170" x="118.5" y="719.6172"/><text fill="#000000" font-family="sans-serif" font-size="14" lengthAdjust="spacingAndGlyphs" textLength="156" x="125.5" y="741.1504">Data Management Layer</text><rect fill="#FFCC88" filter="url(#fstf8s6sjxmgk)" height="31.6094" style="stroke: #A80036; stroke-width: 1.5;" width="93" x="458.5" y="719.6172"/><text fill="#000000" font-family="sans-serif" font-size="14" lengthAdjust="spacingAndGlyphs" textLength="79" x="465.5" y="741.1504">Data Source</text><rect fill="#FFCC88" filter="url(#fstf8s6sjxmgk)" height="31.6094" style="stroke: #A80036; stroke-width: 1.5;" width="98" x="565.5" y="51"/><text fill="#000000" font-family="sans-serif" font-size="14" lengthAdjust="spacingAndGlyphs" textLength="84" x="572.5" y="72.5332">Data Adaptor</text><rect fill="#FFCC88" filter="url(#fstf8s6sjxmgk)" height="31.6094" style="stroke: #A80036; stroke-width: 1.5;" width="98" x="565.5" y="719.6172"/><text fill="#000000" font-family="sans-serif" font-size="14" lengthAdjust="spacingAndGlyphs" textLength="84" x="572.5" y="741.1504">Data Adaptor</text><rect fill="#FFCC88" filter="url(#fstf8s6sjxmgk)" height="31.6094" style="stroke: #A80036; stroke-width: 1.5;" width="109" x="677.5" y="51"/><text fill="#000000" font-family="sans-serif" font-size="14" lengthAdjust="spacingAndGlyphs" textLength="95" x="684.5" y="72.5332">Data Blue Print</text><rect fill="#FFCC88" filter="url(#fstf8s6sjxmgk)" height="31.6094" style="stroke: #A80036; stroke-width: 1.5;" width="109" x="677.5" y="719.6172"/><text fill="#000000" font-family="sans-serif" font-size="14" lengthAdjust="spacingAndGlyphs" textLength="95" x="684.5" y="741.1504">Data Blue Print</text><rect fill="#FFCC88" filter="url(#fstf8s6sjxmgk)" height="31.6094" style="stroke: #A80036; stroke-width: 1.5;" width="166" x="1011" y="719.6172"/><text fill="#000000" font-family="sans-serif" font-size="14" lengthAdjust="spacingAndGlyphs" textLength="152" x="1018" y="741.1504">Data Blue Print Instance</text><rect fill="#FFCC88" filter="url(#fstf8s6sjxmgk)" height="31.6094" style="stroke: #A80036; stroke-width: 1.5;" width="79" x="1251" y="719.6172"/><text fill="#000000" font-family="sans-serif" font-size="14" lengthAdjust="spacingAndGlyphs" textLength="65" x="1258" y="741.1504">Meta Data</text><rect fill="#FFCC88" filter="url(#fstf8s6sjxmgk)" height="31.6094" style="stroke: #A80036; stroke-width: 1.5;" width="44" x="1363.5" y="719.6172"/><text fill="#000000" font-family="sans-serif" font-size="14" lengthAdjust="spacingAndGlyphs" textLength="30" x="1370.5" y="741.1504">Data</text><rect fill="#EEEEEE" filter="url(#fstf8s6sjxmgk)" height="3" style="stroke: #EEEEEE; stroke-width: 1.0;" width="1428.5" x="3" y="118.7852"/><line style="stroke: #000000; stroke-width: 1.0;" x1="3" x2="1431.5" y1="118.7852" y2="118.7852"/><line style="stroke: #000000; stroke-width: 1.0;" x1="3" x2="1431.5" y1="121.7852" y2="121.7852"/><rect fill="#EEEEEE" filter="url(#fstf8s6sjxmgk)" height="24.3516" style="stroke: #000000; stroke-width: 2.0;" width="145" x="644.75" y="107.6094"/><text fill="#000000" font-family="sans-serif" font-size="13" font-weight="bold" lengthAdjust="spacingAndGlyphs" textLength="127" x="650.75" y="125.1045">Register Datasource</text><polygon fill="#A80036" points="193.5,160.3125,203.5,164.3125,193.5,168.3125,197.5,164.3125" style="stroke: #A80036; stroke-width: 1.0;"/><line style="stroke: #A80036; stroke-width: 1.0;" x1="56.5" x2="199.5" y1="164.3125" y2="164.3125"/><text fill="#000000" font-family="sans-serif" font-size="13" lengthAdjust="spacingAndGlyphs" textLength="111" x="63.5" y="159.4561">datasource/register</text><polygon fill="#A80036" points="446.5,190.6641,456.5,194.6641,446.5,198.6641,450.5,194.6641" style="stroke: #A80036; stroke-width: 1.0;"/><line style="stroke: #A80036; stroke-width: 1.0;" x1="205.5" x2="452.5" y1="194.6641" y2="194.6641"/><text fill="#000000" font-family="sans-serif" font-size="13" lengthAdjust="spacingAndGlyphs" textLength="229" x="212.5" y="189.8076">create(name, DataAdaptor, parameters)</text><rect fill="#FFCC88" filter="url(#fstf8s6sjxmgk)" height="31.6094" style="stroke: #A80036; stroke-width: 1.5;" width="93" x="458.5" y="172.3125"/><text fill="#000000" font-family="sans-serif" font-size="14" lengthAdjust="spacingAndGlyphs" textLength="79" x="465.5" y="193.8457">Data Source</text><polygon fill="#A80036" points="722,237.2734,732,241.2734,722,245.2734,726,241.2734" style="stroke: #A80036; stroke-width: 1.0;"/><line style="stroke: #A80036; stroke-width: 1.0;" x1="56.5" x2="728" y1="241.2734" y2="241.2734"/><text fill="#000000" font-family="sans-serif" font-size="13" lengthAdjust="spacingAndGlyphs" textLength="202" x="63.5" y="236.417">deploy (name, source, parameters)</text><polygon fill="#A80036" points="999,267.625,1009,271.625,999,275.625,1003,271.625" style="stroke: #A80036; stroke-width: 1.0;"/><line style="stroke: #A80036; stroke-width: 1.0;" x1="734" x2="1005" y1="271.625" y2="271.625"/><text fill="#000000" font-family="sans-serif" font-size="13" lengthAdjust="spacingAndGlyphs" textLength="253" x="741" y="266.7686">create(name, blueprint, source, parameters)</text><rect fill="#FFCC88" filter="url(#fstf8s6sjxmgk)" height="31.6094" style="stroke: #A80036; stroke-width: 1.5;" width="166" x="1011" y="249.2734"/><text fill="#000000" font-family="sans-serif" font-size="14" lengthAdjust="spacingAndGlyphs" textLength="152" x="1018" y="270.8066">Data Blue Print Instance</text><path d="M448.5,302.8828 L521.5,302.8828 L521.5,310.8828 L511.5,320.8828 L448.5,320.8828 L448.5,302.8828 " fill="#EEEEEE" style="stroke: #000000; stroke-width: 1.0;"/><rect fill="none" height="141.9219" style="stroke: #000000; stroke-width: 2.0;" width="973" x="448.5" y="302.8828"/><text fill="#000000" font-family="sans-serif" font-size="13" font-weight="bold" lengthAdjust="spacingAndGlyphs" textLength="28" x="463.5" y="317.3779">loop</text><text fill="#000000" font-family="sans-serif" font-size="11" font-weight="bold" lengthAdjust="spacingAndGlyphs" textLength="124" x="536.5" y="316.3018">[while data generated]</text><polygon fill="#A80036" points="1084,339.5859,1094,343.5859,1084,347.5859,1088,343.5859" style="stroke: #A80036; stroke-width: 1.0;"/><line style="stroke: #A80036; stroke-width: 1.0;" x1="507" x2="1090" y1="343.5859" y2="343.5859"/><text fill="#000000" font-family="sans-serif" font-size="13" lengthAdjust="spacingAndGlyphs" textLength="50" x="514" y="338.7295">newData</text><polygon fill="#A80036" points="1351.5,369.9375,1361.5,373.9375,1351.5,377.9375,1355.5,373.9375" style="stroke: #A80036; stroke-width: 1.0;"/><line style="stroke: #A80036; stroke-width: 1.0;" x1="1096" x2="1357.5" y1="373.9375" y2="373.9375"/><text fill="#000000" font-family="sans-serif" font-size="13" lengthAdjust="spacingAndGlyphs" textLength="123" x="1103" y="369.0811">create(name, source)</text><rect fill="#FFCC88" filter="url(#fstf8s6sjxmgk)" height="31.6094" style="stroke: #A80036; stroke-width: 1.5;" width="44" x="1363.5" y="351.5859"/><text fill="#000000" font-family="sans-serif" font-size="14" lengthAdjust="spacingAndGlyphs" textLength="30" x="1370.5" y="373.1191">Data</text><polygon fill="#A80036" points="1239,416.5469,1249,420.5469,1239,424.5469,1243,420.5469" style="stroke: #A80036; stroke-width: 1.0;"/><line style="stroke: #A80036; stroke-width: 1.0;" x1="1096" x2="1245" y1="420.5469" y2="420.5469"/><text fill="#000000" font-family="sans-serif" font-size="13" lengthAdjust="spacingAndGlyphs" textLength="131" x="1103" y="415.6904">create(data, metadata)</text><rect fill="#FFCC88" filter="url(#fstf8s6sjxmgk)" height="31.6094" style="stroke: #A80036; stroke-width: 1.5;" width="79" x="1251" y="398.1953"/><text fill="#000000" font-family="sans-serif" font-size="14" lengthAdjust="spacingAndGlyphs" textLength="65" x="1258" y="419.7285">Meta Data</text><rect fill="#EEEEEE" filter="url(#fstf8s6sjxmgk)" height="3" style="stroke: #EEEEEE; stroke-width: 1.0;" width="1428.5" x="3" y="472.9805"/><line style="stroke: #000000; stroke-width: 1.0;" x1="3" x2="1431.5" y1="472.9805" y2="472.9805"/><line style="stroke: #000000; stroke-width: 1.0;" x1="3" x2="1431.5" y1="475.9805" y2="475.9805"/><rect fill="#EEEEEE" filter="url(#fstf8s6sjxmgk)" height="24.3516" style="stroke: #000000; stroke-width: 2.0;" width="162" x="636.25" y="461.8047"/><text fill="#000000" font-family="sans-serif" font-size="13" font-weight="bold" lengthAdjust="spacingAndGlyphs" textLength="144" x="642.25" y="479.2998">UnRegister Datasource</text><polygon fill="#A80036" points="193.5,514.5078,203.5,518.5078,193.5,522.5078,197.5,518.5078" style="stroke: #A80036; stroke-width: 1.0;"/><line style="stroke: #A80036; stroke-width: 1.0;" x1="56.5" x2="199.5" y1="518.5078" y2="518.5078"/><text fill="#000000" font-family="sans-serif" font-size="13" lengthAdjust="spacingAndGlyphs" textLength="125" x="63.5" y="513.6514">datasource/unregister</text><polygon fill="#A80036" points="495,544.8594,505,548.8594,495,552.8594,499,548.8594" style="stroke: #A80036; stroke-width: 1.0;"/><line style="stroke: #A80036; stroke-width: 1.0;" x1="205.5" x2="501" y1="548.8594" y2="548.8594"/><text fill="#000000" font-family="sans-serif" font-size="13" lengthAdjust="spacingAndGlyphs" textLength="49" x="212.5" y="544.0029">disable()</text><polygon fill="#A80036" points="1084,575.2109,1094,579.2109,1084,583.2109,1088,579.2109" style="stroke: #A80036; stroke-width: 1.0;"/><line style="stroke: #A80036; stroke-width: 1.0;" x1="507" x2="1090" y1="579.2109" y2="579.2109"/><text fill="#000000" font-family="sans-serif" font-size="13" lengthAdjust="spacingAndGlyphs" textLength="49" x="514" y="574.3545">disable()</text><path d="M1001,594.2109 L1074,594.2109 L1074,602.2109 L1064,612.2109 L1001,612.2109 L1001,594.2109 " fill="#EEEEEE" style="stroke: #000000; stroke-width: 1.0;"/><rect fill="none" height="79.0547" style="stroke: #000000; stroke-width: 2.0;" width="420.5" x="1001" y="594.2109"/><text fill="#000000" font-family="sans-serif" font-size="13" font-weight="bold" lengthAdjust="spacingAndGlyphs" textLength="28" x="1016" y="608.7061">loop</text><text fill="#000000" font-family="sans-serif" font-size="11" font-weight="bold" lengthAdjust="spacingAndGlyphs" textLength="46" x="1089" y="607.6299">[all data]</text><polygon fill="#A80036" points="1375.5,630.9141,1385.5,634.9141,1375.5,638.9141,1379.5,634.9141" style="stroke: #A80036; stroke-width: 1.0;"/><line style="stroke: #A80036; stroke-width: 1.0;" x1="1096" x2="1381.5" y1="634.9141" y2="634.9141"/><text fill="#000000" font-family="sans-serif" font-size="13" lengthAdjust="spacingAndGlyphs" textLength="49" x="1103" y="630.0576">disable()</text><polygon fill="#A80036" points="1303.5,661.2656,1293.5,665.2656,1303.5,669.2656,1299.5,665.2656" style="stroke: #A80036; stroke-width: 1.0;"/><line style="stroke: #A80036; stroke-width: 1.0;" x1="1297.5" x2="1386.5" y1="665.2656" y2="665.2656"/><text fill="#000000" font-family="sans-serif" font-size="13" lengthAdjust="spacingAndGlyphs" textLength="71" x="1309.5" y="660.4092">unavailable()</text><polygon fill="#A80036" points="1084,698.6172,1094,702.6172,1084,706.6172,1088,702.6172" style="stroke: #A80036; stroke-width: 1.0;"/><line style="stroke: #A80036; stroke-width: 1.0;" x1="507" x2="1090" y1="702.6172" y2="702.6172"/><text fill="#000000" font-family="sans-serif" font-size="13" lengthAdjust="spacingAndGlyphs" textLength="51" x="514" y="697.7607">destroy()</text><line style="stroke: #A80036; stroke-width: 2.0;" x1="1087" x2="1105" y1="693.6172" y2="711.6172"/><line style="stroke: #A80036; stroke-width: 2.0;" x1="1087" x2="1105" y1="711.6172" y2="693.6172"/><!--
@startuml
 actor "Data Engineer" as de
 participant "Data Management Layer" as dml #ffcc88
 participant "Data Source" as ds #ffcc88
 participant "Data Adaptor" as da #ffcc88
 participant "Data Blue Print" as dbp #ffcc88
 participant "Data Blue Print Instance" as dbpi #ffcc88
 participant "Meta Data" as md #ffcc88
 participant "Data" as data #ffcc88

== Register Datasource ==
de -> dml : datasource/register
dml -> ds  ** : create(name, DataAdaptor, parameters)
de -> dbp : deploy (name, source, parameters)
dbp -> dbpi ** : create(name, blueprint, source, parameters)
loop while data generated
    ds -> dbpi : newData
    dbpi -> data ** : create(name, source)
    dbpi -> md ** : create(data, metadata)
end

== UnRegister Datasource ==
de -> dml : datasource/unregister
dml -> ds : disable()
ds -> dbpi : disable()
loop all data
    dbpi -> data : disable()
    data -> md : unavailable()
end
ds -> dbpi !! : destroy()

@enduml

PlantUML version 1.2019.05(Sat Apr 20 09:45:36 PDT 2019)
(GPL source distribution)
Java Runtime: OpenJDK Runtime Environment
JVM: OpenJDK 64-Bit Server VM
Java Version: 12.0.1+12
Operating System: Windows 10
OS Version: 10.0
Default Encoding: Cp1252
Language: en
Country: US
--></g></svg>