<?xml version="1.0" encoding="UTF-8" standalone="no"?><svg xmlns="http://www.w3.org/2000/svg" xmlns:xlink="http://www.w3.org/1999/xlink" contentScriptType="application/ecmascript" contentStyleType="text/css" height="600px" preserveAspectRatio="none" style="width:2040px;height:600px;" version="1.1" viewBox="0 0 2040 600" width="2040px" zoomAndPan="magnify"><defs><filter height="300%" id="f1jv7ywkeru7bb" width="300%" x="-1" y="-1"><feGaussianBlur result="blurOut" stdDeviation="2.0"/><feColorMatrix in="blurOut" result="blurOut2" type="matrix" values="0 0 0 0 0 0 0 0 0 0 0 0 0 0 0 0 0 0 .4 0"/><feOffset dx="4.0" dy="4.0" in="blurOut2" result="blurOut3"/><feBlend in="SourceGraphic" in2="blurOut3" mode="normal"/></filter></defs><g><!--cluster Data Orchestrator--><polygon fill="#ADD8E6" filter="url(#f1jv7ywkeru7bb)" points="308.5,472,439.5,472,446.5,495.6094,481.5,495.6094,481.5,588,308.5,588,308.5,472" style="stroke: #000000; stroke-width: 1.5;"/><line style="stroke: #000000; stroke-width: 1.5;" x1="308.5" x2="446.5" y1="495.6094" y2="495.6094"/><text fill="#000000" font-family="sans-serif" font-size="14" font-weight="bold" lengthAdjust="spacingAndGlyphs" textLength="125" x="312.5" y="488.5332">Data Orchestrator</text><!--cluster Service Management Layer--><polygon fill="#90EE90" filter="url(#f1jv7ywkeru7bb)" points="1017.5,480,1214.5,480,1221.5,503.6094,1566.5,503.6094,1566.5,580,1017.5,580,1017.5,480" style="stroke: #000000; stroke-width: 1.5;"/><line style="stroke: #000000; stroke-width: 1.5;" x1="1017.5" x2="1221.5" y1="503.6094" y2="503.6094"/><text fill="#000000" font-family="sans-serif" font-size="14" font-weight="bold" lengthAdjust="spacingAndGlyphs" textLength="191" x="1021.5" y="496.5332">Service Management Layer</text><!--cluster Software Defined Infrastructure--><polygon fill="#FFFFE0" filter="url(#f1jv7ywkeru7bb)" points="1595.5,480,1823.5,480,1830.5,503.6094,1833.5,503.6094,1833.5,580,1595.5,580,1595.5,480" style="stroke: #000000; stroke-width: 1.5;"/><line style="stroke: #000000; stroke-width: 1.5;" x1="1595.5" x2="1830.5" y1="503.6094" y2="503.6094"/><text fill="#000000" font-family="sans-serif" font-size="14" font-weight="bold" lengthAdjust="spacingAndGlyphs" textLength="222" x="1599.5" y="496.5332">Software Defined Infrastructure</text><!--cluster Service Orchestrator--><polygon fill="#90EE90" filter="url(#f1jv7ywkeru7bb)" points="207.5,73,361.5,73,368.5,96.6094,630.5,96.6094,630.5,406,207.5,406,207.5,73" style="stroke: #000000; stroke-width: 1.5;"/><line style="stroke: #000000; stroke-width: 1.5;" x1="207.5" x2="368.5" y1="96.6094" y2="96.6094"/><text fill="#000000" font-family="sans-serif" font-size="14" font-weight="bold" lengthAdjust="spacingAndGlyphs" textLength="148" x="211.5" y="89.5332">Service Orchestrator</text><!--cluster Application Management Layer--><polygon fill="#ADD8E6" filter="url(#f1jv7ywkeru7bb)" points="1787.5,298,2008.5,298,2015.5,321.6094,2018.5,321.6094,2018.5,398,1787.5,398,1787.5,298" style="stroke: #000000; stroke-width: 1.5;"/><line style="stroke: #000000; stroke-width: 1.5;" x1="1787.5" x2="2015.5" y1="321.6094" y2="321.6094"/><text fill="#000000" font-family="sans-serif" font-size="14" font-weight="bold" lengthAdjust="spacingAndGlyphs" textLength="215" x="1791.5" y="314.5332">Application Management Layer</text><polygon fill="#90EE90" filter="url(#f1jv7ywkeru7bb)" points="6,330.5,141,330.5,148,354.1094,155,354.1094,155,385.7188,6,385.7188,6,330.5" style="stroke: #000000; stroke-width: 1.5;"/><line style="stroke: #000000; stroke-width: 1.5;" x1="6" x2="148" y1="354.1094" y2="354.1094"/><text fill="#000000" font-family="sans-serif" font-size="14" font-weight="bold" lengthAdjust="spacingAndGlyphs" textLength="129" x="10" y="347.0332">Service Controller</text><polygon fill="#90EE90" filter="url(#f1jv7ywkeru7bb)" points="654.5,330.5,794.5,330.5,801.5,354.1094,808.5,354.1094,808.5,385.7188,654.5,385.7188,654.5,330.5" style="stroke: #000000; stroke-width: 1.5;"/><line style="stroke: #000000; stroke-width: 1.5;" x1="654.5" x2="801.5" y1="354.1094" y2="354.1094"/><text fill="#000000" font-family="sans-serif" font-size="14" font-weight="bold" lengthAdjust="spacingAndGlyphs" textLength="134" x="658.5" y="347.0332">Service Repository</text><!--class DataInstance--><rect fill="#FEFECE" filter="url(#f1jv7ywkeru7bb)" height="48" id="DataInstance" style="stroke: #A80036; stroke-width: 1.5;" width="105" x="352" y="516"/><ellipse cx="367" cy="532" fill="#ADD1B2" rx="11" ry="11" style="stroke: #A80036; stroke-width: 1.0;"/><path d="M369.7656,527.875 Q369.9219,527.6563 370.1094,527.5469 Q370.2969,527.4375 370.5156,527.4375 Q370.8906,527.4375 371.125,527.7031 Q371.3594,527.9531 371.3594,528.5625 L371.3594,530.0156 Q371.3594,530.625 371.125,530.8906 Q370.8906,531.1563 370.5156,531.1563 Q370.1719,531.1563 369.9688,530.9531 Q369.7656,530.7656 369.6563,530.25 Q369.6094,529.8906 369.4219,529.7031 Q369.0938,529.3281 368.4844,529.1094 Q367.875,528.8906 367.25,528.8906 Q366.4844,528.8906 365.8438,529.2188 Q365.2188,529.5469 364.7188,530.2969 Q364.2344,531.0469 364.2344,532.0781 L364.2344,533.1719 Q364.2344,534.4063 365.125,535.2344 Q366.0156,536.0469 367.6094,536.0469 Q368.5469,536.0469 369.2031,535.7969 Q369.5938,535.6406 370.0156,535.2031 Q370.2813,534.9375 370.4219,534.8594 Q370.5781,534.7813 370.7813,534.7813 Q371.1094,534.7813 371.3594,535.0469 Q371.625,535.2969 371.625,535.6406 Q371.625,535.9844 371.2813,536.3906 Q370.7813,536.9688 369.9844,537.2969 Q368.9063,537.75 367.6094,537.75 Q366.0938,537.75 364.8906,537.125 Q363.9063,536.625 363.2188,535.5625 Q362.5313,534.4844 362.5313,533.2031 L362.5313,532.0469 Q362.5313,530.7188 363.1406,529.5781 Q363.7656,528.4219 364.8594,527.8125 Q365.9531,527.1875 367.1875,527.1875 Q367.9219,527.1875 368.5625,527.3594 Q369.2188,527.5156 369.7656,527.875 Z "/><text fill="#000000" font-family="sans-serif" font-size="12" lengthAdjust="spacingAndGlyphs" textLength="73" x="381" y="536.9102">DataInstance</text><line style="stroke: #A80036; stroke-width: 1.5;" x1="353" x2="456" y1="548" y2="548"/><line style="stroke: #A80036; stroke-width: 1.5;" x1="353" x2="456" y1="556" y2="556"/><polygon fill="#FFFFE0" filter="url(#f1jv7ywkeru7bb)" points="844,330.5,1041,330.5,1048,354.1094,1055,354.1094,1055,385.7188,844,385.7188,844,330.5" style="stroke: #000000; stroke-width: 1.5;"/><line style="stroke: #000000; stroke-width: 1.5;" x1="844" x2="1048" y1="354.1094" y2="354.1094"/><text fill="#000000" font-family="sans-serif" font-size="14" font-weight="bold" lengthAdjust="spacingAndGlyphs" textLength="191" x="848" y="347.0332">Infrastructure Orchestrator</text><!--class Image--><rect fill="#FEFECE" filter="url(#f1jv7ywkeru7bb)" height="48" id="Image" style="stroke: #A80036; stroke-width: 1.5;" width="67" x="1155" y="516"/><ellipse cx="1170" cy="532" fill="#ADD1B2" rx="11" ry="11" style="stroke: #A80036; stroke-width: 1.0;"/><path d="M1172.7656,527.875 Q1172.9219,527.6563 1173.1094,527.5469 Q1173.2969,527.4375 1173.5156,527.4375 Q1173.8906,527.4375 1174.125,527.7031 Q1174.3594,527.9531 1174.3594,528.5625 L1174.3594,530.0156 Q1174.3594,530.625 1174.125,530.8906 Q1173.8906,531.1563 1173.5156,531.1563 Q1173.1719,531.1563 1172.9688,530.9531 Q1172.7656,530.7656 1172.6563,530.25 Q1172.6094,529.8906 1172.4219,529.7031 Q1172.0938,529.3281 1171.4844,529.1094 Q1170.875,528.8906 1170.25,528.8906 Q1169.4844,528.8906 1168.8438,529.2188 Q1168.2188,529.5469 1167.7188,530.2969 Q1167.2344,531.0469 1167.2344,532.0781 L1167.2344,533.1719 Q1167.2344,534.4063 1168.125,535.2344 Q1169.0156,536.0469 1170.6094,536.0469 Q1171.5469,536.0469 1172.2031,535.7969 Q1172.5938,535.6406 1173.0156,535.2031 Q1173.2813,534.9375 1173.4219,534.8594 Q1173.5781,534.7813 1173.7813,534.7813 Q1174.1094,534.7813 1174.3594,535.0469 Q1174.625,535.2969 1174.625,535.6406 Q1174.625,535.9844 1174.2813,536.3906 Q1173.7813,536.9688 1172.9844,537.2969 Q1171.9063,537.75 1170.6094,537.75 Q1169.0938,537.75 1167.8906,537.125 Q1166.9063,536.625 1166.2188,535.5625 Q1165.5313,534.4844 1165.5313,533.2031 L1165.5313,532.0469 Q1165.5313,530.7188 1166.1406,529.5781 Q1166.7656,528.4219 1167.8594,527.8125 Q1168.9531,527.1875 1170.1875,527.1875 Q1170.9219,527.1875 1171.5625,527.3594 Q1172.2188,527.5156 1172.7656,527.875 Z "/><text fill="#000000" font-family="sans-serif" font-size="12" lengthAdjust="spacingAndGlyphs" textLength="35" x="1184" y="536.9102">Image</text><line style="stroke: #A80036; stroke-width: 1.5;" x1="1156" x2="1221" y1="548" y2="548"/><line style="stroke: #A80036; stroke-width: 1.5;" x1="1156" x2="1221" y1="556" y2="556"/><!--class Servicelet--><rect fill="#FEFECE" filter="url(#f1jv7ywkeru7bb)" height="48" id="Servicelet" style="stroke: #A80036; stroke-width: 1.5;" width="85" x="1257" y="516"/><ellipse cx="1272" cy="532" fill="#ADD1B2" rx="11" ry="11" style="stroke: #A80036; stroke-width: 1.0;"/><path d="M1274.7656,527.875 Q1274.9219,527.6563 1275.1094,527.5469 Q1275.2969,527.4375 1275.5156,527.4375 Q1275.8906,527.4375 1276.125,527.7031 Q1276.3594,527.9531 1276.3594,528.5625 L1276.3594,530.0156 Q1276.3594,530.625 1276.125,530.8906 Q1275.8906,531.1563 1275.5156,531.1563 Q1275.1719,531.1563 1274.9688,530.9531 Q1274.7656,530.7656 1274.6563,530.25 Q1274.6094,529.8906 1274.4219,529.7031 Q1274.0938,529.3281 1273.4844,529.1094 Q1272.875,528.8906 1272.25,528.8906 Q1271.4844,528.8906 1270.8438,529.2188 Q1270.2188,529.5469 1269.7188,530.2969 Q1269.2344,531.0469 1269.2344,532.0781 L1269.2344,533.1719 Q1269.2344,534.4063 1270.125,535.2344 Q1271.0156,536.0469 1272.6094,536.0469 Q1273.5469,536.0469 1274.2031,535.7969 Q1274.5938,535.6406 1275.0156,535.2031 Q1275.2813,534.9375 1275.4219,534.8594 Q1275.5781,534.7813 1275.7813,534.7813 Q1276.1094,534.7813 1276.3594,535.0469 Q1276.625,535.2969 1276.625,535.6406 Q1276.625,535.9844 1276.2813,536.3906 Q1275.7813,536.9688 1274.9844,537.2969 Q1273.9063,537.75 1272.6094,537.75 Q1271.0938,537.75 1269.8906,537.125 Q1268.9063,536.625 1268.2188,535.5625 Q1267.5313,534.4844 1267.5313,533.2031 L1267.5313,532.0469 Q1267.5313,530.7188 1268.1406,529.5781 Q1268.7656,528.4219 1269.8594,527.8125 Q1270.9531,527.1875 1272.1875,527.1875 Q1272.9219,527.1875 1273.5625,527.3594 Q1274.2188,527.5156 1274.7656,527.875 Z "/><text fill="#000000" font-family="sans-serif" font-size="12" lengthAdjust="spacingAndGlyphs" textLength="53" x="1286" y="536.9102">Servicelet</text><line style="stroke: #A80036; stroke-width: 1.5;" x1="1258" x2="1341" y1="548" y2="548"/><line style="stroke: #A80036; stroke-width: 1.5;" x1="1258" x2="1341" y1="556" y2="556"/><!--class RunScript--><rect fill="#FEFECE" filter="url(#f1jv7ywkeru7bb)" height="48" id="RunScript" style="stroke: #A80036; stroke-width: 1.5;" width="86" x="1033.5" y="516"/><ellipse cx="1048.5" cy="532" fill="#ADD1B2" rx="11" ry="11" style="stroke: #A80036; stroke-width: 1.0;"/><path d="M1051.2656,527.875 Q1051.4219,527.6563 1051.6094,527.5469 Q1051.7969,527.4375 1052.0156,527.4375 Q1052.3906,527.4375 1052.625,527.7031 Q1052.8594,527.9531 1052.8594,528.5625 L1052.8594,530.0156 Q1052.8594,530.625 1052.625,530.8906 Q1052.3906,531.1563 1052.0156,531.1563 Q1051.6719,531.1563 1051.4688,530.9531 Q1051.2656,530.7656 1051.1563,530.25 Q1051.1094,529.8906 1050.9219,529.7031 Q1050.5938,529.3281 1049.9844,529.1094 Q1049.375,528.8906 1048.75,528.8906 Q1047.9844,528.8906 1047.3438,529.2188 Q1046.7188,529.5469 1046.2188,530.2969 Q1045.7344,531.0469 1045.7344,532.0781 L1045.7344,533.1719 Q1045.7344,534.4063 1046.625,535.2344 Q1047.5156,536.0469 1049.1094,536.0469 Q1050.0469,536.0469 1050.7031,535.7969 Q1051.0938,535.6406 1051.5156,535.2031 Q1051.7813,534.9375 1051.9219,534.8594 Q1052.0781,534.7813 1052.2813,534.7813 Q1052.6094,534.7813 1052.8594,535.0469 Q1053.125,535.2969 1053.125,535.6406 Q1053.125,535.9844 1052.7813,536.3906 Q1052.2813,536.9688 1051.4844,537.2969 Q1050.4063,537.75 1049.1094,537.75 Q1047.5938,537.75 1046.3906,537.125 Q1045.4063,536.625 1044.7188,535.5625 Q1044.0313,534.4844 1044.0313,533.2031 L1044.0313,532.0469 Q1044.0313,530.7188 1044.6406,529.5781 Q1045.2656,528.4219 1046.3594,527.8125 Q1047.4531,527.1875 1048.6875,527.1875 Q1049.4219,527.1875 1050.0625,527.3594 Q1050.7188,527.5156 1051.2656,527.875 Z "/><text fill="#000000" font-family="sans-serif" font-size="12" lengthAdjust="spacingAndGlyphs" textLength="54" x="1062.5" y="536.9102">RunScript</text><line style="stroke: #A80036; stroke-width: 1.5;" x1="1034.5" x2="1118.5" y1="548" y2="548"/><line style="stroke: #A80036; stroke-width: 1.5;" x1="1034.5" x2="1118.5" y1="556" y2="556"/><!--class Stack--><rect fill="#FEFECE" filter="url(#f1jv7ywkeru7bb)" height="48" id="Stack" style="stroke: #A80036; stroke-width: 1.5;" width="62" x="1377.5" y="516"/><ellipse cx="1392.5" cy="532" fill="#ADD1B2" rx="11" ry="11" style="stroke: #A80036; stroke-width: 1.0;"/><path d="M1395.2656,527.875 Q1395.4219,527.6563 1395.6094,527.5469 Q1395.7969,527.4375 1396.0156,527.4375 Q1396.3906,527.4375 1396.625,527.7031 Q1396.8594,527.9531 1396.8594,528.5625 L1396.8594,530.0156 Q1396.8594,530.625 1396.625,530.8906 Q1396.3906,531.1563 1396.0156,531.1563 Q1395.6719,531.1563 1395.4688,530.9531 Q1395.2656,530.7656 1395.1563,530.25 Q1395.1094,529.8906 1394.9219,529.7031 Q1394.5938,529.3281 1393.9844,529.1094 Q1393.375,528.8906 1392.75,528.8906 Q1391.9844,528.8906 1391.3438,529.2188 Q1390.7188,529.5469 1390.2188,530.2969 Q1389.7344,531.0469 1389.7344,532.0781 L1389.7344,533.1719 Q1389.7344,534.4063 1390.625,535.2344 Q1391.5156,536.0469 1393.1094,536.0469 Q1394.0469,536.0469 1394.7031,535.7969 Q1395.0938,535.6406 1395.5156,535.2031 Q1395.7813,534.9375 1395.9219,534.8594 Q1396.0781,534.7813 1396.2813,534.7813 Q1396.6094,534.7813 1396.8594,535.0469 Q1397.125,535.2969 1397.125,535.6406 Q1397.125,535.9844 1396.7813,536.3906 Q1396.2813,536.9688 1395.4844,537.2969 Q1394.4063,537.75 1393.1094,537.75 Q1391.5938,537.75 1390.3906,537.125 Q1389.4063,536.625 1388.7188,535.5625 Q1388.0313,534.4844 1388.0313,533.2031 L1388.0313,532.0469 Q1388.0313,530.7188 1388.6406,529.5781 Q1389.2656,528.4219 1390.3594,527.8125 Q1391.4531,527.1875 1392.6875,527.1875 Q1393.4219,527.1875 1394.0625,527.3594 Q1394.7188,527.5156 1395.2656,527.875 Z "/><text fill="#000000" font-family="sans-serif" font-size="12" lengthAdjust="spacingAndGlyphs" textLength="30" x="1406.5" y="536.9102">Stack</text><line style="stroke: #A80036; stroke-width: 1.5;" x1="1378.5" x2="1438.5" y1="548" y2="548"/><line style="stroke: #A80036; stroke-width: 1.5;" x1="1378.5" x2="1438.5" y1="556" y2="556"/><!--class Stacklet--><rect fill="#FEFECE" filter="url(#f1jv7ywkeru7bb)" height="48" id="Stacklet" style="stroke: #A80036; stroke-width: 1.5;" width="75" x="1475" y="516"/><ellipse cx="1490" cy="532" fill="#ADD1B2" rx="11" ry="11" style="stroke: #A80036; stroke-width: 1.0;"/><path d="M1492.7656,527.875 Q1492.9219,527.6563 1493.1094,527.5469 Q1493.2969,527.4375 1493.5156,527.4375 Q1493.8906,527.4375 1494.125,527.7031 Q1494.3594,527.9531 1494.3594,528.5625 L1494.3594,530.0156 Q1494.3594,530.625 1494.125,530.8906 Q1493.8906,531.1563 1493.5156,531.1563 Q1493.1719,531.1563 1492.9688,530.9531 Q1492.7656,530.7656 1492.6563,530.25 Q1492.6094,529.8906 1492.4219,529.7031 Q1492.0938,529.3281 1491.4844,529.1094 Q1490.875,528.8906 1490.25,528.8906 Q1489.4844,528.8906 1488.8438,529.2188 Q1488.2188,529.5469 1487.7188,530.2969 Q1487.2344,531.0469 1487.2344,532.0781 L1487.2344,533.1719 Q1487.2344,534.4063 1488.125,535.2344 Q1489.0156,536.0469 1490.6094,536.0469 Q1491.5469,536.0469 1492.2031,535.7969 Q1492.5938,535.6406 1493.0156,535.2031 Q1493.2813,534.9375 1493.4219,534.8594 Q1493.5781,534.7813 1493.7813,534.7813 Q1494.1094,534.7813 1494.3594,535.0469 Q1494.625,535.2969 1494.625,535.6406 Q1494.625,535.9844 1494.2813,536.3906 Q1493.7813,536.9688 1492.9844,537.2969 Q1491.9063,537.75 1490.6094,537.75 Q1489.0938,537.75 1487.8906,537.125 Q1486.9063,536.625 1486.2188,535.5625 Q1485.5313,534.4844 1485.5313,533.2031 L1485.5313,532.0469 Q1485.5313,530.7188 1486.1406,529.5781 Q1486.7656,528.4219 1487.8594,527.8125 Q1488.9531,527.1875 1490.1875,527.1875 Q1490.9219,527.1875 1491.5625,527.3594 Q1492.2188,527.5156 1492.7656,527.875 Z "/><text fill="#000000" font-family="sans-serif" font-size="12" lengthAdjust="spacingAndGlyphs" textLength="43" x="1504" y="536.9102">Stacklet</text><line style="stroke: #A80036; stroke-width: 1.5;" x1="1476" x2="1549" y1="548" y2="548"/><line style="stroke: #A80036; stroke-width: 1.5;" x1="1476" x2="1549" y1="556" y2="556"/><!--class Resource--><rect fill="#FEFECE" filter="url(#f1jv7ywkeru7bb)" height="48" id="Resource" style="stroke: #A80036; stroke-width: 1.5;" width="86" x="1649.5" y="516"/><ellipse cx="1664.5" cy="532" fill="#ADD1B2" rx="11" ry="11" style="stroke: #A80036; stroke-width: 1.0;"/><path d="M1667.2656,527.875 Q1667.4219,527.6563 1667.6094,527.5469 Q1667.7969,527.4375 1668.0156,527.4375 Q1668.3906,527.4375 1668.625,527.7031 Q1668.8594,527.9531 1668.8594,528.5625 L1668.8594,530.0156 Q1668.8594,530.625 1668.625,530.8906 Q1668.3906,531.1563 1668.0156,531.1563 Q1667.6719,531.1563 1667.4688,530.9531 Q1667.2656,530.7656 1667.1563,530.25 Q1667.1094,529.8906 1666.9219,529.7031 Q1666.5938,529.3281 1665.9844,529.1094 Q1665.375,528.8906 1664.75,528.8906 Q1663.9844,528.8906 1663.3438,529.2188 Q1662.7188,529.5469 1662.2188,530.2969 Q1661.7344,531.0469 1661.7344,532.0781 L1661.7344,533.1719 Q1661.7344,534.4063 1662.625,535.2344 Q1663.5156,536.0469 1665.1094,536.0469 Q1666.0469,536.0469 1666.7031,535.7969 Q1667.0938,535.6406 1667.5156,535.2031 Q1667.7813,534.9375 1667.9219,534.8594 Q1668.0781,534.7813 1668.2813,534.7813 Q1668.6094,534.7813 1668.8594,535.0469 Q1669.125,535.2969 1669.125,535.6406 Q1669.125,535.9844 1668.7813,536.3906 Q1668.2813,536.9688 1667.4844,537.2969 Q1666.4063,537.75 1665.1094,537.75 Q1663.5938,537.75 1662.3906,537.125 Q1661.4063,536.625 1660.7188,535.5625 Q1660.0313,534.4844 1660.0313,533.2031 L1660.0313,532.0469 Q1660.0313,530.7188 1660.6406,529.5781 Q1661.2656,528.4219 1662.3594,527.8125 Q1663.4531,527.1875 1664.6875,527.1875 Q1665.4219,527.1875 1666.0625,527.3594 Q1666.7188,527.5156 1667.2656,527.875 Z "/><text fill="#000000" font-family="sans-serif" font-size="12" lengthAdjust="spacingAndGlyphs" textLength="54" x="1678.5" y="536.9102">Resource</text><line style="stroke: #A80036; stroke-width: 1.5;" x1="1650.5" x2="1734.5" y1="548" y2="548"/><line style="stroke: #A80036; stroke-width: 1.5;" x1="1650.5" x2="1734.5" y1="556" y2="556"/><!--class StackInstance--><rect fill="#FEFECE" filter="url(#f1jv7ywkeru7bb)" height="61.8359" id="StackInstance" style="stroke: #A80036; stroke-width: 1.5;" width="109" x="497" y="144.5"/><ellipse cx="512" cy="160.5" fill="#ADD1B2" rx="11" ry="11" style="stroke: #A80036; stroke-width: 1.0;"/><path d="M514.7656,156.375 Q514.9219,156.1563 515.1094,156.0469 Q515.2969,155.9375 515.5156,155.9375 Q515.8906,155.9375 516.125,156.2031 Q516.3594,156.4531 516.3594,157.0625 L516.3594,158.5156 Q516.3594,159.125 516.125,159.3906 Q515.8906,159.6563 515.5156,159.6563 Q515.1719,159.6563 514.9688,159.4531 Q514.7656,159.2656 514.6563,158.75 Q514.6094,158.3906 514.4219,158.2031 Q514.0938,157.8281 513.4844,157.6094 Q512.875,157.3906 512.25,157.3906 Q511.4844,157.3906 510.8438,157.7188 Q510.2188,158.0469 509.7188,158.7969 Q509.2344,159.5469 509.2344,160.5781 L509.2344,161.6719 Q509.2344,162.9063 510.125,163.7344 Q511.0156,164.5469 512.6094,164.5469 Q513.5469,164.5469 514.2031,164.2969 Q514.5938,164.1406 515.0156,163.7031 Q515.2813,163.4375 515.4219,163.3594 Q515.5781,163.2813 515.7813,163.2813 Q516.1094,163.2813 516.3594,163.5469 Q516.625,163.7969 516.625,164.1406 Q516.625,164.4844 516.2813,164.8906 Q515.7813,165.4688 514.9844,165.7969 Q513.9063,166.25 512.6094,166.25 Q511.0938,166.25 509.8906,165.625 Q508.9063,165.125 508.2188,164.0625 Q507.5313,162.9844 507.5313,161.7031 L507.5313,160.5469 Q507.5313,159.2188 508.1406,158.0781 Q508.7656,156.9219 509.8594,156.3125 Q510.9531,155.6875 512.1875,155.6875 Q512.9219,155.6875 513.5625,155.8594 Q514.2188,156.0156 514.7656,156.375 Z "/><text fill="#000000" font-family="sans-serif" font-size="12" lengthAdjust="spacingAndGlyphs" textLength="77" x="526" y="165.4102">StackInstance</text><line style="stroke: #A80036; stroke-width: 1.5;" x1="498" x2="605" y1="176.5" y2="176.5"/><text fill="#000000" font-family="sans-serif" font-size="11" lengthAdjust="spacingAndGlyphs" textLength="56" x="503" y="191.9189">string name</text><line style="stroke: #A80036; stroke-width: 1.5;" x1="498" x2="605" y1="198.3359" y2="198.3359"/><!--class ServiceInstance--><rect fill="#FEFECE" filter="url(#f1jv7ywkeru7bb)" height="48" id="ServiceInstance" style="stroke: #A80036; stroke-width: 1.5;" width="119" x="487" y="334"/><ellipse cx="502" cy="350" fill="#ADD1B2" rx="11" ry="11" style="stroke: #A80036; stroke-width: 1.0;"/><path d="M504.7656,345.875 Q504.9219,345.6563 505.1094,345.5469 Q505.2969,345.4375 505.5156,345.4375 Q505.8906,345.4375 506.125,345.7031 Q506.3594,345.9531 506.3594,346.5625 L506.3594,348.0156 Q506.3594,348.625 506.125,348.8906 Q505.8906,349.1563 505.5156,349.1563 Q505.1719,349.1563 504.9688,348.9531 Q504.7656,348.7656 504.6563,348.25 Q504.6094,347.8906 504.4219,347.7031 Q504.0938,347.3281 503.4844,347.1094 Q502.875,346.8906 502.25,346.8906 Q501.4844,346.8906 500.8438,347.2188 Q500.2188,347.5469 499.7188,348.2969 Q499.2344,349.0469 499.2344,350.0781 L499.2344,351.1719 Q499.2344,352.4063 500.125,353.2344 Q501.0156,354.0469 502.6094,354.0469 Q503.5469,354.0469 504.2031,353.7969 Q504.5938,353.6406 505.0156,353.2031 Q505.2813,352.9375 505.4219,352.8594 Q505.5781,352.7813 505.7813,352.7813 Q506.1094,352.7813 506.3594,353.0469 Q506.625,353.2969 506.625,353.6406 Q506.625,353.9844 506.2813,354.3906 Q505.7813,354.9688 504.9844,355.2969 Q503.9063,355.75 502.6094,355.75 Q501.0938,355.75 499.8906,355.125 Q498.9063,354.625 498.2188,353.5625 Q497.5313,352.4844 497.5313,351.2031 L497.5313,350.0469 Q497.5313,348.7188 498.1406,347.5781 Q498.7656,346.4219 499.8594,345.8125 Q500.9531,345.1875 502.1875,345.1875 Q502.9219,345.1875 503.5625,345.3594 Q504.2188,345.5156 504.7656,345.875 Z "/><text fill="#000000" font-family="sans-serif" font-size="12" lengthAdjust="spacingAndGlyphs" textLength="87" x="516" y="354.9102">ServiceInstance</text><line style="stroke: #A80036; stroke-width: 1.5;" x1="488" x2="605" y1="366" y2="366"/><line style="stroke: #A80036; stroke-width: 1.5;" x1="488" x2="605" y1="374" y2="374"/><!--class i--><rect fill="#FEFECE" filter="url(#f1jv7ywkeru7bb)" height="117.1797" id="i" style="stroke: #A80036; stroke-width: 1.5;" width="211" x="251" y="117"/><ellipse cx="296.75" cy="133" fill="#B4A7E5" rx="11" ry="11" style="stroke: #A80036; stroke-width: 1.0;"/><path d="M297.7031,129.6406 L297.7031,136.2969 L299.4219,136.2969 Q300.0313,136.2969 300.2969,136.5313 Q300.5625,136.7656 300.5625,137.1563 Q300.5625,137.5313 300.2969,137.7656 Q300.0313,138 299.4219,138 L294.2813,138 Q293.6719,138 293.4063,137.7656 Q293.1406,137.5313 293.1406,137.1406 Q293.1406,136.7656 293.4063,136.5313 Q293.6719,136.2969 294.2813,136.2969 L296,136.2969 L296,129.6406 L294.2813,129.6406 Q293.6719,129.6406 293.4063,129.4063 Q293.1406,129.1719 293.1406,128.7813 Q293.1406,128.4063 293.4063,128.1719 Q293.6719,127.9375 294.2813,127.9375 L299.4219,127.9375 Q300.0313,127.9375 300.2969,128.1719 Q300.5625,128.4063 300.5625,128.7813 Q300.5625,129.1719 300.2969,129.4063 Q300.0313,129.6406 299.4219,129.6406 L297.7031,129.6406 Z "/><text fill="#000000" font-family="sans-serif" font-size="12" font-style="italic" lengthAdjust="spacingAndGlyphs" textLength="111" x="317.25" y="137.9102">Service Orchestrator</text><line style="stroke: #A80036; stroke-width: 1.5;" x1="252" x2="461" y1="149" y2="149"/><line style="stroke: #A80036; stroke-width: 1.5;" x1="252" x2="461" y1="157" y2="157"/><text fill="#000000" font-family="sans-serif" font-size="11" lengthAdjust="spacingAndGlyphs" textLength="199" x="257" y="172.4189">/edgemere/sml/so/servicelet/assigndata()</text><text fill="#000000" font-family="sans-serif" font-size="11" lengthAdjust="spacingAndGlyphs" textLength="157" x="257" y="186.2549">/edgemere/sml/so/stack/deploy()</text><text fill="#000000" font-family="sans-serif" font-size="11" lengthAdjust="spacingAndGlyphs" textLength="138" x="257" y="200.0908">/edgemere/sml/so/stack/list()</text><text fill="#000000" font-family="sans-serif" font-size="11" lengthAdjust="spacingAndGlyphs" textLength="164" x="257" y="213.9268">/edgemere/sml/so/stack/uninstall()</text><text fill="#000000" font-family="sans-serif" font-size="11" lengthAdjust="spacingAndGlyphs" textLength="158" x="257" y="227.7627">/edgemere/sml/so/stack/update()</text><!--class ApplicationInstance--><rect fill="#FEFECE" filter="url(#f1jv7ywkeru7bb)" height="48" id="ApplicationInstance" style="stroke: #A80036; stroke-width: 1.5;" width="139" x="1806" y="334"/><ellipse cx="1821" cy="350" fill="#ADD1B2" rx="11" ry="11" style="stroke: #A80036; stroke-width: 1.0;"/><path d="M1823.7656,345.875 Q1823.9219,345.6563 1824.1094,345.5469 Q1824.2969,345.4375 1824.5156,345.4375 Q1824.8906,345.4375 1825.125,345.7031 Q1825.3594,345.9531 1825.3594,346.5625 L1825.3594,348.0156 Q1825.3594,348.625 1825.125,348.8906 Q1824.8906,349.1563 1824.5156,349.1563 Q1824.1719,349.1563 1823.9688,348.9531 Q1823.7656,348.7656 1823.6563,348.25 Q1823.6094,347.8906 1823.4219,347.7031 Q1823.0938,347.3281 1822.4844,347.1094 Q1821.875,346.8906 1821.25,346.8906 Q1820.4844,346.8906 1819.8438,347.2188 Q1819.2188,347.5469 1818.7188,348.2969 Q1818.2344,349.0469 1818.2344,350.0781 L1818.2344,351.1719 Q1818.2344,352.4063 1819.125,353.2344 Q1820.0156,354.0469 1821.6094,354.0469 Q1822.5469,354.0469 1823.2031,353.7969 Q1823.5938,353.6406 1824.0156,353.2031 Q1824.2813,352.9375 1824.4219,352.8594 Q1824.5781,352.7813 1824.7813,352.7813 Q1825.1094,352.7813 1825.3594,353.0469 Q1825.625,353.2969 1825.625,353.6406 Q1825.625,353.9844 1825.2813,354.3906 Q1824.7813,354.9688 1823.9844,355.2969 Q1822.9063,355.75 1821.6094,355.75 Q1820.0938,355.75 1818.8906,355.125 Q1817.9063,354.625 1817.2188,353.5625 Q1816.5313,352.4844 1816.5313,351.2031 L1816.5313,350.0469 Q1816.5313,348.7188 1817.1406,347.5781 Q1817.7656,346.4219 1818.8594,345.8125 Q1819.9531,345.1875 1821.1875,345.1875 Q1821.9219,345.1875 1822.5625,345.3594 Q1823.2188,345.5156 1823.7656,345.875 Z "/><text fill="#000000" font-family="sans-serif" font-size="12" lengthAdjust="spacingAndGlyphs" textLength="107" x="1835" y="354.9102">ApplicationInstance</text><line style="stroke: #A80036; stroke-width: 1.5;" x1="1807" x2="1944" y1="366" y2="366"/><line style="stroke: #A80036; stroke-width: 1.5;" x1="1807" x2="1944" y1="374" y2="374"/><ellipse cx="311.5" cy="13" fill="#FEFECE" filter="url(#f1jv7ywkeru7bb)" rx="5" ry="5" style="stroke: #A80036; stroke-width: 1.5;"/><text fill="#000000" font-family="sans-serif" font-size="12" lengthAdjust="spacingAndGlyphs" textLength="19" x="302" y="30.457">CLI</text><ellipse cx="356.5" cy="13" fill="#FEFECE" filter="url(#f1jv7ywkeru7bb)" rx="5" ry="5" style="stroke: #A80036; stroke-width: 1.5;"/><text fill="#000000" font-family="sans-serif" font-size="12" lengthAdjust="spacingAndGlyphs" textLength="32" x="340.5" y="30.457">REST</text><ellipse cx="401.5" cy="13" fill="#FEFECE" filter="url(#f1jv7ywkeru7bb)" rx="5" ry="5" style="stroke: #A80036; stroke-width: 1.5;"/><text fill="#000000" font-family="sans-serif" font-size="12" lengthAdjust="spacingAndGlyphs" textLength="25" x="389" y="30.457">Web</text><!--link ilol10580 to i--><path d="M312.612,17.967 C316.443,31.629 329.447,78.011 340.314,116.768 " fill="none" id="ilol10580-i" style="stroke: #A80036; stroke-width: 1.0;"/><!--link ilol10583 to i--><path d="M356.5,18.293 C356.5,32.351 356.5,78.31 356.5,116.765 " fill="none" id="ilol10583-i" style="stroke: #A80036; stroke-width: 1.0;"/><!--link ilol10586 to i--><path d="M400.388,17.967 C396.557,31.629 383.553,78.011 372.686,116.768 " fill="none" id="ilol10586-i" style="stroke: #A80036; stroke-width: 1.0;"/><!--link ServiceInstance to Image--><path d="M581.744,390.434 C597.41,402.526 616.757,415.081 636.5,422 C662.978,431.279 734.505,428.141 762.5,430 C845.85,435.535 1066.05,412.729 1137.5,456 C1155.19,466.716 1167.62,486.139 1175.78,503.503 " fill="none" id="ServiceInstance-Image" style="stroke: #A80036; stroke-width: 1.0;"/><polygon fill="#A80036" points="1180.98,515.6283,1181.1134,505.7803,1179.0114,511.0321,1173.7596,508.9301,1180.98,515.6283" style="stroke: #A80036; stroke-width: 1.0;"/><line style="stroke: #A80036; stroke-width: 1.0;" x1="1179.0114" x2="1175.855" y1="511.0321" y2="503.6795"/><polygon fill="#FFFFFF" points="571.527,382.211,573.694,389.0888,580.8762,389.7338,578.7092,382.856,571.527,382.211" style="stroke: #A80036; stroke-width: 1.0;"/><text fill="#000000" font-family="sans-serif" font-size="13" lengthAdjust="spacingAndGlyphs" textLength="35" x="1118.5" y="444.4951">image</text><text fill="#000000" font-family="sans-serif" font-size="13" lengthAdjust="spacingAndGlyphs" textLength="7" x="1171.2939" y="505.2753">1</text><!--link ServiceInstance to DataInstance--><path d="M519.971,392.629 C494.483,424.937 456.196,473.47 430.789,505.676 " fill="none" id="ServiceInstance-DataInstance" style="stroke: #A80036; stroke-width: 1.0;"/><polygon fill="#A80036" points="422.703,515.9255,431.4177,511.3371,425.7999,512,425.137,506.3821,422.703,515.9255" style="stroke: #A80036; stroke-width: 1.0;"/><line style="stroke: #A80036; stroke-width: 1.0;" x1="425.7999" x2="430.755" y1="512" y2="505.719"/><polygon fill="#FFFFFF" points="528.227,382.163,521.3704,384.3961,520.7945,391.5842,527.6511,389.3511,528.227,382.163" style="stroke: #A80036; stroke-width: 1.0;"/><text fill="#000000" font-family="sans-serif" font-size="13" lengthAdjust="spacingAndGlyphs" textLength="25" x="489.5" y="444.4951">data</text><text fill="#000000" font-family="sans-serif" font-size="13" lengthAdjust="spacingAndGlyphs" textLength="7" x="419.4706" y="505.2472">n</text><!--link ServiceInstance to Resource--><path d="M581.23,390.66 C596.928,402.92 616.439,415.541 636.5,422 C671.088,433.136 1254.22,428.072 1290.5,430 C1413.54,436.537 1450.27,415.119 1566.5,456 C1599.29,467.532 1631.93,489.405 1655.78,507.803 " fill="none" id="ServiceInstance-Resource" style="stroke: #A80036; stroke-width: 1.0;"/><polygon fill="#A80036" points="1666.08,515.9615,1661.5081,507.2381,1662.1604,512.8572,1656.5413,513.5095,1666.08,515.9615" style="stroke: #A80036; stroke-width: 1.0;"/><line style="stroke: #A80036; stroke-width: 1.0;" x1="1662.1604" x2="1655.895" y1="512.8572" y2="507.892"/><polygon fill="#FFFFFF" points="571.011,382.311,573.1263,389.2049,580.3035,389.9037,578.1882,383.0099,571.011,382.311" style="stroke: #A80036; stroke-width: 1.0;"/><text fill="#000000" font-family="sans-serif" font-size="13" lengthAdjust="spacingAndGlyphs" textLength="57" x="1540.5" y="444.4951">resources</text><text fill="#000000" font-family="sans-serif" font-size="13" lengthAdjust="spacingAndGlyphs" textLength="7" x="1651.413" y="505.2912">n</text><!--link ServiceInstance to Servicelet--><path d="M581.239,390.631 C596.939,402.886 616.448,415.511 636.5,422 C692.112,439.996 1104.9,420.087 1162.5,430 C1198.1,436.126 1210.43,434.567 1239.5,456 C1256.66,468.65 1270.91,487.657 1281.21,504.292 " fill="none" id="ServiceInstance-Servicelet" style="stroke: #A80036; stroke-width: 1.0;"/><polygon fill="#A80036" points="1287.99,515.8603,1286.8863,506.0735,1285.4601,511.5476,1279.986,510.1214,1287.99,515.8603" style="stroke: #A80036; stroke-width: 1.0;"/><line style="stroke: #A80036; stroke-width: 1.0;" x1="1285.4601" x2="1281.415" y1="511.5476" y2="504.6475"/><polygon fill="#FFFFFF" points="571.019,382.286,573.137,389.179,580.3145,389.8751,578.1964,382.9821,571.019,382.286" style="stroke: #A80036; stroke-width: 1.0;"/><text fill="#000000" font-family="sans-serif" font-size="13" lengthAdjust="spacingAndGlyphs" textLength="54" x="1227.5" y="444.4951">servicelet</text><text fill="#000000" font-family="sans-serif" font-size="13" lengthAdjust="spacingAndGlyphs" textLength="7" x="1277.1437" y="505.1643">1</text><!--link ServiceInstance to StackInstance--><path d="M547.177,320.522 C547.523,303.368 547.98,282.632 548.5,264 C548.897,249.756 549.406,234.209 549.891,220.225 " fill="none" id="ServiceInstance-StackInstance" style="stroke: #A80036; stroke-width: 1.0;"/><polygon fill="#A80036" points="550.363,206.868,546.047,215.7208,550.1861,211.8649,554.042,216.0039,550.363,206.868" style="stroke: #A80036; stroke-width: 1.0;"/><line style="stroke: #A80036; stroke-width: 1.0;" x1="550.1861" x2="549.904" y1="211.8649" y2="219.86"/><polygon fill="#FFFFFF" points="546.919,333.684,551.0356,327.7634,547.1537,321.6863,543.0371,327.6069,546.919,333.684" style="stroke: #A80036; stroke-width: 1.0;"/><text fill="#000000" font-family="sans-serif" font-size="13" lengthAdjust="spacingAndGlyphs" textLength="32" x="549.5" y="278.4951">stack</text><text fill="#000000" font-family="sans-serif" font-size="13" lengthAdjust="spacingAndGlyphs" textLength="7" x="542.4791" y="227.9168">1</text><!--link StackInstance to ServiceInstance--><path d="M515.954,217.448 C506.056,231.307 496.62,247.48 491.5,264 C484.878,285.366 496.36,307.007 510.516,324.03 " fill="none" id="StackInstance-ServiceInstance" style="stroke: #A80036; stroke-width: 1.0;"/><polygon fill="#A80036" points="519.538,333.989,516.4596,324.6336,516.1809,330.2836,510.5309,330.0049,519.538,333.989" style="stroke: #A80036; stroke-width: 1.0;"/><line style="stroke: #A80036; stroke-width: 1.0;" x1="516.1809" x2="510.81" y1="330.2836" y2="324.354"/><polygon fill="#A80036" points="523.916,206.868,517.1118,209.2562,516.6993,216.4555,523.5035,214.0673,523.916,206.868" style="stroke: #A80036; stroke-width: 1.0;"/><text fill="#000000" font-family="sans-serif" font-size="13" lengthAdjust="spacingAndGlyphs" textLength="47" x="492.5" y="278.4951">services</text><text fill="#000000" font-family="sans-serif" font-size="13" lengthAdjust="spacingAndGlyphs" textLength="7" x="504.7321" y="323.3263">n</text><!--link ServiceInstance to StackInstance--><path d="M572.695,316.53 C578.373,305.73 583.556,293.777 586.5,282 C592.959,256.164 582.284,227.526 571.07,206.614 " fill="none" id="ServiceInstance-StackInstance-1" style="stroke: #A80036; stroke-width: 1.0;"/><polygon fill="none" points="578.72,320.093,562.65,333.904,566.6,313.086,578.72,320.093" style="stroke: #A80036; stroke-width: 1.0;"/><!--link ServiceInstance to RunScript--><path d="M584.717,390.211 C600.075,401.529 618.409,413.586 636.5,422 C766.952,482.668 934.326,516.2117 1020.18,530.5331 " fill="none" id="ServiceInstance-RunScript" style="stroke: #A80036; stroke-width: 1.0;"/><polygon fill="#A80036" points="1033.24,532.6677,1025.0043,527.2664,1028.3057,531.86,1023.7121,535.1614,1033.24,532.6677" style="stroke: #A80036; stroke-width: 1.0;"/><line style="stroke: #A80036; stroke-width: 1.0;" x1="1028.3057" x2="1020.405" y1="531.86" y2="530.5707"/><polygon fill="#A80036" points="574.107,382.163,576.4707,388.9757,583.6684,389.4142,581.3048,382.6014,574.107,382.163" style="stroke: #A80036; stroke-width: 1.0;"/><text fill="#000000" font-family="sans-serif" font-size="13" lengthAdjust="spacingAndGlyphs" textLength="59" x="694.5" y="444.4951">runScripts</text><text fill="#000000" font-family="sans-serif" font-size="13" lengthAdjust="spacingAndGlyphs" textLength="7" x="1018.4954" y="527.6525">n</text><!--link StackInstance to ApplicationInstance--><path d="M619.422,177.186 C839.002,180.076 1527.62,194.588 1737.5,264 C1776.07,276.757 1813.91,303.561 1840.18,325.131 " fill="none" id="StackInstance-ApplicationInstance" style="stroke: #A80036; stroke-width: 1.0;"/><polygon fill="#A80036" points="1850.35,333.698,1846.0416,324.8415,1846.5252,330.4777,1840.889,330.9613,1850.35,333.698" style="stroke: #A80036; stroke-width: 1.0;"/><line style="stroke: #A80036; stroke-width: 1.0;" x1="1846.5252" x2="1840.41" y1="330.4777" y2="325.323"/><polygon fill="#FFFFFF" points="606.255,177.019,612.2035,181.0952,618.254,177.172,612.3055,173.0958,606.255,177.019" style="stroke: #A80036; stroke-width: 1.0;"/><text fill="#000000" font-family="sans-serif" font-size="13" lengthAdjust="spacingAndGlyphs" textLength="21" x="1775.5" y="278.4951">app</text><text fill="#000000" font-family="sans-serif" font-size="13" lengthAdjust="spacingAndGlyphs" textLength="7" x="1836.0084" y="322.9608">1</text><!--link StackInstance to Stack--><path d="M619.371,178.9 C776.884,185.778 1161.24,210.484 1258.5,290 C1329.79,348.283 1375.65,449.971 1396.12,503.587 " fill="none" id="StackInstance-Stack" style="stroke: #A80036; stroke-width: 1.0;"/><polygon fill="#A80036" points="1400.67,515.8181,1401.2843,505.9884,1398.9282,511.1313,1393.7854,508.7752,1400.67,515.8181" style="stroke: #A80036; stroke-width: 1.0;"/><line style="stroke: #A80036; stroke-width: 1.0;" x1="1398.9282" x2="1396.145" y1="511.1313" y2="503.632"/><polygon fill="#FFFFFF" points="606.189,178.343,612.0149,182.5926,618.1783,178.8494,612.3524,174.5997,606.189,178.343" style="stroke: #A80036; stroke-width: 1.0;"/><text fill="#000000" font-family="sans-serif" font-size="13" lengthAdjust="spacingAndGlyphs" textLength="32" x="1358.5" y="363.4951">stack</text><text fill="#000000" font-family="sans-serif" font-size="13" lengthAdjust="spacingAndGlyphs" textLength="7" x="1390.7667" y="505.1115">1</text><!--link StackInstance to Stacklet--><path d="M619.262,176.64 C767.442,178.385 1130.48,190.518 1423.5,264 C1519.37,288.043 1544.87,334.813 1571.5,430 C1579.09,457.122 1563.5,485.004 1546.44,505.778 " fill="none" id="StackInstance-Stacklet" style="stroke: #A80036; stroke-width: 1.0;"/><polygon fill="#A80036" points="1537.78,515.6609,1546.7186,511.5256,1541.0742,511.8994,1540.7003,506.255,1537.78,515.6609" style="stroke: #A80036; stroke-width: 1.0;"/><line style="stroke: #A80036; stroke-width: 1.0;" x1="1541.0742" x2="1546.345" y1="511.8994" y2="505.8855"/><polygon fill="#FFFFFF" points="606.02,176.506,611.9788,180.5671,618.0194,176.6286,612.0606,172.5675,606.02,176.506" style="stroke: #A80036; stroke-width: 1.0;"/><text fill="#000000" font-family="sans-serif" font-size="13" lengthAdjust="spacingAndGlyphs" textLength="46" x="1569.5" y="363.4951">stacklet</text><text fill="#000000" font-family="sans-serif" font-size="13" lengthAdjust="spacingAndGlyphs" textLength="7" x="1536.0889" y="505.3163">1</text><!--link StackInstance to Image--><path d="M619.376,178.081 C767.208,183.12 1110.66,204.029 1180.5,290 C1229.92,350.836 1213.38,450.322 1199.5,503.249 " fill="none" id="StackInstance-Image" style="stroke: #A80036; stroke-width: 1.0;"/><polygon fill="#A80036" points="1195.98,515.9566,1202.2371,508.3508,1197.3146,511.138,1194.5274,506.2155,1195.98,515.9566" style="stroke: #A80036; stroke-width: 1.0;"/><line style="stroke: #A80036; stroke-width: 1.0;" x1="1197.3146" x2="1199.455" y1="511.138" y2="503.4285"/><polygon fill="#FFFFFF" points="606.117,177.654,611.9851,181.8451,618.1108,178.0404,612.2427,173.8493,606.117,177.654" style="stroke: #A80036; stroke-width: 1.0;"/><text fill="#000000" font-family="sans-serif" font-size="13" lengthAdjust="spacingAndGlyphs" textLength="35" x="1214.5" y="363.4951">image</text><text fill="#000000" font-family="sans-serif" font-size="13" lengthAdjust="spacingAndGlyphs" textLength="7" x="1189.9999" y="505.2861">1</text><!--link StackInstance to DataInstance--><path d="M502.296,215.38 C480.476,235.326 456.598,261.423 442.5,290 C408.103,359.722 403.155,452.695 403.342,502.998 " fill="none" id="StackInstance-DataInstance" style="stroke: #A80036; stroke-width: 1.0;"/><polygon fill="#A80036" points="403.51,515.9996,407.393,506.9485,403.4452,511,399.3936,507.0522,403.51,515.9996" style="stroke: #A80036; stroke-width: 1.0;"/><line style="stroke: #A80036; stroke-width: 1.0;" x1="403.4452" x2="403.3415" y1="511" y2="503.001"/><polygon fill="#FFFFFF" points="512.134,206.662,504.9905,207.6473,503.1525,214.6202,510.296,213.6349,512.134,206.662" style="stroke: #A80036; stroke-width: 1.0;"/><text fill="#000000" font-family="sans-serif" font-size="13" lengthAdjust="spacingAndGlyphs" textLength="25" x="443.5" y="363.4951">data</text><text fill="#000000" font-family="sans-serif" font-size="13" lengthAdjust="spacingAndGlyphs" textLength="7" x="395.3594" y="505.3402">n</text><!--link StackInstance to Resource--><path d="M619.186,179.079 C843.104,188.227 1549.93,222.272 1624.5,290 C1684.92,344.878 1693.79,447.717 1693.87,502.487 " fill="none" id="StackInstance-Resource" style="stroke: #A80036; stroke-width: 1.0;"/><polygon fill="#A80036" points="1693.72,515.634,1697.8216,506.6798,1693.7766,510.6343,1689.8221,506.5893,1693.72,515.634" style="stroke: #A80036; stroke-width: 1.0;"/><line style="stroke: #A80036; stroke-width: 1.0;" x1="1693.7766" x2="1693.87" y1="510.6343" y2="502.6345"/><polygon fill="#FFFFFF" points="606.077,178.549,611.9108,182.7877,618.0672,179.033,612.2334,174.7942,606.077,178.549" style="stroke: #A80036; stroke-width: 1.0;"/><text fill="#000000" font-family="sans-serif" font-size="13" lengthAdjust="spacingAndGlyphs" textLength="57" x="1687.5" y="363.4951">resources</text><text fill="#000000" font-family="sans-serif" font-size="13" lengthAdjust="spacingAndGlyphs" textLength="7" x="1686.1643" y="505.2828">n</text><!--link StackInstance to Servicelet--><path d="M619.362,176.028 C795.375,175.972 1261.74,183.62 1389.5,264 C1444.62,298.68 1418.65,395.592 1405.5,422 C1394.33,444.44 1378.11,438.158 1360.5,456 C1345.94,470.749 1332.07,489.151 1321.24,504.878 " fill="none" id="StackInstance-Servicelet" style="stroke: #A80036; stroke-width: 1.0;"/><polygon fill="#A80036" points="1313.92,515.7657,1322.26,510.527,1316.709,511.6158,1315.6202,506.0647,1313.92,515.7657" style="stroke: #A80036; stroke-width: 1.0;"/><line style="stroke: #A80036; stroke-width: 1.0;" x1="1316.709" x2="1321.175" y1="511.6158" y2="504.974"/><polygon fill="#FFFFFF" points="606.207,176.047,612.2127,180.0384,618.207,176.0299,612.2013,172.0384,606.207,176.047" style="stroke: #A80036; stroke-width: 1.0;"/><text fill="#000000" font-family="sans-serif" font-size="13" lengthAdjust="spacingAndGlyphs" textLength="54" x="1423.5" y="363.4951">servicelet</text><text fill="#000000" font-family="sans-serif" font-size="13" lengthAdjust="spacingAndGlyphs" textLength="7" x="1309.7183" y="505.0462">1</text><!--link StackInstance to RunScript--><path d="M619.667,182.333 C745.978,194.544 1009.31,227.029 1072.5,290 C1123.19,340.515 1113.78,377.182 1103.5,448 C1100.79,466.659 1095.11,486.816 1089.65,503.406 " fill="none" id="StackInstance-RunScript" style="stroke: #A80036; stroke-width: 1.0;"/><polygon fill="#A80036" points="1085.39,515.8483,1092.092,508.6314,1087.0111,511.1184,1084.5241,506.0376,1085.39,515.8483" style="stroke: #A80036; stroke-width: 1.0;"/><line style="stroke: #A80036; stroke-width: 1.0;" x1="1087.0111" x2="1089.605" y1="511.1184" y2="503.5505"/><polygon fill="#A80036" points="606.422,181.078,612.0182,185.6259,618.3685,182.2094,612.7724,177.6615,606.422,181.078" style="stroke: #A80036; stroke-width: 1.0;"/><text fill="#000000" font-family="sans-serif" font-size="13" lengthAdjust="spacingAndGlyphs" textLength="59" x="1112.5" y="363.4951">runScripts</text><text fill="#000000" font-family="sans-serif" font-size="13" lengthAdjust="spacingAndGlyphs" textLength="7" x="1079.7712" y="505.1492">n</text><!--link Service Orchestrator to Service Controller--><path d="M207.4887,187.2113 C207.3926,187.3397 207.2957,187.4692 207.1982,187.5997 C205.6368,189.6872 203.8837,192.0312 201.9636,194.5985 C194.283,204.8676 183.9302,218.7096 172.492,234.003 C149.6154,264.5898 122.3969,300.982 103.5297,326.208 " fill="none" id="Service Orchestrator-Service Controller" style="stroke: #A80036; stroke-width: 1.0;"/><polygon fill="#A80036" points="100.4288,330.354,109.0232,325.544,103.4241,326.3505,102.6176,320.7514,100.4288,330.354" style="stroke: #A80036; stroke-width: 1.0;"/><!--link Service Orchestrator to Service Repository--><path d="M630.5176,267.604 C630.6439,267.6653 630.7701,267.7267 630.8963,267.7884 C631.1486,267.9117 631.4008,268.0357 631.6527,268.1605 C632.6604,268.6596 633.6648,269.1704 634.6657,269.6923 C638.6692,271.7798 642.6164,274.0445 646.4932,276.4483 C654.2468,281.2558 661.7188,286.6193 668.797,292.2325 C682.9535,303.459 695.535,315.6845 705.644,326.459 " fill="none" id="Service Orchestrator-Service Repository" style="stroke: #A80036; stroke-width: 1.0;"/><polygon fill="#A80036" points="709.052,330.136,705.8682,320.816,705.6533,326.4687,700.0005,326.2539,709.052,330.136" style="stroke: #A80036; stroke-width: 1.0;"/><!--link Service Orchestrator to Data Orchestrator--><path d="M229.3632,406.2783 C229.4848,406.6878 229.6072,407.0969 229.7304,407.5056 C230.223,409.1401 230.7278,410.7673 231.245,412.3864 C232.2795,415.6248 233.3638,418.8311 234.5,422 C245.0485,451.42 265.0778,480.2228 282.6998,501.889 C291.5108,512.722 299.7199,521.771 305.8413,528.2208 C306.6065,529.0271 307.339,529.7927 308.0361,530.5161 C308.1232,530.6065 308.2098,530.6963 308.2958,530.7854 " fill="none" id="Service Orchestrator-Data Orchestrator" style="stroke: #A80036; stroke-width: 1.0;"/><polygon fill="#A80036" points="308.2958,530.7854,304.9231,521.532,304.8232,527.188,299.1673,527.0881,308.2958,530.7854" style="stroke: #A80036; stroke-width: 1.0;"/><!--link Service Orchestrator to Infrastructure Orchestrator--><path d="M631.2398,262.2567 C632.1447,262.2842 633.0363,262.312 633.9144,262.3401 C647.9645,262.7895 658.5528,263.3138 664.5,264 C736.505,272.309 756.876,266.667 825.5,290 C852.866,299.305 881.378,314.288 904.153,327.728 " fill="none" id="Service Orchestrator-Infrastructure Orchestrator" style="stroke: #A80036; stroke-width: 1.0;"/><polygon fill="#A80036" points="908.629,330.393,902.9404,322.3531,904.3322,327.8361,898.8493,329.228,908.629,330.393" style="stroke: #A80036; stroke-width: 1.0;"/><!--
@startuml


package "Service Controller" #lightgreen {
    }

package "Service Repository" #lightgreen {
    }

package "Data Orchestrator" #lightblue {
    
        class DataInstance {
        }
    }

package "Infrastructure Orchestrator" #lightyellow {
    }

package "Service Management Layer" #lightgreen {
    
        class Image {
        }
    
        class Servicelet {
        }
    
        class RunScript {
        }
    
        class Stack {
        }
    
        class Stacklet {
        }
    }

package "Software Defined Infrastructure" #lightyellow {
    
        class Resource {
        }
    }

package "Service Orchestrator" #lightgreen {
    
        class StackInstance {
        }
    
        class ServiceInstance {
        }
    }

package "Application Management Layer" #lightblue {
    
        class ApplicationInstance {
        }
    }


package "Service Orchestrator" #lightgreen {

    interface "Service Orchestrator" as i {
            /edgemere/sml/so/servicelet/assigndata()
            /edgemere/sml/so/stack/deploy()
            /edgemere/sml/so/stack/list()
            /edgemere/sml/so/stack/uninstall()
            /edgemere/sml/so/stack/update()
    
    }
}

CLI ()- - i
REST ()- - i
Web ()- - i

package "Service Orchestrator" #lightgreen {
        class "ServiceInstance" {
                    }
                ServiceInstance o- -> "1" Image : image
                        ServiceInstance o- -> "n" DataInstance : data
                        ServiceInstance o- -> "n" Resource : resources
                        ServiceInstance o- -> "1" Servicelet : servicelet
                        ServiceInstance o- -> "1" StackInstance : stack
                        ServiceInstance *- -> "n" RunScript : runScripts
            
    
    class "StackInstance" {
                 string name
                    }
                StackInstance o- -> "1" ApplicationInstance : app
                        StackInstance o- -> "1" Stack : stack
                        StackInstance o- -> "1" Stacklet : stacklet
                        StackInstance *- -> "n" ServiceInstance : services
                        StackInstance o- -> "1" Image : image
                        StackInstance o- -> "n" DataInstance : data
                        StackInstance o- -> "n" Resource : resources
                        StackInstance o- -> "1" Servicelet : servicelet
                        StackInstance *- -> "n" RunScript : runScripts
            
    
        ServiceInstance <|- - StackInstance
    

}


    "Service Orchestrator" - -> "Service Controller"

    "Service Orchestrator" - -> "Service Repository"

    "Service Orchestrator" - -> "Data Orchestrator"

    "Service Orchestrator" - -> "Infrastructure Orchestrator"


@enduml

PlantUML version 1.2019.05(Sat Apr 20 09:45:36 PDT 2019)
(GPL source distribution)
Java Runtime: OpenJDK Runtime Environment
JVM: OpenJDK 64-Bit Server VM
Java Version: 12.0.1+12
Operating System: Windows 10
OS Version: 10.0
Default Encoding: Cp1252
Language: en
Country: US
--></g></svg>