<?xml version="1.0" encoding="UTF-8" standalone="no"?><svg xmlns="http://www.w3.org/2000/svg" xmlns:xlink="http://www.w3.org/1999/xlink" contentScriptType="application/ecmascript" contentStyleType="text/css" height="651px" preserveAspectRatio="none" style="width:450px;height:651px;" version="1.1" viewBox="0 0 450 651" width="450px" zoomAndPan="magnify"><defs><filter height="300%" id="f1r8mbem7cvdsi" width="300%" x="-1" y="-1"><feGaussianBlur result="blurOut" stdDeviation="2.0"/><feColorMatrix in="blurOut" result="blurOut2" type="matrix" values="0 0 0 0 0 0 0 0 0 0 0 0 0 0 0 0 0 0 .4 0"/><feOffset dx="4.0" dy="4.0" in="blurOut2" result="blurOut3"/><feBlend in="SourceGraphic" in2="blurOut3" mode="normal"/></filter></defs><g><!--cluster StackDeveloper--><rect fill="#FEFECE" filter="url(#f1r8mbem7cvdsi)" height="102" rx="12.5" ry="12.5" style="stroke: #A80036; stroke-width: 1.5;" width="149" x="43.5" y="24"/><rect fill="#FFFFFF" height="68.3906" rx="12.5" ry="12.5" style="stroke: #FFFFFF; stroke-width: 1.0;" width="143" x="46.5" y="54.6094"/><line style="stroke: #A80036; stroke-width: 1.5;" x1="43.5" x2="192.5" y1="51.6094" y2="51.6094"/><text fill="#000000" font-family="sans-serif" font-size="14" lengthAdjust="spacingAndGlyphs" textLength="104" x="66" y="42.5332">Stack Developer</text><!--cluster sml--><rect fill="#90EE90" filter="url(#f1r8mbem7cvdsi)" height="493" rx="12.5" ry="12.5" style="stroke: #A80036; stroke-width: 1.5;" width="200" x="238" y="147"/><rect fill="#FFFFFF" height="459.3906" rx="12.5" ry="12.5" style="stroke: #FFFFFF; stroke-width: 1.0;" width="194" x="241" y="177.6094"/><line style="stroke: #A80036; stroke-width: 1.5;" x1="238" x2="438" y1="174.6094" y2="174.6094"/><text fill="#000000" font-family="sans-serif" font-size="14" lengthAdjust="spacingAndGlyphs" textLength="21" x="327.5" y="165.5332">sml</text><!--cluster smlso--><rect fill="#90EE90" filter="url(#f1r8mbem7cvdsi)" height="425" rx="12.5" ry="12.5" style="stroke: #A80036; stroke-width: 1.5;" width="152" x="262" y="191"/><rect fill="#FFFFFF" height="391.3906" rx="12.5" ry="12.5" style="stroke: #FFFFFF; stroke-width: 1.0;" width="146" x="265" y="221.6094"/><line style="stroke: #A80036; stroke-width: 1.5;" x1="262" x2="414" y1="218.6094" y2="218.6094"/><text fill="#000000" font-family="sans-serif" font-size="14" lengthAdjust="spacingAndGlyphs" textLength="15" x="330.5" y="209.5332">so</text><!--cluster smlsostack--><rect fill="#90EE90" filter="url(#f1r8mbem7cvdsi)" height="357" rx="12.5" ry="12.5" style="stroke: #A80036; stroke-width: 1.5;" width="104" x="286" y="235"/><rect fill="#FFFFFF" height="323.3906" rx="12.5" ry="12.5" style="stroke: #FFFFFF; stroke-width: 1.0;" width="98" x="289" y="265.6094"/><line style="stroke: #A80036; stroke-width: 1.5;" x1="286" x2="390" y1="262.6094" y2="262.6094"/><text fill="#000000" font-family="sans-serif" font-size="14" lengthAdjust="spacingAndGlyphs" textLength="33" x="321.5" y="253.5332">stack</text><!--cluster ApplicationDeveloper--><rect fill="#FEFECE" filter="url(#f1r8mbem7cvdsi)" height="102" rx="12.5" ry="12.5" style="stroke: #A80036; stroke-width: 1.5;" width="154" x="41.5" y="150"/><rect fill="#FFFFFF" height="68.3906" rx="12.5" ry="12.5" style="stroke: #FFFFFF; stroke-width: 1.0;" width="148" x="44.5" y="180.6094"/><line style="stroke: #A80036; stroke-width: 1.5;" x1="41.5" x2="195.5" y1="177.6094" y2="177.6094"/><text fill="#000000" font-family="sans-serif" font-size="14" lengthAdjust="spacingAndGlyphs" textLength="138" x="49.5" y="168.5332">Application Developer</text><!--cluster DevOpsEngineer--><rect fill="#FEFECE" filter="url(#f1r8mbem7cvdsi)" height="340" rx="12.5" ry="12.5" style="stroke: #A80036; stroke-width: 1.5;" width="192" x="22" y="276"/><rect fill="#FFFFFF" height="306.3906" rx="12.5" ry="12.5" style="stroke: #FFFFFF; stroke-width: 1.0;" width="186" x="25" y="306.6094"/><line style="stroke: #A80036; stroke-width: 1.5;" x1="22" x2="214" y1="303.6094" y2="303.6094"/><text fill="#000000" font-family="sans-serif" font-size="14" lengthAdjust="spacingAndGlyphs" textLength="112" x="62" y="294.5332">DevOps Engineer</text><!--cluster DevOpsEngineerManageStacks--><rect fill="#FEFECE" filter="url(#f1r8mbem7cvdsi)" height="272" rx="12.5" ry="12.5" style="stroke: #A80036; stroke-width: 1.5;" width="144" x="46" y="320"/><rect fill="#FFFFFF" height="238.3906" rx="12.5" ry="12.5" style="stroke: #FFFFFF; stroke-width: 1.0;" width="138" x="49" y="350.6094"/><line style="stroke: #A80036; stroke-width: 1.5;" x1="46" x2="190" y1="347.6094" y2="347.6094"/><text fill="#000000" font-family="sans-serif" font-size="14" lengthAdjust="spacingAndGlyphs" textLength="97" x="69.5" y="338.5332">Manage Stacks</text><rect fill="#FEFECE" filter="url(#f1r8mbem7cvdsi)" height="50" rx="12.5" ry="12.5" style="stroke: #A80036; stroke-width: 1.5;" width="117" x="59.5" y="60"/><line style="stroke: #A80036; stroke-width: 1.5;" x1="59.5" x2="176.5" y1="87.6094" y2="87.6094"/><text fill="#000000" font-family="sans-serif" font-size="14" lengthAdjust="spacingAndGlyphs" textLength="97" x="69.5" y="79.5332">Manage Stacks</text><rect fill="#90EE90" filter="url(#f1r8mbem7cvdsi)" height="50" rx="12.5" ry="12.5" style="stroke: #A80036; stroke-width: 1.5;" width="50" x="313" y="271"/><line style="stroke: #A80036; stroke-width: 1.5;" x1="313" x2="363" y1="298.6094" y2="298.6094"/><text fill="#000000" font-family="sans-serif" font-size="14" lengthAdjust="spacingAndGlyphs" textLength="17" x="329.5" y="290.5332">list</text><rect fill="#90EE90" filter="url(#f1r8mbem7cvdsi)" height="50" rx="12.5" ry="12.5" style="stroke: #A80036; stroke-width: 1.5;" width="62" x="307" y="356"/><line style="stroke: #A80036; stroke-width: 1.5;" x1="307" x2="369" y1="383.6094" y2="383.6094"/><text fill="#000000" font-family="sans-serif" font-size="14" lengthAdjust="spacingAndGlyphs" textLength="42" x="317" y="375.5332">deploy</text><rect fill="#90EE90" filter="url(#f1r8mbem7cvdsi)" height="50" rx="12.5" ry="12.5" style="stroke: #A80036; stroke-width: 1.5;" width="72" x="302" y="441"/><line style="stroke: #A80036; stroke-width: 1.5;" x1="302" x2="374" y1="468.6094" y2="468.6094"/><text fill="#000000" font-family="sans-serif" font-size="14" lengthAdjust="spacingAndGlyphs" textLength="52" x="312" y="460.5332">uninstall</text><rect fill="#90EE90" filter="url(#f1r8mbem7cvdsi)" height="50" rx="12.5" ry="12.5" style="stroke: #A80036; stroke-width: 1.5;" width="64" x="306" y="526"/><line style="stroke: #A80036; stroke-width: 1.5;" x1="306" x2="370" y1="553.6094" y2="553.6094"/><text fill="#000000" font-family="sans-serif" font-size="14" lengthAdjust="spacingAndGlyphs" textLength="44" x="316" y="545.5332">update</text><rect fill="#FEFECE" filter="url(#f1r8mbem7cvdsi)" height="50" rx="12.5" ry="12.5" style="stroke: #A80036; stroke-width: 1.5;" width="117" x="59.5" y="186"/><line style="stroke: #A80036; stroke-width: 1.5;" x1="59.5" x2="176.5" y1="213.6094" y2="213.6094"/><text fill="#000000" font-family="sans-serif" font-size="14" lengthAdjust="spacingAndGlyphs" textLength="97" x="69.5" y="205.5332">Manage Stacks</text><rect fill="#FEFECE" filter="url(#f1r8mbem7cvdsi)" height="50" rx="12.5" ry="12.5" style="stroke: #A80036; stroke-width: 1.5;" width="103" x="66.5" y="356"/><line style="stroke: #A80036; stroke-width: 1.5;" x1="66.5" x2="169.5" y1="383.6094" y2="383.6094"/><text fill="#000000" font-family="sans-serif" font-size="14" lengthAdjust="spacingAndGlyphs" textLength="83" x="76.5" y="375.5332">Deploy Stack</text><rect fill="#FEFECE" filter="url(#f1r8mbem7cvdsi)" height="50" rx="12.5" ry="12.5" style="stroke: #A80036; stroke-width: 1.5;" width="112" x="62" y="441"/><line style="stroke: #A80036; stroke-width: 1.5;" x1="62" x2="174" y1="468.6094" y2="468.6094"/><text fill="#000000" font-family="sans-serif" font-size="14" lengthAdjust="spacingAndGlyphs" textLength="92" x="72" y="460.5332">Uninstall Stack</text><rect fill="#FEFECE" filter="url(#f1r8mbem7cvdsi)" height="50" rx="12.5" ry="12.5" style="stroke: #A80036; stroke-width: 1.5;" width="104" x="66" y="526"/><line style="stroke: #A80036; stroke-width: 1.5;" x1="66" x2="170" y1="553.6094" y2="553.6094"/><text fill="#000000" font-family="sans-serif" font-size="14" lengthAdjust="spacingAndGlyphs" textLength="84" x="76" y="545.5332">Update Stack</text><!--link StackDeveloperManageStacks to smlsostacklist--><path d="M152.012,110.292 C172.731,126.634 199.659,148.746 222,170 C254.996,201.391 289.845,240.532 312.416,266.787 " fill="none" id="StackDeveloperManageStacks-smlsostacklist" style="stroke: #A80036; stroke-width: 1.0;"/><polygon fill="#A80036" points="315.931,270.887,313.1115,261.4504,312.6773,267.0905,307.0371,266.6563,315.931,270.887" style="stroke: #A80036; stroke-width: 1.0;"/><!--link ApplicationDeveloperManageStacks to smlsostacklist--><path d="M176.562,233.444 C218.884,249.946 274.631,271.682 308.036,284.707 " fill="none" id="ApplicationDeveloperManageStacks-smlsostacklist" style="stroke: #A80036; stroke-width: 1.0;"/><polygon fill="#A80036" points="312.798,286.563,305.8657,279.567,308.1395,284.7468,302.9598,287.0206,312.798,286.563" style="stroke: #A80036; stroke-width: 1.0;"/><!--link DevOpsEngineerManageStacksDeployStack to smlsostackdeploy--><path d="M169.562,381 C210.082,381 265.901,381 301.724,381 " fill="none" id="DevOpsEngineerManageStacksDeployStack-smlsostackdeploy" style="stroke: #A80036; stroke-width: 1.0;"/><polygon fill="#A80036" points="306.86,381,297.86,377,301.86,381,297.86,385,306.86,381" style="stroke: #A80036; stroke-width: 1.0;"/><!--link DevOpsEngineerManageStacksUninstallStack to smlsostackuninstall--><path d="M174.011,466 C212.084,466 261.916,466 296.408,466 " fill="none" id="DevOpsEngineerManageStacksUninstallStack-smlsostackuninstall" style="stroke: #A80036; stroke-width: 1.0;"/><polygon fill="#A80036" points="301.808,466,292.808,462,296.808,466,292.808,470,301.808,466" style="stroke: #A80036; stroke-width: 1.0;"/><!--link DevOpsEngineerManageStacksUpdateStack to smlsostackupdate--><path d="M170.111,551 C210.174,551 264.936,551 300.629,551 " fill="none" id="DevOpsEngineerManageStacksUpdateStack-smlsostackupdate" style="stroke: #A80036; stroke-width: 1.0;"/><polygon fill="#A80036" points="305.753,551,296.753,547,300.753,551,296.753,555,305.753,551" style="stroke: #A80036; stroke-width: 1.0;"/><!--
@startuml
left to right direction



state "Stack Developer" as StackDeveloper {
    state "Manage Stacks" as StackDeveloperManageStacks {
    }
}
state "sml" as sml #lightgreen {
state "so" as smlso #lightgreen {
state "stack" as smlsostack #lightgreen {
state "list" as smlsostacklist #lightgreen {
}
}
}
}

StackDeveloperManageStacks - -> smlsostacklist

state "Application Developer" as ApplicationDeveloper {
    state "Manage Stacks" as ApplicationDeveloperManageStacks {
    }
}
state "sml" as sml #lightgreen {
state "so" as smlso #lightgreen {
state "stack" as smlsostack #lightgreen {
state "list" as smlsostacklist #lightgreen {
}
}
}
}

ApplicationDeveloperManageStacks - -> smlsostacklist


    state "DevOps Engineer" as DevOpsEngineer {
        state "Manage Stacks" as DevOpsEngineerManageStacks {
            state "Deploy Stack" as DevOpsEngineerManageStacksDeployStack {
            }
        }
    }
    state "sml" as sml #lightgreen {
state "sostack" as smlsostack #lightgreen {
state "deploy" as smlsostackdeploy #lightgreen {
}
}
}

    DevOpsEngineerManageStacksDeployStack - -> smlsostackdeploy
    
 
    state "DevOps Engineer" as DevOpsEngineer {
        state "Manage Stacks" as DevOpsEngineerManageStacks {
            state "Uninstall Stack" as DevOpsEngineerManageStacksUninstallStack {
            }
        }
    }
    state "sml" as sml #lightgreen {
state "sostack" as smlsostack #lightgreen {
state "uninstall" as smlsostackuninstall #lightgreen {
}
}
}

    DevOpsEngineerManageStacksUninstallStack - -> smlsostackuninstall
    
 
    state "DevOps Engineer" as DevOpsEngineer {
        state "Manage Stacks" as DevOpsEngineerManageStacks {
            state "Update Stack" as DevOpsEngineerManageStacksUpdateStack {
            }
        }
    }
    state "sml" as sml #lightgreen {
state "sostack" as smlsostack #lightgreen {
state "update" as smlsostackupdate #lightgreen {
}
}
}

    DevOpsEngineerManageStacksUpdateStack - -> smlsostackupdate
    
 
 

@enduml

PlantUML version 1.2019.05(Sat Apr 20 09:45:36 PDT 2019)
(GPL source distribution)
Java Runtime: OpenJDK Runtime Environment
JVM: OpenJDK 64-Bit Server VM
Java Version: 12.0.1+12
Operating System: Windows 10
OS Version: 10.0
Default Encoding: Cp1252
Language: en
Country: US
--></g></svg>