<?xml version="1.0" encoding="UTF-8" standalone="no"?><svg xmlns="http://www.w3.org/2000/svg" xmlns:xlink="http://www.w3.org/1999/xlink" contentScriptType="application/ecmascript" contentStyleType="text/css" height="223px" preserveAspectRatio="none" style="width:365px;height:223px;" version="1.1" viewBox="0 0 365 223" width="365px" zoomAndPan="magnify"><defs><filter height="300%" id="f15589rt9hfz73" width="300%" x="-1" y="-1"><feGaussianBlur result="blurOut" stdDeviation="2.0"/><feColorMatrix in="blurOut" result="blurOut2" type="matrix" values="0 0 0 0 0 0 0 0 0 0 0 0 0 0 0 0 0 0 .4 0"/><feOffset dx="4.0" dy="4.0" in="blurOut2" result="blurOut3"/><feBlend in="SourceGraphic" in2="blurOut3" mode="normal"/></filter></defs><g><!--cluster Service Orchestrator--><rect fill="#90EE90" filter="url(#f15589rt9hfz73)" height="84" style="stroke: #000000; stroke-width: 1.5;" width="166" x="188" y="58.5"/><text fill="#000000" font-family="sans-serif" font-size="14" font-weight="bold" lengthAdjust="spacingAndGlyphs" textLength="148" x="197" y="75.0332">Service Orchestrator</text><ellipse cx="271.0337" cy="110.3067" fill="#FEFECE" filter="url(#f15589rt9hfz73)" rx="67.0337" ry="15.8067" style="stroke: #A80036; stroke-width: 1.5;"/><text fill="#000000" font-family="sans-serif" font-size="14" lengthAdjust="spacingAndGlyphs" textLength="93" x="224.5337" y="115.6114">ManageStacks</text><!--entity StackDeveloper--><ellipse cx="75" cy="18" fill="#FEFECE" filter="url(#f15589rt9hfz73)" rx="8" ry="8" style="stroke: #A80036; stroke-width: 2.0;"/><path d="M75,26 L75,53 M62,34 L88,34 M75,53 L62,68 M75,53 L88,68 " fill="none" filter="url(#f15589rt9hfz73)" style="stroke: #A80036; stroke-width: 2.0;"/><text fill="#000000" font-family="sans-serif" font-size="14" lengthAdjust="spacingAndGlyphs" textLength="104" x="23" y="89.5332">Stack Developer</text><!--entity ApplicationDeveloper--><ellipse cx="75" cy="138" fill="#FEFECE" filter="url(#f15589rt9hfz73)" rx="8" ry="8" style="stroke: #A80036; stroke-width: 2.0;"/><path d="M75,146 L75,173 M62,154 L88,154 M75,173 L62,188 M75,173 L88,188 " fill="none" filter="url(#f15589rt9hfz73)" style="stroke: #A80036; stroke-width: 2.0;"/><text fill="#000000" font-family="sans-serif" font-size="14" lengthAdjust="spacingAndGlyphs" textLength="138" x="6" y="209.5332">Application Developer</text><!--link StackDeveloper to ManageStacks--><path d="M127.225,66.343 C157.363,75.664 195.151,87.351 224.279,96.36 " fill="none" id="StackDeveloper-ManageStacks" style="stroke: #A80036; stroke-width: 1.0;"/><polygon fill="#A80036" points="229.244,97.895,221.8273,91.4148,224.4671,96.4179,219.464,99.0578,229.244,97.895" style="stroke: #A80036; stroke-width: 1.0;"/><!--link ApplicationDeveloper to ManageStacks--><path d="M144.124,149.4306 C170.626,141.2343 200.291,132.0595 224.164,124.6762 " fill="none" id="ApplicationDeveloper-ManageStacks" style="stroke: #A80036; stroke-width: 1.0;"/><polygon fill="#A80036" points="229.167,123.1288,219.387,121.9663,224.3902,124.606,221.7505,129.6092,229.167,123.1288" style="stroke: #A80036; stroke-width: 1.0;"/><!--
@startuml

left to right direction
Actor "Stack Developer" as StackDeveloper
Actor "Application Developer" as ApplicationDeveloper


rectangle "Service Orchestrator" #lightgreen {
usecase "ManageStacks" as ManageStacks
    StackDeveloper - -> ManageStacks
    ApplicationDeveloper - -> ManageStacks
    }


@enduml

PlantUML version 1.2019.05(Sat Apr 20 09:45:36 PDT 2019)
(GPL source distribution)
Java Runtime: OpenJDK Runtime Environment
JVM: OpenJDK 64-Bit Server VM
Java Version: 12.0.1+12
Operating System: Windows 10
OS Version: 10.0
Default Encoding: Cp1252
Language: en
Country: US
--></g></svg>