<?xml version="1.0" encoding="UTF-8" standalone="no"?><svg xmlns="http://www.w3.org/2000/svg" xmlns:xlink="http://www.w3.org/1999/xlink" contentScriptType="application/ecmascript" contentStyleType="text/css" height="378px" preserveAspectRatio="none" style="width:563px;height:378px;" version="1.1" viewBox="0 0 563 378" width="563px" zoomAndPan="magnify"><defs><filter height="300%" id="fm03b61j8a9pl" width="300%" x="-1" y="-1"><feGaussianBlur result="blurOut" stdDeviation="2.0"/><feColorMatrix in="blurOut" result="blurOut2" type="matrix" values="0 0 0 0 0 0 0 0 0 0 0 0 0 0 0 0 0 0 .4 0"/><feOffset dx="4.0" dy="4.0" in="blurOut2" result="blurOut3"/><feBlend in="SourceGraphic" in2="blurOut3" mode="normal"/></filter></defs><g><line style="stroke: #A80036; stroke-width: 1.0; stroke-dasharray: 5.0,5.0;" x1="61" x2="61" y1="87.6094" y2="289.7188"/><line style="stroke: #A80036; stroke-width: 1.0; stroke-dasharray: 5.0,5.0;" x1="194" x2="194" y1="87.6094" y2="289.7188"/><line style="stroke: #A80036; stroke-width: 1.0; stroke-dasharray: 5.0,5.0;" x1="348" x2="348" y1="87.6094" y2="289.7188"/><line style="stroke: #A80036; stroke-width: 1.0; stroke-dasharray: 5.0,5.0;" x1="451" x2="451" y1="87.6094" y2="289.7188"/><line style="stroke: #A80036; stroke-width: 1.0; stroke-dasharray: 5.0,5.0;" x1="528" x2="528" y1="87.6094" y2="289.7188"/><text fill="#000000" font-family="sans-serif" font-size="14" lengthAdjust="spacingAndGlyphs" textLength="100" x="8" y="84.5332">StackDeveloper</text><ellipse cx="61" cy="13" fill="#FEFECE" filter="url(#fm03b61j8a9pl)" rx="8" ry="8" style="stroke: #A80036; stroke-width: 2.0;"/><path d="M61,21 L61,48 M48,29 L74,29 M61,48 L48,63 M61,48 L74,63 " fill="none" filter="url(#fm03b61j8a9pl)" style="stroke: #A80036; stroke-width: 2.0;"/><text fill="#000000" font-family="sans-serif" font-size="14" lengthAdjust="spacingAndGlyphs" textLength="100" x="8" y="303.252">StackDeveloper</text><ellipse cx="61" cy="316.3281" fill="#FEFECE" filter="url(#fm03b61j8a9pl)" rx="8" ry="8" style="stroke: #A80036; stroke-width: 2.0;"/><path d="M61,324.3281 L61,351.3281 M48,332.3281 L74,332.3281 M61,351.3281 L48,366.3281 M61,351.3281 L74,366.3281 " fill="none" filter="url(#fm03b61j8a9pl)" style="stroke: #A80036; stroke-width: 2.0;"/><text fill="#000000" font-family="sans-serif" font-size="14" lengthAdjust="spacingAndGlyphs" textLength="134" x="124" y="84.5332">ApplicationDeveloper</text><ellipse cx="194" cy="13" fill="#FEFECE" filter="url(#fm03b61j8a9pl)" rx="8" ry="8" style="stroke: #A80036; stroke-width: 2.0;"/><path d="M194,21 L194,48 M181,29 L207,29 M194,48 L181,63 M194,48 L207,63 " fill="none" filter="url(#fm03b61j8a9pl)" style="stroke: #A80036; stroke-width: 2.0;"/><text fill="#000000" font-family="sans-serif" font-size="14" lengthAdjust="spacingAndGlyphs" textLength="134" x="124" y="303.252">ApplicationDeveloper</text><ellipse cx="194" cy="316.3281" fill="#FEFECE" filter="url(#fm03b61j8a9pl)" rx="8" ry="8" style="stroke: #A80036; stroke-width: 2.0;"/><path d="M194,324.3281 L194,351.3281 M181,332.3281 L207,332.3281 M194,351.3281 L181,366.3281 M194,351.3281 L207,366.3281 " fill="none" filter="url(#fm03b61j8a9pl)" style="stroke: #A80036; stroke-width: 2.0;"/><rect fill="#FEFECE" filter="url(#fm03b61j8a9pl)" height="31.6094" style="stroke: #A80036; stroke-width: 1.5;" width="145" x="274" y="51"/><text fill="#000000" font-family="sans-serif" font-size="14" lengthAdjust="spacingAndGlyphs" textLength="131" x="281" y="72.5332">Service Orchestrator</text><rect fill="#FEFECE" filter="url(#fm03b61j8a9pl)" height="31.6094" style="stroke: #A80036; stroke-width: 1.5;" width="145" x="274" y="288.7188"/><text fill="#000000" font-family="sans-serif" font-size="14" lengthAdjust="spacingAndGlyphs" textLength="131" x="281" y="310.252">Service Orchestrator</text><rect fill="#FEFECE" filter="url(#fm03b61j8a9pl)" height="31.6094" style="stroke: #A80036; stroke-width: 1.5;" width="33" x="433" y="51"/><text fill="#000000" font-family="sans-serif" font-size="14" lengthAdjust="spacingAndGlyphs" textLength="19" x="440" y="72.5332">bin</text><rect fill="#FEFECE" filter="url(#fm03b61j8a9pl)" height="31.6094" style="stroke: #A80036; stroke-width: 1.5;" width="33" x="433" y="288.7188"/><text fill="#000000" font-family="sans-serif" font-size="14" lengthAdjust="spacingAndGlyphs" textLength="19" x="440" y="310.252">bin</text><rect fill="#FEFECE" filter="url(#fm03b61j8a9pl)" height="31.6094" style="stroke: #A80036; stroke-width: 1.5;" width="51" x="501" y="51"/><text fill="#000000" font-family="sans-serif" font-size="14" lengthAdjust="spacingAndGlyphs" textLength="37" x="508" y="72.5332">REST</text><rect fill="#FEFECE" filter="url(#fm03b61j8a9pl)" height="31.6094" style="stroke: #A80036; stroke-width: 1.5;" width="51" x="501" y="288.7188"/><text fill="#000000" font-family="sans-serif" font-size="14" lengthAdjust="spacingAndGlyphs" textLength="37" x="508" y="310.252">REST</text><polygon fill="#A80036" points="336.5,115.9609,346.5,119.9609,336.5,123.9609,340.5,119.9609" style="stroke: #A80036; stroke-width: 1.0;"/><line style="stroke: #A80036; stroke-width: 1.0;" x1="61" x2="342.5" y1="119.9609" y2="119.9609"/><text fill="#000000" font-family="sans-serif" font-size="13" lengthAdjust="spacingAndGlyphs" textLength="91" x="68" y="115.1045">Manage Stacks</text><polygon fill="#A80036" points="439.5,146.3125,449.5,150.3125,439.5,154.3125,443.5,150.3125" style="stroke: #A80036; stroke-width: 1.0;"/><line style="stroke: #A80036; stroke-width: 1.0;" x1="348.5" x2="445.5" y1="150.3125" y2="150.3125"/><text fill="#000000" font-family="sans-serif" font-size="13" lengthAdjust="spacingAndGlyphs" textLength="53" x="355.5" y="145.4561">stack/list</text><polygon fill="#A80036" points="516.5,176.6641,526.5,180.6641,516.5,184.6641,520.5,180.6641" style="stroke: #A80036; stroke-width: 1.0;"/><line style="stroke: #A80036; stroke-width: 1.0;" x1="451.5" x2="522.5" y1="180.6641" y2="180.6641"/><text fill="#000000" font-family="sans-serif" font-size="13" lengthAdjust="spacingAndGlyphs" textLength="53" x="458.5" y="175.8076">stack/list</text><polygon fill="#A80036" points="336.5,207.0156,346.5,211.0156,336.5,215.0156,340.5,211.0156" style="stroke: #A80036; stroke-width: 1.0;"/><line style="stroke: #A80036; stroke-width: 1.0;" x1="194" x2="342.5" y1="211.0156" y2="211.0156"/><text fill="#000000" font-family="sans-serif" font-size="13" lengthAdjust="spacingAndGlyphs" textLength="91" x="201" y="206.1592">Manage Stacks</text><polygon fill="#A80036" points="439.5,237.3672,449.5,241.3672,439.5,245.3672,443.5,241.3672" style="stroke: #A80036; stroke-width: 1.0;"/><line style="stroke: #A80036; stroke-width: 1.0;" x1="348.5" x2="445.5" y1="241.3672" y2="241.3672"/><text fill="#000000" font-family="sans-serif" font-size="13" lengthAdjust="spacingAndGlyphs" textLength="53" x="355.5" y="236.5107">stack/list</text><polygon fill="#A80036" points="516.5,267.7188,526.5,271.7188,516.5,275.7188,520.5,271.7188" style="stroke: #A80036; stroke-width: 1.0;"/><line style="stroke: #A80036; stroke-width: 1.0;" x1="451.5" x2="522.5" y1="271.7188" y2="271.7188"/><text fill="#000000" font-family="sans-serif" font-size="13" lengthAdjust="spacingAndGlyphs" textLength="53" x="458.5" y="266.8623">stack/list</text><!--
@startuml

actor "StackDeveloper" as stackdev

actor "ApplicationDeveloper" as applicationdeveloper




stackdev -> "Service Orchestrator": Manage Stacks
"Service Orchestrator" -> bin: stack/list
bin -> REST: stack/list

applicationdeveloper -> "Service Orchestrator": Manage Stacks
"Service Orchestrator" -> bin: stack/list
bin -> REST: stack/list


@enduml

PlantUML version 1.2019.05(Sat Apr 20 09:45:36 PDT 2019)
(GPL source distribution)
Java Runtime: OpenJDK Runtime Environment
JVM: OpenJDK 64-Bit Server VM
Java Version: 12.0.1+12
Operating System: Windows 10
OS Version: 10.0
Default Encoding: Cp1252
Language: en
Country: US
--></g></svg>