<?xml version="1.0" encoding="UTF-8" standalone="no"?><svg xmlns="http://www.w3.org/2000/svg" xmlns:xlink="http://www.w3.org/1999/xlink" contentScriptType="application/ecmascript" contentStyleType="text/css" height="237px" preserveAspectRatio="none" style="width:452px;height:237px;" version="1.1" viewBox="0 0 452 237" width="452px" zoomAndPan="magnify"><defs><filter height="300%" id="f110jz90g64qr0" width="300%" x="-1" y="-1"><feGaussianBlur result="blurOut" stdDeviation="2.0"/><feColorMatrix in="blurOut" result="blurOut2" type="matrix" values="0 0 0 0 0 0 0 0 0 0 0 0 0 0 0 0 0 0 .4 0"/><feOffset dx="4.0" dy="4.0" in="blurOut2" result="blurOut3"/><feBlend in="SourceGraphic" in2="blurOut3" mode="normal"/></filter></defs><g><!--entity DataReference--><rect fill="#ADD8E6" filter="url(#f110jz90g64qr0)" height="37.6094" style="stroke: #000000; stroke-width: 1.5;" width="116" x="187" y="189"/><text fill="#000000" font-family="sans-serif" font-size="14" lengthAdjust="spacingAndGlyphs" textLength="96" x="197" y="213.5332">DataReference</text><!--entity DataReservation--><rect fill="#90EE90" filter="url(#f110jz90g64qr0)" height="37.6094" style="stroke: #000000; stroke-width: 1.5;" width="126" x="6" y="189"/><text fill="#000000" font-family="sans-serif" font-size="14" lengthAdjust="spacingAndGlyphs" textLength="106" x="16" y="213.5332">DataReservation</text><!--entity DataInstance--><rect fill="#ADD8E6" filter="url(#f110jz90g64qr0)" height="37.6094" style="stroke: #000000; stroke-width: 1.5;" width="103" x="338.5" y="189"/><text fill="#000000" font-family="sans-serif" font-size="14" lengthAdjust="spacingAndGlyphs" textLength="83" x="348.5" y="213.5332">DataInstance</text><!--class Model--><rect fill="#FEFECE" filter="url(#f110jz90g64qr0)" height="103.3438" id="Model" style="stroke: #A80036; stroke-width: 1.5;" width="105" x="149.5" y="8"/><ellipse cx="164.5" cy="24" fill="#ADD1B2" rx="11" ry="11" style="stroke: #A80036; stroke-width: 1.0;"/><path d="M167.2656,19.875 Q167.4219,19.6563 167.6094,19.5469 Q167.7969,19.4375 168.0156,19.4375 Q168.3906,19.4375 168.625,19.7031 Q168.8594,19.9531 168.8594,20.5625 L168.8594,22.0156 Q168.8594,22.625 168.625,22.8906 Q168.3906,23.1563 168.0156,23.1563 Q167.6719,23.1563 167.4688,22.9531 Q167.2656,22.7656 167.1563,22.25 Q167.1094,21.8906 166.9219,21.7031 Q166.5938,21.3281 165.9844,21.1094 Q165.375,20.8906 164.75,20.8906 Q163.9844,20.8906 163.3438,21.2188 Q162.7188,21.5469 162.2188,22.2969 Q161.7344,23.0469 161.7344,24.0781 L161.7344,25.1719 Q161.7344,26.4063 162.625,27.2344 Q163.5156,28.0469 165.1094,28.0469 Q166.0469,28.0469 166.7031,27.7969 Q167.0938,27.6406 167.5156,27.2031 Q167.7813,26.9375 167.9219,26.8594 Q168.0781,26.7813 168.2813,26.7813 Q168.6094,26.7813 168.8594,27.0469 Q169.125,27.2969 169.125,27.6406 Q169.125,27.9844 168.7813,28.3906 Q168.2813,28.9688 167.4844,29.2969 Q166.4063,29.75 165.1094,29.75 Q163.5938,29.75 162.3906,29.125 Q161.4063,28.625 160.7188,27.5625 Q160.0313,26.4844 160.0313,25.2031 L160.0313,24.0469 Q160.0313,22.7188 160.6406,21.5781 Q161.2656,20.4219 162.3594,19.8125 Q163.4531,19.1875 164.6875,19.1875 Q165.4219,19.1875 166.0625,19.3594 Q166.7188,19.5156 167.2656,19.875 Z "/><text fill="#000000" font-family="sans-serif" font-size="12" lengthAdjust="spacingAndGlyphs" textLength="73" x="178.5" y="28.9102">DataRequest</text><line style="stroke: #A80036; stroke-width: 1.5;" x1="150.5" x2="253.5" y1="40" y2="40"/><text fill="#000000" font-family="sans-serif" font-size="11" lengthAdjust="spacingAndGlyphs" textLength="56" x="155.5" y="55.4189">string name</text><text fill="#000000" font-family="sans-serif" font-size="11" lengthAdjust="spacingAndGlyphs" textLength="62" x="155.5" y="69.2549">string ename</text><text fill="#000000" font-family="sans-serif" font-size="11" lengthAdjust="spacingAndGlyphs" textLength="51" x="155.5" y="83.0908">json query</text><text fill="#000000" font-family="sans-serif" font-size="11" lengthAdjust="spacingAndGlyphs" textLength="74" x="155.5" y="96.9268">string message</text><line style="stroke: #A80036; stroke-width: 1.5;" x1="150.5" x2="253.5" y1="103.3438" y2="103.3438"/><!--link Model to DataReference--><path d="M220.607,123.894 C225.925,142.0132 231.484,160.9525 235.95,176.1669 " fill="none" id="Model-DataReference" style="stroke: #A80036; stroke-width: 1.0;"/><polygon fill="#A80036" points="239.705,188.9617,241.0085,179.1995,238.2969,184.1641,233.3323,181.4525,239.705,188.9617" style="stroke: #A80036; stroke-width: 1.0;"/><line style="stroke: #A80036; stroke-width: 1.0;" x1="238.2969" x2="236.044" y1="184.1641" y2="176.4878"/><polygon fill="#FFFFFF" points="216.919,111.327,214.7707,118.2107,220.2986,122.8413,222.4469,115.9576,216.919,111.327" style="stroke: #A80036; stroke-width: 1.0;"/><text fill="#000000" font-family="sans-serif" font-size="13" lengthAdjust="spacingAndGlyphs" textLength="83" x="231" y="155.4951">dataReference</text><text fill="#000000" font-family="sans-serif" font-size="13" lengthAdjust="spacingAndGlyphs" textLength="7" x="230.0115" y="178.29">1</text><!--link Model to DataReservation--><path d="M136.851,76.6 C103.4957,88.503 65.8257,108.46 46,141 C39.2525,152.0748 42.1476,165.4057 47.8101,177.1787 " fill="none" id="Model-DataReservation" style="stroke: #A80036; stroke-width: 1.0;"/><polygon fill="#A80036" points="54.4246,188.7236,53.4212,178.926,51.939,184.3852,46.4798,182.903,54.4246,188.7236" style="stroke: #A80036; stroke-width: 1.0;"/><line style="stroke: #A80036; stroke-width: 1.0;" x1="51.939" x2="47.962" y1="184.3852" y2="177.4438"/><polygon fill="#A80036" points="149.378,72.423,142.4207,70.5266,137.9943,76.2193,144.9516,78.1157,149.378,72.423" style="stroke: #A80036; stroke-width: 1.0;"/><text fill="#000000" font-family="sans-serif" font-size="13" lengthAdjust="spacingAndGlyphs" textLength="69" x="47" y="155.4951">reservations</text><text fill="#000000" font-family="sans-serif" font-size="13" lengthAdjust="spacingAndGlyphs" textLength="7" x="41.889" y="177.979">n</text><!--link DataReservation to Model--><path d="M99.9336,179.742 C107.035,173.1334 114.426,165.9617 121,159 C132.155,147.1877 143.571,134.0538 154.181,121.327 " fill="none" id="DataReservation-Model" style="stroke: #A80036; stroke-width: 1.0;"/><polygon fill="#A80036" points="162.497,111.24,153.6856,115.6399,159.3164,115.098,159.8584,120.7288,162.497,111.24" style="stroke: #A80036; stroke-width: 1.0;"/><line style="stroke: #A80036; stroke-width: 1.0;" x1="159.3164" x2="154.227" y1="115.098" y2="121.2705"/><polygon fill="#FFFFFF" points="89.8661,188.9315,96.9942,187.8408,98.729,180.8415,91.6009,181.9322,89.8661,188.9315" style="stroke: #A80036; stroke-width: 1.0;"/><text fill="#000000" font-family="sans-serif" font-size="13" lengthAdjust="spacingAndGlyphs" textLength="43" x="137" y="155.4951">request</text><text fill="#000000" font-family="sans-serif" font-size="13" lengthAdjust="spacingAndGlyphs" textLength="7" x="149.7185" y="132.7632">1</text><!--link Model to DataInstance--><path d="M265.723,99.62 C284.69,112.124 305.159,126.5 323,141 C337.497,152.7824 352.419,167.2162 364.49,179.578 " fill="none" id="Model-DataInstance" style="stroke: #A80036; stroke-width: 1.0;"/><polygon fill="#A80036" points="373.497,188.9575,370.1478,179.6956,370.0336,185.3513,364.3779,185.237,373.497,188.9575" style="stroke: #A80036; stroke-width: 1.0;"/><line style="stroke: #A80036; stroke-width: 1.0;" x1="370.0336" x2="364.4925" y1="185.3513" y2="179.5808"/><polygon fill="#FFFFFF" points="254.761,92.488,257.6084,99.1131,264.819,99.0329,261.9717,92.4078,254.761,92.488" style="stroke: #A80036; stroke-width: 1.0;"/><text fill="#000000" font-family="sans-serif" font-size="13" lengthAdjust="spacingAndGlyphs" textLength="56" x="344" y="155.4951">instances</text><text fill="#000000" font-family="sans-serif" font-size="13" lengthAdjust="spacingAndGlyphs" textLength="7" x="360.3711" y="178.2845">n</text><!--
@startuml

class "DataRequest" as Model {
 string name
 string ename
 json query
 string message

 
}

rectangle "DataReference" as DataReference #lightblue {
}

Model o- -> "1" DataReference : dataReference


rectangle "DataReservation" as DataReservation #lightblue {
}

Model *- -> "n" DataReservation : reservations


rectangle "DataInstance" as DataInstance #lightblue {
}

Model o- -> "n" DataInstance : instances




    rectangle "DataReservation" as DataReservation #lightgreen {
    }
    
        DataReservation   o- -> "1" Model : "request"
    

@enduml

PlantUML version 1.2019.05(Sat Apr 20 09:45:36 PDT 2019)
(GPL source distribution)
Java Runtime: OpenJDK Runtime Environment
JVM: OpenJDK 64-Bit Server VM
Java Version: 12.0.1+12
Operating System: Windows 10
OS Version: 10.0
Default Encoding: Cp1252
Language: en
Country: US
--></g></svg>