<?xml version="1.0" encoding="UTF-8" standalone="no"?><svg xmlns="http://www.w3.org/2000/svg" xmlns:xlink="http://www.w3.org/1999/xlink" contentScriptType="application/ecmascript" contentStyleType="text/css" height="937px" preserveAspectRatio="none" style="width:564px;height:937px;" version="1.1" viewBox="0 0 564 937" width="564px" zoomAndPan="magnify"><defs><filter height="300%" id="f11twu02dm60ux" width="300%" x="-1" y="-1"><feGaussianBlur result="blurOut" stdDeviation="2.0"/><feColorMatrix in="blurOut" result="blurOut2" type="matrix" values="0 0 0 0 0 0 0 0 0 0 0 0 0 0 0 0 0 0 .4 0"/><feOffset dx="4.0" dy="4.0" in="blurOut2" result="blurOut3"/><feBlend in="SourceGraphic" in2="blurOut3" mode="normal"/></filter></defs><g><!--cluster DataRequest--><rect fill="#ADD8E6" filter="url(#f11twu02dm60ux)" height="902" rx="12.5" ry="12.5" style="stroke: #A80036; stroke-width: 1.5;" width="201" x="22" y="24"/><rect fill="#FFFFFF" height="868.3906" rx="12.5" ry="12.5" style="stroke: #FFFFFF; stroke-width: 1.0;" width="195" x="25" y="54.6094"/><line style="stroke: #A80036; stroke-width: 1.5;" x1="22" x2="223" y1="51.6094" y2="51.6094"/><text fill="#000000" font-family="sans-serif" font-size="14" lengthAdjust="spacingAndGlyphs" textLength="83" x="81" y="42.5332">DataRequest</text><!--cluster diml--><rect fill="#FFCC88" filter="url(#f11twu02dm60ux)" height="238" rx="12.5" ry="12.5" style="stroke: #A80036; stroke-width: 1.5;" width="305" x="247" y="558"/><rect fill="#FFFFFF" height="204.3906" rx="12.5" ry="12.5" style="stroke: #FFFFFF; stroke-width: 1.0;" width="299" x="250" y="588.6094"/><line style="stroke: #A80036; stroke-width: 1.5;" x1="247" x2="552" y1="585.6094" y2="585.6094"/><text fill="#000000" font-family="sans-serif" font-size="14" lengthAdjust="spacingAndGlyphs" textLength="25" x="387" y="576.5332">diml</text><!--cluster dimldml--><rect fill="#FFCC88" filter="url(#f11twu02dm60ux)" height="170" rx="12.5" ry="12.5" style="stroke: #A80036; stroke-width: 1.5;" width="257" x="271" y="602"/><rect fill="#FFFFFF" height="136.3906" rx="12.5" ry="12.5" style="stroke: #FFFFFF; stroke-width: 1.0;" width="251" x="274" y="632.6094"/><line style="stroke: #A80036; stroke-width: 1.5;" x1="271" x2="528" y1="629.6094" y2="629.6094"/><text fill="#000000" font-family="sans-serif" font-size="14" lengthAdjust="spacingAndGlyphs" textLength="22" x="388.5" y="620.5332">dml</text><!--cluster dimldmldo--><rect fill="#ADD8E6" filter="url(#f11twu02dm60ux)" height="102" rx="12.5" ry="12.5" style="stroke: #A80036; stroke-width: 1.5;" width="209" x="295" y="646"/><rect fill="#FFFFFF" height="68.3906" rx="12.5" ry="12.5" style="stroke: #FFFFFF; stroke-width: 1.0;" width="203" x="298" y="676.6094"/><line style="stroke: #A80036; stroke-width: 1.5;" x1="295" x2="504" y1="673.6094" y2="673.6094"/><text fill="#000000" font-family="sans-serif" font-size="14" lengthAdjust="spacingAndGlyphs" textLength="16" x="391.5" y="664.5332">do</text><rect fill="#ADD8E6" filter="url(#f11twu02dm60ux)" height="50" rx="12.5" ry="12.5" style="stroke: #A80036; stroke-width: 1.5;" width="50" x="128" y="60"/><line style="stroke: #A80036; stroke-width: 1.5;" x1="128" x2="178" y1="87.6094" y2="87.6094"/><text fill="#000000" font-family="sans-serif" font-size="14" lengthAdjust="spacingAndGlyphs" textLength="18" x="144" y="79.5332">Init</text><rect fill="#ADD8E6" filter="url(#f11twu02dm60ux)" height="50" rx="12.5" ry="12.5" style="stroke: #A80036; stroke-width: 1.5;" width="69" x="118.5" y="188"/><line style="stroke: #A80036; stroke-width: 1.5;" x1="118.5" x2="187.5" y1="215.6094" y2="215.6094"/><text fill="#000000" font-family="sans-serif" font-size="14" lengthAdjust="spacingAndGlyphs" textLength="49" x="128.5" y="207.5332">Needed</text><rect fill="#ADD8E6" filter="url(#f11twu02dm60ux)" height="50" rx="12.5" ry="12.5" style="stroke: #A80036; stroke-width: 1.5;" width="59" x="38.5" y="682"/><line style="stroke: #A80036; stroke-width: 1.5;" x1="38.5" x2="97.5" y1="709.6094" y2="709.6094"/><text fill="#000000" font-family="sans-serif" font-size="14" lengthAdjust="spacingAndGlyphs" textLength="39" x="48.5" y="701.5332">Failed</text><rect fill="#ADD8E6" filter="url(#f11twu02dm60ux)" height="50" rx="12.5" ry="12.5" style="stroke: #A80036; stroke-width: 1.5;" width="75" x="115.5" y="316"/><line style="stroke: #A80036; stroke-width: 1.5;" x1="115.5" x2="190.5" y1="343.6094" y2="343.6094"/><text fill="#000000" font-family="sans-serif" font-size="14" lengthAdjust="spacingAndGlyphs" textLength="55" x="125.5" y="335.5332">Selected</text><rect fill="#ADD8E6" filter="url(#f11twu02dm60ux)" height="50" rx="12.5" ry="12.5" style="stroke: #A80036; stroke-width: 1.5;" width="74" x="133" y="682"/><line style="stroke: #A80036; stroke-width: 1.5;" x1="133" x2="207" y1="709.6094" y2="709.6094"/><text fill="#000000" font-family="sans-serif" font-size="14" lengthAdjust="spacingAndGlyphs" textLength="54" x="143" y="701.5332">Satisfied</text><rect fill="#ADD8E6" filter="url(#f11twu02dm60ux)" height="50" rx="12.5" ry="12.5" style="stroke: #A80036; stroke-width: 1.5;" width="83" x="109.5" y="444"/><line style="stroke: #A80036; stroke-width: 1.5;" x1="109.5" x2="192.5" y1="471.6094" y2="471.6094"/><text fill="#000000" font-family="sans-serif" font-size="14" lengthAdjust="spacingAndGlyphs" textLength="63" x="119.5" y="463.5332">Evaluated</text><rect fill="#ADD8E6" filter="url(#f11twu02dm60ux)" height="50" rx="12.5" ry="12.5" style="stroke: #A80036; stroke-width: 1.5;" width="88" x="108" y="860"/><line style="stroke: #A80036; stroke-width: 1.5;" x1="108" x2="196" y1="887.6094" y2="887.6094"/><text fill="#000000" font-family="sans-serif" font-size="14" lengthAdjust="spacingAndGlyphs" textLength="68" x="118" y="879.5332">Completed</text><rect fill="#ADD8E6" filter="url(#f11twu02dm60ux)" height="50" rx="12.5" ry="12.5" style="stroke: #A80036; stroke-width: 1.5;" width="68" x="420" y="682"/><line style="stroke: #A80036; stroke-width: 1.5;" x1="420" x2="488" y1="709.6094" y2="709.6094"/><text fill="#000000" font-family="sans-serif" font-size="14" lengthAdjust="spacingAndGlyphs" textLength="48" x="430" y="701.5332">reserve</text><rect fill="#ADD8E6" filter="url(#f11twu02dm60ux)" height="50" rx="12.5" ry="12.5" style="stroke: #A80036; stroke-width: 1.5;" width="74" x="311" y="682"/><line style="stroke: #A80036; stroke-width: 1.5;" x1="311" x2="385" y1="709.6094" y2="709.6094"/><text fill="#000000" font-family="sans-serif" font-size="14" lengthAdjust="spacingAndGlyphs" textLength="54" x="321" y="701.5332">evaluate</text><!--link Init to Needed--><path d="M153,110.294 C153,130.95 153,160.669 153,182.651 " fill="none" id="Init-Needed" style="stroke: #A80036; stroke-width: 1.0;"/><polygon fill="#A80036" points="153,187.781,157,178.781,153,182.781,149,178.781,153,187.781" style="stroke: #A80036; stroke-width: 1.0;"/><text fill="#000000" font-family="sans-serif" font-size="13" lengthAdjust="spacingAndGlyphs" textLength="25" x="154" y="154.4951">fulfill</text><!--link Needed to Selected--><path d="M153,238.294 C153,258.95 153,288.669 153,310.651 " fill="none" id="Needed-Selected" style="stroke: #A80036; stroke-width: 1.0;"/><polygon fill="#A80036" points="153,315.781,157,306.781,153,310.781,149,306.781,153,315.781" style="stroke: #A80036; stroke-width: 1.0;"/><text fill="#000000" font-family="sans-serif" font-size="13" lengthAdjust="spacingAndGlyphs" textLength="49" x="154" y="282.4951">selected</text><!--link Needed to Failed--><path d="M136.11,238.295 C123.231,258.204 106.333,287.624 98,316 C59.8454,445.919 62.927,610.052 66.1553,676.285 " fill="none" id="Needed-Failed" style="stroke: #A80036; stroke-width: 1.0;"/><polygon fill="#A80036" points="66.427,681.636,69.9641,672.4442,66.1727,676.6425,61.9745,672.8511,66.427,681.636" style="stroke: #A80036; stroke-width: 1.0;"/><text fill="#000000" font-family="sans-serif" font-size="13" lengthAdjust="spacingAndGlyphs" textLength="30" x="81" y="410.4951">failed</text><!--link Selected to Evaluated--><path d="M152.614,366.294 C152.287,386.95 151.815,416.669 151.466,438.651 " fill="none" id="Selected-Evaluated" style="stroke: #A80036; stroke-width: 1.0;"/><polygon fill="#A80036" points="151.384,443.781,155.5275,434.8461,151.464,438.7816,147.5285,434.7182,151.384,443.781" style="stroke: #A80036; stroke-width: 1.0;"/><text fill="#000000" font-family="sans-serif" font-size="13" lengthAdjust="spacingAndGlyphs" textLength="54" x="154" y="410.4951">evaluated</text><!--link Satisfied to Completed--><path d="M167.535,732.103 C164.272,764.006 158.523,820.218 155.008,854.5852 " fill="none" id="Satisfied-Completed" style="stroke: #A80036; stroke-width: 1.0;"/><polygon fill="#A80036" points="154.464,859.9063,159.3589,851.36,154.9727,854.9322,151.4004,850.546,154.464,859.9063" style="stroke: #A80036; stroke-width: 1.0;"/><text fill="#000000" font-family="sans-serif" font-size="13" lengthAdjust="spacingAndGlyphs" textLength="53" x="160" y="826.4951">complete</text><!--link Evaluated to Satisfied--><path d="M152.962,494.367 C156.477,538.026 163.834,629.41 167.627,676.521 " fill="none" id="Evaluated-Satisfied" style="stroke: #A80036; stroke-width: 1.0;"/><polygon fill="#A80036" points="168.049,681.765,171.3136,672.4729,167.6476,676.7811,163.3394,673.1152,168.049,681.765" style="stroke: #A80036; stroke-width: 1.0;"/><text fill="#000000" font-family="sans-serif" font-size="13" lengthAdjust="spacingAndGlyphs" textLength="48" x="158" y="538.4951">satisfied</text><!--link Evaluated to Failed--><path d="M133.065,494.067 C126.975,503.099 120.565,513.681 116,524 C93.2578,575.413 79.4046,639.919 72.7639,676.701 " fill="none" id="Evaluated-Failed" style="stroke: #A80036; stroke-width: 1.0;"/><polygon fill="#A80036" points="71.8363,681.922,77.3484,673.7601,72.7106,676.999,69.4717,672.3612,71.8363,681.922" style="stroke: #A80036; stroke-width: 1.0;"/><text fill="#000000" font-family="sans-serif" font-size="13" lengthAdjust="spacingAndGlyphs" textLength="30" x="117" y="538.4951">failed</text><!--link Needed to dimldmldoreserve--><path d="M181.913,238.012 C191.935,246.954 202.923,257.492 212,268 C310.955,382.553 336.388,414.069 403,550 C423.709,592.26 438.925,644.925 447.116,676.978 " fill="none" id="Needed-dimldmldoreserve" style="stroke: #000000; stroke-width: 1.0;"/><polygon fill="#000000" points="448.37,681.94,450.0442,672.2345,447.1456,677.0922,442.2878,674.1936,448.37,681.94" style="stroke: #000000; stroke-width: 1.0;"/><!--link Selected to dimldmldoevaluate--><path d="M187.382,366.016 C197.884,374.577 208.809,384.88 217,396 C284.442,487.557 325.055,619.078 340.651,676.877 " fill="none" id="Selected-dimldmldoevaluate" style="stroke: #000000; stroke-width: 1.0;"/><polygon fill="#000000" points="341.995,681.906,343.5379,672.1788,340.7052,677.0752,335.8087,674.2425,341.995,681.906" style="stroke: #000000; stroke-width: 1.0;"/><!--
@startuml



state DataRequest #lightblue {

    state Init #lightblue {
    }

    state Needed #lightblue {
    }

    state Failed #lightblue {
    }

    state Selected #lightblue {
    }

    state Satisfied #lightblue {
    }

    state Evaluated #lightblue {
    }

    state Completed #lightblue {
    }

}


Init - -> Needed : fulfill

Needed - -> Selected : selected

Needed - -> Failed : failed

Selected - -> Evaluated : evaluated

Satisfied - -> Completed : complete

Evaluated - -> Satisfied : satisfied

Evaluated - -> Failed : failed



 state "diml" as diml #ffcc88 {
state "dml" as dimldml #ffcc88 {
state "do" as dimldmldo #lightblue {
state "reserve" as dimldmldoreserve #lightblue {
}
}
}
}

 Needed -[#black]- -> dimldmldoreserve
 
 state "diml" as diml #ffcc88 {
state "dml" as dimldml #ffcc88 {
state "do" as dimldmldo #lightblue {
state "evaluate" as dimldmldoevaluate #lightblue {
}
}
}
}

 Selected -[#black]- -> dimldmldoevaluate
 

@enduml

PlantUML version 1.2019.05(Sat Apr 20 09:45:36 PDT 2019)
(GPL source distribution)
Java Runtime: OpenJDK Runtime Environment
JVM: OpenJDK 64-Bit Server VM
Java Version: 12.0.1+12
Operating System: Windows 10
OS Version: 10.0
Default Encoding: Cp1252
Language: en
Country: US
--></g></svg>