<?xml version="1.0" encoding="UTF-8" standalone="no"?><svg xmlns="http://www.w3.org/2000/svg" xmlns:xlink="http://www.w3.org/1999/xlink" contentScriptType="application/ecmascript" contentStyleType="text/css" height="384px" preserveAspectRatio="none" style="width:616px;height:384px;" version="1.1" viewBox="0 0 616 384" width="616px" zoomAndPan="magnify"><defs><filter height="300%" id="foaqt0v53xtc" width="300%" x="-1" y="-1"><feGaussianBlur result="blurOut" stdDeviation="2.0"/><feColorMatrix in="blurOut" result="blurOut2" type="matrix" values="0 0 0 0 0 0 0 0 0 0 0 0 0 0 0 0 0 0 .4 0"/><feOffset dx="4.0" dy="4.0" in="blurOut2" result="blurOut3"/><feBlend in="SourceGraphic" in2="blurOut3" mode="normal"/></filter></defs><g><!--cluster cpl_ta--><polygon fill="#D3D3D3" filter="url(#foaqt0v53xtc)" points="22,24,70,24,77,47.6094,594,47.6094,594,290,22,290,22,24" style="stroke: #000000; stroke-width: 1.5;"/><line style="stroke: #000000; stroke-width: 1.5;" x1="22" x2="77" y1="47.6094" y2="47.6094"/><text fill="#000000" font-family="sans-serif" font-size="14" font-weight="bold" lengthAdjust="spacingAndGlyphs" textLength="42" x="26" y="40.5332">cpl_ta</text><!--entity consumerService--><polygon fill="#FEFECE" filter="url(#foaqt0v53xtc)" points="42,70,52,60,144,60,144,97.6094,134,107.6094,42,107.6094,42,70" style="stroke: #000000; stroke-width: 1.5;"/><line style="stroke: #000000; stroke-width: 1.5;" x1="134" x2="143" y1="70" y2="61"/><line style="stroke: #000000; stroke-width: 1.5;" x1="42" x2="134" y1="70" y2="70"/><line style="stroke: #000000; stroke-width: 1.5;" x1="134" x2="134" y1="70" y2="107.6094"/><text fill="#000000" font-family="sans-serif" font-size="14" lengthAdjust="spacingAndGlyphs" textLength="62" x="57" y="94.5332">consumer</text><!--entity aggregatorService--><polygon fill="#FEFECE" filter="url(#foaqt0v53xtc)" points="38,153,48,143,148,143,148,180.6094,138,190.6094,38,190.6094,38,153" style="stroke: #000000; stroke-width: 1.5;"/><line style="stroke: #000000; stroke-width: 1.5;" x1="138" x2="147" y1="153" y2="144"/><line style="stroke: #000000; stroke-width: 1.5;" x1="38" x2="138" y1="153" y2="153"/><line style="stroke: #000000; stroke-width: 1.5;" x1="138" x2="138" y1="153" y2="190.6094"/><text fill="#000000" font-family="sans-serif" font-size="14" lengthAdjust="spacingAndGlyphs" textLength="70" x="53" y="177.5332">aggregator</text><!--entity producerService--><polygon fill="#FEFECE" filter="url(#foaqt0v53xtc)" points="44.5,236,54.5,226,141.5,226,141.5,263.6094,131.5,273.6094,44.5,273.6094,44.5,236" style="stroke: #000000; stroke-width: 1.5;"/><line style="stroke: #000000; stroke-width: 1.5;" x1="131.5" x2="140.5" y1="236" y2="227"/><line style="stroke: #000000; stroke-width: 1.5;" x1="44.5" x2="131.5" y1="236" y2="236"/><line style="stroke: #000000; stroke-width: 1.5;" x1="131.5" x2="131.5" y1="236" y2="273.6094"/><text fill="#000000" font-family="sans-serif" font-size="14" lengthAdjust="spacingAndGlyphs" textLength="57" x="59.5" y="260.5332">producer</text><!--entity cpl_tc_weblatestimage--><rect fill="#FEFECE" filter="url(#foaqt0v53xtc)" height="40.6094" style="stroke: #000000; stroke-width: 1.5;" width="138" x="423.5" y="63.5"/><polygon fill="#FEFECE" points="544.5,68.5,544.5,82.5,556.5,82.5,556.5,74.5,550.5,68.5,544.5,68.5" style="stroke: #000000; stroke-width: 1.5;"/><line style="stroke: #000000; stroke-width: 1.5;" x1="550.5" x2="550.5" y1="68.5" y2="74.5"/><line style="stroke: #000000; stroke-width: 1.5;" x1="556.5" x2="550.5" y1="74.5" y2="74.5"/><text fill="#000000" font-family="sans-serif" font-size="14" lengthAdjust="spacingAndGlyphs" textLength="108" x="433.5" y="91.0332">cpl_tc_web:latest</text><!--entity cpl_ta_weblatestimage--><rect fill="#FEFECE" filter="url(#foaqt0v53xtc)" height="40.6094" style="stroke: #000000; stroke-width: 1.5;" width="139" x="423" y="146.5"/><polygon fill="#FEFECE" points="545,151.5,545,165.5,557,165.5,557,157.5,551,151.5,545,151.5" style="stroke: #000000; stroke-width: 1.5;"/><line style="stroke: #000000; stroke-width: 1.5;" x1="551" x2="551" y1="151.5" y2="157.5"/><line style="stroke: #000000; stroke-width: 1.5;" x1="557" x2="551" y1="157.5" y2="157.5"/><text fill="#000000" font-family="sans-serif" font-size="14" lengthAdjust="spacingAndGlyphs" textLength="109" x="433" y="174.0332">cpl_ta_web:latest</text><!--entity cpl_tp_producerlatestimage--><rect fill="#FEFECE" filter="url(#foaqt0v53xtc)" height="40.6094" style="stroke: #000000; stroke-width: 1.5;" width="171" x="407" y="229.5"/><polygon fill="#FEFECE" points="561,234.5,561,248.5,573,248.5,573,240.5,567,234.5,561,234.5" style="stroke: #000000; stroke-width: 1.5;"/><line style="stroke: #000000; stroke-width: 1.5;" x1="567" x2="567" y1="234.5" y2="240.5"/><line style="stroke: #000000; stroke-width: 1.5;" x1="573" x2="567" y1="240.5" y2="240.5"/><text fill="#000000" font-family="sans-serif" font-size="14" lengthAdjust="spacingAndGlyphs" textLength="141" x="417" y="257.0332">cpl_tp_producer:latest</text><!--entity external--><path d="M213,325 L281,325 C286,325 286,338.8047 286,338.8047 C286,338.8047 286,352.6094 281,352.6094 L213,352.6094 C208,352.6094 208,338.8047 208,338.8047 C208,338.8047 208,325 213,325 " fill="#000000" filter="url(#foaqt0v53xtc)" style="stroke: #A80036; stroke-width: 1.5;"/><path d="M281,325 C276,325 276,338.8047 276,338.8047 C276,352.6094 281,352.6094 281,352.6094 " fill="none" style="stroke: #A80036; stroke-width: 1.5;"/><text fill="#FFFFFF" font-family="sans-serif" font-size="14" font-weight="bold" lengthAdjust="spacingAndGlyphs" textLength="58" x="213" y="344.5332">external</text><!--entity 3001--><ellipse cx="93" cy="339" fill="#FEFECE" filter="url(#foaqt0v53xtc)" rx="8" ry="8" style="stroke: #A80036; stroke-width: 2.0;"/><text fill="#000000" font-family="sans-serif" font-size="14" lengthAdjust="spacingAndGlyphs" textLength="32" x="77" y="370.5332">3001</text><!--link 3001 to external--><path d="M102.1722,339 C121.72,339 172.196,339 207.81,339 " fill="none" id="3001-external" style="stroke: #A80036; stroke-width: 1.0;"/><!--link consumerService to cpl_tc_weblatestimage--><path d="M144.344,84 C215.06,84 344.011,84 423.286,84 " fill="none" id="consumerService-cpl_tc_weblatestimage" style="stroke: #A80036; stroke-width: 1.0; stroke-dasharray: 7.0,7.0;"/><!--link aggregatorService to cpl_ta_weblatestimage--><path d="M148.022,167 C219.346,167 344.981,167 422.927,167 " fill="none" id="aggregatorService-cpl_ta_weblatestimage" style="stroke: #A80036; stroke-width: 1.0; stroke-dasharray: 7.0,7.0;"/><!--link producerService to cpl_tp_producerlatestimage--><path d="M141.553,250 C206.981,250 325.833,250 406.691,250 " fill="none" id="producerService-cpl_tp_producerlatestimage" style="stroke: #A80036; stroke-width: 1.0; stroke-dasharray: 7.0,7.0;"/><!--
@startuml

left to right direction


queue external #black [
    <b><color:white>external</color></b>
]
    
interface 3001
3001 - - external
    





package "cpl_ta" #lightgray {

node "consumer" as consumerService
node "aggregator" as aggregatorService
node "producer" as producerService


        artifact "cpl_tc_web:latest" as cpl_tc_weblatestimage
    
        artifact "cpl_ta_web:latest" as cpl_ta_weblatestimage
    
        artifact "cpl_tp_producer:latest" as cpl_tp_producerlatestimage
    
}
consumerService .... cpl_tc_weblatestimage
aggregatorService .... cpl_ta_weblatestimage
producerService .... cpl_tp_producerlatestimage


@enduml

PlantUML version 1.2019.05(Sat Apr 20 09:45:36 PDT 2019)
(GPL source distribution)
Java Runtime: OpenJDK Runtime Environment
JVM: OpenJDK 64-Bit Server VM
Java Version: 12.0.1+12
Operating System: Windows 10
OS Version: 10.0
Default Encoding: Cp1252
Language: en
Country: US
--></g></svg>