<?xml version="1.0" encoding="UTF-8" standalone="no"?><svg xmlns="http://www.w3.org/2000/svg" xmlns:xlink="http://www.w3.org/1999/xlink" contentScriptType="application/ecmascript" contentStyleType="text/css" height="793px" preserveAspectRatio="none" style="width:695px;height:793px;" version="1.1" viewBox="0 0 695 793" width="695px" zoomAndPan="magnify"><defs><filter height="300%" id="fnp24wbz75ka0" width="300%" x="-1" y="-1"><feGaussianBlur result="blurOut" stdDeviation="2.0"/><feColorMatrix in="blurOut" result="blurOut2" type="matrix" values="0 0 0 0 0 0 0 0 0 0 0 0 0 0 0 0 0 0 .4 0"/><feOffset dx="4.0" dy="4.0" in="blurOut2" result="blurOut3"/><feBlend in="SourceGraphic" in2="blurOut3" mode="normal"/></filter></defs><g><!--cluster Software Defined Infrastructure--><polygon fill="#FFFFE0" filter="url(#fnp24wbz75ka0)" points="435,351,663,351,670,374.6094,673,374.6094,673,451,435,451,435,351" style="stroke: #000000; stroke-width: 1.5;"/><line style="stroke: #000000; stroke-width: 1.5;" x1="435" x2="670" y1="374.6094" y2="374.6094"/><text fill="#000000" font-family="sans-serif" font-size="14" font-weight="bold" lengthAdjust="spacingAndGlyphs" textLength="222" x="439" y="367.5332">Software Defined Infrastructure</text><!--cluster Cloud Broker--><polygon fill="#90EE90" filter="url(#fnp24wbz75ka0)" points="22,65,121,65,128,88.6094,411,88.6094,411,781,22,781,22,65" style="stroke: #000000; stroke-width: 1.5;"/><line style="stroke: #000000; stroke-width: 1.5;" x1="22" x2="128" y1="88.6094" y2="88.6094"/><text fill="#000000" font-family="sans-serif" font-size="14" font-weight="bold" lengthAdjust="spacingAndGlyphs" textLength="93" x="26" y="81.5332">Cloud Broker</text><!--cluster Common Physical Layer--><polygon fill="#D3D3D3" filter="url(#fnp24wbz75ka0)" points="435,660,605,660,612,683.6094,615,683.6094,615,760,435,760,435,660" style="stroke: #000000; stroke-width: 1.5;"/><line style="stroke: #000000; stroke-width: 1.5;" x1="435" x2="612" y1="683.6094" y2="683.6094"/><text fill="#000000" font-family="sans-serif" font-size="14" font-weight="bold" lengthAdjust="spacingAndGlyphs" textLength="164" x="439" y="676.5332">Common Physical Layer</text><!--class Cloud--><rect fill="#FEFECE" filter="url(#fnp24wbz75ka0)" height="48" id="Cloud" style="stroke: #A80036; stroke-width: 1.5;" width="65" x="451.5" y="387"/><ellipse cx="466.5" cy="403" fill="#ADD1B2" rx="11" ry="11" style="stroke: #A80036; stroke-width: 1.0;"/><path d="M469.2656,398.875 Q469.4219,398.6563 469.6094,398.5469 Q469.7969,398.4375 470.0156,398.4375 Q470.3906,398.4375 470.625,398.7031 Q470.8594,398.9531 470.8594,399.5625 L470.8594,401.0156 Q470.8594,401.625 470.625,401.8906 Q470.3906,402.1563 470.0156,402.1563 Q469.6719,402.1563 469.4688,401.9531 Q469.2656,401.7656 469.1563,401.25 Q469.1094,400.8906 468.9219,400.7031 Q468.5938,400.3281 467.9844,400.1094 Q467.375,399.8906 466.75,399.8906 Q465.9844,399.8906 465.3438,400.2188 Q464.7188,400.5469 464.2188,401.2969 Q463.7344,402.0469 463.7344,403.0781 L463.7344,404.1719 Q463.7344,405.4063 464.625,406.2344 Q465.5156,407.0469 467.1094,407.0469 Q468.0469,407.0469 468.7031,406.7969 Q469.0938,406.6406 469.5156,406.2031 Q469.7813,405.9375 469.9219,405.8594 Q470.0781,405.7813 470.2813,405.7813 Q470.6094,405.7813 470.8594,406.0469 Q471.125,406.2969 471.125,406.6406 Q471.125,406.9844 470.7813,407.3906 Q470.2813,407.9688 469.4844,408.2969 Q468.4063,408.75 467.1094,408.75 Q465.5938,408.75 464.3906,408.125 Q463.4063,407.625 462.7188,406.5625 Q462.0313,405.4844 462.0313,404.2031 L462.0313,403.0469 Q462.0313,401.7188 462.6406,400.5781 Q463.2656,399.4219 464.3594,398.8125 Q465.4531,398.1875 466.6875,398.1875 Q467.4219,398.1875 468.0625,398.3594 Q468.7188,398.5156 469.2656,398.875 Z "/><text fill="#000000" font-family="sans-serif" font-size="12" lengthAdjust="spacingAndGlyphs" textLength="33" x="480.5" y="407.9102">Cloud</text><line style="stroke: #A80036; stroke-width: 1.5;" x1="452.5" x2="515.5" y1="419" y2="419"/><line style="stroke: #A80036; stroke-width: 1.5;" x1="452.5" x2="515.5" y1="427" y2="427"/><!--class ResourceMap--><rect fill="#FEFECE" filter="url(#fnp24wbz75ka0)" height="61.8359" id="ResourceMap" style="stroke: #A80036; stroke-width: 1.5;" width="109" x="94.5" y="380"/><ellipse cx="109.5" cy="396" fill="#ADD1B2" rx="11" ry="11" style="stroke: #A80036; stroke-width: 1.0;"/><path d="M112.2656,391.875 Q112.4219,391.6563 112.6094,391.5469 Q112.7969,391.4375 113.0156,391.4375 Q113.3906,391.4375 113.625,391.7031 Q113.8594,391.9531 113.8594,392.5625 L113.8594,394.0156 Q113.8594,394.625 113.625,394.8906 Q113.3906,395.1563 113.0156,395.1563 Q112.6719,395.1563 112.4688,394.9531 Q112.2656,394.7656 112.1563,394.25 Q112.1094,393.8906 111.9219,393.7031 Q111.5938,393.3281 110.9844,393.1094 Q110.375,392.8906 109.75,392.8906 Q108.9844,392.8906 108.3438,393.2188 Q107.7188,393.5469 107.2188,394.2969 Q106.7344,395.0469 106.7344,396.0781 L106.7344,397.1719 Q106.7344,398.4063 107.625,399.2344 Q108.5156,400.0469 110.1094,400.0469 Q111.0469,400.0469 111.7031,399.7969 Q112.0938,399.6406 112.5156,399.2031 Q112.7813,398.9375 112.9219,398.8594 Q113.0781,398.7813 113.2813,398.7813 Q113.6094,398.7813 113.8594,399.0469 Q114.125,399.2969 114.125,399.6406 Q114.125,399.9844 113.7813,400.3906 Q113.2813,400.9688 112.4844,401.2969 Q111.4063,401.75 110.1094,401.75 Q108.5938,401.75 107.3906,401.125 Q106.4063,400.625 105.7188,399.5625 Q105.0313,398.4844 105.0313,397.2031 L105.0313,396.0469 Q105.0313,394.7188 105.6406,393.5781 Q106.2656,392.4219 107.3594,391.8125 Q108.4531,391.1875 109.6875,391.1875 Q110.4219,391.1875 111.0625,391.3594 Q111.7188,391.5156 112.2656,391.875 Z "/><text fill="#000000" font-family="sans-serif" font-size="12" lengthAdjust="spacingAndGlyphs" textLength="77" x="123.5" y="400.9102">ResourceMap</text><line style="stroke: #A80036; stroke-width: 1.5;" x1="95.5" x2="202.5" y1="412" y2="412"/><text fill="#000000" font-family="sans-serif" font-size="11" lengthAdjust="spacingAndGlyphs" textLength="56" x="100.5" y="427.4189">string name</text><line style="stroke: #A80036; stroke-width: 1.5;" x1="95.5" x2="202.5" y1="433.8359" y2="433.8359"/><!--class ResourceInstanceType--><rect fill="#FEFECE" filter="url(#fnp24wbz75ka0)" height="75.6719" id="ResourceInstanceType" style="stroke: #A80036; stroke-width: 1.5;" width="159" x="194.5" y="520"/><ellipse cx="209.5" cy="536" fill="#ADD1B2" rx="11" ry="11" style="stroke: #A80036; stroke-width: 1.0;"/><path d="M212.2656,531.875 Q212.4219,531.6563 212.6094,531.5469 Q212.7969,531.4375 213.0156,531.4375 Q213.3906,531.4375 213.625,531.7031 Q213.8594,531.9531 213.8594,532.5625 L213.8594,534.0156 Q213.8594,534.625 213.625,534.8906 Q213.3906,535.1563 213.0156,535.1563 Q212.6719,535.1563 212.4688,534.9531 Q212.2656,534.7656 212.1563,534.25 Q212.1094,533.8906 211.9219,533.7031 Q211.5938,533.3281 210.9844,533.1094 Q210.375,532.8906 209.75,532.8906 Q208.9844,532.8906 208.3438,533.2188 Q207.7188,533.5469 207.2188,534.2969 Q206.7344,535.0469 206.7344,536.0781 L206.7344,537.1719 Q206.7344,538.4063 207.625,539.2344 Q208.5156,540.0469 210.1094,540.0469 Q211.0469,540.0469 211.7031,539.7969 Q212.0938,539.6406 212.5156,539.2031 Q212.7813,538.9375 212.9219,538.8594 Q213.0781,538.7813 213.2813,538.7813 Q213.6094,538.7813 213.8594,539.0469 Q214.125,539.2969 214.125,539.6406 Q214.125,539.9844 213.7813,540.3906 Q213.2813,540.9688 212.4844,541.2969 Q211.4063,541.75 210.1094,541.75 Q208.5938,541.75 207.3906,541.125 Q206.4063,540.625 205.7188,539.5625 Q205.0313,538.4844 205.0313,537.2031 L205.0313,536.0469 Q205.0313,534.7188 205.6406,533.5781 Q206.2656,532.4219 207.3594,531.8125 Q208.4531,531.1875 209.6875,531.1875 Q210.4219,531.1875 211.0625,531.3594 Q211.7188,531.5156 212.2656,531.875 Z "/><text fill="#000000" font-family="sans-serif" font-size="12" lengthAdjust="spacingAndGlyphs" textLength="127" x="223.5" y="540.9102">ResourceInstanceType</text><line style="stroke: #A80036; stroke-width: 1.5;" x1="195.5" x2="352.5" y1="552" y2="552"/><text fill="#000000" font-family="sans-serif" font-size="11" lengthAdjust="spacingAndGlyphs" textLength="56" x="200.5" y="567.4189">string name</text><text fill="#000000" font-family="sans-serif" font-size="11" lengthAdjust="spacingAndGlyphs" textLength="51" x="200.5" y="581.2549">string type</text><line style="stroke: #A80036; stroke-width: 1.5;" x1="195.5" x2="352.5" y1="587.6719" y2="587.6719"/><!--class ResourceCost--><rect fill="#FEFECE" filter="url(#fnp24wbz75ka0)" height="89.5078" id="ResourceCost" style="stroke: #A80036; stroke-width: 1.5;" width="112" x="218" y="675"/><ellipse cx="233" cy="691" fill="#ADD1B2" rx="11" ry="11" style="stroke: #A80036; stroke-width: 1.0;"/><path d="M235.7656,686.875 Q235.9219,686.6563 236.1094,686.5469 Q236.2969,686.4375 236.5156,686.4375 Q236.8906,686.4375 237.125,686.7031 Q237.3594,686.9531 237.3594,687.5625 L237.3594,689.0156 Q237.3594,689.625 237.125,689.8906 Q236.8906,690.1563 236.5156,690.1563 Q236.1719,690.1563 235.9688,689.9531 Q235.7656,689.7656 235.6563,689.25 Q235.6094,688.8906 235.4219,688.7031 Q235.0938,688.3281 234.4844,688.1094 Q233.875,687.8906 233.25,687.8906 Q232.4844,687.8906 231.8438,688.2188 Q231.2188,688.5469 230.7188,689.2969 Q230.2344,690.0469 230.2344,691.0781 L230.2344,692.1719 Q230.2344,693.4063 231.125,694.2344 Q232.0156,695.0469 233.6094,695.0469 Q234.5469,695.0469 235.2031,694.7969 Q235.5938,694.6406 236.0156,694.2031 Q236.2813,693.9375 236.4219,693.8594 Q236.5781,693.7813 236.7813,693.7813 Q237.1094,693.7813 237.3594,694.0469 Q237.625,694.2969 237.625,694.6406 Q237.625,694.9844 237.2813,695.3906 Q236.7813,695.9688 235.9844,696.2969 Q234.9063,696.75 233.6094,696.75 Q232.0938,696.75 230.8906,696.125 Q229.9063,695.625 229.2188,694.5625 Q228.5313,693.4844 228.5313,692.2031 L228.5313,691.0469 Q228.5313,689.7188 229.1406,688.5781 Q229.7656,687.4219 230.8594,686.8125 Q231.9531,686.1875 233.1875,686.1875 Q233.9219,686.1875 234.5625,686.3594 Q235.2188,686.5156 235.7656,686.875 Z "/><text fill="#000000" font-family="sans-serif" font-size="12" lengthAdjust="spacingAndGlyphs" textLength="80" x="247" y="695.9102">ResourceCost</text><line style="stroke: #A80036; stroke-width: 1.5;" x1="219" x2="329" y1="707" y2="707"/><text fill="#000000" font-family="sans-serif" font-size="11" lengthAdjust="spacingAndGlyphs" textLength="56" x="224" y="722.4189">string name</text><text fill="#000000" font-family="sans-serif" font-size="11" lengthAdjust="spacingAndGlyphs" textLength="74" x="224" y="736.2549">number amount</text><text fill="#000000" font-family="sans-serif" font-size="11" lengthAdjust="spacingAndGlyphs" textLength="53" x="224" y="750.0908">string units</text><line style="stroke: #A80036; stroke-width: 1.5;" x1="219" x2="329" y1="756.5078" y2="756.5078"/><!--class i--><rect fill="#FEFECE" filter="url(#fnp24wbz75ka0)" height="186.3594" id="i" style="stroke: #A80036; stroke-width: 1.5;" width="230" x="165" y="101"/><ellipse cx="239.25" cy="117" fill="#B4A7E5" rx="11" ry="11" style="stroke: #A80036; stroke-width: 1.0;"/><path d="M240.2031,113.6406 L240.2031,120.2969 L241.9219,120.2969 Q242.5313,120.2969 242.7969,120.5313 Q243.0625,120.7656 243.0625,121.1563 Q243.0625,121.5313 242.7969,121.7656 Q242.5313,122 241.9219,122 L236.7813,122 Q236.1719,122 235.9063,121.7656 Q235.6406,121.5313 235.6406,121.1406 Q235.6406,120.7656 235.9063,120.5313 Q236.1719,120.2969 236.7813,120.2969 L238.5,120.2969 L238.5,113.6406 L236.7813,113.6406 Q236.1719,113.6406 235.9063,113.4063 Q235.6406,113.1719 235.6406,112.7813 Q235.6406,112.4063 235.9063,112.1719 Q236.1719,111.9375 236.7813,111.9375 L241.9219,111.9375 Q242.5313,111.9375 242.7969,112.1719 Q243.0625,112.4063 243.0625,112.7813 Q243.0625,113.1719 242.7969,113.4063 Q242.5313,113.6406 241.9219,113.6406 L240.2031,113.6406 Z "/><text fill="#000000" font-family="sans-serif" font-size="12" font-style="italic" lengthAdjust="spacingAndGlyphs" textLength="73" x="259.75" y="121.9102">Cloud Broker</text><line style="stroke: #A80036; stroke-width: 1.5;" x1="166" x2="394" y1="133" y2="133"/><line style="stroke: #A80036; stroke-width: 1.5;" x1="166" x2="394" y1="141" y2="141"/><text fill="#000000" font-family="sans-serif" font-size="11" lengthAdjust="spacingAndGlyphs" textLength="138" x="171" y="156.4189">/edgemere/sml/cb/billing/list()</text><text fill="#000000" font-family="sans-serif" font-size="11" lengthAdjust="spacingAndGlyphs" textLength="154" x="171" y="170.2549">/edgemere/sml/cb/data/govern()</text><text fill="#000000" font-family="sans-serif" font-size="11" lengthAdjust="spacingAndGlyphs" textLength="196" x="171" y="184.0908">/edgemere/sml/cb/multicloud/addclouds()</text><text fill="#000000" font-family="sans-serif" font-size="11" lengthAdjust="spacingAndGlyphs" textLength="200" x="171" y="197.9268">/edgemere/sml/cb/multicloud/addpolicies()</text><text fill="#000000" font-family="sans-serif" font-size="11" lengthAdjust="spacingAndGlyphs" textLength="159" x="171" y="211.7627">/edgemere/sml/cb/multicloud/list()</text><text fill="#000000" font-family="sans-serif" font-size="11" lengthAdjust="spacingAndGlyphs" textLength="216" x="171" y="225.5986">/edgemere/sml/cb/multicloud/mapresources()</text><text fill="#000000" font-family="sans-serif" font-size="11" lengthAdjust="spacingAndGlyphs" textLength="218" x="171" y="239.4346">/edgemere/sml/cb/multicloud/removepolicies()</text><text fill="#000000" font-family="sans-serif" font-size="11" lengthAdjust="spacingAndGlyphs" textLength="218" x="171" y="253.2705">/edgemere/sml/cb/resourceinstancetype/list()</text><text fill="#000000" font-family="sans-serif" font-size="11" lengthAdjust="spacingAndGlyphs" textLength="167" x="171" y="267.1064">/edgemere/sml/cb/resources/find()</text><text fill="#000000" font-family="sans-serif" font-size="11" lengthAdjust="spacingAndGlyphs" textLength="205" x="171" y="280.9424">/edgemere/sml/cb/service/mapresources()</text><!--class CloudType--><rect fill="#FEFECE" filter="url(#fnp24wbz75ka0)" height="75.6719" id="CloudType" style="stroke: #A80036; stroke-width: 1.5;" width="91" x="38.5" y="156"/><ellipse cx="53.5" cy="172" fill="#ADD1B2" rx="11" ry="11" style="stroke: #A80036; stroke-width: 1.0;"/><path d="M56.2656,167.875 Q56.4219,167.6563 56.6094,167.5469 Q56.7969,167.4375 57.0156,167.4375 Q57.3906,167.4375 57.625,167.7031 Q57.8594,167.9531 57.8594,168.5625 L57.8594,170.0156 Q57.8594,170.625 57.625,170.8906 Q57.3906,171.1563 57.0156,171.1563 Q56.6719,171.1563 56.4688,170.9531 Q56.2656,170.7656 56.1563,170.25 Q56.1094,169.8906 55.9219,169.7031 Q55.5938,169.3281 54.9844,169.1094 Q54.375,168.8906 53.75,168.8906 Q52.9844,168.8906 52.3438,169.2188 Q51.7188,169.5469 51.2188,170.2969 Q50.7344,171.0469 50.7344,172.0781 L50.7344,173.1719 Q50.7344,174.4063 51.625,175.2344 Q52.5156,176.0469 54.1094,176.0469 Q55.0469,176.0469 55.7031,175.7969 Q56.0938,175.6406 56.5156,175.2031 Q56.7813,174.9375 56.9219,174.8594 Q57.0781,174.7813 57.2813,174.7813 Q57.6094,174.7813 57.8594,175.0469 Q58.125,175.2969 58.125,175.6406 Q58.125,175.9844 57.7813,176.3906 Q57.2813,176.9688 56.4844,177.2969 Q55.4063,177.75 54.1094,177.75 Q52.5938,177.75 51.3906,177.125 Q50.4063,176.625 49.7188,175.5625 Q49.0313,174.4844 49.0313,173.2031 L49.0313,172.0469 Q49.0313,170.7188 49.6406,169.5781 Q50.2656,168.4219 51.3594,167.8125 Q52.4531,167.1875 53.6875,167.1875 Q54.4219,167.1875 55.0625,167.3594 Q55.7188,167.5156 56.2656,167.875 Z "/><text fill="#000000" font-family="sans-serif" font-size="12" lengthAdjust="spacingAndGlyphs" textLength="59" x="67.5" y="176.9102">CloudType</text><line style="stroke: #A80036; stroke-width: 1.5;" x1="39.5" x2="128.5" y1="188" y2="188"/><text fill="#000000" font-family="sans-serif" font-size="11" lengthAdjust="spacingAndGlyphs" textLength="56" x="44.5" y="203.4189">string name</text><line style="stroke: #A80036; stroke-width: 1.5;" x1="39.5" x2="128.5" y1="209.8359" y2="209.8359"/><text fill="#000000" font-family="sans-serif" font-size="11" lengthAdjust="spacingAndGlyphs" textLength="39" x="44.5" y="225.2549">create()</text><!--class PhysicalProfile--><rect fill="#FEFECE" filter="url(#fnp24wbz75ka0)" height="48" id="PhysicalProfile" style="stroke: #A80036; stroke-width: 1.5;" width="113" x="451.5" y="696"/><ellipse cx="466.5" cy="712" fill="#ADD1B2" rx="11" ry="11" style="stroke: #A80036; stroke-width: 1.0;"/><path d="M469.2656,707.875 Q469.4219,707.6563 469.6094,707.5469 Q469.7969,707.4375 470.0156,707.4375 Q470.3906,707.4375 470.625,707.7031 Q470.8594,707.9531 470.8594,708.5625 L470.8594,710.0156 Q470.8594,710.625 470.625,710.8906 Q470.3906,711.1563 470.0156,711.1563 Q469.6719,711.1563 469.4688,710.9531 Q469.2656,710.7656 469.1563,710.25 Q469.1094,709.8906 468.9219,709.7031 Q468.5938,709.3281 467.9844,709.1094 Q467.375,708.8906 466.75,708.8906 Q465.9844,708.8906 465.3438,709.2188 Q464.7188,709.5469 464.2188,710.2969 Q463.7344,711.0469 463.7344,712.0781 L463.7344,713.1719 Q463.7344,714.4063 464.625,715.2344 Q465.5156,716.0469 467.1094,716.0469 Q468.0469,716.0469 468.7031,715.7969 Q469.0938,715.6406 469.5156,715.2031 Q469.7813,714.9375 469.9219,714.8594 Q470.0781,714.7813 470.2813,714.7813 Q470.6094,714.7813 470.8594,715.0469 Q471.125,715.2969 471.125,715.6406 Q471.125,715.9844 470.7813,716.3906 Q470.2813,716.9688 469.4844,717.2969 Q468.4063,717.75 467.1094,717.75 Q465.5938,717.75 464.3906,717.125 Q463.4063,716.625 462.7188,715.5625 Q462.0313,714.4844 462.0313,713.2031 L462.0313,712.0469 Q462.0313,710.7188 462.6406,709.5781 Q463.2656,708.4219 464.3594,707.8125 Q465.4531,707.1875 466.6875,707.1875 Q467.4219,707.1875 468.0625,707.3594 Q468.7188,707.5156 469.2656,707.875 Z "/><text fill="#000000" font-family="sans-serif" font-size="12" lengthAdjust="spacingAndGlyphs" textLength="81" x="480.5" y="716.9102">PhysicalProfile</text><line style="stroke: #A80036; stroke-width: 1.5;" x1="452.5" x2="563.5" y1="728" y2="728"/><line style="stroke: #A80036; stroke-width: 1.5;" x1="452.5" x2="563.5" y1="736" y2="736"/><ellipse cx="235" cy="13" fill="#FEFECE" filter="url(#fnp24wbz75ka0)" rx="5" ry="5" style="stroke: #A80036; stroke-width: 1.5;"/><text fill="#000000" font-family="sans-serif" font-size="12" lengthAdjust="spacingAndGlyphs" textLength="19" x="225.5" y="30.457">CLI</text><ellipse cx="280" cy="13" fill="#FEFECE" filter="url(#fnp24wbz75ka0)" rx="5" ry="5" style="stroke: #A80036; stroke-width: 1.5;"/><text fill="#000000" font-family="sans-serif" font-size="12" lengthAdjust="spacingAndGlyphs" textLength="32" x="264" y="30.457">REST</text><ellipse cx="325" cy="13" fill="#FEFECE" filter="url(#fnp24wbz75ka0)" rx="5" ry="5" style="stroke: #A80036; stroke-width: 1.5;"/><text fill="#000000" font-family="sans-serif" font-size="12" lengthAdjust="spacingAndGlyphs" textLength="25" x="312.5" y="30.457">Web</text><!--link ilol8218 to i--><path d="M236.024,18.075 C238.968,29.784 247.817,64.983 256.813,100.766 " fill="none" id="ilol8218-i" style="stroke: #A80036; stroke-width: 1.0;"/><!--link ilol8221 to i--><path d="M280,18.075 C280,29.784 280,64.983 280,100.766 " fill="none" id="ilol8221-i" style="stroke: #A80036; stroke-width: 1.0;"/><!--link ilol8224 to i--><path d="M323.976,18.075 C321.032,29.784 312.183,64.983 303.187,100.766 " fill="none" id="ilol8224-i" style="stroke: #A80036; stroke-width: 1.0;"/><!--link CloudType to Cloud--><path d="M107.572,243.58 C117.625,259.65 130.817,276.172 147,287 C171.922,303.675 384.345,329.265 411,343 C427.41,351.456 442.89,364.596 455.335,377.007 " fill="none" id="CloudType-Cloud" style="stroke: #A80036; stroke-width: 1.0;"/><polygon fill="#A80036" points="464.626,386.7,461.287,377.4344,461.1665,383.09,455.511,382.9695,464.626,386.7" style="stroke: #A80036; stroke-width: 1.0;"/><line style="stroke: #A80036; stroke-width: 1.0;" x1="461.1665" x2="455.631" y1="383.09" y2="377.315"/><polygon fill="#FFFFFF" points="100.8086,232.046,100.3928,239.2451,106.8783,242.3978,107.294,235.1987,100.8086,232.046" style="stroke: #A80036; stroke-width: 1.0;"/><text fill="#000000" font-family="sans-serif" font-size="13" lengthAdjust="spacingAndGlyphs" textLength="38" x="381" y="331.4951">clouds</text><text fill="#000000" font-family="sans-serif" font-size="13" lengthAdjust="spacingAndGlyphs" textLength="7" x="451.7645" y="375.9633">n</text><!--link CloudType to ResourceMap--><path d="M70.3194,245.025 C65.333,272.54 63.4004,306.728 75,335 C80.4222,348.216 89.4226,360.348 99.3135,370.827 " fill="none" id="CloudType-ResourceMap" style="stroke: #A80036; stroke-width: 1.0;"/><polygon fill="#A80036" points="108.57,379.971,104.978,370.8005,105.0128,376.4573,99.3561,376.492,108.57,379.971" style="stroke: #A80036; stroke-width: 1.0;"/><line style="stroke: #A80036; stroke-width: 1.0;" x1="105.0128" x2="99.3214" y1="376.4573" y2="370.835"/><polygon fill="#A80036" points="72.9667,232.11,67.843,237.1842,70.5562,243.8654,75.6799,238.7912,72.9667,232.11" style="stroke: #A80036; stroke-width: 1.0;"/><text fill="#000000" font-family="sans-serif" font-size="13" lengthAdjust="spacingAndGlyphs" textLength="57" x="76" y="331.4951">assetmap</text><text fill="#000000" font-family="sans-serif" font-size="13" lengthAdjust="spacingAndGlyphs" textLength="7" x="91.9606" y="368.9849">n</text><!--link CloudType to ResourceMap--><path d="M109.735,244.05 C120.102,265.84 131.194,292.14 138,317 C142.35,332.888 144.979,350.768 146.569,366.574 " fill="none" id="CloudType-ResourceMap-1" style="stroke: #A80036; stroke-width: 1.0;"/><polygon fill="#A80036" points="147.716,379.828,150.9257,370.5168,147.2852,374.8466,142.9555,371.2061,147.716,379.828" style="stroke: #A80036; stroke-width: 1.0;"/><line style="stroke: #A80036; stroke-width: 1.0;" x1="147.2852" x2="146.595" y1="374.8466" y2="366.876"/><polygon fill="#A80036" points="103.9188,232.117,102.9519,239.263,109.1764,242.9039,110.1432,235.7579,103.9188,232.117" style="stroke: #A80036; stroke-width: 1.0;"/><text fill="#000000" font-family="sans-serif" font-size="13" lengthAdjust="spacingAndGlyphs" textLength="61" x="144" y="331.4951">metricmap</text><text fill="#000000" font-family="sans-serif" font-size="13" lengthAdjust="spacingAndGlyphs" textLength="7" x="139.7293" y="369.2971">n</text><!--link CloudType to ResourceInstanceType--><path d="M110.218,243.732 C120.2,259.034 132.672,275.037 147,287 C172.045,307.91 192.822,292.181 214,317 C259.649,370.498 271.449,453.749 274.025,506.804 " fill="none" id="CloudType-ResourceInstanceType" style="stroke: #A80036; stroke-width: 1.0;"/><polygon fill="#A80036" points="274.504,519.933,278.173,510.7931,274.3216,514.9363,270.1783,511.0849,274.504,519.933" style="stroke: #A80036; stroke-width: 1.0;"/><line style="stroke: #A80036; stroke-width: 1.0;" x1="274.3216" x2="274.03" y1="514.9363" y2="506.941"/><polygon fill="#A80036" points="103.0809,232.245,102.8499,239.4524,109.4141,242.4377,109.6451,235.2303,103.0809,232.245" style="stroke: #A80036; stroke-width: 1.0;"/><text fill="#000000" font-family="sans-serif" font-size="13" lengthAdjust="spacingAndGlyphs" textLength="81" x="271" y="416.4951">instancetypes</text><text fill="#000000" font-family="sans-serif" font-size="13" lengthAdjust="spacingAndGlyphs" textLength="7" x="266.9703" y="509.283">n</text><!--link ResourceCost to ResourceInstanceType--><path d="M274,661.932 C274,644.78 274,626.093 274,609.406 " fill="none" id="ResourceCost-ResourceInstanceType" style="stroke: #A80036; stroke-width: 1.0;"/><polygon fill="#A80036" points="274,596.109,270,605.109,274,601.109,278,605.109,274,596.109" style="stroke: #A80036; stroke-width: 1.0;"/><line style="stroke: #A80036; stroke-width: 1.0;" x1="274" x2="274" y1="601.109" y2="609.109"/><polygon fill="#FFFFFF" points="274,674.988,278,668.988,274,662.988,270,668.988,274,674.988" style="stroke: #A80036; stroke-width: 1.0;"/><text fill="#000000" font-family="sans-serif" font-size="13" lengthAdjust="spacingAndGlyphs" textLength="36" x="275" y="640.4951">parent</text><text fill="#000000" font-family="sans-serif" font-size="13" lengthAdjust="spacingAndGlyphs" textLength="7" x="266.4203" y="617.2972">1</text><!--link ResourceInstanceType to ResourceCost--><path d="M239.162,607.916 C236.253,613.797 233.757,619.89 232,626 C228.512,638.131 230.219,650.714 234.499,662.556 " fill="none" id="ResourceInstanceType-ResourceCost" style="stroke: #A80036; stroke-width: 1.0;"/><polygon fill="#A80036" points="239.782,674.58,239.8246,664.7312,237.7711,670.0022,232.5001,667.9487,239.782,674.58" style="stroke: #A80036; stroke-width: 1.0;"/><line style="stroke: #A80036; stroke-width: 1.0;" x1="237.7711" x2="234.553" y1="670.0022" y2="662.678"/><polygon fill="#A80036" points="245.613,596.204,239.2147,599.53,239.824,606.7153,246.2222,603.3893,245.613,596.204" style="stroke: #A80036; stroke-width: 1.0;"/><text fill="#000000" font-family="sans-serif" font-size="13" lengthAdjust="spacingAndGlyphs" textLength="32" x="233" y="640.4951">costs</text><text fill="#000000" font-family="sans-serif" font-size="13" lengthAdjust="spacingAndGlyphs" textLength="7" x="227.2422" y="664.291">n</text><!--link ResourceInstanceType to PhysicalProfile--><path d="M339.599,603.374 C362.247,618.735 387.763,636.088 411,652 C428.288,663.838 447.262,676.923 463.808,688.364 " fill="none" id="ResourceInstanceType-PhysicalProfile" style="stroke: #A80036; stroke-width: 1.0;"/><polygon fill="#A80036" points="474.824,695.987,469.6992,687.5765,470.7124,693.1419,465.147,694.1551,474.824,695.987" style="stroke: #A80036; stroke-width: 1.0;"/><line style="stroke: #A80036; stroke-width: 1.0;" x1="470.7124" x2="464.134" y1="693.1419" y2="688.5895"/><polygon fill="#A80036" points="328.735,596.008,331.4569,602.6857,338.6678,602.7415,335.9459,596.0638,328.735,596.008" style="stroke: #A80036; stroke-width: 1.0;"/><text fill="#000000" font-family="sans-serif" font-size="13" lengthAdjust="spacingAndGlyphs" textLength="34" x="397" y="640.4951">profile</text><text fill="#000000" font-family="sans-serif" font-size="13" lengthAdjust="spacingAndGlyphs" textLength="7" x="458.4258" y="685.3238">1</text><!--link ResourceMap to ResourceInstanceType--><path d="M183.502,452.023 C198.905,469.89 217.168,491.075 233.24,509.718 " fill="none" id="ResourceMap-ResourceInstanceType" style="stroke: #A80036; stroke-width: 1.0;"/><polygon fill="#A80036" points="241.911,519.777,239.0644,510.3485,238.6464,515.9899,233.005,515.5719,241.911,519.777" style="stroke: #A80036; stroke-width: 1.0;"/><line style="stroke: #A80036; stroke-width: 1.0;" x1="238.6464" x2="233.4225" y1="515.9899" y2="509.93"/><polygon fill="#FFFFFF" points="174.9,442.044,175.7873,449.2003,182.7343,451.1337,181.8471,443.9774,174.9,442.044" style="stroke: #A80036; stroke-width: 1.0;"/><text fill="#000000" font-family="sans-serif" font-size="13" lengthAdjust="spacingAndGlyphs" textLength="29" x="217" y="486.4951">value</text><text fill="#000000" font-family="sans-serif" font-size="13" lengthAdjust="spacingAndGlyphs" textLength="7" x="228.5717" y="509.0992">1</text><!--
@startuml


package "Software Defined Infrastructure" #lightyellow {
    
        class Cloud {
        }
    }

package "Cloud Broker" #lightgreen {
    
        class ResourceMap {
        }
    
        class ResourceInstanceType {
        }
    
        class ResourceCost {
        }
    }

package "Common Physical Layer" #lightgray {
    
        class PhysicalProfile {
        }
    }


package "Cloud Broker" #lightgreen {

    interface "Cloud Broker" as i {
            /edgemere/sml/cb/billing/list()
            /edgemere/sml/cb/data/govern()
            /edgemere/sml/cb/multicloud/addclouds()
            /edgemere/sml/cb/multicloud/addpolicies()
            /edgemere/sml/cb/multicloud/list()
            /edgemere/sml/cb/multicloud/mapresources()
            /edgemere/sml/cb/multicloud/removepolicies()
            /edgemere/sml/cb/resourceinstancetype/list()
            /edgemere/sml/cb/resources/find()
            /edgemere/sml/cb/service/mapresources()
    
    }
}

CLI ()- - i
REST ()- - i
Web ()- - i

package "Cloud Broker" #lightgreen {
        class "CloudType" {
                 string name
                             create()
            }
                CloudType o- -> "n" Cloud : clouds
                        CloudType *- -> "n" ResourceMap : assetmap
                        CloudType *- -> "n" ResourceInstanceType : instancetypes
                        CloudType *- -> "n" ResourceMap : metricmap
            
    
    class "ResourceCost" {
                 string name
                 number amount
                 string units
                    }
                ResourceCost o- -> "1" ResourceInstanceType : parent
            
    
    class "ResourceInstanceType" {
                 string name
                 string type
                    }
                ResourceInstanceType *- -> "1" PhysicalProfile : profile
                        ResourceInstanceType *- -> "n" ResourceCost : costs
            
    
    class "ResourceMap" {
                 string name
                    }
                ResourceMap o- -> "1" ResourceInstanceType : value
            
    

}



@enduml

PlantUML version 1.2019.05(Sat Apr 20 09:45:36 PDT 2019)
(GPL source distribution)
Java Runtime: OpenJDK Runtime Environment
JVM: OpenJDK 64-Bit Server VM
Java Version: 12.0.1+12
Operating System: Windows 10
OS Version: 10.0
Default Encoding: Cp1252
Language: en
Country: US
--></g></svg>