<?xml version="1.0" encoding="UTF-8" standalone="no"?><svg xmlns="http://www.w3.org/2000/svg" xmlns:xlink="http://www.w3.org/1999/xlink" contentScriptType="application/ecmascript" contentStyleType="text/css" height="337px" preserveAspectRatio="none" style="width:705px;height:337px;" version="1.1" viewBox="0 0 705 337" width="705px" zoomAndPan="magnify"><defs><filter height="300%" id="f119ym83fh819g" width="300%" x="-1" y="-1"><feGaussianBlur result="blurOut" stdDeviation="2.0"/><feColorMatrix in="blurOut" result="blurOut2" type="matrix" values="0 0 0 0 0 0 0 0 0 0 0 0 0 0 0 0 0 0 .4 0"/><feOffset dx="4.0" dy="4.0" in="blurOut2" result="blurOut3"/><feBlend in="SourceGraphic" in2="blurOut3" mode="normal"/></filter></defs><g><!--cluster Cloud Broker--><polygon fill="#90EE90" filter="url(#f119ym83fh819g)" points="421,87,520,87,527,110.6094,683,110.6094,683,325,421,325,421,87" style="stroke: #000000; stroke-width: 1.5;"/><line style="stroke: #000000; stroke-width: 1.5;" x1="421" x2="527" y1="110.6094" y2="110.6094"/><text fill="#000000" font-family="sans-serif" font-size="14" font-weight="bold" lengthAdjust="spacingAndGlyphs" textLength="93" x="425" y="103.5332">Cloud Broker</text><polygon fill="#FFFFE0" filter="url(#f119ym83fh819g)" points="6,8,234,8,241,31.6094,248,31.6094,248,63.2188,6,63.2188,6,8" style="stroke: #000000; stroke-width: 1.5;"/><line style="stroke: #000000; stroke-width: 1.5;" x1="6" x2="241" y1="31.6094" y2="31.6094"/><text fill="#000000" font-family="sans-serif" font-size="14" font-weight="bold" lengthAdjust="spacingAndGlyphs" textLength="222" x="10" y="24.5332">Software Defined Infrastructure</text><!--class i--><rect fill="#FEFECE" filter="url(#f119ym83fh819g)" height="186.3594" id="i" style="stroke: #A80036; stroke-width: 1.5;" width="230" x="437" y="123"/><ellipse cx="511.25" cy="139" fill="#B4A7E5" rx="11" ry="11" style="stroke: #A80036; stroke-width: 1.0;"/><path d="M512.2031,135.6406 L512.2031,142.2969 L513.9219,142.2969 Q514.5313,142.2969 514.7969,142.5313 Q515.0625,142.7656 515.0625,143.1563 Q515.0625,143.5313 514.7969,143.7656 Q514.5313,144 513.9219,144 L508.7813,144 Q508.1719,144 507.9063,143.7656 Q507.6406,143.5313 507.6406,143.1406 Q507.6406,142.7656 507.9063,142.5313 Q508.1719,142.2969 508.7813,142.2969 L510.5,142.2969 L510.5,135.6406 L508.7813,135.6406 Q508.1719,135.6406 507.9063,135.4063 Q507.6406,135.1719 507.6406,134.7813 Q507.6406,134.4063 507.9063,134.1719 Q508.1719,133.9375 508.7813,133.9375 L513.9219,133.9375 Q514.5313,133.9375 514.7969,134.1719 Q515.0625,134.4063 515.0625,134.7813 Q515.0625,135.1719 514.7969,135.4063 Q514.5313,135.6406 513.9219,135.6406 L512.2031,135.6406 Z "/><text fill="#000000" font-family="sans-serif" font-size="12" font-style="italic" lengthAdjust="spacingAndGlyphs" textLength="73" x="531.75" y="143.9102">Cloud Broker</text><line style="stroke: #A80036; stroke-width: 1.5;" x1="438" x2="666" y1="155" y2="155"/><line style="stroke: #A80036; stroke-width: 1.5;" x1="438" x2="666" y1="163" y2="163"/><text fill="#000000" font-family="sans-serif" font-size="11" lengthAdjust="spacingAndGlyphs" textLength="138" x="443" y="178.4189">/edgemere/sml/cb/billing/list()</text><text fill="#000000" font-family="sans-serif" font-size="11" lengthAdjust="spacingAndGlyphs" textLength="154" x="443" y="192.2549">/edgemere/sml/cb/data/govern()</text><text fill="#000000" font-family="sans-serif" font-size="11" lengthAdjust="spacingAndGlyphs" textLength="196" x="443" y="206.0908">/edgemere/sml/cb/multicloud/addclouds()</text><text fill="#000000" font-family="sans-serif" font-size="11" lengthAdjust="spacingAndGlyphs" textLength="200" x="443" y="219.9268">/edgemere/sml/cb/multicloud/addpolicies()</text><text fill="#000000" font-family="sans-serif" font-size="11" lengthAdjust="spacingAndGlyphs" textLength="159" x="443" y="233.7627">/edgemere/sml/cb/multicloud/list()</text><text fill="#000000" font-family="sans-serif" font-size="11" lengthAdjust="spacingAndGlyphs" textLength="216" x="443" y="247.5986">/edgemere/sml/cb/multicloud/mapresources()</text><text fill="#000000" font-family="sans-serif" font-size="11" lengthAdjust="spacingAndGlyphs" textLength="218" x="443" y="261.4346">/edgemere/sml/cb/multicloud/removepolicies()</text><text fill="#000000" font-family="sans-serif" font-size="11" lengthAdjust="spacingAndGlyphs" textLength="218" x="443" y="275.2705">/edgemere/sml/cb/resourceinstancetype/list()</text><text fill="#000000" font-family="sans-serif" font-size="11" lengthAdjust="spacingAndGlyphs" textLength="167" x="443" y="289.1064">/edgemere/sml/cb/resources/find()</text><text fill="#000000" font-family="sans-serif" font-size="11" lengthAdjust="spacingAndGlyphs" textLength="205" x="443" y="302.9424">/edgemere/sml/cb/service/mapresources()</text><polygon fill="#D3D3D3" filter="url(#f119ym83fh819g)" points="283,8,453,8,460,31.6094,467,31.6094,467,63.2188,283,63.2188,283,8" style="stroke: #000000; stroke-width: 1.5;"/><line style="stroke: #000000; stroke-width: 1.5;" x1="283" x2="460" y1="31.6094" y2="31.6094"/><text fill="#000000" font-family="sans-serif" font-size="14" font-weight="bold" lengthAdjust="spacingAndGlyphs" textLength="164" x="287" y="24.5332">Common Physical Layer</text><ellipse cx="507" cy="35.5" fill="#FEFECE" filter="url(#f119ym83fh819g)" rx="5" ry="5" style="stroke: #A80036; stroke-width: 1.5;"/><text fill="#000000" font-family="sans-serif" font-size="12" lengthAdjust="spacingAndGlyphs" textLength="19" x="497.5" y="52.957">CLI</text><ellipse cx="552" cy="35.5" fill="#FEFECE" filter="url(#f119ym83fh819g)" rx="5" ry="5" style="stroke: #A80036; stroke-width: 1.5;"/><text fill="#000000" font-family="sans-serif" font-size="12" lengthAdjust="spacingAndGlyphs" textLength="32" x="536" y="52.957">REST</text><ellipse cx="597" cy="35.5" fill="#FEFECE" filter="url(#f119ym83fh819g)" rx="5" ry="5" style="stroke: #A80036; stroke-width: 1.5;"/><text fill="#000000" font-family="sans-serif" font-size="12" lengthAdjust="spacingAndGlyphs" textLength="25" x="584.5" y="52.957">Web</text><!--link ilol8337 to i--><path d="M508.024,40.564 C510.955,52.188 519.738,87.029 528.693,122.548 " fill="none" id="ilol8337-i" style="stroke: #A80036; stroke-width: 1.0;"/><!--link ilol8340 to i--><path d="M552,40.564 C552,52.188 552,87.029 552,122.548 " fill="none" id="ilol8340-i" style="stroke: #A80036; stroke-width: 1.0;"/><!--link ilol8343 to i--><path d="M595.976,40.564 C593.045,52.188 584.262,87.029 575.307,122.548 " fill="none" id="ilol8343-i" style="stroke: #A80036; stroke-width: 1.0;"/><!--
@startuml


package "Software Defined Infrastructure" #lightyellow {

}

package "Cloud Broker" #lightgreen {

}

package "Common Physical Layer" #lightgray {

}


package "Cloud Broker" #lightgreen {

    interface "Cloud Broker" as i {
            /edgemere/sml/cb/billing/list()
            /edgemere/sml/cb/data/govern()
            /edgemere/sml/cb/multicloud/addclouds()
            /edgemere/sml/cb/multicloud/addpolicies()
            /edgemere/sml/cb/multicloud/list()
            /edgemere/sml/cb/multicloud/mapresources()
            /edgemere/sml/cb/multicloud/removepolicies()
            /edgemere/sml/cb/resourceinstancetype/list()
            /edgemere/sml/cb/resources/find()
            /edgemere/sml/cb/service/mapresources()
    
    }
}

CLI ()- - i
REST ()- - i
Web ()- - i

package "Cloud Broker" #lightgreen {


}



@enduml

PlantUML version 1.2019.05(Sat Apr 20 09:45:36 PDT 2019)
(GPL source distribution)
Java Runtime: OpenJDK Runtime Environment
JVM: OpenJDK 64-Bit Server VM
Java Version: 12.0.1+12
Operating System: Windows 10
OS Version: 10.0
Default Encoding: Cp1252
Language: en
Country: US
--></g></svg>