<?xml version="1.0" encoding="UTF-8" standalone="no"?><svg xmlns="http://www.w3.org/2000/svg" xmlns:xlink="http://www.w3.org/1999/xlink" contentScriptType="application/ecmascript" contentStyleType="text/css" height="206px" preserveAspectRatio="none" style="width:253px;height:206px;" version="1.1" viewBox="0 0 253 206" width="253px" zoomAndPan="magnify"><defs><filter height="300%" id="f5flua3qgsqb7" width="300%" x="-1" y="-1"><feGaussianBlur result="blurOut" stdDeviation="2.0"/><feColorMatrix in="blurOut" result="blurOut2" type="matrix" values="0 0 0 0 0 0 0 0 0 0 0 0 0 0 0 0 0 0 .4 0"/><feOffset dx="4.0" dy="4.0" in="blurOut2" result="blurOut3"/><feBlend in="SourceGraphic" in2="blurOut3" mode="normal"/></filter></defs><g><ellipse cx="116.6904" cy="174.4381" fill="#FEFECE" filter="url(#f5flua3qgsqb7)" rx="95.1904" ry="21.4381" style="stroke: #A80036; stroke-width: 1.5;"/><text fill="#000000" font-family="sans-serif" font-size="14" lengthAdjust="spacingAndGlyphs" textLength="162" x="35.6904" y="179.7428">Manage Data Procedures</text><!--entity DataEngineer--><ellipse cx="49.5" cy="18" fill="#FEFECE" filter="url(#f5flua3qgsqb7)" rx="8" ry="8" style="stroke: #A80036; stroke-width: 2.0;"/><path d="M49.5,26 L49.5,53 M36.5,34 L62.5,34 M49.5,53 L36.5,68 M49.5,53 L62.5,68 " fill="none" filter="url(#f5flua3qgsqb7)" style="stroke: #A80036; stroke-width: 2.0;"/><text fill="#000000" font-family="sans-serif" font-size="14" lengthAdjust="spacingAndGlyphs" textLength="87" x="6" y="89.5332">DataEngineer</text><!--entity ChiefDataOfficer--><ellipse cx="184.5" cy="18" fill="#FEFECE" filter="url(#f5flua3qgsqb7)" rx="8" ry="8" style="stroke: #A80036; stroke-width: 2.0;"/><path d="M184.5,26 L184.5,53 M171.5,34 L197.5,34 M184.5,53 L171.5,68 M184.5,53 L197.5,68 " fill="none" filter="url(#f5flua3qgsqb7)" style="stroke: #A80036; stroke-width: 2.0;"/><text fill="#000000" font-family="sans-serif" font-size="14" lengthAdjust="spacingAndGlyphs" textLength="113" x="128" y="89.5332">Chief Data Officer</text><!--link DataEngineer to ManageDataProcedures--><path d="M72.3702,93.144 C82.4019,111.4109 93.8523,132.2608 102.5751,148.1442 " fill="none" id="DataEngineer-ManageDataProcedures" style="stroke: #A80036; stroke-width: 1.0;"/><polygon fill="#A80036" points="105.19,152.9057,104.3637,143.0916,102.7831,148.5231,97.3516,146.9425,105.19,152.9057" style="stroke: #A80036; stroke-width: 1.0;"/><!--link ChiefDataOfficer to ManageDataProcedures--><path d="M161.288,93.144 C151.107,111.4109 139.486,132.2608 130.633,148.1442 " fill="none" id="ChiefDataOfficer-ManageDataProcedures" style="stroke: #A80036; stroke-width: 1.0;"/><polygon fill="#A80036" points="127.979,152.9057,135.8548,146.992,130.4134,148.5384,128.867,143.097,127.979,152.9057" style="stroke: #A80036; stroke-width: 1.0;"/><!--
@startuml


usecase "Manage Data Procedures" as ManageDataProcedures

Actor "DataEngineer" as DataEngineer

DataEngineer - -> ManageDataProcedures

Actor "Chief Data Officer" as ChiefDataOfficer

ChiefDataOfficer - -> ManageDataProcedures



@enduml

PlantUML version 1.2019.05(Sat Apr 20 09:45:36 PDT 2019)
(GPL source distribution)
Java Runtime: OpenJDK Runtime Environment
JVM: OpenJDK 64-Bit Server VM
Java Version: 12.0.1+12
Operating System: Windows 10
OS Version: 10.0
Default Encoding: Cp1252
Language: en
Country: US
--></g></svg>