<?xml version="1.0" encoding="UTF-8" standalone="no"?><svg xmlns="http://www.w3.org/2000/svg" xmlns:xlink="http://www.w3.org/1999/xlink" contentScriptType="application/ecmascript" contentStyleType="text/css" height="510px" preserveAspectRatio="none" style="width:1233px;height:510px;" version="1.1" viewBox="0 0 1233 510" width="1233px" zoomAndPan="magnify"><defs><filter height="300%" id="fv3866qm2p74q" width="300%" x="-1" y="-1"><feGaussianBlur result="blurOut" stdDeviation="2.0"/><feColorMatrix in="blurOut" result="blurOut2" type="matrix" values="0 0 0 0 0 0 0 0 0 0 0 0 0 0 0 0 0 0 .4 0"/><feOffset dx="4.0" dy="4.0" in="blurOut2" result="blurOut3"/><feBlend in="SourceGraphic" in2="blurOut3" mode="normal"/></filter></defs><g><!--cluster edgemereStack--><rect fill="#E6E6FA" filter="url(#fv3866qm2p74q)" height="115" style="stroke: #000000; stroke-width: 1.5;" width="114" x="1108" y="292"/><text fill="#000000" font-family="sans-serif" font-size="14" font-weight="bold" lengthAdjust="spacingAndGlyphs" textLength="72" x="1129" y="308.5332">edgemere</text><!--cluster edgemere--><polygon fill="#E6E6FA" filter="url(#fv3866qm2p74q)" points="214,48,292,48,299,71.6094,1076,71.6094,1076,434,214,434,214,48" style="stroke: #000000; stroke-width: 1.5;"/><line style="stroke: #000000; stroke-width: 1.5;" x1="214" x2="299" y1="71.6094" y2="71.6094"/><text fill="#000000" font-family="sans-serif" font-size="14" font-weight="bold" lengthAdjust="spacingAndGlyphs" textLength="72" x="218" y="64.5332">edgemere</text><!--cluster frontendService--><polygon fill="#E6E6FA" filter="url(#fv3866qm2p74q)" points="246,110,256,100,383,100,383,265,373,275,246,275,246,110" style="stroke: #000000; stroke-width: 1.5;"/><line style="stroke: #000000; stroke-width: 1.5;" x1="373" x2="382" y1="110" y2="101"/><line style="stroke: #000000; stroke-width: 1.5;" x1="246" x2="373" y1="110" y2="110"/><line style="stroke: #000000; stroke-width: 1.5;" x1="373" x2="373" y1="110" y2="275"/><text fill="#000000" font-family="sans-serif" font-size="14" font-weight="bold" lengthAdjust="spacingAndGlyphs" textLength="61" x="280" y="127.5332">frontend</text><!--entity edgemereStacksnet--><path d="M1137,336 L1193,336 C1198,336 1198,349.8047 1198,349.8047 C1198,349.8047 1198,363.6094 1193,363.6094 L1137,363.6094 C1132,363.6094 1132,349.8047 1132,349.8047 C1132,349.8047 1132,336 1137,336 " fill="#000000" filter="url(#fv3866qm2p74q)" style="stroke: #A80036; stroke-width: 1.5;"/><path d="M1193,336 C1188,336 1188,349.8047 1188,349.8047 C1188,363.6094 1193,363.6094 1193,363.6094 " fill="none" style="stroke: #A80036; stroke-width: 1.5;"/><text fill="#FFFFFF" font-family="sans-serif" font-size="14" font-weight="bold" lengthAdjust="spacingAndGlyphs" textLength="46" x="1137" y="355.5332">parent</text><!--entity childrennet--><path d="M595,335 L663,335 C668,335 668,348.8047 668,348.8047 C668,348.8047 668,362.6094 663,362.6094 L595,362.6094 C590,362.6094 590,348.8047 590,348.8047 C590,348.8047 590,335 595,335 " fill="#000000" filter="url(#fv3866qm2p74q)" style="stroke: #A80036; stroke-width: 1.5;"/><path d="M663,335 C658,335 658,348.8047 658,348.8047 C658,362.6094 663,362.6094 663,362.6094 " fill="none" style="stroke: #A80036; stroke-width: 1.5;"/><text fill="#FFFFFF" font-family="sans-serif" font-size="14" font-weight="bold" lengthAdjust="spacingAndGlyphs" textLength="58" x="595" y="354.5332">children</text><!--entity siblingnet--><path d="M600.5,235 L657.5,235 C662.5,235 662.5,248.8047 662.5,248.8047 C662.5,248.8047 662.5,262.6094 657.5,262.6094 L600.5,262.6094 C595.5,262.6094 595.5,248.8047 595.5,248.8047 C595.5,248.8047 595.5,235 600.5,235 " fill="#0000FF" filter="url(#fv3866qm2p74q)" style="stroke: #A80036; stroke-width: 1.5;"/><path d="M657.5,235 C652.5,235 652.5,248.8047 652.5,248.8047 C652.5,262.6094 657.5,262.6094 657.5,262.6094 " fill="none" style="stroke: #A80036; stroke-width: 1.5;"/><text fill="#FFFFFF" font-family="sans-serif" font-size="14" font-weight="bold" lengthAdjust="spacingAndGlyphs" textLength="47" x="600.5" y="254.5332">sibling</text><!--entity adminService--><polygon fill="#FEFECE" filter="url(#fv3866qm2p74q)" points="447.5,380,457.5,370,525.5,370,525.5,407.6094,515.5,417.6094,447.5,417.6094,447.5,380" style="stroke: #000000; stroke-width: 1.5;"/><line style="stroke: #000000; stroke-width: 1.5;" x1="515.5" x2="524.5" y1="380" y2="371"/><line style="stroke: #000000; stroke-width: 1.5;" x1="447.5" x2="515.5" y1="380" y2="380"/><line style="stroke: #000000; stroke-width: 1.5;" x1="515.5" x2="515.5" y1="380" y2="417.6094"/><text fill="#000000" font-family="sans-serif" font-size="14" lengthAdjust="spacingAndGlyphs" textLength="38" x="462.5" y="404.5332">admin</text><!--entity pubsubService--><polygon fill="#FEFECE" filter="url(#fv3866qm2p74q)" points="443,297,453,287,530,287,530,324.6094,520,334.6094,443,334.6094,443,297" style="stroke: #000000; stroke-width: 1.5;"/><line style="stroke: #000000; stroke-width: 1.5;" x1="520" x2="529" y1="297" y2="288"/><line style="stroke: #000000; stroke-width: 1.5;" x1="443" x2="520" y1="297" y2="297"/><line style="stroke: #000000; stroke-width: 1.5;" x1="520" x2="520" y1="297" y2="334.6094"/><text fill="#000000" font-family="sans-serif" font-size="14" lengthAdjust="spacingAndGlyphs" textLength="47" x="458" y="321.5332">pubsub</text><!--entity webService--><polygon fill="#FEFECE" filter="url(#fv3866qm2p74q)" points="454,214,464,204,519,204,519,241.6094,509,251.6094,454,251.6094,454,214" style="stroke: #000000; stroke-width: 1.5;"/><line style="stroke: #000000; stroke-width: 1.5;" x1="509" x2="518" y1="214" y2="205"/><line style="stroke: #000000; stroke-width: 1.5;" x1="454" x2="509" y1="214" y2="214"/><line style="stroke: #000000; stroke-width: 1.5;" x1="509" x2="509" y1="214" y2="251.6094"/><text fill="#000000" font-family="sans-serif" font-size="14" lengthAdjust="spacingAndGlyphs" textLength="25" x="469" y="238.5332">web</text><!--entity docService--><polygon fill="#FEFECE" filter="url(#fv3866qm2p74q)" points="455,131,465,121,518,121,518,158.6094,508,168.6094,455,168.6094,455,131" style="stroke: #000000; stroke-width: 1.5;"/><line style="stroke: #000000; stroke-width: 1.5;" x1="508" x2="517" y1="131" y2="122"/><line style="stroke: #000000; stroke-width: 1.5;" x1="455" x2="508" y1="131" y2="131"/><line style="stroke: #000000; stroke-width: 1.5;" x1="508" x2="508" y1="131" y2="168.6094"/><text fill="#000000" font-family="sans-serif" font-size="14" lengthAdjust="spacingAndGlyphs" textLength="23" x="470" y="155.5332">doc</text><!--entity edgemerelatestimage--><rect fill="#FEFECE" filter="url(#fv3866qm2p74q)" height="33.6094" style="stroke: #000000; stroke-width: 1.5;" width="118" x="939.5" y="384"/><rect fill="#FEFECE" height="33.6094" style="stroke: #000000; stroke-width: 1.5;" width="118" x="935.5" y="380"/><text fill="#000000" font-family="sans-serif" font-size="14" lengthAdjust="spacingAndGlyphs" textLength="102" x="943.5" y="402.5332">edgemere:latest</text><!--entity redisimage--><rect fill="#FEFECE" filter="url(#fv3866qm2p74q)" height="40.6094" style="stroke: #000000; stroke-width: 1.5;" width="61" x="966" y="278.5"/><polygon fill="#FEFECE" points="1010,283.5,1010,297.5,1022,297.5,1022,289.5,1016,283.5,1010,283.5" style="stroke: #000000; stroke-width: 1.5;"/><line style="stroke: #000000; stroke-width: 1.5;" x1="1016" x2="1016" y1="283.5" y2="289.5"/><line style="stroke: #000000; stroke-width: 1.5;" x1="1022" x2="1016" y1="289.5" y2="289.5"/><text fill="#000000" font-family="sans-serif" font-size="14" lengthAdjust="spacingAndGlyphs" textLength="31" x="976" y="306.0332">redis</text><!--entity traefiklatestimage--><rect fill="#FEFECE" filter="url(#fv3866qm2p74q)" height="40.6094" style="stroke: #000000; stroke-width: 1.5;" width="107" x="747" y="84.5"/><polygon fill="#FEFECE" points="837,89.5,837,103.5,849,103.5,849,95.5,843,89.5,837,89.5" style="stroke: #000000; stroke-width: 1.5;"/><line style="stroke: #000000; stroke-width: 1.5;" x1="843" x2="843" y1="89.5" y2="95.5"/><line style="stroke: #000000; stroke-width: 1.5;" x1="849" x2="843" y1="95.5" y2="95.5"/><text fill="#000000" font-family="sans-serif" font-size="14" lengthAdjust="spacingAndGlyphs" textLength="77" x="757" y="112.0332">traefik:latest</text><!--entity edgemere_webimage--><rect fill="#FEFECE" filter="url(#fv3866qm2p74q)" height="40.6094" style="stroke: #000000; stroke-width: 1.5;" width="127" x="933" y="190.5"/><polygon fill="#FEFECE" points="1043,195.5,1043,209.5,1055,209.5,1055,201.5,1049,195.5,1043,195.5" style="stroke: #000000; stroke-width: 1.5;"/><line style="stroke: #000000; stroke-width: 1.5;" x1="1049" x2="1049" y1="195.5" y2="201.5"/><line style="stroke: #000000; stroke-width: 1.5;" x1="1055" x2="1049" y1="201.5" y2="201.5"/><text fill="#000000" font-family="sans-serif" font-size="14" lengthAdjust="spacingAndGlyphs" textLength="97" x="943" y="218.0332">edgemere_web</text><!--entity edgemere_docimage--><rect fill="#FEFECE" filter="url(#fv3866qm2p74q)" height="40.6094" style="stroke: #000000; stroke-width: 1.5;" width="125" x="934" y="114.5"/><polygon fill="#FEFECE" points="1042,119.5,1042,133.5,1054,133.5,1054,125.5,1048,119.5,1042,119.5" style="stroke: #000000; stroke-width: 1.5;"/><line style="stroke: #000000; stroke-width: 1.5;" x1="1048" x2="1048" y1="119.5" y2="125.5"/><line style="stroke: #000000; stroke-width: 1.5;" x1="1054" x2="1048" y1="125.5" y2="125.5"/><text fill="#000000" font-family="sans-serif" font-size="14" lengthAdjust="spacingAndGlyphs" textLength="95" x="944" y="142.0332">edgemere_doc</text><!--entity webmap--><rect fill="#FEFECE" filter="url(#fv3866qm2p74q)" height="23.6094" style="stroke: #000000; stroke-width: 1.5;" width="49" x="289.5" y="227"/><text fill="#000000" font-family="sans-serif" font-size="14" lengthAdjust="spacingAndGlyphs" textLength="29" x="299.5" y="244.5332">/web</text><!--entity docsmap--><rect fill="#FEFECE" filter="url(#fv3866qm2p74q)" height="23.6094" style="stroke: #000000; stroke-width: 1.5;" width="54" x="287" y="168"/><text fill="#000000" font-family="sans-serif" font-size="14" lengthAdjust="spacingAndGlyphs" textLength="34" x="297" y="185.5332">/docs</text><!--entity external--><path d="M125,119 L193,119 C198,119 198,132.8047 198,132.8047 C198,132.8047 198,146.6094 193,146.6094 L125,146.6094 C120,146.6094 120,132.8047 120,132.8047 C120,132.8047 120,119 125,119 " fill="#000000" filter="url(#fv3866qm2p74q)" style="stroke: #A80036; stroke-width: 1.5;"/><path d="M193,119 C188,119 188,132.8047 188,132.8047 C188,146.6094 193,146.6094 193,146.6094 " fill="none" style="stroke: #A80036; stroke-width: 1.5;"/><text fill="#FFFFFF" font-family="sans-serif" font-size="14" font-weight="bold" lengthAdjust="spacingAndGlyphs" textLength="58" x="125" y="138.5332">external</text><!--entity 80--><ellipse cx="33" cy="38" fill="#FEFECE" filter="url(#fv3866qm2p74q)" rx="8" ry="8" style="stroke: #A80036; stroke-width: 2.0;"/><text fill="#000000" font-family="sans-serif" font-size="14" lengthAdjust="spacingAndGlyphs" textLength="16" x="25" y="69.5332">80</text><!--entity 443--><ellipse cx="33" cy="133" fill="#FEFECE" filter="url(#fv3866qm2p74q)" rx="8" ry="8" style="stroke: #A80036; stroke-width: 2.0;"/><text fill="#000000" font-family="sans-serif" font-size="14" lengthAdjust="spacingAndGlyphs" textLength="24" x="21" y="164.5332">443</text><!--entity 8080--><ellipse cx="33" cy="228" fill="#FEFECE" filter="url(#fv3866qm2p74q)" rx="8" ry="8" style="stroke: #A80036; stroke-width: 2.0;"/><text fill="#000000" font-family="sans-serif" font-size="14" lengthAdjust="spacingAndGlyphs" textLength="32" x="17" y="259.5332">8080</text><!--entity ailtire_appname_family--><ellipse cx="800.5" cy="466" fill="#000000" filter="url(#fv3866qm2p74q)" rx="12" ry="12" style="stroke: #A80036; stroke-width: 2.0;"/><line style="stroke: #A80036; stroke-width: 2.0;" x1="788.5" x2="812.5" y1="480" y2="480"/><text fill="#000000" font-family="sans-serif" font-size="14" lengthAdjust="spacingAndGlyphs" textLength="145" x="728" y="496.5332">ailtire_appname_family</text><!--link 80 to external--><path d="M42.136,44.233 C61.7484,59.259 112.036,97.785 139.469,118.803 " fill="none" id="80-external" style="stroke: #A80036; stroke-width: 1.0;"/><!--link 443 to external--><path d="M42.136,133 C57.6535,133 92.3739,133 119.784,133 " fill="none" id="443-external" style="stroke: #A80036; stroke-width: 1.0;"/><!--link 8080 to external--><path d="M42.136,221.767 C61.7484,206.741 112.036,168.215 139.469,147.197 " fill="none" id="8080-external" style="stroke: #A80036; stroke-width: 1.0;"/><!--link childrennet to ailtire_appname_family--><path d="M644.528,363.204 C663.035,380.909 696.417,411.5688 728,434 C735.7,439.4686 744.182,444.8426 752.531,449.8074 " fill="none" id="childrennet-ailtire_appname_family" style="stroke: #000000; stroke-width: 1.0;"/><!--link external to frontendService--><path d="M198.214,133 C209.3663,133 221.9812,133 234.6635,133 C237.8341,133 241.0088,133 244.166,133 C244.5607,133 244.9551,133 245.3491,133 C245.5461,133 245.7431,133 245.94,133 " fill="none" id="external-frontendService" style="stroke: #000000; stroke-width: 1.0;"/><!--link webmap to webService--><path d="M338.707,237.47 C367.196,235.633 415.318,232.528 448.66,230.377 " fill="none" id="webmap-webService" style="stroke: #000000; stroke-width: 1.0;"/><polygon fill="#000000" points="453.88,230.04,444.6405,226.6296,448.8904,230.3629,445.1571,234.6129,453.88,230.04" style="stroke: #000000; stroke-width: 1.0;"/><!--link docsmap to docService--><path d="M341.145,175.215 C357.741,172.129 379.658,167.966 399,164 C415.645,160.587 434.038,156.581 449.568,153.129 " fill="none" id="docsmap-docService" style="stroke: #000000; stroke-width: 1.0;"/><polygon fill="#000000" points="454.719,151.981,445.0646,150.0337,449.8386,153.0682,446.8041,157.8423,454.719,151.981" style="stroke: #000000; stroke-width: 1.0;"/><!--link adminService to childrennet--><path d="M525.521,381.822 C545.513,375.419 569.952,367.592 589.948,361.187 " fill="none" id="adminService-childrennet" style="stroke: #000000; stroke-width: 1.0;"/><!--link pubsubService to childrennet--><path d="M530.036,322.504 C549.097,327.66 571.4,333.692 589.906,338.697 " fill="none" id="pubsubService-childrennet" style="stroke: #000000; stroke-width: 1.0;"/><!--link pubsubService to siblingnet--><path d="M530.036,292.23 C551.197,282.892 576.353,271.791 595.875,263.176 " fill="none" id="pubsubService-siblingnet" style="stroke: #0000FF; stroke-width: 1.0;"/><!--link webService to siblingnet--><path d="M519.031,232.713 C541.685,236.099 572.151,240.652 595.109,244.084 " fill="none" id="webService-siblingnet" style="stroke: #0000FF; stroke-width: 1.0;"/><!--link webService to childrennet--><path d="M515.595,252.195 C544.264,276.885 587.797,314.376 611.391,334.696 " fill="none" id="webService-childrennet" style="stroke: #000000; stroke-width: 1.0;"/><!--link docService to siblingnet--><path d="M518.333,167.823 C545.959,188.273 585.61,217.622 608.895,234.858 " fill="none" id="docService-siblingnet" style="stroke: #0000FF; stroke-width: 1.0;"/><!--link docService to childrennet--><path d="M514.193,169.36 C519.691,174.92 525.247,180.972 530,187 C550.759,213.328 600.664,300.567 620.082,334.922 " fill="none" id="docService-childrennet" style="stroke: #000000; stroke-width: 1.0;"/><!--link adminService to edgemerelatestimage--><path d="M525.683,394.376 C613.366,395.239 829.689,397.368 935.403,398.408 " fill="none" id="adminService-edgemerelatestimage" style="stroke: #A80036; stroke-width: 1.0; stroke-dasharray: 7.0,7.0;"/><!--link pubsubService to redisimage--><path d="M530.374,309.987 C630.959,307.611 880.06,301.727 965.882,299.7 " fill="none" id="pubsubService-redisimage" style="stroke: #A80036; stroke-width: 1.0; stroke-dasharray: 7.0,7.0;"/><!--link webService to edgemere_webimage--><path d="M519.307,224.235 C539.52,222.007 566.259,219.361 590,218 C711.258,211.05 853.217,210.288 932.922,210.53 " fill="none" id="webService-edgemere_webimage" style="stroke: #A80036; stroke-width: 1.0; stroke-dasharray: 7.0,7.0;"/><!--link docService to edgemere_docimage--><path d="M518.494,145.47 C583.979,146.323 741.234,147.64 873,143 C892.808,142.302 914.392,141.056 933.846,139.751 " fill="none" id="docService-edgemere_docimage" style="stroke: #A80036; stroke-width: 1.0; stroke-dasharray: 7.0,7.0;"/><!--link frontendService to traefiklatestimage--><path d="M383.1575,113.9624 C384.9027,113.5512 386.6628,113.143 388.4355,112.7389 C391.9808,111.9306 395.5764,111.1387 399.2031,110.3723 C413.7101,107.307 428.7158,104.6515 443,103 C550.289,90.595 676.955,96.031 746.731,100.749 " fill="none" id="frontendService-traefiklatestimage" style="stroke: #A80036; stroke-width: 1.0; stroke-dasharray: 7.0,7.0;"/><!--link edgemerelatestimage to edgemereStack--><path d="M1057.61,399 C1069.3475,399 1081.7512,399 1093.7825,399 C1096.7903,399 1099.7748,399 1102.7199,399 C1104.1924,399 1105.655,399 1107.1057,399 C1107.2871,399 1107.4682,399 1107.6492,399 " fill="none" id="edgemerelatestimage-edgemereStack" style="stroke: #A80036; stroke-width: 1.0;"/><polygon fill="#A80036" points="1107.6492,399,1098.6492,395,1102.6492,399,1098.6492,403,1107.6492,399" style="stroke: #A80036; stroke-width: 1.0;"/><!--
@startuml

left to right direction


queue external #black [
    <b><color:white>external</color></b>
]
    
interface 80
80 - - external
    
interface 443
443 - - external
    
interface 8080
8080 - - external
    


entity ailtire_appname_family #black

rectangle "edgemere" as edgemereStack #lavender {
    queue edgemereStacksnet #black [
        <b><color:white>parent</color></b>
    ]
}



package "edgemere" #lavender {
    queue childrennet #black [
            <b><color:white>children</color></b>
    ]
    
    childrennet -[#black]- ailtire_appname_family
    
    queue siblingnet #blue [
            <b><color:white>sibling</color></b>
    ]
    


node "frontend" as frontendService {
    card "/web" as webmap
    card "/docs" as docsmap
    
}
node "admin" as adminService
node "pubsub" as pubsubService
node "web" as webService
node "doc" as docService

        collections "edgemere:latest" as edgemerelatestimage
    
        artifact "redis" as redisimage
    
        artifact "traefik:latest" as traefiklatestimage
    
        artifact "edgemere_web" as edgemere_webimage
    
        artifact "edgemere_doc" as edgemere_docimage
    
}

external -[#black]- frontendService

webmap -[#black]-> webService

docsmap -[#black]-> docService

adminService -[#black]- childrennet

pubsubService -[#black]- childrennet

pubsubService -[#blue]- siblingnet

webService -[#blue]- siblingnet

webService -[#black]- childrennet

docService -[#blue]- siblingnet

docService -[#black]- childrennet
adminService .... edgemerelatestimage
pubsubService .... redisimage
webService .... edgemere_webimage
docService .... edgemere_docimage

frontendService .... traefiklatestimage

edgemerelatestimage - -> edgemereStack
    

@enduml

PlantUML version 1.2019.05(Sat Apr 20 09:45:36 PDT 2019)
(GPL source distribution)
Java Runtime: OpenJDK Runtime Environment
JVM: OpenJDK 64-Bit Server VM
Java Version: 12.0.1+12
Operating System: Windows 10
OS Version: 10.0
Default Encoding: Cp1252
Language: en
Country: US
--></g></svg>