<?xml version="1.0" encoding="UTF-8" standalone="no"?><svg xmlns="http://www.w3.org/2000/svg" xmlns:xlink="http://www.w3.org/1999/xlink" contentScriptType="application/ecmascript" contentStyleType="text/css" height="685px" preserveAspectRatio="none" style="width:554px;height:685px;" version="1.1" viewBox="0 0 554 685" width="554px" zoomAndPan="magnify"><defs><filter height="300%" id="f1wngr73oxokv5" width="300%" x="-1" y="-1"><feGaussianBlur result="blurOut" stdDeviation="2.0"/><feColorMatrix in="blurOut" result="blurOut2" type="matrix" values="0 0 0 0 0 0 0 0 0 0 0 0 0 0 0 0 0 0 .4 0"/><feOffset dx="4.0" dy="4.0" in="blurOut2" result="blurOut3"/><feBlend in="SourceGraphic" in2="blurOut3" mode="normal"/></filter></defs><g><!--cluster edgemere--><polygon fill="#E6E6FA" filter="url(#f1wngr73oxokv5)" points="45.5,84,123.5,84,130.5,107.6094,532.5,107.6094,532.5,673,45.5,673,45.5,84" style="stroke: #000000; stroke-width: 1.5;"/><line style="stroke: #000000; stroke-width: 1.5;" x1="45.5" x2="130.5" y1="107.6094" y2="107.6094"/><text fill="#000000" font-family="sans-serif" font-size="14" font-weight="bold" lengthAdjust="spacingAndGlyphs" textLength="72" x="49.5" y="100.5332">edgemere</text><!--cluster bin--><polygon fill="#FFFFFF" filter="url(#f1wngr73oxokv5)" points="147.5,128,175.5,128,182.5,151.6094,263.5,151.6094,263.5,218,147.5,218,147.5,128" style="stroke: #000000; stroke-width: 1.5;"/><line style="stroke: #000000; stroke-width: 1.5;" x1="147.5" x2="182.5" y1="151.6094" y2="151.6094"/><text fill="#000000" font-family="sans-serif" font-size="14" font-weight="bold" lengthAdjust="spacingAndGlyphs" textLength="22" x="151.5" y="144.5332">bin</text><!--cluster deploy--><polygon fill="#FFFFFF" filter="url(#f1wngr73oxokv5)" points="69.5,324,122.5,324,129.5,347.6094,410.5,347.6094,410.5,431,69.5,431,69.5,324" style="stroke: #000000; stroke-width: 1.5;"/><line style="stroke: #000000; stroke-width: 1.5;" x1="69.5" x2="129.5" y1="347.6094" y2="347.6094"/><text fill="#000000" font-family="sans-serif" font-size="14" font-weight="bold" lengthAdjust="spacingAndGlyphs" textLength="47" x="73.5" y="340.5332">deploy</text><!--cluster images--><polygon fill="#FFFFFF" filter="url(#f1wngr73oxokv5)" points="69.5,455,125.5,455,132.5,478.6094,508.5,478.6094,508.5,649,69.5,649,69.5,455" style="stroke: #000000; stroke-width: 1.5;"/><line style="stroke: #000000; stroke-width: 1.5;" x1="69.5" x2="132.5" y1="478.6094" y2="478.6094"/><text fill="#000000" font-family="sans-serif" font-size="14" font-weight="bold" lengthAdjust="spacingAndGlyphs" textLength="50" x="73.5" y="471.5332">images</text><!--entity REST--><rect fill="#FEFECE" filter="url(#f1wngr73oxokv5)" height="37.6094" style="stroke: #A80036; stroke-width: 1.5;" width="69" x="171" y="262"/><rect fill="#FEFECE" height="5" style="stroke: #A80036; stroke-width: 1.5;" width="10" x="166" y="267"/><rect fill="#FEFECE" height="5" style="stroke: #A80036; stroke-width: 1.5;" width="10" x="166" y="289.6094"/><text fill="#000000" font-family="sans-serif" font-size="14" lengthAdjust="spacingAndGlyphs" textLength="49" x="181" y="286.5332">express</text><!--entity socket--><rect fill="#FEFECE" filter="url(#f1wngr73oxokv5)" height="37.6094" style="stroke: #A80036; stroke-width: 1.5;" width="76" x="290.5" y="164"/><rect fill="#FEFECE" height="5" style="stroke: #A80036; stroke-width: 1.5;" width="10" x="285.5" y="169"/><rect fill="#FEFECE" height="5" style="stroke: #A80036; stroke-width: 1.5;" width="10" x="285.5" y="191.6094"/><text fill="#000000" font-family="sans-serif" font-size="14" lengthAdjust="spacingAndGlyphs" textLength="56" x="300.5" y="188.5332">socket.io</text><!--entity binName--><rect fill="#FEFECE" filter="url(#f1wngr73oxokv5)" height="37.6094" style="stroke: #A80036; stroke-width: 1.5;" width="84" x="163.5" y="164"/><rect fill="#FEFECE" height="5" style="stroke: #A80036; stroke-width: 1.5;" width="10" x="158.5" y="169"/><rect fill="#FEFECE" height="5" style="stroke: #A80036; stroke-width: 1.5;" width="10" x="158.5" y="191.6094"/><text fill="#000000" font-family="sans-serif" font-size="14" lengthAdjust="spacingAndGlyphs" textLength="64" x="173.5" y="188.5332">edgemere</text><!--entity edgemere_container--><polygon fill="#FEFECE" filter="url(#f1wngr73oxokv5)" points="85.5,360,85.5,415.2188,235.5,415.2188,235.5,370,225.5,360,85.5,360" style="stroke: #000000; stroke-width: 1.5;"/><path d="M225.5,360 L225.5,370 L235.5,370 " fill="#FEFECE" style="stroke: #000000; stroke-width: 1.5;"/><text fill="#000000" font-family="sans-serif" font-size="14" lengthAdjust="spacingAndGlyphs" textLength="90" x="95.5" y="384.5332">node server.js</text><text fill="#000000" font-family="sans-serif" font-size="14" lengthAdjust="spacingAndGlyphs" textLength="130" x="95.5" y="402.1426">docker-compose.yml</text><!--entity web_container--><polygon fill="#FEFECE" filter="url(#f1wngr73oxokv5)" points="349,368.5,349,406.1094,394,406.1094,394,378.5,384,368.5,349,368.5" style="stroke: #000000; stroke-width: 1.5;"/><path d="M384,368.5 L384,378.5 L394,378.5 " fill="#FEFECE" style="stroke: #000000; stroke-width: 1.5;"/><text fill="#000000" font-family="sans-serif" font-size="14" lengthAdjust="spacingAndGlyphs" textLength="25" x="359" y="393.0332">web</text><!--entity doc_container--><polygon fill="#FEFECE" filter="url(#f1wngr73oxokv5)" points="271,368.5,271,406.1094,314,406.1094,314,378.5,304,368.5,271,368.5" style="stroke: #000000; stroke-width: 1.5;"/><path d="M304,368.5 L304,378.5 L314,378.5 " fill="#FEFECE" style="stroke: #000000; stroke-width: 1.5;"/><text fill="#000000" font-family="sans-serif" font-size="14" lengthAdjust="spacingAndGlyphs" textLength="23" x="281" y="393.0332">doc</text><!--entity edgemereimage--><rect fill="#FEFECE" filter="url(#f1wngr73oxokv5)" height="33.6094" style="stroke: #000000; stroke-width: 1.5;" width="80" x="89.5" y="496.5"/><rect fill="#FEFECE" height="33.6094" style="stroke: #000000; stroke-width: 1.5;" width="80" x="85.5" y="492.5"/><text fill="#000000" font-family="sans-serif" font-size="14" lengthAdjust="spacingAndGlyphs" textLength="64" x="93.5" y="515.0332">edgemere</text><!--entity ailtireswarm--><rect fill="#FEFECE" filter="url(#f1wngr73oxokv5)" height="40.6094" style="stroke: #000000; stroke-width: 1.5;" width="108" x="85.5" y="592"/><polygon fill="#FEFECE" points="176.5,597,176.5,611,188.5,611,188.5,603,182.5,597,176.5,597" style="stroke: #000000; stroke-width: 1.5;"/><line style="stroke: #000000; stroke-width: 1.5;" x1="182.5" x2="182.5" y1="597" y2="603"/><line style="stroke: #000000; stroke-width: 1.5;" x1="188.5" x2="182.5" y1="603" y2="603"/><text fill="#000000" font-family="sans-serif" font-size="14" lengthAdjust="spacingAndGlyphs" textLength="78" x="95.5" y="619.5332">ailtire:swarm</text><!--entity edgemere_web--><rect fill="#FEFECE" filter="url(#f1wngr73oxokv5)" height="40.6094" style="stroke: #000000; stroke-width: 1.5;" width="127" x="365" y="491"/><polygon fill="#FEFECE" points="475,496,475,510,487,510,487,502,481,496,475,496" style="stroke: #000000; stroke-width: 1.5;"/><line style="stroke: #000000; stroke-width: 1.5;" x1="481" x2="481" y1="496" y2="502"/><line style="stroke: #000000; stroke-width: 1.5;" x1="487" x2="481" y1="502" y2="502"/><text fill="#000000" font-family="sans-serif" font-size="14" lengthAdjust="spacingAndGlyphs" textLength="97" x="375" y="518.5332">edgemere_web</text><!--entity edgemere_doc--><rect fill="#FEFECE" filter="url(#f1wngr73oxokv5)" height="40.6094" style="stroke: #000000; stroke-width: 1.5;" width="125" x="205" y="491"/><polygon fill="#FEFECE" points="313,496,313,510,325,510,325,502,319,496,313,496" style="stroke: #000000; stroke-width: 1.5;"/><line style="stroke: #000000; stroke-width: 1.5;" x1="319" x2="319" y1="496" y2="502"/><line style="stroke: #000000; stroke-width: 1.5;" x1="325" x2="319" y1="502" y2="502"/><text fill="#000000" font-family="sans-serif" font-size="14" lengthAdjust="spacingAndGlyphs" textLength="95" x="215" y="518.5332">edgemere_doc</text><!--entity CLI--><ellipse cx="205.5" cy="38" fill="#FEFECE" filter="url(#f1wngr73oxokv5)" rx="8" ry="8" style="stroke: #A80036; stroke-width: 2.0;"/><text fill="#000000" font-family="sans-serif" font-size="14" lengthAdjust="spacingAndGlyphs" textLength="21" x="195" y="69.5332">CLI</text><!--entity Web--><ellipse cx="20.5" cy="281" fill="#FEFECE" filter="url(#f1wngr73oxokv5)" rx="8" ry="8" style="stroke: #A80036; stroke-width: 2.0;"/><text fill="#000000" font-family="sans-serif" font-size="14" lengthAdjust="spacingAndGlyphs" textLength="29" x="6" y="312.5332">Web</text><!--entity WebSocket--><ellipse cx="328.5" cy="38" fill="#FEFECE" filter="url(#f1wngr73oxokv5)" rx="8" ry="8" style="stroke: #A80036; stroke-width: 2.0;"/><text fill="#000000" font-family="sans-serif" font-size="14" lengthAdjust="spacingAndGlyphs" textLength="72" x="292.5" y="69.5332">WebSocket</text><!--link binName to REST--><path d="M205.5,202.057 C205.5,217.513 205.5,239.865 205.5,256.673 " fill="none" id="binName-REST" style="stroke: #A80036; stroke-width: 1.0;"/><polygon fill="#A80036" points="205.5,261.698,209.5,252.698,205.5,256.698,201.5,252.698,205.5,261.698" style="stroke: #A80036; stroke-width: 1.0;"/><!--link REST to edgemere_container--><path d="M197.662,300.203 C191.171,315.276 181.797,337.045 174.087,354.947 " fill="none" id="REST-edgemere_container" style="stroke: #A80036; stroke-width: 1.0;"/><polygon fill="#A80036" points="171.961,359.885,179.1936,353.2,173.938,355.2925,171.8456,350.0368,171.961,359.885" style="stroke: #A80036; stroke-width: 1.0;"/><!--link REST to web_container--><path d="M240.256,284.149 C267.533,287.419 305.171,295.602 331.5,316 C347.126,328.106 357.647,348.153 363.961,363.781 " fill="none" id="REST-web_container" style="stroke: #A80036; stroke-width: 1.0;"/><polygon fill="#A80036" points="365.786,368.476,366.2535,358.6382,363.9745,363.8157,358.797,361.5367,365.786,368.476" style="stroke: #A80036; stroke-width: 1.0;"/><!--link socket to web_container--><path d="M332.392,202.328 C340.227,239.225 357.89,322.407 366.539,363.138 " fill="none" id="socket-web_container" style="stroke: #A80036; stroke-width: 1.0;"/><polygon fill="#A80036" points="367.648,368.36,369.6915,358.7255,366.6095,363.469,361.866,360.387,367.648,368.36" style="stroke: #A80036; stroke-width: 1.0;"/><!--link REST to doc_container--><path d="M234.96,300.333 C241.177,304.985 247.394,310.298 252.5,316 C265.151,330.128 275.568,348.919 282.596,363.548 " fill="none" id="REST-doc_container" style="stroke: #A80036; stroke-width: 1.0;"/><polygon fill="#A80036" points="284.848,368.337,284.636,358.4904,282.7194,363.8127,277.3971,361.8961,284.848,368.337" style="stroke: #A80036; stroke-width: 1.0;"/><!--link socket to doc_container--><path d="M325.242,202.328 C318.682,239.225 303.894,322.407 296.653,363.138 " fill="none" id="socket-doc_container" style="stroke: #A80036; stroke-width: 1.0;"/><polygon fill="#A80036" points="295.725,368.36,301.2394,360.1997,296.6007,363.4373,293.3631,358.7986,295.725,368.36" style="stroke: #A80036; stroke-width: 1.0;"/><!--link edgemereimage to ailtireswarm--><path d="M132.154,550.896 C133.847,564.862 135.69,580.071 137.107,591.7594 " fill="none" id="edgemereimage-ailtireswarm" style="stroke: #A80036; stroke-width: 1.0;"/><polygon fill="none" points="125.159,551.355,129.701,530.658,139.057,549.67,125.159,551.355" style="stroke: #A80036; stroke-width: 1.0;"/><!--link edgemere_container to edgemereimage--><path d="M153.258,415.273 C147.416,436.871 139.285,466.931 133.731,487.465 " fill="none" id="edgemere_container-edgemereimage" style="stroke: #A80036; stroke-width: 1.0;"/><polygon fill="#A80036" points="132.377,492.469,138.5888,484.8261,133.6829,487.6426,130.8665,482.7367,132.377,492.469" style="stroke: #A80036; stroke-width: 1.0;"/><!--link web_container to edgemere_web--><path d="M379.911,406.502 C389.782,427.629 406.194,462.758 417.178,486.266 " fill="none" id="web_container-edgemere_web" style="stroke: #A80036; stroke-width: 1.0;"/><polygon fill="#A80036" points="419.298,490.805,419.1137,480.9579,417.1822,486.2747,411.8653,484.3432,419.298,490.805" style="stroke: #A80036; stroke-width: 1.0;"/><!--link doc_container to edgemere_doc--><path d="M288.811,406.502 C284.518,427.453 277.403,462.173 272.587,485.676 " fill="none" id="doc_container-edgemere_doc" style="stroke: #A80036; stroke-width: 1.0;"/><polygon fill="#A80036" points="271.536,490.805,277.262,482.7917,272.5402,485.9069,269.4251,481.185,271.536,490.805" style="stroke: #A80036; stroke-width: 1.0;"/><!--link CLI to binName--><path d="M205.5,47.098 C205.5,69.432 205.5,132.318 205.5,163.705 " fill="none" id="CLI-binName" style="stroke: #A80036; stroke-width: 1.0;"/><text fill="#000000" font-family="sans-serif" font-size="13" lengthAdjust="spacingAndGlyphs" textLength="57" x="131.3438" y="45.3096">edgemere</text><!--link Web to REST--><path d="M29.5332,281 C76.6181,281 123.703,281 170.788,281 " fill="none" id="Web-REST" style="stroke: #A80036; stroke-width: 1.0;"/><text fill="#000000" font-family="sans-serif" font-size="13" lengthAdjust="spacingAndGlyphs" textLength="61" x="37.6869" y="276.8814">/edgemere</text><!--link WebSocket to socket--><path d="M328.5,47.098 C328.5,69.432 328.5,132.318 328.5,163.705 " fill="none" id="WebSocket-socket" style="stroke: #A80036; stroke-width: 1.0;"/><text fill="#000000" font-family="sans-serif" font-size="13" lengthAdjust="spacingAndGlyphs" textLength="61" x="250.3438" y="45.3096">.edgemere</text><!--
@startuml
  interface CLI
  interface Web
  interface WebSocket
package "edgemere" #lavender {
  component express as REST
  component socket.io as socket
  folder bin #ffffff {
    component " edgemere" as binName
  }
  binName - -> REST

  folder deploy #ffffff {
      file "node server.js\ndocker-compose.yml" as edgemere_container
      REST - -> edgemere_container

  
    file "web" as web_container
    REST - -> web_container
    socket - - -> web_container
  
    file "doc" as doc_container
    REST - -> doc_container
    socket - - -> doc_container
  
  }
  folder images #ffffff {
    collections "edgemere" as edgemereimage
    artifact "ailtire:swarm" as ailtireswarm
    edgemereimage <|- - ailtireswarm
    edgemere_container - -> edgemereimage

  
      artifact edgemere_web
      web_container - -> edgemere_web
    
      artifact edgemere_doc
      doc_container - -> edgemere_doc
    
  }
}
CLI " edgemere" - - binName
Web "/edgemere" - REST
WebSocket ".edgemere" - - socket

@enduml

PlantUML version 1.2019.05(Sat Apr 20 09:45:36 PDT 2019)
(GPL source distribution)
Java Runtime: OpenJDK Runtime Environment
JVM: OpenJDK 64-Bit Server VM
Java Version: 12.0.1+12
Operating System: Windows 10
OS Version: 10.0
Default Encoding: Cp1252
Language: en
Country: US
--></g></svg>