<?xml version="1.0" encoding="UTF-8" standalone="no"?><svg xmlns="http://www.w3.org/2000/svg" xmlns:xlink="http://www.w3.org/1999/xlink" contentScriptType="application/ecmascript" contentStyleType="text/css" height="395px" preserveAspectRatio="none" style="width:2197px;height:395px;" version="1.1" viewBox="0 0 2197 395" width="2197px" zoomAndPan="magnify"><defs><filter height="300%" id="f8u9phsyrtwg4" width="300%" x="-1" y="-1"><feGaussianBlur result="blurOut" stdDeviation="2.0"/><feColorMatrix in="blurOut" result="blurOut2" type="matrix" values="0 0 0 0 0 0 0 0 0 0 0 0 0 0 0 0 0 0 .4 0"/><feOffset dx="4.0" dy="4.0" in="blurOut2" result="blurOut3"/><feBlend in="SourceGraphic" in2="blurOut3" mode="normal"/></filter></defs><g><!--entity MetricComposite--><rect fill="#ADD8E6" filter="url(#f8u9phsyrtwg4)" height="37.6094" style="stroke: #000000; stroke-width: 1.5;" width="125" x="1063" y="347"/><text fill="#000000" font-family="sans-serif" font-size="14" lengthAdjust="spacingAndGlyphs" textLength="105" x="1073" y="371.5332">MetricComposite</text><!--entity PhysicalProfile--><rect fill="#90EE90" filter="url(#f8u9phsyrtwg4)" height="37.6094" style="stroke: #000000; stroke-width: 1.5;" width="112" x="800.5" y="347"/><text fill="#000000" font-family="sans-serif" font-size="14" lengthAdjust="spacingAndGlyphs" textLength="92" x="810.5" y="371.5332">PhysicalProfile</text><!--entity Device--><rect fill="#90EE90" filter="url(#f8u9phsyrtwg4)" height="37.6094" style="stroke: #000000; stroke-width: 1.5;" width="63" x="6" y="8"/><text fill="#000000" font-family="sans-serif" font-size="14" lengthAdjust="spacingAndGlyphs" textLength="43" x="16" y="32.5332">Device</text><!--entity AggregatedDevice--><rect fill="#90EE90" filter="url(#f8u9phsyrtwg4)" height="37.6094" style="stroke: #000000; stroke-width: 1.5;" width="137" x="104" y="8"/><text fill="#000000" font-family="sans-serif" font-size="14" lengthAdjust="spacingAndGlyphs" textLength="117" x="114" y="32.5332">AggregatedDevice</text><!--entity AcceleratorHardware--><rect fill="#90EE90" filter="url(#f8u9phsyrtwg4)" height="37.6094" style="stroke: #000000; stroke-width: 1.5;" width="152" x="276.5" y="8"/><text fill="#000000" font-family="sans-serif" font-size="14" lengthAdjust="spacingAndGlyphs" textLength="132" x="286.5" y="32.5332">AcceleratorHardware</text><!--entity ComputeHardware--><rect fill="#90EE90" filter="url(#f8u9phsyrtwg4)" height="37.6094" style="stroke: #000000; stroke-width: 1.5;" width="137" x="464" y="8"/><text fill="#000000" font-family="sans-serif" font-size="14" lengthAdjust="spacingAndGlyphs" textLength="117" x="474" y="32.5332">ComputeHardware</text><!--entity DataCenter--><rect fill="#90EE90" filter="url(#f8u9phsyrtwg4)" height="37.6094" style="stroke: #000000; stroke-width: 1.5;" width="93" x="636" y="8"/><text fill="#000000" font-family="sans-serif" font-size="14" lengthAdjust="spacingAndGlyphs" textLength="73" x="646" y="32.5332">DataCenter</text><!--entity Hardware--><rect fill="#90EE90" filter="url(#f8u9phsyrtwg4)" height="37.6094" style="stroke: #000000; stroke-width: 1.5;" width="80" x="764.5" y="8"/><text fill="#000000" font-family="sans-serif" font-size="14" lengthAdjust="spacingAndGlyphs" textLength="60" x="774.5" y="32.5332">Hardware</text><!--entity NetworkHardware--><rect fill="#90EE90" filter="url(#f8u9phsyrtwg4)" height="37.6094" style="stroke: #000000; stroke-width: 1.5;" width="130" x="879.5" y="8"/><text fill="#000000" font-family="sans-serif" font-size="14" lengthAdjust="spacingAndGlyphs" textLength="110" x="889.5" y="32.5332">NetworkHardware</text><!--entity StorageHardware--><rect fill="#90EE90" filter="url(#f8u9phsyrtwg4)" height="37.6094" style="stroke: #000000; stroke-width: 1.5;" width="130" x="1044.5" y="8"/><text fill="#000000" font-family="sans-serif" font-size="14" lengthAdjust="spacingAndGlyphs" textLength="110" x="1054.5" y="32.5332">StorageHardware</text><!--entity ResourceInstanceType--><rect fill="#90EE90" filter="url(#f8u9phsyrtwg4)" height="37.6094" style="stroke: #000000; stroke-width: 1.5;" width="166" x="1209.5" y="8"/><text fill="#000000" font-family="sans-serif" font-size="14" lengthAdjust="spacingAndGlyphs" textLength="146" x="1219.5" y="32.5332">ResourceInstanceType</text><!--entity AcceleratorResource--><rect fill="#90EE90" filter="url(#f8u9phsyrtwg4)" height="37.6094" style="stroke: #000000; stroke-width: 1.5;" width="153" x="1411" y="8"/><text fill="#000000" font-family="sans-serif" font-size="14" lengthAdjust="spacingAndGlyphs" textLength="133" x="1421" y="32.5332">AcceleratorResource</text><!--entity ComputeResource--><rect fill="#90EE90" filter="url(#f8u9phsyrtwg4)" height="37.6094" style="stroke: #000000; stroke-width: 1.5;" width="138" x="1599.5" y="8"/><text fill="#000000" font-family="sans-serif" font-size="14" lengthAdjust="spacingAndGlyphs" textLength="118" x="1609.5" y="32.5332">ComputeResource</text><!--entity NetworkResource--><rect fill="#90EE90" filter="url(#f8u9phsyrtwg4)" height="37.6094" style="stroke: #000000; stroke-width: 1.5;" width="131" x="1773" y="8"/><text fill="#000000" font-family="sans-serif" font-size="14" lengthAdjust="spacingAndGlyphs" textLength="111" x="1783" y="32.5332">NetworkResource</text><!--entity Resource--><rect fill="#90EE90" filter="url(#f8u9phsyrtwg4)" height="37.6094" style="stroke: #000000; stroke-width: 1.5;" width="81" x="1939" y="8"/><text fill="#000000" font-family="sans-serif" font-size="14" lengthAdjust="spacingAndGlyphs" textLength="61" x="1949" y="32.5332">Resource</text><!--entity StorageResource--><rect fill="#90EE90" filter="url(#f8u9phsyrtwg4)" height="37.6094" style="stroke: #000000; stroke-width: 1.5;" width="131" x="2055" y="8"/><text fill="#000000" font-family="sans-serif" font-size="14" lengthAdjust="spacingAndGlyphs" textLength="111" x="2065" y="32.5332">StorageResource</text><!--class Model--><rect fill="#FEFECE" filter="url(#f8u9phsyrtwg4)" height="144.8516" id="Model" style="stroke: #A80036; stroke-width: 1.5;" width="113" x="970" y="124"/><ellipse cx="985" cy="140" fill="#ADD1B2" rx="11" ry="11" style="stroke: #A80036; stroke-width: 1.0;"/><path d="M987.7656,135.875 Q987.9219,135.6563 988.1094,135.5469 Q988.2969,135.4375 988.5156,135.4375 Q988.8906,135.4375 989.125,135.7031 Q989.3594,135.9531 989.3594,136.5625 L989.3594,138.0156 Q989.3594,138.625 989.125,138.8906 Q988.8906,139.1563 988.5156,139.1563 Q988.1719,139.1563 987.9688,138.9531 Q987.7656,138.7656 987.6563,138.25 Q987.6094,137.8906 987.4219,137.7031 Q987.0938,137.3281 986.4844,137.1094 Q985.875,136.8906 985.25,136.8906 Q984.4844,136.8906 983.8438,137.2188 Q983.2188,137.5469 982.7188,138.2969 Q982.2344,139.0469 982.2344,140.0781 L982.2344,141.1719 Q982.2344,142.4063 983.125,143.2344 Q984.0156,144.0469 985.6094,144.0469 Q986.5469,144.0469 987.2031,143.7969 Q987.5938,143.6406 988.0156,143.2031 Q988.2813,142.9375 988.4219,142.8594 Q988.5781,142.7813 988.7813,142.7813 Q989.1094,142.7813 989.3594,143.0469 Q989.625,143.2969 989.625,143.6406 Q989.625,143.9844 989.2813,144.3906 Q988.7813,144.9688 987.9844,145.2969 Q986.9063,145.75 985.6094,145.75 Q984.0938,145.75 982.8906,145.125 Q981.9063,144.625 981.2188,143.5625 Q980.5313,142.4844 980.5313,141.2031 L980.5313,140.0469 Q980.5313,138.7188 981.1406,137.5781 Q981.7656,136.4219 982.8594,135.8125 Q983.9531,135.1875 985.1875,135.1875 Q985.9219,135.1875 986.5625,135.3594 Q987.2188,135.5156 987.7656,135.875 Z "/><text fill="#000000" font-family="sans-serif" font-size="12" lengthAdjust="spacingAndGlyphs" textLength="81" x="999" y="144.9102">PhysicalProfile</text><line style="stroke: #A80036; stroke-width: 1.5;" x1="971" x2="1082" y1="156" y2="156"/><text fill="#000000" font-family="sans-serif" font-size="11" lengthAdjust="spacingAndGlyphs" textLength="56" x="976" y="171.4189">string name</text><line style="stroke: #A80036; stroke-width: 1.5;" x1="971" x2="1082" y1="177.8359" y2="177.8359"/><text fill="#000000" font-family="sans-serif" font-size="11" lengthAdjust="spacingAndGlyphs" textLength="48" x="976" y="193.2549">combine()</text><text fill="#000000" font-family="sans-serif" font-size="11" lengthAdjust="spacingAndGlyphs" textLength="52" x="976" y="207.0908">consume()</text><text fill="#000000" font-family="sans-serif" font-size="11" lengthAdjust="spacingAndGlyphs" textLength="39" x="976" y="220.9268">create()</text><text fill="#000000" font-family="sans-serif" font-size="11" lengthAdjust="spacingAndGlyphs" textLength="57" x="976" y="234.7627">propagate()</text><text fill="#000000" font-family="sans-serif" font-size="11" lengthAdjust="spacingAndGlyphs" textLength="49" x="976" y="248.5986">satisfies()</text><text fill="#000000" font-family="sans-serif" font-size="11" lengthAdjust="spacingAndGlyphs" textLength="32" x="976" y="262.4346">stats()</text><!--link Model to MetricComposite--><path d="M965.087,276.585 C960.888,290.6109 961.405,304.6618 970.5,317 C988.919,341.9866 1020.2,354.3561 1049.86,360.3408 " fill="none" id="Model-MetricComposite" style="stroke: #A80036; stroke-width: 1.0;"/><polygon fill="#A80036" points="1062.87,362.5984,1054.6889,357.1149,1057.944,361.7413,1053.3175,364.9965,1062.87,362.5984" style="stroke: #A80036; stroke-width: 1.0;"/><line style="stroke: #A80036; stroke-width: 1.0;" x1="1057.944" x2="1050.06" y1="361.7413" y2="360.3761"/><polygon fill="#A80036" points="969.894,264.31,963.9816,268.4384,965.5184,275.4838,971.4308,271.3554,969.894,264.31" style="stroke: #A80036; stroke-width: 1.0;"/><text fill="#000000" font-family="sans-serif" font-size="13" lengthAdjust="spacingAndGlyphs" textLength="65" x="971.5" y="313.4951">capabilities</text><text fill="#000000" font-family="sans-serif" font-size="13" lengthAdjust="spacingAndGlyphs" textLength="7" x="1047.8104" y="358.7492">1</text><!--link Model to MetricComposite--><path d="M1057.23,280.988 C1063.21,293.4793 1069.99,305.8827 1077.5,317 C1082.35,324.1764 1088.37,331.1888 1094.49,337.5396 " fill="none" id="Model-MetricComposite-1" style="stroke: #A80036; stroke-width: 1.0;"/><polygon fill="#A80036" points="1104.04,346.9037,1100.4216,337.7436,1100.4727,343.4002,1094.8161,343.4513,1104.04,346.9037" style="stroke: #A80036; stroke-width: 1.0;"/><line style="stroke: #A80036; stroke-width: 1.0;" x1="1100.4727" x2="1094.76" y1="343.4002" y2="337.8001"/><polygon fill="#A80036" points="1051.75,269.024,1050.6141,276.1451,1056.7505,279.9325,1057.8864,272.8114,1051.75,269.024" style="stroke: #A80036; stroke-width: 1.0;"/><text fill="#000000" font-family="sans-serif" font-size="13" lengthAdjust="spacingAndGlyphs" textLength="49" x="1078.5" y="313.4951">available</text><text fill="#000000" font-family="sans-serif" font-size="13" lengthAdjust="spacingAndGlyphs" textLength="7" x="1089.396" y="336.2142">1</text><!--link Model to MetricComposite--><path d="M1093.2,245.607 C1109.07,260.729 1123.88,278.819 1132.5,299 C1137.13,309.8487 1136.94,322.5755 1135.04,333.9432 " fill="none" id="Model-MetricComposite-2" style="stroke: #A80036; stroke-width: 1.0;"/><polygon fill="#A80036" points="1132.09,346.9177,1137.9882,339.0303,1133.2,342.0425,1130.1878,337.2543,1132.09,346.9177" style="stroke: #A80036; stroke-width: 1.0;"/><line style="stroke: #A80036; stroke-width: 1.0;" x1="1133.2" x2="1134.975" y1="342.0425" y2="334.2419"/><polygon fill="#A80036" points="1083.23,236.582,1084.9924,243.5744,1092.1248,244.637,1090.3624,237.6446,1083.23,236.582" style="stroke: #A80036; stroke-width: 1.0;"/><text fill="#000000" font-family="sans-serif" font-size="13" lengthAdjust="spacingAndGlyphs" textLength="48" x="1137.5" y="313.4951">reserved</text><text fill="#000000" font-family="sans-serif" font-size="13" lengthAdjust="spacingAndGlyphs" textLength="7" x="1126.0363" y="336.2325">1</text><!--link Model to MetricComposite--><path d="M1095.17,220.084 C1131.64,235.982 1173.21,261.269 1194.5,299 C1203.24,314.4844 1192.54,328.5786 1177.16,339.7296 " fill="none" id="Model-MetricComposite-3" style="stroke: #A80036; stroke-width: 1.0;"/><polygon fill="#A80036" points="1165.95,346.9603,1175.6817,345.446,1170.1525,344.2512,1171.3473,338.722,1165.95,346.9603" style="stroke: #A80036; stroke-width: 1.0;"/><line style="stroke: #A80036; stroke-width: 1.0;" x1="1170.1525" x2="1176.875" y1="344.2512" y2="339.915"/><polygon fill="#A80036" points="1083.04,215.048,1087.0474,221.0431,1094.1226,219.6498,1090.1152,213.6547,1083.04,215.048" style="stroke: #A80036; stroke-width: 1.0;"/><text fill="#000000" font-family="sans-serif" font-size="13" lengthAdjust="spacingAndGlyphs" textLength="43" x="1199.5" y="313.4951">metrics</text><text fill="#000000" font-family="sans-serif" font-size="13" lengthAdjust="spacingAndGlyphs" textLength="7" x="1170.2659" y="336.2882">1</text><!--link Model to PhysicalProfile--><path d="M956.963,210.581 C907.883,223.834 845.546,249.715 814.5,299 C806.526,311.6588 813.191,325.6438 823.373,337.4699 " fill="none" id="Model-PhysicalProfile" style="stroke: #A80036; stroke-width: 1.0;"/><polygon fill="#A80036" points="832.509,346.8194,829.0801,337.5867,829.0146,343.2432,823.3582,343.1777,832.509,346.8194" style="stroke: #A80036; stroke-width: 1.0;"/><line style="stroke: #A80036; stroke-width: 1.0;" x1="829.0146" x2="823.4235" y1="343.2432" y2="337.5215"/><polygon fill="#FFFFFF" points="969.772,207.323,962.971,204.9259,958.1425,210.2818,964.9435,212.6789,969.772,207.323" style="stroke: #A80036; stroke-width: 1.0;"/><text fill="#000000" font-family="sans-serif" font-size="13" lengthAdjust="spacingAndGlyphs" textLength="36" x="815.5" y="313.4951">parent</text><text fill="#000000" font-family="sans-serif" font-size="13" lengthAdjust="spacingAndGlyphs" textLength="7" x="817.0899" y="336.1041">1</text><!--link PhysicalProfile to Model--><path d="M881.622,336.8933 C892.461,325.0109 905.405,311.1398 917.5,299 C930.994,285.4559 945.785,271.269 959.999,257.94 " fill="none" id="PhysicalProfile-Model" style="stroke: #A80036; stroke-width: 1.0;"/><polygon fill="#A80036" points="969.725,248.867,960.4154,252.0811,966.0688,252.2776,965.8723,257.931,969.725,248.867" style="stroke: #A80036; stroke-width: 1.0;"/><line style="stroke: #A80036; stroke-width: 1.0;" x1="966.0688" x2="960.2185" y1="252.2776" y2="257.735"/><polygon fill="#FFFFFF" points="872.713,346.7301,879.7056,344.9685,880.769,337.8363,873.7764,339.5978,872.713,346.7301" style="stroke: #A80036; stroke-width: 1.0;"/><text fill="#000000" font-family="sans-serif" font-size="13" lengthAdjust="spacingAndGlyphs" textLength="36" x="918.5" y="313.4951">parent</text><text fill="#000000" font-family="sans-serif" font-size="13" lengthAdjust="spacingAndGlyphs" textLength="7" x="955.0023" y="252.0787">1</text><!--link Device to Model--><path d="M81.64,44.652 C83.2736,45.129 84.8973,45.58 86.5,46 C215.851,79.876 251.461,72.909 383.5,94 C591.969,127.3 838.566,166.046 956.649,184.56 " fill="none" id="Device-Model" style="stroke: #A80036; stroke-width: 1.0;"/><polygon fill="#A80036" points="969.72,186.609,961.4479,181.2637,964.7803,185.8348,960.2092,189.1672,969.72,186.609" style="stroke: #A80036; stroke-width: 1.0;"/><line style="stroke: #A80036; stroke-width: 1.0;" x1="964.7803" x2="956.8765" y1="185.8348" y2="184.595"/><polygon fill="#FFFFFF" points="69.1108,40.616,73.5953,46.2631,80.5328,44.2955,76.0483,38.6484,69.1108,40.616" style="stroke: #A80036; stroke-width: 1.0;"/><text fill="#000000" font-family="sans-serif" font-size="13" lengthAdjust="spacingAndGlyphs" textLength="34" x="384.5" y="90.4951">profile</text><text fill="#000000" font-family="sans-serif" font-size="13" lengthAdjust="spacingAndGlyphs" textLength="7" x="954.9966" y="199.8939">1</text><!--link AggregatedDevice to Model--><path d="M253.932,45.074 C255.467,45.386 256.991,45.695 258.5,46 C515.569,97.921 821.716,156.56 956.695,182.252 " fill="none" id="AggregatedDevice-Model" style="stroke: #A80036; stroke-width: 1.0;"/><polygon fill="#A80036" points="969.601,184.708,961.5073,179.0963,964.6891,183.7734,960.012,186.9553,969.601,184.708" style="stroke: #A80036; stroke-width: 1.0;"/><line style="stroke: #A80036; stroke-width: 1.0;" x1="964.6891" x2="956.8305" y1="183.7734" y2="182.278"/><polygon fill="#FFFFFF" points="241.017,42.431,246.093,47.5529,252.7732,44.8374,247.6972,39.7154,241.017,42.431" style="stroke: #A80036; stroke-width: 1.0;"/><text fill="#000000" font-family="sans-serif" font-size="13" lengthAdjust="spacingAndGlyphs" textLength="34" x="492.5" y="90.4951">profile</text><text fill="#000000" font-family="sans-serif" font-size="13" lengthAdjust="spacingAndGlyphs" textLength="7" x="954.8624" y="179.6993">1</text><!--link AcceleratorHardware to Model--><path d="M437.635,49.157 C572.6,82.698 833.079,147.432 957.313,178.306 " fill="none" id="AcceleratorHardware-Model" style="stroke: #A80036; stroke-width: 1.0;"/><polygon fill="#A80036" points="969.979,181.454,962.209,175.402,965.1265,180.2484,960.2801,183.166,969.979,181.454" style="stroke: #A80036; stroke-width: 1.0;"/><line style="stroke: #A80036; stroke-width: 1.0;" x1="965.1265" x2="957.363" y1="180.2484" y2="178.3185"/><polygon fill="#FFFFFF" points="424.95,46.005,429.8085,51.3337,436.596,48.8984,431.7374,43.5697,424.95,46.005" style="stroke: #A80036; stroke-width: 1.0;"/><text fill="#000000" font-family="sans-serif" font-size="13" lengthAdjust="spacingAndGlyphs" textLength="34" x="610.5" y="90.4951">profile</text><text fill="#000000" font-family="sans-serif" font-size="13" lengthAdjust="spacingAndGlyphs" textLength="7" x="954.9137" y="175.8859">1</text><!--link ComputeHardware to Model--><path d="M598.184,50.272 C691.696,81.978 862.393,139.856 957.625,172.147 " fill="none" id="ComputeHardware-Model" style="stroke: #A80036; stroke-width: 1.0;"/><polygon fill="#A80036" points="969.982,176.336,962.743,169.6579,965.2468,174.7305,960.1742,177.2343,969.982,176.336" style="stroke: #A80036; stroke-width: 1.0;"/><line style="stroke: #A80036; stroke-width: 1.0;" x1="965.2468" x2="957.67" y1="174.7305" y2="172.162"/><polygon fill="#FFFFFF" points="585.836,46.085,590.2333,51.8003,597.2001,49.9394,592.8029,44.2242,585.836,46.085" style="stroke: #A80036; stroke-width: 1.0;"/><text fill="#000000" font-family="sans-serif" font-size="13" lengthAdjust="spacingAndGlyphs" textLength="34" x="722.5" y="90.4951">profile</text><text fill="#000000" font-family="sans-serif" font-size="13" lengthAdjust="spacingAndGlyphs" textLength="7" x="955.0707" y="165.9803">1</text><!--link DataCenter to Model--><path d="M731.594,51.905 C790.868,80.766 890.914,129.481 957.82,162.059 " fill="none" id="DataCenter-Model" style="stroke: #A80036; stroke-width: 1.0;"/><polygon fill="#A80036" points="969.91,167.945,963.5694,160.4086,965.4146,165.7561,960.0671,167.6013,969.91,167.945" style="stroke: #A80036; stroke-width: 1.0;"/><line style="stroke: #A80036; stroke-width: 1.0;" x1="965.4146" x2="958.222" y1="165.7561" y2="162.254"/><polygon fill="#FFFFFF" points="719.641,46.085,723.2844,52.308,730.43,51.3384,726.7866,45.1154,719.641,46.085" style="stroke: #A80036; stroke-width: 1.0;"/><text fill="#000000" font-family="sans-serif" font-size="13" lengthAdjust="spacingAndGlyphs" textLength="34" x="815.5" y="90.4951">profile</text><text fill="#000000" font-family="sans-serif" font-size="13" lengthAdjust="spacingAndGlyphs" textLength="7" x="954.8354" y="160.5616">1</text><!--link Hardware to Model--><path d="M839.291,54.25 C871.337,78.429 919.77,114.972 959.344,144.83 " fill="none" id="Hardware-Model" style="stroke: #A80036; stroke-width: 1.0;"/><polygon fill="#A80036" points="969.722,152.661,964.947,144.0471,965.7307,149.6494,960.1284,150.4332,969.722,152.661" style="stroke: #A80036; stroke-width: 1.0;"/><line style="stroke: #A80036; stroke-width: 1.0;" x1="965.7307" x2="959.3445" y1="149.6494" y2="144.831"/><polygon fill="#FFFFFF" points="828.68,46.244,831.0603,53.0509,838.2591,53.4718,835.8788,46.6649,828.68,46.244" style="stroke: #A80036; stroke-width: 1.0;"/><text fill="#000000" font-family="sans-serif" font-size="13" lengthAdjust="spacingAndGlyphs" textLength="34" x="890.5" y="90.4951">profile</text><text fill="#000000" font-family="sans-serif" font-size="13" lengthAdjust="spacingAndGlyphs" textLength="7" x="954.9989" y="143.5463">1</text><!--link NetworkHardware to Model--><path d="M959.149,57.922 C966.636,73.217 976.158,92.668 985.669,112.095 " fill="none" id="NetworkHardware-Model" style="stroke: #A80036; stroke-width: 1.0;"/><polygon fill="#A80036" points="991.41,123.822,991.046,113.9799,989.2118,119.3311,983.8606,117.497,991.41,123.822" style="stroke: #A80036; stroke-width: 1.0;"/><line style="stroke: #A80036; stroke-width: 1.0;" x1="989.2118" x2="985.694" y1="119.3311" y2="112.1465"/><polygon fill="#FFFFFF" points="953.432,46.244,952.4775,53.3916,958.7082,57.0218,959.6627,49.8742,953.432,46.244" style="stroke: #A80036; stroke-width: 1.0;"/><text fill="#000000" font-family="sans-serif" font-size="13" lengthAdjust="spacingAndGlyphs" textLength="34" x="977.5" y="90.4951">profile</text><text fill="#000000" font-family="sans-serif" font-size="13" lengthAdjust="spacingAndGlyphs" textLength="7" x="980.4304" y="113.023">1</text><!--link StorageHardware to Model--><path d="M1094.67,57.922 C1087.09,73.217 1077.46,92.668 1067.83,112.095 " fill="none" id="StorageHardware-Model" style="stroke: #A80036; stroke-width: 1.0;"/><polygon fill="#A80036" points="1062.02,123.822,1069.598,117.5312,1064.2385,119.3411,1062.4286,113.9816,1062.02,123.822" style="stroke: #A80036; stroke-width: 1.0;"/><line style="stroke: #A80036; stroke-width: 1.0;" x1="1064.2385" x2="1067.79" y1="119.3411" y2="112.174"/><polygon fill="#FFFFFF" points="1100.46,46.244,1094.211,49.8426,1095.1293,56.995,1101.3783,53.3964,1100.46,46.244" style="stroke: #A80036; stroke-width: 1.0;"/><text fill="#000000" font-family="sans-serif" font-size="13" lengthAdjust="spacingAndGlyphs" textLength="34" x="1086.5" y="90.4951">profile</text><text fill="#000000" font-family="sans-serif" font-size="13" lengthAdjust="spacingAndGlyphs" textLength="7" x="1058.3221" y="113.023">1</text><!--link ResourceInstanceType to Model--><path d="M1252.72,53.05 C1210.91,79.38 1144.36,121.281 1094.25,152.837 " fill="none" id="ResourceInstanceType-Model" style="stroke: #A80036; stroke-width: 1.0;"/><polygon fill="#A80036" points="1083.18,159.808,1092.9272,158.3965,1087.4109,157.1435,1088.6639,151.6271,1083.18,159.808" style="stroke: #A80036; stroke-width: 1.0;"/><line style="stroke: #A80036; stroke-width: 1.0;" x1="1087.4109" x2="1094.185" y1="157.1435" y2="152.8805"/><polygon fill="#A80036" points="1263.78,46.085,1256.5715,45.8915,1253.6204,52.4711,1260.8289,52.6646,1263.78,46.085" style="stroke: #A80036; stroke-width: 1.0;"/><text fill="#000000" font-family="sans-serif" font-size="13" lengthAdjust="spacingAndGlyphs" textLength="34" x="1215.5" y="90.4951">profile</text><text fill="#000000" font-family="sans-serif" font-size="13" lengthAdjust="spacingAndGlyphs" textLength="7" x="1090.8906" y="151.609">1</text><!--link AcceleratorResource to Model--><path d="M1425.28,50.608 C1339.4,81.809 1185.06,137.887 1095.67,170.368 " fill="none" id="AcceleratorResource-Model" style="stroke: #A80036; stroke-width: 1.0;"/><polygon fill="#A80036" points="1083.23,174.887,1093.0544,175.5808,1087.9308,173.1832,1090.3284,168.0596,1083.23,174.887" style="stroke: #A80036; stroke-width: 1.0;"/><line style="stroke: #A80036; stroke-width: 1.0;" x1="1087.9308" x2="1095.45" y1="173.1832" y2="170.4475"/><polygon fill="#A80036" points="1437.73,46.085,1430.7243,44.3762,1426.4524,50.1857,1433.4581,51.8946,1437.73,46.085" style="stroke: #A80036; stroke-width: 1.0;"/><text fill="#000000" font-family="sans-serif" font-size="13" lengthAdjust="spacingAndGlyphs" textLength="34" x="1352.5" y="90.4951">profile</text><text fill="#000000" font-family="sans-serif" font-size="13" lengthAdjust="spacingAndGlyphs" textLength="7" x="1090.947" y="186.67">1</text><!--link ComputeResource to Model--><path d="M1586.72,49.337 C1459.39,82.558 1215.98,146.065 1096.36,177.273 " fill="none" id="ComputeResource-Model" style="stroke: #A80036; stroke-width: 1.0;"/><polygon fill="#A80036" points="1083.44,180.643,1093.1588,182.2385,1088.2777,179.3793,1091.1369,174.4982,1083.44,180.643" style="stroke: #A80036; stroke-width: 1.0;"/><line style="stroke: #A80036; stroke-width: 1.0;" x1="1088.2777" x2="1096.02" y1="179.3793" y2="177.3615"/><polygon fill="#A80036" points="1599.49,46.005,1592.6739,43.6511,1587.8795,49.0375,1594.6956,51.3914,1599.49,46.005" style="stroke: #A80036; stroke-width: 1.0;"/><text fill="#000000" font-family="sans-serif" font-size="13" lengthAdjust="spacingAndGlyphs" textLength="34" x="1480.5" y="90.4951">profile</text><text fill="#000000" font-family="sans-serif" font-size="13" lengthAdjust="spacingAndGlyphs" textLength="7" x="1091.1839" y="175.1135">1</text><!--link NetworkResource to Model--><path d="M1760.17,44.801 C1758.26,45.205 1756.37,45.605 1754.5,46 C1512.83,97.001 1225.53,155.321 1095.96,181.497 " fill="none" id="NetworkResource-Model" style="stroke: #A80036; stroke-width: 1.0;"/><polygon fill="#A80036" points="1083.18,184.079,1092.7934,186.2197,1088.0812,183.09,1091.2109,178.3778,1083.18,184.079" style="stroke: #A80036; stroke-width: 1.0;"/><line style="stroke: #A80036; stroke-width: 1.0;" x1="1088.0812" x2="1095.92" y1="183.09" y2="181.505"/><polygon fill="#A80036" points="1772.93,42.091,1766.23,39.4245,1761.1917,44.5835,1767.8917,47.25,1772.93,42.091" style="stroke: #A80036; stroke-width: 1.0;"/><text fill="#000000" font-family="sans-serif" font-size="13" lengthAdjust="spacingAndGlyphs" textLength="34" x="1596.5" y="90.4951">profile</text><text fill="#000000" font-family="sans-serif" font-size="13" lengthAdjust="spacingAndGlyphs" textLength="7" x="1090.8906" y="197.0397">1</text><!--link Resource to Model--><path d="M1926.04,44.875 C1924.51,45.266 1923,45.642 1921.5,46 C1797.85,75.573 1764.88,72.949 1639.5,94 C1442.51,127.073 1209.78,165.405 1096.07,184.085 " fill="none" id="Resource-Model" style="stroke: #A80036; stroke-width: 1.0;"/><polygon fill="#A80036" points="1083.14,186.21,1092.668,188.7034,1088.0743,185.4022,1091.3755,180.8085,1083.14,186.21" style="stroke: #A80036; stroke-width: 1.0;"/><line style="stroke: #A80036; stroke-width: 1.0;" x1="1088.0743" x2="1095.965" y1="185.4022" y2="184.1025"/><polygon fill="#A80036" points="1938.81,41.37,1931.965,39.1017,1927.2384,44.5477,1934.0834,46.8161,1938.81,41.37" style="stroke: #A80036; stroke-width: 1.0;"/><text fill="#000000" font-family="sans-serif" font-size="13" lengthAdjust="spacingAndGlyphs" textLength="34" x="1758.5" y="90.4951">profile</text><text fill="#000000" font-family="sans-serif" font-size="13" lengthAdjust="spacingAndGlyphs" textLength="7" x="1091.0856" y="178.6314">1</text><!--link StorageResource to Model--><path d="M2041.92,46.022 C1977.55,60.36 1883.96,80.233 1801.5,94 C1542.44,137.255 1232.09,173.124 1096.1,188.049 " fill="none" id="StorageResource-Model" style="stroke: #A80036; stroke-width: 1.0;"/><polygon fill="#A80036" points="1083.1,189.47,1092.4817,192.4671,1088.0703,188.926,1091.6114,184.5146,1083.1,189.47" style="stroke: #A80036; stroke-width: 1.0;"/><line style="stroke: #A80036; stroke-width: 1.0;" x1="1088.0703" x2="1096.025" y1="188.926" y2="188.057"/><polygon fill="#A80036" points="2054.8,43.141,2048.0734,40.5425,2043.0876,45.7523,2049.8142,48.3508,2054.8,43.141" style="stroke: #A80036; stroke-width: 1.0;"/><text fill="#000000" font-family="sans-serif" font-size="13" lengthAdjust="spacingAndGlyphs" textLength="34" x="1899.5" y="90.4951">profile</text><text fill="#000000" font-family="sans-serif" font-size="13" lengthAdjust="spacingAndGlyphs" textLength="7" x="1091.0344" y="203.3082">1</text><!--
@startuml

class "PhysicalProfile" as Model {
 string name

 combine()
 consume()
 create()
 propagate()
 satisfies()
 stats()
 
}

rectangle "MetricComposite" as MetricComposite #lightblue {
}

Model *- -> "1" MetricComposite : capabilities


rectangle "MetricComposite" as MetricComposite #lightblue {
}

Model *- -> "1" MetricComposite : available


rectangle "MetricComposite" as MetricComposite #lightblue {
}

Model *- -> "1" MetricComposite : reserved


rectangle "MetricComposite" as MetricComposite #lightblue {
}

Model *- -> "1" MetricComposite : metrics


rectangle "PhysicalProfile" as PhysicalProfile #lightblue {
}

Model o- -> "1" PhysicalProfile : parent




    rectangle "Device" as Device #lightgreen {
    }
    
        Device   o- -> "1" Model : "profile"
    
    rectangle "AggregatedDevice" as AggregatedDevice #lightgreen {
    }
    
        AggregatedDevice   o- -> "1" Model : "profile"
    
    rectangle "PhysicalProfile" as PhysicalProfile #lightgreen {
    }
    
        PhysicalProfile   o- -> "1" Model : "parent"
    
    rectangle "AcceleratorHardware" as AcceleratorHardware #lightgreen {
    }
    
        AcceleratorHardware   o- -> "1" Model : "profile"
    
    rectangle "ComputeHardware" as ComputeHardware #lightgreen {
    }
    
        ComputeHardware   o- -> "1" Model : "profile"
    
    rectangle "DataCenter" as DataCenter #lightgreen {
    }
    
        DataCenter   o- -> "1" Model : "profile"
    
    rectangle "Hardware" as Hardware #lightgreen {
    }
    
        Hardware   o- -> "1" Model : "profile"
    
    rectangle "NetworkHardware" as NetworkHardware #lightgreen {
    }
    
        NetworkHardware   o- -> "1" Model : "profile"
    
    rectangle "StorageHardware" as StorageHardware #lightgreen {
    }
    
        StorageHardware   o- -> "1" Model : "profile"
    
    rectangle "ResourceInstanceType" as ResourceInstanceType #lightgreen {
    }
    
        ResourceInstanceType   *- -> "1" Model : "profile"
    
    rectangle "AcceleratorResource" as AcceleratorResource #lightgreen {
    }
    
        AcceleratorResource   *- -> "1" Model : "profile"
    
    rectangle "ComputeResource" as ComputeResource #lightgreen {
    }
    
        ComputeResource   *- -> "1" Model : "profile"
    
    rectangle "NetworkResource" as NetworkResource #lightgreen {
    }
    
        NetworkResource   *- -> "1" Model : "profile"
    
    rectangle "Resource" as Resource #lightgreen {
    }
    
        Resource   *- -> "1" Model : "profile"
    
    rectangle "StorageResource" as StorageResource #lightgreen {
    }
    
        StorageResource   *- -> "1" Model : "profile"
    

@enduml

PlantUML version 1.2019.05(Sat Apr 20 09:45:36 PDT 2019)
(GPL source distribution)
Java Runtime: OpenJDK Runtime Environment
JVM: OpenJDK 64-Bit Server VM
Java Version: 12.0.1+12
Operating System: Windows 10
OS Version: 10.0
Default Encoding: Cp1252
Language: en
Country: US
--></g></svg>