<?xml version="1.0" encoding="UTF-8" standalone="no"?><svg xmlns="http://www.w3.org/2000/svg" xmlns:xlink="http://www.w3.org/1999/xlink" contentScriptType="application/ecmascript" contentStyleType="text/css" height="154px" preserveAspectRatio="none" style="width:196px;height:154px;" version="1.1" viewBox="0 0 196 154" width="196px" zoomAndPan="magnify"><defs><filter height="300%" id="fjq51k93zu2b7" width="300%" x="-1" y="-1"><feGaussianBlur result="blurOut" stdDeviation="2.0"/><feColorMatrix in="blurOut" result="blurOut2" type="matrix" values="0 0 0 0 0 0 0 0 0 0 0 0 0 0 0 0 0 0 .4 0"/><feOffset dx="4.0" dy="4.0" in="blurOut2" result="blurOut3"/><feBlend in="SourceGraphic" in2="blurOut3" mode="normal"/></filter></defs><g><!--cluster Data Repository--><polygon fill="#ADD8E6" filter="url(#fjq51k93zu2b7)" points="22,42,139,42,146,65.6094,174,65.6094,174,142,22,142,22,42" style="stroke: #000000; stroke-width: 1.5;"/><line style="stroke: #000000; stroke-width: 1.5;" x1="22" x2="146" y1="65.6094" y2="65.6094"/><text fill="#000000" font-family="sans-serif" font-size="14" font-weight="bold" lengthAdjust="spacingAndGlyphs" textLength="111" x="26" y="58.5332">Data Repository</text><!--class i--><rect fill="#FEFECE" filter="url(#fjq51k93zu2b7)" height="48" id="i" style="stroke: #A80036; stroke-width: 1.5;" width="120" x="38" y="78"/><ellipse cx="53" cy="94" fill="#B4A7E5" rx="11" ry="11" style="stroke: #A80036; stroke-width: 1.0;"/><path d="M53.9531,90.6406 L53.9531,97.2969 L55.6719,97.2969 Q56.2813,97.2969 56.5469,97.5313 Q56.8125,97.7656 56.8125,98.1563 Q56.8125,98.5313 56.5469,98.7656 Q56.2813,99 55.6719,99 L50.5313,99 Q49.9219,99 49.6563,98.7656 Q49.3906,98.5313 49.3906,98.1406 Q49.3906,97.7656 49.6563,97.5313 Q49.9219,97.2969 50.5313,97.2969 L52.25,97.2969 L52.25,90.6406 L50.5313,90.6406 Q49.9219,90.6406 49.6563,90.4063 Q49.3906,90.1719 49.3906,89.7813 Q49.3906,89.4063 49.6563,89.1719 Q49.9219,88.9375 50.5313,88.9375 L55.6719,88.9375 Q56.2813,88.9375 56.5469,89.1719 Q56.8125,89.4063 56.8125,89.7813 Q56.8125,90.1719 56.5469,90.4063 Q56.2813,90.6406 55.6719,90.6406 L53.9531,90.6406 Z "/><text fill="#000000" font-family="sans-serif" font-size="12" font-style="italic" lengthAdjust="spacingAndGlyphs" textLength="88" x="67" y="98.9102">Data Repository</text><line style="stroke: #A80036; stroke-width: 1.5;" x1="39" x2="157" y1="110" y2="110"/><line style="stroke: #A80036; stroke-width: 1.5;" x1="39" x2="157" y1="118" y2="118"/><ellipse cx="53" cy="13" fill="#FEFECE" filter="url(#fjq51k93zu2b7)" rx="5" ry="5" style="stroke: #A80036; stroke-width: 1.5;"/><text fill="#000000" font-family="sans-serif" font-size="12" lengthAdjust="spacingAndGlyphs" textLength="19" x="43.5" y="30.457">CLI</text><ellipse cx="98" cy="13" fill="#FEFECE" filter="url(#fjq51k93zu2b7)" rx="5" ry="5" style="stroke: #A80036; stroke-width: 1.5;"/><text fill="#000000" font-family="sans-serif" font-size="12" lengthAdjust="spacingAndGlyphs" textLength="32" x="82" y="30.457">REST</text><ellipse cx="143" cy="13" fill="#FEFECE" filter="url(#fjq51k93zu2b7)" rx="5" ry="5" style="stroke: #A80036; stroke-width: 1.5;"/><text fill="#000000" font-family="sans-serif" font-size="12" lengthAdjust="spacingAndGlyphs" textLength="25" x="130.5" y="30.457">Web</text><!--link ilol4975 to i--><path d="M54.9336,17.738 C60.216,27.951 75.217,56.953 86.0295,77.857 " fill="none" id="ilol4975-i" style="stroke: #A80036; stroke-width: 1.0;"/><!--link ilol4978 to i--><path d="M98,18.196 C98,28.786 98,57.218 98,77.8142 " fill="none" id="ilol4978-i" style="stroke: #A80036; stroke-width: 1.0;"/><!--link ilol4981 to i--><path d="M141.066,17.738 C135.784,27.951 120.783,56.953 109.971,77.857 " fill="none" id="ilol4981-i" style="stroke: #A80036; stroke-width: 1.0;"/><!--
@startuml



package "Data Repository" #lightblue {

    interface "Data Repository" as i {
    
    }
}

CLI ()- - i
REST ()- - i
Web ()- - i

package "Data Repository" #lightblue {


}



@enduml

PlantUML version 1.2019.05(Sat Apr 20 09:45:36 PDT 2019)
(GPL source distribution)
Java Runtime: OpenJDK Runtime Environment
JVM: OpenJDK 64-Bit Server VM
Java Version: 12.0.1+12
Operating System: Windows 10
OS Version: 10.0
Default Encoding: Cp1252
Language: en
Country: US
--></g></svg>