<?xml version="1.0" encoding="UTF-8" standalone="no"?><svg xmlns="http://www.w3.org/2000/svg" xmlns:xlink="http://www.w3.org/1999/xlink" contentScriptType="application/ecmascript" contentStyleType="text/css" height="261px" preserveAspectRatio="none" style="width:287px;height:261px;" version="1.1" viewBox="0 0 287 261" width="287px" zoomAndPan="magnify"><defs><filter height="300%" id="f18vgj604237wj" width="300%" x="-1" y="-1"><feGaussianBlur result="blurOut" stdDeviation="2.0"/><feColorMatrix in="blurOut" result="blurOut2" type="matrix" values="0 0 0 0 0 0 0 0 0 0 0 0 0 0 0 0 0 0 .4 0"/><feOffset dx="4.0" dy="4.0" in="blurOut2" result="blurOut3"/><feBlend in="SourceGraphic" in2="blurOut3" mode="normal"/></filter></defs><g><!--cluster Service Controller--><polygon fill="#90EE90" filter="url(#f18vgj604237wj)" points="68,42,203,42,210,65.6094,265,65.6094,265,158,68,158,68,42" style="stroke: #000000; stroke-width: 1.5;"/><line style="stroke: #000000; stroke-width: 1.5;" x1="68" x2="210" y1="65.6094" y2="65.6094"/><text fill="#000000" font-family="sans-serif" font-size="14" font-weight="bold" lengthAdjust="spacingAndGlyphs" textLength="129" x="72" y="58.5332">Service Controller</text><polygon fill="#90EE90" filter="url(#f18vgj604237wj)" points="6,194,132,194,139,217.6094,146,217.6094,146,249.2188,6,249.2188,6,194" style="stroke: #000000; stroke-width: 1.5;"/><line style="stroke: #000000; stroke-width: 1.5;" x1="6" x2="139" y1="217.6094" y2="217.6094"/><text fill="#000000" font-family="sans-serif" font-size="14" font-weight="bold" lengthAdjust="spacingAndGlyphs" textLength="120" x="10" y="210.5332">Provision Engine</text><!--class i--><rect fill="#FEFECE" filter="url(#f18vgj604237wj)" height="48" id="i" style="stroke: #A80036; stroke-width: 1.5;" width="130" x="111" y="86"/><ellipse cx="126" cy="102" fill="#B4A7E5" rx="11" ry="11" style="stroke: #A80036; stroke-width: 1.0;"/><path d="M126.9531,98.6406 L126.9531,105.2969 L128.6719,105.2969 Q129.2813,105.2969 129.5469,105.5313 Q129.8125,105.7656 129.8125,106.1563 Q129.8125,106.5313 129.5469,106.7656 Q129.2813,107 128.6719,107 L123.5313,107 Q122.9219,107 122.6563,106.7656 Q122.3906,106.5313 122.3906,106.1406 Q122.3906,105.7656 122.6563,105.5313 Q122.9219,105.2969 123.5313,105.2969 L125.25,105.2969 L125.25,98.6406 L123.5313,98.6406 Q122.9219,98.6406 122.6563,98.4063 Q122.3906,98.1719 122.3906,97.7813 Q122.3906,97.4063 122.6563,97.1719 Q122.9219,96.9375 123.5313,96.9375 L128.6719,96.9375 Q129.2813,96.9375 129.5469,97.1719 Q129.8125,97.4063 129.8125,97.7813 Q129.8125,98.1719 129.5469,98.4063 Q129.2813,98.6406 128.6719,98.6406 L126.9531,98.6406 Z "/><text fill="#000000" font-family="sans-serif" font-size="12" font-style="italic" lengthAdjust="spacingAndGlyphs" textLength="98" x="140" y="106.9102">Service Controller</text><line style="stroke: #A80036; stroke-width: 1.5;" x1="112" x2="240" y1="118" y2="118"/><line style="stroke: #A80036; stroke-width: 1.5;" x1="112" x2="240" y1="126" y2="126"/><ellipse cx="131" cy="13" fill="#FEFECE" filter="url(#f18vgj604237wj)" rx="5" ry="5" style="stroke: #A80036; stroke-width: 1.5;"/><text fill="#000000" font-family="sans-serif" font-size="12" lengthAdjust="spacingAndGlyphs" textLength="19" x="121.5" y="30.457">CLI</text><ellipse cx="176" cy="13" fill="#FEFECE" filter="url(#f18vgj604237wj)" rx="5" ry="5" style="stroke: #A80036; stroke-width: 1.5;"/><text fill="#000000" font-family="sans-serif" font-size="12" lengthAdjust="spacingAndGlyphs" textLength="32" x="160" y="30.457">REST</text><ellipse cx="221" cy="13" fill="#FEFECE" filter="url(#f18vgj604237wj)" rx="5" ry="5" style="stroke: #A80036; stroke-width: 1.5;"/><text fill="#000000" font-family="sans-serif" font-size="12" lengthAdjust="spacingAndGlyphs" textLength="25" x="208.5" y="30.457">Web</text><!--link ilol9456 to i--><path d="M132.934,18.082 C138.384,29.589 154.182,62.941 165.049,85.882 " fill="none" id="ilol9456-i" style="stroke: #A80036; stroke-width: 1.0;"/><!--link ilol9459 to i--><path d="M176,18.082 C176,29.589 176,62.941 176,85.882 " fill="none" id="ilol9459-i" style="stroke: #A80036; stroke-width: 1.0;"/><!--link ilol9462 to i--><path d="M219.066,18.082 C213.616,29.589 197.818,62.941 186.951,85.882 " fill="none" id="ilol9462-i" style="stroke: #A80036; stroke-width: 1.0;"/><!--link Service Controller to Provision Engine--><path d="M76,158.2243 C76,158.3573 76,158.4903 76,158.6234 C76,159.1558 76,159.689 76,160.223 C76,161.2909 76,162.3617 76,163.4336 C76,172.0093 76,180.6608 76,188.5446 " fill="none" id="Service Controller-Provision Engine" style="stroke: #A80036; stroke-width: 1.0;"/><polygon fill="#A80036" points="76,193.8839,80,184.8839,76,188.8839,72,184.8839,76,193.8839" style="stroke: #A80036; stroke-width: 1.0;"/><!--
@startuml


package "Provision Engine" #lightgreen {
    }


package "Service Controller" #lightgreen {

    interface "Service Controller" as i {
    
    }
}

CLI ()- - i
REST ()- - i
Web ()- - i

package "Service Controller" #lightgreen {
    
}


    "Service Controller" - -> "Provision Engine"


@enduml

PlantUML version 1.2019.05(Sat Apr 20 09:45:36 PDT 2019)
(GPL source distribution)
Java Runtime: OpenJDK Runtime Environment
JVM: OpenJDK 64-Bit Server VM
Java Version: 12.0.1+12
Operating System: Windows 10
OS Version: 10.0
Default Encoding: Cp1252
Language: en
Country: US
--></g></svg>