<?xml version="1.0" encoding="UTF-8" standalone="no"?><svg xmlns="http://www.w3.org/2000/svg" xmlns:xlink="http://www.w3.org/1999/xlink" contentScriptType="application/ecmascript" contentStyleType="text/css" height="449px" preserveAspectRatio="none" style="width:782px;height:449px;" version="1.1" viewBox="0 0 782 449" width="782px" zoomAndPan="magnify"><defs><filter height="300%" id="f5hhff2w3e6z4" width="300%" x="-1" y="-1"><feGaussianBlur result="blurOut" stdDeviation="2.0"/><feColorMatrix in="blurOut" result="blurOut2" type="matrix" values="0 0 0 0 0 0 0 0 0 0 0 0 0 0 0 0 0 0 .4 0"/><feOffset dx="4.0" dy="4.0" in="blurOut2" result="blurOut3"/><feBlend in="SourceGraphic" in2="blurOut3" mode="normal"/></filter></defs><g><rect fill="#D3D3D3" height="434.0313" style="stroke: #A80036; stroke-width: 1.0;" width="164" x="196.5" y="4"/><text fill="#000000" font-family="sans-serif" font-size="13" font-weight="bold" lengthAdjust="spacingAndGlyphs" textLength="154" x="199.5" y="17.4951">Common Physical Layer</text><rect fill="#D3D3D3" height="434.0313" style="stroke: #A80036; stroke-width: 1.0;" width="164" x="607.5" y="4"/><text fill="#000000" font-family="sans-serif" font-size="13" font-weight="bold" lengthAdjust="spacingAndGlyphs" textLength="154" x="610.5" y="17.4951">Common Physical Layer</text><line style="stroke: #A80036; stroke-width: 1.0; stroke-dasharray: 5.0,5.0;" x1="54" x2="54" y1="87.6094" y2="350.4219"/><line style="stroke: #A80036; stroke-width: 1.0; stroke-dasharray: 5.0,5.0;" x1="143" x2="143" y1="87.6094" y2="350.4219"/><line style="stroke: #A80036; stroke-width: 1.0; stroke-dasharray: 5.0,5.0;" x1="278" x2="278" y1="87.6094" y2="350.4219"/><line style="stroke: #A80036; stroke-width: 1.0; stroke-dasharray: 5.0,5.0;" x1="641" x2="641" y1="87.6094" y2="350.4219"/><line style="stroke: #A80036; stroke-width: 1.0; stroke-dasharray: 5.0,5.0;" x1="724" x2="724" y1="87.6094" y2="350.4219"/><text fill="#000000" font-family="sans-serif" font-size="14" lengthAdjust="spacingAndGlyphs" textLength="86" x="8" y="84.5332">IT Operations</text><ellipse cx="54" cy="13" fill="#FEFECE" filter="url(#f5hhff2w3e6z4)" rx="8" ry="8" style="stroke: #A80036; stroke-width: 2.0;"/><path d="M54,21 L54,48 M41,29 L67,29 M54,48 L41,63 M54,48 L67,63 " fill="none" filter="url(#f5hhff2w3e6z4)" style="stroke: #A80036; stroke-width: 2.0;"/><text fill="#000000" font-family="sans-serif" font-size="14" lengthAdjust="spacingAndGlyphs" textLength="86" x="8" y="363.9551">IT Operations</text><ellipse cx="54" cy="377.0313" fill="#FEFECE" filter="url(#f5hhff2w3e6z4)" rx="8" ry="8" style="stroke: #A80036; stroke-width: 2.0;"/><path d="M54,385.0313 L54,412.0313 M41,393.0313 L67,393.0313 M54,412.0313 L41,427.0313 M54,412.0313 L67,427.0313 " fill="none" filter="url(#f5hhff2w3e6z4)" style="stroke: #A80036; stroke-width: 2.0;"/><text fill="#000000" font-family="sans-serif" font-size="14" lengthAdjust="spacingAndGlyphs" textLength="60" x="110" y="84.5332">EventBus</text><ellipse cx="143" cy="54" fill="#FEFECE" filter="url(#f5hhff2w3e6z4)" rx="12" ry="12" style="stroke: #A80036; stroke-width: 2.0;"/><line style="stroke: #A80036; stroke-width: 2.0;" x1="131" x2="155" y1="68" y2="68"/><text fill="#000000" font-family="sans-serif" font-size="14" lengthAdjust="spacingAndGlyphs" textLength="60" x="110" y="363.9551">EventBus</text><ellipse cx="143" cy="383.0313" fill="#FEFECE" filter="url(#f5hhff2w3e6z4)" rx="12" ry="12" style="stroke: #A80036; stroke-width: 2.0;"/><line style="stroke: #A80036; stroke-width: 2.0;" x1="131" x2="155" y1="397.0313" y2="397.0313"/><text fill="#000000" font-family="sans-serif" font-size="14" lengthAdjust="spacingAndGlyphs" textLength="18" x="266.5" y="84.5332">cpl</text><path d="M258,42 L258,66 M258,54 L275,54 " fill="none" filter="url(#f5hhff2w3e6z4)" style="stroke: #A80036; stroke-width: 2.0;"/><ellipse cx="287" cy="54" fill="#FFFFFF" filter="url(#f5hhff2w3e6z4)" rx="12" ry="12" style="stroke: #A80036; stroke-width: 2.0;"/><text fill="#000000" font-family="sans-serif" font-size="14" lengthAdjust="spacingAndGlyphs" textLength="18" x="266.5" y="363.9551">cpl</text><path d="M258,371.0313 L258,395.0313 M258,383.0313 L275,383.0313 " fill="none" filter="url(#f5hhff2w3e6z4)" style="stroke: #A80036; stroke-width: 2.0;"/><ellipse cx="287" cy="383.0313" fill="#FFFFFF" filter="url(#f5hhff2w3e6z4)" rx="12" ry="12" style="stroke: #A80036; stroke-width: 2.0;"/><rect fill="#FEFECE" filter="url(#f5hhff2w3e6z4)" height="31.6094" style="stroke: #A80036; stroke-width: 1.5;" width="55" x="612" y="51"/><text fill="#000000" font-family="sans-serif" font-size="14" lengthAdjust="spacingAndGlyphs" textLength="41" x="619" y="72.5332">device</text><rect fill="#FEFECE" filter="url(#f5hhff2w3e6z4)" height="31.6094" style="stroke: #A80036; stroke-width: 1.5;" width="55" x="612" y="349.4219"/><text fill="#000000" font-family="sans-serif" font-size="14" lengthAdjust="spacingAndGlyphs" textLength="41" x="619" y="370.9551">device</text><rect fill="#FEFECE" filter="url(#f5hhff2w3e6z4)" height="31.6094" style="stroke: #A80036; stroke-width: 1.5;" width="82" x="681" y="51"/><text fill="#000000" font-family="sans-serif" font-size="14" lengthAdjust="spacingAndGlyphs" textLength="68" x="688" y="72.5332">datacenter</text><rect fill="#FEFECE" filter="url(#f5hhff2w3e6z4)" height="31.6094" style="stroke: #A80036; stroke-width: 1.5;" width="82" x="681" y="349.4219"/><text fill="#000000" font-family="sans-serif" font-size="14" lengthAdjust="spacingAndGlyphs" textLength="68" x="688" y="370.9551">datacenter</text><polygon fill="#A80036" points="266.5,115.9609,276.5,119.9609,266.5,123.9609,270.5,119.9609" style="stroke: #A80036; stroke-width: 1.0;"/><line style="stroke: #A80036; stroke-width: 1.0;" x1="54" x2="272.5" y1="119.9609" y2="119.9609"/><text fill="#000000" font-family="sans-serif" font-size="13" lengthAdjust="spacingAndGlyphs" textLength="113" x="61" y="115.1045">Enable Data Center</text><polygon fill="#A80036" points="629.5,146.3125,639.5,150.3125,629.5,154.3125,633.5,150.3125" style="stroke: #A80036; stroke-width: 1.0;"/><line style="stroke: #A80036; stroke-width: 1.0;" x1="278.5" x2="635.5" y1="150.3125" y2="150.3125"/><text fill="#000000" font-family="sans-serif" font-size="13" lengthAdjust="spacingAndGlyphs" textLength="285" x="285.5" y="145.4561">create (name: host1,file: ./templates/device.yaml)</text><polygon fill="#A80036" points="629.5,176.6641,639.5,180.6641,629.5,184.6641,633.5,180.6641" style="stroke: #A80036; stroke-width: 1.0;"/><line style="stroke: #A80036; stroke-width: 1.0;" x1="278.5" x2="635.5" y1="180.6641" y2="180.6641"/><text fill="#000000" font-family="sans-serif" font-size="13" lengthAdjust="spacingAndGlyphs" textLength="285" x="285.5" y="175.8076">create (name: host2,file: ./templates/device.yaml)</text><polygon fill="#A80036" points="712,207.0156,722,211.0156,712,215.0156,716,211.0156" style="stroke: #A80036; stroke-width: 1.0;"/><line style="stroke: #A80036; stroke-width: 1.0;" x1="278.5" x2="718" y1="211.0156" y2="211.0156"/><text fill="#000000" font-family="sans-serif" font-size="13" lengthAdjust="spacingAndGlyphs" textLength="109" x="285.5" y="206.1592">create (name: dc1)</text><polygon fill="#A80036" points="712,237.3672,722,241.3672,712,245.3672,716,241.3672" style="stroke: #A80036; stroke-width: 1.0;"/><line style="stroke: #A80036; stroke-width: 1.0;" x1="278.5" x2="718" y1="241.3672" y2="241.3672"/><text fill="#000000" font-family="sans-serif" font-size="13" lengthAdjust="spacingAndGlyphs" textLength="249" x="285.5" y="236.5107">adddevices (name: dc1,items: host1,host2)</text><polygon fill="#A80036" points="712,267.7188,722,271.7188,712,275.7188,716,271.7188" style="stroke: #A80036; stroke-width: 1.0;"/><line style="stroke: #A80036; stroke-width: 1.0;" x1="278.5" x2="718" y1="271.7188" y2="271.7188"/><text fill="#000000" font-family="sans-serif" font-size="13" lengthAdjust="spacingAndGlyphs" textLength="114" x="285.5" y="266.8623">disable (name: dc1)</text><polygon fill="#A80036" points="712,298.0703,722,302.0703,712,306.0703,716,302.0703" style="stroke: #A80036; stroke-width: 1.0;"/><line style="stroke: #A80036; stroke-width: 1.0;" x1="278.5" x2="718" y1="302.0703" y2="302.0703"/><text fill="#000000" font-family="sans-serif" font-size="13" lengthAdjust="spacingAndGlyphs" textLength="111" x="285.5" y="297.2139">enable (name: dc1)</text><polygon fill="#A80036" points="266.5,333.4219,276.5,333.4219,266.5,337.4219" style="stroke: #A80036; stroke-width: 1.0;"/><line style="stroke: #A80036; stroke-width: 1.0; stroke-dasharray: 2.0,2.0;" x1="143" x2="277.5" y1="332.4219" y2="332.4219"/><text fill="#000000" font-family="sans-serif" font-size="13" lengthAdjust="spacingAndGlyphs" textLength="58" x="150" y="327.5654">method2()</text><!--
@startuml

actor "IT Operations"


entity EventBus

box Common Physical Layer #lightgray
    boundary cpl #white
end box


box Common Physical Layer #lightgray
            participant device
            participant datacenter
    end box


"IT Operations" -> cpl: Enable Data Center

    cpl -> "device": create (name: host1,file: ./templates/device.yaml)


    cpl -> "device": create (name: host2,file: ./templates/device.yaml)


    cpl -> "datacenter": create (name: dc1)


    cpl -> "datacenter": adddevices (name: dc1,items: host1,host2)


    cpl -> "datacenter": disable (name: dc1)


    cpl -> "datacenter": enable (name: dc1)





EventBus - -/ cpl : method2()
@enduml

PlantUML version 1.2019.05(Sat Apr 20 09:45:36 PDT 2019)
(GPL source distribution)
Java Runtime: OpenJDK Runtime Environment
JVM: OpenJDK 64-Bit Server VM
Java Version: 12.0.1+12
Operating System: Windows 10
OS Version: 10.0
Default Encoding: Cp1252
Language: en
Country: US
--></g></svg>