<?xml version="1.0" encoding="UTF-8" standalone="no"?><svg xmlns="http://www.w3.org/2000/svg" xmlns:xlink="http://www.w3.org/1999/xlink" contentScriptType="application/ecmascript" contentStyleType="text/css" height="570px" preserveAspectRatio="none" style="width:923px;height:570px;" version="1.1" viewBox="0 0 923 570" width="923px" zoomAndPan="magnify"><defs><filter height="300%" id="f1lp880de8b9k1" width="300%" x="-1" y="-1"><feGaussianBlur result="blurOut" stdDeviation="2.0"/><feColorMatrix in="blurOut" result="blurOut2" type="matrix" values="0 0 0 0 0 0 0 0 0 0 0 0 0 0 0 0 0 0 .4 0"/><feOffset dx="4.0" dy="4.0" in="blurOut2" result="blurOut3"/><feBlend in="SourceGraphic" in2="blurOut3" mode="normal"/></filter></defs><g><rect fill="#D3D3D3" height="555.4375" style="stroke: #A80036; stroke-width: 1.0;" width="164" x="196.5" y="4"/><text fill="#000000" font-family="sans-serif" font-size="13" font-weight="bold" lengthAdjust="spacingAndGlyphs" textLength="154" x="199.5" y="17.4951">Common Physical Layer</text><rect fill="#D3D3D3" height="555.4375" style="stroke: #A80036; stroke-width: 1.0;" width="305" x="607.5" y="4"/><text fill="#000000" font-family="sans-serif" font-size="13" font-weight="bold" lengthAdjust="spacingAndGlyphs" textLength="154" x="681" y="17.4951">Common Physical Layer</text><line style="stroke: #A80036; stroke-width: 1.0; stroke-dasharray: 5.0,5.0;" x1="54" x2="54" y1="87.6094" y2="471.8281"/><line style="stroke: #A80036; stroke-width: 1.0; stroke-dasharray: 5.0,5.0;" x1="143" x2="143" y1="87.6094" y2="471.8281"/><line style="stroke: #A80036; stroke-width: 1.0; stroke-dasharray: 5.0,5.0;" x1="278" x2="278" y1="87.6094" y2="471.8281"/><line style="stroke: #A80036; stroke-width: 1.0; stroke-dasharray: 5.0,5.0;" x1="640.5" x2="640.5" y1="87.6094" y2="471.8281"/><line style="stroke: #A80036; stroke-width: 1.0; stroke-dasharray: 5.0,5.0;" x1="746.5" x2="746.5" y1="87.6094" y2="471.8281"/><line style="stroke: #A80036; stroke-width: 1.0; stroke-dasharray: 5.0,5.0;" x1="865.5" x2="865.5" y1="87.6094" y2="471.8281"/><text fill="#000000" font-family="sans-serif" font-size="14" lengthAdjust="spacingAndGlyphs" textLength="86" x="8" y="84.5332">IT Operations</text><ellipse cx="54" cy="13" fill="#FEFECE" filter="url(#f1lp880de8b9k1)" rx="8" ry="8" style="stroke: #A80036; stroke-width: 2.0;"/><path d="M54,21 L54,48 M41,29 L67,29 M54,48 L41,63 M54,48 L67,63 " fill="none" filter="url(#f1lp880de8b9k1)" style="stroke: #A80036; stroke-width: 2.0;"/><text fill="#000000" font-family="sans-serif" font-size="14" lengthAdjust="spacingAndGlyphs" textLength="86" x="8" y="485.3613">IT Operations</text><ellipse cx="54" cy="498.4375" fill="#FEFECE" filter="url(#f1lp880de8b9k1)" rx="8" ry="8" style="stroke: #A80036; stroke-width: 2.0;"/><path d="M54,506.4375 L54,533.4375 M41,514.4375 L67,514.4375 M54,533.4375 L41,548.4375 M54,533.4375 L67,548.4375 " fill="none" filter="url(#f1lp880de8b9k1)" style="stroke: #A80036; stroke-width: 2.0;"/><text fill="#000000" font-family="sans-serif" font-size="14" lengthAdjust="spacingAndGlyphs" textLength="60" x="110" y="84.5332">EventBus</text><ellipse cx="143" cy="54" fill="#FEFECE" filter="url(#f1lp880de8b9k1)" rx="12" ry="12" style="stroke: #A80036; stroke-width: 2.0;"/><line style="stroke: #A80036; stroke-width: 2.0;" x1="131" x2="155" y1="68" y2="68"/><text fill="#000000" font-family="sans-serif" font-size="14" lengthAdjust="spacingAndGlyphs" textLength="60" x="110" y="485.3613">EventBus</text><ellipse cx="143" cy="504.4375" fill="#FEFECE" filter="url(#f1lp880de8b9k1)" rx="12" ry="12" style="stroke: #A80036; stroke-width: 2.0;"/><line style="stroke: #A80036; stroke-width: 2.0;" x1="131" x2="155" y1="518.4375" y2="518.4375"/><text fill="#000000" font-family="sans-serif" font-size="14" lengthAdjust="spacingAndGlyphs" textLength="18" x="266.5" y="84.5332">cpl</text><path d="M258,42 L258,66 M258,54 L275,54 " fill="none" filter="url(#f1lp880de8b9k1)" style="stroke: #A80036; stroke-width: 2.0;"/><ellipse cx="287" cy="54" fill="#FFFFFF" filter="url(#f1lp880de8b9k1)" rx="12" ry="12" style="stroke: #A80036; stroke-width: 2.0;"/><text fill="#000000" font-family="sans-serif" font-size="14" lengthAdjust="spacingAndGlyphs" textLength="18" x="266.5" y="485.3613">cpl</text><path d="M258,492.4375 L258,516.4375 M258,504.4375 L275,504.4375 " fill="none" filter="url(#f1lp880de8b9k1)" style="stroke: #A80036; stroke-width: 2.0;"/><ellipse cx="287" cy="504.4375" fill="#FFFFFF" filter="url(#f1lp880de8b9k1)" rx="12" ry="12" style="stroke: #A80036; stroke-width: 2.0;"/><rect fill="#FEFECE" filter="url(#f1lp880de8b9k1)" height="31.6094" style="stroke: #A80036; stroke-width: 1.5;" width="55" x="611.5" y="51"/><text fill="#000000" font-family="sans-serif" font-size="14" lengthAdjust="spacingAndGlyphs" textLength="41" x="618.5" y="72.5332">device</text><rect fill="#FEFECE" filter="url(#f1lp880de8b9k1)" height="31.6094" style="stroke: #A80036; stroke-width: 1.5;" width="55" x="611.5" y="470.8281"/><text fill="#000000" font-family="sans-serif" font-size="14" lengthAdjust="spacingAndGlyphs" textLength="41" x="618.5" y="492.3613">device</text><rect fill="#FEFECE" filter="url(#f1lp880de8b9k1)" height="31.6094" style="stroke: #A80036; stroke-width: 1.5;" width="128" x="680.5" y="51"/><text fill="#000000" font-family="sans-serif" font-size="14" lengthAdjust="spacingAndGlyphs" textLength="114" x="687.5" y="72.5332">aggregateddevice</text><rect fill="#FEFECE" filter="url(#f1lp880de8b9k1)" height="31.6094" style="stroke: #A80036; stroke-width: 1.5;" width="128" x="680.5" y="470.8281"/><text fill="#000000" font-family="sans-serif" font-size="14" lengthAdjust="spacingAndGlyphs" textLength="114" x="687.5" y="492.3613">aggregateddevice</text><rect fill="#FEFECE" filter="url(#f1lp880de8b9k1)" height="31.6094" style="stroke: #A80036; stroke-width: 1.5;" width="82" x="822.5" y="51"/><text fill="#000000" font-family="sans-serif" font-size="14" lengthAdjust="spacingAndGlyphs" textLength="68" x="829.5" y="72.5332">datacenter</text><rect fill="#FEFECE" filter="url(#f1lp880de8b9k1)" height="31.6094" style="stroke: #A80036; stroke-width: 1.5;" width="82" x="822.5" y="470.8281"/><text fill="#000000" font-family="sans-serif" font-size="14" lengthAdjust="spacingAndGlyphs" textLength="68" x="829.5" y="492.3613">datacenter</text><polygon fill="#A80036" points="266.5,115.9609,276.5,119.9609,266.5,123.9609,270.5,119.9609" style="stroke: #A80036; stroke-width: 1.0;"/><line style="stroke: #A80036; stroke-width: 1.0;" x1="54" x2="272.5" y1="119.9609" y2="119.9609"/><text fill="#000000" font-family="sans-serif" font-size="13" lengthAdjust="spacingAndGlyphs" textLength="114" x="61" y="115.1045">Update Data Center</text><polygon fill="#A80036" points="629,146.3125,639,150.3125,629,154.3125,633,150.3125" style="stroke: #A80036; stroke-width: 1.0;"/><line style="stroke: #A80036; stroke-width: 1.0;" x1="278.5" x2="635" y1="150.3125" y2="150.3125"/><text fill="#000000" font-family="sans-serif" font-size="13" lengthAdjust="spacingAndGlyphs" textLength="285" x="285.5" y="145.4561">create (name: host1,file: ./templates/device.yaml)</text><polygon fill="#A80036" points="629,176.6641,639,180.6641,629,184.6641,633,180.6641" style="stroke: #A80036; stroke-width: 1.0;"/><line style="stroke: #A80036; stroke-width: 1.0;" x1="278.5" x2="635" y1="180.6641" y2="180.6641"/><text fill="#000000" font-family="sans-serif" font-size="13" lengthAdjust="spacingAndGlyphs" textLength="285" x="285.5" y="175.8076">create (name: host2,file: ./templates/device.yaml)</text><polygon fill="#A80036" points="629,207.0156,639,211.0156,629,215.0156,633,211.0156" style="stroke: #A80036; stroke-width: 1.0;"/><line style="stroke: #A80036; stroke-width: 1.0;" x1="278.5" x2="635" y1="211.0156" y2="211.0156"/><text fill="#000000" font-family="sans-serif" font-size="13" lengthAdjust="spacingAndGlyphs" textLength="285" x="285.5" y="206.1592">create (name: host3,file: ./templates/device.yaml)</text><polygon fill="#A80036" points="629,237.3672,639,241.3672,629,245.3672,633,241.3672" style="stroke: #A80036; stroke-width: 1.0;"/><line style="stroke: #A80036; stroke-width: 1.0;" x1="278.5" x2="635" y1="241.3672" y2="241.3672"/><text fill="#000000" font-family="sans-serif" font-size="13" lengthAdjust="spacingAndGlyphs" textLength="285" x="285.5" y="236.5107">create (name: host4,file: ./templates/device.yaml)</text><polygon fill="#A80036" points="629,267.7188,639,271.7188,629,275.7188,633,271.7188" style="stroke: #A80036; stroke-width: 1.0;"/><line style="stroke: #A80036; stroke-width: 1.0;" x1="278.5" x2="635" y1="271.7188" y2="271.7188"/><text fill="#000000" font-family="sans-serif" font-size="13" lengthAdjust="spacingAndGlyphs" textLength="285" x="285.5" y="266.8623">create (name: host5,file: ./templates/device.yaml)</text><polygon fill="#A80036" points="734.5,298.0703,744.5,302.0703,734.5,306.0703,738.5,302.0703" style="stroke: #A80036; stroke-width: 1.0;"/><line style="stroke: #A80036; stroke-width: 1.0;" x1="278.5" x2="740.5" y1="302.0703" y2="302.0703"/><text fill="#000000" font-family="sans-serif" font-size="13" lengthAdjust="spacingAndGlyphs" textLength="109" x="285.5" y="297.2139">create (name: ad1)</text><polygon fill="#A80036" points="734.5,328.4219,744.5,332.4219,734.5,336.4219,738.5,332.4219" style="stroke: #A80036; stroke-width: 1.0;"/><line style="stroke: #A80036; stroke-width: 1.0;" x1="278.5" x2="740.5" y1="332.4219" y2="332.4219"/><text fill="#000000" font-family="sans-serif" font-size="13" lengthAdjust="spacingAndGlyphs" textLength="249" x="285.5" y="327.5654">adddevices (name: ad2,items: host3,host4)</text><polygon fill="#A80036" points="853.5,358.7734,863.5,362.7734,853.5,366.7734,857.5,362.7734" style="stroke: #A80036; stroke-width: 1.0;"/><line style="stroke: #A80036; stroke-width: 1.0;" x1="278.5" x2="859.5" y1="362.7734" y2="362.7734"/><text fill="#000000" font-family="sans-serif" font-size="13" lengthAdjust="spacingAndGlyphs" textLength="109" x="285.5" y="357.917">create (name: dc1)</text><polygon fill="#A80036" points="853.5,389.125,863.5,393.125,853.5,397.125,857.5,393.125" style="stroke: #A80036; stroke-width: 1.0;"/><line style="stroke: #A80036; stroke-width: 1.0;" x1="278.5" x2="859.5" y1="393.125" y2="393.125"/><text fill="#000000" font-family="sans-serif" font-size="13" lengthAdjust="spacingAndGlyphs" textLength="249" x="285.5" y="388.2686">adddevices (name: dc1,items: host1,host2)</text><polygon fill="#A80036" points="853.5,419.4766,863.5,423.4766,853.5,427.4766,857.5,423.4766" style="stroke: #A80036; stroke-width: 1.0;"/><line style="stroke: #A80036; stroke-width: 1.0;" x1="278.5" x2="859.5" y1="423.4766" y2="423.4766"/><text fill="#000000" font-family="sans-serif" font-size="13" lengthAdjust="spacingAndGlyphs" textLength="202" x="285.5" y="418.6201">adddevices (name: dc1,items: ad1)</text><polygon fill="#A80036" points="266.5,454.8281,276.5,454.8281,266.5,458.8281" style="stroke: #A80036; stroke-width: 1.0;"/><line style="stroke: #A80036; stroke-width: 1.0; stroke-dasharray: 2.0,2.0;" x1="143" x2="277.5" y1="453.8281" y2="453.8281"/><text fill="#000000" font-family="sans-serif" font-size="13" lengthAdjust="spacingAndGlyphs" textLength="58" x="150" y="448.9717">method2()</text><!--
@startuml

actor "IT Operations"


entity EventBus

box Common Physical Layer #lightgray
    boundary cpl #white
end box


box Common Physical Layer #lightgray
            participant device
            participant aggregateddevice
            participant datacenter
    end box


"IT Operations" -> cpl: Update Data Center

    cpl -> "device": create (name: host1,file: ./templates/device.yaml)


    cpl -> "device": create (name: host2,file: ./templates/device.yaml)


    cpl -> "device": create (name: host3,file: ./templates/device.yaml)


    cpl -> "device": create (name: host4,file: ./templates/device.yaml)


    cpl -> "device": create (name: host5,file: ./templates/device.yaml)


    cpl -> "aggregateddevice": create (name: ad1)


    cpl -> "aggregateddevice": adddevices (name: ad2,items: host3,host4)


    cpl -> "datacenter": create (name: dc1)


    cpl -> "datacenter": adddevices (name: dc1,items: host1,host2)


    cpl -> "datacenter": adddevices (name: dc1,items: ad1)





EventBus - -/ cpl : method2()
@enduml

PlantUML version 1.2019.05(Sat Apr 20 09:45:36 PDT 2019)
(GPL source distribution)
Java Runtime: OpenJDK Runtime Environment
JVM: OpenJDK 64-Bit Server VM
Java Version: 12.0.1+12
Operating System: Windows 10
OS Version: 10.0
Default Encoding: Cp1252
Language: en
Country: US
--></g></svg>