<?xml version="1.0" encoding="UTF-8" standalone="no"?><svg xmlns="http://www.w3.org/2000/svg" xmlns:xlink="http://www.w3.org/1999/xlink" contentScriptType="application/ecmascript" contentStyleType="text/css" height="196px" preserveAspectRatio="none" style="width:230px;height:196px;" version="1.1" viewBox="0 0 230 196" width="230px" zoomAndPan="magnify"><defs><filter height="300%" id="ftg1iynbs3fxi" width="300%" x="-1" y="-1"><feGaussianBlur result="blurOut" stdDeviation="2.0"/><feColorMatrix in="blurOut" result="blurOut2" type="matrix" values="0 0 0 0 0 0 0 0 0 0 0 0 0 0 0 0 0 0 .4 0"/><feOffset dx="4.0" dy="4.0" in="blurOut2" result="blurOut3"/><feBlend in="SourceGraphic" in2="blurOut3" mode="normal"/></filter></defs><g><!--cluster Telemetry Producer--><polygon fill="#D3D3D3" filter="url(#ftg1iynbs3fxi)" points="22,42,166,42,173,65.6094,208,65.6094,208,184,22,184,22,42" style="stroke: #000000; stroke-width: 1.5;"/><line style="stroke: #000000; stroke-width: 1.5;" x1="22" x2="173" y1="65.6094" y2="65.6094"/><text fill="#000000" font-family="sans-serif" font-size="14" font-weight="bold" lengthAdjust="spacingAndGlyphs" textLength="138" x="26" y="58.5332">Telemetry Producer</text><!--class i--><rect fill="#FEFECE" filter="url(#ftg1iynbs3fxi)" height="89.5078" id="i" style="stroke: #A80036; stroke-width: 1.5;" width="154" x="38" y="78"/><ellipse cx="59.3" cy="94" fill="#B4A7E5" rx="11" ry="11" style="stroke: #A80036; stroke-width: 1.0;"/><path d="M60.2531,90.6406 L60.2531,97.2969 L61.9719,97.2969 Q62.5813,97.2969 62.8469,97.5313 Q63.1125,97.7656 63.1125,98.1563 Q63.1125,98.5313 62.8469,98.7656 Q62.5813,99 61.9719,99 L56.8313,99 Q56.2219,99 55.9563,98.7656 Q55.6906,98.5313 55.6906,98.1406 Q55.6906,97.7656 55.9563,97.5313 Q56.2219,97.2969 56.8313,97.2969 L58.55,97.2969 L58.55,90.6406 L56.8313,90.6406 Q56.2219,90.6406 55.9563,90.4063 Q55.6906,90.1719 55.6906,89.7813 Q55.6906,89.4063 55.9563,89.1719 Q56.2219,88.9375 56.8313,88.9375 L61.9719,88.9375 Q62.5813,88.9375 62.8469,89.1719 Q63.1125,89.4063 63.1125,89.7813 Q63.1125,90.1719 62.8469,90.4063 Q62.5813,90.6406 61.9719,90.6406 L60.2531,90.6406 Z "/><text fill="#000000" font-family="sans-serif" font-size="12" font-style="italic" lengthAdjust="spacingAndGlyphs" textLength="108" x="74.7" y="98.9102">Telemetry Producer</text><line style="stroke: #A80036; stroke-width: 1.5;" x1="39" x2="191" y1="110" y2="110"/><line style="stroke: #A80036; stroke-width: 1.5;" x1="39" x2="191" y1="118" y2="118"/><text fill="#000000" font-family="sans-serif" font-size="11" lengthAdjust="spacingAndGlyphs" textLength="137" x="44" y="133.4189">/edgemere/cpl/tp/setparent()</text><text fill="#000000" font-family="sans-serif" font-size="11" lengthAdjust="spacingAndGlyphs" textLength="133" x="44" y="147.2549">/edgemere/cpl/tp/stats/get()</text><text fill="#000000" font-family="sans-serif" font-size="11" lengthAdjust="spacingAndGlyphs" textLength="142" x="44" y="161.0908">/edgemere/cpl/tp/stats/send()</text><ellipse cx="70" cy="13" fill="#FEFECE" filter="url(#ftg1iynbs3fxi)" rx="5" ry="5" style="stroke: #A80036; stroke-width: 1.5;"/><text fill="#000000" font-family="sans-serif" font-size="12" lengthAdjust="spacingAndGlyphs" textLength="19" x="60.5" y="30.457">CLI</text><ellipse cx="115" cy="13" fill="#FEFECE" filter="url(#ftg1iynbs3fxi)" rx="5" ry="5" style="stroke: #A80036; stroke-width: 1.5;"/><text fill="#000000" font-family="sans-serif" font-size="12" lengthAdjust="spacingAndGlyphs" textLength="32" x="99" y="30.457">REST</text><ellipse cx="160" cy="13" fill="#FEFECE" filter="url(#ftg1iynbs3fxi)" rx="5" ry="5" style="stroke: #A80036; stroke-width: 1.5;"/><text fill="#000000" font-family="sans-serif" font-size="12" lengthAdjust="spacingAndGlyphs" textLength="25" x="147.5" y="30.457">Web</text><!--link ilol2798 to i--><path d="M71.6016,17.844 C75.6567,27.576 86.7145,54.115 96.6527,77.966 " fill="none" id="ilol2798-i" style="stroke: #A80036; stroke-width: 1.0;"/><!--link ilol2801 to i--><path d="M115,18.102 C115,28.043 115,54.347 115,77.999 " fill="none" id="ilol2801-i" style="stroke: #A80036; stroke-width: 1.0;"/><!--link ilol2804 to i--><path d="M158.398,17.844 C154.343,27.576 143.285,54.115 133.347,77.966 " fill="none" id="ilol2804-i" style="stroke: #A80036; stroke-width: 1.0;"/><!--
@startuml



package "Telemetry Producer" #lightgray {

    interface "Telemetry Producer" as i {
            /edgemere/cpl/tp/setparent()
            /edgemere/cpl/tp/stats/get()
            /edgemere/cpl/tp/stats/send()
    
    }
}

CLI ()- - i
REST ()- - i
Web ()- - i

package "Telemetry Producer" #lightgray {
    
}



@enduml

PlantUML version 1.2019.05(Sat Apr 20 09:45:36 PDT 2019)
(GPL source distribution)
Java Runtime: OpenJDK Runtime Environment
JVM: OpenJDK 64-Bit Server VM
Java Version: 12.0.1+12
Operating System: Windows 10
OS Version: 10.0
Default Encoding: Cp1252
Language: en
Country: US
--></g></svg>