<?xml version="1.0" encoding="UTF-8" standalone="no"?><svg xmlns="http://www.w3.org/2000/svg" xmlns:xlink="http://www.w3.org/1999/xlink" contentScriptType="application/ecmascript" contentStyleType="text/css" height="428px" preserveAspectRatio="none" style="width:1142px;height:428px;" version="1.1" viewBox="0 0 1142 428" width="1142px" zoomAndPan="magnify"><defs><filter height="300%" id="fb4ij5ix2syst" width="300%" x="-1" y="-1"><feGaussianBlur result="blurOut" stdDeviation="2.0"/><feColorMatrix in="blurOut" result="blurOut2" type="matrix" values="0 0 0 0 0 0 0 0 0 0 0 0 0 0 0 0 0 0 .4 0"/><feOffset dx="4.0" dy="4.0" in="blurOut2" result="blurOut3"/><feBlend in="SourceGraphic" in2="blurOut3" mode="normal"/></filter></defs><g><!--cluster sdi_ioStack--><rect fill="#FFFFE0" filter="url(#fb4ij5ix2syst)" height="115" style="stroke: #000000; stroke-width: 1.5;" width="114" x="687" y="146"/><text fill="#000000" font-family="sans-serif" font-size="14" font-weight="bold" lengthAdjust="spacingAndGlyphs" textLength="42" x="723" y="162.5332">sdi_io</text><!--cluster sdi--><polygon fill="#FFFFE0" filter="url(#fb4ij5ix2syst)" points="22,24,49,24,56,47.6094,655,47.6094,655,341,22,341,22,24" style="stroke: #000000; stroke-width: 1.5;"/><line style="stroke: #000000; stroke-width: 1.5;" x1="22" x2="56" y1="47.6094" y2="47.6094"/><text fill="#000000" font-family="sans-serif" font-size="14" font-weight="bold" lengthAdjust="spacingAndGlyphs" textLength="21" x="26" y="40.5332">sdi</text><!--entity sdi_ioStacksnet--><path d="M716,190 L772,190 C777,190 777,203.8047 777,203.8047 C777,203.8047 777,217.6094 772,217.6094 L716,217.6094 C711,217.6094 711,203.8047 711,203.8047 C711,203.8047 711,190 716,190 " fill="#000000" filter="url(#fb4ij5ix2syst)" style="stroke: #A80036; stroke-width: 1.5;"/><path d="M772,190 C767,190 767,203.8047 767,203.8047 C767,217.6094 772,217.6094 772,217.6094 " fill="none" style="stroke: #A80036; stroke-width: 1.5;"/><text fill="#FFFFFF" font-family="sans-serif" font-size="14" font-weight="bold" lengthAdjust="spacingAndGlyphs" textLength="46" x="716" y="209.5332">parent</text><!--entity childrennet--><path d="M220,197 L288,197 C293,197 293,210.8047 293,210.8047 C293,210.8047 293,224.6094 288,224.6094 L220,224.6094 C215,224.6094 215,210.8047 215,210.8047 C215,210.8047 215,197 220,197 " fill="#000000" filter="url(#fb4ij5ix2syst)" style="stroke: #A80036; stroke-width: 1.5;"/><path d="M288,197 C283,197 283,210.8047 283,210.8047 C283,224.6094 288,224.6094 288,224.6094 " fill="none" style="stroke: #A80036; stroke-width: 1.5;"/><text fill="#FFFFFF" font-family="sans-serif" font-size="14" font-weight="bold" lengthAdjust="spacingAndGlyphs" textLength="58" x="220" y="216.5332">children</text><!--entity siblingnet--><path d="M225.5,97 L282.5,97 C287.5,97 287.5,110.8047 287.5,110.8047 C287.5,110.8047 287.5,124.6094 282.5,124.6094 L225.5,124.6094 C220.5,124.6094 220.5,110.8047 220.5,110.8047 C220.5,110.8047 220.5,97 225.5,97 " fill="#0000FF" filter="url(#fb4ij5ix2syst)" style="stroke: #A80036; stroke-width: 1.5;"/><path d="M282.5,97 C277.5,97 277.5,110.8047 277.5,110.8047 C277.5,124.6094 282.5,124.6094 282.5,124.6094 " fill="none" style="stroke: #A80036; stroke-width: 1.5;"/><text fill="#FFFFFF" font-family="sans-serif" font-size="14" font-weight="bold" lengthAdjust="spacingAndGlyphs" textLength="47" x="225.5" y="116.5332">sibling</text><!--entity parentnet--><path d="M226,297 L282,297 C287,297 287,310.8047 287,310.8047 C287,310.8047 287,324.6094 282,324.6094 L226,324.6094 C221,324.6094 221,310.8047 221,310.8047 C221,310.8047 221,297 226,297 " fill="#FF0000" filter="url(#fb4ij5ix2syst)" style="stroke: #A80036; stroke-width: 1.5;"/><path d="M282,297 C277,297 277,310.8047 277,310.8047 C277,324.6094 282,324.6094 282,324.6094 " fill="none" style="stroke: #A80036; stroke-width: 1.5;"/><text fill="#FFFFFF" font-family="sans-serif" font-size="14" font-weight="bold" lengthAdjust="spacingAndGlyphs" textLength="46" x="226" y="316.5332">parent</text><!--entity orchestratorService--><polygon fill="#FEFECE" filter="url(#fb4ij5ix2syst)" points="38,247,48,237,155,237,155,274.6094,145,284.6094,38,284.6094,38,247" style="stroke: #000000; stroke-width: 1.5;"/><line style="stroke: #000000; stroke-width: 1.5;" x1="145" x2="154" y1="247" y2="238"/><line style="stroke: #000000; stroke-width: 1.5;" x1="38" x2="145" y1="247" y2="247"/><line style="stroke: #000000; stroke-width: 1.5;" x1="145" x2="145" y1="247" y2="284.6094"/><text fill="#000000" font-family="sans-serif" font-size="14" lengthAdjust="spacingAndGlyphs" textLength="77" x="53" y="271.5332">orchestrator</text><!--entity frontendService--><polygon fill="#FEFECE" filter="url(#fb4ij5ix2syst)" points="50,70,60,60,143,60,143,97.6094,133,107.6094,50,107.6094,50,70" style="stroke: #000000; stroke-width: 1.5;"/><line style="stroke: #000000; stroke-width: 1.5;" x1="133" x2="142" y1="70" y2="61"/><line style="stroke: #000000; stroke-width: 1.5;" x1="50" x2="133" y1="70" y2="70"/><line style="stroke: #000000; stroke-width: 1.5;" x1="133" x2="133" y1="70" y2="107.6094"/><text fill="#000000" font-family="sans-serif" font-size="14" lengthAdjust="spacingAndGlyphs" textLength="53" x="65" y="94.5332">frontend</text><!--entity gwService--><polygon fill="#FEFECE" filter="url(#fb4ij5ix2syst)" points="68,153,78,143,125,143,125,180.6094,115,190.6094,68,190.6094,68,153" style="stroke: #000000; stroke-width: 1.5;"/><line style="stroke: #000000; stroke-width: 1.5;" x1="115" x2="124" y1="153" y2="144"/><line style="stroke: #000000; stroke-width: 1.5;" x1="68" x2="115" y1="153" y2="153"/><line style="stroke: #000000; stroke-width: 1.5;" x1="115" x2="115" y1="153" y2="190.6094"/><text fill="#000000" font-family="sans-serif" font-size="14" lengthAdjust="spacingAndGlyphs" textLength="17" x="83" y="177.5332">gw</text><!--entity sdi_ioimage--><rect fill="#FEFECE" filter="url(#fb4ij5ix2syst)" height="33.6094" style="stroke: #000000; stroke-width: 1.5;" width="53" x="574" y="228"/><rect fill="#FEFECE" height="33.6094" style="stroke: #000000; stroke-width: 1.5;" width="53" x="570" y="224"/><text fill="#000000" font-family="sans-serif" font-size="14" lengthAdjust="spacingAndGlyphs" textLength="37" x="578" y="246.5332">sdi_io</text><!--entity sdi_webimage--><rect fill="#FEFECE" filter="url(#fb4ij5ix2syst)" height="40.6094" style="stroke: #000000; stroke-width: 1.5;" width="81" x="558" y="60.5"/><polygon fill="#FEFECE" points="622,65.5,622,79.5,634,79.5,634,71.5,628,65.5,622,65.5" style="stroke: #000000; stroke-width: 1.5;"/><line style="stroke: #000000; stroke-width: 1.5;" x1="628" x2="628" y1="65.5" y2="71.5"/><line style="stroke: #000000; stroke-width: 1.5;" x1="634" x2="628" y1="71.5" y2="71.5"/><text fill="#000000" font-family="sans-serif" font-size="14" lengthAdjust="spacingAndGlyphs" textLength="51" x="568" y="88.0332">sdi_web</text><!--entity sdi_gwimage--><rect fill="#FEFECE" filter="url(#fb4ij5ix2syst)" height="40.6094" style="stroke: #000000; stroke-width: 1.5;" width="73" x="562" y="140.5"/><polygon fill="#FEFECE" points="618,145.5,618,159.5,630,159.5,630,151.5,624,145.5,618,145.5" style="stroke: #000000; stroke-width: 1.5;"/><line style="stroke: #000000; stroke-width: 1.5;" x1="624" x2="624" y1="145.5" y2="151.5"/><line style="stroke: #000000; stroke-width: 1.5;" x1="630" x2="624" y1="151.5" y2="151.5"/><text fill="#000000" font-family="sans-serif" font-size="14" lengthAdjust="spacingAndGlyphs" textLength="43" x="572" y="168.0332">sdi_gw</text><!--entity ailtire_appname_family--><path d="M405,372 L405,396 M405,384 L422,384 " fill="none" filter="url(#fb4ij5ix2syst)" style="stroke: #A80036; stroke-width: 2.0;"/><ellipse cx="434" cy="384" fill="#FF0000" filter="url(#fb4ij5ix2syst)" rx="12" ry="12" style="stroke: #A80036; stroke-width: 2.0;"/><text fill="#000000" font-family="sans-serif" font-size="14" lengthAdjust="spacingAndGlyphs" textLength="145" x="353" y="414.5332">ailtire_appname_family</text><!--entity ailtire_appname_sdi_family--><ellipse cx="1044.5" cy="261" fill="#000000" filter="url(#fb4ij5ix2syst)" rx="12" ry="12" style="stroke: #A80036; stroke-width: 2.0;"/><line style="stroke: #A80036; stroke-width: 2.0;" x1="1032.5" x2="1056.5" y1="275" y2="275"/><text fill="#000000" font-family="sans-serif" font-size="14" lengthAdjust="spacingAndGlyphs" textLength="171" x="959" y="291.5332">ailtire_appname_sdi_family</text><!--link childrennet to ailtire_appname_sdi_family--><path d="M281.684,225.026 C338.25,253.413 475.079,315 597.5,315 C597.5,315 597.5,315 838,315 C881.279,315 928.523,305.358 966.788,295 " fill="none" id="childrennet-ailtire_appname_sdi_family" style="stroke: #000000; stroke-width: 1.0;"/><!--link parentnet to ailtire_appname_family--><path d="M284.138,325.0963 C308.369,336.8188 343.46,353.7947 372.493,367.84 " fill="none" id="parentnet-ailtire_appname_family" style="stroke: #FF0000; stroke-width: 1.0;"/><!--link orchestratorService to childrennet--><path d="M155.402,242.382 C175.263,235.996 196.975,229.015 214.867,223.261 " fill="none" id="orchestratorService-childrennet" style="stroke: #000000; stroke-width: 1.0;"/><!--link orchestratorService to parentnet--><path d="M155.402,279.618 C177.508,286.726 201.907,294.571 220.78,300.64 " fill="none" id="orchestratorService-parentnet" style="stroke: #FF0000; stroke-width: 1.0;"/><!--link frontendService to siblingnet--><path d="M143.314,91.955 C168.04,96.248 197.982,101.447 220.331,105.328 " fill="none" id="frontendService-siblingnet" style="stroke: #0000FF; stroke-width: 1.0;"/><!--link gwService to childrennet--><path d="M125.3,174.866 C150.285,181.936 187.203,192.382 214.926,200.227 " fill="none" id="gwService-childrennet" style="stroke: #000000; stroke-width: 1.0;"/><!--link gwService to siblingnet--><path d="M125.3,156.988 C151.944,147.393 192.16,132.91 220.324,122.768 " fill="none" id="gwService-siblingnet" style="stroke: #0000FF; stroke-width: 1.0;"/><!--link orchestratorService to sdi_ioimage--><path d="M155.345,258.918 C263.182,255.035 491.133,246.829 569.979,243.991 " fill="none" id="orchestratorService-sdi_ioimage" style="stroke: #A80036; stroke-width: 1.0; stroke-dasharray: 7.0,7.0;"/><!--link frontendService to sdi_webimage--><path d="M143.242,81.601 C164.975,80.577 191.321,79.504 215,79 C340.149,76.338 488.38,78.681 557.848,80.101 " fill="none" id="frontendService-sdi_webimage" style="stroke: #A80036; stroke-width: 1.0; stroke-dasharray: 7.0,7.0;"/><!--link gwService to sdi_gwimage--><path d="M125.094,166.669 C209.953,165.651 467.03,162.566 561.863,161.428 " fill="none" id="gwService-sdi_gwimage" style="stroke: #A80036; stroke-width: 1.0; stroke-dasharray: 7.0,7.0;"/><!--link sdi_ioimage to sdi_ioStack--><path d="M627.168,244.928 C637.43,245.6433 649.6562,246.4953 662.2583,247.3735 C668.5594,247.8126 674.9545,248.2583 681.245,248.6966 C682.8176,248.8062 684.3837,248.9154 685.9402,249.0238 C686.1347,249.0374 686.3291,249.0509 686.5234,249.0645 " fill="none" id="sdi_ioimage-sdi_ioStack" style="stroke: #A80036; stroke-width: 1.0;"/><polygon fill="#A80036" points="686.5234,249.0645,677.8232,244.4485,681.5355,248.7169,677.2671,252.4291,686.5234,249.0645" style="stroke: #A80036; stroke-width: 1.0;"/><!--link sdi_ioStacksnet to ailtire_appname_sdi_family--><path d="M777.228,211.126 C820.344,220.659 898.375,237.912 958.862,251.286 " fill="none" id="sdi_ioStacksnet-ailtire_appname_sdi_family" style="stroke: #000000; stroke-width: 1.0;"/><!--
@startuml

left to right direction


boundary ailtire_appname_family #red


entity ailtire_appname_sdi_family #black

rectangle "sdi_io" as sdi_ioStack #lightyellow {
    queue sdi_ioStacksnet #black [
        <b><color:white>parent</color></b>
    ]
}



package "sdi" #lightyellow {
    queue childrennet #black [
            <b><color:white>children</color></b>
    ]
    
    childrennet -[#black]- ailtire_appname_sdi_family
    
    queue siblingnet #blue [
            <b><color:white>sibling</color></b>
    ]
    
    queue parentnet #red [
            <b><color:white>parent</color></b>
    ]
    
    parentnet -[#red]- ailtire_appname_family
    

node "orchestrator" as orchestratorService
node "frontend" as frontendService
node "gw" as gwService

        collections "sdi_io" as sdi_ioimage
    
        artifact "sdi_web" as sdi_webimage
    
        artifact "sdi_gw" as sdi_gwimage
    
}

orchestratorService -[#black]- childrennet

orchestratorService -[#red]- parentnet

frontendService -[#blue]- siblingnet

gwService -[#black]- childrennet

gwService -[#blue]- siblingnet
orchestratorService .... sdi_ioimage
frontendService .... sdi_webimage
gwService .... sdi_gwimage

sdi_ioimage - -> sdi_ioStack
    
sdi_ioStacksnet - -[#black]- - ailtire_appname_sdi_family
    

@enduml

PlantUML version 1.2019.05(Sat Apr 20 09:45:36 PDT 2019)
(GPL source distribution)
Java Runtime: OpenJDK Runtime Environment
JVM: OpenJDK 64-Bit Server VM
Java Version: 12.0.1+12
Operating System: Windows 10
OS Version: 10.0
Default Encoding: Cp1252
Language: en
Country: US
--></g></svg>